<svg xmlns="http://www.w3.org/2000/svg" width="920" height="696" viewBox="0 0 920 696">
    <g fill="#14839A" fill-opacity=".03" fill-rule="evenodd">
        <path d="M65.072 696C23.752 627.002 0 546.275 0 460 0 205.949 205.949 0 460 0s460 205.949 460 460c0 86.275-23.751 167.002-65.072 236H65.072z"/>
        <path d="M181.55 696C127.564 632.366 95 549.986 95 460 95 258.416 258.416 95 460 95s365 163.416 365 365c0 89.986-32.564 172.366-86.55 236h-556.9z"/>
        <path d="M328.735 696C245.977 649.87 190 561.472 190 460c0-149.117 120.883-270 270-270 149.117 0 270 120.883 270 270 0 101.472-55.977 189.87-138.735 236h-262.53z"/>
        <circle cx="459" cy="459" r="175"/>
    </g>
</svg>
