<svg xmlns="http://www.w3.org/2000/svg" xmlns:xlink="http://www.w3.org/1999/xlink" width="39" height="39" viewBox="0 0 39 39">
    <defs>
        <path id="a" d="M0 .134h38.851V39H.001z"/>
    </defs>
    <g fill="none" fill-rule="evenodd">
        <g>
            <mask id="b" fill="#fff">
                <use xlink:href="#a"/>
            </mask>
            <path fill="#FEFEFE" d="M33.088 19.659c.013-7.899-6.266-13.787-13.59-13.811-7.6-.025-13.79 5.954-13.865 13.498-.077 7.657 5.919 13.816 13.46 13.955 7.747.142 14.03-6.17 13.995-13.642M.001 19.553C-.105 9.064 8.708.107 19.451.133c10.606.026 19.431 8.774 19.4 19.49-.03 10.502-8.606 19.36-19.473 19.377C8.78 39.017-.105 30.2 0 19.553" mask="url(#b)"/>
        </g>
        <path fill="#FEFEFE" d="M19.55 13.007c3.363-.17 6.46 2.906 6.45 6.46-.01 3.592-2.852 6.504-6.45 6.533-3.604.028-6.547-2.864-6.55-6.479a6.463 6.463 0 0 1 6.55-6.514"/>
    </g>
</svg>
