<svg xmlns="http://www.w3.org/2000/svg" xmlns:xlink="http://www.w3.org/1999/xlink" width="60" height="74" viewBox="0 0 60 74">
    <defs>
        <path id="a" d="M0 0h60v74H0z"/>
    </defs>
    <g fill="none" fill-rule="evenodd">
        <mask id="b" fill="#fff">
            <use xlink:href="#a"/>
        </mask>
        <path fill="#14839A" d="M50.19 56.168V31.586a23.664 23.664 0 0 1 3.418 12.293c0 4.5-1.25 8.706-3.419 12.29m0-34.57V7.016l-6.773 6.743v49.616s-1.788 1.212-3.483 2.002V0l-6.69 6.716v7.22A30.186 30.186 0 0 0 30 13.758c-16.569 0-30 13.485-30 30.12C0 60.515 13.431 74 30 74V25.671l-6.716 6.716v34.216C13.52 63.698 6.392 54.627 6.392 43.88c0-13.091 10.57-23.704 23.608-23.704 1.101 0 2.182.082 3.243.229v53.418C48.286 72.198 60 59.413 60 43.88c0-8.829-3.783-16.77-9.81-22.28" mask="url(#b)"/>
    </g>
</svg>
