<svg xmlns="http://www.w3.org/2000/svg" width="32" height="51" viewBox="0 0 32 51">
    <g fill="#14839A" fill-rule="evenodd">
        <path fill-rule="nonzero" d="M3.6 51h24.8c1.76 0 3.2-1.434 3.2-3.188V3.188C31.6 1.433 30.16 0 28.4 0H3.6C1.84 0 .4 1.434.4 3.188v44.624C.4 49.566 1.84 51 3.6 51zM30 42.314H2V9.642h28v32.672zm-1.6 7.092H3.6c-.88 0-1.6-.717-1.6-1.593v-3.905h28v3.904c0 .877-.72 1.594-1.6 1.594zM3.6 1.594h24.8c.88 0 1.6.717 1.6 1.593v4.861H2v-4.86c0-.877.72-1.594 1.6-1.594z"/>
        <path d="M12.08 5.658H20c.48 0 .8-.319.8-.797 0-.478-.32-.797-.8-.797h-7.92c-.48 0-.8.319-.8.797a.8.8 0 0 0 .8.797zM19.92 45.9H12c-.48 0-.8.319-.8.797 0 .478.32.797.8.797h7.92c.48 0 .8-.319.8-.797 0-.478-.32-.797-.8-.797zM24.16 5.658h1.6c.48 0 .8-.319.8-.797 0-.478-.32-.797-.8-.797h-1.6c-.48 0-.8.319-.8.797a.8.8 0 0 0 .8.797z"/>
        <path fill-rule="nonzero" d="M19.2 32.831h.16c7.44-.08 11.12-9.084 5.84-14.344a.728.728 0 0 0-.56-.239c-.24 0-.4.08-.56.24l-4.8 4.86-4.88-4.86a.775.775 0 0 0-1.12 0c-5.36 5.259-1.6 14.343 5.92 14.343zm5.36-12.67c3.28 4.144.72 10.36-4.56 10.997v-6.455l4.56-4.542zm-10.72 0l4.64 4.542v6.455c-5.36-.558-8-6.774-4.64-10.997z"/>
        <path fill-rule="nonzero" d="M18.64 20.64c.16.158.32.238.56.238.24 0 .4-.08.56-.239L25.2 15.3c.16-.16.24-.319.24-.558 0-.239-.08-.398-.24-.558-3.36-3.346-8.72-3.346-12 0a.722.722 0 0 0-.24.558c0 .24.08.399.24.558l5.44 5.34zm4.8-5.818l-4.24 4.144-4.24-4.144a6.763 6.763 0 0 1 8.48 0z"/>
        <path d="M5.28 39.684h22.88c.48 0 .8-.318.8-.796 0-.479-.32-.797-.8-.797h-4.8v-1.594c0-.478-.32-.797-.8-.797-.48 0-.8.319-.8.797v1.594h-4.24v-1.594c0-.478-.32-.797-.8-.797-.48 0-.8.319-.8.797v1.594h-4.24v-1.594c0-.478-.32-.797-.8-.797-.48 0-.8.319-.8.797v1.594h-4v-2.949h1.44c.48 0 .8-.319.8-.797 0-.478-.32-.797-.8-.797H6.08v-4.223h1.44c.48 0 .8-.319.8-.797 0-.478-.32-.797-.8-.797H6.08v-4.223h1.44c.48 0 .8-.319.8-.797 0-.478-.32-.797-.8-.797H6.08v-4.223h1.44c.48 0 .8-.32.8-.797 0-.478-.32-.797-.8-.797H6.08v-3.745c0-.479-.32-.797-.8-.797-.48 0-.8.318-.8.797v26.536c0 .398.4.796.8.796z"/>
    </g>
</svg>
