<svg xmlns="http://www.w3.org/2000/svg" width="36" height="52" viewBox="0 0 36 52">
    <g fill="#14839A" fill-rule="nonzero">
        <path d="M17.14.788C8.14 1.26.782 8.745.547 17.806.39 23.085 2.583 28.127 6.574 31.673c1.878 1.654 3.287 3.86 3.913 6.303-.783.551-1.252 1.418-1.252 2.363 0 .867.391 1.576.939 2.128-.548.551-.94 1.26-.94 2.127 0 1.576 1.253 2.915 2.896 2.915h.392l.47 2.521c.156.71.782 1.26 1.565 1.26H21.6c.783 0 1.409-.55 1.565-1.26l.47-2.52h.391a2.899 2.899 0 0 0 2.896-2.916c0-.867-.392-1.576-.94-2.127.548-.552.94-1.26.94-2.128 0-1.024-.47-1.89-1.252-2.363a9.04 9.04 0 0 1 .704-2.049c.704-1.575 1.8-2.994 3.13-4.175 3.913-3.31 6.105-8.194 6.105-13.394C35.452 8.352 27.157.315 17.139.788zm4.382 48.848h-7.044l-.391-2.206h7.826l-.391 2.206zm3.678-5.12c0 .708-.548 1.339-1.33 1.339H12.13c-.704 0-1.33-.552-1.33-1.34 0-.709.548-1.34 1.33-1.34h11.818c.704.08 1.252.631 1.252 1.34zm-13.148-2.837c-.704 0-1.33-.552-1.33-1.34 0-.551.313-1.024.782-1.181h12.913c.47.236.783.63.783 1.181 0 .71-.548 1.34-1.33 1.34H12.052zM28.33 30.49c-1.487 1.26-2.66 2.915-3.521 4.648-.313.71-.548 1.497-.783 2.206H12.052h-.078c-.704-2.678-2.27-5.12-4.383-7.012a16 16 0 0 1-5.478-12.606C2.348 9.612 9 2.757 17.217 2.364c9.157-.473 16.67 6.933 16.67 15.994 0 4.727-2.035 9.139-5.557 12.133z"/>
        <path d="M18.783 8.903V7.327l1.643-1.654a.765.765 0 0 0 0-1.103.753.753 0 0 0-1.096 0L18 5.83l-1.33-1.34a.753.753 0 0 0-1.096 0 .765.765 0 0 0 0 1.104l1.643 1.733v1.655c-5.4.394-9.782 4.727-10.095 10.163H4.93c-.47 0-.782.316-.782.788 0 .473.313.788.782.788h2.192c.391 5.437 4.695 9.849 10.095 10.164v2.206c0 .473.313.788.783.788.47 0 .783-.315.783-.788v-2.206c5.4-.394 9.782-4.727 10.095-10.164h2.192c.47 0 .782-.315.782-.788 0-.472-.313-.788-.782-.788h-2.192c-.313-5.515-4.695-9.848-10.095-10.242zM18 20.721c.47 0 .783-.315.783-.788v-5.042c2.426.394 4.304 2.521 4.304 5.042 0 2.837-2.27 5.122-5.087 5.122-2.817 0-5.087-2.285-5.087-5.122 0-2.52 1.878-4.648 4.304-5.042v5.042c0 .394.313.788.783.788zm0 8.667c-5.165 0-9.391-4.255-9.391-9.455 0-4.963 3.834-8.981 8.608-9.375v2.757c-3.287.394-5.87 3.23-5.87 6.618 0 3.703 2.975 6.697 6.653 6.697 3.678 0 6.652-2.994 6.652-6.697 0-3.388-2.582-6.224-5.87-6.618v-2.757c4.775.394 8.61 4.49 8.61 9.375 0 5.2-4.227 9.455-9.392 9.455z"/>
    </g>
</svg>
