<svg xmlns="http://www.w3.org/2000/svg" width="41" height="52" viewBox="0 0 41 52">
    <g fill="#14839A" fill-rule="evenodd">
        <path fill-rule="nonzero" d="M38.579 10.946h-1.937V9.033c0-1.354-1.05-2.39-2.422-2.39H16.222C15.98 3.455 13.236.905 9.927.905c-3.309 0-6.053 2.55-6.214 5.738H2.42C1.05 6.643 0 7.679 0 9.033v36.179c0 1.354 1.05 2.39 2.421 2.39h1.937v1.913c0 1.354 1.05 2.39 2.422 2.39h31.799c1.372 0 2.421-1.036 2.421-2.39V13.337c0-1.275-1.05-2.391-2.421-2.391zM9.927 2.499c2.583 0 4.681 2.072 4.681 4.542v9.005c0 1.514-1.291 2.789-2.825 2.789-1.533 0-2.824-1.275-2.824-2.79V7.122c0-.558.484-.956 1.049-.956s.968.478.968.956v8.367c0 .478.323.797.807.797.485 0 .808-.319.808-.797V7.121c0-1.434-1.211-2.55-2.583-2.55-1.291 0-2.34.956-2.583 2.151H5.407A4.494 4.494 0 0 1 9.927 2.5zM1.614 45.212V9.033c0-.478.323-.796.807-.796h4.923v7.889c0 2.39 2.018 4.382 4.44 4.382 2.42 0 4.438-1.992 4.438-4.382v-7.89H34.22c.485 0 .808.32.808.797v36.179c0 .478-.323.796-.808.796H2.421a.804.804 0 0 1-.807-.796zm37.772 4.303c0 .478-.323.797-.807.797h-31.8c-.484 0-.807-.32-.807-.797v-1.913H34.22c1.373 0 2.422-1.036 2.422-2.39V12.54h1.937c.484 0 .807.318.807.797v36.178z"/>
        <path d="M20.833 15.905h8.334c.5 0 .833-.4.833-1s-.333-1-.833-1h-8.334c-.5 0-.833.4-.833 1s.417 1 .833 1zM20.833 21.905h8.334c.5 0 .833-.4.833-1s-.333-1-.833-1h-8.334c-.5 0-.833.4-.833 1s.417 1 .833 1zM6.797 27.905h22.406c.478 0 .797-.4.797-1s-.319-1-.797-1H6.797c-.478 0-.797.4-.797 1s.399 1 .797 1zM6.797 33.905h22.406c.478 0 .797-.4.797-1s-.319-1-.797-1H6.797c-.478 0-.797.4-.797 1 0 .5.399 1 .797 1zM6.797 40.905h22.406c.478 0 .797-.4.797-1s-.319-1-.797-1H6.797c-.478 0-.797.4-.797 1 0 .5.399 1 .797 1z"/>
    </g>
</svg>
