<svg xmlns="http://www.w3.org/2000/svg" width="51" height="51" viewBox="0 0 51 51">
    <g fill="#14839A" fill-rule="evenodd">
        <path fill-rule="nonzero" d="M48.61 5.182H31.157c-.399-.247-.797-.493-1.275-.658C29.245 3.62 26.616.33 21.993.33c-6.852 0-11.155 7.156-15.06 7.156-.717 0-1.116.988-.558 1.481.08.082 1.673 1.48 3.666 1.81-.558 1.48-.877 4.113 1.514 6.91-.558 1.151-1.116 3.537 1.753 6.004.239.74 1.036 2.88 2.47 4.936-.08 1.48-.16 2.056-.16 2.632l-2.47 1.316c-16.893 8.144-8.526 4.113-10.917 5.265C.877 38.497 0 39.895 0 41.54v7.486c0 .905.717 1.645 1.594 1.645H43.11c.877 0 1.594-.74 1.594-1.645V41.54c0-1.563-.877-3.043-2.311-3.701l-10.917-5.265-2.47-1.316-.16-2.714c.16-.247.319-.494.478-.659h11.077l4.223 4.36c.478.494 1.195.247 1.355-.411l.717-3.866h1.912c1.355 0 2.391-1.152 2.391-2.468V7.65c0-1.316-1.116-2.468-2.39-2.468zm-36.498 4.36c-.478-.905-.956.164-3.028-.905 4.702-1.81 7.411-6.663 13.07-6.663 4.7 0 6.454 3.784 7.012 3.949 1.832.74 3.028 1.892 3.426 3.454.478 1.563.08 3.29-.398 4.69-.797-3.373-3.188-5.841-3.347-6.006-.16-.164-.478-.246-.717-.246-.24.082-.478.246-.558.493-1.275 2.797-5.26 4.36-7.252 4.936.08-2.962-1.673-3.538-2.072-2.468-1.275 3.372-4.143 5.182-5.339 5.758-2.789-3.29-.876-6.005-.796-6.087.08-.247.159-.658 0-.905zm1.036 8.72c.797-.33 3.586-1.728 5.499-4.854 0 .247 0 .494-.08.823-.08.575.399 1.069.956.904.24-.082 6.296-1.398 8.846-5.1 1.036 1.317 2.71 4.031 2.39 6.91-.08.823 1.116.987 1.036 2.715-.08 1.81-1.912 2.714-2.072 3.29-1.673 5.594-5.896 8.637-7.73 8.308-5.02-.987-7.25-8.226-7.25-8.308-.08-.658-2.95-2.221-1.595-4.689zm3.188 14.477l4.781 5.922-3.586 1.892-2.868-6.91 1.673-.904zM43.11 41.54v7.486H1.594V41.54c0-.987.558-1.81 1.354-2.22l10.2-4.936 3.188 7.65c.16.411.717.658 1.116.411l4.86-2.714 4.861 2.714a.752.752 0 0 0 1.116-.411l3.188-7.65 10.2 4.935c.876.33 1.434 1.234 1.434 2.221zm-13.069-7.896l-2.869 6.91-3.585-1.975 4.78-5.923 1.674.988zm-2.63-2.304l-5.1 6.252-5.02-6.252c0-.082.08-.905.08-.987 1.355 1.316 3.745 2.797 5.498 2.468 1.833-.33 3.267-1.316 4.463-2.55l.08 1.07zm21.994-6.005a.811.811 0 0 1-.797.823H45.9a.782.782 0 0 0-.797.658l-.558 3.044-3.347-3.455a.713.713 0 0 0-.557-.247H30.2a19.925 19.925 0 0 0 1.037-2.55c2.55-2.22 2.709-4.77 1.354-6.663.717-1.316 2.47-4.77 1.514-8.061-.239-.74-.558-1.48-1.036-2.057h15.54c.477 0 .796.412.796.823v17.685z"/>
        <path d="M44.625 10.365h-3.188c-.478 0-.796.329-.796.822 0 .494.318.823.797.823h3.187c.478 0 .797-.33.797-.823 0-.493-.319-.822-.797-.822zM44.625 15.629h-4.781c-.478 0-.797.33-.797.823 0 .493.319.822.797.822h4.781c.478 0 .797-.329.797-.822 0-.494-.319-.823-.797-.823zM44.625 20.894h-7.969c-.478 0-.797.329-.797.822 0 .494.32.823.797.823h7.969c.478 0 .797-.33.797-.823 0-.493-.319-.822-.797-.822z"/>
    </g>
</svg>
