<svg xmlns="http://www.w3.org/2000/svg" width="51" height="53" viewBox="0 0 51 53">
    <g fill="#14839A" fill-rule="evenodd">
        <path fill-rule="nonzero" d="M3.188 50.204c.159 1.204 1.195 2.168 2.39 2.168h36.019a2.412 2.412 0 0 0 2.39-2.088l2.949-23.609c.16-1.445-.956-2.65-2.39-2.65h-2.391v-2.81h7.172c.876 0 1.593-.723 1.593-1.687v-5.942c0-.884-.717-1.687-1.593-1.687h-7.172V3.307c0-1.365-1.036-2.41-2.39-2.41-32.513 0-24.943-.08-26.059 0-.16 0-.398.081-.478.242L5.34 9.089c-.16.16-.239.32-.239.481v14.214H2.71c-1.435 0-2.55 1.285-2.391 2.73l2.869 23.69zm41.596-36.779v2.168h-22.95v-2.168h22.95zm-24.543 5.38l-3.985-2.409 3.985-2.409v4.818zm1.593-1.606h22.95v2.249h-22.95v-2.249zm27.333 2.249h-2.789v-5.943h2.79v5.943zM12.99 3.628v5.22H7.81l5.18-5.22zm-6.375 6.826h7.092c.478 0 .797-.321.797-.803V2.504h25.102c.478 0 .797.321.797.803v8.432H21.038c-.16 0-.32 0-.399.08l-6.375 3.854c-.558.322-.558 1.044 0 1.366l6.375 3.854c.16.08.24.08.399.08H40.48v2.811H6.614v-13.33zM2.63 25.47h41.836c.478 0 .876.402.797.884l-2.949 23.609c-.08.401-.398.723-.797.723H5.498c-.398 0-.717-.322-.796-.723l-2.87-23.61c-.079-.481.32-.883.798-.883z"/>
        <path d="M19.523 8.045h1.594c.478 0 .797-.322.797-.803 0-.482-.319-.803-.797-.803h-1.594c-.478 0-.796.32-.796.803 0 .481.318.803.796.803zM26.695 8.045h1.594c.478 0 .797-.322.797-.803 0-.482-.319-.803-.797-.803h-1.594c-.478 0-.797.32-.797.803 0 .481.32.803.797.803zM33.867 8.045h1.594c.478 0 .797-.322.797-.803 0-.482-.319-.803-.797-.803h-1.594c-.478 0-.797.32-.797.803 0 .481.32.803.797.803zM28.448 41.29h9.563c.478 0 .797-.321.797-.803 0-.482-.319-.803-.797-.803h-9.563c-.478 0-.796.321-.796.803 0 .482.318.803.796.803zM28.448 36.472h9.563c.478 0 .797-.321.797-.803 0-.482-.319-.803-.797-.803h-9.563c-.478 0-.796.321-.796.803 0 .482.318.803.796.803zM28.448 31.654h9.563c.478 0 .797-.321.797-.803 0-.482-.319-.803-.797-.803h-9.563c-.478 0-.796.32-.796.803 0 .482.318.803.796.803zM28.448 46.108h9.563c.478 0 .797-.32.797-.803 0-.482-.319-.803-.797-.803h-9.563c-.478 0-.796.321-.796.803 0 .482.318.803.796.803z"/>
        <path fill-rule="nonzero" d="M23.269 43.298c0-3.212-1.992-5.943-4.781-7.067.796-.723 1.274-1.767 1.274-2.971 0-2.249-1.832-4.015-3.984-4.015-2.231 0-3.984 1.847-3.984 4.015 0 1.204.478 2.248 1.275 2.971-2.79 1.124-4.782 3.855-4.782 7.067 0 4.818 14.982 4.898 14.982 0zM13.388 33.26a2.407 2.407 0 0 1 2.39-2.41c1.355 0 2.39 1.125 2.39 2.41a2.407 2.407 0 0 1-2.39 2.409c-1.355.08-2.39-1.044-2.39-2.41zm2.39 4.095c3.267 0 5.897 2.65 5.897 5.943 0 2.65-11.873 2.65-11.873 0 .08-3.293 2.709-5.943 5.976-5.943z"/>
    </g>
</svg>
