<svg xmlns="http://www.w3.org/2000/svg" width="46" height="63" viewBox="0 0 46 63">
    <path fill="#14839A" fill-rule="evenodd" d="M26.192.028l-.06.904c-.028.426-.238.737-.645 1.026-.408.289-1.004.485-1.54.52h-5.056c-3.365 0-6.094 2.772-6.094 6.173v4.626c0 .132.003.168.003.057 0-.066-.003-.076-.003.06v2.018a.979.979 0 0 0 0 .193v4.03c0 2.523.929 4.802 2.41 6.598v5.253L4.53 37.719a8.935 8.935 0 0 0-4.483 7.748V57.96h18.886L23 62.26l4.068-4.304h18.886V45.251a8.57 8.57 0 0 0-4.31-7.433l-10.622-6.332v-5.53c1.348-1.753 2.181-3.928 2.181-6.32v-3.343a.979.979 0 0 0 0-.179v-2.72c0-.106-.002-.095-.003-.049 0 .04.003.06.003-.057V6.451l-.007-.064c-.226-1.734-.758-3.298-1.766-4.475C30.422.736 28.91.027 27.09.036V.028h-.898zm1.253 2.09c1.09.085 1.94.373 2.525 1.055.66.77 1.106 1.966 1.301 3.442v6.666c0-.101-.002-.07-.003.049 0 .15.003.146.003.06v.536a5.559 5.559 0 0 0-1.705-.623c-1.34-.246-2.729-.143-4.068-.087-1.34.056-2.621.066-3.672-.224-1.05-.29-1.879-.81-2.573-2.013a.965.965 0 0 0-.887-.486.968.968 0 0 0-.88.718c.026-.094-.166.307-.486.687a12.9 12.9 0 0 1-1.219 1.238c-.358.32-.713.575-1.052.813v-.558c0 .107.003.071.003-.053 0-.15-.003-.143-.003-.057V8.654c0-2.364 1.841-4.227 4.162-4.227H24.07c.873-.059 1.77-.333 2.529-.87.438-.31.576-.927.845-1.436v-.004zM18.54 13.048c.824.876 1.758 1.534 2.777 1.816 1.425.394 2.89.353 4.26.296 1.37-.057 2.653-.128 3.642.053.924.17 1.55.493 2.052 1.269v3.148c0 4.67-3.677 8.395-8.271 8.395-4.594 0-8.271-3.724-8.271-8.395v-3.384c.25-.115.481-.258.732-.418a12.773 12.773 0 0 0 1.603-1.238 14.66 14.66 0 0 0 1.412-1.436c.029-.035.035-.071.064-.106zm10.55 14.84v3.802l-6.177 5.257-5.773-4.911v-3.958A10.04 10.04 0 0 0 23 29.974c2.293 0 4.388-.793 6.09-2.085zm1.136 5.386l2.083 1.242-3.705 6.24-2.423-1.925-1.28-1.026 5.325-4.531zm-14.464.133l5.17 4.402-1.041.843-2.664 2.105-3.615-6.093 2.15-1.257zm18.208 2.1l6.713 4h.007a6.614 6.614 0 0 1 3.332 5.743v10.76H38.51v-4.994h-1.932v4.994h-8.871l-1.729-13.04c.303-.381.545-.806.687-1.275l2.472 1.96 4.834-8.148zm-22.03.133l4.75 8.01 2.604-2.054c.14.508.404.965.729 1.375L18.29 56.015H9.74v-4.998H7.808v4.998h-5.83V45.467a6.98 6.98 0 0 1 3.513-6.062h.004l6.445-3.764zm10.977 3.062l1.992 1.599v.277c0 .689-.362 1.323-.954 1.667a1.894 1.894 0 0 1-1.91 0 1.928 1.928 0 0 1-.958-1.667v-.399l.004-.004 1.826-1.473zM21.8 44.229c.781.26 1.615.259 2.396 0l1.619 12.234L23 59.438l-2.819-2.975L21.8 44.23z"/>
</svg>
