<svg xmlns="http://www.w3.org/2000/svg" width="61" height="61" viewBox="0 0 61 61">
    <g fill="#14839A" fill-rule="evenodd">
        <circle cx="6" cy="56" r="1" transform="rotate(-45 6 56)"/>
        <path fill-rule="nonzero" d="M61 31.174c0-.77-.313-1.464-.86-2.003L31.35.809C30.257-.27 28.3-.27 27.206.81l-3.286 3.237-.782-.77a.764.764 0 0 0-1.096 0 .737.737 0 0 0 0 1.078l.783.771-3.286 3.237c-.548.54-.86 1.233-.86 2.004 0 .77.312 1.464.86 2.004l28.71 28.284a2.862 2.862 0 0 0 4.068 0l3.599-3.545.626.616c.47.463.47 1.233 0 1.696l-6.65 6.782a1.241 1.241 0 0 1-1.72 0L32.993 31.25a2.768 2.768 0 0 0-3.912 0l-8.762 8.632-2.425-2.389a.764.764 0 0 0-1.095 0L1.467 52.599a4.833 4.833 0 0 0 0 6.937C2.406 60.46 3.735 61 4.987 61c1.252 0 2.582-.462 3.52-1.464L23.842 44.43a.695.695 0 0 0 .234-.54.695.695 0 0 0-.234-.539l-2.425-2.389 8.761-8.632a1.241 1.241 0 0 1 1.721 0l15.177 14.952c.548.54 1.252.77 1.956.77s1.408-.23 1.956-.77L57.87 40.5c.547-.54.782-1.233.782-1.927s-.313-1.387-.782-1.927l-.626-.616 2.894-2.852c.548-.54.861-1.233.861-2.004zM7.412 58.457c-1.33 1.31-3.52 1.31-4.85 0a3.36 3.36 0 0 1 0-4.779l14.786-14.566 4.85 4.779L7.412 58.457zm51.632-26.358l-7.588 7.476c-.548.54-1.408.54-1.878 0L20.79 11.29c-.548-.54-.548-1.388 0-1.85l7.588-7.476c.548-.54 1.408-.54 1.878 0l28.71 28.285c.548.462.548 1.31.078 1.85z"/>
        <path d="M19 24c.6 0 1-.296 1-.74v-8.52c0-.444-.4-.74-1-.74s-1 .296-1 .74v8.52c0 .444.4.74 1 .74zM22 29c.6 0 1-.318 1-.795v-10.41c0-.477-.4-.795-1-.795s-1 .318-1 .795v10.41c0 .477.5.795 1 .795zM21 34.167c0 .5.4.833 1 .833s1-.333 1-.833v-3.334c0-.5-.4-.833-1-.833s-1 .333-1 .833v3.334zM18 30.167c0 .5.4.833 1 .833s1-.333 1-.833v-3.334c0-.5-.4-.833-1-.833s-1 .333-1 .833v3.334zM27 28.238v-6.476c0-.457-.4-.762-1-.762s-1 .305-1 .762v6.476c0 .457.4.762 1 .762s1-.381 1-.762z"/>
    </g>
</svg>
