<svg xmlns="http://www.w3.org/2000/svg" width="53" height="53" viewBox="0 0 53 53">
    <g fill="#14839A" fill-rule="evenodd">
        <path d="M42.212 37.81c.134.127.307.19.48.19.18 0 .362-.07.498-.207l2.616-2.65a.662.662 0 0 0-.018-.954.702.702 0 0 0-.978.018l-2.616 2.65a.662.662 0 0 0 .018.954zM38.191 36.802c.121.132.277.198.433.198a.589.589 0 0 0 .45-.217l4.751-5.585a.773.773 0 0 0-.016-1 .573.573 0 0 0-.883.019l-4.751 5.585a.773.773 0 0 0 .016 1z"/>
        <path fill-rule="nonzero" d="M52.337 0H.663A.662.662 0 0 0 0 .662v5.65c0 .366.296.662.662.662h1.774v45.364c0 .366.297.662.663.662h46.803a.662.662 0 0 0 .662-.663V6.974h1.773A.662.662 0 0 0 53 6.312V.662A.662.662 0 0 0 52.337 0zM3.761 19.782h13.573v26.469H3.761V19.782zm45.478 0V40.91H18.66V19.782h30.58zM30.006 46.251v-4.017h7.931v4.017h-7.931zm-11.347 0v-4.017h10.022v4.017H18.659zm0 1.325h6.11v4.099h-6.11v-4.1zm7.435 0h7.215v4.099h-7.215v-4.1zm8.54 0h7.215v4.099h-7.215v-4.1zm4.628-1.325v-4.017h9.977v4.017h-9.977zm9.977-27.794H3.761v-4.213H49.24v4.213zM3.761 47.576h13.573v4.099H3.761v-4.1zm39.413 4.099v-4.1h6.065v4.1h-6.065zm6.065-38.756H3.761V6.974H49.24v5.945zm2.436-7.27H1.325V1.325h50.35v4.324z"/>
        <path d="M12.5 31c-.276 0-.5.292-.5.653v2.694c0 .36.224.653.5.653s.5-.292.5-.653v-2.694c0-.36-.224-.653-.5-.653z"/>
    </g>
</svg>
