<svg xmlns="http://www.w3.org/2000/svg" width="40" height="40" viewBox="0 0 40 40">
    <g fill="#FFF" fill-rule="evenodd">
        <path fill-rule="nonzero" d="M39.556 19.56c.244 10.267-7.823 19.311-18.578 19.8-11 .489-20.045-8.067-20.534-18.822C-.044 10.027 8.267.738 19.022.248c11-.488 20.29 8.067 20.534 19.312zM20 36.67c9.289 0 16.867-7.578 16.867-16.867 0-9.289-7.578-17.11-16.867-17.11-9.289 0-16.867 7.577-16.867 16.866 0 9.533 7.334 17.111 16.867 17.111z"/>
        <path d="M29.284 13.609a3.85 3.85 0 0 1-1.633 2.078l.014.031c.357-.078.719-.14 1.07-.237.35-.096.69-.226 1.043-.345-.109.148-.213.297-.325.44a7.482 7.482 0 0 1-1.497 1.451c-.037.027-.058.051-.055.104.027.575 0 1.147-.073 1.718-.062.478-.154.95-.276 1.416a11.189 11.189 0 0 1-1.025 2.574 10.67 10.67 0 0 1-2.917 3.407 10.021 10.021 0 0 1-3.015 1.569c-.643.207-1.3.35-1.97.435-.679.085-1.36.116-2.045.08a10.742 10.742 0 0 1-5.147-1.613 1.265 1.265 0 0 1-.07-.048c-.005-.003-.005-.01-.008-.018 2.05.197 3.9-.31 5.558-1.564-1.74-.142-2.905-1.018-3.52-2.631.564.09 1.117.073 1.687-.076-1.176-.288-2.05-.94-2.606-1.997a3.674 3.674 0 0 1-.415-1.77 3.83 3.83 0 0 0 1.707.47c-.959-.686-1.52-1.588-1.652-2.738a3.717 3.717 0 0 1 .484-2.315c2.05 2.415 4.644 3.743 7.798 3.96-.025-.246-.056-.473-.07-.701a3.528 3.528 0 0 1 .334-1.74c.497-1.06 1.31-1.779 2.44-2.077 1.41-.372 2.656-.027 3.708.99.052.05.095.06.163.046a7.67 7.67 0 0 0 2.246-.862l.067-.037z"/>
    </g>
</svg>
