<?xml version="1.0" encoding="utf-8"?>
<!-- Generator: Adobe Illustrator 22.1.0, SVG Export Plug-In . SVG Version: 6.00 Build 0)  -->
<svg version="1.1" id="Capa_1" xmlns="http://www.w3.org/2000/svg" xmlns:xlink="http://www.w3.org/1999/xlink" x="0px" y="0px"
	 viewBox="0 0 58 42.2" style="enable-background:new 0 0 58 42.2;" xml:space="preserve">
<style type="text/css">
	.st0{fill:#F58705;}
</style>
<g>
	<path class="st0" d="M56.1,8.2L5,0v4.3L2,4.1v4.1H0v34h58v-34L56.1,8.2L56.1,8.2z M7,2.4l26.8,4.3L7,4.5V2.4z M4,6.3l1,0.1l0,0
		l6.8,0.5L28,8.2H4V6.3z M56,40.2H2v-30h51h3V40.2z"/>
	<path class="st0" d="M6.5,18.2c1.9,0,3.5-1.6,3.5-3.5s-1.6-3.5-3.5-3.5S3,12.8,3,14.7S4.6,18.2,6.5,18.2z M6.5,13.2
		c0.8,0,1.5,0.7,1.5,1.5s-0.7,1.5-1.5,1.5S5,15.5,5,14.7S5.7,13.2,6.5,13.2z"/>
	<path class="st0" d="M48,14.7c0,1.9,1.6,3.5,3.5,3.5s3.5-1.6,3.5-3.5s-1.6-3.5-3.5-3.5S48,12.8,48,14.7z M53,14.7
		c0,0.8-0.7,1.5-1.5,1.5S50,15.5,50,14.7s0.7-1.5,1.5-1.5S53,13.9,53,14.7z"/>
	<path class="st0" d="M6.5,32.2c-1.9,0-3.5,1.6-3.5,3.5s1.6,3.5,3.5,3.5s3.5-1.6,3.5-3.5S8.4,32.2,6.5,32.2z M6.5,37.2
		c-0.8,0-1.5-0.7-1.5-1.5s0.7-1.5,1.5-1.5S8,34.9,8,35.7S7.3,37.2,6.5,37.2z"/>
	<path class="st0" d="M51.5,32.2c-1.9,0-3.5,1.6-3.5,3.5s1.6,3.5,3.5,3.5s3.5-1.6,3.5-3.5S53.4,32.2,51.5,32.2z M51.5,37.2
		c-0.8,0-1.5-0.7-1.5-1.5s0.7-1.5,1.5-1.5s1.5,0.7,1.5,1.5S52.3,37.2,51.5,37.2z"/>
	<path class="st0" d="M31.5,38.9c0.1,0,0.2,0,0.4-0.1c0.4-0.1,0.7-0.2,1.1-0.3c0.2,0,0.3-0.1,0.5-0.2c0.2-0.1,0.4-0.1,0.6-0.2
		c0.2-0.1,0.4-0.1,0.5-0.2c0.2-0.1,0.4-0.2,0.6-0.3c0.3-0.1,0.5-0.3,0.8-0.4c0,0,0.1,0,0.1-0.1H47l0-1c0-0.1,0-0.3,0-0.4
		c0-2.5,2-4.5,4.5-4.5c0.1,0,0.3,0,0.4,0l1.1,0.1V19.1l-1.1,0.1c-0.1,0-0.3,0-0.4,0c-2.5,0-4.5-2-4.5-4.5c0-0.1,0-0.3,0-0.4l0.1-1.1
		H36.2c-2.1-1.3-4.5-2-7.2-2s-5.1,0.7-7.2,2H10.9l0.1,1.1c0,0.1,0,0.3,0,0.4c0,2.5-2,4.5-4.5,4.5c-0.1,0-0.3,0-0.4,0L5,19.1v12.2
		l1.1-0.1c0.1,0,0.3,0,0.4,0c2.5,0,4.5,2,4.5,4.5c0,0.1,0,0.3,0,0.4l-0.1,1.1h10.9c0.2,0.1,0.3,0.2,0.5,0.3c0,0,0.1,0.1,0.2,0.1
		c0.3,0.2,0.7,0.3,1,0.5c0.1,0,0.2,0.1,0.2,0.1c0.4,0.2,0.8,0.3,1.2,0.4l0,0c0.4,0.1,0.8,0.2,1.2,0.3c0.1,0,0.2,0,0.3,0.1
		c0.3,0.1,0.6,0.1,1,0.1c0.1,0,0.2,0,0.4,0c0.4,0,0.9,0.1,1.3,0.1s0.8,0,1.3-0.1c0.1,0,0.3,0,0.4,0C30.9,39,31.2,39,31.5,38.9z
		 M26.2,36.9c-0.1,0-0.1,0-0.2,0c-0.3-0.1-0.6-0.2-1-0.3c-0.1-0.1-0.3-0.1-0.4-0.2c-0.2-0.1-0.5-0.2-0.7-0.3
		c-0.1-0.1-0.2-0.1-0.3-0.2l2.7-1.3c0.6-0.3,0.9-0.9,0.9-1.5v-1.7l-0.6-0.3c-1.3-0.6-2.1-1.6-2.5-3.2L24,27.4l-0.5-0.2
		c-0.3-0.1-0.5-0.4-0.5-0.7v-0.9c0-0.3,0.2-0.5,0.4-0.6l0.5-0.3l0.1-0.5c0.1-0.8,0.3-1.5,0.5-2.2c0.1-0.3,0.2-0.5,0.3-0.7
		c0.3-0.6,0.4-0.9,0.4-1.5c1,0.5,2.2,0.7,3.5,0.6c0.1,0,0.3,0,0.4,0c3.2,0,4.7,1.1,5,3.7l0.1,0.5l0.5,0.2c0.2,0.1,0.4,0.3,0.4,0.7
		v0.9c0,0.3-0.2,0.6-0.5,0.7l-0.5,0.2L34,27.8c-0.4,1.6-1.3,2.7-2.5,3.2l-0.6,0.3v1.8c0,0.6,0.3,1.2,0.9,1.5l2.8,1.4
		c0,0-0.1,0-0.1,0.1c-0.3,0.2-0.7,0.3-1.1,0.4h-0.1C30.7,37.3,28.4,37.4,26.2,36.9z M38.8,15.2H45c0.2,3.2,2.8,5.7,6,6v8
		c-3.2,0.2-5.7,2.8-6,6h-6.2l0,0c0.2-0.2,0.3-0.3,0.5-0.5s0.3-0.3,0.5-0.5c0.1-0.1,0.1-0.1,0.2-0.2c1.6-2,2.7-4.5,3-7.2v-0.1
		c0-0.5,0.1-0.9,0.1-1.4s0-1-0.1-1.4v-0.1c-0.3-2.7-1.3-5.1-3-7.2c-0.1-0.1-0.1-0.1-0.2-0.2c-0.1-0.2-0.3-0.3-0.5-0.5
		C39.2,15.6,39,15.4,38.8,15.2L38.8,15.2z M35.4,15.1c0.8,0.5,1.6,1.1,2.2,1.8c0.1,0.1,0.2,0.2,0.3,0.3c0.2,0.2,0.4,0.5,0.6,0.7
		c0.1,0.1,0.2,0.3,0.3,0.4c0.2,0.3,0.3,0.5,0.5,0.8c0.1,0.1,0.1,0.2,0.2,0.4c0.2,0.4,0.4,0.8,0.6,1.2c0.1,0.1,0.1,0.3,0.2,0.5
		c0.1,0.3,0.2,0.6,0.3,0.9c0,0.2,0.1,0.3,0.1,0.5c0.1,0.3,0.1,0.6,0.2,0.9c0,0.1,0,0.3,0.1,0.4c0.1,0.5,0.1,0.9,0.1,1.4
		s0,0.9-0.1,1.4c0,0.1,0,0.3-0.1,0.4c0,0.3-0.1,0.6-0.2,0.9c0,0.2-0.1,0.3-0.1,0.5c-0.1,0.3-0.2,0.6-0.3,0.8s-0.1,0.3-0.2,0.5
		c-0.2,0.4-0.3,0.8-0.6,1.2c-0.1,0.1-0.1,0.2-0.2,0.4c-0.2,0.3-0.3,0.5-0.5,0.8c-0.1,0.1-0.2,0.3-0.3,0.4c-0.2,0.3-0.4,0.5-0.6,0.7
		c-0.1,0.1-0.2,0.2-0.3,0.3c-0.5,0.5-1,0.9-1.6,1.3c-0.2-0.1-0.3-0.2-0.5-0.3L32.4,33v-0.2c1.4-0.8,2.4-2.1,2.9-3.8
		c0.9-0.5,1.4-1.4,1.4-2.4v-0.9c0-0.8-0.4-1.6-1-2.1c-0.4-2.4-2-5-7-5c-0.2,0-0.4,0-0.6,0c-0.7,0.1-1.8,0-2.7-0.6
		c-0.3-0.2-0.6-0.5-0.8-0.7c-0.3-0.4-0.9-0.6-1.4-0.4s-0.8,0.7-0.7,1.2c0,0.3,0.1,0.7,0.2,1.1c0.3,0.9,0.3,0.9,0.1,1.3
		c-0.1,0.2-0.2,0.4-0.3,0.7c-0.3,0.7-0.5,1.5-0.6,2.3c-0.6,0.5-1,1.3-1,2.1v0.9c0,1,0.5,1.9,1.4,2.4c0.6,1.7,1.5,3,2.9,3.8v0.2
		L22,34.5c-0.1,0.1-0.2,0.1-0.3,0.2c-0.5-0.4-0.9-0.8-1.4-1.2c-0.1-0.1-0.2-0.2-0.3-0.3c-0.2-0.2-0.4-0.5-0.6-0.7
		c-0.1-0.1-0.2-0.3-0.3-0.4c-0.2-0.3-0.3-0.5-0.5-0.8c-0.1-0.1-0.1-0.2-0.2-0.4c-0.2-0.4-0.4-0.8-0.6-1.2c-0.1-0.2-0.1-0.3-0.2-0.5
		c-0.1-0.3-0.2-0.6-0.3-0.8c0-0.2-0.1-0.3-0.1-0.5c-0.1-0.3-0.1-0.6-0.2-0.9c0-0.1,0-0.3-0.1-0.4c0.1-0.5,0.1-0.9,0.1-1.4
		s0-0.9,0.1-1.4c0-0.1,0-0.3,0.1-0.4c0-0.3,0.1-0.6,0.2-0.9c0-0.2,0.1-0.3,0.1-0.5c0.1-0.3,0.2-0.6,0.3-0.9c0.1-0.2,0.1-0.3,0.2-0.5
		c0.2-0.4,0.3-0.8,0.6-1.2c0.1-0.1,0.1-0.2,0.2-0.4c0.2-0.3,0.3-0.5,0.5-0.8c0.1-0.1,0.2-0.3,0.3-0.4c0.2-0.3,0.4-0.5,0.6-0.7
		c0.1-0.1,0.2-0.2,0.3-0.3c0.7-0.7,1.4-1.3,2.2-1.8c1.9-1.2,4.1-1.9,6.4-1.9S33.6,13.9,35.4,15.1z M13,35.2c-0.2-3.2-2.8-5.7-6-6v-8
		c3.2-0.2,5.7-2.8,6-6h6.2l0,0c-0.2,0.2-0.3,0.4-0.5,0.5c-0.2,0.2-0.3,0.3-0.5,0.5c-0.1,0.1-0.1,0.1-0.2,0.2c-1.6,2-2.7,4.5-3,7.2
		v0.1c0,0.5-0.1,0.9-0.1,1.4s0,1,0.1,1.4v0.1c0.3,2.7,1.3,5.1,3,7.2c0.1,0.1,0.1,0.1,0.2,0.2c0.1,0.2,0.3,0.3,0.5,0.5
		s0.3,0.4,0.5,0.5l0,0L13,35.2L13,35.2z"/>
</g>
</svg>
