<?xml version="1.0" encoding="utf-8"?>
<!-- Generator: Adobe Illustrator 22.1.0, SVG Export Plug-In . SVG Version: 6.00 Build 0)  -->
<svg version="1.1" id="svg2816" xmlns="http://www.w3.org/2000/svg" xmlns:xlink="http://www.w3.org/1999/xlink" x="0px" y="0px"
	 viewBox="0 0 480 600" style="enable-background:new 0 0 480 600;" xml:space="preserve">
<style type="text/css">
	.st0{clip-path:url(#SVGID_1_);}
	.st1{fill:#F58705;}
</style>
<g id="g2830">
	<g>
		<defs>
			<path id="SVGID_3_" d="M240,600C141.3,552.5,0.2,458.1,0.2,271.5S9.1,0,9.1,0H240h230.9c0,0,8.9,84.9,8.9,271.5
				S338.7,552.5,240,600z"/>
		</defs>
		<clipPath id="SVGID_1_">
			<use xlink:href="#SVGID_3_"  style="overflow:visible;"/>
		</clipPath>
		<g class="st0">
			<path class="st1" d="M108.3,384.4c26.8,0,43.8,12.3,53.6,23c9.7-18,28.7-45.8,56.9-55.6v-85.5c-30.1-0.4-82.7-0.1-125.3,14.2
				c0,0,1.2-16.6,1.2-36c0-19.3-1.2-36-1.2-36C140,224,192.2,223,218.9,222.6v-64.7c-24.4-0.2-59.4,0.9-99.1,14.2
				c0,0,1.2-16.6,1.2-36c0-19.4-1.2-36-1.2-36c39.6,13.3,74.7,14.4,99,14.2c-1.3-41-13.2-92.7-13.2-92.7s24.6,1.9,34.4,1.9
				c9.8,0,34.4-1.9,34.4-1.9s-11.9,51.7-13.2,92.7c24.3,0.2,59.4-1,99-14.2c0,0-1.2,16.6-1.2,36c0,19.4,1.2,36,1.2,36
				c-39.7-13.3-74.8-14.4-99.1-14.2v64.7c26.7,0.4,78.9,1.5,125.3-14.1c0,0-1.2,16.6-1.2,36c0,19.4,1.2,36,1.2,36
				c-42.6-14.2-95.2-14.5-125.3-14.2v85.5c28.2,9.8,47.2,37.6,56.9,55.6c9.8-10.7,26.9-23,53.6-23c30.1,0,52.1,23.9,66.4,47.3
				c25.4-43.9,41.8-96.7,41.8-160.2C479.8,84.9,470.9,0,470.9,0H240H9.1c0,0-8.9,84.9-8.9,271.5C0.2,335,16.5,387.8,42,431.7
				C56.3,408.3,78.2,384.4,108.3,384.4z"/>
			<path class="st1" d="M173,430.7l-8.6,22.3l-9.8-21.7c-0.5-1-13-26.8-46.2-26.8c-23.4,0-42.2,23.9-54.4,46.5
				c50.1,73.9,125.9,120.2,186,149.1c60.1-28.9,135.9-75.2,186-149.1c-12.1-22.6-31-46.5-54.3-46.5c-33.3,0-45.7,25.8-46.3,26.9
				l-9.8,21.7l-8.6-22.3c-0.2-0.6-24.8-62.5-67-62.5C197.6,368.2,173.3,430.1,173,430.7z"/>
		</g>
	</g>
</g>
</svg>
