<?xml version="1.0" encoding="utf-8"?>
<!-- Generator: Adobe Illustrator 22.1.0, SVG Export Plug-In . SVG Version: 6.00 Build 0)  -->
<svg version="1.1" id="Layer_1" xmlns="http://www.w3.org/2000/svg" xmlns:xlink="http://www.w3.org/1999/xlink" x="0px" y="0px"
	 viewBox="0 0 480.3 464.5" style="enable-background:new 0 0 480.3 464.5;" xml:space="preserve">
<style type="text/css">
	.st0{fill:#F58705;}
</style>
<path class="st0" d="M362.2,409.9l-23.4,46l14.3,7.2l21.5-42.4l91-14.3c4.4-0.7,7.3-4.8,6.7-9.1l0,0l-14.5-91l17.1-17.1l-11.3-11.3
	l-20,20c-1.8,1.8-2.7,4.4-2.2,6.9l13.9,87.1l-87.2,13.8C365.6,406.1,363.4,407.7,362.2,409.9z"/>
<path class="st0" d="M31.8,122.3l-6.9-43.1l87.2-13.7c2.5-0.4,4.7-2,5.9-4.3l27.4-54L131.1,0l-25.6,50.4l-91,14.3
	c-4.4,0.7-7.3,4.8-6.7,9.1l0,0l8.1,51L31.8,122.3z"/>
<path class="st0" d="M18.5,140.9l15.8-2.5l2.5,16l-15.7,2.5L18.5,140.9z"/>
<path class="st0" d="M423.7,175.9l12-75.5c0.7-4.4-2.3-8.5-6.6-9.2l0,0l-75.5-11.9L319,11.1c-1-1.9-2.6-3.3-4.7-4
	c-2-0.6-4.2-0.5-6.1,0.5l-68.1,35L172,7.8c-3.9-2-8.8-0.5-10.8,3.5l0,0l-34.6,68.2L51.1,91.4c-4.4,0.7-7.3,4.8-6.7,9.1l0,0l12,75.5
	L2.3,230c-3.1,3.1-3.1,8.2,0,11.3l0,0l54.1,54l-12,75.5c-0.7,4.4,2.3,8.5,6.6,9.2l0,0l75.5,11.9l34.6,68.2c1,1.9,2.6,3.3,4.7,4
	c0.8,0.3,1.6,0.4,2.5,0.4c1.3,0,2.5-0.3,3.6-0.9l68.2-35l68.1,34.8c3.9,2,8.8,0.5,10.8-3.5l0,0l34.6-68.2l75.5-11.9
	c4.4-0.7,7.3-4.8,6.7-9.1l0,0l-12-75.5l54.1-54c3.1-3.1,3.1-8.2,0-11.3l0,0L423.7,175.9z M409.5,286.8c-1.8,1.8-2.7,4.4-2.2,6.9
	l11.4,71.6L347,376.6c-2.5,0.4-4.7,2-5.9,4.3l-32.8,64.7l-64.6-33c-2.3-1.2-5-1.2-7.3,0l-64.6,33l-32.7-64.8
	c-1.2-2.3-3.4-3.9-5.9-4.3l-71.6-11.2L73,293.7c0.4-2.5-0.4-5.1-2.2-6.9l-51.4-51.2l51.3-51.2c1.8-1.8,2.7-4.4,2.2-6.9l-11.4-71.6
	l71.6-11.3c2.5-0.4,4.7-2,5.9-4.3l32.8-64.7l64.6,33c2.3,1.2,5,1.2,7.3,0l64.6-33l32.8,64.7c1.2,2.3,3.4,3.9,5.9,4.3l71.6,11.3
	l-11.4,71.6c-0.4,2.5,0.4,5.1,2.2,6.9l51.3,51.2L409.5,286.8z"/>
<path class="st0" d="M136.1,267.6h16v16h-16V267.6z"/>
<path class="st0" d="M344.1,171.6h-72v-40c0-22.1-17.9-40-40-40c-3.7,0-6.9,2.5-7.8,6.1l-19.4,77.8c-1.8,7.1-8.2,12.1-15.5,12.1
	h-5.3v-8c0-4.4-3.6-8-8-8h-64c-4.4,0-8,3.6-8,8v128c0,4.4,3.6,8,8,8h64c4.4,0,8-3.6,8-8v-8h22.1c21.7,10.5,45.5,16,69.6,16h36.3
	c13.3,0,24-10.7,24-24c0-4.1-1.1-8.2-3.2-11.8c9.8-6.1,13.8-18.4,9.4-29.2c12.7-3.3,20.3-16.2,17-28.9c-0.5-2.1-1.4-4.1-2.5-6
	c11.2-7,14.6-21.8,7.5-33C360,175.8,352.4,171.6,344.1,171.6z M168.1,299.6h-48v-112h48V299.6z M336.1,235.6h-40v16h24
	c4.4,0,8,3.6,8,8s-3.6,8-8,8h-32v16h24c4.4,0,8,3.6,8,8s-3.6,8-8,8h-36.2c-22.3,0-44.3-5.2-64.2-15.2c-1.1-0.5-2.3-0.8-3.6-0.8h-24
	v-80h5.3c14.7,0,27.5-10,31-24.2l17.7-71c10.6,2.8,17.9,12.3,17.9,23.2v48c0,4.4,3.6,8,8,8h80c4.4,0,8,3.6,8,8s-3.6,8-8,8h-40v16h32
	c4.4,0,8,3.6,8,8S340.5,235.6,336.1,235.6L336.1,235.6z"/>
<path class="st0" d="M208.1,339.6h64v16h-64V339.6z"/>
<path class="st0" d="M184.1,371.6h112v16h-112V371.6z"/>
</svg>
