<?xml version="1.0" encoding="utf-8"?>
<!-- Generator: Adobe Illustrator 22.1.0, SVG Export Plug-In . SVG Version: 6.00 Build 0)  -->
<svg version="1.1" id="logo" xmlns="http://www.w3.org/2000/svg" xmlns:xlink="http://www.w3.org/1999/xlink" x="0px" y="0px"
	 viewBox="0 0 1672.4 588.2" style="enable-background:new 0 0 1672.4 588.2;" xml:space="preserve">
<style type="text/css">
	.st0{enable-background:new    ;}
	.st1{fill:url(#SVGID_1_);}
	.st2{fill:url(#SVGID_2_);}
	.st3{fill:#3C3C3B;}
</style>
<g>
	<g>
		<g class="st0">
			<g>
				
					<linearGradient id="SVGID_1_" gradientUnits="userSpaceOnUse" x1="91.4229" y1="12.4529" x2="259.6385" y2="316.3263" gradientTransform="matrix(1 0 0 -1 0 588.2122)">
					<stop  offset="0" style="stop-color:#E8710C"/>
					<stop  offset="1" style="stop-color:#FF9900"/>
				</linearGradient>
				<polygon class="st1" points="90.1,398.8 246.9,474.3 0,588.2 				"/>
			</g>
			<g>
				
					<linearGradient id="SVGID_2_" gradientUnits="userSpaceOnUse" x1="220.4672" y1="-58.9822" x2="388.6828" y2="244.8912" gradientTransform="matrix(1 0 0 -1 0 588.2122)">
					<stop  offset="0" style="stop-color:#E8710C"/>
					<stop  offset="1" style="stop-color:#FF9900"/>
				</linearGradient>
				<polygon class="st2" points="280,0 338.6,127.5 253.4,314.7 481.9,437.4 551.9,588.2 103.1,371.2 				"/>
			</g>
		</g>
	</g>
	<g>
		<path class="st3" d="M523.6,318.5h-32l-13-30.9H395l-13,30.9h-32l81.9-188.8h10.3L523.6,318.5z M405.3,262.1h61.9l-30.4-76.5
			L405.3,262.1z"/>
		<path class="st3" d="M622.9,246.9l51.5,71.6h-33.6l-34.7-49.9l-34.2,49.9h-33.6l51-71.6l-47.8-66.2h33.6l30.4,45l30.9-45h33.6
			L622.9,246.9z"/>
		<path class="st3" d="M752.6,177.4c9.2,0,17.9,1.6,25.5,4.9c8.1,3.3,14.7,7.6,20.1,13c5.4,5.4,9.8,12.5,13,20.1
			c3.3,7.6,4.9,16.3,4.9,25c0,3.8,0,7.1-0.5,10.9c-0.5,3.3-1.1,6-1.6,8.1H710.8c2.2,11.4,7.1,20.1,15.2,26.6s17.9,9.8,29.8,9.8
			c8.1,0,15.2-1.6,21.7-4.3c6.5-2.7,12.5-7.1,18.4-11.9l14.1,20.1c-7.1,7.1-15.7,12.5-25,16.3c-9.2,3.8-19.5,6-30.4,6
			c-10.9,0-20.6-1.6-29.8-5.4c-9.2-3.8-16.8-8.7-23.9-15.2c-6.5-6.5-11.9-14.1-15.2-22.8c-3.8-8.7-5.4-18.4-5.4-28.2
			c0-10.3,1.6-19.5,5.4-28.2c3.8-8.7,8.7-16.3,15.2-22.8c6.5-6.5,14.1-11.4,22.8-15.2C733.1,179.1,742.9,177.4,752.6,177.4z
			 M752.1,202.4c-10.3,0-19,3.3-26,9.2c-7.1,6-11.9,14.1-14.1,24.4h75.4c-0.5-10.9-3.8-19-10.9-25
			C769.5,205.1,761.3,202.4,752.1,202.4z"/>
		<path class="st3" d="M876.9,318.5h-29.3V107.4h29.3V318.5z"/>
		<path class="st3" d="M944.7,318.5h-29.3V107.4h29.3V318.5z"/>
		<path class="st3" d="M1098.3,318.5h-29.8V132.9h29.8V318.5z M1136.3,219.8l85.7,98.8h-36.9l-86.3-98.8l78.1-86.8h36.4
			L1136.3,219.8z"/>
		<path class="st3" d="M1312.1,179.1c2.2,0,4.3,0,6.5,0.5s3.3,0.5,4.9,1.1v26h-9.2c-5.4,0-10.9,0.5-15.7,2.2
			c-4.9,1.6-9.2,3.8-13,7.1c-3.8,3.3-6.5,7.1-8.7,11.9c-2.2,4.9-3.3,10.3-3.3,16.8v73.8h-29.3V180.7h27.1v18.4
			c4.9-6.5,10.9-11.4,17.9-14.7C1296.3,181.2,1303.9,179.1,1312.1,179.1z"/>
		<path class="st3" d="M1401.1,177.4c8.7,0,16.3,1.1,22.8,3.8c7.1,2.2,13,6,17.9,10.9c4.9,4.9,8.7,10.9,11.4,17.9
			c2.7,7.1,4.3,15.7,4.3,25v83.6h-27.7v-15.2c-4.9,6-10.9,10.3-18.4,13.6c-7.6,3.3-16.3,4.9-25.5,4.9c-7.1,0-14.1-1.1-20.1-2.7
			c-6-1.6-10.9-4.3-15.2-8.1s-7.6-7.6-9.8-12.5c-2.2-4.9-3.3-10.3-3.3-16.3c0-11.9,4.3-21.7,13.6-28.8c9.2-7.1,21.7-10.3,36.9-10.3
			h39.1v-9.2c0-9.8-2.7-16.8-7.6-21.7s-12.5-7.6-21.7-7.6c-8.1,0-15.2,1.6-21.2,5.4s-11.9,8.7-17.4,15.2l-16.8-17.4
			c7.1-10.3,15.7-17.4,25.5-22.2S1389.7,177.4,1401.1,177.4z M1392.4,299c4.9,0,9.2-0.5,13.6-2.2c4.3-1.6,8.1-3.8,11.4-6.5
			c3.3-2.7,6-6.5,7.6-10.3c1.6-3.8,2.7-8.1,2.7-13v-2.7h-35.3c-8.1,0-14.1,1.6-17.9,4.3c-3.8,2.7-6.5,7.1-6.5,12.5
			c0,6,2.2,10.3,7.1,13.6C1379.9,297.4,1385.9,299,1392.4,299z"/>
		<path class="st3" d="M1561.1,206.2h-32.6v112.3h-29.3V206.2h-19.5v-25.5h19.5V153c0-16.8,4.3-28.8,13.6-36.4
			c9.2-7.6,21.2-11.4,35.8-11.4c7.1,0,13.6,1.1,19,2.7v25c-4.3-0.5-8.7-1.1-11.9-1.1c-8.7,0-15.2,1.6-20.1,4.9
			c-4.9,3.3-7.1,9.8-7.1,19v25.5h32.6V206.2z"/>
		<path class="st3" d="M1668,206.2h-41.2v65.1c0,9.2,2.2,15.2,7.1,19s11.4,4.9,20.6,4.9c2.2,0,4.9,0,8.1-0.5
			c3.3-0.5,6.5-0.5,9.8-1.1v25c-3.8,1.1-7.6,1.6-11.4,2.2c-3.8,0.5-8.1,1.1-13,1.1c-15.2,0-27.7-3.8-36.9-11.4
			c-9.2-7.6-14.1-20.1-14.1-36.4v-67.3h-22.2v-25.5h22.2v-36.4h29.3v36.4h41.2v25H1668z"/>
	</g>
</g>
</svg>
