<svg width="30" height="20" viewBox="0 0 30 20" fill="none" xmlns="http://www.w3.org/2000/svg">
<rect y="18" width="30" height="2" rx="1" fill="url(#paint0_linear)"/>
<path fill-rule="evenodd" clip-rule="evenodd" d="M1 0C0.447715 0 0 0.447715 0 1C0 1.55228 0.447716 2 1 2H29C29.5523 2 30 1.55228 30 1C30 0.447715 29.5523 0 29 0H1ZM0 7C0 6.44772 0.447715 6 1 6H29C29.5523 6 30 6.44772 30 7C30 7.55228 29.5523 8 29 8H1C0.447716 8 0 7.55228 0 7ZM0 13C0 12.4477 0.447715 12 1 12H29C29.5523 12 30 12.4477 30 13C30 13.5523 29.5523 14 29 14H1C0.447716 14 0 13.5523 0 13Z" fill="#F2F2F2"/>
<defs>
<linearGradient id="paint0_linear" x1="0.11583" y1="18" x2="0.11583" y2="19.9846" gradientUnits="userSpaceOnUse">
<stop stop-color="#00EB9B"/>
<stop offset="1" stop-color="#07DCF8"/>
</linearGradient>
</defs>
</svg>
