<svg width="30" height="20" viewBox="0 0 30 20" fill="none" xmlns="http://www.w3.org/2000/svg">
<path fill-rule="evenodd" clip-rule="evenodd" d="M1 12C0.447715 12 0 12.4477 0 13C0 13.5523 0.447716 14 1 14H29C29.5523 14 30 13.5523 30 13C30 12.4477 29.5523 12 29 12H1ZM1 18C0.447715 18 0 18.4477 0 19C0 19.5523 0.447716 20 1 20H29C29.5523 20 30 19.5523 30 19C30 18.4477 29.5523 18 29 18H1Z" fill="url(#paint0_linear)"/>
<path fill-rule="evenodd" clip-rule="evenodd" d="M1 0C0.447715 0 0 0.447715 0 1C0 1.55228 0.447716 2 1 2H29C29.5523 2 30 1.55228 30 1C30 0.447715 29.5523 0 29 0H1ZM1 6C0.447715 6 0 6.44772 0 7C0 7.55228 0.447716 8 1 8H29C29.5523 8 30 7.55228 30 7C30 6.44772 29.5523 6 29 6H1Z" fill="#F2F2F2"/>
<defs>
<linearGradient id="paint0_linear" x1="0.11583" y1="12" x2="0.11583" y2="19.9382" gradientUnits="userSpaceOnUse">
<stop stop-color="#00EB9B"/>
<stop offset="1" stop-color="#07DCF8"/>
</linearGradient>
</defs>
</svg>
