<svg width="30" height="30" viewBox="0 0 30 30" fill="none" xmlns="http://www.w3.org/2000/svg">
<path fill-rule="evenodd" clip-rule="evenodd" d="M28.75 13.75C28.06 13.75 27.5 14.31 27.5 15C27.5 21.8925 21.8925 27.5 15 27.5C8.1075 27.5 2.5 21.8925 2.5 15C2.5 8.1075 8.1075 2.5 15 2.5C18.3556 2.5 21.5056 3.81125 23.8706 6.1925C24.3562 6.6825 25.1481 6.68563 25.6381 6.19875C26.1281 5.7125 26.1306 4.92125 25.6444 4.43125C22.8069 1.57375 19.0262 0 15 0C6.72875 0 0 6.72875 0 15C0 23.2712 6.72875 30 15 30C23.2712 30 30 23.2712 30 15C30 14.31 29.44 13.75 28.75 13.75ZM16.25 12.7C16.25 12.1756 15.69 11.75 15 11.75C14.31 11.75 13.75 12.1756 13.75 12.7V20.3C13.75 20.8244 14.31 21.25 15 21.25C15.69 21.25 16.25 20.8244 16.25 20.3V12.7ZM15.0075 10.005C15.6992 10.005 16.26 9.44424 16.26 8.7525C16.26 8.06076 15.6992 7.5 15.0075 7.5C14.3158 7.5 13.755 8.06076 13.755 8.7525C13.755 9.44424 14.3158 10.005 15.0075 10.005Z" fill="#01C7EC"/>
</svg>
