<svg width="20" height="19" viewBox="0 0 20 19" fill="none" xmlns="http://www.w3.org/2000/svg">
<path fill-rule="evenodd" clip-rule="evenodd" d="M19.2074 0H5.17832C4.74055 0 4.3857 0.361413 4.3857 0.80738V8.42352H2.98547C1.33922 8.42352 0 9.78796 0 11.4646V15.9589C0 17.6358 1.33922 19 2.98547 19C3.1202 19 3.25285 18.9908 3.38258 18.9731H16.4597C18.4116 18.9731 20 17.3554 20 15.3669V0.80738C20 0.361413 19.6452 0 19.2074 0ZM4.38574 15.9589C4.38574 16.6508 3.89934 17.2295 3.25656 17.3583H2.98551V17.3852C2.21324 17.3852 1.58523 16.7453 1.58523 15.9589V11.4646C1.58523 10.6782 2.21352 10.0382 2.98551 10.0382H4.38578V15.9589H4.38574ZM16.4597 17.3583C17.5197 17.3583 18.4148 16.4463 18.4148 15.3668V1.61472H5.97094V15.9589C5.97094 16.4632 5.84992 16.9393 5.63566 17.3583H16.4597ZM8.74504 5.05951H13.712C14.1498 5.05951 14.5046 5.42092 14.5046 5.86689C14.5046 6.31285 14.1501 6.67427 13.712 6.67427H8.74504C8.30723 6.67427 7.95242 6.31281 7.95242 5.86689C7.95242 5.42092 8.30727 5.05951 8.74504 5.05951ZM8.74504 8.96176H15.6143C16.052 8.96176 16.4069 9.32317 16.4069 9.76914C16.4069 10.2151 16.052 10.5765 15.6143 10.5765H8.74504C8.30723 10.5765 7.95242 10.2151 7.95242 9.76914C7.95242 9.32317 8.30727 8.96176 8.74504 8.96176ZM8.74504 12.6221H13.712C14.1498 12.6221 14.5046 12.9835 14.5046 13.4295C14.5046 13.8754 14.1501 14.2368 13.712 14.2368H8.74504C8.30723 14.2368 7.95242 13.8754 7.95242 13.4295C7.95242 12.9835 8.30727 12.6221 8.74504 12.6221Z" fill="#01C7EC"/>
</svg>
