<svg width="26" height="26" viewBox="0 0 26 26" fill="none" xmlns="http://www.w3.org/2000/svg">
<path fill-rule="evenodd" clip-rule="evenodd" d="M26 15.5335C26 14.6067 25.5622 13.7808 24.8832 13.2503C25.1407 12.8177 25.2891 12.3128 25.2891 11.7737C25.2891 10.1768 23.9906 8.87766 22.3945 8.87766H15.3784C15.0739 8.87766 14.8896 8.70777 14.8069 8.60635C14.7242 8.50513 14.5947 8.29059 14.6553 7.99209L15.5377 3.65375C15.8727 2.00665 14.8059 0.393892 13.1597 0.0586775C11.7162 -0.235255 10.3691 0.589384 9.6407 2.21187L6.42145 8.87766H0V26H21.0633C22.7468 26 23.9688 24.7485 23.9688 23.0242C23.9688 22.6088 23.8761 22.2086 23.7014 21.8425C24.6136 21.3524 25.2349 20.3936 25.2349 19.2933C25.2349 18.767 25.0921 18.2734 24.8439 17.8475C25.5455 17.3186 26 16.4782 26 15.5335ZM2.03125 23.9677V10.91H5.12891C6.24887 10.91 7.16016 11.8216 7.16016 12.9423V21.9353C7.16016 23.0559 6.24887 23.9677 5.12891 23.9677H2.03125ZM8.64491 23.9677H21.0633C21.8524 23.9677 21.9375 23.3078 21.9375 23.0242C21.9375 22.5321 21.4406 22.1894 20.9945 22.1894H20.0586V20.1571H22.319C22.8067 20.1571 23.2037 19.7695 23.2037 19.2933C23.2037 18.817 22.8067 18.4296 22.319 18.4296H20.0749V16.3973H23.1055C23.5815 16.3973 23.9688 16.0097 23.9688 15.5335C23.9688 15.0572 23.5815 14.6698 23.1055 14.6698H20.0586V12.6375H22.3945C22.8706 12.6375 23.2578 12.2499 23.2578 11.7737C23.2578 11.2974 22.8706 10.91 22.3945 10.91H15.3784C14.5437 10.91 13.7619 10.539 13.2339 9.89223C12.7058 9.24542 12.4983 8.4051 12.6648 7.58682L13.5473 3.24848C13.659 2.69951 13.3035 2.16186 12.7546 2.05012C12.0778 1.91258 11.6442 2.70626 11.4895 3.05398L11.4762 3.08256L8.06747 10.1401C8.76294 10.8699 9.19141 11.8567 9.19141 12.9423V21.9354C9.19141 22.6754 8.99165 23.3693 8.64491 23.9677Z" fill="url(#paint0_linear)"/>
<rect x="3.6001" y="18" width="2" height="4" rx="1" fill="#1B1B1B"/>
<defs>
<linearGradient id="paint0_linear" x1="0.100386" y1="0" x2="0.100386" y2="25.7992" gradientUnits="userSpaceOnUse">
<stop stop-color="#00EB9B"/>
<stop offset="1" stop-color="#07DCF8"/>
</linearGradient>
</defs>
</svg>
