<svg width="26" height="26" viewBox="0 0 26 26" fill="none" xmlns="http://www.w3.org/2000/svg">
<path fill-rule="evenodd" clip-rule="evenodd" d="M5.94141 3.09772C5.94141 2.53679 5.48671 2.08209 4.92578 2.08209H3.04688L2.86079 2.08771C1.50653 2.1697 0.388251 3.14047 0.0827734 4.42285C0.0296563 4.54605 0 4.68163 0 4.82428V21.9375L0.0049814 22.14C0.110834 24.2864 1.89032 26 4.0625 26H21.9375L22.1467 25.9947C23.8113 25.9099 25.2601 24.8179 25.7918 23.2238C25.9694 22.6917 25.6819 22.1164 25.1498 21.939C24.6178 21.7615 24.0425 22.0489 23.865 22.581L23.8073 22.7334C23.4909 23.4786 22.7588 23.9688 21.9375 23.9688H4.0625L3.91113 23.9632C2.86151 23.8855 2.03125 23.0067 2.03125 21.9375V7.95082L2.22475 8.01223C2.48638 8.0857 2.76209 8.12505 3.04688 8.12505H21.9375L22.0889 8.13063C23.1385 8.20832 23.9688 9.08718 23.9688 10.1563V13.0509H20.5664L20.3876 13.0561C18.7905 13.1489 17.5195 14.4777 17.5195 16.0977C17.5195 17.7778 18.8864 19.1446 20.5664 19.1446L24.9844 19.1446C25.5453 19.1446 26 18.6899 26 18.1289V10.1563L25.9932 9.91934C25.9206 8.66471 25.2755 7.56154 24.3163 6.86619L23.7223 6.5537C23.1481 6.25164 22.509 6.09381 21.8601 6.09381H3.04688L2.93036 6.08716C2.43324 6.03013 2.0441 5.61274 2.03155 5.10357C2.04506 4.55524 2.49534 4.11334 3.04688 4.11334H4.92578L5.03645 4.10738C5.54532 4.05224 5.94141 3.62125 5.94141 3.09772ZM20.5664 15.0821H23.9688V17.1133H20.5664L20.4559 17.1074C19.9477 17.0522 19.5508 16.6204 19.5508 16.0977C19.5508 15.5377 20.0064 15.0821 20.5664 15.0821Z" fill="url(#paint0_linear)"/>
<path d="M14.3597 0.147708C14.5918 0.00673983 14.8707 -0.0355609 15.1341 0.0304546C15.3598 0.0870394 15.5581 0.219062 15.6972 0.402859L15.7616 0.498962L16.9107 2.44358L19.4587 0.863469C19.6888 0.720774 19.9663 0.675833 20.2296 0.7387C20.4491 0.791004 20.6436 0.914544 20.7838 1.08804L20.8612 1.19796L23.179 5H20.8L19.6595 3.12912L17.9443 4.19273L18.421 5H16.062L15.7637 4.49534L15.7263 4.4464L15.6916 4.39469L15.6513 4.32219L15.6175 4.24783L14.536 2.41763L10.285 5H6.37402L14.3597 0.147708Z" fill="#1B1B1B"/>
<defs>
<linearGradient id="paint0_linear" x1="0.100386" y1="2.08209" x2="0.100386" y2="25.8153" gradientUnits="userSpaceOnUse">
<stop stop-color="#00EB9B"/>
<stop offset="1" stop-color="#07DCF8"/>
</linearGradient>
</defs>
</svg>
