<svg width="20" height="20" viewBox="0 0 20 20" fill="none" xmlns="http://www.w3.org/2000/svg">
<path fill-rule="evenodd" clip-rule="evenodd" d="M17.5083 6.37533C17.3079 5.9613 17.4813 5.46285 17.8955 5.26245C18.3083 5.06165 18.8084 5.23458 19.0084 5.64962C19.6663 7.00785 20 8.47209 20 10C20 15.5137 15.5137 20 10 20C4.48629 20 0 15.5137 0 10C0 4.48629 4.48629 0 10 0C12.252 0 14.4576 0.767008 16.2103 2.16003C16.5708 2.44629 16.6309 2.97078 16.3442 3.33089C16.0575 3.6912 15.5324 3.75122 15.1733 3.46456C13.6928 2.28841 11.9041 1.66667 10 1.66667C5.40507 1.66667 1.66667 5.40507 1.66667 10C1.66667 14.5949 5.40507 18.3333 10 18.3333C14.5949 18.3333 18.3333 14.5949 18.3333 10C18.3333 8.72538 18.0558 7.50631 17.5083 6.37533ZM9.16667 4.16667C9.16667 3.70667 9.54 3.33333 10 3.33333C10.46 3.33333 10.8333 3.70667 10.8333 4.16667V9.16667H14.1667C14.6267 9.16667 15 9.54 15 10C15 10.46 14.6267 10.8333 14.1667 10.8333H10C9.54 10.8333 9.16667 10.46 9.16667 10V4.16667Z" fill="url(#paint0_linear)"/>
<defs>
<linearGradient id="paint0_linear" x1="0.0772201" y1="0" x2="0.0772201" y2="19.8456" gradientUnits="userSpaceOnUse">
<stop stop-color="#00EB9B"/>
<stop offset="1" stop-color="#07DCF8"/>
</linearGradient>
</defs>
</svg>
