<svg width="20" height="20" viewBox="0 0 20 20" fill="none" xmlns="http://www.w3.org/2000/svg">
<path fill-rule="evenodd" clip-rule="evenodd" d="M2.5 0H17.5C18.88 0.00160786 19.9984 1.12038 20 2.50096V14.1721C19.9984 15.5527 18.88 16.6714 17.5 16.673H5.39083L1.34604 19.8312C1.09349 20.0211 0.755859 20.0534 0.471943 19.9148C0.188026 19.7761 0.00573306 19.49 0 19.174V2.50096C0.00160724 1.12038 1.11995 0.00160786 2.5 0ZM17.5 15.0057C17.96 15.0052 18.3328 14.6323 18.3333 14.1721V2.50096C18.3328 2.04076 17.96 1.66782 17.5 1.6673H2.5C2.03998 1.66782 1.66718 2.04076 1.66667 2.50096V17.4658L4.59146 15.1822C4.73793 15.0678 4.91838 15.0057 5.10417 15.0057H17.5Z" fill="#1B1B1B"/>
<path fill-rule="evenodd" clip-rule="evenodd" d="M10 4.9151C12.1052 3.54186 13.506 4.33362 14.035 4.7666C15.1495 5.67851 15.5429 7.44731 14.912 8.70957C13.7558 11.0232 10.4538 12.3867 10.3138 12.4436C10.1126 12.5254 9.88748 12.5254 9.6863 12.4436C9.5464 12.3867 6.24432 11.023 5.08807 8.70957C4.45724 7.44731 4.85047 5.67851 5.96505 4.7666C6.49401 4.33373 7.89494 3.54186 10 4.9151ZM10 10.7604C10.9541 10.3129 12.7768 9.25373 13.4214 7.96387C13.6748 7.45669 13.5372 6.5131 12.9797 6.05689C12.2248 5.43936 11.1103 6.13004 10.5131 6.59668C10.2116 6.83228 9.7885 6.83228 9.48703 6.59668C9.0588 6.26207 8.36442 5.81211 7.72755 5.81211C7.47026 5.80719 7.2196 5.89396 7.02036 6.05689C6.46286 6.51321 6.32526 7.45669 6.57869 7.96387C7.22317 9.25332 9.04536 10.3123 10 10.7604Z" fill="#1B1B1B"/>
</svg>
