<svg width="50" height="50" viewBox="0 0 50 50" fill="none" xmlns="http://www.w3.org/2000/svg">
<path fill-rule="evenodd" clip-rule="evenodd" d="M37.5 4.16667V0H12.5V4.16667H9.55404L0 13.7207V50H50V13.7207L40.446 4.16667H37.5ZM33.3333 4.16667V9.41569L25 16.0812L16.6667 9.41569V4.16667H33.3333ZM4.16667 41.6667V45.8333H8.33333V41.6667H4.16667ZM45.8333 45.8333H41.6667V41.6667H45.8333V45.8333ZM41.6667 37.5H45.8333V15.446L38.7207 8.33333H37.5V11.4176L25 21.4188L12.5 11.4176V8.33333H11.2793L4.16667 15.446V37.5H8.33333V18.75H12.5V45.8333H22.9167V41.6667H27.0833V45.8333H37.5V18.75H41.6667V37.5Z" fill="url(#paint0_linear)"/>
<path d="M22.9165 25H27.0832V30.2083H22.9165V25Z" fill="#1B1B1B"/>
<path d="M22.9165 33.3333H27.0832V38.5416H22.9165V33.3333Z" fill="#1B1B1B"/>
<defs>
<linearGradient id="paint0_linear" x1="0.19305" y1="0" x2="0.19305" y2="49.6139" gradientUnits="userSpaceOnUse">
<stop stop-color="#00EB9B"/>
<stop offset="1" stop-color="#07DCF8"/>
</linearGradient>
</defs>
</svg>
