<svg width="27" height="29" viewBox="0 0 27 29" fill="none" xmlns="http://www.w3.org/2000/svg">
<path d="M23.4604 23.8992L24.8709 22.7533L26 24.1849L24.5895 25.3308L23.4604 23.8992Z" fill="#1B1B1B"/>
<rect x="8.16699" y="4.54633" width="3.54005" height="3.59134" rx="1.77003" fill="#1B1B1B"/>
<path fill-rule="evenodd" clip-rule="evenodd" d="M22.5842 13.7532V19.8495L23.7423 21.3175L22.3313 22.4636L20.7775 20.4932V13.866L19.8741 10.0857V4.70084C18.2798 5.12066 17.166 6.58022 17.164 8.25192V24.7558H11.8604L14.4702 25.8368L16.0628 27.8539L14.6518 29L13.3537 27.3496L7.05094 24.7558H2.7103V22.0051C2.03335 22.0082 1.38 21.7528 0.879875 21.2898C-0.221093 20.2704 -0.299459 18.5382 0.704849 17.4207C-0.2347 16.3842 -0.2347 14.7897 0.704849 13.7532C-0.2347 12.7167 -0.2347 11.1222 0.704849 10.0857C0.248653 9.57807 -0.00293199 8.91494 6.038e-05 8.22785C0.00666619 6.71529 1.22005 5.49458 2.7103 5.50128V0H17.164V4.16264C18.1547 3.25412 19.4423 2.75098 20.7775 2.75064H21.6808V9.9729L22.5842 13.7532ZM3.61366 7.33504H2.7103C2.21143 7.33504 1.80695 7.74552 1.80695 8.25192C1.80695 8.75832 2.21137 9.1688 2.7103 9.1688H3.61366C4.1126 9.1688 4.51702 8.75832 4.51702 8.25192C4.51702 7.74552 4.1126 7.33504 3.61366 7.33504ZM2.7103 11.0026H5.42038C5.91932 11.0026 6.32374 11.413 6.32374 11.9194C6.32374 12.4258 5.91932 12.8363 5.42038 12.8363H2.7103C2.21137 12.8363 1.80695 12.4258 1.80695 11.9194C1.80695 11.413 2.21143 11.0026 2.7103 11.0026ZM3.61366 14.6701H2.7103C2.21143 14.6701 1.80695 15.0806 1.80695 15.587C1.80695 16.0934 2.21137 16.5038 2.7103 16.5038H3.61366C4.1126 16.5038 4.51702 16.0934 4.51702 15.587C4.51702 15.0806 4.1126 14.6701 3.61366 14.6701ZM3.61366 20.1714H2.7103C2.21137 20.1714 1.80695 19.7609 1.80695 19.2545C1.80695 18.7481 2.21137 18.3376 2.7103 18.3376H3.61366C4.1126 18.3376 4.51702 18.7481 4.51702 19.2545C4.51702 19.7609 4.1126 20.1714 3.61366 20.1714ZM15.3573 22.922V8.25192V1.83376H4.51702V5.67004C4.56258 5.68603 4.6077 5.70334 4.65236 5.72179C6.0258 6.29031 6.68514 7.88121 6.125 9.27522C7.06218 9.52656 7.79412 10.2695 8.04181 11.2207C8.42207 12.6811 7.56388 14.1778 6.125 14.5638C6.51678 15.5351 6.31962 16.6487 5.61912 17.4208C5.86687 17.6953 6.05657 18.0185 6.17649 18.3703C6.66126 19.7925 5.9183 21.3444 4.51702 21.8364V22.922H15.3573Z" fill="url(#paint0_linear)"/>
<defs>
<linearGradient id="paint0_linear" x1="0.0916691" y1="0" x2="0.0916691" y2="28.7761" gradientUnits="userSpaceOnUse">
<stop stop-color="#00EB9B"/>
<stop offset="1" stop-color="#07DCF8"/>
</linearGradient>
</defs>
</svg>
