<svg width="20" height="11" viewBox="0 0 20 11" fill="none" xmlns="http://www.w3.org/2000/svg">
<path fill-rule="evenodd" clip-rule="evenodd" d="M19.9879 0L16.0115 6.21444L20 10.8931H13.6971L11.7026 9.0995L11.6794 10.7692L11.2316 10.8771C11.1907 10.8869 10.7038 11 9.94453 11C9.11904 11 7.97174 10.8664 6.72572 10.3216C5.33046 9.71165 4.09848 8.7118 3.06409 7.34995C1.79701 5.68194 0.826715 3.46251 0.1799 0.753323L0 0H5.23845L5.29567 0.541806C5.4916 2.39593 6.23973 3.42891 6.83512 3.97025V1.21547H6.33891V0H11.6503V4.39927C11.753 4.32688 11.8645 4.2365 11.9823 4.12403C12.9352 3.2133 13.4836 1.62668 13.7758 0.456L13.8897 0H19.9879ZM10.5175 9.75661L10.563 6.46381L14.1369 9.67743H17.3966L14.5342 6.31981L17.8005 1.21547H14.7936C14.2922 3.00178 13.5749 4.31694 12.6583 5.1291C11.8516 5.84377 11.1684 5.90008 11.0932 5.90419L10.4746 5.93762V1.21547H8.01096V5.93163L7.22559 5.64204C7.12138 5.60371 4.78176 4.70164 4.20025 1.21547H1.51366C2.106 3.39264 2.92722 5.18809 3.95947 6.56035C4.8608 7.75863 5.92571 8.63861 7.12458 9.176C8.56011 9.81938 9.86092 9.81702 10.5175 9.75661Z" fill="url(#paint0_linear)"/>
<defs>
<linearGradient id="paint0_linear" x1="0.0772201" y1="0" x2="0.0772201" y2="10.9151" gradientUnits="userSpaceOnUse">
<stop stop-color="#00EB9B"/>
<stop offset="1" stop-color="#07DCF8"/>
</linearGradient>
</defs>
</svg>
