<svg width="20" height="20" viewBox="0 0 20 20" fill="none" xmlns="http://www.w3.org/2000/svg">
<path d="M19.1667 9.16667C18.7067 9.16667 18.3333 9.54 18.3333 10C18.3333 14.595 14.595 18.3333 10 18.3333C5.405 18.3333 1.66667 14.595 1.66667 10C1.66667 5.405 5.405 1.66667 10 1.66667C12.2371 1.66667 14.3371 2.54083 15.9137 4.12833C16.2375 4.455 16.7654 4.45708 17.0921 4.1325C17.4187 3.80833 17.4204 3.28083 17.0963 2.95417C15.2046 1.04917 12.6842 0 10 0C4.48583 0 0 4.48583 0 10C0 15.5142 4.48583 20 10 20C15.5142 20 20 15.5142 20 10C20 9.54 19.6267 9.16667 19.1667 9.16667Z" fill="#1B1B1B"/>
<path d="M13.3335 9.16668H10.8335V6.66668C10.8335 6.20668 10.4602 5.83334 10.0002 5.83334C9.54016 5.83334 9.16683 6.20668 9.16683 6.66668V9.16668H6.66683C6.20683 9.16668 5.8335 9.54001 5.8335 10C5.8335 10.46 6.20683 10.8333 6.66683 10.8333H9.16683V13.3333C9.16683 13.7933 9.54016 14.1667 10.0002 14.1667C10.4602 14.1667 10.8335 13.7933 10.8335 13.3333V10.8333H13.3335C13.7935 10.8333 14.1668 10.46 14.1668 10C14.1668 9.54001 13.7935 9.16668 13.3335 9.16668Z" fill="#1B1B1B"/>
</svg>
