<svg width="20" height="20" viewBox="0 0 20 20" fill="none" xmlns="http://www.w3.org/2000/svg">
<path d="M19.1667 9.16667C18.7067 9.16667 18.3333 9.54 18.3333 10C18.3333 14.595 14.595 18.3333 10 18.3333C5.405 18.3333 1.66667 14.595 1.66667 10C1.66667 5.405 5.405 1.66667 10 1.66667C12.2371 1.66667 14.3371 2.54083 15.9137 4.12833C16.2375 4.455 16.7654 4.45708 17.0921 4.1325C17.4187 3.80833 17.4204 3.28083 17.0963 2.95417C15.2046 1.04917 12.6842 0 10 0C4.48583 0 0 4.48583 0 10C0 15.5142 4.48583 20 10 20C15.5142 20 20 15.5142 20 10C20 9.54 19.6267 9.16667 19.1667 9.16667Z" fill="#1B1B1B"/>
<path fill-rule="evenodd" clip-rule="evenodd" d="M10.6148 14.2978C10.7678 14.4533 10.9698 14.5313 11.1719 14.5313C11.3696 14.5313 11.5675 14.4567 11.7196 14.3071L14.348 11.7225L14.3519 11.7187C14.795 11.277 15.039 10.6894 15.039 10.0644C15.039 9.43937 14.795 8.85183 14.3519 8.41007L14.3451 8.40336L11.7166 5.84629C11.4073 5.54539 10.9127 5.55222 10.6118 5.86148C10.311 6.17078 10.3178 6.66539 10.627 6.96625L13.2516 9.51945C13.3967 9.66558 13.4765 9.85894 13.4765 10.0644C13.4765 10.2705 13.3962 10.4644 13.2502 10.6107L10.6241 13.193C10.3164 13.4955 10.3123 13.9901 10.6148 14.2978ZM5.54688 10.7813H11.1719C11.6034 10.7813 11.9531 10.4315 11.9531 10C11.9531 9.56855 11.6034 9.21879 11.1719 9.21879H5.54688C5.11539 9.21879 4.76562 9.56855 4.76562 10C4.76562 10.4315 5.11539 10.7813 5.54688 10.7813Z" fill="black"/>
</svg>
