<svg width="50" height="50" viewBox="0 0 50 50" fill="none" xmlns="http://www.w3.org/2000/svg">
<path fill-rule="evenodd" clip-rule="evenodd" d="M0 50V8.33331H50V50H0ZM4.16667 45.8333H45.8333V23.7793L40.446 29.1666H33.3333V31.25C33.3333 34.6969 30.5303 37.5 27.0833 37.5H22.9167C19.4697 37.5 16.6667 34.6969 16.6667 31.25V29.1666H9.55404L4.16667 23.7793V45.8333ZM20.8333 25H29.1656V29.1666L29.1667 31.25C29.1667 32.399 28.2323 33.3333 27.0833 33.3333H22.9167C21.7677 33.3333 20.8333 32.399 20.8333 31.25V25ZM45.8333 17.8873V12.5H4.16667V17.8873L11.2793 25H16.6667V20.8333H33.3333V25H38.7207L45.8333 17.8873Z" fill="url(#paint0_linear)"/>
<path d="M37.5 0V6H33.333L33.3333 4.16667H16.6667L16.666 6H12.5V0H37.5Z" fill="#1B1B1B"/>
<defs>
<linearGradient id="paint0_linear" x1="0.19305" y1="8.33331" x2="0.19305" y2="49.6782" gradientUnits="userSpaceOnUse">
<stop stop-color="#00EB9B"/>
<stop offset="1" stop-color="#07DCF8"/>
</linearGradient>
</defs>
</svg>
