<svg width="20" height="20" viewBox="0 0 20 20" fill="none" xmlns="http://www.w3.org/2000/svg">
<path d="M19.1667 9.16667C18.7067 9.16667 18.3333 9.54 18.3333 10C18.3333 14.595 14.595 18.3333 10 18.3333C5.405 18.3333 1.66667 14.595 1.66667 10C1.66667 5.405 5.405 1.66667 10 1.66667C12.2371 1.66667 14.3371 2.54083 15.9137 4.12833C16.2375 4.455 16.7654 4.45708 17.0921 4.1325C17.4187 3.80833 17.4204 3.28083 17.0963 2.95417C15.2046 1.04917 12.6842 0 10 0C4.48583 0 0 4.48583 0 10C0 15.5142 4.48583 20 10 20C15.5142 20 20 15.5142 20 10C20 9.54 19.6267 9.16667 19.1667 9.16667Z" fill="#1B1B1B"/>
<path d="M10.8332 8.46659C10.8332 8.11699 10.4598 7.83325 9.99984 7.83325C9.53984 7.83325 9.1665 8.11699 9.1665 8.46659V13.5333C9.1665 13.8829 9.53984 14.1666 9.99984 14.1666C10.4598 14.1666 10.8332 13.8829 10.8332 13.5333V8.46659Z" fill="#1B1B1B"/>
<circle cx="10.0049" cy="5.835" r="0.835" fill="#1B1B1B"/>
</svg>
