<svg width="50" height="50" viewBox="0 0 50 50" fill="none" xmlns="http://www.w3.org/2000/svg">
<path fill-rule="evenodd" clip-rule="evenodd" d="M17.7734 6.83594C17.7734 8.46634 17.1986 9.96513 16.2422 11.1412C19.5988 13.0108 21.875 16.5958 21.875 20.7031H17.9688C17.9688 16.8262 14.8144 13.6719 10.9375 13.6719C7.06062 13.6719 3.90625 16.8262 3.90625 20.7031H0C0 16.5958 2.27623 13.0108 5.63278 11.1412C4.67644 9.96513 4.10156 8.46634 4.10156 6.83594C4.10156 3.06664 7.1682 0 10.9375 0C14.7068 0 17.7734 3.06664 17.7734 6.83594ZM10.9375 3.90625C9.32198 3.90625 8.00781 5.22041 8.00781 6.83594C8.00781 8.45146 9.32198 9.76562 10.9375 9.76562C12.553 9.76562 13.8672 8.45146 13.8672 6.83594C13.8672 5.22041 12.553 3.90625 10.9375 3.90625ZM44.3611 40.4346C45.3213 39.257 45.8984 37.7556 45.8984 36.1217C45.8984 32.3521 42.8318 29.2858 39.0625 29.2858C35.2932 29.2858 32.2266 32.3521 32.2266 36.1217C32.2266 37.7556 32.8037 39.2574 33.7639 40.4346C30.4039 42.3035 28.125 45.8904 28.125 50H32.0312C32.0312 46.1231 35.1856 42.9688 39.0625 42.9688C42.9394 42.9688 46.0938 46.1231 46.0938 50H50C50 45.8904 47.7211 42.3035 44.3611 40.4346ZM41.9922 36.1217C41.9922 34.5062 40.678 33.1921 39.0625 33.1921C37.447 33.1921 36.1328 34.5062 36.1328 36.1217C36.1328 37.7369 37.447 39.0514 39.0625 39.0514C40.678 39.0514 41.9922 37.7369 41.9922 36.1217Z" fill="url(#paint0_linear)"/>
<path d="M46.0938 23.3398H42.1875V19.4336H46.0938V23.3398Z" fill="#1B1B1B"/>
<path d="M46.0938 15.5273H42.1875V11.6211H46.0938V15.5273Z" fill="#1B1B1B"/>
<path d="M46.0938 7.8125H42.1875V3.90625H46.0938V7.8125Z" fill="#1B1B1B"/>
<path d="M38.2812 7.8125H34.375V3.90625H38.2812V7.8125Z" fill="#1B1B1B"/>
<path d="M30.4688 7.8125H26.5625V3.90625H30.4688V7.8125Z" fill="#1B1B1B"/>
<path d="M3.90625 26.6602H7.8125V30.5664H3.90625V26.6602Z" fill="#1B1B1B"/>
<path d="M3.90625 34.4727H7.8125V38.3789H3.90625V34.4727Z" fill="#1B1B1B"/>
<path d="M3.90625 42.1875H7.8125V46.0938H3.90625V42.1875Z" fill="#1B1B1B"/>
<path d="M11.7188 42.1875H15.625V46.0938H11.7188V42.1875Z" fill="#1B1B1B"/>
<path d="M19.5312 42.1875H23.4375V46.0938H19.5312V42.1875Z" fill="#1B1B1B"/>
<defs>
<linearGradient id="paint0_linear" x1="0.19305" y1="0" x2="0.19305" y2="49.6139" gradientUnits="userSpaceOnUse">
<stop stop-color="#00EB9B"/>
<stop offset="1" stop-color="#07DCF8"/>
</linearGradient>
</defs>
</svg>
