<svg width="40" height="40" viewBox="0 0 40 40" fill="none" xmlns="http://www.w3.org/2000/svg">
<path fill-rule="evenodd" clip-rule="evenodd" d="M20.9402 31.5783L30.9641 39.5331L40 31.6192L39.4098 20.1495C39.2292 16.6386 36.3364 13.8883 32.8241 13.8883H20.5114V13.8945C20.4336 13.8903 20.3555 13.8883 20.2773 13.8883C15.9252 13.8883 13.4201 20.0806 10.7679 26.6364C9.66891 29.353 8.53242 32.1622 7.36625 34.1622C5.99008 36.5227 5.09453 36.875 4.68313 36.875C3.82234 36.875 3.12203 36.1741 3.12203 35.3125C3.12203 28.7474 4.70625 22.2396 6.03531 17.9364C7.03273 14.7065 8.04031 12.1993 8.5775 10.9375H9.95648C10.2127 11.5768 10.4723 12.211 10.7266 12.8307C11.194 13.9698 11.6674 15.1257 12.1246 16.3304C12.8434 15.1701 13.5763 14.2166 14.3466 13.4407C14.1028 12.8341 13.858 12.2365 13.6147 11.6436C13.3409 10.9764 13.0777 10.3346 12.8201 9.69034L16.8443 5.6022C17.9109 4.51846 18.4984 3.08386 18.4984 1.56253V0H0V1.56253C0 3.08386 0.5875 4.51846 1.65422 5.6022L5.70273 9.71497C5.13617 11.0434 4.10609 13.61 3.06914 16.9593C1.66898 21.4819 0 28.3371 0 35.3125C0 37.8971 2.10086 40 4.6832 40H18.8108C20.3635 40 21.823 39.1074 23.1766 37.341L20.7345 35.403C19.9483 36.4463 19.2733 36.8749 18.8109 36.8749H9.34844C9.61344 36.4879 9.85102 36.1006 10.0629 35.7372C11.3422 33.5431 12.5214 30.6282 13.6618 27.8092C14.8061 24.9805 15.9895 22.0556 17.2379 19.9429C18.3705 18.0264 19.4215 17.0133 20.2773 17.0133C20.6498 17.0133 20.9961 17.1621 21.2527 17.4326C21.5092 17.703 21.6398 18.0569 21.6205 18.4293L20.9402 31.5783ZM3.8782 3.40892C3.79 3.31931 3.70898 3.22446 3.63539 3.12499H14.8632C14.7896 3.22438 14.7086 3.31923 14.6204 3.40892L10.2856 7.81251H8.21305L3.8782 3.40892ZM24.5355 17.0133H32.8241C34.6735 17.0133 36.1968 18.4614 36.2919 20.3101L36.8041 30.2657L30.8656 35.4669L24.1415 30.1306L24.7386 18.5909C24.7663 18.0538 24.6953 17.519 24.5355 17.0133Z" fill="#E1E1E1"/>
</svg>
