<svg width="30" height="20" viewBox="0 0 30 20" fill="none" xmlns="http://www.w3.org/2000/svg">
<path fill-rule="evenodd" clip-rule="evenodd" d="M1 6C0.447715 6 0 6.44772 0 7C0 7.55228 0.447716 8 1 8H29C29.5523 8 30 7.55228 30 7C30 6.44772 29.5523 6 29 6H1ZM0 13C0 12.4477 0.447715 12 1 12H29C29.5523 12 30 12.4477 30 13C30 13.5523 29.5523 14 29 14H1C0.447716 14 0 13.5523 0 13ZM0 19C0 18.4477 0.447715 18 1 18H29C29.5523 18 30 18.4477 30 19C30 19.5523 29.5523 20 29 20H1C0.447716 20 0 19.5523 0 19Z" fill="url(#paint0_linear)"/>
<rect width="30" height="2" rx="1" fill="#F2F2F2"/>
<defs>
<linearGradient id="paint0_linear" x1="0.11583" y1="6" x2="0.11583" y2="19.8919" gradientUnits="userSpaceOnUse">
<stop stop-color="#00EB9B"/>
<stop offset="1" stop-color="#07DCF8"/>
</linearGradient>
</defs>
</svg>
