<svg width="20" height="20" viewBox="0 0 20 20" fill="none" xmlns="http://www.w3.org/2000/svg">
<path fill-rule="evenodd" clip-rule="evenodd" d="M14.1667 7.08333C14.1667 7.61963 14.1018 8.14046 13.9878 8.64299L19.5117 14.1667C19.8267 14.4816 20 14.9005 20 15.3455V18.3333C20 19.2525 19.2525 20 18.3333 20H15.3451C14.8999 20 14.4816 19.8267 14.1667 19.5117L12.745 18.09C12.7059 18.0513 12.6713 18.0084 12.6404 17.9624C12.6318 17.9496 12.625 17.936 12.6181 17.9225C12.6141 17.9145 12.6101 17.9066 12.6058 17.8988L12.5935 17.8766L12.5935 17.8766L12.5935 17.8766C12.5828 17.8577 12.5722 17.8389 12.5637 17.8188C12.5554 17.7985 12.5496 17.7777 12.5438 17.7568L12.5438 17.7568L12.5374 17.7346C12.535 17.7262 12.5322 17.7179 12.5295 17.7096L12.5295 17.7096C12.5245 17.6944 12.5194 17.6793 12.5163 17.6634C12.5059 17.6093 12.5 17.5545 12.5 17.5V15.8333H10.8333C10.7788 15.8333 10.7241 15.8274 10.6704 15.8167C10.6543 15.8135 10.6392 15.8085 10.624 15.8035C10.6155 15.8008 10.607 15.798 10.5983 15.7955C10.5934 15.794 10.5883 15.7926 10.5833 15.7912C10.5801 15.7903 10.5768 15.7894 10.5736 15.7885C10.5538 15.783 10.534 15.7775 10.5149 15.7697C10.4936 15.7609 10.4739 15.7497 10.4541 15.7384L10.4333 15.7267C10.4285 15.7239 10.4235 15.7212 10.4185 15.7186C10.4151 15.7168 10.4116 15.7151 10.4082 15.7133C10.3959 15.7071 10.3835 15.7008 10.3717 15.693C10.3253 15.662 10.2826 15.6274 10.2437 15.5884L8.64299 13.9878C8.14046 14.1018 7.61963 14.1667 7.08333 14.1667C3.17749 14.1667 0 10.9892 0 7.08333C0 3.17749 3.17749 0 7.08333 0C10.9892 0 14.1667 3.17749 14.1667 7.08333ZM7.08333 1.66667C4.09668 1.66667 1.66667 4.09668 1.66667 7.08333C1.66667 10.07 4.09668 12.5 7.08333 12.5C10.07 12.5 12.5 10.07 12.5 7.08333C12.5 4.09668 10.07 1.66667 7.08333 1.66667ZM18.3333 18.3333H15.3451L14.1667 17.1549V15.8333C14.1667 14.9141 13.4192 14.1667 12.5 14.1667H11.1784L10.3658 13.3541C11.6396 12.6845 12.6845 11.64 13.3541 10.3658L18.3333 15.3455V18.3333ZM6.25 3.75C4.87122 3.75 3.75 4.87122 3.75 6.25C3.75 7.62878 4.87122 8.75 6.25 8.75C7.62878 8.75 8.75 7.62878 8.75 6.25C8.75 4.87122 7.62878 3.75 6.25 3.75ZM6.25 7.08333C5.79041 7.08333 5.41667 6.70959 5.41667 6.25C5.41667 5.79041 5.79041 5.41667 6.25 5.41667C6.70959 5.41667 7.08333 5.79041 7.08333 6.25C7.08333 6.70959 6.70959 7.08333 6.25 7.08333Z" fill="#01C7EC"/>
</svg>
