<svg width="15" height="15" viewBox="0 0 15 15" fill="none" xmlns="http://www.w3.org/2000/svg">
<path d="M11.1617 9.49604L14.8668 6.12992C15.1239 5.89657 14.9861 5.4533 14.6473 5.42262L11.1617 9.49604ZM11.1617 9.49604L12.272 14.5036C12.349 14.8516 11.9894 15.1254 11.6983 14.9405M11.1617 9.49604L11.6983 14.9405M11.6983 14.9405L7.50048 12.2857M11.6983 14.9405L7.50048 12.2857M7.50048 12.2857L3.30261 14.9405C3.01079 15.1246 2.65199 14.8508 2.72899 14.5036M7.50048 12.2857L2.72899 14.5036M2.72899 14.5036L3.83928 9.49604L2.72899 14.5036ZM8.96761 5.3029L9.16355 5.78922L9.68574 5.83626L13.5338 6.18291L10.5853 8.86162L10.2172 9.19605L10.3249 9.68158L11.1955 13.6083L7.95862 11.5612L7.50048 11.2715L7.04234 11.5612L3.80547 13.6083L4.6761 9.68158L4.78375 9.19606L4.41567 8.86163L1.46641 6.18211L5.31445 5.83545L5.8366 5.78841L6.03256 5.30214L7.50006 1.66052L8.96761 5.3029ZM14.2902 5.49566C14.2903 5.4956 14.2903 5.49555 14.2904 5.4955L14.2902 5.49566Z" stroke="url(#paint0_linear)" stroke-width="1.71429"/>
<defs>
<linearGradient id="paint0_linear" x1="0.0579151" y1="0" x2="0.0579151" y2="14.8842" gradientUnits="userSpaceOnUse">
<stop stop-color="#00EB9B"/>
<stop offset="1" stop-color="#07DCF8"/>
</linearGradient>
</defs>
</svg>
