<svg width="20" height="20" viewBox="0 0 20 20" fill="none" xmlns="http://www.w3.org/2000/svg">
<path fill-rule="evenodd" clip-rule="evenodd" d="M20 3.125V9.33594C20 9.76746 19.6502 10.1172 19.2186 10.1172C18.7871 10.1172 18.4372 9.76746 18.4372 9.33594V3.125C18.4372 2.26349 17.7362 1.5625 16.8743 1.5625H3.12569C2.26399 1.5625 1.56285 2.26349 1.56285 3.125V13.2422C1.56285 14.1037 2.26399 14.8047 3.12569 14.8047H7.0676C7.49906 14.8047 7.84903 15.1544 7.84903 15.5859C7.84903 16.0175 7.49906 16.3672 7.0676 16.3672H3.12569C1.40214 16.3672 0 14.9654 0 13.2422V3.125C0 1.40182 1.40214 0 3.12569 0H16.8745C18.5979 0 20 1.40182 20 3.125ZM19.2186 12.4609C18.7871 12.4609 18.4372 12.8107 18.4372 13.2422C18.4372 14.1037 17.7362 14.8047 16.8743 14.8047C16.4428 14.8047 16.0929 15.1544 16.0929 15.5859C16.0929 16.0175 16.4428 16.3672 16.8743 16.3672C18.5979 16.3672 20 14.9654 20 13.2422C20 12.8107 19.6502 12.4609 19.2186 12.4609ZM8.43494 4.6875H3.94176C3.5103 4.6875 3.16034 4.33777 3.16034 3.90625C3.16034 3.47473 3.5103 3.125 3.94176 3.125H8.43494C8.86656 3.125 9.21636 3.47473 9.21636 3.90625C9.21636 4.33777 8.86656 4.6875 8.43494 4.6875ZM16.0929 4.6875C16.5245 4.6875 16.8743 4.33777 16.8743 3.90625C16.8743 3.47473 16.5245 3.125 16.0929 3.125H11.5997C11.1682 3.125 10.8183 3.47473 10.8183 3.90625C10.8183 4.33777 11.1682 4.6875 11.5997 4.6875H16.0929ZM16.0929 6.25C16.5245 6.25 16.8743 6.59973 16.8743 7.03125C16.8743 7.46277 16.5245 7.8125 16.0929 7.8125H3.94176C3.5103 7.8125 3.16034 7.46277 3.16034 7.03125C3.16034 6.59973 3.5103 6.25 3.94176 6.25H16.0929ZM3.94176 9.375C3.5103 9.375 3.16034 9.72473 3.16034 10.1562C3.16034 10.5878 3.5103 10.9375 3.94176 10.9375H6.83302C7.26464 10.9375 7.61445 10.5878 7.61445 10.1562C7.61445 9.72473 7.26464 9.375 6.83302 9.375H3.94176ZM14.2565 15.7239C15.0442 15.0641 15.5459 14.0739 15.5459 12.9688C15.5459 10.9871 13.9334 9.375 11.9513 9.375C9.9694 9.375 8.3568 10.9871 8.3568 12.9688C8.3568 14.037 8.82565 14.9976 9.568 15.6564V19.218C9.568 19.4801 9.69956 19.7249 9.91827 19.8695C10.1368 20.0143 10.4135 20.0397 10.6548 19.9371L11.9121 19.4035L13.1696 19.9377C13.2676 19.9794 13.3716 20 13.4751 20C13.6262 20 13.7765 19.9562 13.9063 19.8703C14.125 19.7256 14.2565 19.4809 14.2565 19.2188V15.7239ZM9.91964 12.9688C9.91964 14.0887 10.8311 15 11.9513 15C13.0717 15 13.983 14.0887 13.983 12.9688C13.983 11.8488 13.0717 10.9375 11.9513 10.9375C10.8311 10.9375 9.91964 11.8488 9.91964 12.9688ZM11.9513 16.5625C12.2058 16.5625 12.4541 16.5358 12.6937 16.4853H12.6938V18.0379L12.218 17.8357C12.0228 17.7528 11.8022 17.7527 11.6069 17.8355L11.1308 18.0377V16.4679C11.3946 16.5297 11.6691 16.5625 11.9513 16.5625Z" fill="#01C7EC"/>
</svg>
