<svg width="18" height="18" viewBox="0 0 18 18" fill="none" xmlns="http://www.w3.org/2000/svg">
<path fill-rule="evenodd" clip-rule="evenodd" d="M17.997 8.18554C17.9986 8.20361 17.9995 8.22182 17.9998 8.2401C17.9998 8.24379 18 8.24745 18 8.25114V17.25C18 17.6642 17.6642 18 17.25 18H0.754737C0.728405 18.0001 0.702214 17.9989 0.676163 17.9963C0.668745 17.9955 0.661483 17.9944 0.65421 17.9932L0.643116 17.9915L0.632678 17.9901L0.632626 17.99C0.623334 17.9888 0.614063 17.9875 0.604866 17.9857C0.591912 17.9831 0.579243 17.9798 0.566593 17.9765L0.566542 17.9765L0.56649 17.9765L0.560358 17.9749L0.550557 17.9724L0.55053 17.9724C0.545285 17.9711 0.540037 17.9699 0.53487 17.9683C0.51999 17.9639 0.50558 17.9585 0.491116 17.9532L0.490116 17.9528L0.481418 17.9497L0.481356 17.9497C0.476278 17.9479 0.471208 17.9461 0.466209 17.9441C0.454009 17.9391 0.442184 17.9334 0.430342 17.9277L0.430312 17.9277L0.430271 17.9277L0.426659 17.9259L0.418935 17.9223L0.418903 17.9223C0.412371 17.9193 0.405855 17.9162 0.399483 17.9129C0.390765 17.9082 0.382339 17.9032 0.373899 17.8981L0.367561 17.8943L0.360743 17.8903L0.360661 17.8903C0.352323 17.8854 0.343985 17.8805 0.335885 17.8751C0.330024 17.8712 0.324387 17.8671 0.318745 17.8629L0.318736 17.8629L0.318722 17.8629L0.311487 17.8576L0.308505 17.8555L0.308386 17.8554L0.308358 17.8554C0.297592 17.8476 0.286862 17.8399 0.276541 17.8315C0.272354 17.8281 0.26834 17.8245 0.264324 17.8208L0.264307 17.8208L0.257522 17.8148L0.255807 17.8133C0.244462 17.8034 0.233143 17.7935 0.222365 17.7828C0.218496 17.779 0.214832 17.775 0.211169 17.7709L0.204541 17.7637L0.200941 17.7599C0.191624 17.7501 0.182324 17.7402 0.173603 17.7297C0.167649 17.7226 0.162118 17.7151 0.156585 17.7076L0.150225 17.699L0.143462 17.6901C0.138932 17.6843 0.134403 17.6784 0.130185 17.6722C0.0883143 17.6109 0.0553377 17.5431 0.0330486 17.4706C0.0306028 17.4626 0.0286804 17.4546 0.026757 17.4466L0.0267558 17.4466L0.0240134 17.4354L0.0210485 17.4242C0.0188734 17.4161 0.0166967 17.408 0.0150134 17.3998C0.00481807 17.3497 -0.00010381 17.2992 1.65919e-06 17.249V8.25103L0.000125199 8.2448L0.000247753 8.24014C0.000493847 8.22178 0.00144307 8.20354 0.0030251 8.1854L0.00349003 8.17934L0.0041501 8.17126C0.00618917 8.15179 0.00924777 8.13256 0.0127986 8.1134L0.0138739 8.10749L0.015822 8.09715C0.019865 8.07782 0.024822 8.05873 0.0303416 8.03981L0.031717 8.03508L0.0346658 8.02519C0.0408884 8.00533 0.0480603 7.98578 0.0559353 7.96651L0.0604705 7.95551C0.0691541 7.93512 0.0788221 7.91519 0.0892987 7.89564L0.0915838 7.89086L0.0938338 7.8872C0.104486 7.8679 0.116053 7.84909 0.128428 7.83074L0.135107 7.82093C0.146885 7.80406 0.1594 7.78764 0.172584 7.77171L0.18285 7.75955C0.195471 7.74496 0.208654 7.73079 0.222471 7.71711L0.23569 7.70446L0.245498 7.69507L8.49549 0.195039C8.78155 -0.0650131 9.21844 -0.0650131 9.50451 0.195039L17.7546 7.69514L17.7606 7.70084L17.7644 7.70449L17.7696 7.70946L17.7776 7.71718C17.7914 7.73082 17.8046 7.74499 17.8172 7.75958L17.8275 7.77178C17.8407 7.78771 17.8532 7.80409 17.865 7.82097L17.8717 7.83084C17.884 7.84916 17.8956 7.86793 17.9062 7.88724L17.9085 7.89093L17.9097 7.89349L17.9108 7.89574C17.9213 7.91529 17.9309 7.93522 17.9396 7.95558L17.9442 7.96658C17.952 7.98581 17.9592 8.00536 17.9654 8.02522L17.9698 8.03992C17.9753 8.0588 17.9803 8.07785 17.9843 8.09719L17.9862 8.10762L17.9873 8.1135C17.9908 8.13259 17.9939 8.15179 17.9959 8.17119L17.9966 8.1794L17.997 8.18554ZM16.3201 7.96658L9 1.51163L1.75274 8.03992L9.00002 11.8957L16.3201 7.96658ZM1.26439 9.31669L7.5885 12.6657L1.26439 16.0147V9.31669ZM16.7022 9.31669L2.94124 16.6939H16.7022V9.31669Z" fill="url(#paint0_linear)"/>
<defs>
<linearGradient id="paint0_linear" x1="0.0694981" y1="0" x2="0.0694981" y2="17.861" gradientUnits="userSpaceOnUse">
<stop stop-color="#00EB9B"/>
<stop offset="1" stop-color="#07DCF8"/>
</linearGradient>
</defs>
</svg>
