<svg width="26" height="31" viewBox="0 0 26 31" fill="none" xmlns="http://www.w3.org/2000/svg">
<path fill-rule="evenodd" clip-rule="evenodd" d="M13 0L11.171 0.90723L12.065 2.67524L13 2.20977L24 7.64524V14.9406C23.9919 18.3604 22.3634 21.5791 19.6 23.6374L13 28.5293L6.4 23.6374C3.63656 21.5791 2.00813 18.3604 2 14.9406V7.64524L3.121 7.09181L2.227 5.3238L0 6.42374V14.9406C0.0096875 18.9822 1.93419 22.786 5.2 25.2186L13 31L20.8 25.2186C24.0658 22.786 25.9903 18.9822 26 14.9406V6.42374L13 0ZM8.48704 4.43665L7.59264 2.66884L9.38144 1.78493L10.2758 3.55274L8.48704 4.43665ZM6.69864 5.32285L5.80423 3.55503L4.01543 4.43894L4.90983 6.20675L6.69864 5.32285Z" fill="url(#paint0_linear)"/>
<path d="M17.3747 12.415C17.7279 12.0321 17.7279 11.442 17.3747 11.0591L17.1329 10.797C16.7369 10.3676 16.0588 10.3676 15.6628 10.797L12.0361 14.729C11.6401 15.1583 10.962 15.1583 10.566 14.729L10.3372 14.4809C9.94121 14.0516 9.26308 14.0516 8.86707 14.4809L8.62534 14.743C8.2721 15.126 8.2721 15.716 8.62534 16.099L10.566 18.203C10.962 18.6324 11.6401 18.6324 12.0361 18.203L17.3747 12.415Z" fill="#1B1B1B"/>
<defs>
<linearGradient id="paint0_linear" x1="0.100386" y1="0" x2="0.100386" y2="30.7606" gradientUnits="userSpaceOnUse">
<stop stop-color="#00EB9B"/>
<stop offset="1" stop-color="#07DCF8"/>
</linearGradient>
</defs>
</svg>
