<svg width="40" height="40" viewBox="0 0 40 40" fill="none" xmlns="http://www.w3.org/2000/svg">
<path fill-rule="evenodd" clip-rule="evenodd" d="M37.608 10.5627C39.1559 13.4382 39.9777 16.6693 39.9777 20.0272C39.9777 25.3695 37.8986 30.3918 34.1232 34.1695C30.3479 37.9469 25.3281 40 19.989 40C14.6497 40 9.63013 37.9469 5.85449 34.1695C2.07916 30.3918 0 25.3695 0 20.0272C0 14.6852 2.07916 9.6626 5.85449 5.88519C9.63013 2.10779 14.6497 0 19.989 0C22.103 0 24.1666 0.354809 26.123 0.983206L23.5712 3.53679C22.4161 3.2858 21.218 3.15237 19.989 3.15237C10.6891 3.15237 3.12317 10.7224 3.12317 20.0272C3.12317 24.284 4.70764 28.1774 7.31598 31.1493C8.22357 27.0861 11.0379 23.7356 14.7672 22.0901C13.2101 20.6696 12.2314 18.6247 12.2314 16.3554C12.2314 12.0757 15.7114 8.59359 19.989 8.59359C24.2664 8.59359 27.7463 12.0754 27.7463 16.3554C27.7463 18.6247 26.7679 20.6696 25.2109 22.0901C28.9398 23.7356 31.7545 27.0861 32.6617 31.1493C35.2704 28.1771 36.8546 24.284 36.8546 20.0272C36.8546 17.4812 36.2869 15.0653 35.2734 12.8986L37.608 10.5627ZM19.989 20.9921C22.5443 20.9921 24.6231 18.9121 24.6231 16.3554C24.6231 13.7985 22.5443 11.7185 19.989 11.7185C17.4335 11.7185 15.3546 13.7985 15.3546 16.3554C15.3546 18.9121 17.4335 20.9921 19.989 20.9921ZM29.8468 33.7108C27.0721 35.7176 23.6664 36.9023 19.989 36.9023C16.3113 36.9023 12.9059 35.7176 10.1312 33.7108C10.2762 28.396 14.6426 24.1169 19.989 24.1169C25.3354 24.1169 29.7015 28.396 29.8468 33.7108Z" fill="url(#paint0_linear)"/>
<path d="M25.1982 6.32813L27.4068 4.11836L31.3109 8.02462L37.7916 1.54004L40.0002 3.74981L31.3109 12.4439L25.1982 6.32813Z" fill="#1B1B1B"/>
<defs>
<linearGradient id="paint0_linear" x1="0.154354" y1="0" x2="0.154354" y2="39.6911" gradientUnits="userSpaceOnUse">
<stop stop-color="#00EB9B"/>
<stop offset="1" stop-color="#07DCF8"/>
</linearGradient>
</defs>
</svg>
