<svg width="150" height="42" viewBox="0 0 150 42" fill="none" xmlns="http://www.w3.org/2000/svg">
<path fill-rule="evenodd" clip-rule="evenodd" d="M140.538 5H150V14.3905L143.991 20.8053L150 27.2205V37H140.527L124.852 20.7925L140.538 5ZM147.22 13.2873V7.78663H141.692L128.749 20.8186L141.703 34.2131H147.22V28.3236L140.179 20.8055L147.22 13.2873Z" fill="url(#paint0_linear)"/>
<path d="M118.099 5H127.561L143.247 20.7925L127.572 37H118.099V27.2205L124.108 20.8053L118.099 14.3905V5Z" fill="black"/>
<g filter="url(#filter0_d)">
<path fill-rule="evenodd" clip-rule="evenodd" d="M127.561 5H118.099V14.3905L124.108 20.8055L118.099 27.2205V37H127.572L143.247 20.7925L127.561 5ZM120.879 13.2872V7.78652H126.407L139.35 20.8185L126.396 34.2132H120.879V28.3235L127.921 20.8055L120.879 13.2872Z" fill="url(#paint1_linear)"/>
</g>
<path fill-rule="evenodd" clip-rule="evenodd" d="M7.34729 35.8V24.9211H18.9462V18.9641H7.34729V13.007H20.7096V7.03046H0V35.8H7.34729ZM36.4034 36.6008C38.2974 36.6008 39.9987 36.3436 41.5073 35.8293C43.016 35.315 44.3385 34.5435 45.4748 33.5148C46.559 32.5252 47.3362 31.3143 47.8064 29.882C48.2766 28.4497 48.5117 26.5292 48.5117 24.1203V7.03046H41.1644V24.9992C41.1644 26.9784 40.7922 28.3879 40.0476 29.2277C39.3031 30.0676 38.0753 30.4875 36.3642 30.4875C34.627 30.4875 33.3828 30.0676 32.6318 29.2277C31.8807 28.3879 31.5052 26.9784 31.5052 24.9992V7.03046H24.2363V24.1203C24.2363 26.5031 24.4779 28.4139 24.9612 29.8527C25.4445 31.2915 26.2347 32.5122 27.3319 33.5148C28.4683 34.5435 29.7908 35.315 31.2995 35.8293C32.8081 36.3436 34.5094 36.6008 36.4034 36.6008ZM61.1099 27.1281V35.8H53.9585V7.03046H61.9524L67.3992 16.4836C68.2874 18.02 69.1299 19.5435 69.9266 21.0539C70.7234 22.5643 71.4745 24.0552 72.1798 25.5266C72.0753 23.3521 71.9969 21.3143 71.9447 19.4133C71.8925 17.5122 71.8663 15.8391 71.8663 14.3937V7.03046H78.9981V35.8H71.0238L65.3615 26.0734C64.6954 24.9276 63.9704 23.6418 63.1867 22.216C62.403 20.7902 61.5736 19.2505 60.6984 17.5969C60.8421 19.4719 60.9466 21.2167 61.0119 22.8312C61.0772 24.4458 61.1099 25.8781 61.1099 27.1281ZM96.0634 35.8C100.818 35.8 104.374 34.6086 106.732 32.2258C109.089 29.843 110.268 26.2492 110.268 21.4445C110.268 16.7961 109.129 13.2316 106.849 10.7512C104.57 8.27069 101.295 7.03046 97.0235 7.03046H84.6996V35.8H96.0634ZM92.1253 29.7648H96.1418C98.4276 29.7648 100.103 29.0943 101.167 27.7531C102.232 26.412 102.764 24.3091 102.764 21.4445C102.764 18.5669 102.232 16.4608 101.167 15.1262C100.103 13.7915 98.4276 13.1242 96.1418 13.1242H92.1253V29.7648Z" fill="white"/>
<defs>
<filter id="filter0_d" x="111.1" y="0" width="35.1476" height="42" filterUnits="userSpaceOnUse" color-interpolation-filters="sRGB">
<feFlood flood-opacity="0" result="BackgroundImageFix"/>
<feColorMatrix in="SourceAlpha" type="matrix" values="0 0 0 0 0 0 0 0 0 0 0 0 0 0 0 0 0 0 127 0" result="hardAlpha"/>
<feOffset dx="-2"/>
<feGaussianBlur stdDeviation="2.5"/>
<feColorMatrix type="matrix" values="0 0 0 0 0 0 0 0 0 0.0967732 0 0 0 0 0.259137 0 0 0 0.2 0"/>
<feBlend mode="normal" in2="BackgroundImageFix" result="effect1_dropShadow"/>
<feBlend mode="normal" in="SourceGraphic" in2="effect1_dropShadow" result="shape"/>
</filter>
<linearGradient id="paint0_linear" x1="124.949" y1="5" x2="124.949" y2="36.7529" gradientUnits="userSpaceOnUse">
<stop stop-color="#00CBEB"/>
<stop offset="1" stop-color="#075EF8"/>
</linearGradient>
<linearGradient id="paint1_linear" x1="143.15" y1="5" x2="143.15" y2="36.7529" gradientUnits="userSpaceOnUse">
<stop stop-color="#00EB9B"/>
<stop offset="1" stop-color="#07DCF8"/>
</linearGradient>
</defs>
</svg>
