<svg width="800" height="500" viewBox="0 0 800 500" fill="none" xmlns="http://www.w3.org/2000/svg">
<path d="M97.9571 19H273.409V228.5H97.9571V213H96V155.5H97.9571V122.497H95V65.3273H97.9571V19Z" fill="#E997DC"/>
<rect x="338" y="19" width="110" height="163" fill="#E997DC"/>
<rect x="350" y="242" width="156" height="237" fill="#E997DC"/>
<rect x="96" y="230" width="178" height="84" fill="#E997DC"/>
<rect x="508" y="242" width="111" height="205" fill="#E997DC"/>
<rect x="449" y="12" width="83" height="170" fill="#E997DC"/>
<rect x="534" y="12" width="83" height="170" fill="#E997DC"/>
<rect x="506" y="384" width="3" height="56" fill="#E997DC"/>
<path d="M275.048 440.426V437.961H275.404V440.426L275.226 440.949L275.048 440.426ZM275.226 440.949H275.048V440.426L275.226 440.949ZM277.788 440.949H275.226V439.903H277.788L277.966 440.426L277.788 440.949ZM277.966 440.426V440.949H277.788L277.966 440.426ZM277.966 437.961V440.426H277.61V437.961L277.788 437.438L277.966 437.961ZM277.788 437.438H277.966V437.961L277.788 437.438ZM275.226 437.438H277.788V438.484H275.226L275.048 437.961L275.226 437.438ZM275.048 437.961V437.438H275.226L275.048 437.961Z" fill="#3F00FF"/>
<path fill-rule="evenodd" clip-rule="evenodd" d="M635.386 0.77124H598.622V18.7248H611.444V20.4334H615.718V140.136H609.735V152.107H615.718V182.45L588.509 182.427L588.518 185.087L620.849 185.015V159.86L623.415 159.868V156.45H620.99L620.849 19.5818H635.385L635.386 0.77124Z" fill="#434242"/>
<path fill-rule="evenodd" clip-rule="evenodd" d="M598.099 0.248535H635.909L635.908 20.1053H621.372L621.512 155.928H623.938V160.393L621.372 160.385V185.538L587.997 185.612L587.984 181.904L615.195 181.927V152.63H609.212V139.613H615.195V20.9569H610.921V19.2483H598.099V0.248535ZM599.145 1.29468V18.2021H611.967V19.9107H616.241V140.659H610.258V151.584H616.241V182.974L589.034 182.951L589.04 184.563L620.325 184.494V159.336L622.891 159.344V156.974H620.467L620.325 19.0591H634.861L634.863 1.29468H599.145Z" fill="#3F00FF"/>
<path fill-rule="evenodd" clip-rule="evenodd" d="M713.708 0.77124H682.07V19.5818H697.462V20.5815H701.737V140.993H697.462V150.398H698.315V156.75H647.014V160.168H650.436V161.024H653.002V160.168H698.315V223.075H654.258V180.797H651.692V279.506H654.258V233.337H698.315V301.74L654.258 301.557V298.317H651.692V301.74H647.336V304.305H698.315V308.579H696.606V318.842H701.919L701.737 331.246H621.364V304.305H627.257V301.74H621.364V238.826H589.367V241.392H618.798V307.722H609.392V319.693H618.798V334.668H679.325L679.504 346.639H701.737L701.769 440.288L681.931 440.253L682.07 467.617H713.708V460.772H715.417V4.18839H713.708V0.77124Z" fill="#434242"/>
<path fill-rule="evenodd" clip-rule="evenodd" d="M681.547 0.248535H714.231V3.66568H715.94V461.296H714.231V468.141H681.549L681.405 439.729L701.245 439.765L701.214 347.163H678.989L678.81 335.192H618.275V320.216H608.869V307.2H618.275V241.916H588.844V238.304H621.887V301.217H627.78V304.828H621.887V330.723H701.221L701.388 319.365H696.083V308.057H697.792V304.828H646.813V301.217H651.169V297.795H654.781V301.037L697.792 301.215V233.861H654.781V280.03H651.169V180.274H654.781V222.552H697.792V160.691H653.526V161.548H649.914V160.691H646.491V156.227H697.792V150.922H696.939V140.471H701.214V21.105H696.939V20.1053H681.547V0.248535ZM697.985 20.0588H702.26V141.517H697.985V149.875H698.838V157.273H647.538V159.645H650.96V160.501H652.48V159.645H698.838V223.598H653.735V181.32H652.215V278.984H653.735V232.815H698.838V302.265L653.735 302.078V298.841H652.215V302.263H647.859V303.782H698.838V309.103H697.129V318.319H702.45L702.252 331.769H620.841V303.782H626.734V302.263H620.841V239.35H589.89V240.869H619.321V308.246H609.915V319.17H619.321V334.145H679.84L680.019 346.117H702.26L702.292 440.813L682.457 440.777L682.59 467.095H713.185V460.25H714.894V4.71183H713.185V1.29468H682.593V19.0591H697.985V20.0588Z" fill="#3F00FF"/>
<path fill-rule="evenodd" clip-rule="evenodd" d="M85.9573 244.87V212.818H103.06V244.87H85.9573Z" fill="#434242"/>
<path fill-rule="evenodd" clip-rule="evenodd" d="M85.4343 212.294H103.583V245.393H85.4343V212.294ZM86.4805 213.341V244.347H102.537V213.341H86.4805Z" fill="#3F00FF"/>
<path fill-rule="evenodd" clip-rule="evenodd" d="M85.5229 467.617V287.203H103.477V295.751H135.115V313.71H265.932V307.722H274.486V290.357H277.902V319.692H265.932V318.841H102.626V441.068L117.156 441.11V467.617H85.5229Z" fill="#434242"/>
<path fill-rule="evenodd" clip-rule="evenodd" d="M85 286.68H104V295.228H135.639V313.187H265.409V307.199H273.963V289.834H278.425V320.215H265.409V319.364H103.149V440.547L117.679 440.588V468.14H85V286.68ZM266.455 319.169H277.379V290.88H275.009V308.245H266.455V314.233H134.593V296.274H102.954V287.726H86.0461V467.094H116.633V441.631L102.103 441.59V318.318H266.455V319.169Z" fill="#3F00FF"/>
<path fill-rule="evenodd" clip-rule="evenodd" d="M346.99 238.901H411.918V241.465L350.405 241.664V255.133H370.057L370.466 302.597H349.941V467.617H376.449V486.428H343.102V467.617H347.375L346.99 238.901Z" fill="#434242"/>
<path fill-rule="evenodd" clip-rule="evenodd" d="M346.466 238.378H412.441V241.986L350.928 242.185V254.61H370.575L370.994 303.119H350.464V467.094H376.972V486.95H342.579V467.094H346.851L346.466 238.378ZM347.514 239.424L347.899 468.14H343.625V485.904H375.926V468.14H349.418V302.073H369.939L369.538 255.656H349.881V241.142L411.395 240.943V239.424H347.514Z" fill="#3F00FF"/>
<path fill-rule="evenodd" clip-rule="evenodd" d="M262.729 459.978V440.31H293.51V467.674H296.933V486.58L278.122 486.485V459.978H262.729Z" fill="#434242"/>
<path fill-rule="evenodd" clip-rule="evenodd" d="M262.206 439.787H294.033V467.152H297.456V487.106L277.599 487.005V460.501H262.206V439.787ZM263.252 440.834V459.455H278.645V485.965L296.41 486.055V468.198H292.987V440.834H263.252Z" fill="#3F00FF"/>
<path fill-rule="evenodd" clip-rule="evenodd" d="M422.618 486.427V467.617H455.113V486.427H422.618Z" fill="#434242"/>
<path fill-rule="evenodd" clip-rule="evenodd" d="M422.095 467.094H455.637V486.951H422.095V467.094ZM423.141 468.141V485.905H454.591V468.141H423.141Z" fill="#3F00FF"/>
<path fill-rule="evenodd" clip-rule="evenodd" d="M329.376 121.498H331.278V125.108H329.376V121.498Z" fill="#00FFFF"/>
<path fill-rule="evenodd" clip-rule="evenodd" d="M328.903 182.074H330.806V185.684H328.903V182.074Z" fill="#00FFFF"/>
<path fill-rule="evenodd" clip-rule="evenodd" d="M503.634 181.951H505.537V185.561H503.634V181.951Z" fill="#00FFFF"/>
<path fill-rule="evenodd" clip-rule="evenodd" d="M586.669 182.05H588.572V185.66H586.669V182.05Z" fill="#00FFFF"/>
<path fill-rule="evenodd" clip-rule="evenodd" d="M343.46 181.711H345.364V185.32H343.46V181.711Z" fill="#00FFFF"/>
<path fill-rule="evenodd" clip-rule="evenodd" d="M626.266 300.785H628.168V304.395H626.266V300.785Z" fill="#00FFFF"/>
<path fill-rule="evenodd" clip-rule="evenodd" d="M651.082 277.921H654.692V279.825H651.082V277.921Z" fill="#00FFFF"/>
<path fill-rule="evenodd" clip-rule="evenodd" d="M274.285 268.75H277.895V270.652H274.285V268.75Z" fill="#00FFFF"/>
<path fill-rule="evenodd" clip-rule="evenodd" d="M274.4 215.602H278.01V217.504H274.4V215.602Z" fill="#00FFFF"/>
<path fill-rule="evenodd" clip-rule="evenodd" d="M651.114 179.417H654.724V181.319H651.114V179.417Z" fill="#00FFFF"/>
<path fill-rule="evenodd" clip-rule="evenodd" d="M617.903 433.484H621.513V435.386H617.903V433.484Z" fill="#00FFFF"/>
<path fill-rule="evenodd" clip-rule="evenodd" d="M505.9 433.383H509.51V435.287H505.9V433.383Z" fill="#00FFFF"/>
<path fill-rule="evenodd" clip-rule="evenodd" d="M431.542 238.662H433.444V242.272H431.542V238.662Z" fill="#00FFFF"/>
<path fill-rule="evenodd" clip-rule="evenodd" d="M587.669 238.24H589.571V241.85H587.669V238.24Z" fill="#00FFFF"/>
<path fill-rule="evenodd" clip-rule="evenodd" d="M645.253 156.459H647.161V160.07H645.253V156.459Z" fill="#00FFFF"/>
<path fill-rule="evenodd" clip-rule="evenodd" d="M213.618 147.255H217.226V149.157H213.618V147.255Z" fill="#00FFFF"/>
<path fill-rule="evenodd" clip-rule="evenodd" d="M310.114 121.498H312.016V125.108H310.114V121.498Z" fill="#00FFFF"/>
<path fill-rule="evenodd" clip-rule="evenodd" d="M309.641 182.074H311.543V185.684H309.641V182.074Z" fill="#00FFFF"/>
<path fill-rule="evenodd" clip-rule="evenodd" d="M484.372 181.951H486.274V185.561H484.372V181.951Z" fill="#00FFFF"/>
<path fill-rule="evenodd" clip-rule="evenodd" d="M567.407 182.05H569.311V185.66H567.407V182.05Z" fill="#00FFFF"/>
<path fill-rule="evenodd" clip-rule="evenodd" d="M362.722 181.711H364.625V185.32H362.722V181.711Z" fill="#00FFFF"/>
<path fill-rule="evenodd" clip-rule="evenodd" d="M645.526 300.785H647.43V304.395H645.526V300.785Z" fill="#00FFFF"/>
<path fill-rule="evenodd" clip-rule="evenodd" d="M651.082 297.183H654.692V299.085H651.082V297.183Z" fill="#00FFFF"/>
<path fill-rule="evenodd" clip-rule="evenodd" d="M274.285 288.851H277.895V290.752H274.285V288.851Z" fill="#00FFFF"/>
<path fill-rule="evenodd" clip-rule="evenodd" d="M274.4 196.34H278.01V198.242H274.4V196.34Z" fill="#00FFFF"/>
<path fill-rule="evenodd" clip-rule="evenodd" d="M651.114 160.155H654.724V162.057H651.114V160.155Z" fill="#00FFFF"/>
<path fill-rule="evenodd" clip-rule="evenodd" d="M617.547 413.794H621.163V415.696H617.547V413.794Z" fill="#00FFFF"/>
<path fill-rule="evenodd" clip-rule="evenodd" d="M505.9 414.123H509.51V416.025H505.9V414.123Z" fill="#00FFFF"/>
<path fill-rule="evenodd" clip-rule="evenodd" d="M411.858 238.662H413.765V242.272H411.858V238.662Z" fill="#00FFFF"/>
<path fill-rule="evenodd" clip-rule="evenodd" d="M567.572 238.24H569.476V241.85H567.572V238.24Z" fill="#00FFFF"/>
<path fill-rule="evenodd" clip-rule="evenodd" d="M623.486 156.295H625.389V159.905H623.486V156.295Z" fill="#00FFFF"/>
<path fill-rule="evenodd" clip-rule="evenodd" d="M213.618 166.515H217.226V168.419H213.618V166.515Z" fill="#00FFFF"/>
<path fill-rule="evenodd" clip-rule="evenodd" d="M330.422 122.805V124.873L313.593 135.498L311.971 133.88L330.422 122.805ZM313.659 134.086L313.741 134.168L317.929 131.524L313.659 134.086Z" fill="#00FFFF"/>
<path fill-rule="evenodd" clip-rule="evenodd" d="M313.12 171.681L329.949 182.308V184.376L311.501 173.302L313.12 171.681ZM313.269 173.012L313.187 173.094L317.481 175.672L313.269 173.012Z" fill="#00FFFF"/>
<path fill-rule="evenodd" clip-rule="evenodd" d="M487.849 171.561L504.68 182.186V184.257L486.23 173.181L487.849 171.561ZM487.998 172.892L487.917 172.973L492.181 175.533L487.998 172.892Z" fill="#00FFFF"/>
<path fill-rule="evenodd" clip-rule="evenodd" d="M570.887 171.661L587.716 182.286V184.356L569.267 173.28L570.887 171.661ZM571.035 172.992L570.954 173.073L575.224 175.636L571.035 172.992Z" fill="#00FFFF"/>
<path fill-rule="evenodd" clip-rule="evenodd" d="M361.148 171.319L362.766 172.941L344.318 184.015V181.947L361.148 171.319ZM356.786 175.311L361.08 172.733L360.998 172.651L356.786 175.311Z" fill="#00FFFF"/>
<path fill-rule="evenodd" clip-rule="evenodd" d="M643.951 290.392L645.569 292.014L627.121 303.088V301.02L643.951 290.392ZM639.598 294.378L643.883 291.806L643.802 291.724L639.598 294.378Z" fill="#00FFFF"/>
<path fill-rule="evenodd" clip-rule="evenodd" d="M652.389 278.778H654.457L665.082 295.608L663.463 297.227L652.389 278.778ZM661.121 291.292L663.671 295.54L663.751 295.459L661.121 291.292Z" fill="#00FFFF"/>
<path fill-rule="evenodd" clip-rule="evenodd" d="M275.592 269.606H277.66L288.285 286.435L286.666 288.054L275.592 269.606ZM284.322 282.117L286.873 286.367L286.954 286.286L284.322 282.117Z" fill="#00FFFF"/>
<path fill-rule="evenodd" clip-rule="evenodd" d="M265.63 198.198L276.703 216.648H274.635L264.008 199.819L265.63 198.198ZM265.339 199.968L268.018 204.209L265.422 199.885L265.339 199.968Z" fill="#00FFFF"/>
<path fill-rule="evenodd" clip-rule="evenodd" d="M663.496 162.012L665.114 163.634L654.489 180.463H652.421L663.496 162.012ZM663.703 163.7L661.142 167.966L663.784 163.782L663.703 163.7Z" fill="#00FFFF"/>
<path fill-rule="evenodd" clip-rule="evenodd" d="M608.784 415.654L619.856 434.101H617.782L607.156 417.271L608.784 415.654ZM608.489 417.422L611.24 421.779L608.574 417.337L608.489 417.422Z" fill="#00FFFF"/>
<path fill-rule="evenodd" clip-rule="evenodd" d="M518.281 415.981L519.901 417.6L509.276 434.43H507.207L518.281 415.981ZM518.489 417.668L515.938 421.917L518.57 417.749L518.489 417.668Z" fill="#00FFFF"/>
<path fill-rule="evenodd" clip-rule="evenodd" d="M432.588 239.97V242.038L415.759 252.663L414.14 251.044L432.588 239.97ZM415.827 251.251L415.908 251.332L420.078 248.699L415.827 251.251Z" fill="#00FFFF"/>
<path fill-rule="evenodd" clip-rule="evenodd" d="M587.881 239.545V241.615L571.051 252.24L569.432 250.621L587.881 239.545ZM571.119 250.828L571.2 250.909L575.383 248.268L571.119 250.828Z" fill="#00FFFF"/>
<path fill-rule="evenodd" clip-rule="evenodd" d="M646.303 157.489V159.671L627.326 171.652L625.594 169.92L646.303 157.489ZM627.281 170.128L627.475 170.321L637.436 164.032L627.281 170.128Z" fill="#00FFFF"/>
<path fill-rule="evenodd" clip-rule="evenodd" d="M214.923 148.112H216.991L227.618 164.941L225.996 166.56L214.923 148.112ZM223.629 160.583L226.204 164.874L226.286 164.792L223.629 160.583Z" fill="#00FFFF"/>
<path fill-rule="evenodd" clip-rule="evenodd" d="M313.163 134.121L310.599 124.723L311.608 124.448L314.172 133.846L313.163 134.121Z" fill="#FF0000"/>
<path fill-rule="evenodd" clip-rule="evenodd" d="M313.7 173.336L311.136 182.734L310.126 182.459L312.69 173.061L313.7 173.336Z" fill="#FF0000"/>
<path fill-rule="evenodd" clip-rule="evenodd" d="M488.428 173.215L485.866 182.612L484.857 182.337L487.419 172.939L488.428 173.215Z" fill="#FF0000"/>
<path fill-rule="evenodd" clip-rule="evenodd" d="M571.465 173.314L568.902 182.712L567.892 182.437L570.456 173.039L571.465 173.314Z" fill="#FF0000"/>
<path fill-rule="evenodd" clip-rule="evenodd" d="M361.578 172.699L364.14 182.097L363.13 182.372L360.568 172.975L361.578 172.699Z" fill="#FF0000"/>
<path fill-rule="evenodd" clip-rule="evenodd" d="M644.381 291.772L646.945 301.171L645.936 301.446L643.372 292.048L644.381 291.772Z" fill="#FF0000"/>
<path fill-rule="evenodd" clip-rule="evenodd" d="M663.704 296.039L654.306 298.602L654.031 297.593L663.429 295.029L663.704 296.039Z" fill="#FF0000"/>
<path fill-rule="evenodd" clip-rule="evenodd" d="M286.907 286.865L277.509 289.429L277.233 288.42L286.631 285.856L286.907 286.865Z" fill="#FF0000"/>
<path fill-rule="evenodd" clip-rule="evenodd" d="M265.388 199.389L274.786 196.825L275.061 197.834L265.664 200.398L265.388 199.389Z" fill="#FF0000"/>
<path fill-rule="evenodd" clip-rule="evenodd" d="M663.462 164.213L654.064 161.649L654.339 160.64L663.737 163.204L663.462 164.213Z" fill="#FF0000"/>
<path fill-rule="evenodd" clip-rule="evenodd" d="M608.541 416.841L617.933 414.279L618.208 415.288L608.816 417.85L608.541 416.841Z" fill="#FF0000"/>
<path fill-rule="evenodd" clip-rule="evenodd" d="M518.248 418.18L508.85 415.618L509.125 414.608L518.523 417.17L518.248 418.18Z" fill="#FF0000"/>
<path fill-rule="evenodd" clip-rule="evenodd" d="M415.329 251.284L412.765 241.887L413.774 241.611L416.338 251.009L415.329 251.284Z" fill="#FF0000"/>
<path fill-rule="evenodd" clip-rule="evenodd" d="M570.621 250.862L568.057 241.465L569.066 241.189L571.63 250.587L570.621 250.862Z" fill="#FF0000"/>
<path fill-rule="evenodd" clip-rule="evenodd" d="M626.535 168.918L623.972 159.52L624.981 159.245L627.545 168.642L626.535 168.918Z" fill="#FF0000"/>
<path fill-rule="evenodd" clip-rule="evenodd" d="M226.238 165.371L216.84 167.935L216.565 166.926L225.963 164.362L226.238 165.371Z" fill="#FF0000"/>
<path fill-rule="evenodd" clip-rule="evenodd" d="M103.837 8.56104H267.207V19.005H103.837V8.56104ZM104.883 9.60718V17.9588H266.161V9.60718H104.883Z" fill="#0000A5"/>
<path fill-rule="evenodd" clip-rule="evenodd" d="M275.558 8.56104H439.784V19.005H275.558V8.56104ZM276.605 9.60718V17.9588H438.738V9.60718H276.605Z" fill="#0000A5"/>
<path fill-rule="evenodd" clip-rule="evenodd" d="M669.934 48.0544H648.574V47.0083H669.934V48.0544Z" fill="#212830"/>
<path d="M681.898 19.4696H636.683V18.9775H681.898V19.4696Z" fill="#212830"/>
<path fill-rule="evenodd" clip-rule="evenodd" d="M621.233 82.0359H648.574V83.082H621.233V82.0359Z" fill="#212830"/>
<path fill-rule="evenodd" clip-rule="evenodd" d="M621.233 75.2021H648.574V76.2483H621.233V75.2021Z" fill="#212830"/>
<path fill-rule="evenodd" clip-rule="evenodd" d="M621.233 68.3674H648.574V69.4136H621.233V68.3674Z" fill="#212830"/>
<path fill-rule="evenodd" clip-rule="evenodd" d="M621.233 61.5286H648.574V62.5747H621.233V61.5286Z" fill="#212830"/>
<path fill-rule="evenodd" clip-rule="evenodd" d="M621.233 54.6938H648.574V55.74H621.233V54.6938Z" fill="#212830"/>
<path fill-rule="evenodd" clip-rule="evenodd" d="M621.233 47.0083H648.574V48.0544H621.233V47.0083Z" fill="#212830"/>
<path fill-rule="evenodd" clip-rule="evenodd" d="M697.269 118.11H669.934V117.063H697.269V118.11Z" fill="#212830"/>
<path fill-rule="evenodd" clip-rule="evenodd" d="M671.64 118.11H669.934V117.063H671.64V118.11Z" fill="#212830"/>
<path fill-rule="evenodd" clip-rule="evenodd" d="M669.411 110.23H697.269V111.276H670.457V124.421H669.411V110.23Z" fill="#212830"/>
<path fill-rule="evenodd" clip-rule="evenodd" d="M669.411 103.395H697.269V104.441H670.457V110.752H669.411V103.395Z" fill="#212830"/>
<path fill-rule="evenodd" clip-rule="evenodd" d="M649.759 123.565V49.2395H650.805V123.565H649.759Z" fill="#212830"/>
<path fill-rule="evenodd" clip-rule="evenodd" d="M668.22 124.087H650.282V123.041H668.22V124.087Z" fill="#212830"/>
<path fill-rule="evenodd" clip-rule="evenodd" d="M668.743 91.9568V123.565H667.697V91.9568H668.743Z" fill="#212830"/>
<path fill-rule="evenodd" clip-rule="evenodd" d="M669.934 92.4802H668.22V91.4341H669.934V92.4802Z" fill="#212830"/>
<path fill-rule="evenodd" clip-rule="evenodd" d="M669.411 96.5615H697.269V97.6077H670.457V103.918H669.411V96.5615Z" fill="#212830"/>
<path fill-rule="evenodd" clip-rule="evenodd" d="M670.457 91.1008V97.0848H669.411V91.1008H670.457Z" fill="#212830"/>
<path fill-rule="evenodd" clip-rule="evenodd" d="M697.269 89.9155H671.64V88.8694H697.269V89.9155Z" fill="#212830"/>
<path fill-rule="evenodd" clip-rule="evenodd" d="M669.411 82.0359H679.331V83.082H670.457V89.3928H669.411V82.0359Z" fill="#212830"/>
<path fill-rule="evenodd" clip-rule="evenodd" d="M697.269 83.082H681.896V82.0359H697.269V83.082Z" fill="#212830"/>
<path fill-rule="evenodd" clip-rule="evenodd" d="M669.411 75.2021H689.579V76.2483H670.457V82.5591H669.411V75.2021Z" fill="#212830"/>
<path fill-rule="evenodd" clip-rule="evenodd" d="M650.282 48.7163H668.743V90.2451H667.697V49.7625H650.282V48.7163Z" fill="#212830"/>
<path fill-rule="evenodd" clip-rule="evenodd" d="M669.411 68.3674H697.269V69.4136H670.457V75.7244H669.411V68.3674Z" fill="#212830"/>
<path fill-rule="evenodd" clip-rule="evenodd" d="M669.411 61.5286H697.269V62.5747H670.457V68.8914H669.411V61.5286Z" fill="#212830"/>
<path fill-rule="evenodd" clip-rule="evenodd" d="M669.411 54.6938H697.269V55.74H670.457V62.0508H669.411V54.6938Z" fill="#212830"/>
<path fill-rule="evenodd" clip-rule="evenodd" d="M669.411 47.0083H697.269V48.0544H670.457V55.2172H669.411V47.0083Z" fill="#212830"/>
<path fill-rule="evenodd" clip-rule="evenodd" d="M697.562 71.0301L668.513 90.6781L667.927 89.8115L696.976 70.1636L697.562 71.0301Z" fill="#212830"/>
<path fill-rule="evenodd" clip-rule="evenodd" d="M697.562 72.7381L668.513 92.3894L667.927 91.5229L696.976 71.8716L697.562 72.7381Z" fill="#212830"/>
<path fill-rule="evenodd" clip-rule="evenodd" d="M621.233 96.5615H648.574V97.6077H621.233V96.5615Z" fill="#212830"/>
<path fill-rule="evenodd" clip-rule="evenodd" d="M621.233 88.8694H648.574V89.9155H621.233V88.8694Z" fill="#212830"/>
<path fill-rule="evenodd" clip-rule="evenodd" d="M621.233 110.23H648.574V111.276H621.233V110.23Z" fill="#212830"/>
<path fill-rule="evenodd" clip-rule="evenodd" d="M621.233 103.395H648.574V104.441H621.233V103.395Z" fill="#212830"/>
<path fill-rule="evenodd" clip-rule="evenodd" d="M621.233 117.063H648.574V118.11H621.233V117.063Z" fill="#212830"/>
<path fill-rule="evenodd" clip-rule="evenodd" d="M649.097 47.5315V124.42H648.051V47.5315H649.097Z" fill="#212830"/>
<path fill-rule="evenodd" clip-rule="evenodd" d="M697.269 76.2483H692.144V75.2021H697.269V76.2483Z" fill="#212830"/>
<path fill-rule="evenodd" clip-rule="evenodd" d="M648.574 123.897H669.934V124.943H648.574V123.897Z" fill="#212830"/>
<path fill-rule="evenodd" clip-rule="evenodd" d="M134.26 317.834H204.838V348.782H177.833V347.735H203.792V318.88H134.26V317.834Z" fill="#212830"/>
<path fill-rule="evenodd" clip-rule="evenodd" d="M196.958 438.816V408.914H198.004V438.816H196.958Z" fill="#212830"/>
<path fill-rule="evenodd" clip-rule="evenodd" d="M190.122 438.816V408.914H191.168V438.816H190.122Z" fill="#212830"/>
<path fill-rule="evenodd" clip-rule="evenodd" d="M182.432 438.816V408.914H183.478V438.816H182.432Z" fill="#212830"/>
<path fill-rule="evenodd" clip-rule="evenodd" d="M175.598 438.816V408.914H176.644V438.816H175.598Z" fill="#212830"/>
<path fill-rule="evenodd" clip-rule="evenodd" d="M168.764 438.816V408.914H169.811V438.816H168.764Z" fill="#212830"/>
<path fill-rule="evenodd" clip-rule="evenodd" d="M161.93 438.816V408.914H162.976V438.816H161.93Z" fill="#212830"/>
<path fill-rule="evenodd" clip-rule="evenodd" d="M155.096 438.816V408.914H156.143V438.816H155.096Z" fill="#212830"/>
<path fill-rule="evenodd" clip-rule="evenodd" d="M140.57 438.816V408.914H141.617V438.816H140.57Z" fill="#212830"/>
<path fill-rule="evenodd" clip-rule="evenodd" d="M133.737 438.816V408.914H134.783V438.816H133.737Z" fill="#212830"/>
<path fill-rule="evenodd" clip-rule="evenodd" d="M204.838 318.357V348.259H203.792V318.357H204.838Z" fill="#212830"/>
<path fill-rule="evenodd" clip-rule="evenodd" d="M198.004 318.357V348.259H196.958V318.357H198.004Z" fill="#212830"/>
<path fill-rule="evenodd" clip-rule="evenodd" d="M191.168 318.357V348.259H190.122V318.357H191.168Z" fill="#212830"/>
<path fill-rule="evenodd" clip-rule="evenodd" d="M183.478 318.357V348.259H182.432V318.357H183.478Z" fill="#212830"/>
<path fill-rule="evenodd" clip-rule="evenodd" d="M176.644 318.357V345.695H175.598V318.357H176.644Z" fill="#212830"/>
<path fill-rule="evenodd" clip-rule="evenodd" d="M169.811 338.861V348.259H168.764V338.861H169.811Z" fill="#212830"/>
<path fill-rule="evenodd" clip-rule="evenodd" d="M169.811 318.357V335.441H168.764V318.357H169.811Z" fill="#212830"/>
<path fill-rule="evenodd" clip-rule="evenodd" d="M162.976 328.605V348.259H161.93V328.605H162.976Z" fill="#212830"/>
<path fill-rule="evenodd" clip-rule="evenodd" d="M156.143 318.357V348.259H155.096V318.357H156.143Z" fill="#212830"/>
<path fill-rule="evenodd" clip-rule="evenodd" d="M149.307 318.357V348.259H148.261V318.357H149.307Z" fill="#212830"/>
<path fill-rule="evenodd" clip-rule="evenodd" d="M141.617 318.357V348.259H140.57V318.357H141.617Z" fill="#212830"/>
<path fill-rule="evenodd" clip-rule="evenodd" d="M134.783 318.357V348.259H133.737V318.357H134.783Z" fill="#212830"/>
<path fill-rule="evenodd" clip-rule="evenodd" d="M178.685 348.782H177.833V347.736H204.838V355.616H201.234V353.712H202.94V349.638H178.685V348.782Z" fill="#212830"/>
<path fill-rule="evenodd" clip-rule="evenodd" d="M133.737 347.736H176.121V348.592H176.977V349.638H135.639V354.758H133.737V347.736Z" fill="#212830"/>
<path fill-rule="evenodd" clip-rule="evenodd" d="M201.233 401.557H204.838V409.437H133.737V402.413H135.639V407.54H202.94V403.459H201.233V401.557Z" fill="#212830"/>
<path fill-rule="evenodd" clip-rule="evenodd" d="M156.049 318.059L177.407 348.816L176.547 349.413L155.19 318.656L156.049 318.059Z" fill="#212830"/>
<path fill-rule="evenodd" clip-rule="evenodd" d="M157.756 318.059L179.115 348.816L178.256 349.413L156.896 318.656L157.756 318.059Z" fill="#212830"/>
<path fill-rule="evenodd" clip-rule="evenodd" d="M203.792 438.816V408.914H204.838V438.816H203.792Z" fill="#212830"/>
<path fill-rule="evenodd" clip-rule="evenodd" d="M196.958 438.816V408.914H198.004V438.816H196.958Z" fill="#212830"/>
<path fill-rule="evenodd" clip-rule="evenodd" d="M190.122 438.816V408.914H191.168V438.816H190.122Z" fill="#212830"/>
<path fill-rule="evenodd" clip-rule="evenodd" d="M182.432 438.816V408.914H183.478V438.816H182.432Z" fill="#212830"/>
<path fill-rule="evenodd" clip-rule="evenodd" d="M175.598 438.815V411.478H176.644V438.815H175.598Z" fill="#212830"/>
<path fill-rule="evenodd" clip-rule="evenodd" d="M168.764 418.312V408.914H169.811V418.312H168.764Z" fill="#212830"/>
<path fill-rule="evenodd" clip-rule="evenodd" d="M168.764 438.816V421.732H169.811V438.816H168.764Z" fill="#212830"/>
<path fill-rule="evenodd" clip-rule="evenodd" d="M148.261 438.816V408.914H149.307V438.816H148.261Z" fill="#212830"/>
<path fill-rule="evenodd" clip-rule="evenodd" d="M201.234 401.557H204.838V409.437H177.833V408.391H178.685V407.54H202.94V403.459H201.234V401.557Z" fill="#212830"/>
<path fill-rule="evenodd" clip-rule="evenodd" d="M204.315 439.339H104.36V438.292H204.315V439.339Z" fill="#212830"/>
<path fill-rule="evenodd" clip-rule="evenodd" d="M203.792 440.528V438.816H204.838V440.528H203.792Z" fill="#212830"/>
<path fill-rule="evenodd" clip-rule="evenodd" d="M204.315 318.88H104.36V317.834H204.315V318.88Z" fill="#212830"/>
<path fill-rule="evenodd" clip-rule="evenodd" d="M162.976 318.357V325.191H161.93V318.357H162.976Z" fill="#212830"/>
<path fill-rule="evenodd" clip-rule="evenodd" d="M375.519 478.446H423.553V481.204H375.519V478.446ZM376.565 479.492V480.157H422.507V479.492H376.565Z" fill="#3F00FF"/>
<path fill-rule="evenodd" clip-rule="evenodd" d="M376.369 478.446H378.271V481.204H376.369V478.446Z" fill="#3F00FF"/>
<path fill-rule="evenodd" clip-rule="evenodd" d="M399.435 478.446H401.339V481.204H399.435V478.446Z" fill="#3F00FF"/>
<path fill-rule="evenodd" clip-rule="evenodd" d="M397.729 478.446H400.481V481.204H397.729V478.446ZM398.775 479.492V480.157H399.435V479.492H398.775Z" fill="#3F00FF"/>
<path fill-rule="evenodd" clip-rule="evenodd" d="M296.916 478.446H344.096V481.204H296.916V478.446ZM297.962 479.492V480.157H343.05V479.492H297.962Z" fill="#3F00FF"/>
<path d="M297.016 480.33H298.294V481.032H297.016L296.493 480.681L297.016 480.33ZM297.016 481.032H296.493V480.681L297.016 481.032ZM297.539 478.969V480.681H296.493V478.969L297.016 478.618L297.539 478.969ZM296.493 478.969V478.618H297.016L296.493 478.969ZM298.294 479.32H297.016V478.618H298.294L298.817 478.969L298.294 479.32ZM298.294 478.618H298.817V478.969L298.294 478.618ZM297.771 480.681V478.969H298.817V480.681L298.294 481.032L297.771 480.681ZM298.817 480.681V481.032H298.294L298.817 480.681Z" fill="#3F00FF"/>
<path fill-rule="evenodd" clip-rule="evenodd" d="M342.197 478.446H344.096V481.204H342.197V478.446Z" fill="#3F00FF"/>
<path fill-rule="evenodd" clip-rule="evenodd" d="M319.984 478.446H321.886V481.204H319.984V478.446Z" fill="#3F00FF"/>
<path fill-rule="evenodd" clip-rule="evenodd" d="M319.126 478.446H321.03V481.204H319.126V478.446Z" fill="#3F00FF"/>
<path fill-rule="evenodd" clip-rule="evenodd" d="M454.97 478.446H503.005V481.204H454.97V478.446ZM456.016 479.492V480.157H501.959V479.492H456.016Z" fill="#3F00FF"/>
<path fill-rule="evenodd" clip-rule="evenodd" d="M500.251 478.446H503.005V481.204H500.251V478.446ZM501.297 479.492V480.157H501.959V479.492H501.297Z" fill="#3F00FF"/>
<path fill-rule="evenodd" clip-rule="evenodd" d="M478.037 478.446H480.79V481.204H478.037V478.446ZM479.084 479.492V480.157H479.743V479.492H479.084Z" fill="#3F00FF"/>
<path fill-rule="evenodd" clip-rule="evenodd" d="M477.18 478.446H479.084V481.204H477.18V478.446Z" fill="#3F00FF"/>
<path fill-rule="evenodd" clip-rule="evenodd" d="M535.278 446.838H593.562V450.448H535.278V446.838ZM536.324 447.885V449.402H592.516V447.885H536.324Z" fill="#3F00FF"/>
<path fill-rule="evenodd" clip-rule="evenodd" d="M535.278 446.838H537.177V450.448H535.278V446.838Z" fill="#3F00FF"/>
<path fill-rule="evenodd" clip-rule="evenodd" d="M591.666 446.838H593.562V450.448H591.666V446.838Z" fill="#3F00FF"/>
<path fill-rule="evenodd" clip-rule="evenodd" d="M563.472 446.838H566.227V450.448H563.472V446.838ZM564.518 447.885V449.402H565.18V447.885H564.518Z" fill="#3F00FF"/>
<path fill-rule="evenodd" clip-rule="evenodd" d="M562.616 446.838H564.518V450.448H562.616V446.838Z" fill="#3F00FF"/>
<path fill-rule="evenodd" clip-rule="evenodd" d="M624.986 446.838H683.269V450.448H624.986V446.838ZM626.032 447.885V449.402H682.223V447.885H626.032Z" fill="#3F00FF"/>
<path fill-rule="evenodd" clip-rule="evenodd" d="M680.514 446.838H683.269V450.448H680.514V446.838ZM681.56 447.885V449.402H682.222V447.885H681.56Z" fill="#3F00FF"/>
<path fill-rule="evenodd" clip-rule="evenodd" d="M652.323 446.838H654.225V450.448H652.323V446.838Z" fill="#3F00FF"/>
<path fill-rule="evenodd" clip-rule="evenodd" d="M653.179 446.838H655.931V450.448H653.179V446.838ZM654.225 447.885V449.402H654.885V447.885H654.225Z" fill="#3F00FF"/>
<path fill-rule="evenodd" clip-rule="evenodd" d="M206.354 446.838H263.787V450.448H206.354V446.838ZM207.4 447.885V449.402H262.741V447.885H207.4Z" fill="#3F00FF"/>
<path fill-rule="evenodd" clip-rule="evenodd" d="M261.891 446.838H263.787V450.448H261.891V446.838Z" fill="#3F00FF"/>
<path d="M207.731 450.239H206.295V449.612H207.731L208.254 449.926L207.731 450.239ZM208.254 449.926V450.239H207.731L208.254 449.926ZM208.254 447.362V449.926H207.207V447.362L207.731 447.048L208.254 447.362ZM207.731 447.048H208.254V447.362L207.731 447.048ZM206.295 447.048H207.731V447.676H206.295L205.772 447.362L206.295 447.048ZM205.772 447.362V447.048H206.295L205.772 447.362ZM205.772 449.926V447.362H206.818V449.926L206.295 450.239L205.772 449.926ZM206.295 450.239H205.772V449.926L206.295 450.239Z" fill="#3F00FF"/>
<path fill-rule="evenodd" clip-rule="evenodd" d="M233.697 446.838H235.594V450.448H233.697V446.838Z" fill="#3F00FF"/>
<path fill-rule="evenodd" clip-rule="evenodd" d="M234.547 446.838H236.449V450.448H234.547V446.838Z" fill="#3F00FF"/>
<path d="M117.173 446.844H174.229V447.88H117.173L116.65 447.362L117.173 446.844ZM116.65 447.362V446.844H117.173L116.65 447.362ZM116.65 449.926V447.362H117.696V449.926L117.173 450.444L116.65 449.926ZM117.173 450.444H116.65V449.926L117.173 450.444ZM174.229 450.444H117.173V449.408H174.229L174.752 449.926L174.229 450.444ZM174.752 449.926V450.444H174.229L174.752 449.926ZM174.752 447.362V449.926H173.706V447.362L174.229 446.844L174.752 447.362ZM174.229 446.844H174.752V447.362L174.229 446.844Z" fill="#3F00FF"/>
<path fill-rule="evenodd" clip-rule="evenodd" d="M116.649 446.838H118.551V450.448H116.649V446.838Z" fill="#3F00FF"/>
<path fill-rule="evenodd" clip-rule="evenodd" d="M144.84 446.838H146.744V450.448H144.84V446.838Z" fill="#3F00FF"/>
<path fill-rule="evenodd" clip-rule="evenodd" d="M143.991 446.838H145.887V450.448H143.991V446.838Z" fill="#3F00FF"/>
<path fill-rule="evenodd" clip-rule="evenodd" d="M92.7318 154.655H96.336V212.942H92.7318V154.655ZM93.778 155.701V211.896H95.2898V155.701H93.778Z" fill="#3F00FF"/>
<path fill-rule="evenodd" clip-rule="evenodd" d="M92.7318 182.846H96.336V185.601H92.7318V182.846ZM93.778 183.892V184.554H95.2898V183.892H93.778Z" fill="#3F00FF"/>
<path fill-rule="evenodd" clip-rule="evenodd" d="M92.7318 181.99H96.336V183.892H92.7318V181.99Z" fill="#3F00FF"/>
<path fill-rule="evenodd" clip-rule="evenodd" d="M92.7318 64.9482H96.336V123.238H92.7318V64.9482ZM93.778 65.9944V122.191H95.2898V65.9944H93.778Z" fill="#3F00FF"/>
<path fill-rule="evenodd" clip-rule="evenodd" d="M92.7318 64.9482H96.336V66.8506H92.7318V64.9482Z" fill="#3F00FF"/>
<path fill-rule="evenodd" clip-rule="evenodd" d="M92.7318 93.1418H96.336V95.8941H92.7318V93.1418ZM93.778 94.188V94.8479H95.2898V94.188H93.778Z" fill="#3F00FF"/>
<path fill-rule="evenodd" clip-rule="evenodd" d="M92.7318 92.2837H96.336V94.1877H92.7318V92.2837Z" fill="#3F00FF"/>
<path fill-rule="evenodd" clip-rule="evenodd" d="M99.2324 7.70532H341.865V8.75147H99.2324V7.70532Z" fill="#FFBF7F"/>
<path fill-rule="evenodd" clip-rule="evenodd" d="M341.865 8.75147H99.2324V7.70532H341.865V8.75147Z" fill="#FFBF7F"/>
<path fill-rule="evenodd" clip-rule="evenodd" d="M99.2324 6.85522H341.865V7.90137H99.2324V6.85522Z" fill="#FFBF7F"/>
<path fill-rule="evenodd" clip-rule="evenodd" d="M92.7318 244.36H96.336V287.267H92.7318V244.36ZM93.778 245.406V286.221H95.2898V245.406H93.778Z" fill="#3F00FF"/>
<path fill-rule="evenodd" clip-rule="evenodd" d="M92.7318 264.864H96.336V267.616H92.7318V264.864ZM93.778 265.91V266.57H95.2898V265.91H93.778Z" fill="#3F00FF"/>
<path fill-rule="evenodd" clip-rule="evenodd" d="M92.7318 264.007H96.336V265.91H92.7318V264.007Z" fill="#3F00FF"/>
<path fill-rule="evenodd" clip-rule="evenodd" d="M273.85 464.116H117.172V463.07H274.897V498.954H524.169V463.07H682.746V464.116H525.215V500H273.85V464.116Z" fill="#3F007F"/>
<path fill-rule="evenodd" clip-rule="evenodd" d="M118.884 464.116H117.172V463.07H118.884V464.116Z" fill="#3F007F"/>
<path fill-rule="evenodd" clip-rule="evenodd" d="M684.457 464.116H682.745V463.07H684.457V464.116Z" fill="#3F007F"/>
<path fill-rule="evenodd" clip-rule="evenodd" d="M696.746 140.652V20.1895H697.792V140.652H696.746Z" fill="#212830"/>
<path fill-rule="evenodd" clip-rule="evenodd" d="M635.233 4.29102H683.269V7.90107H635.233V4.29102ZM636.28 5.33716V6.85492H682.223V5.33716H636.28Z" fill="#3F00FF"/>
<path fill-rule="evenodd" clip-rule="evenodd" d="M635.233 4.29102H637.987V7.90107H635.233V4.29102ZM636.28 5.33716V6.85492H636.941V5.33716H636.28Z" fill="#3F00FF"/>
<path fill-rule="evenodd" clip-rule="evenodd" d="M680.514 4.29102H683.269V7.90107H680.514V4.29102ZM681.56 5.33716V6.85492H682.222V5.33716H681.56Z" fill="#3F00FF"/>
<path fill-rule="evenodd" clip-rule="evenodd" d="M659.157 4.29102H661.059V7.90107H659.157V4.29102Z" fill="#3F00FF"/>
<path fill-rule="evenodd" clip-rule="evenodd" d="M657.449 4.29102H660.203V7.90107H657.449V4.29102ZM658.495 5.33716V6.85492H659.157V5.33716H658.495Z" fill="#3F00FF"/>
<path fill-rule="evenodd" clip-rule="evenodd" d="M451.55 8.56104H509.839V12.1711H451.55V8.56104ZM452.596 9.60718V11.1249H508.793V9.60718H452.596Z" fill="#3F00FF"/>
<path fill-rule="evenodd" clip-rule="evenodd" d="M451.55 8.56104H453.454V12.1711H451.55V8.56104Z" fill="#3F00FF"/>
<path fill-rule="evenodd" clip-rule="evenodd" d="M479.744 8.56104H481.646V12.1711H479.744V8.56104Z" fill="#3F00FF"/>
<path fill-rule="evenodd" clip-rule="evenodd" d="M478.037 8.56104H480.79V12.1711H478.037V8.56104ZM479.084 9.60718V11.1249H479.743V9.60718H479.084Z" fill="#3F00FF"/>
<path fill-rule="evenodd" clip-rule="evenodd" d="M541.256 8.56104H599.546V12.1711H541.256V8.56104ZM542.302 9.60718V11.1249H598.5V9.60718H542.302Z" fill="#3F00FF"/>
<path fill-rule="evenodd" clip-rule="evenodd" d="M569.45 8.56104H571.352V12.1711H569.45V8.56104Z" fill="#3F00FF"/>
<path fill-rule="evenodd" clip-rule="evenodd" d="M570.306 8.56104H572.204V12.1711H570.306V8.56104Z" fill="#3F00FF"/>
<path fill-rule="evenodd" clip-rule="evenodd" d="M342.388 8.56129V0.544434H341.342V9.60744H346.66V0.544434H345.614V8.56129H342.388Z" fill="#FF7FFF"/>
<path fill-rule="evenodd" clip-rule="evenodd" d="M94.4393 0.544434H95.4855V10.2695H98.7093V0.544434H99.7554V11.3156H94.4393V0.544434Z" fill="#FF7FFF"/>
<path fill-rule="evenodd" clip-rule="evenodd" d="M442.154 185.078V182.513H443.2V185.078H442.154Z" fill="#A52900"/>
<path d="M216.276 141.17H103.022V140.134H216.276L216.799 140.652L216.276 141.17ZM216.276 140.134H216.799V140.652L216.276 140.134ZM215.753 147.486V140.652H216.799V147.486H215.753Z" fill="#0000FF"/>
<path d="M214.567 142.878H103.443V141.842H214.567V142.878Z" fill="#0000FF"/>
<path fill-rule="evenodd" clip-rule="evenodd" d="M216.275 148.01H214.569V146.964H216.275V148.01Z" fill="#0000FF"/>
<path fill-rule="evenodd" clip-rule="evenodd" d="M216.275 168.512H214.569V167.466H216.275V168.512Z" fill="#0000FF"/>
<path fill-rule="evenodd" clip-rule="evenodd" d="M214.046 147.486V142.36H215.092V147.486H214.046Z" fill="#0000FF"/>
<path fill-rule="evenodd" clip-rule="evenodd" d="M214.046 228.65V167.99H215.092V228.65H214.046Z" fill="#0000FF"/>
<path fill-rule="evenodd" clip-rule="evenodd" d="M215.751 228.65V167.99H216.797V228.65H215.751Z" fill="#0000FF"/>
<path fill-rule="evenodd" clip-rule="evenodd" d="M506.229 414.042V383.284H507.275V414.042H506.229Z" fill="#0000FF"/>
<path d="M506.318 440.53V435.404H507.186V440.53H506.318Z" fill="#0000FF"/>
<path fill-rule="evenodd" clip-rule="evenodd" d="M507.937 414.042V383.284H508.983V414.042H507.937Z" fill="#0000FF"/>
<path d="M508.026 440.53V435.404H508.895V440.53H508.026Z" fill="#0000FF"/>
<path fill-rule="evenodd" clip-rule="evenodd" d="M618.585 414.042V383.284H619.631V414.042H618.585Z" fill="#0000FF"/>
<path d="M618.69 439.669V435.399H619.527V439.669H618.69Z" fill="#0000FF"/>
<path fill-rule="evenodd" clip-rule="evenodd" d="M621.116 414.042V383.284H622.162V414.042H621.116Z" fill="#0000FF"/>
<path d="M620.374 439.669V435.399H621.211V439.669H620.374Z" fill="#0000FF"/>
<path fill-rule="evenodd" clip-rule="evenodd" d="M508.461 435.924H506.752V434.878H508.461V435.924Z" fill="#0000FF"/>
<path fill-rule="evenodd" clip-rule="evenodd" d="M508.461 414.565H506.752V413.519H508.461V414.565Z" fill="#0000FF"/>
<path d="M620.79 435.715H619.25V435.13H620.79V435.715Z" fill="#0000FF"/>
<path d="M621.373 414.24H619.112V413.843H621.373V414.24Z" fill="#0000FF"/>
<path fill-rule="evenodd" clip-rule="evenodd" d="M216.275 148.01H214.569V146.964H216.275V148.01Z" fill="#0000FF"/>
<path fill-rule="evenodd" clip-rule="evenodd" d="M442.677 183.036H364.08V181.99H442.677V183.036Z" fill="#0000FF"/>
<path fill-rule="evenodd" clip-rule="evenodd" d="M442.677 185.601H364.08V184.555H442.677V185.601Z" fill="#0000FF"/>
<path fill-rule="evenodd" clip-rule="evenodd" d="M440.447 181.99H443.2V185.6H440.447V181.99ZM441.493 183.036V184.554H442.154V183.036H441.493Z" fill="#0000FF"/>
<path fill-rule="evenodd" clip-rule="evenodd" d="M274.703 341.751H278.311V364.155H274.703V341.751ZM275.749 342.798V363.109H277.265V342.798H275.749Z" fill="#3F00FF"/>
<path fill-rule="evenodd" clip-rule="evenodd" d="M274.703 362.26H278.311V364.156H274.703V362.26Z" fill="#3F00FF"/>
<path fill-rule="evenodd" clip-rule="evenodd" d="M274.703 340.899H278.311V342.798H274.703V340.899Z" fill="#3F00FF"/>
<path fill-rule="evenodd" clip-rule="evenodd" d="M274.703 319.542H278.311V342.798H274.703V319.542ZM275.749 320.589V341.752H277.265V320.589H275.749Z" fill="#3F00FF"/>
<path fill-rule="evenodd" clip-rule="evenodd" d="M274.703 318.686H278.311V320.588H274.703V318.686Z" fill="#3F00FF"/>
<path fill-rule="evenodd" clip-rule="evenodd" d="M274.703 341.751H278.311V343.654H274.703V341.751Z" fill="#3F00FF"/>
<path fill-rule="evenodd" clip-rule="evenodd" d="M274.703 393.867H278.311V416.271H274.703V393.867ZM275.749 394.913V415.225H277.265V394.913H275.749Z" fill="#3F00FF"/>
<path fill-rule="evenodd" clip-rule="evenodd" d="M274.703 393.867H278.311V395.769H274.703V393.867Z" fill="#3F00FF"/>
<path fill-rule="evenodd" clip-rule="evenodd" d="M274.703 415.225H278.311V417.985H274.703V415.225ZM275.749 416.271V416.939H277.265V416.271H275.749Z" fill="#3F00FF"/>
<path fill-rule="evenodd" clip-rule="evenodd" d="M274.703 415.225H278.311V438.487H274.703V415.225ZM275.749 416.271V437.441H277.265V416.271H275.749Z" fill="#3F00FF"/>
<path fill-rule="evenodd" clip-rule="evenodd" d="M274.703 414.375H278.311V416.271H274.703V414.375Z" fill="#3F00FF"/>
<path fill-rule="evenodd" clip-rule="evenodd" d="M274.703 393.015H278.311V394.913H274.703V393.015Z" fill="#00FFFF"/>
<path fill-rule="evenodd" clip-rule="evenodd" d="M265.369 376.703L266.276 376.182L277.005 394.062H274.916L265.369 376.703Z" fill="#00FFFF"/>
<path fill-rule="evenodd" clip-rule="evenodd" d="M265.69 376.801L275.088 374.24L275.363 375.249L265.965 377.811L265.69 376.801Z" fill="#FF0000"/>
<path fill-rule="evenodd" clip-rule="evenodd" d="M274.703 363.11H278.311V364.706L277.156 365.87H275.559V365.014H274.703V363.11ZM276.72 364.824H276.605V364.156H277.265V364.275L276.72 364.824Z" fill="#00FFFF"/>
<path fill-rule="evenodd" clip-rule="evenodd" d="M275.083 363.607L276.755 365.28L266.736 380.294L275.083 363.607ZM275.369 365.374L275.172 365.767L275.409 365.413L275.369 365.374Z" fill="#00FFFF"/>
<path fill-rule="evenodd" clip-rule="evenodd" d="M275.124 373.544L270.852 372.694L271.056 371.668L275.328 372.518L275.124 373.544Z" fill="#FF0000"/>
<path fill-rule="evenodd" clip-rule="evenodd" d="M134.783 318.357V402.936H133.737V318.357H134.783Z" fill="#212830"/>
<path fill-rule="evenodd" clip-rule="evenodd" d="M104.36 374.221H134.26V375.267H104.36V374.221Z" fill="#212830"/>
<path fill-rule="evenodd" clip-rule="evenodd" d="M104.36 367.387H134.26V368.433H104.36V367.387Z" fill="#212830"/>
<path fill-rule="evenodd" clip-rule="evenodd" d="M104.36 360.552H134.26V361.598H104.36V360.552Z" fill="#212830"/>
<path fill-rule="evenodd" clip-rule="evenodd" d="M104.36 381.906H134.26V382.952H104.36V381.906Z" fill="#212830"/>
<path fill-rule="evenodd" clip-rule="evenodd" d="M104.36 388.745H134.26V389.792H104.36V388.745Z" fill="#212830"/>
<path fill-rule="evenodd" clip-rule="evenodd" d="M104.36 395.579H134.26V396.625H104.36V395.579Z" fill="#212830"/>
<path fill-rule="evenodd" clip-rule="evenodd" d="M104.36 402.413H134.26V403.459H104.36V402.413Z" fill="#212830"/>
<path fill-rule="evenodd" clip-rule="evenodd" d="M104.36 353.712H134.26V354.758H104.36V353.712Z" fill="#212830"/>
<path fill-rule="evenodd" clip-rule="evenodd" d="M103.837 402.936V354.235H104.883V402.936H103.837Z" fill="#212830"/>
<path fill-rule="evenodd" clip-rule="evenodd" d="M649.097 20.1895V47.5312H648.051V20.1895H649.097Z" fill="#212830"/>
<path fill-rule="evenodd" clip-rule="evenodd" d="M655.931 20.1895V47.5312H654.885V20.1895H655.931Z" fill="#212830"/>
<path fill-rule="evenodd" clip-rule="evenodd" d="M663.623 20.1895V47.5312H662.577V20.1895H663.623Z" fill="#212830"/>
<path fill-rule="evenodd" clip-rule="evenodd" d="M670.457 20.1895V47.5312H669.411V20.1895H670.457Z" fill="#212830"/>
<path fill-rule="evenodd" clip-rule="evenodd" d="M102.581 231.215L102.651 228.652L274.372 228.653V217.543H277.787V268.807H274.372V231.216L102.581 231.215Z" fill="#434242"/>
<path fill-rule="evenodd" clip-rule="evenodd" d="M273.849 217.02H278.31V269.33H273.849V231.739L102.044 231.738L102.142 228.129L273.849 228.13V217.02ZM274.895 218.066V229.176L103.16 229.175L103.119 230.692L274.895 230.693V268.284H277.264V218.066H274.895Z" fill="#212830"/>
<path fill-rule="evenodd" clip-rule="evenodd" d="M85.563 155.178V122.714H100.087V140.653H103.435L103.502 155.178H85.563Z" fill="#434242"/>
<path fill-rule="evenodd" clip-rule="evenodd" d="M85.0398 122.191H100.61V140.13H103.956L104.028 155.701H85.0398V122.191ZM86.0859 123.237V154.655H102.977L102.915 141.176H99.5641V123.237H86.0859Z" fill="#212830"/>
<path fill-rule="evenodd" clip-rule="evenodd" d="M85.5359 0.523193L85.5631 65.4723H100.087V20.1908H104.358V19.3401H266.683V20.1908H274.373V139.797H265.826V151.758H274.373V196.189H277.788V185.079H310.252V182.515H277.788V124.422H310.252V121.859H277.788V67.4362H296.949V64.8727H277.788V19.3401H335.886V64.8727H317.885V67.4362H335.886V121.859H330.759V124.422H335.886V151.758H334.174V182.515H330.759V185.079H343.571V182.515H338.444V19.3401H439.261V20.1908H446.946V139.797H438.404V151.758H446.946V182.515H442.675V185.079H484.536V182.515H449.509V19.3401H451.945L452.073 0.544545L85.5359 0.523193Z" fill="#434242"/>
<path fill-rule="evenodd" clip-rule="evenodd" d="M85.0123 0L452.599 0.0214132L452.464 19.863H450.031V181.992H485.059V185.602H442.152V181.992H446.423V152.281H437.881V139.274H446.423V20.7138H438.738V19.863H338.967V181.992H344.094V185.602H330.235V181.992H333.65V151.235H335.363V124.945H330.235V121.335H335.363V67.9591H317.362V64.3495H335.363V19.863H278.31V64.3495H297.472V67.9591H278.31V121.335H310.774V124.945H278.31V181.992H310.774V185.602H278.31V196.712H273.849V152.281H265.303V139.274H273.849V20.7138H266.16V19.863H104.881V20.7138H100.61V65.9953H85.04L85.0123 0ZM103.835 19.6676V18.8169H267.206V19.6676H274.895V140.32H266.349V151.235H274.895V195.666H277.264V184.555H309.728V183.038H277.264V123.899H309.728V122.381H277.264V66.913H296.426V65.3956H277.264V18.8169H336.409V65.3956H318.408V66.913H336.409V122.381H331.281V123.899H336.409V152.281H334.697V183.038H331.281V184.555H343.048V183.038H337.921V18.8169H439.784V19.6676H447.469V140.32H438.927V151.235H447.469V183.038H443.198V184.555H484.013V183.038H448.985V18.8169H451.425L451.546 1.0675L86.0589 1.04621L86.0857 64.9492H99.5641V19.6676H103.835Z" fill="#212830"/>
<path fill-rule="evenodd" clip-rule="evenodd" d="M509.315 19.34V0.544434H541.779V19.34H534.945V182.515H567.408V185.078H505.895V182.515H531.525V19.34H509.315Z" fill="#434242"/>
<path fill-rule="evenodd" clip-rule="evenodd" d="M508.792 0.0212402H542.302V19.8629H535.468V181.992H567.931V185.601H505.372V181.992H531.002V19.8629H508.792V0.0212402ZM509.838 1.06739V18.8168H532.048V183.038H506.418V184.555H566.885V183.038H534.421V18.8168H541.256V1.06739H509.838Z" fill="#212830"/>
<path fill-rule="evenodd" clip-rule="evenodd" d="M433.277 241.465V238.901H567.408V241.465H508.458V383.286H505.044V355.949H439.261V438.816H448.658V449.07H439.261L439.493 467.617H436.679L436.697 353.386H505.044V241.465H433.277Z" fill="#434242"/>
<path fill-rule="evenodd" clip-rule="evenodd" d="M432.754 238.378H567.931V241.988H508.981V383.809H504.521V356.472H439.784V438.293H449.181V449.593H439.79L440.022 468.14H436.156L436.174 352.863H504.521V241.988H432.754V238.378ZM433.8 239.424V240.941H505.567V353.909H437.22L437.202 467.094H438.963L438.731 448.547H448.135V439.339H438.738V355.426H505.567V382.763H507.935V240.941H566.885V239.424H433.8Z" fill="#212830"/>
<path fill-rule="evenodd" clip-rule="evenodd" d="M502.48 467.015V485.81H520.42V459.052H535.801V440.529H505.895V467.015H502.48Z" fill="#434242"/>
<path fill-rule="evenodd" clip-rule="evenodd" d="M505.371 440.006H536.324V459.575H520.943V486.333H501.957V466.492H505.371V440.006ZM506.418 441.052V467.538H503.003V485.287H519.897V458.529H535.278V441.052H506.418Z" fill="#212830"/>
<path fill-rule="evenodd" clip-rule="evenodd" d="M622.088 334.591L618.798 334.668L618.809 383.302L622.055 383.286L622.088 334.591Z" fill="#434242"/>
<path fill-rule="evenodd" clip-rule="evenodd" d="M622.611 334.056L622.577 383.807L618.286 383.828L618.275 334.158L622.611 334.056ZM619.321 335.18L619.332 382.776L621.532 382.766L621.564 335.127L619.321 335.18Z" fill="#212830"/>
<path fill-rule="evenodd" clip-rule="evenodd" d="M625.506 439.672H592.858L593.037 459.324H625.506V439.672Z" fill="#434242"/>
<path fill-rule="evenodd" clip-rule="evenodd" d="M592.33 439.149H626.03V459.847H592.519L592.33 439.149ZM593.386 440.195L593.556 458.8H624.983V440.195H593.386Z" fill="#212830"/>
<path fill-rule="evenodd" clip-rule="evenodd" d="M174.225 459.921V441.11H206.715V459.921H174.225Z" fill="#434242"/>
<path fill-rule="evenodd" clip-rule="evenodd" d="M173.702 440.587H207.238V460.444H173.702V440.587ZM174.748 441.633V459.397H206.192V441.633H174.748Z" fill="#212830"/>
<path fill-rule="evenodd" clip-rule="evenodd" d="M316.113 64.4937H318.015V68.1016H316.113V64.4937Z" fill="#00FFFF"/>
<path fill-rule="evenodd" clip-rule="evenodd" d="M296.851 64.4937H298.755V68.1016H296.851V64.4937Z" fill="#00FFFF"/>
<path fill-rule="evenodd" clip-rule="evenodd" d="M317.159 65.7983V67.8665L300.33 78.4941L298.711 76.8723L317.159 65.7983ZM300.397 77.0804L300.479 77.1626L304.687 74.5051L300.397 77.0804Z" fill="#00FFFF"/>
<path fill-rule="evenodd" clip-rule="evenodd" d="M299.899 77.1132L297.336 67.715L298.345 67.4397L300.909 76.8379L299.899 77.1132Z" fill="#FF0000"/>
</svg>
