<svg width="66" height="66" viewBox="0 0 66 66" fill="none" xmlns="http://www.w3.org/2000/svg">
<circle cx="33" cy="33" r="30.5" fill="#F5F7FD" fill-opacity="0.8" stroke="#1E3E87" stroke-width="5"/>
<path d="M20 37C22.2091 37 24 35.2092 24 33C24 30.7909 22.2091 29 20 29C17.7909 29 16 30.7909 16 33C16 35.2092 17.7909 37 20 37Z" fill="#1E3E87"/>
<path d="M33 37C35.2091 37 37 35.2092 37 33C37 30.7909 35.2091 29 33 29C30.7909 29 29 30.7909 29 33C29 35.2092 30.7909 37 33 37Z" fill="#1E3E87"/>
<path d="M46 37C48.2091 37 50 35.2092 50 33C50 30.7909 48.2091 29 46 29C43.7909 29 42 30.7909 42 33C42 35.2092 43.7909 37 46 37Z" fill="#1E3E87"/>
</svg>
