<svg width="20" height="20" viewBox="0 0 20 20" fill="none" xmlns="http://www.w3.org/2000/svg">
<path d="M16.7277 6.72767L15.899 7.55631L17.7504 9.40769H12.1783C11.9699 8.63401 11.3597 8.02374 10.5859 7.81537V2.24326L12.4437 4.10097L13.2723 3.27233L10 0L6.72767 3.27233L7.55631 4.10097L9.41406 2.24326V7.81537C8.64038 8.0237 8.0301 8.63398 7.82178 9.40765H2.24959L4.10097 7.55627L3.27233 6.72763L0 10L3.27233 13.2723L4.10097 12.4437L2.23681 10.5796H7.82174C8.03006 11.3533 8.64034 11.9635 9.41402 12.1719V17.7567L7.55627 15.899L6.72763 16.7276L9.99996 20L13.2723 16.7276L12.4437 15.899L10.5859 17.7567V12.1719C11.3596 11.9635 11.9699 11.3533 12.1782 10.5796H17.7631L15.899 12.4437L16.7276 13.2723L20 10L16.7277 6.72767Z" fill="#1E3E87"/>
</svg>
