<svg width="830" height="393" viewBox="0 0 830 393" fill="none" xmlns="http://www.w3.org/2000/svg">
<path d="M812.409 225.628C757.375 328.68 662.786 255.414 421.326 363.702C194.312 451.588 0 321.844 0 236C4.81545 75.4319 248.657 -78.0484 676.545 44.1751C841.423 103.187 848.181 134.902 812.409 225.628Z" fill="#C6FFE7"/>
<path d="M512.764 0.0144178C513.458 -0.0383506 514.155 0.0540799 514.811 0.285922C515.468 0.517763 516.07 0.884024 516.58 1.36177C517.09 1.83951 517.497 2.41846 517.775 3.06234C518.053 3.70623 518.197 4.4012 518.197 5.10373C518.197 5.80627 518.053 6.50124 517.775 7.14512C517.497 7.78901 517.09 8.36796 516.58 8.8457C516.07 9.32345 515.468 9.68971 514.811 9.92155C514.155 10.1534 513.458 10.2458 512.764 10.1931H465.173C464.479 10.2458 463.782 10.1534 463.126 9.92155C462.469 9.68971 461.867 9.32345 461.357 8.8457C460.847 8.36796 460.44 7.78901 460.162 7.14512C459.884 6.50124 459.74 5.80627 459.74 5.10373C459.74 4.4012 459.884 3.70623 460.162 3.06234C460.44 2.41846 460.847 1.83951 461.357 1.36177C461.867 0.884024 462.469 0.517763 463.126 0.285922C463.782 0.0540799 464.479 -0.0383506 465.173 0.0144178H512.764Z" fill="#00DA7E"/>
<path d="M607.205 21.2656C608.08 22.6929 608.844 24.1872 609.488 25.735L607.69 27.0325H601.98C601.137 27.0363 600.302 27.2079 599.524 27.5374C598.746 27.8669 598.04 28.348 597.446 28.9531C596.853 29.5583 596.382 30.2756 596.063 31.0642C595.744 31.8528 595.581 32.6972 595.585 33.5492V87.6718C595.578 88.9449 595.821 90.2068 596.3 91.3842C596.78 92.5615 597.487 93.6307 598.379 94.5296C599.272 95.4285 600.333 96.1391 601.5 96.6201C602.667 97.1011 603.917 97.3429 605.178 97.3314H629.416L633.441 98.6867C634.155 99.8112 709.21 123.34 709.21 123.34C714.549 125.272 716.433 130.059 717.118 135.191C717.447 138.217 717.581 141.26 717.518 144.303V155.203V157.654V165.698V169.014V173.945V179.366V183.489C717.518 185.125 717.157 186.741 716.461 188.218C716.13 188.919 715.749 189.593 715.319 190.237C715.087 190.529 714.839 190.808 714.577 191.073C714.35 191.37 714.092 191.64 713.806 191.88L712.893 192.63C712.39 192.981 711.866 193.299 711.323 193.582C710.888 193.816 710.428 194 709.952 194.129L696.677 198.368L694.279 199.118L691.652 199.954H677.149H676.236H666.187H642.234H632.242H631.357H616.826H610.059L510.138 200.156H509.91L379.869 200.934H366.594H351.863H340.443H318.66H308.154H292.824H292.395L290.597 201.136L284.544 199.32C283.946 199.137 283.364 198.905 282.803 198.628C282.576 198.535 282.364 198.409 282.175 198.253C281.636 198.018 281.128 197.718 280.662 197.359C279.592 196.613 278.632 195.72 277.807 194.706C277.527 194.426 277.278 194.117 277.065 193.783L276.722 193.322C276.508 193.056 276.326 192.766 276.179 192.457C275.847 191.92 275.57 191.35 275.352 190.756V186.546V178.213L275.494 162.094V147.677V137.902V127.492V123.427V113.421V110.768C275.55 105.485 276.416 100.242 278.064 95.2265L292.053 52.8972L301.388 24.6393C301.931 23.4569 302.581 22.3276 303.33 21.2656C305.735 16.9217 309.238 13.2992 313.48 10.7667C317.723 8.23419 322.554 6.88219 327.482 6.84828L460.349 6.04091L517.875 5.69489L548.651 5.49305C584.223 5.40655 598.24 5.43538 607.205 21.2656Z" fill="#00DA7E"/>
<path d="M375.187 186.431C375.216 186.815 375.216 187.201 375.187 187.585C375.135 191.262 374.607 194.917 373.616 198.455L371.247 199.205L368.62 200.041L290.796 200.387H288.626C287.828 197.965 287.245 195.475 286.885 192.948C286.573 190.79 286.421 188.612 286.428 186.431C286.722 174.74 291.526 163.628 299.817 155.464C308.108 147.3 319.228 142.73 330.807 142.73C342.386 142.73 353.507 147.3 361.798 155.464C370.089 163.628 374.893 174.74 375.187 186.431Z" fill="#006456"/>
<path d="M698.22 186.431C698.22 186.835 698.22 187.21 698.22 187.585C698.14 191.26 697.613 194.911 696.649 198.455L694.28 199.205L691.653 200.041L613.8 200.387H611.659C610.871 197.964 610.297 195.474 609.946 192.948C609.625 190.791 609.463 188.613 609.461 186.431C609.755 174.74 614.559 163.628 622.85 155.464C631.141 147.3 642.261 142.73 653.84 142.73C665.419 142.73 676.54 147.3 684.831 155.464C693.121 163.628 697.926 174.74 698.22 186.431Z" fill="#006456"/>
<path d="M609.944 192.947H613.769L698.188 187.584L716.602 186.43V188.276C715.95 189.675 715.021 190.923 713.872 191.945C712.723 192.967 711.379 193.74 709.922 194.216L696.618 198.454L694.249 199.204L691.622 200.04L613.769 200.386H611.657L371.046 201.395L292.822 201.77L290.566 201.136L284.543 199.348C281.719 198.503 279.212 196.819 277.348 194.515C275.485 192.211 274.351 189.394 274.094 186.43L371.16 193.091L609.944 192.947Z" fill="#006456"/>
<path d="M588.587 37.2996V174.005C588.587 177.828 587.083 181.496 584.406 184.199C581.729 186.903 578.099 188.422 574.313 188.422H573.628C566.918 188.418 560.275 187.079 554.078 184.482C547.881 181.884 542.251 178.078 537.511 173.282C532.771 168.487 529.012 162.794 526.451 156.531C523.889 150.268 522.575 143.556 522.582 136.779V37.2996C522.582 34.3527 523.739 31.5261 525.8 29.4396C527.86 27.3531 530.656 26.1771 533.573 26.1694H577.539C580.464 26.1694 583.27 27.3411 585.341 29.4276C587.412 31.5141 588.58 34.3451 588.587 37.2996Z" fill="#006456"/>
<path d="M584.877 37.2967V87.2095C584.87 89.5473 583.947 91.7871 582.31 93.4402C580.674 95.0933 578.456 96.0253 576.141 96.0329H535.031C534.367 96.045 533.705 95.9674 533.061 95.8022C531.131 95.3457 529.411 94.2418 528.182 92.6707C526.953 91.0995 526.288 89.1541 526.295 87.1518V37.2967C526.295 35.344 527.061 33.4708 528.425 32.0872C529.79 30.7037 531.642 29.9227 533.575 29.915H577.54C578.782 29.915 580.004 30.2322 581.093 30.8372C582.181 31.4421 583.1 32.3152 583.764 33.3752C584.483 34.5551 584.868 35.9114 584.877 37.2967Z" fill="#669898"/>
<path opacity="0.3" d="M582.365 36.9828L560.496 93.5275H543.139L566.749 32.4269H577.569C578.397 32.4203 579.212 32.6291 579.937 33.0331C580.662 33.4371 581.272 34.0227 581.708 34.7337C582.1 35.4205 582.325 36.1912 582.365 36.9828Z" fill="white"/>
<path opacity="0.3" d="M564.466 32.4268L540.856 93.5274H535.146H534.09L557.414 32.4268H564.466Z" fill="white"/>
<path d="M279.861 178.212C281.754 178.212 283.569 178.972 284.907 180.324C286.246 181.676 286.998 183.509 286.998 185.421C286.998 187.333 286.246 189.166 284.907 190.518C283.569 191.87 281.754 192.63 279.861 192.63H274.465C274.877 191.818 275.092 190.918 275.093 190.006V180.952C275.092 180.039 274.877 179.14 274.465 178.328L279.861 178.212Z" fill="#669898"/>
<path d="M275.093 180.952V190.035C275.092 190.947 274.877 191.846 274.465 192.659H273.98C272.56 192.667 271.17 192.243 269.992 191.444C268.813 190.644 267.899 189.505 267.37 188.174C266.841 186.844 266.719 185.383 267.022 183.982C267.325 182.581 268.039 181.304 269.069 180.317C269.721 179.648 270.498 179.116 271.357 178.755C272.215 178.393 273.136 178.209 274.065 178.212H274.551C274.951 179.067 275.137 180.008 275.093 180.952Z" fill="#669898"/>
<path d="M266.9 185.364C266.915 187.253 267.667 189.06 268.992 190.394C270.317 191.727 272.11 192.479 273.98 192.486H274.465C273.88 193.578 273.008 194.487 271.946 195.112C270.883 195.738 269.671 196.056 268.442 196.033C263.703 196.033 261.219 190.526 261.219 185.076C261.219 179.626 263.56 174.58 268.442 174.58C270.183 174.562 271.866 175.211 273.152 176.397C273.693 176.896 274.138 177.493 274.465 178.155H273.98C273.061 178.171 272.154 178.37 271.311 178.741C270.468 179.112 269.706 179.648 269.07 180.318C268.395 180.972 267.855 181.755 267.483 182.621C267.11 183.487 266.912 184.42 266.9 185.364Z" fill="#006456"/>
<path d="M548.677 109.788C548.677 110.828 548.268 111.825 547.54 112.561C546.812 113.296 545.825 113.709 544.795 113.709H535.773C534.744 113.709 533.756 113.296 533.028 112.561C532.3 111.825 531.891 110.828 531.891 109.788C531.92 108.768 532.342 107.8 533.067 107.089C533.792 106.378 534.763 105.981 535.773 105.982H544.795C545.807 105.974 546.782 106.369 547.509 107.081C548.235 107.793 548.655 108.765 548.677 109.788Z" fill="#00DA7E"/>
<path d="M534.973 109.73C534.973 110.566 538.884 111.229 543.737 111.229C548.591 111.229 552.53 110.566 552.53 109.73C552.53 108.894 548.591 108.23 543.737 108.23C538.884 108.23 534.973 108.865 534.973 109.73Z" fill="white"/>
<path d="M607.232 21.2651H303.328C305.739 16.9251 309.242 13.3058 313.484 10.7739C317.725 8.24204 322.554 6.88756 327.481 6.84775L548.678 5.55019C584.193 5.40602 598.267 5.46369 607.232 21.2651Z" fill="#006456"/>
<path d="M595.613 87.6421V33.606C595.613 31.8903 596.286 30.2444 597.485 29.0286C598.683 27.8127 600.31 27.1258 602.008 27.1182H607.718C617.014 49.8228 624.285 73.3202 629.444 97.3306H605.149C603.893 97.3268 602.65 97.0732 601.491 96.5842C600.332 96.0953 599.28 95.3806 598.394 94.4809C597.509 93.5813 596.808 92.5143 596.33 91.3409C595.853 90.1675 595.61 88.9106 595.613 87.6421Z" fill="#669898"/>
<path d="M605.15 95.9179H629.131C629.131 95.9179 632.386 97.9652 633.442 98.5995H631.129H605.15C602.26 98.5919 599.49 97.429 597.447 95.365C595.403 93.3009 594.252 90.5037 594.244 87.5847V33.5774C594.244 31.4973 595.062 29.5024 596.519 28.0315C597.975 26.5607 599.95 25.7344 602.009 25.7344H609.461C609.138 26.6754 608.747 27.591 608.29 28.4737H602.009C600.672 28.4812 599.391 29.0214 598.445 29.9769C597.499 30.9324 596.964 32.2261 596.956 33.5774V87.6424C596.956 89.8372 597.82 91.9421 599.356 93.4941C600.893 95.046 602.977 95.9179 605.15 95.9179Z" fill="#006456"/>
<path d="M691.165 143.898C691.172 146.233 692.096 148.47 693.734 150.119C695.371 151.767 697.589 152.693 699.901 152.693H712.919V144.244C712.982 141.202 712.849 138.158 712.519 135.133H699.901C698.752 135.109 697.61 135.32 696.544 135.751C695.477 136.183 694.508 136.827 693.692 137.644C692.877 138.462 692.234 139.438 691.799 140.512C691.365 141.586 691.149 142.738 691.165 143.898Z" fill="white"/>
<path d="M284.515 131.529C287.035 131.722 289.389 132.869 291.107 134.74C292.825 136.611 293.78 139.069 293.78 141.621C293.78 144.174 292.825 146.631 291.107 148.503C289.389 150.374 287.035 151.521 284.515 151.714H275.579C271.183 148.83 271.497 133.663 275.779 131.529H284.515Z" fill="#006456"/>
<path d="M718.403 176.771C718.395 175.861 718.6 174.962 719.002 174.147H720.858C722.751 174.147 724.566 174.906 725.905 176.258C727.243 177.61 727.995 179.444 727.995 181.356C727.995 183.267 727.243 185.101 725.905 186.453C724.566 187.805 722.751 188.564 720.858 188.564H719.002C718.6 187.75 718.395 186.851 718.403 185.94V176.771Z" fill="#669898"/>
<path d="M731.219 181.097C731.219 186.546 728.935 192.054 724.538 192.054C723.373 192.056 722.232 191.721 721.25 191.087C720.268 190.453 719.487 189.548 719 188.478H720.856C722.749 188.478 724.564 187.719 725.902 186.367C727.241 185.015 727.993 183.181 727.993 181.27C727.993 179.358 727.241 177.524 725.902 176.172C724.564 174.82 722.749 174.061 720.856 174.061H719C719.276 173.411 719.662 172.816 720.142 172.302C721.293 171.139 722.854 170.486 724.481 170.485C729.049 170.601 731.219 175.82 731.219 181.097Z" fill="#006456"/>
<path d="M718.401 185.855C718.393 186.766 718.599 187.665 719.001 188.479H709.094C707.201 188.479 705.386 187.72 704.047 186.368C702.709 185.016 701.957 183.183 701.957 181.271C701.957 179.359 702.709 177.525 704.047 176.173C705.386 174.821 707.201 174.062 709.094 174.062H719.001C718.599 174.877 718.393 175.776 718.401 176.686V185.855Z" fill="#669898"/>
<path d="M705.27 157.279C705.32 157.766 705.558 158.214 705.931 158.526C706.305 158.839 706.785 158.991 707.268 158.951H717.603V155.606H707.297C706.808 155.558 706.321 155.707 705.941 156.02C705.562 156.333 705.32 156.786 705.27 157.279Z" fill="#3C3C3B"/>
<path d="M705.27 162.18C705.32 162.667 705.558 163.115 705.931 163.428C706.305 163.74 706.785 163.893 707.268 163.852H717.631V160.507H707.268C706.785 160.467 706.305 160.619 705.931 160.932C705.558 161.245 705.32 161.693 705.27 162.18Z" fill="#3C3C3B"/>
<path d="M705.27 167.083C705.32 167.57 705.558 168.018 705.931 168.33C706.305 168.643 706.785 168.796 707.268 168.755H717.66V165.41H707.297C706.808 165.362 706.321 165.511 705.941 165.824C705.562 166.137 705.32 166.59 705.27 167.083Z" fill="#3C3C3B"/>
<path d="M310.41 191.476C310.405 195.556 311.598 199.546 313.838 202.941C316.079 206.336 319.267 208.983 322.998 210.547C326.729 212.111 330.836 212.522 334.798 211.727C338.76 210.932 342.4 208.968 345.256 206.083C348.113 203.198 350.058 199.522 350.844 195.52C351.631 191.518 351.224 187.37 349.676 183.602C348.127 179.834 345.507 176.614 342.145 174.351C338.784 172.088 334.834 170.883 330.794 170.888C325.39 170.896 320.21 173.067 316.389 176.927C312.568 180.786 310.418 186.018 310.41 191.476Z" fill="#3C3C3B"/>
<path d="M292.709 191.506C292.709 199.121 294.946 206.566 299.136 212.898C303.327 219.229 309.282 224.163 316.25 227.075C323.217 229.987 330.884 230.746 338.278 229.256C345.673 227.766 352.464 224.094 357.792 218.705C363.12 213.315 366.745 206.451 368.209 198.98C369.673 191.509 368.911 183.767 366.017 176.734C363.124 169.702 358.23 163.694 351.955 159.471C345.68 155.248 338.305 153 330.765 153.011C325.763 153.015 320.812 154.014 316.193 155.95C311.574 157.887 307.377 160.723 303.843 164.298C300.31 167.872 297.508 172.115 295.597 176.783C293.687 181.452 292.705 186.454 292.709 191.506ZM307.355 191.506C307.343 186.815 308.71 182.227 311.282 178.322C313.853 174.416 317.515 171.369 321.802 169.567C326.089 167.764 330.809 167.286 335.365 168.194C339.921 169.102 344.108 171.355 347.395 174.668C350.683 177.98 352.924 182.203 353.834 186.803C354.744 191.402 354.283 196.171 352.508 200.505C350.734 204.839 347.726 208.544 343.865 211.151C340.005 213.758 335.466 215.15 330.822 215.15C327.744 215.154 324.695 214.545 321.85 213.359C319.005 212.173 316.419 210.432 314.24 208.237C312.061 206.041 310.331 203.433 309.15 200.563C307.968 197.692 307.358 194.614 307.355 191.506Z" fill="#3C3C3B"/>
<path d="M303.813 191.506C303.818 196.895 305.406 202.161 308.375 206.639C311.344 211.117 315.561 214.605 320.493 216.662C325.425 218.719 330.85 219.253 336.083 218.196C341.315 217.139 346.119 214.539 349.888 210.724C353.657 206.909 356.222 202.051 357.257 196.764C358.293 191.478 357.753 185.999 355.705 181.023C353.658 176.046 350.196 171.794 345.756 168.804C341.316 165.815 336.099 164.222 330.763 164.228C323.61 164.243 316.755 167.124 311.703 172.238C306.65 177.352 303.812 184.281 303.813 191.506ZM306.667 191.506C306.662 186.697 308.068 181.994 310.709 177.993C313.351 173.992 317.107 170.872 321.504 169.028C325.902 167.184 330.741 166.698 335.412 167.633C340.082 168.567 344.373 170.88 347.742 174.279C351.11 177.677 353.405 182.008 354.336 186.724C355.267 191.44 354.792 196.329 352.972 200.772C351.151 205.216 348.066 209.014 344.108 211.686C340.15 214.358 335.495 215.784 330.734 215.784C324.369 215.769 318.269 213.204 313.773 208.653C309.278 204.101 306.753 197.935 306.753 191.506H306.667Z" fill="#DADADA"/>
<path d="M314.264 191.477C314.258 194.787 315.225 198.024 317.042 200.779C318.86 203.533 321.445 205.682 324.472 206.951C327.499 208.22 330.831 208.554 334.045 207.909C337.26 207.265 340.213 205.672 342.531 203.331C344.848 200.99 346.426 198.008 347.064 194.761C347.702 191.514 347.371 188.149 346.115 185.092C344.858 182.035 342.731 179.423 340.004 177.588C337.276 175.752 334.071 174.776 330.794 174.781C326.41 174.781 322.205 176.54 319.105 179.671C316.005 182.802 314.264 187.049 314.264 191.477ZM320.402 191.477C320.396 189.394 321.002 187.356 322.144 185.622C323.286 183.887 324.911 182.534 326.815 181.732C328.718 180.931 330.814 180.719 332.837 181.122C334.861 181.525 336.72 182.525 338.18 183.995C339.64 185.466 340.636 187.341 341.04 189.384C341.444 191.426 341.24 193.544 340.452 195.469C339.664 197.393 338.329 199.039 336.614 200.197C334.9 201.354 332.884 201.972 330.822 201.972C328.071 201.965 325.435 200.856 323.492 198.888C321.55 196.92 320.459 194.255 320.459 191.477H320.402Z" fill="#EDEDED"/>
<path d="M320.457 191.477C320.457 193.562 321.07 195.601 322.219 197.333C323.368 199.066 325.001 200.415 326.91 201.209C328.819 202.003 330.918 202.206 332.942 201.793C334.966 201.38 336.822 200.369 338.276 198.888C339.73 197.408 340.716 195.524 341.108 193.477C341.5 191.43 341.282 189.311 340.48 187.389C339.678 185.468 338.329 183.83 336.604 182.684C334.879 181.538 332.856 180.935 330.792 180.953C328.043 180.975 325.414 182.094 323.479 184.066C321.543 186.037 320.457 188.701 320.457 191.477ZM326.881 187.469C326.672 187.677 326.408 187.818 326.12 187.874C325.833 187.931 325.535 187.9 325.265 187.786C324.995 187.672 324.764 187.479 324.602 187.233C324.439 186.987 324.353 186.698 324.353 186.402C324.353 186.107 324.439 185.817 324.602 185.571C324.764 185.325 324.995 185.133 325.265 185.019C325.535 184.905 325.833 184.874 326.12 184.93C326.408 184.987 326.672 185.128 326.881 185.335C327.149 185.628 327.293 186.015 327.282 186.414C327.271 186.813 327.107 187.191 326.823 187.469H326.881ZM331.734 185.018C331.734 185.255 331.641 185.483 331.475 185.65C331.309 185.818 331.084 185.912 330.849 185.912C330.645 185.875 330.46 185.766 330.328 185.605C330.195 185.445 330.122 185.242 330.122 185.033C330.122 184.823 330.195 184.621 330.328 184.46C330.46 184.299 330.645 184.191 330.849 184.153C331.069 184.167 331.275 184.264 331.428 184.424C331.582 184.584 331.67 184.796 331.677 185.018H331.734ZM336.93 187.44C336.723 187.652 336.459 187.797 336.17 187.857C335.881 187.916 335.582 187.888 335.309 187.775C335.037 187.662 334.804 187.47 334.64 187.223C334.475 186.976 334.388 186.685 334.388 186.388C334.388 186.09 334.475 185.8 334.64 185.553C334.804 185.305 335.037 185.113 335.309 185C335.582 184.888 335.881 184.859 336.17 184.919C336.459 184.979 336.723 185.123 336.93 185.335C337.069 185.474 337.178 185.64 337.251 185.823C337.324 186.007 337.359 186.203 337.353 186.4C337.348 186.598 337.303 186.792 337.22 186.971C337.137 187.15 337.019 187.309 336.873 187.44H336.93ZM337.244 192.342C337.017 192.342 336.799 192.251 336.638 192.089C336.478 191.927 336.387 191.707 336.387 191.477C336.387 191.248 336.478 191.028 336.638 190.865C336.799 190.703 337.017 190.612 337.244 190.612C337.474 190.612 337.695 190.702 337.86 190.864C338.025 191.025 338.121 191.245 338.129 191.477C338.152 191.61 338.144 191.746 338.106 191.875C338.068 192.004 338 192.122 337.908 192.221C337.817 192.319 337.704 192.394 337.579 192.44C337.453 192.486 337.319 192.502 337.187 192.486L337.244 192.342ZM334.732 195.37C334.94 195.162 335.204 195.021 335.492 194.965C335.779 194.908 336.077 194.939 336.347 195.053C336.617 195.167 336.848 195.359 337.01 195.606C337.173 195.852 337.259 196.141 337.259 196.437C337.259 196.732 337.173 197.022 337.01 197.268C336.848 197.514 336.617 197.706 336.347 197.82C336.077 197.934 335.779 197.965 335.492 197.909C335.204 197.852 334.94 197.711 334.732 197.504C334.456 197.218 334.302 196.835 334.302 196.437C334.302 196.038 334.456 195.655 334.732 195.37ZM329.878 197.821C329.855 197.692 329.86 197.56 329.893 197.433C329.926 197.306 329.986 197.189 330.069 197.088C330.153 196.988 330.256 196.907 330.374 196.851C330.491 196.796 330.619 196.767 330.749 196.767C330.879 196.767 331.007 196.796 331.124 196.851C331.241 196.907 331.345 196.988 331.428 197.088C331.511 197.189 331.572 197.306 331.605 197.433C331.638 197.56 331.643 197.692 331.62 197.821C331.583 198.027 331.475 198.213 331.316 198.347C331.157 198.481 330.956 198.555 330.749 198.555C330.542 198.555 330.341 198.481 330.182 198.347C330.023 198.213 329.915 198.027 329.878 197.821ZM326.795 191.362C326.795 190.57 327.027 189.797 327.462 189.138C327.897 188.48 328.515 187.966 329.238 187.662C329.962 187.358 330.758 187.277 331.527 187.429C332.296 187.581 333.003 187.96 333.559 188.518C334.115 189.075 334.495 189.787 334.652 190.562C334.808 191.338 334.734 192.143 334.438 192.876C334.142 193.609 333.637 194.237 332.989 194.68C332.34 195.124 331.575 195.364 330.792 195.37C329.762 195.37 328.772 194.963 328.036 194.235C327.299 193.507 326.874 192.517 326.852 191.477L326.795 191.362ZM324.682 195.399C324.889 195.187 325.153 195.042 325.442 194.982C325.731 194.923 326.03 194.951 326.303 195.064C326.575 195.177 326.808 195.369 326.972 195.616C327.137 195.863 327.224 196.154 327.224 196.451C327.224 196.749 327.137 197.039 326.972 197.286C326.808 197.533 326.575 197.726 326.303 197.838C326.03 197.951 325.731 197.98 325.442 197.92C325.153 197.86 324.889 197.715 324.682 197.504C324.437 197.228 324.306 196.868 324.316 196.497C324.327 196.127 324.478 195.775 324.739 195.514L324.682 195.399ZM323.483 191.362C323.491 191.13 323.587 190.91 323.752 190.748C323.917 190.587 324.138 190.497 324.368 190.497C324.595 190.497 324.813 190.588 324.974 190.75C325.134 190.912 325.225 191.132 325.225 191.362C325.248 191.491 325.243 191.623 325.21 191.75C325.177 191.876 325.116 191.994 325.033 192.094C324.95 192.195 324.846 192.276 324.729 192.331C324.612 192.387 324.484 192.416 324.354 192.416C324.224 192.416 324.096 192.387 323.979 192.331C323.861 192.276 323.758 192.195 323.674 192.094C323.591 191.994 323.531 191.876 323.498 191.75C323.465 191.623 323.46 191.491 323.483 191.362Z" fill="#DAD1D1"/>
<path d="M320.457 191.477C320.457 193.562 321.07 195.601 322.219 197.333C323.368 199.066 325.001 200.415 326.91 201.209C328.819 202.003 330.918 202.206 332.942 201.793C334.966 201.38 336.822 200.369 338.276 198.888C339.73 197.408 340.716 195.524 341.108 193.477C341.5 191.43 341.282 189.311 340.48 187.389C339.678 185.468 338.329 183.83 336.604 182.684C334.879 181.538 332.856 180.935 330.792 180.953C328.043 180.975 325.414 182.094 323.479 184.066C321.543 186.037 320.457 188.701 320.457 191.477ZM326.881 187.469C326.672 187.677 326.408 187.818 326.12 187.874C325.833 187.931 325.535 187.9 325.265 187.786C324.995 187.672 324.764 187.479 324.602 187.233C324.439 186.987 324.353 186.698 324.353 186.402C324.353 186.107 324.439 185.817 324.602 185.571C324.764 185.325 324.995 185.133 325.265 185.019C325.535 184.905 325.833 184.874 326.12 184.93C326.408 184.987 326.672 185.128 326.881 185.335C327.149 185.628 327.293 186.015 327.282 186.414C327.271 186.813 327.107 187.191 326.823 187.469H326.881ZM331.734 185.018C331.734 185.255 331.641 185.483 331.475 185.65C331.309 185.818 331.084 185.912 330.849 185.912C330.645 185.875 330.46 185.766 330.328 185.605C330.195 185.445 330.122 185.242 330.122 185.033C330.122 184.823 330.195 184.621 330.328 184.46C330.46 184.299 330.645 184.191 330.849 184.153C331.069 184.167 331.275 184.264 331.428 184.424C331.582 184.584 331.67 184.796 331.677 185.018H331.734ZM336.93 187.44C336.723 187.652 336.459 187.797 336.17 187.857C335.881 187.916 335.582 187.888 335.309 187.775C335.037 187.662 334.804 187.47 334.64 187.223C334.475 186.976 334.388 186.685 334.388 186.388C334.388 186.09 334.475 185.8 334.64 185.553C334.804 185.305 335.037 185.113 335.309 185C335.582 184.888 335.881 184.859 336.17 184.919C336.459 184.979 336.723 185.123 336.93 185.335C337.069 185.474 337.178 185.64 337.251 185.823C337.324 186.007 337.359 186.203 337.353 186.4C337.348 186.598 337.303 186.792 337.22 186.971C337.137 187.15 337.019 187.309 336.873 187.44H336.93ZM337.244 192.342C337.017 192.342 336.799 192.251 336.638 192.089C336.478 191.927 336.387 191.707 336.387 191.477C336.387 191.248 336.478 191.028 336.638 190.865C336.799 190.703 337.017 190.612 337.244 190.612C337.474 190.612 337.695 190.702 337.86 190.864C338.025 191.025 338.121 191.245 338.129 191.477C338.152 191.61 338.144 191.746 338.106 191.875C338.068 192.004 338 192.122 337.908 192.221C337.817 192.319 337.704 192.394 337.579 192.44C337.453 192.486 337.319 192.502 337.187 192.486L337.244 192.342ZM334.732 195.37C334.94 195.162 335.204 195.021 335.492 194.965C335.779 194.908 336.077 194.939 336.347 195.053C336.617 195.167 336.848 195.359 337.01 195.606C337.173 195.852 337.259 196.141 337.259 196.437C337.259 196.732 337.173 197.022 337.01 197.268C336.848 197.514 336.617 197.706 336.347 197.82C336.077 197.934 335.779 197.965 335.492 197.909C335.204 197.852 334.94 197.711 334.732 197.504C334.456 197.218 334.302 196.835 334.302 196.437C334.302 196.038 334.456 195.655 334.732 195.37ZM329.878 197.821C329.855 197.692 329.86 197.56 329.893 197.433C329.926 197.306 329.986 197.189 330.069 197.088C330.153 196.988 330.256 196.907 330.374 196.851C330.491 196.796 330.619 196.767 330.749 196.767C330.879 196.767 331.007 196.796 331.124 196.851C331.241 196.907 331.345 196.988 331.428 197.088C331.511 197.189 331.572 197.306 331.605 197.433C331.638 197.56 331.643 197.692 331.62 197.821C331.583 198.027 331.475 198.213 331.316 198.347C331.157 198.481 330.956 198.555 330.749 198.555C330.542 198.555 330.341 198.481 330.182 198.347C330.023 198.213 329.915 198.027 329.878 197.821ZM326.795 191.362C326.795 190.57 327.027 189.797 327.462 189.138C327.897 188.48 328.515 187.966 329.238 187.662C329.962 187.358 330.758 187.277 331.527 187.429C332.296 187.581 333.003 187.96 333.559 188.518C334.115 189.075 334.495 189.787 334.652 190.562C334.808 191.338 334.734 192.143 334.438 192.876C334.142 193.609 333.637 194.237 332.989 194.68C332.34 195.124 331.575 195.364 330.792 195.37C329.762 195.37 328.772 194.963 328.036 194.235C327.299 193.507 326.874 192.517 326.852 191.477L326.795 191.362ZM324.682 195.399C324.889 195.187 325.153 195.042 325.442 194.982C325.731 194.923 326.03 194.951 326.303 195.064C326.575 195.177 326.808 195.369 326.972 195.616C327.137 195.863 327.224 196.154 327.224 196.451C327.224 196.749 327.137 197.039 326.972 197.286C326.808 197.533 326.575 197.726 326.303 197.838C326.03 197.951 325.731 197.98 325.442 197.92C325.153 197.86 324.889 197.715 324.682 197.504C324.437 197.228 324.306 196.868 324.316 196.497C324.327 196.127 324.478 195.775 324.739 195.514L324.682 195.399ZM323.483 191.362C323.491 191.13 323.587 190.91 323.752 190.748C323.917 190.587 324.138 190.497 324.368 190.497C324.595 190.497 324.813 190.588 324.974 190.75C325.134 190.912 325.225 191.132 325.225 191.362C325.248 191.491 325.243 191.623 325.21 191.75C325.177 191.876 325.116 191.994 325.033 192.094C324.95 192.195 324.846 192.276 324.729 192.331C324.612 192.387 324.484 192.416 324.354 192.416C324.224 192.416 324.096 192.387 323.979 192.331C323.861 192.276 323.758 192.195 323.674 192.094C323.591 191.994 323.531 191.876 323.498 191.75C323.465 191.623 323.46 191.491 323.483 191.362Z" fill="#C6C6C6"/>
<path d="M306.754 191.506C306.76 196.314 308.177 201.012 310.826 205.006C313.475 209 317.237 212.111 321.637 213.946C326.037 215.78 330.876 216.256 335.544 215.312C340.211 214.369 344.497 212.049 347.859 208.645C351.22 205.242 353.507 200.908 354.431 196.191C355.354 191.475 354.871 186.588 353.045 182.149C351.218 177.709 348.129 173.917 344.168 171.25C340.207 168.584 335.552 167.164 330.792 167.17C327.632 167.174 324.503 167.806 321.584 169.031C318.666 170.256 316.015 172.05 313.783 174.31C311.551 176.57 309.781 179.251 308.575 182.202C307.369 185.153 306.75 188.314 306.754 191.506ZM315.518 182.568C315.138 183.107 314.567 183.477 313.923 183.6C313.279 183.724 312.613 183.591 312.064 183.231C311.719 182.952 311.461 182.578 311.32 182.155C311.178 181.733 311.16 181.278 311.267 180.844C311.374 180.411 311.601 180.018 311.922 179.711C312.243 179.405 312.645 179.198 313.079 179.114C313.513 179.031 313.962 179.075 314.372 179.241C314.782 179.407 315.136 179.689 315.393 180.052C315.65 180.416 315.798 180.846 315.82 181.291C315.842 181.737 315.738 182.18 315.518 182.568ZM330.792 174.782C334.061 174.782 337.257 175.761 339.976 177.596C342.694 179.43 344.813 182.038 346.064 185.089C347.315 188.139 347.642 191.496 347.004 194.735C346.367 197.973 344.792 200.948 342.48 203.283C340.169 205.618 337.223 207.208 334.017 207.852C330.81 208.496 327.487 208.166 324.466 206.902C321.446 205.638 318.864 203.498 317.048 200.753C315.232 198.007 314.262 194.78 314.262 191.478C314.262 187.05 316.004 182.803 319.104 179.672C322.204 176.541 326.408 174.782 330.792 174.782ZM321.971 176.051C321.541 176.407 321.014 176.621 320.461 176.664C319.907 176.707 319.354 176.578 318.875 176.294C318.397 176.01 318.016 175.584 317.785 175.074C317.554 174.564 317.483 173.995 317.582 173.443C317.681 172.891 317.946 172.384 318.34 171.989C318.734 171.594 319.239 171.33 319.786 171.234C320.333 171.138 320.896 171.214 321.399 171.451C321.902 171.689 322.321 172.077 322.599 172.562C322.973 173.109 323.117 173.784 323 174.438C322.882 175.092 322.512 175.672 321.971 176.051ZM333.047 170.947C333.083 171.27 333.051 171.597 332.954 171.906C332.856 172.215 332.695 172.5 332.481 172.742C332.266 172.984 332.004 173.178 331.711 173.31C331.417 173.443 331.099 173.512 330.778 173.512C330.456 173.512 330.139 173.443 329.845 173.31C329.552 173.178 329.289 172.984 329.075 172.742C328.861 172.5 328.7 172.215 328.602 171.906C328.504 171.597 328.472 171.27 328.508 170.947C328.472 170.625 328.504 170.298 328.602 169.989C328.7 169.679 328.861 169.394 329.075 169.152C329.289 168.91 329.552 168.717 329.845 168.584C330.139 168.452 330.456 168.383 330.778 168.383C331.099 168.383 331.417 168.452 331.711 168.584C332.004 168.717 332.266 168.91 332.481 169.152C332.695 169.394 332.856 169.679 332.954 169.989C333.051 170.298 333.083 170.625 333.047 170.947ZM342.925 174.84C342.641 175.44 342.133 175.902 341.512 176.124C340.891 176.345 340.208 176.309 339.614 176.022C339.111 175.618 338.768 175.044 338.649 174.406C338.529 173.768 338.64 173.108 338.961 172.546C339.283 171.984 339.794 171.557 340.401 171.343C341.008 171.129 341.671 171.142 342.269 171.38C342.801 171.758 343.166 172.331 343.289 172.976C343.411 173.621 343.281 174.29 342.925 174.84ZM349.549 183.173C349.012 183.533 348.357 183.669 347.723 183.55C347.089 183.432 346.525 183.069 346.151 182.539C345.808 182.108 345.604 181.582 345.565 181.031C345.526 180.479 345.655 179.929 345.935 179.454C346.215 178.979 346.632 178.601 347.13 178.372C347.628 178.143 348.183 178.073 348.722 178.172C349.26 178.271 349.756 178.534 350.142 178.925C350.529 179.317 350.787 179.818 350.884 180.363C350.98 180.907 350.909 181.468 350.681 181.97C350.452 182.472 350.077 182.892 349.606 183.173H349.549ZM351.119 193.755C350.69 193.684 350.29 193.491 349.967 193.198C349.643 192.905 349.409 192.525 349.291 192.103C349.174 191.68 349.178 191.232 349.304 190.812C349.43 190.392 349.671 190.017 350.001 189.731C350.33 189.444 350.734 189.259 351.164 189.196C351.594 189.134 352.033 189.196 352.429 189.376C352.825 189.557 353.162 189.848 353.4 190.215C353.639 190.582 353.768 191.01 353.774 191.449C353.723 192.109 353.415 192.723 352.918 193.155C352.42 193.587 351.773 193.803 351.119 193.755ZM346.151 200.387C346.542 199.851 347.115 199.479 347.76 199.342C348.405 199.204 349.077 199.312 349.649 199.643C350.221 199.975 350.652 200.507 350.86 201.139C351.068 201.771 351.038 202.458 350.776 203.069C350.366 203.556 349.8 203.883 349.176 203.993C348.552 204.102 347.91 203.988 347.361 203.67C346.811 203.351 346.39 202.849 346.169 202.249C345.948 201.65 345.942 200.991 346.151 200.387ZM339.642 206.904C340.247 206.64 340.928 206.61 341.553 206.82C342.179 207.03 342.706 207.465 343.034 208.043C343.363 208.62 343.469 209.299 343.333 209.951C343.197 210.602 342.828 211.181 342.297 211.575C341.7 211.787 341.048 211.781 340.454 211.558C339.861 211.335 339.363 210.909 339.048 210.354C338.733 209.799 338.619 209.151 338.728 208.521C338.837 207.89 339.16 207.319 339.642 206.904ZM328.537 212.008C328.602 211.565 328.792 211.151 329.084 210.815C329.376 210.479 329.757 210.234 330.183 210.11C330.608 209.986 331.06 209.988 331.484 210.116C331.909 210.243 332.288 210.492 332.577 210.831C332.866 211.17 333.052 211.586 333.114 212.028C333.175 212.471 333.11 212.923 332.925 213.329C332.74 213.736 332.443 214.08 332.07 214.321C331.697 214.562 331.264 214.69 330.821 214.689C330.166 214.638 329.559 214.327 329.131 213.824C328.703 213.322 328.49 212.669 328.537 212.008ZM318.687 208.115C318.803 207.795 318.987 207.504 319.226 207.263C319.465 207.021 319.754 206.836 320.072 206.72C320.389 206.604 320.728 206.559 321.065 206.589C321.401 206.62 321.727 206.724 322.02 206.895C322.312 207.066 322.563 207.3 322.757 207.58C322.95 207.86 323.08 208.179 323.138 208.515C323.196 208.852 323.18 209.196 323.092 209.526C323.004 209.855 322.845 210.161 322.627 210.422C322.511 210.742 322.327 211.034 322.088 211.275C321.849 211.516 321.561 211.701 321.243 211.817C320.925 211.933 320.586 211.978 320.25 211.948C319.913 211.917 319.587 211.813 319.295 211.642C319.003 211.471 318.751 211.237 318.558 210.957C318.365 210.677 318.234 210.358 318.177 210.022C318.119 209.686 318.134 209.341 318.223 209.011C318.311 208.682 318.469 208.376 318.687 208.115ZM312.093 199.753C312.638 199.394 313.299 199.263 313.938 199.386C314.577 199.51 315.144 199.879 315.518 200.416C315.754 201.02 315.767 201.69 315.555 202.303C315.343 202.916 314.921 203.432 314.364 203.757C313.807 204.082 313.154 204.194 312.522 204.073C311.89 203.952 311.322 203.606 310.922 203.098C310.638 202.498 310.602 201.808 310.821 201.181C311.041 200.553 311.498 200.04 312.093 199.753ZM307.839 191.506C307.751 190.959 307.832 190.398 308.07 189.898C308.308 189.399 308.692 188.985 309.17 188.713C309.648 188.441 310.197 188.323 310.744 188.376C311.29 188.429 311.807 188.649 312.225 189.008C312.644 189.367 312.943 189.847 313.083 190.383C313.223 190.919 313.197 191.485 313.008 192.006C312.819 192.526 312.477 192.976 312.028 193.294C311.578 193.612 311.043 193.783 310.494 193.784C309.844 193.832 309.201 193.62 308.705 193.194C308.208 192.768 307.897 192.162 307.839 191.506Z" fill="white"/>
<path d="M635.238 191.476C635.238 195.555 636.436 199.542 638.68 202.933C640.925 206.324 644.114 208.967 647.846 210.526C651.577 212.086 655.683 212.493 659.644 211.695C663.604 210.897 667.241 208.93 670.095 206.044C672.948 203.158 674.89 199.482 675.675 195.481C676.459 191.479 676.051 187.333 674.501 183.566C672.952 179.8 670.331 176.582 666.971 174.32C663.61 172.058 659.661 170.854 655.622 170.859C650.213 170.867 645.029 173.043 641.207 176.908C637.385 180.774 635.238 186.013 635.238 191.476Z" fill="#3C3C3B"/>
<path d="M617.535 191.506C617.535 199.121 619.772 206.566 623.962 212.898C628.153 219.229 634.109 224.163 641.076 227.075C648.044 229.987 655.71 230.746 663.105 229.256C670.499 227.766 677.29 224.094 682.618 218.705C687.946 213.315 691.571 206.451 693.036 198.98C694.5 191.509 693.737 183.767 690.843 176.734C687.95 169.702 683.056 163.694 676.781 159.471C670.506 155.248 663.131 153 655.591 153.011C650.589 153.011 645.635 154.007 641.014 155.943C636.394 157.878 632.196 160.714 628.661 164.289C625.127 167.865 622.325 172.109 620.416 176.779C618.507 181.449 617.528 186.453 617.535 191.506ZM632.181 191.506C632.17 186.815 633.536 182.227 636.108 178.322C638.68 174.416 642.341 171.369 646.628 169.567C650.915 167.764 655.635 167.286 660.191 168.194C664.747 169.102 668.934 171.355 672.222 174.668C675.509 177.98 677.75 182.203 678.66 186.803C679.57 191.402 679.109 196.171 677.334 200.505C675.56 204.839 672.552 208.544 668.692 211.151C664.831 213.758 660.292 215.15 655.648 215.15C652.569 215.158 649.519 214.552 646.672 213.367C643.825 212.182 641.238 210.441 639.058 208.245C636.878 206.049 635.148 203.44 633.968 200.567C632.788 197.695 632.181 194.615 632.181 191.506Z" fill="#3C3C3B"/>
<path d="M628.785 191.506C628.791 196.895 630.379 202.161 633.348 206.639C636.317 211.117 640.534 214.605 645.466 216.662C650.398 218.719 655.823 219.253 661.055 218.196C666.287 217.139 671.092 214.539 674.861 210.724C678.63 206.909 681.194 202.051 682.23 196.764C683.265 191.478 682.725 185.999 680.678 181.023C678.631 176.046 675.169 171.794 670.729 168.804C666.289 165.815 661.071 164.222 655.735 164.228C648.582 164.243 641.728 167.124 636.675 172.238C631.623 177.352 628.785 184.281 628.785 191.506ZM631.64 191.506C631.629 186.696 633.031 181.99 635.668 177.985C638.306 173.98 642.061 170.856 646.457 169.007C650.854 167.159 655.695 166.669 660.367 167.6C665.039 168.532 669.333 170.842 672.704 174.239C676.076 177.637 678.374 181.968 679.307 186.685C680.24 191.401 679.767 196.292 677.947 200.737C676.127 205.182 673.042 208.981 669.083 211.655C665.125 214.328 660.469 215.756 655.707 215.756C652.55 215.759 649.424 215.135 646.506 213.918C643.588 212.702 640.936 210.917 638.701 208.665C636.466 206.413 634.692 203.739 633.481 200.795C632.269 197.85 631.644 194.694 631.64 191.506Z" fill="#DADADA"/>
<path d="M639.094 191.477C639.094 194.779 640.063 198.006 641.88 200.752C643.696 203.497 646.277 205.637 649.298 206.901C652.318 208.165 655.642 208.495 658.848 207.851C662.055 207.207 665 205.617 667.312 203.282C669.624 200.947 671.198 197.972 671.836 194.734C672.474 191.495 672.146 188.138 670.895 185.088C669.644 182.037 667.525 179.429 664.807 177.595C662.089 175.76 658.893 174.781 655.624 174.781C651.242 174.789 647.042 176.55 643.944 179.68C640.845 182.809 639.101 187.051 639.094 191.477ZM645.232 191.477C645.232 189.402 645.841 187.374 646.981 185.648C648.122 183.923 649.743 182.578 651.64 181.782C653.537 180.987 655.625 180.778 657.64 181.18C659.655 181.583 661.507 182.58 662.962 184.045C664.416 185.51 665.408 187.377 665.812 189.411C666.216 191.445 666.015 193.555 665.233 195.473C664.45 197.391 663.123 199.033 661.418 200.189C659.713 201.346 657.706 201.967 655.652 201.972C654.285 201.976 652.931 201.707 651.667 201.182C650.403 200.656 649.254 199.883 648.286 198.908C647.318 197.933 646.55 196.775 646.026 195.5C645.501 194.224 645.232 192.857 645.232 191.477Z" fill="#EDEDED"/>
<path d="M645.231 191.477C645.236 193.551 645.85 195.578 646.996 197.3C648.141 199.022 649.766 200.363 651.665 201.153C653.565 201.943 655.653 202.147 657.667 201.739C659.681 201.33 661.53 200.328 662.981 198.859C664.431 197.39 665.418 195.52 665.817 193.485C666.215 191.45 666.008 189.341 665.22 187.425C664.433 185.509 663.101 183.871 661.393 182.719C659.684 181.567 657.676 180.952 655.622 180.952C654.255 180.952 652.902 181.225 651.639 181.754C650.376 182.283 649.229 183.059 648.264 184.036C647.299 185.014 646.534 186.175 646.013 187.451C645.493 188.728 645.227 190.096 645.231 191.477ZM651.625 187.469C651.417 187.677 651.153 187.818 650.865 187.874C650.578 187.93 650.28 187.899 650.01 187.785C649.74 187.671 649.509 187.479 649.347 187.233C649.184 186.987 649.098 186.698 649.098 186.402C649.098 186.106 649.184 185.817 649.347 185.571C649.509 185.325 649.74 185.132 650.01 185.018C650.28 184.904 650.578 184.874 650.865 184.93C651.153 184.986 651.417 185.127 651.625 185.335C651.901 185.62 652.055 186.003 652.055 186.402C652.055 186.801 651.901 187.183 651.625 187.469ZM656.45 185.018C656.45 185.189 656.4 185.356 656.306 185.498C656.212 185.641 656.078 185.752 655.922 185.817C655.765 185.883 655.593 185.9 655.427 185.866C655.261 185.833 655.108 185.75 654.988 185.63C654.868 185.509 654.787 185.354 654.754 185.187C654.721 185.019 654.738 184.845 654.803 184.687C654.867 184.529 654.977 184.394 655.118 184.299C655.259 184.204 655.424 184.153 655.594 184.153C655.71 184.145 655.826 184.161 655.935 184.201C656.044 184.242 656.144 184.304 656.227 184.386C656.311 184.468 656.376 184.566 656.42 184.675C656.463 184.784 656.483 184.901 656.479 185.018H656.45ZM661.675 187.44C661.539 187.585 661.375 187.7 661.193 187.779C661.012 187.858 660.816 187.898 660.618 187.898C660.421 187.898 660.225 187.858 660.044 187.779C659.862 187.7 659.698 187.585 659.562 187.44C659.288 187.159 659.135 186.781 659.135 186.387C659.135 185.994 659.288 185.616 659.562 185.335C659.698 185.19 659.862 185.075 660.044 184.996C660.225 184.917 660.421 184.877 660.618 184.877C660.816 184.877 661.012 184.917 661.193 184.996C661.375 185.075 661.539 185.19 661.675 185.335C661.952 185.612 662.111 185.988 662.116 186.382C662.122 186.775 661.973 187.156 661.703 187.44H661.675ZM661.989 192.342C661.811 192.348 661.636 192.299 661.487 192.203C661.337 192.107 661.219 191.968 661.148 191.804C661.078 191.639 661.058 191.457 661.091 191.281C661.125 191.105 661.209 190.943 661.335 190.816C661.46 190.69 661.621 190.604 661.795 190.57C661.969 190.537 662.149 190.557 662.312 190.628C662.475 190.699 662.613 190.818 662.708 190.97C662.803 191.121 662.851 191.298 662.845 191.477C662.866 191.599 662.86 191.725 662.828 191.845C662.796 191.965 662.739 192.077 662.66 192.173C662.582 192.269 662.484 192.346 662.373 192.4C662.262 192.454 662.14 192.484 662.017 192.486L661.989 192.342ZM659.619 195.369C659.828 195.162 660.092 195.021 660.38 194.964C660.667 194.908 660.965 194.939 661.235 195.053C661.505 195.167 661.736 195.359 661.898 195.605C662.06 195.851 662.147 196.141 662.147 196.436C662.147 196.732 662.06 197.021 661.898 197.267C661.736 197.514 661.505 197.706 661.235 197.82C660.965 197.934 660.667 197.965 660.38 197.908C660.092 197.852 659.828 197.711 659.619 197.503C659.476 197.366 659.362 197.2 659.284 197.017C659.206 196.834 659.165 196.636 659.165 196.436C659.165 196.237 659.206 196.039 659.284 195.856C659.362 195.672 659.476 195.507 659.619 195.369ZM654.766 197.82C654.762 197.704 654.781 197.589 654.823 197.481C654.864 197.372 654.926 197.273 655.006 197.19C655.086 197.107 655.182 197.04 655.288 196.995C655.394 196.95 655.507 196.926 655.622 196.927C655.75 196.903 655.881 196.908 656.006 196.942C656.132 196.975 656.248 197.036 656.348 197.12C656.447 197.204 656.527 197.309 656.582 197.427C656.637 197.546 656.666 197.675 656.666 197.806C656.666 197.937 656.637 198.066 656.582 198.185C656.527 198.303 656.447 198.408 656.348 198.492C656.248 198.576 656.132 198.637 656.006 198.67C655.881 198.704 655.75 198.709 655.622 198.685C655.414 198.687 655.211 198.612 655.054 198.474C654.896 198.336 654.794 198.145 654.766 197.936V197.82ZM651.625 191.477C651.603 190.681 651.815 189.896 652.236 189.223C652.657 188.549 653.267 188.018 653.988 187.696C654.709 187.374 655.509 187.276 656.285 187.415C657.061 187.554 657.779 187.924 658.347 188.476C658.914 189.029 659.306 189.74 659.472 190.519C659.638 191.297 659.57 192.108 659.278 192.847C658.985 193.587 658.482 194.222 657.831 194.671C657.18 195.12 656.411 195.363 655.622 195.369C654.582 195.385 653.578 194.984 652.83 194.255C652.081 193.526 651.648 192.527 651.625 191.477ZM649.484 195.514C649.622 195.372 649.787 195.26 649.968 195.184C650.15 195.107 650.344 195.068 650.541 195.068C650.737 195.068 650.932 195.107 651.113 195.184C651.294 195.26 651.459 195.372 651.597 195.514C651.877 195.797 652.034 196.18 652.034 196.581C652.034 196.981 651.877 197.364 651.597 197.647C651.317 197.93 650.937 198.089 650.541 198.089C650.144 198.089 649.764 197.93 649.484 197.647C649.348 197.504 649.241 197.335 649.171 197.15C649.1 196.965 649.066 196.767 649.071 196.568C649.077 196.37 649.121 196.174 649.202 195.993C649.282 195.812 649.398 195.649 649.541 195.514H649.484ZM648.314 191.477C648.31 191.362 648.329 191.248 648.371 191.141C648.412 191.034 648.475 190.937 648.556 190.856C648.636 190.775 648.732 190.711 648.838 190.669C648.944 190.627 649.057 190.608 649.17 190.612C649.34 190.612 649.505 190.662 649.646 190.758C649.787 190.853 649.897 190.988 649.962 191.146C650.026 191.304 650.043 191.478 650.01 191.646C649.977 191.813 649.896 191.967 649.776 192.088C649.656 192.209 649.504 192.292 649.337 192.325C649.171 192.359 648.999 192.341 648.843 192.276C648.686 192.211 648.552 192.1 648.458 191.957C648.364 191.815 648.314 191.648 648.314 191.477Z" fill="#DAD1D1"/>
<path d="M645.231 191.477C645.236 193.551 645.85 195.578 646.996 197.3C648.141 199.022 649.766 200.363 651.665 201.153C653.565 201.943 655.653 202.147 657.667 201.739C659.681 201.33 661.53 200.328 662.981 198.859C664.431 197.39 665.418 195.52 665.817 193.485C666.215 191.45 666.008 189.341 665.22 187.425C664.433 185.509 663.101 183.871 661.393 182.719C659.684 181.567 657.676 180.952 655.622 180.952C654.255 180.952 652.902 181.225 651.639 181.754C650.376 182.283 649.229 183.059 648.264 184.036C647.299 185.014 646.534 186.175 646.013 187.451C645.493 188.728 645.227 190.096 645.231 191.477ZM651.625 187.469C651.417 187.677 651.153 187.818 650.865 187.874C650.578 187.93 650.28 187.899 650.01 187.785C649.74 187.671 649.509 187.479 649.347 187.233C649.184 186.987 649.098 186.698 649.098 186.402C649.098 186.106 649.184 185.817 649.347 185.571C649.509 185.325 649.74 185.132 650.01 185.018C650.28 184.904 650.578 184.874 650.865 184.93C651.153 184.986 651.417 185.127 651.625 185.335C651.901 185.62 652.055 186.003 652.055 186.402C652.055 186.801 651.901 187.183 651.625 187.469ZM656.45 185.018C656.45 185.189 656.4 185.356 656.306 185.498C656.212 185.641 656.078 185.752 655.922 185.817C655.765 185.883 655.593 185.9 655.427 185.866C655.261 185.833 655.108 185.75 654.988 185.63C654.868 185.509 654.787 185.354 654.754 185.187C654.721 185.019 654.738 184.845 654.803 184.687C654.867 184.529 654.977 184.394 655.118 184.299C655.259 184.204 655.424 184.153 655.594 184.153C655.71 184.145 655.826 184.161 655.935 184.201C656.044 184.242 656.144 184.304 656.227 184.386C656.311 184.468 656.376 184.566 656.42 184.675C656.463 184.784 656.483 184.901 656.479 185.018H656.45ZM661.675 187.44C661.539 187.585 661.375 187.7 661.193 187.779C661.012 187.858 660.816 187.898 660.618 187.898C660.421 187.898 660.225 187.858 660.044 187.779C659.862 187.7 659.698 187.585 659.562 187.44C659.288 187.159 659.135 186.781 659.135 186.387C659.135 185.994 659.288 185.616 659.562 185.335C659.698 185.19 659.862 185.075 660.044 184.996C660.225 184.917 660.421 184.877 660.618 184.877C660.816 184.877 661.012 184.917 661.193 184.996C661.375 185.075 661.539 185.19 661.675 185.335C661.952 185.612 662.111 185.988 662.116 186.382C662.122 186.775 661.973 187.156 661.703 187.44H661.675ZM661.989 192.342C661.811 192.348 661.636 192.299 661.487 192.203C661.337 192.107 661.219 191.968 661.148 191.804C661.078 191.639 661.058 191.457 661.091 191.281C661.125 191.105 661.209 190.943 661.335 190.816C661.46 190.69 661.621 190.604 661.795 190.57C661.969 190.537 662.149 190.557 662.312 190.628C662.475 190.699 662.613 190.818 662.708 190.97C662.803 191.121 662.851 191.298 662.845 191.477C662.866 191.599 662.86 191.725 662.828 191.845C662.796 191.965 662.739 192.077 662.66 192.173C662.582 192.269 662.484 192.346 662.373 192.4C662.262 192.454 662.14 192.484 662.017 192.486L661.989 192.342ZM659.619 195.369C659.828 195.162 660.092 195.021 660.38 194.964C660.667 194.908 660.965 194.939 661.235 195.053C661.505 195.167 661.736 195.359 661.898 195.605C662.06 195.851 662.147 196.141 662.147 196.436C662.147 196.732 662.06 197.021 661.898 197.267C661.736 197.514 661.505 197.706 661.235 197.82C660.965 197.934 660.667 197.965 660.38 197.908C660.092 197.852 659.828 197.711 659.619 197.503C659.476 197.366 659.362 197.2 659.284 197.017C659.206 196.834 659.165 196.636 659.165 196.436C659.165 196.237 659.206 196.039 659.284 195.856C659.362 195.672 659.476 195.507 659.619 195.369ZM654.766 197.82C654.762 197.704 654.781 197.589 654.823 197.481C654.864 197.372 654.926 197.273 655.006 197.19C655.086 197.107 655.182 197.04 655.288 196.995C655.394 196.95 655.507 196.926 655.622 196.927C655.75 196.903 655.881 196.908 656.006 196.942C656.132 196.975 656.248 197.036 656.348 197.12C656.447 197.204 656.527 197.309 656.582 197.427C656.637 197.546 656.666 197.675 656.666 197.806C656.666 197.937 656.637 198.066 656.582 198.185C656.527 198.303 656.447 198.408 656.348 198.492C656.248 198.576 656.132 198.637 656.006 198.67C655.881 198.704 655.75 198.709 655.622 198.685C655.414 198.687 655.211 198.612 655.054 198.474C654.896 198.336 654.794 198.145 654.766 197.936V197.82ZM651.625 191.477C651.603 190.681 651.815 189.896 652.236 189.223C652.657 188.549 653.267 188.018 653.988 187.696C654.709 187.374 655.509 187.276 656.285 187.415C657.061 187.554 657.779 187.924 658.347 188.476C658.914 189.029 659.306 189.74 659.472 190.519C659.638 191.297 659.57 192.108 659.278 192.847C658.985 193.587 658.482 194.222 657.831 194.671C657.18 195.12 656.411 195.363 655.622 195.369C654.582 195.385 653.578 194.984 652.83 194.255C652.081 193.526 651.648 192.527 651.625 191.477ZM649.484 195.514C649.622 195.372 649.787 195.26 649.968 195.184C650.15 195.107 650.344 195.068 650.541 195.068C650.737 195.068 650.932 195.107 651.113 195.184C651.294 195.26 651.459 195.372 651.597 195.514C651.877 195.797 652.034 196.18 652.034 196.581C652.034 196.981 651.877 197.364 651.597 197.647C651.317 197.93 650.937 198.089 650.541 198.089C650.144 198.089 649.764 197.93 649.484 197.647C649.348 197.504 649.241 197.335 649.171 197.15C649.1 196.965 649.066 196.767 649.071 196.568C649.077 196.37 649.121 196.174 649.202 195.993C649.282 195.812 649.398 195.649 649.541 195.514H649.484ZM648.314 191.477C648.31 191.362 648.329 191.248 648.371 191.141C648.412 191.034 648.475 190.937 648.556 190.856C648.636 190.775 648.732 190.711 648.838 190.669C648.944 190.627 649.057 190.608 649.17 190.612C649.34 190.612 649.505 190.662 649.646 190.758C649.787 190.853 649.897 190.988 649.962 191.146C650.026 191.304 650.043 191.478 650.01 191.646C649.977 191.813 649.896 191.967 649.776 192.088C649.656 192.209 649.504 192.292 649.337 192.325C649.171 192.359 648.999 192.341 648.843 192.276C648.686 192.211 648.552 192.1 648.458 191.957C648.364 191.815 648.314 191.648 648.314 191.477Z" fill="#C6C6C6"/>
<path d="M631.641 191.506C631.646 196.315 633.064 201.014 635.715 205.009C638.365 209.004 642.129 212.115 646.531 213.949C650.932 215.782 655.773 216.256 660.441 215.31C665.109 214.364 669.395 212.041 672.756 208.635C676.116 205.229 678.401 200.892 679.321 196.174C680.241 191.456 679.754 186.568 677.923 182.129C676.092 177.69 672.998 173.899 669.034 171.237C665.069 168.574 660.412 167.159 655.65 167.17C652.49 167.17 649.361 167.8 646.443 169.024C643.524 170.248 640.873 172.042 638.643 174.303C636.412 176.564 634.645 179.248 633.444 182.2C632.242 185.152 631.63 188.315 631.641 191.506ZM640.377 182.568C640.181 183.086 639.833 183.53 639.38 183.842C638.926 184.154 638.389 184.318 637.84 184.312C637.291 184.306 636.758 184.13 636.311 183.808C635.864 183.487 635.526 183.034 635.342 182.512C635.157 181.99 635.136 181.423 635.28 180.889C635.425 180.354 635.728 179.877 636.149 179.522C636.57 179.166 637.089 178.95 637.636 178.902C638.182 178.853 638.73 178.976 639.206 179.252C639.769 179.563 640.188 180.084 640.375 180.704C640.561 181.324 640.501 181.993 640.205 182.568H640.377ZM655.679 174.782C658.948 174.782 662.144 175.762 664.862 177.596C667.581 179.431 669.699 182.038 670.951 185.089C672.202 188.139 672.529 191.496 671.891 194.735C671.253 197.973 669.679 200.948 667.367 203.283C665.056 205.618 662.11 207.208 658.904 207.852C655.697 208.496 652.374 208.166 649.353 206.902C646.333 205.638 643.751 203.499 641.935 200.753C640.119 198.007 639.149 194.78 639.149 191.478C639.142 189.288 639.562 187.118 640.387 185.093C641.211 183.068 642.423 181.227 643.954 179.676C645.484 178.125 647.303 176.894 649.305 176.054C651.307 175.215 653.454 174.782 655.622 174.782H655.679ZM646.829 176.051C646.4 176.394 645.877 176.595 645.331 176.629C644.785 176.664 644.242 176.528 643.774 176.242C643.306 175.955 642.936 175.532 642.714 175.027C642.491 174.522 642.427 173.961 642.529 173.418C642.631 172.875 642.895 172.377 643.285 171.99C643.676 171.603 644.174 171.346 644.713 171.252C645.252 171.159 645.807 171.235 646.302 171.469C646.798 171.703 647.211 172.084 647.485 172.562C647.844 173.122 647.97 173.801 647.837 174.454C647.703 175.107 647.321 175.681 646.772 176.051H646.829ZM657.934 170.947C657.864 171.38 657.672 171.784 657.382 172.111C657.092 172.438 656.716 172.675 656.298 172.793C655.879 172.912 655.436 172.907 655.02 172.78C654.604 172.653 654.233 172.409 653.949 172.077C653.666 171.744 653.482 171.336 653.42 170.902C653.358 170.468 653.42 170.024 653.599 169.624C653.777 169.224 654.065 168.884 654.429 168.643C654.792 168.402 655.216 168.272 655.65 168.266C656.292 168.338 656.88 168.657 657.295 169.157C657.709 169.656 657.918 170.297 657.877 170.947H657.934ZM667.784 174.84C667.508 175.181 667.141 175.434 666.727 175.571C666.313 175.708 665.868 175.723 665.446 175.613C665.024 175.503 664.642 175.273 664.345 174.951C664.048 174.629 663.848 174.228 663.77 173.795C663.691 173.362 663.737 172.915 663.901 172.508C664.066 172.1 664.343 171.749 664.699 171.495C665.055 171.241 665.475 171.095 665.911 171.075C666.346 171.054 666.778 171.16 667.156 171.38C667.418 171.569 667.641 171.809 667.812 172.085C667.983 172.361 668.098 172.669 668.151 172.99C668.204 173.312 668.194 173.641 668.121 173.958C668.048 174.275 667.914 174.575 667.727 174.84H667.784ZM674.464 183.173C674.206 183.393 673.903 183.554 673.577 183.643C673.251 183.732 672.909 183.748 672.577 183.689C672.244 183.631 671.928 183.499 671.65 183.304C671.373 183.109 671.142 182.855 670.972 182.56C670.803 182.264 670.7 181.935 670.67 181.595C670.64 181.255 670.684 180.913 670.799 180.592C670.914 180.271 671.097 179.98 671.336 179.738C671.575 179.497 671.863 179.311 672.18 179.194C672.73 178.833 673.396 178.701 674.039 178.825C674.683 178.948 675.255 179.318 675.635 179.857C675.775 180.152 675.855 180.473 675.872 180.799C675.889 181.126 675.842 181.453 675.733 181.761C675.624 182.07 675.456 182.353 675.238 182.595C675.021 182.838 674.757 183.034 674.464 183.173ZM676.063 193.756C675.41 193.796 674.768 193.577 674.272 193.146C673.776 192.716 673.466 192.107 673.408 191.449C673.502 190.805 673.821 190.217 674.309 189.792C674.796 189.367 675.419 189.133 676.063 189.133C676.707 189.133 677.33 189.367 677.817 189.792C678.305 190.217 678.624 190.805 678.718 191.449C678.69 191.785 678.595 192.112 678.439 192.411C678.284 192.71 678.071 192.975 677.813 193.19C677.555 193.405 677.258 193.565 676.937 193.663C676.617 193.76 676.281 193.791 675.949 193.756H676.063ZM671.038 200.388C671.409 199.844 671.975 199.47 672.617 199.346C673.258 199.222 673.921 199.358 674.464 199.724C675.053 200.017 675.507 200.529 675.731 201.153C675.954 201.776 675.93 202.463 675.663 203.069C675.253 203.556 674.687 203.883 674.063 203.993C673.439 204.102 672.797 203.988 672.247 203.67C671.698 203.351 671.277 202.849 671.056 202.249C670.835 201.65 670.829 200.991 671.038 200.388ZM664.472 206.904C664.764 206.763 665.081 206.681 665.405 206.664C665.728 206.647 666.052 206.695 666.357 206.805C666.663 206.915 666.943 207.084 667.183 207.304C667.423 207.524 667.617 207.79 667.755 208.086C667.909 208.498 667.943 208.946 667.853 209.376C667.763 209.807 667.553 210.202 667.247 210.516C666.942 210.83 666.554 211.049 666.13 211.148C665.705 211.246 665.261 211.22 664.851 211.072C664.441 210.925 664.081 210.661 663.814 210.314C663.546 209.966 663.383 209.549 663.344 209.11C663.304 208.672 663.389 208.232 663.589 207.841C663.789 207.45 664.095 207.125 664.472 206.904ZM653.367 211.979C653.314 211.646 653.334 211.305 653.425 210.98C653.515 210.655 653.675 210.353 653.892 210.097C654.109 209.84 654.379 209.634 654.682 209.492C654.986 209.351 655.316 209.278 655.65 209.278C655.985 209.278 656.315 209.351 656.619 209.492C656.922 209.634 657.192 209.84 657.409 210.097C657.626 210.353 657.785 210.655 657.876 210.98C657.967 211.305 657.987 211.646 657.934 211.979C657.987 212.313 657.967 212.654 657.876 212.979C657.785 213.304 657.626 213.605 657.409 213.862C657.192 214.118 656.922 214.325 656.619 214.466C656.315 214.607 655.985 214.681 655.65 214.681C655.316 214.681 654.986 214.607 654.682 214.466C654.379 214.325 654.109 214.118 653.892 213.862C653.675 213.605 653.515 213.304 653.425 212.979C653.334 212.654 653.314 212.313 653.367 211.979ZM643.517 208.115C643.645 207.817 643.833 207.55 644.07 207.331C644.307 207.112 644.587 206.946 644.892 206.843C645.197 206.741 645.52 206.705 645.84 206.737C646.159 206.769 646.469 206.869 646.748 207.03C647.026 207.191 647.268 207.41 647.458 207.672C647.647 207.935 647.78 208.234 647.847 208.551C647.914 208.869 647.913 209.197 647.846 209.514C647.779 209.832 647.646 210.131 647.457 210.393C647.173 210.993 646.665 211.455 646.043 211.677C645.422 211.899 644.74 211.862 644.145 211.575C643.878 211.39 643.65 211.154 643.474 210.88C643.298 210.606 643.177 210.299 643.119 209.977C643.06 209.656 643.065 209.326 643.134 209.006C643.202 208.686 643.332 208.384 643.517 208.115ZM636.894 199.753C637.443 199.393 638.109 199.26 638.753 199.384C639.397 199.507 639.968 199.877 640.348 200.416C640.558 201.02 640.552 201.679 640.331 202.278C640.11 202.877 639.688 203.38 639.139 203.698C638.59 204.017 637.948 204.131 637.324 204.021C636.7 203.912 636.134 203.585 635.723 203.098C635.447 202.497 635.415 201.81 635.634 201.185C635.852 200.56 636.305 200.046 636.894 199.753ZM632.64 191.478C632.552 190.925 632.635 190.358 632.876 189.853C633.117 189.349 633.506 188.932 633.989 188.657C634.472 188.383 635.027 188.265 635.579 188.319C636.131 188.372 636.654 188.596 637.076 188.959C637.498 189.322 637.8 189.807 637.941 190.349C638.082 190.89 638.055 191.463 637.864 191.988C637.673 192.514 637.328 192.968 636.873 193.289C636.419 193.61 635.878 193.783 635.324 193.784C634.666 193.832 634.016 193.617 633.514 193.186C633.012 192.754 632.698 192.141 632.64 191.478Z" fill="white"/>
<path d="M517.101 52.8403H298.673L284.684 95.1984C283.023 100.211 282.146 105.455 282.086 110.74V113.393V123.37H517.101V52.8403Z" fill="white"/>
<path d="M495.662 113.739H501.543V116.45H492.094V111.894V97.4766H495.662V113.739Z" fill="#FE0782"/>
<path d="M487.923 63.9694H480.957V58.8945H501.541V63.9694H494.575V94.2747H492.091H487.923V63.9694Z" fill="#FE0782"/>
<path d="M482.53 112.094C482.53 112.591 482.725 113.068 483.073 113.419C483.421 113.771 483.893 113.968 484.385 113.968C484.877 113.968 485.349 113.771 485.697 113.419C486.045 113.068 486.241 112.591 486.241 112.094V101.858C486.241 101.361 486.045 100.884 485.697 100.532C485.349 100.181 484.877 99.9834 484.385 99.9834C483.893 99.9834 483.421 100.181 483.073 100.532C482.725 100.884 482.53 101.361 482.53 101.858V112.094ZM484.385 116.65C480.874 116.65 478.961 114.92 478.961 111.892V102.031C478.961 99.003 480.874 97.2729 484.385 97.2729C487.897 97.2729 489.81 99.003 489.81 102.031V111.892C489.81 114.92 487.897 116.65 484.385 116.65Z" fill="#FE0782"/>
<path d="M473.308 102.148C473.308 100.793 472.765 100.187 471.509 100.187H469.768V105.954H471.167C472.509 105.954 473.308 105.464 473.308 103.964V102.148ZM471.595 97.4766C475.306 97.4766 476.877 98.9183 476.877 101.859V103.33C476.973 104.135 476.804 104.949 476.397 105.648C475.989 106.346 475.365 106.889 474.621 107.194C476.391 107.799 476.962 109.241 476.962 111.231V114.114C476.91 114.904 477.047 115.696 477.362 116.421H473.679C473.372 115.684 473.255 114.881 473.336 114.085V111.202C473.336 109.443 472.623 108.78 471.024 108.78H469.768V116.507H466.199V97.4766H471.595Z" fill="#FE0782"/>
<path d="M469.141 94.6787C462.603 94.6787 459.234 91.4492 459.234 85.7976V83.6062H465.515V86.1436C465.515 88.6811 466.857 89.575 468.97 89.575C471.082 89.575 472.424 88.6811 472.424 86.1436C472.424 78.8773 459.406 77.4932 459.406 67.4011C459.406 61.6342 462.746 58.4912 469.227 58.4912C474.48 58.4912 477.791 60.6538 478.676 64.4888C478.912 65.4312 479.027 66.4003 479.019 67.3723V68.4968H472.738V67.0551C472.738 64.5177 471.51 63.5661 469.398 63.5661C467.285 63.5661 466.058 64.5177 466.058 67.0551C466.058 74.3214 479.076 75.7055 479.076 85.7976C479.076 91.5646 475.707 94.6787 469.141 94.6787Z" fill="#FE0782"/>
<path d="M464.658 97.4766V100.187H460.918V116.45H457.349V100.187H453.609V97.4766H464.658Z" fill="#FE0782"/>
<path d="M444.617 73.802H453.781V78.8769H444.617V89.2286H456.122V94.2747H437.965V58.8945H456.122V63.9694H444.617V73.802Z" fill="#FE0782"/>
<path d="M443.988 102.724V116.45H440.762V97.4766H445.244L448.927 108.837V97.4766H452.096V116.45H448.441L443.988 102.724Z" fill="#FE0782"/>
<path d="M434.938 112.094V101.858C434.938 101.361 434.743 100.884 434.395 100.532C434.047 100.181 433.575 99.9834 433.083 99.9834C432.59 99.9834 432.118 100.181 431.77 100.532C431.422 100.884 431.227 101.361 431.227 101.858V112.094C431.227 112.591 431.422 113.068 431.77 113.419C432.118 113.771 432.59 113.968 433.083 113.968C433.575 113.968 434.047 113.771 434.395 113.419C434.743 113.068 434.938 112.591 434.938 112.094ZM438.507 102.031V111.892C438.507 114.92 436.594 116.65 433.083 116.65C429.571 116.65 427.658 114.92 427.658 111.892V102.031C427.658 99.003 429.571 97.2729 433.083 97.2729C436.594 97.2729 438.507 99.003 438.507 102.031Z" fill="#FE0782"/>
<path d="M428.202 72.591V67.2854C428.202 64.7768 427.06 63.9694 424.948 63.9694H421.807V75.9358H424.948C427.06 75.9358 428.202 75.1284 428.202 72.591ZM415.127 94.2747V58.8945H424.948C431.6 58.8945 434.883 61.9798 434.883 67.5449V72.245C434.883 78.0119 431.6 80.8954 424.948 80.8954H421.807V94.1882L415.127 94.2747Z" fill="#FE0782"/>
<path d="M425.776 111.892C425.776 114.92 423.949 116.65 420.466 116.65C416.983 116.65 415.127 114.92 415.127 111.892V102.031C415.127 99.003 416.954 97.2729 420.466 97.2729C423.977 97.2729 425.776 99.003 425.776 102.031V103.876H422.407V101.858C422.407 101.361 422.211 100.884 421.863 100.532C421.515 100.181 421.043 99.9834 420.551 99.9834C420.059 99.9834 419.587 100.181 419.239 100.532C418.891 100.884 418.696 101.361 418.696 101.858V112.094C418.696 113.449 419.409 113.911 420.551 113.911C421.693 113.911 422.407 113.449 422.407 112.094V109.384H425.776V111.892Z" fill="#FE0782"/>
<path d="M355.487 125.041C376.3 125.041 393.172 108 393.172 86.9792C393.172 65.9583 376.3 48.9175 355.487 48.9175C334.675 48.9175 317.803 65.9583 317.803 86.9792C317.803 108 334.675 125.041 355.487 125.041Z" fill="white"/>
<path d="M355.487 40.7573C364.521 40.7573 373.353 43.4631 380.864 48.5326C388.376 53.602 394.231 60.8074 397.688 69.2375C401.145 77.6677 402.05 86.944 400.288 95.8934C398.525 104.843 394.175 113.063 387.786 119.515C381.398 125.968 373.259 130.362 364.398 132.142C355.538 133.922 346.353 133.008 338.007 129.516C329.66 126.024 322.526 120.111 317.507 112.524C312.488 104.937 309.809 96.0175 309.809 86.8928C309.809 74.6569 314.621 62.9222 323.187 54.2701C331.754 45.618 343.372 40.7573 355.487 40.7573ZM390.374 86.8928C390.357 79.9275 388.296 73.1235 384.453 67.3404C380.609 61.5572 375.154 57.0544 368.778 54.4007C362.402 51.7471 355.39 51.0616 348.628 52.431C341.867 53.8003 335.659 57.163 330.788 62.0943C325.918 67.0255 322.603 73.3041 321.264 80.1368C319.925 86.9696 320.621 94.0499 323.264 100.483C325.907 106.917 330.379 112.415 336.114 116.283C341.849 120.151 348.591 122.215 355.487 122.215C364.735 122.2 373.6 118.483 380.139 111.878C386.678 105.273 390.359 96.3197 390.374 86.9793V86.8928Z" fill="#FE0782"/>
<path d="M362.026 109.298C363.561 105.962 365.921 103.083 368.878 100.935L361.855 91.9391C363.903 89.9014 365.811 87.7241 367.564 85.4224L368.535 85.6531L374.245 86.8642C373.823 89.2693 373.98 91.7415 374.702 94.0728C375.557 96.7259 377.106 99.0967 379.184 100.935C377.116 98.7977 375.776 96.0507 375.358 93.0924C375.034 90.6356 375.288 88.1361 376.1 85.7973L368.992 83.404C369.905 82.0776 370.705 80.78 371.39 79.5401L371.904 79.6843C372.605 78.339 373.151 76.9168 373.531 75.4456C373.793 75.5161 374.067 75.5268 374.334 75.477C374.601 75.4271 374.853 75.3179 375.073 75.1573C375.286 74.9188 375.439 74.6315 375.519 74.3202C375.598 74.0088 375.602 73.6826 375.53 73.3695C383.024 71.6908 390.695 70.9547 398.369 71.1781C402.276 71.2635 406.175 71.5812 410.045 72.1296C413.243 72.6198 416.412 73.3695 419.552 74.1192L416.697 73.3695C409.078 71.4463 401.254 70.4779 393.401 70.4861C389.249 70.4571 385.099 70.7173 380.982 71.2646C379.041 71.5241 377.071 71.8413 375.273 72.2161C374.936 71.4397 374.484 70.72 373.931 70.0824C373.338 69.4299 372.631 68.8924 371.847 68.4965C374.393 61.0411 375.995 53.2903 376.614 45.4288C376.957 41.4789 377.071 37.5122 376.957 33.5489C376.957 30.2617 376.443 27.0322 376.072 23.7739L376.329 26.6574C376.963 34.5301 376.637 42.4517 375.358 50.2441C374.692 54.3537 373.738 58.4103 372.503 62.3835C371.961 64.2289 371.361 66.0744 370.676 67.9198C370.384 67.7956 370.066 67.7489 369.751 67.7843C369.436 67.8196 369.135 67.9357 368.878 68.1216C368.685 68.309 368.541 68.5406 368.456 68.7967C368.372 69.0528 368.35 69.3257 368.392 69.5922C366.893 69.7882 365.419 70.1458 363.996 70.6591C363.982 70.8318 363.982 71.0054 363.996 71.1781C362.682 71.6971 361.341 72.3315 359.942 73.0524L359.77 72.1008C359.428 69.8805 359.085 67.6891 358.714 65.4688C356.209 66.0243 353.605 65.9251 351.149 65.1805C348.428 64.2505 346.043 62.5241 344.297 60.2209C344.898 61.2627 345.616 62.2304 346.438 63.1044C347.632 64.2734 349 65.2463 350.492 65.9879C352.609 67.0126 354.94 67.5072 357.287 67.4296L357.943 74.2634C355.489 75.6545 353.133 77.2153 350.892 78.9346L349.008 76.945L342.984 70.3996C340.387 73.0923 337.124 75.0338 333.534 76.0223C331.187 76.6368 328.751 76.8223 326.34 76.5702C324.807 76.3682 323.297 76.0206 321.829 75.5321C323.266 76.1362 324.758 76.5997 326.283 76.9162C328.512 77.3053 330.791 77.3053 333.02 76.9162C336.593 76.3351 339.967 74.8689 342.841 72.6487L349.008 80.4917L347.523 81.7604C346.33 82.8006 345.196 83.9077 344.126 85.0764L343.212 86.1433L341.271 84.9611L333.705 80.3475C331.968 83.5805 329.43 86.3029 326.34 88.2482C324.223 89.543 321.892 90.4417 319.459 90.901C317.909 91.1218 316.342 91.199 314.777 91.1317C318.497 91.5919 322.271 91.0445 325.712 89.5458C329.096 87.9871 332.04 85.5982 334.276 82.5966L341.87 88.0175L341.471 88.6231V88.8537C341.157 89.3728 340.871 89.8918 340.614 90.382C340.414 90.8145 340.243 91.247 340.072 91.6795C339.93 92.0825 339.825 92.4975 339.758 92.9194C339.634 93.5069 339.577 94.1066 339.586 94.7072C339.604 95.6486 339.829 96.5742 340.243 97.4176C340.501 97.9819 340.838 98.5062 341.242 98.9747C341.678 99.4911 342.188 99.9383 342.755 100.301C343.038 100.477 343.334 100.632 343.64 100.762C344.299 101.03 344.99 101.204 345.696 101.281C346.971 101.357 348.25 101.191 349.464 100.791C350.017 100.608 350.56 100.396 351.092 100.157H351.32L351.891 99.8686L352.319 100.791L355.831 107.885C352.574 109.645 349.799 112.19 347.751 115.295C345.753 118.497 344.639 122.181 344.525 125.964C344.693 124.399 345.009 122.854 345.467 121.35C346.245 118.97 347.445 116.752 349.008 114.805C351.384 112.021 354.433 109.905 357.858 108.663L353.804 98.6864C355.009 97.9393 356.163 97.1108 357.258 96.2066L358.914 94.8225L360.256 93.5826L361.426 94.8802L366.708 100.647C364.067 103.246 362.105 106.466 360.998 110.018C359.939 113.651 359.86 117.504 360.77 121.177C360.49 119.608 360.375 118.013 360.427 116.42C360.543 113.969 361.084 111.559 362.026 109.298Z" fill="#3C3C3B"/>
<path d="M332.525 52.8188L324.309 59.9741L378.43 123.369L386.646 116.213L332.525 52.8188Z" fill="#FE0782"/>
<line y1="-1" x2="493.001" y2="-1" transform="matrix(0.999998 0.00202839 0 1 257 231)" stroke="#02826D" stroke-width="2"/>
<path d="M150 230.016L218 230.001" stroke="#02826D" stroke-width="2"/>
</svg>
