<svg width="1285" height="560" viewBox="0 0 1285 560" fill="none" xmlns="http://www.w3.org/2000/svg">
<path d="M261.087 378.923C316.301 490.987 534.328 392.167 776.581 509.926C1146.07 649.775 1366.44 470.379 1256.78 294.63C1146.07 135.708 930.015 53.5349 500.723 186.448C320.001 214.648 229.881 275.391 261.087 378.923Z" fill="#C6FFE7"/>
<path d="M96.4765 347.826C143 330.5 107.54 322.005 154.376 261.369C209.997 168.886 104.561 201.132 34.661 228.58C-28.546 256.291 11.813 297.593 23.1272 312.18C46.3272 342.091 55.2994 355.637 96.4765 347.826Z" fill="#C6FFE7"/>
<path d="M1046.86 284.734L797.789 427.847V286.902L1046.86 143.863V284.734Z" fill="#00DA7E"/>
<path opacity="0.2" d="M1046.86 169.211L797.789 312.25V286.902L1046.86 143.863V169.211Z" fill="black"/>
<path d="M693.892 143.039L580.447 165.545L829.589 22.5064L943.033 0L693.892 143.039Z" fill="#292A2A"/>
<path d="M943.04 0L1056.48 152.759L807.343 295.873L693.898 143.039L943.04 0Z" fill="#494949"/>
<path d="M916.723 112.232L948.523 156.198L986.263 135.337L956.342 87.5576L916.723 112.232Z" fill="#02826D"/>
<path d="M1154.21 358.38L1136.32 348.136L1146.77 342.154L1164.66 352.398L1154.21 358.38Z" fill="#BDBDBD"/>
<path d="M954.834 472.932L837.029 405.263V296.021L954.834 383.355V472.932Z" fill="#02826D"/>
<path d="M837.029 296.021L954.834 383.355L837.029 296.021Z" fill="#E8B62A"/>
<path d="M942.284 391.059L846.582 336.102V428.968L942.284 483.926V391.059Z" fill="#3D3D3D"/>
<path d="M940.781 392.327L848.086 339.164V429.862L940.781 483.025V392.327Z" fill="#616161"/>
<path d="M940.781 397.712L848.086 344.474V342.381L940.781 395.618V397.712Z" fill="#575757"/>
<path d="M940.781 410.275L848.086 357.037V354.943L940.781 408.181V410.275Z" fill="#575757"/>
<path d="M940.781 422.76L848.086 369.598V367.504L940.781 420.742V422.76Z" fill="#575757"/>
<path d="M940.781 435.323L848.086 382.16V380.066L940.781 433.229V435.323Z" fill="#575757"/>
<path d="M940.781 447.882L848.086 394.72V392.626L940.781 445.789V447.882Z" fill="#575757"/>
<path d="M940.781 460.445L848.086 407.282V405.188L940.781 458.351V460.445Z" fill="#575757"/>
<path d="M940.781 473.008L848.086 419.846V417.752L940.781 470.915V473.008Z" fill="#575757"/>
<path opacity="0.2" d="M954.834 383.355V400.403L837.029 332.809V296.021L954.834 383.355Z" fill="black"/>
<path d="M797.79 446.536L590.373 327.425V167.861L693.894 148.047L797.79 286.898V446.536Z" fill="#02826D"/>
<path d="M686.378 376.927V380.217L653.225 361.225V285.182L656.081 286.827V359.58L686.378 376.927Z" fill="#472C22"/>
<path d="M686.377 304.171V376.924L656.08 359.577V286.824L686.377 304.171Z" fill="#663F30"/>
<path d="M667.283 359.355V361L658.262 355.766V335.652L659.615 336.4V355.018L667.283 359.355Z" fill="#472C22"/>
<path d="M667.281 340.812V359.355L659.613 355.019V336.4L667.281 340.812Z" fill="#543427"/>
<path d="M683.221 368.552V370.197L674.199 364.963V344.85L675.628 345.597V364.216L683.221 368.552Z" fill="#472C22"/>
<path d="M683.216 350.009V368.553L675.623 364.216V345.598L683.216 350.009Z" fill="#543427"/>
<path d="M684.27 345.223V346.868L658.107 331.839V320.249L659.536 321.071V331.016L684.27 345.223Z" fill="#472C22"/>
<path d="M684.273 335.277V345.222L659.539 331.015V321.07L684.273 335.277Z" fill="#543427"/>
<path d="M667.283 319.125V320.77L658.262 315.536V295.422L659.615 296.244V314.788L667.283 319.125Z" fill="#472C22"/>
<path d="M667.281 300.584V319.127L659.613 314.791V296.247L667.281 300.584Z" fill="#543427"/>
<path d="M683.221 328.326V329.896L674.199 324.737V304.623L675.628 305.371V323.989L683.221 328.326Z" fill="#472C22"/>
<path d="M683.216 309.779V328.322L675.623 323.985V305.367L683.216 309.779Z" fill="#543427"/>
<path d="M656.603 335.652C657.683 335.652 658.558 334.781 658.558 333.708C658.558 332.634 657.683 331.764 656.603 331.764C655.524 331.764 654.648 332.634 654.648 333.708C654.648 334.781 655.524 335.652 656.603 335.652Z" fill="#91721A"/>
<path d="M657.809 332.511C657.809 332.511 657.809 332.96 657.809 333.109C657.809 333.259 657.809 333.109 657.283 333.109C656.756 333.109 657.283 332.661 657.283 332.586C657.283 332.511 657.659 332.362 657.809 332.511Z" fill="#D6A826"/>
<path d="M673.672 344.026L667.732 340.587V338.792L673.672 342.231V344.026Z" fill="#91721A"/>
<path d="M673.141 343.28L668.18 340.364V339.541L673.141 342.382V343.28Z" fill="#D6A826"/>
<path opacity="0.2" d="M797.79 312.246L692.465 161.207L590.373 175.04V167.861L693.894 148.047L797.79 286.898V312.246Z" fill="black"/>
<path d="M771.632 342.005V356.884L749.379 344.173V329.219L771.632 342.005Z" fill="#0C778F"/>
<path d="M771.632 361.971V384.103L749.379 371.317V349.26L771.632 361.971Z" fill="#0C778F"/>
<path opacity="0.2" d="M770.653 361.449L764.939 358.233L751.031 372.365L756.444 375.431L770.653 361.449Z" fill="white"/>
<path opacity="0.2" d="M762.009 356.512L749.379 369.149V364.214L758.927 354.718L762.009 356.512Z" fill="white"/>
<path opacity="0.2" d="M767.495 339.69L757.722 348.962L753.812 346.719L763.435 337.372L767.495 339.69Z" fill="white"/>
<path opacity="0.2" d="M771.629 342.007V345.745L764.863 353.073L760.127 350.381L769.449 340.811L771.629 342.007Z" fill="white"/>
<path d="M744.717 324.886V373.861L773.736 390.461V341.485L744.717 324.886ZM771.631 384.105L749.077 371.319V349.261L771.631 362.047V384.105ZM771.631 356.963L749.077 344.177V328.998L771.631 341.709V356.963Z" fill="white"/>
<path d="M771.63 356.885V359.801L746.896 345.595V327.799L749.377 329.219V344.174L771.63 356.885Z" fill="#ADADAD"/>
<path d="M771.63 384.104V386.946L746.896 372.739V347.84L749.377 349.261V371.318L771.63 384.104Z" fill="#ADADAD"/>
<path d="M729.6 317.931V332.81L707.348 320.024V305.145L729.6 317.931Z" fill="#0C778F"/>
<path d="M729.6 337.894V360.027L707.348 347.241V325.108L729.6 337.894Z" fill="#0C778F"/>
<path opacity="0.2" d="M728.626 337.372L722.988 334.082L709.08 348.214L714.418 351.28L728.626 337.372Z" fill="white"/>
<path opacity="0.2" d="M719.978 332.362L707.348 345.074V340.064L716.895 330.643L719.978 332.362Z" fill="white"/>
<path opacity="0.2" d="M725.472 315.537L715.774 324.809L711.789 322.566L721.412 313.294L725.472 315.537Z" fill="white"/>
<path opacity="0.2" d="M729.606 317.931V321.67L722.915 328.923L718.104 326.231L727.426 316.66L729.606 317.931Z" fill="white"/>
<path d="M702.768 300.734V349.71L731.711 366.384V317.409L702.768 300.734ZM729.606 360.029L707.053 347.243V324.811L729.606 337.597V360.029ZM729.606 332.812L707.053 320.026V305.071L729.606 317.857V332.812Z" fill="white"/>
<path d="M729.607 332.811V335.652L704.873 321.446V303.725L707.354 305.145V320.025L729.607 332.811Z" fill="#ADADAD"/>
<path d="M729.607 360.027V362.868L704.873 348.661V323.688L707.354 325.108V347.241L729.607 360.027Z" fill="#ADADAD"/>
<path d="M633.073 262.449V277.404L610.82 264.618V249.738L633.073 262.449Z" fill="#0C778F"/>
<path d="M633.073 282.487V304.545L610.82 291.759V269.701L633.073 282.487Z" fill="#0C778F"/>
<path opacity="0.2" d="M632.1 281.891L626.462 278.676L612.479 292.808L617.891 295.873L632.1 281.891Z" fill="white"/>
<path opacity="0.2" d="M623.45 276.954L610.82 289.59V284.655L620.368 275.159L623.45 276.954Z" fill="white"/>
<path opacity="0.2" d="M628.936 260.131L619.163 269.403L615.254 267.16L624.877 257.813L628.936 260.131Z" fill="white"/>
<path opacity="0.2" d="M633.077 262.449V266.188L626.386 273.516L621.574 270.824L630.896 261.253L633.077 262.449Z" fill="white"/>
<path d="M606.238 245.327V294.303L635.182 310.902V261.702L606.238 245.327ZM633.077 304.547L610.523 291.835V269.404L633.077 282.19V304.547ZM633.077 277.404L610.523 264.618V249.664L633.077 262.375V277.404Z" fill="white"/>
<path d="M633.072 277.404V280.245L608.338 266.038V248.317L610.819 249.738V264.618L633.072 277.404Z" fill="#ADADAD"/>
<path d="M633.072 304.546V307.387L608.338 293.255V268.281L610.819 269.702V291.76L633.072 304.546Z" fill="#ADADAD"/>
<path d="M677.731 197.696V212.576L655.479 199.79V184.91L677.731 197.696Z" fill="#0C778F"/>
<path d="M677.731 217.661V239.793L655.479 227.008V204.875L677.731 217.661Z" fill="#0C778F"/>
<path opacity="0.2" d="M676.75 217.064L671.111 213.849L657.203 227.981L662.541 231.046L676.75 217.064Z" fill="white"/>
<path opacity="0.2" d="M668.108 212.129L655.479 224.84V219.83L665.026 210.409L668.108 212.129Z" fill="white"/>
<path opacity="0.2" d="M673.595 195.304L663.821 204.576L659.912 202.333L669.535 192.986L673.595 195.304Z" fill="white"/>
<path opacity="0.2" d="M677.728 197.697V201.436L671.037 208.688L666.301 205.997L675.548 196.426L677.728 197.697Z" fill="white"/>
<path d="M650.891 180.5V229.476L679.834 246.075V197.099L650.891 180.5ZM677.729 239.794L655.176 227.008V204.577L677.729 217.363V239.794ZM677.729 212.577L655.176 199.791V184.837L677.729 197.623V212.577Z" fill="white"/>
<path d="M677.732 212.577V215.418L652.998 201.211V183.49L655.479 184.911V199.791L677.732 212.577Z" fill="#ADADAD"/>
<path d="M677.732 239.793V242.635L652.998 228.428V203.454L655.479 204.875V227.007L677.732 239.793Z" fill="#ADADAD"/>
<path d="M730.583 228.055V242.934L708.33 230.148V215.269L730.583 228.055Z" fill="#0C778F"/>
<path d="M730.583 248.018V270.151L708.33 257.365V235.232L730.583 248.018Z" fill="#0C778F"/>
<path opacity="0.2" d="M729.603 247.422L723.965 244.207L710.057 258.339L715.394 261.405L729.603 247.422Z" fill="white"/>
<path opacity="0.2" d="M721.035 242.487L708.33 255.199V250.189L717.953 240.768L721.035 242.487Z" fill="white"/>
<path opacity="0.2" d="M726.523 225.663L716.75 234.934L712.766 232.691L722.464 223.345L726.523 225.663Z" fill="white"/>
<path opacity="0.2" d="M730.579 228.054V231.793L723.889 239.046L719.152 236.354L728.474 226.783L730.579 228.054Z" fill="white"/>
<path d="M703.742 210.858V259.834L732.686 276.658V227.533L703.742 210.858ZM730.581 270.153L708.027 257.367V234.935L730.581 247.721V270.153ZM730.581 242.936L708.027 230.15V215.195L730.581 227.981V242.936Z" fill="white"/>
<path d="M730.583 242.935V245.776L705.85 231.57V213.849L708.33 215.269V230.149L730.583 242.935Z" fill="#ADADAD"/>
<path d="M730.583 270.152V272.993L705.85 258.786V233.812L708.33 235.233V257.366L730.583 270.152Z" fill="#ADADAD"/>
<path d="M807.336 302.751L693.892 149.917L580.447 172.498V165.544L693.892 143.038L807.336 295.872V302.751Z" fill="#363838"/>
<path d="M980.627 83.0703L951.383 99.894V151.188L980.627 134.364V83.0703Z" fill="#663F30"/>
<path d="M951.378 99.8954L923.111 83.6699V113.205L951.378 151.189V99.8954Z" fill="#543427"/>
<path d="M797.79 333.483L590.373 214.371V207.642L797.79 326.753V333.483Z" fill="#036653"/>
<path d="M797.789 333.482L844.099 306.863L844.475 299.909L797.789 326.752V333.482Z" fill="#02826D"/>
<path d="M797.718 457.006L676.756 387.543V369.373L797.718 438.836V457.006Z" fill="#808080"/>
<path d="M643.525 368.552L570 326.306V308.062L643.525 350.382V368.552Z" fill="#808080"/>
<path d="M949.652 499.999L931.76 489.756V471.586L949.652 481.83V499.999Z" fill="#808080"/>
<path d="M949.652 500.001L1170 373.711V355.467L949.652 481.831V500.001Z" fill="#A3A3A3"/>
<path d="M1154.22 358.381L954.842 472.932V383.355L1154.22 268.879V358.381Z" fill="#00DA7E"/>
<path opacity="0.2" d="M1154.22 285.927L954.842 400.403V383.355L1154.22 268.879V285.927Z" fill="black"/>
<path d="M1109.48 320.472V335.351L1131.73 322.565V307.686L1109.48 320.472Z" fill="#11AACC"/>
<path d="M1109.48 340.435V362.568L1131.73 349.782V327.649L1109.48 340.435Z" fill="#11AACC"/>
<path opacity="0.2" d="M1110.46 339.838L1116.09 336.623L1130 350.755L1124.66 353.821L1110.46 339.838Z" fill="white"/>
<path opacity="0.2" d="M1119.03 334.903L1131.73 347.615V342.605L1122.11 333.184L1119.03 334.903Z" fill="white"/>
<path opacity="0.2" d="M1113.54 318.08L1123.31 327.351L1127.3 325.108L1117.6 315.762L1113.54 318.08Z" fill="white"/>
<path opacity="0.2" d="M1109.48 320.472V324.211L1116.17 331.464L1120.91 328.772L1111.58 319.201L1109.48 320.472Z" fill="white"/>
<path d="M1107.38 319.95V368.85L1136.32 352.251V303.275L1107.38 319.95ZM1109.48 340.437L1132.04 327.651V350.083L1109.48 362.869V340.437ZM1109.48 320.473L1132.04 307.687V322.641L1109.48 335.427V320.473Z" fill="white"/>
<path d="M1109.48 335.352V338.193L1134.21 323.987V306.266L1131.73 307.686V322.566L1109.48 335.352Z" fill="#ADADAD"/>
<path d="M1109.48 362.568V365.409L1134.21 351.202V326.229L1131.73 327.649V349.782L1109.48 362.568Z" fill="#ADADAD"/>
<path d="M951.378 99.8949L923.111 83.6694L952.431 66.8457L980.623 83.0712L951.378 99.8949Z" fill="#C59200"/>
<path d="M1065.95 345.448V360.328L1088.2 347.542V332.662L1065.95 345.448Z" fill="#11AACC"/>
<path d="M1065.95 365.411V387.544L1088.2 374.757V352.625L1065.95 365.411Z" fill="#11AACC"/>
<path opacity="0.2" d="M1066.85 364.886L1072.57 361.596L1086.48 375.728L1081.14 378.793L1066.85 364.886Z" fill="white"/>
<path opacity="0.2" d="M1075.5 359.876L1088.21 372.587V367.578L1078.58 358.156L1075.5 359.876Z" fill="white"/>
<path opacity="0.2" d="M1070.01 343.128L1079.78 352.4L1083.77 350.082L1074.07 340.811L1070.01 343.128Z" fill="white"/>
<path opacity="0.2" d="M1065.95 345.446V349.185L1072.64 356.513L1077.38 353.746L1068.05 344.25L1065.95 345.446Z" fill="white"/>
<path d="M1063.77 344.924V393.899L1092.79 377.225V328.324L1063.77 344.924ZM1066.18 365.411L1088.73 352.625V375.057L1066.18 387.843V365.411ZM1066.18 345.447L1088.73 332.661V347.615L1066.18 360.401V345.447Z" fill="white"/>
<path d="M1065.95 360.325V363.166L1090.68 348.959V331.238L1088.2 332.659V347.539L1065.95 360.325Z" fill="#ADADAD"/>
<path d="M1065.95 387.544V390.386L1090.68 376.179V351.205L1088.2 352.626V374.758L1065.95 387.544Z" fill="#ADADAD"/>
<path d="M1170 266.785L936.568 400.851V396.664L1170 262.673V266.785Z" fill="#5A5B5B"/>
<path d="M936.568 400.851L813.426 309.554V305.367L936.568 396.664V400.851Z" fill="#363838"/>
<path d="M936.568 396.666L813.426 305.37L1046.85 171.304L1170 262.675L936.568 396.666Z" fill="#494949"/>
<path d="M1164.66 352.399L954.614 472.782L942.21 465.529L931.76 471.586L949.652 481.83L1170 355.465L1164.66 352.399Z" fill="#BDBDBD"/>
<path d="M846.581 428.966L797.715 457.006V438.836L846.581 410.797V428.966Z" fill="#A3A3A3"/>
<path d="M846.584 410.799L797.718 438.838L676.756 369.375L686.379 363.842L797.793 427.847L837.036 405.265L846.584 410.799Z" fill="#BDBDBD"/>
<path d="M1056.48 159.714L807.342 302.752V295.873L1056.48 152.76V159.714Z" fill="#5A5B5B"/>
<path d="M951.533 93.3141L934.543 83.5938L952.21 73.4248L969.2 83.2199L951.533 93.3141Z" fill="#966539"/>
<path d="M951.531 93.3141L952.208 73.4248L969.198 83.2199L951.531 93.3141Z" fill="#734D2C"/>
<path d="M653.225 363.017L643.527 368.55V350.38L653.225 344.772V363.017Z" fill="#A3A3A3"/>
<path d="M643.525 350.383L570 308.062L590.373 296.397V308.735L653.223 344.775L643.525 350.383Z" fill="#BDBDBD"/>
</svg>
