<svg width="831" height="654" viewBox="0 0 831 654" fill="none" xmlns="http://www.w3.org/2000/svg">
<path d="M20.9301 477.005C75.8053 393.882 170.122 452.979 410.887 365.632C637.248 294.742 831 399.396 831 468.638C826.198 598.155 581.155 715.587 154.5 617C-21.8129 550.999 -14.7389 550.186 20.9301 477.005Z" fill="#C6FFE7"/>
<line x1="271" y1="499" x2="761" y2="500" stroke="#02826D" stroke-width="2"/>
<line x1="161" y1="499" x2="231" y2="500" stroke="#02826D" stroke-width="2"/>
<path d="M530.681 352.079C531.096 353.327 531.928 354.574 532.76 355.822C536.088 360.397 541.079 363.725 545.654 364.973C546.07 364.973 546.902 365.388 547.317 365.388H547.733C555.636 367.052 563.538 363.309 568.114 357.07C568.529 356.654 568.945 355.822 569.361 355.406C572.689 349.583 579.759 332.531 583.919 318.805C584.75 316.725 585.166 314.646 585.582 312.566C585.582 311.734 585.998 310.903 585.998 310.487V310.071C587.662 304.248 588.91 298.009 590.573 291.354C594.733 273.885 598.06 256.417 600.556 243.939C602.219 236.868 603.467 231.461 603.883 228.134C603.883 227.718 603.883 227.718 603.883 227.302C604.299 226.054 604.299 225.223 604.299 225.223C604.299 225.223 603.467 224.807 602.635 224.391C596.812 223.143 578.096 221.895 563.122 221.063C557.715 220.647 552.724 220.231 548.981 220.231C548.565 220.231 548.565 220.231 548.149 220.231C547.317 220.231 546.902 220.231 546.486 220.231C546.07 220.231 546.07 220.231 545.654 220.231C545.238 220.231 545.238 220.231 544.822 220.231C543.158 220.231 541.91 220.231 541.91 220.231C538.167 234.373 536.919 252.673 541.91 269.726C542.326 271.39 541.495 276.381 540.663 282.204C538.999 290.938 536.503 300.92 536.088 303.416C535.256 309.239 531.928 322.132 531.096 326.708C530.681 329.619 529.433 335.026 529.433 337.522C529.017 344.176 529.433 349.167 530.681 352.079Z" fill="#02826D"/>
<path d="M675.923 257.665V260.243L675.133 264.111L669.476 270.808C669.112 271.219 668.89 271.737 668.845 272.284C668.8 272.832 668.934 273.379 669.227 273.844L667.397 276.048C667.148 276.323 666.963 276.65 666.856 277.005C666.749 277.359 666.723 277.734 666.778 278.1C666.834 278.467 666.971 278.816 667.179 279.123C667.386 279.43 667.66 279.687 667.979 279.875C668.325 280.081 668.705 280.222 669.102 280.291C669.15 280.802 669.339 281.291 669.647 281.702C669.955 282.113 670.371 282.431 670.849 282.62C671.664 282.966 672.574 283.018 673.424 282.767C674.273 282.517 675.01 281.98 675.507 281.247L682.037 270.641V270.35V270.059C682.057 269.977 682.057 269.892 682.037 269.81C682.037 269.81 682.037 269.81 682.037 269.477L682.869 257.665C682.859 257.251 682.765 256.844 682.592 256.468C682.419 256.092 682.171 255.756 681.863 255.479C681.556 255.203 681.195 254.992 680.803 254.86C680.411 254.728 679.996 254.678 679.583 254.712C678.711 254.64 677.844 254.907 677.163 255.456C676.482 256.006 676.038 256.797 675.923 257.665Z" fill="#015648"/>
<path d="M661.572 229.756V237.201C661.493 238.997 661.82 240.789 662.529 242.441L664.442 246.601C664.649 247.133 664.776 247.694 664.816 248.264L665.19 258.954C665.236 259.368 665.365 259.77 665.569 260.134C665.773 260.498 666.048 260.818 666.378 261.074C666.707 261.33 667.085 261.517 667.488 261.624C667.892 261.732 668.313 261.757 668.726 261.699C669.587 261.699 670.415 261.366 671.036 260.769C671.656 260.171 672.021 259.357 672.053 258.496L671.845 251.342L675.963 257.664L677.835 268.395L673.966 278.959C673.827 279.344 673.773 279.755 673.81 280.162C673.847 280.57 673.973 280.964 674.179 281.318C674.386 281.671 674.667 281.975 675.004 282.207C675.341 282.439 675.725 282.594 676.129 282.661C676.956 282.85 677.823 282.746 678.582 282.367C679.34 281.987 679.944 281.356 680.288 280.582C680.288 280.582 684.448 268.104 684.448 267.854C684.448 267.605 684.697 258.954 684.448 256.208C684.368 255.549 684.243 254.896 684.073 254.254C683.041 248.182 681.047 242.313 678.167 236.868L674.757 227.718L661.572 229.756Z" fill="#006456"/>
<path d="M609.791 106.143L613.95 131.888L621.27 176.142C621.714 178.776 622.848 181.244 624.556 183.296C624.724 183.528 624.904 183.75 625.097 183.962C626.879 185.913 629.124 187.382 631.626 188.232C634.127 189.083 636.803 189.288 639.405 188.828H639.737C641.843 188.43 643.844 187.604 645.619 186.403C647.393 185.201 648.902 183.648 650.052 181.84C652.216 178.509 653.02 174.475 652.298 170.569L650.967 162.251L640.86 100.361C640.083 96.308 637.738 92.7247 634.336 90.3888C630.933 88.0529 626.747 87.1528 622.685 87.8836H622.393C620.367 88.2541 618.433 89.0204 616.702 90.1387C614.972 91.2571 613.478 92.7055 612.308 94.4013C611.138 96.097 610.313 98.0068 609.881 100.021C609.449 102.036 609.418 104.116 609.791 106.143Z" fill="#02826D"/>
<path d="M623.388 177.392C623.346 177.668 623.346 177.948 623.388 178.224C623.364 179.775 623.589 181.319 624.054 182.799C624.146 183.124 624.257 183.443 624.386 183.756C624.531 184.213 624.711 184.658 624.927 185.086L646.721 216.364L652.128 224.391L657.951 232.71L661.57 237.285L674.713 227.552L666.686 205.425L657.119 179.18L653.459 171.278C653.118 170.516 652.7 169.792 652.211 169.115C650.011 165.957 646.724 163.72 642.978 162.835C639.582 161.984 635.995 162.337 632.829 163.833H632.58H632.33C629.774 165.039 627.594 166.92 626.026 169.272C624.457 171.625 623.56 174.36 623.43 177.184L623.388 177.392Z" fill="#02826D"/>
<path d="M643.646 218.069L654.044 229.216L661.572 237.243L661.614 237.201L676.213 231.42L666.647 205.425L648.637 215.324L646.724 216.364L643.646 218.069Z" fill="#006456"/>
<path opacity="0.1" d="M613.823 180.677L622.724 192.323C623.264 189.412 623.805 186.542 624.387 183.589C624.532 184.046 624.712 184.491 624.928 184.92L646.722 216.363L643.645 218.069L654.209 229.174L652.129 224.391L648.636 215.532L638.362 189.162L635.326 181.301C634.138 175.603 633.291 169.839 632.789 164.04C631.865 154.266 632.005 144.42 633.205 134.676C633.2 134.579 633.2 134.482 633.205 134.385C633.662 130.559 634.328 126.732 635.16 122.947L619.396 165.621L613.823 180.677Z" fill="#1D1D1B"/>
<path d="M348.38 428.608L348.63 420.29C347.544 420.273 346.475 420.018 345.498 419.544C344.52 419.07 343.659 418.387 342.973 417.545C339.624 412.503 338.275 406.393 339.188 400.409C339.685 396.017 341.31 391.828 343.905 388.25C346.499 384.671 349.975 381.825 353.995 379.987C359.155 378.206 364.553 377.21 370.008 377.034C374.774 376.781 379.507 376.099 384.15 374.996C400.787 370.504 415.885 356.695 424.369 338.104C427.336 331.615 430.109 325.321 432.688 319.221C439.343 304.497 445.623 290.564 452.07 277.254C455.272 270.683 459.182 260.825 456.229 251.051C454.93 246.061 451.822 241.732 447.511 238.903C443.199 236.075 437.991 234.95 432.896 235.745C420.834 237.201 416.508 246.268 412.724 254.295L412.349 255.127C410.27 259.286 408.19 264.028 406.235 268.603C403.615 274.468 400.911 280.54 397.917 286.113L405.362 289.857C408.232 284.117 410.977 277.92 413.68 271.972C415.677 267.438 417.839 262.946 419.669 258.704L420.085 257.831C423.995 249.512 426.574 244.854 433.728 243.98C435.331 243.625 436.989 243.59 438.605 243.877C440.222 244.164 441.767 244.767 443.15 245.652C444.533 246.536 445.728 247.686 446.667 249.033C447.605 250.381 448.268 251.901 448.618 253.505C450.157 258.954 448.992 265.192 444.791 273.802C438.261 287.028 431.981 301.003 425.451 315.893C422.678 321.994 419.905 328.274 417.132 334.735C409.646 351.122 396.669 363.184 382.32 367.01C378.223 367.989 374.047 368.601 369.842 368.84C363.543 369.079 357.317 370.271 351.375 372.376C345.999 374.774 341.338 378.525 337.846 383.264C334.354 388.002 332.151 393.566 331.452 399.411C330.22 407.719 332.279 416.181 337.192 422.993C338.576 424.642 340.283 425.99 342.207 426.956C344.131 427.921 346.231 428.484 348.38 428.608Z" fill="#3C3C3B"/>
<path d="M406.361 286.903L342.476 414.633L339.356 412.845L400.289 283.95L406.361 286.903Z" fill="#00DA7E"/>
<path d="M404.904 270.973L413.805 275.382C414.342 275.651 414.752 276.119 414.947 276.687C415.141 277.255 415.105 277.877 414.845 278.418L399.29 310.236C399.021 310.774 398.552 311.184 397.984 311.378C397.416 311.573 396.795 311.536 396.253 311.276L387.311 306.868C386.774 306.599 386.364 306.13 386.169 305.562C385.975 304.994 386.011 304.373 386.271 303.831L401.827 272.013C401.955 271.738 402.138 271.492 402.364 271.289C402.59 271.087 402.855 270.932 403.143 270.835C403.431 270.738 403.735 270.7 404.038 270.724C404.341 270.747 404.636 270.832 404.904 270.973Z" fill="#3C3C3B"/>
<path d="M388.021 304.829C386.664 304.536 385.398 303.923 384.327 303.04C383.256 302.157 382.412 301.031 381.865 299.755C381.578 298.77 381.451 297.745 381.491 296.719C382.102 290.71 383.046 284.739 384.319 278.834C384.97 273.212 384.301 267.516 382.364 262.197C383.955 262.117 385.531 262.534 386.873 263.391C388.215 264.249 389.256 265.503 389.851 266.98C391.008 269.977 391.24 273.251 390.516 276.38C389.832 279.495 389.332 282.648 389.019 285.822C388.858 287.407 389.025 289.009 389.512 290.526C389.999 292.043 390.794 293.444 391.847 294.639C393.428 296.261 396.007 297.384 396.381 299.63C396.54 300.6 396.373 301.596 395.906 302.461C395.44 303.327 394.7 304.013 393.802 304.413C391.987 305.241 389.936 305.388 388.021 304.829Z" fill="#00DA7E"/>
<path d="M389.89 299.256C390.072 299.023 390.299 298.829 390.557 298.684C390.815 298.539 391.099 298.447 391.392 298.412C391.686 298.377 391.984 298.401 392.268 298.481C392.553 298.562 392.819 298.698 393.051 298.882C393.52 299.251 393.822 299.792 393.893 300.385C393.963 300.977 393.795 301.574 393.425 302.043C393.056 302.511 392.515 302.814 391.922 302.884C391.329 302.955 390.733 302.786 390.264 302.417C390.027 302.238 389.828 302.013 389.68 301.755C389.532 301.497 389.437 301.212 389.402 300.916C389.367 300.621 389.393 300.322 389.476 300.036C389.56 299.751 389.701 299.485 389.89 299.256Z" fill="#0D4D4D"/>
<path d="M346.647 416.692L350.607 418.628L344.014 432.117L340.053 430.181L346.647 416.692Z" fill="#3C3C3B"/>
<path d="M444.419 274.259L437.39 288.899L444.378 292.268L451.365 277.628L444.419 274.259Z" fill="#00DA7E"/>
<path d="M411.676 290.014L459.961 313.408L388.981 459.911L340.696 436.517L411.676 290.014Z" fill="#FE0782"/>
<path d="M410.472 279.733L468.926 307.99L464.31 317.539L405.856 289.281L410.472 279.733Z" fill="#3C3C3B"/>
<path d="M423.631 278.382L461.789 296.828L458.784 303.044L420.626 284.598L423.631 278.382Z" fill="#FE0782"/>
<path d="M335.617 432.78L395.156 461.562L390.54 471.111L331.001 442.329L335.617 432.78Z" fill="#3C3C3B"/>
<path d="M386.774 340.928L435.164 364.582L414.78 406.284L366.39 382.63L386.774 340.928Z" fill="#FED0A9"/>
<path d="M427.729 254.893L477.24 279.095L472.893 287.988L423.382 263.786L427.729 254.893Z" fill="#D3996A"/>
<path d="M443.506 264.403L440.553 270.476C440.536 270.628 440.536 270.781 440.553 270.933C440.239 271.731 440.221 272.614 440.504 273.423C440.786 274.233 441.35 274.913 442.092 275.342L452.032 280.167C452.831 280.548 453.743 280.623 454.593 280.378C455.444 280.133 456.176 279.584 456.649 278.836C456.805 278.732 456.945 278.606 457.065 278.462L460.018 272.347C460.187 271.935 460.299 271.501 460.351 271.058C460.412 270.331 460.25 269.603 459.885 268.971C459.521 268.339 458.972 267.834 458.313 267.523L448.372 262.698C447.705 262.336 446.938 262.201 446.188 262.314C445.438 262.427 444.744 262.78 444.213 263.322C443.904 263.629 443.663 263.997 443.506 264.403Z" fill="#3C3C3B"/>
<path opacity="0.5" d="M346.178 434.265L412.6 295.722L418.174 298.467L346.178 434.265Z" fill="white"/>
<path d="M508.39 254.337C507.078 256.131 505.332 257.562 503.315 258.496C499.185 260.593 494.772 262.078 490.214 262.904C484.516 264.152 482.977 250.427 483.725 249.387C484.078 248.93 484.561 248.591 485.11 248.413C485.659 248.235 486.249 248.226 486.803 248.389C489.299 249.262 489.091 253.796 491.711 254.295C492.625 254.349 493.531 254.101 494.29 253.588C496.369 252.34 498.449 250.302 498.033 247.931C497.494 246.351 496.581 244.924 495.371 243.772C494.068 241.663 493.33 239.255 493.228 236.778C493.126 234.301 493.663 231.839 494.789 229.631C497.16 226.137 502.151 226.636 506.227 227.759C507.117 228.011 507.946 228.445 508.661 229.031C509.377 229.618 509.964 230.346 510.386 231.17C510.509 238.94 509.84 246.702 508.39 254.337Z" fill="#006456"/>
<path d="M447.123 456.1C447.099 456.269 447.109 456.44 447.152 456.604C447.195 456.768 447.27 456.922 447.372 457.057L448.121 457.972L450.201 460.592C451.013 461.619 451.949 462.541 452.987 463.338L458.103 467.497L458.81 467.996L460.016 468.953L461.347 469.992C461.565 470.146 461.774 470.313 461.971 470.491L475.156 481.763L480.313 486.172C486.491 491.246 493.769 494.806 501.567 496.57C501.87 496.632 502.184 496.588 502.458 496.443C502.731 496.299 502.945 496.065 503.064 495.78C505.269 492.161 507.598 489.582 506.849 486.837C505.544 482.577 503.314 478.657 500.319 475.358L498.614 472.904C495.88 469.635 493.405 466.159 491.211 462.506C490.079 459.755 489.283 456.879 488.84 453.938C488.736 453.04 488.736 452.132 488.84 451.234C488.919 450.098 489.157 448.978 489.547 447.907L473.159 435.887L470.997 434.306C470.816 434.546 470.649 434.796 470.498 435.055C469.331 436.551 467.926 437.844 466.338 438.881L465.714 439.256C463.843 440.42 462.179 441.044 461.763 441.377C456.457 445.841 451.557 450.769 447.123 456.1Z" fill="#3C3C3B"/>
<path d="M465.465 439.213C465.995 440.073 466.638 440.856 467.378 441.543C468.082 442.216 468.864 442.802 469.708 443.289L470.123 443.581L488.757 453.896L491.211 455.268C492.206 455.806 493.291 456.159 494.413 456.308C495.955 456.457 497.508 456.196 498.918 455.554C500.327 454.911 501.542 453.909 502.441 452.648L567.865 357.485L550.23 346.712L542.494 342.054L531.306 335.274L528.81 337.687C527.271 339.184 525.774 340.681 524.277 342.22C507.404 359.641 492.494 378.861 479.814 399.534C477.402 403.416 475.031 407.368 472.702 411.388C470.373 415.547 468.127 419.457 465.839 423.575C465.603 423.874 465.394 424.194 465.216 424.531C463.828 426.739 463.113 429.302 463.157 431.91C463.201 434.517 464.003 437.054 465.465 439.213Z" fill="#02826D"/>
<path d="M541.911 269.81C544.87 274.995 549.036 279.389 554.056 282.62C564.571 294.145 574.496 306.194 583.794 318.722C594.317 332.531 604.299 345.424 606.961 349.459C609.55 353.617 612.876 357.268 616.777 360.231C617.255 360.509 617.756 360.745 618.274 360.938H618.607C621.735 362.226 625.092 362.863 628.474 362.813C631.855 362.763 635.192 362.026 638.28 360.647H638.613C642.015 359.007 644.891 356.447 646.912 353.257C648.934 350.066 650.021 346.373 650.051 342.596V342.014C650.051 341.307 650.051 340.6 650.051 339.893C647.387 326.47 643.201 313.394 637.573 300.921C636.284 297.884 634.994 294.723 633.414 291.562C632.707 289.94 632 288.277 631.334 286.613C624.971 272.014 618.108 257.498 612.618 246.102C608.791 238.2 605.672 231.919 603.842 228.342L603.634 227.968L602.261 225.14C601.845 224.141 580.093 222.602 562.832 221.646C557.425 221.355 552.517 221.105 548.815 220.98H548.108H546.32H544.822C543.867 220.917 542.908 220.917 541.952 220.98C535.589 236.494 533.592 255.377 541.911 269.81Z" fill="#02826D"/>
<path d="M613.616 495.862C613.8 496.155 614.079 496.376 614.407 496.486L619.106 497.692H619.564C620.778 497.981 622.018 498.148 623.266 498.192H631.251H634.704H635.577L654.252 499.439L661.572 499.938C670.139 500.341 678.683 498.746 686.528 495.28C686.826 495.131 687.066 494.886 687.209 494.584C687.352 494.283 687.39 493.942 687.318 493.616C686.902 489.041 687.318 485.298 684.822 483.468C680.95 480.694 676.523 478.792 671.845 477.895L668.768 476.855C664.319 475.789 659.954 474.399 655.708 472.696C652.609 470.817 649.806 468.49 647.389 465.791C647.056 465.375 646.765 464.918 646.433 464.46C645.755 463.42 645.236 462.285 644.894 461.091H622.143H620.105C620.176 463.491 619.766 465.881 618.898 468.12C618.898 468.37 618.691 468.578 618.649 468.744C617.734 471.032 616.736 472.612 616.569 473.153C614.891 480.616 613.902 488.218 613.616 495.862Z" fill="#3C3C3B"/>
<path d="M538.751 98.4907C538.751 101.111 539 106.809 539.208 114.462C539.208 116.334 539.208 120.327 539.458 124.361C539.458 129.394 539.749 134.551 539.79 135.882C540.248 153.684 541.329 197.896 541.912 220.439C542.119 228.758 542.244 233.957 542.244 233.957L550.105 235.288L600.681 243.897L612.618 245.894C612.618 245.894 616.778 224.141 621.893 197.106L622.767 192.323C623.308 189.411 623.848 186.541 624.431 183.588C624.412 183.45 624.412 183.311 624.431 183.173C625.387 178.098 626.344 172.941 627.259 167.825C629.38 156.221 631.418 144.783 633.207 134.551C633.201 134.454 633.201 134.357 633.207 134.26C633.914 130.101 634.537 126.399 635.161 122.822C637.066 113.751 638.262 104.545 638.738 95.2881L638.364 94.7058L637.99 94.1651L637.324 93.3748C636.635 92.4653 635.855 91.6291 634.995 90.8793C633.945 89.9591 632.802 89.1506 631.584 88.4669L629.962 87.5935C627.675 86.4289 625.304 85.2643 622.85 84.1413L622.143 83.8086L617.984 82.1033L590.99 70.3743C589.034 70.2742 587.072 70.4564 585.167 70.915C585.031 70.8798 584.888 70.8798 584.752 70.915C583.005 71.2477 581.216 71.7052 579.386 72.2044C575.643 73.2026 571.941 74.3672 569.321 74.8247C558.465 76.7795 546.653 79.3166 541.371 87.3023C539.335 90.6604 538.418 94.5779 538.751 98.4907Z" fill="#02826D"/>
<path d="M585.127 72.37C588.246 88.0503 611.372 99.6129 616.404 88.6326C616.404 88.3414 617.236 85.6379 618.193 81.853C618.193 81.853 618.193 81.853 618.193 81.6035C618.375 81.0293 618.528 80.4463 618.65 79.8566C618.65 79.5238 618.734 79.1495 618.9 78.7336C619.274 77.4026 619.607 75.9885 619.94 74.5744C622.311 65.2161 624.848 54.6517 624.848 54.6517L610.498 48.496L607.67 47.3314H607.296L604.343 46.0837L600.183 44.2536L592.946 41.1758L591.324 47.7474L589.993 53.3207L587.581 63.0533L586.167 68.5851V68.8762L585.668 70.8727L585.46 71.7461L585.127 72.37Z" fill="#FFC990"/>
<path d="M607.545 456.018C607.533 459.193 608.639 462.271 610.67 464.712C612.701 467.154 615.526 468.802 618.65 469.369C618.926 469.404 619.206 469.404 619.482 469.369C620.614 469.514 621.76 469.514 622.892 469.369H623.974L646.766 466.374H647.39C648.319 466.232 649.209 465.907 650.011 465.417C651.334 464.63 652.42 463.499 653.152 462.144C653.884 460.789 654.236 459.261 654.17 457.723L650.052 342.595V342.013L622.393 344.592L619.69 344.841L607.628 346.006C607.42 347.171 607.212 348.294 607.046 349.458C601.811 384.798 601.979 420.728 607.545 456.018Z" fill="#02826D"/>
<path d="M495.452 221.312H510.675L521.738 155.638L522.071 153.225C522.693 149.118 521.664 144.932 519.209 141.581C516.754 138.23 513.073 135.986 508.969 135.341H508.636C505.305 134.774 501.879 135.307 498.877 136.86C495.875 138.414 493.461 140.903 492 143.95C491.294 145.363 490.816 146.88 490.585 148.442C488.547 171.36 493.414 195.649 495.452 221.312Z" fill="#02826D"/>
<path d="M588.909 47.2067C587.994 51.8651 596.729 49.4943 601.387 51.0332H601.637C600.88 53.3983 600.515 55.8708 600.555 58.3535C600.797 64.6752 603.359 70.6863 607.751 75.2399C609.472 77.0043 611.521 78.4169 613.781 79.3991L620.104 81.4788C621.41 81.8844 622.801 81.9325 624.133 81.6179C625.464 81.3034 626.687 80.6377 627.673 79.6903C628.226 79.4485 628.755 79.1561 629.254 78.8169C630.785 77.0652 631.958 75.0304 632.706 72.8276C632.706 72.8276 635.16 61.5145 635.742 59.5596H638.82C639.294 59.5917 639.77 59.5205 640.214 59.3508C640.658 59.1812 641.06 58.9173 641.392 58.5772C641.724 58.2372 641.979 57.8291 642.138 57.3812C642.297 56.9332 642.357 56.4561 642.314 55.9827L641.274 48.2049L641.024 46.4581C641.91 45.4626 642.743 44.4213 643.52 43.3387C644.009 41.3254 644.37 39.2833 644.601 37.2246C645.001 33.8165 644.889 30.3678 644.269 26.9929C643.338 22.3268 641.167 17.9979 637.983 14.4624C634.798 10.9269 630.72 8.3157 626.176 6.90383C620.343 4.61911 614.089 3.6121 607.834 3.95078C600.347 5.03218 592.902 10.3976 587.87 25.9947C586.497 33.0654 589.866 42.0077 588.909 47.2067Z" fill="#FFC990"/>
<path d="M587.661 54.2358C593.276 57.2721 596.77 57.0641 598.933 55.3172L599.598 54.6518C600.504 53.6136 601.146 52.3724 601.47 51.0332C602.372 46.8184 602.457 42.4696 601.719 38.2228C601.719 38.2228 604.173 46.5413 605.213 49.2032C607.277 49.8292 609.374 50.3429 611.494 50.7421C619.812 25.7867 618.273 13.3091 644.352 27.0345C643.561 14.9728 633.413 2.82781 624.263 2.57826C618.707 2.31734 613.139 2.55397 607.626 3.28533C603.426 3.57078 599.394 5.04381 595.999 7.53276C592.604 10.0217 589.987 13.4241 588.452 17.3435C585.332 25.7451 583.045 30.2787 587.661 54.2358Z" fill="#3C3C3B"/>
<path d="M597.688 39.2224C596.399 43.8391 598.77 50.3275 601.848 51.201C604.926 52.0744 605.633 48.2063 607.005 43.5896C607.92 40.5118 609.917 36.3525 607.005 34.4393C604.094 32.5261 599.643 32.4013 597.688 39.2224Z" fill="#FFC990"/>
<path d="M644.851 33.0658L621.434 30.3208L598.434 27.6173H597.685H596.729L585.707 26.2863L588.577 15.098C590.102 10.7691 592.909 7.00657 596.623 4.30997C600.337 1.61337 604.784 0.110203 609.373 0L623.888 0.0831845C636.366 0.37433 645.184 11.5626 645.184 24.1651V25.2881V28.1996L644.851 33.0658Z" fill="#006456"/>
<path d="M668.52 35.9362C666.714 37.6327 664.509 38.8461 662.11 39.4641C659.711 40.0821 657.195 40.0847 654.794 39.4716C650.482 38.784 646.217 37.8255 642.025 36.6017C636.868 35.2292 622.186 30.5292 621.229 30.2797C628.934 28.2823 636.918 27.5795 644.854 28.2001C644.854 28.2001 650.053 29.6974 655.584 31.4027C660.019 32.5374 664.347 34.0542 668.52 35.9362Z" fill="#006456"/>
<path opacity="0.1" d="M641.027 46.4159L641.276 48.2043C625.679 43.4212 611.496 34.4789 596.731 27.4082H597.687L598.27 27.6578L621.27 30.3613C622.019 30.6108 636.701 35.3107 642.066 36.6833L644.604 37.224C644.376 39.2725 644 41.3019 643.481 43.2964C642.733 44.3899 641.913 45.432 641.027 46.4159Z" fill="#050504"/>
<path opacity="0.1" d="M603.176 63.0115C602.181 61.6174 601.357 60.1094 600.722 58.5195C600.964 64.8412 603.525 70.8524 607.917 75.406C609.639 77.1704 611.687 78.583 613.948 79.5652L620.27 81.6448C621.576 82.0505 622.968 82.0985 624.299 81.784C625.63 81.4694 626.853 80.8038 627.84 79.8564C628.341 79.5529 628.815 79.2049 629.254 78.8166C627.051 78.7682 624.865 78.4041 622.766 77.7352C618.84 76.393 615.169 74.3961 611.91 71.8291C608.535 69.3882 605.584 66.4093 603.176 63.0115Z" fill="#050504"/>
<path d="M488.799 245.685C487.944 247.445 487.823 249.472 488.463 251.32C489.102 253.169 490.45 254.688 492.21 255.543C493.969 256.398 495.996 256.519 497.845 255.879C499.693 255.239 501.212 253.892 502.067 252.132C502.922 250.373 503.043 248.346 502.403 246.497C501.764 244.649 500.416 243.13 498.656 242.275C496.897 241.42 494.87 241.299 493.021 241.939C491.173 242.578 489.654 243.926 488.799 245.685Z" fill="#4D4D4D"/>
<path d="M388.022 479.85L380.535 476.232L491.587 247.474C491.815 246.971 492.141 246.518 492.546 246.143C492.951 245.767 493.427 245.476 493.946 245.286C494.465 245.096 495.016 245.012 495.568 245.038C496.12 245.063 496.661 245.199 497.16 245.436C497.654 245.679 498.095 246.018 498.457 246.433C498.819 246.848 499.095 247.33 499.269 247.852C499.443 248.375 499.512 248.926 499.471 249.476C499.43 250.025 499.281 250.56 499.032 251.051L388.022 479.85Z" fill="#3C3C3B"/>
<path d="M371.384 471.823C370.061 474.338 369.519 477.191 369.828 480.016C370.136 482.841 371.282 485.51 373.117 487.68C374.952 489.849 377.394 491.422 380.129 492.195C382.864 492.968 385.767 492.906 388.467 492.018C391.166 491.13 393.539 489.456 395.281 487.211C397.023 484.965 398.055 482.251 398.244 479.415C398.433 476.579 397.771 473.752 396.342 471.295C394.913 468.838 392.784 466.864 390.226 465.626C388.582 464.794 386.79 464.295 384.953 464.157C383.116 464.018 381.27 464.243 379.52 464.819C377.77 465.395 376.151 466.309 374.755 467.511C373.359 468.713 372.214 470.178 371.384 471.823Z" fill="#3C3C3B"/>
<path d="M377.87 474.942C377.211 476.186 376.937 477.598 377.085 478.999C377.234 480.399 377.796 481.723 378.702 482.801C379.607 483.88 380.814 484.663 382.167 485.051C383.521 485.44 384.96 485.415 386.299 484.98C387.638 484.546 388.817 483.721 389.685 482.612C390.553 481.503 391.07 480.161 391.17 478.756C391.27 477.352 390.948 475.949 390.246 474.729C389.543 473.508 388.493 472.525 387.229 471.906C386.415 471.489 385.527 471.237 384.616 471.164C383.705 471.091 382.789 471.199 381.919 471.481C381.05 471.763 380.245 472.214 379.55 472.808C378.855 473.402 378.284 474.127 377.87 474.942Z" fill="#CCCCCC"/>
<path opacity="0.1" d="M488.671 454.397L491.166 455.644C491.998 456.06 493.246 456.476 494.494 456.476C497.405 456.892 500.733 455.644 502.396 452.733L567.696 357.487C568.112 357.071 568.528 356.239 568.944 355.823C572.271 350 579.342 332.947 583.501 319.222C593.899 332.531 603.881 345.841 606.793 349.584C601.386 383.274 602.218 419.043 607.209 456.06C607.209 462.715 612.2 468.122 618.439 469.37C617.607 471.449 616.359 473.113 616.359 473.945C615.527 476.025 612.616 494.741 613.448 495.989C613.448 496.405 613.863 496.405 614.279 496.405L618.855 497.652H619.27L623.43 468.954C622.598 466.458 621.766 463.963 620.934 461.467C611.368 427.777 610.536 394.088 617.607 360.814C618.855 355.407 620.102 350 621.766 344.593C622.182 343.345 622.598 342.097 623.014 340.85C608.872 332.531 596.811 322.133 585.997 310.071C571.855 293.85 559.794 274.718 549.811 254.754C547.316 247.267 547.732 241.028 549.811 235.621C551.891 229.798 556.466 225.223 562.705 221.896C553.139 188.622 543.573 155.348 548.98 126.234L549.811 114.172L539.413 124.57L529.015 135.384V148.278L540.245 136.216C540.661 153.685 541.909 198.188 542.325 220.648C536.086 236.869 534.006 255.586 542.325 270.143C542.741 271.807 541.909 276.798 541.077 282.621L560.625 311.735C564.369 325.045 559.794 336.69 551.059 347.089C550.227 347.92 549.811 348.752 548.98 349.584C548.98 354.575 548.148 359.982 546.484 365.389C537.75 390.344 514.874 417.795 488.671 454.397Z" fill="#1D1D1B"/>
<path d="M622.309 15.4307L625.096 22.6261L585.749 31.9844C584.46 29.3641 586.956 26.411 586.373 23.6659L622.309 15.4307Z" fill="#3C3C3B"/>
<path opacity="0.5" d="M640.857 28.0342C639.427 28.8769 637.815 29.362 636.157 29.4484H634.494H631.79C630.811 29.4462 629.858 29.1299 629.072 28.5459C628.286 27.9619 627.708 27.1411 627.423 26.2042L624.761 17.6362C624.32 16.1752 624.352 14.6122 624.852 13.1705C625.353 11.7288 626.296 10.4822 627.548 9.60888C628.356 9.04213 629.279 8.65886 630.251 8.48589H630.875H630.917C633.412 8.11156 635.492 8.11156 637.363 8.11156C639.58 8.00057 641.801 8.00057 644.018 8.11156L646.223 17.345C646.492 18.414 646.528 19.5286 646.327 20.6126C646.126 21.6965 645.693 22.7243 645.058 23.6255L643.935 25.206C643.12 26.3554 642.071 27.3193 640.857 28.0342Z" fill="#FED0A9"/>
<path d="M621.186 18.7985C620.395 16.2039 620.615 13.4058 621.804 10.9673C622.992 8.52882 625.06 6.63089 627.591 5.65539H628.215C628.908 5.44355 629.618 5.29051 630.336 5.19788C633.913 4.86514 637.657 4.5324 640.776 4.44922H641.15C641.15 4.82355 641.4 5.23947 641.566 5.6138H640.776C637.823 5.6138 634.163 5.98813 630.461 6.36246C629.812 6.42289 629.171 6.5483 628.548 6.73679C626.127 7.49298 624.105 9.1796 622.928 11.4258C621.75 13.6721 621.512 16.2941 622.267 18.7154L625.096 27.0338C625.549 28.5102 626.474 29.7974 627.728 30.6987C628.983 31.6 630.498 32.0658 632.042 32.0249H636.201C637.301 31.9886 638.392 31.8068 639.445 31.4842C642.063 30.5997 644.324 28.8927 645.892 26.6179C646.1 26.2852 646.225 25.9524 646.391 25.6197L646.932 26.9506V27.2002C645.386 29.4276 643.194 31.1264 640.651 32.0665L639.903 32.3576C638.752 32.6961 637.565 32.8917 636.367 32.9399H632.208C630.08 32.9985 628.011 32.2393 626.427 30.8187C625.362 29.8328 624.573 28.5853 624.139 27.2002L621.186 18.7985Z" fill="#00DA7E"/>
<path opacity="0.5" d="M630.419 9.64844L634.121 28.5729H631.459L627.882 10.6051C628.67 10.1496 629.527 9.8264 630.419 9.64844Z" fill="white"/>
<path opacity="0.5" d="M637.573 8.90137L640.359 26.994C638.942 27.8362 637.346 28.3347 635.701 28.4497H634.952L631.251 9.48366C633.705 9.19251 635.826 8.98455 637.573 8.90137Z" fill="white"/>
<path d="M497.117 227.759L510.676 233.457L514.627 198.021H490.212L497.117 227.759Z" fill="#006456"/>
<path d="M585.956 68.3787V68.6698C586.059 68.5132 586.185 68.373 586.33 68.2539C586.224 68.3378 586.091 68.3819 585.956 68.3787Z" fill="#3C3C3B"/>
<path d="M393.966 388.098C393.413 387.637 392.797 387.259 392.136 386.975L393.217 384.687L391.304 383.814C390.997 384.614 390.562 385.359 390.015 386.018L387.686 384.978C388.517 383.315 389.349 381.693 390.223 380.071C390.324 379.774 390.324 379.452 390.223 379.155C390.137 378.872 389.962 378.624 389.724 378.448C388.756 377.492 388.038 376.314 387.632 375.016C387.226 373.718 387.145 372.34 387.394 371.003C387.646 369.674 388.25 368.437 389.143 367.42C390.035 366.403 391.183 365.644 392.469 365.222C393.521 364.911 394.618 364.785 395.713 364.848C399.069 364.812 402.333 365.945 404.946 368.05C406.271 369.085 407.318 370.432 407.993 371.971C408.668 373.51 408.95 375.193 408.814 376.868C408.592 378.514 407.851 380.046 406.699 381.242C405.548 382.439 404.045 383.237 402.409 383.523C401.908 383.51 401.411 383.61 400.954 383.814C400.438 384.164 400.033 384.654 399.789 385.228L397.501 389.637L395.755 388.514L397.127 386.143L395.63 385.478L393.966 388.098Z" fill="#3C3C3B"/>
<path d="M406.485 367.51C405.968 368.607 405.788 369.832 405.969 371.031C406.15 372.23 406.684 373.348 407.501 374.243C408.319 375.138 409.385 375.77 410.563 376.058C411.741 376.346 412.977 376.277 414.116 375.86C415.255 375.444 416.244 374.698 416.958 373.718C417.671 372.737 418.077 371.567 418.124 370.356C418.171 369.144 417.857 367.946 417.221 366.913C416.585 365.881 415.657 365.061 414.554 364.557C413.831 364.221 413.048 364.03 412.25 363.997C411.453 363.963 410.657 364.087 409.908 364.361C409.158 364.635 408.47 365.055 407.883 365.595C407.296 366.135 406.821 366.786 406.485 367.51Z" fill="#3C3C3B"/>
<path d="M386.607 358.359C386.083 359.453 385.895 360.678 386.07 361.879C386.244 363.08 386.771 364.202 387.585 365.102C388.399 366.002 389.462 366.64 390.639 366.934C391.816 367.228 393.054 367.165 394.195 366.753C395.337 366.341 396.33 365.599 397.048 364.621C397.766 363.643 398.177 362.474 398.229 361.261C398.28 360.049 397.97 358.849 397.337 357.814C396.705 356.778 395.778 355.955 394.676 355.447C393.956 355.104 393.175 354.907 392.378 354.868C391.581 354.828 390.784 354.948 390.034 355.218C389.283 355.489 388.594 355.906 388.006 356.445C387.417 356.984 386.942 357.635 386.607 358.359Z" fill="#3C3C3B"/>
<path d="M398.168 377.2C397.959 377.656 397.89 378.164 397.97 378.659C398.049 379.154 398.274 379.614 398.615 379.982C398.956 380.35 399.398 380.608 399.886 380.724C400.374 380.841 400.885 380.81 401.356 380.636C401.826 380.461 402.234 380.152 402.529 379.746C402.823 379.34 402.99 378.855 403.01 378.354C403.029 377.853 402.9 377.358 402.637 376.93C402.375 376.503 401.992 376.162 401.537 375.952C401.234 375.813 400.906 375.734 400.573 375.721C400.239 375.708 399.906 375.761 399.593 375.877C399.28 375.993 398.993 376.17 398.749 376.397C398.504 376.624 398.307 376.897 398.168 377.2Z" fill="#FED0A9"/>
<path d="M391.512 374.121C391.241 374.735 391.22 375.43 391.453 376.059C391.686 376.688 392.155 377.201 392.76 377.49C393.216 377.699 393.724 377.768 394.219 377.689C394.714 377.609 395.175 377.385 395.542 377.043C395.91 376.702 396.168 376.26 396.284 375.772C396.401 375.284 396.37 374.773 396.196 374.302C396.021 373.832 395.712 373.424 395.306 373.13C394.9 372.835 394.416 372.668 393.914 372.648C393.413 372.629 392.918 372.759 392.49 373.021C392.063 373.283 391.722 373.666 391.512 374.121Z" fill="#FED0A9"/>
<path opacity="0.1" d="M593.153 233.457L600.681 243.896L631.293 286.404C624.929 271.805 618.067 257.289 612.576 245.893C612.576 245.893 616.736 224.14 621.852 197.105L621.602 195.94C616.445 209.25 610.996 221.436 603.8 228.133L603.509 228.382C600.693 231.143 597.061 232.923 593.153 233.457Z" fill="#1D1D1B"/>
<path opacity="0.1" d="M582.506 135.633C576.017 133.803 568.697 139.792 562.749 136.714C560.338 135.147 558.5 132.841 557.509 130.142C556.805 128.85 556.34 127.441 556.136 125.983C555.72 120.784 561.044 117.166 565.785 115.044C575.726 110.652 586.294 107.845 597.104 106.726C598.1 106.487 599.137 106.475 600.137 106.691C601.138 106.907 602.078 107.345 602.886 107.974C603.385 108.553 603.779 109.214 604.05 109.929C607.96 118.58 611.911 127.273 615.821 135.965C616.395 136.945 616.656 138.077 616.57 139.209C616.095 140.678 615.065 141.902 613.7 142.62C608.667 146.072 602.553 149.649 597.063 147.403C591.573 145.157 588.495 137.338 582.506 135.633Z" fill="#1D1D1B"/>
<path d="M576.767 102.233L574.812 109.636C573.917 113.062 574.033 116.673 575.145 120.034C575.588 121.363 576.189 122.633 576.934 123.819C578.994 127.062 582.202 129.409 585.917 130.391H586.417C590.14 131.365 594.094 130.89 597.48 129.06C598.623 128.441 599.697 127.702 600.683 126.855C603.419 124.452 605.362 121.276 606.256 117.747L608.211 110.385C601.681 94.6629 591.241 91.2939 576.767 102.233Z" fill="#07AD8D"/>
<path d="M597.188 129.394L599.85 129.851L601.264 130.059H601.638C603.171 130.31 604.741 129.984 606.047 129.144C606.622 128.777 607.128 128.312 607.545 127.772L611.329 122.822C611.943 122.131 612.385 121.304 612.619 120.41C612.703 119.914 612.703 119.408 612.619 118.912C612.587 118.162 612.403 117.426 612.078 116.75L610.165 113.755L608.21 110.719C606.374 116.445 603.651 121.849 600.141 126.732C599.357 127.655 598.463 128.479 597.479 129.186L597.188 129.394Z" fill="#226666"/>
<path d="M567.949 111.55L568.823 117.664C568.898 118.192 569.037 118.709 569.239 119.203C569.574 119.979 570.064 120.678 570.679 121.257C571.294 121.837 572.021 122.284 572.816 122.572H573.19L574.562 123.071L577.1 123.986C577.107 123.889 577.107 123.792 577.1 123.695C576.555 122.498 576.15 121.242 575.893 119.952C575.4 113.995 575.778 107.998 577.016 102.15L574.396 103.565L570.985 105.395H570.694C569.64 106.131 568.864 107.2 568.49 108.431C568.037 109.405 567.85 110.481 567.949 111.55Z" fill="#226666"/>
<path d="M579.344 116.25C578.819 118.228 578.895 120.317 579.561 122.252C580.227 124.186 581.453 125.879 583.084 127.115C584.715 128.351 586.676 129.074 588.719 129.192C590.762 129.31 592.793 128.818 594.556 127.778C596.318 126.738 597.731 125.198 598.615 123.353C599.5 121.508 599.816 119.441 599.523 117.416C599.229 115.391 598.341 113.499 596.969 111.981C595.598 110.462 593.806 109.386 591.821 108.889C589.191 108.218 586.402 108.616 584.064 109.996C581.726 111.375 580.029 113.624 579.344 116.25Z" fill="#FE0782"/>
<path d="M582.545 117.207C582.199 118.522 582.252 119.911 582.697 121.196C583.141 122.482 583.958 123.606 585.043 124.426C586.128 125.247 587.432 125.726 588.79 125.804C590.148 125.882 591.498 125.554 592.669 124.863C593.841 124.172 594.781 123.148 595.369 121.922C595.958 120.696 596.169 119.323 595.975 117.976C595.782 116.63 595.192 115.372 594.282 114.361C593.372 113.35 592.182 112.632 590.864 112.299C589.11 111.856 587.253 112.123 585.695 113.042C584.137 113.961 583.005 115.458 582.545 117.207Z" fill="#3C3C3B"/>
<path d="M609.791 129.101C610.581 128.394 611.288 127.77 611.912 127.105C612.068 127.402 612.207 127.707 612.328 128.02L611.205 129.06C611.089 129.118 610.989 129.204 610.914 129.309L610.456 129.684L608.959 129.309L609.791 129.101ZM611.787 127.105C612.203 126.731 612.536 126.356 612.91 125.982L613.16 127.521L612.619 128.062L611.496 129.101C611.38 129.159 611.28 129.245 611.205 129.351L610.748 129.725L609.25 129.351L610.373 128.394C610.581 128.394 611.288 127.77 611.912 127.105H611.787ZM599.726 129.809C600.35 129.06 601.015 128.27 601.722 127.521C602.429 126.772 604.134 125.109 605.257 124.11C606.473 123.026 607.751 122.012 609.084 121.074C609.999 120.409 610.914 119.785 611.829 119.244L612.619 118.87C615.24 117.414 617.61 116.665 618.609 117.788C618.912 118.194 619.046 118.7 618.983 119.202C618.829 119.959 618.562 120.688 618.193 121.365C617.764 122.149 617.277 122.9 616.737 123.611L616.529 123.902L616.113 124.485L614.99 125.816L614.491 126.315L614.158 126.689V126.897L613.742 127.313L613.202 127.854L612.079 128.893C611.962 128.951 611.862 129.037 611.787 129.143L611.33 129.517C611.087 129.75 610.823 129.959 610.54 130.141C610.54 130.141 610.54 130.141 610.54 130.349L610.165 130.64C609.909 130.875 609.63 131.083 609.333 131.264L608.294 132.054C608.179 132.152 608.053 132.236 607.919 132.304H607.67L606.464 133.094L605.964 133.385C605.121 133.923 604.23 134.383 603.303 134.758L602.512 135.091H602.096H600.142C599.741 135.231 599.319 135.301 598.894 135.299C598.647 135.303 598.402 135.257 598.173 135.164C597.944 135.071 597.737 134.933 597.563 134.758C596.357 135.091 597.688 132.512 599.85 129.809H599.726ZM608.46 130.058L609.583 129.101C610.373 128.394 611.08 127.77 611.704 127.105C612.328 126.44 612.453 126.356 612.827 125.982C614.776 124.152 616.333 121.944 617.402 119.494C617.511 119.213 617.511 118.901 617.402 118.62C617.402 118.412 616.571 118.62 615.531 118.62L614.865 118.87C614.083 119.332 613.332 119.846 612.619 120.409H612.328L611.704 120.741C611.704 120.741 610.623 121.448 610.041 121.906C609.375 122.405 608.668 122.904 607.961 123.528L607.587 123.819C607.587 123.819 607.587 123.819 607.379 124.027L606.588 124.693C605.673 125.483 604.841 126.273 604.051 127.063L603.802 127.313C603.802 127.313 603.303 127.77 603.095 128.02L602.096 129.185C601.946 129.33 601.819 129.498 601.722 129.684C601.589 129.803 601.477 129.944 601.389 130.1L600.557 131.264L600.225 131.847C600.112 132.004 600.015 132.171 599.934 132.346C599.855 132.451 599.785 132.562 599.726 132.678C599.434 133.427 599.351 133.926 599.726 134.134C599.855 134.197 599.998 134.229 600.142 134.229C600.286 134.229 600.428 134.197 600.557 134.134C603.412 133.254 606.088 131.874 608.46 130.058ZM609.583 129.101C610.373 128.394 611.08 127.77 611.704 127.105C612.328 126.44 612.453 126.356 612.827 125.982L613.077 127.521L612.536 128.062L611.413 129.101C611.297 129.159 611.197 129.245 611.122 129.351L610.664 129.725L609.167 129.351L609.583 129.101ZM612.619 118.87C615.24 117.414 617.61 116.665 618.609 117.788C618.912 118.194 619.046 118.7 618.983 119.202L618.525 118.703L617.652 119.494C617.761 119.213 617.761 118.901 617.652 118.62C617.652 118.412 616.82 118.62 615.78 118.62L615.115 118.87C614.247 119.322 613.413 119.836 612.619 120.409C612.685 119.898 612.685 119.381 612.619 118.87ZM609.833 129.101C610.623 128.394 611.33 127.77 611.954 127.105C612.11 127.402 612.248 127.707 612.37 128.02L611.247 129.06C611.131 129.118 611.031 129.204 610.956 129.309L610.498 129.684L609.001 129.309L609.833 129.101Z" fill="#FE0782"/>
<path d="M598.353 136.381L598.769 136.88L603.137 141.871L604.01 142.828L604.467 142.412L605.882 141.164L606.214 140.873H606.256L610.457 137.129H610.498L611.122 136.589L611.164 136.547L616.779 131.639L617.028 131.39L617.694 130.807L621.936 127.106L622.269 126.815L623.683 125.567L624.141 125.151L623.309 124.153L618.942 119.203L618.484 118.704L617.611 119.453L606.381 129.352L599.227 135.632L598.353 136.381Z" fill="#FE419C"/>
<path d="M624.138 125.15C622.932 123.736 617.442 126.606 611.868 131.472C606.295 136.339 602.801 141.454 604.007 142.827C605.214 144.199 610.704 141.371 616.277 136.505C621.851 131.639 625.386 126.523 624.138 125.15Z" fill="#FE419C"/>
<path d="M614.074 131.806V131.474V131.806ZM621.603 126.649C621.691 126.578 621.801 126.539 621.915 126.539C622.028 126.539 622.138 126.578 622.227 126.649L621.935 126.982C619.46 128.057 617.139 129.455 615.031 131.141H614.49C616.627 129.302 619.024 127.788 621.603 126.649ZM622.227 126.649L621.935 126.982C619.46 128.057 617.139 129.455 615.031 131.141H614.49C616.67 129.244 619.124 127.687 621.769 126.524C621.861 126.519 621.952 126.54 622.033 126.584C622.114 126.628 622.181 126.694 622.227 126.774V126.649ZM605.59 140.374C607.51 137.405 609.882 134.753 612.619 132.513C612.972 132.171 613.347 131.851 613.742 131.557L614.074 131.307C616.254 129.41 618.708 127.854 621.353 126.69C621.442 126.62 621.552 126.581 621.665 126.581C621.778 126.581 621.888 126.62 621.977 126.69C622.055 126.792 622.097 126.916 622.097 127.044C622.097 127.172 622.055 127.296 621.977 127.398C621.036 128.963 619.935 130.427 618.691 131.765C617.613 132.973 616.46 134.112 615.239 135.175C615.157 135.192 615.072 135.192 614.99 135.175C614.788 135.391 614.565 135.586 614.324 135.758C612.007 137.919 609.404 139.752 606.588 141.206C606.482 141.273 606.359 141.308 606.234 141.308C606.109 141.308 605.987 141.273 605.881 141.206C605.791 141.114 605.734 140.995 605.719 140.867C605.704 140.739 605.731 140.61 605.798 140.499L605.59 140.374ZM606.172 140.832C609.205 139.466 612.011 137.642 614.49 135.425C614.662 135.309 614.816 135.169 614.948 135.009L615.322 134.718C616.386 133.759 617.399 132.745 618.358 131.681C619.682 130.3 620.853 128.78 621.852 127.148C619.377 128.223 617.055 129.622 614.948 131.307L614.199 131.889L613.243 132.721C610.548 134.957 608.231 137.611 606.38 140.582L606.172 140.832ZM621.603 126.649C621.691 126.578 621.801 126.539 621.915 126.539C622.028 126.539 622.138 126.578 622.227 126.649L621.935 126.982C619.46 128.057 617.139 129.455 615.031 131.141H614.49C616.627 129.302 619.024 127.788 621.603 126.649ZM614.074 131.806V131.474V131.806ZM614.074 131.266C616.254 129.369 618.708 127.812 621.353 126.649C621.442 126.578 621.552 126.539 621.665 126.539C621.778 126.539 621.888 126.578 621.977 126.649L621.686 126.982C619.211 128.057 616.889 129.455 614.782 131.141L614.033 131.723L614.074 131.266Z" fill="#F9BBD0"/>
<path d="M613.575 129.269C616.307 126.73 619.667 124.964 623.308 124.153L624.139 125.152L623.682 125.567C623.141 124.944 619.231 126.233 613.824 130.683H613.617L613.367 130.143L613.575 129.269ZM613.575 129.269C616.307 126.73 619.667 124.964 623.308 124.153L624.139 125.152L623.682 125.567C623.141 124.944 619.231 126.233 613.824 130.683H613.617L613.367 130.143L613.575 129.269ZM606.088 136.548C607.727 134.564 609.521 132.715 611.454 131.016L611.703 130.808L613.076 129.685L613.575 129.311C616.307 126.772 619.667 125.006 623.308 124.195C623.557 124.198 623.803 124.252 624.032 124.352C624.26 124.452 624.467 124.596 624.638 124.777C625.845 126.15 624.098 128.936 621.602 132.097C620.1 133.847 618.489 135.501 616.778 137.047C616.714 137.163 616.611 137.252 616.486 137.296C616.07 137.671 615.655 138.045 615.155 138.419L614.532 138.877L614.24 139.127H613.991L612.66 140.083L612.161 140.416L611.703 140.749L610.83 141.248L610.331 141.58L608.542 142.454H608.126C607.721 142.624 607.304 142.763 606.879 142.87H606.296C605.945 142.946 605.58 142.937 605.232 142.843C604.885 142.749 604.565 142.573 604.3 142.329C604.021 141.992 603.887 141.559 603.926 141.123C604.317 139.463 605.054 137.904 606.088 136.548ZM604.3 142.412C604.841 143.078 608.958 141.664 614.615 136.881C614.989 136.639 615.337 136.361 615.655 136.049C617.129 134.753 618.518 133.364 619.814 131.889C622.892 128.479 623.973 126.025 623.515 125.526C623.058 125.027 619.065 126.191 613.658 130.642H613.45L613.117 130.891L612.119 131.765C606.088 137.421 603.842 141.747 604.3 142.412ZM613.367 129.269C616.099 126.73 619.459 124.964 623.1 124.153L623.931 125.152L623.474 125.567C622.933 124.944 619.024 126.233 613.617 130.683H613.409L613.159 130.143L613.367 129.269ZM612.868 129.685L613.367 129.311C616.099 126.772 619.459 125.006 623.1 124.195L623.931 125.193L623.474 125.609C622.933 124.985 619.024 126.275 613.617 130.725H613.409L613.076 130.974H612.286C612.023 130.951 611.758 130.951 611.495 130.974L612.868 129.685Z" fill="#FE0782"/>
<path d="M618.484 118.704C617.278 117.331 611.787 120.16 606.214 125.026C600.641 129.892 597.147 135.008 598.353 136.381C599.559 137.753 605.049 134.925 610.623 130.059C616.196 125.192 619.732 120.076 618.484 118.704Z" fill="#FE419C"/>
<path d="M614.447 132.886L615.944 131.722H616.651C615.941 132.177 615.26 132.678 614.613 133.219L614.239 133.552V132.886H614.447ZM614.447 132.886L615.944 131.722H616.651C615.941 132.177 615.26 132.678 614.613 133.219L614.239 133.552V132.886H614.447ZM610.288 137.046C611.198 135.834 612.244 134.731 613.407 133.76L614.197 132.886H614.447L615.944 131.722L617.234 130.973C617.295 130.932 617.368 130.91 617.442 130.91C617.516 130.91 617.588 130.932 617.65 130.973C617.69 131.043 617.711 131.122 617.711 131.202C617.711 131.282 617.69 131.361 617.65 131.431C617.65 131.431 617.65 131.68 617.317 131.847C616.631 132.721 615.866 133.528 615.029 134.259L614.53 134.758C613.451 135.734 612.265 136.585 610.995 137.295C610.936 137.343 610.863 137.368 610.787 137.368C610.711 137.368 610.638 137.343 610.579 137.295C610.579 137.295 610.579 137.295 610.579 137.087C610.525 137.043 610.485 136.984 610.463 136.918C610.441 136.852 610.438 136.781 610.454 136.713L610.288 137.046ZM610.995 137.046C612.085 136.374 613.115 135.608 614.073 134.758L614.572 134.259C615.387 133.456 616.125 132.579 616.776 131.639H616.527C615.816 132.094 615.136 132.594 614.489 133.136L614.114 133.469L613.698 133.802C612.691 134.65 611.771 135.598 610.953 136.63L610.995 137.046ZM614.447 132.886L615.944 131.722H616.651C615.941 132.177 615.26 132.678 614.613 133.219L614.239 133.552V132.886H614.447ZM614.447 132.886L615.944 131.722L617.234 130.973C617.295 130.932 617.368 130.91 617.442 130.91C617.516 130.91 617.588 130.932 617.65 130.973L616.984 131.556H616.735C616.024 132.011 615.344 132.511 614.697 133.053L614.322 133.386V132.886H614.447Z" fill="#F9BBD0"/>
<path d="M555.681 107.183L555.889 107.765L556.513 109.554L556.637 109.969L558.509 115.293L558.717 115.876L558.8 116.125L561.42 123.529L561.67 124.36L563.542 129.684L563.708 130.1L564.332 131.889L564.54 132.512L565.746 132.055L572.027 129.851L572.65 129.643L572.234 128.561L568.949 119.161L564.124 105.477L563.75 104.354L563.126 104.562L556.887 106.725L555.681 107.183Z" fill="#FE419C"/>
<path d="M555.678 107.184C557.424 106.56 560.793 111.759 563.247 118.746C565.701 125.734 566.284 131.889 564.537 132.472C562.79 133.054 559.421 127.938 556.967 120.951C554.513 113.963 553.931 107.932 555.678 107.184Z" fill="#FE419C"/>
<path d="M560.795 112.922L561.253 112.423C561.877 113.67 562.501 115.001 563 116.291C563.208 116.748 563.374 117.206 563.582 117.705C563.661 117.975 563.758 118.239 563.873 118.495C565.412 122.987 566.909 129.476 565.745 132.054L564.58 132.47L564.372 131.888C565.246 131.555 565.412 126.73 562.709 118.953C562.709 118.329 562.251 117.747 562.085 117.206C561.544 115.875 561.003 114.71 560.504 113.67L560.795 112.922ZM560.795 112.922L561.253 112.423C561.877 113.67 562.501 115.001 563 116.291C563.208 116.748 563.374 117.206 563.582 117.705C563.661 117.975 563.758 118.239 563.873 118.495C565.412 122.987 566.909 129.476 565.745 132.054L564.58 132.47L564.372 131.888C565.246 131.555 565.412 126.73 562.709 118.953C562.709 118.329 562.251 117.747 562.085 117.206C561.544 115.875 561.003 114.71 560.504 113.67L560.795 112.922ZM555.43 106.558C555.66 106.459 555.907 106.407 556.158 106.407C556.408 106.407 556.656 106.459 556.886 106.558C558.422 107.618 559.667 109.049 560.504 110.717C560.754 111.175 561.003 111.591 561.253 112.09C561.877 113.338 562.501 114.669 563 115.958C563.208 116.416 563.374 116.873 563.582 117.372C563.661 117.642 563.758 117.906 563.873 118.162C565.412 122.654 566.909 129.143 565.745 131.722C565.667 131.954 565.537 132.165 565.363 132.338C565.19 132.512 564.979 132.642 564.747 132.72C564.597 132.758 564.439 132.758 564.289 132.72H563.79C563.22 132.488 562.709 132.133 562.293 131.68L561.96 131.347L561.419 130.64L561.045 130.099C560.657 129.517 560.282 128.893 559.922 128.228V127.937L559.506 127.105C559.285 126.766 559.103 126.403 558.965 126.023C558.709 125.54 558.487 125.04 558.3 124.526C558.3 124.526 558.3 124.526 558.3 124.277L558.05 123.653C558.05 123.653 558.05 123.653 558.05 123.361C557.956 123.192 557.886 123.01 557.842 122.821C557.842 122.821 557.551 122.031 557.426 121.656C557.302 121.282 556.886 120.076 556.636 119.202C556.428 118.537 556.262 117.871 556.095 117.164C555.988 116.838 555.904 116.504 555.846 116.166V115.792C555.846 115.334 555.846 114.918 555.596 114.461C553.808 110.302 553.808 107.14 555.43 106.558ZM557.551 120.741C560.296 128.436 563.416 132.054 564.289 131.763C565.163 131.472 565.329 126.606 562.625 118.828C562.625 118.204 562.168 117.622 562.002 117.081C561.461 115.75 560.92 114.586 560.421 113.546C558.425 109.386 556.595 107.681 555.971 107.889C555.347 108.097 555.097 110.551 555.971 114.71C555.971 115.584 556.387 116.582 556.678 117.663C556.969 118.745 557.177 119.618 557.551 120.741ZM560.795 112.922L561.253 112.423C561.877 113.67 562.501 115.001 563 116.291C563.208 116.748 563.374 117.206 563.582 117.705C563.661 117.975 563.758 118.239 563.873 118.495C565.412 122.987 566.909 129.476 565.745 132.054L564.58 132.47L564.372 131.888C565.246 131.555 565.412 126.73 562.709 118.953C562.709 118.329 562.251 117.747 562.085 117.206C561.544 115.875 561.003 114.71 560.504 113.67L560.795 112.922ZM560.795 112.922L561.253 112.423C561.877 113.67 562.501 115.001 563 116.291C563.208 116.748 563.374 117.206 563.582 117.705C563.661 117.975 563.758 118.239 563.873 118.495C565.412 122.987 566.909 129.476 565.745 132.054L564.58 132.47L564.372 131.888C565.246 131.555 565.412 126.73 562.709 118.953C562.709 118.329 562.251 117.747 562.085 117.206C561.544 115.875 561.003 114.71 560.504 113.67L560.795 112.922Z" fill="#FE0782"/>
<path d="M563.746 104.355C565.493 103.731 568.903 108.888 571.357 115.876C573.811 122.863 574.352 129.061 572.647 129.643C570.941 130.225 567.489 125.109 565.035 118.08C562.581 111.051 561.999 104.937 563.746 104.355Z" fill="#FE419C"/>
<path d="M560.718 119.276C560.56 118.862 560.419 118.492 560.251 118.123L560.19 118.266C560.148 118.164 560.1 118.049 560.043 117.915C559.711 117.125 559.378 116.459 559.17 116.002C559.066 115.769 558.941 115.546 558.796 115.336C558.75 115.317 558.7 115.307 558.65 115.307C558.6 115.307 558.551 115.317 558.504 115.336H558.546C558.485 115.35 558.43 115.381 558.385 115.425C558.341 115.469 558.311 115.525 558.297 115.586C558.449 116.759 558.714 117.915 559.087 119.038L559.378 119.994C559.844 121.454 560.486 122.85 561.291 124.154C561.35 124.201 561.424 124.227 561.499 124.227C561.575 124.227 561.648 124.201 561.707 124.154C561.733 124.095 561.747 124.031 561.747 123.967C561.747 123.902 561.733 123.838 561.707 123.779C561.706 123.773 561.705 123.766 561.704 123.759L561.915 124.362C561.941 124.303 561.955 124.239 561.955 124.174C561.955 124.11 561.941 124.046 561.915 123.987C561.696 122.487 561.334 121.01 560.834 119.579C560.794 119.475 560.755 119.374 560.718 119.276Z" fill="#F9BBD0"/>
<path opacity="0.1" d="M554.388 113.879C554.833 116.352 555.473 118.785 556.301 121.158C558.173 126.481 561.958 134.051 564.62 133.095C564.85 133.002 565.059 132.862 565.231 132.682C565.403 132.503 565.535 132.289 565.618 132.055L571.857 129.85C572.064 129.983 572.298 130.07 572.541 130.106C572.785 130.141 573.034 130.125 573.271 130.058C574.851 129.476 574.934 126.565 574.394 123.196L576.931 124.111C576.939 124.014 576.939 123.916 576.931 123.819C578.992 127.063 582.2 129.409 585.915 130.391H586.414C590.137 131.366 594.092 130.89 597.477 129.06L597.186 129.268L599.848 129.726C597.685 132.387 596.354 134.966 597.436 136.214C597.605 136.395 597.812 136.538 598.042 136.631C598.272 136.725 598.519 136.767 598.767 136.755L602.926 141.746C602.865 142.235 603 142.728 603.3 143.118C605.463 145.364 612.617 140.706 616.776 137.046C618.521 135.522 620.148 133.867 621.643 132.096H620.104H619.147H618.565H617.442H616.776H616.069H614.946H614.364H613.407H612.575H611.785L610.288 131.764L608.749 131.389L606.461 130.682H606.129L603.134 129.518L601.928 128.977L600.763 128.436L600.223 128.187C599.308 127.688 598.351 127.188 597.436 126.606L595.98 124.568C595.439 124.235 594.857 123.861 594.275 123.57C590.61 121.513 586.497 120.385 582.296 120.284H580.716H578.844H575.6H575.184H573.895H572.564C571.482 120.284 570.401 119.951 569.278 119.743H568.987L566.616 119.161L565.119 118.745L563.58 118.288L562.831 118.038L562.041 117.747L561.126 117.414L560.544 117.206L559.379 116.749L558.755 116.499L558.339 116.291L557.258 115.792L556.759 115.584L555.885 115.168L555.178 114.836L554.388 113.879Z" fill="#1D1D1B"/>
<path d="M604.297 107.64L607.084 111.425C611.546 108.254 615.269 104.155 617.997 99.4097C620.725 94.664 622.394 89.3841 622.889 83.9326L622.182 83.5998L618.022 81.8945C617.917 86.9622 616.619 91.9339 614.235 96.4067C611.85 100.88 608.446 104.728 604.297 107.64Z" fill="#3C3C3B"/>
<path d="M577.807 102.024L582.341 100.735C579.97 92.4166 582.632 76.9443 584.961 70.7471C583.214 71.0798 581.426 71.5373 579.596 72.0364C576.763 81.7727 576.152 92.0206 577.807 102.024Z" fill="#3C3C3B"/>
<path d="M497.034 159.299C498.929 160.989 501.208 162.19 503.672 162.799C506.136 163.407 508.712 163.406 511.176 162.793C514.252 162.054 517.026 160.383 519.12 158.01L521.49 155.39L528.52 147.737L539.583 135.675L548.941 125.443L555.347 118.456L555.846 117.915L556.345 117.374L556.969 116.751L557.26 116.418L558.05 115.586L558.549 115.42L559.381 114.505L559.714 114.172L560.254 113.548L560.712 113.049L561.169 112.55L562.958 110.595L564.081 109.389L565.038 108.349L566.868 106.477L567.2 106.103L567.492 105.729C570.113 102.611 571.414 98.5937 571.119 94.5312C570.824 90.4688 568.955 86.6818 565.911 83.9758L565.703 83.7679C564.165 82.398 562.371 81.3454 560.425 80.6706C558.479 79.9959 556.419 79.7122 554.363 79.8358C552.307 79.9595 550.296 80.4881 548.444 81.3913C546.593 82.2945 544.939 83.5544 543.576 85.0988L541.538 87.2616L495.703 137.048C494.329 138.58 493.273 140.369 492.596 142.312C491.919 144.256 491.633 146.314 491.757 148.368C491.881 150.422 492.411 152.432 493.317 154.279C494.223 156.127 495.486 157.777 497.034 159.133V159.299Z" fill="#02826D"/>
</svg>
