<svg width="1320" height="640" viewBox="0 0 1320 640" fill="none" xmlns="http://www.w3.org/2000/svg">
<path d="M1319.05 493.258C1242.43 433.138 808.896 458.041 574.19 396.844C84.4073 242.12 -25.8293 447.299 4.69593 493.258C29.8165 531.079 95.896 615.781 261.544 635.286C428.794 654.979 697.892 609.103 1201.06 569.266C1338.53 558.381 1319.05 533.093 1319.05 493.258Z" fill="#C6FFE7"/>
<line y1="-1" x2="160.003" y2="-1" transform="matrix(-0.99998 -0.00624988 0 1 440 501.664)" stroke="#02826D" stroke-width="2"/>
<line y1="-1" x2="30.0167" y2="-1" transform="matrix(-0.999445 -0.0333148 0 1 120 501.664)" stroke="#02826D" stroke-width="2"/>
<line y1="-1" x2="220" y2="-1" transform="matrix(-1 0 0 1 980 500.664)" stroke="#02826D" stroke-width="2"/>
<path d="M1200 499.508L1150 500.508" stroke="#02826D" stroke-width="2"/>
<path d="M540 499.508H480" stroke="#02826D" stroke-width="2"/>
<path d="M1002.86 287.429L1008.07 283.556C1005.47 280.328 1002.86 277.1 1000.58 273.872L995.703 277.423L994.727 276.777C992.774 275.809 990.822 275.809 988.869 276.777C988.544 277.1 986.917 278.714 986.591 279.037L983.988 280.973L977.154 286.784C981.059 292.271 985.615 296.145 989.52 300.986L996.354 296.467C1001.56 292.917 1002.86 290.657 1002.86 287.429Z" fill="#F2C799"/>
<path d="M975.526 285.493L981.383 280.328H987.892L974.875 291.949L975.526 285.493Z" fill="#049880"/>
<path d="M987.926 280.602L974.803 292.193L1001.64 322.085L1014.76 310.493L987.926 280.602Z" fill="#02826D"/>
<path d="M974.551 292.593C974.876 292.916 975.202 292.916 975.527 292.593L988.544 281.295C988.869 280.973 988.869 280.65 988.544 280.327C988.218 280.004 987.893 280.004 987.567 280.327L974.551 291.625C974.225 291.947 974.225 292.27 974.551 292.593Z" fill="#FE0782"/>
<path d="M995.326 288.718L982.203 300.31L994.105 313.568L1007.23 301.976L995.326 288.718Z" fill="#F9BBD0"/>
<path d="M989.193 305.83C991.796 308.735 996.352 309.058 999.281 306.475C1002.21 303.893 1002.54 299.374 999.932 296.469C997.328 293.564 992.773 293.241 989.844 295.823C986.915 298.406 986.59 302.925 989.193 305.83Z" fill="white"/>
<path d="M1001.23 322.293C1001.56 322.616 1001.88 322.616 1002.21 322.293L1015.23 310.995C1015.55 310.672 1015.55 310.35 1015.23 310.027C1014.9 309.704 1014.58 309.704 1014.25 309.704C1014.25 309.704 1014.25 309.704 1013.92 309.704L1000.91 321.002C1000.91 321.002 1000.91 321.002 1000.91 321.324C1000.91 321.647 1000.91 321.97 1001.23 322.293Z" fill="#FF007C"/>
<path d="M994.4 300.342L996.678 298.405L995.05 296.791H994.725V297.114L996.027 298.405L994.074 300.019V300.342C994.074 300.664 994.4 300.664 994.4 300.342Z" fill="#3C3C3B"/>
<path d="M1000.26 302.601V302.278L998.629 300.664L996.352 302.601V302.924H996.677L998.629 301.31L999.931 302.601H1000.26Z" fill="#3C3C3B"/>
<path d="M995.701 301.632L998.63 299.049V298.727H998.305L995.701 300.986L994.4 299.695H994.074V300.018L995.701 301.632Z" fill="#3C3C3B"/>
<path d="M995.376 306.797V306.474L994.075 305.183L996.027 303.569V303.246H995.702L993.424 305.183L995.051 306.797C995.376 306.797 995.376 306.797 995.376 306.797Z" fill="#3C3C3B"/>
<path d="M991.797 302.924L994.075 300.987V300.664H993.75L991.797 302.278L990.495 300.987H990.17V301.31L991.797 302.924Z" fill="#3C3C3B"/>
<path d="M996.027 303.893V303.57L994.399 301.956L991.471 304.538V304.861H991.796L994.399 302.602L995.701 303.893H996.027Z" fill="#3C3C3B"/>
<path d="M992.774 299.697L991.472 298.083H991.146V298.406L992.774 299.697C992.448 299.697 992.774 299.697 992.774 299.697Z" fill="#3C3C3B"/>
<path d="M993.424 299.05C993.424 299.05 993.424 298.728 993.424 299.05L992.122 297.437H991.797V297.759L993.424 299.05Z" fill="#3C3C3B"/>
<path d="M994.075 300.987L994.4 300.664C994.726 300.341 994.726 299.695 994.4 299.373L993.424 298.404C993.098 298.081 992.448 298.081 992.122 298.404L991.797 298.727C991.471 299.05 991.471 299.695 991.797 300.018L992.773 300.987C993.424 301.309 993.749 301.309 994.075 300.987Z" fill="#3C3C3B"/>
<path d="M996.678 304.216L997.329 303.57C997.98 302.924 997.98 301.956 997.329 301.311L995.702 299.374C995.051 298.728 994.075 298.728 993.424 299.374L992.773 300.019C992.122 300.665 992.122 301.633 992.773 302.279L994.4 304.216C995.051 304.538 996.027 304.538 996.678 304.216Z" fill="#3C3C3B"/>
<path d="M975.117 275.408L971.229 278.843L976.422 284.628L980.31 281.194L975.117 275.408Z" fill="#7AAAA2"/>
<path d="M972.922 280.651L975.2 282.911C975.851 282.265 975.851 281.297 975.2 280.651C974.549 280.006 973.573 280.006 972.922 280.651Z" fill="#02826D"/>
<path opacity="0.1" d="M1001.23 322.291C1001.56 322.614 1001.88 322.614 1002.21 322.291L1008.72 316.642L1015.23 310.993C1015.55 310.671 1015.55 310.348 1015.23 310.025C1014.9 309.702 1014.58 309.702 1014.25 309.702L1009.04 304.215C1007.74 309.702 1001.23 315.19 995.701 315.835L1000.91 321.645C1000.91 321.645 1000.91 321.968 1001.23 322.291Z" fill="#FE0782"/>
<path d="M980.407 297.436C981.058 297.113 981.383 296.467 981.383 295.822C981.383 295.176 981.383 294.531 981.058 294.208L980.733 293.885C980.082 292.917 978.455 292.594 977.478 293.562L974.224 295.822C973.573 296.145 973.248 296.79 973.248 297.436C973.248 298.081 973.248 298.727 973.573 299.05L974.224 299.695C974.875 300.664 976.177 300.664 977.153 300.018L980.407 297.436Z" fill="#FFD2A1"/>
<path d="M977.479 293.564C978.13 293.241 978.455 292.595 978.455 291.95C978.455 291.304 978.455 290.659 978.13 290.336L977.804 290.013C977.154 289.045 975.527 288.722 974.55 289.69L971.947 291.627C971.296 291.95 970.971 292.595 970.971 293.241C970.971 293.886 970.971 294.532 971.296 294.855L971.947 295.5C972.598 296.469 973.899 296.469 974.876 295.823L977.479 293.564Z" fill="#FFD2A1"/>
<path d="M983.661 300.987C984.638 300.018 984.963 298.727 984.312 297.759L983.987 297.436C983.661 297.113 983.011 296.791 982.36 296.468C981.709 296.468 981.058 296.468 980.407 297.113L977.804 299.05C976.828 299.696 976.502 301.31 977.153 302.278L977.804 302.924C978.129 303.246 978.455 303.569 979.106 303.569C979.756 303.569 980.082 303.569 980.733 303.246L983.661 300.987Z" fill="#FFD2A1"/>
<path d="M986.591 303.892C987.568 303.246 987.568 301.955 986.917 301.309L986.591 300.987C985.941 300.018 984.639 300.018 983.988 300.664L982.036 302.278C981.385 302.923 981.059 303.892 981.71 304.86L982.036 305.506C982.686 306.151 983.663 306.474 984.314 305.828L986.591 303.892Z" fill="#FFD2A1"/>
<path d="M988.543 276.778C990.495 276.132 992.448 276.132 994.4 276.778L995.702 277.423L997.654 275.809L1000.58 273.55C1003.19 277.1 1006.12 280.651 1008.72 284.202L1002.86 287.43L998.956 282.911C993.749 287.752 988.868 284.202 987.892 283.556L985.939 278.069C987.241 277.423 988.543 276.778 988.543 276.778Z" fill="#FFD2A1"/>
<path d="M1063.71 212.219C1063.71 214.479 1063.71 216.738 1063.71 218.998C1063.39 230.296 1062.09 240.948 1059.48 250.955C1057.21 252.892 1055.25 254.828 1052.65 256.765C1042.24 265.158 1029.55 273.551 1016.2 281.621C1013.93 282.912 1011.65 284.203 1009.37 285.494C1008.72 285.817 1007.74 286.463 1007.09 286.785C1003.51 282.266 1000.26 278.07 997.33 273.228L1035.08 235.783L1033.78 206.732L1033.45 197.048V194.788C1045.49 188.332 1058.83 174.129 1062.09 190.592C1063.06 198.016 1063.71 205.118 1063.71 212.219Z" fill="#FE0782"/>
<path d="M994.402 276.778L997.657 273.55C1000.59 277.423 1003.84 281.942 1007.42 287.107C1005.79 288.075 1004.49 288.721 1002.86 289.689L994.402 276.778Z" fill="#E6DCDC"/>
<path d="M973.574 274.518C974.225 276.455 976.178 277.746 977.805 279.037C981.059 281.296 987.242 286.138 992.774 285.493C993.75 282.265 988.218 279.682 989.194 276.455C984.964 278.391 980.408 275.486 977.154 272.258C976.503 271.613 975.852 270.967 975.201 271.29C974.551 271.29 973.9 271.936 973.574 272.581C973.249 273.227 973.574 273.872 973.574 274.518Z" fill="#FFD2A1"/>
<path opacity="0.35" d="M975.274 282.155L868.056 425.874L785.446 362.946L975.274 282.155Z" fill="url(#paint0_linear)"/>
<path opacity="0.25" d="M1052.65 230.294V256.763C1042.24 265.156 1029.55 273.549 1016.2 281.619C1013.93 282.91 1011.65 284.201 1009.37 285.492L1007.74 286.138L1042.24 252.89L1038.01 206.729L1052.65 230.294Z" fill="#1D1D1B"/>
<path d="M1038.33 214.153C1038.66 215.444 1038.98 216.413 1039.31 217.704C1039.96 219.641 1040.94 221.578 1041.59 223.837C1042.24 225.774 1042.89 228.034 1043.54 230.293C1043.86 231.262 1044.19 232.23 1044.19 232.875C1044.19 233.198 1044.19 233.198 1044.19 233.521C1044.19 233.844 1044.52 234.49 1044.52 234.812C1044.52 235.458 1044.84 236.103 1044.84 236.749C1044.84 236.749 1044.84 236.749 1044.84 237.072C1045.82 240.623 1046.79 244.496 1047.77 248.047C1047.77 248.693 1048.1 249.015 1048.1 249.661C1048.75 251.598 1049.4 253.535 1049.72 255.471C1050.05 256.763 1050.7 258.054 1051.02 259.668C1053.3 265.155 1055.58 269.352 1058.83 269.674C1058.83 269.674 1059.16 270.32 1059.48 271.288C1059.81 272.257 1060.46 273.548 1061.44 275.162C1061.76 275.485 1061.76 275.808 1062.09 276.453C1063.06 278.067 1064.37 279.681 1065.67 281.295C1068.92 284.846 1073.48 288.074 1079.66 288.397C1080.96 288.397 1082.26 288.397 1083.89 288.074C1087.47 287.428 1090.72 286.137 1094.3 284.846C1095.28 284.523 1096.26 284.2 1097.23 283.878C1097.88 283.555 1098.53 283.232 1099.19 282.909C1099.51 282.909 1099.84 282.586 1100.16 282.586C1100.81 282.264 1101.46 281.941 1102.11 281.618C1109.27 278.39 1116.11 276.13 1120.99 274.194C1121.96 273.871 1122.94 273.548 1123.92 273.225C1125.22 272.902 1125.87 272.58 1126.52 272.257C1126.52 272.257 1126.85 272.257 1126.85 271.934C1127.17 271.611 1127.5 271.288 1127.82 270.966C1133.03 264.832 1130.1 249.338 1130.1 249.338L1123.59 197.045L1123.27 192.849V192.526L1121.31 189.298L1117.41 182.196L1107.32 164.442L1085.84 160.569L1078.03 159.278H1077.71L1065.99 157.341L1052 170.576L1051.67 170.898L1048.1 174.126L1035.08 186.393C1034.43 186.715 1033.78 187.361 1033.45 188.329C1031.82 191.88 1034.43 200.596 1038.33 214.153Z" fill="#FE0782"/>
<path d="M1128.47 493.376V496.926C1125.54 498.218 1121.64 498.54 1117.73 498.54C1115.78 498.54 1113.83 498.54 1111.88 498.218H1111.55L1111.23 496.604L1110.9 494.344V493.376L1110.57 491.762V491.116H1110.9L1119.03 492.085H1120.34H1121.31L1128.47 493.376Z" fill="#2F2E29"/>
<path d="M1128.47 493.376C1125.22 494.667 1121.96 495.635 1118.71 496.281C1118.06 496.603 1117.41 496.603 1116.76 496.926C1116.43 496.926 1114.8 497.572 1111.88 498.54C1106.02 499.831 1095.28 501.445 1081.61 497.572L1081.29 493.053L1116.76 489.179L1120.99 488.857L1124.89 488.534L1127.82 488.211V489.502V489.825L1128.47 493.376Z" fill="#2F2E29"/>
<path d="M1128.47 489.502C1127.17 490.47 1124.89 491.439 1122.29 492.084C1121.96 492.084 1121.64 492.407 1121.31 492.407C1120.99 492.407 1120.66 492.73 1120.34 492.73C1119.03 493.053 1118.06 493.376 1116.76 493.376C1116.43 493.376 1116.43 493.376 1116.11 493.376C1114.48 493.698 1112.85 494.021 1111.22 494.021C1098.53 495.958 1083.89 495.958 1081.29 492.407C1080.96 489.502 1084.87 485.951 1091.7 482.724C1092.35 482.401 1093 482.078 1093.98 481.755C1094.3 481.755 1094.3 481.432 1094.63 481.432C1094.95 481.432 1095.28 481.11 1095.6 481.11C1096.26 480.787 1096.91 480.464 1097.88 480.141C1098.53 479.818 1098.86 479.818 1099.51 479.496C1100.16 479.173 1101.14 478.85 1101.79 478.527C1102.76 478.204 1103.74 477.882 1104.72 477.236C1105.69 476.913 1106.67 476.591 1107.97 475.945C1113.18 474.008 1117.08 473.685 1120.01 474.654C1121.31 474.977 1122.61 475.622 1123.59 476.59C1125.54 478.204 1126.84 480.464 1127.5 482.724C1128.15 484.337 1128.47 486.274 1128.47 487.565C1128.47 487.888 1128.47 488.534 1128.47 488.856C1128.47 489.179 1128.47 489.179 1128.47 489.502Z" fill="#9D9D9C"/>
<path d="M1050.05 487.242V487.565L1050.37 489.179L1050.7 492.084V493.375C1051.35 493.375 1052 493.375 1052.65 493.375C1056.88 493.698 1061.11 493.698 1064.37 491.761V488.533L1056.56 487.565L1055.25 487.242H1050.05Z" fill="#2F2E29"/>
<path d="M1009.04 488.532L1009.37 492.405C1017.83 495.31 1031.17 495.633 1049.07 492.405C1049.72 492.405 1050.37 492.082 1051.02 492.082C1052 491.76 1053.3 491.76 1054.28 491.437C1057.53 490.791 1061.11 489.823 1065.02 488.855L1064.69 485.627V485.304V484.013L1059.16 484.336L1057.21 484.658L1051.35 484.981L1009.04 488.532Z" fill="#2F2E29"/>
<path d="M1064.37 485.628C1063.06 486.596 1060.14 487.242 1056.88 488.21C1054.93 488.533 1052.65 489.179 1050.37 489.502C1050.05 489.502 1050.05 489.502 1049.72 489.502C1034.1 491.761 1011.97 492.084 1008.72 488.856C1008.39 486.274 1012.95 483.046 1021.09 479.818C1021.74 479.495 1022.71 479.172 1023.69 478.85C1024.34 478.527 1024.99 478.527 1025.64 478.204C1026.62 477.881 1027.27 477.558 1028.24 477.236C1028.9 476.913 1029.55 476.913 1030.2 476.59C1031.17 476.267 1031.82 475.944 1032.8 475.622C1033.78 475.299 1035.08 474.976 1036.05 474.653C1037.36 474.331 1038.66 474.008 1039.63 473.685C1045.82 472.071 1050.37 471.748 1053.63 472.394C1058.51 473.362 1061.11 476.59 1062.41 479.495C1063.06 481.109 1063.39 482.723 1063.71 484.014C1063.71 484.337 1063.71 484.983 1063.71 485.305C1064.37 485.305 1064.37 485.628 1064.37 485.628Z" fill="#9D9D9C"/>
<path d="M1023.04 370.389L1032.8 475.944L1056.23 484.982L1061.44 486.919L1064.36 487.888L1066.97 488.856C1066.32 476.913 1065.99 466.26 1065.99 455.931C1065.34 429.784 1065.34 402.992 1061.11 375.877L1077.38 337.464L1099.18 286.139L1095.28 279.683L1093.98 276.132C1081.29 277.101 1070.22 274.518 1059.48 269.354C1059.16 269.676 1058.51 274.518 1057.86 277.746C1056.55 286.462 1023.04 370.389 1023.04 370.389Z" fill="#3C3C3B"/>
<path d="M1070.88 375.553L1076.08 401.377L1091.7 481.754C1092.35 481.754 1093.33 482.077 1093.98 482.077C1104.39 483.368 1116.43 484.982 1125.87 488.21C1126.52 488.533 1127.17 488.533 1127.82 488.855C1128.47 489.178 1129.12 489.501 1129.78 489.501C1128.47 476.266 1126.85 463.677 1125.22 451.088C1121.31 425.264 1116.11 397.181 1108.3 377.167L1127.82 319.387C1130.43 307.443 1130.1 292.917 1128.47 278.391C1128.47 278.069 1128.47 277.746 1128.47 277.423C1128.47 276.777 1128.15 275.809 1128.15 275.163C1128.15 275.163 1128.15 275.163 1128.15 274.841C1128.15 273.549 1127.82 272.258 1127.82 271.29C1127.82 270.967 1127.82 270.967 1127.82 270.644C1127.82 270.321 1127.82 269.999 1127.82 269.676C1126.2 270.644 1123.92 271.29 1121.31 271.935C1108.95 275.163 1089.1 276.455 1079.01 275.486C1079.01 275.486 1079.01 276.132 1079.34 276.777C1079.34 277.1 1079.34 277.1 1079.34 277.423C1079.34 279.037 1079.66 281.619 1079.66 283.233V283.556C1079.66 284.847 1079.99 286.138 1080.31 287.752C1081.61 294.208 1083.89 301.956 1082.92 310.671C1082.92 311.962 1082.59 312.931 1082.59 314.222C1081.29 322.292 1079.34 329.716 1077.71 337.141C1074.78 349.084 1072.18 361.028 1070.88 375.553Z" fill="#3C3C3B"/>
<path d="M1078.68 156.05L1064.37 128.289C1054.28 133.131 1040.94 139.587 1038.33 140.233C1038.33 140.233 1047.44 158.309 1050.37 166.056C1054.6 185.101 1068.6 185.424 1078.68 156.05Z" fill="#F2C799"/>
<path d="M1085.52 160.57L1078.68 156.374C1075.76 165.089 1068.6 172.513 1059.81 179.615L1073.48 188.33C1079.66 179.938 1083.57 170.577 1085.52 160.57Z" fill="#E6DCDC"/>
<path d="M1059.81 179.293L1051.35 188.977L1048.1 173.806L1050.37 166.382C1052.33 171.546 1055.25 176.388 1059.81 179.293Z" fill="#E6DCDC"/>
<path d="M1057.86 277.746C1058.18 278.069 1058.83 278.069 1059.16 278.391C1059.81 278.714 1060.79 279.037 1061.76 279.36C1063.39 280.005 1064.69 280.651 1066.32 280.974C1070.22 282.265 1074.78 283.233 1079.66 283.879C1083.89 284.524 1088.45 284.847 1093.33 284.524C1093.98 284.524 1094.3 284.524 1094.95 284.524C1096.26 284.524 1097.23 284.524 1098.53 284.524C1098.86 284.524 1099.19 284.524 1099.84 284.524C1100.81 284.524 1101.79 284.524 1102.44 284.202C1108.62 283.556 1115.13 282.588 1121.31 280.974C1123.92 280.328 1126.52 279.683 1129.12 278.714C1129.12 278.391 1129.12 278.069 1129.12 277.746C1129.12 277.1 1128.8 276.132 1128.8 275.486C1128.8 275.486 1128.8 275.486 1128.8 275.164C1128.8 273.872 1128.47 272.904 1128.15 271.613C1127.82 271.613 1127.5 271.936 1126.85 271.936C1124.89 272.581 1123.27 272.904 1121.31 273.55C1115.13 275.164 1108.62 276.455 1102.76 277.1C1101.79 277.1 1100.81 277.423 1099.84 277.423C1098.21 277.423 1096.26 277.746 1094.63 277.746C1094.3 277.746 1093.98 277.746 1093.65 277.746C1088.45 277.746 1083.57 277.746 1079.01 277.1C1079.01 277.1 1079.01 277.1 1078.68 277.1C1073.15 276.455 1067.95 275.164 1063.71 273.227C1063.06 272.904 1062.74 272.581 1062.09 272.581C1061.44 272.258 1060.46 271.936 1059.81 271.29C1059.48 270.967 1059.16 270.967 1058.83 270.645C1058.83 271.613 1058.51 272.904 1058.18 274.518C1058.18 275.164 1057.86 276.132 1057.86 276.778C1057.86 276.778 1057.86 277.1 1057.86 277.746Z" fill="#47463E"/>
<path d="M1074.13 276.777C1076.41 277.1 1078.68 277.423 1080.96 277.746L1080.31 283.556C1078.03 283.233 1075.43 282.91 1073.15 282.265L1074.13 276.777Z" fill="#C6C6C6"/>
<path d="M1099.51 276.133C1100.49 276.133 1101.46 276.133 1102.44 275.811L1101.79 285.817C1100.81 285.817 1099.84 285.817 1099.19 285.817L1099.51 276.133Z" fill="#2F2E29"/>
<path d="M1062.09 271.613L1061.44 281.62C1060.46 281.297 1059.48 280.974 1058.83 280.652L1060.14 270.322C1060.79 270.968 1061.44 271.291 1062.09 271.613Z" fill="#2F2E29"/>
<path opacity="0.4" d="M1125.54 451.412C1121.64 425.588 1116.43 397.504 1108.62 377.491L1128.15 319.71C1130.75 307.767 1130.43 293.241 1128.8 278.715C1128.8 278.392 1128.8 278.069 1128.8 277.746C1128.8 277.101 1128.47 276.132 1128.47 275.487C1128.47 275.487 1128.47 275.487 1128.47 275.164C1128.47 273.873 1128.15 272.582 1128.15 271.613L1127.17 271.936L1121.64 273.55V274.196C1121.64 276.455 1121.64 278.715 1121.64 280.974C1120.66 314.868 1114.16 350.376 1098.54 376.845C1109.6 399.118 1118.71 426.879 1125.54 451.412Z" fill="#1D1D1B"/>
<path opacity="0.4" d="M1052.98 391.049C1057.21 411.385 1061.44 435.918 1065.67 455.931C1065.02 429.785 1065.02 402.993 1060.79 375.878L1077.06 337.465C1078.68 329.717 1080.64 322.293 1081.94 314.546C1082.26 313.255 1082.26 312.286 1082.26 310.995C1073.8 310.027 1065.34 306.799 1057.21 303.248C1062.09 309.704 1068.92 314.546 1076.41 317.451C1069.25 333.268 1062.41 349.085 1055.25 364.902C1053.63 368.776 1051.67 372.65 1051.35 376.846C1051.02 381.688 1052 386.53 1052.98 391.049Z" fill="#1D1D1B"/>
<path opacity="0.25" d="M1106.02 181.23C1115.78 210.605 1120.66 240.948 1121.31 272.259L1124.24 273.228C1125.54 272.905 1126.2 272.582 1126.85 272.259C1126.85 272.259 1127.17 272.259 1127.17 271.937C1127.5 271.614 1127.82 271.291 1128.15 270.968C1133.35 264.835 1130.43 249.341 1130.43 249.341L1123.92 197.048L1123.59 192.851L1106.02 181.23Z" fill="#1D1D1B"/>
<path d="M1153.53 295.178C1153.53 293.887 1154.18 292.919 1154.51 291.627C1154.83 290.659 1154.83 289.368 1155.48 288.077C1156.46 285.494 1159.06 280.975 1161.34 279.684C1164.59 277.425 1168.82 278.07 1172.73 281.621C1173.71 282.589 1174.36 283.881 1175.01 285.494C1176.31 289.045 1177.61 292.919 1178.59 296.469C1179.24 298.406 1179.89 300.343 1179.56 302.28C1179.24 304.216 1178.59 305.83 1177.61 307.121C1175.98 310.026 1175.66 310.026 1174.03 312.932C1173.71 313.577 1173.38 314.223 1172.73 314.546C1172.08 315.191 1171.1 315.514 1170.45 315.514C1170.45 315.514 1170.45 315.837 1170.13 315.837C1170.13 316.159 1169.8 316.482 1169.47 316.805C1169.15 317.128 1168.5 317.128 1168.17 317.128C1167.85 317.128 1167.2 316.805 1166.87 316.482C1166.55 316.805 1166.55 317.128 1166.55 317.451C1166.55 317.773 1166.22 318.096 1166.22 318.419C1165.9 318.742 1165.57 319.065 1164.92 319.065C1164.59 319.065 1163.94 319.065 1163.62 318.742C1163.29 318.742 1162.97 318.419 1162.64 318.096C1162.32 318.742 1162.32 319.387 1161.01 319.71C1159.39 320.033 1158.09 318.096 1158.74 316.805C1159.71 314.223 1160.69 311.64 1161.66 308.735C1162.32 307.121 1162.64 305.83 1162.97 304.216C1162.97 303.248 1162.64 302.28 1162.64 301.311C1162.32 299.052 1161.34 297.115 1161.01 294.533C1159.39 295.824 1159.39 297.438 1159.39 299.374C1159.39 301.311 1159.39 303.248 1158.74 305.185C1158.41 306.153 1157.43 307.121 1156.46 307.444C1155.48 307.767 1154.18 307.121 1154.51 305.83C1154.83 303.248 1154.51 300.666 1154.18 297.76C1153.53 297.115 1153.53 296.147 1153.53 295.178Z" fill="#FFD2A1"/>
<path d="M1155.81 277.424C1162.97 277.424 1165.89 276.778 1171.43 275.164C1170.13 252.569 1166.87 232.878 1162.32 215.447C1154.83 198.338 1145.39 187.363 1129.45 171.869C1126.19 169.287 1122.94 167.35 1119.36 166.059C1108.62 162.185 1096.91 164.768 1093 174.129C1103.09 185.427 1128.8 212.864 1138.89 224.485C1143.44 244.176 1153.85 269.354 1155.81 277.424Z" fill="#FE0782"/>
<path d="M1171.43 275.163L1172.08 281.296L1156.78 284.201L1155.81 277.423L1171.43 275.163Z" fill="#E6DCDC"/>
<path d="M1069.9 130.55C1069.57 125.063 1068.6 123.126 1065.99 117.961C1053.95 95.6882 1042.56 105.372 1034.1 109.569C1024.34 114.733 1018.48 126.031 1025.32 141.525C1026.62 142.817 1027.92 143.785 1027.92 143.785L1028.9 153.792C1028.9 155.406 1030.52 156.697 1032.15 156.051L1034.75 155.729C1035.4 157.343 1038.66 163.799 1038.66 163.799C1040.61 167.672 1045.49 172.837 1050.37 169.609C1064.69 160.893 1066.64 151.209 1059.16 138.943C1062.41 136.361 1070.22 134.424 1069.9 130.55Z" fill="#FFD2A1"/>
<path d="M1072.5 141.847C1062.41 150.885 1058.51 130.872 1058.51 130.872C1058.51 130.872 1056.88 136.037 1056.56 137.974C1053.95 139.265 1053.95 139.588 1051.68 140.556C1043.54 126.031 1041.59 113.119 1022.39 127.967C1017.83 129.258 1014.9 113.765 1035.08 105.372C1046.79 100.53 1059.16 101.499 1066.32 112.151C1070.55 118.929 1075.76 127.967 1072.5 141.847Z" fill="#2F2E29"/>
<path d="M1061.44 129.905C1063.07 133.456 1062.09 138.943 1059.81 140.234C1057.53 141.526 1055.91 138.62 1053.95 135.07C1052.65 132.81 1051.03 129.582 1053.3 127.646C1055.26 125.709 1058.84 124.741 1061.44 129.905Z" fill="#FFD2A1"/>
<path d="M219.286 115.378C210.825 114.409 203.015 112.15 196.182 106.662L197.158 103.434L200.087 95.0413L205.619 79.2242C210.5 65.6667 220.913 62.4387 231.326 70.8314C239.787 78.5786 230.025 90.1993 225.469 100.852C222.54 109.244 219.286 115.378 219.286 115.378Z" fill="#EDEDED"/>
<path d="M220.263 189.299C219.287 180.906 209.199 134.746 208.874 133.132L212.453 131.195L218.961 115.378C217.334 115.055 215.382 115.055 213.755 114.732C211.477 114.41 208.874 113.764 206.596 112.796C205.945 112.473 205.294 112.15 204.643 112.15C203.992 111.827 203.016 111.505 202.365 111.182C201.714 110.859 201.064 110.536 200.087 109.891C199.762 109.891 199.762 109.568 199.437 109.568C199.111 109.568 199.111 109.245 198.786 109.245C198.46 108.922 197.809 108.599 197.484 108.277C196.833 107.954 196.182 107.308 195.532 106.985L189.023 126.03C188.372 127.967 188.372 129.904 189.023 131.841L206.921 189.622L208.223 193.495L209.199 193.172L220.263 190.59C220.589 190.59 220.589 189.944 220.263 189.299Z" fill="#F2BF89"/>
<path d="M208.874 52.7541C207.573 54.6909 205.295 55.6593 203.993 57.5961C202.041 60.5013 202.692 64.6976 204.319 67.9256C205.946 71.1536 208.549 73.736 210.176 76.964C217.335 65.3432 224.169 53.3997 230.026 41.1334C231.003 39.1966 231.979 36.937 231.979 34.6775C231.979 30.4811 229.05 26.6075 224.82 25.9619C223.844 25.9619 222.867 25.9619 222.216 26.2847C221.566 26.9303 221.24 27.5759 220.915 28.2215C218.637 33.7091 212.779 36.937 211.152 42.4246C210.176 45.9754 210.827 49.8489 208.874 52.7541Z" fill="#3C3C3B"/>
<path d="M217.986 218.997H164.618L163.967 248.371C173.729 253.858 217.66 247.403 231.002 230.295L217.986 218.997Z" fill="#3C3C3B"/>
<path d="M232.304 247.08C231.002 251.922 229.701 258.378 228.399 263.543C228.074 265.157 227.748 266.448 227.423 268.062C226.772 270.322 226.446 272.581 225.796 274.841C225.47 275.809 225.47 276.455 225.145 277.1C220.264 299.696 215.057 336.818 212.454 348.761L204.644 352.635L198.135 355.863C198.135 354.895 198.135 353.926 198.135 352.958V352.635C198.461 341.014 198.135 319.387 197.81 310.026C197.485 301.633 197.159 294.209 196.834 287.43C196.508 281.62 196.508 276.455 196.508 271.613C196.508 269.999 196.508 268.708 196.834 267.416C197.159 263.22 197.485 259.346 198.461 255.473C199.437 250.954 201.064 246.757 203.017 242.884C199.437 237.719 194.556 232.554 189.024 225.776C183.166 218.674 176.658 210.281 169.824 198.983L194.23 195.11L211.477 192.527C216.359 203.18 222.541 214.155 227.748 225.776C228.399 227.067 229.05 228.681 229.375 229.972C230.026 231.263 230.351 232.554 231.002 233.523C231.653 235.137 231.979 236.751 232.304 238.365C232.955 240.947 232.955 244.175 232.304 247.08Z" fill="#F2BF89"/>
<path d="M243.042 368.129C243.042 371.357 229.7 371.034 228.073 371.034L207.247 370.388H200.738C197.159 369.743 196.182 366.515 196.508 362.964C196.508 362.641 196.508 362.318 196.508 361.996C196.508 361.027 196.833 359.736 197.159 358.768C197.159 358.122 197.484 357.799 197.484 357.477C197.81 356.831 197.81 356.186 198.135 355.863C198.46 355.217 198.46 354.572 198.786 354.572C199.437 352.958 200.413 351.989 202.04 351.344C202.691 351.021 204.318 351.021 207.247 351.344C209.199 351.666 211.477 352.312 214.406 353.603C214.406 353.603 214.731 353.603 214.731 353.926C219.287 355.863 223.517 357.154 227.422 358.768C227.748 358.768 228.073 359.091 228.399 359.091C228.399 359.091 228.724 359.091 228.724 359.413C229.7 359.736 230.351 360.059 231.327 360.382C232.629 360.705 233.931 361.35 235.232 361.996C236.859 362.641 238.486 363.61 239.788 364.255C241.09 365.224 242.391 366.515 243.042 368.129C243.042 367.806 243.042 368.129 243.042 368.129Z" fill="#3C3C3B"/>
<path d="M211.802 330.362L213.429 323.583H199.762C200.413 329.716 199.762 347.469 198.135 354.571C198.135 354.571 198.135 354.571 198.135 354.894C198.135 354.894 203.341 355.539 207.897 358.121C216.683 363.286 224.819 364.577 231.002 360.381C226.12 358.444 218.961 356.83 213.104 349.729C211.477 347.792 211.477 332.944 211.802 330.362Z" fill="#F2BF89"/>
<path d="M208.548 250.308C208.222 251.276 208.222 251.922 207.897 252.89C206.595 256.764 205.293 261.283 203.666 266.448C203.341 268.062 202.69 269.353 202.365 270.967C201.714 272.904 201.063 275.163 200.412 277.423C200.087 278.068 199.761 279.037 199.761 279.682C199.111 282.265 198.134 284.847 197.483 287.752C191.626 307.766 185.443 339.723 182.514 350.375L174.379 353.603L167.545 356.185C167.545 355.217 167.871 354.249 167.871 353.28V352.957C169.172 341.337 169.823 319.709 170.149 310.671C170.799 295.177 170.149 282.5 171.148 272.5C171.148 272.5 171.879 268 171.648 269.5C172.949 260.462 176.006 250.953 180.562 243.529C176.657 238.687 172.752 232.877 168.196 225.775C163.315 218.028 158.434 208.667 152.576 196.401L194.88 195.109H195.206C198.785 205.439 202.365 215.123 205.619 225.775C206.27 228.035 207.246 230.294 207.897 232.877C207.897 233.199 207.897 233.522 208.222 233.522C209.849 238.687 209.849 244.497 208.548 250.308Z" fill="#FFC990"/>
<path d="M206.921 370.71C203.016 371.355 197.809 371.355 197.158 371.355L169.498 370.71C166.895 370.064 165.918 368.45 165.267 366.513C164.942 364.899 164.942 362.64 165.267 361.026C165.593 359.089 166.244 357.475 166.569 356.507C166.895 355.861 166.895 355.216 167.22 355.216V354.893C167.871 353.602 168.847 352.311 170.474 351.988C171.45 351.665 173.403 351.342 176.982 352.311C177.308 352.311 177.633 352.633 177.959 352.633C178.284 352.633 178.61 352.956 178.61 352.956C179.911 353.279 181.213 353.925 182.84 354.57C182.84 354.57 183.165 354.57 183.165 354.893C185.443 355.861 187.396 356.507 189.348 357.152C189.348 357.152 189.674 357.152 189.674 357.475C191.626 358.121 193.579 359.089 195.857 359.735C196.182 359.735 196.182 360.058 196.507 360.058C197.809 360.38 198.785 361.026 199.762 361.349C201.063 361.672 202.365 362.317 203.667 362.963C206.27 363.931 208.873 365.222 210.175 366.836C210.826 367.482 211.476 368.127 211.802 369.096C212.453 369.418 210.175 370.064 206.921 370.71Z" fill="#3C3C3B"/>
<path d="M180.888 330.362L182.515 323.583L169.649 323C169.649 329.5 168.848 347.469 167.221 354.571C167.221 354.571 167.221 354.571 167.221 354.894C167.221 354.894 172.427 355.539 176.983 358.121C185.769 363.286 193.905 364.577 200.088 360.381C195.206 358.444 188.047 356.83 182.19 349.729C180.563 347.792 180.563 332.944 180.888 330.362Z" fill="#FFC990"/>
<path d="M250.852 108.599C250.852 109.567 250.852 110.859 250.526 111.827C250.201 113.764 249.55 115.378 248.899 116.992C245.971 122.802 240.113 126.675 233.279 126.675C231.002 126.675 228.724 126.353 226.771 125.384C220.263 122.802 215.707 116.346 215.707 108.922C215.707 104.403 217.334 100.529 219.937 97.3015C220.263 96.6559 220.914 96.3331 221.239 95.6875C224.493 92.7824 228.724 90.8457 233.279 90.8457C240.439 90.8457 246.621 95.3648 249.55 101.821L250.201 104.08C250.526 105.371 250.852 106.985 250.852 108.599Z" fill="#FE0782"/>
<path d="M188.373 148.625C196.833 161.214 205.294 176.709 213.755 193.817C217.009 200.273 220.263 207.052 223.517 214.153C226.121 219.641 228.399 225.128 231.002 230.616C230.676 230.616 230.676 230.616 230.351 230.616C211.802 231.907 195.206 233.844 178.935 240.946C174.054 242.882 169.173 245.465 164.292 248.693C160.712 235.458 141.838 210.925 133.052 185.747C125.242 163.151 125.567 140.233 152.902 124.093C187.722 94.7181 188.047 65.3435 225.47 48.8809L239.137 67.6031L249.876 101.497L250.527 103.756C248.249 106.016 245.646 108.276 243.368 110.535C237.836 115.7 232.304 120.542 227.097 125.061C217.66 132.808 208.548 138.941 200.087 142.492C194.881 144.752 189.349 145.075 188.373 148.625Z" fill="#FE0782"/>
<path d="M250.202 43.7171C250.202 43.7171 245.972 32.742 235.233 30.4824L225.145 48.8819C223.843 67.6042 231.003 79.8705 244.995 87.2948L238.487 67.6042L250.202 43.7171Z" fill="#F2BF89"/>
<path opacity="0.2" d="M232.514 238.741C224.054 233.576 210.386 239.063 208.434 250.684C198.02 240.677 182.539 260.766 171.149 274C171.149 273.677 170.812 274.531 171.649 268C172.951 258.962 176.094 250.924 180.649 243.5C179.999 242.854 178.821 241.646 178.496 241C195.092 233.899 211.362 232.285 229.911 230.671C230.237 231.639 230.562 232.285 230.887 233.253C231.864 235.513 232.189 237.127 232.514 238.741Z" fill="#3C3C3B"/>
<path opacity="0.2" d="M231.003 230.616C230.677 230.616 230.677 230.616 230.352 230.616C211.803 231.907 195.207 233.844 178.936 240.945C174.055 242.882 169.174 245.465 164.293 248.693C160.713 235.458 141.839 210.925 133.053 185.747C169.825 223.837 212.129 235.458 223.193 214.153C225.796 219.318 228.399 224.806 231.003 230.616Z" fill="#3C3C3B"/>
<path opacity="0.2" d="M248.575 116.671C245.646 122.481 239.789 126.355 232.955 126.355C230.677 126.355 228.399 126.032 226.447 125.063C217.01 132.811 207.898 138.944 199.437 142.817C194.556 145.077 189.349 145.077 188.048 148.628C196.508 161.217 204.969 176.711 213.43 193.819C197.485 166.704 179.261 147.337 158.109 139.912C172.428 142.817 185.119 142.817 194.23 138.298L195.858 129.905C203.342 123.449 207.247 118.285 209.85 106.341L220.915 74.707C219.287 83.7454 218.637 91.1697 218.962 97.3029C219.938 111.829 226.447 117.639 232.955 119.253C240.114 120.544 246.622 118.285 248.575 116.671Z" fill="#3C3C3B"/>
<path d="M210.502 112.796C202.041 110.859 194.557 107.954 188.699 101.821L190.001 98.9159L193.906 90.8459L201.065 75.6744C207.573 62.7625 218.312 60.5029 227.424 70.1869C234.908 78.5796 223.844 89.5547 218.312 99.5614C214.407 106.986 210.502 112.796 210.502 112.796Z" fill="#FE0782"/>
<path d="M202.366 127.644L210.501 112.795C208.874 112.472 207.247 112.149 205.295 111.504C203.017 110.858 200.739 109.89 198.461 108.921C197.81 108.599 197.159 108.276 196.508 107.953C195.858 107.63 195.207 107.307 194.231 106.662C193.58 106.339 192.929 105.693 192.278 105.371C191.953 105.371 191.953 105.048 191.627 105.048C191.302 105.048 191.302 104.725 190.976 104.725C190.651 104.402 190 104.079 189.675 103.757C189.024 103.111 188.699 102.788 188.048 102.143L179.261 120.219C178.285 121.833 178.285 124.093 178.611 126.03L190 185.424L190.651 189.298H191.627L200.088 188.33C200.739 187.684 202.366 129.258 202.366 127.644Z" fill="#FFC990"/>
<path d="M261.266 46.2977C264.52 38.228 272.981 33.0634 276.886 25.3164C276.886 30.1582 274.934 34.6773 272.656 38.8736C270.378 43.0698 267.449 46.9433 265.497 51.4623C263.544 55.9814 262.893 61.146 264.52 65.6651C259.965 60.1777 258.663 52.4307 261.266 46.2977Z" fill="#3C3C3B"/>
<path d="M255.408 1.43064C262.567 3.04463 269.401 6.59541 274.282 12.083C279.164 17.5705 281.441 25.3177 280.14 32.4192C279.164 37.2612 276.235 41.4576 274.282 45.9767C272.004 50.4959 270.703 55.6607 272.004 60.1798C267.449 57.5975 263.869 53.4011 262.242 48.5591C258.662 37.9068 263.869 25.6405 259.313 15.6337C256.71 9.82338 251.178 5.94981 245.32 2.72183C247.924 0.462248 251.829 0.785046 255.408 1.43064Z" fill="#3C3C3B"/>
<path d="M226.445 26.6094C226.771 20.4762 220.913 22.7358 223.517 17.2482C235.557 -7.60719 252.804 1.43114 262.241 5.62751C286.322 17.571 272.654 39.1985 268.424 44.0405C267.448 45.3316 267.122 49.8508 267.773 52.756C268.098 55.3384 267.448 55.984 265.495 56.3068C264.194 56.6296 262.566 55.984 261.916 56.9524C259.963 59.8575 258.011 62.4399 256.058 63.7311C252.153 66.6363 248.248 66.9591 244.018 64.3767C244.018 64.3767 232.954 59.5347 236.533 41.7809C232.303 39.8441 226.12 31.1285 226.445 26.6094Z" fill="#FFC990"/>
<path d="M262.242 7.88663C262.567 7.24103 262.892 6.27264 262.567 5.62705C262.242 4.98145 261.591 4.65865 261.265 4.65865C254.757 1.75347 247.598 -1.15171 240.439 0.462281C235.232 1.43067 231.002 4.65865 227.422 8.53223C218.961 17.8934 212.128 39.5208 214.731 51.7871C225.144 40.4892 233.28 42.426 239.463 37.584C245.645 32.7421 250.527 23.7037 255.733 17.5706C258.011 14.3426 260.615 11.4374 262.242 7.88663Z" fill="#3C3C3B"/>
<path d="M232.63 30.8043C231.003 34.6778 232.304 40.8108 234.908 41.7792C237.511 43.0703 238.813 39.5196 240.44 35.6462C241.741 33.0639 244.019 29.5132 241.416 27.5764C239.138 25.9625 235.233 24.9941 232.63 30.8043Z" fill="#FFC990"/>
<path d="M281.766 28.2219C282.091 37.26 274.932 45.3298 274.932 54.3679C272.329 50.4944 272.654 45.3298 273.63 40.4879C274.932 35.9689 276.885 31.4498 276.885 26.608C276.885 19.8294 272.98 13.3736 268.424 8.20898C271.678 11.1141 274.607 13.6964 277.21 16.9243C279.813 20.1522 281.766 24.0257 281.766 28.2219Z" fill="#3C3C3B"/>
<path d="M276.561 18.2143C277.537 20.7966 277.211 23.0561 276.235 25.6384C273.306 32.7398 266.473 38.2272 258.988 39.1956C254.107 39.8412 248.575 38.8728 244.67 42.1007C248.575 37.5816 253.131 33.7082 257.361 29.8347C259.314 27.898 261.592 25.6384 262.242 22.7333C262.893 20.4738 262.568 18.2143 261.917 15.9548C260.615 11.4357 257.687 4.01155 253.131 3.04318C260.29 2.3976 267.449 7.56223 272.656 12.4041C274.283 14.018 275.91 16.2775 276.561 18.2143Z" fill="#3C3C3B"/>
<path d="M241.089 16.9255C241.414 14.3432 243.367 12.0837 245.645 10.4697C248.899 7.88742 253.129 5.95069 257.36 6.27348C261.59 6.27348 265.82 8.533 267.773 12.4065C270.051 17.2483 268.098 23.0585 264.519 26.932C260.939 30.8055 256.058 33.065 251.177 35.3245C246.296 37.584 241.414 40.1664 238.16 44.3626C239.462 39.5208 244.343 35.6473 244.343 30.8055C244.343 25.6408 240.438 21.4446 241.089 16.9255Z" fill="#3C3C3B"/>
<path d="M211.803 191.558L214.732 196.723C215.058 197.369 215.383 198.014 215.708 198.66L217.661 204.793C217.986 206.084 219.288 206.73 220.264 206.407C221.24 206.084 221.891 204.793 221.566 203.502L219.288 195.755L212.78 183.812C212.78 183.812 211.478 183.812 211.478 184.134L210.827 186.394C210.502 188.331 210.827 189.945 211.803 191.558Z" fill="#F2BF89"/>
<path d="M222.867 217.381C222.867 217.059 222.541 216.736 222.541 216.413V202.533L220.589 199.628L217.986 195.754C214.406 191.235 212.779 188.653 212.128 186.716C211.803 185.748 211.803 184.78 211.803 184.134L218.962 182.197C219.287 183.166 219.613 183.811 220.264 184.457L227.748 195.109C228.399 196.077 228.724 197.046 228.724 198.014L229.05 206.406C229.05 206.729 229.05 206.729 229.05 207.052L227.097 217.704C227.097 218.027 226.772 218.35 226.121 218.35C225.796 218.35 225.796 218.35 225.47 218.35C225.145 218.35 225.145 218.027 224.819 218.027C224.494 218.027 224.494 217.704 224.494 217.704C224.494 217.704 224.494 217.381 224.169 217.381C223.192 217.704 223.192 217.704 222.867 217.381Z" fill="#F2BF89"/>
<path d="M215.057 199.95L210.502 192.849L200.739 183.488C200.739 183.488 200.739 183.488 200.414 183.488L198.136 184.133L197.16 184.456L196.834 184.133C196.183 183.488 195.858 182.519 195.532 181.874L194.556 182.196C194.231 181.551 193.905 180.905 193.58 180.26C193.58 180.26 188.048 188.975 191.627 193.494L196.509 200.595L197.81 214.475C197.81 214.798 197.81 215.121 198.136 215.444C198.136 215.444 198.136 215.767 198.461 215.767C198.461 215.767 198.461 216.089 198.787 216.089C198.787 216.412 199.112 216.412 199.112 216.412C199.437 216.412 199.437 216.735 199.763 216.735C199.763 216.735 199.763 217.058 200.088 217.058C200.088 217.058 200.088 217.381 200.414 217.381C200.414 217.703 200.739 217.703 200.739 217.703C201.064 217.703 201.064 218.026 201.39 218.026H201.715C201.715 218.349 201.715 218.672 202.041 218.994C202.041 218.994 202.041 219.317 202.366 219.317C202.366 219.317 202.366 219.64 202.692 219.64C202.692 219.963 203.017 219.963 203.017 219.963C203.342 219.963 203.342 220.286 203.668 220.286C203.993 220.286 203.993 220.286 204.319 220.286C204.644 220.286 205.295 219.963 205.295 219.64V219.317C205.62 219.317 205.62 219.64 205.946 219.64C206.271 219.64 206.271 219.64 206.597 219.64C206.922 219.64 207.573 219.317 207.573 218.994L209.525 208.342C209.525 208.02 209.525 208.02 209.525 207.697L209.2 199.304L210.827 201.564C211.803 202.532 213.105 203.178 214.081 202.532C215.708 202.532 215.708 201.241 215.057 199.95Z" fill="#FFC990"/>
<path d="M255.083 368.774H149.648V385.559H255.083V368.774Z" fill="#D3996A"/>
<path d="M183.817 385.56L180.563 398.149L155.831 497.57H149.648L165.268 398.149L167.546 385.56H183.817Z" fill="#D3996A"/>
<path d="M255.083 497.57H248.9L223.843 398.149L220.914 385.56H237.185L239.137 398.149L255.083 497.57Z" fill="#D3996A"/>
<path d="M210.501 385.56L210.176 398.149L206.922 497.57H200.413L194.881 398.149L194.23 385.56H210.501Z" fill="#D3996A"/>
<path opacity="0.2" d="M183.816 385.56L180.562 398.148H165.268L167.545 385.56H183.816Z" fill="#1D1D1B"/>
<path opacity="0.2" d="M210.501 385.56L210.176 398.148H194.881L194.23 385.56H210.501Z" fill="#1D1D1B"/>
<path opacity="0.2" d="M239.137 398.148H223.843L220.914 385.56H237.185L239.137 398.148Z" fill="#1D1D1B"/>
<path d="M685.962 479.323C688.898 480.939 692.486 481.262 694.77 483.846C699.01 488.046 697.053 495.477 690.202 497.092C686.94 498.061 684.983 497.415 668.346 496.769C666.388 496.769 664.105 496.769 662.148 496.769C660.19 496.769 657.907 497.092 655.949 497.415C651.056 498.061 646.489 499.031 641.922 500C644.532 499.354 647.468 498.708 650.077 498.061C653.992 497.092 658.233 496.123 662.148 495.8C666.388 495.477 670.629 495.477 674.544 495.477C685.309 495.477 688.898 495.8 691.834 493.538C694.443 491.6 694.443 488.046 692.486 486.108C691.181 485.139 689.876 484.492 688.245 484.169C686.94 483.846 685.309 483.2 684.004 482.554C684.657 481.262 685.309 480.292 685.962 479.323Z" fill="#FED0A9"/>
<path d="M688.897 480.615C688.897 481.907 688.244 482.876 687.592 483.845C687.265 484.491 686.613 485.138 685.961 485.461C684.656 486.43 683.025 487.076 681.067 487.399C678.457 488.045 674.869 488.368 670.302 488.045H669.65H668.345L649.098 486.107L647.467 486.753L637.027 490.953L634.744 490.307L633.765 489.984C633.765 489.984 633.765 489.984 634.091 489.661L634.418 489.338C636.049 488.045 637.354 487.076 638.659 485.784C644.531 479.968 642.899 476.092 634.744 474.153C632.46 473.507 629.198 474.153 626.588 473.184C624.957 472.538 623.326 471.569 623 468.984C623 467.369 629.851 463.492 637.68 461.553C638.006 461.553 638.659 461.23 639.311 461.23C639.963 461.23 640.29 461.23 640.942 461.23C641.921 461.23 642.573 461.553 643.226 461.876C645.835 463.169 648.119 465.43 652.36 464.461C661.494 460.907 667.692 458.323 674.543 460.261C682.372 463.169 686.939 463.492 689.875 478.676C688.897 479.322 688.897 479.968 688.897 480.615Z" fill="#9D9D9C"/>
<path d="M641.268 458C641.594 458 641.594 458 641.921 458C642.573 458 643.226 458.646 643.552 459.292C643.878 459.938 643.552 460.585 643.226 461.231C642.899 461.877 642.247 462.2 641.921 462.846C641.268 463.492 640.942 464.138 640.616 464.784C640.29 465.108 640.29 465.754 639.637 465.754H639.311C638.658 465.431 637.68 465.108 637.027 464.784C638.006 463.815 638.332 462.523 638.985 461.231C638.985 459.615 639.963 458.323 641.268 458Z" fill="#9D9D9C"/>
<path d="M638.332 458.324C638.985 458.324 639.637 458.647 639.963 459.293C640.29 459.94 640.29 460.586 640.29 461.232C640.29 462.524 640.29 463.493 639.963 464.786C638.985 465.109 638.006 465.432 637.027 465.109C637.027 463.816 637.027 462.524 637.027 461.232C637.027 460.586 637.027 460.263 637.354 459.617C637.354 458.97 637.68 458.324 638.332 458.324Z" fill="#9D9D9C"/>
<path d="M681.068 487.399C681.068 488.045 680.416 488.045 680.089 488.368C674.87 490.307 669.324 489.338 664.105 491.276C662.8 491.922 661.169 492.245 659.537 491.922C659.537 491.599 659.864 491.276 660.19 491.276C659.864 491.599 659.211 491.599 658.559 491.599C658.559 490.953 658.885 490.63 659.211 490.307C658.559 490.63 658.233 490.63 657.58 490.953C657.58 490.307 657.58 489.661 658.233 489.015C657.906 489.015 657.58 489.338 657.254 489.015C657.906 488.368 659.537 488.045 660.516 488.045C661.169 488.045 661.821 488.045 662.473 488.045C664.105 488.045 666.062 487.722 667.693 487.722C668.672 487.722 669.65 487.722 670.303 487.399C671.934 487.399 673.565 487.076 675.522 487.076C674.87 486.107 673.891 485.138 672.586 484.815C673.891 485.138 675.196 483.845 676.501 484.169C676.827 484.169 677.153 484.492 677.48 484.815C678.132 485.461 678.784 485.784 679.763 486.43C680.742 486.753 681.068 487.076 681.068 487.399Z" fill="#9D9D9C"/>
<path d="M630.828 492.89C631.807 492.89 632.459 492.244 633.438 491.921C633.438 492.244 633.112 493.213 633.438 493.536C633.764 493.213 634.743 492.567 635.395 492.244C636.374 491.598 636.7 490.951 637.353 489.982C636.7 489.659 636.374 489.659 635.722 489.659C635.069 489.659 634.417 489.336 633.764 489.659C633.438 489.659 632.786 489.982 632.459 490.305C631.481 490.951 630.502 491.598 629.523 492.567C630.176 492.567 631.155 491.921 631.481 491.921C631.155 491.921 630.828 492.567 630.828 492.89Z" fill="#9D9D9C"/>
<path d="M634.415 489.339C634.089 489.016 633.436 489.339 633.11 489.339C632.131 489.662 630.826 489.985 629.848 490.308C630.5 490.954 631.153 490.954 631.479 490.954C632.131 490.954 632.784 490.954 633.11 490.631C633.762 490.308 634.415 489.985 634.415 489.339Z" fill="#9D9D9C"/>
<path opacity="0.1" d="M641.922 483.197C640.944 484.489 639.639 485.136 638.008 485.459C643.88 479.643 642.249 475.766 634.093 473.828C631.809 473.182 628.547 473.828 625.938 472.859C627.569 472.859 628.873 472.859 630.505 472.536C634.093 471.89 637.355 470.597 639.965 468.013C639.639 470.274 640.291 472.859 641.27 475.12C641.922 476.09 642.575 477.059 642.901 478.351C643.553 479.966 642.901 481.905 641.922 483.197Z" fill="#1D1D1B"/>
<path opacity="0.1" d="M671.933 486.754C671.933 487.078 671.607 487.078 671.281 487.078H670.955C670.629 487.078 669.976 487.401 669.65 487.401C667.366 487.724 665.083 487.724 662.799 487.724C664.43 487.724 666.388 487.401 668.019 487.401L648.772 485.462L647.141 486.108C647.793 485.139 648.446 483.847 649.098 482.555C649.75 480.616 649.75 478.678 649.75 476.739C653.991 482.555 661.494 485.785 668.671 484.493C668.019 483.201 667.04 482.231 666.714 480.939C666.388 479.647 666.388 478.032 667.366 477.062C667.693 480.293 669.976 483.201 671.933 486.108C671.933 486.108 672.26 486.431 671.933 486.754Z" fill="#1D1D1B"/>
<path d="M635.719 465.105C635.719 465.751 635.067 466.397 634.414 466.397C633.762 466.397 633.109 465.751 633.109 465.105C633.109 464.459 633.762 463.812 634.414 463.812C635.067 463.812 635.719 464.459 635.719 465.105Z" fill="#3C3C3B"/>
<defs>
<linearGradient id="paint0_linear" x1="981.298" y1="288.697" x2="843.246" y2="413.629" gradientUnits="userSpaceOnUse">
<stop stop-color="#9E9E9E"/>
<stop offset="1" stop-color="white"/>
</linearGradient>
</defs>
</svg>
