<svg width="860" height="575" viewBox="0 0 860 575" fill="none" xmlns="http://www.w3.org/2000/svg">
<path d="M9.45068 454.092C56.3461 385.588 263.307 407.781 464.809 317.362C654.255 243.978 860 368.654 860 440.332C855.981 574.404 496.767 622.051 139.69 519.997C-10.631 498.344 -10.9537 483.898 9.45068 454.092Z" fill="#C6FFE7"/>
<path d="M602.29 290.513H598.66C570.819 289.02 543.148 272.167 524.402 245.459C509.072 223.358 502.239 198.74 505.186 176L510.353 176.682C507.62 198.015 514.111 221.481 528.757 242.387C546.479 267.986 572.74 283.815 598.959 285.052C628.466 286.631 656.692 267.559 663.012 241.747C670.101 213.502 652.081 185.855 640.722 171.904C637.348 167.637 632.181 162.389 626.545 162.944L626.118 157.867C634.359 156.971 640.765 163.627 644.864 168.704C656.863 183.466 675.994 212.735 668.179 243.198C661.39 270.29 632.865 290.513 602.29 290.513Z" fill="#3C3C3B"/>
<path d="M523.507 171.52C514.966 171.776 508.775 174.079 505.401 178.303C504.32 179.675 503.531 181.253 503.083 182.941C502.635 184.628 502.538 186.39 502.796 188.116L505.7 187.519C505.514 186.214 505.6 184.885 505.952 183.614C506.305 182.344 506.917 181.16 507.75 180.138C510.568 176.639 515.906 174.719 523.592 174.463L523.507 171.52Z" fill="#407E7E"/>
<path d="M482.726 182.997L480.079 178.176L384.939 229.886C383.342 230.764 382.003 232.044 381.053 233.598L367.218 256.339L371.915 259.197L385.622 236.499C386.076 235.703 386.761 235.063 387.587 234.665L482.726 182.997Z" fill="#669898"/>
<path d="M499.766 191.658L501.516 186.666L509.032 187.733C510.154 187.862 511.289 187.639 512.277 187.093L521.33 182.186C521.958 181.862 522.513 181.412 522.96 180.864C523.407 180.317 523.737 179.684 523.929 179.004C524.121 178.324 524.171 177.612 524.077 176.912C523.982 176.211 523.745 175.538 523.38 174.933L517.999 164.992L520.006 163.883L525.899 174.677C526.812 176.364 527.019 178.344 526.475 180.183C525.93 182.021 524.68 183.57 522.995 184.49L512.875 189.994C511.662 190.644 510.321 191.023 508.947 191.103L499.766 191.658Z" fill="#669898"/>
<path d="M515.657 156.15L499.94 164.693L504.634 173.313L520.351 164.769L515.657 156.15Z" fill="#D3996A"/>
<path d="M485.456 186.58C485.013 186.81 484.498 186.858 484.019 186.715C483.541 186.571 483.138 186.247 482.894 185.812L478.154 177.279C477.924 176.836 477.876 176.321 478.02 175.843C478.163 175.366 478.487 174.962 478.923 174.719L480.887 173.652L487.421 185.641L485.456 186.58Z" fill="#D3996A"/>
<path d="M492.035 194.859L487.765 186.923L481.146 174.934L480.89 174.465C480.486 173.686 480.399 172.781 480.645 171.939C480.892 171.097 481.453 170.382 482.213 169.943L495.707 162.604C496.487 162.201 497.393 162.114 498.235 162.36C499.078 162.606 499.794 163.167 500.234 163.927L500.49 164.439L505.187 172.972V173.228C505.473 173.766 505.619 174.368 505.614 174.977L505.187 189.654C505.167 190.235 504.995 190.801 504.688 191.295C504.38 191.789 503.949 192.194 503.436 192.47L496.647 196.267C496.255 196.494 495.821 196.639 495.371 196.691C494.922 196.742 494.466 196.701 494.033 196.569C493.6 196.437 493.199 196.217 492.855 195.922C492.512 195.628 492.232 195.266 492.035 194.859Z" fill="#006456"/>
<path d="M372.213 258.813L367.345 255.869L360 263.037L369.394 268.626L372.213 258.813Z" fill="#407E7E"/>
<path d="M603.401 355.791C602.997 357.455 602.454 359.082 601.778 360.655C601.57 362.065 600.984 363.393 600.082 364.497C599.18 365.601 597.995 366.441 596.654 366.927C590.502 369.291 583.789 369.795 577.353 368.377C569.453 366.927 562.321 363.044 560.699 356.772L560.357 347.642L559.546 327.845L558.82 310.267L556.429 245.757C555.959 241.491 599.131 224.424 599.771 224.979C603.529 237.352 605.408 243.794 602.675 255.485C607.884 284.924 606.902 342.181 603.401 355.791Z" fill="#02826D"/>
<path d="M634.145 492.491L616.723 495.563L605.279 497.568L591.443 500L567.786 499.616C567.786 499.616 565.523 490.357 570.605 485.878C575.686 481.398 580.853 484.64 587.301 481.611C590.052 480.28 592.496 478.391 594.475 476.065C596.972 472.959 600.262 470.586 603.998 469.195C606.999 468.037 610.176 467.402 613.392 467.318C617.366 467.207 621.341 467.478 625.263 468.129C626.63 468.129 630.686 472.395 633.334 487.926L634.145 492.491Z" fill="#3C3C3B"/>
<path d="M627.315 475.04L614.504 476.832L606.305 477.984L599.26 479.008L597.637 472.694L594.776 461.473L592.342 451.958L598.405 450.038L611.942 445.644L618.219 443.639L621.422 454.732L625.265 467.958L627.315 475.04Z" fill="#3C3C3B"/>
<path d="M627.484 448.375C627.484 450.338 625.008 452.642 621.421 454.732C618.571 456.431 615.569 457.859 612.453 458.999C608.962 460.205 605.356 461.048 601.692 461.516C599.393 461.768 597.074 461.768 594.775 461.516C590.078 461.047 586.491 459.127 585.551 455.159L560.699 356.773V356.09C560.366 353.256 560.366 350.392 560.699 347.557C561.51 334.758 567.317 319.611 576.797 316.582C577.429 316.341 578.089 316.183 578.762 316.113H579.231C584.355 315.43 588.882 319.099 592.554 324.646C597.998 333.82 601.609 343.963 603.187 354.512C603.443 354.853 603.571 355.237 603.828 355.621C613.606 375.162 623.001 410.062 627.484 448.375Z" fill="#02826D"/>
<path d="M517.998 93.6133C530.809 100.781 536.745 78.7657 541.954 69.7207L534.225 45.2734L502.284 59.225L517.998 93.6133Z" fill="#FFC990"/>
<path d="M495.109 73.9008C495.95 74.9183 497.043 75.6979 498.279 76.162C499.515 76.6262 500.852 76.7586 502.155 76.546L508.432 75.3514C510.75 74.6463 512.91 73.502 514.795 71.9808C520.517 67.373 536.786 52.0135 536.53 47.4056C536.274 42.7977 540.587 34.1367 540.117 27.4809C534.779 -1.74486 516.845 2.69233 505.913 4.27095C501.373 5.04233 497.13 7.0404 493.645 10.0487C490.16 13.057 487.565 16.9607 486.142 21.3371C485.105 24.4772 484.557 27.7582 484.519 31.0648C484.496 33.0459 484.596 35.0265 484.818 36.9953C485.409 38.1137 486.065 39.1964 486.782 40.2378L486.355 41.9018L484.348 49.1975C484.256 49.6461 484.26 50.109 484.36 50.5559C484.46 51.0027 484.654 51.4234 484.928 51.7902C485.202 52.157 485.551 52.4615 485.952 52.6839C486.352 52.9062 486.796 53.0412 487.252 53.0801L490.199 53.4214C490.54 55.3414 491.48 66.477 491.48 66.477C492.001 69.2323 493.254 71.7967 495.109 73.9008Z" fill="#FFC990"/>
<path d="M536.914 54.3179C517.74 61.6137 525.427 37.2518 525.427 37.2518C525.427 37.2518 522.053 45.0595 520.772 47.3208C517.527 47.7475 517.527 47.7474 514.581 47.9608C509.456 23.2149 512.787 11.2686 486.141 21.3376C464.705 15.9191 495.792 2.18087 508.303 0.388922C523.036 -1.70168 537.084 4.65546 540.586 18.991C542.636 27.3961 544.216 32.0039 536.914 54.3179Z" fill="#3C3C3B"/>
<path d="M454.027 207.77L425.229 215.109L426.843 221.435L455.642 214.095L454.027 207.77Z" fill="#3C3C3B"/>
<path d="M584.698 132.949L563.347 215.165L580.086 224.338L614.674 148.906C616.407 145.888 617.385 142.497 617.526 139.021C617.667 135.545 616.967 132.086 615.486 128.938C614.505 126.75 613.051 124.808 611.226 123.251C609.402 121.694 607.254 120.561 604.938 119.936H604.597C600.238 119.096 595.723 119.985 592.008 122.414C588.294 124.843 585.672 128.621 584.698 132.949Z" fill="#407E7E"/>
<path d="M561.596 76.8018L612.198 124.032L593.281 155.093L537.769 105.217C530.381 99.2011 521.243 84.2682 529.228 75.0098C529.527 75.0098 543.021 59.7356 561.596 76.8018Z" fill="#407E7E"/>
<path d="M596.865 210.771C593.449 212.734 589.99 214.526 586.531 216.104C580.629 218.951 574.466 221.223 568.127 222.888L566.675 223.272C560.706 224.708 554.58 225.382 548.441 225.277C542.978 225.214 537.543 224.483 532.257 223.101C532.03 222.731 531.816 222.305 531.617 221.821C527.682 212.83 524.288 203.612 521.454 194.217C520.557 191.572 519.703 188.884 518.892 186.238C518.08 183.593 517.312 181.247 516.586 178.815C514.963 173.524 513.468 168.49 512.315 164.223L511.803 162.602C511.034 159.999 510.351 157.695 509.881 155.903C509.07 153.087 508.643 151.381 508.643 151.338C508.643 151.295 508.643 150.272 508.302 149.717C504.342 127.932 506.063 105.495 513.298 84.5669L515.732 83.1589V80.6844C515.69 80.4444 515.69 80.199 515.732 79.959C515.818 78.071 516.337 76.228 517.247 74.5713C518.158 72.9146 519.436 71.4884 520.984 70.402L538.406 59.0957L542.25 66.6048L545.324 67.2448C547.994 67.9384 550.573 68.9407 553.01 70.2313C557.76 72.7253 562.003 76.0821 565.522 80.1297C572.286 88.2557 577.497 97.5549 580.895 107.564C589.435 131.072 592.937 160.127 594.773 182.655C595.157 187.305 595.456 191.657 595.755 195.454C596.225 201.683 596.566 206.846 596.865 210.771Z" fill="#006456"/>
<path d="M597.763 264.018C595.075 267.514 591.722 270.445 587.897 272.641C584.071 274.838 579.849 276.257 575.473 276.818L565.737 272.04L536.657 257.832L527.646 253.565L532.301 223.188L546.136 220.542L576.028 214.868L596.994 210.857C596.994 210.857 597.592 212.18 598.404 214.399C601.305 222.287 603.074 230.547 603.656 238.931C604.642 247.722 602.561 256.584 597.763 264.018Z" fill="#02826D"/>
<path d="M586.679 214.37L583.722 214.806L586.239 231.858L589.196 231.422L586.679 214.37Z" fill="#407E7E"/>
<path d="M544.9 494.496V499.189H477.602C477.602 499.189 474.356 489.035 480.207 485.494C488.747 480.331 500.234 483.361 508.732 475.979C509.865 475.004 511.096 474.146 512.404 473.42C515.983 471.428 520.008 470.371 524.104 470.348C526.337 470.37 528.565 470.569 530.766 470.945H531.919C534.81 471.573 537.662 472.37 540.459 473.334C541.783 474.017 545.071 478.539 544.9 494.496Z" fill="#3C3C3B"/>
<path d="M541.225 480.886L530.934 480.545L530.507 480.502L526.792 480.374L512.956 479.99L512.401 473.462L511.846 465.782L510.778 452.13L536.784 448.503L537.552 448.418L537.723 448.375V448.418V448.631V448.716L539.559 465.569L540.456 473.59L541.225 480.886Z" fill="#3C3C3B"/>
<path d="M585.125 238.163V238.76C584.826 240.68 584.228 243.326 583.502 246.568C582.007 253.011 579.787 261.714 577.097 271.485C576.627 273.234 576.114 275.026 575.602 276.818L574.705 280.018C574.586 280.339 574.486 280.666 574.406 280.999C570.136 296.487 564.756 313.51 559.717 327.931C554.422 343.077 549.34 355.194 545.668 359.333C546.206 351.865 545.847 344.359 544.6 336.976L544.216 334.971C544.216 334.587 544.216 334.16 543.96 333.819C541.91 324.603 537.939 316.753 531.149 316.241H530.808C519.235 315.131 508.176 332.539 505.187 346.106C507.291 326.222 511.383 306.597 517.399 287.527C520.602 276.477 524.232 265.17 527.989 253.693C528.459 252.157 528.971 250.621 529.484 249.085L532.131 239.4C532.516 237.267 539.092 239.955 545.284 235.731C560.699 224.724 585.167 237.566 585.125 238.163Z" fill="#02826D"/>
<path d="M549.894 394.105C550.684 416.372 549.756 438.666 547.118 460.791C546.52 462.753 543.659 464.417 539.56 465.654C537.195 466.341 534.783 466.854 532.343 467.19C530.361 467.469 528.366 467.64 526.365 467.702C521.454 467.992 516.531 467.37 511.846 465.868C507.576 464.332 504.758 461.601 504.758 457.719L503.989 350.842C504.164 349.189 504.449 347.55 504.843 345.936C504.822 346.106 504.822 346.277 504.843 346.448C504.331 355.578 516.971 362.447 528.329 364.196L530.849 364.495C532.737 364.688 534.64 364.688 536.528 364.495C538.368 364.532 540.183 364.067 541.779 363.149C543.374 362.232 544.688 360.898 545.581 359.29C548.233 370.712 549.679 382.381 549.894 394.105Z" fill="#02826D"/>
<path d="M544.642 336.32C545.92 344.672 547.5 357 545.5 359.5C544.585 361.319 543.474 364.94 541.84 365.978C540.206 367.015 538.346 367.542 536.461 367.5C534.527 367.719 532.577 367.719 530.643 367.5L528.061 367.162C516.424 365.183 504 356.5 504 347C507.5 325.5 518.568 311.51 530.249 312.717H530.73C537.598 313.441 541.667 322.37 543.854 332.603C543.854 332.989 543.854 333.472 544.117 333.906L544.642 336.32Z" fill="#02826D"/>
<path d="M568.812 222.633C547.674 222.633 525.768 218.366 517.1 192.085C504.588 152.875 498.14 121.303 507.278 94.3383C512.659 78.9788 520.772 74.0723 526.622 72.6643C532.472 71.2564 541.141 71.939 552.03 82.3494L544.771 89.8584C540.5 85.8906 534.607 81.3254 529.056 82.8187C524.316 83.928 520.132 89.2185 517.142 97.7089C508.944 121.943 515.135 151.681 527.007 188.885C532.771 206.377 544.984 212.735 571.929 212.18V222.59L568.812 222.633Z" fill="#3C3C3B"/>
<path d="M541.443 174.933V176.042C541.467 176.369 541.467 176.697 541.443 177.024C541.235 178.16 540.92 179.274 540.503 180.352C539.186 183.572 537.101 186.422 534.429 188.653C531.757 190.884 528.579 192.429 525.173 193.151L521.757 194.261L476.408 208.767L446.047 218.409L441.776 199.85L471.668 184.192L507.196 165.376L512.448 162.646L517.145 160.171C521.027 157.934 525.634 157.311 529.971 158.437C534.309 159.562 538.03 162.345 540.332 166.187V166.485C541.595 169.111 541.984 172.071 541.443 174.933Z" fill="#02826D"/>
<path d="M550.064 108.376L541.182 176.939L504.886 179.712L513.127 105.731C513.725 96.2161 520.557 80.1313 532.856 81.2833C532.856 81.2833 553.011 83.4592 550.064 108.376Z" fill="#02826D"/>
<path d="M476.108 208.723L476.62 211.24L445.789 218.365C447.754 216.445 449.547 214.099 451.298 212.179C451.943 211.52 452.387 210.691 452.579 209.789C452.582 208.798 452.217 207.84 451.554 207.101C448.928 203.822 445.438 201.339 441.477 199.934L471.026 183.465V183.977L475.296 205.309L476.108 208.723Z" fill="#006456"/>
<path d="M445.704 218.195C442.231 212.728 440.725 206.243 441.434 199.807C445.395 201.212 448.885 203.695 451.511 206.974C452.174 207.713 452.539 208.671 452.536 209.662C452.344 210.564 451.9 211.393 451.255 212.052C449.675 214.1 447.668 216.275 445.704 218.195Z" fill="#006456"/>
<path d="M425.633 210.388C422.691 209.984 419.696 210.538 417.093 211.966C414.921 213.194 412.551 214.031 410.09 214.441C408.905 214.589 407.71 214.267 406.759 213.545C406.28 213.203 405.934 212.706 405.779 212.139C405.623 211.572 405.668 210.969 405.905 210.43C406.503 209.278 407.955 208.937 409.15 208.51C415.983 206.206 421.491 199.167 428.494 197.631C431.596 197.161 434.765 197.469 437.718 198.527C438.956 198.868 440.152 199.295 441.39 199.764C440.682 206.2 442.188 212.686 445.661 218.153C444.067 219.792 442.274 221.226 440.323 222.419C436.458 224.539 432.32 226.118 428.025 227.113C424.311 228.403 420.374 228.926 416.452 228.648C412.695 228.094 411.157 225.15 407.912 223.187C413.762 220.329 415.556 219.518 420.979 216.532C424.053 214.91 424.694 214.356 425.633 210.388Z" fill="#006456"/>
<path d="M484.604 48.1738L516.033 55.6829C518.467 69.5492 513.257 75.9063 491.095 82.9034L479.565 66.8186L484.604 48.1738Z" fill="#02826D"/>
<path d="M490.285 81.7504L486.655 82.9024L478.798 72.5347L480.463 68.3535L490.285 81.7504Z" fill="#FE0782"/>
<path d="M537.725 11.951L515.05 57.5602L508.218 55.683L533.924 7.25781L537.725 11.951Z" fill="#3C3C3B"/>
<path d="M503.223 30.8515V38.7446L542.722 33.0701C542.923 30.4884 542.78 27.8915 542.295 25.3477L503.223 30.8515Z" fill="#3C3C3B"/>
<path opacity="0.5" d="M490.111 49.7111C491.782 49.9877 493.497 49.8559 495.107 49.3271L495.833 49.0711L496.729 48.7725L499.334 47.8765C500.272 47.5163 501.071 46.8676 501.616 46.0241C502.161 45.1805 502.424 44.1857 502.366 43.1833L501.939 34.1383C501.838 32.5782 501.24 31.0912 500.234 29.8939C499.228 28.6967 497.865 27.8519 496.345 27.4825C495.36 27.2689 494.341 27.2689 493.356 27.4825H492.715H492.459C490.068 28.1224 487.975 28.7624 486.139 29.4024C483.983 30.0953 481.872 30.9218 479.819 31.877L481.058 41.5194C481.202 42.6327 481.581 43.7028 482.17 44.6589C482.759 45.615 483.544 46.4354 484.474 47.0659L486.139 48.1752C487.334 48.9724 488.69 49.4968 490.111 49.7111Z" fill="#FED0A9"/>
<path d="M500.147 50.2211C501.676 49.7328 503 48.7519 503.911 47.4318C504.823 46.1118 505.271 44.527 505.185 42.9254L504.588 33.7523C504.412 31.1632 503.217 28.7489 501.265 27.0378C499.312 25.3267 496.76 24.4581 494.168 24.6219C493.52 24.6588 492.876 24.7589 492.247 24.9206C488.532 25.9446 484.945 26.9685 482.084 27.9925C481.835 28.0782 481.603 28.2083 481.4 28.3765C481.4 27.9498 481.4 27.4805 481.4 27.0965H481.742C484.731 26.0299 488.404 24.9633 491.948 24.0246C492.676 23.8348 493.419 23.7064 494.168 23.6406H494.851C497.632 23.6358 500.309 24.6938 502.333 26.5977C504.358 28.5016 505.577 31.1072 505.74 33.8803L506.338 43.0534C506.435 44.5307 506.125 46.0062 505.442 47.3199C504.975 48.3101 504.315 49.1974 503.502 49.93C502.688 50.6626 501.736 51.2257 500.702 51.5864L496.431 53.0371C495.285 53.4255 494.094 53.6692 492.887 53.7624H492.033C489.186 53.7407 486.414 52.8473 484.091 51.2024C484.091 51.2024 484.091 51.2024 484.091 50.9891V49.5385L484.945 50.3065C487.274 51.8614 490.049 52.6107 492.845 52.4397C493.962 52.3543 495.065 52.1395 496.133 51.7998L500.147 50.2211Z" fill="#3C3C3B"/>
<path d="M499.508 47.7904C500.454 47.4417 501.261 46.7956 501.808 45.9493C502.355 45.1029 502.612 44.102 502.54 43.0972L501.942 34.1375C501.841 32.5774 501.244 31.0904 500.238 29.8932C499.231 28.696 497.869 27.8511 496.348 27.4817C495.364 27.2668 494.344 27.2668 493.359 27.4817H492.719H492.462C490.071 28.1359 487.979 28.7759 486.185 29.4016C484.013 30.088 481.888 30.9146 479.823 31.8762L481.061 41.5186C481.205 42.6319 481.585 43.702 482.173 44.6581C482.762 45.6142 483.547 46.4346 484.477 47.0651L486.143 48.1744C487.323 49.0068 488.684 49.5478 490.114 49.753C491.781 50.0667 493.501 49.9492 495.11 49.4117L495.836 49.1557L496.733 48.857L499.337 47.9611L499.508 47.7904ZM492.078 24.9218C492.707 24.76 493.351 24.66 494 24.6231C496.592 24.4592 499.143 25.3279 501.096 27.039C503.049 28.7501 504.243 31.1644 504.419 33.7535L505.188 42.9266C505.284 44.5068 504.861 46.0753 503.982 47.3926C503.103 48.71 501.817 49.7037 500.32 50.2223L496.049 51.6729C494.982 52.0127 493.878 52.2275 492.761 52.3129C489.965 52.4839 487.191 51.7346 484.861 50.1797L484.007 49.4117C482.364 47.9134 481.33 45.8631 481.104 43.6519L479.566 31.5349C479.503 30.9178 479.613 30.2951 479.884 29.7373C480.156 29.1794 480.578 28.7085 481.104 28.3777C481.306 28.2094 481.538 28.0793 481.787 27.9937C484.776 26.9697 488.363 25.9457 492.078 24.9218Z" fill="#00DA7E"/>
<path opacity="0.5" d="M493.36 28.3353L496.648 47.7481L499.253 46.9374L496.093 28.4633C495.199 28.2427 494.271 28.1992 493.36 28.3353Z" fill="white"/>
<path opacity="0.5" d="M486.142 30.2125L490.113 48.5586C491.782 48.828 493.492 48.7112 495.109 48.2172L495.835 48.0039L492.376 28.5059C490.07 29.1032 488.106 29.8712 486.142 30.2125Z" fill="white"/>
<path d="M529.102 38.7029C529.785 43.3107 526.668 49.1985 523.679 49.6252C520.689 50.0518 520.433 46.2973 519.707 41.6894C519.238 38.6602 517.828 34.4363 520.988 33.1564C524.148 31.8764 528.12 31.9191 529.102 38.7029Z" fill="#FFC990"/>
<path d="M512.148 80.0461C509.373 85.5072 501.473 87.0858 494.47 83.5446C487.467 80.0034 484.093 72.537 486.826 67.2465C489.559 61.956 497.544 60.2067 504.505 63.7479C511.465 67.2891 514.924 74.5849 512.148 80.0461ZM488.107 67.9291C485.673 72.665 488.833 79.1074 495.11 82.2647C501.387 85.4219 508.433 84.1419 510.825 79.4061C513.216 74.6702 510.056 68.2278 503.821 65.0279C497.587 61.828 490.541 63.1506 488.107 67.9291Z" fill="#FE0782"/>
<path d="M487.461 67.5974L484.415 73.6123L508.419 85.7483L511.465 79.7334L487.461 67.5974Z" fill="#FE419C"/>
<path d="M504.162 64.387C510.824 67.7576 514.112 74.6267 511.507 79.7039C508.902 84.7811 501.429 86.2744 494.811 82.9038C488.192 79.5332 484.904 72.5361 487.466 67.5869C490.028 62.6378 497.543 61.0592 504.162 64.387Z" fill="#FE419C"/>
<path d="M501.131 70.4028C507.793 73.7734 511.038 80.5998 508.476 85.7197C505.914 90.8395 498.398 92.2475 491.779 88.9196C485.16 85.5917 481.872 78.6799 484.435 73.6027C486.997 68.5255 494.512 67.0323 501.131 70.4028Z" fill="#FE419C"/>
<path d="M509.116 86.0609C506.34 91.5221 498.44 93.1007 491.437 89.5595C484.434 86.0183 481.018 78.7225 483.836 73.2613C486.655 67.8002 494.512 66.2216 501.515 69.7628C508.518 73.304 511.891 80.5998 509.116 86.0609ZM485.075 73.9013C482.683 78.6798 485.843 85.0796 492.078 88.2795C498.312 91.4794 505.401 90.1568 507.835 85.421C510.269 80.6851 507.066 74.2 500.832 71.0427C494.597 67.8855 487.509 69.1655 485.075 73.9013Z" fill="#FE0782"/>
<path d="M503.519 86.5298C501.905 87.4918 500.061 87.9996 498.182 87.9996C496.302 87.9996 494.458 87.4918 492.844 86.5298C490.607 85.6665 488.793 83.9707 487.782 81.7986C486.77 79.6266 486.641 77.1475 487.421 74.8822C487.88 73.9674 488.554 73.177 489.385 72.5782C490.999 71.6163 492.844 71.1084 494.723 71.1084C496.602 71.1084 498.447 71.6163 500.061 72.5782C502.297 73.4415 504.112 75.1374 505.123 77.3094C506.134 79.4814 506.264 81.9606 505.484 84.2259C505.012 85.1327 504.341 85.9205 503.519 86.5298ZM490.154 73.7302C489.493 74.2303 488.954 74.8718 488.574 75.6075C487.954 77.5662 488.114 79.6885 489.02 81.5324C489.927 83.3762 491.511 84.7995 493.442 85.5058C494.854 86.3306 496.46 86.7653 498.096 86.7653C499.732 86.7653 501.339 86.3306 502.751 85.5058C503.419 85.0318 503.961 84.402 504.331 83.6712C504.94 81.7123 504.775 79.5946 503.87 77.7535C502.964 75.9124 501.387 74.4879 499.463 73.7729C498.043 72.9672 496.436 72.5472 494.803 72.5547C493.169 72.5621 491.567 72.9968 490.154 73.8155V73.7302Z" fill="#F9BBD0"/>
<path d="M499.978 83.1609C499.164 83.6456 498.235 83.9015 497.288 83.9015C496.34 83.9015 495.411 83.6456 494.597 83.1609C493.461 82.7209 492.543 81.8533 492.04 80.7445C491.537 79.6357 491.489 78.374 491.907 77.2304C492.672 76.3206 493.725 75.6996 494.892 75.4706C496.059 75.2416 497.269 75.4184 498.322 75.9716C499.374 76.5248 500.205 77.421 500.678 78.5115C501.15 79.602 501.234 80.8211 500.917 81.9662C500.709 82.4367 500.386 82.8475 499.978 83.1609ZM493.701 77.1877C493.431 77.3917 493.212 77.6543 493.06 77.9557C492.788 78.8046 492.859 79.7262 493.258 80.5235C493.657 81.3207 494.352 81.9304 495.195 82.2222C495.93 82.6873 496.811 82.866 497.669 82.7244C498.527 82.5827 499.303 82.1307 499.85 81.4542C500.122 80.6054 500.051 79.6838 499.652 78.8865C499.253 78.0892 498.558 77.4795 497.715 77.1877C497.106 76.8315 496.413 76.6437 495.708 76.6437C495.002 76.6437 494.309 76.8315 493.701 77.1877Z" fill="#F9BBD0"/>
<path opacity="0.1" d="M568.214 223.314H566.677L531.619 221.863C527.684 212.872 524.29 203.654 521.456 194.259L476.106 208.765L476.619 211.282L445.745 218.407L475.38 205.608L518.894 186.494L522.865 184.744C523.548 182.654 524.189 180.478 524.786 178.43C526.779 171.888 528.53 165.36 530.039 158.846C535.447 135.75 538.028 112.082 537.725 88.3633L547.248 130.517L568.129 223.143L568.214 223.314Z" fill="#1D1D1B"/>
<path opacity="0.1" d="M597.763 264.02C595.075 267.515 591.722 270.446 587.896 272.642C584.071 274.839 579.849 276.258 575.473 276.819L574.576 280.019C574.457 280.34 574.357 280.668 574.277 281C570.007 296.488 564.626 313.511 559.587 327.932C554.292 343.078 549.168 355.195 545.496 359.334C548.142 370.8 549.573 382.512 549.766 394.277C550.59 416.484 549.705 438.721 547.118 460.792C546.521 462.755 543.66 464.419 539.56 465.656L540.457 473.677C541.781 474.104 545.069 478.626 544.727 494.583V499.191H528.97L530.934 480.503L531.917 471.16L532.344 466.893C534.529 460.885 536.326 454.743 537.724 448.504C544.077 420.426 541.662 391.076 530.806 364.411C529.397 360.699 527.774 356.987 526.066 353.275C532.665 347.366 538.633 340.789 543.873 333.649C557.035 315.692 564.636 294.271 565.736 272.041C569.489 272.283 573.257 272.097 576.967 271.486C584.27 270.183 591.3 267.659 597.763 264.02Z" fill="#1D1D1B"/>
<path d="M646.657 209.876C646.657 209.449 646.657 209.023 646.657 208.596L619.413 71.0004C618.235 65.0145 614.726 59.7412 609.656 56.3407C604.587 52.9401 598.374 51.6909 592.383 52.8677C586.392 54.0445 581.114 57.551 577.71 62.6158C574.307 67.6807 573.056 73.8889 574.234 79.8748L601.265 217.599C601.265 218.025 601.265 218.452 601.564 218.878L646.657 209.876Z" fill="#02826D"/>
<path d="M622.905 88.8159L577.609 97.7031L582.127 120.687L627.422 111.8L622.905 88.8159Z" fill="#FE0782"/>
<path d="M627.446 111.776L582.15 120.663L596.632 194.347L641.928 185.46L627.446 111.776Z" fill="#F9BBD0"/>
<path d="M595.873 42.8643L585.565 44.8867L587.524 54.8508L597.832 52.8283L595.873 42.8643Z" fill="#3C3C3B"/>
<path d="M646.357 214.868L603.655 223.401C603.189 223.5 602.709 223.506 602.24 223.418C601.772 223.33 601.327 223.149 600.929 222.887C600.532 222.625 600.19 222.287 599.925 221.891C599.66 221.496 599.476 221.052 599.385 220.585C599.285 220.12 599.28 219.639 599.368 219.171C599.456 218.704 599.637 218.258 599.899 217.861C600.161 217.464 600.5 217.123 600.896 216.858C601.291 216.593 601.736 216.41 602.203 216.318L644.905 207.785C645.371 207.686 645.852 207.68 646.32 207.768C646.788 207.856 647.234 208.037 647.631 208.299C648.029 208.561 648.37 208.9 648.635 209.295C648.9 209.69 649.084 210.134 649.175 210.601C649.275 211.067 649.281 211.547 649.193 212.015C649.104 212.482 648.924 212.928 648.661 213.325C648.399 213.722 648.06 214.063 647.665 214.328C647.269 214.593 646.824 214.776 646.357 214.868Z" fill="#FE0782"/>
<path d="M575.339 38.8931L571.19 39.707L573.61 52.0156L577.758 51.2016L575.339 38.8931Z" fill="#3C3C3B"/>
<path d="M561.469 31.7917C561.094 29.8464 561.302 27.8339 562.067 26.0062C562.831 24.1785 564.118 22.6167 565.767 21.5164C567.416 20.4161 569.353 19.8261 571.335 19.8204C573.318 19.8146 575.258 20.3933 576.913 21.484C578.569 22.5747 579.865 24.129 580.64 25.9522C581.415 27.7755 581.635 29.7867 581.272 31.7341C580.909 33.6815 579.978 35.4787 578.598 36.9005C577.217 38.3223 575.448 39.3057 573.511 39.7275C572.198 40.0015 570.844 40.0133 569.527 39.7622C568.21 39.5111 566.955 39.002 565.836 38.2644C564.717 37.5267 563.755 36.575 563.005 35.4641C562.255 34.3532 561.733 33.1051 561.469 31.7917ZM563.262 31.4504C563.58 33.0558 564.367 34.5311 565.523 35.6899C566.68 36.8486 568.154 37.6388 569.76 37.9607C571.366 38.2825 573.031 38.1214 574.546 37.4978C576.06 36.8743 577.355 35.8162 578.268 34.4573C579.181 33.0984 579.67 31.4998 579.673 29.8633C579.677 28.2268 579.195 26.626 578.288 25.2631C577.381 23.9003 576.091 22.8365 574.579 22.2064C573.067 21.5762 571.403 21.4079 569.795 21.7227C568.724 21.9267 567.704 22.3412 566.794 22.9421C565.884 23.5429 565.103 24.3182 564.495 25.2231C563.888 26.1279 563.466 27.1443 563.254 28.2132C563.042 29.2822 563.045 30.3825 563.262 31.4504Z" fill="#3C3C3B"/>
<path d="M570.352 24.2803C569.145 24.5229 568.049 25.1479 567.226 26.0625C566.403 26.9772 565.897 28.1327 565.783 29.3574H567.918C567.88 29.0886 567.88 28.8156 567.918 28.5468C568.114 27.9693 568.457 27.4529 568.914 27.0488C569.371 26.6446 569.926 26.3668 570.523 26.2429L570.352 24.2803Z" fill="#FE0782"/>
<path d="M565.737 29.3576C565.661 30.2331 565.79 31.1142 566.113 31.9315C566.436 32.7488 566.945 33.4799 567.599 34.0673C568.253 34.6547 569.035 35.0823 569.882 35.3163C570.73 35.5504 571.621 35.5846 572.484 35.4161C573.457 35.2049 574.359 34.7493 575.106 34.0923C575.854 33.4353 576.421 32.5987 576.754 31.6616C577.066 30.7202 577.128 29.7139 576.934 28.7415C576.739 27.7691 576.294 26.864 575.644 26.1151C574.994 25.3674 574.158 24.8042 573.221 24.4821C572.284 24.16 571.279 24.0904 570.306 24.2805L570.69 26.4137C571.294 26.2848 571.921 26.3197 572.507 26.5147C573.093 26.7098 573.616 27.058 574.021 27.523C574.42 27.9936 574.691 28.5578 574.811 29.1625C574.93 29.7672 574.894 30.3923 574.704 30.9789C574.506 31.5644 574.156 32.087 573.69 32.4934C573.224 32.8999 572.658 33.1756 572.051 33.2927C571.443 33.4098 570.816 33.3639 570.232 33.1598C569.648 32.9558 569.128 32.6007 568.726 32.1309C568.414 31.7781 568.177 31.3653 568.03 30.9177C567.883 30.4702 567.829 29.9974 567.872 29.5283L565.737 29.3576Z" fill="#F9BBD0"/>
<path d="M574.023 27.523C573.624 27.0615 573.108 26.7152 572.53 26.5201C571.952 26.3251 571.332 26.2883 570.735 26.4137L570.308 24.2805C571.28 24.0904 572.286 24.16 573.223 24.4821C574.16 24.8042 574.996 25.3674 575.645 26.1151C575.924 26.4131 576.168 26.7424 576.371 27.0964L574.45 28.163L574.023 27.523Z" fill="#00DA7E"/>
<path d="M578.036 27.9503C577.896 27.9812 577.773 28.065 577.694 28.1844C577.614 28.3037 577.584 28.4492 577.609 28.5903C577.64 28.7416 577.729 28.875 577.856 28.9625C577.983 29.05 578.14 29.0848 578.292 29.0596C578.435 29.0195 578.559 28.9273 578.638 28.801C578.717 28.6747 578.745 28.5235 578.719 28.377C578.704 28.3032 578.674 28.2332 578.631 28.1713C578.588 28.1094 578.533 28.0568 578.469 28.0169C578.405 27.977 578.334 27.9505 578.259 27.9391C578.185 27.9276 578.109 27.9314 578.036 27.9503Z" fill="#3C3C3B"/>
<path d="M564.5 30.5977C564.349 30.6287 564.215 30.7171 564.128 30.8444C564.04 30.9717 564.005 31.1279 564.03 31.2803C564.045 31.3541 564.075 31.4241 564.118 31.486C564.161 31.5479 564.216 31.6004 564.28 31.6404C564.344 31.6803 564.416 31.7068 564.49 31.7182C564.565 31.7297 564.641 31.7258 564.714 31.707C564.861 31.707 565.002 31.6485 565.106 31.5445C565.21 31.4405 565.269 31.2994 565.269 31.1523C565.269 31.0052 565.21 30.8641 565.106 30.7601C565.002 30.6561 564.861 30.5977 564.714 30.5977H564.5Z" fill="#3C3C3B"/>
<path d="M569.495 23.1729C569.526 23.3129 569.61 23.4356 569.729 23.5151C569.849 23.5947 569.994 23.6249 570.135 23.5995C570.213 23.5897 570.288 23.5636 570.354 23.523C570.421 23.4823 570.479 23.4279 570.523 23.3634C570.567 23.299 570.597 23.2258 570.612 23.1489C570.626 23.0719 570.623 22.9928 570.605 22.9169C570.564 22.7734 570.472 22.6502 570.346 22.5713C570.22 22.4923 570.068 22.4634 569.922 22.4902C569.848 22.5052 569.778 22.535 569.716 22.578C569.654 22.6209 569.602 22.6759 569.562 22.7398C569.522 22.8037 569.495 22.875 569.484 22.9495C569.473 23.0239 569.476 23.0999 569.495 23.1729Z" fill="#3C3C3B"/>
<path d="M572.145 36.6976C572.176 36.8489 572.265 36.9823 572.392 37.0698C572.519 37.1573 572.675 37.1921 572.828 37.1669C572.902 37.1519 572.972 37.1221 573.034 37.0792C573.095 37.0362 573.148 36.9812 573.188 36.9173C573.228 36.8534 573.254 36.7821 573.266 36.7076C573.277 36.6332 573.273 36.5572 573.254 36.4843C573.224 36.3442 573.14 36.2215 573.02 36.142C572.901 36.0624 572.756 36.0322 572.615 36.0576C572.541 36.068 572.471 36.0929 572.407 36.1309C572.344 36.1689 572.289 36.2191 572.245 36.2788C572.201 36.3384 572.17 36.4062 572.153 36.4781C572.136 36.55 572.133 36.6246 572.145 36.6976Z" fill="#3C3C3B"/>
<path d="M577.437 33.1993C577.334 33.1002 577.196 33.0449 577.053 33.0449C576.91 33.0449 576.772 33.1002 576.669 33.1993C576.614 33.2474 576.57 33.3065 576.54 33.3727C576.511 33.4389 576.495 33.5107 576.495 33.5833C576.495 33.656 576.511 33.7278 576.54 33.794C576.57 33.8602 576.614 33.9193 576.669 33.9673C576.646 34.1144 576.683 34.2645 576.771 34.3845C576.859 34.5045 576.991 34.5847 577.138 34.6073C577.286 34.6299 577.436 34.5932 577.556 34.5052C577.676 34.4172 577.756 34.2851 577.779 34.138C577.852 34.0632 577.902 33.9695 577.924 33.8676C577.946 33.7656 577.938 33.6596 577.903 33.5616C577.867 33.4636 577.804 33.3776 577.722 33.3136C577.64 33.2495 577.541 33.2099 577.437 33.1993Z" fill="#3C3C3B"/>
<path d="M565.95 25.6036C565.847 25.5045 565.709 25.4492 565.566 25.4492C565.423 25.4492 565.285 25.5045 565.182 25.6036C565.08 25.714 565.023 25.8587 565.023 26.009C565.023 26.1592 565.08 26.3039 565.182 26.4143C565.292 26.5162 565.437 26.5728 565.587 26.5728C565.738 26.5728 565.882 26.5162 565.993 26.4143C566.046 26.3595 566.087 26.2944 566.113 26.2231C566.14 26.1518 566.152 26.0757 566.148 25.9997C566.144 25.9236 566.124 25.8492 566.09 25.7811C566.056 25.7129 566.008 25.6525 565.95 25.6036Z" fill="#3C3C3B"/>
<path d="M574.748 23.7697C574.649 23.873 574.594 24.0105 574.594 24.1537C574.594 24.2968 574.649 24.4344 574.748 24.5377C574.867 24.6024 575.006 24.6214 575.138 24.591C575.27 24.5606 575.386 24.483 575.465 24.3728C575.543 24.2627 575.579 24.1275 575.565 23.9928C575.551 23.8581 575.488 23.7332 575.388 23.6417C575.282 23.5926 575.162 23.5786 575.047 23.6016C574.932 23.6246 574.828 23.6834 574.748 23.7697Z" fill="#3C3C3B"/>
<path d="M567.064 35.2473C566.965 35.3506 566.909 35.4882 566.909 35.6313C566.909 35.7744 566.965 35.912 567.064 36.0153C567.174 36.1172 567.319 36.1739 567.469 36.1739C567.619 36.1739 567.764 36.1172 567.874 36.0153C567.976 35.9049 568.033 35.7602 568.033 35.61C568.033 35.4597 567.976 35.315 567.874 35.2047C567.819 35.1517 567.754 35.1106 567.683 35.084C567.612 35.0573 567.536 35.0456 567.46 35.0496C567.384 35.0536 567.309 35.0732 567.241 35.1072C567.173 35.1413 567.113 35.1889 567.064 35.2473Z" fill="#3C3C3B"/>
<path d="M569.966 30.9794C570.115 31.1643 570.298 31.3182 570.506 31.4322C570.714 31.5462 570.943 31.6181 571.179 31.6438C571.415 31.6696 571.653 31.6487 571.881 31.5822C572.109 31.5158 572.322 31.4052 572.507 31.2567C572.692 31.1083 572.846 30.9248 572.96 30.7169C573.074 30.509 573.146 30.2806 573.172 30.0449C573.197 29.8092 573.176 29.5707 573.11 29.343C573.044 29.1154 572.933 28.9031 572.784 28.7182C572.638 28.527 572.455 28.3672 572.246 28.2482C572.037 28.1293 571.806 28.0536 571.567 28.0257C571.328 27.9979 571.085 28.0184 570.854 28.086C570.623 28.1537 570.408 28.2671 570.222 28.4195C569.852 28.7274 569.618 29.1682 569.57 29.6471C569.522 30.1259 569.664 30.6044 569.966 30.9794Z" fill="#3C3C3B"/>
<path d="M571.761 29.315L567.021 24.4512L570.779 30.1257L571.761 29.315Z" fill="#3C3C3B"/>
<path d="M614.889 216.106C614.889 215.679 614.889 215.252 614.889 214.826L587.645 77.2299C586.468 71.244 582.958 65.9707 577.889 62.5702C572.82 59.1696 566.606 57.9204 560.615 59.0972C554.624 60.274 549.346 63.7805 545.943 68.8453C542.539 73.9102 541.289 80.1184 542.467 86.1043L569.497 223.7C569.497 224.127 569.497 224.553 569.796 224.98L614.889 216.106Z" fill="#00DA7E"/>
<path d="M591.137 95.0717L545.841 103.959L550.358 126.943L595.654 118.056L591.137 95.0717Z" fill="#FE419C"/>
<path d="M595.678 118.032L550.382 126.919L564.864 200.603L610.159 191.715L595.678 118.032Z" fill="#F7E2E9"/>
<path d="M564.106 49.0762L553.798 51.0986L555.756 61.0627L566.064 59.0402L564.106 49.0762Z" fill="#3C3C3B"/>
<path d="M614.59 221.097L571.888 229.63C571.421 229.736 570.939 229.746 570.469 229.661C569.998 229.575 569.55 229.395 569.151 229.132C568.752 228.869 568.411 228.528 568.147 228.13C567.884 227.732 567.703 227.284 567.617 226.814C567.518 226.349 567.512 225.869 567.6 225.401C567.688 224.933 567.869 224.488 568.131 224.091C568.394 223.694 568.733 223.353 569.128 223.088C569.524 222.823 569.968 222.639 570.436 222.548L613.138 214.015C613.603 213.915 614.084 213.909 614.552 213.998C615.02 214.086 615.466 214.266 615.864 214.528C616.261 214.79 616.602 215.129 616.868 215.524C617.133 215.92 617.316 216.364 617.408 216.831C617.507 217.296 617.513 217.777 617.425 218.244C617.337 218.712 617.156 219.157 616.894 219.554C616.632 219.951 616.293 220.292 615.897 220.557C615.501 220.822 615.057 221.006 614.59 221.097Z" fill="#FE419C"/>
<path d="M622.256 73.4583L540.716 89.457L542.814 100.133L624.355 84.1341L622.256 73.4583Z" fill="#3C3C3B"/>
<path d="M644.951 189.112L563.41 205.11L565.508 215.786L647.049 199.787L644.951 189.112Z" fill="#3C3C3B"/>
<path d="M564.07 226.088L570.177 224.894L542.036 81.5808L535.161 79.6182L564.07 226.088Z" fill="#3C3C3B"/>
<path d="M596.513 37.2134L548.326 46.668L549.758 53.9526L597.945 44.4981L596.513 37.2134Z" fill="#3C3C3B"/>
<path d="M547.893 44.3688L540.854 45.75L543.174 57.5561L550.213 56.175L547.893 44.3688Z" fill="#3C3C3B"/>
<path d="M602.664 33.2614L595.624 34.6426L597.944 46.4487L604.984 45.0675L602.664 33.2614Z" fill="#3C3C3B"/>
<path d="M595.068 157.213L567.455 162.631L567.99 165.352L595.603 159.934L595.068 157.213Z" fill="#3C3C3B"/>
<path d="M596.173 162.866L568.56 168.284L569.094 171.005L596.708 165.588L596.173 162.866Z" fill="#3C3C3B"/>
<path d="M597.309 168.483L572.797 173.293L573.332 176.014L597.844 171.205L597.309 168.483Z" fill="#3C3C3B"/>
<path d="M599.212 178.395L577.842 182.588L578.377 185.309L599.746 181.116L599.212 178.395Z" fill="#3C3C3B"/>
<path d="M600.348 184.02L572.734 189.438L573.269 192.159L600.882 186.741L600.348 184.02Z" fill="#3C3C3B"/>
<path d="M562.108 143.915C562.671 146.799 564.078 149.451 566.15 151.535C568.223 153.62 570.868 155.044 573.75 155.626C576.633 156.208 579.623 155.922 582.343 154.805C585.063 153.688 587.39 151.789 589.03 149.35C590.669 146.911 591.548 144.04 591.554 141.102C591.559 138.163 590.693 135.289 589.063 132.844C587.433 130.398 585.114 128.49 582.398 127.362C579.683 126.234 576.693 125.937 573.808 126.507C569.949 127.27 566.55 129.531 564.357 132.794C562.164 136.058 561.355 140.057 562.108 143.915Z" fill="white"/>
<path d="M577.053 139.563L583.373 138.325L582.433 133.632C582.423 133.564 582.399 133.5 582.363 133.441C582.328 133.383 582.28 133.332 582.225 133.293C582.169 133.253 582.106 133.225 582.039 133.21C581.972 133.195 581.903 133.193 581.836 133.205C581.695 133.236 581.573 133.32 581.493 133.439C581.413 133.559 581.383 133.704 581.409 133.845L582.135 137.515L576.84 138.539C576.772 138.549 576.707 138.573 576.648 138.609C576.59 138.644 576.54 138.691 576.5 138.747C576.46 138.803 576.432 138.866 576.417 138.933C576.402 138.999 576.4 139.069 576.412 139.136C576.443 139.276 576.527 139.399 576.647 139.478C576.766 139.558 576.912 139.588 577.053 139.563Z" fill="#3C3C3B"/>
<path d="M584.995 149.333C585.135 149.303 585.258 149.219 585.337 149.099C585.417 148.98 585.447 148.835 585.422 148.693L584.482 144.043L578.162 145.28C578.096 145.29 578.032 145.314 577.975 145.35C577.918 145.386 577.87 145.434 577.833 145.491C577.797 145.548 577.773 145.612 577.764 145.678C577.754 145.745 577.759 145.813 577.778 145.878C577.788 145.945 577.812 146.01 577.848 146.068C577.884 146.127 577.931 146.177 577.987 146.217C578.042 146.257 578.106 146.285 578.172 146.3C578.239 146.315 578.308 146.316 578.376 146.304L583.671 145.238L584.397 148.907C584.427 149.039 584.505 149.155 584.615 149.233C584.725 149.312 584.86 149.347 584.995 149.333Z" fill="#3C3C3B"/>
<path d="M578.163 142.976L586.319 141.397C586.386 141.387 586.451 141.363 586.51 141.327C586.568 141.291 586.619 141.244 586.658 141.189C586.698 141.133 586.726 141.07 586.741 141.003C586.756 140.936 586.758 140.867 586.746 140.8C586.735 140.732 586.712 140.667 586.676 140.609C586.64 140.551 586.593 140.5 586.537 140.46C586.481 140.42 586.418 140.392 586.351 140.377C586.284 140.362 586.215 140.361 586.148 140.373L579.102 141.781L578.419 138.282C578.408 138.215 578.385 138.15 578.349 138.092C578.313 138.033 578.266 137.983 578.21 137.943C578.154 137.903 578.091 137.875 578.024 137.86C577.957 137.845 577.888 137.844 577.821 137.856C577.689 137.896 577.576 137.983 577.505 138.102C577.434 138.22 577.409 138.36 577.437 138.496L578.163 142.976Z" fill="#3C3C3B"/>
<path d="M572.099 151.935C572.228 151.904 572.34 151.825 572.411 151.713C572.483 151.602 572.509 151.467 572.483 151.337L571.757 147.668L577.095 146.601C577.163 146.591 577.228 146.567 577.286 146.532C577.344 146.496 577.395 146.449 577.435 146.393C577.474 146.337 577.503 146.274 577.518 146.207C577.533 146.141 577.534 146.071 577.522 146.004C577.482 145.872 577.394 145.759 577.276 145.688C577.158 145.617 577.017 145.593 576.881 145.62L570.562 146.857L571.501 151.551C571.532 151.679 571.611 151.791 571.722 151.863C571.834 151.935 571.969 151.96 572.099 151.935Z" fill="#3C3C3B"/>
<path d="M569.238 141.057L575.601 139.82C575.733 139.78 575.846 139.692 575.917 139.574C575.988 139.456 576.012 139.315 575.985 139.18C575.954 139.051 575.875 138.939 575.764 138.867C575.652 138.796 575.517 138.77 575.387 138.796L570.049 139.82L569.366 136.151C569.326 136.018 569.239 135.906 569.12 135.835C569.002 135.764 568.861 135.74 568.726 135.767C568.659 135.776 568.595 135.8 568.538 135.836C568.482 135.873 568.433 135.921 568.397 135.977C568.36 136.034 568.337 136.098 568.327 136.165C568.317 136.231 568.322 136.299 568.341 136.364L569.238 141.057Z" fill="#3C3C3B"/>
<path d="M576.24 147.286C576.369 147.255 576.481 147.176 576.553 147.065C576.625 146.953 576.65 146.818 576.625 146.689L575.771 142.166L567.7 143.745C567.564 143.745 567.434 143.799 567.338 143.895C567.241 143.991 567.188 144.121 567.188 144.257C567.188 144.392 567.241 144.523 567.338 144.619C567.434 144.715 567.564 144.769 567.7 144.769L574.703 143.403L575.386 146.859C575.393 146.955 575.425 147.048 575.479 147.128C575.532 147.208 575.606 147.272 575.692 147.315C575.778 147.359 575.874 147.378 575.97 147.373C576.066 147.368 576.159 147.338 576.24 147.286Z" fill="#3C3C3B"/>
<path d="M574.704 136.534C574.787 136.513 574.859 136.463 574.907 136.392C574.954 136.321 574.973 136.234 574.96 136.15L574.149 131.883C574.098 131.798 574.015 131.737 573.919 131.713C573.823 131.689 573.721 131.704 573.636 131.755C573.551 131.806 573.49 131.889 573.466 131.985C573.442 132.081 573.457 132.182 573.508 132.267L574.32 136.534C574.376 136.572 574.443 136.593 574.512 136.593C574.58 136.593 574.647 136.572 574.704 136.534Z" fill="#3C3C3B"/>
<path d="M576.712 136.066C576.795 136.046 576.868 135.995 576.915 135.924C576.962 135.853 576.982 135.766 576.968 135.682L576.157 131.415C576.147 131.37 576.128 131.327 576.101 131.289C576.074 131.251 576.039 131.219 575.999 131.195C575.959 131.171 575.914 131.156 575.868 131.149C575.822 131.143 575.775 131.147 575.73 131.159C575.647 131.18 575.575 131.231 575.527 131.302C575.48 131.373 575.461 131.459 575.474 131.543L576.285 135.81C576.295 135.856 576.314 135.899 576.341 135.936C576.369 135.974 576.403 136.006 576.443 136.03C576.483 136.054 576.528 136.07 576.574 136.076C576.62 136.082 576.667 136.079 576.712 136.066Z" fill="#3C3C3B"/>
<path d="M575.787 133.755L574.782 133.952C573.856 134.134 573.253 135.031 573.435 135.956L573.969 138.677C574.151 139.602 575.049 140.205 575.975 140.023L576.98 139.826C577.906 139.644 578.509 138.747 578.327 137.822L577.792 135.101C577.611 134.176 576.713 133.573 575.787 133.755Z" fill="#3C3C3B"/>
<path d="M576.721 136.27L574.794 136.648C572.989 137.002 571.813 138.751 572.167 140.555L573.196 145.788C573.55 147.591 575.301 148.766 577.106 148.412L579.033 148.034C580.838 147.68 582.014 145.931 581.66 144.127L580.631 138.894C580.277 137.09 578.526 135.915 576.721 136.27Z" fill="#3C3C3B"/>
<line x1="373" y1="499" x2="773" y2="499" stroke="#02826D" stroke-width="2"/>
<line x1="218" y1="499" x2="313" y2="499" stroke="#02826D" stroke-width="2"/>
<path d="M173 499H195" stroke="#02826D" stroke-width="2"/>
</svg>
