<svg xmlns="http://www.w3.org/2000/svg" width="26.29" height="29.63" viewBox="0 0 26.29 29.63"><defs><style>.cls-1{isolation:isolate;}.cls-2{fill:#22ace7;}</style></defs><title>Ресурс 19</title><g id="Слой_2" data-name="Слой 2"><g id="Shape_547" data-name="Shape 547" class="cls-1"><g id="Shape_547-2" data-name="Shape 547"><path class="cls-2" d="M26,1.78A1,1,0,0,0,26.21.64a1,1,0,0,0-1-.64H1a1,1,0,0,0-1,.64A1.07,1.07,0,0,0,.3,1.78L12.1,13.62v11.8L5.27,28.75a.45.45,0,0,0-.25.52.46.46,0,0,0,.45.36H20.82a.47.47,0,0,0,.45-.36.46.46,0,0,0-.25-.52l-6.84-3.33V13.62ZM13.46,6.24C11,6.85,8.35,4.73,5.91,4.46L3.55,2.08H22.74L20,4.82C17.63,4.42,15.64,5.69,13.46,6.24Z"/></g></g></g></svg>