<svg xmlns="http://www.w3.org/2000/svg" width="37.4" height="40" viewBox="0 0 37.4 30"><defs><style>.cls-1{isolation:isolate;}.cls-2{fill:#22ace7;}</style></defs><title>Ресурс 8</title><g id="Слой_2" data-name="Слой 2"><g id="Shape_554" data-name="Shape 554" class="cls-1"><g id="Shape_554-2" data-name="Shape 554"><path class="cls-2" d="M18.7,18.75a5.63,5.63,0,1,0,5.61,5.62A5.61,5.61,0,0,0,18.7,18.75Zm0-9.38A15,15,0,0,0,6.54,15.66a2.49,2.49,0,1,0,4.05,2.91,9.94,9.94,0,0,1,16.23,0,2.47,2.47,0,0,0,3.47.58,2.51,2.51,0,0,0,.58-3.49A15,15,0,0,0,18.7,9.37ZM36.77,8.09a24.21,24.21,0,0,0-36.13,0,2.5,2.5,0,0,0,.19,3.53,2.47,2.47,0,0,0,3.51-.19,19.25,19.25,0,0,1,28.72,0,2.5,2.5,0,1,0,3.71-3.34Z"/></g></g></g></svg>