<svg xmlns="http://www.w3.org/2000/svg" width="44.57" height="29.81" viewBox="0 0 44.57 29.81"><defs><style>.cls-1{isolation:isolate;}.cls-2{fill:#22ace7;}</style></defs><title>Ресурс 16</title><g id="Слой_2" data-name="Слой 2"><g id="Shape_548" data-name="Shape 548" class="cls-1"><g id="Shape_548-2" data-name="Shape 548"><path class="cls-2" d="M0,27.2v2.61H44.57V27.2ZM36.2,11a19.6,19.6,0,0,0-10-5.39V3.92a3.92,3.92,0,1,0-7.83,0v1.7a19.73,19.73,0,0,0-15.75,19H42A19.55,19.55,0,0,0,36.2,11ZM23.59,5.28c-.43,0-.87,0-1.3,0s-.88,0-1.31,0V3.92a1.31,1.31,0,0,1,2.61,0Z"/></g></g></g></svg>