<svg xmlns="http://www.w3.org/2000/svg" width="29.59" height="29.81" viewBox="0 0 29.59 29.81"><defs><style>.cls-1{isolation:isolate;}.cls-2{fill:#22ace7;}</style></defs><title>Ресурс 17</title><g id="Слой_2" data-name="Слой 2"><g id="Shape_549" data-name="Shape 549" class="cls-1"><g id="Shape_549-2" data-name="Shape 549"><path class="cls-2" d="M28.83,25.35,17.22,13.66,3.66,0H2.6L2.38.55a9.91,9.91,0,0,0-.71,4.33,6.22,6.22,0,0,0,1.7,3.9L14,19.44,15.36,18l9.79,11a2.61,2.61,0,0,0,3.68-3.71Zm-28.07,0A2.65,2.65,0,0,0,.76,29a2.61,2.61,0,0,0,3.68,0l8.3-8.35L9.06,17ZM20.63,13.65a4.38,4.38,0,0,0,2.81-1.27L29.57,6.2,28.35,5,23.64,9.7,22.41,8.46l4.71-4.73L25.89,2.49l-4.7,4.74L20,6l4.7-4.73L23.44,0,17.3,6.2A4.37,4.37,0,0,0,16,9a2.6,2.6,0,0,1-.18.79l4,4A2.61,2.61,0,0,1,20.63,13.65Z"/></g></g></g></svg>