<svg xmlns="http://www.w3.org/2000/svg" width="33.18" height="29.72" viewBox="0 0 33.18 29.72"><defs><style>.cls-1{isolation:isolate;}.cls-2{fill:#22ace7;}</style></defs><title>Ресурс 3</title><g id="Слой_2" data-name="Слой 2"><g id="Shape_551" data-name="Shape 551" class="cls-1"><g id="Shape_551-2" data-name="Shape 551"><path class="cls-2" d="M31.76,10.45a1.74,1.74,0,0,0-.45.06L29.69,11,28,6.8a3.92,3.92,0,0,0-3.36-2.26H23.49V1.1A1.09,1.09,0,0,0,22.4,0H10.78a1.1,1.1,0,0,0-1.1,1.1V4.54H8.53A3.93,3.93,0,0,0,5.16,6.8L3.46,11l-1.59-.44a1.8,1.8,0,0,0-.45-.06A1.41,1.41,0,0,0,0,11.94v.88a1.83,1.83,0,0,0,1.83,1.83h.11l-.24.59a13.91,13.91,0,0,0-.86,4.37v8.28a1.83,1.83,0,0,0,1.83,1.83H4.86a1.83,1.83,0,0,0,1.83-1.83v-2H26.46v2a1.83,1.83,0,0,0,1.83,1.83h2.2a1.83,1.83,0,0,0,1.82-1.83V19.61a13.63,13.63,0,0,0-.86-4.37l-.24-.59h.14a1.83,1.83,0,0,0,1.83-1.83v-.88A1.41,1.41,0,0,0,31.76,10.45ZM21,1.46a0,0,0,0,1,.05,0h.84a0,0,0,0,1,0,0V4.51a0,0,0,0,1,0,0H21l0,0Zm-6.06,0h1a.08.08,0,0,1,.06,0l1.2,3,1.11-1.37a.06.06,0,0,0,0-.07L17.26,1.46s0,0,0,0h.94a.1.1,0,0,1,.07,0l.54.89s0,0,.05,0l.55-.89a.08.08,0,0,1,.06,0h.94s0,0,0,0L19.39,3.05a.08.08,0,0,0,0,.07l1.13,1.4v0h-1a0,0,0,0,1,0,0l-.62-1s0,0-.05,0l-.61,1s0,0,0,0H16.31s0,0,0,0l-.21-.63a.05.05,0,0,0-.05,0H14.87s-.06,0-.06,0l-.23.64s0,0,0,0h-.9a0,0,0,0,1,0,0l1.22-3A.08.08,0,0,1,14.93,1.42Zm-4.07,0a0,0,0,0,1,.05,0H14a0,0,0,0,1,0,0V2a0,0,0,0,1,0,0h-1a0,0,0,0,0,0,0V4.51l0,0H12a0,0,0,0,1,0,0V2.09a0,0,0,0,0-.05,0h-1a0,0,0,0,1-.05,0ZM4.75,13.63,7.34,7.32A2.36,2.36,0,0,1,9.36,6H23.8a2.35,2.35,0,0,1,2,1.36l2.59,6.31A.91.91,0,0,1,27.49,15H5.66A.92.92,0,0,1,4.75,13.63Zm5.85,8.13a.73.73,0,0,1-.73.73H4.93a.73.73,0,0,1-.73-.73V19.41a.73.73,0,0,1,.73-.73H9.87a.73.73,0,0,1,.73.73Zm18.31,0a.73.73,0,0,1-.73.73H23.24a.73.73,0,0,1-.73-.73V19.41a.73.73,0,0,1,.73-.73h4.94a.73.73,0,0,1,.73.73ZM15.81,3.21s0,0,0,0l-.37-.84s0,0,0,0l-.39.85s0,0,0,0Z"/></g></g></g></svg>