<svg xmlns="http://www.w3.org/2000/svg" viewBox="0 0 46.27 55.38"><defs><style>.cls-1{isolation:isolate;}.cls-2{fill:#3f73b5;}</style></defs><title>Ресурс 7</title><g id="Слой_2" data-name="Слой 2"><g id="Shape_1298" data-name="Shape 1298" class="cls-1"><g id="Shape_1298-2" data-name="Shape 1298"><path class="cls-2" d="M39.29,9.83A30.37,30.37,0,0,0,26.58,6.08V4a3.94,3.94,0,1,0-7.87,0V6.18A31.83,31.83,0,0,0,7,9.83c-4.5,2.61-7,6.15-7,10V41.53a1.09,1.09,0,0,0,1.11,1H3.94v4a1.09,1.09,0,0,0,1.11,1H7.88v4a4.06,4.06,0,0,0,4.06,4H35.56a3.85,3.85,0,0,0,3.82-4v-4h2.09a.89.89,0,0,0,.86-1v-4h3.08a.89.89,0,0,0,.86-1V19.78C46.27,16,43.79,12.44,39.29,9.83ZM20.67,4a2,2,0,1,1,3.94,0v2H20.67ZM2,40.55V20.77h12.8V40.55ZM37.41,51.42a1.88,1.88,0,0,1-1.85,2H11.94a2.09,2.09,0,0,1-2.1-2v-4H37.41Zm3-5.93H5.91v-3H40.36ZM16.74,40.55V20.77H29.53V40.55Zm27.56,0H31.5V20.77H44.3ZM2.17,18.79c.41-2.7,2.47-5.25,5.92-7.25A30.72,30.72,0,0,1,23.26,7.91a30.78,30.78,0,0,1,15.17,3.63c3.45,2,5.51,4.55,5.92,7.25Z"/></g></g></g></svg>