<svg xmlns="http://www.w3.org/2000/svg" viewBox="0 0 73.91 65.01"><defs><style>.cls-1{isolation:isolate;}.cls-2{fill:#3f73b5;}</style></defs><title>Ресурс 10</title><g id="Слой_2" data-name="Слой 2"><g id="Shape_1303" data-name="Shape 1303" class="cls-1"><g id="Shape_1303-2" data-name="Shape 1303"><path class="cls-2" d="M72.27,12.92l-7.9-3.55L45.66,1,44.05.25a2.81,2.81,0,0,0-3.7,1.39l-1.2,2.63H21.35a2.79,2.79,0,0,0-2.8,2.78V9.7L3.21,16.88l-1.6.75a2.77,2.77,0,0,0-1.34,3.7l20,42.08A2.81,2.81,0,0,0,24,64.74L41.8,56.4,49,59.65l1.61.72A2.8,2.8,0,0,0,54.34,59l1.56-3.42L72.18,19.85l1.48-3.25A2.77,2.77,0,0,0,72.27,12.92ZM41.74,2.26a1.27,1.27,0,0,1,1.68-.62l5.85,2.63H40.83Zm-1.6,3.53H52.32a1.27,1.27,0,0,1,1.27,1.26V49a2.72,2.72,0,0,0-.27-1l-1.6-3.39L36.8,13.12Zm-1.69,0-2.52,5.52-1-2.23L33.35,5.86l0-.07ZM20.09,7.05a1.27,1.27,0,0,1,1.26-1.26h5.56l-5.13,2.4L20.09,9Zm21.7,47.67-.22.1L40,55.58l-1.65.77-15,7a1.26,1.26,0,0,1-1.68-.6l-20-42.08A1.25,1.25,0,0,1,2.26,19l16.29-7.62,1.54-.72L30.28,5.9a1.66,1.66,0,0,1,.38-.11H31a1.3,1.3,0,0,1,1,.71l3.14,6.63L36,14.94l16,33.65a1.25,1.25,0,0,1-.6,1.67Zm8.6-2.33L52,51.64a2.78,2.78,0,0,0,1.61-2.39v4.32a1.26,1.26,0,0,1-1.27,1.25H45.18Zm2.56,6a1.27,1.27,0,0,1-1.68.62l-5.86-2.63h6.91a2.78,2.78,0,0,0,1.86-.7ZM72.26,16,55.12,53.57h0V6.89l16.51,7.42A1.25,1.25,0,0,1,72.26,16ZM30.79,26.31l-.41-.16a5.17,5.17,0,0,0-4,.18A5.18,5.18,0,0,0,24,28.67,5.3,5.3,0,0,0,20.6,29c-.17.09-.35.18-.51.28a5.16,5.16,0,0,0-1.54,1.44A5.35,5.35,0,0,0,17.92,32a5.15,5.15,0,0,0,2.17,6.16,5.4,5.4,0,0,0,1,.46l2.1.75,1.45.52,4.89,1.75a.85.85,0,0,0,.59,0,.77.77,0,0,0,.4-.43l3-8.38A5.17,5.17,0,0,0,30.79,26.31Zm1.29,5.94L29.3,39.91l-4.05-1.44L23.79,38l-2.21-.79a3.65,3.65,0,0,1-2.21-4.67,3.7,3.7,0,0,1,.72-1.21,3.9,3.9,0,0,1,1.17-.86,3.7,3.7,0,0,1,2.81-.13l.07,0a.75.75,0,0,0,.59,0,.77.77,0,0,0,.4-.43l0-.08a3.58,3.58,0,0,1,1.89-2.06,3.46,3.46,0,0,1,1.57-.35,3.8,3.8,0,0,1,1.24.21l.29.12A3.65,3.65,0,0,1,32.08,32.25Zm-21-14.56a2.84,2.84,0,0,0-3.35,1.12,2.82,2.82,0,0,0-2.9,4,2.8,2.8,0,0,0,1.61,1.45l4,1.41a.8.8,0,0,0,.59,0,.78.78,0,0,0,.4-.44l1.42-3.92a2.82,2.82,0,0,0-1.72-3.62Zm.27,3.1L10.22,24,7,22.84a1.3,1.3,0,0,1-.79-1.66,1.3,1.3,0,0,1,.68-.74,1.33,1.33,0,0,1,1-.05l0,0a.8.8,0,0,0,.59,0A.74.74,0,0,0,8.9,20v0a1.3,1.3,0,0,1,.68-.74,1.28,1.28,0,0,1,1,0,1.3,1.3,0,0,1,.79,1.66ZM46.11,42.87a2.82,2.82,0,0,0-2.17.1,2.9,2.9,0,0,0-1.18,1,3,3,0,0,0-1.54.26A2.83,2.83,0,0,0,39.86,48a2.82,2.82,0,0,0,1.61,1.46l4,1.41a.78.78,0,0,0,1-.46l1.41-3.89v0a2.79,2.79,0,0,0-.1-2.16A2.82,2.82,0,0,0,46.11,42.87Zm.27,3.1-1.16,3.2L42,48a1.28,1.28,0,0,1-.74-.67,1.29,1.29,0,0,1,.63-1.73,1.33,1.33,0,0,1,1,0h0a.78.78,0,0,0,.58,0,.8.8,0,0,0,.4-.43v0a1.3,1.3,0,0,1,.68-.74A1.3,1.3,0,0,1,46.38,46Z"/></g></g></g></svg>