<svg xmlns="http://www.w3.org/2000/svg" width="17.063" height="13.43" viewBox="0 0 17.063 13.43">
  <metadata><?xpacket begin="﻿" id="W5M0MpCehiHzreSzNTczkc9d"?>
<x:xmpmeta xmlns:x="adobe:ns:meta/" x:xmptk="Adobe XMP Core 5.6-c138 79.159824, 2016/09/14-01:09:01        ">
   <rdf:RDF xmlns:rdf="http://www.w3.org/1999/02/22-rdf-syntax-ns#">
      <rdf:Description rdf:about=""/>
   </rdf:RDF>
</x:xmpmeta>
                                                                                                    
                                                                                                    
                                                                                                    
                                                                                                    
                                                                                                    
                                                                                                    
                                                                                                    
                                                                                                    
                                                                                                    
                                                                                                    
                                                                                                    
                                                                                                    
                                                                                                    
                                                                                                    
                                                                                                    
                                                                                                    
                                                                                                    
                                                                                                    
                                                                                                    
                                                                                                    
                           
<?xpacket end="w"?></metadata>
<defs>
    <style>
      .cls-1 {
        fill: #24abea;
        fill-rule: evenodd;
      }
    </style>
  </defs>
  <path class="cls-1" d="M214,1006.86H199.821a1.436,1.436,0,0,0-1.44,1.43v7.41a1.434,1.434,0,0,0,1.44,1.42h6.808v1.71c0,0.98,1.774,1.5,3.526,1.5a7.5,7.5,0,0,0,2.362-.35,1.419,1.419,0,0,0,1.2-1.13c0-.01,0-0.01,0-0.02v-1.71H214a1.434,1.434,0,0,0,1.44-1.42v-7.41a1.436,1.436,0,0,0-1.44-1.43h0Zm-6.668,9.44a6.291,6.291,0,0,0,2.851.57,6.394,6.394,0,0,0,2.836-.56v0.75H213a0.966,0.966,0,0,1-.705.49,6.445,6.445,0,0,1-2.147.32c-1.822,0-2.816-.54-2.816-0.81v-0.76Zm5.687-.99v0.12c-0.13.26-1.091,0.75-2.836,0.75-1.881,0-2.851-.57-2.851-0.81s0.97-.81,2.851-0.81c1.746,0,2.706.49,2.836,0.75h0Zm-1.64-1.36a7.986,7.986,0,0,0-1.2-.09,5.439,5.439,0,0,0-3.183.8l-4.2.01a2.081,2.081,0,0,0-1.931-1.52v-2.32a2.42,2.42,0,0,0,1.306-.52,1.819,1.819,0,0,0,.624-1h8.243a2.044,2.044,0,0,0,1.909,1.52v2.32a2.319,2.319,0,0,0-1.574.8h0Zm-1.221,5.68a6.623,6.623,0,0,1-2.129-.31,1.006,1.006,0,0,1-.7-0.49v-0.82c0.146,0.07.3,0.14,0.455,0.2a7.159,7.159,0,0,0,2.361.35,7.36,7.36,0,0,0,2.389-.36,2.943,2.943,0,0,0,.482-0.22v0.84c-0.03.28-1.052,0.81-2.861,0.81h0Zm4.583-3.93a0.738,0.738,0,0,1-.741.73h-0.281v-0.9a0.953,0.953,0,0,0,.015-0.16c0-.59-0.631-1.01-1.514-1.25a2.023,2.023,0,0,1,1.089-.3,0.34,0.34,0,0,0,.344-0.34v-2.97a0.355,0.355,0,0,0-.344-0.35,1.414,1.414,0,0,1-1.613-1.21,0.351,0.351,0,0,0-.349-0.33h-8.85a0.352,0.352,0,0,0-.35.33,1.426,1.426,0,0,1-1.632,1.21,0.348,0.348,0,0,0-.344.35v2.97a0.34,0.34,0,0,0,.344.34,1.417,1.417,0,0,1,1.632,1.21,0.345,0.345,0,0,0,.35.33h4.135v0.01c0,0.01,0,.02,0,0.03s0,0.01,0,.02v1.01h-6.808a0.737,0.737,0,0,1-.74-0.73v-7.41a0.731,0.731,0,0,1,.74-0.73H214a0.732,0.732,0,0,1,.741.73v7.41Zm0,0-7.829-5.79a2.085,2.085,0,1,0,2.1,2.08,2.091,2.091,0,0,0-2.1-2.08h0Zm0,3.47a1.39,1.39,0,1,1,1.4-1.39,1.4,1.4,0,0,1-1.4,1.39h0Zm0,0" transform="translate(-198.375 -1006.88)"/>
</svg>
