<svg xmlns="http://www.w3.org/2000/svg" viewBox="0 0 76.3 36.12"><defs><style>.cls-1{isolation:isolate;}.cls-2{fill:#3f73b5;}</style></defs><title>Ресурс 12</title><g id="Слой_2" data-name="Слой 2"><g id="Shape_1300" data-name="Shape 1300" class="cls-1"><g id="Shape_1300-2" data-name="Shape 1300"><path class="cls-2" d="M58,0H51.11a12.37,12.37,0,0,0-6.72,1.92c-1,.62-4.52,1.14-6.24,1.14s-5.28-.52-6.24-1.14A12.38,12.38,0,0,0,25.18,0H18.26A18.18,18.18,0,0,0,0,18.06,18.19,18.19,0,0,0,18.26,36.12H58A18.19,18.19,0,0,0,76.3,18.06,18.18,18.18,0,0,0,58,0ZM51.11,2.48H58a15.81,15.81,0,0,1,9.52,3.17l-4.81,6.66a7.73,7.73,0,0,0-4.65-1.55H52.93L51,2.48Zm-23.29.33A9.34,9.34,0,0,1,30.54,4c1.71,1.09,6.08,1.54,7.61,1.54s5.9-.45,7.6-1.54a9.46,9.46,0,0,1,2.72-1.19L51,13.23H58.1a5.16,5.16,0,1,1,0,10.31H18.2a5.16,5.16,0,1,1,0-10.31h7.15Zm-9.56-.33h7.07l-2,8.27H18.2a7.71,7.71,0,0,0-4.65,1.55L8.74,5.65A15.78,15.78,0,0,1,18.26,2.48ZM2.5,18.06A15.43,15.43,0,0,1,6.86,7.31l4.94,6.83a7.5,7.5,0,0,0-.14,8.29L5.75,27.52A15.38,15.38,0,0,1,2.5,18.06ZM21.4,33.64H18.26A15.81,15.81,0,0,1,7.42,29.36l5.89-5.07A7.75,7.75,0,0,0,18.2,26h3.2Zm15.5,0h-13V26h13Zm15.5,0h-13V26h13Zm5.64,0H54.9V26h3.2A7.72,7.72,0,0,0,63,24.29l5.9,5.07A15.82,15.82,0,0,1,58,33.64Zm12.51-6.12-5.91-5.09a7.55,7.55,0,0,0-.14-8.29l4.93-6.83a15.43,15.43,0,0,1,1.12,20.21Z"/></g></g></g></svg>