<svg xmlns="http://www.w3.org/2000/svg" width="17.031" height="16.87" viewBox="0 0 17.031 16.87">
  <metadata><?xpacket begin="﻿" id="W5M0MpCehiHzreSzNTczkc9d"?>
<x:xmpmeta xmlns:x="adobe:ns:meta/" x:xmptk="Adobe XMP Core 5.6-c138 79.159824, 2016/09/14-01:09:01        ">
   <rdf:RDF xmlns:rdf="http://www.w3.org/1999/02/22-rdf-syntax-ns#">
      <rdf:Description rdf:about=""/>
   </rdf:RDF>
</x:xmpmeta>
                                                                                                    
                                                                                                    
                                                                                                    
                                                                                                    
                                                                                                    
                                                                                                    
                                                                                                    
                                                                                                    
                                                                                                    
                                                                                                    
                                                                                                    
                                                                                                    
                                                                                                    
                                                                                                    
                                                                                                    
                                                                                                    
                                                                                                    
                                                                                                    
                                                                                                    
                                                                                                    
                           
<?xpacket end="w"?></metadata>
<defs>
    <style>
      .cls-1 {
        fill: #24abea;
        fill-rule: evenodd;
      }
    </style>
  </defs>
  <path class="cls-1" d="M32.927,1004.87a8.44,8.44,0,1,0,8.511,8.44,8.476,8.476,0,0,0-8.51-8.44h0Zm7.36,11.4-2.42.41a12.542,12.542,0,0,0,.445-3.09h2.551a7.833,7.833,0,0,1-.576,2.68h0Zm-15.3-2.68h2.551a12.542,12.542,0,0,0,.445,3.09l-2.42-.41a7.833,7.833,0,0,1-.576-2.68h0Zm0.576-3.24,2.42-.41a12.475,12.475,0,0,0-.445,3.09H24.991a7.783,7.783,0,0,1,.576-2.68h0Zm7.644-.96a19.372,19.372,0,0,1,3.041.27l1,0.17a12.044,12.044,0,0,1,.492,3.2H33.21v-3.64Zm3.138-.28a20.627,20.627,0,0,0-3.138-.29v-3.37c1.626,0.15,3.039,1.63,3.84,3.78Zm-3.705-.29a20.622,20.622,0,0,0-3.137.29l-0.7.12c0.8-2.15,2.213-3.63,3.84-3.78v3.37Zm-3.041.84a19.368,19.368,0,0,1,3.041-.27v3.64H28.109a12.044,12.044,0,0,1,.492-3.2Zm-1.494,3.93h4.535v3.64a19.37,19.37,0,0,1-3.041-.27l-1-.18a11.91,11.91,0,0,1-.492-3.19h0Zm1.4,3.92a20.626,20.626,0,0,0,3.138.29v3.37c-1.626-.15-3.039-1.63-3.84-3.78Zm3.705,0.29a20.626,20.626,0,0,0,3.138-.29l0.7-.12c-0.8,2.15-2.213,3.63-3.84,3.78v-3.37Zm3.041-.84a19.366,19.366,0,0,1-3.041.27v-3.64h4.535a11.909,11.909,0,0,1-.492,3.19Zm2.061-3.93a12.474,12.474,0,0,0-.445-3.09l2.42,0.41a7.783,7.783,0,0,1,.576,2.68H38.312Zm1.688-3.3-2.32-.39a7.812,7.812,0,0,0-2.257-3.51,7.992,7.992,0,0,1,4.577,3.9h0Zm-9.57-3.9a7.811,7.811,0,0,0-2.257,3.51l-2.32.39a7.992,7.992,0,0,1,4.577-3.9h0Zm-4.577,11.06,2.32,0.39a7.727,7.727,0,0,0,2.257,3.5,7.94,7.94,0,0,1-4.577-3.89h0Zm9.57,3.89a7.728,7.728,0,0,0,2.257-3.5l2.32-.39a7.94,7.94,0,0,1-4.577,3.89h0Zm0,0" transform="translate(-24.406 -1004.88)"/>
</svg>
