<svg xmlns="http://www.w3.org/2000/svg" width="17.032" height="16.87" viewBox="0 0 17.032 16.87">
  <metadata><?xpacket begin="﻿" id="W5M0MpCehiHzreSzNTczkc9d"?>
<x:xmpmeta xmlns:x="adobe:ns:meta/" x:xmptk="Adobe XMP Core 5.6-c138 79.159824, 2016/09/14-01:09:01        ">
   <rdf:RDF xmlns:rdf="http://www.w3.org/1999/02/22-rdf-syntax-ns#">
      <rdf:Description rdf:about=""/>
   </rdf:RDF>
</x:xmpmeta>
                                                                                                    
                                                                                                    
                                                                                                    
                                                                                                    
                                                                                                    
                                                                                                    
                                                                                                    
                                                                                                    
                                                                                                    
                                                                                                    
                                                                                                    
                                                                                                    
                                                                                                    
                                                                                                    
                                                                                                    
                                                                                                    
                                                                                                    
                                                                                                    
                                                                                                    
                                                                                                    
                           
<?xpacket end="w"?></metadata>
<defs>
    <style>
      .cls-1 {
        fill: #24abea;
        fill-rule: evenodd;
      }
    </style>
  </defs>
  <path class="cls-1" d="M206.912,1138.35a8.516,8.516,0,0,0,7.876-5.21,8.394,8.394,0,0,0-1.848-9.21,8.576,8.576,0,0,0-12.062-.01,8.453,8.453,0,0,0,6.034,14.43h0Zm-5.886-8.15a5.821,5.821,0,0,0,1.513,3.62l-1.436,1.42a7.773,7.773,0,0,1-2.109-5.04h2.032Zm1.939,4.04a5.921,5.921,0,0,0,3.646,1.5v2.01a7.925,7.925,0,0,1-5.083-2.09Zm4.247,1.5a5.926,5.926,0,0,0,3.666-1.52l1.436,1.42a7.928,7.928,0,0,1-5.1,2.11v-2.01Zm4.089-1.94a5.83,5.83,0,0,0,1.5-3.6h2.032a7.781,7.781,0,0,1-2.092,5.02Zm1.5-4.2a5.778,5.778,0,0,0-1.514-3.61l1.437-1.43a7.82,7.82,0,0,1,2.109,5.04H212.8Zm-1.939-4.03a5.811,5.811,0,0,0-3.647-1.5v-2.02a7.925,7.925,0,0,1,5.084,2.09Zm-4.248-1.5a5.867,5.867,0,0,0-3.628,1.48l-1.437-1.42a7.933,7.933,0,0,1,5.065-2.08v2.02Zm0.3,0.59a5.245,5.245,0,1,1-5.293,5.24,5.272,5.272,0,0,1,5.293-5.24h0Zm-5.792-.11,1.436,1.42a5.794,5.794,0,0,0-1.53,3.63h-2.032a7.77,7.77,0,0,1,2.126-5.05h0Zm0,0,7.409,4.74-1.319-1.31v4.98h-0.6v-4.98l-1.319,1.31-0.425-.42,2.027-2.01,0.018-.02h0l0.018,0.02,2.027,2.01Z" transform="translate(-198.406 -1121.47)"/>
</svg>
