<svg xmlns="http://www.w3.org/2000/svg" viewBox="0 0 47.68 48.16"><defs><style>.cls-1{isolation:isolate;}.cls-2{fill:#3f73b5;}</style></defs><title>Ресурс 4</title><g id="Слой_2" data-name="Слой 2"><g id="Shape_1297" data-name="Shape 1297" class="cls-1"><g id="Shape_1297-2" data-name="Shape 1297"><path class="cls-2" d="M23.84,0a24.08,24.08,0,0,0,0,48.16A24.08,24.08,0,0,0,23.84,0Zm0,46.55a22.47,22.47,0,0,1,0-44.94,22.47,22.47,0,0,1,0,44.94ZM33.6,23.28H28.53a4.78,4.78,0,0,0-3.89-3.94V14.22a1.6,1.6,0,1,0-1.59,0v5.12a4.8,4.8,0,0,0-3.9,3.94H14.08a1.57,1.57,0,0,0-1.36-.81,1.61,1.61,0,0,0,0,3.21,1.56,1.56,0,0,0,1.36-.8h5.07a4.79,4.79,0,0,0,3.9,3.93v5.12a1.59,1.59,0,1,0,1.59,0V28.81a4.78,4.78,0,0,0,3.89-3.93H33.6a1.56,1.56,0,0,0,1.37.8,1.61,1.61,0,0,0,0-3.21A1.57,1.57,0,0,0,33.6,23.28Zm-9.76,4A3.21,3.21,0,1,1,27,24.08,3.2,3.2,0,0,1,23.84,27.29Zm15.86-4a16.07,16.07,0,0,0-4.09-10L37.89,11,36.76,9.89l-2.28,2.3a15.69,15.69,0,0,0-9.84-4.12V4.81H23.05V8.07a15.69,15.69,0,0,0-9.85,4.12l-2.29-2.3L9.79,11l2.28,2.31A16.09,16.09,0,0,0,8,23.28H4.77v1.6H8a16.09,16.09,0,0,0,4.08,10l-2.28,2.3,1.12,1.14L13.2,36a15.7,15.7,0,0,0,9.85,4.13v3.25h1.59V40.09A15.7,15.7,0,0,0,34.48,36l2.29,2.31,1.12-1.14-2.28-2.3a16,16,0,0,0,4.09-9.95h3.21v-1.6ZM23.84,38.52A14.45,14.45,0,1,1,38.15,24.08,14.39,14.39,0,0,1,23.84,38.52Z"/></g></g></g></svg>