<svg xmlns="http://www.w3.org/2000/svg" width="32.11" height="31.45" viewBox="0 0 32.11 31.45"><defs><style>.cls-1{isolation:isolate;}.cls-2{fill:#24abea;}</style></defs><title>Ресурс 1</title><g id="Слой_2" data-name="Слой 2"><g id="Shape_605" data-name="Shape 605" class="cls-1"><g id="Shape_605-2" data-name="Shape 605"><path class="cls-2" d="M31.55,17,20.07,5.76V1.84A1.87,1.87,0,0,0,18.19,0H1.88A1.86,1.86,0,0,0,0,1.84v16a1.87,1.87,0,0,0,1.88,1.85h4L17.37,30.91a1.86,1.86,0,0,0,1.33.54A1.89,1.89,0,0,0,20,30.91L27.12,24l4.43-4.34a1.8,1.8,0,0,0,0-2.61ZM6.14,18.43H1.88a.63.63,0,0,1-.63-.62v-16a.62.62,0,0,1,.63-.61H18.19a.61.61,0,0,1,.62.61V6h0v11.8a.62.62,0,0,1-.62.62Zm24.53.32-.89.87L19.14,30a.62.62,0,0,1-.44.18.63.63,0,0,1-.45-.18L7.65,19.66H18.19a1.87,1.87,0,0,0,1.88-1.85V7.49l10.6,10.39a.6.6,0,0,1,.18.43A.6.6,0,0,1,30.67,18.75ZM10,7.37a2.46,2.46,0,1,0,2.51,2.46A2.49,2.49,0,0,0,10,7.37Zm0,3.69a1.23,1.23,0,1,1,1.26-1.23A1.24,1.24,0,0,1,10,11.06Zm5-8.6a2.49,2.49,0,0,0-2.51,2.45,2.51,2.51,0,0,0,5,0A2.49,2.49,0,0,0,15.05,2.46Zm0,3.68A1.23,1.23,0,1,1,16.3,4.91,1.24,1.24,0,0,1,15.05,6.14ZM5,12.28a2.46,2.46,0,1,0,2.5,2.46A2.49,2.49,0,0,0,5,12.28ZM5,16a1.23,1.23,0,1,1,1.25-1.23A1.25,1.25,0,0,1,5,16Zm10-3.69a2.46,2.46,0,1,0,2.51,2.46A2.49,2.49,0,0,0,15.05,12.28Zm0,3.69a1.23,1.23,0,1,1,1.25-1.23A1.24,1.24,0,0,1,15.05,16ZM5,7.37A2.46,2.46,0,1,0,5,2.46,2.48,2.48,0,0,0,2.51,4.91,2.48,2.48,0,0,0,5,7.37ZM5,3.68A1.23,1.23,0,1,1,3.76,4.91,1.25,1.25,0,0,1,5,3.68ZM25.79,15.86a2.48,2.48,0,0,0-1.77.72,2.4,2.4,0,0,0,0,3.47,2.54,2.54,0,0,0,3.54,0,2.4,2.4,0,0,0,0-3.47A2.48,2.48,0,0,0,25.79,15.86Zm.89,3.32a1.28,1.28,0,0,1-1.78,0,1.23,1.23,0,0,1-.36-.87,1.26,1.26,0,0,1,.36-.87,1.28,1.28,0,0,1,.89-.35,1.26,1.26,0,0,1,.89.35h0a1.22,1.22,0,0,1,0,1.73Zm-8,3.63a2.52,2.52,0,0,0-1.78.72,2.43,2.43,0,0,0,0,3.47,2.52,2.52,0,0,0,1.78.72A2.48,2.48,0,0,0,20.47,27a2.42,2.42,0,0,0,0-3.47A2.48,2.48,0,0,0,18.7,22.81Zm.88,3.32a1.21,1.21,0,0,1-.88.36,1.23,1.23,0,0,1-.89-.36,1.2,1.2,0,0,1,0-1.73A1.23,1.23,0,0,1,18.7,24a1.23,1.23,0,0,1,.88,2.09Z"/></g></g></g></svg>