<svg xmlns="http://www.w3.org/2000/svg" viewBox="0 0 47.69 48.16"><defs><style>.cls-1{isolation:isolate;}.cls-2{fill:#3f73b5;}</style></defs><title>Ресурс 14</title><g id="Слой_2" data-name="Слой 2"><g id="Shape_605" data-name="Shape 605" class="cls-1"><g id="Shape_605-2" data-name="Shape 605"><path class="cls-2" d="M46.87,26.05,29.8,8.82v-6A2.81,2.81,0,0,0,27,0H2.79A2.81,2.81,0,0,0,0,2.82V27.28A2.81,2.81,0,0,0,2.79,30.1H8.73L25.79,47.33a2.76,2.76,0,0,0,3.95,0L40.28,36.69,46.87,30a2.84,2.84,0,0,0,0-4ZM9.11,28.22H2.79a.94.94,0,0,1-.93-.94V2.82a.94.94,0,0,1,.93-.94H27a.94.94,0,0,1,.93.94V9.2h0V27.28a.94.94,0,0,1-.93.94H9.11Zm36.44.49L44.23,30,28.43,46a.92.92,0,0,1-1.32,0L11.36,30.1H27a2.81,2.81,0,0,0,2.79-2.82V11.48l15.75,15.9a.91.91,0,0,1,.27.66A.94.94,0,0,1,45.55,28.71ZM14.9,11.29a3.76,3.76,0,1,0,3.73,3.76A3.75,3.75,0,0,0,14.9,11.29Zm0,5.64a1.88,1.88,0,1,1,1.86-1.88A1.87,1.87,0,0,1,14.9,16.93ZM22.35,3.76a3.77,3.77,0,1,0,3.73,3.77A3.75,3.75,0,0,0,22.35,3.76Zm0,5.65a1.89,1.89,0,1,1,1.87-1.88A1.88,1.88,0,0,1,22.35,9.41Zm-14.9,9.4a3.77,3.77,0,1,0,3.73,3.76A3.75,3.75,0,0,0,7.45,18.81Zm0,5.64a1.88,1.88,0,1,1,1.86-1.88A1.87,1.87,0,0,1,7.45,24.45Zm14.9-5.64a3.77,3.77,0,1,0,3.73,3.76A3.75,3.75,0,0,0,22.35,18.81Zm0,5.64a1.88,1.88,0,1,1,1.87-1.88A1.87,1.87,0,0,1,22.35,24.45ZM7.45,11.29A3.77,3.77,0,1,0,3.73,7.53,3.76,3.76,0,0,0,7.45,11.29Zm0-5.65A1.89,1.89,0,1,1,5.59,7.53,1.88,1.88,0,0,1,7.45,5.64ZM38.31,24.28a3.68,3.68,0,0,0-2.64,1.1,3.79,3.79,0,0,0,0,5.32,3.71,3.71,0,0,0,5.27,0,3.79,3.79,0,0,0,0-5.32A3.68,3.68,0,0,0,38.31,24.28Zm1.31,5.09a1.84,1.84,0,0,1-2.63,0A1.87,1.87,0,0,1,36.44,28,1.9,1.9,0,0,1,37,26.71a1.85,1.85,0,0,1,2.63,0h0A1.9,1.9,0,0,1,40.17,28,1.87,1.87,0,0,1,39.62,29.37ZM27.77,34.92A3.7,3.7,0,0,0,25.13,36a3.8,3.8,0,0,0,0,5.33,3.71,3.71,0,0,0,5.27,0,3.79,3.79,0,0,0,0-5.33A3.68,3.68,0,0,0,27.77,34.92ZM29.09,40a1.86,1.86,0,0,1-3.18-1.32,1.9,1.9,0,0,1,.54-1.34,1.86,1.86,0,0,1,2.64,0A1.91,1.91,0,0,1,29.09,40Z"/></g></g></g></svg>