<svg xmlns="http://www.w3.org/2000/svg" width="32.04" height="31.39" viewBox="0 0 32.04 31.39"><defs><style>.cls-1{isolation:isolate;}.cls-2{fill:#24abea;}</style></defs><title>Ресурс 4</title><g id="Слой_2" data-name="Слой 2"><g id="Shape_601" data-name="Shape 601" class="cls-1"><g id="Shape_601-2" data-name="Shape 601"><path class="cls-2" d="M16,0A15.88,15.88,0,0,0,0,15.69a15.88,15.88,0,0,0,16,15.7,15.88,15.88,0,0,0,16-15.7A15.88,15.88,0,0,0,16,0Zm0,30A14.46,14.46,0,0,1,1.43,15.69,14.46,14.46,0,0,1,16,1.4,14.46,14.46,0,0,1,30.61,15.69,14.46,14.46,0,0,1,16,30Zm-1-18.6a3,3,0,1,0-3,2.89A2.93,2.93,0,0,0,15,11.39Zm-4.49,0a1.53,1.53,0,1,1,1.53,1.49A1.52,1.52,0,0,1,10.54,11.39Zm9.25,5.89a2.9,2.9,0,1,0,3,2.9A2.93,2.93,0,0,0,19.79,17.28Zm0,4.4a1.5,1.5,0,1,1,1.53-1.5A1.51,1.51,0,0,1,19.79,21.68ZM21.71,7.79a.72.72,0,0,0-1.24-.06L10.37,22.89a.7.7,0,0,0,.21,1,.73.73,0,0,0,1-.2L21.67,8.49A.7.7,0,0,0,21.71,7.79Z"/></g></g></g></svg>