<svg xmlns="http://www.w3.org/2000/svg" width="206" height="30" viewBox="0 0 206 30">
  <metadata><?xpacket begin="﻿" id="W5M0MpCehiHzreSzNTczkc9d"?>
<x:xmpmeta xmlns:x="adobe:ns:meta/" x:xmptk="Adobe XMP Core 5.6-c138 79.159824, 2016/09/14-01:09:01        ">
   <rdf:RDF xmlns:rdf="http://www.w3.org/1999/02/22-rdf-syntax-ns#">
      <rdf:Description rdf:about=""/>
   </rdf:RDF>
</x:xmpmeta>
                                                                                                    
                                                                                                    
                                                                                                    
                                                                                                    
                                                                                                    
                                                                                                    
                                                                                                    
                                                                                                    
                                                                                                    
                                                                                                    
                                                                                                    
                                                                                                    
                                                                                                    
                                                                                                    
                                                                                                    
                                                                                                    
                                                                                                    
                                                                                                    
                                                                                                    
                                                                                                    
                           
<?xpacket end="w"?></metadata>
<defs>
    <style>
      .cls-1 {
        fill: #fff;
      }

      .cls-1, .cls-2 {
        fill-rule: evenodd;
      }

      .cls-2 {
        fill: #24abea;
      }
    </style>
  </defs>
  <path id="Shape_1_copy" data-name="Shape 1 copy" class="cls-1" d="M213.233,63.736a8.49,8.49,0,0,1-3.221-.608,7.44,7.44,0,0,1-4.239-4.227,8.745,8.745,0,0,1,0-6.438,7.7,7.7,0,0,1,1.676-2.57,7.614,7.614,0,0,1,2.563-1.673,8.49,8.49,0,0,1,3.221-.608,7.7,7.7,0,0,1,4.841,1.586,7.223,7.223,0,0,1,2.673,4.216H218.14a4.843,4.843,0,0,0-1.862-2.44,5.289,5.289,0,0,0-3.045-.885,5.235,5.235,0,0,0-3.911,1.581,5.985,5.985,0,0,0,0,8.024,5.245,5.245,0,0,0,3.911,1.575,5.191,5.191,0,0,0,3.111-.945,5.007,5.007,0,0,0,1.851-2.608h2.618a7.482,7.482,0,0,1-2.678,4.384A7.658,7.658,0,0,1,213.233,63.736Zm20.21-12.3,1.917,0.011V63.454h-2.005L233.115,62a5.88,5.88,0,0,1-1.961,1.3,6.689,6.689,0,0,1-5.653-.359,5.914,5.914,0,0,1-2.267-2.271,6.725,6.725,0,0,1,0-6.443,5.9,5.9,0,0,1,2.267-2.255,6.732,6.732,0,0,1,5.675-.348,5.762,5.762,0,0,1,1.971,1.326Zm-7.372,8.829a3.958,3.958,0,0,0,6.792-2.82,3.833,3.833,0,0,0-3.955-3.933,3.853,3.853,0,0,0-2.837,1.124A4.075,4.075,0,0,0,226.071,60.265ZM246.5,62.709a5.636,5.636,0,0,1-3.56,1.049,5.368,5.368,0,0,1-3.554-1.119,3.849,3.849,0,0,1-1.4-2.988h2.432a1.755,1.755,0,0,0,.761,1.429,3.641,3.641,0,0,0,3.544.087,1.292,1.292,0,0,0,.668-1.146,1.1,1.1,0,0,0-.159-0.587,1.39,1.39,0,0,0-.383-0.418,2.381,2.381,0,0,0-.636-0.288,7.034,7.034,0,0,0-.733-0.2q-0.324-.065-0.871-0.163c-0.373-.065-0.668-0.119-0.888-0.163s-0.5-.114-0.854-0.212a4.751,4.751,0,0,1-.849-0.309,5.61,5.61,0,0,1-.707-0.435,2.225,2.225,0,0,1-.6-0.6,3.274,3.274,0,0,1-.362-0.81,3.572,3.572,0,0,1-.148-1.054,3.166,3.166,0,0,1,1.3-2.624,5.4,5.4,0,0,1,3.4-1.005,5.156,5.156,0,0,1,3.38,1.049A3.529,3.529,0,0,1,247.6,55h-2.355a1.585,1.585,0,0,0-.658-1.3,3.549,3.549,0,0,0-3.362-.054,1.214,1.214,0,0,0-.6,1.059,1.137,1.137,0,0,0,.088.462,0.85,0.85,0,0,0,.3.353,3.2,3.2,0,0,0,.405.25,2.587,2.587,0,0,0,.57.185q0.378,0.087.619,0.136c0.16,0.032.4,0.074,0.712,0.125a12.556,12.556,0,0,1,2.552.619,3.013,3.013,0,0,1,1.972,2.793c0.007,0.087.011,0.181,0.011,0.283A3.364,3.364,0,0,1,246.5,62.709Zm3.977-13.121V47.035h2.574v2.553h-2.574Zm0.044,13.876V51.447h2.486V63.464h-2.486Zm12.433-12.289a4.267,4.267,0,0,1,3.352,1.4,5.285,5.285,0,0,1,1.249,3.651v7.237h-2.487V56.728a3.8,3.8,0,0,0-.707-2.489,2.548,2.548,0,0,0-2.075-.848,2.992,2.992,0,0,0-2.339,1.027,3.781,3.781,0,0,0-.915,2.613v6.433h-2.486V51.447h1.73l0.493,1.673a4.745,4.745,0,0,1,1.786-1.434A5.562,5.562,0,0,1,262.954,51.175Zm16.88,11.762a7.077,7.077,0,0,1-6.616,0,6.024,6.024,0,0,1-2.322-2.26,6.592,6.592,0,0,1,0-6.455,5.988,5.988,0,0,1,2.322-2.255,7.121,7.121,0,0,1,6.616,0,5.987,5.987,0,0,1,2.323,2.26,6.588,6.588,0,0,1,0,6.449A6.033,6.033,0,0,1,279.834,62.937Zm-6.14-2.646a4.175,4.175,0,1,0-1.111-2.836A3.843,3.843,0,0,0,273.694,60.292ZM77,42V72h38.9V42H77Z" transform="translate(-77 -42)"/>
  <path class="cls-2" d="M92.849,64.656H83.3V48.3H86.01V62.159h6.84v2.5Zm14.271-1.431a8.012,8.012,0,0,1-5.136,1.716A8.875,8.875,0,0,1,98.61,64.3a7.8,7.8,0,0,1-4.441-4.436,9.2,9.2,0,0,1,0-6.757,8.091,8.091,0,0,1,1.756-2.7,7.974,7.974,0,0,1,2.685-1.756,8.877,8.877,0,0,1,3.374-.639,8.064,8.064,0,0,1,5.073,1.665,7.586,7.586,0,0,1,2.8,4.425h-2.731a5.086,5.086,0,0,0-1.951-2.56,5.91,5.91,0,0,0-7.288.73,6.288,6.288,0,0,0,0,8.422,5.489,5.489,0,0,0,4.1,1.654,5.427,5.427,0,0,0,3.259-.992,5.248,5.248,0,0,0,1.94-2.737h2.743A7.857,7.857,0,0,1,107.12,63.225Z" transform="translate(-77 -42)"/>
  <path id="Shape_2_copy" data-name="Shape 2 copy" class="cls-1" d="M129.323,61.085h6.529v2.38h-9.114V47.883h2.585v13.2ZM146.6,62.937a7.077,7.077,0,0,1-6.616,0,6.033,6.033,0,0,1-2.323-2.26,6.6,6.6,0,0,1,0-6.455,6,6,0,0,1,2.323-2.255,7.121,7.121,0,0,1,6.616,0,5.977,5.977,0,0,1,2.322,2.26,6.582,6.582,0,0,1,0,6.449A6.024,6.024,0,0,1,146.6,62.937Zm-6.14-2.646a4.175,4.175,0,1,0-1.111-2.836A3.842,3.842,0,0,0,140.458,60.292Zm20.852,2.646a7.079,7.079,0,0,1-6.617,0,6.024,6.024,0,0,1-2.322-2.26,6.6,6.6,0,0,1,0-6.455,5.988,5.988,0,0,1,2.322-2.255,7.123,7.123,0,0,1,6.617,0,5.977,5.977,0,0,1,2.322,2.26,6.588,6.588,0,0,1,0,6.449A6.024,6.024,0,0,1,161.31,62.937Zm-6.14-2.646a4.172,4.172,0,1,0-1.112-2.836A3.841,3.841,0,0,0,155.17,60.292ZM175,63.464l-3.626-5.128h-1.511v5.128h-2.487V47.144h2.487V56.1H171.4l3.265-4.651h2.958l-4.108,5.77,4.535,6.248H175Zm4.82-13.876V47.035H182.4v2.553h-2.575Zm0.044,13.876V51.447h2.487V63.464h-2.487ZM192.3,51.175a4.265,4.265,0,0,1,3.352,1.4,5.28,5.28,0,0,1,1.249,3.651v7.237h-2.487V56.728a3.8,3.8,0,0,0-.706-2.489,2.549,2.549,0,0,0-2.076-.848,2.992,2.992,0,0,0-2.339,1.027,3.781,3.781,0,0,0-.914,2.613v6.433h-2.487V51.447h1.731l0.493,1.673a4.734,4.734,0,0,1,1.785-1.434A5.562,5.562,0,0,1,192.3,51.175Z" transform="translate(-77 -42)"/>
</svg>
