<svg xmlns="http://www.w3.org/2000/svg" width="26.01" height="29.91" viewBox="0 0 26.01 29.91"><defs><style>.cls-1{isolation:isolate;}.cls-2{fill:#22ace7;}</style></defs><title>Ресурс 15</title><g id="Слой_2" data-name="Слой 2"><g id="Shape_541" data-name="Shape 541" class="cls-1"><g id="Shape_541-2" data-name="Shape 541"><path class="cls-2" d="M3.44,0C2,0,0,4,0,7.06c0,2,.67,3.11,1.67,3.62a2.23,2.23,0,0,1,1.2,2.19L1.43,27.67a2,2,0,0,0,2,2.24,2,2,0,0,0,2-2.24L4,12.87A2.22,2.22,0,0,1,5.2,10.68c1-.51,1.68-1.61,1.68-3.62C6.88,4,5,0,3.44,0ZM16.63,0a.49.49,0,0,0-.49.5V6.6a.5.5,0,1,1-1,0V.5a.49.49,0,0,0-.49-.5h0a.49.49,0,0,0-.49.5V6.6a.5.5,0,0,1-.5.5.49.49,0,0,1-.49-.5V.5a.5.5,0,0,0-.5-.5h0a.5.5,0,0,0-.5.5V6.6a.5.5,0,1,1-1,0V.5a.49.49,0,0,0-.49-.5.47.47,0,0,0-.47.47V7.06c0,2,.67,3.11,1.68,3.62a2.22,2.22,0,0,1,1.19,2.19l-1.44,14.8a2,2,0,1,0,4,0l-1.44-14.8a2.23,2.23,0,0,1,1.2-2.19c1-.51,1.67-1.61,1.67-3.62V.47A.47.47,0,0,0,16.63,0Zm8.05,14.12a.34.34,0,0,0,.34-.34V.6a.6.6,0,0,0-.59-.6.65.65,0,0,0-.62.46l-2,7.2a7.39,7.39,0,0,0,1,6.18.63.63,0,0,0,.53.28L22,27.67a2.09,2.09,0,0,0,.52,1.57A2,2,0,0,0,26,27.67Z"/></g></g></g></svg>