<svg xmlns="http://www.w3.org/2000/svg" width="35.29" height="29.72" viewBox="0 0 35.29 29.72"><defs><style>.cls-1{isolation:isolate;}.cls-2{fill:#22ace7;}</style></defs><title>Ресурс 12</title><g id="Слой_2" data-name="Слой 2"><g id="Shape_537" data-name="Shape 537" class="cls-1"><g id="Shape_537-2" data-name="Shape 537"><path class="cls-2" d="M27.73,28.46H25.66L24.19,24H11.1L9.63,28.46H7.56a.63.63,0,0,0,0,1.26H27.73a.63.63,0,0,0,0-1.26ZM0,22.13a.63.63,0,0,0,.63.63h34a.63.63,0,0,0,.63-.63V21.5H0Zm0-1.89H35.29V2.53H0ZM33.85,15l-3.79,3.8a.62.62,0,0,1-.88,0,.63.63,0,0,1,0-.89L33,14.1a.63.63,0,0,1,.9.89Zm-8.46,2.9L33,10.3a.67.67,0,0,1,.62-.17.63.63,0,0,1,.44.45.64.64,0,0,1-.16.62l-7.57,7.59a.62.62,0,0,1-.88,0A.63.63,0,0,1,25.39,17.89ZM1.45,7.77,5.23,4a.63.63,0,0,1,.89.89L2.34,8.67a.63.63,0,0,1-.89,0A.62.62,0,0,1,1.45,7.77Zm0,3.8L9,4a.63.63,0,0,1,.89.89L2.34,12.46a.63.63,0,0,1-.89,0A.62.62,0,0,1,1.45,11.57ZM34.66,0H.63A.63.63,0,0,0,0,.63v.63H35.29V.63A.63.63,0,0,0,34.66,0Z"/></g></g></g></svg>