<svg xmlns="http://www.w3.org/2000/svg" width="23" height="16.71" viewBox="0 0 23 16.71"><defs><style>.cls-1{isolation:isolate;}.cls-2{fill:#22ace7;}</style></defs><title>Ресурс 3</title><g id="Слой_2" data-name="Слой 2"><g id="Shape_565" data-name="Shape 565" class="cls-1"><g id="Shape_565-2" data-name="Shape 565"><path class="cls-2" d="M20.41,0H2.59A2.62,2.62,0,0,0,0,2.65V4.92H23V2.65A2.62,2.62,0,0,0,20.41,0ZM0,14.05a2.63,2.63,0,0,0,2.59,2.66H20.41A2.63,2.63,0,0,0,23,14.05V9H0Zm11.5-1.54h1.34a.65.65,0,0,1,0,1.29H11.5a.65.65,0,0,1,0-1.29Zm-8,0H8.82a.65.65,0,0,1,0,1.29H3.46a.65.65,0,0,1,0-1.29Z"/></g></g></g></svg>