<svg xmlns="http://www.w3.org/2000/svg" width="22.89" height="19.94" viewBox="0 0 22.89 19.94"><defs><style>.cls-1{isolation:isolate;}.cls-2{fill:#22ace7;}</style></defs><title>Ресурс 2</title><g id="Слой_2" data-name="Слой 2"><g id="Shape_564" data-name="Shape 564" class="cls-1"><g id="Shape_564-2" data-name="Shape 564"><path class="cls-2" d="M16.05,9.61H14.3a2.31,2.31,0,0,1-2.11-2.35,2,2,0,0,1,2.11-2V3.46a3.88,3.88,0,0,0-3.83,3.93,3.88,3.88,0,0,0,3.83,3.93h1.75a2.24,2.24,0,0,1,2.26,2.41v1.53H20V13.32A3.84,3.84,0,0,0,16.05,9.61Zm2.26,10.33H20V16.42H18.31ZM0,19.94H17.16V16.42H0ZM19.28,6.72a4,4,0,0,0,1.15-2.79A3.89,3.89,0,0,0,16.59,0V1.76a2.14,2.14,0,0,1,2.12,2.17A2.14,2.14,0,0,1,16.59,6.1V7.86a4.65,4.65,0,0,1,4.58,4.77v2.62h1.72V12.63A6.55,6.55,0,0,0,19.28,6.72Zm1.89,13.22h1.72V16.42H21.17Z"/></g></g></g></svg>