<svg xmlns="http://www.w3.org/2000/svg" width="17.313" height="19.94" viewBox="0 0 17.313 19.94">
  <metadata><?xpacket begin="﻿" id="W5M0MpCehiHzreSzNTczkc9d"?>
<x:xmpmeta xmlns:x="adobe:ns:meta/" x:xmptk="Adobe XMP Core 5.6-c138 79.159824, 2016/09/14-01:09:01        ">
   <rdf:RDF xmlns:rdf="http://www.w3.org/1999/02/22-rdf-syntax-ns#">
      <rdf:Description rdf:about=""/>
   </rdf:RDF>
</x:xmpmeta>
                                                                                                    
                                                                                                    
                                                                                                    
                                                                                                    
                                                                                                    
                                                                                                    
                                                                                                    
                                                                                                    
                                                                                                    
                                                                                                    
                                                                                                    
                                                                                                    
                                                                                                    
                                                                                                    
                                                                                                    
                                                                                                    
                                                                                                    
                                                                                                    
                                                                                                    
                                                                                                    
                           
<?xpacket end="w"?></metadata>
<defs>
    <style>
      .cls-1 {
        fill: #22ace7;
        fill-rule: evenodd;
      }
    </style>
  </defs>
  <path class="cls-1" d="M521.472,2515.06a5.177,5.177,0,1,0,5.024,5.18,5.118,5.118,0,0,0-5.024-5.18h0Zm0,0,8.622,14.49a4.731,4.731,0,0,0-.5-0.95,6.218,6.218,0,0,0-4.322-2.8,0.848,0.848,0,0,0-.636.16,5.239,5.239,0,0,1-6.319,0,0.774,0.774,0,0,0-.637-0.16,6.177,6.177,0,0,0-4.322,2.8,5.407,5.407,0,0,0-.5.95,0.493,0.493,0,0,0,.022.43,10.475,10.475,0,0,0,1.6,2.08,11.969,11.969,0,0,0,1.01.9,9.748,9.748,0,0,0,11.935,0,9.162,9.162,0,0,0,1.009-.9,10.193,10.193,0,0,0,1.009-1.18,7.282,7.282,0,0,0,.593-0.9,0.4,0.4,0,0,0,.065-0.43h0Zm0,0" transform="translate(-512.812 -2515.06)"/>
</svg>
