<svg width="55" height="55" viewBox="0 0 55 55" fill="none" xmlns="http://www.w3.org/2000/svg">
<path d="M54.9878 8.59375V25.6738C54.9878 26.8605 54.0261 27.8223 52.8394 27.8223C51.6531 27.8223 50.691 26.8605 50.691 25.6738V8.59375C50.691 6.22459 48.7637 4.29688 46.3941 4.29688H8.59375C6.22459 4.29688 4.29688 6.22459 4.29688 8.59375V36.416C4.29688 38.7852 6.22459 40.7129 8.59375 40.7129H19.4316C20.6179 40.7129 21.58 41.6747 21.58 42.8613C21.58 44.048 20.6179 45.0098 19.4316 45.0098H8.59375C3.85502 45.0098 0 41.1547 0 36.416V8.59375C0 3.85502 3.85502 0 8.59375 0H46.3945C51.1328 0 54.9878 3.85502 54.9878 8.59375ZM52.8394 34.2676C51.6531 34.2676 50.691 35.2293 50.691 36.416C50.691 38.7852 48.7637 40.7129 46.3941 40.7129C45.2078 40.7129 44.2456 41.6747 44.2456 42.8613C44.2456 44.048 45.2078 45.0098 46.3941 45.0098C51.1328 45.0098 54.9878 41.1547 54.9878 36.416C54.9878 35.2293 54.0261 34.2676 52.8394 34.2676ZM10.8374 12.8906H23.191C24.3776 12.8906 25.3394 11.9289 25.3394 10.7422C25.3394 9.55551 24.3776 8.59375 23.191 8.59375H10.8374C9.65118 8.59375 8.689 9.55551 8.689 10.7422C8.689 11.9289 9.65118 12.8906 10.8374 12.8906ZM44.2456 12.8906C45.4323 12.8906 46.3941 11.9289 46.3941 10.7422C46.3941 9.55551 45.4323 8.59375 44.2456 8.59375H31.8921C30.7059 8.59375 29.7437 9.55551 29.7437 10.7422C29.7437 11.9289 30.7059 12.8906 31.8921 12.8906H44.2456ZM46.3941 19.3359C46.3941 18.1493 45.4323 17.1875 44.2456 17.1875H10.8374C9.65118 17.1875 8.689 18.1493 8.689 19.3359C8.689 20.5226 9.65118 21.4844 10.8374 21.4844H44.2456C45.4323 21.4844 46.3941 20.5226 46.3941 19.3359ZM10.8374 25.7812C9.65118 25.7812 8.689 26.743 8.689 27.9297C8.689 29.1164 9.65118 30.0781 10.8374 30.0781H18.7867C19.9733 30.0781 20.9351 29.1164 20.9351 27.9297C20.9351 26.743 19.9733 25.7812 18.7867 25.7812H10.8374ZM42.7417 35.6641C42.7417 38.7033 41.3625 41.4262 39.1968 43.2407V52.8516C39.1968 53.5725 38.8351 54.2455 38.2338 54.6433C37.8771 54.8796 37.4638 55 37.0484 55C36.7639 55 36.4777 54.9434 36.2083 54.8288L32.7511 53.3597L29.2943 54.8271C28.6309 55.1091 27.8701 55.0394 27.2692 54.6412C26.6679 54.2434 26.3062 53.5704 26.3062 52.8495V43.0552C24.2652 41.2433 22.9761 38.6018 22.9761 35.6641C22.9761 30.2145 27.4098 25.7812 32.8589 25.7812C38.3085 25.7812 42.7417 30.2145 42.7417 35.6641ZM27.273 35.6641C27.273 38.744 29.7789 41.25 32.8589 41.25C35.9393 41.25 38.4449 38.744 38.4449 35.6641C38.4449 32.5841 35.9393 30.0781 32.8589 30.0781C29.7789 30.0781 27.273 32.5841 27.273 35.6641ZM34.8999 45.3345C34.2411 45.4734 33.5584 45.5469 32.8589 45.5469C32.0831 45.5469 31.3282 45.4567 30.6031 45.2867V49.6037L31.9118 49.0477C32.449 48.8199 33.0553 48.8203 33.592 49.0482L34.9004 49.6041V45.3345H34.8999Z" fill="#00B674"/>
</svg>
