<svg width="55" height="55" viewBox="0 0 55 55" fill="none" xmlns="http://www.w3.org/2000/svg">
<path d="M53.427 43.1454C55.5213 45.2397 55.5213 48.647 53.427 50.7413C53.424 50.7447 53.4207 50.7476 53.4173 50.751L49.7423 54.3802C49.3235 54.7935 48.778 55 48.2329 55C47.6782 55 47.1243 54.7868 46.7039 54.3613C45.8705 53.5171 45.8789 52.1567 46.7232 51.3229L48.8733 49.1992H14.3946C9.6559 49.1992 5.80088 45.3442 5.80088 40.6055V6.07479L3.65748 8.18966C2.81279 9.02302 1.4524 9.01379 0.619037 8.1691C-0.214322 7.32441 -0.20509 5.96401 0.639598 5.13065L4.26928 1.55006C6.35771 -0.510254 9.75577 -0.510254 11.8442 1.55006L15.4739 5.13065C16.3186 5.96401 16.3278 7.32441 15.4944 8.1691C15.074 8.59501 14.5197 8.80859 13.9649 8.80859C13.4199 8.80859 12.8748 8.60256 12.456 8.18966L10.0978 5.86288V40.6055C10.0978 42.9746 12.0255 44.9023 14.3946 44.9023H49.0911L46.7232 42.5638C45.8789 41.73 45.8701 40.3696 46.7039 39.5254C47.5376 38.6815 48.898 38.6727 49.7423 39.5065L53.4173 43.1358C53.4207 43.1391 53.424 43.1421 53.427 43.1454ZM48.5548 0H20.7325C19.5429 0 18.5799 0.966797 18.5841 2.15641C18.5887 3.33973 19.5492 4.29688 20.7325 4.29688H48.5548C49.7415 4.29688 50.7032 5.25864 50.7032 6.44531V34.375C50.7032 35.5583 51.6604 36.5192 52.8437 36.5234C54.0333 36.5276 55.0001 35.5646 55.0001 34.375V6.44531C55.0001 2.8857 52.1144 0 48.5548 0ZM31.5821 36.834C32.7688 36.834 33.7306 35.8722 33.7306 34.6855V25.1233C33.7306 21.8654 31.0803 19.2151 27.8224 19.2151C26.3953 19.2151 25.0848 19.7237 24.0626 20.5692C23.0404 19.7237 21.73 19.2151 20.3028 19.2151C19.4833 19.2151 18.702 19.3834 17.992 19.6863C17.6097 19.3364 17.102 19.1211 16.5431 19.1211C15.3564 19.1211 14.3946 20.0829 14.3946 21.2695V34.6973C14.3946 35.8839 15.3564 36.8457 16.5431 36.8457C17.7297 36.8457 18.6915 35.8839 18.6915 34.6973V25.1233C18.6915 24.235 19.4145 23.512 20.3028 23.512C21.1912 23.512 21.9142 24.235 21.9142 25.1233V34.6973C21.9142 35.8839 22.8759 36.8457 24.0626 36.8457C25.2493 36.8457 26.211 35.8839 26.211 34.6973V25.1233C26.211 24.235 26.934 23.512 27.8224 23.512C28.7107 23.512 29.4337 24.235 29.4337 25.1233V34.6855C29.4337 35.8722 30.3955 36.834 31.5821 36.834ZM41.3307 11.6016C41.3193 11.6016 41.3084 11.6032 41.2971 11.6032C41.2862 11.6032 41.2753 11.6016 41.264 11.6016C38.5318 11.6016 36.3087 13.8272 36.3087 16.5627C36.3087 17.7489 37.2705 18.7111 38.4571 18.7111C39.6438 18.7111 40.6056 17.7489 40.6056 16.5627C40.6056 16.2027 40.9073 15.8984 41.264 15.8984C41.2753 15.8984 41.2862 15.8968 41.2975 15.8968C41.3084 15.8968 41.3193 15.8984 41.3307 15.8984C41.6727 15.8984 41.9639 16.1779 41.9874 16.5182C41.945 16.6756 41.6156 17.6487 39.5569 19.9133C38.2801 21.3174 37.0254 22.4608 37.0132 22.4717C36.3557 23.0684 36.1333 24.0084 36.453 24.8363C36.7728 25.6646 37.5692 26.2109 38.4571 26.2109H44.2579C45.4446 26.2109 46.4064 25.2492 46.4064 24.0625C46.4064 22.8758 45.4446 21.9141 44.2579 21.9141H43.519C45.4265 19.6683 46.2859 17.9969 46.2859 16.5627C46.2859 13.8272 44.0628 11.6016 41.3307 11.6016Z" fill="#00B674"/>
</svg>
