<svg width="55" height="55" viewBox="0 0 55 55" fill="none" xmlns="http://www.w3.org/2000/svg">
<path d="M49.5904 4.77066H44.5058V3.27727C44.5058 1.51272 43.0702 0.0771484 41.3057 0.0771484C39.5411 0.0771484 38.1055 1.51272 38.1055 3.27727V4.77066H20.1849V3.27727C20.1849 1.51272 18.7493 0.0771484 16.9847 0.0771484C15.2202 0.0771484 13.7846 1.51272 13.7846 3.27727V4.81013C13.6939 4.78506 13.5989 4.77066 13.5002 4.77066H9.25005C6.30914 4.77066 3.91652 7.16328 3.91652 10.1042V28.2737C3.91652 28.8629 4.39419 29.3404 4.98322 29.3404C5.57226 29.3404 6.04993 28.8629 6.04993 28.2737V15.7577H44.5058C45.0948 15.7577 45.5725 15.2802 45.5725 14.691C45.5725 14.1019 45.0948 13.6243 44.5058 13.6243H6.04993V10.1042C6.04993 8.33965 7.4855 6.90407 9.25005 6.90407H13.5002C13.5989 6.90407 13.6939 6.88956 13.7846 6.8646V8.23745C13.7846 10.002 15.2202 11.4376 16.9847 11.4376C18.7493 11.4376 20.1849 10.002 20.1849 8.23745V6.90407H38.1055V8.23745C38.1055 10.002 39.5411 11.4376 41.3057 11.4376C43.0702 11.4376 44.5058 10.002 44.5058 8.23745V6.90407H49.5904C51.355 6.90407 52.7906 8.33965 52.7906 10.1042V50.6384C52.7906 51.6974 51.929 52.5591 50.8699 52.5591C49.8107 52.5591 48.9491 51.6974 48.9491 50.6384V47.8789C48.9491 47.2898 48.4715 46.8122 47.8824 46.8122H35.4744C34.8854 46.8122 34.4077 47.2898 34.4077 47.8789C34.4077 48.4681 34.8854 48.9456 35.4744 48.9456H46.8157V50.6384C46.8157 51.3329 46.9915 51.987 47.3005 52.5591H4.36208C3.30337 52.5591 2.44201 51.6978 2.44201 50.639V48.9456H26.3176C26.9066 48.9456 27.3843 48.4681 27.3843 47.8789C27.3843 47.2898 26.9066 46.8122 26.3176 46.8122H15.6595C17.5234 45.2069 18.707 42.8325 18.707 40.1853C18.707 35.3622 14.7832 31.4383 9.96005 31.4383C5.13693 31.4383 1.21305 35.3622 1.21305 40.1853C1.21305 42.8325 2.39667 45.2069 4.26064 46.8122H1.3753C0.786265 46.8122 0.308594 47.2898 0.308594 47.8789V50.639C0.308594 52.8741 2.12701 54.6925 4.36208 54.6925H50.8699C53.1052 54.6925 54.924 52.8739 54.924 50.6384V10.1042C54.924 7.16328 52.5314 4.77066 49.5904 4.77066ZM18.0514 8.23745C18.0514 8.82564 17.5729 9.30416 16.9847 9.30416C16.3966 9.30416 15.918 8.82564 15.918 8.23745V3.27727C15.918 2.68909 16.3966 2.21056 16.9847 2.21056C17.5729 2.21056 18.0514 2.68909 18.0514 3.27727V8.23745ZM42.3724 8.23745C42.3724 8.82564 41.8938 9.30416 41.3057 9.30416C40.7175 9.30416 40.2389 8.82564 40.2389 8.23745V3.27727C40.2389 2.68909 40.7175 2.21056 41.3057 2.21056C41.8938 2.21056 42.3724 2.68909 42.3724 3.27727V8.23745ZM3.34647 40.1853C3.34647 36.5386 6.3133 33.5717 9.96005 33.5717C13.6068 33.5717 16.5736 36.5386 16.5736 40.1853C16.5736 43.8321 13.6068 46.7989 9.96005 46.7989C6.3133 46.7989 3.34647 43.8321 3.34647 40.1853Z" fill="black"/>
<path d="M31.9184 47.2027C31.7201 47.0043 31.4449 46.8901 31.1644 46.8901C30.8837 46.8901 30.6086 47.0043 30.4102 47.2027C30.2118 47.4011 30.0977 47.6763 30.0977 47.9568C30.0977 48.2374 30.2117 48.5126 30.4102 48.711C30.6087 48.9094 30.8837 49.0236 31.1644 49.0236C31.4449 49.0236 31.7201 48.9094 31.9184 48.711C32.1168 48.5126 32.2311 48.2374 32.2311 47.9568C32.2311 47.6763 32.1169 47.4011 31.9184 47.2027Z" fill="black"/>
<path d="M29.4324 32.5049C27.1973 32.5049 25.3789 34.3233 25.3789 36.5584C25.3789 38.7934 27.1973 40.6119 29.4324 40.6119C31.6675 40.6119 33.4859 38.7934 33.4859 36.5584C33.4859 34.3233 31.6675 32.5049 29.4324 32.5049ZM29.4324 38.4784C28.3737 38.4784 27.5123 37.6171 27.5123 36.5584C27.5123 35.4997 28.3737 34.6383 29.4324 34.6383C30.4911 34.6383 31.3525 35.4997 31.3525 36.5584C31.3525 37.6171 30.4911 38.4784 29.4324 38.4784Z" fill="#00B674"/>
<path d="M42.9285 32.5049C40.6934 32.5049 38.875 34.3233 38.875 36.5584C38.875 38.7934 40.6934 40.6119 42.9285 40.6119C45.1636 40.6119 46.982 38.7934 46.982 36.5584C46.982 34.3233 45.1636 32.5049 42.9285 32.5049ZM42.9285 38.4784C41.8698 38.4784 41.0084 37.6171 41.0084 36.5584C41.0084 35.4997 41.8698 34.6383 42.9285 34.6383C43.9872 34.6383 44.8486 35.4997 44.8486 36.5584C44.8486 37.6171 43.9872 38.4784 42.9285 38.4784Z" fill="black"/>
<path d="M29.4324 21.4111C27.1973 21.4111 25.3789 23.2295 25.3789 25.4646C25.3789 27.6997 27.1973 29.5181 29.4324 29.5181C31.6675 29.5181 33.4859 27.6997 33.4859 25.4646C33.4859 23.2295 31.6675 21.4111 29.4324 21.4111ZM29.4324 27.3847C28.3737 27.3847 27.5123 26.5233 27.5123 25.4646C27.5123 24.4059 28.3737 23.5445 29.4324 23.5445C30.4911 23.5445 31.3525 24.4059 31.3525 25.4646C31.3525 26.5233 30.4911 27.3847 29.4324 27.3847Z" fill="black"/>
<path d="M15.2488 21.4111C13.0137 21.4111 11.1953 23.2295 11.1953 25.4646C11.1953 27.6997 13.0137 29.5181 15.2488 29.5181C17.4839 29.5181 19.3023 27.6997 19.3023 25.4646C19.3023 23.2295 17.4839 21.4111 15.2488 21.4111ZM15.2488 27.3847C14.1901 27.3847 13.3287 26.5233 13.3287 25.4646C13.3287 24.4059 14.1901 23.5445 15.2488 23.5445C16.3075 23.5445 17.1689 24.4059 17.1689 25.4646C17.1689 26.5233 16.3075 27.3847 15.2488 27.3847Z" fill="black"/>
<path d="M42.9285 21.4111C40.6934 21.4111 38.875 23.2295 38.875 25.4646C38.875 27.6997 40.6934 29.5181 42.9285 29.5181C45.1636 29.5181 46.982 27.6997 46.982 25.4646C46.982 23.2295 45.1636 21.4111 42.9285 21.4111ZM42.9285 27.3847C41.8698 27.3847 41.0084 26.5233 41.0084 25.4646C41.0084 24.4059 41.8698 23.5445 42.9285 23.5445C43.9872 23.5445 44.8486 24.4059 44.8486 25.4646C44.8486 26.5233 43.9872 27.3847 42.9285 27.3847Z" fill="black"/>
<path d="M13.7563 37.5863C13.3396 37.1698 12.6644 37.1698 12.2477 37.5863L8.77382 41.0603L7.58668 39.8731C7.17002 39.4566 6.4948 39.4566 6.07804 39.8731C5.66149 40.2897 5.66149 40.9651 6.07804 41.3818L8.01955 43.3231C8.21966 43.5231 8.49093 43.6355 8.77382 43.6355C9.05671 43.6355 9.32797 43.5231 9.52809 43.3231L13.7563 39.0949C14.1728 38.6783 14.1728 38.0029 13.7563 37.5863Z" fill="#00B674"/>
</svg>
