<svg width="49" height="60" viewBox="0 0 49 60" fill="none" xmlns="http://www.w3.org/2000/svg">
<path d="M24.4882 34.5495C25.1221 34.5495 25.6366 34.0312 25.6366 33.3927C25.6366 32.7542 25.1221 32.2358 24.4882 32.2358C23.8544 32.2358 23.3398 32.7542 23.3398 33.3927C23.3398 34.0312 23.8544 34.5495 24.4882 34.5495Z" fill="black"/>
<path d="M23.8353 59.7851C24.0349 59.9288 24.2686 60.0006 24.5028 60.0006C24.7369 60.0006 24.9707 59.9288 25.1703 59.7851C36.8708 51.3658 48.6189 47.6715 48.6189 30.3481V8.90107C48.6189 8.2996 48.1608 7.79844 47.566 7.74828L44.5811 7.49703C37.7379 6.92267 31.0055 4.65686 25.1115 0.945432C24.7392 0.710898 24.2664 0.710898 23.8941 0.945432C17.9996 4.65686 11.2672 6.92267 4.42401 7.49748L1.43955 7.74828C0.844278 7.79844 0.386719 8.2996 0.386719 8.90107V30.3481C0.386719 48.16 13.7847 52.5529 23.8353 59.7851ZM2.68349 9.96529L4.61511 9.80306C11.5866 9.2174 18.4464 6.96695 24.5028 3.284C30.5587 6.96695 37.419 9.2174 44.39 9.80306L46.3221 9.96529V30.3481C46.3221 45.9688 35.9898 49.3205 24.501 57.428C14.4181 50.3775 2.68349 46.3764 2.68349 30.3481V9.96529Z" fill="black"/>
<path d="M23.8338 51.376C24.251 51.663 24.7763 51.6422 25.1724 51.3458C35.5684 44.0969 41.7289 41.7118 41.7289 30.3493V15.1759C41.7289 14.6034 41.313 14.1167 40.7509 14.0317C35.2549 13.1998 29.9656 11.4767 25.0297 8.9104C24.6745 8.72557 24.2514 8.74907 23.9258 8.93616C19.0039 11.4889 13.7316 13.2034 8.25526 14.0317C7.69318 14.1167 7.27734 14.6029 7.27734 15.1759V30.3493C7.27734 41.8189 14.0245 44.6337 23.8338 51.376ZM9.57411 16.1624C14.3502 15.3486 18.9689 13.8849 23.3431 11.8039V28.7654C23.3431 29.4044 23.8571 29.9222 24.4914 29.9222C25.1257 29.9222 25.6398 29.4044 25.6398 28.7654V11.793C30.0203 13.879 34.6475 15.3468 39.4321 16.1624V30.3493C39.4321 39.7532 35.0593 41.8035 25.6398 48.2209V38.0202C25.6398 37.3812 25.1257 36.8634 24.4914 36.8634C23.8571 36.8634 23.3431 37.3812 23.3431 38.0202V48.2543C14.5422 42.3526 9.57411 39.8305 9.57411 30.3493V16.1624Z" fill="#00B674"/>
</svg>
