<svg width="20" height="21" viewBox="0 0 20 21" fill="none" xmlns="http://www.w3.org/2000/svg">
<path opacity="0.7" d="M9.6875 0.8125C11.4062 0.8125 13.0469 1.28125 14.5312 2.14062C16.0156 3 17.1875 4.17188 18.0469 5.65625C18.9062 7.14062 19.375 8.78125 19.375 10.5C19.375 12.2578 18.9062 13.8594 18.0469 15.3438C17.1875 16.8281 16.0156 18.0391 14.5312 18.8984C13.0469 19.7578 11.4062 20.1875 9.6875 20.1875C7.92969 20.1875 6.32812 19.7578 4.84375 18.8984C3.35938 18.0391 2.14844 16.8281 1.28906 15.3438C0.429688 13.8594 0 12.2578 0 10.5C0 8.78125 0.429688 7.14062 1.28906 5.65625C2.14844 4.17188 3.35938 3 4.84375 2.14062C6.32812 1.28125 7.92969 0.8125 9.6875 0.8125ZM12.8906 14.7969C13.2422 14.4453 13.4375 14.0156 13.4375 13.5078C13.4375 13.1953 13.3203 12.8828 13.0859 12.6484L12.5391 12.1016C12.3047 11.8672 11.9922 11.75 11.6797 11.75H9.0625C8.94531 11.7109 8.78906 11.5156 8.55469 11.1641C8.35938 10.9688 8.24219 10.8125 8.16406 10.6953C8.00781 10.5781 7.89062 10.5 7.8125 10.5C7.38281 10.5 6.99219 10.4219 6.64062 10.2266L6.21094 9.99219C6.01562 9.91406 5.9375 9.79688 5.9375 9.5625C5.9375 9.36719 6.01562 9.21094 6.25 9.13281L7.46094 8.74219C7.69531 8.66406 7.89062 8.70312 8.08594 8.85938L8.4375 9.17188C8.47656 9.25 8.55469 9.25 8.63281 9.25H8.86719C8.98438 9.25 9.0625 9.21094 9.14062 9.09375C9.17969 9.01562 9.17969 8.89844 9.14062 8.78125L8.55469 7.57031C8.47656 7.45312 8.47656 7.33594 8.59375 7.21875L8.98438 6.82812C9.02344 6.78906 9.10156 6.75 9.21875 6.75H9.57031C9.64844 6.75 9.6875 6.75 9.76562 6.67188L10.0781 6.35938C10.1562 6.28125 10.1953 6.20312 10.1953 6.125C10.1953 6.04688 10.1562 5.96875 10.0781 5.89062L9.92188 5.73438C9.84375 5.65625 9.80469 5.57812 9.80469 5.5C9.80469 5.42188 9.84375 5.34375 9.92188 5.26562L10.5078 4.67969C10.5859 4.60156 10.6641 4.44531 10.6641 4.25C10.6641 4.09375 10.5859 3.9375 10.5078 3.82031L9.375 2.6875C9.0625 2.72656 8.75 2.76562 8.4375 2.80469V3.23438C8.4375 3.46875 8.32031 3.66406 8.125 3.78125C7.92969 3.89844 7.73438 3.89844 7.53906 3.78125L6.60156 3.3125C5.66406 3.70312 4.88281 4.25 4.17969 4.95312C3.47656 5.65625 2.96875 6.4375 2.57812 7.29688L3.90625 9.28906C4.10156 9.60156 4.33594 9.875 4.60938 10.1094L4.64844 10.1484C5.03906 10.5 5.42969 10.7734 5.89844 11.0078C6.36719 11.2422 6.99219 11.5938 7.8125 12.0234C7.96875 12.1406 8.125 12.2969 8.24219 12.4922C8.35938 12.6875 8.4375 12.8828 8.4375 13.1172V14.3672C8.4375 14.7188 8.55469 15.0312 8.82812 15.2656C9.0625 15.5391 9.29688 15.8906 9.45312 16.2812C9.60938 16.6719 9.6875 17.0234 9.6875 17.2578V18.3125C10.2344 18.3125 10.7812 18.2734 11.3672 18.1172L12.0312 16.2812C12.0703 16.2031 12.1094 16.0469 12.1875 15.8125L12.2266 15.6562C12.2266 15.5 12.3047 15.3438 12.4219 15.2266C12.5 15.1484 12.6562 14.9922 12.8906 14.7969ZM16.2891 11.2031L17.4219 11.5156C17.4609 11.125 17.5 10.8125 17.5 10.5C17.5 9.28906 17.2266 8.11719 16.6797 7.02344L16.1719 7.25781C16.0156 7.33594 15.8594 7.45312 15.7812 7.57031L15.0391 8.74219C14.9219 8.89844 14.8828 9.09375 14.8828 9.25C14.8828 9.44531 14.9219 9.60156 15.0391 9.75781L15.7422 10.8125C15.8594 11.0469 16.0547 11.1641 16.2891 11.2031Z" fill="white"/>
</svg>
