<svg width="32" height="32" viewBox="0 0 32 32" fill="none" xmlns="http://www.w3.org/2000/svg">
<path d="M19.75 16.25C19.405 16.25 19.125 16.53 19.125 16.875C19.125 17.22 19.405 17.5 19.75 17.5C20.095 17.5 20.375 17.22 20.375 16.875C20.375 16.53 20.095 16.25 19.75 16.25Z" fill="#005E6A"/>
<path d="M6.38546 23.1116L0.135457 30.9866C-0.0137129 31.1743 -0.0420332 31.4309 0.0622149 31.6467C0.166463 31.8628 0.385213 32 0.624959 32H31.375C31.6147 32 31.8334 31.8628 31.9377 31.6467C32.0422 31.4309 32.0136 31.1743 31.8645 30.9866L25.6145 23.1116C25.496 22.9622 25.3156 22.875 25.125 22.875H19.6501L24.3242 15.5439C25.4206 13.9001 26 11.9832 26 10C26 4.48608 21.5141 0 16 0C10.4858 0 5.99996 4.48608 5.99996 10C5.99996 11.9832 6.5793 13.8999 7.67574 15.5439L12.3498 22.875H6.87496C6.68428 22.875 6.50411 22.9622 6.38546 23.1116ZM4.05196 28.0625H7.83101L5.6982 30.75H1.9189L4.05196 28.0625ZM13.1469 24.125L14.8603 26.8125H10.4189L12.552 24.125H13.1469ZM18.8532 24.125H19.4482L21.581 26.8125H17.1398L18.8532 24.125ZM22.5732 28.0625L24.706 30.75H7.2939L9.42696 28.0625H22.5732ZM26.302 30.75L24.1689 28.0625H27.9482L30.081 30.75H26.302ZM26.956 26.8125H23.177L21.0439 24.125H24.8232L26.956 26.8125ZM8.7192 14.8555C7.75801 13.4165 7.24996 11.7375 7.24996 10C7.24996 5.17529 11.1752 1.25 16 1.25C20.8247 1.25 24.75 5.17529 24.75 10C24.75 11.7375 24.2419 13.4165 23.281 14.8555C23.2783 14.8591 23.2761 14.8628 23.2736 14.8665C22.8632 15.5103 16.3161 25.7793 16 26.2749C15.2048 25.0276 9.53609 16.1365 8.72628 14.8665C8.72408 14.8628 8.72164 14.8591 8.7192 14.8555ZM10.956 24.125L8.8232 26.8125H5.0439L7.17696 24.125H10.956Z" fill="#005E6A"/>
<path d="M16 16.25C19.4312 16.25 22.25 13.4714 22.25 10C22.25 6.55371 19.4463 3.75 16 3.75C12.5537 3.75 9.75 6.55371 9.75 10C9.75 13.4724 12.5698 16.25 16 16.25ZM16 5C18.7571 5 21 7.24292 21 10C21 12.7827 18.739 15 16 15C13.2603 15 11 12.7827 11 10C11 7.24292 13.2429 5 16 5Z" fill="#005E6A"/>
<path d="M18.6328 18.3828C18.3374 18.2046 17.9531 18.2998 17.7749 18.5954L15.4648 22.428C15.2866 22.7236 15.3818 23.1076 15.6775 23.2859C15.9744 23.4648 16.3579 23.3677 16.5354 23.0732L18.8455 19.2407C19.0237 18.9451 18.9285 18.561 18.6328 18.3828Z" fill="#005E6A"/>
</svg>
