<svg width="22" height="22" viewBox="0 0 22 22" fill="none" xmlns="http://www.w3.org/2000/svg">
<path fill-rule="evenodd" clip-rule="evenodd" d="M0.644365 0.644365C1.50352 -0.214788 2.89648 -0.214788 3.75563 0.644365L11 7.88873L18.2444 0.644365C19.1035 -0.214788 20.4965 -0.214788 21.3556 0.644365C22.2148 1.50352 22.2148 2.89648 21.3556 3.75563L14.1113 11L21.3556 18.2444C22.2148 19.1035 22.2148 20.4965 21.3556 21.3556C20.4965 22.2148 19.1035 22.2148 18.2444 21.3556L11 14.1113L3.75563 21.3556C2.89648 22.2148 1.50352 22.2148 0.644365 21.3556C-0.214788 20.4965 -0.214788 19.1035 0.644365 18.2444L7.88873 11L0.644365 3.75563C-0.214788 2.89648 -0.214788 1.50352 0.644365 0.644365Z" fill="#1E3E87"/>
</svg>
