<svg width="14" height="14" viewBox="0 0 14 14" fill="none" xmlns="http://www.w3.org/2000/svg">
<path d="M13.818 10.2956H13.8174C13.2856 9.29093 11.5881 8.27582 11.3896 8.15964C10.9956 7.9349 10.577 7.866 10.2133 7.96818C9.92843 8.04698 9.69493 8.22268 9.53557 8.47778C9.31373 8.74222 9.03878 9.05337 8.97984 9.1053C8.52801 9.41234 8.24255 9.38257 7.85026 8.98972L5.00966 6.14979C4.61737 5.75694 4.58818 5.47207 4.87949 5.04069C4.94547 4.96246 5.25777 4.68636 5.52221 4.46453C5.77732 4.30517 5.95245 4.07168 6.03183 3.7868C6.13283 3.42197 6.06453 3.00458 5.83687 2.60415C5.72421 2.41209 4.70904 0.71399 3.70381 0.18219C3.09612 -0.138888 2.36173 -0.0285601 1.87605 0.457708L1.24852 1.08465C0.11484 2.21827 -1.26517 4.64198 2.22806 8.13569L5.86428 11.7719C7.53733 13.4449 8.96462 14 10.1228 14C11.3832 14 12.3242 13.3421 12.9149 12.7514L13.5419 12.1244C14.0282 11.6382 14.1391 10.9032 13.818 10.2956Z" fill="#1E3E87"/>
</svg>
