<svg xmlns="http://www.w3.org/2000/svg" width="156.803" height="156.803" viewBox="0 0 156.803 156.803">
  <g id="Group_184" data-name="Group 184" transform="translate(-973 -7018.116)">
    <path id="Path_453" data-name="Path 453" d="M74.4,2A72.4,72.4,0,1,1,2,74.4,72.4,72.4,0,0,1,74.4,2Z" transform="translate(977 7022.116)" fill="none" stroke="#fff" stroke-width="12"/>
    <path id="Path_457" data-name="Path 457" d="M41.334,60.13V47.641H11.978L33.221,22.982c6.4-7.472,8.113-11.1,8.113-17.506,0-13.13-9.287-21.99-22.951-21.99C8.242-16.514.343-11.71-3.18-3.491-4.354-.822-4.674,1.1-4.888,5.689H8.99C9.31-.822,12.3-4.025,18.277-4.025c5.658,0,9.18,3.629,9.18,9.5,0,3.309-1.067,5.871-3.95,9.18L-4.888,47.641V60.13Z" transform="translate(1034.942 7073.119)" fill="#fff"/>
  </g>
</svg>
