<svg xmlns="http://www.w3.org/2000/svg" width="156.803" height="156.803" viewBox="0 0 156.803 156.803">
  <g id="Group_185" data-name="Group 185" transform="translate(-1480 -7017.997)">
    <path id="Path_455" data-name="Path 455" d="M74.4,2A72.4,72.4,0,1,1,2,74.4,72.4,72.4,0,0,1,74.4,2Z" transform="translate(1484 7021.997)" fill="none" stroke="#fff" stroke-width="12"/>
    <path id="Path_458" data-name="Path 458" d="M33.257,20.847a15.6,15.6,0,0,0,4.8-3.736c2.669-3.1,3.95-6.939,3.95-11.742,0-12.81-9.607-21.883-23.164-21.883C8.919-16.514.806-11.71-2.61-3.7-3.784-1.036-4.1.779-4.425,5.156H9.453c.64-5.978,3.95-9.18,9.394-9.18,5.551,0,9.287,3.843,9.287,9.714,0,5.978-3.523,9.5-9.607,9.5H16.5V27.252h2.028c6.618,0,10.675,3.95,10.675,10.461s-3.95,10.568-10.248,10.568S9.026,44.865,8.6,38.354H-5.278c.427,6.191,1.494,11.422,6.085,15.905,4.27,4.163,10.675,6.512,18.04,6.512,14.731,0,24.231-8.86,24.231-22.63,0-5.337-1.388-9.714-4.483-13.237A19.225,19.225,0,0,0,33.257,20.847Z" transform="translate(1537.688 7073)" fill="#fff"/>
  </g>
</svg>
