<svg xmlns="http://www.w3.org/2000/svg" width="153.801" height="16.633" viewBox="0 0 153.801 16.633">
  <g id="header-logo" transform="translate(0 -4.958)">
    <g id="Group_2356" data-name="Group 2356" transform="translate(0 4.958)">
      <path id="Path_5137" data-name="Path 5137" d="M116.748,5.717V21.995h14.046V19.227H120.309v-4.11h7.63V12.594h-7.63V8.415h10.485v-2.7H116.748Z" transform="translate(-89.484 -5.539)" fill="#650a34"/>
      <path id="Path_5138" data-name="Path 5138" d="M345.588,5.861l-5.03,9.548-5.03-9.545V5.841h-3.394V22.063h3.394V12.971l3.466,6.578h3.128l3.467-6.578v9.092h3.394V5.841h-3.394Z" transform="translate(-254.571 -5.635)" fill="#650a34"/>
      <path id="Path_5139" data-name="Path 5139" d="M463.492,9.017a7.605,7.605,0,0,0-3.223-2.989,10.323,10.323,0,0,0-4.719-1.07,9.442,9.442,0,0,0-6.535,2.281,7.993,7.993,0,0,0-2.526,6.239,7.982,7.982,0,0,0,1.074,3.992,7.7,7.7,0,0,0,3.2,3.016,10.2,10.2,0,0,0,4.778,1.1,10.717,10.717,0,0,0,4.582-.995,7.446,7.446,0,0,0,3.313-2.952,8.3,8.3,0,0,0,1.154-4.342A8.464,8.464,0,0,0,463.492,9.017Zm-2.313,4.271a5.569,5.569,0,0,1-1.6,4.278,6.28,6.28,0,0,1-8.071.013,5.241,5.241,0,0,1-1.615-4.071c0-2.175.559-3.73,1.666-4.629a6.1,6.1,0,0,1,4-1.362,6.172,6.172,0,0,1,2.945.7,4.771,4.771,0,0,1,1.981,1.98A6.5,6.5,0,0,1,461.178,13.289Z" transform="translate(-342.22 -4.958)" fill="#650a34"/>
      <path id="Path_5140" data-name="Path 5140" d="M13.153,12.494H3.393V5.841H0V22.063H3.393V15.406h9.76v6.657h3.4V5.841h-3.4Z" transform="translate(0 -5.635)" fill="#650a34"/>
      <path id="Path_5141" data-name="Path 5141" d="M231.846,16.038a4.238,4.238,0,0,0-1.5-1.375,4.715,4.715,0,0,0,3.144-1.511,4.1,4.1,0,0,0,1.214-3.045,4.333,4.333,0,0,0-.8-2.578,4.137,4.137,0,0,0-2.134-1.57,14.9,14.9,0,0,0-4.276-.441h-7.8V21.888H223.4V15.135h.752a7.7,7.7,0,0,1,1.866.1,2.411,2.411,0,0,1,1.114.682c.515.59.871,1.029,1.953,2.407l2.677,3.562H236.2l-2.242-3.194C232.933,17.358,232.344,16.625,231.846,16.038Zm-2.371-3.8a15.864,15.864,0,0,1-3.331.2H223.4V8.288h2.891q2.254,0,2.7.053a2.367,2.367,0,0,1,1.4.644,1.835,1.835,0,0,1,.5,1.335,1.965,1.965,0,0,1-.376,1.227A2,2,0,0,1,229.475,12.24Z" transform="translate(-168.391 -5.386)" fill="#650a34"/>
    </g>
    <g id="Group_2357" data-name="Group 2357" transform="translate(127.036 6.074)">
      <path id="Path_5142" data-name="Path 5142" d="M544.822,14.608h.728v-3.15h.841v-.582h-2.4v.582h.835Z" transform="translate(-543.987 -10.61)" fill="#650a34"/>
      <path id="Path_5143" data-name="Path 5143" d="M563.167,14.662a1.293,1.293,0,0,0,.916-.324,1.194,1.194,0,0,0,.35-.921v-2.54h-.725v2.54a.755.755,0,0,1-.139.51.514.514,0,0,1-.4.154.5.5,0,0,1-.4-.161.751.751,0,0,1-.141-.5v-2.54H561.9v2.54a1.2,1.2,0,0,0,.35.92A1.292,1.292,0,0,0,563.167,14.662Z" transform="translate(-557.718 -10.61)" fill="#650a34"/>
      <path id="Path_5144" data-name="Path 5144" d="M582.015,13.132h.528a.382.382,0,0,1,.326.154.716.716,0,0,1,.114.433v.254a2.986,2.986,0,0,0,.023.377.421.421,0,0,0,.113.266h.754v-.054a.452.452,0,0,1-.126-.255,1.636,1.636,0,0,1-.036-.329v-.264a1.141,1.141,0,0,0-.127-.564.715.715,0,0,0-.414-.323.916.916,0,0,0,.382-.337.94.94,0,0,0,.131-.5,1.047,1.047,0,0,0-.314-.808,1.224,1.224,0,0,0-.865-.291h-1.217v3.729h.728V13.132Zm0-1.663h.49a.4.4,0,0,1,.336.151.655.655,0,0,1,.115.408.581.581,0,0,1-.115.387.42.42,0,0,1-.338.136h-.487V11.469Z" transform="translate(-572.577 -10.618)" fill="#650a34"/>
      <path id="Path_5145" data-name="Path 5145" d="M601.051,12.227l.015-.005,1.141,2.386h.725V10.877h-.725v2.378l-.015.005-1.141-2.383h-.73v3.731h.73Z" transform="translate(-587.165 -10.61)" fill="#650a34"/>
      <rect id="Rectangle_719" data-name="Rectangle 719" width="0.725" height="3.731" transform="translate(17.844 0.267)" fill="#650a34"/>
      <path id="Path_5146" data-name="Path 5146" d="M633.117,12.227l.016-.005,1.14,2.386H635V10.877h-.725v2.378l-.015.005-1.141-2.383h-.73v3.731h.73Z" transform="translate(-611.743 -10.61)" fill="#650a34"/>
      <path id="Path_5147" data-name="Path 5147" d="M652.354,10.227V9.735h-.6v.492l-.126.882h.351Z" transform="translate(-626.492 -9.735)" fill="#650a34"/>
      <path id="Path_5148" data-name="Path 5148" d="M547.305,36a1.015,1.015,0,0,0-.141-.541.661.661,0,0,0-.436-.3.727.727,0,0,0,.354-.309.937.937,0,0,0,.118-.473.915.915,0,0,0-.324-.764,1.419,1.419,0,0,0-.9-.256h-1.1v3.732h1.245a1.265,1.265,0,0,0,.878-.277A1.04,1.04,0,0,0,547.305,36Zm-1.7-2.061h.369a.507.507,0,0,1,.372.122.521.521,0,0,1,.123.384.5.5,0,0,1-.119.358.468.468,0,0,1-.342.13h-.4v-.994Zm.86,2.44a.437.437,0,0,1-.345.128h-.515V35.439h.564a.351.351,0,0,1,.313.143.73.73,0,0,1,.1.41A.559.559,0,0,1,546.466,36.374Z" transform="translate(-544.668 -27.838)" fill="#650a34"/>
      <path id="Path_5149" data-name="Path 5149" d="M564.814,35.447h1.253v-.582h-1.253v-.93h1.468v-.581h-2.2v3.731h2.2V36.5h-1.474Z" transform="translate(-559.391 -27.838)" fill="#650a34"/>
      <path id="Path_5150" data-name="Path 5150" d="M581.909,33.353l-1.051,3.732h.735l.2-.8h.984l.2.8h.735l-1.048-3.732Zm.033,2.353.336-1.32h.015l.336,1.32Z" transform="translate(-572.248 -27.838)" fill="#650a34"/>
      <path id="Path_5151" data-name="Path 5151" d="M602.522,35.893a.755.755,0,0,1-.138.51.513.513,0,0,1-.4.154.5.5,0,0,1-.4-.161.751.751,0,0,1-.141-.5v-2.54h-.728v2.54a1.194,1.194,0,0,0,.35.92,1.453,1.453,0,0,0,1.832,0,1.193,1.193,0,0,0,.35-.921v-2.54h-.725v2.54Z" transform="translate(-587.467 -27.838)" fill="#650a34"/>
      <path id="Path_5152" data-name="Path 5152" d="M619.65,33.934h.836v3.15h.728v-3.15h.841v-.581h-2.4Z" transform="translate(-601.981 -27.838)" fill="#650a34"/>
      <path id="Path_5153" data-name="Path 5153" d="M639.285,33.353l-.623,1.6h-.015l-.615-1.6h-.8l1.048,2.358v1.374h.728V35.757l1.066-2.4Z" transform="translate(-615.459 -27.838)" fill="#650a34"/>
      <rect id="Rectangle_720" data-name="Rectangle 720" width="0.725" height="3.732" transform="translate(0.246 10.764)" fill="#650a34"/>
      <path id="Path_5154" data-name="Path 5154" d="M554.869,58.205l-.015.005-1.141-2.384h-.731v3.732h.731V57.178l.015-.005,1.141,2.386h.726V55.827h-.726Z" transform="translate(-550.882 -45.063)" fill="#650a34"/>
      <path id="Path_5155" data-name="Path 5155" d="M576.044,55.827l-1.051,3.732h.736l.2-.8h.984l.2.8h.735L576.8,55.827Zm.033,2.353.336-1.32h.015l.336,1.32Z" transform="translate(-567.752 -45.063)" fill="#650a34"/>
      <path id="Path_5156" data-name="Path 5156" d="M598.35,56.372a.427.427,0,0,1,.377-.192.46.46,0,0,1,.4.162.872.872,0,0,1,.1.53h.7l.008-.015a1.346,1.346,0,0,0-.314-.94,1.186,1.186,0,0,0-.9-.318,1.169,1.169,0,0,0-.9.358,1.418,1.418,0,0,0-.335,1.006v1.115a1.382,1.382,0,0,0,.346,1.006,1.232,1.232,0,0,0,.925.355,1.153,1.153,0,0,0,.877-.312,1.282,1.282,0,0,0,.292-.928l-.008-.015h-.7a.911.911,0,0,1-.091.521.413.413,0,0,1-.368.152.473.473,0,0,1-.409-.192,1,1,0,0,1-.14-.588V56.954A1.048,1.048,0,0,1,598.35,56.372Z" transform="translate(-585 -44.888)" fill="#650a34"/>
      <path id="Path_5157" data-name="Path 5157" d="M612.811,55.827h-.73v3.732h2.094v-.581h-1.363Z" transform="translate(-596.179 -45.063)" fill="#650a34"/>
      <rect id="Rectangle_721" data-name="Rectangle 721" width="0.725" height="3.732" transform="translate(18.922 10.764)" fill="#650a34"/>
      <path id="Path_5158" data-name="Path 5158" d="M633.418,56.372a.427.427,0,0,1,.377-.192.46.46,0,0,1,.4.162.868.868,0,0,1,.1.53h.7l.008-.015a1.347,1.347,0,0,0-.314-.94,1.186,1.186,0,0,0-.9-.318,1.169,1.169,0,0,0-.9.358,1.417,1.417,0,0,0-.334,1.006v1.115a1.383,1.383,0,0,0,.346,1.006,1.232,1.232,0,0,0,.925.355,1.153,1.153,0,0,0,.876-.312A1.282,1.282,0,0,0,635,58.2L635,58.182h-.7a.908.908,0,0,1-.091.521.413.413,0,0,1-.368.152.474.474,0,0,1-.409-.192,1,1,0,0,1-.14-.588V56.954A1.049,1.049,0,0,1,633.418,56.372Z" transform="translate(-611.879 -44.888)" fill="#650a34"/>
      <path id="Path_5159" data-name="Path 5159" d="M648.719,57.532l1.018-1.7h-.894l-.728,1.517h-.236V55.827h-.73v3.732h.73v-1.55h.318l.738,1.55h.887Z" transform="translate(-623.057 -45.063)" fill="#650a34"/>
    </g>
  </g>
</svg>
