<svg xmlns="http://www.w3.org/2000/svg" width="34.199" height="34.2" viewBox="0 0 34.199 34.2">
  <g id="Group_180" data-name="Group 180" transform="translate(-286.701 -6274.5)">
    <g id="Group_179" data-name="Group 179" transform="translate(-16.7 2836)">
      <path id="Path_447" data-name="Path 447" d="M17.6,2A15.6,15.6,0,1,1,2,17.6,15.6,15.6,0,0,1,17.6,2Z" transform="translate(302.9 3438)" fill="none" stroke="#fff" stroke-width="3"/>
    </g>
    <path id="Path_448" data-name="Path 448" d="M7.977-24.92,7.28-9.776H4.917L4.251-24.92ZM8.067-5.233a1.9,1.9,0,0,1-.575,1.393A1.9,1.9,0,0,1,6.1-3.264a1.913,1.913,0,0,1-1.378-.575A1.84,1.84,0,0,1,4.13-5.2,1.873,1.873,0,0,1,4.721-6.6,1.913,1.913,0,0,1,6.1-7.171,1.913,1.913,0,0,1,7.477-6.6,1.84,1.84,0,0,1,8.067-5.233Z" transform="translate(297.866 6305.264)" fill="#fff" stroke="rgba(0,0,0,0)" stroke-width="1"/>
  </g>
</svg>
