<svg width="30" height="27" viewBox="0 0 30 27" fill="none" xmlns="http://www.w3.org/2000/svg">
<path d="M28.7478 16.2517C27.1279 14.8766 25.1381 15.4131 24.1432 16.158L20.997 18.528H20.8251C20.8147 16.5486 19.2364 14.9964 17.2206 14.9964H9.71978C8.24046 14.9964 6.78718 15.486 5.63081 16.3663L4.15669 17.5019H0.833422C0.37504 17.5019 0 17.8769 0 18.3353V19.1687C0 19.6271 0.37504 20.0021 0.833422 20.0021H5.00053L7.1518 18.3613C7.88105 17.804 8.78739 17.5019 9.72499 17.5019H17.2258C18.6791 17.5019 18.7416 19.5958 17.1685 19.5958H14.0536C13.6577 19.5958 13.3347 19.9188 13.3347 20.3147V20.3199C13.3347 20.7157 13.6577 21.0387 14.0536 21.0387H21.0595C21.5648 21.0387 22.0596 20.872 22.4607 20.5699L25.6538 18.1686C26.0861 17.8456 26.7216 17.8196 27.1331 18.1686C27.6592 18.6114 27.6175 19.3718 27.0862 19.7677L21.8461 23.7004C21.4398 24.0025 20.9501 24.1692 20.4449 24.1692H0.833422C0.37504 24.1692 0 24.5443 0 25.0027V25.8361C0 26.2945 0.37504 26.6695 0.833422 26.6695H20.4605C21.4971 26.6695 22.5076 26.3309 23.3358 25.7059L28.5864 21.7523C29.451 21.1012 29.9667 20.1115 29.998 19.0437C30.0344 17.9759 29.5761 16.9549 28.7478 16.2517ZM13.4181 7.51642L16.0277 8.26129C16.2153 8.31338 16.3455 8.49048 16.3455 8.68321C16.3455 8.92282 16.1475 9.12076 15.9079 9.12076H14.1994C14.0119 9.12076 13.8296 9.07909 13.6629 9.00616C13.4129 8.89157 13.1212 8.91761 12.9285 9.11034L12.0169 10.0219C11.7408 10.298 11.7721 10.7668 12.095 10.9803C12.5899 11.3085 13.1576 11.5064 13.7515 11.5794V12.5013C13.7515 12.9597 14.1265 13.3347 14.5849 13.3347H15.4183C15.8767 13.3347 16.2517 12.9597 16.2517 12.5013V11.5846C17.83 11.397 19.0333 9.96981 18.8197 8.30296C18.6686 7.10492 17.7415 6.15169 16.5851 5.81833L13.9754 5.07346C13.7879 5.02137 13.6577 4.84426 13.6577 4.65154C13.6577 4.41193 13.8556 4.21399 14.0952 4.21399H15.8038C15.9913 4.21399 16.1736 4.25566 16.3403 4.32858C16.5903 4.44318 16.882 4.41714 17.0747 4.22441L17.9863 3.31285C18.2624 3.03678 18.2311 2.56798 17.9082 2.35442C17.4133 2.02626 16.8455 1.82832 16.2517 1.75539V0.833422C16.2517 0.37504 15.8767 0 15.4183 0H14.5849C14.1265 0 13.7515 0.37504 13.7515 0.833422V1.75019C12.1732 1.93771 10.9699 3.36494 11.1835 5.03178C11.3345 6.22983 12.2565 7.18305 13.4181 7.51642Z" fill="#3E980E"/>
</svg>
