<svg width="30" height="18" viewBox="0 0 30 18" fill="none" xmlns="http://www.w3.org/2000/svg">
<path d="M7.875 11.25C10.1494 11.25 12 9.39937 12 7.125C12 4.85063 10.1494 3 7.875 3C5.60063 3 3.75 4.85063 3.75 7.125C3.75 9.39937 5.60063 11.25 7.875 11.25ZM7.875 5.25C8.90906 5.25 9.75 6.09094 9.75 7.125C9.75 8.15906 8.90906 9 7.875 9C6.84094 9 6 8.15906 6 7.125C6 6.09094 6.84094 5.25 7.875 5.25ZM24.75 3H14.25C13.8356 3 13.5 3.33562 13.5 3.75V12.75H2.25V0.75C2.25 0.335625 1.91438 0 1.5 0H0.75C0.335625 0 0 0.335625 0 0.75V17.25C0 17.6644 0.335625 18 0.75 18H1.5C1.91438 18 2.25 17.6644 2.25 17.25V15H27.75V17.25C27.75 17.6644 28.0856 18 28.5 18H29.25C29.6644 18 30 17.6644 30 17.25V8.25C30 5.35031 27.6497 3 24.75 3ZM27.75 12.75H15.75V5.25H24.75C26.4042 5.25 27.75 6.59578 27.75 8.25V12.75Z" fill="#3E980E"/>
</svg>
