<svg width="26" height="26" viewBox="0 0 26 26" fill="none" xmlns="http://www.w3.org/2000/svg">
<g clip-path="url(#clip0)">
<path d="M5.95489 5.15588C9.79348 1.68362 15.5381 1.63053 19.4298 4.80016L16.3451 4.91696C15.9469 4.93289 15.639 5.26206 15.6549 5.66026C15.6708 6.04783 15.9894 6.35046 16.3716 6.35046C16.3823 6.35046 16.3876 6.35046 16.3982 6.35046L21.1341 6.17525C21.5216 6.15933 21.8243 5.84608 21.8243 5.4585V5.40541C21.8243 5.39479 21.8243 5.38948 21.8243 5.37887V5.37356L21.649 0.690794C21.6331 0.2926 21.2986 -0.0153367 20.9058 0.00059102C20.5076 0.0165188 20.1996 0.345693 20.2155 0.743887L20.327 3.6799C18.3998 2.10306 16.0265 1.18986 13.4887 1.06244C10.3456 0.903164 7.32468 1.98094 4.99392 4.09403C1.78713 6.99819 0.427959 11.4155 1.44734 15.6204C1.52697 15.9496 1.81898 16.1673 2.14285 16.1673C2.20125 16.1673 2.25434 16.162 2.31274 16.146C2.69501 16.0505 2.93393 15.6629 2.83836 15.2806C1.94641 11.5854 3.13568 7.70432 5.95489 5.15588Z" fill="#3E980E"/>
<path d="M24.5536 10.3802C24.4581 9.99792 24.0705 9.759 23.6882 9.85457C23.3059 9.95014 23.067 10.3377 23.1626 10.72C24.0599 14.4152 22.8653 18.2963 20.0461 20.8447C18.0657 22.6339 15.581 23.5153 13.1069 23.5153C10.7442 23.5153 8.38694 22.7136 6.48623 21.1314L9.60807 20.85C10.001 20.8128 10.293 20.4677 10.2558 20.0696C10.2186 19.6714 9.87353 19.3847 9.47534 19.4218L4.75541 19.8466C4.36253 19.8837 4.07052 20.2288 4.10768 20.627L4.53242 25.3469C4.56428 25.7186 4.87752 26 5.24386 26C5.2651 26 5.28634 26 5.30757 25.9947C5.70046 25.9575 5.99247 25.6124 5.9553 25.2142L5.70046 22.3419C7.62772 23.9028 9.99033 24.8107 12.5122 24.9381C12.714 24.9488 12.9157 24.9541 13.1122 24.9541C16.0376 24.9541 18.8196 23.8816 21.007 21.9066C24.2138 19.0024 25.573 14.5904 24.5536 10.3802Z" fill="#3E980E"/>
</g>
<defs>
<clipPath id="clip0">
<rect width="26" height="26" fill="white"/>
</clipPath>
</defs>
</svg>
