<svg xmlns="http://www.w3.org/2000/svg" width="32.07" height="29.9" viewBox="0 0 32.07 29.9"><defs><style>.cls-1{isolation:isolate;}.cls-2{fill:#22ace7;}</style></defs><title>Ресурс 14</title><g id="Слой_2" data-name="Слой 2"><g id="Shape_546" data-name="Shape 546" class="cls-1"><g id="Shape_546-2" data-name="Shape 546"><path class="cls-2" d="M23,0H20.45a1.57,1.57,0,0,0-1.58,1.64v8H8L6.9,5.4A2.49,2.49,0,0,0,4.57,3.61H1.29a1.29,1.29,0,0,0,0,2.58H4.44L6,11.86a1.07,1.07,0,0,0,.07.19,10,10,0,0,0,9.75,8h1.46v4.38h-.89a4.23,4.23,0,1,0,0,2.58H20.6a4.22,4.22,0,1,0,0-2.58h-.78V20H22a10,10,0,0,0,9.9-8.94,8.91,8.91,0,0,0,.22-2A9.06,9.06,0,0,0,23,0ZM12.33,27.33A1.65,1.65,0,1,1,14,25.68,1.65,1.65,0,0,1,12.33,27.33ZM24.6,24A1.65,1.65,0,1,1,23,25.68,1.64,1.64,0,0,1,24.6,24Z"/></g></g></g></svg>