<svg xmlns="http://www.w3.org/2000/svg" width="29.13" height="29.53" viewBox="0 0 29.13 29.53"><defs><style>.cls-1{isolation:isolate;}.cls-2{fill:#22ace7;}</style></defs><title>Ресурс 1</title><g id="Слой_2" data-name="Слой 2"><g id="Shape_557" data-name="Shape 557" class="cls-1"><g id="Shape_557-2" data-name="Shape 557"><path class="cls-2" d="M13.66,8.55c-.49,0-1.52,0-1.84.06V14c.28,0,1.21,0,1.58,0,2.32,0,3.49-1,3.49-2.88C16.89,9.42,15.81,8.55,13.66,8.55ZM25.8,0H3.32A3.35,3.35,0,0,0,0,3.37V26.16a3.35,3.35,0,0,0,3.32,3.37H25.8a3.35,3.35,0,0,0,3.33-3.37V3.37A3.35,3.35,0,0,0,25.8,0ZM19.34,15.44a8,8,0,0,1-6,2.22c-.29,0-1.22,0-1.53,0V23a1.64,1.64,0,0,1-1.63,1.65H9.81A1.64,1.64,0,0,1,8.18,23V6.76A1.64,1.64,0,0,1,9.62,5.12c1.1-.13,2.85-.2,4-.2a8,8,0,0,1,5.51,1.7A5.74,5.74,0,0,1,21,11,6.17,6.17,0,0,1,19.34,15.44Z"/></g></g></g></svg>