<svg xmlns="http://www.w3.org/2000/svg" width="18.29" height="29.72" viewBox="0 0 18.29 29.72"><defs><style>.cls-1{isolation:isolate;}.cls-2{fill:#22ace7;}</style></defs><title>Ресурс 11</title><g id="Слой_2" data-name="Слой 2"><g id="Shape_545" data-name="Shape 545" class="cls-1"><g id="Shape_545-2" data-name="Shape 545"><path class="cls-2" d="M10.13,26V15.82A9.17,9.17,0,0,0,18.29,6.7,17,17,0,0,0,17,.73,1.15,1.15,0,0,0,15.9,0H2.38A1.15,1.15,0,0,0,1.3.73,16.69,16.69,0,0,0,0,6.88H0a9.16,9.16,0,0,0,8.15,8.94V26c-3.1.25-5.49,1.64-5.49,2.34s2.9,1.39,6.48,1.39,6.48-.62,6.48-1.39S13.24,26.24,10.13,26ZM4.39,4.33a5.77,5.77,0,0,0-2.27.78A16.14,16.14,0,0,1,2.94,2H15.35a14.81,14.81,0,0,1,1,4.72,7.3,7.3,0,0,1-.07.94,3.35,3.35,0,0,0-1.95.07c-1.79.64-3,1-4.78.34S6.56,4.09,4.39,4.33Z"/></g></g></g></svg>