<svg xmlns="http://www.w3.org/2000/svg" width="30.92" height="28.18" viewBox="0 0 30.92 28.18"><defs><style>.cls-1{isolation:isolate;}.cls-2{fill:#24abea;}</style></defs><title>Ресурс 2</title><g id="Слой_2" data-name="Слой 2"><g id="Forma_1_копия_17_copy_4" data-name="Forma 1 копия 17 copy 4" class="cls-1"><g id="Forma_1_копия_17_copy_4-2" data-name="Forma 1 копия 17 copy 4"><path class="cls-2" d="M15.46,1c4,0,7.21,2.91,7.21,6.49a6.23,6.23,0,0,1-2.86,5.16l-1.74,1.19,2,.6.57.18c.08,0,.1.07.1.09s-.09.09-.2.09h-.1A15.38,15.38,0,0,0,15.79,14h-.66c-6.57.14-12.32,4.51-13.66,10.41A2.06,2.06,0,0,0,2,26.23,2.27,2.27,0,0,0,3.66,27H7.94c.14,0,.21.08.21.1s-.07.1-.21.1H3.66a2.78,2.78,0,0,1-2.09-.89,2.17,2.17,0,0,1-.52-1.92,13.23,13.23,0,0,1,5-7.55,14.88,14.88,0,0,1,4.74-2.38l2-.6-1.73-1.18A6.26,6.26,0,0,1,8.25,7.49C8.25,3.91,11.48,1,15.46,1m-.3,12.76h.62a6.52,6.52,0,0,0,6.48-6.27,6.57,6.57,0,0,0-6.8-6.29,6.57,6.57,0,0,0-6.8,6.29,6.51,6.51,0,0,0,6.47,6.27h0M27,18.23a2.28,2.28,0,0,1,2.08,1.18,7.81,7.81,0,0,1,.82,3.26A8,8,0,0,1,29.11,26,2.27,2.27,0,0,1,27,27.18H23.22a2.26,2.26,0,0,1-2.1-1.26,7.13,7.13,0,0,1-.43-1.26s0-.07.14-.09h.07a.21.21,0,0,1,.2.1,9.55,9.55,0,0,0,.43,1.25A1.86,1.86,0,0,0,23.22,27H27a1.84,1.84,0,0,0,1.66-1,7.68,7.68,0,0,0,.8-3.29,7.53,7.53,0,0,0-.81-3.24,1.84,1.84,0,0,0-1.67-1H23.25a1.8,1.8,0,0,0-1.69,1.06,11.3,11.3,0,0,0-.44,1.26.23.23,0,0,1-.21.1h-8.7l-.29.27L11,22l-.78.73.78.73.93.86.29.27h3.81c.14,0,.21.08.21.1s-.07.1-.21.1H12.14A.26.26,0,0,1,12,24.7l-2.12-2-.68.73.68-.81,2.08-1.95a.32.32,0,0,1,.18-.06h8.6l.24-.65c.08-.21.15-.38.21-.52a2.21,2.21,0,0,1,2.1-1.25H27m-1,4.35c.14,0,.2.08.2.1s-.06.1-.2.1-.21-.08-.21-.1.07-.1.21-.1M15.46,0C10.93,0,7.25,3.36,7.25,7.49a7.26,7.26,0,0,0,3.3,6A16.21,16.21,0,0,0,5.48,16a14.19,14.19,0,0,0-5.4,8.13A3.11,3.11,0,0,0,.82,27a3.81,3.81,0,0,0,2.84,1.23H7.94a1.11,1.11,0,1,0,0-2.2H3.66a1.25,1.25,0,0,1-1-.42,1.07,1.07,0,0,1-.26-1C3.7,19.11,9,15.1,15.15,15h.62a14.21,14.21,0,0,1,4.36.76,1.29,1.29,0,0,0,.43.07,1.21,1.21,0,0,0,1.13-.71A1.08,1.08,0,0,0,21,13.67l-.6-.19a7.29,7.29,0,0,0,3.29-6C23.67,3.36,20,0,15.46,0Zm-.28,12.76A5.53,5.53,0,0,1,9.66,7.49a5.57,5.57,0,0,1,5.8-5.29,5.57,5.57,0,0,1,5.8,5.29,5.53,5.53,0,0,1-5.52,5.27h-.56ZM27,17.23H23.25a3.21,3.21,0,0,0-3,1.86c-.07.15-.14.34-.22.56H12.1a1.29,1.29,0,0,0-.87.33L9.16,21.93a1,1,0,0,0,0,1.54l2.12,2a1.24,1.24,0,0,0,.86.33h3.92a1.11,1.11,0,1,0,0-2.2H12.64l-.93-.86.9-.85h8.3A1.2,1.2,0,0,0,22.09,21a8.49,8.49,0,0,1,.39-1.13.8.8,0,0,1,.77-.45H27a.84.84,0,0,1,.77.44,6.59,6.59,0,0,1,.71,2.8,6.63,6.63,0,0,1-.71,2.86A.82.82,0,0,1,27,26H23.22a.87.87,0,0,1-.78-.49,6.91,6.91,0,0,1-.37-1.09,1.19,1.19,0,0,0-1.17-.84,1.43,1.43,0,0,0-.29,0,1.09,1.09,0,0,0-.89,1.33,8.91,8.91,0,0,0,.49,1.41,3.28,3.28,0,0,0,3,1.85H27a3.26,3.26,0,0,0,3-1.77,8.84,8.84,0,0,0,.91-3.74A8.74,8.74,0,0,0,30,19a3.26,3.26,0,0,0-3-1.74Zm-1,4.35a1.1,1.1,0,1,0,1.2,1.1,1.16,1.16,0,0,0-1.2-1.1Z"/></g></g></g></svg>