<svg xmlns="http://www.w3.org/2000/svg" viewBox="0 0 47.69 48.15"><defs><style>.cls-1{isolation:isolate;}.cls-2{fill:#3f73b5;}</style></defs><title>Ресурс 6</title><g id="Слой_2" data-name="Слой 2"><g id="Shape_601" data-name="Shape 601" class="cls-1"><g id="Shape_601-2" data-name="Shape 601"><path class="cls-2" d="M40.7,7.07A23.66,23.66,0,0,0,7,7.05,24.24,24.24,0,0,0,7,41.11a23.58,23.58,0,0,0,16.85,7,23.83,23.83,0,0,0,22-14.85A24.23,24.23,0,0,0,40.7,7.07ZM46,23.24H40.31a16.7,16.7,0,0,0-4.24-10.3l4-4.06A22.42,22.42,0,0,1,46,23.24ZM24.69,1.73a21.91,21.91,0,0,1,14.21,6l-4,4.05a16.32,16.32,0,0,0-10.2-4.27ZM23,1.73V7.47a16.32,16.32,0,0,0-10.14,4.22l-4-4A21.93,21.93,0,0,1,23,1.73ZM7.66,8.83l4,4.06A16.65,16.65,0,0,0,7.4,23.24H1.71A22.42,22.42,0,0,1,7.66,8.83ZM1.71,24.93H7.4a16.61,16.61,0,0,0,4.23,10.3l-4,4.06A22.42,22.42,0,0,1,1.71,24.93ZM23,46.44a21.94,21.94,0,0,1-14.21-6l4-4A16.29,16.29,0,0,0,23,40.7Zm-14-22.35A14.9,14.9,0,0,1,23.85,9.14h0a14.95,14.95,0,1,1-14.8,15ZM24.69,46.44V40.7a16.32,16.32,0,0,0,10.25-4.32l4,4.06A21.94,21.94,0,0,1,24.69,46.44Zm15.45-7.21-4-4a16.67,16.67,0,0,0,4.19-10.25H46A22.39,22.39,0,0,1,40.14,39.23ZM23.84,15.36l-.05.06-5.66,5.72,1.18,1.2L23,18.61V32.79h1.68V18.61l3.69,3.73,1.19-1.2-5.67-5.72Z"/></g></g></g></svg>