<svg xmlns="http://www.w3.org/2000/svg" width="13.656" height="14" viewBox="0 0 13.656 14">
  <metadata><?xpacket begin="﻿" id="W5M0MpCehiHzreSzNTczkc9d"?>
<x:xmpmeta xmlns:x="adobe:ns:meta/" x:xmptk="Adobe XMP Core 5.6-c138 79.159824, 2016/09/14-01:09:01        ">
   <rdf:RDF xmlns:rdf="http://www.w3.org/1999/02/22-rdf-syntax-ns#">
      <rdf:Description rdf:about=""/>
   </rdf:RDF>
</x:xmpmeta>
                                                                                                    
                                                                                                    
                                                                                                    
                                                                                                    
                                                                                                    
                                                                                                    
                                                                                                    
                                                                                                    
                                                                                                    
                                                                                                    
                                                                                                    
                                                                                                    
                                                                                                    
                                                                                                    
                                                                                                    
                                                                                                    
                                                                                                    
                                                                                                    
                                                                                                    
                                                                                                    
                           
<?xpacket end="w"?></metadata>
<defs>
    <style>
      .cls-1 {
        fill: #2862ac;
        fill-rule: evenodd;
      }
    </style>
  </defs>
  <path class="cls-1" d="M170.081,965.825a2.585,2.585,0,0,0-3.764-.018,2.833,2.833,0,0,0-.763,1.662H157.49a0.277,0.277,0,0,0-.277.285,0.237,0.237,0,0,0,.086.2l2.671,2.894,2.6,2.84,0.018,4.752h-1.613a0.286,0.286,0,0,0,0,.571h3.729a0.286,0.286,0,0,0,0-.571h-1.6l-0.017-4.752,2.6-2.822,0.867-.929a2.5,2.5,0,0,0,1.63.589,2.61,2.61,0,0,0,1.891-.8,2.82,2.82,0,0,0,0-3.894h0Zm-4.752,4.662-2.48,2.7-2.5-2.7-0.33-.357a11.233,11.233,0,0,0,2.9-.143,9.521,9.521,0,0,1,2.931-.089Zm0.971-1.071a9.738,9.738,0,0,0-3.451.017,8.965,8.965,0,0,1-3.451.018l-1.3-1.411h9.486Zm3.416-.09a2.1,2.1,0,0,1-1.509.643,2.055,2.055,0,0,1-.8-0.16,2.473,2.473,0,0,1-.468-0.268l1.456-1.572a0.273,0.273,0,0,0-.017-0.394,0.258,0.258,0,0,0-.191-0.071h-2.1a2.369,2.369,0,0,1,.589-1.286,2.092,2.092,0,0,1,3.018,0,2.27,2.27,0,0,1,.017,3.108h0Zm0,0" transform="translate(-157.219 -965)"/>
</svg>
