<svg xmlns="http://www.w3.org/2000/svg" width="10.219" height="14.906" viewBox="0 0 10.219 14.906">
  <metadata><?xpacket begin="﻿" id="W5M0MpCehiHzreSzNTczkc9d"?>
<x:xmpmeta xmlns:x="adobe:ns:meta/" x:xmptk="Adobe XMP Core 5.6-c138 79.159824, 2016/09/14-01:09:01        ">
   <rdf:RDF xmlns:rdf="http://www.w3.org/1999/02/22-rdf-syntax-ns#">
      <rdf:Description rdf:about=""/>
   </rdf:RDF>
</x:xmpmeta>
                                                                                                    
                                                                                                    
                                                                                                    
                                                                                                    
                                                                                                    
                                                                                                    
                                                                                                    
                                                                                                    
                                                                                                    
                                                                                                    
                                                                                                    
                                                                                                    
                                                                                                    
                                                                                                    
                                                                                                    
                                                                                                    
                                                                                                    
                                                                                                    
                                                                                                    
                                                                                                    
                           
<?xpacket end="w"?></metadata>
<defs>
    <style>
      .cls-1 {
        fill: #2862ac;
        fill-rule: evenodd;
      }
    </style>
  </defs>
  <path class="cls-1" d="M291.183,965.943a0.239,0.239,0,0,0-.255-0.225,0.242,0.242,0,0,0-.218.262,3.923,3.923,0,0,1-.651,2.577,3.824,3.824,0,0,1-2.007,1.349,5.5,5.5,0,0,1-1.971.291,0.951,0.951,0,0,0,.083-0.388,0.922,0.922,0,0,0-.675-0.9v-0.319h1.268a0.886,0.886,0,0,0,.871-0.9v-0.261a0.24,0.24,0,0,0-.237-0.244h-1.156l0.475-1.58a0.478,0.478,0,0,0-.069-0.418,0.447,0.447,0,0,0-.367-0.191h-1.261a0.245,0.245,0,0,0,0,.489h1.235l-0.511,1.7h-0.979l-0.7-2.027a0.236,0.236,0,0,0-.3-0.148,0.246,0.246,0,0,0-.144.312l0.643,1.862H283.13a0.241,0.241,0,0,0-.237.245V967.7a0.885,0.885,0,0,0,.871.9h1.249v0.327a0.936,0.936,0,0,0-.625,1.087,2.66,2.66,0,0,0-2.441.441,2.2,2.2,0,0,0-.677,1.367,2.088,2.088,0,0,0,.8,1.79,1.772,1.772,0,0,0,1.018.312,1.988,1.988,0,0,0,.319-0.026,0.9,0.9,0,0,0,.387.483,2.959,2.959,0,0,0-1.475,2.575,3.01,3.01,0,0,0,.422,1.54h-0.668a1.131,1.131,0,0,0-1.112,1.146v0.012a0.241,0.241,0,0,0,.237.245h8.123a0.241,0.241,0,0,0,.237-0.245v-0.012a1.131,1.131,0,0,0-1.112-1.146h-5.125a2.5,2.5,0,0,1-.527-1.54,2.383,2.383,0,1,1,4.764,0,2.519,2.519,0,0,1-.114.754,0.246,0.246,0,0,0,.153.308,0.237,0.237,0,0,0,.3-0.158,3.029,3.029,0,0,0,.137-0.9,2.964,2.964,0,0,0-1.4-2.529,0.907,0.907,0,0,0-.094-1.681,1.344,1.344,0,0,0-.627-0.948,0.942,0.942,0,0,0,.1-1.108,6.021,6.021,0,0,0,2.188-.312,4.31,4.31,0,0,0,2.238-1.523,4.48,4.48,0,0,0,.743-2.9h0Zm-7.974,13.036h5.238a0.638,0.638,0,0,1,.6.424h-7.565a0.638,0.638,0,0,1,.6-0.424h1.135Zm0.555-10.876a0.4,0.4,0,0,1-.4-0.408v-0.016h3.785V967.7a0.4,0.4,0,0,1-.4.408h-2.993Zm1.442,1.274a0.228,0.228,0,0,0,.045,0,0.26,0.26,0,0,0,.056-0.006,0.431,0.431,0,0,1,.382.434,0.442,0.442,0,0,1-.173.351c-0.2-.02-0.388-0.045-0.575-0.071a0.442,0.442,0,0,1-.1-0.28,0.433,0.433,0,0,1,.364-0.432h0Zm0.045,1.357a0.437,0.437,0,1,1-.423.437,0.431,0.431,0,0,1,.423-0.437h0Zm-1.869,2.665a1.389,1.389,0,0,1-1.046-.2,1.6,1.6,0,0,1-.593-1.342,1.7,1.7,0,0,1,.527-1.048c0.565-.539,1.286-0.431,2.283-0.282l0.047,0.007a0.943,0.943,0,0,0-.008,1.266,1.34,1.34,0,0,0-.615.94,0.889,0.889,0,0,0-.595.66h0Zm2.908-.209a0.408,0.408,0,0,1,0,.815h-2.059a0.408,0.408,0,0,1,0-.815h2.059Zm-0.241-.49h-1.577a0.817,0.817,0,0,1,1.577,0h0Zm0,0" transform="translate(-280.969 -965)"/>
</svg>
