<svg xmlns="http://www.w3.org/2000/svg" viewBox="0 0 71.53 50.56"><defs><style>.cls-1{isolation:isolate;}.cls-2{fill:#3f73b5;}</style></defs><title>Ресурс 9</title><g id="Слой_2" data-name="Слой 2"><g id="Shape_1302" data-name="Shape 1302" class="cls-1"><g id="Shape_1302-2" data-name="Shape 1302"><path class="cls-2" d="M31.86,0H2.64A2.68,2.68,0,0,0,0,2.7V47.86a2.68,2.68,0,0,0,2.64,2.7H31.85a2.68,2.68,0,0,0,2.65-2.7V2.7A2.68,2.68,0,0,0,31.86,0Zm1.19,47.86a1.21,1.21,0,0,1-1.19,1.22H2.64a1.21,1.21,0,0,1-1.19-1.22V2.7A1.21,1.21,0,0,1,2.64,1.48H31.86A1.21,1.21,0,0,1,33.05,2.7ZM23.75,19.3a4.84,4.84,0,0,0-3.48-1.47,4.79,4.79,0,0,0-3,1.06,4.79,4.79,0,0,0-3-1.06,4.84,4.84,0,0,0-3.48,1.47,5.1,5.1,0,0,0,0,7.1l6,6.12a.72.72,0,0,0,1,0l6-6.12A5.12,5.12,0,0,0,23.75,19.3Zm-1,6.06L17.25,31l-5.47-5.59a3.61,3.61,0,0,1,0-5,3.41,3.41,0,0,1,4.9,0l.05,0a.74.74,0,0,0,.52.22h0a.7.7,0,0,0,.51-.22l.06,0a3.41,3.41,0,0,1,4.9,0A3.61,3.61,0,0,1,22.72,25.36ZM11.52,5.9A2.76,2.76,0,0,0,10.73,4a2.64,2.64,0,0,0-1.9-.81,2.7,2.7,0,0,0-1.42.41A2.63,2.63,0,0,0,4.1,4a2.78,2.78,0,0,0,0,3.88L6.9,10.7a.71.71,0,0,0,1,0l2.8-2.86A2.76,2.76,0,0,0,11.52,5.9ZM9.7,6.79,7.41,9.13,5.12,6.79a1.27,1.27,0,0,1-.36-.89A1.3,1.3,0,0,1,5.12,5,1.27,1.27,0,0,1,6,4.64,1.23,1.23,0,0,1,6.87,5l0,0a.7.7,0,0,0,.51.22h0A.73.73,0,0,0,7.93,5L8,5a1.27,1.27,0,0,1,.88-.36A1.23,1.23,0,0,1,9.7,5a1.25,1.25,0,0,1,.36.9A1.23,1.23,0,0,1,9.7,6.79ZM28.5,39.64a2.7,2.7,0,0,0-1.42.41,2.63,2.63,0,0,0-3.31.4,2.78,2.78,0,0,0,0,3.88l2.8,2.86a.71.71,0,0,0,1,0l2.77-2.83,0,0a2.78,2.78,0,0,0,0-3.88A2.64,2.64,0,0,0,28.5,39.64Zm.87,3.64-2.29,2.34L24.8,43.28a1.24,1.24,0,0,1-.37-.89,1.22,1.22,0,0,1,.37-.89,1.2,1.2,0,0,1,.87-.38,1.23,1.23,0,0,1,.87.37l0,0a.72.72,0,0,0,.51.22h0a.73.73,0,0,0,.52-.22l0,0a1.24,1.24,0,0,1,.88-.38,1.2,1.2,0,0,1,.87.38,1.22,1.22,0,0,1,.37.89A1.24,1.24,0,0,1,29.37,43.28ZM68.89,0H39.67A2.68,2.68,0,0,0,37,2.7V47.86a2.68,2.68,0,0,0,2.64,2.7H68.88a2.68,2.68,0,0,0,2.65-2.7V2.7A2.68,2.68,0,0,0,68.89,0Zm1.19,47.86a1.21,1.21,0,0,1-1.19,1.22H39.67a1.21,1.21,0,0,1-1.19-1.22V2.7a1.21,1.21,0,0,1,1.19-1.22H68.89A1.21,1.21,0,0,1,70.08,2.7ZM60.78,19.3a4.84,4.84,0,0,0-3.48-1.47,4.79,4.79,0,0,0-3,1.06,4.79,4.79,0,0,0-3-1.06,4.84,4.84,0,0,0-3.48,1.47,5.1,5.1,0,0,0,0,7.1l6,6.12a.72.72,0,0,0,1,0l6-6.12A5.12,5.12,0,0,0,60.78,19.3Zm-1,6.06L54.28,31l-5.47-5.59a3.61,3.61,0,0,1,0-5,3.41,3.41,0,0,1,4.9,0l.06,0a.7.7,0,0,0,.51.22h0a.7.7,0,0,0,.51-.22l.06,0a3.41,3.41,0,0,1,4.9,0A3.61,3.61,0,0,1,59.75,25.36ZM48.55,5.9A2.76,2.76,0,0,0,47.76,4a2.64,2.64,0,0,0-1.9-.81,2.7,2.7,0,0,0-1.42.41,2.63,2.63,0,0,0-3.31.4,2.78,2.78,0,0,0,0,3.88l2.8,2.86a.71.71,0,0,0,1,0l2.8-2.86A2.76,2.76,0,0,0,48.55,5.9Zm-1.82.89L44.44,9.13,42.16,6.79a1.24,1.24,0,0,1-.37-.89,1.26,1.26,0,0,1,.37-.9A1.23,1.23,0,0,1,43.9,5l0,0a.72.72,0,0,0,.51.22h0A.73.73,0,0,0,45,5l0,0a1.27,1.27,0,0,1,.88-.36,1.23,1.23,0,0,1,.87.36,1.26,1.26,0,0,1,.37.9A1.24,1.24,0,0,1,46.73,6.79Zm18.8,32.85a2.7,2.7,0,0,0-1.42.41,2.63,2.63,0,0,0-3.31.4,2.78,2.78,0,0,0,0,3.88l2.8,2.86a.71.71,0,0,0,1,0l2.77-2.83,0,0a2.78,2.78,0,0,0,0-3.88A2.64,2.64,0,0,0,65.53,39.64Zm.87,3.64-2.29,2.34-2.28-2.34a1.24,1.24,0,0,1-.37-.89,1.22,1.22,0,0,1,.37-.89,1.2,1.2,0,0,1,.87-.38,1.23,1.23,0,0,1,.87.37l0,0a.72.72,0,0,0,.51.22h0a.73.73,0,0,0,.52-.22l0,0a1.24,1.24,0,0,1,.88-.38,1.2,1.2,0,0,1,.87.38,1.22,1.22,0,0,1,.37.89A1.24,1.24,0,0,1,66.4,43.28Z"/></g></g></g></svg>