<svg xmlns="http://www.w3.org/2000/svg" width="25.875" height="17.875" viewBox="0 0 25.875 17.875">
  <metadata><?xpacket begin="﻿" id="W5M0MpCehiHzreSzNTczkc9d"?>
<x:xmpmeta xmlns:x="adobe:ns:meta/" x:xmptk="Adobe XMP Core 5.6-c138 79.159824, 2016/09/14-01:09:01        ">
   <rdf:RDF xmlns:rdf="http://www.w3.org/1999/02/22-rdf-syntax-ns#">
      <rdf:Description rdf:about=""/>
   </rdf:RDF>
</x:xmpmeta>
                                                                                                    
                                                                                                    
                                                                                                    
                                                                                                    
                                                                                                    
                                                                                                    
                                                                                                    
                                                                                                    
                                                                                                    
                                                                                                    
                                                                                                    
                                                                                                    
                                                                                                    
                                                                                                    
                                                                                                    
                                                                                                    
                                                                                                    
                                                                                                    
                                                                                                    
                                                                                                    
                           
<?xpacket end="w"?></metadata>
<defs>
    <style>
      .cls-1 {
        fill: #32b0eb;
        fill-rule: evenodd;
      }
    </style>
  </defs>
  <path class="cls-1" d="M33.731,485.02a9.29,9.29,0,0,0-3.922,3.792,0.57,0.57,0,0,0,.2.764,0.523,0.523,0,0,0,.27.075,0.533,0.533,0,0,0,.467-0.278,8.212,8.212,0,0,1,3.463-3.349,0.568,0.568,0,0,0,.248-0.747A0.527,0.527,0,0,0,33.731,485.02Zm16.406,7.985H49.032a11.582,11.582,0,0,0-9.809-11.068,1.712,1.712,0,0,0,.137-0.671,1.618,1.618,0,1,0-3.233,0,1.712,1.712,0,0,0,.137.671,11.581,11.581,0,0,0-9.809,11.068H25.35a0.55,0.55,0,0,0-.539.56v0.56a4.349,4.349,0,0,0,.688,2.357,2.132,2.132,0,0,0,1.793,1h20.9a2.134,2.134,0,0,0,1.794-1,4.35,4.35,0,0,0,.688-2.356v-0.56A0.55,0.55,0,0,0,50.137,493.005ZM37.2,481.266a0.539,0.539,0,1,1,.539.56A0.55,0.55,0,0,1,37.2,481.266Zm0.539,1.677a10.416,10.416,0,0,1,10.211,10.062H27.532A10.416,10.416,0,0,1,37.743,482.943ZM49.6,494.125a3.2,3.2,0,0,1-.507,1.736,1.064,1.064,0,0,1-.9.5h-20.9a1.065,1.065,0,0,1-.9-0.5,3.206,3.206,0,0,1-.507-1.736H49.6Z" transform="translate(-24.813 -479.594)"/>
</svg>
