<svg xmlns="http://www.w3.org/2000/svg" viewBox="0 0 71.53 48.16"><defs><style>.cls-1{isolation:isolate;}.cls-2{fill:#3f73b5;}</style></defs><title>Ресурс 11</title><g id="Слой_2" data-name="Слой 2"><g id="Shape_1299" data-name="Shape 1299" class="cls-1"><g id="Shape_1299-2" data-name="Shape 1299"><path class="cls-2" d="M23.41,37.87a13.62,13.62,0,0,0,13.4-13.79,13.62,13.62,0,0,0-13.4-13.8A13.62,13.62,0,0,0,10,24.08a14.05,14.05,0,0,0,3,8.7l1.63-1.36a11.82,11.82,0,0,1-2.54-7.34A11.5,11.5,0,0,1,23.41,12.44,11.49,11.49,0,0,1,34.72,24.08,11.49,11.49,0,0,1,23.41,35.71,11.13,11.13,0,0,1,16,32.84l-1.38,1.63A13.19,13.19,0,0,0,23.41,37.87Zm0-5.87a7.92,7.92,0,0,0,0-15.84A7.92,7.92,0,0,0,23.4,32Zm0-13.68a5.76,5.76,0,1,1-5.6,5.76A5.68,5.68,0,0,1,23.4,18.32ZM64.94,34.78v3.66H46.81v-5h2.61l1.86-2.09V24.15l-1.86-2.1h-2.7A24.28,24.28,0,0,0,40.56,7.7L39,9.17a22.15,22.15,0,0,1,5.69,14.9V46H23.41C11.66,46,2.1,36.16,2.1,24.08S11.66,2.16,23.41,2.16A20.91,20.91,0,0,1,37.59,7.73L39,6.12A23,23,0,0,0,23.4,0C10.5,0,0,10.8,0,24.08S10.5,48.16,23.41,48.16H71.53V34.78ZM46.81,24.21h1.68l.69.77v5.49l-.69.77H46.81ZM64.94,46H46.81V40.6H50v2.7h2.1V40.6h2.73v2.7h2.1V40.6h2.74v2.7h2.1V40.6h3.18Zm4.49,0H67V36.94h2.39ZM41,24.08h-2.1a16.81,16.81,0,0,1-.12,2l2.08.28A19.55,19.55,0,0,0,41,24.08Zm-.56,4.54-2-.54A15.76,15.76,0,0,1,37.8,30l2,.81A18.44,18.44,0,0,0,40.45,28.62Zm-1.66,4.25-1.83-1A15.48,15.48,0,0,1,23.4,40v2.16A17.56,17.56,0,0,0,38.79,32.87Z"/></g></g></g></svg>