<svg xmlns="http://www.w3.org/2000/svg" width="9.938" height="8.718" viewBox="0 0 9.938 8.718">
  <metadata><?xpacket begin="﻿" id="W5M0MpCehiHzreSzNTczkc9d"?>
<x:xmpmeta xmlns:x="adobe:ns:meta/" x:xmptk="Adobe XMP Core 5.6-c138 79.159824, 2016/09/14-01:09:01        ">
   <rdf:RDF xmlns:rdf="http://www.w3.org/1999/02/22-rdf-syntax-ns#">
      <rdf:Description rdf:about=""/>
   </rdf:RDF>
</x:xmpmeta>
                                                                                                    
                                                                                                    
                                                                                                    
                                                                                                    
                                                                                                    
                                                                                                    
                                                                                                    
                                                                                                    
                                                                                                    
                                                                                                    
                                                                                                    
                                                                                                    
                                                                                                    
                                                                                                    
                                                                                                    
                                                                                                    
                                                                                                    
                                                                                                    
                                                                                                    
                                                                                                    
                           
<?xpacket end="w"?></metadata>
<defs>
    <style>
      .cls-1 {
        fill: #22ace7;
        fill-rule: evenodd;
      }
    </style>
  </defs>
  <path id="Forma_1_копия_2_copy_3" data-name="Forma 1 копия 2 copy 3" class="cls-1" d="M310.51,752.9a0.176,0.176,0,0,0-.144-0.112l-3.227-.43-1.443-2.683a0.186,0.186,0,0,0-.319,0l-1.444,2.684-3.226.429a0.178,0.178,0,0,0-.144.112,0.154,0.154,0,0,0,.045.168l2.335,2.089-0.552,2.948a0.161,0.161,0,0,0,.071.161,0.189,0.189,0,0,0,.188.012l2.886-1.393,2.886,1.393a0.2,0.2,0,0,0,.083.019,0.2,0.2,0,0,0,.105-0.031,0.158,0.158,0,0,0,.071-0.161l-0.551-2.948,2.335-2.089A0.155,0.155,0,0,0,310.51,752.9Z" transform="translate(-300.562 -749.594)"/>
</svg>
