<svg xmlns="http://www.w3.org/2000/svg" width="17.031" height="16.88" viewBox="0 0 17.031 16.88">
  <metadata><?xpacket begin="﻿" id="W5M0MpCehiHzreSzNTczkc9d"?>
<x:xmpmeta xmlns:x="adobe:ns:meta/" x:xmptk="Adobe XMP Core 5.6-c138 79.159824, 2016/09/14-01:09:01        ">
   <rdf:RDF xmlns:rdf="http://www.w3.org/1999/02/22-rdf-syntax-ns#">
      <rdf:Description rdf:about=""/>
   </rdf:RDF>
</x:xmpmeta>
                                                                                                    
                                                                                                    
                                                                                                    
                                                                                                    
                                                                                                    
                                                                                                    
                                                                                                    
                                                                                                    
                                                                                                    
                                                                                                    
                                                                                                    
                                                                                                    
                                                                                                    
                                                                                                    
                                                                                                    
                                                                                                    
                                                                                                    
                                                                                                    
                                                                                                    
                                                                                                    
                           
<?xpacket end="w"?></metadata>
<defs>
    <style>
      .cls-1 {
        fill: #24abea;
        fill-rule: evenodd;
      }
    </style>
  </defs>
  <path class="cls-1" d="M32.912,1138.7a8.526,8.526,0,0,0,7.876-5.22,8.4,8.4,0,0,0-1.848-9.21,8.577,8.577,0,0,0-12.062,0,8.453,8.453,0,0,0,6.034,14.43h0Zm-5.886-8.15a5.772,5.772,0,0,0,1.513,3.61l-1.436,1.43a7.818,7.818,0,0,1-2.109-5.04h2.032Zm1.939,4.03a5.878,5.878,0,0,0,3.647,1.51v2.01a7.923,7.923,0,0,1-5.083-2.09Zm4.248,1.51a5.925,5.925,0,0,0,3.665-1.52l1.436,1.42a7.927,7.927,0,0,1-5.1,2.11v-2.01Zm4.088-1.95a5.775,5.775,0,0,0,1.5-3.59H40.83a7.778,7.778,0,0,1-2.092,5.02Zm1.5-4.19a5.772,5.772,0,0,0-1.513-3.61l1.436-1.43a7.818,7.818,0,0,1,2.109,5.04H38.8Zm-1.938-4.03a5.879,5.879,0,0,0-3.647-1.51v-2.01a7.924,7.924,0,0,1,5.083,2.09Zm-4.248-1.51a5.934,5.934,0,0,0-3.628,1.49l-1.437-1.43a7.974,7.974,0,0,1,5.065-2.07v2.01Zm0.3,0.59a5.25,5.25,0,1,1-5.292,5.25,5.28,5.28,0,0,1,5.293-5.25h0Zm-5.792-.11,1.436,1.43a5.791,5.791,0,0,0-1.53,3.63H24.994a7.814,7.814,0,0,1,2.126-5.06h0Zm0,0,7.408,5.97-1.319,1.31v-4.98h-0.6v4.98l-1.319-1.31-0.425.42,2.026,2.01,0.018,0.02h0l0.019-.02,2.026-2.01Z" transform="translate(-24.406 -1121.81)"/>
</svg>
