<svg xmlns="http://www.w3.org/2000/svg" viewBox="0 0 59.68 60.19"><defs><style>.cls-1{isolation:isolate;}.cls-2{fill:#3f73b5;}</style></defs><title>Ресурс 8</title><g id="Слой_2" data-name="Слой 2"><g id="Shape_1301" data-name="Shape 1301" class="cls-1"><g id="Shape_1301-2" data-name="Shape 1301"><path class="cls-2" d="M58.52,28.49l-5.45-3.83L56.3,18.8a2.74,2.74,0,0,0-1-3.72l-7.74-4.36V7.21A2.73,2.73,0,0,0,44.8,4.47H36.43L29.12.35A2.65,2.65,0,0,0,27.06.11a2.71,2.71,0,0,0-1.63,1.3L23.9,4.18,21.33,2.37a2.69,2.69,0,0,0-3.77.68l-1,1.42h-1.7a2.73,2.73,0,0,0-2.71,2.74v3.68L.49,27.9A2.71,2.71,0,0,0,0,30a2.74,2.74,0,0,0,1.12,1.76l5.45,3.83L3.38,41.39a2.75,2.75,0,0,0-.24,2.08,2.69,2.69,0,0,0,1.29,1.64l7.74,4.37V53a2.73,2.73,0,0,0,2.71,2.74h8.37l7.31,4.12a2.73,2.73,0,0,0,1.32.34,2.7,2.7,0,0,0,2.37-1.4L35.78,56l2.57,1.81a2.69,2.69,0,0,0,3.77-.69l1-1.41h1.7A2.73,2.73,0,0,0,47.51,53V49.3l11.68-17A2.75,2.75,0,0,0,58.52,28.49ZM12.17,47.76l-7-4a1.24,1.24,0,0,1-.47-1.68L7.84,36.4l4.33,3Zm0-10.15L2,30.48a1.19,1.19,0,0,1-.5-.8,1.21,1.21,0,0,1,.2-.92L12.17,13.53ZM26.73,2.14a1.21,1.21,0,0,1,.74-.59,1.18,1.18,0,0,1,.92.11l5,2.81H25.44ZM18.78,3.91a1.21,1.21,0,0,1,1.7-.31l1.23.87H18.39ZM33,58.06a1.22,1.22,0,0,1-1.66.48l-5-2.81h7.94Zm7.95-1.78a1.22,1.22,0,0,1-1.7.32L38,55.73h3.33ZM46,53a1.22,1.22,0,0,1-1.22,1.23H14.88A1.22,1.22,0,0,1,13.66,53V7.21A1.23,1.23,0,0,1,14.88,6H44.8A1.23,1.23,0,0,1,46,7.21Zm1.49-40.55,7,4a1.26,1.26,0,0,1,.58.74,1.23,1.23,0,0,1-.11.94L51.84,23.8l-4.33-3ZM58,31.44,47.51,46.67V22.58l10.16,7.14A1.24,1.24,0,0,1,58,31.44ZM36.5,24a5,5,0,0,0-6.66-.42,5,5,0,0,0-6.65.42,5.14,5.14,0,0,0,0,7.21l6.12,6.19a.75.75,0,0,0,.53.22.71.71,0,0,0,.52-.22l6.14-6.19A5.16,5.16,0,0,0,36.5,24Zm-1,6.14-5.61,5.67-5.6-5.67a3.62,3.62,0,0,1,0-5.08,3.53,3.53,0,0,1,5,0l0,.06a.75.75,0,0,0,.53.22h0a.71.71,0,0,0,.52-.22l.06-.06a3.53,3.53,0,0,1,5,0A3.62,3.62,0,0,1,35.45,30.17ZM24,10.45a2.8,2.8,0,0,0-.81-2,2.76,2.76,0,0,0-3.4-.4,2.68,2.68,0,0,0-1.44-.41,2.74,2.74,0,0,0-1.95.81,2.8,2.8,0,0,0,0,3.94l2.87,2.9a.74.74,0,0,0,1.05,0l2.87-2.9A2.8,2.8,0,0,0,24,10.45Zm-1.86.91-2.35,2.37-2.34-2.37a1.3,1.3,0,0,1,0-1.82,1.26,1.26,0,0,1,.9-.37,1.24,1.24,0,0,1,.89.37l0,0a.74.74,0,0,0,.52.22h0a.75.75,0,0,0,.53-.22l0,0a1.24,1.24,0,0,1,.89-.37,1.26,1.26,0,0,1,.9.37,1.3,1.3,0,0,1,0,1.82Zm19.25,33.3a2.74,2.74,0,0,0-1.45.41,2.68,2.68,0,0,0-1.44-.41,2.74,2.74,0,0,0-1.95.81,2.8,2.8,0,0,0,0,3.94l2.87,2.9a.74.74,0,0,0,1,0l2.84-2.88,0,0a2.8,2.8,0,0,0,0-3.94A2.74,2.74,0,0,0,41.36,44.66Zm.9,3.69-2.35,2.37-2.34-2.37a1.3,1.3,0,0,1-.37-.91,1.29,1.29,0,0,1,.37-.91,1.26,1.26,0,0,1,.9-.37,1.24,1.24,0,0,1,.89.37l0,0a.74.74,0,0,0,.52.22h0a.75.75,0,0,0,.53-.22l0,0a1.24,1.24,0,0,1,.89-.37,1.26,1.26,0,0,1,.9.37,1.29,1.29,0,0,1,.37.91A1.3,1.3,0,0,1,42.26,48.35Z"/></g></g></g></svg>