<svg xmlns="http://www.w3.org/2000/svg" width="29.9" height="30" viewBox="0 0 29.9 30"><defs><style>.cls-1{isolation:isolate;}.cls-2{fill:#22ace7;}</style></defs><title>Ресурс 20</title><g id="Слой_2" data-name="Слой 2"><g id="Shape_556" data-name="Shape 556" class="cls-1"><g id="Shape_556-2" data-name="Shape 556"><path class="cls-2" d="M3.34,15.6V3.87A1.86,1.86,0,0,1,7,3.43,4.25,4.25,0,0,0,5.27,5.6a4.36,4.36,0,0,0,.15,3.29l.41.89L13.5,6.15l-.41-.9A4.27,4.27,0,0,0,10.7,3a4.15,4.15,0,0,0-1.84-.24A3.83,3.83,0,0,0,5.2,0,3.85,3.85,0,0,0,1.39,3.87V15.6H0v2H1.41a11.51,11.51,0,0,0,1.38,5.21,7.72,7.72,0,0,0,3,2.95c.29.15.58.29.89.42L4.83,28.89,6.44,30l2.19-3.27a13.22,13.22,0,0,0,2.42.21h7.8a13.22,13.22,0,0,0,2.42-.21L23.46,30l1.61-1.11-1.82-2.73c.31-.13.6-.27.89-.42a7.72,7.72,0,0,0,3-2.95,11.51,11.51,0,0,0,1.38-5.21H29.9v-2Z"/></g></g></g></svg>