<svg xmlns="http://www.w3.org/2000/svg" width="28.03" height="29.72" viewBox="0 0 28.03 29.72"><defs><style>.cls-1{isolation:isolate;}.cls-2{fill:#22ace7;}</style></defs><title>Ресурс 4</title><g id="Слой_2" data-name="Слой 2"><g id="Shape_539" data-name="Shape 539" class="cls-1"><g id="Shape_539-2" data-name="Shape 539"><path class="cls-2" d="M9.16,12.13a1.95,1.95,0,1,0,1.93,1.94A1.93,1.93,0,0,0,9.16,12.13ZM23.37,4h-19a.55.55,0,0,0-.55.55v19a.55.55,0,0,0,.55.55h19a.55.55,0,0,0,.55-.55v-19A.55.55,0,0,0,23.37,4ZM9.16,17.71a3.64,3.64,0,1,1,3.6-3.64A3.63,3.63,0,0,1,9.16,17.71Zm6.65,0H15.4a.85.85,0,0,1,0-1.69h.41a.85.85,0,0,1,0,1.69Zm0-2.76H15.4a.85.85,0,0,1,0-1.69h.41a.85.85,0,0,1,0,1.69Zm0-2.76H15.4a.85.85,0,0,1,0-1.69h.41a.85.85,0,0,1,0,1.69Zm2.85,5.52h-.41a.85.85,0,0,1,0-1.69h.41a.85.85,0,0,1,0,1.69Zm0-2.76h-.41a.85.85,0,0,1,0-1.69h.41a.85.85,0,0,1,0,1.69Zm0-2.76h-.41a.85.85,0,0,1,0-1.69h.41a.85.85,0,0,1,0,1.69Zm2.85,5.52h-.4a.85.85,0,0,1,0-1.69h.4a.85.85,0,0,1,0,1.69Zm0-2.76h-.4a.85.85,0,0,1,0-1.69h.4a.85.85,0,0,1,0,1.69Zm0-2.76h-.4a.85.85,0,0,1,0-1.69h.4a.85.85,0,0,1,0,1.69ZM25.68,0H2.35A2.36,2.36,0,0,0,0,2.37V25.86a2.36,2.36,0,0,0,2.18,2.36v.66a.85.85,0,0,0,.84.84H5.4a.85.85,0,0,0,.84-.84v-.65h15.3v.65a.85.85,0,0,0,.84.84h2.38a.85.85,0,0,0,.84-.84v-.65h.08A2.36,2.36,0,0,0,28,25.86V2.37A2.36,2.36,0,0,0,25.68,0ZM25.6,23.54a2.24,2.24,0,0,1-2.23,2.24h-19a2.24,2.24,0,0,1-2.23-2.24v-19A2.24,2.24,0,0,1,4.41,2.28h19A2.24,2.24,0,0,1,25.6,4.52Z"/></g></g></g></svg>