<svg xmlns="http://www.w3.org/2000/svg" width="44.85" height="29.81" viewBox="0 0 44.85 29.81"><defs><style>.cls-1{isolation:isolate;}.cls-2{fill:#22ace7;}</style></defs><title>Ресурс 18</title><g id="Слой_2" data-name="Слой 2"><g id="Shape_540" data-name="Shape 540" class="cls-1"><g id="Shape_540-2" data-name="Shape 540"><path class="cls-2" d="M41.75.17a5.08,5.08,0,0,1,.16,1.24v1.7a5.07,5.07,0,0,1-5,5.08H8A5.07,5.07,0,0,1,2.94,3.11V1.41A5.08,5.08,0,0,1,3.1.17,4.22,4.22,0,0,0,0,4.24v7.91a4.22,4.22,0,0,0,4.2,4.24H6s.21-.93.48-2.08,2.36-2.09,4.68-2.09H34.26c2.32,0,4.33.94,4.49,2.09L39,16.39h1.6a4.22,4.22,0,0,0,4.21-4.24V4.24A4.22,4.22,0,0,0,41.75.17ZM8,6.5H36.86a3.38,3.38,0,0,0,3.36-3.39V1.41A3.34,3.34,0,0,0,39.91,0h-35a3.34,3.34,0,0,0-.31,1.41v1.7A3.37,3.37,0,0,0,8,6.5Zm-1.67-5H38.06a.43.43,0,0,1,0,.85H6.32a.43.43,0,0,1,0-.85Zm0,2.65H38.06a.43.43,0,0,1,0,.85H6.32a.43.43,0,0,1,0-.85ZM33,13.28H12.14c-2.33,0-4.33.7-4.49,1.56s-.28,1.55-.28,1.55h30.3l-.22-1.55C37.32,14,35.34,13.28,33,13.28ZM12.11,20.12a.85.85,0,0,0,.12-1.18.83.83,0,0,0-1.18-.14c-.88.71-2,2.69-.13,5.11,1.43,1.82-.8,4.48-.82,4.5a.86.86,0,0,0,.08,1.2.83.83,0,0,0,.55.2.85.85,0,0,0,.64-.29c.13-.15,3.16-3.74.86-6.66C11,21.24,11.9,20.3,12.11,20.12Zm7.35,0a.84.84,0,0,0-1.05-1.32c-.88.71-2.05,2.69-.14,5.11,1.44,1.82-.79,4.48-.81,4.5a.85.85,0,0,0,.08,1.2.83.83,0,0,0,.55.2.85.85,0,0,0,.64-.29c.13-.15,3.16-3.74.86-6.66C18.32,21.24,19.26,20.3,19.46,20.12Zm7.36,0a.84.84,0,0,0-1.05-1.32c-.88.71-2.05,2.69-.14,5.11,1.43,1.82-.79,4.48-.82,4.5a.86.86,0,0,0,.09,1.2.81.81,0,0,0,.55.2.85.85,0,0,0,.64-.29c.13-.15,3.16-3.74.86-6.66C25.67,21.24,26.62,20.3,26.82,20.12Zm7.36,0a.85.85,0,0,0-1.06-1.32c-.88.71-2,2.69-.13,5.11,1.43,1.82-.8,4.48-.82,4.5a.86.86,0,0,0,.09,1.2.81.81,0,0,0,.55.2.83.83,0,0,0,.63-.29c.13-.15,3.17-3.74.87-6.66C33,21.24,34,20.3,34.18,20.12Z"/></g></g></g></svg>