<svg xmlns="http://www.w3.org/2000/svg" width="29.59" height="30" viewBox="0 0 29.59 30"><defs><style>.cls-1{isolation:isolate;}.cls-2{fill:#22ace7;}</style></defs><title>Ресурс 13</title><g id="Слой_2" data-name="Слой 2"><g id="Shape_558" data-name="Shape 558" class="cls-1"><g id="Shape_558-2" data-name="Shape 558"><path class="cls-2" d="M7.25,10.41A1.76,1.76,0,1,0,5.52,8.66,1.75,1.75,0,0,0,7.25,10.41Zm17.14-7.7V14.6l5.2,2.71V0Zm-19-1.65A7.94,7.94,0,0,0,0,8.64v0a8,8,0,0,0,4.94,7.41L7.48,30h6.73L12.28,19a4.46,4.46,0,0,0,2.26-2,4.61,4.61,0,0,0,.6-2l7.52-1v-11L5.61,1Zm7.94,14.27a2.74,2.74,0,0,1-.33.86A2.86,2.86,0,0,1,12,17.25l-.3-1.7ZM10.72,8.66A3.47,3.47,0,1,1,7.25,5.15,3.5,3.5,0,0,1,10.72,8.66Z"/></g></g></g></svg>