<svg xmlns="http://www.w3.org/2000/svg" width="17.09" height="29.91" viewBox="0 0 17.09 29.91"><defs><style>.cls-1{isolation:isolate;}.cls-2{fill:#22ace7;}</style></defs><title>Ресурс 5</title><g id="Слой_2" data-name="Слой 2"><g id="Shape_538" data-name="Shape 538" class="cls-1"><g id="Shape_538-2" data-name="Shape 538"><path class="cls-2" d="M16.06,0H1A1,1,0,0,0,0,1v6.7H17.09V1A1,1,0,0,0,16.06,0ZM3.21,5.4A.62.62,0,0,1,2,5.4V2.33a.62.62,0,0,1,1.24,0ZM0,27.5a1,1,0,0,0,1,1H2.34v.37a1,1,0,1,0,2,0v-.37h8.45v.37a1,1,0,1,0,2,0v-.37h1.31a1,1,0,0,0,1-1V9.81H0ZM2,12.85a.62.62,0,0,1,1.24,0v3.07a.62.62,0,1,1-1.24,0Z"/></g></g></g></svg>