<svg xmlns="http://www.w3.org/2000/svg" width="33.91" height="29.91" viewBox="0 0 33.91 29.91"><defs><style>.cls-1{isolation:isolate;}.cls-2{fill:#22ace7;}</style></defs><title>Ресурс 7</title><g id="Слой_2" data-name="Слой 2"><g id="Shape_543" data-name="Shape 543" class="cls-1"><g id="Shape_543-2" data-name="Shape 543"><path class="cls-2" d="M15.58,10.13H8v6h7.56ZM15.58,0A9,9,0,0,0,8.14,7.37h7.44Zm2.75,0V7.37h7.44A9,9,0,0,0,18.33,0Zm7.56,10.13H18.33v6h7.56Zm6.65,8.74H1.37a1.38,1.38,0,0,0,0,2.76h.46v6.9a1.38,1.38,0,0,0,1.38,1.38H30.7a1.38,1.38,0,0,0,1.38-1.38v-6.9h.46a1.38,1.38,0,0,0,0-2.76ZM7.33,27.15H4.58V21.63H7.33Zm5.5,0H10.08V21.63h2.75Zm5.5,0H15.58V21.63h2.75Zm5.5,0H21.08V21.63h2.75Zm5.5,0H26.58V21.63h2.75Z"/></g></g></g></svg>