<svg xmlns="http://www.w3.org/2000/svg" width="29.87" height="30" viewBox="0 0 29.87 30"><defs><style>.cls-1{isolation:isolate;}.cls-2{fill:#22ace7;}</style></defs><title>Ресурс 2</title><g id="Слой_2" data-name="Слой 2"><g id="Shape_544" data-name="Shape 544" class="cls-1"><g id="Shape_544-2" data-name="Shape 544"><path class="cls-2" d="M18.4,15.85V13.26H15.82Zm-8.3-2.59H6.62v4.18h7.64Zm9.69,4,.19.2h4V13.26H19.79ZM14.93,0A15,15,0,1,0,29.87,15,15,15,0,0,0,14.93,0Zm0,27A12,12,0,0,1,5.5,7.65L22.25,24.47A11.85,11.85,0,0,1,14.93,27Zm9.23-4.38-9.32-9.36L7.35,5.73A12,12,0,0,1,24.16,22.62ZM13.78,3.9c3.74.19,4.06,8.42,8.62,8.42C19.43,11.49,20.08,3.9,13.78,3.9Z"/></g></g></g></svg>