<svg xmlns="http://www.w3.org/2000/svg" width="19.688" height="19.94" viewBox="0 0 19.688 19.94">
  <metadata><?xpacket begin="﻿" id="W5M0MpCehiHzreSzNTczkc9d"?>
<x:xmpmeta xmlns:x="adobe:ns:meta/" x:xmptk="Adobe XMP Core 5.6-c138 79.159824, 2016/09/14-01:09:01        ">
   <rdf:RDF xmlns:rdf="http://www.w3.org/1999/02/22-rdf-syntax-ns#">
      <rdf:Description rdf:about=""/>
   </rdf:RDF>
</x:xmpmeta>
                                                                                                    
                                                                                                    
                                                                                                    
                                                                                                    
                                                                                                    
                                                                                                    
                                                                                                    
                                                                                                    
                                                                                                    
                                                                                                    
                                                                                                    
                                                                                                    
                                                                                                    
                                                                                                    
                                                                                                    
                                                                                                    
                                                                                                    
                                                                                                    
                                                                                                    
                                                                                                    
                           
<?xpacket end="w"?></metadata>
<defs>
    <style>
      .cls-1 {
        fill: #22ace7;
        fill-rule: evenodd;
      }
    </style>
  </defs>
  <path class="cls-1" d="M520.844,2320.05a9.976,9.976,0,1,0,9.838,9.98,9.911,9.911,0,0,0-9.838-9.98h0Zm0.679,11.2a0.553,0.553,0,0,1-.007.07c0,0.02,0,.04-0.009.06s-0.012.04-.018,0.06a0.349,0.349,0,0,1-.025.07,0.142,0.142,0,0,0,0,.02,1.025,1.025,0,0,1-.051.09h0a1.134,1.134,0,0,1-.072.09c-0.007.01-.014,0.01-0.021,0.02l-0.072.06c-0.008.01-.016,0.01-0.024,0.02q-0.048.03-.1,0.06h-0.023a0.165,0.165,0,0,1-.092.03,0.044,0.044,0,0,1-.034.01,0.487,0.487,0,0,1-.121.01h-0.026a0.452,0.452,0,0,1-.116-0.01,0.048,0.048,0,0,0-.035-0.01,0.4,0.4,0,0,1-.1-0.04h-0.011l-3.773-1.81a0.7,0.7,0,0,1-.325-0.92,0.683,0.683,0,0,1,.906-0.33l2.8,1.34v-5.95a0.68,0.68,0,1,1,1.36,0v7.04h0c0,0.01,0,.01,0,0.02h0Zm0,0" transform="translate(-511 -2320.06)"/>
</svg>
