<svg xmlns="http://www.w3.org/2000/svg" width="19.32" height="19.97" viewBox="0 0 19.32 19.97">
  <metadata><?xpacket begin="﻿" id="W5M0MpCehiHzreSzNTczkc9d"?>
<x:xmpmeta xmlns:x="adobe:ns:meta/" x:xmptk="Adobe XMP Core 5.6-c138 79.159824, 2016/09/14-01:09:01        ">
   <rdf:RDF xmlns:rdf="http://www.w3.org/1999/02/22-rdf-syntax-ns#">
      <rdf:Description rdf:about=""/>
   </rdf:RDF>
</x:xmpmeta>
                                                                                                    
                                                                                                    
                                                                                                    
                                                                                                    
                                                                                                    
                                                                                                    
                                                                                                    
                                                                                                    
                                                                                                    
                                                                                                    
                                                                                                    
                                                                                                    
                                                                                                    
                                                                                                    
                                                                                                    
                                                                                                    
                                                                                                    
                                                                                                    
                                                                                                    
                                                                                                    
                           
<?xpacket end="w"?></metadata>
<defs>
    <style>
      .cls-1 {
        fill: #22ace7;
        fill-rule: evenodd;
      }
    </style>
  </defs>
  <path class="cls-1" d="M1405.93,2531.24c-0.04,2.77-1.48,3.77-3.01,3.68s-2.58-.82-3.67-0.82l-0.04.02c-1.08,0-2.15.75-3.67,0.85s-2.96-.86-3.01-3.63c0.09-2.54,1.98-2.73,3.58-5.73,1.42-2.64,3.1-2.43,3.1-2.43h0.04s1.7-.2,3.1,2.43c1.6,3.01,3.49,3.09,3.58,5.63h0Zm-9.45-9.2c1.36-.11,2.34-1.77,2.19-3.71s-1.35-3.44-2.71-3.33-2.33,1.76-2.18,3.71,1.35,3.43,2.7,3.33h0Zm5.13,0.03c1.32,0.37,2.8-.87,3.3-2.77s-0.15-3.74-1.48-4.11-2.8.87-3.3,2.77,0.16,3.74,1.48,4.11h0Zm6.12-1.52c-1.15-.32-2.44.76-2.88,2.42s0.13,3.25,1.28,3.57,2.44-.75,2.88-2.41-0.13-3.26-1.28-3.58h0Zm-13.58,2.42c-0.44-1.66-1.73-2.74-2.88-2.42s-1.72,1.93-1.28,3.58,1.73,2.74,2.88,2.41,1.72-1.92,1.28-3.57h0Zm0,0" transform="translate(-1389.84 -2515)"/>
</svg>
