<svg xmlns="http://www.w3.org/2000/svg" width="19.84" height="20" viewBox="0 0 19.84 20">
  <metadata><?xpacket begin="﻿" id="W5M0MpCehiHzreSzNTczkc9d"?>
<x:xmpmeta xmlns:x="adobe:ns:meta/" x:xmptk="Adobe XMP Core 5.6-c138 79.159824, 2016/09/14-01:09:01        ">
   <rdf:RDF xmlns:rdf="http://www.w3.org/1999/02/22-rdf-syntax-ns#">
      <rdf:Description rdf:about=""/>
   </rdf:RDF>
</x:xmpmeta>
                                                                                                    
                                                                                                    
                                                                                                    
                                                                                                    
                                                                                                    
                                                                                                    
                                                                                                    
                                                                                                    
                                                                                                    
                                                                                                    
                                                                                                    
                                                                                                    
                                                                                                    
                                                                                                    
                                                                                                    
                                                                                                    
                                                                                                    
                                                                                                    
                                                                                                    
                                                                                                    
                           
<?xpacket end="w"?></metadata>
<defs>
    <style>
      .cls-1 {
        fill: #22ace7;
        fill-rule: evenodd;
      }
    </style>
  </defs>
  <path class="cls-1" d="M1390.33,2325.19v-0.77a3.216,3.216,0,0,1,3.19-3.24h0.49v0.71l-0.93.3,0.59,0.8-0.01,1,0.94-.32,0.93,0.31-0.01-1,0.58-.8-0.93-.3V2320h-1.65a4.4,4.4,0,0,0-4.36,4.42v12.48a1.716,1.716,0,0,0,1.7,1.72h0.93V2340h1.16v-1.38h12.88V2340h1.16v-1.38h0.3a1.709,1.709,0,0,0,1.7-1.72v-11.71h-18.66Zm1.16,7.54h-1.16v-4h1.16v4Zm2.32,0h-1.16v-4h1.16v4Zm2.33,0h-1.16v-4h1.16v4Zm1.16-4h1.16v4h-1.16v-4Zm3.41,7.62h-3.18v-1.18h3.18v1.18Zm0.08-3.62h-1.16v-4h1.16v4Zm2.32,0h-1.16v-4h1.16v4Zm2.33,0h-1.16v-4h1.16v4Zm2.39,0h-1.23v-4h1.23v4Zm0,0" transform="translate(-1389.16 -2320)"/>
</svg>
