<svg width="53" height="55" viewBox="0 0 53 55" fill="none" xmlns="http://www.w3.org/2000/svg">
<path d="M51.6572 0H1.0956C0.490596 0 0 0.490596 0 1.0956V45.4774C0 50.7282 4.27185 54.9999 9.52252 54.9999C13.1745 54.9999 16.3525 52.9329 17.9494 49.9077C19.5464 52.933 22.7243 55 26.3764 55C30.0284 55 33.2064 52.933 34.8033 49.9078C36.4003 52.933 39.5782 55 43.2302 55C48.481 55 52.7527 50.7282 52.7527 45.4775V1.0956C52.7528 0.490596 52.2622 0 51.6572 0ZM16.8538 45.4775C16.8538 49.52 13.565 52.8088 9.52252 52.8088C5.48002 52.8088 2.19119 49.52 2.19119 45.4775V36.8162C3.93927 38.9237 6.57669 40.2685 9.52252 40.2685C12.4684 40.2685 15.1058 38.9239 16.8538 36.8162V45.4775ZM16.8538 30.6834V30.7458C16.8538 34.7882 13.565 38.0771 9.52252 38.0771C5.48002 38.0771 2.19119 34.7882 2.19119 30.7458V30.6834V21.9598C3.93927 24.0674 6.57669 25.4121 9.52252 25.4121C12.4684 25.4121 15.1058 24.0675 16.8538 21.9598V30.6834ZM16.8538 15.8895C16.8538 19.932 13.565 23.2208 9.52252 23.2208C5.48002 23.2208 2.19119 19.932 2.19119 15.8895V2.19119H16.8538V15.8895ZM33.7077 45.4775C33.7077 49.52 30.4189 52.8088 26.3764 52.8088C22.3339 52.8088 19.045 49.52 19.045 45.4775V36.8162C20.7931 38.9237 23.4305 40.2685 26.3764 40.2685C29.3222 40.2685 31.9596 38.9239 33.7077 36.8162V45.4775ZM33.7077 30.6836V30.7459C33.7077 34.7884 30.4189 38.0772 26.3764 38.0772C22.3339 38.0772 19.045 34.7884 19.045 30.7459V30.6836V21.9599C20.7931 24.0674 23.4305 25.4123 26.3764 25.4123C29.3222 25.4123 31.9596 24.0677 33.7077 21.9599V30.6836ZM33.7077 15.8895C33.7077 19.932 30.4189 23.2208 26.3764 23.2208C22.3339 23.2208 19.045 19.932 19.045 15.8895V2.19119H33.7077V15.8895ZM50.5615 45.4775C50.5615 49.52 47.2727 52.8088 43.2302 52.8088C39.1877 52.8088 35.8989 49.52 35.8989 45.4775V36.8162C37.647 38.9237 40.2844 40.2685 43.2302 40.2685C46.176 40.2685 48.8135 38.9239 50.5615 36.8162V45.4775ZM50.5615 30.6836V30.7459C50.5615 34.7884 47.2727 38.0772 43.2302 38.0772C39.1877 38.0772 35.8989 34.7884 35.8989 30.7459V30.6836V21.9599C37.647 24.0674 40.2844 25.4123 43.2302 25.4123C46.176 25.4123 48.8135 24.0677 50.5615 21.9599V30.6836ZM50.5615 15.8895C50.5615 19.932 47.2727 23.2208 43.2302 23.2208C39.1877 23.2208 35.8989 19.932 35.8989 15.8895V2.19119H50.5615V15.8895Z" fill="#494949"/>
</svg>
