<svg width="335" height="208" viewBox="0 0 335 208" fill="none" xmlns="http://www.w3.org/2000/svg">
<path d="M306.756 207.768L18.4044 184.669C14.7861 184.369 11.4335 182.649 9.07898 179.885C6.72448 177.122 5.55949 173.538 5.83852 169.918L18.363 13.5429C18.6695 9.93068 20.3925 6.58635 23.156 4.23989C25.9194 1.89343 29.4988 0.735383 33.113 1.01853L321.465 24.1044C325.075 24.425 328.415 26.1505 330.765 28.9093C333.115 31.668 334.288 35.2394 334.031 38.8544L321.506 195.244C321.176 198.846 319.446 202.175 316.688 204.517C313.93 206.858 310.365 208.026 306.756 207.768Z" fill="#407BFF"/>
<path opacity="0.4" d="M306.756 207.768L18.4044 184.669C14.7861 184.369 11.4335 182.649 9.07898 179.885C6.72448 177.122 5.55949 173.538 5.83852 169.918L18.363 13.5429C18.6695 9.93068 20.3925 6.58635 23.156 4.23989C25.9194 1.89343 29.4988 0.735383 33.113 1.01853L321.465 24.1044C325.075 24.425 328.415 26.1505 330.765 28.9093C333.115 31.668 334.288 35.2394 334.031 38.8544L321.506 195.244C321.176 198.846 319.446 202.175 316.688 204.517C313.93 206.858 310.365 208.026 306.756 207.768Z" fill="black"/>
<path d="M301.626 207.353L13.2736 184.267C9.66366 183.947 6.32403 182.221 3.97378 179.463C1.62354 176.704 0.450657 173.132 0.707689 169.517L13.2321 13.1281C13.5528 9.51814 15.2783 6.17853 18.037 3.82828C20.7958 1.47804 24.3671 0.305149 27.9822 0.562181L316.334 23.648C319.934 23.9688 323.265 25.6864 325.614 28.4331C327.962 31.1797 329.142 34.737 328.9 38.3428L316.376 194.732C316.069 198.352 314.349 201.706 311.589 204.067C308.828 206.429 305.249 207.61 301.626 207.353Z" fill="#407BFF"/>
<path d="M312.934 188.263L5.14584 163.615C4.54277 163.569 3.98263 163.285 3.58859 162.827C3.19455 162.368 2.99889 161.771 3.04462 161.168L13.7858 27.0765C13.8317 26.4734 14.1152 25.9133 14.5741 25.5192C15.0329 25.1252 15.6295 24.9296 16.2326 24.9753L324.035 49.6232C324.342 49.6473 324.641 49.7328 324.914 49.8748C325.187 50.0167 325.429 50.2122 325.625 50.4495C325.821 50.6868 325.967 50.9612 326.055 51.2562C326.143 51.5512 326.17 51.8609 326.136 52.1668L315.395 186.258C315.325 186.847 315.029 187.385 314.57 187.759C314.111 188.133 313.524 188.314 312.934 188.263Z" fill="white"/>
<path d="M33.6795 21.4916C33.4678 21.5054 33.2554 21.5054 33.0436 21.4916C30.994 21.4084 29.0588 20.525 27.6531 19.0311C26.2474 17.5372 25.4834 15.5517 25.5251 13.5009C25.5667 11.4501 26.4106 9.49725 27.8757 8.06157C29.3408 6.6259 31.3103 5.82178 33.3616 5.82178C35.4128 5.82178 37.3824 6.6259 38.8475 8.06157C40.3126 9.49725 41.1565 11.4501 41.1981 13.5009C41.2397 15.5517 40.4757 17.5372 39.0701 19.0311C37.6644 20.525 35.7291 21.4084 33.6795 21.4916ZM33.6795 6.8383C31.8931 6.90887 30.2056 7.67716 28.9794 8.97821C27.7532 10.2793 27.0861 12.0093 27.1214 13.7968C27.1567 15.5842 27.8916 17.2866 29.1682 18.5382C30.4448 19.7898 32.1613 20.4909 33.9491 20.4909C35.7369 20.4909 37.4534 19.7898 38.73 18.5382C40.0066 17.2866 40.7415 15.5842 40.7768 13.7968C40.812 12.0093 40.145 10.2793 38.9188 8.97821C37.6926 7.67716 36.0051 6.90887 34.2187 6.8383H33.6795Z" fill="white"/>
<path d="M56.3506 23.3023H55.7146C53.544 23.219 51.4926 22.2875 50.0014 20.708C48.5102 19.1284 47.6982 17.0269 47.7398 14.8551C47.7814 12.6832 48.6735 10.6144 50.2241 9.09313C51.7748 7.57191 53.8604 6.71973 56.0326 6.71973C58.2049 6.71973 60.2904 7.57191 61.8411 9.09313C63.3917 10.6144 64.2838 12.6832 64.3254 14.8551C64.3671 17.0269 63.555 19.1284 62.0638 20.708C60.5726 22.2875 58.5212 23.219 56.3506 23.3023ZM56.3506 8.64899C55.2613 8.64812 54.1879 8.9105 53.2218 9.4138C52.2558 9.9171 51.4256 10.6464 50.8021 11.5396C50.1786 12.4328 49.7803 13.4635 49.6409 14.5438C49.5015 15.6242 49.6252 16.7222 50.0016 17.7444C50.3779 18.7666 50.9957 19.6828 51.8024 20.4148C52.6091 21.1468 53.5807 21.6731 54.6345 21.9487C55.6884 22.2244 56.7932 22.2413 57.855 21.998C58.9168 21.7547 59.904 21.2584 60.7327 20.5514C61.4101 19.9782 61.9667 19.2761 62.3702 18.4858C62.7736 17.6955 63.0159 16.8328 63.0828 15.948C63.2241 14.1629 62.6514 12.3946 61.4902 11.0313C60.3291 9.66805 58.6746 8.82118 56.8897 8.67662L56.3506 8.64899Z" fill="white"/>
<path d="M78.9652 25.1274H78.3293C76.2907 25.0442 74.366 24.1652 72.9681 22.6791C71.5702 21.1929 70.8106 19.218 70.8522 17.1782C70.8938 15.1383 71.7334 13.1961 73.1907 11.7682C74.648 10.3403 76.607 9.54053 78.6472 9.54053C80.6875 9.54053 82.6465 10.3403 84.1038 11.7682C85.5611 13.1961 86.4007 15.1383 86.4423 17.1782C86.4839 19.218 85.7242 21.1929 84.3264 22.6791C82.9285 24.1652 81.0038 25.0442 78.9652 25.1274ZM78.9652 10.4741C77.2228 10.5446 75.5775 11.2954 74.3824 12.5653C73.1873 13.8353 72.5377 15.5231 72.573 17.2665C72.6083 19.01 73.3257 20.6702 74.5711 21.8907C75.8166 23.1112 77.4909 23.7948 79.2348 23.7948C80.9786 23.7948 82.6529 23.1112 83.8984 21.8907C85.1439 20.6702 85.8612 19.01 85.8965 17.2665C85.9318 15.5231 85.2822 13.8353 84.0871 12.5653C82.892 11.2954 81.2467 10.5446 79.5043 10.4741H78.9652Z" fill="white"/>
<path d="M121.455 71.6139L122.646 56.7456L63.3937 51.9991L62.2026 66.8673L121.455 71.6139Z" fill="#407BFF"/>
<path d="M252.17 101.401L253.361 86.5322L194.109 81.7857L192.918 96.654L252.17 101.401Z" fill="#407BFF"/>
<path opacity="0.5" d="M184.505 115.31L185.696 100.442L126.444 95.6954L125.252 110.564L184.505 115.31Z" fill="#407BFF"/>
<path opacity="0.5" d="M115.305 148.441L116.496 133.573L57.2433 128.826L56.0523 143.695L115.305 148.441Z" fill="#407BFF"/>
<path d="M316.75 125.903L317.941 111.035L258.689 106.288L257.498 121.156L316.75 125.903Z" fill="#407BFF"/>
<path opacity="0.5" d="M315.206 145.11L316.397 130.242L257.145 125.495L255.954 140.363L315.206 145.11Z" fill="#407BFF"/>
<path d="M247.555 159.021L248.746 144.152L189.493 139.406L188.302 154.274L247.555 159.021Z" fill="#407BFF"/>
<path d="M324.614 71.0771V70.3998L258.827 65.1329L260.472 44.5768H259.794L258.149 65.1329L192.707 59.8936L194.352 39.3375H193.661L192.016 59.8936L126.574 54.6544L128.219 34.0983H127.541L125.965 54.4885L60.5232 49.2493L62.1544 28.6655H61.4771L59.832 49.2216L12.3194 45.42V46.0974L59.832 49.899L58.2285 68.4091L10.785 64.6076V65.2988L58.2285 69.0865L56.7493 87.6105L9.23667 83.8089V84.4863L56.7493 88.3017L55.2701 106.826L7.75752 103.024V103.701L55.1596 107.462L53.6666 125.999L6.16777 122.184V122.875L53.6804 126.677L52.1874 145.201L4.6748 141.399V142.076L52.1736 145.892L50.4733 167.194H51.1506L52.8648 145.878L118.307 151.131L116.593 172.434H117.284L118.984 151.117L184.427 156.357L182.643 177.825H183.321L185.021 156.509L250.463 161.748L248.763 183.064H249.44L251.154 161.748L316.928 167.015V166.337L251.154 161.07L252.633 142.547L318.421 147.813V147.122L252.73 142.021L254.209 123.497L319.997 128.764V128.087L254.209 122.82L255.702 104.282L321.476 109.549V108.872L255.702 103.605L257.182 85.0807L322.969 90.3476V89.6564L257.292 84.3342L258.771 65.8102L324.614 71.0771ZM192.016 60.4604L190.537 78.9982L125.094 73.759L126.574 55.2212L192.016 60.4604ZM122.026 112.175L123.505 93.6515L188.947 98.8907L187.468 117.415L122.026 112.175ZM187.412 118.092L185.919 136.63L120.436 131.377L121.929 112.853L187.412 118.092ZM123.56 92.9603L125.039 74.4363L190.481 79.6756L189.002 98.1995L123.56 92.9603ZM60.4541 49.9266L125.965 55.1659L124.486 73.7036L59.0441 68.4644L60.4541 49.9266ZM58.9196 69.1418L124.362 74.381L122.869 92.905L57.4267 87.6658L58.9196 69.1418ZM57.3714 88.3569L122.814 93.6377L121.334 112.162L55.8922 106.922L57.3714 88.3569ZM55.8369 107.558L121.279 112.798L119.8 131.335L54.3578 126.096L55.8369 107.558ZM52.8233 145.297L54.3025 126.773L119.745 132.013L118.265 150.537L52.8233 145.297ZM118.943 150.592L120.436 132.068L185.878 137.307L184.385 155.845L118.943 150.592ZM250.505 161.126L185.062 155.845L186.555 137.321L251.998 142.56L250.505 161.126ZM252.053 141.911L186.611 136.671L188.09 118.147L253.532 123.387L252.053 141.911ZM253.587 122.668L188.173 117.47L189.652 98.946L255.094 104.185L253.587 122.668ZM255.122 103.453L189.68 98.2134L191.159 79.6894L256.601 84.9287L255.122 103.453ZM256.656 84.2513L191.214 79.012L192.707 60.4604L258.149 65.6996L256.656 84.2513Z" fill="#E0E0E0"/>
<g clip-path="url(#clip0)">
<path fill-rule="evenodd" clip-rule="evenodd" d="M191.638 29.5531C190.799 29.8245 190.074 30.9155 189.049 31.4925C188.986 31.5282 188.924 31.544 188.883 31.5412C188.802 31.5355 188.707 31.4482 188.732 31.0877C188.82 29.8459 189.267 29.2736 189.673 28.4166C191.084 25.4365 193.314 22.9571 195.338 20.2215C195.495 20.0113 195.593 19.7767 195.612 19.5163C195.627 19.296 195.559 19.11 195.473 18.8825C195.405 18.6965 195.052 18.5105 194.647 18.482C194.424 18.4662 194.221 18.472 193.957 18.4534C193.006 18.3863 192.706 19.754 192.458 20.0987C190.76 22.5352 188.797 25.5569 187.749 27.7172C187.519 28.2017 187.272 28.6853 187.076 29.1854C186.178 29.3756 185.432 30.5535 184.353 31.1611C184.289 31.1968 184.227 31.2126 184.186 31.2097C184.105 31.204 184.01 31.1167 184.035 30.7562C184.123 29.5144 184.57 28.9421 184.977 28.0852C186.387 25.1051 188.617 22.6257 190.641 19.8901C190.799 19.6798 190.897 19.4452 190.915 19.1848C190.93 18.9646 190.862 18.7785 190.777 18.5511C190.708 18.365 190.355 18.179 189.95 18.1505C189.728 18.1347 189.524 18.1405 189.261 18.1219C188.309 18.0548 188.009 19.4225 187.761 19.7672C186.063 22.2037 184.1 25.2254 183.052 27.3857C182.969 27.5614 182.883 27.7369 182.799 27.9132C182.776 27.9233 182.752 27.9344 182.728 27.9465C181.653 28.4745 180.708 29.4746 179.402 30.1071C179.149 30.2301 178.363 30.698 177.756 30.6551C177.614 30.6451 177.495 30.5965 177.378 30.5278C177.202 30.4349 177.046 30.0415 177.055 29.9213C177.062 29.8212 177.083 29.8026 177.294 29.6967C179.151 28.7609 180.716 27.3416 182.079 25.908C182.584 25.3801 183.269 24.3214 183.325 23.5202C183.362 22.9994 183.222 22.3858 182.61 22.1211C182.176 21.9295 181.676 21.8137 181.271 21.7851C180.198 21.7094 179.374 22.1343 178.897 22.5635C178.409 23.0104 177.936 23.4712 177.493 23.9515C177.092 23.5577 176.503 23.3606 175.934 23.3204C175.266 23.2733 173.952 24.0059 173.271 24.4409C173.164 24.5138 173.1 24.5496 173.06 24.5467C173.04 24.5453 173.021 24.5239 173.024 24.4838C173.025 24.4638 173.078 24.2864 173.101 23.9659C173.121 23.6855 173.085 23.3207 172.853 22.8615C172.8 22.757 172.451 22.511 172.005 22.4795C171.459 22.4409 170.934 22.6657 170.914 22.946C170.9 23.1463 171.077 23.2393 171.064 23.4195C171.057 23.5197 170.944 23.9746 170.791 24.4067C170.356 25.6643 169.842 26.896 169.308 28.1264C169.015 28.8103 168.162 29.3741 168.108 30.1351C168.091 30.3754 168.23 30.7073 168.436 30.9634C168.772 31.3897 168.985 31.5456 169.309 31.5685C169.45 31.5785 169.615 31.5499 169.765 31.4397C170.088 31.2008 170.268 30.9519 170.374 30.5971C171.067 28.2708 172.699 26.7757 174.454 25.8328C175.046 25.5122 175.843 25.186 175.944 25.1931C176.048 25.2005 176.207 25.2593 176.367 25.317C175.844 26.0419 175.407 26.8143 175.099 27.6496C174.998 27.9242 174.939 28.1818 174.92 28.4623C174.887 28.9228 174.954 29.4108 175.084 29.8828C175.261 30.5394 175.586 31.1259 176.074 31.422C176.971 31.9685 177.621 32.276 178.228 32.3188C178.572 32.3431 178.84 32.3017 179.134 32.1614C180.518 31.5106 181.373 31.0031 181.998 30.5428C181.978 31.0529 182.06 31.3419 182.399 31.7478C182.736 32.1541 183.279 32.5345 184.017 32.7477C184.137 32.7762 184.257 32.8048 184.378 32.8134C185.235 32.8738 186.109 32.2429 186.793 31.6046C186.856 31.7589 186.953 31.9089 187.095 32.0793C187.433 32.4856 187.976 32.866 188.713 33.0792C188.833 33.1077 188.953 33.1363 189.075 33.1449C190.079 33.2157 191.105 32.3378 191.824 31.6107C192.013 32.0791 192.6 32.5702 193.318 32.9814C193.514 33.0959 193.752 33.1731 193.975 33.1888C194.846 33.2502 195.523 32.5935 196.045 32.1071C197.397 30.8337 198.204 29.1999 198.88 27.114C198.932 26.9566 198.997 26.9008 199.078 26.9065C199.28 26.9208 199.543 26.9394 199.83 26.9194C200.382 26.8778 200.82 26.7275 201.331 26.6832C201.639 26.6445 201.606 26.5416 201.896 26.4615C202.105 26.3956 202.272 26.3269 202.286 26.1266C202.31 25.7862 201.708 25.3813 200.757 25.3142C200.008 25.2613 199.558 25.2899 199.254 25.2685C198.789 25.2356 198.677 25.0869 198.429 24.2843C198.429 24.2843 198.677 25.0869 198.429 24.2843C198.379 24.1198 198.324 24.0354 198.153 23.8623C197.753 23.4718 197.236 23.3145 196.811 23.2845C195.798 23.2131 194.856 24.1731 194.187 24.9915C194.032 25.1818 193.818 25.3277 193.661 25.538C192.739 26.7167 191.842 28.056 191.638 29.5533L191.638 29.5531ZM166.237 20.905C166.743 20.9407 167.029 20.9206 167.09 20.9249C167.15 20.9292 167.19 20.9521 167.185 21.0122C167.182 21.0523 167.158 21.111 166.995 21.4014C165.575 23.9379 164.537 26.5418 163.58 29.4331C163.554 29.5118 163.472 29.808 163.451 30.1084C163.431 30.3888 163.491 30.6949 163.763 30.8751C164.287 31.2342 164.722 31.4059 165.026 31.4273C165.471 31.4587 165.714 31.194 165.746 30.7334C165.775 30.3328 165.825 29.9135 165.908 29.5974C166.682 26.6932 167.695 24.45 169.181 22.1394C169.889 21.042 169.974 20.9877 169.981 20.8875C169.984 20.8475 169.968 20.786 169.932 20.723C170.754 20.6 171.735 20.5483 172.625 20.6112C172.727 20.6183 173.122 20.7871 173.178 20.8515C173.31 21.0017 173.442 21.152 173.685 21.1691C173.887 21.1834 174.241 21.0675 174.368 20.9959C174.666 20.8156 174.823 20.6053 174.849 20.2448C174.873 19.9043 173.656 18.9731 172.766 18.9102C171.672 18.833 170.671 18.9032 169.727 19.0178C169.316 19.0693 167.843 19.1867 166.79 19.1124C165.778 19.0409 165.849 18.9051 165.423 18.8751C165.181 18.858 165.051 18.9695 164.942 19.0625C164.834 19.1555 164.745 19.5518 164.72 19.9123C164.707 20.0925 164.697 20.2329 164.79 20.3601C165.068 20.7421 165.649 20.8637 166.236 20.9051C166.236 20.9051 165.649 20.8637 166.236 20.9051L166.237 20.905ZM181.123 23.5861C181.111 23.7664 181.041 23.8823 180.772 24.2457C180.502 24.6091 180.603 24.6163 180.271 24.9953C179.629 25.735 178.845 26.4647 177.833 27.2588C177.552 27.4806 177.512 27.4777 177.472 27.4749C177.451 27.4735 177.412 27.4506 177.415 27.4105C177.419 27.3505 177.445 27.2717 177.677 26.8655C178.397 25.6078 179.227 24.8009 180.137 24.0198C180.635 23.5919 180.929 23.4517 181.031 23.4588C181.091 23.4631 181.13 23.486 181.123 23.5861C181.123 23.5861 181.13 23.486 181.123 23.5861L181.123 23.5861ZM196.655 25.2057C196.675 25.2071 196.694 25.2286 196.711 25.2701C196.727 25.3316 196.763 25.3945 196.859 25.4818C196.936 25.5476 196.916 25.828 196.9 26.0483C196.763 27.9911 195.537 29.5148 194.329 31.06C194.061 31.4033 193.915 31.4535 193.793 31.4449C193.692 31.4377 193.548 31.1658 193.499 31.0014C193.433 30.7754 193.432 30.5136 193.439 30.4134C193.549 28.8512 195.211 26.6335 196.293 25.4217C196.471 25.2128 196.594 25.2015 196.655 25.2058C196.655 25.2058 196.594 25.2015 196.655 25.2058L196.655 25.2057Z" fill="white"/>
<path fill-rule="evenodd" clip-rule="evenodd" d="M150.846 17.6137C149.963 17.5515 149.198 18.2091 149.136 19.0815L148.467 28.5648C148.406 29.4377 149.071 30.1959 149.953 30.2582L159.539 30.9347C160.421 30.997 161.186 30.3394 161.248 29.4669L161.917 19.9836C161.979 19.1107 161.313 18.3525 160.431 18.2903L150.846 17.6137ZM157.12 19.7085C156.696 19.6786 156.329 19.9941 156.3 20.4135L156.014 24.4589C155.984 24.8781 156.304 25.2422 156.727 25.2721L159.092 25.439C159.515 25.4689 159.882 25.1535 159.912 24.7341L160.198 20.6886C160.227 20.2694 159.908 19.9053 159.485 19.8754L157.12 19.7085ZM151.56 19.3161C151.137 19.2862 150.77 19.6013 150.74 20.021L150.231 27.2277C150.202 27.6469 150.521 28.0109 150.944 28.0408L153.309 28.2077C153.733 28.2376 154.1 27.9225 154.129 27.5028L154.638 20.2961C154.668 19.877 154.348 19.5129 153.925 19.483L151.56 19.3161Z" fill="white"/>
</g>
<defs>
<clipPath id="clip0">
<rect width="56.6951" height="17.2392" fill="white" transform="translate(146.214 15) rotate(4.03731)"/>
</clipPath>
</defs>
</svg>
