<svg width="1920" height="139" viewBox="0 0 1920 139" fill="none" xmlns="http://www.w3.org/2000/svg">
<mask id="mask0" mask-type="alpha" maskUnits="userSpaceOnUse" x="0" y="-1" width="1920" height="140">
<path d="M0 139C746.5 139 1082.5 139 1920 139V-1C1130 -1 680 -1 0 -1V139Z" fill="#E6F7FF"/>
</mask>
<g mask="url(#mask0)">
<g opacity="0.05">
<path fill-rule="evenodd" clip-rule="evenodd" d="M1342.09 -540.178H568.821C252.883 -540.178 -5.70471 -280.538 -5.70471 36.6979V813.146C-5.70471 1130.38 252.883 1390.02 568.821 1390.02H1342.09C1658.03 1390.02 1916.62 1130.38 1916.62 813.146V36.6979C1916.62 -280.538 1658.03 -540.178 1342.09 -540.178Z" fill="#FEFEFE"/>
<path fill-rule="evenodd" clip-rule="evenodd" d="M226.361 -425.671C85.8008 -320.314 -5.69812 -152.042 -5.69812 36.6949V572.97C238.463 282.027 241.445 -120.251 226.361 -425.671ZM1342.1 -540.178H805.855C989.849 -336.796 1222.92 -115.263 1630.68 24.0468C1634.17 25.2155 1637.81 28.8782 1641.29 33.2007C1724.33 -38.8596 1804.56 -106.109 1877.99 -170.684C1794.61 -386.226 1585.43 -540.178 1342.1 -540.178Z" fill="#00CCFF"/>
<path fill-rule="evenodd" clip-rule="evenodd" d="M752.149 1390.02C792.763 1195.45 856.578 1023.86 935.309 870.73C1065.6 989.404 1203.85 1085.44 1341.09 1131.37C1399.61 1150.84 1446.52 1123.38 1419.67 1081.11C1122.45 612.415 1681.07 248.412 1694.16 128.578C1698.64 87.9684 1679.24 50.1836 1644.44 30.5413C1726.32 -40.6937 1805.55 -106.94 1877.99 -170.681C1902.85 -106.272 1916.62 -36.3622 1916.62 36.6982V813.146C1916.62 1130.38 1658.03 1390.02 1342.09 1390.02H752.149Z" fill="#0000A2"/>
<path fill-rule="evenodd" clip-rule="evenodd" d="M227.021 -95.1178C212.439 136.069 156.906 379.062 -5.70374 572.967V813.143C-5.70374 912.842 19.985 1006.88 64.7444 1088.93C336.421 1104.74 636.12 1006.88 930.843 879.389C932.328 876.549 933.825 873.555 935.31 870.726C578.104 545.174 282.053 49.1893 236.471 -49.8508C229.673 -64.496 226.688 -79.9726 227.021 -95.1178ZM1632.01 24.5557C1631.51 24.39 1631.01 24.0557 1630.68 24.0557C1222.91 -115.263 989.855 -336.785 805.862 -540.178H568.822C440.682 -540.178 322.168 -497.574 226.358 -425.671C231.335 -325.805 234.32 -215.617 227.522 -102.278C230.006 -126.743 241.607 -150.039 261.335 -167.521C295.151 -197.312 342.553 -201.14 380.682 -177.01L464.393 -124.248C1061.12 286.359 1513.65 -20.3859 1632.01 24.5557Z" fill="#FF00FF"/>
<path fill-rule="evenodd" clip-rule="evenodd" d="M1141.02 -540.178H805.855C989.849 -336.784 1222.9 -115.26 1630.68 24.056C1634.15 25.2158 1637.81 28.8785 1641.29 33.21C1672.12 6.57343 1702.45 -19.5513 1732.29 -45.0162C1532.22 -127.911 1302.47 -276.038 1141.02 -540.178Z" fill="#52DCFF"/>
<path fill-rule="evenodd" clip-rule="evenodd" d="M415.655 247.743C322.995 418.344 188.567 595.267 -5.70801 758.716V572.962C156.902 379.068 212.432 136.064 227.017 -95.1234C226.696 -79.9782 229.678 -64.5015 236.467 -49.8474C255.862 -7.74316 320.343 105.942 415.655 247.743ZM617.55 -540.184H568.818C440.687 -540.184 322.164 -497.568 226.363 -425.664C231.331 -325.811 234.313 -215.622 227.515 -102.274C229.999 -126.748 241.612 -150.044 261.331 -167.518C295.146 -197.317 342.558 -201.146 380.676 -177.006L464.389 -124.245C492.568 -104.777 520.585 -86.9604 548.1 -70.6584C610.427 -277.706 618.713 -450.298 617.55 -540.184Z" fill="#FF63FF"/>
<path fill-rule="evenodd" clip-rule="evenodd" d="M1332.81 800.492C1333.47 470.108 1683.89 223.285 1694.16 128.576C1698.64 87.9628 1679.24 50.1811 1644.44 30.5476C1726.32 -40.6873 1805.55 -106.934 1878 -170.686C1902.85 -106.265 1916.62 -36.3677 1916.62 36.7045V454.129C1793.29 498.905 1569.18 599.439 1332.81 800.492ZM752.149 1390.01C792.763 1195.45 856.578 1023.85 935.309 870.727C993.823 923.988 1053.83 972.762 1114.83 1014.37C1020.85 1120.55 929.345 1244.88 845.808 1390.01H752.149Z" fill="#3A3AC7"/>
</g>
</g>
</svg>
