<svg width="134" height="62" viewBox="0 0 134 62" fill="none" xmlns="http://www.w3.org/2000/svg">
<path d="M121.115 36.4788H123.755V38.8799H121.115V41.6209C121.115 41.8168 121.127 41.9897 121.15 42.1394C121.173 42.2833 121.236 42.4099 121.34 42.5134C121.443 42.6172 121.604 42.6921 121.823 42.7439C122.036 42.7955 122.34 42.8245 122.726 42.8245C122.99 42.8245 123.266 42.8073 123.548 42.7783C123.836 42.7497 124.095 42.7035 124.319 42.6344V45.1394C124.095 45.197 123.83 45.2371 123.531 45.266C123.238 45.2947 122.927 45.3064 122.611 45.3064C121.834 45.3064 121.173 45.2315 120.638 45.0874C120.103 44.9377 119.666 44.7248 119.338 44.4426C119.004 44.1603 118.762 43.815 118.607 43.3945C118.452 42.9798 118.377 42.502 118.377 41.9665V33.0468H119.062L121.115 34.2505V36.4788ZM106.695 36.4788L107.621 37.0259C108.167 36.732 108.754 36.5074 109.369 36.3578C109.985 36.2083 110.67 36.1335 111.423 36.1335C112.384 36.1335 113.178 36.2483 113.804 36.4674C114.431 36.692 114.938 36.997 115.312 37.3885C115.691 37.7746 115.95 38.2293 116.1 38.7474C116.249 39.2715 116.324 39.8301 116.324 40.423V45.0529H113.58V40.7629C113.58 40.4924 113.569 40.2216 113.546 39.957C113.523 39.6976 113.442 39.4674 113.293 39.2715C113.143 39.0814 112.913 38.9203 112.608 38.7995C112.297 38.6843 111.855 38.6208 111.268 38.6208C110.79 38.6208 110.348 38.6553 109.933 38.713C109.525 38.7764 109.128 38.8744 108.754 39.0011V45.0529H106.011V36.4788H106.695ZM100.788 33.4787C100.788 33.1217 100.891 32.8223 101.098 32.569C101.3 32.3154 101.691 32.1889 102.26 32.1889H102.398C102.968 32.1889 103.359 32.3154 103.56 32.569C103.767 32.8223 103.871 33.1217 103.871 33.4787V33.6861C103.871 34.0373 103.767 34.3426 103.56 34.59C103.359 34.8435 102.968 34.9702 102.398 34.9702H102.26C101.691 34.9702 101.3 34.8435 101.098 34.59C100.891 34.3426 100.788 34.0373 100.788 33.6861V33.4787ZM100.96 36.4788V45.0529H103.698V37.6766L101.645 36.4788H100.96ZM91.1992 40.7629C91.1992 41.0393 91.2109 41.3101 91.2337 41.5692C91.2512 41.834 91.3432 42.0645 91.4983 42.2543C91.6479 42.4502 91.8895 42.6055 92.2059 42.7266C92.5281 42.8473 92.9881 42.9108 93.5922 42.9108C94.1905 42.9108 94.6506 42.8473 94.9724 42.7266C95.3004 42.6055 95.5362 42.4502 95.6916 42.2543C95.8467 42.0645 95.9331 41.834 95.9563 41.5692C95.9789 41.3101 95.9906 41.0393 95.9906 40.7629C95.9906 40.4924 95.9789 40.2216 95.9563 39.957C95.9331 39.6976 95.8467 39.4674 95.6916 39.2715C95.5362 39.0814 95.3004 38.9203 94.9724 38.7995C94.6506 38.6843 94.1905 38.6208 93.5922 38.6208C92.9881 38.6208 92.5281 38.6843 92.2059 38.7995C91.8895 38.9203 91.6479 39.0814 91.4983 39.2715C91.3432 39.4674 91.2512 39.6976 91.2337 39.957C91.2109 40.2216 91.1992 40.4924 91.1992 40.7629ZM88.4557 40.423C88.4557 39.8301 88.5305 39.2715 88.68 38.7474C88.8296 38.2293 89.0884 37.7746 89.4678 37.3885C89.8417 36.997 90.348 36.692 90.9748 36.4674C91.6021 36.2483 92.3957 36.1335 93.3562 36.1335H93.8338C94.7942 36.1335 95.5879 36.2483 96.2151 36.4674C96.8419 36.692 97.3481 36.997 97.7221 37.3885C98.1015 37.7746 98.3603 38.2293 98.5099 38.7474C98.6594 39.2715 98.7342 39.8301 98.7342 40.423V41.1086C98.7342 41.7016 98.6594 42.2601 98.5099 42.7783C98.3603 43.2965 98.1015 43.7516 97.7221 44.1431C97.3481 44.5288 96.8419 44.8341 96.2151 45.0587C95.5879 45.2833 94.7942 45.3927 93.8338 45.3927H93.3562C92.3957 45.3927 91.6021 45.2833 90.9748 45.0587C90.348 44.8341 89.8417 44.5288 89.4678 44.1431C89.0884 43.7516 88.8296 43.2965 88.68 42.7783C88.5305 42.2601 88.4557 41.7016 88.4557 41.1086V40.423ZM81.076 39.3926C81.6797 39.3926 82.1457 39.3522 82.4793 39.2659C82.8129 39.1794 83.0545 39.0586 83.204 38.9031C83.3594 38.7474 83.4514 38.5691 83.4746 38.3617C83.4973 38.1602 83.509 37.9299 83.509 37.6766C83.509 37.4289 83.4973 37.1929 83.4746 36.9856C83.4514 36.7724 83.3653 36.594 83.2158 36.4443C83.0662 36.2945 82.8359 36.1793 82.531 36.0931C82.2205 36.0065 81.7776 35.9662 81.1966 35.9662C80.8286 35.9662 80.3512 35.9779 79.7643 36.001C79.1778 36.0182 78.5968 36.0585 78.0271 36.1158V39.237C78.5623 39.306 79.0686 39.3522 79.5517 39.3695C80.029 39.3867 80.5353 39.3926 81.076 39.3926ZM86.592 38.0219C86.592 38.5922 86.5172 39.1276 86.3734 39.6227C86.2353 40.1239 85.9878 40.5555 85.6487 40.9298C85.3034 41.2986 84.8375 41.5922 84.251 41.811C83.6641 42.0297 82.9221 42.1394 82.0364 42.1394H81.5533C80.9378 42.1394 80.3337 42.1335 79.7471 42.1218C79.1606 42.1104 78.5851 42.0587 78.0271 41.9665V45.0529H74.9442V33.565C75.9221 33.4498 76.9574 33.3635 78.033 33.3059C79.1144 33.2483 80.1727 33.2196 81.2138 33.2196H81.6912C82.6519 33.2196 83.4456 33.3291 84.0724 33.5477C84.6996 33.761 85.2001 34.0604 85.5795 34.4289C85.9534 34.8032 86.218 35.2406 86.3676 35.7419C86.5172 36.2428 86.592 36.7782 86.592 37.3368V38.0219ZM124.371 14.8477L126.424 16.0511V19.1894C126.827 19.0628 127.241 18.9648 127.678 18.8958C128.11 18.8268 128.587 18.792 129.099 18.792C130.059 18.792 130.853 18.9017 131.48 19.1259C132.107 19.3506 132.608 19.6559 132.987 20.0415C133.361 20.4331 133.626 20.8882 133.775 21.4063C133.925 21.9245 134 22.483 134 23.0764V27.7059H131.256V23.4217C131.256 23.1454 131.244 22.8804 131.221 22.6155C131.198 22.3509 131.112 22.1263 130.968 21.9304C130.819 21.7348 130.589 21.5791 130.278 21.4581C129.973 21.3373 129.525 21.2797 128.944 21.2797C128.466 21.2797 128.018 21.3083 127.609 21.3718C127.195 21.4353 126.804 21.5274 126.424 21.654V27.7059H123.686V14.8477H124.371ZM112.539 23.0764C112.539 22.483 112.614 21.9245 112.757 21.4063C112.907 20.8882 113.172 20.4331 113.546 20.0415C113.925 19.6559 114.426 19.3506 115.053 19.1259C115.68 18.9017 116.474 18.792 117.434 18.792H117.917C118.533 18.792 119.131 18.8323 119.723 18.9017C120.31 18.9765 120.885 19.0859 121.443 19.2239V21.7747C120.805 21.5906 120.166 21.4639 119.522 21.3891C118.883 21.3142 118.326 21.2797 117.848 21.2797C117.21 21.2797 116.715 21.3315 116.364 21.4408C116.019 21.5505 115.76 21.6999 115.605 21.89C115.444 22.0742 115.346 22.2988 115.317 22.5638C115.294 22.8287 115.277 23.1109 115.277 23.4217C115.277 23.733 115.294 24.0148 115.317 24.2797C115.346 24.5447 115.444 24.7693 115.605 24.9593C115.76 25.1436 116.019 25.2933 116.364 25.4027C116.715 25.512 117.21 25.5638 117.848 25.5638C118.326 25.5638 118.883 25.5293 119.522 25.4544C120.166 25.3796 120.805 25.2529 121.443 25.0688V27.6254C120.885 27.7579 120.31 27.8673 119.723 27.9422C119.131 28.017 118.533 28.0515 117.917 28.0515H117.434C116.474 28.0515 115.68 27.9422 115.053 27.7176C114.426 27.4929 113.925 27.1876 113.546 26.802C113.172 26.4104 112.907 25.9553 112.757 25.4372C112.614 24.919 112.539 24.3605 112.539 23.7675V23.0764ZM105.222 25.9095C106.126 25.9095 106.965 25.7884 107.742 25.5465V24.7403C107.351 24.6368 106.942 24.562 106.505 24.5102C106.074 24.4584 105.591 24.4354 105.05 24.4354C104.538 24.4354 104.141 24.4584 103.854 24.5043C103.566 24.5505 103.359 24.6082 103.221 24.683C103.083 24.7579 102.997 24.8383 102.962 24.9304C102.928 25.0225 102.91 25.1091 102.91 25.1894C102.91 25.2933 102.928 25.3854 102.962 25.4717C102.997 25.5582 103.088 25.6332 103.244 25.7022C103.399 25.7712 103.629 25.8229 103.94 25.8577C104.245 25.8922 104.676 25.9095 105.222 25.9095ZM110.48 27.7059H109.795L108.869 27.1763C108.288 27.4758 107.684 27.6944 107.057 27.8383C106.43 27.9825 105.717 28.0515 104.935 28.0515C104.009 28.0515 103.238 27.9767 102.628 27.821C102.019 27.6658 101.53 27.4526 101.162 27.1876C100.799 26.9172 100.54 26.606 100.391 26.2606C100.247 25.9095 100.172 25.5465 100.172 25.1722V24.9998C100.172 24.6427 100.247 24.3087 100.403 23.9861C100.558 23.6695 100.816 23.3872 101.19 23.1454C101.558 22.9094 102.047 22.7193 102.646 22.581C103.244 22.443 103.992 22.3737 104.883 22.3737C105.999 22.3737 106.954 22.483 107.742 22.7021C107.731 22.4716 107.696 22.2702 107.644 22.0915C107.598 21.9131 107.483 21.7693 107.31 21.6481C107.144 21.5274 106.885 21.4353 106.551 21.3718C106.212 21.3083 105.763 21.2797 105.205 21.2797C104.9 21.2797 104.567 21.2911 104.21 21.3142C103.859 21.3373 103.503 21.366 103.14 21.4063C102.784 21.4466 102.427 21.5043 102.082 21.5678C101.731 21.6368 101.409 21.7116 101.116 21.7923V19.2239C101.409 19.1549 101.731 19.0914 102.082 19.0397C102.427 18.988 102.789 18.9417 103.157 18.9017C103.531 18.8613 103.894 18.8382 104.256 18.821C104.613 18.8037 104.958 18.792 105.292 18.792C106.252 18.792 107.057 18.8727 107.713 19.0397C108.375 19.2066 108.904 19.4484 109.318 19.7597C109.726 20.0764 110.025 20.4679 110.209 20.9344C110.388 21.4063 110.48 21.9476 110.48 22.5638V27.7059ZM93.7818 20.9344C93.3275 20.9344 92.9423 20.963 92.6373 21.0147C92.3268 21.0665 92.0735 21.1413 91.8839 21.2452C91.6882 21.3487 91.5387 21.4756 91.4353 21.6195C91.3315 21.7693 91.2567 21.9421 91.2109 22.1377C91.5445 22.2298 91.9012 22.2933 92.2865 22.3337C92.6659 22.3737 93.1091 22.391 93.6095 22.391C94.1157 22.391 94.5069 22.3737 94.7942 22.3337C95.0762 22.2933 95.2887 22.2412 95.4269 22.178C95.5651 22.1145 95.6512 22.0456 95.6857 21.9707C95.7201 21.9017 95.7374 21.821 95.7374 21.7403C95.7374 21.6599 95.7201 21.5733 95.6916 21.4756C95.6626 21.3777 95.5823 21.2911 95.45 21.2107C95.3235 21.13 95.122 21.0665 94.8632 21.0147C94.5989 20.963 94.2364 20.9344 93.7818 20.9344ZM93.2872 28.0515C92.3268 28.0515 91.5328 27.9422 90.906 27.7176C90.279 27.4929 89.7728 27.1876 89.3989 26.802C89.0194 26.4104 88.7604 25.9553 88.6108 25.4372C88.4615 24.919 88.3867 24.3605 88.3867 23.7675V23.0764C88.3867 22.483 88.4615 21.9245 88.6108 21.4063C88.7604 20.8882 89.0194 20.4331 89.3989 20.0415C89.7728 19.6559 90.279 19.3506 90.906 19.1259C91.5328 18.9017 92.3268 18.792 93.2872 18.792H93.7646C94.7367 18.792 95.5303 18.8613 96.1458 19.0052C96.7612 19.1491 97.2445 19.345 97.5839 19.5982C97.9292 19.8517 98.159 20.1395 98.2856 20.4734C98.4123 20.8019 98.4754 21.159 98.4754 21.5329V21.7058C98.4754 22.0514 98.4351 22.3737 98.3489 22.6848C98.2628 22.9957 98.0556 23.2665 97.7393 23.5083C97.4171 23.7502 96.9453 23.9344 96.3243 24.0724C95.7029 24.2107 94.8577 24.2797 93.7818 24.2797C93.27 24.2797 92.7927 24.2567 92.3613 24.2107C91.9298 24.1645 91.5155 24.0841 91.1303 23.9689C91.1416 24.2107 91.1765 24.4295 91.2454 24.631C91.3143 24.8328 91.4466 24.9998 91.6307 25.1377C91.8205 25.2761 92.0852 25.3796 92.4302 25.4544C92.7696 25.5293 93.2297 25.5638 93.7993 25.5638C94.0754 25.5638 94.38 25.5524 94.7136 25.5293C95.053 25.5062 95.3983 25.4775 95.7605 25.4372C96.123 25.3969 96.4739 25.3451 96.8247 25.2816C97.1696 25.2184 97.4918 25.1436 97.791 25.0515V27.6254C97.4918 27.6886 97.1696 27.7521 96.8247 27.8039C96.4739 27.8555 96.1172 27.9018 95.7433 27.9422C95.3752 27.9825 95.0013 28.0112 94.6389 28.0284C94.2708 28.0402 93.9314 28.0515 93.6095 28.0515H93.2872ZM81.0932 18.6195C80.6903 18.6195 80.1959 18.6309 79.609 18.654C79.0224 18.6771 78.4414 18.7172 77.8721 18.7747V21.2107C78.4069 21.2797 78.9131 21.32 79.3963 21.3373C79.8736 21.3546 80.2647 21.366 80.5581 21.366C81.2428 21.366 81.7776 21.3315 82.1515 21.2683C82.531 21.2048 82.8074 21.1127 82.9855 20.9861C83.1582 20.8595 83.2674 20.7039 83.3018 20.5079C83.3363 20.3123 83.3535 20.0764 83.3535 19.8055C83.3535 19.6559 83.3422 19.5119 83.3191 19.3681C83.296 19.2239 83.2099 19.0973 83.0717 18.982C82.9279 18.8668 82.7036 18.7805 82.3931 18.7172C82.0823 18.654 81.6512 18.6195 81.0932 18.6195ZM83.6241 27.7059L81.3289 24.1069C80.7135 24.1069 80.121 24.1014 79.5517 24.0897C78.9762 24.0783 78.4183 24.0265 77.8721 23.9344V27.7059H74.7891V16.218C75.7727 16.1086 76.802 16.0224 77.8776 15.9648C78.959 15.9071 80.0173 15.8785 81.0587 15.8785H81.536C82.4965 15.8785 83.2905 15.9762 83.9174 16.1779C84.5442 16.3794 85.0446 16.65 85.4244 16.9898C85.8039 17.3354 86.0627 17.7325 86.2122 18.1934C86.3617 18.6481 86.4366 19.1376 86.4366 19.65V20.3355C86.4366 21.0552 86.2928 21.7116 86.0054 22.2988C85.7235 22.8863 85.2114 23.341 84.4812 23.6636L86.6033 27.0207V27.7059H83.6241Z" fill="white"/>
<path fill-rule="evenodd" clip-rule="evenodd" d="M18.0766 0.900391H42.2631C52.1451 0.900391 60.2332 8.99728 60.2332 18.8903V43.1039C60.2332 52.9967 52.1451 61.0936 42.2631 61.0936H18.0766C8.19462 61.0936 0.106445 52.9967 0.106445 43.1039V18.8903C0.106445 8.99728 8.19462 0.900391 18.0766 0.900391Z" fill="#FEFEFE"/>
<path fill-rule="evenodd" clip-rule="evenodd" d="M52.9736 4.4723C57.3701 7.75785 60.2321 13.0054 60.2321 18.8912V35.6149C52.5951 26.5419 52.5019 13.9968 52.9736 4.4723ZM18.0754 0.901367H34.8481C29.0931 7.24384 21.8032 14.1524 9.04893 18.4968C8.93999 18.5332 8.82617 18.6474 8.71723 18.7822C6.11973 16.535 3.61033 14.4378 1.31348 12.4241C3.92148 5.70237 10.4642 0.901367 18.0754 0.901367Z" fill="#00CCFF"/>
<path fill-rule="evenodd" clip-rule="evenodd" d="M58.0288 51.7048C54.9698 57.2842 49.0387 61.0941 42.2621 61.0941H36.5279C35.2836 55.1409 33.3393 49.8778 30.9336 45.1699C40.1572 49.1405 49.5309 52.1979 58.0288 51.7048Z" fill="#33CC66"/>
<path fill-rule="evenodd" clip-rule="evenodd" d="M36.5289 61.0943C35.2586 55.0268 33.2626 49.6755 30.8 44.9003C26.7246 48.6011 22.4006 51.5959 18.1078 53.0283C16.2775 53.6356 14.8102 52.7793 15.6501 51.4609C24.9465 36.8447 7.47379 25.4933 7.06439 21.7562C6.9243 20.4898 7.53103 19.3115 8.6196 18.6989C6.05841 16.4775 3.58026 14.4116 1.31465 12.4238C0.536954 14.4324 0.106445 16.6126 0.106445 18.891V43.1045C0.106445 52.9974 8.19462 61.0943 18.0766 61.0943H36.5289Z" fill="#0000A2"/>
<path fill-rule="evenodd" clip-rule="evenodd" d="M52.9534 14.7796C53.4095 21.9892 55.1465 29.5669 60.2326 35.6139V43.1038C60.2326 46.2129 59.4291 49.1455 58.0291 51.7042C49.5316 52.1973 40.1575 49.1455 30.9391 45.1697C30.8926 45.0811 30.8458 44.9877 30.7994 44.8995C41.9721 34.7471 51.2321 19.2798 52.6578 16.1913C52.8704 15.7346 52.9638 15.2519 52.9534 14.7796ZM9.00781 18.5116C9.02339 18.5065 9.03897 18.4961 9.04938 18.4961C21.8036 14.1514 29.0933 7.24324 34.8483 0.900391H42.2625C46.2705 0.900391 49.9774 2.22901 52.9741 4.47132C52.8185 7.58563 52.7251 11.0219 52.9377 14.5563C52.86 13.7934 52.4972 13.0669 51.8801 12.5217C50.8224 11.5927 49.3398 11.4733 48.1471 12.2258L45.5288 13.8712C26.8642 26.676 12.7098 17.1101 9.00781 18.5116Z" fill="#FF00FF"/>
<path fill-rule="evenodd" clip-rule="evenodd" d="M24.365 0.900391H34.8485C29.0935 7.24324 21.8039 14.1515 9.04933 18.4961C8.94076 18.5322 8.82657 18.6464 8.71772 18.7815C7.7533 17.9509 6.80455 17.1362 5.87109 16.342C12.129 13.757 19.3153 9.13762 24.365 0.900391Z" fill="#52DCFF"/>
<path fill-rule="evenodd" clip-rule="evenodd" d="M47.0533 25.4719C49.9516 30.7921 54.1563 36.3095 60.2328 41.4067V35.6139C55.1467 29.5673 53.4098 21.9892 52.9536 14.7796C52.9636 15.2519 52.8704 15.7346 52.658 16.1916C52.0514 17.5046 50.0345 21.0499 47.0533 25.4719ZM40.7384 0.900391H42.2627C46.2704 0.900391 49.9776 2.22937 52.9741 4.47169C52.8187 7.58563 52.7254 11.0219 52.938 14.5566C52.8603 13.7934 52.4971 13.0669 51.8803 12.522C50.8226 11.5927 49.3397 11.4733 48.1474 12.2261L45.529 13.8715C44.6476 14.4786 43.7713 15.0342 42.9107 15.5426C40.9612 9.08577 40.702 3.70349 40.7384 0.900391Z" fill="#FF63FF"/>
<path fill-rule="evenodd" clip-rule="evenodd" d="M18.3669 42.7101C18.3461 32.407 7.38568 24.7098 7.06439 21.7563C6.9243 20.4898 7.53103 19.3116 8.6196 18.6993C6.05841 16.4779 3.58026 14.412 1.31428 12.4238C0.536954 14.4328 0.106445 16.6126 0.106445 18.8913V31.9087C3.96385 33.3051 10.9736 36.4402 18.3669 42.7101ZM36.5289 61.0943C35.2586 55.0269 33.2626 49.6756 30.8 44.9004C28.9698 46.5613 27.0927 48.0823 25.1848 49.3797C28.1243 52.6912 30.9865 56.5684 33.5994 61.0943H36.5289Z" fill="#3A3AC7"/>
<path fill-rule="evenodd" clip-rule="evenodd" d="M58.0288 51.7048C57.6191 52.4521 57.1577 53.1632 56.6547 53.8379C46.5913 55.5663 37.6997 53.6876 34.1947 52.748C33.2459 50.0698 32.1467 47.5473 30.9336 45.1699C40.1572 49.1405 49.5309 52.1979 58.0288 51.7048Z" fill="#5FE68C"/>
<path fill-rule="evenodd" clip-rule="evenodd" d="M47.053 25.4727C47.053 25.4727 44.9997 40.6444 39.1306 48.3885C36.217 47.371 32.4424 45.8191 30.939 45.1704C30.8922 45.0822 30.8456 44.9887 30.7988 44.9005C37.2227 39.0613 43.0192 31.4624 47.053 25.4727Z" fill="#D100D1"/>
</svg>
