<svg width="69" height="55" viewBox="0 0 69 55" fill="none" xmlns="http://www.w3.org/2000/svg">
<path d="M39.351 16.2774L40.2778 15.2398L39.351 16.2774ZM51.0575 51.3831C50.4436 51.8451 49.5713 51.722 49.1093 51.108L41.5798 41.1031C41.1178 40.4892 41.2409 39.6169 41.8549 39.1548C42.4688 38.6928 43.3411 38.816 43.8031 39.4299L50.496 48.3231L59.3892 41.6303C60.0032 41.1683 60.8754 41.2914 61.3375 41.9054C61.7995 42.5193 61.6764 43.3916 61.0624 43.8536L51.0575 51.3831ZM10.604 8.22783C10.5533 6.83746 10.5537 6.83745 10.5541 6.83743C10.5544 6.83742 10.5549 6.8374 10.5554 6.83738C10.5565 6.83735 10.5578 6.8373 10.5594 6.83725C10.5625 6.83714 10.5669 6.83699 10.5723 6.83681C10.5833 6.83646 10.5987 6.83597 10.6186 6.8354C10.6584 6.83425 10.716 6.83275 10.7905 6.83121C10.9394 6.82812 11.1559 6.82485 11.4331 6.82391C11.9874 6.82202 12.7853 6.82939 13.7713 6.86604C15.7415 6.93927 18.4728 7.12972 21.52 7.5997C27.558 8.53093 35.0771 10.5942 40.2778 15.2398L38.4241 17.315C33.8393 13.2196 26.985 11.258 21.0958 10.3498C18.1795 9.89996 15.5588 9.71697 13.6679 9.64669C12.7234 9.61159 11.9634 9.60469 11.4426 9.60647C11.1822 9.60736 10.9818 9.61041 10.8482 9.61318C10.7814 9.61457 10.7312 9.61588 10.6987 9.61682C10.6824 9.61729 10.6706 9.61766 10.6632 9.61791C10.6595 9.61803 10.6569 9.61811 10.6555 9.61816C10.6548 9.61819 10.6544 9.6182 10.6542 9.61821C10.6542 9.61821 10.6543 9.6182 10.6542 9.61821C10.6544 9.6182 10.6547 9.61819 10.604 8.22783ZM40.2778 15.2398C47.5776 21.7604 50.3798 30.6289 51.3815 37.7413C51.8841 41.3095 51.9397 44.475 51.8698 46.7504C51.8349 47.8892 51.7684 48.8083 51.7101 49.4471C51.6809 49.7665 51.6537 50.0162 51.6335 50.1884C51.6234 50.2746 51.615 50.3414 51.609 50.3879C51.606 50.4112 51.6035 50.4294 51.6018 50.4425C51.6009 50.449 51.6002 50.4542 51.5996 50.4581C51.5994 50.4601 51.5991 50.4617 51.599 50.463C51.5989 50.4636 51.5988 50.4644 51.5987 50.4647C51.5986 50.4653 51.5985 50.4659 50.2209 50.2714C48.8433 50.0769 48.8432 50.0773 48.8432 50.0776C48.8432 50.0776 48.8432 50.0779 48.8432 50.0778C48.8432 50.0778 48.8432 50.0775 48.8433 50.0768C48.8435 50.0755 48.8438 50.0729 48.8444 50.069C48.8454 50.0612 48.8472 50.0483 48.8495 50.0304C48.8541 49.9946 48.8611 49.9388 48.8699 49.8639C48.8875 49.7142 48.9121 49.4884 48.939 49.194C48.9928 48.6049 49.0555 47.7421 49.0886 46.665C49.1548 44.5086 49.1018 41.5061 48.6262 38.1294C47.6716 31.3521 45.0388 23.2236 38.4241 17.315L40.2778 15.2398Z" fill="#0084FF"/>
</svg>
