<svg width="264" height="180" viewBox="0 0 264 180" fill="none" xmlns="http://www.w3.org/2000/svg">
<path d="M41.4244 137.982C45.1561 137.982 48.1769 134.952 48.1769 131.22C48.1769 127.489 45.1561 124.459 41.4244 124.459C37.6927 124.459 34.6719 127.489 34.6719 131.22C34.6719 134.952 37.6927 137.982 41.4244 137.982Z" fill="#494949" stroke="white" stroke-width="3"/>
<path d="M96.5221 138.334C100.254 138.334 103.275 135.304 103.275 131.573C103.275 127.841 100.254 124.811 96.5221 124.811C92.7903 124.811 89.7695 127.841 89.7695 131.573C89.7695 135.304 92.7903 138.334 96.5221 138.334Z" fill="#494949" stroke="white" stroke-width="3"/>
<path d="M78.4509 138.054L78.4506 138.054C73.2062 143.309 64.6691 143.309 59.4247 138.054L59.4244 138.054C57.7704 136.398 55.0887 136.398 53.4347 138.054L53.4345 138.054C51.7822 139.71 51.7822 142.392 53.4345 144.047C57.7093 148.33 63.3268 150.47 68.9378 150.47C74.5488 150.47 80.166 148.33 84.4411 144.048L84.4411 144.047C86.0934 142.392 86.0934 139.71 84.4411 138.054L84.4408 138.054C82.7865 136.398 80.105 136.398 78.4509 138.054Z" fill="#494949" stroke="white" stroke-width="3"/>
<path d="M106.031 172.646L106.031 172.646C115.819 167.142 121.412 158.362 122.722 146.688C130.204 144.907 135.784 138.165 135.784 130.134C135.784 122.213 130.354 115.546 123.027 113.657V112.564C123.027 82.2512 98.4092 57.5879 68.1419 57.5879C37.8743 57.5879 13.2567 82.2512 13.2567 112.564V113.657C5.92951 115.547 0.5 122.213 0.5 130.134C0.5 138.165 6.07988 144.907 13.5611 146.688C14.8716 158.362 20.4647 167.142 30.2524 172.646C39.145 177.647 51.6004 179.997 68.1419 179.997C84.6831 179.997 97.1389 177.647 106.031 172.646ZM34.4002 165.255L33.6914 166.515L34.4001 165.255C30.1048 162.839 26.9621 159.688 24.88 155.748C22.7913 151.795 21.7253 146.962 21.7253 141.128V112.564C21.7253 91.6069 36.7416 73.5173 54.0959 68.1325L57.9075 67.3287L60.2602 66.9359L62.6039 66.5446L66.0548 66.1605L68.1382 66.1656L68.1456 66.1656L70.2287 66.1605L73.6796 66.5446L76.0233 66.9359L78.376 67.3287L82.1877 68.1325C99.5419 73.5173 114.558 91.6069 114.558 112.564V141.128C114.558 146.962 113.492 151.795 111.404 155.748C109.321 159.688 106.179 162.839 101.884 165.255C94.4934 169.411 83.5252 171.519 68.1419 171.519C52.7586 171.519 41.7901 169.411 34.4002 165.255ZM123.027 122.729C125.587 124.204 127.315 126.973 127.315 130.135C127.315 133.296 125.587 136.065 123.027 137.54V122.729ZM13.2564 137.54C10.696 136.065 8.96853 133.296 8.96853 130.134C8.96853 126.972 10.696 124.204 13.2564 122.729V137.54Z" fill="#494949" stroke="white" stroke-width="3"/>
<path d="M77.1067 89.4559C76.8034 81.4 67.7157 70.2793 52.6864 70.652C55.8534 69.7264 60.3781 68.8018 60.3781 68.8018C61.7356 68.571 64.4507 68.3411 65.8084 68.3425C68.2259 69.5074 70.1823 70.8388 74.0005 73.3177C80.5005 78.3262 82.3523 83.4309 82.5714 89.2494C82.9201 98.5111 75.8597 106.323 66.8324 106.664C59.3093 106.949 52.9525 100.901 52.6618 93.1822C52.4177 86.6982 57.3606 81.2289 63.6805 80.9901C65.1894 80.9331 66.4601 82.1421 66.5184 83.6902C66.5766 85.2383 65.4005 86.5397 63.8916 86.5967C60.5848 86.7216 57.9987 89.5834 58.1265 92.9757C58.3007 97.6025 62.1116 101.228 66.6213 101.058C72.6355 100.831 77.339 95.6259 77.1067 89.4559Z" fill="#00DA7E" stroke="#00DA7E" stroke-width="2"/>
<path d="M255.836 32.7632C251.458 25.3797 245.307 18.3562 241.154 14.6716C232.089 6.62591 224.526 6.82185 220.825 7.65514C219.269 8.0053 217.841 8.58262 216.584 9.35266C210.125 4.55131 202.268 2.19922 192.761 2.19922C183.255 2.19922 175.397 4.55131 168.938 9.35293C167.681 8.58289 166.253 8.0053 164.698 7.65541C160.997 6.82239 153.434 6.62618 144.369 14.6716C140.216 18.3565 134.065 25.3799 129.687 32.7635C123.759 42.76 122.439 50.8465 125.762 56.7993C129.821 64.0671 135.976 65.927 140.946 66.3856C139.724 71.1374 138.97 76.2208 138.97 82.5547C138.97 90.9503 140.878 98.1731 144.641 104.023C147.949 109.166 152.711 113.284 158.795 116.263C170.037 121.768 183.564 122.404 192.762 122.404C201.959 122.404 215.487 121.768 226.728 116.263C232.812 113.284 237.574 109.166 240.882 104.023C244.645 98.1729 246.553 90.95 246.553 82.5547C246.553 76.2211 245.799 71.1377 244.577 66.3856C249.547 65.9267 255.703 64.0666 259.761 56.799C263.084 50.8468 261.763 42.76 255.836 32.7632ZM143.558 58.0778C139.16 57.962 135.584 57.1091 133.112 52.6819C131.435 49.6779 132.825 43.9881 136.927 37.0707C140.82 30.5053 146.408 24.1303 149.953 20.9847C155.806 15.7891 160.195 15.503 162.259 15.7799C156.115 23.2827 152.349 33.0335 149.2 42.5137C147.896 46.4395 146.639 49.7912 145.423 53.0331C144.772 54.7675 144.147 56.4357 143.558 58.0778ZM192.961 97.9624C194.025 97.9624 193.022 97.936 192.961 97.9624V97.9624ZM223.03 108.685C216.568 111.849 208.013 113.565 196.972 113.905V105.266V97.9624H192.961H188.551V113.905C177.51 113.565 168.955 111.85 162.493 108.685C152.33 103.709 147.39 95.1619 147.39 82.5547C147.39 71.7694 149.871 65.1545 153.305 55.9994C154.491 52.8382 155.834 49.2553 157.189 45.1769C164.632 22.774 172.505 10.6341 192.761 10.6341C213.018 10.6341 220.891 22.7743 228.333 45.1769C229.688 49.2556 231.032 52.8382 232.217 55.9994C235.651 65.1545 238.132 71.7691 238.132 82.5547C238.132 95.1619 233.192 103.709 223.03 108.685ZM252.411 52.6819C249.939 57.1096 246.363 57.9618 241.965 58.0778C241.376 56.4354 240.751 54.7675 240.1 53.0331C238.885 49.7915 237.628 46.4395 236.323 42.5137C233.174 33.0335 229.408 23.2827 223.264 15.7799C225.328 15.5035 229.717 15.7891 235.571 20.985C239.115 24.13 244.703 30.5048 248.596 37.0702C252.698 43.9881 254.088 49.6782 252.411 52.6819Z" fill="#494949"/>
<path d="M192.961 97.9624C193.022 97.936 194.025 97.9624 192.961 97.9624ZM192.961 97.9624H188.551V113.905C177.51 113.566 168.955 111.85 162.493 108.685C152.33 103.709 147.39 95.1619 147.39 82.5547C147.39 71.7694 149.871 65.1545 153.305 55.9994C154.491 52.8382 155.834 49.2553 157.189 45.1769C164.632 22.774 172.505 10.6341 192.761 10.6341C213.018 10.6341 220.891 22.7743 228.333 45.1769C229.688 49.2556 231.032 52.8382 232.217 55.9994C235.651 65.1545 238.132 71.7691 238.132 82.5547C238.132 95.1619 233.192 103.709 223.03 108.685C216.568 111.849 208.013 113.565 196.972 113.905V105.266V97.9624H192.961ZM255.836 32.7632C251.458 25.3797 245.307 18.3562 241.154 14.6716C232.089 6.62591 224.526 6.82185 220.825 7.65514C219.269 8.0053 217.841 8.58262 216.584 9.35266C210.125 4.55131 202.268 2.19922 192.761 2.19922C183.255 2.19922 175.397 4.55131 168.938 9.35293C167.681 8.58289 166.253 8.0053 164.698 7.65541C160.997 6.82239 153.434 6.62618 144.369 14.6716C140.216 18.3565 134.065 25.3799 129.687 32.7635C123.759 42.76 122.439 50.8465 125.762 56.7993C129.821 64.0671 135.976 65.927 140.946 66.3856C139.724 71.1374 138.97 76.2208 138.97 82.5547C138.97 90.9503 140.878 98.1731 144.641 104.023C147.949 109.166 152.711 113.284 158.795 116.263C170.037 121.768 183.564 122.404 192.762 122.404C201.959 122.404 215.487 121.768 226.728 116.263C232.812 113.284 237.574 109.166 240.882 104.023C244.645 98.1729 246.553 90.95 246.553 82.5547C246.553 76.2211 245.799 71.1377 244.577 66.3856C249.547 65.9267 255.703 64.0666 259.761 56.799C263.084 50.8468 261.763 42.76 255.836 32.7632ZM143.558 58.0778C139.16 57.962 135.584 57.1091 133.112 52.6819C131.435 49.6779 132.825 43.9881 136.927 37.0707C140.82 30.5053 146.408 24.1303 149.953 20.9847C155.806 15.7891 160.195 15.503 162.259 15.7799C156.115 23.2827 152.349 33.0335 149.2 42.5137C147.896 46.4395 146.639 49.7912 145.423 53.0331C144.772 54.7675 144.147 56.4357 143.558 58.0778ZM252.411 52.6819C249.939 57.1096 246.363 57.9618 241.965 58.0778C241.376 56.4354 240.751 54.7675 240.1 53.0331C238.885 49.7915 237.628 46.4395 236.323 42.5137C233.174 33.0335 229.408 23.2827 223.264 15.7799C225.328 15.5035 229.717 15.7891 235.571 20.985C239.115 24.13 244.703 30.5048 248.596 37.0702C252.698 43.9881 254.088 49.6782 252.411 52.6819Z" stroke="white" stroke-width="3"/>
<path d="M176.701 36.6094C173.655 36.6094 171.176 39.1181 171.176 42.2158C171.176 45.3131 173.655 47.824 176.701 47.824C179.751 47.824 182.23 45.3129 182.23 42.2158C182.23 39.1181 179.751 36.6094 176.701 36.6094Z" fill="#494949" stroke="white" stroke-width="2"/>
<path d="M208.747 36.5664C205.671 36.5664 203.176 39.0961 203.176 42.2167C203.176 45.3372 205.671 47.8669 208.747 47.8669C211.819 47.8669 214.314 45.3372 214.314 42.2167C214.314 39.0961 211.819 36.5664 208.747 36.5664Z" fill="#494949" stroke="white" stroke-width="2"/>
<path d="M205.737 67.3249C202.68 66.0487 198.826 65.5063 192.392 65.5063C185.959 65.5063 182.105 66.0168 179.047 67.3249C174.493 69.2391 171.977 73.0996 171.977 78.1404C171.977 84.3299 176.786 89.7855 178.824 91.8593C180.289 93.3269 183.474 96.1982 187.392 97.6977L192.583 99.5801L197.361 97.6977C201.278 96.1663 204.463 93.3269 205.929 91.8593C207.999 89.7855 212.776 84.3299 212.776 78.1404C212.808 73.0996 210.292 69.2391 205.737 67.3249ZM198.89 84.8084C196.342 87.3608 193.634 88.7326 192.392 88.7326C191.15 88.7326 188.411 87.3608 185.863 84.8084C183.283 82.2242 181.946 79.5123 181.946 78.1723C181.946 76.96 182.137 76.8962 182.901 76.5771C185.067 75.6519 189.367 75.5562 192.392 75.5562C195.418 75.5562 199.686 75.6519 201.884 76.5771C202.648 76.8962 202.839 76.9919 202.839 78.1723C202.839 79.5123 201.47 82.2242 198.89 84.8084Z" fill="#00DA7E" stroke="white" stroke-width="3"/>
</svg>
