<svg width="151" height="181" viewBox="0 0 151 181" fill="none" xmlns="http://www.w3.org/2000/svg">
<path d="M67.0217 101.796L67.768 102.508L68.4563 101.74L108.788 56.7571L117.767 64.8356L68.4449 119.845L36.6548 89.5324L44.976 80.7755L67.0217 101.796Z" fill="#00DA7E" stroke="white" stroke-width="2"/>
<path d="M91.5175 7.10696L92.4947 5.6552L91.5175 7.10697C99.4219 12.4272 115.369 21.9036 132.783 25.0244C142.052 26.6855 148.771 34.7007 148.77 44.0784V86.5153C148.77 100.194 144.947 113.553 137.361 126.236L138.863 127.134L137.361 126.236C131.422 136.166 123.169 145.695 112.805 154.546C95.3574 169.446 78.0721 177.216 77.4086 177.511L77.4083 177.512L75.26 178.467L73.1124 177.512C73.1122 177.512 73.112 177.512 73.1118 177.512C72.4372 177.211 55.157 169.441 37.7155 154.546L36.579 155.877L37.7155 154.546C27.3511 145.695 19.0987 136.167 13.1594 126.236C5.574 113.553 1.75 100.194 1.75 86.5153V44.0782C1.75 34.7008 8.46908 26.6855 17.7378 25.0244C35.152 21.9036 51.0989 12.4269 59.0033 7.10663C63.8398 3.85129 69.4595 2.13281 75.2604 2.13281C81.0612 2.13281 86.6806 3.85127 91.5175 7.10696ZM74.4684 166.427L75.2608 166.83L76.0533 166.428C81.5357 163.644 93.9598 156.798 106.21 146.282C127.293 128.183 138.203 108.075 138.203 86.5156V44.0778C138.203 39.8103 135.127 36.1798 130.919 35.4256C111.689 31.9794 94.3085 21.7234 85.6166 15.8728C82.5366 13.7995 78.9533 12.6999 75.2604 12.6999C71.5673 12.6999 67.9845 13.7995 64.9042 15.8732C56.2126 21.7234 38.8322 31.9802 19.6021 35.4263C15.3935 36.1805 12.3174 39.8111 12.3174 44.0785V86.5156C12.3174 109.397 24.8749 127.83 38.7825 141.235C52.7027 154.652 68.1731 163.229 74.4684 166.427Z" fill="#494949" stroke="white" stroke-width="3.5"/>
</svg>
