<svg width="169" height="153" viewBox="0 0 169 153" fill="none" xmlns="http://www.w3.org/2000/svg">
<path d="M51.2805 100.068C55.735 100.068 59.3462 96.4572 59.3462 92.0027C59.3462 87.5481 55.735 83.937 51.2805 83.937C46.826 83.937 43.2148 87.5481 43.2148 92.0027C43.2148 96.4572 46.826 100.068 51.2805 100.068Z" fill="#494949" stroke="white" stroke-width="3"/>
<path d="M120.153 100.509C124.607 100.509 128.218 96.8976 128.218 92.4431C128.218 87.9886 124.607 84.3774 120.153 84.3774C115.698 84.3774 112.087 87.9886 112.087 92.4431C112.087 96.8976 115.698 100.509 120.153 100.509Z" fill="#494949" stroke="white" stroke-width="3"/>
<path d="M97.8274 100.796L97.8272 100.796C91.1249 107.499 80.2144 107.499 73.5121 100.796L73.5119 100.796C71.591 98.8754 68.478 98.8754 66.5572 100.796L66.557 100.796C64.6366 102.716 64.6366 105.83 66.557 107.751C71.8274 113.021 78.7522 115.656 85.6698 115.656C92.5875 115.656 99.5119 113.021 104.783 107.751L104.783 107.751C106.703 105.83 106.703 102.716 104.783 100.796L104.782 100.795C102.861 98.8756 99.7483 98.8753 97.8274 100.796Z" fill="#494949" stroke="white" stroke-width="3"/>
<path d="M131.854 143.376L131.12 142.068L131.854 143.376C144.048 136.53 150.988 125.595 152.559 111.004C161.873 108.916 168.854 100.588 168.854 90.6496C168.854 80.8356 162.046 72.5946 152.908 70.378V68.7246C152.908 31.1003 122.301 0.493164 84.6774 0.493164C47.053 0.493164 16.4459 31.1003 16.4459 68.7246V70.378C7.30823 72.595 0.5 80.8359 0.5 90.6496C0.5 100.588 7.48179 108.916 16.7954 111.004C18.3667 125.595 25.3066 136.53 37.5003 143.376C48.5336 149.57 64.0269 152.5 84.6774 152.5C105.327 152.5 120.821 149.57 131.854 143.376ZM84.6737 10.4535L84.681 10.4534L87.3063 10.447L91.6515 10.9298L94.5913 11.4198L97.54 11.9112L102.33 12.9196C124.179 19.6791 143.073 42.3964 143.073 68.7246V104.368C143.073 111.693 141.732 117.786 139.086 122.785C136.447 127.771 132.465 131.753 127.039 134.799C117.717 140.033 103.929 142.664 84.6774 142.664C65.4252 142.664 51.6369 140.033 42.3154 134.799C36.8894 131.753 32.9071 127.771 30.2679 122.785C27.6222 117.786 26.2816 111.693 26.2816 104.368V68.7246C26.2816 42.3964 45.1749 19.6791 67.0247 12.9196L71.8143 11.9112L74.7631 11.4198L77.7029 10.9298L82.048 10.447L84.6737 10.4535ZM152.908 80.7848C156.529 82.5964 159.019 86.3402 159.019 90.65C159.019 94.9597 156.529 98.7035 152.908 100.515V80.7848ZM16.4455 100.515C12.8253 98.7035 10.3357 94.9598 10.3357 90.6496C10.3357 86.3399 12.8252 82.5961 16.4455 80.7844V100.515Z" fill="#494949" stroke="white" stroke-width="3"/>
<path d="M95.8834 39.8882C95.5042 29.8355 84.1446 15.9583 65.358 16.4234C69.3168 15.2683 65.358 16.4234 72.1447 14.6915C73.5373 14.3362 71.579 14.6908 74.9727 14.1146C76.6695 13.8266 80.0633 13.5397 81.7605 13.5414C84.7824 14.9951 87.2279 16.6564 92.0006 19.7498C100.126 25.9998 102.44 32.3698 102.714 39.6306C103.15 51.1879 94.3246 60.9366 83.0405 61.3622C73.6366 61.7169 65.6906 54.1697 65.3273 44.5381C65.0221 36.4469 71.2008 29.622 79.1006 29.324C80.9868 29.2529 82.5751 30.7615 82.6479 32.6933C82.7208 34.6251 81.2506 36.2491 79.3645 36.3202C75.231 36.4761 71.9984 40.0473 72.1581 44.2804C72.3759 50.0541 77.1395 54.5786 82.7766 54.366C90.2944 54.0825 96.1738 47.5875 95.8834 39.8882Z" fill="#00DA7E" stroke="#00DA7E" stroke-width="2"/>
</svg>
