<svg xmlns="http://www.w3.org/2000/svg" viewBox="0 0 713.2 104.71"><defs><style>.cls-1{fill:#1da9e1;}.cls-2{fill:#fff;}</style></defs><title>Ресурс 1</title><g id="Слой_2" data-name="Слой 2"><g id="Layer_1" data-name="Layer 1"><rect class="cls-1" width="134.68" height="104.71"/><path d="M181.15,66.61h22.6v8.31H172.2V20.53h9Z"/><path d="M241,73.08a24.37,24.37,0,0,1-22.91,0,21,21,0,0,1-8-7.89A22,22,0,0,1,207.09,54,22.11,22.11,0,0,1,210,42.66a20.89,20.89,0,0,1,8-7.87,24.52,24.52,0,0,1,22.91,0,20.87,20.87,0,0,1,8,7.89A22,22,0,0,1,251.92,54,21.94,21.94,0,0,1,249,65.19,21,21,0,0,1,241,73.08ZM219.7,63.84A13.66,13.66,0,0,0,243.16,54a13.43,13.43,0,0,0-3.85-9.9,14.36,14.36,0,0,0-19.61,0,13.47,13.47,0,0,0-3.85,9.9A13.43,13.43,0,0,0,219.7,63.84Z"/><path d="M291.89,73.08a24.35,24.35,0,0,1-22.9,0,20.88,20.88,0,0,1-8-7.89A21.94,21.94,0,0,1,258,54,22,22,0,0,1,261,42.66a20.76,20.76,0,0,1,8-7.87,24.5,24.5,0,0,1,22.9,0,20.74,20.74,0,0,1,8,7.89A22,22,0,0,1,302.85,54a21.94,21.94,0,0,1-2.92,11.24A20.88,20.88,0,0,1,291.89,73.08Zm-21.25-9.24a14.34,14.34,0,0,0,19.6,0A13.39,13.39,0,0,0,294.09,54a13.43,13.43,0,0,0-3.85-9.9,14.34,14.34,0,0,0-19.6,0,13.43,13.43,0,0,0-3.85,9.9A13.39,13.39,0,0,0,270.64,63.84Z"/><path d="M339.3,74.92,326.75,57h-5.24v17.9H312.9V18h8.61V49.2h5.31L338.12,33h10.24L334.14,53.11l15.7,21.81Z"/><path d="M356,26.49V17.58h8.91v8.91Zm.15,48.43V33h8.61v42Z"/><path d="M399.18,32a14.72,14.72,0,0,1,11.61,4.9q4.32,4.89,4.32,12.74V74.92H406.5V51.4c0-3.81-.81-6.71-2.44-8.68s-4-3-7.19-3a10.32,10.32,0,0,0-8.1,3.59,13.23,13.23,0,0,0-3.16,9.12V74.92H377V33h6l1.71,5.84a16.29,16.29,0,0,1,6.18-5A19.08,19.08,0,0,1,399.18,32Z"/><path class="cls-1" d="M471.66,75.87a29.09,29.09,0,0,1-11.15-2.13,26.35,26.35,0,0,1-8.88-5.82,26.78,26.78,0,0,1-5.8-8.93,30.83,30.83,0,0,1,0-22.47,27.06,27.06,0,0,1,5.8-9,26.25,26.25,0,0,1,8.88-5.84,29.09,29.09,0,0,1,11.15-2.13,26.53,26.53,0,0,1,16.76,5.54,25.28,25.28,0,0,1,9.26,14.72h-9a16.89,16.89,0,0,0-6.45-8.52,19.43,19.43,0,0,0-24.08,2.43,19.29,19.29,0,0,0-5.35,14,19.24,19.24,0,0,0,5.35,14,18.1,18.1,0,0,0,13.54,5.5A17.84,17.84,0,0,0,482.43,64a17.52,17.52,0,0,0,6.41-9.1h9.06a26.11,26.11,0,0,1-9.27,15.3A26.4,26.4,0,0,1,471.66,75.87Z"/><path class="cls-1" d="M541.63,32.93l6.64,0V74.88h-6.94l-.84-5.08a20.13,20.13,0,0,1-6.79,4.53,23,23,0,0,1-19.57-1.25,20.63,20.63,0,0,1-7.85-7.93,22.59,22.59,0,0,1-2.84-11.24,22.5,22.5,0,0,1,2.84-11.25,20.61,20.61,0,0,1,7.85-7.87A22.27,22.27,0,0,1,525.29,32a22,22,0,0,1,8.49,1.63,19.92,19.92,0,0,1,6.83,4.63ZM516.11,63.75a13.7,13.7,0,0,0,23.51-9.84,13.71,13.71,0,1,0-27.42,0A13.37,13.37,0,0,0,516.11,63.75Z"/><path class="cls-1" d="M586.84,72.28q-4.67,3.66-12.33,3.66T562.21,72a13.5,13.5,0,0,1-4.84-10.43h8.42a6.12,6.12,0,0,0,2.63,5,12.49,12.49,0,0,0,12.27.31,4.52,4.52,0,0,0,2.32-4,3.93,3.93,0,0,0-.55-2,4.82,4.82,0,0,0-1.33-1.46,8.29,8.29,0,0,0-2.2-1,25.34,25.34,0,0,0-2.54-.68l-3-.57-3.07-.57c-.76-.15-1.74-.4-3-.74a16.54,16.54,0,0,1-2.94-1.08A19.7,19.7,0,0,1,562,53.23a7.79,7.79,0,0,1-2.07-2.11,11.46,11.46,0,0,1-1.25-2.83,12.47,12.47,0,0,1-.51-3.67,11.09,11.09,0,0,1,4.49-9.16q4.5-3.51,11.78-3.51t11.7,3.66a12.38,12.38,0,0,1,4.53,9.76h-8.15a5.57,5.57,0,0,0-2.28-4.53,10,10,0,0,0-6-1.57,10.11,10.11,0,0,0-5.65,1.38,4.27,4.27,0,0,0-2.09,3.7,4.06,4.06,0,0,0,.3,1.61,3,3,0,0,0,1.05,1.23,10.91,10.91,0,0,0,1.4.88,9.25,9.25,0,0,0,2,.64l2.15.48c.55.11,1.37.26,2.46.43a44.28,44.28,0,0,1,8.84,2.16,10.51,10.51,0,0,1,6.82,9.75c0,.3,0,.63,0,1A11.77,11.77,0,0,1,586.84,72.28Z"/><path class="cls-1" d="M600.6,26.49V17.58h8.92v8.91Zm.16,48.43V33h8.61v42Z"/><path class="cls-1" d="M643.8,32a14.74,14.74,0,0,1,11.61,4.9q4.32,4.89,4.32,12.74V74.92h-8.61V51.4c0-3.81-.81-6.71-2.45-8.68s-4-3-7.18-3a10.32,10.32,0,0,0-8.1,3.59,13.24,13.24,0,0,0-3.17,9.12V74.92h-8.6V33h6l1.7,5.84a16.4,16.4,0,0,1,6.19-5A19.08,19.08,0,0,1,643.8,32Z"/><path class="cls-1" d="M702.24,73.08a24.35,24.35,0,0,1-22.9,0,20.88,20.88,0,0,1-8-7.89A21.94,21.94,0,0,1,668.38,54a22,22,0,0,1,2.92-11.29,20.76,20.76,0,0,1,8-7.87,24.5,24.5,0,0,1,22.9,0,20.74,20.74,0,0,1,8,7.89A22,22,0,0,1,713.2,54a21.94,21.94,0,0,1-2.92,11.24A20.88,20.88,0,0,1,702.24,73.08ZM681,63.84a14.34,14.34,0,0,0,19.6,0A13.39,13.39,0,0,0,704.44,54a13.43,13.43,0,0,0-3.85-9.9,14.34,14.34,0,0,0-19.6,0,13.43,13.43,0,0,0-3.85,9.9A13.39,13.39,0,0,0,681,63.84Z"/><path class="cls-2" d="M31.42,70.16H55v8.65H22.1V22.18h9.32Z"/><path class="cls-2" d="M86.39,79.8a30.31,30.31,0,0,1-11.61-2.22A26.91,26.91,0,0,1,59.5,62.22a32.08,32.08,0,0,1,0-23.4,28.08,28.08,0,0,1,6-9.34,27.63,27.63,0,0,1,9.24-6.08,30.49,30.49,0,0,1,11.61-2.21A27.66,27.66,0,0,1,103.85,27a26.35,26.35,0,0,1,9.64,15.33h-9.4a17.61,17.61,0,0,0-6.72-8.87,19,19,0,0,0-11-3.22,18.83,18.83,0,0,0-14.1,5.75,20.12,20.12,0,0,0-5.56,14.59q0,8.85,5.56,14.57a18.85,18.85,0,0,0,14.1,5.73A18.6,18.6,0,0,0,97.61,67.4a18.2,18.2,0,0,0,6.67-9.48h9.44A27.12,27.12,0,0,1,86.39,79.8Z"/></g></g></svg>