<svg width="56" height="60" viewBox="0 0 56 60" fill="none" xmlns="http://www.w3.org/2000/svg">
<path d="M54.6194 53.2434H51.966V1.1952C51.966 0.535195 51.4374 0 50.7853 0H5.01486C4.36272 0 3.83411 0.535195 3.83411 1.1952V53.2434H1.18075C0.528611 53.2434 0 53.7786 0 54.4386V58.8048C0 59.4648 0.528611 60 1.18075 60H54.6192C55.2714 60 55.8 59.4648 55.8 58.8048V54.4386C55.8001 53.7785 55.2715 53.2434 54.6194 53.2434ZM6.19561 2.39039H49.6044V53.2434H6.19561V2.39039ZM53.4385 57.6096H2.36162V55.6339H53.4386V57.6096H53.4385Z" fill="#494949"/>
<path d="M25.7422 4.72949H9.32723C8.6751 4.72949 8.14648 5.26469 8.14648 5.92469V49.9505C8.14648 50.6105 8.6751 51.1457 9.32723 51.1457H25.7422C26.3943 51.1457 26.923 50.6105 26.923 49.9505V5.9248C26.923 5.2648 26.3943 4.72949 25.7422 4.72949ZM10.508 7.12H22.0668C21.6897 14.3143 19.8081 32.3792 10.508 42.334V7.12ZM10.508 48.7553V45.655C15.5984 41.1121 19.4044 34.0773 21.8237 24.7325C23.6325 17.746 24.2341 11.0645 24.4319 7.12H24.5613V48.7553H10.508Z" fill="#494949"/>
<path d="M18.4972 9.12109C17.845 9.12109 17.3164 9.65629 17.3164 10.3163V13.9547C17.3164 14.6147 17.845 15.1499 18.4972 15.1499C19.1493 15.1499 19.6779 14.6147 19.6779 13.9547V10.3163C19.678 9.65629 19.1492 9.12109 18.4972 9.12109Z" fill="#494949"/>
<path d="M14.1808 9C13.5286 9 13 9.53519 13 10.1952V25.8407C13 26.5007 13.5286 27.0359 14.1808 27.0359C14.8329 27.0359 15.3615 26.5007 15.3615 25.8407V10.1952C15.3615 9.53519 14.8329 9 14.1808 9Z" fill="#494949"/>
<path d="M46.4707 4.72949H30.0558C29.4036 4.72949 28.875 5.26469 28.875 5.92469V49.9505C28.875 50.6105 29.4036 51.1457 30.0558 51.1457H46.4707C47.1229 51.1457 47.6515 50.6105 47.6515 49.9505V5.9248C47.6515 5.2648 47.1229 4.72949 46.4707 4.72949ZM45.2899 48.7553H31.2365V7.12H31.3659C31.5638 11.0645 32.1655 17.746 33.9741 24.7325C36.3935 34.0772 40.1995 41.112 45.2899 45.655V48.7553ZM45.29 42.334C35.9898 32.3792 34.1082 14.3143 33.7311 7.12H45.29V42.334Z" fill="#494949"/>
<path d="M43.6334 25.1566C43.6334 25.8083 43.1051 26.3366 42.4534 26.3366C41.8017 26.3366 41.2734 25.8083 41.2734 25.1566C41.2734 24.5049 41.8017 23.9766 42.4534 23.9766C43.1051 23.9766 43.6334 24.5049 43.6334 25.1566Z" fill="#494949"/>
<path d="M38.1456 9.12109C37.4935 9.12109 36.9648 9.65629 36.9648 10.3163V13.9547C36.9648 14.6147 37.4935 15.1499 38.1456 15.1499C38.7977 15.1499 39.3263 14.6147 39.3263 13.9547V10.3163C39.3263 9.65629 38.7977 9.12109 38.1456 9.12109Z" fill="#494949"/>
<path d="M42.4581 9C41.806 9 41.2773 9.53519 41.2773 10.1952V21.3532C41.2773 22.0132 41.806 22.5484 42.4581 22.5484C43.1102 22.5484 43.6388 22.0132 43.6388 21.3532V10.1952C43.6388 9.53519 43.1102 9 42.4581 9Z" fill="#494949"/>
</svg>
