<svg width="60" height="57" viewBox="0 0 60 57" fill="none" xmlns="http://www.w3.org/2000/svg">
<path d="M59.9413 50.1473L52.9294 22.9767C52.7958 22.4593 52.3291 22.0977 51.7947 22.0977H46.406V16.0992C48.6061 15.57 50.2464 13.5871 50.2464 11.2273C50.2464 8.92441 48.6847 6.98062 46.565 6.39609C46.5695 6.3007 46.5744 6.20519 46.5744 6.10933C46.5744 2.74066 43.834 0 40.4655 0C39.395 0 38.3391 0.283125 37.4113 0.818555C36.8508 1.14211 36.6586 1.85883 36.9822 2.41922C37.3057 2.97973 38.0222 3.17191 38.5828 2.84836C39.1548 2.51824 39.8058 2.34363 40.4654 2.34363C42.5415 2.34363 44.2307 4.03289 44.2307 6.10933C44.2307 6.17953 44.2277 6.24961 44.2238 6.31957C43.6999 6.4275 43.1941 6.61793 42.7282 6.88711C42.1678 7.2109 41.9759 7.92762 42.2997 8.48789C42.6233 9.04816 43.3398 9.24023 43.9006 8.91644C44.3053 8.68266 44.7663 8.55902 45.234 8.55902C45.2343 8.55902 45.2346 8.55902 45.2348 8.55902C45.2348 8.55902 45.2352 8.55902 45.2354 8.55902C46.7064 8.55972 47.9026 9.75644 47.9026 11.2273C47.9026 12.6973 46.7072 13.8935 45.2372 13.8952C45.2361 13.8952 45.2352 13.895 45.2343 13.895H39.0739C36.8393 13.8901 35.0227 12.071 35.0227 9.83519C35.0227 9.47918 35.0692 9.12597 35.1607 8.78531C35.329 8.16035 34.9584 7.51734 34.3335 7.3493C33.7082 7.18137 33.0656 7.55156 32.8975 8.17652C32.7524 8.71558 32.6789 9.27363 32.6789 9.83508C32.6789 9.84844 32.6798 9.86156 32.68 9.87492C32.2378 10.1814 31.7146 10.3479 31.1647 10.3479C29.6936 10.3479 28.4967 9.15094 28.4967 7.67988C28.4967 7.44644 28.5273 7.21406 28.5874 6.98953C28.7552 6.36445 28.3843 5.72168 27.7593 5.55398C27.1341 5.38629 26.4914 5.75719 26.3239 6.38226C26.2105 6.80484 26.1531 7.24148 26.1531 7.67988C26.1531 10.4434 28.4013 12.6915 31.1647 12.6915C31.8643 12.6915 32.5413 12.548 33.1638 12.2771C33.9441 14.1608 35.5979 15.593 37.6178 16.0677V22.0977H8.20313C7.66876 22.0977 7.202 22.4592 7.0684 22.9767L0.0371555 50.2221C-0.0533132 50.5731 0.0234445 50.9461 0.245398 51.2326C0.467351 51.5191 0.809421 51.6868 1.17176 51.6868H3.19137V55.2026C3.19137 55.8498 3.71614 56.3744 4.36325 56.3744H55.6339C56.2811 56.3744 56.8058 55.8498 56.8058 55.2026V51.6868H58.8258C58.8264 51.6867 58.8272 51.6867 58.8281 51.6868C59.4753 51.6868 60 51.1622 60 50.515C60.0001 50.3866 59.9796 50.263 59.9413 50.1473ZM46.4061 24.4414H50.8871L52.0968 29.1284H46.4062V24.4414H46.4061ZM39.9614 23.2697V16.2388H44.0625V23.2697V31.1797H39.9614V23.2697ZM9.11098 24.4414H37.6178V29.1284H20.9673H14.9869C14.3398 29.1284 13.815 29.653 13.815 30.3002C13.815 30.9475 14.3398 31.4721 14.9869 31.4721H20.9673H37.6178V32.3516C37.6178 32.9988 38.1425 33.5235 38.7896 33.5235H45.2344C45.8816 33.5235 46.4062 32.9988 46.4062 32.3516V31.4721H52.7016L53.9113 36.1594H6.08684L9.11098 24.4414ZM5.53524 54.0307V51.6868H54.4623V54.0307H5.53524ZM55.6343 49.3432H4.36348H2.68454L3.66762 45.5339H42.8179H48.798C49.4452 45.5339 49.9699 45.0093 49.9699 44.362C49.9699 43.7148 49.4452 43.1902 48.798 43.1902H42.8179H4.27255L5.48215 38.503H54.5161L57.3136 49.3431H55.6343V49.3432Z" fill="#494949"/>
</svg>
