<svg width="55" height="55" viewBox="0 0 55 55" fill="none" xmlns="http://www.w3.org/2000/svg">
<path d="M47.9104 24.9944L49.4545 26.1895C49.8821 26.5201 50.4893 26.4815 50.8716 26.0993L54.6859 22.2833C54.9037 22.0651 55.0174 21.7634 54.9981 21.4558C54.9784 21.1478 54.8273 20.8633 54.5835 20.6744L48.027 15.6004V5.80069C48.027 5.20735 47.5461 4.72647 46.9528 4.72647H40.9371C40.3438 4.72647 39.8629 5.20735 39.8629 5.80069V9.28267L28.1577 0.22439C27.7704 -0.0747968 27.2299 -0.0747968 26.8426 0.22439L0.416787 20.674C0.172989 20.8629 0.0219269 21.1469 0.00220481 21.4549C-0.0175171 21.7625 0.0957795 22.0638 0.313561 22.282L4.12159 26.1026C4.32972 26.312 4.60541 26.4186 4.88278 26.4186C5.11315 26.4186 5.34519 26.3447 5.5399 26.1941L7.08996 24.9944V47.6907H4.72668C4.13334 47.6907 3.65246 48.1716 3.65246 48.7649V53.9258C3.65246 54.5191 4.13334 55 4.72668 55H50.2736C50.867 55 51.3479 54.5191 51.3479 53.9258V48.7649C51.3479 48.1716 50.867 47.6907 50.2736 47.6907H47.9104V41.6205C47.9104 41.0272 47.4295 40.5463 46.8361 40.5463C46.2428 40.5463 45.7619 41.0272 45.7619 41.6205V47.6907H9.23841V23.3319L27.5002 9.20001L45.7619 23.3319V33.0267C45.7619 33.6201 46.2428 34.101 46.8361 34.101C47.4295 34.101 47.9104 33.6201 47.9104 33.0267V24.9944ZM49.1994 49.8391V52.8516H5.8009V49.8391H49.1994ZM42.0114 6.87491H45.8786V13.9379L42.0114 10.9452V6.87491ZM26.8426 6.99198L4.97425 23.9152L2.69489 21.6278L27.5002 2.43242L52.3042 21.627L50.021 23.9114L28.1577 6.99198C27.7704 6.69279 27.2299 6.69279 26.8426 6.99198Z" fill="#494949"/>
</svg>
