<svg width="60" height="51" viewBox="0 0 60 51" fill="none" xmlns="http://www.w3.org/2000/svg">
<path d="M58.751 40.3836H56.6614V29.3791H58.8281C59.296 29.3791 59.7192 29.1007 59.9043 28.671C60.0895 28.2411 60.0013 27.7424 59.6797 27.4023L55.8393 23.339V13.3578C55.8393 12.7106 55.3147 12.186 54.6675 12.186H49.6922C49.0449 12.186 48.5203 12.7106 48.5203 13.3578V15.5951L44.4979 11.3392C44.2766 11.105 43.9685 10.9723 43.6462 10.9723C43.324 10.9723 43.0159 11.105 42.7946 11.3392L27.6126 27.4023C27.2912 27.7424 27.2028 28.2411 27.388 28.671C27.5731 29.1007 27.9963 29.3791 28.4642 29.3791H30.6309V35.3854C29.0273 33.1311 26.3812 31.656 23.3942 31.656C23.1501 31.656 22.9077 31.6658 22.6672 31.6851V27.7275C27.5724 27.1461 31.3892 22.9617 31.3892 17.9026C31.3892 15.2642 30.3365 12.7461 28.4798 10.895C28.5101 10.6293 28.5253 10.3614 28.5253 10.0932C28.5253 6.21691 25.3717 3.06328 21.4953 3.06328C17.6189 3.06328 14.4653 6.21691 14.4653 10.0932C14.4653 10.3612 14.4805 10.6291 14.5107 10.895C14.3129 11.0923 14.1244 11.297 13.9451 11.5086V6.97254C13.9451 3.12785 10.8172 0 6.97242 0C3.12762 0 0 3.12797 0 6.97277V18.2326C0 21.6782 2.51203 24.5478 5.80078 25.1067V32.037C5.02675 32.2738 4.28847 32.6188 3.60082 33.067C3.0375 32.812 2.42555 32.6797 1.79473 32.6797C1.50949 32.6797 1.22379 32.7074 0.945937 32.762C0.396328 32.8701 0 33.3519 0 33.9119V49.065C0 49.7122 0.524648 50.2368 1.17187 50.2368H58.751C59.3982 50.2368 59.9229 49.7122 59.9229 49.065V41.5555C59.9229 40.9084 59.3982 40.3836 58.751 40.3836ZM50.864 14.5296H53.4957V20.8591L50.864 18.0748V14.5296ZM43.6462 13.8501L56.1081 27.0354H53.7617L44.4929 17.35C44.2719 17.119 43.966 16.9883 43.6462 16.9883C43.3265 16.9883 43.0207 17.119 42.7995 17.35L33.5306 27.0354H31.1843L43.6462 13.8501ZM51.477 30.4766H46.0275C45.3802 30.4766 44.8556 31.0013 44.8556 31.6485V40.3836H32.9748V29.3791H34.0313C34.0414 29.3791 34.0514 29.379 34.0615 29.3788C34.3178 29.3723 34.5535 29.2835 34.7435 29.1379L34.7467 29.1355C34.753 29.1307 34.7592 29.1258 34.7653 29.1208C34.7671 29.1194 34.7688 29.118 34.7706 29.1166C34.776 29.1122 34.7812 29.1078 34.7866 29.1033C34.7891 29.1013 34.7914 29.0992 34.7939 29.0972C34.7986 29.0932 34.8031 29.0891 34.8078 29.085C34.8106 29.0825 34.8135 29.0801 34.8162 29.0776C34.8203 29.0739 34.8244 29.0701 34.8285 29.0663C34.8316 29.0634 34.8348 29.0605 34.8378 29.0576C34.8417 29.0539 34.8454 29.0502 34.8492 29.0465C34.8524 29.0435 34.8554 29.0406 34.8585 29.0375C34.8624 29.0335 34.8664 29.0294 34.8703 29.0255C34.8728 29.0229 34.8753 29.0203 34.8779 29.0177L43.6462 19.8553L52.4145 29.0177C52.417 29.0203 52.4196 29.0229 52.4222 29.0255C52.4261 29.0294 52.43 29.0335 52.434 29.0375C52.437 29.0406 52.4402 29.0436 52.4432 29.0465C52.447 29.0503 52.4509 29.0539 52.4547 29.0576C52.4579 29.0605 52.4609 29.0634 52.4641 29.0663C52.4682 29.0701 52.4723 29.0739 52.4764 29.0776C52.4791 29.0801 52.4819 29.0825 52.4847 29.085C52.4893 29.0891 52.494 29.0932 52.4987 29.0972C52.501 29.0993 52.5035 29.1013 52.5059 29.1033C52.5112 29.1077 52.5166 29.1122 52.522 29.1166C52.5238 29.118 52.5255 29.1194 52.5273 29.1208C52.5335 29.1258 52.5397 29.1307 52.5459 29.1355L52.5491 29.1379C52.739 29.2835 52.9748 29.3723 53.2311 29.3788C53.2411 29.379 53.2511 29.3791 53.2612 29.3791H54.3178V40.3836H52.649V31.6485C52.6489 31.0013 52.1243 30.4766 51.477 30.4766ZM50.3052 32.8203V40.3836H47.1993V32.8203H50.3052ZM16.5371 12.2085C16.8582 11.9285 17.0021 11.4966 16.9131 11.08C16.8442 10.7578 16.8092 10.4258 16.8092 10.0932C16.8092 7.50925 18.9115 5.40703 21.4956 5.40703C24.0797 5.40703 26.1818 7.50925 26.1818 10.0932C26.1818 10.426 26.1469 10.758 26.078 11.0798C25.9888 11.4964 26.1327 11.9285 26.4538 12.2085C28.101 13.6442 29.0456 15.7196 29.0456 17.9026C29.0456 21.6673 26.276 24.7972 22.6673 25.3619V21.5176C22.7478 21.4692 22.8238 21.4105 22.8932 21.3411L26.0281 18.2061C26.4858 17.7485 26.4858 17.0065 26.0281 16.5487C25.5705 16.0912 24.8285 16.0912 24.3708 16.5487L22.6672 18.2523V13.3629C22.6672 12.7158 22.1426 12.191 21.4953 12.191C20.8481 12.191 20.3235 12.7158 20.3235 13.3629V18.2524L18.6199 16.5489C18.1623 16.0914 17.4203 16.0914 16.9625 16.5489C16.5049 17.0065 16.5049 17.7485 16.9625 18.2062L20.0975 21.3412C20.1669 21.4106 20.243 21.4694 20.3235 21.5178V25.3622C16.715 24.7972 13.9453 21.6673 13.9453 17.9026C13.9453 15.7196 14.89 13.6442 16.5371 12.2085ZM12.6333 22.2996C14.0892 25.222 16.9488 27.3274 20.3236 27.7275V32.205C19.7287 32.4272 19.1578 32.7153 18.618 33.0671C18.0547 32.8121 17.4426 32.6798 16.8119 32.6798C15.7794 32.6798 14.7859 33.048 14.0048 33.6961C12.4297 32.3745 10.4624 31.656 8.37691 31.656C8.29921 31.656 8.22175 31.657 8.14441 31.659V25.1067H8.14453C9.98578 24.7938 11.5835 23.7566 12.6333 22.2996ZM2.34375 18.2326V6.97277C2.34375 4.42043 4.42031 2.34387 6.97265 2.34387C9.52499 2.34387 11.6016 4.42019 11.6016 6.97265V18.2326C11.6016 20.3803 10.1313 22.191 8.14453 22.7112V16.515L10.5436 14.116C11.0012 13.6584 11.0013 12.9164 10.5436 12.4587C10.086 12.0013 9.34394 12.0012 8.88632 12.4587L8.14453 13.2005V5.96906C8.14453 5.32195 7.61988 4.79718 6.97265 4.79718C6.32543 4.79718 5.80078 5.32195 5.80078 5.96906V11.4341L5.05898 10.6923C4.60136 10.2348 3.85933 10.2348 3.4016 10.6923C2.94398 11.1499 2.94398 11.8919 3.4016 12.3497L5.80078 14.7489V16.7106L5.05898 15.9688C4.60136 15.5113 3.85933 15.5113 3.40172 15.9688C2.9441 16.4264 2.9441 17.1684 3.40172 17.6262L5.80078 20.025V22.7112C3.81398 22.1908 2.34375 20.3802 2.34375 18.2326ZM2.34375 35.0977C2.57355 35.1615 2.79105 35.2657 2.98828 35.4076C3.4125 35.713 3.98765 35.7006 4.39828 35.377C5.54168 34.476 6.91757 33.9997 8.37703 33.9997C10.1279 33.9997 11.7651 34.6906 12.9871 35.9454C13.1875 36.1511 13.4564 36.2762 13.7429 36.2967C13.8245 36.3026 13.9063 36.3133 13.986 36.3287C14.4326 36.4151 14.8884 36.2354 15.156 35.8677C15.5407 35.339 16.1598 35.0236 16.8121 35.0236C17.2439 35.0236 17.6567 35.1563 18.0057 35.4076C18.43 35.7129 19.005 35.7004 19.4157 35.3769C20.5591 34.4758 21.9349 33.9996 23.3945 33.9996C26.9653 33.9996 29.8735 36.8587 29.9012 40.3836H2.34375V35.0977ZM57.5791 47.8931H2.34375V42.7274H57.5791V47.8931Z" fill="#494949"/>
</svg>
