<svg width="47" height="60" viewBox="0 0 47 60" fill="none" xmlns="http://www.w3.org/2000/svg">
<path d="M42.1008 22.0455C42.1271 21.6296 42.3746 21.2557 42.7467 21.0696L44.9311 19.9774C46.1302 19.378 46.875 18.1731 46.875 16.8328V13.5938C46.875 12.9465 46.3504 12.4219 45.7031 12.4219H42.1875V10.5469C42.1875 7.31602 39.559 4.6875 36.3281 4.6875H30.0673C29.0886 1.92188 26.4394 0 23.4375 0C20.4356 0 17.7864 1.92188 16.8077 4.6875H10.5469C7.31602 4.6875 4.6875 7.31602 4.6875 10.5469V12.4219H1.17188C0.524648 12.4219 0 12.9465 0 13.5938V16.8328C0 18.1731 0.744843 19.378 1.94391 19.9774L4.12828 21.0696C4.50035 21.2556 4.74797 21.6296 4.7741 22.0431L6.89648 56.704C7.01215 58.5523 8.5534 60 10.4051 60H36.4699C38.3216 60 39.8629 58.5523 39.9786 56.7025C40.0711 55.1929 41.9246 24.9223 42.1008 22.0455ZM23.4375 2.34375C25.1425 2.34375 26.6761 3.27328 27.4966 4.6875H19.3785C20.1989 3.27328 21.7325 2.34375 23.4375 2.34375ZM7.03125 10.5469C7.03125 8.60836 8.60836 7.03125 10.5469 7.03125C14.0779 7.03125 33.9723 7.03125 36.3281 7.03125C38.2666 7.03125 39.8438 8.60836 39.8438 10.5469V12.4219H7.03125V10.5469ZM36.4699 57.6562H10.4051C9.78785 57.6562 9.27422 57.1737 9.23566 56.5593L9.01582 52.9688C10.0363 52.9688 36.3088 52.9688 37.8589 52.9688L37.6393 56.5576C37.6008 57.1737 37.0871 57.6562 36.4699 57.6562ZM39.7615 21.8999L38.0025 50.625H33.1652L34.9936 20.6965C35.0331 20.0504 34.5414 19.4948 33.8953 19.4554C33.2496 19.4168 32.6937 19.9076 32.6542 20.5536L30.817 50.625H24.6094V25.3125C24.6094 24.6653 24.0847 24.1406 23.4375 24.1406C22.7903 24.1406 22.2656 24.6653 22.2656 25.3125V50.625H16.058L14.2209 20.5535C14.1814 19.9076 13.6279 19.416 12.9798 19.4552C12.3337 19.4947 11.8421 20.0504 11.8815 20.6964L13.7099 50.625H8.87238L7.11328 21.8974C7.03441 20.6517 6.29227 19.5312 5.17641 18.9732L2.99191 17.8811C2.59219 17.6811 2.34375 17.2795 2.34375 16.8328V14.7656H44.5312V16.8328C44.5312 17.2795 44.2828 17.6811 43.883 17.8811L41.6986 18.9732C40.5827 19.5313 39.8406 20.6517 39.7615 21.8999Z" fill="#494949"/>
</svg>
