<svg xmlns="http://www.w3.org/2000/svg" width="1920" height="211" viewBox="0 0 1920 211">
    <g fill="none" fill-rule="evenodd">
        <path fill="#1E2539" d="M0 46.664C308.057.018 543.518-11.643 706.383 11.68c244.297 34.984 437.265 69.968 654.258 34.984 144.661-23.323 331.114-23.323 559.359 0V211H0V46.664z"/>
        <path fill="#14839A" d="M0 47.313C162.667 20.375 322.613 4.876 479.84.816c-48.628 0-120.922 11.47-216.883 34.407C166.997 58.16 79.344 88.576 0 126.469V47.313zM613.76 2.466c41.89 3.514 108.058 11.66 198.502 24.44 193.47 27.339 303.406 38.827 452.388 31.166-.63.194-1.272.389-1.927.584-159.36 47.52-205.453 32.89-407.016-11.715C721.332 17.204 622.638 2.168 559.625 1.832c18.393.198 36.438.41 54.134.634zM1919.443 101.639c-42.243-26.31-92.152-48.374-149.728-66.195l-2.493-1.102c-1.441-.061 9.14.554 31.744 1.847 22.603 1.293 62.948 4.795 121.034 10.504v55.192l-.557-.246z"/>
    </g>
</svg>
