<svg xmlns="http://www.w3.org/2000/svg" width="1920" height="564" viewBox="0 0 1920 564">
    <g fill="none" fill-rule="evenodd">
        <path fill="#1E2539" fill-opacity=".7" stroke="#14839A" d="M1920 145.79V563H0V234.66c253.821-129.95 524.797-105.662 812.928 72.865C1240.685 572.565 1399.676-139.64 1920 145.79z"/>
        <path stroke="#14839A" d="M0 138.382c59.95-5.069 124.95 3.804 195 26.618M825 314c41.268-18.776 114.74-68.948 220.416-150.513C1203.929 41.138 1424.649 24.937 1587 88.364"/>
        <circle cx="1196" cy="337" r="3" fill="#14839A"/>
        <circle cx="1196" cy="195" r="5" fill="#14839A"/>
        <path stroke="#14839A" stroke-linecap="square" d="M1196 337.5v-145"/>
        <circle cx="1416" cy="196" r="3" fill="#14839A"/>
        <circle cx="1416" cy="86" r="5" fill="#14839A"/>
        <path stroke="#14839A" stroke-linecap="square" d="M1416 195V85"/>
        <circle cx="1316" cy="260" r="3" fill="#14839A"/>
        <circle cx="1316" cy="5" r="5" fill="#14839A"/>
        <path stroke="#14839A" stroke-linecap="square" d="M1316 256.945V5"/>
    </g>
</svg>
