<svg xmlns="http://www.w3.org/2000/svg" xmlns:xlink="http://www.w3.org/1999/xlink" width="225" height="78" viewBox="0 0 225 78">
    <defs>
        <path id="a" d="M0 .342h62.788V78H0z"/>
        <path id="c" d="M0 78h225V1H0z"/>
    </defs>
    <g fill="none" fill-rule="evenodd">
        <mask id="b" fill="#fff">
            <use xlink:href="#a"/>
        </mask>
        <path fill="#FEFEFE" d="M52.521 59.287V33.489a24.887 24.887 0 0 1 3.578 12.9c0 4.724-1.307 9.138-3.578 12.898m0-36.278V7.703l-7.088 7.077v52.069s-1.871 1.271-3.645 2.1V.343l-7 7.048v7.576a31.5 31.5 0 0 0-3.394-.186C14.055 14.78 0 28.932 0 46.39S14.055 78 31.394 78V27.281l-7.028 7.048v35.909c-10.22-3.05-17.677-12.57-17.677-23.848 0-13.738 11.06-24.876 24.705-24.876 1.152 0 2.284.086 3.394.24V77.814c15.742-1.705 28-15.122 28-31.424A31.624 31.624 0 0 0 52.52 23.01" mask="url(#b)"/>
        <path fill="#FEFEFE" d="M81 45V25h4.12v16.498H93V45zM103.218 33.808c-.88 0-1.569.266-2.066.796-.499.53-.784 1.284-.857 2.259h5.818c-.019-.975-.286-1.728-.802-2.259-.517-.53-1.215-.796-2.093-.796M103.802 46c-2.447 0-4.359-.643-5.736-1.929C96.688 42.786 96 40.965 96 38.61c0-2.425.637-4.299 1.91-5.623 1.273-1.325 3.033-1.987 5.28-1.987 2.148 0 3.82.582 5.016 1.747 1.196 1.165 1.794 2.774 1.794 4.827v1.916h-9.8c.046 1.121.394 1.997 1.047 2.627.652.63 1.567.945 2.745.945.916 0 1.781-.09 2.597-.272a13.42 13.42 0 0 0 2.555-.867v3.054c-.726.345-1.5.602-2.324.77-.825.169-1.831.253-3.018.253M116.485 46L111 31h4.107l2.781 8.546c.31 1.083.503 2.107.58 3.073h.077c.043-.859.236-1.883.58-3.073L121.893 31H126l-5.485 15h-4.03zM135.218 33.808c-.88 0-1.569.266-2.066.796-.499.53-.784 1.284-.857 2.259h5.818c-.019-.975-.286-1.728-.802-2.259-.517-.53-1.215-.796-2.093-.796M135.802 46c-2.447 0-4.359-.643-5.736-1.929-1.378-1.285-2.066-3.106-2.066-5.461 0-2.425.637-4.299 1.91-5.623 1.273-1.325 3.033-1.987 5.28-1.987 2.148 0 3.82.582 5.016 1.747 1.196 1.165 1.794 2.774 1.794 4.827v1.916h-9.8c.046 1.121.394 1.997 1.047 2.627.652.63 1.567.945 2.745.945.916 0 1.781-.09 2.597-.272a13.42 13.42 0 0 0 2.555-.867v3.054c-.726.345-1.5.602-2.324.77-.825.169-1.831.253-3.018.253"/>
        <mask id="d" fill="#fff">
            <use xlink:href="#c"/>
        </mask>
        <path fill="#FEFEFE" d="M145 46h4V24h-4zM173 40.048c0 1.844-.648 3.297-1.944 4.36-1.296 1.061-3.099 1.592-5.409 1.592-2.127 0-4.01-.41-5.647-1.23v-4.023c1.346.615 2.485 1.048 3.417 1.299.932.252 1.785.377 2.558.377.927 0 1.64-.181 2.135-.544.496-.364.743-.904.743-1.622 0-.4-.11-.756-.327-1.068-.218-.312-.54-.613-.962-.901-.423-.29-1.285-.75-2.585-1.384-1.219-.586-2.133-1.15-2.742-1.69a6.32 6.32 0 0 1-1.46-1.887c-.363-.717-.545-1.555-.545-2.514 0-1.807.598-3.228 1.794-4.262 1.196-1.034 2.849-1.551 4.958-1.551 1.037 0 2.026.126 2.967.377.942.252 1.926.606 2.954 1.062l-1.365 3.367c-1.064-.447-1.944-.758-2.64-.935a8.286 8.286 0 0 0-2.052-.266c-.8 0-1.414.19-1.842.573-.427.382-.64.88-.64 1.495 0 .382.086.715.258.999.173.284.448.559.826.824.377.266 1.27.743 2.68 1.432 1.864.913 3.142 1.828 3.833 2.746.692.918 1.037 2.042 1.037 3.374M185.05 38.049l-1.54.052c-1.156.034-2.016.24-2.581.62-.565.379-.848.956-.848 1.731 0 1.111.643 1.667 1.93 1.667.921 0 1.658-.263 2.21-.789.552-.525.828-1.222.828-2.092v-1.189zm1.173 6.693l-.77-1.964h-.104c-.67.835-1.358 1.415-2.067 1.737-.708.324-1.632.485-2.77.485-1.4 0-2.502-.396-3.306-1.189-.804-.792-1.206-1.92-1.206-3.385 0-1.533.541-2.663 1.623-3.391 1.083-.728 2.715-1.13 4.896-1.208l2.53-.078v-.633c0-1.464-.756-2.196-2.269-2.196-1.165 0-2.534.349-4.107 1.046l-1.317-2.661c1.678-.87 3.538-1.305 5.58-1.305 1.956 0 3.456.422 4.5 1.266 1.042.844 1.564 2.127 1.564 3.85v9.626h-2.777zM207 45h-4.138v-8.6c0-1.062-.194-1.859-.583-2.39-.389-.531-1.008-.797-1.859-.797-1.157 0-1.994.376-2.51 1.126-.515.75-.773 1.996-.773 3.734V45H193V30.276h3.16l.557 1.884h.23a4.334 4.334 0 0 1 1.906-1.613c.81-.365 1.73-.547 2.761-.547 1.764 0 3.102.463 4.016 1.39.913.925 1.37 2.262 1.37 4.01V45zM218.087 42.608c1.045 0 1.811-.316 2.298-.95.487-.632.752-1.707.797-3.224v-.46c0-1.676-.248-2.876-.743-3.602-.496-.726-1.302-1.089-2.419-1.089-.911 0-1.619.402-2.123 1.208-.505.804-.757 1.975-.757 3.51 0 1.536.254 2.688.764 3.455.509.768 1.237 1.152 2.183 1.152M216.654 46c-1.76 0-3.142-.712-4.147-2.136-1.004-1.424-1.507-3.396-1.507-5.918 0-2.56.511-4.554 1.534-5.982 1.023-1.429 2.432-2.143 4.227-2.143 1.884 0 3.322.763 4.314 2.29h.134c-.206-1.164-.309-2.201-.309-3.113V24h4.1v21.72h-3.135l-.79-2.023h-.175c-.928 1.535-2.344 2.303-4.246 2.303M82.284 60.082h1.155c1.138 0 1.96-.2 2.47-.6.508-.399.762-1.039.762-1.92 0-.793-.24-1.384-.718-1.773-.478-.388-1.223-.582-2.235-.582h-1.434v4.875zM88 57.496c0 1.215-.381 2.15-1.144 2.804-.763.653-1.854.98-3.274.98h-1.298V66H81V54h2.862C86.62 54 88 55.165 88 57.496zM94.034 64.913c.823 0 1.47-.225 1.94-.675.469-.45.704-1.08.704-1.889v-.786l-1.322.056c-1.051.037-1.809.2-2.274.488-.464.289-.697.737-.697 1.346 0 .475.145.838.434 1.087.29.249.695.373 1.215.373zm2.987.929l-.263-1.239h-.064c-.436.545-.87.914-1.302 1.108-.433.192-.973.289-1.62.289-.866 0-1.544-.222-2.035-.666-.491-.445-.737-1.077-.737-1.898 0-1.756 1.41-2.677 4.229-2.762l1.48-.047v-.54c0-.682-.147-1.186-.441-1.512-.295-.325-.766-.488-1.413-.488-.728 0-1.55.222-2.47.667l-.406-1.008c.43-.233.902-.415 1.414-.548a6.142 6.142 0 0 1 1.54-.198c1.041 0 1.813.23 2.314.69.502.46.753 1.199.753 2.215v5.937h-.98zM104.962 57c.385 0 .731.032 1.038.097l-.183 1.242a4.398 4.398 0 0 0-.95-.121c-.703 0-1.304.29-1.803.87-.499.581-.749 1.305-.749 2.17V66H101v-8.839h1.085l.151 1.637h.064c.322-.575.71-1.019 1.164-1.33a2.589 2.589 0 0 1 1.498-.468M110.844 64.9c.226 0 .445-.017.655-.052.21-.035.377-.071.501-.109v1.02c-.139.07-.343.127-.613.173-.27.045-.512.068-.728.068-1.633 0-2.45-.897-2.45-2.69v-5.235H107v-.642l1.21-.554.539-1.879h.74v2.04h2.45v1.035h-2.45v5.179c0 .53.12.937.361 1.22.242.284.573.426.994.426M118.731 66v-5.718c0-.72-.155-1.258-.466-1.613-.31-.355-.797-.532-1.46-.532-.875 0-1.517.25-1.925.75-.408.5-.611 1.325-.611 2.476V66H113v-8.839h1.032l.206 1.21h.061a2.64 2.64 0 0 1 1.093-1.012 3.399 3.399 0 0 1 1.567-.359c1.008 0 1.767.256 2.277.77.51.514.764 1.335.764 2.464V66h-1.269zM126.617 58.101c-.664 0-1.194.227-1.59.682-.395.454-.627 1.082-.698 1.885h4.327c0-.83-.176-1.464-.529-1.905-.352-.441-.856-.662-1.51-.662m.34 7.899c-1.224 0-2.189-.39-2.896-1.172-.707-.782-1.061-1.868-1.061-3.257 0-1.4.329-2.511.985-3.335.657-.824 1.54-1.236 2.647-1.236 1.037 0 1.858.358 2.462 1.073.604.716.906 1.66.906 2.833v.832h-5.701c.025 1.02.27 1.793.736 2.321.466.528 1.122.793 1.967.793.891 0 1.772-.196 2.643-.587v1.172a6.382 6.382 0 0 1-1.257.432c-.395.088-.872.131-1.431.131M136.962 57c.385 0 .731.032 1.038.097l-.183 1.242a4.398 4.398 0 0 0-.95-.121c-.703 0-1.304.29-1.803.87-.499.581-.749 1.305-.749 2.17V66H133v-8.839h1.085l.151 1.637h.064c.322-.575.71-1.019 1.164-1.33a2.589 2.589 0 0 1 1.498-.468M146 63.473c0 .808-.293 1.431-.88 1.87-.587.438-1.411.657-2.471.657-1.123 0-1.998-.182-2.626-.546v-1.22c.407.21.843.377 1.309.499.466.12.915.182 1.347.182.67 0 1.185-.11 1.545-.329.36-.22.54-.553.54-1.002 0-.338-.143-.628-.428-.868-.286-.24-.843-.524-1.672-.851-.788-.301-1.347-.564-1.68-.789-.332-.224-.579-.48-.74-.765-.163-.284-.244-.625-.244-1.021 0-.708.28-1.267.842-1.676.56-.41 1.33-.614 2.309-.614.91 0 1.801.19 2.672.57l-.456 1.07c-.85-.36-1.62-.539-2.309-.539-.608 0-1.066.098-1.375.293-.308.196-.463.465-.463.808 0 .233.058.43.174.595.115.163.302.32.56.467.257.148.751.362 1.482.642 1.004.375 1.682.753 2.035 1.133.353.38.529.858.529 1.434" mask="url(#d)"/>
    </g>
</svg>
