<svg xmlns="http://www.w3.org/2000/svg" width="57" height="59" viewBox="0 0 57 59">
    <g fill="#14839A" fill-rule="evenodd">
        <path fill-rule="nonzero" d="M57 30.452c0-7.871-5.362-14.275-11.952-14.275-.353 0-.7.028-1.046.064a17.13 17.13 0 0 0 .127-1.967C44.129 6.404 38.767 0 32.177 0S20.226 6.403 20.226 14.274c0 6.872 4.086 12.621 9.509 13.973l-.843 1.31c-.257.397-.392.86-.392 1.337 0 1.33 1.046 2.412 2.33 2.412h1.347V59h1.84V35.933c1.499 4.288 4.699 7.521 8.589 8.491l-.843 1.31c-.257.397-.392.86-.392 1.338 0 1.329 1.046 2.412 2.33 2.412h.428V59h1.839v-9.516h.427c1.285 0 2.33-1.083 2.33-2.412 0-.478-.134-.94-.39-1.338l-.844-1.31C52.913 43.073 57 37.324 57 30.452zM22.065 14.274c0-6.821 4.537-12.37 10.112-12.37 5.576 0 10.113 5.549 10.113 12.37 0 .795-.072 1.587-.196 2.363-4.104 1.253-7.36 5.038-8.526 9.883-.46.078-.925.125-1.39.125-5.576 0-10.113-5.55-10.113-12.37zm8.274 16.62c0-.1.028-.199.082-.283l1.093-1.694a.788.788 0 0 1 .663-.369c.349 0 .698-.02 1.046-.056a16.957 16.957 0 0 0-.126 1.96c0 .321.023.635.04.951h-2.306a.501.501 0 0 1-.492-.509zm15.374 14.2l1.092 1.695c.055.084.083.18.083.283 0 .28-.222.509-.493.509h-2.693a.501.501 0 0 1-.492-.51c0-.1.028-.198.082-.282l1.093-1.695a.788.788 0 0 1 .663-.368.79.79 0 0 1 .665.368zm-.665-2.271c-5.576 0-10.113-5.55-10.113-12.371 0-6.822 4.537-12.371 10.113-12.371s10.113 5.55 10.113 12.37c0 6.822-4.537 12.372-10.113 12.372z"/>
        <path d="M37.426 26.373l1.739.622c1.037-3.103 3.346-5.108 5.883-5.108v-1.903c-3.332 0-6.325 2.508-7.622 6.389zM36.774 30.452h1.839c0-.587.045-1.172.134-1.74l-1.816-.305a13.37 13.37 0 0 0-.157 2.045zM23.903 14.274h1.839c0-.596.047-1.187.137-1.76l-1.814-.31a13.313 13.313 0 0 0-.162 2.07zM32.177 3.806c-3.305 0-6.288 2.48-7.598 6.318l1.733.634c1.048-3.067 3.35-5.048 5.865-5.048V3.806zM8.274 35.21h1.839v1.903H8.274zM15.629 35.21h1.839v1.903h-1.839zM17.371 41.345l-1.638-.863c-.03.057-.748 1.389-2.862 1.389s-2.832-1.332-2.861-1.39l-1.638.864c.047.1 1.21 2.43 4.499 2.43 3.289 0 4.452-2.33 4.5-2.43z"/>
        <path fill-rule="nonzero" d="M18.501 46.949l-1.709-.393c2.09-1.17 3.639-3.244 4.16-5.713 1.68-.349 2.951-1.888 2.951-3.73 0-.985-.372-1.875-.967-2.551.166-.461 2.01-5.796-.6-9.729-1.715-2.586-4.9-3.898-9.465-3.898-4.565 0-7.75 1.312-9.466 3.9-2.61 3.932-.766 9.267-.6 9.728a3.848 3.848 0 0 0-.966 2.55c0 1.842 1.27 3.381 2.952 3.73.52 2.469 2.068 4.543 4.16 5.713l-1.71.393c-2.078.478-3.79 1.985-4.56 3.98L0 56.886V59h25.742v-2.114l-2.662-5.908c-.79-2.044-2.501-3.55-4.579-4.03zm-7.469.41c.592.14 1.206.222 1.839.222.632 0 1.247-.081 1.839-.221v.696c-.326.201-.935.476-1.839.476-.907 0-1.517-.277-1.839-.475v-.697zm10.113-8.607v-3.277c.547.33.92.938.92 1.639 0 .701-.373 1.307-.92 1.638zM4.925 25.905c1.354-2.035 4.028-3.066 7.946-3.066s6.592 1.031 7.946 3.066c1.763 2.648.883 6.375.521 7.598-.064-.02-.127-.044-.193-.061v-2.039c0-1.645-1.153-4.758-5.516-4.758-2.604 0-3.584 1.556-4.45 2.928-.94 1.493-1.754 2.782-4.744 2.782H4.597v1.087c-.066.017-.129.04-.193.061-.362-1.224-1.242-4.95.521-7.598zM3.677 37.113c0-.701.373-1.309.92-1.639v3.277a1.907 1.907 0 0 1-.92-1.638zm2.758 1.903v-4.758c3.986 0 5.261-2.021 6.284-3.645.784-1.243 1.302-2.065 2.91-2.065 3.525 0 3.672 2.57 3.677 2.855v7.613c0 3.672-2.887 6.661-6.435 6.661-3.548 0-6.436-2.989-6.436-6.66zm12.871 18.08V52.34h-1.838v4.758H8.274v-4.758H6.435v4.758h-4.5l2.434-5.413c.563-1.46 1.786-2.536 3.27-2.877l1.555-.357v.476l.269.279c.121.127 1.25 1.23 3.408 1.23s3.287-1.103 3.408-1.23l.27-.279v-.477l1.553.358c1.484.341 2.707 1.417 3.291 2.926l2.415 5.364h-4.502z"/>
    </g>
</svg>
