<svg xmlns="http://www.w3.org/2000/svg" width="40" height="40" viewBox="0 0 40 40">
    <g fill="#FFF" fill-rule="evenodd">
        <path fill-rule="nonzero" d="M39.556 19.56c.244 10.267-7.823 19.311-18.578 19.8-11 .489-20.045-8.067-20.534-18.822C-.044 10.027 8.267.738 19.022.248c11-.488 20.29 8.067 20.534 19.312zM20 36.67c9.289 0 16.867-7.578 16.867-16.867 0-9.289-7.578-17.11-16.867-17.11-9.289 0-16.867 7.577-16.867 16.866 0 9.533 7.334 17.111 16.867 17.111z"/>
        <path d="M21.295 16.873h3.842l-.144 3.612h-3.705v9.912h-3.786v-9.883h-2.64v-3.627h2.588c.013-.198.03-.343.032-.488.007-1.044-.047-2.092.03-3.13.123-1.648 1.082-3.02 2.726-3.644.956-.364 1.952-.45 2.963-.4.614.03 1.227.08 1.855.123v3.334c-.194.01-.329.023-.463.023-.591 0-1.183-.016-1.774 0a3.51 3.51 0 0 0-.817.116c-.442.119-.68.473-.695.891-.036 1.028-.012 2.059-.012 3.16z"/>
    </g>
</svg>
