<svg width="30" height="30" viewBox="0 0 30 30" fill="none" xmlns="http://www.w3.org/2000/svg">
<path d="M15 0.9375C7.23352 0.9375 0.9375 7.23352 0.9375 15C0.9375 22.7665 7.23352 29.0625 15 29.0625C22.7665 29.0625 29.0625 22.7665 29.0625 15C29.0625 7.23352 22.7665 0.9375 15 0.9375ZM10.2567 26.2305C7.28022 24.97 4.92547 22.5801 3.70925 19.5853C2.49303 16.5905 2.5147 13.2355 3.76951 10.2567C3.82928 10.1159 3.8918 9.97633 3.95701 9.83801L7.03125 12.605V16.3102L11.5488 21.0938H13.8281V23.9676L11.0712 26.5407C10.7969 26.4472 10.5254 26.3438 10.2567 26.2305ZM23.6179 23.6179C22.4876 24.7515 21.1443 25.6505 19.6653 26.2631C18.1864 26.8757 16.6008 27.1899 15 27.1875C14.4173 27.1876 13.8353 27.1463 13.2585 27.064L15.7031 24.7824V19.2188H12.3574L8.90625 15.5648V11.77L4.9043 8.16844C6.22838 6.21812 8.08661 4.69084 10.2564 3.76951C12.1131 2.98409 14.1358 2.67199 16.1429 2.86125C18.15 3.05051 20.0787 3.7352 21.7559 4.85385L19.0861 8.28639L19.9937 10.5554L19.3794 11.1698L14.7728 10.2485L12.1875 12.1875V17.3438H22.5L25.4499 21.2769C24.937 22.129 24.3217 22.9152 23.6179 23.6179ZM27.1875 15C27.1902 16.4994 26.9146 17.9862 26.3746 19.385L23.4375 15.4688H14.0625V13.125L15.2272 12.2515L19.9956 13.2052L22.1938 11.0071L21.2264 8.58861L23.2303 6.01184C23.3616 6.1323 23.4907 6.25574 23.6176 6.38215C24.7513 7.5124 25.6504 8.85565 26.263 10.3346C26.8757 11.8136 27.1899 13.3991 27.1875 15Z" fill="#393969" fill-opacity="0.4"/>
</svg>
