<svg xmlns="http://www.w3.org/2000/svg" width="43.52" height="27.24" viewBox="0 0 43.52 27.24"><defs><style>.cls-1{isolation:isolate;}.cls-2{fill:#22ace7;}</style></defs><title>Ресурс 9</title><g id="Слой_2" data-name="Слой 2"><g id="Shape_553" data-name="Shape 553" class="cls-1"><g id="Shape_553-2" data-name="Shape 553"><path class="cls-2" d="M38.61,21.94a2.42,2.42,0,0,1-3.61,0,7.88,7.88,0,0,0-11.73-.05,2.38,2.38,0,0,1-1.79.8,2.43,2.43,0,0,1-1.8-.8A7.88,7.88,0,0,0,8,21.89a2.41,2.41,0,0,1-3.59,0A7.81,7.81,0,0,0,0,19.45v4.68a2.93,2.93,0,0,1,1,.75,7,7,0,0,0,10.39,0,3.28,3.28,0,0,1,4.88,0,7,7,0,0,0,10.39,0,3.27,3.27,0,0,1,2.45-1.09,3.23,3.23,0,0,1,2.46,1.11A7,7,0,0,0,42,24.9,3.26,3.26,0,0,1,43.52,24V19.4A7.83,7.83,0,0,0,38.61,21.94ZM28.18,12a5.61,5.61,0,1,0,5.61-5.54A5.57,5.57,0,0,0,28.18,12ZM20.82,20.9a.92.92,0,0,0,1.32,0,9.37,9.37,0,0,1,5.47-3,5.06,5.06,0,0,0-.21-2.6C27.24,14.88,25.46,9,25.46,9A3.34,3.34,0,0,1,26,6.63c.75-1.08,2.33-1.83,4.54-2.16a2.27,2.27,0,0,0,1.92-2.55A2.26,2.26,0,0,0,29.87,0c-3.55.52-6.12,1.89-7.63,4.06A7.79,7.79,0,0,0,21,10l.48,1.93a5.28,5.28,0,0,0-.87.22l-9.19,3.19a5.25,5.25,0,0,0-3.52,4.58,9.37,9.37,0,0,1,12.89,1Z"/></g></g></g></svg>