<svg xmlns="http://www.w3.org/2000/svg" width="44.02" height="29.63" viewBox="0 0 44.02 29.63"><defs><style>.cls-1{isolation:isolate;}.cls-2{fill:#22ace7;}</style></defs><title>Ресурс 6</title><g id="Слой_2" data-name="Слой 2"><g id="Shape_552" data-name="Shape 552" class="cls-1"><g id="Shape_552-2" data-name="Shape 552"><path class="cls-2" d="M34.18,9.09H34L32.61,1.25a1.49,1.49,0,0,0-.69-1A1.51,1.51,0,0,0,30.71.06l-4,1.23a1.5,1.5,0,0,0,.86,2.87L30,3.42l.56,3.24H17.82V6l1.56-.39A1.37,1.37,0,0,0,19,2.94l-5.76.33a2.23,2.23,0,0,0-.36,0,1.94,1.94,0,0,0-1.39,2.33A1.91,1.91,0,0,0,13.79,7l1-.26v1L13.61,9.87a9.49,9.49,0,0,0-3.77-.78A10.07,10.07,0,0,0,0,19.36,10.08,10.08,0,0,0,9.84,29.63a10,10,0,0,0,9.72-8.77h1.59a1.5,1.5,0,0,0,1.11-.5l2.19-2.46a11.66,11.66,0,0,0-.11,1.46,10.08,10.08,0,0,0,9.84,10.27A10.07,10.07,0,0,0,44,19.36,10.07,10.07,0,0,0,34.18,9.09ZM9.84,26.63A7.08,7.08,0,0,1,3,19.36a7.09,7.09,0,0,1,6.86-7.28,6.46,6.46,0,0,1,2.24.43L8.55,18.6a1.51,1.51,0,0,0,1.29,2.26h6.71A7,7,0,0,1,9.84,26.63Zm2.6-8.77,2.15-3.73a7.45,7.45,0,0,1,2,3.73Zm8,0h-.93a10.37,10.37,0,0,0-3.43-6.39l1.06-1.82H27.8Zm13.69,8.77a7.07,7.07,0,0,1-6.85-7.27,7.31,7.31,0,0,1,4.2-6.71l1.18,7a1.51,1.51,0,0,0,1.47,1.25,1.15,1.15,0,0,0,.26,0,1.5,1.5,0,0,0,1.22-1.73l-1.2-7A7.09,7.09,0,0,1,41,19.36,7.08,7.08,0,0,1,34.18,26.63Z"/></g></g></g></svg>