<svg xmlns="http://www.w3.org/2000/svg" width="24.73" height="24.51" viewBox="0 0 24.73 24.51"><defs><style>.cls-1{isolation:isolate;}.cls-2{fill:#24abea;}</style></defs><title>Ресурс 3</title><g id="Слой_2" data-name="Слой 2"><g id="Forma_1_копия" data-name="Forma 1 копия" class="cls-1"><g id="Forma_1_копия-2" data-name="Forma 1 копия"><path class="cls-2" d="M20.68,0H18.74V1.92H6V0H4.06V1.92H2.9A2.88,2.88,0,0,0,0,4.79V21.64a2.89,2.89,0,0,0,2.9,2.87H21.84a2.89,2.89,0,0,0,2.89-2.87V4.79a2.88,2.88,0,0,0-2.89-2.87H20.68V0ZM18.74,5.74h1.94V3.83h1.16a1,1,0,0,1,1,1V7.08H1.93V4.79a1,1,0,0,1,1-1H4.06V5.74H6V3.83H18.74V5.74ZM2.9,22.59a1,1,0,0,1-1-.95V9H22.8V21.64a1,1,0,0,1-1,.95ZM21.06,11H19.13v1.91h1.93V11ZM17.2,11H15.27v1.91H17.2V11Zm-3.87,0H11.4v1.91h1.93V11ZM9.47,11H7.54v1.91H9.47V11ZM5.6,11H3.67v1.91H5.6V11Zm15.46,3.83H19.13v1.91h1.93V14.84Zm-3.86,0H15.27v1.91H17.2V14.84Zm-3.87,0H11.4v1.91h1.93V14.84Zm-3.86,0H7.54v1.91H9.47V14.84Zm-3.87,0H3.67v1.91H5.6V14.84Zm11.6,3.83H15.27v1.91H17.2V18.67Zm-3.87,0H11.4v1.91h1.93V18.67Zm-3.86,0H7.54v1.91H9.47V18.67Zm-3.87,0H3.67v1.91H5.6V18.67Z"/></g></g></g></svg>