<svg xmlns="http://www.w3.org/2000/svg" width="14.156" height="19.468" viewBox="0 0 14.156 19.468">
  <metadata><?xpacket begin="﻿" id="W5M0MpCehiHzreSzNTczkc9d"?>
<x:xmpmeta xmlns:x="adobe:ns:meta/" x:xmptk="Adobe XMP Core 5.6-c138 79.159824, 2016/09/14-01:09:01        ">
   <rdf:RDF xmlns:rdf="http://www.w3.org/1999/02/22-rdf-syntax-ns#">
      <rdf:Description rdf:about=""/>
   </rdf:RDF>
</x:xmpmeta>
                                                                                                    
                                                                                                    
                                                                                                    
                                                                                                    
                                                                                                    
                                                                                                    
                                                                                                    
                                                                                                    
                                                                                                    
                                                                                                    
                                                                                                    
                                                                                                    
                                                                                                    
                                                                                                    
                                                                                                    
                                                                                                    
                                                                                                    
                                                                                                    
                                                                                                    
                                                                                                    
                           
<?xpacket end="w"?></metadata>
<defs>
    <style>
      .cls-1 {
        fill: none;
        stroke: #24abea;
        stroke-width: 1px;
        fill-rule: evenodd;
      }
    </style>
  </defs>
  <path id="Forma_1_копия_18_copy_3" data-name="Forma 1 копия 18 copy 3" class="cls-1" d="M27.918,542.523a5.62,5.62,0,0,0-.309-0.738,6.448,6.448,0,0,0-6.059-3.857,6.365,6.365,0,0,0-6.5,5.728v0.787c0,0.034.012,0.329,0.028,0.476,0.238,1.839,1.741,3.792,2.864,5.63,1.207,1.968,2.46,3.906,3.7,5.842,0.765-1.264,1.528-2.544,2.276-3.775,0.2-.36.441-0.722,0.645-1.067,0.136-.23.4-0.459,0.515-0.673,1.207-2.132,3.151-4.282,3.151-6.4v-0.87A6.361,6.361,0,0,0,27.918,542.523ZM21.6,546.479a2.339,2.339,0,0,1-2.239-1.543,2.066,2.066,0,0,1-.063-0.575v-0.508a2.187,2.187,0,0,1,2.376-2.1,2.366,2.366,0,0,1,2.413,2.364A2.43,2.43,0,0,1,21.6,546.479Z" transform="translate(-14.563 -537.438)"/>
</svg>
