<svg xmlns="http://www.w3.org/2000/svg" width="9.844" height="14.282" viewBox="0 0 9.844 14.282">
  <metadata><?xpacket begin="﻿" id="W5M0MpCehiHzreSzNTczkc9d"?>
<x:xmpmeta xmlns:x="adobe:ns:meta/" x:xmptk="Adobe XMP Core 5.6-c138 79.159824, 2016/09/14-01:09:01        ">
   <rdf:RDF xmlns:rdf="http://www.w3.org/1999/02/22-rdf-syntax-ns#">
      <rdf:Description rdf:about=""/>
   </rdf:RDF>
</x:xmpmeta>
                                                                                                    
                                                                                                    
                                                                                                    
                                                                                                    
                                                                                                    
                                                                                                    
                                                                                                    
                                                                                                    
                                                                                                    
                                                                                                    
                                                                                                    
                                                                                                    
                                                                                                    
                                                                                                    
                                                                                                    
                                                                                                    
                                                                                                    
                                                                                                    
                                                                                                    
                                                                                                    
                           
<?xpacket end="w"?></metadata>
<defs>
    <style>
      .cls-1 {
        fill: #2862ac;
        fill-rule: evenodd;
      }
    </style>
  </defs>
  <path class="cls-1" d="M22.56,967.794v-2.476L15,967.8v11.781h9.854V967.794h-2.3Zm-0.585-1.651v1.651H16.948Zm2.3,12.837H15.586V968.4h8.685V978.98Zm0,0-7.432-7.69,0.431,0.9h0.213l0.434-.9v1.041h0.358v-1.653H17.794l-0.416.908-0.413-.908H16.481v1.653h0.358V971.29Zm0,0,3.014,0.715H19.029v-0.343h0.719v-0.315H19.029v-0.34h0.8v-0.329H18.671v1.653h1.182v-0.326Zm0,0,0.677-.71,0.764,1.036h0.358v-1.653H21.294v1.064l-0.787-1.064H20.172v1.653H20.53V971.3Zm0,0,2.183,1.052a0.67,0.67,0,0,0,.493-0.192A0.749,0.749,0,0,0,23.4,971.6v-0.924H23.041v0.913a0.5,0.5,0,0,1-.088.313,0.288,0.288,0,0,1-.24.115,0.291,0.291,0,0,1-.241-0.115,0.5,0.5,0,0,1-.09-0.313v-0.913H22.024V971.6a0.748,0.748,0,0,0,.194.552,0.67,0.67,0,0,0,.495.193h0Zm0,0-6.056,1.279h6.532v0.6H16.657v-0.6Zm0,1.784h6.532v0.6H16.657v-0.6Zm0,1.784h6.532v0.6H16.657v-0.6Z" transform="translate(-15 -965.312)"/>
</svg>
