<svg xmlns="http://www.w3.org/2000/svg" width="21.33" height="19.95" viewBox="0 0 21.33 19.95"><defs><style>.cls-1{isolation:isolate;}.cls-2{fill:#22ace7;}</style></defs><title>Ресурс 1</title><g id="Слой_2" data-name="Слой 2"><g id="Shape_561" data-name="Shape 561" class="cls-1"><g id="Shape_561-2" data-name="Shape 561"><path class="cls-2" d="M15.66,15.39a1.87,1.87,0,0,1-1.85-1.88V10.38A1.87,1.87,0,0,1,15.66,8.5h4.92V5.39a1.44,1.44,0,0,0-1.43-1.45H1.43A1.44,1.44,0,0,0,0,5.39V18.5A1.44,1.44,0,0,0,1.43,20H19.15a1.44,1.44,0,0,0,1.43-1.45V15.39H15.66Zm4.83-5.86H15.66a.85.85,0,0,0-.84.85v3.13a.85.85,0,0,0,.84.85h4.83a.85.85,0,0,0,.84-.85V10.38A.85.85,0,0,0,20.49,9.53Zm-3.16,3.64A1.23,1.23,0,1,1,18.53,12,1.22,1.22,0,0,1,17.33,13.17ZM16.66,1.29A1.83,1.83,0,0,0,14.33.1L7.07,2.53h10Z"/></g></g></g></svg>