<svg xmlns="http://www.w3.org/2000/svg" width="19.688" height="19.94" viewBox="0 0 19.688 19.94">
  <metadata><?xpacket begin="﻿" id="W5M0MpCehiHzreSzNTczkc9d"?>
<x:xmpmeta xmlns:x="adobe:ns:meta/" x:xmptk="Adobe XMP Core 5.6-c138 79.159824, 2016/09/14-01:09:01        ">
   <rdf:RDF xmlns:rdf="http://www.w3.org/1999/02/22-rdf-syntax-ns#">
      <rdf:Description rdf:about=""/>
   </rdf:RDF>
</x:xmpmeta>
                                                                                                    
                                                                                                    
                                                                                                    
                                                                                                    
                                                                                                    
                                                                                                    
                                                                                                    
                                                                                                    
                                                                                                    
                                                                                                    
                                                                                                    
                                                                                                    
                                                                                                    
                                                                                                    
                                                                                                    
                                                                                                    
                                                                                                    
                                                                                                    
                                                                                                    
                                                                                                    
                           
<?xpacket end="w"?></metadata>
<defs>
    <style>
      .cls-1 {
        fill: #22ace7;
        fill-rule: evenodd;
      }
    </style>
  </defs>
  <path class="cls-1" d="M813.759,2320.05a9.976,9.976,0,1,0,9.838,9.98,9.923,9.923,0,0,0-9.838-9.98h0Zm3.979,12.83a0.423,0.423,0,0,1,0,.59l-0.58.59a0.409,0.409,0,0,1-.579,0l-2.82-2.86-2.82,2.86a0.41,0.41,0,0,1-.58,0l-0.579-.59a0.423,0.423,0,0,1,0-.59l2.82-2.85-2.82-2.86a0.423,0.423,0,0,1,0-.59l0.579-.59a0.41,0.41,0,0,1,.58,0l2.82,2.86,2.82-2.86a0.409,0.409,0,0,1,.579,0l0.58,0.59a0.423,0.423,0,0,1,0,.59l-2.82,2.86Zm0,0" transform="translate(-803.906 -2320.06)"/>
</svg>
