<svg width="100" height="100" viewBox="0 0 100 100" fill="none" xmlns="http://www.w3.org/2000/svg">
<path d="M98.0461 96.1089C96.9691 96.1089 96.0918 96.9825 96.0918 98.0544C96.0918 99.1263 96.9693 99.9999 98.0461 99.9999C99.1228 99.9999 100 99.1263 100 98.0544C100 96.9825 99.1228 96.1089 98.0461 96.1089Z" fill="#FF007C"/>
<path d="M91.0097 22.9572C92.2475 22.9572 93.2042 21.7287 92.9057 20.5398L88.997 4.97558C88.7794 4.10956 87.9977 3.50195 87.1009 3.50195H57.7068C55.808 1.35566 53.0433 0 49.9685 0C46.8937 0 44.1291 1.35566 42.2303 3.50195H12.836C11.9391 3.50195 11.1575 4.10956 10.9399 4.97558C10.9399 4.97558 7.03715 20.5164 7.03129 20.5398C6.73696 21.7119 7.64379 22.9574 8.92738 22.9574H10.8817V96.109C10.8817 96.109 1.92212 96.109 1.89185 96.109C-0.619668 96.109 -0.641543 100 1.89185 100C1.89185 100 89.9548 100 90.2274 100C92.7225 100 92.7663 96.109 90.228 96.109H89.0554V22.9572C89.0554 22.9572 91.0009 22.9572 91.0097 22.9572ZM43.5193 10.4148C43.5193 6.81776 46.4125 3.89101 49.9687 3.89101C53.525 3.89101 56.4179 6.81776 56.4179 10.4148V19.0662H43.5193V10.4148ZM14.3619 7.39295H40.0566C39.7676 8.34998 39.6105 9.36405 39.6105 10.4148V11.284H28.6662C27.5893 11.284 26.7119 12.1576 26.7119 13.2295C26.7119 14.3013 27.5895 15.175 28.6662 15.175H39.6105V19.066H11.4303L14.3619 7.39295ZM53.8771 96.1088H46.0597V78.5991H53.8771V96.1088ZM85.1466 96.1088H57.7859V76.6536C57.7859 75.5792 56.9109 74.7081 55.8316 74.7081H44.1054C43.0261 74.7081 42.1511 75.5792 42.1511 76.6536V96.1088H14.7903V22.9572H85.1466V96.1088ZM60.3265 19.0662V15.175H71.2708C72.3476 15.175 73.2251 14.3013 73.2251 13.2295C73.2251 12.1576 72.3476 11.284 71.2708 11.284H60.3265V10.4148C60.3265 9.36424 60.1695 8.34998 59.8804 7.39295H85.5751L88.5065 19.0662H60.3265Z" fill="#494949"/>
<path d="M34.334 43.5798H20.6535C19.5742 43.5798 18.6992 44.4509 18.6992 45.5253V53.3074C18.6992 54.3818 19.5742 55.2529 20.6535 55.2529H34.334C35.4132 55.2529 36.2882 54.3818 36.2882 53.3074V45.5253C36.2882 44.4509 35.4132 43.5798 34.334 43.5798ZM32.3795 51.3618H22.6078V47.4708H32.3795V51.3618Z" fill="#FF007C"/>
<path d="M56.8086 43.5796H43.1281C42.0488 43.5796 41.1738 44.4507 41.1738 45.5251V53.3071C41.1738 54.3815 42.0488 55.2526 43.1281 55.2526H56.8086C57.8879 55.2526 58.7629 54.3815 58.7629 53.3071V45.5251C58.7629 44.4509 57.8879 43.5796 56.8086 43.5796ZM54.8543 51.3618H45.0826V47.4708H54.8543V51.3618Z" fill="#494949"/>
<path d="M79.2832 43.5798H65.6027C64.5234 43.5798 63.6484 44.4509 63.6484 45.5253V53.3074C63.6484 54.3818 64.5234 55.2529 65.6027 55.2529H79.2832C80.3625 55.2529 81.2375 54.3818 81.2375 53.3074V45.5253C81.2375 44.4509 80.3625 43.5798 79.2832 43.5798ZM77.3287 51.3618H67.557V47.4708H77.3287V51.3618Z" fill="#494949"/>
<path d="M34.334 59.144H20.6535C19.5742 59.144 18.6992 60.0151 18.6992 61.0895V68.8716C18.6992 69.946 19.5742 70.8171 20.6535 70.8171H34.334C35.4132 70.8171 36.2882 69.946 36.2882 68.8716V61.0895C36.2882 60.0151 35.4132 59.144 34.334 59.144ZM32.3795 66.9259H22.6078V63.0349H32.3795V66.9259Z" fill="#494949"/>
<path d="M56.8086 59.1438H43.1281C42.0488 59.1438 41.1738 60.0149 41.1738 61.0893V68.8713C41.1738 69.9457 42.0488 70.8168 43.1281 70.8168H56.8086C57.8879 70.8168 58.7629 69.9457 58.7629 68.8713V61.0893C58.7629 60.0149 57.8879 59.1438 56.8086 59.1438ZM54.8543 66.9258H45.0826V63.0348H54.8543V66.9258Z" fill="#494949"/>
<path d="M79.2832 59.144H65.6027C64.5234 59.144 63.6484 60.0151 63.6484 61.0895V68.8716C63.6484 69.946 64.5234 70.8171 65.6027 70.8171H79.2832C80.3625 70.8171 81.2375 69.946 81.2375 68.8716V61.0895C81.2375 60.0151 80.3625 59.144 79.2832 59.144ZM77.3287 66.9259H67.557V63.0349H77.3287V66.9259Z" fill="#FF007C"/>
<path d="M27.4939 26.8481C24.2609 26.8481 21.6309 29.4882 21.6309 32.7329V37.743C21.6309 38.8175 22.5059 39.6885 23.5853 39.6885H31.4027C32.482 39.6885 33.357 38.8175 33.357 37.743V32.7329C33.357 29.488 30.7269 26.8481 27.4939 26.8481ZM29.4482 35.7975H25.5396V32.7329C25.5396 31.6337 26.4164 30.7392 27.4939 30.7392C28.5717 30.7392 29.4482 31.6337 29.4482 32.7329V35.7975Z" fill="#494949"/>
<path d="M72.4432 26.8481C69.2103 26.8481 66.5801 29.4882 66.5801 32.7329V37.743C66.5803 38.8175 67.4553 39.6885 68.5346 39.6885H76.3519C77.4312 39.6885 78.3062 38.8175 78.3062 37.743V32.7329C78.3062 29.488 75.6762 26.8481 72.4432 26.8481ZM74.3976 35.7975H70.4891V32.7329C70.4891 31.6337 71.3658 30.7392 72.4433 30.7392C73.5211 30.7392 74.3976 31.6337 74.3976 32.7329V35.7975Z" fill="#494949"/>
<path d="M49.9685 26.8481C46.7357 26.8481 44.1055 29.4882 44.1055 32.7329V37.743C44.1057 38.8175 44.9807 39.6885 46.06 39.6885H53.8773C54.9566 39.6885 55.8316 38.8175 55.8316 37.743V32.7329C55.8316 29.488 53.2015 26.8481 49.9685 26.8481ZM51.923 35.7975H48.0144V32.7329C48.0144 31.6337 48.8912 30.7392 49.9687 30.7392C51.0465 30.7392 51.923 31.6337 51.923 32.7329V35.7975Z" fill="#FF007C"/>
<path d="M36.2881 88.3265V82.6478C36.2881 78.2697 32.7813 74.7078 28.4708 74.7078C24.1602 74.7078 20.6534 78.2695 20.6534 82.6478C20.6534 82.6478 20.6534 88.3185 20.6534 88.3265C20.6534 88.107 19.3278 88.8357 19.2272 88.9415C18.0716 90.1568 18.9905 92.2177 20.6534 92.2177C20.6534 92.2177 36.2495 92.2177 36.2881 92.2177C38.7954 92.2177 38.8231 88.3265 36.2881 88.3265ZM32.3796 88.3265H24.5622V82.6478C24.5622 80.4152 26.3157 78.5988 28.4708 78.5988C30.626 78.5988 32.3796 80.4152 32.3796 82.6478V88.3265Z" fill="#494949"/>
<path d="M79.2843 88.3267V82.648C79.2843 78.2699 75.7775 74.708 71.467 74.708C67.1564 74.708 63.6496 78.2697 63.6496 82.648V88.3267C62.5703 88.3267 61.6953 89.1978 61.6953 90.2722C61.6953 91.3466 62.5701 92.2177 63.6496 92.2177C63.6496 92.2177 79.2453 92.2177 79.2843 92.2177C81.7162 92.2177 81.8205 88.3267 79.2843 88.3267ZM75.3758 88.3267H67.5584V82.648H67.5582C67.5582 80.4154 69.3117 78.599 71.467 78.599C73.6222 78.599 75.3758 80.4154 75.3758 82.648V88.3267Z" fill="#494949"/>
<path d="M20.8488 11.2839C19.7719 11.2839 18.8945 12.1576 18.8945 13.2294C18.8945 14.3013 19.7719 15.1749 20.8488 15.1749C21.9256 15.1749 22.8031 14.3013 22.8031 13.2294C22.8031 12.1576 21.9256 11.2839 20.8488 11.2839Z" fill="#494949"/>
<path d="M79.0891 11.2839C78.0121 11.2839 77.1348 12.1576 77.1348 13.2294C77.1348 14.3013 78.0121 15.1749 79.0891 15.1749C80.1658 15.1749 81.0434 14.3013 81.0434 13.2294C81.0434 12.1576 80.1658 11.2839 79.0891 11.2839Z" fill="#494949"/>
</svg>
