<svg width="100" height="100" viewBox="0 0 100 100" fill="none" xmlns="http://www.w3.org/2000/svg">
<path d="M98.0472 96.0939H89.4534V80.6643C89.4534 79.5855 88.5788 78.7111 87.5003 78.7111C86.4218 78.7111 85.5472 79.5855 85.5472 80.6643V96.0939H62.1097V58.9846C62.1097 57.9058 61.2351 57.0314 60.1565 57.0314H39.844C38.7655 57.0314 37.8909 57.9058 37.8909 58.9846V96.0939H14.4534V51.9531H15.2049C15.7229 51.9531 16.2196 51.7472 16.586 51.381L50.0003 17.9668L83.4146 51.381C83.781 51.7472 84.2776 51.9531 84.7956 51.9531H85.5472V66.6015C85.5472 67.6803 86.4218 68.5547 87.5003 68.5547C88.5788 68.5547 89.4534 67.6803 89.4534 66.6015V51.9531H98.0472C98.8372 51.9531 99.5493 51.4771 99.8517 50.7474C100.154 50.0177 99.9866 49.1775 99.4282 48.6189L51.3813 0.572022C50.6184 -0.190674 49.3821 -0.190674 48.619 0.572022L30.2596 18.9314C29.4969 19.6941 29.4969 20.9308 30.2596 21.6935C31.0225 22.4564 32.2593 22.4564 33.0219 21.6935L50.0003 4.71519L93.3317 48.0469H85.6046L51.3813 13.8236C50.6184 13.0609 49.3821 13.0609 48.619 13.8236L14.3958 48.0469H6.66862L22.0844 32.6312C22.8471 31.8685 22.8471 30.6318 22.0844 29.8689C21.3217 29.1064 20.085 29.1062 19.3221 29.8689L0.572128 48.6189C0.0137297 49.1775 -0.153653 50.0176 0.148691 50.7474C0.451035 51.4773 1.16334 51.9531 1.95338 51.9531H10.5471V96.0938H1.95338C0.874863 96.0938 0.000253141 96.9682 0.000253141 98.0469C0.000253141 99.1256 0.874863 100 1.95338 100H12.5003H39.844H60.1565H87.5003H98.0472C99.1257 100 100 99.1256 100 98.0469C100 96.9682 99.1257 96.0939 98.0472 96.0939ZM58.2034 96.0939H41.7971V60.9377H58.2034V96.0939Z" fill="#494949"/>
<path d="M79.2969 57.0315H68.3594C67.2809 57.0315 66.4062 57.9059 66.4062 58.9846V78.5159C66.4062 79.5946 67.2809 80.469 68.3594 80.469H79.2969C80.3754 80.469 81.25 79.5946 81.25 78.5159V58.9846C81.25 57.9059 80.3754 57.0315 79.2969 57.0315ZM77.3438 76.5628H70.3125V60.9377H77.3438V76.5628Z" fill="#FF007C"/>
<path d="M31.6406 57.0315H20.7031C19.6246 57.0315 18.75 57.9059 18.75 58.9846V78.5159C18.75 79.5946 19.6246 80.469 20.7031 80.469H31.6406C32.7191 80.469 33.5938 79.5946 33.5938 78.5159V58.9846C33.5938 57.9059 32.7191 57.0315 31.6406 57.0315ZM29.6875 76.5628H22.6563V60.9377H29.6875V76.5628Z" fill="#FF007C"/>
<path d="M50 32.094C45.0461 32.094 41.0156 36.1245 41.0156 41.0784C41.0156 46.0323 45.0461 50.0627 50 50.0627C54.9539 50.0627 58.9844 46.0323 58.9844 41.0784C58.9844 36.1245 54.9539 32.094 50 32.094ZM50 46.1565C47.1998 46.1565 44.9219 43.8784 44.9219 41.0784C44.9219 38.2784 47.1998 36.0002 50 36.0002C52.8002 36.0002 55.0781 38.2784 55.0781 41.0784C55.0781 43.8784 52.8002 46.1565 50 46.1565Z" fill="#494949"/>
<path d="M47.6697 77.135C47.3066 76.7717 46.8025 76.5627 46.2891 76.5627C45.7754 76.5627 45.2715 76.7717 44.9082 77.135C44.5449 77.4983 44.3359 78.0022 44.3359 78.5159C44.3359 79.0295 44.5447 79.5334 44.9082 79.8967C45.2717 80.26 45.7754 80.469 46.2891 80.469C46.8027 80.469 47.3066 80.26 47.6697 79.8967C48.033 79.5334 48.2422 79.0295 48.2422 78.5159C48.2422 78.0022 48.0332 77.4983 47.6697 77.135Z" fill="#FF007C"/>
<path d="M27.3572 24.5959C26.9941 24.2327 26.4902 24.0237 25.9766 24.0237C25.4629 24.0237 24.959 24.2327 24.5957 24.5959C24.2324 24.9592 24.0234 25.4631 24.0234 25.9768C24.0234 26.4905 24.2322 26.9944 24.5957 27.3577C24.9592 27.721 25.4629 27.9299 25.9766 27.9299C26.4902 27.9299 26.9941 27.721 27.3572 27.3577C27.7205 26.9944 27.9297 26.4905 27.9297 25.9768C27.9297 25.4631 27.7207 24.9592 27.3572 24.5959Z" fill="#FF007C"/>
<path d="M88.8807 71.7305C88.5176 71.3674 88.0135 71.1582 87.5 71.1582C86.9863 71.1582 86.4824 71.3672 86.1191 71.7305C85.7559 72.0957 85.5469 72.5977 85.5469 73.1113C85.5469 73.625 85.7557 74.1289 86.1191 74.4941C86.4824 74.8574 86.9863 75.0645 87.5 75.0645C88.0137 75.0645 88.5176 74.8574 88.8807 74.4941C89.2439 74.1289 89.4531 73.627 89.4531 73.1113C89.4531 72.5977 89.2441 72.0937 88.8807 71.7305Z" fill="#494949"/>
</svg>
