<svg width="80" height="101" viewBox="0 0 80 101" fill="none" xmlns="http://www.w3.org/2000/svg">
<path d="M78.3333 90.8073H75V39.039C75 38.1168 74.2537 37.3691 73.3333 37.3691H55V17.3297C55 16.9204 54.85 16.525 54.5783 16.2192L41.245 1.18973C40.5883 0.50088 39.4983 0.475831 38.8108 1.13379C38.7919 1.15195 38.7731 1.17074 38.755 1.18973L25.4217 16.2192C25.15 16.525 25 16.9204 25 17.3297V37.3691H6.66667C5.74625 37.3691 5 38.1168 5 39.039V90.8073H1.66667C0.74625 90.8073 0 91.555 0 92.4772V99.157C0 100.079 0.74625 100.827 1.66667 100.827H78.3333C79.2537 100.827 80 100.079 80 99.157V92.4772C80 91.555 79.2537 90.8073 78.3333 90.8073ZM55 40.709H71.6667V90.8073H55V40.709ZM28.3333 17.9643L40 4.81351L51.6667 17.9643V90.8073H28.3333V17.9643ZM8.33333 40.709H25V90.8073H8.33333V40.709ZM76.6667 97.4871H3.33333V94.1472H76.6667V97.4871Z" fill="#494949"/>
<path d="M46.6654 25.6768H41.6654V20.667H38.332V25.6768H33.332V29.0167H38.332V34.0265H41.6654V29.0167H46.6654V25.6768Z" fill="#494949"/>
<path d="M35.0022 47.3882H31.668V50.7281H35.0022V47.3882Z" fill="#494949"/>
<path d="M41.6662 47.3882H38.332V50.7281H41.6662V47.3882Z" fill="#494949"/>
<path d="M48.3342 47.3882H45V50.7281H48.3342V47.3882Z" fill="#494949"/>
<path d="M35.0022 54.0674H31.668V57.4073H35.0022V54.0674Z" fill="#494949"/>
<path d="M41.6662 54.0674H38.332V57.4073H41.6662V54.0674Z" fill="#494949"/>
<path d="M48.3342 54.0674H45V57.4073H48.3342V54.0674Z" fill="#494949"/>
<path d="M35.0022 60.7471H31.668V64.087H35.0022V60.7471Z" fill="#494949"/>
<path d="M41.6662 60.7471H38.332V64.087H41.6662V60.7471Z" fill="#494949"/>
<path d="M48.3342 60.7471H45V64.087H48.3342V60.7471Z" fill="#494949"/>
<path d="M35.0022 67.4263H31.668V70.7662H35.0022V67.4263Z" fill="#494949"/>
<path d="M41.6662 67.4263H38.332V70.7662H41.6662V67.4263Z" fill="#494949"/>
<path d="M48.3342 67.4263H45V70.7662H48.3342V67.4263Z" fill="#494949"/>
<path d="M35.0022 74.1055H31.668V77.4454H35.0022V74.1055Z" fill="#494949"/>
<path d="M41.6662 74.1055H38.332V77.4454H41.6662V74.1055Z" fill="#494949"/>
<path d="M48.3342 74.1055H45V77.4454H48.3342V74.1055Z" fill="#494949"/>
<path d="M41.6662 80.7891H38.332V84.129H41.6662V80.7891Z" fill="#494949"/>
<path d="M48.3342 80.7891H45V84.129H48.3342V80.7891Z" fill="#494949"/>
<path d="M35.0022 80.7891H31.668V84.129H35.0022V80.7891Z" fill="#494949"/>
<path d="M15.0022 47.3882H11.668V50.7281H15.0022V47.3882Z" fill="#494949"/>
<path d="M21.6662 47.3882H18.332V50.7281H21.6662V47.3882Z" fill="#494949"/>
<path d="M15.0022 54.0674H11.668V57.4073H15.0022V54.0674Z" fill="#494949"/>
<path d="M21.6662 54.0674H18.332V57.4073H21.6662V54.0674Z" fill="#494949"/>
<path d="M15.0022 60.7471H11.668V64.087H15.0022V60.7471Z" fill="#494949"/>
<path d="M21.6662 60.7471H18.332V64.087H21.6662V60.7471Z" fill="#494949"/>
<path d="M15.0022 67.4263H11.668V70.7662H15.0022V67.4263Z" fill="#494949"/>
<path d="M21.6662 67.4263H18.332V70.7662H21.6662V67.4263Z" fill="#494949"/>
<path d="M15.0022 74.1055H11.668V77.4454H15.0022V74.1055Z" fill="#494949"/>
<path d="M21.6662 74.1055H18.332V77.4454H21.6662V74.1055Z" fill="#494949"/>
<path d="M15.0022 80.7891H11.668V84.129H15.0022V80.7891Z" fill="#494949"/>
<path d="M21.6662 80.7891H18.332V84.129H21.6662V80.7891Z" fill="#494949"/>
<path d="M61.6662 47.3882H58.332V50.7281H61.6662V47.3882Z" fill="#494949"/>
<path d="M68.3342 47.3882H65V50.7281H68.3342V47.3882Z" fill="#494949"/>
<path d="M61.6662 54.0674H58.332V57.4073H61.6662V54.0674Z" fill="#494949"/>
<path d="M68.3342 54.0674H65V57.4073H68.3342V54.0674Z" fill="#494949"/>
<path d="M61.6662 60.7471H58.332V64.087H61.6662V60.7471Z" fill="#494949"/>
<path d="M68.3342 60.7471H65V64.087H68.3342V60.7471Z" fill="#494949"/>
<path d="M61.6662 67.4263H58.332V70.7662H61.6662V67.4263Z" fill="#494949"/>
<path d="M68.3342 67.4263H65V70.7662H68.3342V67.4263Z" fill="#494949"/>
<path d="M61.6662 74.1055H58.332V77.4454H61.6662V74.1055Z" fill="#494949"/>
<path d="M68.3342 74.1055H65V77.4454H68.3342V74.1055Z" fill="#494949"/>
<path d="M61.6662 80.7891H58.332V84.129H61.6662V80.7891Z" fill="#494949"/>
<path d="M68.3342 80.7891H65V84.129H68.3342V80.7891Z" fill="#494949"/>
</svg>
