<svg width="94" height="95" viewBox="0 0 94 95" fill="none" xmlns="http://www.w3.org/2000/svg">
<path d="M89.5548 4.61272C86.6883 1.74133 82.8773 0.160156 78.8239 0.160156C74.7705 0.160156 70.9595 1.74133 68.093 4.61272L12.6656 60.134C12.4863 60.3136 12.3465 60.5284 12.254 60.7648L0.126024 91.8113C-0.139326 92.4916 0.0220354 93.2653 0.537676 93.7818C0.888368 94.1339 1.35811 94.3206 1.83646 94.3206C2.06093 94.3206 2.28755 94.2797 2.50485 94.1942L33.4992 82.0455C33.7352 81.9529 33.9489 81.8128 34.1282 81.6332L39.3211 76.4314C40.0376 75.7137 40.0376 74.5492 39.3211 73.8308C38.604 73.1124 37.4415 73.1124 36.7243 73.8308L32.8301 77.7323L16.5605 61.435L60.6316 17.2879L76.9012 33.5853L47.1102 63.4271C46.3931 64.1455 46.3931 65.31 47.1102 66.0284C47.8267 66.746 48.9892 66.746 49.7064 66.0284L89.5548 26.1119C92.4213 23.2405 93.9998 19.423 93.9998 15.362C93.9998 11.3016 92.4213 7.48412 89.5548 4.61272ZM14.6507 64.7238L29.5462 79.6447L16.7126 84.6756L9.62844 77.5793L14.6507 64.7238ZM8.16829 81.3185L12.9797 86.1389L5.07445 89.2373L8.16829 81.3185ZM63.2285 14.6874L66.4973 11.413L82.7669 27.7096L79.4973 30.984L63.2285 14.6874ZM86.9587 23.5106L85.363 25.109L69.0934 8.8117L70.6891 7.21328C72.8621 5.03729 75.7509 3.8383 78.8239 3.8383C81.897 3.8383 84.7857 5.03729 86.9587 7.214C89.1317 9.39 90.3279 12.2844 90.3279 15.362C90.3279 18.4402 89.1317 21.3339 86.9587 23.5106Z" fill="#FF007C"/>
<path d="M43.2088 68.0845C42.7261 68.0845 42.2542 68.2813 41.9107 68.6233C41.5694 68.9652 41.375 69.4401 41.375 69.9235C41.375 70.4092 41.5694 70.8819 41.9107 71.2238C42.2542 71.5658 42.7261 71.7626 43.2088 71.7626C43.6936 71.7626 44.1669 71.5658 44.5083 71.2238C44.8504 70.8819 45.0447 70.4092 45.0447 69.9235C45.0447 69.4401 44.8504 68.9652 44.5083 68.6233C44.1669 68.2813 43.6936 68.0845 43.2088 68.0845Z" fill="#FF007C"/>
</svg>
