<svg width="64" height="101" viewBox="0 0 64 101" fill="none" xmlns="http://www.w3.org/2000/svg">
<path d="M61.959 0.171875H11.3475C10.2473 0.171875 9.35547 1.06519 9.35547 2.16727V45.0691H1.99199C0.891796 45.0691 0 45.9624 0 47.0645V98.3472C0 99.4493 0.891796 100.343 1.99199 100.343H61.9592C63.0594 100.343 63.9512 99.4493 63.9512 98.3472V2.16727C63.951 1.06519 63.0592 0.171875 61.959 0.171875ZM38.2605 96.3518H3.98359V49.0599H38.2605V96.3518ZM59.967 96.3518H42.2449V47.0647C42.2449 45.9626 41.3531 45.0693 40.2529 45.0693H13.3395V4.16266H59.967V96.3518Z" fill="#494949"/>
<path d="M25.8799 9.55127H19.0232C17.923 9.55127 17.0312 10.4446 17.0312 11.5467V21.1623C17.0312 22.2643 17.923 23.1577 19.0232 23.1577H25.8799C26.9801 23.1577 27.8719 22.2643 27.8719 21.1623V11.5467C27.8719 10.4446 26.9801 9.55127 25.8799 9.55127ZM23.8879 19.1669H21.0154V13.5421H23.8879V19.1669Z" fill="#494949"/>
<path d="M40.0674 9.55127H33.2107C32.1105 9.55127 31.2188 10.4446 31.2188 11.5467V21.1623C31.2188 22.2643 32.1105 23.1577 33.2107 23.1577H40.0674C41.1676 23.1577 42.0594 22.2643 42.0594 21.1623V11.5467C42.0594 10.4446 41.1676 9.55127 40.0674 9.55127ZM38.0754 19.1669H35.2029V13.5421H38.0754V19.1669Z" fill="#494949"/>
<path d="M54.2822 9.55127H47.4256C46.3254 9.55127 45.4336 10.4446 45.4336 11.5467V21.1623C45.4336 22.2643 46.3254 23.1577 47.4256 23.1577H54.2822C55.3824 23.1577 56.2742 22.2643 56.2742 21.1623V11.5467C56.2742 10.4446 55.3824 9.55127 54.2822 9.55127ZM52.2902 19.1669H49.4178V13.5421H52.2902V19.1669Z" fill="#494949"/>
<path d="M25.8799 27.5112H19.0232C17.923 27.5112 17.0312 28.4045 17.0312 29.5066V39.1222C17.0312 40.2243 17.923 41.1176 19.0232 41.1176H25.8799C26.9801 41.1176 27.8719 40.2243 27.8719 39.1222V29.5066C27.8719 28.4045 26.9801 27.5112 25.8799 27.5112ZM23.8879 37.1268H21.0154V31.502H23.8879V37.1268Z" fill="#494949"/>
<path d="M40.0674 27.5112H33.2107C32.1105 27.5112 31.2188 28.4045 31.2188 29.5066V39.1222C31.2188 40.2243 32.1105 41.1176 33.2107 41.1176H40.0674C41.1676 41.1176 42.0594 40.2243 42.0594 39.1222V29.5066C42.0594 28.4045 41.1676 27.5112 40.0674 27.5112ZM38.0754 37.1268H35.2029V31.502H38.0754V37.1268Z" fill="#494949"/>
<path d="M54.2822 27.5112H47.4256C46.3254 27.5112 45.4336 28.4045 45.4336 29.5066V39.1222C45.4336 40.2243 46.3254 41.1176 47.4256 41.1176H54.2822C55.3824 41.1176 56.2742 40.2243 56.2742 39.1222V29.5066C56.2742 28.4045 55.3824 27.5112 54.2822 27.5112ZM52.2902 37.1268H49.4178V31.502H52.2902V37.1268Z" fill="#494949"/>
<path d="M16.7217 51.6543H8.4373C7.33711 51.6543 6.44531 52.5476 6.44531 53.6497V60.2733C6.44531 61.3754 7.33711 62.2687 8.4373 62.2687H16.7217C17.8219 62.2687 18.7137 61.3754 18.7137 60.2733V53.6497C18.7137 52.5478 17.8219 51.6543 16.7217 51.6543ZM14.7297 58.2781H10.4293V55.6453H14.7297V58.2781Z" fill="#494949"/>
<path d="M33.8623 51.6543H25.5779C24.4777 51.6543 23.5859 52.5476 23.5859 53.6497V60.2733C23.5859 61.3754 24.4777 62.2687 25.5779 62.2687H33.8623C34.9625 62.2687 35.8543 61.3754 35.8543 60.2733V53.6497C35.8545 52.5478 34.9625 51.6543 33.8623 51.6543ZM31.8703 58.2781H27.5699V55.6453H31.8703V58.2781Z" fill="#494949"/>
<path d="M54.2822 45.4678H47.4256C46.3254 45.4678 45.4336 46.3611 45.4336 47.4632V57.0788C45.4336 58.1808 46.3254 59.0742 47.4256 59.0742H54.2822C55.3824 59.0742 56.2742 58.1808 56.2742 57.0788V47.4632C56.2742 46.3611 55.3824 45.4678 54.2822 45.4678ZM52.2902 55.0834H49.4178V49.4586H52.2902V55.0834Z" fill="#494949"/>
<path d="M16.7217 66.6211H8.4373C7.33711 66.6211 6.44531 67.5144 6.44531 68.6165V75.2401C6.44531 76.3422 7.33711 77.2355 8.4373 77.2355H16.7217C17.8219 77.2355 18.7137 76.3422 18.7137 75.2401V68.6165C18.7137 67.5146 17.8219 66.6211 16.7217 66.6211ZM14.7297 73.2449H10.4293V70.6121H14.7297V73.2449Z" fill="#494949"/>
<path d="M33.8623 66.6211H25.5779C24.4777 66.6211 23.5859 67.5144 23.5859 68.6165V75.2401C23.5859 76.3422 24.4777 77.2355 25.5779 77.2355H33.8623C34.9625 77.2355 35.8543 76.3422 35.8543 75.2401V68.6165C35.8545 67.5146 34.9625 66.6211 33.8623 66.6211ZM31.8703 73.2449H27.5699V70.6121H31.8703V73.2449Z" fill="#494949"/>
<path d="M16.7217 81.9834H8.4373C7.33711 81.9834 6.44531 82.8767 6.44531 83.9788V90.6024C6.44531 91.7045 7.33711 92.5978 8.4373 92.5978H16.7217C17.8219 92.5978 18.7137 91.7045 18.7137 90.6024V83.9788C18.7137 82.8769 17.8219 81.9834 16.7217 81.9834ZM14.7297 88.6072H10.4293V85.9744H14.7297V88.6072Z" fill="#494949"/>
<path d="M33.8623 81.9834H25.5779C24.4777 81.9834 23.5859 82.8767 23.5859 83.9788V90.6024C23.5859 91.7045 24.4777 92.5978 25.5779 92.5978H33.8623C34.9625 92.5978 35.8543 91.7045 35.8543 90.6024V83.9788C35.8545 82.8769 34.9625 81.9834 33.8623 81.9834ZM31.8703 88.6072H27.5699V85.9744H31.8703V88.6072Z" fill="#494949"/>
<path d="M54.2822 63.4282H47.4256C46.3254 63.4282 45.4336 64.3215 45.4336 65.4236V75.0392C45.4336 76.1413 46.3254 77.0346 47.4256 77.0346H54.2822C55.3824 77.0346 56.2742 76.1413 56.2742 75.0392V65.4236C56.2742 64.3215 55.3824 63.4282 54.2822 63.4282ZM52.2902 73.0438H49.4178V67.419H52.2902V73.0438Z" fill="#494949"/>
<path d="M54.3826 85.1919C53.2824 85.1919 52.3906 86.0852 52.3906 87.1873V92.1602C52.3906 93.2623 53.2824 94.1556 54.3826 94.1556C55.4828 94.1556 56.3746 93.2623 56.3746 92.1602V87.1873C56.3746 86.0852 55.4828 85.1919 54.3826 85.1919Z" fill="#494949"/>
<path d="M54.3826 79.1895C53.2824 79.1895 52.3906 80.0828 52.3906 81.1848V81.8708C52.3906 82.9729 53.2824 83.8662 54.3826 83.8662C55.4828 83.8662 56.3746 82.9729 56.3746 81.8708V81.1848C56.3746 80.083 55.4828 79.1895 54.3826 79.1895Z" fill="#494949"/>
</svg>
