<svg width="58" height="101" viewBox="0 0 58 101" fill="none" xmlns="http://www.w3.org/2000/svg">
<path d="M57.1428 40.7246C57.1428 37.958 54.8852 35.7164 52.1008 35.7164H50.6097C55.3751 30.9331 56.7759 23.7729 54.1614 17.5657C51.546 11.3584 45.429 7.32264 38.6554 7.3365C37.5828 7.34628 36.5135 7.45795 35.4623 7.66989C29.9804 1.29225 21.0765 -1.01296 13.1582 1.89464C5.23981 4.80223 -0.0131057 12.3056 2.4559e-05 20.6917C0.0106929 26.546 2.59242 32.1045 7.06901 35.9128C6.23278 36.128 5.4704 36.5641 4.86231 37.173C3.89478 38.1039 3.35316 39.3869 3.36136 40.7246C3.37039 42.839 4.71542 44.7204 6.7227 45.4255V52.4104C6.73419 56.5285 9.77137 60.0213 13.8721 60.6319L26.4451 98.0997C26.9925 99.7267 28.5254 100.823 30.2521 100.823C31.9787 100.823 33.5116 99.7267 34.0582 98.0997L46.6304 60.6335C50.7319 60.0238 53.7708 56.5293 53.7814 52.4104V45.4304C54.4831 45.194 55.1199 44.7978 55.6418 44.2753C56.6085 43.3444 57.151 42.0614 57.1428 40.7246ZM52.1008 24.0305C52.1098 28.8961 49.4411 33.3785 45.1442 35.7164H32.1592C31.7218 35.4767 31.3 35.2102 30.8971 34.9167C26.6281 31.9219 24.4936 26.74 25.4275 21.6324C26.3606 16.5247 30.1922 12.4181 35.2481 11.1057C39.2791 10.0656 43.5678 10.937 46.8634 13.4647C50.1599 15.9933 52.0934 19.8937 52.1008 24.0305ZM3.36136 20.6917C3.35808 13.975 7.40629 7.91117 13.6366 5.3011C19.8661 2.69103 27.0639 4.04334 31.904 8.73365C31.8851 8.73365 31.8704 8.75321 31.8515 8.76218C31.1876 9.054 30.5434 9.3882 29.9222 9.76317C29.8212 9.82512 29.7195 9.88544 29.6185 9.94902C29.0268 10.324 28.459 10.7364 27.919 11.1823L27.6433 11.4195C27.109 11.8793 26.6035 12.3724 26.1308 12.8949C26.0791 12.9552 26.0299 13.0188 25.9782 13.0791C25.5071 13.6147 25.0705 14.1804 24.6717 14.7714C24.652 14.8032 24.6266 14.8333 24.6069 14.8651C24.213 15.4691 23.8593 16.0968 23.5458 16.7448C23.4974 16.8451 23.4449 16.9437 23.3981 17.0456C23.1059 17.679 22.854 18.3303 22.6431 18.9954C22.6045 19.1169 22.5692 19.2391 22.5323 19.3622C22.3313 20.0437 22.1737 20.7374 22.0621 21.4392C22.0465 21.5411 22.0366 21.643 22.0235 21.7465C21.9127 22.503 21.8545 23.2659 21.8487 24.0305C21.8512 24.6492 21.8889 25.2671 21.9611 25.8817C21.9833 26.0765 22.0202 26.2689 22.0481 26.4621C22.1105 26.8794 22.1827 27.2968 22.2771 27.7027C22.3272 27.9212 22.383 28.1372 22.4453 28.354C22.5512 28.7396 22.6702 29.1186 22.8015 29.4944C22.8737 29.7031 22.9426 29.9101 23.0247 30.1147C23.1929 30.5272 23.3726 30.9299 23.568 31.3268C23.6402 31.4776 23.7025 31.6309 23.7797 31.7776C24.0554 32.2936 24.3566 32.7949 24.684 33.2799C24.8063 33.4609 24.9425 33.6296 25.0705 33.8065C25.2987 34.1171 25.5309 34.4252 25.7812 34.7211C25.9495 34.9167 26.1177 35.1034 26.2851 35.2917C26.4131 35.4302 26.5288 35.5778 26.6618 35.7106H12.8299C7.04685 32.9098 3.37285 27.0824 3.36136 20.6917ZM45.3781 57.4186H40.2081C39.2799 57.4186 38.5274 58.1653 38.5274 59.088C38.5274 60.0099 39.2799 60.7574 40.2081 60.7574H43.045L30.87 97.04C30.765 97.2862 30.5212 97.446 30.2521 97.446C29.9821 97.446 29.7392 97.2862 29.6333 97.04L17.4583 60.7574H33.556C34.4841 60.7574 35.2366 60.0099 35.2366 59.088C35.2366 58.1653 34.4841 57.4186 33.556 57.4186H15.126C12.3416 57.4186 10.084 55.1761 10.084 52.4104V45.7328H50.4201V52.4104C50.4201 55.1761 48.1625 57.4186 45.3781 57.4186ZM53.2652 41.9147C52.9583 42.2244 52.5382 42.3972 52.1008 42.394H8.40337C7.47523 42.394 6.7227 41.6465 6.7227 40.7246C6.72188 40.2738 6.90816 39.8426 7.23888 39.5336C7.54498 39.2239 7.96597 39.0511 8.40337 39.0552H52.1008C53.0289 39.0552 53.7814 39.8018 53.7814 40.7246C53.7822 41.1745 53.5951 41.6057 53.2652 41.9147Z" fill="#FF007C"/>
<path d="M14.484 15.5485C15.1093 15.8143 15.8348 15.6757 16.3157 15.198C16.7967 14.7203 16.937 13.9988 16.6686 13.3777C16.5874 13.1739 16.4676 12.9864 16.3157 12.8266C15.6419 12.2095 14.603 12.2095 13.9292 12.8266C13.7773 12.9864 13.6575 13.1739 13.5763 13.3777C13.3079 13.9988 13.4474 14.7195 13.9292 15.198C14.09 15.3488 14.278 15.4678 14.484 15.5485Z" fill="#FF007C"/>
<path d="M20.2842 12.9771C20.3835 13.176 20.5082 13.361 20.6559 13.5281C21.3182 14.1738 22.3794 14.1738 23.0425 13.5281C23.1902 13.3651 23.31 13.1792 23.3954 12.9771C23.5743 12.5727 23.5743 12.1122 23.3954 11.7078C23.3141 11.504 23.1943 11.3165 23.0425 11.1568C22.6387 10.7655 22.0667 10.5967 21.5127 10.706C21.4077 10.7247 21.3059 10.7581 21.2107 10.8062C21.1032 10.8429 21.0006 10.8935 20.9062 10.957C20.8193 11.019 20.7355 11.0858 20.6559 11.1568C20.5041 11.3165 20.3843 11.504 20.303 11.7078C20.2087 11.9059 20.1627 12.1236 20.1684 12.3429C20.1652 12.5597 20.2046 12.7749 20.2842 12.9771Z" fill="#FF007C"/>
<path d="M17.9996 28.5569C18.4805 28.0783 18.62 27.3577 18.3525 26.7365C18.2712 26.5327 18.1514 26.3453 17.9996 26.1855C17.3258 25.5684 16.2868 25.5684 15.613 26.1855C15.4612 26.3453 15.3413 26.5327 15.2601 26.7365C14.9548 27.4718 15.2133 28.3188 15.8789 28.7615C16.5445 29.2033 17.4316 29.1177 17.9996 28.5569Z" fill="#FF007C"/>
<path d="M19.6829 31.1899C19.0091 30.5728 17.9701 30.5728 17.2963 31.1899C17.1445 31.3497 17.0246 31.5371 16.9434 31.7409C16.7637 32.1453 16.7637 32.6059 16.9434 33.0102C17.0287 33.2124 17.1477 33.3982 17.2963 33.5613C17.9586 34.2069 19.0197 34.2069 19.6829 33.5613C19.8306 33.3982 19.9504 33.2124 20.0357 33.0102C20.2155 32.6059 20.2155 32.1453 20.0357 31.7409C19.9545 31.5371 19.8347 31.3497 19.6829 31.1899Z" fill="#FF007C"/>
<path d="M9.0424 22.228C9.46506 22.0756 9.79744 21.7454 9.95009 21.3264C10.129 20.9221 10.129 20.4615 9.95009 20.0572C9.86884 19.8534 9.74902 19.6659 9.59719 19.5061C9.10888 19.0415 8.3916 18.9037 7.76541 19.1556C7.34276 19.308 7.01038 19.6382 6.85773 20.0572C6.76335 20.2553 6.71739 20.4729 6.72314 20.6922C6.71985 20.9091 6.75925 21.1243 6.83885 21.3264C6.93816 21.5253 7.0629 21.7104 7.21062 21.8775C7.69155 22.3552 8.41704 22.4938 9.0424 22.228Z" fill="#FF007C"/>
<path d="M12.2494 21.8796C12.4103 22.0304 12.5982 22.1494 12.8042 22.2301C13.2104 22.4078 13.6741 22.4078 14.0812 22.2301C14.5038 22.0777 14.8362 21.7475 14.9889 21.3285C15.1678 20.9242 15.1678 20.4636 14.9889 20.0593C14.9076 19.8555 14.7878 19.668 14.636 19.5082C14.1526 19.0346 13.4295 18.8968 12.8042 19.1577C12.5982 19.2384 12.4103 19.3574 12.2494 19.5082C11.9416 19.8277 11.7668 20.2516 11.7619 20.6943C11.7586 20.9111 11.798 21.1263 11.8776 21.3285C11.9769 21.5274 12.1017 21.7125 12.2494 21.8796Z" fill="#FF007C"/>
<path d="M7.21062 15.2004C7.69155 15.6781 8.41704 15.8167 9.0424 15.5509C9.24593 15.4653 9.43305 15.3471 9.59719 15.2004C10.0781 14.7219 10.2176 14.0012 9.95009 13.3801C9.86884 13.1763 9.74902 12.9888 9.59719 12.829C9.1138 12.3554 8.39078 12.2176 7.76541 12.4785C7.34276 12.6309 7.01038 12.9611 6.85773 13.3801C6.76335 13.5782 6.71739 13.7958 6.72314 14.0151C6.71985 14.2319 6.75925 14.4471 6.83885 14.6493C6.93816 14.8482 7.0629 15.0333 7.21062 15.2004Z" fill="#FF007C"/>
<path d="M16.8096 10.6741C17.2552 10.6733 17.6827 10.498 17.9979 10.1842L19.6785 8.51482C20.1151 8.09584 20.2907 7.47552 20.1365 6.89188C19.983 6.30824 19.5243 5.85258 18.9367 5.69933C18.3483 5.5469 17.7238 5.72052 17.302 6.15499L15.6213 7.82439C15.1404 8.30125 14.9968 9.01939 15.2569 9.64297C15.5171 10.2665 16.1301 10.6733 16.8096 10.6741Z" fill="#FF007C"/>
<path d="M11.7665 30.7063C12.446 30.7054 13.059 30.2987 13.3183 29.6751C13.5784 29.0515 13.4348 28.3334 12.9547 27.8565L11.2741 26.1871C10.6143 25.5538 9.56633 25.5636 8.91802 26.2075C8.26972 26.8515 8.26069 27.8924 8.89751 28.547L10.5782 30.2164C10.8933 30.5302 11.3209 30.7054 11.7665 30.7063Z" fill="#FF007C"/>
<path d="M18.4893 19.0195C17.5611 19.0195 16.8086 19.7662 16.8086 20.6889V22.3583C16.8086 23.2803 17.5611 24.0277 18.4893 24.0277C19.4174 24.0277 20.1699 23.2803 20.1699 22.3583V20.6889C20.1699 19.7662 19.4174 19.0195 18.4893 19.0195Z" fill="#FF007C"/>
</svg>
