<svg xmlns="http://www.w3.org/2000/svg" width="35.31" height="62.937" viewBox="0 0 35.31 62.937">
  <path id="Path_724" data-name="Path 724" d="M244.256,22.782q0,4.811-4.123,10.652l-6.615,9.278a7.783,7.783,0,0,0-1.546,4.639v2.577h-8.762V46.921a14.54,14.54,0,0,1,2.921-8.5l6.7-9.106q2.663-3.608,2.663-6.615a8.221,8.221,0,0,0-8.419-8.419,7.9,7.9,0,0,0-5.97,2.276,9.453,9.453,0,0,0-2.362,6.4H209.98a22.561,22.561,0,0,1,1.289-6.615,15.562,15.562,0,0,1,6.142-7.259,17.768,17.768,0,0,1,9.664-2.62A17.158,17.158,0,0,1,239.359,11.1,15.412,15.412,0,0,1,244.256,22.782ZM233.088,62.813A5.573,5.573,0,0,1,227.5,68.4a5.242,5.242,0,0,1-3.909-1.632,5.355,5.355,0,0,1-1.589-3.866,5.457,5.457,0,0,1,1.589-3.952,5.242,5.242,0,0,1,3.909-1.632,5.426,5.426,0,0,1,3.909,1.632A5.218,5.218,0,0,1,233.088,62.813Z" transform="translate(-209.446 -5.96)" fill="#fff" stroke="rgba(0,0,0,0)" stroke-width="1"/>
</svg>
