<?xml version="1.0" encoding="utf-8"?>
<!-- Svg Vector Icons : http://www.onlinewebfonts.com/icon -->
<!DOCTYPE svg PUBLIC "-//W3C//DTD SVG 1.1//EN" "http://www.w3.org/Graphics/SVG/1.1/DTD/svg11.dtd">
<svg version="1.1" xmlns="http://www.w3.org/2000/svg" xmlns:xlink="http://www.w3.org/1999/xlink" x="0px" y="0px" viewBox="0 0 1000 1000" enable-background="new 0 0 1000 1000" xml:space="preserve">
<metadata> Svg Vector Icons : http://www.onlinewebfonts.com/icon </metadata>
<g><path d="M19,981c6,6,13.8,8.9,21.7,8.9c7.8,0,15.7-3,21.7-9L500,542.8L937.7,981c6,6,13.8,9,21.7,9c7.8,0,15.7-3,21.6-8.9c12-11.9,12-31.3,0-43.3L543.8,500L981,62.3c11.9-12,11.9-31.4,0-43.3c-12-12-31.4-12-43.3,0L500,457.2L62.3,19C50.3,7,30.9,7,19,19C7,30.9,7,50.3,19,62.3L456.1,500L19,937.7C7,949.7,7,969.1,19,981z"/></g>
</svg>