<svg width="55" height="55" viewBox="0 0 55 55" fill="none" xmlns="http://www.w3.org/2000/svg">
<path d="M54.9944 44.3166C55.0712 46.444 54.3306 48.488 52.9085 50.0724L52.8527 50.1341C52.8271 50.1631 52.8007 50.1908 52.7734 50.2181C49.6439 53.3476 45.2727 54.9996 40.1257 54.9996C40.0854 54.9996 40.0452 54.9992 40.0049 54.9992C36.2128 54.9803 32.0804 54.0177 27.7231 52.1382C26.6338 51.6683 26.1315 50.4039 26.6015 49.3146C27.0715 48.2249 28.3353 47.723 29.4251 48.193C33.1949 49.819 36.8607 50.6868 40.0267 50.7023C40.059 50.7023 40.0922 50.7027 40.1249 50.7027C44.0857 50.7027 47.3918 49.4988 49.6959 47.2186L49.711 47.2019C51.1126 45.6405 51.0274 43.2759 49.5168 41.8194C43.7483 36.257 41.0245 36.6602 38.5039 39.1184L34.4924 43.1001C33.8629 43.7249 32.9146 43.8986 32.1048 43.5382C31.8777 43.437 26.4727 40.9911 20.3823 34.9004L20.0995 34.6184C14.0079 28.5268 11.5624 23.1217 11.4613 22.8947C11.1004 22.0849 11.2746 21.1365 11.899 20.5071L15.8803 16.496C18.3392 13.9753 18.7433 11.252 13.1796 5.48272C11.7231 3.9721 9.35901 3.88692 7.7972 5.28844L7.78084 5.30354C5.48134 7.62654 4.27704 10.9688 4.29676 14.9732C4.33536 22.6916 8.71112 31.6551 16.0036 38.9555L16.0238 38.9757C17.4165 40.3684 19.0068 41.7523 20.7503 43.0896C21.6924 43.8113 21.8703 45.16 21.1481 46.1016C20.4264 47.0432 19.0778 47.2212 18.1361 46.4994C16.2521 45.0551 14.5262 43.5529 13.0059 42.0347C12.9992 42.028 12.9921 42.0213 12.9853 42.0145C4.89849 33.9273 0.0443621 23.8267 0.00030237 14.9946C-0.0257138 9.79512 1.62758 5.37991 4.78141 2.22607C4.80827 2.1988 4.83638 2.17236 4.86492 2.14677L4.9266 2.09138C6.51108 0.669295 8.55461 -0.0725873 10.6825 0.00504173C12.8099 0.0818316 14.7951 0.968062 16.273 2.5005C19.1663 5.50076 20.8364 8.01469 21.5287 10.4115C22.4834 13.7148 21.6152 16.7738 18.9489 19.5038C18.9452 19.508 18.941 19.5122 18.9368 19.5164L16.0536 22.421C17.0758 24.2341 19.3228 27.7648 23.1371 31.5791L23.4195 31.8615C27.2594 35.701 30.77 37.9338 32.576 38.9484L35.4835 36.0623C35.4877 36.0585 35.4915 36.0543 35.4957 36.0501C38.2257 33.3839 41.2847 32.5157 44.5879 33.4703C46.9848 34.1631 49.4987 35.8332 52.4994 38.7264C54.0314 40.2039 54.9176 42.1895 54.9944 44.3166ZM37.2031 23.2451C34.3363 20.1009 31.3721 16.8489 31.3671 11.8227C31.3746 5.30144 36.6752 -0.000413279 43.1835 -0.000413279C49.6913 -0.000413279 54.9923 5.30144 54.9999 11.8181C54.9948 16.8489 52.0307 20.1009 49.1639 23.2451C47.8089 24.7314 46.4074 26.2689 45.3139 28.0019C44.9203 28.6254 44.2346 29.0035 43.4969 29.0035H42.87C42.1323 29.0035 41.4467 28.6254 41.0531 28.0019C39.9591 26.2684 38.558 24.7314 37.2031 23.2451ZM35.6639 11.8231C35.6673 15.1826 37.7461 17.4632 40.3783 20.3506C41.3174 21.3803 42.2767 22.4327 43.1835 23.5883C44.0903 22.4327 45.0495 21.3803 45.9882 20.3506C48.6204 17.4632 50.6996 15.1826 50.703 11.8185C50.698 7.67312 47.3251 4.29688 43.1835 4.29688C39.0419 4.29688 35.6686 7.67312 35.6639 11.8231ZM43.1835 15.1461C45.0197 15.1461 46.5136 13.6522 46.5136 11.816C46.5136 9.97975 45.0197 8.48592 43.1835 8.48592C41.3472 8.48592 39.8534 9.97975 39.8534 11.816C39.8534 13.6522 41.3472 15.1461 43.1835 15.1461Z" fill="#00B674"/>
</svg>
