<svg width="55" height="55" viewBox="0 0 55 55" fill="none" xmlns="http://www.w3.org/2000/svg">
<path d="M52.8516 30.7227C54.0381 30.7227 55 29.7608 55 28.5742V16.1133C55 11.3747 51.1448 7.51953 46.4062 7.51953H15.1346V2.14844C15.1346 0.961856 14.1727 0 12.9861 0H8.59375C3.85516 0 0 3.85516 0 8.59375V39.8535C0 44.5921 3.85516 48.4473 8.59375 48.4473H16.3281V52.8516C16.3281 54.0381 17.29 55 18.4766 55H52.8516C54.0381 55 55 54.0381 55 52.8516V39.3164C55 38.1298 54.0381 37.168 52.8516 37.168H18.4766C17.29 37.168 16.3281 38.1298 16.3281 39.3164V44.1504H8.59375C6.22445 44.1504 4.29688 42.2228 4.29688 39.8535V39.6387C4.29688 37.2694 6.22445 35.3418 8.59375 35.3418H12.9861C14.1727 35.3418 15.1346 34.3799 15.1346 33.1934V11.8164H46.4062C48.7755 11.8164 50.7031 13.744 50.7031 16.1133V28.5742C50.7031 29.7608 51.665 30.7227 52.8516 30.7227ZM20.625 41.4648H24.9219V45.332C24.9219 46.5186 25.8837 47.4805 27.0703 47.4805C28.2569 47.4805 29.2188 46.5186 29.2188 45.332V41.4648H33.5156V45.332C33.5156 46.5186 34.4775 47.4805 35.6641 47.4805C36.8506 47.4805 37.8125 46.5186 37.8125 45.332V41.4648H42.1094V45.332C42.1094 46.5186 43.0712 47.4805 44.2578 47.4805C45.4444 47.4805 46.4062 46.5186 46.4062 45.332V41.4648H50.7031V50.7031H20.625V41.4648ZM10.8377 31.0449H8.59375C7.02958 31.0449 5.56155 31.465 4.29688 32.1982V8.59375C4.29688 6.22445 6.22445 4.29688 8.59375 4.29688H10.8377V31.0449Z" fill="#00B674"/>
</svg>
