<svg width="51" height="55" viewBox="0 0 51 55" fill="none" xmlns="http://www.w3.org/2000/svg">
<path d="M35.8633 23.6328C35.8633 22.4462 34.9014 21.4844 33.7149 21.4844H11.5859C10.3994 21.4844 9.4375 22.4462 9.4375 23.6328C9.4375 24.8194 10.3994 25.7812 11.5859 25.7812H33.7149C34.9014 25.7812 35.8633 24.8194 35.8633 23.6328Z" fill="#00B674"/>
<path d="M11.5859 30.0781C10.3994 30.0781 9.4375 31.04 9.4375 32.2266C9.4375 33.4131 10.3994 34.375 11.5859 34.375H25.0256C26.2122 34.375 27.174 33.4131 27.174 32.2266C27.174 31.04 26.2122 30.0781 25.0256 30.0781H11.5859Z" fill="#00B674"/>
<path d="M16.6346 50.7031H9.44922C7.07992 50.7031 5.15234 48.7755 5.15234 46.4062V8.59375C5.15234 6.22445 7.07992 4.29688 9.44922 4.29688H35.8631C38.2324 4.29688 40.16 6.22445 40.16 8.59375V21.8066C40.16 22.9932 41.1218 23.9551 42.3084 23.9551C43.495 23.9551 44.4568 22.9932 44.4568 21.8066V8.59375C44.4568 3.85516 40.6017 0 35.8631 0H9.44922C4.71062 0 0.855469 3.85516 0.855469 8.59375V46.4062C0.855469 51.1448 4.71062 55 9.44922 55H16.6346C17.8211 55 18.783 54.0381 18.783 52.8516C18.783 51.665 17.8211 50.7031 16.6346 50.7031Z" fill="#00B674"/>
<path d="M48.2646 31.1067C45.7516 28.5937 41.6627 28.5936 39.1513 31.105L27.356 42.8741C27.1055 43.1241 26.9207 43.432 26.8178 43.7706L24.2491 52.2273C24.0213 52.9771 24.2197 53.7913 24.7669 54.3521C25.1769 54.7723 25.7337 55.0003 26.3049 55.0003C26.496 55.0003 26.6889 54.9748 26.8783 54.9222L35.5499 52.5202C35.9068 52.4213 36.2321 52.232 36.4942 51.9703L48.2647 40.2219C50.7778 37.7089 50.7777 33.6199 48.2646 31.1067ZM33.8585 48.5301L29.4959 49.7386L30.7726 45.5353L38.7314 37.5941L41.7703 40.6331L33.8585 48.5301ZM45.2279 37.1823L44.8116 37.5977L41.7732 34.5592L42.1881 34.1452C43.0258 33.3076 44.3887 33.3076 45.2264 34.1452C46.0641 34.9829 46.0641 36.3459 45.2279 37.1823Z" fill="#00B674"/>
<path d="M33.7149 12.8906H11.5859C10.3994 12.8906 9.4375 13.8525 9.4375 15.0391C9.4375 16.2256 10.3994 17.1875 11.5859 17.1875H33.7149C34.9014 17.1875 35.8633 16.2256 35.8633 15.0391C35.8633 13.8525 34.9014 12.8906 33.7149 12.8906Z" fill="#00B674"/>
</svg>
