<svg width="60" height="60" viewBox="0 0 60 60" fill="none" xmlns="http://www.w3.org/2000/svg">
<path d="M12.7233 31.5415C12.0847 31.5415 11.5664 32.0598 11.5664 32.6984C11.5664 33.3369 12.0847 33.8552 12.7233 33.8552C13.3618 33.8552 13.8801 33.3369 13.8801 32.6984C13.8801 32.0598 13.3618 31.5415 12.7233 31.5415Z" fill="black"/>
<path d="M56.6938 24.4434C56.584 23.8884 56.772 23.089 56.9532 22.3158C57.2271 21.1504 57.5366 19.83 57.0359 18.6202C56.5248 17.3888 55.3589 16.6685 54.33 16.0331C53.6652 15.6224 52.9774 15.1976 52.6765 14.7475C52.3687 14.2875 52.2363 13.4836 52.1089 12.7063C51.9141 11.5196 51.6932 10.1743 50.7591 9.24026C49.825 8.3062 48.4793 8.08567 47.2926 7.89091C46.5154 7.76347 45.7119 7.63152 45.2532 7.32513C44.8022 7.02327 44.3779 6.33548 43.9671 5.6703C43.3313 4.64133 42.611 3.47454 41.3791 2.9639C40.1703 2.46275 38.8499 2.77274 37.6849 3.04614C36.9112 3.2278 36.1114 3.41534 35.5569 3.30598C35.0051 3.19662 34.2112 2.72394 33.4434 2.26662C32.2075 1.53049 30.929 0.769043 29.6154 0.769043C28.3008 0.769043 27.022 1.53049 25.7851 2.26662C25.0174 2.72394 24.2234 3.19662 23.6716 3.30598C23.1176 3.41534 22.3182 3.2278 21.545 3.04614C20.3796 2.77274 19.0591 2.46275 17.8498 2.9639C16.6184 3.47499 15.8981 4.64133 15.2623 5.6703C14.852 6.33548 14.4272 7.02327 13.9771 7.32468C13.5184 7.63152 12.715 7.76347 11.9377 7.89091C10.7506 8.08567 9.40529 8.30665 8.47032 9.24072C7.53716 10.1739 7.31663 11.5178 7.12186 12.704C6.99443 13.4818 6.86248 14.2861 6.55338 14.7471C6.25197 15.198 5.56463 15.6224 4.8999 16.0331C3.87138 16.669 2.70549 17.3888 2.19485 18.6212C1.69415 19.83 2.00325 21.15 2.27619 22.3145C2.4574 23.0877 2.64494 23.8875 2.53468 24.4434C2.42577 24.9956 1.95309 25.7896 1.49577 26.5578C0.760539 27.7937 0 29.0712 0 30.3844C0 31.6985 0.760539 32.9769 1.49622 34.2133C1.95309 34.9816 2.42577 35.7755 2.53468 36.3291C2.64449 36.8831 2.4574 37.683 2.27619 38.4562C2.00325 39.6212 1.69415 40.9411 2.19485 42.1495C2.70595 43.3814 3.87138 44.1012 4.8999 44.7371C5.56463 45.1474 6.25197 45.5722 6.55474 46.0245C6.86248 46.4832 6.99488 47.2876 7.12232 48.0653C7.31663 49.251 7.53716 50.595 8.47032 51.5295C9.40393 52.4627 10.7479 52.6832 11.9336 52.8779C12.7118 53.0054 13.5162 53.1373 13.9771 53.4464C14.4276 53.7478 14.8524 54.4352 15.2632 55.0999C15.8986 56.1284 16.6189 57.2939 17.8508 57.805C19.0587 58.3057 20.3787 57.9961 21.5436 57.7236C22.3168 57.5424 23.1171 57.3553 23.6721 57.4651C24.2238 57.574 25.0183 58.0467 25.7865 58.5036C27.0229 59.2393 28.3013 59.9998 29.6154 59.9998C30.9286 59.9998 32.2066 59.2393 33.442 58.504C34.2103 58.0467 35.0047 57.574 35.5574 57.4651C36.1123 57.3553 36.9121 57.5424 37.6862 57.7236C38.8508 57.9966 40.1707 58.3057 41.3796 57.805C42.611 57.2943 43.3313 56.1284 43.9667 55.0999C44.3774 54.4352 44.8018 53.7478 45.2537 53.446C45.7137 53.1373 46.5181 53.0054 47.2958 52.8779C48.4815 52.6832 49.8259 52.4627 50.7591 51.5295C51.6932 50.5959 51.9141 49.2506 52.1089 48.0639C52.2363 47.2862 52.3687 46.4827 52.676 46.0227C52.9774 45.5722 53.6652 45.1474 54.33 44.7366C55.3589 44.1012 56.5248 43.3809 57.0359 42.1491C57.5366 40.9402 57.2271 39.6198 56.9532 38.4548C56.772 37.6816 56.5845 36.8827 56.6938 36.3287C56.8027 35.7764 57.2759 34.9825 57.7327 34.2147C58.4693 32.9779 59.2308 31.699 59.2308 30.3844C59.2308 29.0708 58.4693 27.7924 57.7332 26.5564C57.2759 25.7887 56.8032 24.9947 56.6938 24.4434ZM55.7449 33.0312C55.1877 33.9675 54.611 34.9359 54.424 35.879V35.8795C54.2174 36.9243 54.4633 37.9708 54.701 38.9835C54.9043 39.8489 55.114 40.7437 54.8989 41.2633C54.6743 41.8052 53.8812 42.2946 53.1144 42.7686C52.2391 43.3091 51.3344 43.8676 50.7532 44.7366C50.1671 45.6133 49.9936 46.6685 49.8259 47.6888C49.6809 48.5723 49.5308 49.486 49.1232 49.8932C48.7165 50.2999 47.8042 50.4499 46.9216 50.5945C45.8994 50.7622 44.8429 50.9357 43.9662 51.5236C43.0977 52.1043 42.5391 53.009 41.9982 53.8839C41.5246 54.6503 41.0352 55.4429 40.4934 55.6675C39.9733 55.883 39.079 55.6734 38.2136 55.4709C37.2009 55.2337 36.1534 54.9883 35.1086 55.1953C34.1646 55.3814 33.1957 55.9581 32.259 56.5157C31.3371 57.0643 30.2923 57.6861 29.6154 57.6861C28.9375 57.6861 27.8923 57.0639 26.9695 56.5153C26.0328 55.9576 25.0639 55.3814 24.1212 55.1953C23.0814 54.9892 22.0434 55.2301 21.0158 55.4709C20.1509 55.6734 19.2561 55.883 18.7365 55.6679C18.1946 55.4429 17.7052 54.6503 17.2312 53.8839C16.6907 53.009 16.1322 52.1043 15.2646 51.5241C14.387 50.9357 13.3304 50.7622 12.3083 50.5945C11.4262 50.4499 10.5133 50.3003 10.1071 49.8936C9.69992 49.4865 9.55035 48.5737 9.40529 47.6906C9.23764 46.6689 9.06456 45.6119 8.47664 44.7362C7.89551 43.8681 6.99127 43.3091 6.1164 42.7686C5.34953 42.295 4.55691 41.8052 4.33232 41.2638C4.11676 40.7437 4.32644 39.8489 4.52889 38.984C4.76614 37.9708 5.01151 36.9238 4.80455 35.8799C4.61837 34.9359 4.0422 33.9671 3.48456 33.0303C2.93596 32.108 2.3137 31.0623 2.3137 30.3844C2.3137 29.7075 2.93551 28.6627 3.48411 27.7408C4.04175 26.8041 4.61837 25.8352 4.80409 24.8921C5.01151 23.8469 4.76614 22.7994 4.52889 21.7867C4.32644 20.9213 4.11676 20.027 4.33186 19.5069C4.55691 18.9646 5.34953 18.4752 6.11595 18.0016C6.99081 17.4607 7.89551 16.9021 8.47574 16.0345C9.06411 15.1569 9.23764 14.1004 9.40529 13.0782C9.5499 12.1957 9.69947 11.2833 10.1062 10.877C10.5142 10.4694 11.4284 10.3194 12.3128 10.1743C13.3332 10.0067 14.3879 9.8336 15.2641 9.2475C16.1322 8.66591 16.6907 7.76121 17.2312 6.88634C17.7048 6.11903 18.1946 5.32595 18.736 5.10136C19.2561 4.88581 20.1509 5.09548 21.0163 5.29884C22.0285 5.53653 23.0756 5.78237 24.1208 5.57585C25.0639 5.38922 26.0323 4.8126 26.9686 4.25496C27.8914 3.70546 28.9375 3.08274 29.6154 3.08274C30.2923 3.08274 31.3376 3.70546 32.2594 4.25451C33.1957 4.81215 34.1642 5.38876 35.1082 5.57585C36.1534 5.78237 37.2004 5.53653 38.2131 5.29884C39.0785 5.09594 39.9733 4.88581 40.4929 5.10091C41.0348 5.32595 41.5246 6.11903 41.9982 6.88634C42.5387 7.76121 43.0977 8.66591 43.9667 9.2484C44.8429 9.8336 45.8976 10.0067 46.918 10.1739C47.8019 10.3189 48.7156 10.469 49.1232 10.8766C49.5304 11.2837 49.6809 12.1975 49.8259 13.0809C49.9936 14.1018 50.1667 15.1569 50.7532 16.0336C51.3344 16.9021 52.2391 17.4607 53.1144 18.0016C53.8812 18.4752 54.6739 18.9646 54.8985 19.506C55.114 20.0265 54.9039 20.9213 54.701 21.7867C54.4633 22.7994 54.2174 23.8464 54.424 24.8916C54.611 25.8357 55.1877 26.8041 55.7453 27.7404C56.2944 28.6623 56.9171 29.7075 56.9171 30.3844C56.9171 31.0623 56.2944 32.1084 55.7449 33.0312Z" fill="black"/>
<path d="M29.6118 7.71045C17.5195 7.71045 6.9375 18.2527 6.9375 30.3847C6.9375 42.477 17.4798 53.059 29.6118 53.059C41.704 53.059 52.2861 42.5168 52.2861 30.3847C52.2861 18.2925 41.7438 7.71045 29.6118 7.71045ZM29.6118 50.7453C18.7654 50.7453 9.2512 41.2311 9.2512 30.3847C9.2512 19.5383 18.7654 10.0242 29.6118 10.0242C40.4582 10.0242 49.9724 19.5383 49.9724 30.3847C49.9724 41.2311 40.4582 50.7453 29.6118 50.7453Z" fill="black"/>
<path d="M29.6095 14.6516C30.2485 14.6516 30.7664 14.1337 30.7664 13.4947C30.7664 12.8558 30.2485 12.3379 29.6095 12.3379C20.906 12.3379 12.95 19.4656 11.7385 27.9093C11.6476 28.5415 12.0869 29.1276 12.7195 29.2184C12.7751 29.2266 12.8302 29.2302 12.8854 29.2302C13.4511 29.2302 13.946 28.8144 14.0287 28.2374C15.0852 20.8733 22.2202 14.6516 29.6095 14.6516Z" fill="black"/>
<path d="M40.1819 27.655L33.577 26.6957L30.6243 20.7108C30.4295 20.3158 30.0273 20.0659 29.5867 20.0659C29.1466 20.0659 28.7444 20.3158 28.5496 20.7108L25.5956 26.6957L18.9902 27.655C18.5546 27.7183 18.1926 28.0238 18.0566 28.4427C17.9206 28.8611 18.034 29.3212 18.3495 29.6285L23.1287 34.287L22.0008 40.8662C21.9262 41.3 22.1047 41.7388 22.4612 41.9973C22.8173 42.2562 23.2896 42.2901 23.6796 42.0854L29.5867 38.9791L35.493 42.0854C35.8789 42.2878 36.3516 42.2589 36.7118 41.9973C37.0679 41.7388 37.2463 41.3 37.1718 40.8657L36.0439 34.287L40.8236 29.6285C41.139 29.3207 41.2524 28.8611 41.1164 28.4422C40.9799 28.0238 40.6179 27.7183 40.1819 27.655ZM33.9932 33.0547C33.7207 33.3204 33.5959 33.7037 33.6606 34.0787L34.4952 38.9465L30.1254 36.6482C29.7883 36.4711 29.3856 36.4711 29.0485 36.6482L24.6773 38.9465L25.512 34.0787C25.5762 33.7037 25.4519 33.3209 25.1794 33.0547L21.6429 29.6081L26.5301 28.8982C26.907 28.8435 27.2328 28.6067 27.4014 28.2651L29.5867 23.837L31.7712 28.2651C31.9397 28.6067 32.2656 28.8435 32.6424 28.8982L37.5297 29.6081L33.9932 33.0547Z" fill="#00B674"/>
</svg>
