<svg xmlns="http://www.w3.org/2000/svg" width="67" height="30.969" viewBox="0 0 67 30.969">
  <metadata><?xpacket begin="﻿" id="W5M0MpCehiHzreSzNTczkc9d"?>
<x:xmpmeta xmlns:x="adobe:ns:meta/" x:xmptk="Adobe XMP Core 5.6-c138 79.159824, 2016/09/14-01:09:01        ">
   <rdf:RDF xmlns:rdf="http://www.w3.org/1999/02/22-rdf-syntax-ns#">
      <rdf:Description rdf:about=""/>
   </rdf:RDF>
</x:xmpmeta>
                                                                                                    
                                                                                                    
                                                                                                    
                                                                                                    
                                                                                                    
                                                                                                    
                                                                                                    
                                                                                                    
                                                                                                    
                                                                                                    
                                                                                                    
                                                                                                    
                                                                                                    
                                                                                                    
                                                                                                    
                                                                                                    
                                                                                                    
                                                                                                    
                                                                                                    
                                                                                                    
                           
<?xpacket end="w"?></metadata>
<defs>
    <style>
      .cls-1 {
        fill: #e9b524;
        fill-rule: evenodd;
      }
    </style>
  </defs>
  <path id="Прямоугольник_19" data-name="Прямоугольник 19" class="cls-1" d="M37.529,350.02c4.139-.145,6.118.556,8.138,2.323l-0.379.387C35.044,346.206,24.5,359.819,31.283,368.8c7.114,9.425,21.577.355,17.6-12.2l0.568-.193V356.8c4,8.365-4.29,20.085-13.816,16.069-5.773-2.433-10.506-11.49-5.489-18.392C32,351.927,33.5,351.093,37.529,350.02Zm41.449,0a2.428,2.428,0,0,1,1.136,1.161v0.194c-2.7.786-3.857,4.04-2.65,7.164,2.3,5.94,6.229,10.02-.379,15.1l-0.568-.388c-0.192-.862-0.3-0.334,0-1.161,8.569-4.065-2.025-12.491-.757-18C76.2,352.174,77.876,351.276,78.978,350.02Zm-56.969.387h5.11l-0.189,1.355-3.785-.193v4.646h3.407v0.775H23.145v15.294c1.636-.111,4.227-0.415,4.731.775H22.009V350.407Zm31.418,0h1.325V371.9H59.1v1.162H53.427V350.407Zm8.138,0H62.89v22.652H61.565V350.407Zm7.192,22.652H67.243V350.407c9.324,1.224,7.783,13.352,1.514,17.231v5.421Zm14.384-22.652h5.3v0.774H84.656v5.034h3.217v0.775H84.656V371.9h4.353v1.162H83.142V350.407Zm-14.384,1.549V365.9C72.905,363.136,75.147,354.129,68.757,351.956ZM30.9,377.705c1.5,0.713.478,1.307-.568,1.937l-0.568-.582-1.514,1.162c5.087,0.014,8.9-1.709,13.438-2.129l0.189,0.387v0.193c-1.2.428-.469,0.261-0.946,1.356,3.182-.052,9.277-2.805,10.788-1.549v0.193l-0.757.387,0.189,0.775c2.032-.632,8.656-2.435,10.41-1.162l-1.325,1.549c3.332-.968,10.456-1.349,11.924-1.936l0.378,0.387-0.378,1.356,0.189,0.193a30.327,30.327,0,0,0,10.788-2.129l0.568,0.387A7.025,7.025,0,0,1,80.681,381l-0.757-.775,0.189-.58c-3.056.568-6.536,2.23-8.9,0.193L69.7,380.8l-0.568-.387,1.325-1.549L60.43,381l-0.946-.775q0.284-.581.568-1.162L49.074,381l-0.189-.581c0.748-.558,1.21-0.442,1.514-1.549a30.526,30.526,0,0,1-12.491,1.742l0.568-1.161c-2.791.922-8.307,2.215-10.977,0.968l0.189-.581C28.355,378.539,29.694,378.43,30.9,377.705Zm51.1,1.355-1.136.775v0.194C81.222,379.9,82.461,379.286,82.006,379.06Zm-20.748-1.734,2.282-.757,0.1,0.7-2.282.756Z" transform="translate(-22 -350.031)"/>
</svg>
