<svg width="29" height="23" viewBox="0 0 29 23" fill="none" xmlns="http://www.w3.org/2000/svg">
<path d="M20.8599 0H1.61544C0.724654 0 0 0.724654 0 1.61538V13.161C0 14.0517 0.724654 14.7764 1.61544 14.7764H2.86332V19.0746C2.86332 19.3483 3.02816 19.5951 3.28109 19.6998C3.3648 19.7346 3.45277 19.7514 3.53995 19.7514C3.71611 19.7514 3.88914 19.6826 4.01863 19.5532L8.79536 14.7765H9.75372C10.1275 14.7765 10.4305 14.4735 10.4305 14.0997C10.4305 13.7259 10.1274 13.4229 9.75372 13.4229C9.75372 13.4229 8.48237 13.4238 8.46909 13.4252C8.31153 13.4359 8.15688 13.5008 8.03641 13.6212L4.21681 17.4408C4.21681 17.4408 4.21563 14.0569 4.21345 14.0394C4.18291 13.6939 3.89312 13.4229 3.53973 13.4229H1.61544C1.47099 13.4229 1.35355 13.3054 1.35355 13.161V1.61538C1.35355 1.47094 1.47105 1.35349 1.61544 1.35349H20.8599C21.0044 1.35349 21.1218 1.47099 21.1218 1.61538V6.04495C21.1218 6.41873 21.4249 6.72169 21.7986 6.72169C22.1722 6.72169 22.4753 6.41873 22.4753 6.04495V1.61538C22.4753 0.724654 21.7507 0 20.8599 0Z" fill="#43AA8B"/>
<path d="M27.0726 8.27783H13.6018C12.711 8.27783 11.9863 9.00249 11.9863 9.89327V17.7696C11.9863 18.6603 12.711 19.385 13.6018 19.385H22.0353L25.4521 22.8018C25.5816 22.9313 25.7546 23.0001 25.9307 23.0001C26.0179 23.0001 26.1059 22.9832 26.1896 22.9485C26.4424 22.8437 26.6074 22.597 26.6074 22.3233V19.385H27.0725C27.9632 19.385 28.6879 18.6603 28.6879 17.7695V9.89322C28.688 9.00249 27.9633 8.27783 27.0726 8.27783ZM27.3345 17.7696C27.3345 17.914 27.217 18.0315 27.0726 18.0315H25.9309C25.5748 18.0315 25.2835 18.3067 25.2568 18.6561C25.2551 18.6709 25.2539 20.6895 25.2539 20.6895L22.7967 18.2322C22.7942 18.2296 22.7915 18.2272 22.7889 18.2246C22.7793 18.2152 22.7701 18.207 22.7615 18.1997C22.6424 18.0953 22.4868 18.0314 22.316 18.0314H13.6018C13.4573 18.0314 13.3399 17.9139 13.3399 17.7695V9.89322C13.3399 9.74877 13.4574 9.63133 13.6018 9.63133H27.0726C27.217 9.63133 27.3345 9.74882 27.3345 9.89322V17.7696Z" fill="#43AA8B"/>
<path d="M20.3374 13.1545C19.9638 13.1545 19.6606 13.4577 19.6606 13.8313C19.6606 14.2048 19.9638 14.508 20.3374 14.508C20.711 14.508 21.0141 14.2048 21.0141 13.8313C21.0141 13.4577 20.711 13.1545 20.3374 13.1545Z" fill="#43AA8B"/>
<path d="M17.3963 4.47437H5.07934C4.70561 4.47437 4.40259 4.77733 4.40259 5.15111C4.40259 5.5249 4.70566 5.82786 5.07934 5.82786H17.3963C17.77 5.82786 18.073 5.5249 18.073 5.15111C18.073 4.77733 17.77 4.47437 17.3963 4.47437Z" fill="#43AA8B"/>
<path d="M9.75375 8.94849H5.07934C4.70561 8.94849 4.40259 9.25145 4.40259 9.62523C4.40259 9.99902 4.70566 10.302 5.07934 10.302H9.75375C10.1275 10.302 10.4305 9.99902 10.4305 9.62523C10.4305 9.25145 10.1275 8.94849 9.75375 8.94849Z" fill="#43AA8B"/>
<path d="M17.1925 13.1545C16.819 13.1545 16.5157 13.4577 16.5157 13.8313C16.5157 14.2048 16.819 14.508 17.1925 14.508C17.5661 14.508 17.8692 14.2048 17.8692 13.8313C17.8692 13.4577 17.5661 13.1545 17.1925 13.1545Z" fill="#43AA8B"/>
<path d="M23.4816 13.1545C23.108 13.1545 22.8048 13.4577 22.8048 13.8313C22.8048 14.2048 23.108 14.508 23.4816 14.508C23.8552 14.508 24.1583 14.2048 24.1583 13.8313C24.1583 13.4577 23.8551 13.1545 23.4816 13.1545Z" fill="#43AA8B"/>
</svg>
