<svg width="19" height="35" viewBox="0 0 19 35" fill="none" xmlns="http://www.w3.org/2000/svg">
<path d="M18.2488 0.00728234L13.7102 0C8.61113 0 5.31591 3.38082 5.31591 8.61355V12.585H0.752481C0.358146 12.585 0.0388184 12.9047 0.0388184 13.299V19.0531C0.0388184 19.4475 0.35851 19.7668 0.752481 19.7668H5.31591V34.2863C5.31591 34.6807 5.63524 35 6.02957 35H11.9836C12.3779 35 12.6972 34.6803 12.6972 34.2863V19.7668H18.0329C18.4273 19.7668 18.7466 19.4475 18.7466 19.0531L18.7488 13.299C18.7488 13.1097 18.6734 12.9283 18.5398 12.7943C18.4061 12.6603 18.2241 12.585 18.0347 12.585H12.6972V9.21835C12.6972 7.60021 13.0828 6.77876 15.1907 6.77876L18.2481 6.77767C18.6421 6.77767 18.9614 6.45798 18.9614 6.064V0.720951C18.9614 0.327341 18.6425 0.00801057 18.2488 0.00728234Z" fill="white"/>
</svg>
