<svg width="114" height="36" viewBox="0 0 114 36" fill="none" xmlns="http://www.w3.org/2000/svg">
<path d="M18.072 10.8V13.464H12.816V27H7.56V2.952C7.032 3 6.552 3.108 6.12 3.276C5.688 3.444 5.316 3.72 5.004 4.104C4.716 4.464 4.488 4.956 4.32 5.58C4.176 6.204 4.104 6.984 4.104 7.92C4.104 8.712 4.152 9.396 4.248 9.972C4.368 10.524 4.5 10.992 4.644 11.376C4.812 11.76 4.98 12.072 5.148 12.312C5.316 12.528 5.46 12.708 5.58 12.852C3.948 12.852 2.736 12.48 1.944 11.736C1.152 10.968 0.756 9.756 0.756 8.1C0.756 6.972 0.948 5.916 1.332 4.932C1.716 3.948 2.316 3.096 3.132 2.376C3.948 1.632 4.98 1.056 6.228 0.647998C7.5 0.215998 9.012 -2.14577e-06 10.764 -2.14577e-06C11.364 -2.14577e-06 11.928 0.0239983 12.456 0.0719991C13.008 0.119998 13.536 0.167999 14.04 0.215999C14.544 0.263999 15.06 0.311999 15.588 0.36C16.116 0.407999 16.68 0.431999 17.28 0.431999C17.88 0.431999 18.444 0.407999 18.972 0.36C19.5 0.287999 20.004 0.167999 20.484 -2.14577e-06C20.484 0.959998 20.4 1.728 20.232 2.304C20.064 2.856 19.836 3.288 19.548 3.6C19.26 3.888 18.924 4.08 18.54 4.176C18.18 4.272 17.796 4.32 17.388 4.32C16.716 4.32 15.984 4.26 15.192 4.14C14.424 3.996 13.632 3.84 12.816 3.672V10.8H18.072ZM25.8604 9V11.232C26.3884 10.608 26.9764 10.056 27.6244 9.576C28.2724 9.072 28.9804 8.82 29.7484 8.82C30.2044 8.82 30.6124 8.916 30.9724 9.108C31.3564 9.3 31.6804 9.552 31.9444 9.864C32.2324 10.176 32.4484 10.524 32.5924 10.908C32.7604 11.268 32.8444 11.64 32.8444 12.024C32.8444 12.552 32.6764 13.044 32.3404 13.5C32.0284 13.932 31.5004 14.148 30.7564 14.148C30.2044 14.148 29.8204 14.028 29.6044 13.788C29.3884 13.548 29.2204 13.296 29.1004 13.032C28.9804 12.744 28.8484 12.48 28.7044 12.24C28.5844 12 28.3564 11.88 28.0204 11.88C27.6604 11.88 27.3004 12.024 26.9404 12.312C26.6044 12.576 26.2444 12.912 25.8604 13.32V27H20.6764V9H25.8604ZM49.0435 9V21.24C49.0435 22.248 49.1755 22.92 49.4395 23.256C49.7275 23.568 50.2195 23.724 50.9155 23.724C51.6115 23.724 52.1875 23.424 52.6435 22.824C53.1235 22.224 53.3995 21.468 53.4715 20.556H54.9835C54.7915 22.02 54.4555 23.196 53.9755 24.084C53.4955 24.948 52.9555 25.62 52.3555 26.1C51.7555 26.556 51.1435 26.856 50.5195 27C49.8955 27.144 49.3435 27.216 48.8635 27.216C47.5915 27.216 46.6195 26.928 45.9475 26.352C45.2995 25.752 44.8435 24.936 44.5795 23.904C44.3875 24.312 44.1595 24.72 43.8955 25.128C43.6315 25.512 43.3075 25.86 42.9235 26.172C42.5635 26.484 42.1315 26.736 41.6275 26.928C41.1475 27.12 40.5835 27.216 39.9355 27.216C39.1675 27.216 38.4115 27.072 37.6675 26.784C36.9235 26.496 36.2395 26.028 35.6155 25.38C35.0155 24.732 34.5235 23.88 34.1395 22.824C33.7795 21.744 33.5995 20.424 33.5995 18.864C33.5995 17.76 33.7195 16.62 33.9595 15.444C34.2235 14.268 34.6195 13.188 35.1475 12.204C35.6995 11.22 36.4075 10.416 37.2715 9.792C38.1595 9.144 39.2275 8.82 40.4755 8.82C40.7635 8.82 41.0755 8.844 41.4115 8.892C41.7475 8.916 42.0715 9 42.3835 9.144C42.6955 9.264 42.9835 9.456 43.2475 9.72C43.5115 9.96 43.7155 10.296 43.8595 10.728V9H49.0435ZM43.8595 12.456C43.8355 12.36 43.7875 12.24 43.7155 12.096C43.6435 11.928 43.5355 11.772 43.3915 11.628C43.2475 11.46 43.0675 11.328 42.8515 11.232C42.6355 11.112 42.3835 11.052 42.0955 11.052C41.5195 11.052 41.0155 11.304 40.5835 11.808C40.1755 12.288 39.8395 12.9 39.5755 13.644C39.3355 14.364 39.1555 15.168 39.0355 16.056C38.9155 16.92 38.8555 17.748 38.8555 18.54C38.8555 19.812 38.9515 20.808 39.1435 21.528C39.3355 22.224 39.5635 22.74 39.8275 23.076C40.1155 23.388 40.4155 23.58 40.7275 23.652C41.0395 23.7 41.3035 23.724 41.5195 23.724C41.7835 23.724 42.0475 23.664 42.3115 23.544C42.5995 23.4 42.8515 23.196 43.0675 22.932C43.3075 22.668 43.4995 22.344 43.6435 21.96C43.7875 21.552 43.8595 21.084 43.8595 20.556V12.456ZM62.3408 16.128C62.3408 14.688 62.1728 13.668 61.8368 13.068C61.5248 12.444 61.0688 12.132 60.4688 12.132C60.1088 12.132 59.7968 12.228 59.5328 12.42C59.2928 12.612 59.0888 12.864 58.9208 13.176C58.7528 13.488 58.6208 13.848 58.5248 14.256C58.4288 14.64 58.3688 15.036 58.3448 15.444V27H53.1608V9H58.3448V10.872C58.8968 10.032 59.5208 9.492 60.2168 9.252C60.9128 8.988 61.5728 8.856 62.1968 8.856C62.8688 8.856 63.5048 8.964 64.1048 9.18C64.7288 9.396 65.2688 9.768 65.7248 10.296C66.2048 10.8 66.5768 11.484 66.8408 12.348C67.1048 13.188 67.2368 14.232 67.2368 15.48C67.2368 15.792 67.2248 16.188 67.2008 16.668C67.2008 17.124 67.1888 17.592 67.1648 18.072C67.1408 18.552 67.1168 19.02 67.0928 19.476C67.0928 19.932 67.0928 20.316 67.0928 20.628C67.0928 21.66 67.2008 22.44 67.4168 22.968C67.6328 23.472 68.1128 23.724 68.8568 23.724C69.6728 23.724 70.2368 23.424 70.5488 22.824C70.8848 22.224 71.1488 21.468 71.3408 20.556H72.8528C72.6608 21.996 72.3728 23.16 71.9888 24.048C71.6048 24.912 71.1728 25.584 70.6928 26.064C70.2128 26.52 69.6968 26.832 69.1448 27C68.5928 27.144 68.0528 27.216 67.5248 27.216C65.6768 27.216 64.3328 26.604 63.4928 25.38C62.6768 24.156 62.2688 22.524 62.2688 20.484C62.2688 20.268 62.2688 19.968 62.2688 19.584C62.2928 19.176 62.3048 18.756 62.3048 18.324C62.3048 17.892 62.3048 17.484 62.3048 17.1C62.3288 16.692 62.3408 16.368 62.3408 16.128ZM85.8805 9L79.7605 13.968C79.9285 13.944 80.0845 13.932 80.2285 13.932C80.3965 13.932 80.5645 13.932 80.7325 13.932C81.4045 13.932 82.0525 14.016 82.6765 14.184C83.3005 14.328 83.8405 14.592 84.2965 14.976C84.7765 15.336 85.1605 15.816 85.4485 16.416C85.7365 17.016 85.8805 17.76 85.8805 18.648C85.8805 18.864 85.8685 19.14 85.8445 19.476C85.8445 19.788 85.8325 20.112 85.8085 20.448C85.7845 20.76 85.7605 21.06 85.7365 21.348C85.7365 21.636 85.7365 21.864 85.7365 22.032C85.7365 22.536 85.8565 22.944 86.0965 23.256C86.3365 23.568 86.8045 23.724 87.5005 23.724C87.9325 23.724 88.2805 23.664 88.5445 23.544C88.8085 23.4 89.0245 23.208 89.1925 22.968C89.3845 22.704 89.5285 22.38 89.6245 21.996C89.7445 21.588 89.8645 21.108 89.9845 20.556H91.4965C91.3045 21.972 91.0165 23.124 90.6325 24.012C90.2725 24.876 89.8525 25.548 89.3725 26.028C88.8925 26.508 88.3645 26.832 87.7885 27C87.2125 27.144 86.6365 27.216 86.0605 27.216C85.1485 27.216 84.3685 27.084 83.7205 26.82C83.0725 26.556 82.5325 26.196 82.1005 25.74C81.6925 25.284 81.3805 24.756 81.1645 24.156C80.9725 23.556 80.8765 22.92 80.8765 22.248C80.8765 21.96 80.8885 21.552 80.9125 21.024C80.9365 20.496 80.9485 20.016 80.9485 19.584C80.9485 18.744 80.8285 18.072 80.5885 17.568C80.3725 17.064 79.8805 16.812 79.1125 16.812C78.3685 16.812 77.7925 17.028 77.3845 17.46C77.0005 17.868 76.7125 18.372 76.5205 18.972V27H71.3365V2.52L76.5205 1.8V14.472L82.3165 9H85.8805ZM95.1533 1.8V21.24C95.1533 22.248 95.2853 22.92 95.5493 23.256C95.8373 23.568 96.3293 23.724 97.0253 23.724C97.7213 23.724 98.2973 23.424 98.7533 22.824C99.2333 22.224 99.5093 21.468 99.5813 20.556H101.093C100.901 22.02 100.565 23.196 100.085 24.084C99.6053 24.948 99.0653 25.62 98.4653 26.1C97.8653 26.556 97.2533 26.856 96.6293 27C96.0053 27.144 95.4533 27.216 94.9733 27.216C93.1253 27.216 91.8293 26.712 91.0853 25.704C90.3413 24.672 89.9693 23.316 89.9693 21.636V2.52L95.1533 1.8ZM113.643 9V29.88C113.643 31.152 113.487 32.184 113.175 32.976C112.863 33.792 112.455 34.416 111.951 34.848C111.471 35.304 110.931 35.604 110.331 35.748C109.755 35.916 109.191 36 108.639 36C107.943 36 107.283 35.904 106.659 35.712C106.059 35.52 105.531 35.244 105.075 34.884C104.643 34.548 104.295 34.128 104.031 33.624C103.767 33.12 103.635 32.556 103.635 31.932C103.635 31.284 103.767 30.696 104.031 30.168C104.319 29.664 104.691 29.22 105.147 28.836C105.603 28.452 106.119 28.116 106.695 27.828C107.271 27.564 107.859 27.336 108.459 27.144V25.164C108.147 25.62 107.811 25.98 107.451 26.244C107.115 26.508 106.767 26.712 106.407 26.856C106.071 27 105.723 27.096 105.363 27.144C105.027 27.192 104.703 27.216 104.391 27.216C102.687 27.216 101.451 26.712 100.683 25.704C99.939 24.696 99.567 23.34 99.567 21.636V9H104.751V21.24C104.751 22.152 104.871 22.8 105.111 23.184C105.375 23.544 105.747 23.724 106.227 23.724C106.875 23.724 107.391 23.424 107.775 22.824C108.159 22.224 108.387 21.468 108.459 20.556V9H113.643ZM105.543 31.608C105.543 32.088 105.699 32.472 106.011 32.76C106.347 33.048 106.683 33.192 107.019 33.192C107.451 33.192 107.799 32.928 108.063 32.4C108.327 31.872 108.459 31.068 108.459 29.988V28.944C107.643 29.28 106.947 29.664 106.371 30.096C105.819 30.528 105.543 31.032 105.543 31.608Z" fill="white"/>
</svg>
