<svg width="28" height="28" viewBox="0 0 28 28" fill="none" xmlns="http://www.w3.org/2000/svg">
<g clip-path="url(#clip0)">
<path d="M22.1288 17.3451C21.5556 16.7482 20.8641 16.4291 20.1313 16.4291C19.4045 16.4291 18.7071 16.7423 18.1103 17.3391L16.2428 19.2007C16.0892 19.1179 15.9355 19.0411 15.7878 18.9643C15.575 18.8579 15.3741 18.7574 15.2027 18.6511C13.4535 17.5401 11.8638 16.0922 10.3392 14.2189C9.60045 13.2852 9.10404 12.4992 8.74356 11.7014C9.22815 11.2582 9.67728 10.7972 10.1146 10.354C10.2801 10.1885 10.4455 10.0172 10.611 9.85169C11.852 8.61067 11.852 7.00327 10.611 5.76225L8.99767 4.14893C8.81448 3.96574 8.62537 3.77663 8.44808 3.58752C8.0935 3.22113 7.7212 2.84291 7.33708 2.48834C6.76385 1.92102 6.07833 1.61963 5.35736 1.61963C4.63639 1.61963 3.93906 1.92102 3.3481 2.48834C3.34219 2.49425 3.34219 2.49425 3.33628 2.50016L1.32702 4.52715C0.570595 5.28358 0.139195 6.20547 0.0446418 7.27511C-0.0971884 9.00071 0.411036 10.6081 0.801069 11.66C1.75842 14.2425 3.18854 16.6359 5.32191 19.2007C7.91031 22.2914 11.0247 24.732 14.5822 26.4517C15.9414 27.0959 17.7557 27.8582 19.7827 27.9882C19.9068 27.9941 20.0368 28 20.155 28C21.5201 28 22.6666 27.5096 23.5648 26.5345C23.5707 26.5226 23.5825 26.5167 23.5885 26.5049C23.8958 26.1326 24.2503 25.7958 24.6226 25.4353C24.8767 25.193 25.1368 24.9389 25.3909 24.6729C25.9759 24.0643 26.2832 23.3551 26.2832 22.6282C26.2832 21.8954 25.97 21.1922 25.3731 20.6012L22.1288 17.3451ZM24.2444 23.5679C24.2385 23.5679 24.2385 23.5738 24.2444 23.5679C24.0139 23.8161 23.7776 24.0406 23.5234 24.2888C23.1393 24.6552 22.7493 25.0393 22.3829 25.4707C21.786 26.109 21.0828 26.4104 20.1609 26.4104C20.0722 26.4104 19.9777 26.4104 19.889 26.4045C18.1339 26.2922 16.5029 25.6067 15.2796 25.0216C11.9347 23.4024 8.99767 21.1036 6.55701 18.1901C4.54184 15.7613 3.19445 13.5156 2.30211 11.1045C1.75251 9.63303 1.55159 8.48657 1.64023 7.40512C1.69933 6.7137 1.96526 6.14047 2.45576 5.64997L4.47093 3.6348C4.7605 3.36296 5.06779 3.21522 5.36918 3.21522C5.74149 3.21522 6.04288 3.43978 6.23198 3.62889C6.23789 3.6348 6.2438 3.64071 6.24971 3.64662C6.6102 3.98347 6.95295 4.33213 7.31344 4.70444C7.49664 4.89354 7.68574 5.08265 7.87485 5.27767L9.48817 6.89099C10.1146 7.5174 10.1146 8.09654 9.48817 8.72296C9.31679 8.89434 9.15132 9.06571 8.97994 9.23118C8.48354 9.73941 8.01077 10.2122 7.49664 10.6731C7.48482 10.6849 7.473 10.6909 7.46709 10.7027C6.95886 11.2109 7.05342 11.7073 7.15979 12.0441C7.1657 12.0619 7.17161 12.0796 7.17752 12.0973C7.5971 13.1138 8.18806 14.0711 9.08632 15.2117L9.09223 15.2176C10.7233 17.2269 12.443 18.7929 14.3399 19.9925C14.5822 20.1462 14.8304 20.2703 15.0668 20.3885C15.2796 20.4949 15.4805 20.5953 15.6519 20.7017C15.6755 20.7135 15.6992 20.7312 15.7228 20.7431C15.9237 20.8435 16.1128 20.8908 16.3078 20.8908C16.7983 20.8908 17.1056 20.5835 17.2061 20.483L19.2272 18.462C19.4281 18.261 19.7472 18.0187 20.1195 18.0187C20.4859 18.0187 20.7873 18.2492 20.9705 18.4501C20.9764 18.4561 20.9764 18.4561 20.9823 18.462L24.2385 21.7181C24.8472 22.3209 24.8472 22.9414 24.2444 23.5679Z" fill="#43AA8B"/>
<path d="M15.1318 6.66051C16.6801 6.92054 18.0866 7.65332 19.2094 8.77615C20.3322 9.89897 21.0591 11.3055 21.325 12.8538C21.39 13.2438 21.7269 13.5156 22.111 13.5156C22.1583 13.5156 22.1996 13.5097 22.2469 13.5038C22.6842 13.4329 22.9738 13.0192 22.9029 12.5819C22.5838 10.7086 21.6973 9.00071 20.344 7.64742C18.9907 6.29412 17.2829 5.40768 15.4095 5.08856C14.9722 5.01765 14.5645 5.30722 14.4876 5.73862C14.4108 6.17002 14.6945 6.5896 15.1318 6.66051Z" fill="#43AA8B"/>
<path d="M27.9675 12.3514C27.4415 9.26658 25.9878 6.45953 23.7539 4.2257C21.5201 1.99188 18.7131 0.538116 15.6283 0.0121628C15.1969 -0.0646619 14.7891 0.230818 14.7123 0.662218C14.6414 1.09953 14.9309 1.50729 15.3682 1.58411C18.1221 2.05097 20.6337 3.35699 22.6311 5.34852C24.6286 7.34597 25.9287 9.85754 26.3955 12.6114C26.4605 13.0014 26.7974 13.2733 27.1815 13.2733C27.2288 13.2733 27.2702 13.2674 27.3174 13.2615C27.7488 13.1965 28.0443 12.7828 27.9675 12.3514Z" fill="#43AA8B"/>
</g>
<defs>
<clipPath id="clip0">
<rect width="28" height="28" fill="white"/>
</clipPath>
</defs>
</svg>
