<svg width="39" height="33" viewBox="0 0 39 33" fill="none" xmlns="http://www.w3.org/2000/svg">
<path d="M38.9999 4.40854C37.5645 5.04459 36.0243 5.47594 34.4061 5.66852C36.0584 4.67906 37.3233 3.10963 37.9227 1.24527C36.3728 2.16158 34.662 2.82694 32.839 3.18763C31.3793 1.63037 29.3029 0.6604 26.9999 0.6604C22.5815 0.6604 18.9991 4.24286 18.9991 8.65878C18.9991 9.28507 19.0697 9.89677 19.2062 10.4817C12.558 10.1478 6.66282 6.9626 2.71726 2.12258C2.02755 3.30214 1.6352 4.67657 1.6352 6.14372C1.6352 8.91954 3.04869 11.3688 5.19331 12.8017C3.88216 12.7579 2.64901 12.3972 1.56943 11.7976V11.8976C1.56943 15.7725 4.32817 19.0064 7.98614 19.7424C7.31594 19.9228 6.60923 20.0227 5.8781 20.0227C5.36148 20.0227 4.86187 19.9715 4.37201 19.874C5.39067 23.0544 8.34441 25.3671 11.844 25.4305C9.1072 27.5751 5.65634 28.8497 1.9082 28.8497C1.2624 28.8497 0.626294 28.8107 0 28.74C3.54103 31.0138 7.74494 32.3396 12.2632 32.3396C26.9805 32.3396 35.0252 20.1494 35.0252 9.57757L34.9984 8.54184C36.5702 7.42072 37.9301 6.01213 38.9999 4.40854Z" fill="white"/>
</svg>
