<svg width="62" height="52" viewBox="0 0 62 52" fill="none" xmlns="http://www.w3.org/2000/svg">
<path d="M0.6 38.1683L0 22.054L27 35.8555V51.054L0.6 38.1683Z" fill="white"/>
<path fill-rule="evenodd" clip-rule="evenodd" d="M0 21.4671L35.5626 0L62 15.0691L26.8638 35.1892L0 21.4671ZM14.2432 20.7804L16.2435 22.0169L20.0621 19.5285L21.6987 22.8206L23.5171 23.7634C23.5171 23.7634 23.9414 22.9906 25.2446 22.7124C26.5477 22.4342 28.0176 23.2225 28.9268 23.748C29.836 24.2735 30.0785 25.2008 28.6844 25.8036C27.2902 26.4064 25.4567 25.5099 25.4567 25.5099L23.8277 26.7232C23.8277 26.7232 23.9111 26.7309 24.8657 27.1251C25.8204 27.5192 27.2751 27.7253 28.8914 27.6222C30.5078 27.5192 32.4676 26.427 32.4878 25.1699C32.508 23.9128 31.1745 23.0061 28.9521 21.749C26.7296 20.4919 23.7797 21.3162 23.7797 21.3162L22.1432 18.2457L20.1833 17.1328L14.2432 20.7804ZM29.3663 19.6676L22.8503 15.5254L28.3358 12.0942L30.1845 13.3925L26.6993 15.649L29.0935 17.3183C29.0935 17.3183 32.9727 14.969 35.7003 15.8809C38.3956 16.782 41.7314 18.6166 40.3069 20.904C38.9494 23.0842 35.362 22.7091 34.5954 22.629C34.5576 22.6251 34.5267 22.6218 34.5032 22.6196C34.0032 22.5733 32.1999 21.785 32.1999 21.785L33.6395 20.6722C33.6395 20.6722 35.8014 21.8108 37.1146 20.9453C38.4279 20.0797 37.8824 18.8639 36.751 18.2662C35.6195 17.6686 34.1244 16.9267 32.2454 18.0189C30.3664 19.1112 29.3663 19.6676 29.3663 19.6676ZM46.8024 11.691C47.3341 11.9986 47.8195 12.2794 48.217 12.5074C50.3384 13.7241 49.2474 15.5565 48.217 16.3911C47.1865 17.2257 44.2771 17.9985 41.9738 17.0093C40.1746 16.2367 37.7837 14.8416 35.841 13.708C35.2967 13.3904 34.7876 13.0934 34.3365 12.8363C32.2757 11.6616 32.4575 9.77599 33.3061 8.87955C34.1547 7.98311 35.8216 7.08667 39.2462 7.79764C39.2462 7.79764 39.8222 8.01402 40.6475 8.29223C41.3182 8.5183 44.4965 10.357 46.8024 11.691ZM36.7308 9.34306C36.7308 9.34306 34.7709 10.3734 35.8013 11.3214C36.8318 12.2694 41.9435 14.8866 41.9435 14.8866L36.8318 9.34306H36.7308ZM40.1655 10.2704L45.3984 15.7727C45.3984 15.7727 47.6411 14.5981 46.1258 13.4646C44.6105 12.3312 40.1655 10.2704 40.1655 10.2704Z" fill="white"/>
<path fill-rule="evenodd" clip-rule="evenodd" d="M26.8108 36.0268L62 15.9187L61.4973 31.5954L26.8108 51.1079V36.0268ZM49.3203 28.6582C49.1031 30.0628 49.6073 30.6905 51.0273 30.6667C51.0955 30.6657 51.1654 30.6625 51.2359 30.6593C51.6456 30.6405 52.0737 30.6209 52.2938 31.0364C52.5411 31.5041 52.33 32.0012 52.0758 32.4276C51.8713 32.7704 51.6338 33.1058 51.2486 33.2991C50.8974 33.4754 50.5444 33.5629 50.3923 33.0974C50.2617 32.6978 50.0752 32.7775 49.8321 32.8813C49.8003 32.8949 49.7675 32.909 49.7337 32.9224C48.9973 33.2146 49.0517 33.7698 49.2036 34.3549C49.3671 34.9851 49.8238 35.1344 50.4245 35.0216C52.158 34.696 52.9934 33.4733 53.4106 31.9695C54.0346 29.7205 53.5622 28.8763 51.3776 28.9208C50.5799 28.937 50.3535 28.5073 50.6396 27.7731C50.7871 27.3942 50.9843 27.0348 51.3368 26.7999C51.7234 26.5419 52.1433 26.3192 52.3996 26.9385C52.5299 27.2535 52.6705 27.209 52.9313 27.0948C53.5587 26.82 53.8705 26.4565 53.5591 25.7539C53.2239 24.998 52.6857 24.6937 51.9706 24.9527C50.2166 25.5875 49.5796 26.9806 49.3203 28.6582ZM37.0627 37.862C37.0627 37.862 37.9024 37.0557 37.8549 35.5052C37.8457 35.2089 37.8251 34.941 37.7977 34.7011C37.7107 33.9429 36.8567 33.5239 36.1884 33.9169L33.5135 35.4897L33.672 44.4052C33.672 44.4052 35.1613 43.7385 36.2229 42.9787C37.2845 42.219 38.0133 40.932 37.9658 39.4125C37.9183 37.893 37.0627 37.862 37.0627 37.862ZM34.6707 36.2753C34.6707 36.2753 35.6583 35.699 35.999 35.5129C36.3396 35.3269 36.7041 35.6215 36.7041 36.1719C36.7041 36.7223 36.4902 37.1952 35.8405 37.7069C35.1909 38.2186 34.6707 38.3633 34.6707 38.3633V36.2753ZM36.4505 41.1491C35.8326 41.7383 34.6707 42.2801 34.6707 42.2801V39.9242L36.058 39.0355C36.3627 38.8404 36.7725 39.0368 36.7965 39.3923C36.8373 40.0017 36.8113 40.8052 36.4505 41.1491ZM45.7467 28.3545C45.7467 28.3545 46.7396 27.6722 47.479 28.0444C48.2184 28.4165 48.1973 30.9594 48.1339 33.0233C48.0705 35.087 47.2466 36.8514 45.8734 37.4716C44.5002 38.0918 43.8383 37.3062 43.8383 36.3139C43.8383 35.3215 43.8453 32.944 44.0143 31.4555C44.1834 29.967 44.6904 29.1194 45.7467 28.3545ZM45.4449 36.2753C46.1632 36.2959 46.9237 35.0624 46.9871 33.7669C47.0298 32.8939 47.015 31.9991 47.0007 31.1413L47.0007 31.1411C46.9939 30.7259 46.9871 30.3195 46.9871 29.9284C46.9871 28.7294 45.6984 29.6804 45.4449 30.2179C45.0624 31.0289 45.0634 31.8431 45.0645 32.8053L45.0647 32.9675C45.0647 33.1989 45.0477 33.4914 45.0295 33.8063C44.9663 34.8982 44.8874 36.2592 45.4449 36.2753ZM42.3818 30.9731C41.6424 30.601 40.6495 31.2833 40.6495 31.2833C39.5932 32.0482 39.0862 32.8958 38.9172 34.3843C38.7482 35.8728 38.7411 38.2503 38.7411 39.2426C38.7411 40.235 39.4031 41.0206 40.7763 40.4003C42.1494 39.7801 42.9734 38.0158 43.0367 35.9521C43.1001 33.8881 43.1212 31.3453 42.3818 30.9731ZM41.8899 36.6956C41.8266 37.9912 41.066 39.2247 40.3478 39.204C39.7903 39.188 39.8691 37.827 39.9323 36.7351C39.9505 36.4202 39.9675 36.1276 39.9675 35.8962L39.9674 35.7341C39.9662 34.7719 39.9652 33.9577 40.3478 33.1466C40.6013 32.6091 41.8899 31.6581 41.8899 32.8572C41.8899 33.2483 41.8967 33.6549 41.9036 34.0701C41.9178 34.9278 41.9327 35.8227 41.8899 36.6956ZM55.5748 24.2794L53.9587 24.9771V23.5816L58.6486 20.9457V22.4652L56.9058 23.3956L56.6839 31.2722L55.3847 31.9545L55.5748 24.2794Z" fill="white"/>
</svg>
