<svg width="72" height="26" viewBox="0 0 72 26" fill="none" xmlns="http://www.w3.org/2000/svg">
<path d="M72 0L0 0L0 26L72 26V0Z" fill="#E2B77F"/>
<path d="M31.2872 12.7269C31.2872 10.1805 31.287 7.63416 31.2874 5.08777C31.2874 4.55347 31.3767 4.46137 31.896 4.46137C34.6332 4.46113 37.3706 4.46129 40.1079 4.46232C40.6146 4.46248 40.7028 4.55252 40.7038 5.06203C40.7048 5.56339 40.7057 6.06475 40.7035 6.56611C40.7015 6.99564 40.6017 7.09716 40.1645 7.0978C38.2431 7.10049 36.3217 7.1088 34.4005 7.09249C34.0605 7.08964 33.9543 7.1617 33.9622 7.5221C33.9883 8.70894 33.9833 9.89696 33.9644 11.0841C33.9596 11.3859 34.0464 11.4587 34.3373 11.4565C36.0875 11.4437 37.8378 11.4499 39.5881 11.4503C40.1133 11.4505 40.2028 11.5414 40.2033 12.0719C40.2038 12.56 40.2049 13.0482 40.203 13.5363C40.2013 13.988 40.0953 14.0981 39.6479 14.0986C37.8976 14.1005 36.1472 14.1091 34.3971 14.0911C34.0549 14.0876 33.9549 14.1666 33.9626 14.5225C33.988 15.7094 33.9825 16.8974 33.965 18.0845C33.9606 18.3815 34.0391 18.4614 34.3366 18.4592C36.2315 18.4454 38.1267 18.46 40.0216 18.4471C40.5528 18.4435 40.7451 18.5076 40.7088 19.1541C40.6844 19.5881 40.7046 20.0246 40.7041 20.46C40.7035 20.9972 40.6182 21.0858 40.0933 21.0859C37.4744 21.0866 34.8555 21.0863 32.2366 21.0863C32.105 21.0863 31.9735 21.0873 31.8419 21.086C31.3987 21.0817 31.2879 20.9716 31.2878 20.5245C31.2868 17.9253 31.2872 15.3261 31.2872 12.7269Z" fill="#252525"/>
<path d="M19.3325 12.7291C19.3324 10.1686 19.3323 7.6082 19.3325 5.04771C19.3325 4.55863 19.4241 4.46178 19.9007 4.46162C22.6521 4.46067 25.4036 4.46075 28.155 4.46162C28.6438 4.46178 28.7523 4.57376 28.7527 5.06561C28.7531 5.54076 28.7532 6.0159 28.7526 6.49105C28.752 7.01284 28.6646 7.09845 28.1273 7.09876C26.2184 7.09987 24.3094 7.10811 22.4007 7.09298C22.0841 7.09045 22.0073 7.1831 22.0115 7.48815C22.028 8.689 22.0295 9.89033 22.0106 11.0911C22.0058 11.3957 22.0976 11.4593 22.3857 11.457C24.1497 11.4436 25.9138 11.4498 27.6779 11.4509C28.143 11.4512 28.2314 11.5404 28.2329 12.0041C28.2345 12.5321 28.2258 13.0601 28.2359 13.5878C28.2429 13.9569 28.0807 14.1053 27.7126 14.1035C25.9485 14.0949 24.1844 14.109 22.4205 14.0912C22.089 14.0879 22.0058 14.181 22.0108 14.5042C22.0295 15.7049 22.0272 16.9063 22.0122 18.1071C22.0087 18.3891 22.097 18.4594 22.3683 18.4579C24.2902 18.4473 26.2123 18.4519 28.1344 18.4525C28.6763 18.4527 28.7523 18.5294 28.7526 19.0668C28.7529 19.5683 28.7443 20.07 28.7556 20.5713C28.7634 20.9201 28.6023 21.0855 28.2644 21.0856C25.4472 21.0867 22.6299 21.0848 19.8126 21.0879C19.4237 21.0884 19.3288 20.873 19.3295 20.5293C19.335 17.9293 19.3325 15.3292 19.3325 12.7291Z" fill="#252525"/>
<path d="M49.3468 7.13186C47.5724 7.13186 45.8758 7.13027 44.1791 7.13265C43.5528 7.13352 43.4719 7.05805 43.4716 6.43474C43.4713 5.94653 43.4767 5.45823 43.4692 4.9701C43.4638 4.62111 43.6349 4.46201 43.9708 4.46193C46.6689 4.46146 49.3671 4.46177 52.0652 4.46177C52.3709 4.46177 52.5244 4.61327 52.5241 4.921C52.5236 5.40921 52.5155 5.89767 52.5283 6.38556C52.5336 6.58591 52.4434 6.74168 52.3588 6.90299C51.6183 8.31473 50.8822 9.72893 50.1261 11.1322C49.9788 11.4056 50.016 11.4694 50.3126 11.4519C50.5749 11.4364 50.8389 11.4509 51.102 11.4498C51.4062 11.4486 51.5687 11.5974 51.5708 11.9035C51.5747 12.4841 51.5743 13.0647 51.5727 13.6452C51.5719 13.9522 51.4121 14.1 51.1077 14.0996C50.3707 14.0987 49.6336 14.1052 48.8966 14.0955C48.7028 14.093 48.5896 14.1468 48.4962 14.3286C47.8461 15.5944 47.1911 16.8578 46.5203 18.1126C46.3512 18.4289 46.5063 18.4205 46.7411 18.4201C48.5706 18.4165 50.4001 18.4182 52.2295 18.4188C52.7886 18.419 52.8585 18.4906 52.859 19.0592C52.8594 19.5738 52.8535 20.0885 52.861 20.603C52.8659 20.9353 52.7062 21.0864 52.3852 21.0864C49.4633 21.0863 46.5415 21.0863 43.6196 21.0854C43.3118 21.0853 43.1655 20.9242 43.1662 20.6188C43.1674 20.1042 43.1725 19.5895 43.1634 19.075C43.1599 18.8759 43.2548 18.7224 43.3408 18.5605C44.0889 17.1527 44.8374 15.745 45.5851 14.3369C45.6147 14.2811 45.6375 14.2217 45.6923 14.1002C45.3127 14.1002 44.9791 14.0979 44.6457 14.1008C44.3209 14.1037 44.1633 13.9518 44.1668 13.6205C44.1727 13.0663 44.1723 12.512 44.1672 11.9578C44.1638 11.5891 44.3449 11.4406 44.7031 11.4452C45.4005 11.4543 46.0981 11.4479 46.7957 11.4486C46.9396 11.4487 47.0727 11.4631 47.1612 11.2929C47.8717 9.9288 48.5908 8.5687 49.3468 7.13186Z" fill="#252525"/>
<path d="M11.6852 10.5689C12.0328 9.8124 12.345 9.13421 12.6561 8.45546C13.1942 7.2813 13.7434 6.11204 14.2617 4.92917C14.41 4.59062 14.5969 4.4381 14.9735 4.4556C15.5382 4.48189 16.1051 4.46043 16.6712 4.46075C17.1885 4.46107 17.3074 4.64336 17.0965 5.11012C15.7943 7.99212 14.4938 10.875 13.186 13.7545C13.0851 13.9767 13.033 14.1936 13.0337 14.4378C13.039 16.457 13.0366 18.4762 13.0359 20.4955C13.0357 21.0082 12.9572 21.0854 12.4362 21.0865C11.9228 21.0876 11.4094 21.0889 10.896 21.0861C10.4731 21.0838 10.3626 20.9737 10.3623 20.5477C10.3607 18.5153 10.3581 16.4828 10.3651 14.4505C10.366 14.1658 10.3086 13.9104 10.1905 13.6521C8.89194 10.8116 7.60008 7.9678 6.30743 5.12453C6.08239 4.62951 6.19234 4.464 6.74368 4.46233C7.32291 4.46059 7.90261 4.47619 8.48112 4.45521C8.8218 4.44285 9.00269 4.57906 9.13863 4.88799C9.9188 6.66131 10.7158 8.42719 11.5076 10.1954C11.5506 10.2911 11.5977 10.3851 11.6852 10.5689Z" fill="#252525"/>
<path d="M59.8542 10.5742C60.2952 9.61514 60.708 8.7202 61.1184 7.82407C61.5737 6.82999 62.033 5.83757 62.4768 4.83826C62.5935 4.57558 62.7528 4.45062 63.0459 4.45679C63.6774 4.47002 64.3093 4.45711 64.9409 4.46257C65.3405 4.46606 65.4671 4.67679 65.2968 5.05334C63.9941 7.93463 62.6912 10.8158 61.3826 13.6943C61.2656 13.9516 61.2029 14.2057 61.204 14.4913C61.2119 16.4969 61.2085 18.5025 61.2078 20.5082C61.2077 20.9845 61.1075 21.0849 60.6333 21.0864C60.1332 21.0879 59.6331 21.0874 59.133 21.0864C58.6061 21.0855 58.5344 21.0157 58.5341 20.4962C58.5332 18.451 58.5315 16.4058 58.5361 14.3606C58.5366 14.1438 58.4915 13.9512 58.4014 13.7537C57.0837 10.8647 55.7721 7.97303 54.46 5.08161C54.2703 4.66372 54.3949 4.46376 54.8474 4.46178C55.4528 4.45917 56.0586 4.47429 56.6635 4.45655C56.9841 4.44713 57.1626 4.56243 57.2948 4.86296C58.0694 6.62378 58.8625 8.37635 59.6496 10.1316C59.7034 10.2516 59.7599 10.3703 59.8542 10.5742Z" fill="#252525"/>
</svg>
