<svg width="40" height="40" viewBox="0 0 40 40" fill="none" xmlns="http://www.w3.org/2000/svg">
<g opacity="0.8" clip-path="url(#clip0)">
<path d="M16.4341 35.46L16.3166 36.0341L16.4298 35.4594C16.1124 35.3968 15.8042 35.6035 15.7416 35.9208C15.6791 36.2385 15.8857 36.5464 16.2034 36.609C16.2043 36.6093 16.2131 36.6108 16.214 36.6111C16.2513 36.6182 16.2882 36.6218 16.3248 36.6218C16.6004 36.6218 16.8461 36.4265 16.8995 36.1457C16.9605 35.8278 16.7521 35.5208 16.4341 35.46Z" fill="url(#paint0_linear)"/>
<path d="M20.9145 35.6483L20.9728 36.2312L20.9126 35.6486C20.5907 35.6815 20.3566 35.9693 20.3899 36.2913C20.4207 36.5928 20.6752 36.8174 20.9718 36.8174C20.992 36.8174 21.0124 36.8162 21.0326 36.8143L21.0487 36.8125C21.3692 36.775 21.5965 36.486 21.5608 36.1655C21.5248 35.8454 21.2349 35.6147 20.9145 35.6483Z" fill="url(#paint1_linear)"/>
<path d="M18.6712 35.7219C18.6712 35.7219 18.663 35.7216 18.6627 35.7216C18.3398 35.7069 18.07 35.9578 18.0554 36.2809C18.041 36.6041 18.295 36.8779 18.6181 36.8925C18.6273 36.8931 18.6361 36.8931 18.6453 36.8931C18.9566 36.8931 19.216 36.6481 19.23 36.3337C19.2447 36.0106 18.9947 35.7365 18.6712 35.7219Z" fill="url(#paint2_linear)"/>
<path d="M14.2699 34.8646L14.2625 34.8618C13.958 34.7526 13.6259 34.9119 13.5167 35.2165C13.4071 35.521 13.5689 35.8579 13.8734 35.9675C13.939 35.991 14.0059 36.002 14.0715 36.002C14.3117 36.002 14.5372 35.8534 14.623 35.6141C14.7325 35.3095 14.5744 34.9738 14.2699 34.8646Z" fill="url(#paint3_linear)"/>
<path d="M23.1257 35.2381L23.2701 35.806L23.1239 35.2387C22.8105 35.3193 22.6219 35.6388 22.7024 35.9522C22.7705 36.2165 23.0085 36.3923 23.2695 36.3923C23.318 36.3923 23.3671 36.3861 23.4162 36.3733C23.4187 36.3727 23.4291 36.37 23.4318 36.3694C23.7428 36.2845 23.9247 35.965 23.8417 35.6534C23.7587 35.3421 23.4379 35.1569 23.1257 35.2381Z" fill="url(#paint4_linear)"/>
<path d="M25.244 34.4993L25.4762 35.037L25.2422 34.4999C24.9455 34.6293 24.8097 34.9744 24.9388 35.2711C25.035 35.4917 25.2504 35.6232 25.4765 35.6232C25.5544 35.6232 25.634 35.6074 25.71 35.5744C25.7124 35.5732 25.7219 35.5692 25.7243 35.568C26.0182 35.4352 26.1479 35.091 26.0167 34.7965C25.8855 34.5017 25.5394 34.3696 25.244 34.4993Z" fill="url(#paint5_linear)"/>
<path d="M12.032 7.78891C12.126 7.78891 12.2215 7.76633 12.3097 7.71933C12.5953 7.56705 12.7031 7.21213 12.5508 6.92649C12.3985 6.64115 12.0439 6.53281 11.7582 6.6854L11.7512 6.68906C11.4659 6.84134 11.3612 7.19443 11.5135 7.48007C11.6185 7.67722 11.8223 7.78891 12.032 7.78891Z" fill="url(#paint6_linear)"/>
<path d="M5.2544 14.3335C5.34138 14.379 5.43446 14.4007 5.52632 14.4007C5.73719 14.4007 5.94105 14.2865 6.04573 14.0867L6.0561 14.0662C6.19892 13.7757 6.07929 13.4244 5.78877 13.2819C5.50038 13.1397 5.15186 13.2569 5.00721 13.5434C4.85767 13.8297 4.96815 14.1834 5.2544 14.3335Z" fill="url(#paint7_linear)"/>
<path d="M4.42919 16.5377C4.49145 16.5588 4.55462 16.5689 4.61718 16.5689C4.86132 16.5689 5.08929 16.4147 5.17199 16.1706L5.17962 16.1474C5.27484 15.8383 5.10119 15.5102 4.79174 15.4153C4.48504 15.3207 4.15942 15.491 4.06146 15.7962C3.95861 16.1022 4.1231 16.4343 4.42919 16.5377Z" fill="url(#paint8_linear)"/>
<path d="M6.41006 12.2836C6.51413 12.3593 6.63467 12.3959 6.7543 12.3959C6.93527 12.3959 7.1141 12.312 7.22855 12.1545L7.23618 12.1441C7.42416 11.8811 7.36282 11.5161 7.10037 11.3281C6.83762 11.1398 6.47141 11.2002 6.28281 11.4627L6.75491 11.81L6.28098 11.4651C6.09055 11.727 6.14853 12.0935 6.41006 12.2836Z" fill="url(#paint9_linear)"/>
<path d="M10.0426 9.05465C10.1655 9.05465 10.2894 9.01589 10.3953 8.93533C10.6566 8.74429 10.713 8.37777 10.522 8.11654C10.3306 7.85531 9.96412 7.79885 9.70319 7.98989L9.68854 8.00057C9.43097 8.19619 9.3797 8.56454 9.57532 8.82241C9.69068 8.97439 9.86555 9.05465 10.0426 9.05465Z" fill="url(#paint10_linear)"/>
<path d="M3.90611 25.4238C3.98363 25.6755 4.21495 25.837 4.46519 25.837C4.52226 25.837 4.58055 25.8284 4.63792 25.8107C4.94554 25.7164 5.11918 25.3905 5.02702 25.0823C4.93882 24.7747 4.61992 24.594 4.30955 24.6785C3.99736 24.7637 3.81334 25.0859 3.89848 25.3981C3.90031 25.4042 3.90428 25.4177 3.90611 25.4238Z" fill="url(#paint11_linear)"/>
<path d="M8.27254 10.5987C8.42482 10.5987 8.5771 10.5398 8.69215 10.4226C8.92073 10.1937 8.92073 9.8226 8.69215 9.59403C8.46327 9.36514 8.09218 9.36514 7.8633 9.59403L7.85353 9.60379C7.62709 9.83481 7.63167 10.2053 7.86269 10.4317C7.97652 10.5434 8.12453 10.5987 8.27254 10.5987Z" fill="url(#paint12_linear)"/>
<path d="M4.55395 22.8693C4.51275 22.551 4.22192 22.3252 3.90331 22.363C3.58227 22.4015 3.35278 22.6929 3.39092 23.0143L3.39428 23.0378C3.43701 23.3289 3.68694 23.5376 3.97289 23.5376C4.00097 23.5376 4.02966 23.5355 4.05865 23.5312C4.37756 23.4849 4.59881 23.1882 4.55395 22.8693Z" fill="url(#paint13_linear)"/>
<path d="M3.8179 21.1912C3.824 21.1912 3.8298 21.1915 3.8356 21.1915C4.15115 21.1915 4.41177 20.9404 4.42093 20.6227L4.42154 20.5977C4.42154 20.2739 4.15908 20.0117 3.8356 20.0117C3.51425 20.0117 3.25363 20.2699 3.24966 20.59C3.24112 20.9129 3.49533 21.1818 3.8179 21.1912Z" fill="url(#paint14_linear)"/>
<path d="M3.94622 18.841C3.98132 18.8471 4.0158 18.8502 4.05029 18.8502C4.32861 18.8502 4.5755 18.6509 4.62646 18.3674C4.62799 18.3589 4.62921 18.3503 4.63043 18.3418C4.67773 18.0216 4.45648 17.7238 4.13604 17.6768C3.81958 17.6298 3.52325 17.8474 3.47228 18.1629C3.41674 18.4809 3.62853 18.784 3.94622 18.841Z" fill="url(#paint15_linear)"/>
<path d="M31.5858 12.4685C31.6993 12.6333 31.8818 12.7215 32.068 12.7215C32.1824 12.7215 32.2984 12.6879 32.3997 12.618C32.6661 12.4349 32.7336 12.0699 32.5505 11.8032L32.0634 12.1291L32.5487 11.8005C32.3668 11.5325 32.0024 11.4626 31.7347 11.6442C31.4668 11.8258 31.3969 12.1902 31.5785 12.4581L31.5858 12.4685Z" fill="url(#paint16_linear)"/>
<path d="M34.5782 18.3648C34.2566 18.4008 34.0252 18.691 34.0616 19.0127L34.0646 19.038C34.1064 19.3301 34.3573 19.5409 34.6441 19.5409C34.6716 19.5409 34.6997 19.5391 34.7278 19.5351C35.0454 19.4897 35.267 19.197 35.2258 18.8796C35.1889 18.5589 34.8977 18.3288 34.5782 18.3648Z" fill="url(#paint17_linear)"/>
<path d="M33.5894 16.7116L33.5919 16.7192C33.6669 16.9746 33.9004 17.14 34.1537 17.14C34.2083 17.14 34.2639 17.1324 34.3191 17.1159C34.6298 17.0247 34.8074 16.6991 34.7161 16.3884L34.7137 16.3808C34.6225 16.0701 34.2968 15.8925 33.9862 15.984C33.6758 16.0753 33.4982 16.4009 33.5894 16.7116Z" fill="url(#paint18_linear)"/>
<path d="M32.7617 14.5205C32.8639 14.7283 33.0729 14.8495 33.2902 14.8495C33.3766 14.8495 33.4645 14.8303 33.5472 14.7894C33.8374 14.6466 33.958 14.2974 33.8148 14.0069L33.2838 14.2544L33.8142 14.0057C33.6769 13.7127 33.3281 13.5867 33.0351 13.724C32.7421 13.8613 32.6158 14.2102 32.7531 14.5031L32.7617 14.5205Z" fill="url(#paint19_linear)"/>
<path d="M30.1103 10.6387C30.2251 10.7559 30.3767 10.8145 30.5287 10.8145C30.6767 10.8145 30.8247 10.759 30.9389 10.647C31.1684 10.4223 31.1735 10.0552 30.9523 9.82389C30.7329 9.58737 30.363 9.57303 30.1256 9.79215C29.8878 10.0116 29.8732 10.3824 30.0926 10.6201L30.1103 10.6387Z" fill="url(#paint20_linear)"/>
<path d="M34.7687 20.8115C34.4467 20.8032 34.1773 21.0556 34.166 21.3776C34.1513 21.6983 34.3976 21.9714 34.7186 21.9895C34.7299 21.9901 34.7406 21.9904 34.7519 21.9904C35.0604 21.9904 35.3189 21.749 35.3363 21.4368L35.3372 21.4127C35.3464 21.0895 35.0919 20.8209 34.7687 20.8115Z" fill="url(#paint21_linear)"/>
<path d="M26.3631 7.76166L26.3771 7.76929C26.4644 7.81568 26.5581 7.83765 26.6503 7.83765C26.8587 7.83765 27.0604 7.72535 27.1663 7.52851C27.3189 7.24439 27.2115 6.88917 26.9283 6.73536L26.6448 7.24805L26.9264 6.73414C26.6426 6.5785 26.2865 6.68256 26.1309 6.96638C25.9755 7.24988 26.0793 7.60633 26.3631 7.76166Z" fill="url(#paint22_linear)"/>
<path d="M28.3448 9.04673L28.354 9.05375C28.4599 9.13401 28.5841 9.17276 28.7077 9.17276C28.8847 9.17276 29.0595 9.09281 29.1749 8.94083C29.3705 8.68296 29.3199 8.31552 29.0623 8.11991L29.0583 8.11716C28.8017 7.92002 28.4339 7.96823 28.2368 8.22489C28.0397 8.48154 28.0882 8.84958 28.3448 9.04673Z" fill="url(#paint23_linear)"/>
<path d="M39.6384 29.682L36.8878 26.9266C36.6537 26.6922 36.3428 26.5631 36.0117 26.5631C35.6808 26.5631 35.3696 26.6922 35.1358 26.9266L35.072 26.9904L34.8914 26.8097C34.6683 26.586 34.4955 26.3257 34.3784 26.0422C34.368 26.0046 34.3542 25.968 34.3365 25.9335C34.2468 25.6815 34.2001 25.4132 34.2001 25.1376V24.3582C34.2535 24.3863 34.3118 24.4067 34.3744 24.4174C34.408 24.4232 34.4412 24.426 34.4742 24.426C34.7522 24.426 34.9982 24.2276 35.0497 23.9456C35.1123 23.6288 34.9069 23.3209 34.5898 23.2574C34.4504 23.2297 34.3124 23.2538 34.1965 23.3167C34.1605 22.4841 33.8202 21.7065 33.2281 21.1133L30.5597 18.4402C29.9609 17.8406 29.1647 17.5104 28.3179 17.5104C27.6624 17.5104 27.038 17.709 26.5112 18.0768L26.228 17.7921V11.0904C26.228 10.2826 25.9348 9.50317 25.4025 8.89618C25.0238 8.46466 24.8154 7.91046 24.8154 7.33551V6.84448H24.8557C25.5386 6.84448 26.0944 6.28876 26.0944 5.60547V1.70776C26.0944 1.02448 25.5386 0.46875 24.8557 0.46875H13.9105C13.2275 0.46875 12.6718 1.02448 12.6718 1.70776V5.60547C12.6718 6.28876 13.2275 6.84448 13.9105 6.84448H14.0009V7.10144C14.0009 7.73315 13.7552 8.32703 13.3093 8.7735L12.128 9.95697C11.5012 10.585 11.156 11.4197 11.156 12.3077V16.088C11.156 16.6016 11.2793 17.0865 11.4963 17.5162C10.7193 17.561 9.99512 17.8848 9.44031 18.4402L6.77185 21.1133C6.14502 21.7413 5.79987 22.5763 5.79987 23.4641V25.1376C5.79987 25.7693 5.5545 26.3632 5.10864 26.8097L4.93011 26.9885C4.9292 26.9891 4.92859 26.9897 4.92798 26.9904L4.8645 26.9266C4.63043 26.6922 4.31946 26.5631 3.98834 26.5631C3.65753 26.5631 3.34625 26.6922 3.11249 26.9266L0.361633 29.682C-0.120544 30.1651 -0.120544 30.9512 0.361633 31.4343L1.30371 32.3776C1.53229 32.6068 1.90338 32.6071 2.13226 32.3785C2.36115 32.1497 2.36176 31.7789 2.13287 31.5497L1.1911 30.6061C1.16455 30.5795 1.16455 30.5365 1.1911 30.5099L3.94196 27.7545C3.96759 27.7289 4.0094 27.7286 4.03503 27.7545L4.51324 28.2336H4.51355L11.0434 34.7748L11.7749 35.5078C11.8015 35.5344 11.8015 35.5774 11.7749 35.6039L9.02435 38.3594C8.99841 38.3853 8.9566 38.3853 8.93097 38.3594L3.79181 33.2114C3.56323 32.9822 3.19214 32.9819 2.96326 33.2104C2.73407 33.4393 2.73376 33.8101 2.96234 34.0393L8.10181 39.1873C8.33557 39.4217 8.64685 39.5508 8.97797 39.5508C9.30878 39.5508 9.61975 39.4217 9.85382 39.1873L12.6044 36.4319C13.0865 35.9491 13.0865 35.163 12.6044 34.6799L12.5745 34.65L12.9214 34.3024C13.3267 33.8962 13.8651 33.652 14.4373 33.6151C15.2426 33.5629 16.0004 33.2193 16.5707 32.6477L19.0976 30.1154C19.8264 29.924 20.3937 29.3304 20.5478 28.587C20.8075 28.7106 21.0977 28.7802 21.4041 28.7802C22.5061 28.7802 23.4027 27.8827 23.4027 26.7792V25.3879C23.6548 25.5029 23.9346 25.5676 24.2294 25.5676C25.3314 25.5676 26.2277 24.6701 26.2277 23.5666V19.4534L28.0301 21.2646C28.1445 21.3797 28.295 21.4371 28.4454 21.4371C28.595 21.4371 28.7445 21.3803 28.8589 21.2665C29.0881 21.0382 29.0891 20.6674 28.8608 20.4379L27.3581 18.9279C27.6489 18.7677 27.9767 18.6823 28.3179 18.6823C28.8513 18.6823 29.353 18.8904 29.7302 19.2685L32.3987 21.9412C32.8046 22.348 33.0283 22.8888 33.0283 23.4641V25.1376C33.0283 26.0822 33.3954 26.9699 34.0619 27.6376L34.2438 27.8198L33.3939 28.6713L28.2535 33.8205L27.9669 33.5333C27.9639 33.5306 27.9611 33.5275 27.9581 33.5248L27.9077 33.4741C27.301 32.8665 26.4951 32.5012 25.6387 32.4457C25.1178 32.4118 24.6277 32.1896 24.2569 31.8185L22.3315 29.9036C22.1021 29.6753 21.731 29.6762 21.5027 29.9057C21.2747 30.1352 21.2756 30.5063 21.5051 30.7343L23.4293 32.6477C23.9996 33.2193 24.7574 33.5629 25.563 33.6151C26.1349 33.652 26.6733 33.8962 27.0786 34.3021L27.1069 34.3304C27.1222 34.3478 27.1384 34.364 27.1555 34.3793L27.4255 34.6497L27.3956 34.6799C26.9135 35.163 26.9135 35.9488 27.3956 36.4319L30.1462 39.1873C30.3802 39.4217 30.6912 39.5508 31.0223 39.5508C31.3531 39.5508 31.6644 39.4217 31.8985 39.1873L39.6384 31.434C40.1205 30.9509 40.1205 30.1651 39.6384 29.682ZM34.5929 23.8556L34.5819 23.8538L34.4751 23.8321L34.5929 23.8556ZM15.7413 31.8198C15.3723 32.1896 14.8822 32.4118 14.3616 32.4457C13.5049 32.5012 12.699 32.8665 12.0923 33.4741L11.7465 33.8205L11.4352 33.5086C11.4313 33.5046 11.4273 33.5004 11.4233 33.4967L5.75623 27.8198L5.93811 27.6376C6.60461 26.9699 6.97174 26.0822 6.97174 25.1376V23.4641C6.97174 22.8888 7.19513 22.348 7.60132 21.9412L10.2698 19.2685C10.647 18.8904 11.1487 18.6823 11.6821 18.6823C12.0242 18.6823 12.3532 18.7683 12.645 18.9297L11.1398 20.4373C10.9113 20.6662 10.9116 21.0373 11.1404 21.2659C11.2549 21.38 11.4047 21.4371 11.5546 21.4371C11.7047 21.4371 11.8549 21.3797 11.9693 21.2653L13.7671 19.4641V26.7792C13.7671 27.8827 14.6637 28.7802 15.7657 28.7802C16.0764 28.7802 16.3705 28.7088 16.633 28.5818C16.752 29.1626 17.1231 29.6521 17.626 29.931L15.7413 31.8198ZM25.0562 23.5669C25.0562 24.024 24.6851 24.3961 24.2294 24.3961C23.7735 24.3961 23.4027 24.024 23.4027 23.5669V17.0309C23.4027 16.7075 23.1406 16.445 22.8168 16.445C22.493 16.445 22.2308 16.7075 22.2308 17.0309V26.7795C22.2308 27.2366 21.86 27.6083 21.4041 27.6083C20.9949 27.6083 20.6552 27.3087 20.5896 26.9165V17.0242C20.5896 16.7004 20.3275 16.4383 20.0037 16.4383C19.8996 16.4383 19.8016 16.4658 19.7168 16.5134C19.5316 16.6119 19.4055 16.8066 19.4055 17.0309V26.7792C19.4055 26.8536 19.4098 26.9266 19.4177 26.9989V28.1796C19.4177 28.6368 19.0469 29.0088 18.591 29.0088C18.1354 29.0088 17.7646 28.6368 17.7646 28.1796V17.0172C17.7646 16.6937 17.5021 16.4313 17.1786 16.4313C16.8549 16.4313 16.5924 16.6937 16.5924 17.0172V26.7792C16.5924 27.2363 16.2216 27.6083 15.766 27.6083C15.3101 27.6083 14.9393 27.2363 14.9393 26.7792V15.8798C14.9393 15.556 14.6768 15.2936 14.3533 15.2936C14.0295 15.2936 13.7674 15.556 13.7674 15.8798V17.8958C13.7183 17.9117 13.6707 17.934 13.6264 17.9633C12.8687 17.6785 12.3279 16.9455 12.3279 16.088V12.3077C12.3279 11.7325 12.5516 11.1917 12.9575 10.7849L14.1388 9.60144C14.8056 8.93372 15.1727 8.04596 15.1727 7.10144V6.84448H16.3507C16.6745 6.84448 16.9366 6.58203 16.9366 6.25854C16.9366 5.93475 16.6745 5.67261 16.3507 5.67261H13.9105C13.8736 5.67261 13.8437 5.6424 13.8437 5.60547V1.70776C13.8437 1.67084 13.8736 1.64062 13.9105 1.64062H24.8553C24.8926 1.64062 24.9225 1.67084 24.9225 1.70776V5.60547C24.9225 5.6427 24.8926 5.67261 24.8553 5.67261H19.1016C18.7781 5.67261 18.5156 5.93475 18.5156 6.25854C18.5156 6.58203 18.7781 6.84448 19.1016 6.84448H23.6435V7.33551C23.6435 8.19489 23.9551 9.02344 24.5212 9.66919C24.866 10.0623 25.0562 10.567 25.0562 11.0904V23.5669ZM38.8089 30.6061L31.069 38.3594C31.0562 38.3725 31.0406 38.3789 31.0223 38.3789C31.0043 38.3789 30.9888 38.3725 30.9756 38.3594L28.2251 35.6039C28.1985 35.5774 28.1985 35.5344 28.2251 35.5078L28.6679 35.0641L28.6682 35.0638L33.1613 30.563L35.965 27.7545C35.9906 27.7286 36.0324 27.7286 36.058 27.7545L38.8089 30.5099C38.8354 30.5365 38.8354 30.5795 38.8089 30.6061Z" fill="url(#paint24_linear)"/>
<path d="M15.7658 3.03149C15.4219 3.03149 15.142 3.31195 15.142 3.65649C15.142 4.00134 15.4219 4.28149 15.7658 4.28149C16.11 4.28149 16.3899 4.00134 16.3899 3.65649C16.3899 3.31195 16.11 3.03149 15.7658 3.03149Z" fill="url(#paint25_linear)"/>
<path d="M36.2034 29.7412C35.8592 29.7412 35.5793 30.0217 35.5793 30.3662C35.5793 30.7108 35.8592 30.9912 36.2034 30.9912C36.5474 30.9912 36.8272 30.7108 36.8272 30.3662C36.8272 30.0217 36.5474 29.7412 36.2034 29.7412Z" fill="url(#paint26_linear)"/>
<path d="M9.76422 35.719C9.76422 35.3745 9.48438 35.094 9.14044 35.094C8.7962 35.094 8.51636 35.3745 8.51636 35.719C8.51636 36.0635 8.7962 36.344 9.14044 36.344C9.48438 36.344 9.76422 36.0635 9.76422 35.719Z" fill="url(#paint27_linear)"/>
</g>
<defs>
<linearGradient id="paint0_linear" x1="16.3203" y1="35.4482" x2="16.3203" y2="36.6218" gradientUnits="userSpaceOnUse">
<stop stop-color="white" stop-opacity="0.94"/>
<stop offset="1" stop-color="white" stop-opacity="0.63"/>
</linearGradient>
<linearGradient id="paint1_linear" x1="20.9756" y1="35.645" x2="20.9756" y2="36.8174" gradientUnits="userSpaceOnUse">
<stop stop-color="white" stop-opacity="0.94"/>
<stop offset="1" stop-color="white" stop-opacity="0.63"/>
</linearGradient>
<linearGradient id="paint2_linear" x1="18.6427" y1="35.7209" x2="18.6427" y2="36.8931" gradientUnits="userSpaceOnUse">
<stop stop-color="white" stop-opacity="0.94"/>
<stop offset="1" stop-color="white" stop-opacity="0.63"/>
</linearGradient>
<linearGradient id="paint3_linear" x1="14.07" y1="34.8274" x2="14.07" y2="36.002" gradientUnits="userSpaceOnUse">
<stop stop-color="white" stop-opacity="0.94"/>
<stop offset="1" stop-color="white" stop-opacity="0.63"/>
</linearGradient>
<linearGradient id="paint4_linear" x1="23.2728" y1="35.219" x2="23.2728" y2="36.3923" gradientUnits="userSpaceOnUse">
<stop stop-color="white" stop-opacity="0.94"/>
<stop offset="1" stop-color="white" stop-opacity="0.63"/>
</linearGradient>
<linearGradient id="paint5_linear" x1="25.4789" y1="34.4495" x2="25.4789" y2="35.6232" gradientUnits="userSpaceOnUse">
<stop stop-color="white" stop-opacity="0.94"/>
<stop offset="1" stop-color="white" stop-opacity="0.63"/>
</linearGradient>
<linearGradient id="paint6_linear" x1="12.0318" y1="6.61621" x2="12.0318" y2="7.78891" gradientUnits="userSpaceOnUse">
<stop stop-color="white" stop-opacity="0.94"/>
<stop offset="1" stop-color="white" stop-opacity="0.63"/>
</linearGradient>
<linearGradient id="paint7_linear" x1="5.52847" y1="13.2214" x2="5.52847" y2="14.4007" gradientUnits="userSpaceOnUse">
<stop stop-color="white" stop-opacity="0.94"/>
<stop offset="1" stop-color="white" stop-opacity="0.63"/>
</linearGradient>
<linearGradient id="paint8_linear" x1="4.61826" y1="15.3892" x2="4.61826" y2="16.5689" gradientUnits="userSpaceOnUse">
<stop stop-color="white" stop-opacity="0.94"/>
<stop offset="1" stop-color="white" stop-opacity="0.63"/>
</linearGradient>
<linearGradient id="paint9_linear" x1="6.75702" y1="11.2185" x2="6.75702" y2="12.3959" gradientUnits="userSpaceOnUse">
<stop stop-color="white" stop-opacity="0.94"/>
<stop offset="1" stop-color="white" stop-opacity="0.63"/>
</linearGradient>
<linearGradient id="paint10_linear" x1="10.0458" y1="7.87671" x2="10.0458" y2="9.05465" gradientUnits="userSpaceOnUse">
<stop stop-color="white" stop-opacity="0.94"/>
<stop offset="1" stop-color="white" stop-opacity="0.63"/>
</linearGradient>
<linearGradient id="paint11_linear" x1="4.4647" y1="24.6577" x2="4.4647" y2="25.837" gradientUnits="userSpaceOnUse">
<stop stop-color="white" stop-opacity="0.94"/>
<stop offset="1" stop-color="white" stop-opacity="0.63"/>
</linearGradient>
<linearGradient id="paint12_linear" x1="8.27505" y1="9.42236" x2="8.27505" y2="10.5987" gradientUnits="userSpaceOnUse">
<stop stop-color="white" stop-opacity="0.94"/>
<stop offset="1" stop-color="white" stop-opacity="0.63"/>
</linearGradient>
<linearGradient id="paint13_linear" x1="3.97325" y1="22.3589" x2="3.97325" y2="23.5376" gradientUnits="userSpaceOnUse">
<stop stop-color="white" stop-opacity="0.94"/>
<stop offset="1" stop-color="white" stop-opacity="0.63"/>
</linearGradient>
<linearGradient id="paint14_linear" x1="3.83549" y1="20.0117" x2="3.83549" y2="21.1915" gradientUnits="userSpaceOnUse">
<stop stop-color="white" stop-opacity="0.94"/>
<stop offset="1" stop-color="white" stop-opacity="0.63"/>
</linearGradient>
<linearGradient id="paint15_linear" x1="4.05012" y1="17.6704" x2="4.05012" y2="18.8502" gradientUnits="userSpaceOnUse">
<stop stop-color="white" stop-opacity="0.94"/>
<stop offset="1" stop-color="white" stop-opacity="0.63"/>
</linearGradient>
<linearGradient id="paint16_linear" x1="32.0655" y1="11.5432" x2="32.0655" y2="12.7215" gradientUnits="userSpaceOnUse">
<stop stop-color="white" stop-opacity="0.94"/>
<stop offset="1" stop-color="white" stop-opacity="0.63"/>
</linearGradient>
<linearGradient id="paint17_linear" x1="34.6443" y1="18.3611" x2="34.6443" y2="19.5409" gradientUnits="userSpaceOnUse">
<stop stop-color="white" stop-opacity="0.94"/>
<stop offset="1" stop-color="white" stop-opacity="0.63"/>
</linearGradient>
<linearGradient id="paint18_linear" x1="34.1528" y1="15.96" x2="34.1528" y2="17.14" gradientUnits="userSpaceOnUse">
<stop stop-color="white" stop-opacity="0.94"/>
<stop offset="1" stop-color="white" stop-opacity="0.63"/>
</linearGradient>
<linearGradient id="paint19_linear" x1="33.2864" y1="13.6685" x2="33.2864" y2="14.8495" gradientUnits="userSpaceOnUse">
<stop stop-color="white" stop-opacity="0.94"/>
<stop offset="1" stop-color="white" stop-opacity="0.63"/>
</linearGradient>
<linearGradient id="paint20_linear" x1="30.5259" y1="9.63672" x2="30.5259" y2="10.8145" gradientUnits="userSpaceOnUse">
<stop stop-color="white" stop-opacity="0.94"/>
<stop offset="1" stop-color="white" stop-opacity="0.63"/>
</linearGradient>
<linearGradient id="paint21_linear" x1="34.7514" y1="20.8113" x2="34.7514" y2="21.9904" gradientUnits="userSpaceOnUse">
<stop stop-color="white" stop-opacity="0.94"/>
<stop offset="1" stop-color="white" stop-opacity="0.63"/>
</linearGradient>
<linearGradient id="paint22_linear" x1="26.6472" y1="6.66187" x2="26.6472" y2="7.83765" gradientUnits="userSpaceOnUse">
<stop stop-color="white" stop-opacity="0.94"/>
<stop offset="1" stop-color="white" stop-opacity="0.63"/>
</linearGradient>
<linearGradient id="paint23_linear" x1="28.7048" y1="7.99585" x2="28.7048" y2="9.17276" gradientUnits="userSpaceOnUse">
<stop stop-color="white" stop-opacity="0.94"/>
<stop offset="1" stop-color="white" stop-opacity="0.63"/>
</linearGradient>
<linearGradient id="paint24_linear" x1="20" y1="0.46875" x2="20" y2="39.5508" gradientUnits="userSpaceOnUse">
<stop stop-color="white" stop-opacity="0.94"/>
<stop offset="1" stop-color="white" stop-opacity="0.63"/>
</linearGradient>
<linearGradient id="paint25_linear" x1="15.766" y1="3.03149" x2="15.766" y2="4.28149" gradientUnits="userSpaceOnUse">
<stop stop-color="white" stop-opacity="0.94"/>
<stop offset="1" stop-color="white" stop-opacity="0.63"/>
</linearGradient>
<linearGradient id="paint26_linear" x1="36.2033" y1="29.7412" x2="36.2033" y2="30.9912" gradientUnits="userSpaceOnUse">
<stop stop-color="white" stop-opacity="0.94"/>
<stop offset="1" stop-color="white" stop-opacity="0.63"/>
</linearGradient>
<linearGradient id="paint27_linear" x1="9.14029" y1="35.094" x2="9.14029" y2="36.344" gradientUnits="userSpaceOnUse">
<stop stop-color="white" stop-opacity="0.94"/>
<stop offset="1" stop-color="white" stop-opacity="0.63"/>
</linearGradient>
<clipPath id="clip0">
<rect width="40" height="40" fill="white"/>
</clipPath>
</defs>
</svg>
