<svg width="32" height="32" viewBox="0 0 32 32" fill="none" xmlns="http://www.w3.org/2000/svg">
<g clip-path="url(#clip0)" filter="url(#filter0_i)">
<path d="M26.1333 14.4608V2.13333C26.1333 0.955126 25.1782 0 24 0H2.13333C0.955126 0 0 0.955126 0 2.13333V19.2C0 20.3782 0.955126 21.3333 2.13333 21.3333H3.73333V25.0133C3.73262 25.3106 3.85039 25.5959 4.06059 25.8061C4.27078 26.0163 4.55607 26.134 4.85333 26.1333C5.06936 26.1333 5.28086 26.0715 5.46293 25.9552L12.6475 21.3333H14.0165C13.1662 26.0494 16.1339 30.6124 20.7897 31.7473C25.4454 32.8822 30.1801 30.1967 31.5953 25.6184C33.0106 21.0401 30.6174 16.1512 26.1333 14.4608ZM12.8 20.2667H9.06667C8.77212 20.2667 8.53333 20.5054 8.53333 20.8C8.53333 21.0946 8.77212 21.3333 9.06667 21.3333H10.6747L4.88747 25.0539C4.87893 25.0587 4.85493 25.0725 4.8 25.0133V21.3333H6.93333C7.22789 21.3333 7.46667 21.0946 7.46667 20.8C7.46667 20.5054 7.22789 20.2667 6.93333 20.2667H2.13333C1.54423 20.2667 1.06667 19.7891 1.06667 19.2V2.13333C1.06667 1.54423 1.54423 1.06667 2.13333 1.06667H24C24.5891 1.06667 25.0667 1.54423 25.0667 2.13333V14.1333C20.4088 12.9804 15.6636 15.6756 14.2683 20.2667H12.8ZM22.9333 30.9333C18.5151 30.9333 14.9333 27.3516 14.9333 22.9333C14.9333 18.5151 18.5151 14.9333 22.9333 14.9333C27.3516 14.9333 30.9333 18.5151 30.9333 22.9333C30.9283 27.3495 27.3495 30.9283 22.9333 30.9333Z" fill="#007AFF"/>
<path d="M19.4667 16.9307C18.0383 17.7583 16.9505 19.0665 16.3974 20.6219C16.3311 20.8022 16.3669 21.0041 16.491 21.1506C16.6151 21.2972 16.8084 21.3657 16.9971 21.33C17.1858 21.2943 17.3407 21.1599 17.4027 20.9782C17.8707 19.6617 18.7912 18.5544 20.0001 17.8539C20.2452 17.7022 20.3255 17.3832 20.1813 17.1336C20.0371 16.8839 19.7206 16.7941 19.4667 16.9307Z" fill="#007AFF"/>
<path d="M3.19972 4.26662H22.9331C23.2276 4.26662 23.4664 4.02784 23.4664 3.73328C23.4664 3.43873 23.2276 3.19995 22.9331 3.19995H3.19972C2.90516 3.19995 2.66638 3.43873 2.66638 3.73328C2.66638 4.02784 2.90516 4.26662 3.19972 4.26662Z" fill="#007AFF"/>
<path d="M22.9335 5.8667H6.40015C6.1056 5.8667 5.86682 6.10548 5.86682 6.40003C5.86682 6.69458 6.1056 6.93337 6.40015 6.93337H22.9335C23.228 6.93337 23.4668 6.69458 23.4668 6.40003C23.4668 6.10548 23.228 5.8667 22.9335 5.8667Z" fill="#007AFF"/>
<path d="M3.19972 6.93337H4.26638C4.56094 6.93337 4.79972 6.69458 4.79972 6.40003C4.79972 6.10548 4.56094 5.8667 4.26638 5.8667H3.19972C2.90516 5.8667 2.66638 6.10548 2.66638 6.40003C2.66638 6.69458 2.90516 6.93337 3.19972 6.93337Z" fill="#007AFF"/>
<path d="M22.9333 8.53333H20.7999C20.5054 8.53333 20.2666 8.77211 20.2666 9.06666C20.2666 9.36121 20.5054 9.59999 20.7999 9.59999H22.9333C23.2278 9.59999 23.4666 9.36121 23.4666 9.06666C23.4666 8.77211 23.2278 8.53333 22.9333 8.53333Z" fill="#007AFF"/>
<path d="M3.19972 9.59999H18.6664C18.9609 9.59999 19.1997 9.36121 19.1997 9.06666C19.1997 8.77211 18.9609 8.53333 18.6664 8.53333H3.19972C2.90516 8.53333 2.66638 8.77211 2.66638 9.06666C2.66638 9.36121 2.90516 9.59999 3.19972 9.59999Z" fill="#007AFF"/>
<path d="M22.9334 11.2H9.06678C8.77223 11.2 8.53345 11.4387 8.53345 11.7333C8.53345 12.0278 8.77223 12.2666 9.06678 12.2666H22.9334C23.228 12.2666 23.4668 12.0278 23.4668 11.7333C23.4668 11.4387 23.228 11.2 22.9334 11.2Z" fill="#007AFF"/>
<path d="M3.19972 12.2666H6.93305C7.2276 12.2666 7.46638 12.0278 7.46638 11.7333C7.46638 11.4387 7.2276 11.2 6.93305 11.2H3.19972C2.90516 11.2 2.66638 11.4387 2.66638 11.7333C2.66638 12.0278 2.90516 12.2666 3.19972 12.2666Z" fill="#007AFF"/>
<path d="M16.0002 13.8667H13.3335C13.039 13.8667 12.8002 14.1055 12.8002 14.4C12.8002 14.6946 13.039 14.9334 13.3335 14.9334H16.0002C16.2947 14.9334 16.5335 14.6946 16.5335 14.4C16.5335 14.1055 16.2947 13.8667 16.0002 13.8667Z" fill="#007AFF"/>
<path d="M3.19972 14.9334H10.6664C10.9609 14.9334 11.1997 14.6946 11.1997 14.4C11.1997 14.1055 10.9609 13.8667 10.6664 13.8667H3.19972C2.90516 13.8667 2.66638 14.1055 2.66638 14.4C2.66638 14.6946 2.90516 14.9334 3.19972 14.9334Z" fill="#007AFF"/>
<path d="M12.2664 16.5333H3.19972C2.90516 16.5333 2.66638 16.7721 2.66638 17.0667C2.66638 17.3612 2.90516 17.6 3.19972 17.6H12.2664C12.5609 17.6 12.7997 17.3612 12.7997 17.0667C12.7997 16.7721 12.5609 16.5333 12.2664 16.5333Z" fill="#007AFF"/>
<path d="M22.9336 26.1334C22.05 26.1334 21.3336 26.8498 21.3336 27.7334C21.3336 28.6171 22.05 29.3334 22.9336 29.3334C23.8173 29.3334 24.5336 28.6171 24.5336 27.7334C24.5336 26.8498 23.8173 26.1334 22.9336 26.1334ZM22.9336 28.2668C22.6391 28.2668 22.4003 28.028 22.4003 27.7334C22.4003 27.4389 22.6391 27.2001 22.9336 27.2001C23.2282 27.2001 23.4669 27.4389 23.4669 27.7334C23.4669 28.028 23.2282 28.2668 22.9336 28.2668Z" fill="#007AFF"/>
<path d="M22.9336 16.5333C22.05 16.5333 21.3336 17.2497 21.3336 18.1333V23.4667C21.3336 24.3503 22.05 25.0667 22.9336 25.0667C23.8173 25.0667 24.5336 24.3503 24.5336 23.4667V18.1333C24.5336 17.2497 23.8173 16.5333 22.9336 16.5333ZM23.4669 23.4667C23.4669 23.7612 23.2282 24 22.9336 24C22.6391 24 22.4003 23.7612 22.4003 23.4667V18.1333C22.4003 17.8388 22.6391 17.6 22.9336 17.6C23.2282 17.6 23.4669 17.8388 23.4669 18.1333V23.4667Z" fill="#007AFF"/>
<path d="M16.5333 23.4667C16.8279 23.4667 17.0667 23.2279 17.0667 22.9334C17.0667 22.6388 16.8279 22.4 16.5333 22.4C16.2388 22.4 16 22.6388 16 22.9334C16 23.2279 16.2388 23.4667 16.5333 23.4667Z" fill="#007AFF"/>
</g>
<defs>
<filter id="filter0_i" x="0" y="0" width="32" height="32.5" filterUnits="userSpaceOnUse" color-interpolation-filters="sRGB">
<feFlood flood-opacity="0" result="BackgroundImageFix"/>
<feBlend mode="normal" in="SourceGraphic" in2="BackgroundImageFix" result="shape"/>
<feColorMatrix in="SourceAlpha" type="matrix" values="0 0 0 0 0 0 0 0 0 0 0 0 0 0 0 0 0 0 127 0" result="hardAlpha"/>
<feOffset dy="0.5"/>
<feGaussianBlur stdDeviation="0.5"/>
<feComposite in2="hardAlpha" operator="arithmetic" k2="-1" k3="1"/>
<feColorMatrix type="matrix" values="0 0 0 0 0.0392224 0 0 0 0 0.339377 0 0 0 0 0.666594 0 0 0 1 0"/>
<feBlend mode="normal" in2="shape" result="effect1_innerShadow"/>
</filter>
<clipPath id="clip0">
<rect width="32" height="32" fill="white"/>
</clipPath>
</defs>
</svg>
