<svg width="80" height="80" viewBox="0 0 80 80" fill="none" xmlns="http://www.w3.org/2000/svg">
<path d="M20.0004 23.75C22.0192 23.75 23.8342 22.6287 24.7367 20.8225L24.8679 20.5587L22.6317 19.44L22.5004 19.705C22.0242 20.6575 21.0667 21.25 20.0004 21.25C18.9342 21.25 17.9767 20.6575 17.5004 19.705L17.3692 19.4412L15.1329 20.56L15.2642 20.8237C16.1667 22.6287 17.9817 23.75 20.0004 23.75Z" fill="url(#paint0_radial)"/>
<path d="M75 71.25C77.0675 71.25 78.75 69.5675 78.75 67.5V37.5C78.75 35.8725 77.7013 34.4975 76.25 33.98V25H73.0288C71.505 25 70.145 24.0912 69.535 22.6187C68.9413 21.2 69.2575 19.585 70.3375 18.5038L72.6188 16.2238L63.775 7.38125L61.495 9.6625C60.415 10.7437 58.8 11.0575 57.3162 10.4388C55.9087 9.855 55 8.495 55 6.97125V3.75H42.5V6.97125C42.5 8.495 41.5913 9.855 40.1188 10.465C38.6988 11.0575 37.085 10.7425 36.0037 9.6625L33.725 7.38125L33.205 7.90125C31.8725 4.0375 28.2075 1.25 23.8963 1.25H16.1038C10.67 1.25 6.25 5.67 6.25 11.1038C6.25 12.165 6.42 13.2137 6.755 14.22L7.26875 15.7588C6.6375 16.595 6.25 17.6238 6.25 18.75C6.25 21.5075 8.4925 23.75 11.25 23.75H12.1063C12.73 25.0563 13.665 26.1825 14.8188 27.035L13.9375 31.4375L9.2875 32.3675C4.63125 33.2987 1.25 37.4225 1.25 42.1737V57.5C1.25 61.6363 4.61375 65 8.75 65V76.25H1.25V78.75H78.75V76.25H66.25V71.25H75ZM75 68.75H73.75V66.25H71.25V68.75H68.75V66.25H66.25V68.75H63.75V66.25H61.25V68.75H40C39.3113 68.75 38.75 68.1888 38.75 67.5V63.75H76.25V67.5C76.25 68.1888 75.6888 68.75 75 68.75ZM33.9563 33.6413C33.83 32.8538 33.75 32.055 33.75 31.25C33.75 22.9788 40.4788 16.25 48.75 16.25C57.0213 16.25 63.75 22.9788 63.75 31.25C63.75 32.0913 63.6562 32.925 63.5175 33.75H60.9888C61.1562 32.9313 61.25 32.0963 61.25 31.25C61.25 24.3575 55.6425 18.75 48.75 18.75C41.8575 18.75 36.25 24.3575 36.25 31.25C36.25 32.6562 36.4938 34.0238 36.9488 35.3363C36.8063 35.5362 36.6825 35.75 36.5812 35.9762C35.8525 35.0563 34.9675 34.26 33.9563 33.6413ZM39.1075 33.8688C38.8762 33.02 38.75 32.145 38.75 31.25C38.75 25.7363 43.2363 21.25 48.75 21.25C54.2638 21.25 58.75 25.7363 58.75 31.25C58.75 32.1 58.6438 32.9375 58.4338 33.75H40C39.6912 33.75 39.395 33.7988 39.1075 33.8688ZM38.75 37.5C38.75 36.8113 39.3113 36.25 40 36.25H75C75.6888 36.25 76.25 36.8113 76.25 37.5V61.25H58.75V48.75H51.25V61.25H48.75V53.75H41.25V61.25H38.75V37.5ZM56.25 61.25H53.75V51.25H56.25V61.25ZM46.25 61.25H43.75V56.25H46.25V61.25ZM34.2375 11.43C36.0375 13.23 38.725 13.7575 41.1413 12.7475C43.485 11.7763 45 9.50875 45 6.97125V6.25H52.5V6.97125C52.5 9.50875 54.015 11.7763 56.4163 12.7725C58.775 13.7563 61.4625 13.2313 63.2625 11.43L63.775 10.9175L69.0825 16.225L68.57 16.7375C66.77 18.5375 66.2425 21.225 67.2525 23.6413C68.2237 25.985 70.4913 27.5 73.0288 27.5H73.75V33.75H66.0513C66.17 32.9225 66.25 32.0888 66.25 31.25C66.25 21.6 58.4 13.75 48.75 13.75C39.1 13.75 31.25 21.6 31.25 31.25C31.25 31.6725 31.2812 32.0938 31.3112 32.515C31.1125 32.4625 30.915 32.4075 30.7113 32.3675L26.0613 31.4375L25.18 27.035C26.3337 26.1825 27.2687 25.0563 27.8925 23.75H28.75C31.5075 23.75 33.75 21.5075 33.75 18.75C33.75 17.6238 33.3625 16.595 32.7313 15.7588L33.245 14.22C33.58 13.2137 33.75 12.165 33.75 11.1038C33.75 11.0463 33.7425 10.9913 33.7412 10.935L34.2375 11.43ZM20.6087 40H19.39L18.0613 38.1513L20 36.6L21.9375 38.15L20.6087 40ZM16.1075 39.715L17.3625 41.4613L16.7463 43.3088L15.5387 40.17L16.1075 39.715ZM23.75 57.5C25.1287 57.5 26.25 58.6213 26.25 60C26.25 61.3788 25.1287 62.5 23.75 62.5H21.25V57.5H23.75ZM18.75 65H23.75C26.5075 65 28.75 62.7575 28.75 60C28.75 57.2425 26.5075 55 23.75 55H18.75V50H31.25V68.75H18.75V65ZM18.3588 47.5L18.1588 46.9788L19.6513 42.5H20.3488L21.8413 46.9788L21.6413 47.5H18.3588ZM23.2538 43.3075L22.6375 41.46L23.8925 39.7138L24.4613 40.1687L23.2538 43.3075ZM25.4025 37.7213L22.3062 35.2438L25.175 33.8088L26.7825 34.13L25.4025 37.7213ZM28.75 20V16.25C30.1288 16.25 31.25 17.3713 31.25 18.75C31.25 20.1287 30.1288 21.25 28.75 21.25H28.65C28.7087 20.84 28.75 20.425 28.75 20ZM11.25 21.25C9.87125 21.25 8.75 20.1287 8.75 18.75C8.75 17.3713 9.87125 16.25 11.25 16.25V20C11.25 20.425 11.2913 20.84 11.35 21.25H11.25ZM11.4288 13.75H11.25C10.5813 13.75 9.94375 13.8875 9.36 14.1263L9.1275 13.4288C8.8775 12.6788 8.75 11.8963 8.75 11.1038C8.75 7.04875 12.0488 3.75 16.1038 3.75H23.8963C27.9513 3.75 31.25 7.04875 31.25 11.1038C31.25 11.8963 31.1225 12.6788 30.8725 13.4288L30.64 14.1263C30.0562 13.8875 29.4188 13.75 28.75 13.75H28.52C28.0025 12.2987 26.6275 11.25 25 11.25H20C19.3113 11.25 18.75 10.6888 18.75 10C18.75 9.31125 19.3113 8.75 20 8.75H21.25V6.25H20C18.2825 6.25 16.83 7.41125 16.3888 8.99L15.985 9.09125C13.6663 9.67 11.9475 11.4988 11.4288 13.75ZM13.75 20V15.1538C13.75 13.4363 14.91 11.945 16.5725 11.52C17.1575 12.8325 18.4738 13.75 20 13.75H25C25.6888 13.75 26.25 14.3113 26.25 15V20C26.25 23.4463 23.4463 26.25 20 26.25C16.5538 26.25 13.75 23.4463 13.75 20ZM20 28.75C21.0088 28.75 21.9738 28.57 22.8763 28.255L23.5875 31.8088L20 33.6025L16.4125 31.8088L17.1238 28.255C18.0263 28.57 18.9913 28.75 20 28.75ZM14.825 33.81L17.6938 35.245L14.5975 37.7225L13.2163 34.1325L14.825 33.81ZM3.75 57.5V42.1737C3.75 38.61 6.285 35.5175 9.77875 34.8187L10.73 34.6287L16.25 48.9813V55H11.25V43.75H8.75V55.7325L6.61625 57.8663L8.38375 59.6338L10.5175 57.5H18.75V62.5H8.75C5.9925 62.5 3.75 60.2575 3.75 57.5ZM11.25 65H16.25V71.25H33.75V47.5H24.32L29.27 34.6287L30.2213 34.8187C33.715 35.5175 36.25 38.61 36.25 42.1737V67.5C36.25 69.5675 37.9325 71.25 40 71.25H48.75V76.25H11.25V65ZM63.75 76.25H51.25V71.25H63.75V76.25Z" fill="url(#paint1_radial)"/>
<path d="M68.75 48.75C71.5075 48.75 73.75 46.5075 73.75 43.75H71.25C71.25 45.1287 70.1288 46.25 68.75 46.25C67.3713 46.25 66.25 45.1287 66.25 43.75C66.25 42.3713 67.3713 41.25 68.75 41.25V38.75C65.9925 38.75 63.75 40.9925 63.75 43.75C63.75 46.5075 65.9925 48.75 68.75 48.75Z" fill="url(#paint2_radial)"/>
<path d="M61.25 56.25H75V58.75H61.25V56.25Z" fill="url(#paint3_radial)"/>
<path d="M61.25 51.25H67.5V53.75H61.25V51.25Z" fill="url(#paint4_radial)"/>
<path d="M42.5 26.25H45V28.75H42.5V26.25Z" fill="url(#paint5_radial)"/>
<path d="M47.5 26.25H50V28.75H47.5V26.25Z" fill="url(#paint6_radial)"/>
<path d="M52.5 26.25H55V28.75H52.5V26.25Z" fill="url(#paint7_radial)"/>
<defs>
<radialGradient id="paint0_radial" cx="0" cy="0" r="1" gradientUnits="userSpaceOnUse" gradientTransform="translate(40.1678 78.75) rotate(-90) scale(77.5 140.312)">
<stop stop-color="#D6DAE8" stop-opacity="0.93"/>
<stop offset="1" stop-color="#F7F8FC"/>
</radialGradient>
<radialGradient id="paint1_radial" cx="0" cy="0" r="1" gradientUnits="userSpaceOnUse" gradientTransform="translate(40.1678 78.75) rotate(-90) scale(77.5 140.312)">
<stop stop-color="#D6DAE8" stop-opacity="0.93"/>
<stop offset="1" stop-color="#F7F8FC"/>
</radialGradient>
<radialGradient id="paint2_radial" cx="0" cy="0" r="1" gradientUnits="userSpaceOnUse" gradientTransform="translate(40.1678 78.75) rotate(-90) scale(77.5 140.312)">
<stop stop-color="#D6DAE8" stop-opacity="0.93"/>
<stop offset="1" stop-color="#F7F8FC"/>
</radialGradient>
<radialGradient id="paint3_radial" cx="0" cy="0" r="1" gradientUnits="userSpaceOnUse" gradientTransform="translate(40.1678 78.75) rotate(-90) scale(77.5 140.312)">
<stop stop-color="#D6DAE8" stop-opacity="0.93"/>
<stop offset="1" stop-color="#F7F8FC"/>
</radialGradient>
<radialGradient id="paint4_radial" cx="0" cy="0" r="1" gradientUnits="userSpaceOnUse" gradientTransform="translate(40.1678 78.75) rotate(-90) scale(77.5 140.312)">
<stop stop-color="#D6DAE8" stop-opacity="0.93"/>
<stop offset="1" stop-color="#F7F8FC"/>
</radialGradient>
<radialGradient id="paint5_radial" cx="0" cy="0" r="1" gradientUnits="userSpaceOnUse" gradientTransform="translate(40.1678 78.75) rotate(-90) scale(77.5 140.312)">
<stop stop-color="#D6DAE8" stop-opacity="0.93"/>
<stop offset="1" stop-color="#F7F8FC"/>
</radialGradient>
<radialGradient id="paint6_radial" cx="0" cy="0" r="1" gradientUnits="userSpaceOnUse" gradientTransform="translate(40.1678 78.75) rotate(-90) scale(77.5 140.312)">
<stop stop-color="#D6DAE8" stop-opacity="0.93"/>
<stop offset="1" stop-color="#F7F8FC"/>
</radialGradient>
<radialGradient id="paint7_radial" cx="0" cy="0" r="1" gradientUnits="userSpaceOnUse" gradientTransform="translate(40.1678 78.75) rotate(-90) scale(77.5 140.312)">
<stop stop-color="#D6DAE8" stop-opacity="0.93"/>
<stop offset="1" stop-color="#F7F8FC"/>
</radialGradient>
</defs>
</svg>
