<svg width="63" height="80" viewBox="0 0 63 80" fill="none" xmlns="http://www.w3.org/2000/svg">
<path d="M25.2375 55.1075H27.7424V57.4558H25.2375V55.1075Z" fill="url(#paint0_radial)"/>
<path d="M30.2474 55.1075H32.7523V57.4558H30.2474V55.1075Z" fill="url(#paint1_radial)"/>
<path d="M35.2573 55.1075H37.7622V57.4558H35.2573V55.1075Z" fill="url(#paint2_radial)"/>
<path d="M59.1811 34.2881C56.9326 29.9978 53.6609 26.2315 49.7201 23.3966L48.3487 25.3029C51.1042 27.2853 53.5052 29.7602 55.4118 32.5638H47.5302C46.7762 30.4825 45.871 28.5373 44.8224 26.767C46.7366 23.0593 47.7037 19.5253 47.7037 16.2035C47.7037 7.26889 40.4348 0 31.5002 0C22.5655 0 15.2966 7.26889 15.2966 16.2035C15.2966 19.5253 16.2637 23.0593 18.178 26.7668C17.1294 28.5373 16.2242 30.4823 15.4702 32.5636H7.5886C9.4953 29.76 11.8962 27.2852 14.6518 25.3027L13.2803 23.3965C9.33952 26.2314 6.06798 29.9977 3.81937 34.2879C1.49561 38.7217 0.267273 43.7285 0.267273 48.7671C0.267273 65.989 14.2782 80 31.5002 80C48.7221 80 62.733 65.989 62.733 48.7671C62.733 43.7285 61.5047 38.7217 59.1811 34.2881ZM30.326 77.5767C26.511 77.0903 22.9221 74.2409 20.1157 69.4301C19.3118 68.052 18.5984 66.5583 17.9806 64.9706H30.326V77.5767ZM32.6743 77.5767V64.9706H45.0197C44.4019 66.5584 43.6885 68.052 42.8846 69.4301C40.0782 74.2409 36.4893 77.0903 32.6743 77.5767ZM32.6743 62.6223V60.0391H30.326V62.6223H17.1584C15.9454 58.7559 15.2569 54.4415 15.1546 49.9413H30.326V52.5245H32.6743V49.9413H47.8457C47.7434 54.4415 47.0549 58.7559 45.8419 62.6223H32.6743ZM2.64144 49.9413H12.8058C12.9034 54.4074 13.5543 58.7119 14.7055 62.6223H6.16207C4.07972 58.8293 2.82555 54.5209 2.64144 49.9413ZM23.6827 34.9119C26.5627 38.3914 29.2994 40.8914 30.326 41.791V47.593H15.1553C15.2605 43.1313 15.962 38.7906 17.1742 34.9119H23.6827ZM39.3176 34.9119H45.8261C47.0383 38.7906 47.7398 43.1313 47.845 47.593H32.6743V41.791C33.7009 40.8914 36.4376 38.3914 39.3176 34.9119ZM50.1945 49.9413H60.3589C60.1747 54.5209 58.9206 58.8293 56.8382 62.6223H48.2947C49.4458 58.7119 50.0969 54.4074 50.1945 49.9413ZM56.8478 34.9119C56.9328 35.0671 57.0189 35.2216 57.1011 35.3783C59.0687 39.1324 60.1837 43.3323 60.3578 47.593H50.1945C50.0977 43.1112 49.4485 38.8135 48.2997 34.9119H56.8478ZM45.0089 32.5636H41.1603C42.0126 31.4156 42.7822 30.281 43.469 29.1612C44.0323 30.2312 44.5469 31.3688 45.0089 32.5636ZM31.5002 2.34834C39.1399 2.34834 45.3553 8.56376 45.3553 16.2035C45.3553 26.4524 34.488 36.9868 31.4997 39.6891C28.5104 36.9887 17.645 26.4647 17.645 16.2035C17.645 8.56376 23.8604 2.34834 31.5002 2.34834ZM19.5313 29.1612C20.2181 30.281 20.9877 31.4154 21.84 32.5636H17.9914C18.4534 31.3688 18.968 30.2312 19.5313 29.1612ZM5.89937 35.3783C5.9814 35.2218 6.06751 35.0671 6.15267 34.9119H14.7008C13.552 38.8135 12.9027 43.1112 12.806 47.593H2.64254C2.81663 43.3323 3.93162 39.1324 5.89937 35.3783ZM7.6005 64.9706H15.4756C16.207 66.9926 17.0798 68.8864 18.0874 70.6135C19.4032 72.8692 20.8904 74.7466 22.503 76.2151C16.3817 74.2037 11.1565 70.199 7.6005 64.9706ZM40.4973 76.2151C42.1099 74.7466 43.5971 72.8692 44.9129 70.6135C45.9203 68.8864 46.7931 66.9926 47.5247 64.9706H55.3998C51.8438 70.199 46.6186 74.2037 40.4973 76.2151Z" fill="url(#paint3_radial)"/>
<path d="M42.6945 16.2037C42.6945 10.0315 37.6729 5.00993 31.5007 5.00993C25.3285 5.00993 20.307 10.0315 20.307 16.2037C20.307 22.3759 25.3285 27.3974 31.5007 27.3974C37.6729 27.3974 42.6945 22.3759 42.6945 16.2037ZM31.5007 7.35826C34.5536 7.35826 37.2499 8.91302 38.8402 11.2722H24.1612C25.7515 8.91302 28.4479 7.35826 31.5007 7.35826ZM23.0411 13.6205H39.9604C40.2106 14.438 40.3461 15.3052 40.3461 16.2037C40.3461 17.1021 40.2106 17.9693 39.9604 18.7868H23.0411C22.7909 17.9693 22.6553 17.1021 22.6553 16.2037C22.6553 15.3052 22.7909 14.438 23.0411 13.6205ZM24.1612 21.1352H38.8402C37.2499 23.4943 34.5536 25.0491 31.5007 25.0491C28.4479 25.0491 25.7515 23.4943 24.1612 21.1352Z" fill="url(#paint4_radial)"/>
<defs>
<radialGradient id="paint0_radial" cx="0" cy="0" r="1" gradientUnits="userSpaceOnUse" gradientTransform="translate(31.6354 80) rotate(-90) scale(80 113.093)">
<stop stop-color="#D6DAE8" stop-opacity="0.93"/>
<stop offset="1" stop-color="#F7F8FC"/>
</radialGradient>
<radialGradient id="paint1_radial" cx="0" cy="0" r="1" gradientUnits="userSpaceOnUse" gradientTransform="translate(31.6354 80) rotate(-90) scale(80 113.093)">
<stop stop-color="#D6DAE8" stop-opacity="0.93"/>
<stop offset="1" stop-color="#F7F8FC"/>
</radialGradient>
<radialGradient id="paint2_radial" cx="0" cy="0" r="1" gradientUnits="userSpaceOnUse" gradientTransform="translate(31.6354 80) rotate(-90) scale(80 113.093)">
<stop stop-color="#D6DAE8" stop-opacity="0.93"/>
<stop offset="1" stop-color="#F7F8FC"/>
</radialGradient>
<radialGradient id="paint3_radial" cx="0" cy="0" r="1" gradientUnits="userSpaceOnUse" gradientTransform="translate(31.6354 80) rotate(-90) scale(80 113.093)">
<stop stop-color="#D6DAE8" stop-opacity="0.93"/>
<stop offset="1" stop-color="#F7F8FC"/>
</radialGradient>
<radialGradient id="paint4_radial" cx="0" cy="0" r="1" gradientUnits="userSpaceOnUse" gradientTransform="translate(31.6354 80) rotate(-90) scale(80 113.093)">
<stop stop-color="#D6DAE8" stop-opacity="0.93"/>
<stop offset="1" stop-color="#F7F8FC"/>
</radialGradient>
</defs>
</svg>
