<svg width="18" height="18" viewBox="0 0 18 18" fill="none" xmlns="http://www.w3.org/2000/svg">
<g clip-path="url(#clip0)">
<path d="M16.3357 3.80485C16.3354 3.79905 16.3348 3.79325 16.3338 3.78748C16.3113 3.75534 16.2836 3.72769 16.2605 3.69619C16.0924 3.46726 15.9145 3.24691 15.7267 3.03512C15.6753 2.97725 15.6238 2.92002 15.5711 2.86343C15.3778 2.65638 15.175 2.45895 14.9628 2.2712C14.9236 2.23646 14.8869 2.20048 14.8477 2.16638C14.3247 1.71835 13.7521 1.33169 13.1411 1.01407C13.1166 1.00122 13.0909 0.990293 13.0658 0.977407C12.7937 0.839128 12.5147 0.714827 12.2299 0.605071C12.1656 0.581937 12.107 0.560046 12.046 0.540754C11.7926 0.44946 11.5354 0.369507 11.2743 0.300895C11.1971 0.280323 11.12 0.25911 11.0415 0.2411C10.7843 0.181305 10.5271 0.135639 10.2641 0.0983373C10.1844 0.0867701 10.1059 0.071322 10.0255 0.0616764C9.34809 -0.0206504 8.66321 -0.0206504 7.98576 0.0616764C7.90539 0.071322 7.82695 0.0867701 7.74718 0.0983373C7.48419 0.135639 7.2244 0.181305 6.96973 0.2411C6.89128 0.25911 6.81412 0.280323 6.73695 0.300895C6.47415 0.369469 6.21696 0.449423 5.9653 0.540754C5.90099 0.562608 5.84247 0.584499 5.7814 0.605071C5.49659 0.714827 5.21754 0.83909 4.94543 0.977407C4.92034 0.990255 4.89464 1.00118 4.87019 1.01407C4.25713 1.33136 3.68257 1.71797 3.15775 2.16638C3.11853 2.20044 3.08187 2.23646 3.04264 2.2712C2.82829 2.45982 2.62551 2.65725 2.43433 2.86343C2.38162 2.92002 2.33015 2.97725 2.27872 3.03512C2.09052 3.24646 1.9126 3.4668 1.74501 3.69615C1.72187 3.72765 1.69422 3.75531 1.67169 3.78744C1.66875 3.79306 1.66615 3.79886 1.66396 3.80481C-0.554003 6.91315 -0.554003 11.0868 1.66396 14.1951C1.66615 14.201 1.66871 14.2068 1.67169 14.2124C1.69418 14.2446 1.72184 14.2722 1.74501 14.3037C1.91264 14.5327 2.09052 14.753 2.27872 14.9648C2.33015 15.0227 2.38162 15.0799 2.43433 15.1365C2.62811 15.3435 2.83086 15.541 3.04264 15.7287C3.08187 15.7635 3.11853 15.7994 3.15775 15.8335C3.68072 16.2816 4.25336 16.6682 4.86438 16.9858C4.88884 16.9987 4.91453 17.0096 4.93963 17.0225C5.21174 17.1608 5.49075 17.2851 5.77559 17.3948C5.83991 17.418 5.89843 17.4399 5.9595 17.4592C6.21285 17.5505 6.47008 17.6304 6.73115 17.699C6.80832 17.7196 6.88548 17.7408 6.96393 17.7588C7.22116 17.8186 7.47835 17.8643 7.74138 17.9016C7.82111 17.9131 7.89955 17.9286 7.97996 17.9382C8.65737 18.0206 9.34225 18.0206 10.0197 17.9382C10.1001 17.9286 10.1785 17.9131 10.2583 17.9016C10.5213 17.8643 10.7811 17.8186 11.0357 17.7588C11.1142 17.7408 11.1913 17.7196 11.2685 17.699C11.5317 17.6304 11.789 17.5505 12.0402 17.4592C12.1045 17.4373 12.163 17.4154 12.2241 17.3948C12.5089 17.2851 12.7879 17.1608 13.06 17.0225C13.0851 17.0097 13.1108 16.9987 13.1353 16.9858C13.7463 16.6682 14.3189 16.2816 14.8419 15.8335C14.8811 15.7994 14.9178 15.7635 14.957 15.7287C15.1714 15.5405 15.3742 15.3431 15.5653 15.1365C15.618 15.0799 15.6695 15.0227 15.7209 14.9648C15.9091 14.753 16.0871 14.5327 16.2547 14.3037C16.2778 14.2722 16.3054 14.2446 16.328 14.2124C16.3309 14.2068 16.3335 14.201 16.3357 14.1951C18.5537 11.0868 18.5537 6.91319 16.3357 3.80485ZM15.602 5.02152C16.217 6.03435 16.5883 7.17614 16.6868 8.35698H12.835C12.7878 7.59075 12.6672 6.83086 12.4749 6.0877C13.5629 5.88393 14.6161 5.52486 15.602 5.02152ZM10.639 1.46097C10.675 1.46933 10.7097 1.4809 10.7457 1.48926C10.9759 1.5433 11.2042 1.60501 11.4274 1.68218C11.4615 1.69374 11.4949 1.70727 11.5283 1.71948C11.7495 1.79664 11.9675 1.88217 12.181 1.97671C12.2183 1.99408 12.255 2.01337 12.2923 2.03074C12.4968 2.12806 12.6965 2.2333 12.8916 2.34648L13.0202 2.42429C13.2054 2.53747 13.3855 2.65857 13.5604 2.78762C13.6054 2.8204 13.6504 2.85193 13.6948 2.88792C13.8662 3.01651 14.0304 3.15434 14.1873 3.3014C14.2285 3.3387 14.2709 3.37536 14.3114 3.41394C14.4761 3.57019 14.6329 3.73545 14.7847 3.90651C14.804 3.929 14.8246 3.94957 14.8439 3.97082C13.9732 4.38577 13.0508 4.68208 12.1013 4.85178C11.6615 3.64261 11.0804 2.48958 10.3703 1.41666C10.4596 1.43271 10.5509 1.44171 10.639 1.46097ZM6.45407 8.35694C6.50478 7.66118 6.62324 6.972 6.80775 6.29922C7.53633 6.38577 8.2694 6.42868 9.00311 6.42782C9.73749 6.42759 10.4712 6.38358 11.2004 6.29598C11.3846 6.96986 11.5024 7.66012 11.5521 8.35694H6.45407ZM11.5521 9.64305C11.5014 10.3388 11.3829 11.028 11.1984 11.7008C10.4698 11.6142 9.73678 11.5713 9.00307 11.5722C8.26872 11.5713 7.53501 11.6143 6.80579 11.7008C6.62181 11.0279 6.50403 10.3388 6.45403 9.64305H11.5521ZM9.00307 1.70279C9.73486 2.73995 10.3367 3.86295 10.7952 5.04661C10.2 5.10984 9.60174 5.1416 9.00307 5.14179C8.40508 5.14107 7.8075 5.10912 7.21283 5.04597C7.6719 3.8631 8.27306 2.74048 9.00307 1.70279ZM3.22214 3.90583C3.37327 3.73477 3.5308 3.56951 3.69542 3.41326C3.73592 3.37468 3.77839 3.33802 3.81953 3.30072C3.97816 3.15626 4.14236 3.01843 4.3121 2.88724C4.35648 2.85314 4.40147 2.82292 4.4465 2.78694C4.6214 2.65834 4.80146 2.53721 4.98665 2.42361L5.11525 2.3458C5.31031 2.23179 5.51008 2.12652 5.71456 2.03006C5.75186 2.01269 5.78852 1.9934 5.82582 1.97603C6.0393 1.87957 6.25731 1.79404 6.47852 1.7188C6.51194 1.70659 6.54284 1.69307 6.57946 1.6815C6.80259 1.6069 7.0296 1.54518 7.26109 1.48859C7.29711 1.48022 7.33182 1.46865 7.36848 1.46093C7.45657 1.44164 7.5479 1.43263 7.63727 1.41655C6.92681 2.48966 6.34559 3.64291 5.90555 4.85231C4.95609 4.6826 4.03366 4.3863 3.16299 3.97135C3.18228 3.9489 3.20285 3.92832 3.22214 3.90583ZM2.40419 5.02152C3.38989 5.52482 4.4428 5.8839 5.53065 6.0877C5.33853 6.8309 5.21815 7.59079 5.1712 8.35698H1.31939C1.41789 7.17614 1.78924 6.03435 2.40419 5.02152ZM2.40419 12.9785C1.7892 11.9657 1.41785 10.8239 1.31939 9.64305H5.1712C5.21837 10.4093 5.33894 11.1692 5.53129 11.9123C4.44326 12.1161 3.39011 12.4751 2.40419 12.9785ZM7.3672 16.539C7.33118 16.5307 7.29647 16.5191 7.26045 16.5107C7.03024 16.4567 6.80195 16.395 6.57882 16.3178C6.54472 16.3062 6.5113 16.2927 6.47784 16.2805C6.25663 16.2033 6.03866 16.1178 5.82514 16.0233C5.78784 16.0059 5.75118 15.9866 5.71388 15.9692C5.5094 15.8719 5.30963 15.7667 5.11457 15.6535L4.98597 15.5757C4.80078 15.4625 4.62072 15.3414 4.44582 15.2124C4.40079 15.1796 4.3558 15.1481 4.31142 15.1121C4.13995 14.9835 3.97574 14.8456 3.81885 14.6986C3.77771 14.6613 3.73524 14.6246 3.69474 14.586C3.53012 14.4298 3.37323 14.2645 3.22146 14.0935C3.20217 14.071 3.1816 14.0504 3.16231 14.0292C4.03302 13.6142 4.95542 13.3179 5.90487 13.1482C6.34472 14.3574 6.92576 15.5104 7.63592 16.5833C7.54658 16.5673 7.45529 16.5583 7.3672 16.539ZM9.00307 16.2972C8.27128 15.2601 7.66941 14.1371 7.21091 12.9534C8.4018 12.8252 9.60302 12.8252 10.7939 12.9534L10.7933 12.9541C10.3343 14.1369 9.73312 15.2595 9.00307 16.2972ZM14.784 14.0942C14.6329 14.2652 14.4754 14.4305 14.3108 14.5867C14.2703 14.6253 14.2278 14.662 14.1866 14.6993C14.028 14.8442 13.8638 14.982 13.6941 15.1127C13.6497 15.1468 13.6047 15.1803 13.5597 15.213C13.3848 15.3416 13.2047 15.4628 13.0195 15.5764L12.8909 15.6542C12.6963 15.7678 12.4965 15.873 12.2916 15.9699C12.2543 15.9873 12.2177 16.0066 12.1804 16.024C11.9669 16.1204 11.7489 16.2059 11.5277 16.2812C11.4942 16.2934 11.4633 16.3069 11.4267 16.3185C11.2036 16.3931 10.9766 16.4548 10.7451 16.5114C10.7091 16.5198 10.6744 16.5313 10.6377 16.5391C10.5496 16.5583 10.4583 16.5674 10.3689 16.5834C11.0791 15.5105 11.6601 14.3575 12.1 13.1483C13.0494 13.318 13.9718 13.6143 14.8425 14.0293C14.8239 14.0511 14.8033 14.0717 14.784 14.0942ZM15.602 12.9785C14.6163 12.4752 13.5634 12.1161 12.4755 11.9123C12.6677 11.1691 12.788 10.4092 12.835 9.64305H16.6868C16.5883 10.8238 16.2169 11.9656 15.602 12.9785Z" fill="#007AFF"/>
</g>
<defs>
<clipPath id="clip0">
<rect width="18" height="18" fill="white"/>
</clipPath>
</defs>
</svg>
