<svg width="81" height="80" viewBox="0 0 81 80" fill="none" xmlns="http://www.w3.org/2000/svg">
<path fill-rule="evenodd" clip-rule="evenodd" d="M45.7528 27.6537C45.6108 27.2476 45.3895 26.8738 45.1017 26.5539C46.3008 25.2214 46.1926 23.1692 44.8601 21.9701C44.5402 21.6823 44.1665 21.461 43.7603 21.319V18.945H41.5863V21.119H39.4124V18.945H37.2384V21.119H36.1514C35.5511 21.119 35.0644 21.6057 35.0644 22.206V30.9019C35.0644 31.5022 35.5511 31.9889 36.1514 31.9889H37.2384V34.1629H39.4124V31.9889H41.5863V34.1629H43.7603V31.7889C45.4525 31.1971 46.3445 29.3457 45.7528 27.6537ZM42.6733 29.8149H37.2384V27.6409H42.6733C43.2736 27.6409 43.7603 28.1276 43.7603 28.7279C43.7603 29.3282 43.2736 29.8149 42.6733 29.8149ZM42.6733 25.4669H37.2384V23.293H42.6733C43.2736 23.293 43.7603 23.7797 43.7603 24.3799C43.7603 24.9802 43.2736 25.4669 42.6733 25.4669Z" fill="url(#paint0_radial)"/>
<path fill-rule="evenodd" clip-rule="evenodd" d="M54.7232 26.5539C54.7232 34.4092 48.3553 40.7772 40.5 40.7772C32.6447 40.7772 26.2768 34.4092 26.2768 26.5539C26.2768 18.6987 32.6447 12.3307 40.5 12.3307C48.3553 12.3307 54.7232 18.6987 54.7232 26.5539ZM52.3527 26.5539C52.3527 33.1 47.046 38.4066 40.5 38.4066C33.9539 38.4066 28.6473 33.1 28.6473 26.5539C28.6473 20.0079 33.9539 14.7013 40.5 14.7013C47.046 14.7013 52.3527 20.0079 52.3527 26.5539Z" fill="url(#paint1_radial)"/>
<path fill-rule="evenodd" clip-rule="evenodd" d="M18.857 34.1024C18.5452 34.9515 18.375 35.869 18.375 36.8263C18.375 41.1903 21.9127 44.7281 26.2768 44.7281C26.2768 49.0921 29.8145 52.6299 34.1786 52.6299C35.9025 52.6299 37.4974 52.0778 38.7963 51.1409C38.8377 51.111 38.8788 51.0807 38.9196 51.0501V57.6182C26.9241 58.0251 19.2808 63.1175 14.6188 68.253C12.2001 70.9174 10.5941 73.5804 9.59114 75.5806C9.08918 76.5816 8.73674 77.4195 8.50805 78.013C8.39366 78.3098 8.3101 78.5458 8.25418 78.7108C8.22622 78.7933 8.20515 78.8581 8.19059 78.9039L8.17356 78.9582L8.16861 78.9744L8.167 78.9797L8.16642 78.9817C8.16642 78.9817 8.16598 78.9832 9.30179 79.322C10.4376 79.6608 10.4373 79.6618 10.4373 79.6618L10.4391 79.6559L10.4497 79.6222C10.4598 79.5902 10.4762 79.5397 10.4993 79.4717C10.5454 79.3357 10.6179 79.1303 10.72 78.8654C10.9243 78.3353 11.2463 77.5682 11.7102 76.6432C12.6389 74.7912 14.1302 72.3181 16.374 69.8463C20.6453 65.1411 27.681 60.393 38.9196 59.9902V70.804H34.1786V73.9647H46.8214V70.804H42.0803V59.9921C53.2884 60.4078 60.3088 65.1484 64.5735 69.8463C66.8173 72.3181 68.3086 74.7912 69.2373 76.6432C69.7012 77.5682 70.0232 78.3353 70.2275 78.8654C70.3296 79.1303 70.4021 79.3357 70.4482 79.4717C70.4713 79.5397 70.4877 79.5902 70.4978 79.6222L70.5084 79.6559L70.5102 79.6618C70.5102 79.6618 70.5099 79.6608 71.6457 79.322C72.7815 78.9832 72.7811 78.9817 72.7811 78.9817L72.7805 78.9797L72.7789 78.9744L72.7739 78.9582L72.7569 78.9039C72.7423 78.8581 72.7213 78.7933 72.6933 78.7108C72.6374 78.5458 72.5538 78.3098 72.4395 78.013C72.2108 77.4195 71.8583 76.5816 71.3564 75.5806C70.3534 73.5804 68.7474 70.9174 66.3287 68.253C61.6735 63.125 54.0457 58.0399 42.0803 57.62V51.0501L42.136 51.0915L42.2037 51.1409C43.5026 52.0778 45.0975 52.6299 46.8214 52.6299C51.1855 52.6299 54.7232 49.0921 54.7232 44.7281C59.0873 44.7281 62.625 41.1903 62.625 36.8263C62.625 35.869 62.4548 34.9515 62.143 34.1024C61.8551 33.3184 61.4464 32.5926 60.9396 31.9477C61.7665 31.7916 62.5479 31.5066 63.2621 31.1144C65.7081 29.7713 67.3661 27.171 67.3661 24.1834C67.3661 20.9618 65.4381 18.1904 62.673 16.9603C61.9538 16.6403 61.178 16.4246 60.3648 16.3324C60.685 15.6133 60.901 14.8376 60.9936 14.0245C61.0273 13.7279 61.0447 13.4264 61.0447 13.1209C61.0447 8.75686 57.5069 5.2191 53.1429 5.2191C52.1856 5.2191 51.2681 5.38933 50.419 5.70115C49.6349 5.98906 48.9092 6.3977 48.2643 6.90452C48.1081 6.07762 47.8231 5.29625 47.431 4.58206C46.0878 2.13602 43.4875 0.478027 40.5 0.478027C37.5124 0.478027 34.9121 2.13602 33.569 4.58206C33.1768 5.29625 32.8918 6.07762 32.7357 6.90452C32.0908 6.39769 31.365 5.98906 30.581 5.70115C29.7319 5.38933 28.8144 5.2191 27.8571 5.2191C23.4931 5.2191 19.9553 8.75686 19.9553 13.1209C19.9553 13.4264 19.9727 13.7279 20.0064 14.0245C20.099 14.8376 20.315 15.6133 20.6352 16.3324C19.822 16.4246 19.0462 16.6403 18.327 16.9603C15.5619 18.1904 13.6339 20.9618 13.6339 24.1834C13.6339 27.171 15.2919 29.7713 17.7379 31.1144C18.4521 31.5066 19.2335 31.7916 20.0604 31.9477C19.5536 32.5926 19.1449 33.3184 18.857 34.1024ZM40.5 45.5235L42.3952 48.046C43.4084 49.3945 45.0136 50.2593 46.8214 50.2593C49.8763 50.2593 52.3527 47.7829 52.3527 44.7281V42.3575H54.7232C57.778 42.3575 60.2545 39.8811 60.2545 36.8263C60.2545 35.5351 59.815 34.3531 59.0758 33.4125L56.6634 30.3429L60.4997 29.6184C63.0596 29.1349 64.9956 26.8827 64.9956 24.1834C64.9956 21.3434 62.8531 19.0004 60.0976 18.6878L56.8832 18.3232L58.1993 15.368C58.5037 14.6844 58.6741 13.9257 58.6741 13.1209C58.6741 10.0661 56.1977 7.58964 53.1429 7.58964C51.8516 7.58964 50.6697 8.02915 49.7291 8.76837L46.6594 11.1807L45.9349 7.34442C45.4515 4.78449 43.1993 2.84857 40.5 2.84857C37.8007 2.84857 35.5485 4.78448 35.065 7.34442L34.3405 11.1807L31.2709 8.76836C30.3303 8.02915 29.1483 7.58964 27.8571 7.58964C24.8023 7.58964 22.3259 10.0661 22.3259 13.1209C22.3259 13.9257 22.4963 14.6844 22.8007 15.368L24.1168 18.3232L20.9024 18.6878C18.1469 19.0004 16.0044 21.3434 16.0044 24.1834C16.0044 26.8827 17.9403 29.1349 20.5003 29.6184L24.3366 30.3429L21.9242 33.4125C21.185 34.3531 20.7455 35.5351 20.7455 36.8263C20.7455 39.8811 23.2219 42.3575 26.2768 42.3575H28.6473V44.7281C28.6473 47.7829 31.1237 50.2593 34.1786 50.2593C35.9864 50.2593 37.5916 49.3945 38.6048 48.046L40.5 45.5235Z" fill="url(#paint2_radial)"/>
<path d="M53.1429 73.9647V70.804H49.9821V73.9647H53.1429Z" fill="url(#paint3_radial)"/>
<path d="M31.0178 73.9647V70.804H27.8571V73.9647H31.0178Z" fill="url(#paint4_radial)"/>
<path d="M10.5503 27.7516H7.38962V30.9123H10.5503V27.7516Z" fill="url(#paint5_radial)"/>
<path d="M7.38962 32.8137H10.5503V35.9744H7.38962V32.8137Z" fill="url(#paint6_radial)"/>
<path d="M7.38962 38.3607H10.5503V41.5214H7.38962V38.3607Z" fill="url(#paint7_radial)"/>
<path d="M10.5503 57.3559V60.5166H7.38962V57.3559H10.5503Z" fill="url(#paint8_radial)"/>
<path d="M10.5503 70.1323V62.9022H7.38962V70.1323H10.5503Z" fill="url(#paint9_radial)"/>
<path fill-rule="evenodd" clip-rule="evenodd" d="M8.96998 54.9703C12.0248 54.9703 14.5012 52.4939 14.5012 49.4391C14.5012 46.3842 12.0248 43.9078 8.96998 43.9078C5.91515 43.9078 3.43872 46.3842 3.43872 49.4391C3.43872 52.4939 5.91515 54.9703 8.96998 54.9703ZM8.96998 52.5998C10.7156 52.5998 12.1307 51.1847 12.1307 49.4391C12.1307 47.6934 10.7156 46.2783 8.96998 46.2783C7.22436 46.2783 5.80926 47.6934 5.80926 49.4391C5.80926 51.1847 7.22436 52.5998 8.96998 52.5998Z" fill="url(#paint10_radial)"/>
<path d="M70.4496 27.7516H73.6104V30.9123H70.4496V27.7516Z" fill="url(#paint11_radial)"/>
<path d="M73.6104 32.8137H70.4496V35.9744H73.6104V32.8137Z" fill="url(#paint12_radial)"/>
<path d="M73.6104 38.3607H70.4496V41.5214H73.6104V38.3607Z" fill="url(#paint13_radial)"/>
<path d="M73.6104 60.5166V57.3559H70.4496V60.5166H73.6104Z" fill="url(#paint14_radial)"/>
<path d="M73.6104 62.9022V70.1323H70.4496V62.9022H73.6104Z" fill="url(#paint15_radial)"/>
<path fill-rule="evenodd" clip-rule="evenodd" d="M77.5613 49.4391C77.5613 52.4939 75.0848 54.9703 72.03 54.9703C68.9752 54.9703 66.4987 52.4939 66.4987 49.4391C66.4987 46.3842 68.9752 43.9078 72.03 43.9078C75.0848 43.9078 77.5613 46.3842 77.5613 49.4391ZM75.1907 49.4391C75.1907 51.1847 73.7756 52.5998 72.03 52.5998C70.2844 52.5998 68.8693 51.1847 68.8693 49.4391C68.8693 47.6934 70.2844 46.2783 72.03 46.2783C73.7756 46.2783 75.1907 47.6934 75.1907 49.4391Z" fill="url(#paint16_radial)"/>
<defs>
<radialGradient id="paint0_radial" cx="0" cy="0" r="1" gradientUnits="userSpaceOnUse" gradientTransform="translate(40.6604 79.6618) rotate(-90) scale(79.1838 134.197)">
<stop stop-color="#D6DAE8" stop-opacity="0.93"/>
<stop offset="1" stop-color="#F7F8FC"/>
</radialGradient>
<radialGradient id="paint1_radial" cx="0" cy="0" r="1" gradientUnits="userSpaceOnUse" gradientTransform="translate(40.6604 79.6618) rotate(-90) scale(79.1838 134.197)">
<stop stop-color="#D6DAE8" stop-opacity="0.93"/>
<stop offset="1" stop-color="#F7F8FC"/>
</radialGradient>
<radialGradient id="paint2_radial" cx="0" cy="0" r="1" gradientUnits="userSpaceOnUse" gradientTransform="translate(40.6604 79.6618) rotate(-90) scale(79.1838 134.197)">
<stop stop-color="#D6DAE8" stop-opacity="0.93"/>
<stop offset="1" stop-color="#F7F8FC"/>
</radialGradient>
<radialGradient id="paint3_radial" cx="0" cy="0" r="1" gradientUnits="userSpaceOnUse" gradientTransform="translate(40.6604 79.6618) rotate(-90) scale(79.1838 134.197)">
<stop stop-color="#D6DAE8" stop-opacity="0.93"/>
<stop offset="1" stop-color="#F7F8FC"/>
</radialGradient>
<radialGradient id="paint4_radial" cx="0" cy="0" r="1" gradientUnits="userSpaceOnUse" gradientTransform="translate(40.6604 79.6618) rotate(-90) scale(79.1838 134.197)">
<stop stop-color="#D6DAE8" stop-opacity="0.93"/>
<stop offset="1" stop-color="#F7F8FC"/>
</radialGradient>
<radialGradient id="paint5_radial" cx="0" cy="0" r="1" gradientUnits="userSpaceOnUse" gradientTransform="translate(40.6604 79.6618) rotate(-90) scale(79.1838 134.197)">
<stop stop-color="#D6DAE8" stop-opacity="0.93"/>
<stop offset="1" stop-color="#F7F8FC"/>
</radialGradient>
<radialGradient id="paint6_radial" cx="0" cy="0" r="1" gradientUnits="userSpaceOnUse" gradientTransform="translate(40.6604 79.6618) rotate(-90) scale(79.1838 134.197)">
<stop stop-color="#D6DAE8" stop-opacity="0.93"/>
<stop offset="1" stop-color="#F7F8FC"/>
</radialGradient>
<radialGradient id="paint7_radial" cx="0" cy="0" r="1" gradientUnits="userSpaceOnUse" gradientTransform="translate(40.6604 79.6618) rotate(-90) scale(79.1838 134.197)">
<stop stop-color="#D6DAE8" stop-opacity="0.93"/>
<stop offset="1" stop-color="#F7F8FC"/>
</radialGradient>
<radialGradient id="paint8_radial" cx="0" cy="0" r="1" gradientUnits="userSpaceOnUse" gradientTransform="translate(40.6604 79.6618) rotate(-90) scale(79.1838 134.197)">
<stop stop-color="#D6DAE8" stop-opacity="0.93"/>
<stop offset="1" stop-color="#F7F8FC"/>
</radialGradient>
<radialGradient id="paint9_radial" cx="0" cy="0" r="1" gradientUnits="userSpaceOnUse" gradientTransform="translate(40.6604 79.6618) rotate(-90) scale(79.1838 134.197)">
<stop stop-color="#D6DAE8" stop-opacity="0.93"/>
<stop offset="1" stop-color="#F7F8FC"/>
</radialGradient>
<radialGradient id="paint10_radial" cx="0" cy="0" r="1" gradientUnits="userSpaceOnUse" gradientTransform="translate(40.6604 79.6618) rotate(-90) scale(79.1838 134.197)">
<stop stop-color="#D6DAE8" stop-opacity="0.93"/>
<stop offset="1" stop-color="#F7F8FC"/>
</radialGradient>
<radialGradient id="paint11_radial" cx="0" cy="0" r="1" gradientUnits="userSpaceOnUse" gradientTransform="translate(40.6604 79.6618) rotate(-90) scale(79.1838 134.197)">
<stop stop-color="#D6DAE8" stop-opacity="0.93"/>
<stop offset="1" stop-color="#F7F8FC"/>
</radialGradient>
<radialGradient id="paint12_radial" cx="0" cy="0" r="1" gradientUnits="userSpaceOnUse" gradientTransform="translate(40.6604 79.6618) rotate(-90) scale(79.1838 134.197)">
<stop stop-color="#D6DAE8" stop-opacity="0.93"/>
<stop offset="1" stop-color="#F7F8FC"/>
</radialGradient>
<radialGradient id="paint13_radial" cx="0" cy="0" r="1" gradientUnits="userSpaceOnUse" gradientTransform="translate(40.6604 79.6618) rotate(-90) scale(79.1838 134.197)">
<stop stop-color="#D6DAE8" stop-opacity="0.93"/>
<stop offset="1" stop-color="#F7F8FC"/>
</radialGradient>
<radialGradient id="paint14_radial" cx="0" cy="0" r="1" gradientUnits="userSpaceOnUse" gradientTransform="translate(40.6604 79.6618) rotate(-90) scale(79.1838 134.197)">
<stop stop-color="#D6DAE8" stop-opacity="0.93"/>
<stop offset="1" stop-color="#F7F8FC"/>
</radialGradient>
<radialGradient id="paint15_radial" cx="0" cy="0" r="1" gradientUnits="userSpaceOnUse" gradientTransform="translate(40.6604 79.6618) rotate(-90) scale(79.1838 134.197)">
<stop stop-color="#D6DAE8" stop-opacity="0.93"/>
<stop offset="1" stop-color="#F7F8FC"/>
</radialGradient>
<radialGradient id="paint16_radial" cx="0" cy="0" r="1" gradientUnits="userSpaceOnUse" gradientTransform="translate(40.6604 79.6618) rotate(-90) scale(79.1838 134.197)">
<stop stop-color="#D6DAE8" stop-opacity="0.93"/>
<stop offset="1" stop-color="#F7F8FC"/>
</radialGradient>
</defs>
</svg>
