<svg width="38" height="38" viewBox="0 0 38 38" fill="none" xmlns="http://www.w3.org/2000/svg">
<g filter="url(#filter0_di)">
<path d="M10.2866 21.363H27.6115L23.3822 14.7388C23.3822 14.7388 21.9846 14.3312 21.0892 14.3312C20.1639 14.3312 19.4418 14.535 18.7197 14.7388C17.9977 14.9427 17.2756 15.1465 16.3503 15.1465C15.6339 15.1465 14.5159 14.7388 14.5159 14.7388L10.2866 21.363Z" fill="#007AFF"/>
<path fill-rule="evenodd" clip-rule="evenodd" d="M7.16786 22.4606L10.5079 17.2328L7.07521 18.6196C7.15714 19.4118 6.71256 20.195 5.93716 20.5083C4.99782 20.8878 3.92868 20.434 3.54916 19.4947C3.16964 18.5553 3.62346 17.4862 4.5628 17.1067C5.33821 16.7934 6.20207 17.048 6.69345 17.6747L11.4544 15.7512L12.8825 13.5159H6.5971C6.37629 14.2811 5.67069 14.8407 4.83439 14.8407C3.82128 14.8407 3 14.0195 3 13.0064C3 11.9932 3.82128 11.172 4.83439 11.172C5.67069 11.172 6.37629 11.7316 6.5971 12.4968H13.5336L14.7175 10.6437L10.3121 8.68233C9.79917 9.29157 8.92694 9.51583 8.16295 9.17567C7.23742 8.7636 6.82119 7.67928 7.23326 6.75376C7.64533 5.82823 8.72965 5.412 9.65518 5.82407C10.4192 6.16422 10.8361 6.96247 10.7266 7.75133L15.2724 9.77523L15.9427 8.7261V5.66877H14.9236C14.4733 5.66877 14.1083 5.30376 14.1083 4.85349V3.42674C14.1083 2.97647 14.4733 2.61145 14.9236 2.61145H22.9745C23.4248 2.61145 23.7898 2.97647 23.7898 3.42674V4.85349C23.7898 5.30376 23.4248 5.66877 22.9745 5.66877H21.9554V8.7261L22.6257 9.77523L27.1715 7.75131C27.0619 6.96246 27.4789 6.16421 28.2429 5.82406C29.1684 5.41199 30.2528 5.82822 30.6648 6.75374C31.0769 7.67927 30.6607 8.76359 29.7351 9.17566C28.9711 9.51582 28.0989 9.29155 27.586 8.68232L23.1806 10.6437L24.3645 12.4968H31.301C31.5218 11.7316 32.2274 11.172 33.0637 11.172C34.0768 11.172 34.8981 11.9932 34.8981 13.0064C34.8981 14.0195 34.0768 14.8407 33.0637 14.8407C32.2274 14.8407 31.5218 14.2811 31.301 13.5159H25.0156L26.4436 15.7512L31.2046 17.6747C31.696 17.048 32.5599 16.7934 33.3353 17.1067C34.2746 17.4862 34.7284 18.5553 34.3489 19.4947C33.9694 20.434 32.9003 20.8878 31.9609 20.5083C31.1855 20.195 30.741 19.4118 30.8229 18.6196L27.3902 17.2328L30.7302 22.4606C30.9903 22.8676 30.6979 23.4013 30.2149 23.4013H22.8256L24.4427 27.2109C25.2334 27.1152 26.0242 27.546 26.351 28.3158C26.7469 29.2484 26.3118 30.3253 25.3792 30.7212C24.4466 31.117 23.3697 30.6819 22.9739 29.7493C22.6471 28.9795 22.8865 28.1113 23.5046 27.6091L21.7185 23.4013H19.4076V29.7914C20.1728 30.0122 20.7325 30.7178 20.7325 31.5541C20.7325 32.5672 19.9112 33.3885 18.8981 33.3885C17.885 33.3885 17.0637 32.5672 17.0637 31.5541C17.0637 30.7178 17.6233 30.0122 18.3885 29.7914V23.4013H16.0861L14.2999 27.6091C14.918 28.1113 15.1575 28.9795 14.8307 29.7493C14.4349 30.6819 13.358 31.117 12.4254 30.7212C11.4928 30.3253 11.0577 29.2484 11.4536 28.3158C11.7803 27.546 12.5712 27.1152 13.3618 27.2109L14.9789 23.4013H7.68314C7.20014 23.4013 6.90782 22.8676 7.16786 22.4606ZM20.9363 4.64967V9.02386L29.4708 22.3821H8.42731L16.9618 9.02386V4.64967H15.1274V3.63056H22.7707V4.64967H20.9363ZM28.2134 7.8452L28.1809 7.61117C28.1321 7.25995 28.3192 6.90564 28.6574 6.75506C29.0688 6.57192 29.5507 6.75691 29.7338 7.16825C29.917 7.5796 29.732 8.06152 29.3206 8.24466C28.9824 8.39524 28.5939 8.29719 28.3656 8.02594L28.2134 7.8452ZM9.7172 7.61118L9.68471 7.84521L9.53253 8.02595C9.30415 8.2972 8.91566 8.39525 8.57746 8.24467C8.16611 8.06153 7.98112 7.57961 8.16426 7.16826C8.3474 6.75692 8.82932 6.57193 9.24067 6.75507C9.57887 6.90565 9.76596 7.25996 9.7172 7.61118ZM13.4739 28.251L13.6573 28.4C13.9325 28.6236 14.0373 29.0104 13.8926 29.3511C13.7167 29.7656 13.2381 29.959 12.8236 29.7831C12.4091 29.6071 12.2157 29.1285 12.3917 28.714C12.5363 28.3732 12.8873 28.18 13.2393 28.2226L13.4739 28.251ZM24.1473 28.4L24.3307 28.251L24.5653 28.2226C24.9173 28.18 25.2683 28.3732 25.4129 28.714C25.5888 29.1285 25.3955 29.6071 24.981 29.7831C24.5665 29.959 24.0879 29.7656 23.912 29.3511C23.7673 29.0104 23.8721 28.6236 24.1473 28.4ZM31.8609 18.4894L32.0067 18.3035C32.2254 18.0245 32.6103 17.9129 32.9535 18.0516C33.371 18.2203 33.5727 18.6954 33.404 19.1129C33.2354 19.5304 32.7602 19.7321 32.3427 19.5634C31.9994 19.4247 31.8001 19.0772 31.8366 18.7245L31.8609 18.4894ZM5.89143 18.3035L6.0372 18.4895L6.06151 18.7245C6.09798 19.0772 5.89864 19.4247 5.55539 19.5634C5.13791 19.7321 4.66274 19.5304 4.49406 19.1129C4.32538 18.6954 4.52708 18.2203 4.94457 18.0516C5.28782 17.9129 5.67266 18.0245 5.89143 18.3035Z" fill="#007AFF"/>
</g>
<defs>
<filter id="filter0_di" x="0" y="0" width="38" height="38" filterUnits="userSpaceOnUse" color-interpolation-filters="sRGB">
<feFlood flood-opacity="0" result="BackgroundImageFix"/>
<feColorMatrix in="SourceAlpha" type="matrix" values="0 0 0 0 0 0 0 0 0 0 0 0 0 0 0 0 0 0 127 0"/>
<feOffset dy="1"/>
<feGaussianBlur stdDeviation="1.5"/>
<feColorMatrix type="matrix" values="0 0 0 0 1 0 0 0 0 1 0 0 0 0 1 0 0 0 1 0"/>
<feBlend mode="normal" in2="BackgroundImageFix" result="effect1_dropShadow"/>
<feBlend mode="normal" in="SourceGraphic" in2="effect1_dropShadow" result="shape"/>
<feColorMatrix in="SourceAlpha" type="matrix" values="0 0 0 0 0 0 0 0 0 0 0 0 0 0 0 0 0 0 127 0" result="hardAlpha"/>
<feOffset dy="0.5"/>
<feGaussianBlur stdDeviation="0.5"/>
<feComposite in2="hardAlpha" operator="arithmetic" k2="-1" k3="1"/>
<feColorMatrix type="matrix" values="0 0 0 0 0.0392224 0 0 0 0 0.339377 0 0 0 0 0.666594 0 0 0 1 0"/>
<feBlend mode="normal" in2="shape" result="effect2_innerShadow"/>
</filter>
</defs>
</svg>
