<svg width="80" height="80" viewBox="0 0 80 80" fill="none" xmlns="http://www.w3.org/2000/svg">
<path d="M46.444 16.0157C46.2698 15.5175 45.9983 15.059 45.6453 14.6667C47.1162 13.0322 46.9835 10.5148 45.349 9.044C44.9567 8.691 44.4982 8.4195 44 8.24533V5.33333H41.3333V8H38.6667V5.33333H36V8H34.6667C33.9303 8 33.3333 8.597 33.3333 9.33333V20C33.3333 20.7363 33.9303 21.3333 34.6667 21.3333H36V24H38.6667V21.3333H41.3333V24H44V21.088C46.0756 20.3622 47.1698 18.0912 46.444 16.0157ZM42.6667 18.6667H36V16H42.6667C43.403 16 44 16.597 44 17.3333C44 18.0697 43.403 18.6667 42.6667 18.6667ZM42.6667 13.3333H36V10.6667H42.6667C43.403 10.6667 44 11.2637 44 12C44 12.7363 43.403 13.3333 42.6667 13.3333Z" fill="url(#paint0_radial)"/>
<path d="M40 0C31.9038 0.0095 25.3428 6.5705 25.3333 14.6667C25.3333 22.7668 31.8998 29.3333 40 29.3333C48.1002 29.3333 54.6667 22.7668 54.6667 14.6667C54.6667 6.5665 48.1002 0 40 0ZM40 26.6667C33.3727 26.6667 28 21.294 28 14.6667C28 8.03917 33.3727 2.66667 40 2.66667C46.6243 2.674 51.9927 8.04233 52 14.6667C52 21.294 46.6275 26.6667 40 26.6667Z" fill="url(#paint1_radial)"/>
<path d="M65.3333 20C57.2332 20 50.6667 26.5665 50.6667 34.6667C50.6667 42.7668 57.2332 49.3333 65.3333 49.3333C73.4335 49.3333 80 42.7668 80 34.6667C79.9905 26.5705 73.4295 20.0095 65.3333 20ZM65.3333 46.6667C58.706 46.6667 53.3333 41.294 53.3333 34.6667C53.3333 28.0392 58.706 22.6667 65.3333 22.6667C71.9608 22.6667 77.3333 28.0392 77.3333 34.6667C77.326 41.291 71.9577 46.6593 65.3333 46.6667Z" fill="url(#paint2_radial)"/>
<path d="M72.6621 35.7053C72.0179 34.2598 70.5824 33.3299 68.9999 33.3333C68.7407 33.3346 68.4822 33.3604 68.2279 33.4106C69.7514 31.8108 69.6896 29.2789 68.0897 27.7554C66.4899 26.2319 63.9581 26.2938 62.4346 27.8936C60.9634 29.4384 60.9634 31.8658 62.4346 33.4106C62.1952 33.3624 61.9521 33.3366 61.7079 33.3333C59.4987 33.3294 57.7047 35.1171 57.7009 37.3263C57.6971 39.5354 59.4847 41.3294 61.6939 41.3333C63.2759 41.3361 64.7107 40.4063 65.3546 38.9613C66.2537 40.9791 68.6184 41.8861 70.6362 40.9869C72.6542 40.0878 73.5611 37.7231 72.6621 35.7053ZM61.7079 38.6666C60.9716 38.6666 60.3746 38.0696 60.3746 37.3333C60.3746 36.5969 60.9716 35.9999 61.7079 35.9999C62.4442 35.9999 63.0412 36.5969 63.0412 37.3333C63.0412 38.0696 62.4442 38.6666 61.7079 38.6666ZM65.3546 35.7053C65.1696 35.2954 64.9172 34.9196 64.6079 34.5933C64.8469 34.6401 65.0897 34.6646 65.3332 34.6666C65.5924 34.6653 65.8509 34.6394 66.1052 34.5893C65.7934 34.9159 65.5396 35.2933 65.3546 35.7053ZM65.3332 31.9999C64.5969 31.9999 63.9999 31.4029 63.9999 30.6666C63.9999 29.9303 64.5969 29.3333 65.3332 29.3333C66.0696 29.3333 66.6666 29.9303 66.6666 30.6666C66.6666 31.4029 66.0696 31.9999 65.3332 31.9999ZM68.9999 38.6666C68.2636 38.6666 67.6666 38.0696 67.6666 37.3333C67.6666 36.5969 68.2636 35.9999 68.9999 35.9999C69.7362 35.9999 70.3332 36.5969 70.3332 37.3333C70.3332 38.0696 69.7362 38.6666 68.9999 38.6666Z" fill="url(#paint3_radial)"/>
<path d="M21.3333 50.6667C13.2332 50.6667 6.66667 57.2332 6.66667 65.3333C6.66667 73.4335 13.2332 80 21.3333 80C29.4335 80 36 73.4335 36 65.3333C35.9905 57.2372 29.4295 50.6762 21.3333 50.6667ZM21.3333 77.3333C14.7058 77.3333 9.33333 71.9607 9.33333 65.3333C9.33333 58.7058 14.7058 53.3333 21.3333 53.3333C27.9608 53.3333 33.3333 58.7058 33.3333 65.3333C33.326 71.9577 27.9577 77.326 21.3333 77.3333Z" fill="url(#paint4_radial)"/>
<path d="M18.0518 68.0001L19.2371 65.3334H23.9998V62.6667H20.4225L22.5558 57.8747L20.1185 56.7921L17.5038 62.6667H14.6664V65.3334H16.3184L14.7811 68.7921C14.4821 69.4651 14.7853 70.2529 15.4583 70.5519C15.6288 70.6276 15.8133 70.6667 15.9998 70.6667H26.6665V68.0001H18.0518Z" fill="url(#paint5_radial)"/>
<path d="M58.6667 50.6667C50.5665 50.6667 44 57.2332 44 65.3333C44 73.4335 50.5665 80 58.6667 80C66.7668 80 73.3333 73.4335 73.3333 65.3333C73.3238 57.2372 66.7628 50.6762 58.6667 50.6667ZM58.6667 77.3333C52.0393 77.3333 46.6667 71.9607 46.6667 65.3333C46.6667 58.7058 52.0393 53.3333 58.6667 53.3333C65.2942 53.3333 70.6667 58.7058 70.6667 65.3333C70.6593 71.9577 65.291 77.326 58.6667 77.3333Z" fill="url(#paint6_radial)"/>
<path d="M14.6667 20C6.5665 20 0 26.5665 0 34.6667C0.0095 42.7628 6.5705 49.3238 14.6667 49.3333C22.7668 49.3333 29.3333 42.7668 29.3333 34.6667C29.3333 26.5665 22.7668 20 14.6667 20ZM14.6667 46.6667C8.03917 46.6667 2.66667 41.294 2.66667 34.6667C2.674 28.0423 8.04233 22.674 14.6667 22.6667C21.2942 22.6667 26.6667 28.0392 26.6667 34.6667C26.6667 41.294 21.2942 46.6667 14.6667 46.6667Z" fill="url(#paint7_radial)"/>
<path d="M19.6852 28.0972C19.428 28.0327 19.1638 28 18.8987 28H9.33333V30.6667H18.8987C19.0738 30.6658 19.2395 30.7467 19.3467 30.8853C19.4557 31.0223 19.4937 31.2027 19.4493 31.372L17.7333 38.236C17.6698 38.4892 17.4423 38.6665 17.1813 38.6667H8V41.3333H17.1827C18.6675 41.3348 19.962 40.3237 20.32 38.8827L22.0347 32.02C22.4692 30.288 21.4172 28.5317 19.6852 28.0972Z" fill="url(#paint8_radial)"/>
<path d="M13.3333 33.3333H6.66667V36H13.3333V33.3333Z" fill="url(#paint9_radial)"/>
<path d="M65.3333 66.6666V59.9999C65.3333 59.2636 64.7363 58.6666 64 58.6666C63.7115 58.6666 63.4308 58.7601 63.2 58.9332L58.6667 62.3332L54.1333 58.9332C53.5442 58.4914 52.7085 58.6107 52.2667 59.1999C52.0935 59.4307 52 59.7114 52 59.9999V66.6666H49.3333V69.3332H53.3333C54.0697 69.3332 54.6667 68.7362 54.6667 67.9999V62.6666L57.8667 65.0666C58.3407 65.4221 58.9927 65.4221 59.4667 65.0666L62.6667 62.6666V67.9999C62.6667 68.7362 63.2637 69.3332 64 69.3332H68V66.6666H65.3333Z" fill="url(#paint10_radial)"/>
<path d="M14.6667 8H12V10.6667H14.6667V8Z" fill="url(#paint11_radial)"/>
<path d="M22.6667 6.66667H20V9.33333H22.6667V6.66667Z" fill="url(#paint12_radial)"/>
<path d="M12 14.6667H9.33333V17.3333H12V14.6667Z" fill="url(#paint13_radial)"/>
<path d="M2.66667 54.6667H0V57.3333H2.66667V54.6667Z" fill="url(#paint14_radial)"/>
<path d="M5.33333 48H2.66667V50.6667H5.33333V48Z" fill="url(#paint15_radial)"/>
<path d="M4 61.3333H1.33333V64H4V61.3333Z" fill="url(#paint16_radial)"/>
<path d="M41.3333 77.3333H38.6667V80H41.3333V77.3333Z" fill="url(#paint17_radial)"/>
<path d="M37.3333 74.6667H34.6667V77.3333H37.3333V74.6667Z" fill="url(#paint18_radial)"/>
<path d="M45.3333 74.6667H42.6667V77.3333H45.3333V74.6667Z" fill="url(#paint19_radial)"/>
<path d="M69.3333 6.66667H66.6667V9.33333H69.3333V6.66667Z" fill="url(#paint20_radial)"/>
<path d="M72 14.6667H69.3333V17.3333H72V14.6667Z" fill="url(#paint21_radial)"/>
<path d="M60 5.33333H57.3333V8H60V5.33333Z" fill="url(#paint22_radial)"/>
<path d="M77.3333 48H74.6667V50.6667H77.3333V48Z" fill="url(#paint23_radial)"/>
<path d="M77.3333 60H74.6667V62.6667H77.3333V60Z" fill="url(#paint24_radial)"/>
<path d="M80 53.3333H77.3333V56H80V53.3333Z" fill="url(#paint25_radial)"/>
<defs>
<radialGradient id="paint0_radial" cx="0" cy="0" r="1" gradientUnits="userSpaceOnUse" gradientTransform="translate(40.1732 80) rotate(-90) scale(80 144.838)">
<stop stop-color="#D6DAE8" stop-opacity="0.93"/>
<stop offset="1" stop-color="#F7F8FC"/>
</radialGradient>
<radialGradient id="paint1_radial" cx="0" cy="0" r="1" gradientUnits="userSpaceOnUse" gradientTransform="translate(40.1732 80) rotate(-90) scale(80 144.838)">
<stop stop-color="#D6DAE8" stop-opacity="0.93"/>
<stop offset="1" stop-color="#F7F8FC"/>
</radialGradient>
<radialGradient id="paint2_radial" cx="0" cy="0" r="1" gradientUnits="userSpaceOnUse" gradientTransform="translate(40.1732 80) rotate(-90) scale(80 144.838)">
<stop stop-color="#D6DAE8" stop-opacity="0.93"/>
<stop offset="1" stop-color="#F7F8FC"/>
</radialGradient>
<radialGradient id="paint3_radial" cx="0" cy="0" r="1" gradientUnits="userSpaceOnUse" gradientTransform="translate(40.1732 80) rotate(-90) scale(80 144.838)">
<stop stop-color="#D6DAE8" stop-opacity="0.93"/>
<stop offset="1" stop-color="#F7F8FC"/>
</radialGradient>
<radialGradient id="paint4_radial" cx="0" cy="0" r="1" gradientUnits="userSpaceOnUse" gradientTransform="translate(40.1732 80) rotate(-90) scale(80 144.838)">
<stop stop-color="#D6DAE8" stop-opacity="0.93"/>
<stop offset="1" stop-color="#F7F8FC"/>
</radialGradient>
<radialGradient id="paint5_radial" cx="0" cy="0" r="1" gradientUnits="userSpaceOnUse" gradientTransform="translate(40.1732 80) rotate(-90) scale(80 144.838)">
<stop stop-color="#D6DAE8" stop-opacity="0.93"/>
<stop offset="1" stop-color="#F7F8FC"/>
</radialGradient>
<radialGradient id="paint6_radial" cx="0" cy="0" r="1" gradientUnits="userSpaceOnUse" gradientTransform="translate(40.1732 80) rotate(-90) scale(80 144.838)">
<stop stop-color="#D6DAE8" stop-opacity="0.93"/>
<stop offset="1" stop-color="#F7F8FC"/>
</radialGradient>
<radialGradient id="paint7_radial" cx="0" cy="0" r="1" gradientUnits="userSpaceOnUse" gradientTransform="translate(40.1732 80) rotate(-90) scale(80 144.838)">
<stop stop-color="#D6DAE8" stop-opacity="0.93"/>
<stop offset="1" stop-color="#F7F8FC"/>
</radialGradient>
<radialGradient id="paint8_radial" cx="0" cy="0" r="1" gradientUnits="userSpaceOnUse" gradientTransform="translate(40.1732 80) rotate(-90) scale(80 144.838)">
<stop stop-color="#D6DAE8" stop-opacity="0.93"/>
<stop offset="1" stop-color="#F7F8FC"/>
</radialGradient>
<radialGradient id="paint9_radial" cx="0" cy="0" r="1" gradientUnits="userSpaceOnUse" gradientTransform="translate(40.1732 80) rotate(-90) scale(80 144.838)">
<stop stop-color="#D6DAE8" stop-opacity="0.93"/>
<stop offset="1" stop-color="#F7F8FC"/>
</radialGradient>
<radialGradient id="paint10_radial" cx="0" cy="0" r="1" gradientUnits="userSpaceOnUse" gradientTransform="translate(40.1732 80) rotate(-90) scale(80 144.838)">
<stop stop-color="#D6DAE8" stop-opacity="0.93"/>
<stop offset="1" stop-color="#F7F8FC"/>
</radialGradient>
<radialGradient id="paint11_radial" cx="0" cy="0" r="1" gradientUnits="userSpaceOnUse" gradientTransform="translate(40.1732 80) rotate(-90) scale(80 144.838)">
<stop stop-color="#D6DAE8" stop-opacity="0.93"/>
<stop offset="1" stop-color="#F7F8FC"/>
</radialGradient>
<radialGradient id="paint12_radial" cx="0" cy="0" r="1" gradientUnits="userSpaceOnUse" gradientTransform="translate(40.1732 80) rotate(-90) scale(80 144.838)">
<stop stop-color="#D6DAE8" stop-opacity="0.93"/>
<stop offset="1" stop-color="#F7F8FC"/>
</radialGradient>
<radialGradient id="paint13_radial" cx="0" cy="0" r="1" gradientUnits="userSpaceOnUse" gradientTransform="translate(40.1732 80) rotate(-90) scale(80 144.838)">
<stop stop-color="#D6DAE8" stop-opacity="0.93"/>
<stop offset="1" stop-color="#F7F8FC"/>
</radialGradient>
<radialGradient id="paint14_radial" cx="0" cy="0" r="1" gradientUnits="userSpaceOnUse" gradientTransform="translate(40.1732 80) rotate(-90) scale(80 144.838)">
<stop stop-color="#D6DAE8" stop-opacity="0.93"/>
<stop offset="1" stop-color="#F7F8FC"/>
</radialGradient>
<radialGradient id="paint15_radial" cx="0" cy="0" r="1" gradientUnits="userSpaceOnUse" gradientTransform="translate(40.1732 80) rotate(-90) scale(80 144.838)">
<stop stop-color="#D6DAE8" stop-opacity="0.93"/>
<stop offset="1" stop-color="#F7F8FC"/>
</radialGradient>
<radialGradient id="paint16_radial" cx="0" cy="0" r="1" gradientUnits="userSpaceOnUse" gradientTransform="translate(40.1732 80) rotate(-90) scale(80 144.838)">
<stop stop-color="#D6DAE8" stop-opacity="0.93"/>
<stop offset="1" stop-color="#F7F8FC"/>
</radialGradient>
<radialGradient id="paint17_radial" cx="0" cy="0" r="1" gradientUnits="userSpaceOnUse" gradientTransform="translate(40.1732 80) rotate(-90) scale(80 144.838)">
<stop stop-color="#D6DAE8" stop-opacity="0.93"/>
<stop offset="1" stop-color="#F7F8FC"/>
</radialGradient>
<radialGradient id="paint18_radial" cx="0" cy="0" r="1" gradientUnits="userSpaceOnUse" gradientTransform="translate(40.1732 80) rotate(-90) scale(80 144.838)">
<stop stop-color="#D6DAE8" stop-opacity="0.93"/>
<stop offset="1" stop-color="#F7F8FC"/>
</radialGradient>
<radialGradient id="paint19_radial" cx="0" cy="0" r="1" gradientUnits="userSpaceOnUse" gradientTransform="translate(40.1732 80) rotate(-90) scale(80 144.838)">
<stop stop-color="#D6DAE8" stop-opacity="0.93"/>
<stop offset="1" stop-color="#F7F8FC"/>
</radialGradient>
<radialGradient id="paint20_radial" cx="0" cy="0" r="1" gradientUnits="userSpaceOnUse" gradientTransform="translate(40.1732 80) rotate(-90) scale(80 144.838)">
<stop stop-color="#D6DAE8" stop-opacity="0.93"/>
<stop offset="1" stop-color="#F7F8FC"/>
</radialGradient>
<radialGradient id="paint21_radial" cx="0" cy="0" r="1" gradientUnits="userSpaceOnUse" gradientTransform="translate(40.1732 80) rotate(-90) scale(80 144.838)">
<stop stop-color="#D6DAE8" stop-opacity="0.93"/>
<stop offset="1" stop-color="#F7F8FC"/>
</radialGradient>
<radialGradient id="paint22_radial" cx="0" cy="0" r="1" gradientUnits="userSpaceOnUse" gradientTransform="translate(40.1732 80) rotate(-90) scale(80 144.838)">
<stop stop-color="#D6DAE8" stop-opacity="0.93"/>
<stop offset="1" stop-color="#F7F8FC"/>
</radialGradient>
<radialGradient id="paint23_radial" cx="0" cy="0" r="1" gradientUnits="userSpaceOnUse" gradientTransform="translate(40.1732 80) rotate(-90) scale(80 144.838)">
<stop stop-color="#D6DAE8" stop-opacity="0.93"/>
<stop offset="1" stop-color="#F7F8FC"/>
</radialGradient>
<radialGradient id="paint24_radial" cx="0" cy="0" r="1" gradientUnits="userSpaceOnUse" gradientTransform="translate(40.1732 80) rotate(-90) scale(80 144.838)">
<stop stop-color="#D6DAE8" stop-opacity="0.93"/>
<stop offset="1" stop-color="#F7F8FC"/>
</radialGradient>
<radialGradient id="paint25_radial" cx="0" cy="0" r="1" gradientUnits="userSpaceOnUse" gradientTransform="translate(40.1732 80) rotate(-90) scale(80 144.838)">
<stop stop-color="#D6DAE8" stop-opacity="0.93"/>
<stop offset="1" stop-color="#F7F8FC"/>
</radialGradient>
</defs>
</svg>
