<svg width="16" height="16" viewBox="0 0 16 16" fill="none" xmlns="http://www.w3.org/2000/svg">
<g clip-path="url(#clip0)">
<path d="M7.45913 8.41867L8.02018 10.3214C8.60494 10.1373 10.4878 9.74129 10.1695 8.65815C9.83467 7.54622 8.06051 8.26341 7.45913 8.41867Z" fill="#FCA90B"/>
<path d="M6.72159 5.81161L7.22833 7.55371C7.72671 7.41953 9.30052 7.08674 9.00336 6.10661C8.68959 5.09768 7.21997 5.67743 6.72159 5.81161Z" fill="#FCA90B"/>
<path d="M5.81045 0.310416C1.56427 1.53347 -0.865518 5.96912 0.34091 10.1865C1.56396 14.4327 5.97082 16.8791 10.217 15.656C14.4632 14.433 16.9096 10.0261 15.6865 5.77994C14.4801 1.56255 10.0733 -0.883847 5.81045 0.310416ZM10.5005 5.2422C10.7965 5.9543 10.6217 6.51591 10.1699 6.9303C11.0604 6.87685 11.7218 7.22443 11.9248 8.37406C12.2033 9.78728 11.2742 10.4389 9.84555 10.9566L10.2603 12.4063L9.37867 12.6082L8.98059 11.1872C8.74579 11.246 8.511 11.3048 8.29283 11.3924L8.69091 12.8133L7.82594 13.044L7.41123 11.5942C7.20523 11.6364 7.01585 11.7073 6.78106 11.7661L5.6525 12.0722L5.5281 10.9923L6.15828 10.8204C6.39307 10.7616 6.42513 10.5512 6.40405 10.4482L5.74651 8.17889C5.7753 8.16227 5.8041 8.14564 5.84951 8.15781C5.82072 8.17444 5.7753 8.16227 5.74651 8.17889L5.27748 6.56858C5.17774 6.39582 5.00379 6.22752 4.68262 6.33617L4.05244 6.50805L3.78853 5.5855L4.97468 5.24619C5.13526 5.19187 5.34126 5.14971 5.53064 5.07876L5.13256 3.65783L5.99753 3.42717L6.37899 4.81931C6.61378 4.76053 6.83195 4.67296 7.06675 4.61418L6.65649 3.23866L7.52146 3.008L7.91955 4.42894C9.11014 4.16384 10.1126 4.23773 10.5005 5.2422Z" fill="url(#paint0_radial)"/>
</g>
<defs>
<radialGradient id="paint0_radial" cx="0" cy="0" r="1" gradientUnits="userSpaceOnUse" gradientTransform="translate(3.49975 -3.25) rotate(64.6847) scale(20.9053 20.9079)">
<stop stop-color="#FFB600"/>
<stop offset="1" stop-color="#EB8D20"/>
</radialGradient>
<clipPath id="clip0">
<rect width="16" height="16" fill="white" transform="translate(-0.00012207)"/>
</clipPath>
</defs>
</svg>
