<svg width="34" height="34" viewBox="0 0 34 34" fill="none" xmlns="http://www.w3.org/2000/svg">
<path d="M20.9929 2.61518C19.2103 4.39117 18.4451 6.94743 18.959 9.41084L18.7938 9.96212C18.4864 10.9811 17.4111 11.558 16.3921 11.2506C16.1248 11.1699 15.8781 11.0322 15.6694 10.8469L15.1827 10.4158C14.4707 8.58372 13.0447 7.1198 11.232 6.36C7.43107 4.70953 3.0117 6.45285 1.36123 10.2539C-0.289246 14.0549 1.45408 18.4743 5.25514 20.1247C8.03446 21.3316 11.267 20.7482 13.4492 18.646C14.5091 18.5319 15.4608 19.2987 15.5749 20.3586C15.5897 20.4963 15.5896 20.6353 15.5747 20.773C14.0226 22.3815 13.2716 24.6001 13.5273 26.8206C13.7927 29.1154 15.093 31.1628 17.0573 32.3785C19.4644 33.8806 22.5169 33.8806 24.924 32.3785C26.8883 31.1628 28.1886 29.1154 28.454 26.8206C28.718 24.5463 27.9247 22.2765 26.3015 20.6618C25.59 19.9547 24.7415 19.4005 23.8079 19.0335L23.3768 18.5483C22.6702 17.7523 22.7428 16.5342 23.5389 15.8276C23.7477 15.6423 23.9943 15.5045 24.2616 15.4239L24.8128 15.2587C28.8693 16.0935 32.8344 13.4818 33.6692 9.42548C34.0485 7.58236 33.721 5.66404 32.7516 4.05122C31.5473 2.05948 29.4927 0.733561 27.1817 0.456605C24.8963 0.182747 22.6123 0.979349 20.9929 2.61518ZM30.189 5.63297L30.1935 5.63447C31.4618 7.76816 30.7602 10.5261 28.6264 11.7943C27.5766 12.4183 26.318 12.5881 25.1403 12.2649L24.7347 12.1597L23.3978 12.5608C20.7899 13.346 19.3121 16.0967 20.0973 18.7046C20.3037 19.3904 20.657 20.0229 21.1326 20.5583L22.076 21.6188L22.45 21.7465C24.461 22.4056 25.7259 24.3939 25.4708 26.4947C25.3126 27.8819 24.5203 29.1174 23.3257 29.84C21.8941 30.7186 20.0902 30.7186 18.6586 29.84C17.4612 29.1152 16.6686 27.8752 16.5136 26.4842C16.3552 25.1221 16.8328 23.763 17.8084 22.7995L18.22 22.499L18.3702 22.0154C19.1726 19.4161 17.7161 16.6586 15.1168 15.856C14.1663 15.5626 13.1492 15.5638 12.1994 15.8596L11.7277 16.0098L11.4273 16.4214C9.6593 18.1731 6.806 18.1597 5.05432 16.3917C3.30264 14.6237 3.31597 11.7704 5.08399 10.0187C5.26068 9.84374 5.45145 9.68366 5.65452 9.54012C6.94804 8.65733 8.60387 8.4996 10.0408 9.12252C11.2052 9.60471 12.0977 10.5759 12.4802 11.7768L12.6079 12.1508L13.6699 13.0942C15.7057 14.9035 18.8227 14.7199 20.632 12.6841C21.1085 12.1479 21.4623 11.5144 21.6688 10.8274L22.0684 9.49355L21.9632 9.08797C21.3345 6.67986 22.7769 4.21805 25.1849 3.58931C27.1218 3.08347 29.1601 3.91593 30.189 5.63297Z" fill="#CDD3E0"/>
</svg>
