<svg width="16" height="16" viewBox="0 0 16 16" fill="none" xmlns="http://www.w3.org/2000/svg">
<g clip-path="url(#clip0)">
<path d="M7.45913 8.41867L8.02018 10.3214C8.60494 10.1373 10.4878 9.74129 10.1695 8.65815C9.83467 7.54622 8.06051 8.26341 7.45913 8.41867Z" fill="#FCA90B"/>
<path d="M6.72159 5.81161L7.22833 7.55371C7.72671 7.41953 9.30052 7.08674 9.00336 6.10661C8.68959 5.09768 7.21997 5.67743 6.72159 5.81161Z" fill="#FCA90B"/>
<path fill-rule="evenodd" clip-rule="evenodd" d="M0.309076 10.1787C-0.897352 5.96134 1.53243 1.52569 5.77862 0.302639C10.0414 -0.891624 14.4483 1.55478 15.6547 5.77217C16.8778 10.0183 14.4313 14.4252 10.1852 15.6483C5.93898 16.8713 1.53213 14.4249 0.309076 10.1787ZM7.95882 12.9922H7.78154L7.79411 13.0362L7.95882 12.9922Z" fill="url(#paint0_linear)"/>
<path d="M11.9999 12V11.0121H6.9101L7.36392 8.85898L9.59134 8.01334L9.20415 7.09558L7.60748 7.70215L8.34648 4.19363L7.32645 4L6.45369 8.13979L3.99988 9.07138L4.38708 9.98913L6.21013 9.29662L5.64026 12H11.9999Z" fill="#303840"/>
</g>
<defs>
<linearGradient id="paint0_linear" x1="7.98485" y1="0" x2="7.98485" y2="15.9633" gradientUnits="userSpaceOnUse">
<stop stop-color="#E8EBED"/>
<stop offset="1" stop-color="#D8D8D8"/>
</linearGradient>
<clipPath id="clip0">
<rect width="16" height="16" fill="white" transform="translate(-0.00012207)"/>
</clipPath>
</defs>
</svg>
