<svg width="32" height="32" viewBox="0 0 32 32" fill="none" xmlns="http://www.w3.org/2000/svg">
<g clip-path="url(#clip0)" filter="url(#filter0_i)">
<path d="M29.1929 3.05262C28.9939 2.88668 28.6985 2.91343 28.5326 3.11218C28.3668 3.31093 28.3934 3.60655 28.5922 3.77237C30.1621 5.08249 31.0625 7.00568 31.0625 9.04874C31.0625 10.6812 30.4803 12.2634 29.4231 13.5037C28.3776 14.7304 26.9317 15.5541 25.3518 15.8229C24.9718 15.8877 24.5811 15.9206 24.1906 15.9206C23.1621 15.9206 22.1416 15.6877 21.2214 15.2461V14.1711C22.1184 14.6906 23.1449 14.9712 24.1906 14.9712C27.4559 14.9712 30.1125 12.3146 30.1125 9.0493C30.1125 5.78399 27.4559 3.12743 24.1906 3.12743C22.1191 3.12743 20.2186 4.2003 19.1442 5.95074C18.99 5.92155 18.8311 5.90561 18.6686 5.90561H18.0798C18.5926 4.90774 19.3412 4.05074 20.2743 3.40211C21.4269 2.60087 22.7812 2.17737 24.1906 2.17737C25.2137 2.17737 26.1973 2.39655 27.1138 2.8288C27.3477 2.93924 27.6273 2.83899 27.7377 2.6048C27.8482 2.37068 27.7478 2.0913 27.5137 1.98093C26.4711 1.48937 25.3531 1.23999 24.1906 1.23999C22.589 1.23999 21.0497 1.72149 19.7392 2.63243C19.5229 2.78274 19.3161 2.94374 19.1178 3.11312H3.67313C1.64775 3.11318 0 4.76118 0 6.78686V24.345C0 26.2115 1.39975 27.7562 3.2045 27.9872V29.29C3.2045 30.1005 3.86394 30.7599 4.67444 30.7599H6.785C7.5955 30.7599 8.25494 30.1005 8.25494 29.29V28.0181H9.29756C9.55644 28.0181 9.76631 27.8082 9.76631 27.5494C9.76631 27.2905 9.55644 27.0806 9.29756 27.0806H3.67313C2.16469 27.0806 0.9375 25.8534 0.9375 24.345V6.78686C0.9375 5.27811 2.16469 4.05061 3.67313 4.05061H18.1906C17.7243 4.60968 17.3372 5.23255 17.0414 5.90574L3.26062 5.90568C3.00175 5.90568 2.79187 6.11555 2.79187 6.37443V8.64605C2.05337 8.92687 1.527 9.64168 1.527 10.4776C1.527 11.3134 2.05337 12.0282 2.79187 12.3091V18.8232C2.05337 19.1041 1.527 19.8189 1.527 20.6547C1.527 21.4906 2.05337 22.2054 2.79187 22.4862V24.7576C2.79187 25.0165 3.00175 25.2264 3.26062 25.2264L23.3463 25.2265C24.754 25.2265 25.8994 24.0812 25.8994 22.6734V16.67C26.5459 16.5253 27.1692 16.2989 27.7544 15.9982V24.3451C27.7544 25.8536 26.5269 27.0807 25.0182 27.0807H11.165C10.9061 27.0807 10.6962 27.2906 10.6962 27.5495C10.6962 27.8084 10.9061 28.0182 11.165 28.0182H20.4367V29.2901C20.4367 30.1006 21.0961 30.7601 21.9066 30.7601H24.0172C24.8277 30.7601 25.4872 30.1006 25.4872 29.2901V27.9872C27.2921 27.7561 28.6919 26.2115 28.6919 24.3451V15.4297C29.2229 15.0549 29.7094 14.6132 30.1366 14.1119C31.3382 12.7021 32 10.9039 32 9.04874C32 6.72686 30.9768 4.54136 29.1929 3.05262ZM7.31738 29.2901C7.31738 29.5836 7.07856 29.8225 6.78494 29.8225H4.67444C4.38088 29.8225 4.142 29.5836 4.142 29.2901V28.0186H7.31738V29.2901ZM24.5496 29.2901C24.5496 29.5836 24.3107 29.8225 24.0171 29.8225H21.9066C21.613 29.8225 21.3741 29.5836 21.3741 29.2901V28.0186H24.5496V29.2901H24.5496ZM24.1906 4.06505C26.9391 4.06505 29.175 6.30105 29.175 9.04943C29.175 11.7978 26.9391 14.0338 24.1906 14.0338C23.1216 14.0338 22.0758 13.6866 21.2214 13.0522V8.45868C21.2214 7.55218 20.7461 6.75505 20.0319 6.30199C20.9499 4.9113 22.5029 4.06505 24.1906 4.06505ZM2.4645 10.4775C2.4645 9.9143 2.92275 9.45605 3.48594 9.45605H5.01869C5.58188 9.45605 6.04012 9.9143 6.04012 10.4775C6.04012 11.0407 5.58188 11.4989 5.01869 11.4989H3.48594C2.92275 11.4989 2.4645 11.0407 2.4645 10.4775ZM2.4645 20.6547C2.4645 20.0915 2.92275 19.6332 3.48594 19.6332H5.01869C5.58188 19.6332 6.04012 20.0915 6.04012 20.6547C6.04012 21.2179 5.58188 21.6761 5.01869 21.6761H3.48594C2.92275 21.6761 2.4645 21.2179 2.4645 20.6547ZM3.72937 22.6136H5.01869C6.09888 22.6136 6.97762 21.7348 6.97762 20.6546C6.97762 19.5744 6.09888 18.6957 5.01869 18.6957H3.72937V12.4364H5.01869C6.09888 12.4364 6.97762 11.5577 6.97762 10.4775C6.97762 9.3973 6.09888 8.51855 5.01869 8.51855H3.72937V6.84311L16.1224 6.84318C17.0116 6.84512 17.7344 7.56905 17.7344 8.45868V22.6737C17.7344 23.5642 17.0096 24.2887 16.1187 24.2887H3.72937V22.6136ZM18.0941 24.2889C18.4549 23.8486 18.6719 23.2861 18.6719 22.6738V8.45874C18.6719 7.8463 18.4549 7.28361 18.0941 6.84324H18.6685C19.5593 6.84324 20.2839 7.56786 20.2839 8.45861V22.6735C20.2839 23.5642 19.5593 24.2889 18.6685 24.2889H18.0941V24.2889ZM23.3463 24.2889H20.6437C21.0045 23.8486 21.2214 23.2859 21.2214 22.6736V16.2719C22.1582 16.6566 23.1711 16.8582 24.1906 16.8582C24.4484 16.8582 24.7061 16.844 24.9619 16.8189V22.6733C24.9619 23.5641 24.2371 24.2889 23.3463 24.2889Z" fill="#007AFF"/>
<path d="M22.332 10.9874H21.9672C21.7082 10.9874 21.4984 11.1972 21.4984 11.4561C21.4984 11.715 21.7082 11.9249 21.9672 11.9249H22.8007H22.8802V12.6729C22.8802 12.9318 23.09 13.1417 23.3489 13.1417C23.6079 13.1417 23.8177 12.9318 23.8177 12.6729V11.9249H24.2898V12.6729C24.2898 12.9318 24.4996 13.1417 24.7585 13.1417C25.0175 13.1417 25.2273 12.9318 25.2273 12.6729V11.9249H25.2459C26.2414 11.9249 27.0513 11.115 27.0513 10.1194C27.0513 9.42135 26.6527 8.81492 26.0715 8.51467C26.2149 8.28092 26.2977 8.00623 26.2977 7.71248C26.2977 7.02729 25.8474 6.44548 25.2274 6.24667V5.42542C25.2274 5.16654 25.0175 4.95667 24.7586 4.95667C24.4997 4.95667 24.2899 5.16654 24.2899 5.42542V6.17354H23.8177V5.42542C23.8177 5.16654 23.6079 4.95667 23.349 4.95667C23.09 4.95667 22.8802 5.16654 22.8802 5.42542V6.17354H22.8008H21.9672C21.7082 6.17354 21.4984 6.38342 21.4984 6.64229C21.4984 6.90117 21.7082 7.11104 21.9672 7.11104H22.332V8.78285V10.9874ZM25.2459 10.9874H23.2695V9.25154H24.7585H25.2459C25.7244 9.25154 26.1138 9.64085 26.1138 10.1194C26.1137 10.598 25.7244 10.9874 25.2459 10.9874ZM24.7585 8.31404H23.2695V7.11098H24.7585C25.0903 7.11098 25.3601 7.38079 25.3601 7.71254C25.3601 8.04429 25.0902 8.31404 24.7585 8.31404Z" fill="#007AFF"/>
<path d="M10.6817 10.3347C9.19547 10.3347 7.98641 11.5438 7.98641 13.03V13.1183C7.50754 13.3595 7.1781 13.8555 7.1781 14.4273V16.692C7.1781 17.2638 7.50754 17.7598 7.98641 18.0011V18.0892C7.98641 19.5754 9.19547 20.7845 10.6817 20.7845C12.1678 20.7845 13.3769 19.5754 13.3769 18.0892V13.03C13.3769 12.3095 13.0964 11.6327 12.5875 11.1246C12.079 10.6153 11.4022 10.3347 10.6817 10.3347ZM8.1156 14.4273C8.1156 14.1363 8.35235 13.8997 8.64335 13.8997C8.93435 13.8997 9.17104 14.1364 9.17104 14.4273V16.692C9.17104 16.983 8.93429 17.2197 8.64335 17.2197C8.35235 17.2197 8.11566 16.983 8.11566 16.692V14.4273H8.1156ZM10.0099 13.8997H10.1748C10.4658 13.8997 10.7025 14.1364 10.7025 14.4273V16.692C10.7025 16.983 10.4657 17.2197 10.1748 17.2197H10.0099C10.0733 17.0558 10.1085 16.878 10.1085 16.692V14.4273C10.1085 14.2413 10.0733 14.0635 10.0099 13.8997ZM12.4394 18.0893C12.4394 19.0585 11.6509 19.847 10.6817 19.847C9.73522 19.847 8.96154 19.0951 8.92566 18.1573H10.1748C10.9828 18.1573 11.64 17.5 11.64 16.6921V14.4274C11.64 13.6195 10.9827 12.9622 10.1748 12.9622H8.92566C8.96154 12.0243 9.73522 11.2723 10.6817 11.2723C11.1515 11.2723 11.5927 11.4552 11.9246 11.7877C12.2566 12.1191 12.4394 12.5603 12.4394 13.0301V18.0893Z" fill="#007AFF"/>
</g>
<defs>
<filter id="filter0_i" x="0" y="0" width="32" height="32.5" filterUnits="userSpaceOnUse" color-interpolation-filters="sRGB">
<feFlood flood-opacity="0" result="BackgroundImageFix"/>
<feBlend mode="normal" in="SourceGraphic" in2="BackgroundImageFix" result="shape"/>
<feColorMatrix in="SourceAlpha" type="matrix" values="0 0 0 0 0 0 0 0 0 0 0 0 0 0 0 0 0 0 127 0" result="hardAlpha"/>
<feOffset dy="0.5"/>
<feGaussianBlur stdDeviation="0.5"/>
<feComposite in2="hardAlpha" operator="arithmetic" k2="-1" k3="1"/>
<feColorMatrix type="matrix" values="0 0 0 0 0.0392224 0 0 0 0 0.339377 0 0 0 0 0.666594 0 0 0 1 0"/>
<feBlend mode="normal" in2="shape" result="effect1_innerShadow"/>
</filter>
<clipPath id="clip0">
<rect width="32" height="32" fill="white"/>
</clipPath>
</defs>
</svg>
