<svg width="22" height="34" viewBox="0 0 22 34" fill="none" xmlns="http://www.w3.org/2000/svg">
<path d="M15.4742 33.5379V28.956C19.1559 28.5724 21.8296 25.2769 21.446 21.5952C21.258 19.7905 20.3463 18.1392 18.9193 17.0185C20.5305 15.7491 21.4739 13.8136 21.4813 11.7623C21.4705 8.33129 18.8848 5.45542 15.4742 5.08102V0.499146H12.4707V5.00443H9.46719V0.499146H6.46367V5.00443H0.456635V29.0326H6.46367V33.5379H9.46719V29.0326H12.4707V33.5379H15.4742ZM3.46015 8.00795H14.7233C16.7968 8.00795 18.4777 9.68888 18.4777 11.7623C18.4777 13.8358 16.7968 15.5167 14.7233 15.5167H3.46015V8.00795ZM3.46015 26.0291V18.5203H14.7233C16.7968 18.5203 18.4777 20.2012 18.4777 22.2747C18.4777 24.3481 16.7968 26.0291 14.7233 26.0291H3.46015Z" fill="#CDD3E0"/>
</svg>
