<svg width="32" height="32" viewBox="0 0 32 32" fill="none" xmlns="http://www.w3.org/2000/svg">
<g clip-path="url(#clip0)" filter="url(#filter0_i)">
<path d="M20.5048 2.93779C20.577 3.62817 21.1649 4.15329 21.854 4.15329C21.8703 4.15329 21.8865 4.15298 21.9028 4.15242L22.035 4.14767C22.745 4.12223 23.3193 3.5461 23.3425 2.83604L23.3894 1.40073C23.4016 1.02635 23.2565 0.659979 22.9912 0.395542C22.7259 0.131104 22.3577 -0.013271 21.9847 0.000541539L21.656 0.0122915C21.2816 0.025729 20.926 0.195604 20.6803 0.478354C20.4347 0.761104 20.3162 1.13698 20.3552 1.50948L20.5048 2.93779ZM21.3881 1.09329C21.4652 1.0046 21.5722 0.953479 21.6896 0.949229L22.0183 0.937479C22.0235 0.937292 22.0287 0.937229 22.0339 0.937229C22.1455 0.937229 22.2498 0.980354 22.3294 1.0596C22.4126 1.14254 22.4563 1.25285 22.4525 1.37023L22.4056 2.80548C22.3985 3.02492 22.221 3.20298 22.0016 3.21085L21.8693 3.2156C21.8693 3.2156 21.8693 3.2156 21.8693 3.2156C21.649 3.22335 21.4601 3.0586 21.4372 2.84023L21.2877 1.41198C21.2754 1.2951 21.3111 1.18192 21.3881 1.09329Z" fill="#007AFF"/>
<path d="M24.93 4.87472L25.0469 4.93678C25.2477 5.04334 25.4647 5.09409 25.6792 5.09409C26.1351 5.09409 26.5799 4.86491 26.8349 4.45466L27.5932 3.23516C27.791 2.91703 27.8485 2.52722 27.7509 2.16553C27.6534 1.80384 27.4078 1.49572 27.0768 1.32016L26.7863 1.16603C26.4553 0.990469 26.0624 0.959782 25.7084 1.08184C25.3543 1.20391 25.0637 1.47009 24.9111 1.81228L24.3265 3.12397C24.0374 3.77272 24.3024 4.54178 24.93 4.87472ZM25.1829 3.50547L25.7675 2.19384C25.8153 2.08653 25.9028 2.00641 26.0138 1.96809C26.0589 1.95253 26.1051 1.94484 26.1511 1.94484C26.2184 1.94484 26.2853 1.96141 26.3469 1.99409L26.6375 2.14822C26.7412 2.20328 26.8153 2.29603 26.8458 2.40947C26.8764 2.52291 26.8591 2.64028 26.7971 2.74003L26.0388 3.95953C25.9229 4.14597 25.6803 4.21141 25.4862 4.10853L25.3693 4.04647C25.1754 3.94366 25.0935 3.70603 25.1829 3.50547Z" fill="#007AFF"/>
<path d="M27.2775 6.92218L27.3477 7.03443C27.6034 7.44255 28.0469 7.67018 28.5012 7.67018C28.7171 7.67018 28.9355 7.61874 29.1374 7.51087L30.4039 6.8338C30.7342 6.65718 30.9789 6.3483 31.0752 5.98636C31.1716 5.62436 31.1129 5.23468 30.9141 4.91718L30.7396 4.63836C30.5407 4.32086 30.2158 4.09786 29.8481 4.02649C29.4805 3.95511 29.0957 4.04036 28.7925 4.26043L27.6304 5.10405C27.0555 5.52149 26.9005 6.32005 27.2775 6.92218ZM28.1812 5.86286L29.3433 5.01924C29.4384 4.95024 29.5542 4.92461 29.6695 4.94693C29.7848 4.9693 29.8826 5.03649 29.945 5.13599L30.1196 5.41474C30.1819 5.5143 30.1996 5.63168 30.1693 5.74518C30.1391 5.85868 30.0654 5.95168 29.9619 6.00705L28.6954 6.68411C28.5017 6.78768 28.2589 6.72287 28.1423 6.53687L28.0721 6.42468C27.9556 6.23861 28.0035 5.9918 28.1812 5.86286Z" fill="#007AFF"/>
<path d="M29.2508 12.5799V11.1518C29.2508 9.25667 27.709 7.71492 25.8139 7.71492C25.3048 7.71492 24.8139 7.82405 24.3542 8.03967C24.2348 8.09592 24.1185 8.15936 24.006 8.2293C23.8008 6.52848 22.3486 5.20617 20.5933 5.20617C19.6753 5.20617 18.8123 5.56367 18.1629 6.21305C17.568 6.80867 17.2182 7.58342 17.1639 8.41517C16.5946 8.01948 15.9112 7.79867 15.2021 7.79867C14.7375 7.79867 14.2872 7.88986 13.864 8.06936C13.764 8.11167 13.6664 8.15842 13.5714 8.20955V7.49805C13.5714 6.95317 13.4405 6.4103 13.1927 5.92817C13.0743 5.69786 12.7916 5.60723 12.5615 5.72548C12.3312 5.8438 12.2405 6.12636 12.3588 6.35667C12.5413 6.71186 12.6338 7.09586 12.6338 7.49805V9.13742C12.6338 9.32698 12.748 9.49792 12.9232 9.57048C13.0985 9.64305 13.3 9.60292 13.434 9.46892C13.6641 9.23892 13.9315 9.05861 14.2295 8.93267C14.5368 8.8023 14.864 8.73617 15.2021 8.73617C16.0107 8.73617 16.7735 9.13123 17.2428 9.79298C17.3608 9.95942 17.5728 10.0304 17.7675 9.96842C17.9619 9.90649 18.094 9.72586 18.094 9.5218V8.64367C18.094 7.9763 18.354 7.34836 18.8261 6.87573C19.2982 6.40367 19.9258 6.14367 20.5933 6.14367C21.9718 6.14367 23.0933 7.26517 23.0933 8.64367V9.2193C23.0933 9.41542 23.2154 9.5908 23.3993 9.65886C23.5833 9.72705 23.7902 9.6733 23.9178 9.52449C24.1466 9.2578 24.4357 9.03761 24.753 8.88805C25.0864 8.73167 25.4433 8.65236 25.8139 8.65236C27.1921 8.65236 28.3133 9.77355 28.3133 11.1517V12.5793H3.23891V10.1574C3.23891 9.4898 3.49891 8.86217 3.97122 8.38992C4.4426 7.91792 5.07016 7.65805 5.73822 7.65805C6.1586 7.65805 6.5741 7.76442 6.93985 7.96561C7.0851 8.04548 7.26166 8.04273 7.40441 7.95842C7.54704 7.87405 7.6346 7.72067 7.6346 7.55492V7.49805C7.6346 6.83061 7.89466 6.20267 8.36641 5.73036C8.83922 5.25811 9.46716 4.99805 10.1346 4.99805C10.5197 4.99805 10.889 5.08317 11.2324 5.25105C11.465 5.3648 11.7457 5.26836 11.8594 5.0358C11.9731 4.80323 11.8767 4.52248 11.6442 4.4088C11.1715 4.17767 10.6637 4.06055 10.1346 4.06055C9.21697 4.06055 8.35379 4.41798 7.70354 5.06742C7.20429 5.5673 6.87747 6.19361 6.75335 6.87373C6.42597 6.77273 6.08322 6.72055 5.73835 6.72055C4.81966 6.72055 3.95654 7.07811 3.30822 7.72717C2.65897 8.37636 2.30141 9.23942 2.30141 10.1574V12.6256C1.20072 12.8442 0.368286 13.817 0.368286 14.981C0.368286 16.3053 1.4456 17.3827 2.76991 17.3827H2.99854L3.95991 24.1353C4.11872 25.2515 4.66091 26.2887 5.4866 27.056C6.17347 27.6943 7.03216 28.1227 7.94729 28.2932C7.9226 28.4534 7.90972 28.6175 7.90972 28.7845C7.90972 30.5574 9.3521 31.9999 11.125 31.9999C12.898 31.9999 14.3404 30.5574 14.3404 28.7845C14.3404 28.6465 14.3307 28.5108 14.3137 28.3774H17.6865C17.6696 28.5108 17.6598 28.6465 17.6598 28.7845C17.6598 30.5574 19.1023 31.9999 20.8752 31.9999C22.6482 31.9999 24.0905 30.5574 24.0905 28.7845C24.0905 28.6177 24.0777 28.4539 24.0532 28.2939C24.662 28.1808 25.249 27.9534 25.775 27.6231C25.9942 27.4855 26.0604 27.1962 25.9228 26.9769C25.7851 26.7576 25.4958 26.6915 25.2765 26.8291C24.819 27.1163 24.3047 27.3077 23.7727 27.3911C23.2526 26.314 22.1492 25.5691 20.8752 25.5691C19.5822 25.5691 18.4657 26.3367 17.9556 27.4399H14.0446C13.5345 26.3367 12.418 25.5691 11.125 25.5691C9.85097 25.5691 8.74766 26.3139 8.2276 27.391C6.51491 27.1211 5.13566 25.7437 4.88791 24.0031L3.94547 17.3827H28.0549L27.1123 24.0034C27.0272 24.6025 26.8144 25.1599 26.48 25.6599C26.336 25.875 26.3937 26.1662 26.6089 26.3102C26.8239 26.4541 27.1153 26.3964 27.2591 26.1812C27.6725 25.5632 27.9353 24.8749 28.0404 24.1354L29.0018 17.3827H29.2304C30.5547 17.3827 31.632 16.3053 31.632 14.981C31.6321 13.6636 30.5657 12.5909 29.2508 12.5799ZM20.8753 26.5067C22.1313 26.5067 23.1531 27.5286 23.1531 28.7846C23.1531 30.0406 22.1313 31.0624 20.8753 31.0624C19.6192 31.0624 18.5974 30.0405 18.5974 28.7845C18.5974 27.5285 19.6192 26.5067 20.8753 26.5067ZM11.125 26.5067C12.3811 26.5067 13.4029 27.5286 13.4029 28.7846C13.4029 30.0406 12.3811 31.0624 11.125 31.0624C9.86904 31.0624 8.84722 30.0405 8.84722 28.7845C8.84722 27.5285 9.8691 26.5067 11.125 26.5067ZM29.2305 16.4452H2.76991C1.9626 16.4452 1.30579 15.7884 1.30579 14.981C1.30579 14.1737 1.9626 13.5169 2.76991 13.5169H29.2305C30.0378 13.5169 30.6946 14.1737 30.6946 14.981C30.6946 15.7884 30.0378 16.4452 29.2305 16.4452Z" fill="#007AFF"/>
<path d="M20.875 30.1521C21.629 30.1521 22.2425 29.5387 22.2425 28.7846C22.2425 28.0306 21.6291 27.4171 20.875 27.4171C20.1209 27.4171 19.5075 28.0306 19.5075 28.7846C19.5075 29.5387 20.121 30.1521 20.875 30.1521ZM20.875 28.3547C21.1121 28.3547 21.305 28.5476 21.305 28.7847C21.305 29.0218 21.1121 29.2147 20.875 29.2147C20.6379 29.2147 20.445 29.0218 20.445 28.7847C20.445 28.5476 20.6379 28.3547 20.875 28.3547Z" fill="#007AFF"/>
<path d="M11.1254 30.1521C11.8794 30.1521 12.4929 29.5387 12.4929 28.7846C12.4929 28.0306 11.8795 27.4171 11.1254 27.4171C10.3714 27.4171 9.75793 28.0306 9.75793 28.7846C9.75793 29.5387 10.3714 30.1521 11.1254 30.1521ZM11.1254 28.3547C11.3626 28.3547 11.5554 28.5476 11.5554 28.7847C11.5554 29.0218 11.3626 29.2147 11.1254 29.2147C10.8883 29.2147 10.6954 29.0218 10.6954 28.7847C10.6954 28.5476 10.8883 28.3547 11.1254 28.3547Z" fill="#007AFF"/>
<path d="M16.4726 26.0766C16.7316 26.0766 16.9414 25.8667 16.9414 25.6079V24.8887H16.9483C17.9263 24.8887 18.7221 24.093 18.7221 23.1149C18.7221 22.4333 18.3354 21.8406 17.7701 21.5437C17.9072 21.316 17.9863 21.0496 17.9863 20.765C17.9863 20.0939 17.5472 19.5238 16.9414 19.326V18.5321C16.9414 18.2732 16.7316 18.0634 16.4726 18.0634C16.2137 18.0634 16.0039 18.2732 16.0039 18.5321V19.2514H15.5651V18.5321C15.5651 18.2732 15.3553 18.0634 15.0964 18.0634C14.8374 18.0634 14.6276 18.2732 14.6276 18.5321V19.2514H14.5613H13.7473C13.4884 19.2514 13.2786 19.4612 13.2786 19.7201C13.2786 19.979 13.4884 20.1889 13.7473 20.1889H14.0924V23.9512H13.7473C13.4884 23.9512 13.2786 24.161 13.2786 24.4199C13.2786 24.6788 13.4884 24.8887 13.7473 24.8887H14.5611H14.6275V25.6079C14.6275 25.8668 14.8373 26.0767 15.0962 26.0767C15.3552 26.0767 15.565 25.8668 15.565 25.6079V24.8887H16.0037V25.6079C16.0039 25.8667 16.2137 26.0766 16.4726 26.0766ZM16.9483 23.9512H15.0299V22.2787H16.4726H16.9483C17.4094 22.2787 17.7846 22.6538 17.7846 23.1149C17.7846 23.576 17.4094 23.9512 16.9483 23.9512ZM16.4726 21.3412H15.0299V20.1888H16.4726C16.7903 20.1888 17.0488 20.4473 17.0488 20.765C17.0488 21.0827 16.7903 21.3412 16.4726 21.3412Z" fill="#007AFF"/>
</g>
<defs>
<filter id="filter0_i" x="0" y="0" width="32" height="32.5" filterUnits="userSpaceOnUse" color-interpolation-filters="sRGB">
<feFlood flood-opacity="0" result="BackgroundImageFix"/>
<feBlend mode="normal" in="SourceGraphic" in2="BackgroundImageFix" result="shape"/>
<feColorMatrix in="SourceAlpha" type="matrix" values="0 0 0 0 0 0 0 0 0 0 0 0 0 0 0 0 0 0 127 0" result="hardAlpha"/>
<feOffset dy="0.5"/>
<feGaussianBlur stdDeviation="0.5"/>
<feComposite in2="hardAlpha" operator="arithmetic" k2="-1" k3="1"/>
<feColorMatrix type="matrix" values="0 0 0 0 0.0392224 0 0 0 0 0.339377 0 0 0 0 0.666594 0 0 0 1 0"/>
<feBlend mode="normal" in2="shape" result="effect1_innerShadow"/>
</filter>
<clipPath id="clip0">
<rect width="32" height="32" fill="white"/>
</clipPath>
</defs>
</svg>
