<svg width="128" height="46" viewBox="0 0 128 46" fill="none" xmlns="http://www.w3.org/2000/svg">
<g filter="url(#filter0_di)">
<path d="M12.1083 26.2038H33.7643L28.4777 17.9236C28.4777 17.9236 26.7308 17.414 25.6115 17.414C24.4548 17.414 23.5522 17.6688 22.6497 17.9236C21.7471 18.1783 20.8445 18.4331 19.6879 18.4331C18.7924 18.4331 17.3949 17.9236 17.3949 17.9236L12.1083 26.2038Z" fill="#007AFF"/>
<path fill-rule="evenodd" clip-rule="evenodd" d="M8.20983 27.5758L12.3848 21.041L8.09401 22.7746C8.19642 23.7648 7.6407 24.7438 6.67145 25.1354C5.49727 25.6098 4.16085 25.0426 3.68645 23.8684C3.21205 22.6942 3.77933 21.3578 4.95351 20.8834C5.92276 20.4918 7.00259 20.81 7.61681 21.5934L13.568 19.189L15.3531 16.3949H7.49637C7.22037 17.3514 6.33837 18.051 5.29299 18.051C4.0266 18.051 3 17.0244 3 15.758C3 14.4916 4.0266 13.465 5.29299 13.465C6.33837 13.465 7.22037 14.1645 7.49637 15.121H16.167L17.6469 12.8047L12.1401 10.3529C11.499 11.1145 10.4087 11.3948 9.45368 10.9696C8.29678 10.4545 7.77649 9.09912 8.29157 7.94221C8.80666 6.78531 10.1621 6.26502 11.319 6.7801C12.274 7.2053 12.7952 8.20311 12.6583 9.18918L18.3405 11.7191L19.1783 10.4076V6.58599H17.9045C17.3416 6.58599 16.8853 6.12972 16.8853 5.56688V3.78344C16.8853 3.2206 17.3416 2.76433 17.9045 2.76433H27.9681C28.531 2.76433 28.9873 3.2206 28.9873 3.78344V5.56688C28.9873 6.12972 28.531 6.58599 27.9681 6.58599H26.6943V10.4076L27.5321 11.7191L33.2143 9.18916C33.0774 8.20309 33.5986 7.20528 34.5536 6.78009C35.7105 6.265 37.066 6.78529 37.581 7.9422C38.0961 9.0991 37.5758 10.4545 36.4189 10.9696C35.4639 11.3948 34.3737 11.1145 33.7325 10.3529L28.2257 12.8047L29.7056 15.121H38.3762C38.6522 14.1645 39.5342 13.465 40.5796 13.465C41.846 13.465 42.8726 14.4916 42.8726 15.758C42.8726 17.0244 41.846 18.051 40.5796 18.051C39.5342 18.051 38.6522 17.3514 38.3762 16.3949H30.5195L32.3046 19.189L38.2558 21.5934C38.87 20.81 39.9499 20.4918 40.9191 20.8834C42.0933 21.3578 42.6606 22.6942 42.1862 23.8684C41.7118 25.0426 40.3753 25.6098 39.2012 25.1354C38.2319 24.7438 37.6762 23.7648 37.7786 22.7746L33.4878 21.041L37.6628 27.5758C37.9878 28.0845 37.6224 28.7516 37.0187 28.7516H27.7821L29.8034 33.5137C30.7917 33.394 31.7803 33.9325 32.1888 34.8948C32.6836 36.0605 32.1397 37.4066 30.974 37.9015C29.8083 38.3963 28.4622 37.8524 27.9673 36.6867C27.5589 35.7244 27.8582 34.6392 28.6308 34.0114L26.3982 28.7516H23.5096V36.7393C24.4661 37.0153 25.1656 37.8973 25.1656 38.9427C25.1656 40.2091 24.139 41.2357 22.8726 41.2357C21.6062 41.2357 20.5796 40.2091 20.5796 38.9427C20.5796 37.8973 21.2792 37.0153 22.2357 36.7393V28.7516H19.3576L17.1249 34.0114C17.8975 34.6392 18.1969 35.7244 17.7884 36.6867C17.2936 37.8524 15.9475 38.3963 14.7817 37.9015C13.616 37.4066 13.0722 36.0605 13.567 34.8948C13.9754 33.9325 14.964 33.394 15.9523 33.5137L17.9737 28.7516H8.85392C8.25018 28.7516 7.88478 28.0845 8.20983 27.5758ZM25.4204 5.3121V10.7798L36.0885 27.4777H9.78414L20.4522 10.7798V5.3121H18.1592V4.03822H27.7134V5.3121H25.4204ZM34.5167 9.30652L34.4761 9.01398C34.4152 8.57496 34.649 8.13206 35.0718 7.94384C35.586 7.71491 36.1884 7.94615 36.4173 8.46033C36.6462 8.97452 36.415 9.57692 35.9008 9.80585C35.478 9.99407 34.9924 9.8715 34.707 9.53245L34.5167 9.30652ZM11.3965 9.01399L11.3559 9.30653L11.1657 9.53246C10.8802 9.87152 10.3946 9.99408 9.97182 9.80586C9.45764 9.57693 9.2264 8.97453 9.45533 8.46035C9.68425 7.94617 10.2867 7.71493 10.8008 7.94386C11.2236 8.13208 11.4574 8.57498 11.3965 9.01399ZM16.0924 34.8138L16.3216 35.0001C16.6656 35.2796 16.7966 35.763 16.6158 36.1889C16.3959 36.707 15.7976 36.9488 15.2795 36.7288C14.7614 36.5089 14.5197 35.9107 14.7396 35.3926C14.9204 34.9666 15.3591 34.725 15.7992 34.7783L16.0924 34.8138ZM29.4341 35.0001L29.6634 34.8138L29.9566 34.7783C30.3966 34.725 30.8353 34.9666 31.0161 35.3926C31.2361 35.9107 30.9943 36.5089 30.4762 36.7288C29.9581 36.9488 29.3599 36.707 29.14 36.1889C28.9591 35.763 29.0902 35.2796 29.4341 35.0001ZM39.0761 22.6118L39.2583 22.3794C39.5318 22.0306 40.0128 21.8912 40.4419 22.0645C40.9638 22.2753 41.2159 22.8693 41.005 23.3912C40.7942 23.913 40.2002 24.1652 39.6784 23.9543C39.2493 23.781 39.0001 23.3465 39.0457 22.9056L39.0761 22.6118ZM6.61428 22.3794L6.79651 22.6118L6.82689 22.9056C6.87248 23.3465 6.62331 23.781 6.19424 23.9543C5.67238 24.1652 5.07842 23.913 4.86757 23.3912C4.65673 22.8693 4.90885 22.2754 5.43071 22.0645C5.85978 21.8912 6.34082 22.0306 6.61428 22.3794Z" fill="#007AFF"/>
</g>
<g filter="url(#filter1_di)">
<path d="M66.426 15.364V28H63.348V20.422L60.522 28H58.038L55.194 20.404V28H52.116V15.364H55.752L59.298 24.112L62.808 15.364H66.426ZM69.4674 16.912C68.9274 16.912 68.4834 16.756 68.1354 16.444C67.7994 16.12 67.6314 15.724 67.6314 15.256C67.6314 14.776 67.7994 14.38 68.1354 14.068C68.4834 13.744 68.9274 13.582 69.4674 13.582C69.9954 13.582 70.4274 13.744 70.7634 14.068C71.1114 14.38 71.2854 14.776 71.2854 15.256C71.2854 15.724 71.1114 16.12 70.7634 16.444C70.4274 16.756 69.9954 16.912 69.4674 16.912ZM70.9974 17.956V28H67.9194V17.956H70.9974ZM78.628 17.848C79.804 17.848 80.74 18.232 81.436 19C82.144 19.756 82.498 20.8 82.498 22.132V28H79.438V22.546C79.438 21.874 79.264 21.352 78.916 20.98C78.568 20.608 78.1 20.422 77.512 20.422C76.924 20.422 76.456 20.608 76.108 20.98C75.76 21.352 75.586 21.874 75.586 22.546V28H72.508V17.956H75.586V19.288C75.898 18.844 76.318 18.496 76.846 18.244C77.374 17.98 77.968 17.848 78.628 17.848ZM93.3849 22.816C93.3849 23.104 93.3669 23.404 93.3309 23.716H86.3649C86.4129 24.34 86.6109 24.82 86.9589 25.156C87.3189 25.48 87.7569 25.642 88.2729 25.642C89.0409 25.642 89.5749 25.318 89.8749 24.67H93.1509C92.9829 25.33 92.6769 25.924 92.2329 26.452C91.8009 26.98 91.2549 27.394 90.5949 27.694C89.9349 27.994 89.1969 28.144 88.3809 28.144C87.3969 28.144 86.5209 27.934 85.7529 27.514C84.9849 27.094 84.3849 26.494 83.9529 25.714C83.5209 24.934 83.3049 24.022 83.3049 22.978C83.3049 21.934 83.5149 21.022 83.9349 20.242C84.3669 19.462 84.9669 18.862 85.7349 18.442C86.5029 18.022 87.3849 17.812 88.3809 17.812C89.3529 17.812 90.2169 18.016 90.9729 18.424C91.7289 18.832 92.3169 19.414 92.7369 20.17C93.1689 20.926 93.3849 21.808 93.3849 22.816ZM90.2349 22.006C90.2349 21.478 90.0549 21.058 89.6949 20.746C89.3349 20.434 88.8849 20.278 88.3449 20.278C87.8289 20.278 87.3909 20.428 87.0309 20.728C86.6829 21.028 86.4669 21.454 86.3829 22.006H90.2349ZM97.3667 25.624H101.399V28H94.2887V15.364H97.3667V25.624ZM101.535 22.96C101.535 21.928 101.727 21.022 102.111 20.242C102.507 19.462 103.041 18.862 103.713 18.442C104.385 18.022 105.135 17.812 105.963 17.812C106.671 17.812 107.289 17.956 107.817 18.244C108.357 18.532 108.771 18.91 109.059 19.378V17.956H112.137V28H109.059V26.578C108.759 27.046 108.339 27.424 107.799 27.712C107.271 28 106.653 28.144 105.945 28.144C105.129 28.144 104.385 27.934 103.713 27.514C103.041 27.082 102.507 26.476 102.111 25.696C101.727 24.904 101.535 23.992 101.535 22.96ZM109.059 22.978C109.059 22.21 108.843 21.604 108.411 21.16C107.991 20.716 107.475 20.494 106.863 20.494C106.251 20.494 105.729 20.716 105.297 21.16C104.877 21.592 104.667 22.192 104.667 22.96C104.667 23.728 104.877 24.34 105.297 24.796C105.729 25.24 106.251 25.462 106.863 25.462C107.475 25.462 107.991 25.24 108.411 24.796C108.843 24.352 109.059 23.746 109.059 22.978ZM116.722 19.378C117.01 18.91 117.424 18.532 117.964 18.244C118.504 17.956 119.122 17.812 119.818 17.812C120.646 17.812 121.396 18.022 122.068 18.442C122.74 18.862 123.268 19.462 123.652 20.242C124.048 21.022 124.246 21.928 124.246 22.96C124.246 23.992 124.048 24.904 123.652 25.696C123.268 26.476 122.74 27.082 122.068 27.514C121.396 27.934 120.646 28.144 119.818 28.144C119.11 28.144 118.492 28.006 117.964 27.73C117.436 27.442 117.022 27.064 116.722 26.596V28H113.644V14.68H116.722V19.378ZM121.114 22.96C121.114 22.192 120.898 21.592 120.466 21.16C120.046 20.716 119.524 20.494 118.9 20.494C118.288 20.494 117.766 20.716 117.334 21.16C116.914 21.604 116.704 22.21 116.704 22.978C116.704 23.746 116.914 24.352 117.334 24.796C117.766 25.24 118.288 25.462 118.9 25.462C119.512 25.462 120.034 25.24 120.466 24.796C120.898 24.34 121.114 23.728 121.114 22.96Z" fill="#007AFF"/>
</g>
<defs>
<filter id="filter0_di" x="0" y="0" width="46" height="46" filterUnits="userSpaceOnUse" color-interpolation-filters="sRGB">
<feFlood flood-opacity="0" result="BackgroundImageFix"/>
<feColorMatrix in="SourceAlpha" type="matrix" values="0 0 0 0 0 0 0 0 0 0 0 0 0 0 0 0 0 0 127 0"/>
<feOffset dy="1"/>
<feGaussianBlur stdDeviation="1.5"/>
<feColorMatrix type="matrix" values="0 0 0 0 1 0 0 0 0 1 0 0 0 0 1 0 0 0 1 0"/>
<feBlend mode="normal" in2="BackgroundImageFix" result="effect1_dropShadow"/>
<feBlend mode="normal" in="SourceGraphic" in2="effect1_dropShadow" result="shape"/>
<feColorMatrix in="SourceAlpha" type="matrix" values="0 0 0 0 0 0 0 0 0 0 0 0 0 0 0 0 0 0 127 0" result="hardAlpha"/>
<feOffset dy="0.5"/>
<feGaussianBlur stdDeviation="0.5"/>
<feComposite in2="hardAlpha" operator="arithmetic" k2="-1" k3="1"/>
<feColorMatrix type="matrix" values="0 0 0 0 0.0392224 0 0 0 0 0.339377 0 0 0 0 0.666594 0 0 0 1 0"/>
<feBlend mode="normal" in2="shape" result="effect2_innerShadow"/>
</filter>
<filter id="filter1_di" x="49.116" y="11.582" width="78.1297" height="20.562" filterUnits="userSpaceOnUse" color-interpolation-filters="sRGB">
<feFlood flood-opacity="0" result="BackgroundImageFix"/>
<feColorMatrix in="SourceAlpha" type="matrix" values="0 0 0 0 0 0 0 0 0 0 0 0 0 0 0 0 0 0 127 0"/>
<feOffset dy="1"/>
<feGaussianBlur stdDeviation="1.5"/>
<feColorMatrix type="matrix" values="0 0 0 0 1 0 0 0 0 1 0 0 0 0 1 0 0 0 1 0"/>
<feBlend mode="normal" in2="BackgroundImageFix" result="effect1_dropShadow"/>
<feBlend mode="normal" in="SourceGraphic" in2="effect1_dropShadow" result="shape"/>
<feColorMatrix in="SourceAlpha" type="matrix" values="0 0 0 0 0 0 0 0 0 0 0 0 0 0 0 0 0 0 127 0" result="hardAlpha"/>
<feOffset dy="0.5"/>
<feGaussianBlur stdDeviation="0.5"/>
<feComposite in2="hardAlpha" operator="arithmetic" k2="-1" k3="1"/>
<feColorMatrix type="matrix" values="0 0 0 0 0.0392224 0 0 0 0 0.339377 0 0 0 0 0.666594 0 0 0 1 0"/>
<feBlend mode="normal" in2="shape" result="effect2_innerShadow"/>
</filter>
</defs>
</svg>
