<svg width="550" height="550" viewBox="0 0 550 550" fill="none" xmlns="http://www.w3.org/2000/svg">
<path d="M550 452.64H0V452.915H550V452.64Z" fill="#EBEBEB"/>
<path d="M489.786 465.235H433.796V465.51H489.786V465.235Z" fill="#EBEBEB"/>
<path d="M109.638 461.979H57.707V462.254H109.638V461.979Z" fill="#EBEBEB"/>
<path d="M437.798 460.131H416.689V460.406H437.798V460.131Z" fill="#EBEBEB"/>
<path d="M364.342 467.424H348.854V467.699H364.342V467.424Z" fill="#EBEBEB"/>
<path d="M339.052 467.424H300.068V467.699H339.052V467.424Z" fill="#EBEBEB"/>
<path d="M277.43 462.782H214.741V463.057H277.43V462.782Z" fill="#EBEBEB"/>
<path d="M260.701 403.58H48.3022C46.6383 403.577 45.0435 402.914 43.868 401.737C42.6925 400.559 42.0322 398.963 42.0322 397.299V98.726C42.0467 97.0716 42.7133 95.4898 43.8873 94.324C45.0613 93.1583 46.6478 92.5028 48.3022 92.5H260.701C262.367 92.5 263.965 93.1617 265.143 94.3397C266.32 95.5176 266.982 97.1152 266.982 98.781V397.299C266.982 398.965 266.32 400.562 265.143 401.74C263.965 402.918 262.367 403.58 260.701 403.58ZM48.3022 92.72C46.7112 92.7229 45.1864 93.357 44.0625 94.483C42.9385 95.609 42.3072 97.135 42.3072 98.726V397.299C42.3072 398.89 42.9385 400.416 44.0625 401.542C45.1864 402.668 46.7112 403.302 48.3022 403.305H260.701C262.293 403.302 263.819 402.668 264.945 401.543C266.071 400.417 266.704 398.891 266.707 397.299V98.726C266.704 97.134 266.071 95.608 264.945 94.4823C263.819 93.3566 262.293 92.7229 260.701 92.72H48.3022Z" fill="#EBEBEB"/>
<path d="M498.641 403.58H286.231C284.566 403.577 282.97 402.914 281.793 401.737C280.616 400.56 279.953 398.964 279.95 397.299V98.726C279.968 97.0706 280.637 95.4888 281.812 94.3234C282.988 93.1579 284.576 92.5028 286.231 92.5H498.641C500.294 92.5057 501.877 93.1625 503.049 94.3279C504.221 95.4933 504.886 97.0735 504.9 98.726V397.299C504.9 398.961 504.241 400.555 503.068 401.733C501.895 402.91 500.303 403.574 498.641 403.58ZM286.231 92.72C284.639 92.7229 283.113 93.3566 281.988 94.4823C280.862 95.608 280.228 97.134 280.225 98.726V397.299C280.228 398.891 280.862 400.417 281.988 401.543C283.113 402.668 284.639 403.302 286.231 403.305H498.641C500.233 403.302 501.759 402.668 502.885 401.543C504.011 400.417 504.644 398.891 504.647 397.299V98.726C504.644 97.134 504.011 95.608 502.885 94.4823C501.759 93.3566 500.233 92.7229 498.641 92.72H286.231Z" fill="#EBEBEB"/>
<path d="M84.7113 259.018H239.404L239.404 121.727L84.7113 121.727L84.7113 259.018Z" fill="#E6E6E6"/>
<path d="M81.2787 259.018H235.972L235.972 121.727L81.2787 121.727L81.2787 259.018Z" fill="#F5F5F5"/>
<path d="M229.801 252.099V128.668H87.4498V252.099H229.801Z" fill="white"/>
<path d="M90.0361 252.099L90.0361 128.668H87.4401L87.4401 252.099H90.0361Z" fill="#E6E6E6"/>
<path d="M83.8309 240.285L233.42 240.285V230.979L83.8309 230.979V240.285Z" fill="#F5F5F5"/>
<path d="M74.5459 110.265H246.146C246.271 110.264 246.395 110.287 246.511 110.334C246.627 110.381 246.733 110.45 246.822 110.538C246.911 110.626 246.982 110.731 247.03 110.847C247.078 110.962 247.103 111.086 247.103 111.211C247.1 111.463 246.998 111.704 246.819 111.881C246.64 112.058 246.398 112.157 246.146 112.157H74.5459C74.292 112.157 74.0486 112.056 73.8692 111.877C73.6897 111.697 73.5889 111.454 73.5889 111.2C73.5903 111.076 73.6162 110.953 73.6651 110.839C73.7139 110.725 73.7848 110.621 73.8737 110.534C73.9626 110.448 74.0677 110.379 74.183 110.333C74.2983 110.287 74.4216 110.264 74.5459 110.265Z" fill="#E6E6E6"/>
<path d="M71.2129 111.2C71.2129 111.67 71.3522 112.129 71.6133 112.52C71.8744 112.911 72.2455 113.215 72.6796 113.395C73.1138 113.575 73.5915 113.622 74.0524 113.53C74.5133 113.438 74.9367 113.212 75.269 112.88C75.6013 112.548 75.8276 112.124 75.9192 111.663C76.0109 111.202 75.9639 110.725 75.784 110.29C75.6042 109.856 75.2997 109.485 74.9089 109.224C74.5182 108.963 74.0588 108.824 73.5889 108.824C72.9587 108.824 72.3544 109.074 71.9088 109.52C71.4632 109.965 71.2129 110.57 71.2129 111.2Z" fill="#E6E6E6"/>
<path d="M238.116 116.535C238.456 116.532 238.782 116.396 239.023 116.155C239.264 115.914 239.4 115.589 239.403 115.248V112.487C239.403 112.146 239.267 111.819 239.026 111.577C238.785 111.336 238.457 111.2 238.116 111.2C237.777 111.2 237.453 111.335 237.214 111.574C236.974 111.813 236.84 112.138 236.84 112.476V115.237C236.838 115.406 236.87 115.574 236.934 115.731C236.997 115.887 237.091 116.03 237.209 116.15C237.328 116.271 237.469 116.367 237.624 116.433C237.78 116.499 237.947 116.534 238.116 116.535Z" fill="#E6E6E6"/>
<path d="M88.8678 116.535C89.0401 116.54 89.2116 116.51 89.3722 116.447C89.5327 116.385 89.6793 116.291 89.8032 116.171C89.9271 116.051 90.0258 115.908 90.0938 115.75C90.1617 115.591 90.1974 115.421 90.1988 115.248V112.487C90.1989 112.315 90.1643 112.144 90.0968 111.985C90.0294 111.825 89.9307 111.682 89.8065 111.561C89.6823 111.441 89.5351 111.348 89.3739 111.285C89.2126 111.223 89.0405 111.195 88.8678 111.2C88.5294 111.2 88.2049 111.335 87.9656 111.574C87.7263 111.813 87.5918 112.138 87.5918 112.476V115.237C87.5904 115.406 87.6223 115.574 87.6856 115.731C87.7489 115.888 87.8425 116.03 87.961 116.151C88.0795 116.271 88.2206 116.367 88.3762 116.433C88.5318 116.499 88.6988 116.534 88.8678 116.535Z" fill="#E6E6E6"/>
<path opacity="0.4" d="M74.8549 245.587L233.42 245.587L233.42 111.211L74.8549 111.211L74.8549 245.587Z" fill="#E0E0E0"/>
<path d="M220.473 111.2C220.473 111.67 220.612 112.129 220.873 112.52C221.134 112.911 221.505 113.215 221.939 113.395C222.374 113.575 222.851 113.622 223.312 113.53C223.773 113.438 224.196 113.212 224.529 112.88C224.861 112.548 225.087 112.124 225.179 111.663C225.271 111.202 225.224 110.725 225.044 110.29C224.864 109.856 224.559 109.485 224.169 109.224C223.778 108.963 223.319 108.824 222.849 108.824C222.219 108.824 221.614 109.074 221.169 109.52C220.723 109.965 220.473 110.57 220.473 111.2Z" fill="#E6E6E6"/>
<path d="M198.353 445.809H233.487L233.487 301.093H198.353V445.809Z" fill="#F0F0F0"/>
<path d="M91.8064 452.64H226.732V445.809H91.8064V452.64Z" fill="#F0F0F0"/>
<path d="M198.34 301.093H85.0615V445.809H198.34V301.093Z" fill="#F5F5F5"/>
<path d="M184.526 355.774H98.8799V391.117H184.526V355.774Z" fill="#F0F0F0"/>
<path d="M184.526 397.574H98.8799V432.917H184.526V397.574Z" fill="#F0F0F0"/>
<path d="M184.526 313.985H98.8799V349.328H184.526V313.985Z" fill="#F0F0F0"/>
<path d="M80.3758 301.093H198.34V289.213H80.3758V301.093Z" fill="#F0F0F0"/>
<path d="M238.38 289.213H198.34V301.093H238.38V289.213Z" fill="#E6E6E6"/>
<path d="M149.665 270.161H130.943V289.202H149.665V270.161Z" fill="#F0F0F0"/>
<path d="M97.7246 289.213H130.934V270.172H97.7246V289.213Z" fill="#F5F5F5"/>
<g style="mix-blend-mode:multiply" opacity="0.7">
<path d="M149.656 273.032H97.5381V274.572H149.656V273.032Z" fill="#E6E6E6"/>
</g>
<path d="M150.688 269.237H130.943V273.692H150.688V269.237Z" fill="#F0F0F0"/>
<path d="M96.6906 273.681H130.934V269.226H96.6906V273.681Z" fill="#F5F5F5"/>
<path d="M216.151 270.161H197.429V289.202H216.151V270.161Z" fill="#F0F0F0"/>
<path d="M164.22 289.213H197.429V270.172H164.22V289.213Z" fill="#F5F5F5"/>
<g style="mix-blend-mode:multiply" opacity="0.7">
<path d="M216.139 273.032H164.021V274.572H216.139V273.032Z" fill="#E6E6E6"/>
</g>
<path d="M217.174 269.237H197.429V273.692H217.174V269.237Z" fill="#F0F0F0"/>
<path d="M163.186 273.681H197.429V269.226H163.186V273.681Z" fill="#F5F5F5"/>
<path d="M411.674 253.1H484.164V164.462H411.674V253.1Z" fill="#F0F0F0"/>
<path d="M396.109 253.1H479.489V164.462H396.109V253.1Z" fill="#F5F5F5"/>
<path d="M403.085 171.447V246.115H472.495V171.447H403.085Z" fill="white"/>
<path d="M419.903 194.074V223.466C419.903 225.975 421.937 228.009 424.446 228.009H451.121C453.63 228.009 455.664 225.975 455.664 223.466V194.074C455.664 191.565 453.63 189.531 451.121 189.531H424.446C421.937 189.531 419.903 191.565 419.903 194.074Z" fill="#F5F5F5"/>
<path d="M317.8 211.894H390.29V123.256L317.8 123.256V211.894Z" fill="#F0F0F0"/>
<path d="M302.247 211.894H385.627V123.256L302.247 123.256V211.894Z" fill="#F5F5F5"/>
<path d="M309.232 130.241V204.909H378.642V130.241H309.232Z" fill="white"/>
<path d="M326.051 158.159V176.969C326.051 182.4 330.454 186.803 335.885 186.803H351.978C357.409 186.803 361.812 182.4 361.812 176.969V158.159C361.812 152.728 357.409 148.325 351.978 148.325H335.885C330.454 148.325 326.051 152.728 326.051 158.159Z" fill="#F5F5F5"/>
<path d="M215.92 452.64H268.082V319.265H215.92V452.64Z" fill="#E6E6E6"/>
<path d="M221.156 452.64H215.909V434.479H226.667L221.156 452.64Z" fill="#F0F0F0"/>
<path d="M297.672 452.64H349.834V319.265H297.672V452.64Z" fill="#E6E6E6"/>
<path d="M215.919 441.486H302.247V319.254H215.919V441.486Z" fill="#F0F0F0"/>
<path d="M219.989 358.205H298.177V324.688H219.989V358.205Z" fill="#E6E6E6"/>
<path d="M251.417 335.094H263.209C268.324 335.094 273.219 330.958 276.739 323.665H237.887C241.407 330.958 246.302 335.094 251.417 335.094Z" fill="#F0F0F0"/>
<path d="M296.987 452.64H302.234V434.479H291.487L296.987 452.64Z" fill="#F0F0F0"/>
<path d="M219.989 397.134H298.177V363.617H219.989V397.134Z" fill="#E6E6E6"/>
<path d="M251.417 374.034H263.209C268.324 374.034 273.219 369.898 276.739 362.594H237.887C241.407 369.898 246.302 374.034 251.417 374.034Z" fill="#F0F0F0"/>
<path d="M219.989 436.074H298.177V402.557H219.989V436.074Z" fill="#E6E6E6"/>
<path d="M251.417 412.974H263.209C268.324 412.974 273.219 408.838 276.739 401.534H237.887C241.407 408.838 246.302 412.974 251.417 412.974Z" fill="#F0F0F0"/>
<path d="M421.795 303.502L412.412 336.447C412.698 407.661 409.486 411.764 409.453 424.007H419.353C420.288 364.409 426.14 369.48 421.795 303.502Z" fill="#F0F0F0"/>
<path d="M419.981 452.64C428.916 452.643 437.584 449.59 444.545 443.987C451.506 438.385 456.342 430.57 458.25 421.84C459.179 417.139 460.515 412.527 462.243 408.057L462.54 407.342H377.433L377.73 408.057C379.452 412.512 380.781 417.109 381.701 421.796C383.602 430.535 388.436 438.36 395.4 443.971C402.363 449.582 411.038 452.641 419.981 452.64Z" fill="#FAFAFA"/>
<path d="M371.921 411.61H468.05L470.8 390.787H369.171L371.921 411.61Z" fill="#F0F0F0"/>
<path d="M416.437 397.794C412.884 329.165 458.171 325.194 476.112 348.404C485.638 373.319 418.483 437.262 416.437 397.794Z" fill="#F0F0F0"/>
<path d="M416.503 369.403C409.254 318.748 442.287 309.178 457.049 323.83C465.728 341.023 420.672 398.542 416.503 369.403Z" fill="#F0F0F0"/>
<path d="M418.617 332.487C411.104 300.521 431.674 292.524 441.937 301.049C448.46 311.543 422.94 350.868 418.617 332.487Z" fill="#F0F0F0"/>
<path d="M411.797 355.268C424.821 316.394 400.17 304.096 386.431 313.468C377.103 325.81 404.306 377.62 411.797 355.268Z" fill="#F0F0F0"/>
<path d="M419.616 335.457C438.547 299.102 416.118 283.108 401.07 290.258C389.949 300.939 408.726 356.368 419.616 335.457Z" fill="#F0F0F0"/>
<path d="M414.821 393.449C424.149 333.532 384.758 325.986 366.916 344.697C356.301 365.718 409.453 427.901 414.821 393.449Z" fill="#F0F0F0"/>
<path d="M275 502.316C392.79 502.316 488.279 496.741 488.279 489.864C488.279 482.987 392.79 477.412 275 477.412C157.209 477.412 61.7207 482.987 61.7207 489.864C61.7207 496.741 157.209 502.316 275 502.316Z" fill="#F5F5F5"/>
</svg>
