<svg width="112" height="137" viewBox="0 0 112 137" fill="none" xmlns="http://www.w3.org/2000/svg">
<path d="M62.4023 21.264L61.4756 20.0015L62.4023 21.264ZM11.531 136.1C12.1917 136.659 13.1798 136.576 13.738 135.915L22.8349 125.149C23.3932 124.489 23.3102 123.501 22.6495 122.942C21.9889 122.384 21.0008 122.467 20.4426 123.128L12.3564 132.697L2.78682 124.611C2.12618 124.053 1.13808 124.136 0.579857 124.797C0.0216218 125.457 0.104637 126.445 0.765274 127.004L11.531 136.1ZM111.635 1.78926C111.527 0.226929 111.526 0.226974 111.526 0.22702C111.525 0.227036 111.524 0.227097 111.524 0.227142C111.522 0.227249 111.52 0.227371 111.518 0.227524C111.514 0.227844 111.508 0.228271 111.501 0.228821C111.486 0.229904 111.465 0.231491 111.438 0.233612C111.385 0.237854 111.308 0.244263 111.207 0.253265C111.007 0.271271 110.714 0.299683 110.336 0.34201C109.581 0.426636 108.482 0.566956 107.092 0.791031C104.313 1.23909 100.364 2.02264 95.6533 3.36722C86.237 6.05508 73.7479 10.9936 61.4756 20.0015L63.329 22.5264C75.2291 13.7917 87.3562 8.99285 96.513 6.37903C101.089 5.07277 104.916 4.31438 107.591 3.88322C108.928 3.66769 109.976 3.53407 110.685 3.45467C111.04 3.41498 111.309 3.38885 111.488 3.37282C111.577 3.36481 111.643 3.35933 111.686 3.35593C111.707 3.35423 111.723 3.35306 111.732 3.35236C111.737 3.35201 111.74 3.35176 111.742 3.35164C111.743 3.35158 111.743 3.35155 111.744 3.35153C111.744 3.35153 111.743 3.35155 111.743 3.35155C111.743 3.35156 111.743 3.35159 111.635 1.78926ZM61.4756 20.0015C33.0997 40.8296 20.4871 69.6262 14.9635 93.1282C12.2008 104.883 11.2046 115.339 10.8987 122.86C10.7458 126.622 10.7654 129.653 10.8237 131.749C10.8528 132.798 10.8917 133.613 10.9235 134.169C10.9394 134.447 10.9536 134.66 10.9639 134.806C10.969 134.878 10.9732 134.934 10.9762 134.973C10.9777 134.992 10.9789 135.007 10.9797 135.017C10.9802 135.022 10.9805 135.027 10.9808 135.03C10.9809 135.031 10.981 135.033 10.9811 135.033C10.9812 135.035 10.9812 135.035 12.5418 134.904C14.1024 134.773 14.1024 134.774 14.1024 134.774C14.1024 134.773 14.1023 134.773 14.1023 134.772C14.1022 134.771 14.102 134.768 14.1017 134.765C14.1011 134.758 14.1002 134.746 14.099 134.73C14.0965 134.699 14.0928 134.65 14.0882 134.584C14.0788 134.452 14.0656 134.253 14.0505 133.99C14.0203 133.463 13.9828 132.679 13.9546 131.662C13.898 129.63 13.8785 126.671 14.0283 122.988C14.3279 115.619 15.3048 105.366 18.0126 93.8448C23.4299 70.795 35.7475 42.7714 63.329 22.5264L61.4756 20.0015Z" fill="#0084FF"/>
</svg>
