<svg width="104" height="104" viewBox="0 0 104 104" fill="none" xmlns="http://www.w3.org/2000/svg">
<path fill-rule="evenodd" clip-rule="evenodd" d="M36.9817 2.3595L75.3158 5.50036C90.9782 6.78365 102.744 20.6939 101.456 36.4064L98.3054 74.8636C97.0181 90.5759 83.1451 102.385 67.4827 101.102L29.1486 97.9613C13.4862 96.678 1.72062 82.7678 3.00799 67.0555L6.15894 28.5983C7.44634 12.8858 21.3193 1.07621 36.9817 2.3595Z" fill="#FEFEFE"/>
<path fill-rule="evenodd" clip-rule="evenodd" d="M91.8267 12.5632C98.3674 18.3525 102.22 27.0586 101.455 36.4066L99.2783 62.9681C88.3549 47.5661 89.8395 27.6293 91.8267 12.5632ZM36.9798 2.35982L63.5635 4.53793C53.6168 13.864 41.1637 23.8898 20.3836 29.1335C20.2062 29.1772 20.0109 29.3439 19.8207 29.5438C15.9963 25.6374 12.2919 21.9807 8.91362 18.484C13.9219 8.14698 24.9165 1.37143 36.9798 2.35982Z" fill="#00CCFF"/>
<path fill-rule="evenodd" clip-rule="evenodd" d="M93.6925 88.2369C88.1182 96.7012 78.2219 101.982 67.4814 101.102L58.3931 100.357C57.1956 90.7407 54.7989 82.1291 51.5986 74.3394C65.7007 81.8435 80.1598 87.9166 93.6925 88.2369Z" fill="#33CC66"/>
<path fill-rule="evenodd" clip-rule="evenodd" d="M58.3929 100.358C57.1691 90.5562 54.7019 81.7978 51.4203 73.8937C44.4794 79.2423 37.2364 83.4373 30.2461 85.1549C27.2663 85.8817 25.0521 84.3311 26.5548 82.3462C43.1911 60.3393 16.9751 40.0414 16.8125 34.0529C16.7553 32.0233 17.8703 30.2306 19.6753 29.3991C15.905 25.5383 12.2461 21.9353 8.91395 18.484C7.41997 21.5732 6.45394 24.9799 6.15745 28.5986L3.0065 67.0557C1.71911 82.7681 13.4847 96.6784 29.1471 97.9616L58.3929 100.358Z" fill="#0000A2"/>
<path fill-rule="evenodd" clip-rule="evenodd" d="M90.4534 28.9326C90.2382 40.4425 92.005 52.7033 99.2794 62.9679L98.3047 74.8637C97.9001 79.8018 96.245 84.3552 93.6931 88.2372C80.1608 87.9168 65.7006 81.8526 51.6073 74.3408C51.5452 74.1941 51.4832 74.0397 51.421 73.8936C70.4504 59.22 87.1397 35.8566 89.8013 31.1363C90.1977 30.4385 90.4085 29.6841 90.4534 28.9326ZM20.3166 29.1532C20.342 29.147 20.368 29.1325 20.3845 29.1338C41.1646 23.8897 53.6173 13.8645 63.564 4.53779L75.3151 5.5006C81.6675 6.02108 87.3698 8.61263 91.8277 12.5632C91.1757 17.4892 90.5806 22.9347 90.4576 28.5759C90.4338 27.3541 89.9532 26.1531 89.0462 25.2071C87.4907 23.5942 85.1563 23.2121 83.1681 24.2524L78.8041 26.5256C47.5554 44.439 26.3665 27.408 20.3166 29.1532Z" fill="#FF00FF"/>
<path fill-rule="evenodd" clip-rule="evenodd" d="M46.9485 3.17654L63.5642 4.53792C53.6175 13.8646 41.1649 23.89 20.3843 29.1339C20.2075 29.1773 20.0116 29.3439 19.8215 29.5443C18.4011 28.0997 17.0034 26.6826 15.6273 25.3001C25.8822 22.007 37.873 15.6035 46.9485 3.17654Z" fill="#52DCFF"/>
<path fill-rule="evenodd" clip-rule="evenodd" d="M79.7097 45.1479C83.6109 53.9741 89.5571 63.283 98.5248 72.1677L99.2786 62.9674C92.0042 52.7034 90.2375 40.442 90.4526 28.9321C90.4071 29.6835 90.1965 30.438 89.8004 31.1362C88.6681 33.1428 85.0101 38.5117 79.7097 45.1479ZM72.8985 5.30216L75.3143 5.5001C81.6663 6.02054 87.369 8.61271 91.8265 12.5632C91.175 17.4887 90.58 22.9342 90.457 28.5759C90.4332 27.3536 89.952 26.1526 89.0454 25.207C87.4899 23.5937 85.1551 23.2115 83.1675 24.2523L78.8033 26.5256C77.3274 27.3753 75.8662 28.144 74.4359 28.8397C72.1864 18.3315 72.476 9.74945 72.8985 5.30216Z" fill="#FF63FF"/>
<path fill-rule="evenodd" clip-rule="evenodd" d="M31.9996 68.8001C33.3074 52.4336 16.9374 38.7852 16.8125 34.0526C16.7553 32.0228 17.8702 30.2303 19.6752 29.3992C15.905 25.5384 12.2461 21.9354 8.91337 18.4835C7.41992 21.5733 6.45394 24.9794 6.1574 28.5987L4.46342 49.2735C10.3955 51.9922 21.0975 57.8819 31.9996 68.8001ZM58.3929 100.357C57.1691 90.5558 54.7019 81.7974 51.4203 73.8933C48.3033 76.2937 45.1304 78.4656 41.9376 80.2785C46.1657 85.9197 50.1975 92.4493 53.7499 99.977L58.3929 100.357Z" fill="#3A3AC7"/>
<path fill-rule="evenodd" clip-rule="evenodd" d="M93.6925 88.2369C92.946 89.3707 92.1222 90.4402 91.2371 91.4465C75.0623 92.8848 61.2142 88.7461 55.7811 86.7988C54.6259 82.4219 53.2119 78.2728 51.5986 74.3394C65.7007 81.8435 80.1598 87.9167 93.6925 88.2369Z" fill="#5FE68C"/>
<path fill-rule="evenodd" clip-rule="evenodd" d="M79.7101 45.1484C79.7101 45.1484 74.4815 68.9783 64.1715 80.5156C59.686 78.5212 53.9055 75.5663 51.6071 74.3407C51.5444 74.1945 51.4828 74.0401 51.4201 73.8939C62.3614 65.4539 72.5374 54.1378 79.7101 45.1484Z" fill="#D100D1"/>
</svg>
