<svg width="235" height="63" viewBox="0 0 235 63" fill="none" xmlns="http://www.w3.org/2000/svg">
<rect x="95.9736" y="28.7866" width="84.5072" height="26.8738" rx="7.0102" transform="rotate(3.76709 95.9736 28.7866)" fill="#D100D1"/>
<path d="M72.3739 22.0957C71.4348 22.8907 70.336 23.24 69.0774 23.1437C67.8188 23.0474 66.7859 22.535 65.9787 21.6065C65.1837 20.6674 64.8344 19.5686 64.9307 18.31C65.027 17.0514 65.539 16.0241 66.4667 15.2283C67.4066 14.422 68.5058 14.067 69.7644 14.1633C71.0231 14.2596 72.0555 14.7777 72.8618 15.7176C73.669 16.6461 74.0245 17.7397 73.9282 18.9983C73.8319 20.257 73.3138 21.2894 72.3739 22.0957ZM67.6423 20.2111C68.0507 20.6872 68.5837 20.9504 69.2413 21.0007C69.899 21.051 70.4659 20.872 70.9419 20.4636C71.418 20.0552 71.682 19.5108 71.7341 18.8305C71.7861 18.1501 71.6079 17.5719 71.1996 17.0959C70.7912 16.6198 70.2581 16.3567 69.6005 16.3063C68.9428 16.256 68.376 16.4351 67.8999 16.8434C67.4352 17.2527 67.1768 17.7975 67.1248 18.4778C67.0727 19.1582 67.2452 19.7359 67.6423 20.2111ZM77.8792 16.4949C78.1249 15.9662 78.4906 15.5836 78.9764 15.3471C79.4734 15.1114 80.0111 15.0156 80.5894 15.0599L80.402 17.5091C79.7391 17.3785 79.1277 17.4686 78.5679 17.7794C78.0194 18.091 77.7139 18.655 77.6515 19.4714L77.3405 23.5364L75.1464 23.3685L75.797 14.8643L77.9911 15.0322L77.8792 16.4949ZM87.2783 14.7162C86.9155 14.6885 86.6079 14.5338 86.3558 14.2521C86.1158 13.9601 86.0097 13.6326 86.0374 13.2697C86.0652 12.9069 86.2199 12.5994 86.5015 12.3472C86.7945 12.0959 87.1224 11.9841 87.4852 12.0119C87.8594 12.0405 88.1665 12.2009 88.4065 12.4929C88.6578 12.7859 88.7695 13.1138 88.7418 13.4766C88.714 13.8395 88.5537 14.1466 88.2607 14.3979C87.98 14.6387 87.6525 14.7448 87.2783 14.7162ZM85.4611 24.1577L86.1117 15.6534L88.3058 15.8213L87.6552 24.3255L85.4611 24.1577ZM95.0605 16.0986C95.9903 16.1697 96.7319 16.5401 97.2851 17.2097C97.8497 17.8802 98.0899 18.7654 98.0058 19.8652L97.6063 25.0868L95.4122 24.919L95.7909 19.9695C95.8342 19.4026 95.7141 18.96 95.4305 18.6417C95.1478 18.3122 94.7513 18.1279 94.2411 18.0888C93.6741 18.0455 93.2071 18.1865 92.84 18.512C92.473 18.8375 92.2626 19.3517 92.2088 20.0547L91.8574 24.647L89.6634 24.4792L90.314 15.9749L92.5081 16.1428L92.4352 17.0953C93.0289 16.3423 93.904 16.0101 95.0605 16.0986ZM104.833 19.2071L102.911 19.0601L102.641 22.5979C102.618 22.8927 102.675 23.1138 102.812 23.2611C102.949 23.4085 103.159 23.5043 103.441 23.5487C103.723 23.5817 104.075 23.6029 104.496 23.6123L104.344 25.6023C102.823 25.657 101.768 25.4338 101.179 24.9325C100.602 24.4321 100.357 23.5979 100.447 22.43L100.717 18.8922L99.2377 18.779L99.399 16.67L100.879 16.7832L101.01 15.0653L103.255 14.5699L103.073 16.9511L104.995 17.0981L104.833 19.2071ZM107.736 22.4915C107.949 23.5799 108.708 24.174 110.012 24.2738C110.851 24.338 111.507 24.1031 111.982 23.5691L113.672 24.7249C112.74 25.874 111.458 26.3861 109.825 26.2612C108.419 26.1536 107.324 25.6421 106.538 24.7266C105.753 23.8111 105.41 22.707 105.508 21.4144C105.607 20.1331 106.108 19.0993 107.012 18.3131C107.917 17.5155 109.027 17.1671 110.342 17.2677C111.59 17.3631 112.583 17.8725 113.322 18.7959C114.072 19.7201 114.399 20.8172 114.302 22.0871C114.28 22.3706 114.229 22.6689 114.148 22.9821L107.736 22.4915ZM107.832 20.7881L112.169 21.1199C112.088 20.5321 111.861 20.0812 111.485 19.7674C111.122 19.4544 110.69 19.2788 110.191 19.2407C109.602 19.1956 109.102 19.3113 108.693 19.588C108.285 19.8533 107.998 20.2533 107.832 20.7881ZM122.607 18.4455L124.75 18.6095L124.13 26.7055C124.03 28.0208 123.516 28.9909 122.59 29.6158C121.676 30.2415 120.606 30.5076 119.381 30.4139C118.463 30.3436 117.666 30.1058 116.99 29.7005C116.325 29.2961 115.831 28.7394 115.509 28.0305L117.462 27.1021C117.832 27.9287 118.545 28.3824 119.599 28.4631C120.291 28.516 120.849 28.3762 121.274 28.0438C121.698 27.7113 121.936 27.2105 121.987 26.5415L122.058 25.6231C121.345 26.4354 120.405 26.7969 119.237 26.7075C118.035 26.6156 117.058 26.1188 116.306 25.2173C115.566 24.3053 115.242 23.2426 115.335 22.0293C115.427 20.8274 115.914 19.8325 116.795 19.0445C117.677 18.2565 118.713 17.9081 119.904 17.9992C121.071 18.0885 121.946 18.5888 122.526 19.5L122.607 18.4455ZM118.064 23.9318C118.484 24.3974 119.041 24.6566 119.732 24.7095C120.424 24.7625 121.007 24.5904 121.483 24.1933C121.97 23.7858 122.24 23.2419 122.292 22.5616C122.343 21.8926 122.158 21.3253 121.738 20.8597C121.329 20.3836 120.779 20.1191 120.088 20.0662C119.396 20.0133 118.806 20.1906 118.319 20.5981C117.844 20.9952 117.581 21.5282 117.529 22.1972C117.477 22.8775 117.656 23.4557 118.064 23.9318ZM128.822 20.3923C129.067 19.8636 129.433 19.481 129.919 19.2444C130.416 19.0087 130.953 18.913 131.532 18.9572L131.344 21.4065C130.681 21.2759 130.07 21.366 129.51 21.6767C128.962 21.9883 128.656 22.5523 128.594 23.3687L128.283 27.4338L126.089 27.2659L126.739 18.7617L128.933 18.9295L128.822 20.3923ZM138.95 19.6958L141.144 19.8637L140.493 28.3679L138.299 28.2001L138.376 27.1966C137.655 27.974 136.699 28.3172 135.508 28.2261C134.374 28.1393 133.432 27.6338 132.682 26.7096C131.943 25.7749 131.622 24.6783 131.719 23.4196C131.815 22.161 132.299 21.1316 133.17 20.3314C134.053 19.5208 135.061 19.1589 136.195 19.2456C137.386 19.3367 138.278 19.8213 138.873 20.6993L138.95 19.6958ZM134.443 25.3731C134.852 25.8492 135.396 26.1132 136.077 26.1653C136.757 26.2173 137.335 26.0391 137.811 25.6308C138.299 25.2119 138.57 24.651 138.624 23.9479C138.678 23.2449 138.495 22.655 138.075 22.178C137.668 21.6906 137.124 21.4209 136.444 21.3689C135.763 21.3168 135.185 21.5007 134.708 21.9204C134.232 22.3288 133.967 22.8845 133.913 23.5875C133.859 24.2905 134.036 24.8857 134.443 25.3731ZM147.836 22.4971L145.914 22.3501L145.644 25.8878C145.621 26.1826 145.678 26.4037 145.815 26.5511C145.952 26.6984 146.162 26.7943 146.443 26.8386C146.726 26.8717 147.078 26.8929 147.499 26.9023L147.347 28.8923C145.826 28.947 144.771 28.7237 144.182 28.2224C143.604 27.722 143.36 26.8879 143.45 25.72L143.72 22.1822L142.24 22.069L142.402 19.9599L143.882 20.0732L144.013 18.3553L146.258 17.8598L146.076 20.241L147.998 20.3881L147.836 22.4971ZM150.711 19.5692C150.348 19.5414 150.041 19.3867 149.789 19.1051C149.549 18.813 149.443 18.4856 149.47 18.1227C149.498 17.7599 149.653 17.4523 149.934 17.2002C150.227 16.9488 150.555 16.8371 150.918 16.8648C151.292 16.8935 151.599 17.0538 151.839 17.3459C152.091 17.6389 152.202 17.9668 152.175 18.3296C152.147 18.6925 151.987 18.9995 151.694 19.2509C151.413 19.4917 151.085 19.5978 150.711 19.5692ZM148.894 29.0106L149.545 20.5064L151.739 20.6743L151.088 29.1785L148.894 29.0106ZM160.423 28.8319C159.484 29.6269 158.385 29.9762 157.126 29.8799C155.867 29.7837 154.835 29.2712 154.027 28.3427C153.232 27.4036 152.883 26.3048 152.979 25.0462C153.076 23.7876 153.588 22.7603 154.515 21.9645C155.455 21.1582 156.555 20.8032 157.813 20.8995C159.072 20.9958 160.104 21.5139 160.911 22.4538C161.718 23.3823 162.073 24.4759 161.977 25.7345C161.881 26.9932 161.362 28.0256 160.423 28.8319ZM155.691 26.9473C156.099 27.4234 156.632 27.6866 157.29 27.7369C157.948 27.7872 158.515 27.6082 158.991 27.1998C159.467 26.7914 159.731 26.247 159.783 25.5667C159.835 24.8863 159.657 24.3081 159.248 23.8321C158.84 23.356 158.307 23.0929 157.649 23.0425C156.992 22.9922 156.425 23.1713 155.949 23.5797C155.484 23.9889 155.226 24.5337 155.173 25.214C155.121 25.8944 155.294 26.4721 155.691 26.9473ZM168.592 21.7241C169.522 21.7953 170.264 22.1657 170.817 22.8353C171.381 23.5058 171.622 24.3909 171.537 25.4908L171.138 30.7124L168.944 30.5446L169.323 25.5951C169.366 25.0282 169.246 24.5856 168.962 24.2673C168.68 23.9378 168.283 23.7534 167.773 23.7144C167.206 23.671 166.739 23.8121 166.372 24.1376C166.005 24.4631 165.794 24.9773 165.74 25.6803L165.389 30.2726L163.195 30.1047L163.846 21.6005L166.04 21.7684L165.967 22.7208C166.561 21.9679 167.436 21.6357 168.592 21.7241ZM68.8869 36.3999L71.217 36.5782L67.8621 44.8755L65.77 44.7155L64.5995 39.4422L62.6405 44.4761L60.5484 44.316L58.4947 35.6049L60.8249 35.7831L61.8711 41.1154L63.8184 36.0122L65.8934 36.1709L67.0404 41.5279L68.8869 36.3999ZM73.5663 35.7315C73.2034 35.7037 72.8959 35.549 72.6437 35.2674C72.4038 34.9753 72.2976 34.6478 72.3254 34.285C72.3532 33.9221 72.5079 33.6146 72.7895 33.3624C73.0824 33.1111 73.4103 32.9993 73.7732 33.0271C74.1474 33.0557 74.4544 33.2161 74.6944 33.5082C74.9457 33.8011 75.0575 34.129 75.0297 34.4919C75.002 34.8547 74.8416 35.1618 74.5487 35.4131C74.2679 35.654 73.9405 35.7601 73.5663 35.7315ZM71.749 45.1729L72.3997 36.6687L74.5937 36.8365L73.9431 45.3408L71.749 45.1729ZM81.305 39.4714L79.3831 39.3243L79.1124 42.8621C79.0898 43.1569 79.1471 43.378 79.2841 43.5253C79.4211 43.6727 79.6304 43.7685 79.9122 43.8129C80.1948 43.8459 80.5467 43.8672 80.968 43.8766L80.8157 45.8666C79.2947 45.9213 78.2396 45.698 77.6507 45.1967C77.0731 44.6963 76.829 43.8622 76.9183 42.6942L77.189 39.1565L75.7092 39.0433L75.8706 36.9342L77.3503 37.0474L77.4817 35.3296L79.7266 34.8341L79.5444 37.2153L81.4664 37.3623L81.305 39.4714ZM87.7599 37.6043C88.6897 37.6754 89.4312 38.0458 89.9845 38.7154C90.5491 39.3859 90.7893 40.2711 90.7051 41.371L90.3057 46.5926L88.1116 46.4247L88.4902 41.4753C88.5336 40.9083 88.4135 40.4657 88.1299 40.1475C87.8472 39.8179 87.4507 39.6336 86.9404 39.5946C86.3735 39.5512 85.9065 39.6923 85.5394 40.0177C85.1723 40.3432 84.9619 40.8575 84.9081 41.5605L84.5568 46.1528L82.3627 45.9849L83.2736 34.079L85.4677 34.2469L85.1346 38.601C85.7282 37.8481 86.6033 37.5158 87.7599 37.6043Z" fill="#393969"/>
<path d="M106.879 39.3065L109.226 39.4861L105.48 47.7535C104.944 48.9443 104.287 49.7836 103.508 50.2715C102.74 50.7716 101.813 50.9516 100.729 50.8117L100.885 48.7706C101.474 48.8271 101.949 48.7379 102.309 48.5032C102.68 48.2693 102.99 47.871 103.238 47.3083L100.381 38.8094L102.78 38.9929L104.554 44.8769L106.879 39.3065ZM116.614 47.5446C115.674 48.3396 114.576 48.6889 113.317 48.5926C112.058 48.4963 111.026 47.9839 110.218 47.0553C109.423 46.1163 109.074 45.0175 109.17 43.7588C109.267 42.5002 109.779 41.473 110.706 40.6772C111.646 39.8709 112.745 39.5158 114.004 39.6121C115.263 39.7084 116.295 40.2265 117.101 41.1664C117.909 42.095 118.264 43.1886 118.168 44.4472C118.072 45.7058 117.553 46.7383 116.614 47.5446ZM111.882 45.66C112.29 46.136 112.823 46.3992 113.481 46.4495C114.139 46.4999 114.706 46.3208 115.182 45.9124C115.658 45.504 115.922 44.9597 115.974 44.2793C116.026 43.599 115.848 43.0208 115.439 42.5448C115.031 42.0687 114.498 41.8055 113.84 41.7552C113.182 41.7049 112.616 41.8839 112.14 42.2923C111.675 42.7016 111.416 43.2464 111.364 43.9267C111.312 44.607 111.485 45.1848 111.882 45.66ZM125.649 40.7426L127.844 40.9104L127.193 49.4147L124.999 49.2468L125.072 48.2943C124.478 49.0473 123.603 49.3795 122.446 49.291C121.517 49.2199 120.769 48.8491 120.205 48.1786C119.651 47.509 119.417 46.6242 119.501 45.5244L119.901 40.3028L122.095 40.4706L121.716 45.4201C121.673 45.987 121.792 46.4353 122.075 46.7649C122.359 47.0831 122.756 47.2617 123.266 47.3008C123.833 47.3442 124.3 47.2031 124.667 46.8776C125.034 46.5521 125.244 46.0379 125.298 45.3349L125.649 40.7426ZM131.935 42.6948C132.181 42.1661 132.547 41.7835 133.032 41.5469C133.529 41.3112 134.067 41.2155 134.645 41.2597L134.458 43.709C133.795 43.5784 133.184 43.6685 132.624 43.9792C132.075 44.2908 131.77 44.8548 131.708 45.6713L131.397 49.7363L129.202 49.5684L129.853 41.0642L132.047 41.232L131.935 42.6948ZM145.248 51.0355C143.456 50.8984 142.022 50.1899 140.945 48.91C139.868 47.63 139.397 46.117 139.53 44.3708C139.665 42.6132 140.361 41.1895 141.619 40.0996C142.878 38.9983 144.404 38.5163 146.195 38.6533C147.272 38.7357 148.245 39.0668 149.113 39.6464C149.993 40.2156 150.656 40.9506 151.1 41.8514L148.986 42.8701C148.732 42.3146 148.344 41.8687 147.822 41.5322C147.302 41.1844 146.701 40.9845 146.021 40.9325C144.864 40.844 143.901 41.1352 143.131 41.8063C142.372 42.4782 141.949 43.3924 141.86 44.549C141.773 45.6943 142.053 46.6566 142.7 47.4361C143.359 48.2164 144.267 48.6509 145.423 48.7393C146.104 48.7914 146.727 48.6908 147.294 48.4377C147.873 48.174 148.324 47.7922 148.648 47.2923L150.582 48.6208C150.006 49.4435 149.245 50.0753 148.299 50.5161C147.353 50.9456 146.336 51.1188 145.248 51.0355ZM158.359 51.799L156.277 47.4825L154.491 47.3459L154.175 51.4789L151.827 51.2993L152.738 39.3934L157.501 39.7578C158.601 39.8419 159.506 40.299 160.219 41.1291C160.931 41.9591 161.245 42.9184 161.162 44.0069C161.105 44.744 160.843 45.4139 160.375 46.0168C159.908 46.6083 159.316 47.0364 158.6 47.301L160.893 51.9929L158.359 51.799ZM154.918 41.7671L154.648 45.2878L157.063 45.4726C157.506 45.5064 157.899 45.3654 158.242 45.0495C158.586 44.7223 158.777 44.3149 158.815 43.8274C158.852 43.3398 158.725 42.9138 158.433 42.5493C158.142 42.1848 157.775 41.9857 157.333 41.9519L154.918 41.7671ZM174.837 41.0841L173.926 52.99L171.596 52.8117L172.186 45.0899L168.413 50.3613L168.141 50.3405L165.212 44.5734L164.622 52.2782L162.275 52.0986L163.186 40.1927L165.601 40.3775L168.589 46.2688L172.421 40.8993L174.837 41.0841Z" fill="white"/>
</svg>
