<svg width="452" height="407" viewBox="0 0 452 407" fill="none" xmlns="http://www.w3.org/2000/svg">
<path d="M228 14L112 71M228 14L347.5 252.5M228 14L108 252.5M228 14L336 71" stroke="#ADADAD"/>
<circle opacity="0.2" cx="228" cy="15" r="15" fill="#4396F7"/>
<circle cx="228" cy="15" r="6" fill="#4396F7"/>
<rect y="67" width="216" height="160" rx="20" fill="white"/>
<rect x="0.5" y="67.5" width="215" height="159" rx="19.5" stroke="#5555C4" stroke-opacity="0.2"/>
<rect y="247" width="216" height="160" rx="20" fill="white"/>
<rect x="0.5" y="247.5" width="215" height="159" rx="19.5" stroke="#5555C4" stroke-opacity="0.2"/>
<rect x="236" y="67" width="216" height="160" rx="20" fill="white"/>
<rect x="236.5" y="67.5" width="215" height="159" rx="19.5" stroke="#5555C4" stroke-opacity="0.2"/>
<rect x="236" y="247" width="216" height="160" rx="20" fill="white"/>
<rect x="236.5" y="247.5" width="215" height="159" rx="19.5" stroke="#5555C4" stroke-opacity="0.2"/>
<g clip-path="url(#clip0)">
<path d="M82.9188 153.914V168.196L96.2556 160.604C99.9732 161.677 103.925 162.256 108.019 162.256C129.968 162.256 147.758 145.632 147.758 125.128C147.758 104.623 129.968 88 108.019 88C86.0726 88 68.2812 104.623 68.2812 125.128C68.2812 136.739 73.9858 147.106 82.9188 153.914Z" fill="url(#paint0_linear)"/>
<path d="M103.776 114.96L82.3457 137.682L101.849 126.966L112.04 137.682L133.349 114.96L114.062 125.488L103.776 114.96Z" fill="white"/>
</g>
<path d="M75.8581 187.962V200.771H73.3511V192.464L69.7463 198.411H69.4535L65.8487 192.482V200.771H63.3234V187.962H65.9219L69.5999 194.019L73.2596 187.962H75.8581ZM80.1295 197.167C80.4467 198.313 81.3067 198.887 82.7096 198.887C83.6124 198.887 84.2955 198.582 84.7591 197.972L86.6622 199.07C85.7594 200.375 84.4297 201.028 82.673 201.028C81.1603 201.028 79.9465 200.57 79.0316 199.655C78.1167 198.74 77.6592 197.588 77.6592 196.197C77.6592 194.818 78.1106 193.672 79.0133 192.757C79.916 191.83 81.0749 191.366 82.49 191.366C83.832 191.366 84.936 191.83 85.8021 192.757C86.6805 193.684 87.1196 194.831 87.1196 196.197C87.1196 196.502 87.0891 196.825 87.0281 197.167H80.1295ZM80.0929 195.337H84.7591C84.6249 194.715 84.3443 194.251 83.9173 193.946C83.5026 193.641 83.0268 193.489 82.49 193.489C81.8557 193.489 81.3311 193.653 80.9164 193.983C80.5016 194.3 80.2271 194.751 80.0929 195.337ZM90.5877 194.221C90.5877 194.465 90.7462 194.666 91.0634 194.824C91.3928 194.971 91.7893 195.105 92.2528 195.227C92.7164 195.337 93.18 195.483 93.6435 195.666C94.1071 195.837 94.4975 196.13 94.8147 196.544C95.144 196.959 95.3087 197.478 95.3087 198.1C95.3087 199.039 94.9549 199.765 94.2474 200.277C93.552 200.778 92.6798 201.028 91.6307 201.028C89.752 201.028 88.4711 200.302 87.788 198.85L89.8374 197.697C90.1058 198.49 90.7035 198.887 91.6307 198.887C92.4724 198.887 92.8933 198.624 92.8933 198.1C92.8933 197.856 92.7286 197.661 92.3992 197.514C92.082 197.356 91.6917 197.215 91.2281 197.093C90.7645 196.971 90.301 196.819 89.8374 196.636C89.3738 196.453 88.9774 196.166 88.648 195.776C88.3308 195.373 88.1722 194.873 88.1722 194.275C88.1722 193.373 88.5016 192.665 89.1604 192.153C89.8313 191.628 90.6608 191.366 91.649 191.366C92.3931 191.366 93.0702 191.537 93.6801 191.878C94.2901 192.208 94.772 192.683 95.1257 193.306L93.1129 194.404C92.8201 193.781 92.3321 193.47 91.649 193.47C91.344 193.47 91.0878 193.537 90.8804 193.672C90.6852 193.806 90.5877 193.989 90.5877 194.221ZM98.5219 194.221C98.5219 194.465 98.6804 194.666 98.9976 194.824C99.327 194.971 99.7235 195.105 100.187 195.227C100.651 195.337 101.114 195.483 101.578 195.666C102.041 195.837 102.432 196.13 102.749 196.544C103.078 196.959 103.243 197.478 103.243 198.1C103.243 199.039 102.889 199.765 102.182 200.277C101.486 200.778 100.614 201.028 99.5649 201.028C97.6862 201.028 96.4053 200.302 95.7222 198.85L97.7716 197.697C98.04 198.49 98.6378 198.887 99.5649 198.887C100.407 198.887 100.827 198.624 100.827 198.1C100.827 197.856 100.663 197.661 100.333 197.514C100.016 197.356 99.6259 197.215 99.1623 197.093C98.6987 196.971 98.2352 196.819 97.7716 196.636C97.308 196.453 96.9116 196.166 96.5822 195.776C96.265 195.373 96.1064 194.873 96.1064 194.275C96.1064 193.373 96.4358 192.665 97.0946 192.153C97.7655 191.628 98.5951 191.366 99.5832 191.366C100.327 191.366 101.004 191.537 101.614 191.878C102.224 192.208 102.706 192.683 103.06 193.306L101.047 194.404C100.754 193.781 100.266 193.47 99.5832 193.47C99.2782 193.47 99.022 193.537 98.8146 193.672C98.6195 193.806 98.5219 193.989 98.5219 194.221ZM106.63 197.167C106.948 198.313 107.808 198.887 109.211 198.887C110.113 198.887 110.796 198.582 111.26 197.972L113.163 199.07C112.26 200.375 110.931 201.028 109.174 201.028C107.661 201.028 106.447 200.57 105.533 199.655C104.618 198.74 104.16 197.588 104.16 196.197C104.16 194.818 104.612 193.672 105.514 192.757C106.417 191.83 107.576 191.366 108.991 191.366C110.333 191.366 111.437 191.83 112.303 192.757C113.181 193.684 113.621 194.831 113.621 196.197C113.621 196.502 113.59 196.825 113.529 197.167H106.63ZM106.594 195.337H111.26C111.126 194.715 110.845 194.251 110.418 193.946C110.004 193.641 109.528 193.489 108.991 193.489C108.357 193.489 107.832 193.653 107.417 193.983C107.003 194.3 106.728 194.751 106.594 195.337ZM120.356 191.366C121.356 191.366 122.179 191.701 122.826 192.372C123.485 193.043 123.814 193.97 123.814 195.154V200.771H121.453V195.447C121.453 194.837 121.289 194.373 120.959 194.056C120.63 193.726 120.191 193.562 119.642 193.562C119.032 193.562 118.544 193.751 118.178 194.129C117.812 194.507 117.629 195.074 117.629 195.831V200.771H115.268V191.622H117.629V192.647C118.202 191.793 119.111 191.366 120.356 191.366ZM132.838 191.622H135.144V200.332C135.144 201.747 134.674 202.827 133.735 203.571C132.807 204.315 131.685 204.687 130.368 204.687C129.379 204.687 128.507 204.498 127.751 204.12C127.007 203.742 126.433 203.187 126.031 202.455L128.044 201.302C128.507 202.156 129.306 202.583 130.441 202.583C131.185 202.583 131.771 202.388 132.197 201.997C132.624 201.607 132.838 201.052 132.838 200.332V199.344C132.143 200.271 131.167 200.735 129.91 200.735C128.617 200.735 127.531 200.284 126.653 199.381C125.787 198.466 125.354 197.356 125.354 196.05C125.354 194.757 125.793 193.653 126.671 192.738C127.55 191.823 128.629 191.366 129.91 191.366C131.167 191.366 132.143 191.83 132.838 192.757V191.622ZM128.428 197.862C128.916 198.326 129.532 198.557 130.276 198.557C131.02 198.557 131.63 198.326 132.106 197.862C132.594 197.386 132.838 196.782 132.838 196.05C132.838 195.331 132.594 194.739 132.106 194.275C131.63 193.8 131.02 193.562 130.276 193.562C129.532 193.562 128.916 193.8 128.428 194.275C127.952 194.739 127.714 195.331 127.714 196.05C127.714 196.782 127.952 197.386 128.428 197.862ZM139.279 197.167C139.596 198.313 140.456 198.887 141.859 198.887C142.762 198.887 143.445 198.582 143.908 197.972L145.811 199.07C144.909 200.375 143.579 201.028 141.822 201.028C140.309 201.028 139.096 200.57 138.181 199.655C137.266 198.74 136.808 197.588 136.808 196.197C136.808 194.818 137.26 193.672 138.162 192.757C139.065 191.83 140.224 191.366 141.639 191.366C142.981 191.366 144.085 191.83 144.951 192.757C145.83 193.684 146.269 194.831 146.269 196.197C146.269 196.502 146.238 196.825 146.177 197.167H139.279ZM139.242 195.337H143.908C143.774 194.715 143.493 194.251 143.066 193.946C142.652 193.641 142.176 193.489 141.639 193.489C141.005 193.489 140.48 193.653 140.065 193.983C139.651 194.3 139.376 194.751 139.242 195.337ZM150.277 193.196C150.497 192.61 150.857 192.171 151.357 191.878C151.869 191.586 152.436 191.439 153.059 191.439V194.074C152.339 193.989 151.692 194.135 151.119 194.513C150.558 194.891 150.277 195.52 150.277 196.398V200.771H147.917V191.622H150.277V193.196Z" fill="#018CFF"/>
<path d="M325.734 377.581L321.434 364.772H324.179L327.308 374.617L330.418 364.772H333.182L328.863 377.581H325.734ZM335.12 367.334C334.73 367.334 334.388 367.193 334.095 366.913C333.815 366.62 333.674 366.279 333.674 365.888C333.674 365.498 333.815 365.156 334.095 364.863C334.388 364.571 334.73 364.424 335.12 364.424C335.523 364.424 335.864 364.571 336.145 364.863C336.437 365.156 336.584 365.498 336.584 365.888C336.584 366.279 336.437 366.62 336.145 366.913C335.864 367.193 335.523 367.334 335.12 367.334ZM333.949 377.581V368.432H336.309V377.581H333.949ZM343.795 368.176C345.027 368.176 346.076 368.645 346.942 369.585C347.821 370.512 348.26 371.652 348.26 373.006C348.26 374.36 347.821 375.507 346.942 376.447C346.076 377.374 345.027 377.837 343.795 377.837C342.514 377.837 341.526 377.392 340.83 376.501V377.581H338.47V364.772H340.83V369.511C341.526 368.621 342.514 368.176 343.795 368.176ZM341.544 374.873C342.02 375.349 342.624 375.586 343.356 375.586C344.088 375.586 344.691 375.349 345.167 374.873C345.655 374.385 345.899 373.763 345.899 373.006C345.899 372.25 345.655 371.634 345.167 371.158C344.691 370.67 344.088 370.426 343.356 370.426C342.624 370.426 342.02 370.67 341.544 371.158C341.068 371.634 340.83 372.25 340.83 373.006C340.83 373.763 341.068 374.385 341.544 374.873ZM351.919 373.976C352.236 375.123 353.096 375.696 354.499 375.696C355.402 375.696 356.085 375.391 356.549 374.781L358.452 375.879C357.549 377.185 356.219 377.837 354.463 377.837C352.95 377.837 351.736 377.38 350.821 376.465C349.906 375.55 349.449 374.397 349.449 373.006C349.449 371.628 349.9 370.481 350.803 369.566C351.706 368.639 352.864 368.176 354.28 368.176C355.621 368.176 356.725 368.639 357.592 369.566C358.47 370.493 358.909 371.64 358.909 373.006C358.909 373.311 358.879 373.635 358.818 373.976H351.919ZM351.882 372.146H356.549C356.414 371.524 356.134 371.061 355.707 370.756C355.292 370.451 354.816 370.298 354.28 370.298C353.645 370.298 353.121 370.463 352.706 370.792C352.291 371.109 352.017 371.561 351.882 372.146ZM362.918 370.005C363.137 369.42 363.497 368.981 363.997 368.688C364.51 368.395 365.077 368.249 365.699 368.249V370.884C364.979 370.798 364.333 370.945 363.759 371.323C363.198 371.701 362.918 372.329 362.918 373.208V377.581H360.557V368.432H362.918V370.005Z" fill="#834995"/>
<g clip-path="url(#clip1)">
<path d="M375.58 315.938C373.563 332.596 361.664 333.635 359.459 334.363C358.523 334.675 349.849 336.88 338.928 336.152L327.092 349.253L327.071 334.155L326.988 334.135C311.095 329.622 311.636 312.674 311.803 303.794C311.99 294.914 313.612 287.615 318.459 282.728C327.154 274.659 345.106 275.865 345.106 275.865C360.25 275.928 367.509 280.607 369.194 282.166C374.811 287.053 377.661 298.761 375.58 315.938ZM373.355 277.987C371.358 276.115 363.328 270.147 345.418 270.063C345.418 270.063 324.304 268.753 314.008 278.423C308.266 284.288 306.249 292.876 306.041 303.503C305.833 314.15 305.562 334.093 324.346 339.5H324.367V347.756C324.367 347.756 324.242 351.104 326.405 351.769C329.006 352.601 330.524 350.064 333.02 347.319C334.393 345.822 336.265 343.617 337.68 341.933C350.535 343.035 360.416 340.498 361.519 340.145C364.119 339.271 378.784 337.358 381.176 317.415C383.61 296.848 379.949 283.851 373.355 277.987Z" fill="#834995"/>
<path d="M361.893 318.412C361.893 318.412 359.48 316.353 358.316 315.479C357.213 314.648 355.445 313.525 354.467 312.963C352.699 311.965 350.889 312.589 350.141 313.587L348.58 315.583C347.79 316.602 346.563 316.415 346.251 316.353C343.962 315.771 341.529 314.357 339.032 311.944C336.515 309.511 334.976 306.974 334.435 304.333L334.394 304.167C334.248 303.085 334.435 302.586 334.872 301.838L334.955 301.775C335.995 300.798 337.951 299.612 338.2 298.49C338.97 296.535 335.642 292.438 335.184 291.731C335.184 291.731 332.771 288.549 331.918 287.925C331.003 287.156 329.568 286.719 328.112 287.613L328.028 287.676C323.889 290.421 322.391 292.043 322.807 294.434L323.015 295.412C325.116 302.046 329.193 309.116 335.247 315.417C341.237 321.635 347.728 325.357 354.114 327.936C355.778 328.497 357.504 328.019 359.272 326.501L359.293 326.48C360.645 325.212 361.727 323.86 362.517 322.404V322.384C363.308 320.845 363.038 319.41 361.893 318.412Z" fill="#834995"/>
<path d="M351.95 303.896C351.7 303.896 351.492 303.688 351.471 303.439C351.388 301.713 350.931 300.403 350.099 299.529C349.266 298.656 348.039 298.178 346.417 298.074C346.146 298.053 345.959 297.824 345.959 297.554C345.98 297.283 346.188 297.075 346.458 297.096C348.33 297.2 349.766 297.782 350.764 298.843C351.763 299.904 352.324 301.422 352.407 303.397C352.428 303.668 352.22 303.896 351.95 303.917" fill="#834995"/>
<path d="M356.672 305.518C356.401 305.518 356.193 305.289 356.193 305.019C356.276 301.712 355.299 298.926 353.323 296.721C352.345 295.619 351.138 294.746 349.765 294.143C348.393 293.519 346.77 293.145 345.002 293.02C344.731 292.999 344.544 292.77 344.565 292.5C344.586 292.23 344.815 292.022 345.085 292.042C348.892 292.334 351.908 293.685 354.051 296.077C356.193 298.468 357.254 301.504 357.171 305.06C357.15 305.289 356.942 305.518 356.672 305.518Z" fill="#834995"/>
<path d="M361.517 307.453C361.247 307.453 361.039 307.245 361.039 306.975C361.018 304.063 360.581 301.422 359.728 299.135C358.875 296.868 357.607 294.872 355.942 293.187C354.278 291.524 352.365 290.255 350.305 289.402C348.225 288.55 345.916 288.113 343.42 288.113C343.149 288.113 342.941 287.884 342.941 287.614C342.941 287.344 343.149 287.136 343.42 287.136C348.662 287.177 353.093 288.966 356.608 292.48C358.376 294.248 359.728 296.369 360.623 298.781C361.517 301.173 361.975 303.939 361.996 306.975C361.996 307.224 361.788 307.453 361.517 307.453Z" fill="#834995"/>
</g>
<path d="M314.857 188.191V190.606H311.399V201H308.873V190.606H305.433V188.191H314.857ZM316.49 197.395C316.807 198.542 317.667 199.115 319.07 199.115C319.972 199.115 320.656 198.81 321.119 198.2L323.022 199.298C322.12 200.604 320.79 201.256 319.033 201.256C317.52 201.256 316.307 200.799 315.392 199.884C314.477 198.969 314.019 197.816 314.019 196.425C314.019 195.047 314.471 193.9 315.373 192.985C316.276 192.058 317.435 191.594 318.85 191.594C320.192 191.594 321.296 192.058 322.162 192.985C323.041 193.912 323.48 195.059 323.48 196.425C323.48 196.73 323.449 197.054 323.388 197.395H316.49ZM316.453 195.565H321.119C320.985 194.943 320.704 194.48 320.277 194.175C319.863 193.87 319.387 193.717 318.85 193.717C318.216 193.717 317.691 193.882 317.276 194.211C316.862 194.528 316.587 194.98 316.453 195.565ZM325.128 201V187.642H327.488V201H325.128ZM331.643 197.395C331.96 198.542 332.82 199.115 334.223 199.115C335.126 199.115 335.809 198.81 336.273 198.2L338.176 199.298C337.273 200.604 335.943 201.256 334.187 201.256C332.674 201.256 331.46 200.799 330.545 199.884C329.63 198.969 329.173 197.816 329.173 196.425C329.173 195.047 329.624 193.9 330.527 192.985C331.43 192.058 332.589 191.594 334.004 191.594C335.346 191.594 336.45 192.058 337.316 192.985C338.194 193.912 338.633 195.059 338.633 196.425C338.633 196.73 338.603 197.054 338.542 197.395H331.643ZM331.607 195.565H336.273C336.139 194.943 335.858 194.48 335.431 194.175C335.016 193.87 334.541 193.717 334.004 193.717C333.369 193.717 332.845 193.882 332.43 194.211C332.015 194.528 331.741 194.98 331.607 195.565ZM347.218 191.851H349.524V200.561C349.524 201.976 349.054 203.056 348.115 203.8C347.188 204.544 346.065 204.916 344.748 204.916C343.76 204.916 342.887 204.727 342.131 204.349C341.387 203.97 340.814 203.415 340.411 202.683L342.424 201.531C342.887 202.385 343.686 202.812 344.821 202.812C345.565 202.812 346.151 202.616 346.578 202.226C347.005 201.836 347.218 201.281 347.218 200.561V199.573C346.523 200.5 345.547 200.963 344.29 200.963C342.997 200.963 341.912 200.512 341.033 199.609C340.167 198.694 339.734 197.584 339.734 196.279C339.734 194.986 340.173 193.882 341.051 192.967C341.93 192.052 343.009 191.594 344.29 191.594C345.547 191.594 346.523 192.058 347.218 192.985V191.851ZM342.808 198.091C343.296 198.554 343.912 198.786 344.656 198.786C345.4 198.786 346.01 198.554 346.486 198.091C346.974 197.615 347.218 197.011 347.218 196.279C347.218 195.559 346.974 194.968 346.486 194.504C346.01 194.028 345.4 193.79 344.656 193.79C343.912 193.79 343.296 194.028 342.808 194.504C342.332 194.968 342.095 195.559 342.095 196.279C342.095 197.011 342.332 197.615 342.808 198.091ZM354.025 193.424C354.244 192.839 354.604 192.4 355.104 192.107C355.617 191.814 356.184 191.668 356.806 191.668V194.303C356.086 194.217 355.44 194.364 354.867 194.742C354.305 195.12 354.025 195.748 354.025 196.627V201H351.664V191.851H354.025V193.424ZM364.801 191.851H367.161V201H364.801V199.92C364.093 200.811 363.099 201.256 361.818 201.256C360.598 201.256 359.549 200.793 358.671 199.865C357.805 198.926 357.371 197.779 357.371 196.425C357.371 195.071 357.805 193.931 358.671 193.003C359.549 192.064 360.598 191.594 361.818 191.594C363.099 191.594 364.093 192.04 364.801 192.93V191.851ZM360.446 198.292C360.921 198.768 361.525 199.005 362.257 199.005C362.989 199.005 363.593 198.768 364.069 198.292C364.557 197.804 364.801 197.182 364.801 196.425C364.801 195.669 364.557 195.053 364.069 194.577C363.593 194.089 362.989 193.845 362.257 193.845C361.525 193.845 360.921 194.089 360.446 194.577C359.97 195.053 359.732 195.669 359.732 196.425C359.732 197.182 359.97 197.804 360.446 198.292ZM379.421 191.594C380.47 191.594 381.306 191.936 381.928 192.619C382.562 193.302 382.879 194.217 382.879 195.364V201H380.519V195.529C380.519 194.98 380.385 194.553 380.116 194.248C379.848 193.943 379.47 193.79 378.982 193.79C378.445 193.79 378.024 193.967 377.719 194.321C377.426 194.675 377.28 195.187 377.28 195.858V201H374.92V195.529C374.92 194.98 374.785 194.553 374.517 194.248C374.249 193.943 373.87 193.79 373.382 193.79C372.858 193.79 372.437 193.967 372.12 194.321C371.815 194.675 371.662 195.187 371.662 195.858V201H369.302V191.851H371.662V192.82C372.211 192.003 373.059 191.594 374.206 191.594C375.328 191.594 376.158 192.034 376.695 192.912C377.304 192.034 378.213 191.594 379.421 191.594Z" fill="#2EA5D9"/>
<g clip-path="url(#clip2)">
<path d="M343.501 170C365.316 170 383.001 151.868 383.001 129.5C383.001 107.132 365.316 89 343.501 89C321.686 89 304.001 107.132 304.001 129.5C304.001 151.868 321.686 170 343.501 170Z" fill="url(#paint1_linear)"/>
<path d="M336.259 148.062C334.979 148.062 335.197 147.567 334.755 146.318L330.992 133.62L359.959 116" fill="#C8DAEA"/>
<path d="M336.258 148.062C337.245 148.062 337.681 147.599 338.233 147.05L343.499 141.799L336.93 137.737" fill="#A9C9DD"/>
<path d="M336.929 137.738L352.847 149.797C354.664 150.824 355.975 150.292 356.428 148.068L362.907 116.76C363.57 114.033 361.893 112.796 360.155 113.605L322.107 128.647C319.51 129.716 319.525 131.201 321.634 131.863L331.398 134.988L354.003 120.366C355.07 119.702 356.049 120.059 355.245 120.79" fill="url(#paint2_linear)"/>
</g>
<path d="M66.5816 383.069L62.995 370.26H65.6483L68.1004 379.757L70.772 370.26H72.9312L75.6211 379.757L78.0731 370.26H80.7265L77.1399 383.069H74.267L71.8516 374.615L69.4545 383.069H66.5816ZM86.8106 373.664C87.811 373.664 88.6344 373.999 89.281 374.67C89.9397 375.341 90.2691 376.268 90.2691 377.452V383.069H87.9086V377.744C87.9086 377.134 87.7439 376.671 87.4145 376.354C87.0851 376.024 86.6459 375.86 86.097 375.86C85.487 375.86 84.9991 376.049 84.6331 376.427C84.2671 376.805 84.0841 377.372 84.0841 378.129V383.069H81.7236V370.26H84.0841V374.945C84.6575 374.091 85.5663 373.664 86.8106 373.664ZM99.2382 373.92H101.599V383.069H99.2382V381.99C98.5306 382.88 97.5364 383.326 96.2555 383.326C95.0356 383.326 93.9864 382.862 93.1081 381.935C92.242 380.995 91.8089 379.849 91.8089 378.495C91.8089 377.141 92.242 376 93.1081 375.073C93.9864 374.133 95.0356 373.664 96.2555 373.664C97.5364 373.664 98.5306 374.109 99.2382 375V373.92ZM94.8831 380.361C95.3589 380.837 95.9627 381.075 96.6947 381.075C97.4266 381.075 98.0305 380.837 98.5062 380.361C98.9942 379.873 99.2382 379.251 99.2382 378.495C99.2382 377.738 98.9942 377.122 98.5062 376.646C98.0305 376.159 97.4266 375.915 96.6947 375.915C95.9627 375.915 95.3589 376.159 94.8831 376.646C94.4073 377.122 94.1694 377.738 94.1694 378.495C94.1694 379.251 94.4073 379.873 94.8831 380.361ZM108.973 376.189H106.905V379.995C106.905 380.312 106.984 380.544 107.143 380.691C107.301 380.837 107.533 380.922 107.838 380.947C108.143 380.959 108.521 380.953 108.973 380.928V383.069C107.35 383.252 106.203 383.1 105.533 382.612C104.874 382.124 104.544 381.252 104.544 379.995V376.189H102.952V373.92H104.544V372.072L106.905 371.358V373.92H108.973V376.189ZM112.618 376.518C112.618 376.762 112.777 376.964 113.094 377.122C113.423 377.269 113.82 377.403 114.283 377.525C114.747 377.635 115.21 377.781 115.674 377.964C116.137 378.135 116.528 378.428 116.845 378.842C117.174 379.257 117.339 379.776 117.339 380.398C117.339 381.337 116.985 382.063 116.278 382.575C115.582 383.075 114.71 383.326 113.661 383.326C111.782 383.326 110.501 382.6 109.818 381.148L111.868 379.995C112.136 380.788 112.734 381.185 113.661 381.185C114.503 381.185 114.924 380.922 114.924 380.398C114.924 380.154 114.759 379.959 114.43 379.812C114.112 379.654 113.722 379.513 113.258 379.391C112.795 379.269 112.331 379.117 111.868 378.934C111.404 378.751 111.008 378.464 110.678 378.074C110.361 377.671 110.203 377.171 110.203 376.573C110.203 375.671 110.532 374.963 111.191 374.451C111.862 373.926 112.691 373.664 113.679 373.664C114.423 373.664 115.1 373.835 115.71 374.176C116.32 374.506 116.802 374.981 117.156 375.603L115.143 376.701C114.85 376.079 114.362 375.768 113.679 375.768C113.374 375.768 113.118 375.835 112.911 375.969C112.716 376.104 112.618 376.287 112.618 376.518ZM127.291 383.069L126.522 380.764H121.417L120.648 383.069H117.922L122.405 370.26H125.534L130.035 383.069H127.291ZM122.222 378.403H125.735L123.979 373.17L122.222 378.403ZM136.494 373.664C137.726 373.664 138.776 374.133 139.642 375.073C140.52 376 140.959 377.141 140.959 378.495C140.959 379.849 140.52 380.995 139.642 381.935C138.776 382.862 137.726 383.326 136.494 383.326C135.213 383.326 134.225 382.88 133.53 381.99V386.729H131.169V373.92H133.53V375C134.225 374.109 135.213 373.664 136.494 373.664ZM134.244 380.361C134.719 380.837 135.323 381.075 136.055 381.075C136.787 381.075 137.391 380.837 137.867 380.361C138.355 379.873 138.599 379.251 138.599 378.495C138.599 377.738 138.355 377.122 137.867 376.646C137.391 376.159 136.787 375.915 136.055 375.915C135.323 375.915 134.719 376.159 134.244 376.646C133.768 377.122 133.53 377.738 133.53 378.495C133.53 379.251 133.768 379.873 134.244 380.361ZM147.949 373.664C149.181 373.664 150.23 374.133 151.096 375.073C151.975 376 152.414 377.141 152.414 378.495C152.414 379.849 151.975 380.995 151.096 381.935C150.23 382.862 149.181 383.326 147.949 383.326C146.668 383.326 145.68 382.88 144.985 381.99V386.729H142.624V373.92H144.985V375C145.68 374.109 146.668 373.664 147.949 373.664ZM145.698 380.361C146.174 380.837 146.778 381.075 147.51 381.075C148.242 381.075 148.846 380.837 149.321 380.361C149.809 379.873 150.053 379.251 150.053 378.495C150.053 377.738 149.809 377.122 149.321 376.646C148.846 376.159 148.242 375.915 147.51 375.915C146.778 375.915 146.174 376.159 145.698 376.646C145.222 377.122 144.985 377.738 144.985 378.495C144.985 379.251 145.222 379.873 145.698 380.361Z" fill="#3EC250"/>
<g clip-path="url(#clip3)">
<path d="M86.7972 344.423L88.2173 345.266C94.1842 348.811 101.025 350.686 108.001 350.69H108.017C129.441 350.69 146.879 333.236 146.887 311.785C146.89 301.389 142.851 291.614 135.512 284.26C128.173 276.907 118.415 272.855 108.031 272.851C86.5896 272.851 69.1524 290.302 69.1443 311.753C69.1415 319.104 71.1954 326.263 75.087 332.457L76.012 333.929L72.0843 348.285L86.7972 344.423ZM60.8564 359.406L67.4911 335.151C63.3988 328.053 61.2459 320 61.2493 311.751C61.2592 285.943 82.2373 264.946 108.018 264.946C120.527 264.952 132.269 269.826 141.099 278.674C149.928 287.521 154.789 299.281 154.785 311.789C154.774 337.595 133.791 358.596 108.018 358.596C108.016 358.596 108.019 358.596 108.018 358.596H107.998C100.171 358.593 92.4801 356.628 85.6495 352.898L60.8564 359.406Z" fill="#455A64"/>
<path d="M62.86 311.776C62.8572 319.739 64.9353 327.513 68.8869 334.366L62.4814 357.781L86.415 351.498C93.0092 355.096 100.433 356.995 107.989 356.998H108.009C132.891 356.998 153.145 336.726 153.156 311.811C153.16 299.737 148.468 288.385 139.944 279.843C131.421 271.303 120.086 266.596 108.007 266.591C83.123 266.591 62.8696 286.86 62.8589 311.776L62.86 311.776ZM108.008 356.997H108.009H108.008C108.008 356.997 108.007 356.997 108.008 356.997Z" fill="url(#paint3_linear)"/>
<path d="M61.2493 311.762C61.2464 320.011 63.3993 328.065 67.4916 335.162L60.8564 359.416L85.6487 352.908C92.4797 356.637 100.17 358.603 107.997 358.606H108.017C133.791 358.606 154.773 337.605 154.784 311.798C154.788 299.291 149.927 287.53 141.098 278.683C132.268 269.836 120.527 264.961 108.017 264.956C82.2378 264.956 61.2593 285.953 61.2485 311.761L61.2493 311.762ZM76.0125 333.94L75.087 332.468C71.1954 326.274 69.1415 319.114 69.1444 311.764C69.1528 290.314 86.5897 272.862 108.031 272.862C118.414 272.866 128.172 276.918 135.512 284.271C142.852 291.625 146.89 301.4 146.887 311.795C146.878 333.246 129.441 350.7 108.016 350.7H108.001C101.025 350.696 94.183 348.821 88.2165 345.276L86.7965 344.433L72.0837 348.295L76.0125 333.94ZM108.017 358.606H108.017H108.017C108.016 358.606 108.016 358.606 108.017 358.606Z" fill="url(#paint4_linear)"/>
<path fill-rule="evenodd" clip-rule="evenodd" d="M96.327 292.191C95.4515 290.243 94.5303 290.204 93.6976 290.17C93.0161 290.141 92.2367 290.143 91.4582 290.143C90.6787 290.143 89.4127 290.435 88.3422 291.606C87.2708 292.777 84.252 295.607 84.252 301.363C84.252 307.119 88.4398 312.681 89.0233 313.463C89.6078 314.243 97.1075 326.432 108.984 331.122C118.855 335.019 120.864 334.244 123.007 334.048C125.149 333.854 129.92 331.219 130.894 328.487C131.868 325.756 131.868 323.414 131.576 322.925C131.284 322.438 130.504 322.145 129.336 321.56C128.167 320.975 122.422 318.144 121.351 317.754C120.28 317.364 119.501 317.169 118.721 318.341C117.942 319.51 115.704 322.145 115.022 322.925C114.341 323.707 113.659 323.805 112.49 323.219C111.321 322.632 107.558 321.398 103.093 317.413C99.6192 314.312 97.2741 310.483 96.5921 309.311C95.9106 308.141 96.5193 307.508 97.1052 306.924C97.6303 306.4 98.2742 305.558 98.8587 304.876C99.4417 304.192 99.6362 303.705 100.026 302.924C100.416 302.144 100.221 301.46 99.9287 300.875C99.6362 300.29 97.3654 294.504 96.3263 292.191" fill="white"/>
</g>
<defs>
<linearGradient id="paint0_linear" x1="108.019" y1="93.4213" x2="108.019" y2="164.668" gradientUnits="userSpaceOnUse">
<stop stop-color="#00C6FF"/>
<stop offset="1" stop-color="#0068FF"/>
</linearGradient>
<linearGradient id="paint1_linear" x1="356.694" y1="102.527" x2="336.095" y2="149.377" gradientUnits="userSpaceOnUse">
<stop stop-color="#37AEE2"/>
<stop offset="1" stop-color="#1E96C8"/>
</linearGradient>
<linearGradient id="paint2_linear" x1="348.451" y1="129.503" x2="354.878" y2="143.785" gradientUnits="userSpaceOnUse">
<stop stop-color="#EFF7FC"/>
<stop offset="1" stop-color="white"/>
</linearGradient>
<linearGradient id="paint3_linear" x1="107.819" y1="357.772" x2="107.819" y2="266.581" gradientUnits="userSpaceOnUse">
<stop stop-color="#20B038"/>
<stop offset="1" stop-color="#60D66A"/>
</linearGradient>
<linearGradient id="paint4_linear" x1="107.821" y1="359.418" x2="107.821" y2="264.959" gradientUnits="userSpaceOnUse">
<stop stop-color="#F9F9F9"/>
<stop offset="1" stop-color="white"/>
</linearGradient>
<clipPath id="clip0">
<rect width="79.4765" height="80.2958" fill="white" transform="translate(68.2822 88)"/>
</clipPath>
<clipPath id="clip1">
<rect width="75.926" height="81.9345" fill="white" transform="translate(306 270)"/>
</clipPath>
<clipPath id="clip2">
<rect width="79" height="81" fill="white" transform="translate(304 89)"/>
</clipPath>
<clipPath id="clip3">
<rect width="94" height="94" fill="white" transform="translate(61 265)"/>
</clipPath>
</defs>
</svg>
