<svg width="134" height="62" viewBox="0 0 134 62" fill="none" xmlns="http://www.w3.org/2000/svg">
<path d="M121.115 36.4787H123.755V38.8798H121.115V41.6208C121.115 41.8167 121.127 41.9896 121.15 42.1393C121.173 42.2832 121.236 42.4098 121.34 42.5133C121.443 42.6171 121.604 42.692 121.823 42.7438C122.036 42.7955 122.34 42.8244 122.726 42.8244C122.99 42.8244 123.266 42.8072 123.548 42.7782C123.836 42.7496 124.095 42.7034 124.319 42.6344V45.1394C124.095 45.1969 123.83 45.237 123.531 45.266C123.238 45.2947 122.927 45.3064 122.611 45.3064C121.834 45.3064 121.173 45.2315 120.638 45.0873C120.103 44.9376 119.666 44.7247 119.338 44.4425C119.004 44.1603 118.762 43.8149 118.607 43.3945C118.452 42.9797 118.377 42.5019 118.377 41.9665V33.0468H119.062L121.115 34.2504V36.4787ZM106.695 36.4787L107.621 37.0259C108.167 36.7319 108.754 36.5073 109.369 36.3577C109.985 36.2082 110.67 36.1334 111.423 36.1334C112.384 36.1334 113.178 36.2483 113.804 36.4673C114.431 36.692 114.938 36.9969 115.312 37.3885C115.691 37.7745 115.95 38.2292 116.1 38.7473C116.249 39.2714 116.324 39.83 116.324 40.423V45.0528H113.58V40.7628C113.58 40.4924 113.569 40.2216 113.546 39.9569C113.523 39.6975 113.442 39.4674 113.293 39.2714C113.143 39.0813 112.913 38.9203 112.608 38.7995C112.297 38.6842 111.855 38.6208 111.268 38.6208C110.79 38.6208 110.348 38.6553 109.933 38.7129C109.525 38.7763 109.128 38.8743 108.754 39.001V45.0528H106.011V36.4787H106.695ZM100.788 33.4786C100.788 33.1216 100.891 32.8222 101.098 32.5689C101.3 32.3154 101.691 32.1888 102.26 32.1888H102.398C102.968 32.1888 103.359 32.3154 103.56 32.5689C103.767 32.8222 103.871 33.1216 103.871 33.4786V33.6861C103.871 34.0372 103.767 34.3425 103.56 34.5899C103.359 34.8434 102.968 34.9701 102.398 34.9701H102.26C101.691 34.9701 101.3 34.8434 101.098 34.5899C100.891 34.3425 100.788 34.0372 100.788 33.6861V33.4786ZM100.96 36.4787V45.0528H103.698V37.6765L101.645 36.4787H100.96ZM91.1992 40.7628C91.1992 41.0392 91.2109 41.31 91.2337 41.5691C91.2512 41.834 91.3432 42.0645 91.4983 42.2542C91.6479 42.4501 91.8895 42.6054 92.2059 42.7266C92.5281 42.8472 92.9881 42.9107 93.5922 42.9107C94.1905 42.9107 94.6506 42.8472 94.9724 42.7266C95.3004 42.6054 95.5362 42.4501 95.6916 42.2542C95.8467 42.0645 95.9331 41.834 95.9563 41.5691C95.9789 41.31 95.9906 41.0392 95.9906 40.7628C95.9906 40.4924 95.9789 40.2216 95.9563 39.9569C95.9331 39.6975 95.8467 39.4674 95.6916 39.2714C95.5362 39.0813 95.3004 38.9203 94.9724 38.7995C94.6506 38.6842 94.1905 38.6208 93.5922 38.6208C92.9881 38.6208 92.5281 38.6842 92.2059 38.7995C91.8895 38.9203 91.6479 39.0813 91.4983 39.2714C91.3432 39.4674 91.2512 39.6975 91.2337 39.9569C91.2109 40.2216 91.1992 40.4924 91.1992 40.7628ZM88.4557 40.423C88.4557 39.83 88.5305 39.2714 88.68 38.7473C88.8296 38.2292 89.0884 37.7745 89.4678 37.3885C89.8417 36.9969 90.348 36.692 90.9748 36.4673C91.6021 36.2483 92.3957 36.1334 93.3562 36.1334H93.8338C94.7942 36.1334 95.5879 36.2483 96.2151 36.4673C96.8419 36.692 97.3481 36.9969 97.7221 37.3885C98.1015 37.7745 98.3603 38.2292 98.5099 38.7473C98.6594 39.2714 98.7342 39.83 98.7342 40.423V41.1085C98.7342 41.7016 98.6594 42.2601 98.5099 42.7782C98.3603 43.2965 98.1015 43.7515 97.7221 44.143C97.3481 44.5288 96.8419 44.8341 96.2151 45.0586C95.5879 45.2832 94.7942 45.3926 93.8338 45.3926H93.3562C92.3957 45.3926 91.6021 45.2832 90.9748 45.0586C90.348 44.8341 89.8417 44.5288 89.4678 44.143C89.0884 43.7515 88.8296 43.2965 88.68 42.7782C88.5305 42.2601 88.4557 41.7016 88.4557 41.1085V40.423ZM81.076 39.3926C81.6797 39.3926 82.1457 39.3521 82.4793 39.2659C82.8129 39.1793 83.0545 39.0586 83.204 38.903C83.3594 38.7473 83.4514 38.569 83.4746 38.3617C83.4973 38.1602 83.509 37.9298 83.509 37.6765C83.509 37.4288 83.4973 37.1929 83.4746 36.9855C83.4514 36.7723 83.3653 36.594 83.2158 36.4442C83.0662 36.2945 82.8359 36.1792 82.531 36.093C82.2205 36.0064 81.7776 35.9661 81.1966 35.9661C80.8286 35.9661 80.3512 35.9778 79.7643 36.0009C79.1778 36.0182 78.5968 36.0585 78.0271 36.1158V39.2369C78.5623 39.3059 79.0686 39.3521 79.5517 39.3694C80.029 39.3867 80.5353 39.3926 81.076 39.3926ZM86.592 38.0219C86.592 38.5922 86.5172 39.1276 86.3734 39.6227C86.2353 40.1238 85.9878 40.5555 85.6487 40.9298C85.3034 41.2986 84.8375 41.5922 84.251 41.8109C83.6641 42.0297 82.9221 42.1393 82.0364 42.1393H81.5533C80.9378 42.1393 80.3337 42.1335 79.7471 42.1218C79.1606 42.1103 78.5851 42.0586 78.0271 41.9665V45.0528H74.9442V33.5649C75.9221 33.4497 76.9574 33.3634 78.033 33.3058C79.1144 33.2483 80.1727 33.2196 81.2138 33.2196H81.6912C82.6519 33.2196 83.4456 33.329 84.0724 33.5477C84.6996 33.7609 85.2001 34.0603 85.5795 34.4288C85.9534 34.8031 86.218 35.2405 86.3676 35.7418C86.5172 36.2427 86.592 36.7781 86.592 37.3367V38.0219ZM124.371 14.8476L126.424 16.051V19.1893C126.827 19.0627 127.241 18.9647 127.678 18.8957C128.11 18.8267 128.587 18.7919 129.099 18.7919C130.059 18.7919 130.853 18.9016 131.48 19.1258C132.107 19.3505 132.608 19.6558 132.987 20.0415C133.361 20.433 133.626 20.8881 133.775 21.4062C133.925 21.9244 134 22.483 134 23.0763V27.7058H131.256V23.4217C131.256 23.1453 131.244 22.8804 131.221 22.6155C131.198 22.3509 131.112 22.1262 130.968 21.9303C130.819 21.7347 130.589 21.5791 130.278 21.458C129.973 21.3372 129.525 21.2797 128.944 21.2797C128.466 21.2797 128.018 21.3083 127.609 21.3717C127.195 21.4352 126.804 21.5273 126.424 21.654V27.7058H123.686V14.8476H124.371ZM112.539 23.0763C112.539 22.483 112.614 21.9244 112.757 21.4062C112.907 20.8881 113.172 20.433 113.546 20.0415C113.925 19.6558 114.426 19.3505 115.053 19.1258C115.68 18.9016 116.474 18.7919 117.434 18.7919H117.917C118.533 18.7919 119.131 18.8322 119.723 18.9016C120.31 18.9764 120.885 19.0859 121.443 19.2238V21.7747C120.805 21.5905 120.166 21.4638 119.522 21.389C118.883 21.3142 118.326 21.2797 117.848 21.2797C117.21 21.2797 116.715 21.3314 116.364 21.4408C116.019 21.5505 115.76 21.6998 115.605 21.8899C115.444 22.0741 115.346 22.2987 115.317 22.5637C115.294 22.8286 115.277 23.1108 115.277 23.4217C115.277 23.7329 115.294 24.0148 115.317 24.2797C115.346 24.5446 115.444 24.7692 115.605 24.9593C115.76 25.1435 116.019 25.2933 116.364 25.4026C116.715 25.5119 117.21 25.5637 117.848 25.5637C118.326 25.5637 118.883 25.5292 119.522 25.4544C120.166 25.3795 120.805 25.2529 121.443 25.0687V27.6254C120.885 27.7579 120.31 27.8672 119.723 27.9421C119.131 28.0169 118.533 28.0514 117.917 28.0514H117.434C116.474 28.0514 115.68 27.9421 115.053 27.7175C114.426 27.4929 113.925 27.1876 113.546 26.8019C113.172 26.4103 112.907 25.9553 112.757 25.4371C112.614 24.919 112.539 24.3604 112.539 23.7674V23.0763ZM105.222 25.9094C106.126 25.9094 106.965 25.7884 107.742 25.5464V24.7402C107.351 24.6367 106.942 24.5619 106.505 24.5101C106.074 24.4584 105.591 24.4353 105.05 24.4353C104.538 24.4353 104.141 24.4584 103.854 24.5042C103.566 24.5504 103.359 24.6081 103.221 24.6829C103.083 24.7579 102.997 24.8382 102.962 24.9303C102.928 25.0225 102.91 25.109 102.91 25.1894C102.91 25.2933 102.928 25.3854 102.962 25.4716C102.997 25.5582 103.088 25.6331 103.244 25.7021C103.399 25.7711 103.629 25.8228 103.94 25.8577C104.245 25.8922 104.676 25.9094 105.222 25.9094ZM110.48 27.7058H109.795L108.869 27.1762C108.288 27.4757 107.684 27.6944 107.057 27.8382C106.43 27.9824 105.717 28.0514 104.935 28.0514C104.009 28.0514 103.238 27.9766 102.628 27.821C102.019 27.6658 101.53 27.4526 101.162 27.1876C100.799 26.9171 100.54 26.6059 100.391 26.2606C100.247 25.9094 100.172 25.5464 100.172 25.1721V24.9997C100.172 24.6426 100.247 24.3086 100.403 23.9861C100.558 23.6694 100.816 23.3872 101.19 23.1453C101.558 22.9093 102.047 22.7193 102.646 22.581C103.244 22.4429 103.992 22.3736 104.883 22.3736C105.999 22.3736 106.954 22.483 107.742 22.702C107.731 22.4715 107.696 22.2701 107.644 22.0914C107.598 21.9131 107.483 21.7692 107.31 21.6481C107.144 21.5273 106.885 21.4352 106.551 21.3717C106.212 21.3083 105.763 21.2797 105.205 21.2797C104.9 21.2797 104.567 21.291 104.21 21.3142C103.859 21.3372 103.503 21.3659 103.14 21.4062C102.784 21.4466 102.427 21.5042 102.082 21.5677C101.731 21.6367 101.409 21.7115 101.116 21.7923V19.2238C101.409 19.1548 101.731 19.0913 102.082 19.0396C102.427 18.9879 102.789 18.9417 103.157 18.9016C103.531 18.8612 103.894 18.8381 104.256 18.8209C104.613 18.8036 104.958 18.7919 105.292 18.7919C106.252 18.7919 107.057 18.8726 107.713 19.0396C108.375 19.2066 108.904 19.4484 109.318 19.7596C109.726 20.0763 110.025 20.4678 110.209 20.9343C110.388 21.4062 110.48 21.9476 110.48 22.5637V27.7058ZM93.7818 20.9343C93.3275 20.9343 92.9423 20.9629 92.6373 21.0147C92.3268 21.0664 92.0735 21.1413 91.8839 21.2451C91.6882 21.3487 91.5387 21.4755 91.4353 21.6195C91.3315 21.7692 91.2567 21.942 91.2109 22.1376C91.5445 22.2297 91.9012 22.2932 92.2865 22.3336C92.6659 22.3736 93.1091 22.3909 93.6095 22.3909C94.1157 22.3909 94.5069 22.3736 94.7942 22.3336C95.0762 22.2932 95.2887 22.2411 95.4269 22.1779C95.5651 22.1145 95.6512 22.0455 95.6857 21.9706C95.7201 21.9016 95.7374 21.8209 95.7374 21.7402C95.7374 21.6598 95.7201 21.5732 95.6916 21.4755C95.6626 21.3776 95.5823 21.291 95.45 21.2106C95.3235 21.1299 95.122 21.0664 94.8632 21.0147C94.5989 20.9629 94.2364 20.9343 93.7818 20.9343ZM93.2872 28.0514C92.3268 28.0514 91.5328 27.9421 90.906 27.7175C90.279 27.4929 89.7728 27.1876 89.3989 26.8019C89.0194 26.4103 88.7604 25.9553 88.6108 25.4371C88.4615 24.919 88.3867 24.3604 88.3867 23.7674V23.0763C88.3867 22.483 88.4615 21.9244 88.6108 21.4062C88.7604 20.8881 89.0194 20.433 89.3989 20.0415C89.7728 19.6558 90.279 19.3505 90.906 19.1258C91.5328 18.9016 92.3268 18.7919 93.2872 18.7919H93.7646C94.7367 18.7919 95.5303 18.8612 96.1458 19.0051C96.7612 19.149 97.2445 19.3449 97.5839 19.5981C97.9292 19.8517 98.159 20.1394 98.2856 20.4734C98.4123 20.8018 98.4754 21.1589 98.4754 21.5328V21.7057C98.4754 22.0514 98.4351 22.3736 98.3489 22.6848C98.2628 22.9956 98.0556 23.2664 97.7393 23.5082C97.4171 23.7501 96.9453 23.9343 96.3243 24.0723C95.7029 24.2106 94.8577 24.2797 93.7818 24.2797C93.27 24.2797 92.7927 24.2566 92.3613 24.2106C91.9298 24.1644 91.5155 24.0841 91.1303 23.9688C91.1416 24.2106 91.1765 24.4294 91.2454 24.6309C91.3143 24.8327 91.4466 24.9997 91.6307 25.1376C91.8205 25.276 92.0852 25.3795 92.4302 25.4544C92.7696 25.5292 93.2297 25.5637 93.7993 25.5637C94.0754 25.5637 94.38 25.5524 94.7136 25.5292C95.053 25.5061 95.3983 25.4774 95.7605 25.4371C96.123 25.3968 96.4739 25.345 96.8247 25.2816C97.1696 25.2184 97.4918 25.1435 97.791 25.0514V27.6254C97.4918 27.6886 97.1696 27.752 96.8247 27.8038C96.4739 27.8555 96.1172 27.9017 95.7433 27.9421C95.3752 27.9824 95.0013 28.0111 94.6389 28.0284C94.2708 28.0401 93.9314 28.0514 93.6095 28.0514H93.2872ZM81.0932 18.6194C80.6903 18.6194 80.1959 18.6308 79.609 18.6539C79.0224 18.677 78.4414 18.7171 77.8721 18.7747V21.2106C78.4069 21.2797 78.9131 21.32 79.3963 21.3372C79.8736 21.3545 80.2647 21.3659 80.5581 21.3659C81.2428 21.3659 81.7776 21.3314 82.1515 21.2682C82.531 21.2047 82.8074 21.1127 82.9855 20.9861C83.1582 20.8594 83.2674 20.7038 83.3018 20.5079C83.3363 20.3123 83.3535 20.0763 83.3535 19.8054C83.3535 19.6558 83.3422 19.5119 83.3191 19.368C83.296 19.2238 83.2099 19.0972 83.0717 18.982C82.9279 18.8667 82.7036 18.7805 82.3931 18.7171C82.0823 18.6539 81.6512 18.6194 81.0932 18.6194ZM83.6241 27.7058L81.3289 24.1068C80.7135 24.1068 80.121 24.1013 79.5517 24.0896C78.9762 24.0782 78.4183 24.0265 77.8721 23.9343V27.7058H74.7891V16.2179C75.7727 16.1086 76.802 16.0223 77.8776 15.9647C78.959 15.9071 80.0173 15.8785 81.0587 15.8785H81.536C82.4965 15.8785 83.2905 15.9761 83.9174 16.1779C84.5442 16.3794 85.0446 16.6499 85.4244 16.9897C85.8039 17.3353 86.0627 17.7324 86.2122 18.1933C86.3617 18.6481 86.4366 19.1375 86.4366 19.6499V20.3354C86.4366 21.0551 86.2928 21.7115 86.0054 22.2987C85.7235 22.8863 85.2114 23.3409 84.4812 23.6635L86.6033 27.0207V27.7058H83.6241Z" fill="#0000A2"/>
<path fill-rule="evenodd" clip-rule="evenodd" d="M18.0766 0.900848H42.2631C52.1451 0.900848 60.2332 8.99774 60.2332 18.8908V43.1043C60.2332 52.9971 52.1451 61.094 42.2631 61.094H18.0766C8.19462 61.094 0.106445 52.9971 0.106445 43.1043V18.8908C0.106445 8.99774 8.19462 0.900848 18.0766 0.900848Z" fill="#FEFEFE"/>
<path fill-rule="evenodd" clip-rule="evenodd" d="M52.9736 4.47183C57.3701 7.75738 60.2321 13.0049 60.2321 18.8907V35.6145C52.5951 26.5414 52.5019 13.9963 52.9736 4.47183ZM18.0754 0.900898H34.8481C29.0931 7.24337 21.8032 14.1519 9.04893 18.4963C8.93999 18.5327 8.82617 18.6469 8.71723 18.7817C6.11973 16.5345 3.61033 14.4374 1.31348 12.4236C3.92148 5.70191 10.4642 0.900898 18.0754 0.900898Z" fill="#00CCFF"/>
<path fill-rule="evenodd" clip-rule="evenodd" d="M58.0288 51.7047C54.9698 57.2841 49.0387 61.094 42.2621 61.094H36.5279C35.2836 55.1408 33.3393 49.8778 30.9336 45.1698C40.1572 49.1405 49.5309 52.1979 58.0288 51.7047Z" fill="#33CC66"/>
<path fill-rule="evenodd" clip-rule="evenodd" d="M36.5289 61.0941C35.2586 55.0266 33.2626 49.6753 30.8 44.9001C26.7246 48.6009 22.4006 51.5957 18.1078 53.0281C16.2775 53.6354 14.8102 52.7791 15.6501 51.4607C24.9465 36.8445 7.47379 25.493 7.06439 21.756C6.9243 20.4896 7.53103 19.3113 8.6196 18.6987C6.05841 16.4773 3.58026 14.4114 1.31465 12.4236C0.536954 14.4322 0.106445 16.6124 0.106445 18.8908V43.1043C0.106445 52.9972 8.19462 61.0941 18.0766 61.0941H36.5289Z" fill="#0000A2"/>
<path fill-rule="evenodd" clip-rule="evenodd" d="M52.9534 14.7801C53.4095 21.9897 55.1465 29.5674 60.2326 35.6143V43.1042C60.2326 46.2134 59.4291 49.146 58.0291 51.7047C49.5316 52.1978 40.1575 49.146 30.9391 45.1701C30.8926 45.0816 30.8458 44.9882 30.7994 44.9C41.9721 34.7476 51.2321 19.2803 52.6578 16.1917C52.8704 15.735 52.9638 15.2524 52.9534 14.7801ZM9.00781 18.5121C9.02339 18.5069 9.03897 18.4965 9.04938 18.4965C21.8036 14.1518 29.0933 7.24369 34.8483 0.900848H42.2625C46.2705 0.900848 49.9774 2.22947 52.9741 4.47178C52.8185 7.58609 52.7251 11.0223 52.9377 14.5568C52.86 13.7939 52.4972 13.0674 51.8801 12.5222C50.8224 11.5932 49.3398 11.4738 48.1471 12.2263L45.5288 13.8716C26.8642 26.6764 12.7098 17.1106 9.00781 18.5121Z" fill="#FF00FF"/>
<path fill-rule="evenodd" clip-rule="evenodd" d="M24.365 0.900848H34.8485C29.0935 7.24369 21.8039 14.1519 9.04933 18.4965C8.94076 18.5327 8.82657 18.6469 8.71772 18.782C7.7533 17.9513 6.80455 17.1366 5.87109 16.3425C12.129 13.7574 19.3153 9.13808 24.365 0.900848Z" fill="#52DCFF"/>
<path fill-rule="evenodd" clip-rule="evenodd" d="M47.0533 25.4723C49.9516 30.7924 54.1563 36.3098 60.2328 41.407V35.6142C55.1467 29.5676 53.4098 21.9895 52.9536 14.7799C52.9636 15.2523 52.8704 15.7349 52.658 16.1919C52.0514 17.5049 50.0345 21.0502 47.0533 25.4723ZM40.7384 0.900715H42.2627C46.2704 0.900715 49.9776 2.2297 52.9741 4.47201C52.8187 7.58596 52.7254 11.0222 52.938 14.5569C52.8603 13.7937 52.4971 13.0672 51.8803 12.5223C50.8226 11.593 49.3397 11.4736 48.1474 12.2264L45.529 13.8718C44.6476 14.4789 43.7713 15.0345 42.9107 15.5429C40.9612 9.0861 40.702 3.70382 40.7384 0.900715Z" fill="#FF63FF"/>
<path fill-rule="evenodd" clip-rule="evenodd" d="M18.3669 42.7097C18.3461 32.4067 7.38568 24.7095 7.06439 21.756C6.9243 20.4895 7.53103 19.3112 8.6196 18.699C6.05841 16.4775 3.58026 14.4116 1.31428 12.4235C0.536954 14.4324 0.106445 16.6122 0.106445 18.891V31.9084C3.96385 33.3047 10.9736 36.4399 18.3669 42.7097ZM36.5289 61.094C35.2586 55.0265 33.2626 49.6753 30.8 44.9C28.9698 46.5609 27.0927 48.0819 25.1848 49.3794C28.1243 52.6908 30.9865 56.568 33.5994 61.094H36.5289Z" fill="#3A3AC7"/>
<path fill-rule="evenodd" clip-rule="evenodd" d="M58.0288 51.7047C57.6191 52.452 57.1577 53.1631 56.6547 53.8379C46.5913 55.5663 37.6997 53.6875 34.1947 52.7479C33.2459 50.0698 32.1467 47.5472 30.9336 45.1698C40.1572 49.1405 49.5309 52.1979 58.0288 51.7047Z" fill="#5FE68C"/>
<path fill-rule="evenodd" clip-rule="evenodd" d="M47.053 25.4722C47.053 25.4722 44.9997 40.644 39.1306 48.3881C36.217 47.3706 32.4424 45.8187 30.939 45.17C30.8922 45.0818 30.8456 44.9883 30.7988 44.9001C37.2227 39.0608 43.0192 31.462 47.053 25.4722Z" fill="#D100D1"/>
</svg>
