<svg width="1920" height="1096" viewBox="0 0 1920 1096" fill="none" xmlns="http://www.w3.org/2000/svg">
<mask id="mask0" mask-type="alpha" maskUnits="userSpaceOnUse" x="0" y="0" width="1920" height="1096">
<path d="M0 1096C860 1096 1026 1096 1920 1096V48.4839C1920 48.4839 1620.08 89.0192 1377 87.5403C1060.21 85.6129 796.778 0 526.5 0C256.222 0 0 48.4839 0 48.4839L0 1096Z" fill="#E6F7FF"/>
</mask>
<g mask="url(#mask0)">
<g opacity="0.05">
<path fill-rule="evenodd" clip-rule="evenodd" d="M1342.09 -417.178H568.821C252.883 -417.178 -5.70471 -157.538 -5.70471 159.698V936.146C-5.70471 1253.38 252.883 1513.02 568.821 1513.02H1342.09C1658.03 1513.02 1916.62 1253.38 1916.62 936.146V159.698C1916.62 -157.538 1658.03 -417.178 1342.09 -417.178Z" fill="#FEFEFE"/>
<path fill-rule="evenodd" clip-rule="evenodd" d="M226.361 -302.671C85.8008 -197.314 -5.69812 -29.0422 -5.69812 159.695V695.97C238.463 405.027 241.445 2.74829 226.361 -302.671ZM1342.1 -417.179H805.855C989.849 -213.797 1222.92 7.73654 1630.68 147.047C1634.17 148.215 1637.81 151.878 1641.29 156.201C1724.33 84.1402 1804.56 16.8906 1877.99 -47.6844C1794.61 -263.226 1585.43 -417.179 1342.1 -417.179Z" fill="#00CCFF"/>
<path fill-rule="evenodd" clip-rule="evenodd" d="M64.7479 1211.93C162.547 1390.85 352.172 1513.02 568.826 1513.02H752.154C791.936 1322.12 854.099 1153.35 931.012 1002.38C636.124 1129.7 336.434 1227.74 64.7479 1211.93Z" fill="#33CC66"/>
<path fill-rule="evenodd" clip-rule="evenodd" d="M752.149 1513.02C792.763 1318.45 856.578 1146.86 935.309 993.73C1065.6 1112.4 1203.85 1208.44 1341.09 1254.37C1399.61 1273.84 1446.52 1246.38 1419.67 1204.11C1122.45 735.415 1681.07 371.412 1694.16 251.578C1698.64 210.968 1679.24 173.183 1644.44 153.541C1726.32 82.3061 1805.55 16.0596 1877.99 -47.6812C1902.85 16.7282 1916.62 86.6376 1916.62 159.698V936.146C1916.62 1253.38 1658.03 1513.02 1342.09 1513.02H752.149Z" fill="#0000A2"/>
<path fill-rule="evenodd" clip-rule="evenodd" d="M227.021 27.8824C212.439 259.07 156.906 502.062 -5.70374 695.968V936.143C-5.70374 1035.84 19.985 1129.88 64.7444 1211.93C336.421 1227.74 636.12 1129.88 930.843 1002.39C932.328 999.549 933.825 996.555 935.31 993.727C578.104 668.174 282.053 172.19 236.471 73.1494C229.673 58.5042 226.688 43.0276 227.021 27.8824ZM1632.01 147.556C1631.51 147.39 1631.01 147.056 1630.68 147.056C1222.91 7.73706 989.855 -213.784 805.862 -417.178H568.822C440.682 -417.178 322.168 -374.574 226.358 -302.67C231.335 -202.805 234.32 -92.6166 227.522 20.7225C230.006 -3.7424 241.607 -27.0387 261.335 -44.5212C295.151 -74.3116 342.553 -78.14 380.682 -54.0095L464.393 -1.2482C1061.12 409.359 1513.65 102.614 1632.01 147.556Z" fill="#FF00FF"/>
<path fill-rule="evenodd" clip-rule="evenodd" d="M1141.02 -417.178H805.855C989.849 -213.784 1222.9 7.74023 1630.68 147.056C1634.15 148.216 1637.81 151.879 1641.29 156.21C1672.12 129.574 1702.45 103.449 1732.29 77.984C1532.22 -4.91086 1302.47 -153.038 1141.02 -417.178Z" fill="#52DCFF"/>
<path fill-rule="evenodd" clip-rule="evenodd" d="M415.655 370.743C322.995 541.344 188.567 718.267 -5.70801 881.716V695.961C156.902 502.068 212.432 259.064 227.017 27.8765C226.696 43.0217 229.678 58.4984 236.467 73.1524C255.862 115.257 320.343 228.942 415.655 370.743ZM617.55 -417.184H568.818C440.687 -417.184 322.164 -374.568 226.363 -302.664C231.331 -202.811 234.313 -92.6225 227.515 20.7255C229.999 -3.74829 241.612 -27.0445 261.331 -44.5182C295.146 -74.3175 342.558 -78.1459 380.676 -54.0065L464.389 -1.24521C492.568 18.2226 520.585 36.0395 548.1 52.3415C610.427 -154.706 618.713 -327.298 617.55 -417.184Z" fill="#FF63FF"/>
<path fill-rule="evenodd" clip-rule="evenodd" d="M1332.81 923.492C1333.47 593.108 1683.89 346.284 1694.16 251.576C1698.64 210.963 1679.24 173.181 1644.44 153.548C1726.32 82.3126 1805.55 16.066 1878 -47.6865C1902.85 16.7347 1916.62 86.6322 1916.62 159.704V577.129C1793.29 621.905 1569.18 722.439 1332.81 923.492ZM752.149 1513.01C792.763 1318.45 856.578 1146.85 935.309 993.727C993.823 1046.99 1053.83 1095.76 1114.83 1137.37C1020.85 1243.55 929.345 1367.88 845.808 1513.01H752.149Z" fill="#3A3AC7"/>
<path fill-rule="evenodd" clip-rule="evenodd" d="M64.7479 1211.93C77.8456 1235.9 92.5964 1258.7 108.679 1280.33C430.416 1335.76 714.69 1275.51 826.751 1245.38C857.084 1159.5 892.228 1078.61 931.012 1002.38C636.124 1129.7 336.434 1227.75 64.7479 1211.93Z" fill="#5FE68C"/>
<path fill-rule="evenodd" clip-rule="evenodd" d="M415.656 370.742C415.656 370.742 481.301 857.25 668.943 1105.58C762.095 1072.95 882.772 1023.18 930.838 1002.38C932.334 999.554 933.822 996.557 935.319 993.728C729.942 806.483 544.619 562.813 415.656 370.742Z" fill="#D100D1"/>
</g>
</g>
</svg>
