<svg width="127" height="196" viewBox="0 0 127 196" fill="none" xmlns="http://www.w3.org/2000/svg">
<path d="M59.3945 24.9396L60.0923 23.9871L59.3945 24.9396ZM118.094 195.656C117.601 196.083 116.855 196.03 116.428 195.536L109.473 187.502C109.046 187.009 109.1 186.263 109.593 185.836C110.086 185.409 110.832 185.463 111.259 185.956L117.441 193.098L124.583 186.916C125.076 186.489 125.822 186.543 126.248 187.036C126.675 187.529 126.622 188.274 126.129 188.701L118.094 195.656ZM0.761719 1.79158C0.842977 0.613602 0.843458 0.613632 0.844052 0.613678C0.844402 0.613708 0.845111 0.613754 0.84581 0.6138C0.847209 0.613907 0.849063 0.614029 0.85137 0.614197C0.855983 0.614532 0.862406 0.61499 0.870626 0.615601C0.887065 0.616821 0.910688 0.618607 0.941376 0.621033C1.00275 0.6259 1.0924 0.633301 1.20936 0.643799C1.44328 0.664764 1.78651 0.698029 2.23149 0.747757C3.12141 0.847214 4.41855 1.01253 6.06238 1.27699C9.34965 1.80588 14.0259 2.73172 19.6063 4.32153C30.7636 7.5002 45.5582 13.3397 60.0923 23.9871L58.6967 25.8922C44.4431 15.4503 29.9213 9.71574 18.9592 6.59271C13.4799 5.03168 8.89557 4.12474 5.68726 3.60857C4.08331 3.35051 2.8239 3.19022 1.96921 3.0947C1.54189 3.04695 1.2158 3.0154 0.998484 2.99591C0.889827 2.98616 0.808368 2.97945 0.755049 2.97522C0.728389 2.97311 0.708765 2.97163 0.696294 2.9707C0.690059 2.97025 0.685612 2.96992 0.682968 2.96973C0.681646 2.96964 0.680775 2.96957 0.680356 2.96954C0.680147 2.96953 0.680173 2.96953 0.680068 2.96953C0.680207 2.96954 0.68046 2.96956 0.761719 1.79158ZM60.0923 23.9871C93.795 48.677 108.347 91.5231 114.513 127.962C117.601 146.212 118.597 162.924 118.822 175.072C118.935 181.148 118.854 186.085 118.745 189.506C118.691 191.217 118.63 192.549 118.582 193.455C118.558 193.908 118.537 194.255 118.522 194.489C118.515 194.606 118.509 194.695 118.505 194.755C118.503 194.785 118.501 194.808 118.5 194.824C118.5 194.832 118.499 194.838 118.499 194.842C118.499 194.844 118.499 194.845 118.499 194.846C118.499 194.848 118.499 194.848 117.321 194.764C116.143 194.679 116.143 194.679 116.143 194.678C116.143 194.677 116.143 194.676 116.144 194.675C116.144 194.671 116.144 194.666 116.145 194.659C116.146 194.646 116.147 194.625 116.149 194.596C116.153 194.54 116.158 194.454 116.165 194.341C116.18 194.114 116.2 193.776 116.223 193.33C116.271 192.44 116.331 191.125 116.385 189.431C116.493 186.045 116.573 181.147 116.461 175.116C116.237 163.051 115.248 146.46 112.184 128.356C106.047 92.0886 91.6359 50.0227 58.6967 25.8922L60.0923 23.9871Z" fill="#0084FF"/>
</svg>
