<svg width="56" height="56" viewBox="0 0 56 56" fill="none" xmlns="http://www.w3.org/2000/svg">
<g clip-path="url(#clip0)">
<path d="M52.1213 9.81685e-08H3.04259C1.36199 0.000847717 -0.000420789 1.37357 9.74915e-08 3.06626V52.4858C0.000841871 54.1781 1.36409 55.55 3.04511 55.5496H52.1213C53.8028 55.55 55.166 54.1777 55.1665 52.4846C55.1665 52.4841 55.1665 52.4837 55.1665 52.4833V3.06372C55.1656 1.37145 53.8024 -0.000423711 52.1213 9.81685e-08Z" fill="#4396F7"/>
<path d="M38.0886 55.5494V34.0674H45.2808L46.3582 25.659H38.0886V20.3037C38.0886 17.8749 38.7583 16.2199 42.2171 16.2199H46.6007V8.71973C45.838 8.61759 43.2214 8.38916 40.1767 8.38916C33.8196 8.38916 29.4689 12.295 29.4689 19.4709V25.659H22.3037V34.0674H29.4689V55.5494H38.0886Z" fill="white"/>
</g>
<defs>
<clipPath id="clip0">
<rect width="55.1665" height="55.5496" fill="white"/>
</clipPath>
</defs>
</svg>
