<svg width="83" height="100" viewBox="0 0 83 100" fill="none" xmlns="http://www.w3.org/2000/svg">
<path d="M42.9687 69.5312C42.9687 70.61 42.0944 71.4844 41.0156 71.4844C39.9368 71.4844 39.0625 70.61 39.0625 69.5312C39.0625 68.4525 39.9368 67.5781 41.0156 67.5781C42.0944 67.5781 42.9687 68.4525 42.9687 69.5312Z" fill="#494949"/>
<path d="M81.4587 27.9432C82.2216 27.181 82.2216 25.9443 81.4587 25.1814L65.8338 9.55644C64.7885 8.51122 63.0025 8.97127 62.5821 10.3766L51.8034 46.3063L50.5369 45.0398C50.2187 38.8814 49.5985 34.4259 48.6135 31.2856C50.0372 30.3182 50.781 28.7206 50.781 26.5623C50.781 24.6343 50.2096 22.2624 49.2285 20.0537L58.3646 2.87006C58.8712 1.91792 58.5096 0.73537 57.5574 0.22878C56.6053 -0.277047 55.422 0.0838224 54.9161 1.03673L46.8763 16.1574L46.8748 16.1558V10.9374C46.8748 9.85856 46.0005 8.98424 44.9217 8.98424C43.8429 8.98424 42.9686 9.85856 42.9686 10.9374V13.23C42.3262 13.0072 41.6723 12.8905 41.0154 12.8905C40.3586 12.8905 39.7047 13.0072 39.0623 13.23V10.9374C39.0623 9.85856 38.188 8.98424 37.1092 8.98424C36.0304 8.98424 35.1561 9.85856 35.1561 10.9374V16.1558L35.1553 16.1574L27.1148 1.03597C26.6089 0.0838223 25.4264 -0.277047 24.4735 0.22878C23.5213 0.73537 23.1597 1.91792 23.6663 2.87006L32.8024 20.0537C31.8221 22.2624 31.2499 24.6343 31.2499 26.5623C31.2499 28.7206 31.9945 30.3182 33.4174 31.2856C32.4324 34.4266 31.8121 38.8814 31.494 45.0398L30.2283 46.3063C27.5634 37.4265 19.4961 10.5299 19.4404 10.3529C18.9994 8.95219 17.2309 8.52342 16.1971 9.55644L0.572202 25.1814C-0.190734 25.9435 -0.190734 27.1803 0.572202 27.9432C1.33514 28.7061 2.57186 28.7061 3.33479 27.9432L14.6499 16.6281L12.4053 30.0893C11.8888 33.193 12.9096 36.3744 15.1351 38.5999L27.9158 51.3806L27.9174 51.3821C28.6841 52.1451 29.93 52.139 30.6861 51.373L31.2979 50.7611C31.2667 52.3739 31.2499 54.0745 31.2499 55.859C31.2499 56.6029 31.2598 57.3414 31.2743 58.0761L22.5669 52.2801C22.0313 51.9238 21.3561 51.8536 20.7587 52.0924L5.13456 58.3424C4.13283 58.7429 3.64531 59.8797 4.04585 60.8814C4.44639 61.8832 5.58393 62.3699 6.5849 61.9694L21.2569 56.1009L31.4757 62.9032C31.555 64.1369 31.655 65.353 31.7771 66.5462L16.5733 75.6687C16.0949 75.9555 15.7623 76.4331 15.6593 76.9809L11.753 97.684C11.5524 98.7444 12.2497 99.7653 13.3102 99.9659C14.3722 100.166 15.3915 99.4662 15.5914 98.4088L19.3351 78.5671L32.3126 70.7798C33.4029 77.9148 35.816 87.1089 41.0154 87.1089C46.2149 87.1089 48.6288 77.9148 49.7183 70.7798L62.6958 78.5671L66.4395 98.4088C66.6394 99.4647 67.6572 100.166 68.7215 99.9659C69.7812 99.7653 70.4785 98.7444 70.2786 97.684L66.3724 76.9809C66.2686 76.4331 65.936 75.9555 65.4576 75.6687L50.2538 66.5462C50.3767 65.353 50.4759 64.1369 50.556 62.9032L60.7747 56.1009L75.446 61.9694C76.4477 62.3699 77.5845 61.8832 77.985 60.8814C78.3856 59.8797 77.8988 58.7437 76.8971 58.3424L61.2722 52.0924C60.6756 51.8536 59.9996 51.9238 59.4648 52.2801L50.7574 58.0761C50.7719 57.3414 50.781 56.6029 50.781 55.859C50.781 54.0753 50.765 52.3739 50.7337 50.7611L51.3456 51.373C52.104 52.1405 53.3605 52.1474 54.1273 51.3692L66.8965 38.5991C69.122 36.3744 70.1421 33.193 69.6256 30.0886L67.3818 16.6289L78.6961 27.9432C79.4598 28.7061 80.6958 28.7061 81.4587 27.9432ZM46.8748 26.5623C46.8748 28.0477 46.4239 28.1713 45.738 28.3277C45.7357 28.3285 45.7334 28.3292 45.7312 28.3292C45.7243 28.3308 45.7174 28.3331 45.7106 28.3346C44.8034 28.5421 43.4698 28.5322 42.0591 28.5207C41.1482 28.5139 40.8842 28.5139 39.9725 28.5207C38.5603 28.5314 37.2275 28.5421 36.3196 28.3338C36.3119 28.3323 36.2936 28.3277 36.2936 28.3277C35.6078 28.1713 35.1561 28.0492 35.1561 26.5623C35.1561 22.8193 38.2979 16.7967 41.0154 16.7967C43.7788 16.7967 46.8748 22.8666 46.8748 26.5623ZM16.2589 30.731L18.1228 19.5494L25.1998 43.1409L17.897 35.8373C16.5611 34.5022 15.9492 32.5925 16.2589 30.731ZM41.0154 83.2027C39.0997 83.2027 35.1561 73.0892 35.1561 55.859C35.1561 49.7174 35.3087 38.2032 37.1672 32.3789C38.0644 32.4407 39.0166 32.4193 40.003 32.411C41.6548 32.3987 42.0179 32.4163 42.9892 32.4163C43.6354 32.4163 44.2625 32.4216 44.8645 32.3804C46.7207 38.2001 46.8748 49.6999 46.8748 55.859C46.8748 73.1899 42.8999 83.2027 41.0154 83.2027ZM64.1339 35.8373L56.8311 43.1409L63.9081 19.5494L65.772 30.7302C66.0817 32.5925 65.4698 34.5022 64.1339 35.8373Z" fill="#494949"/>
<path d="M41.0156 40.2344C39.9368 40.2344 39.0625 41.1087 39.0625 42.1875V61.7187C39.0625 62.7975 39.9368 63.6719 41.0156 63.6719C42.0944 63.6719 42.9687 62.7975 42.9687 61.7187V42.1875C42.9687 41.1087 42.0944 40.2344 41.0156 40.2344Z" fill="#494949"/>
</svg>
