<svg width="89" height="100" viewBox="0 0 89 100" fill="none" xmlns="http://www.w3.org/2000/svg">
<path d="M61.8086 46.0938C61.8086 47.1725 60.9343 48.0469 59.8555 48.0469C58.7767 48.0469 57.9023 47.1725 57.9023 46.0938C57.9023 45.015 58.7767 44.1406 59.8555 44.1406C60.9343 44.1406 61.8086 45.015 61.8086 46.0938Z" fill="#494949"/>
<path d="M28.6758 48.0469C29.7538 48.0469 30.6289 47.1718 30.6289 46.0938C30.6289 45.0157 29.7538 44.1406 28.6758 44.1406C27.5962 44.1406 26.7227 45.0157 26.7227 46.0938C26.7227 47.1718 27.5962 48.0469 28.6758 48.0469Z" fill="#494949"/>
<path d="M14.1649 74.0501C18.461 72.1405 23.1607 68.8896 27.5934 64.7827C28.1366 67.8291 28.9049 70.6802 29.8868 73.3002L23.3186 79.8691C22.9524 80.2353 22.7464 80.732 22.7464 81.25V91.2109L15.7152 96.4844C14.8523 97.1313 14.6776 98.3559 15.3245 99.2188C15.9684 100.077 17.1922 100.259 18.0589 99.6094L25.8714 93.75C26.3627 93.3807 26.6527 92.8017 26.6527 92.1875V82.0587L31.5713 77.14C34.3927 82.6523 38.1547 86.0863 42.2777 86.9125V94.1406C42.2777 95.2194 43.152 96.0938 44.2308 96.0938C45.3088 96.0938 46.1839 95.2194 46.1839 94.1406V86.9133C50.3084 86.087 54.0704 82.653 56.8895 77.14L61.8089 82.0587V90.2344C61.8089 90.7524 62.0149 91.2491 62.3811 91.6153L70.1936 99.4278C70.9565 100.191 72.1925 100.191 72.9554 99.4278C73.7184 98.6649 73.7184 97.4281 72.9554 96.6652L65.7151 89.4249V81.25C65.7151 80.732 65.5092 80.2353 65.1429 79.8691C65.1429 79.8691 58.6633 73.3887 58.574 73.2986C59.5552 70.6818 60.3235 67.8314 60.8674 64.782C65.3001 68.8896 69.9998 72.1405 74.2967 74.0501C78.2502 75.8072 83.5534 77.0813 86.6113 74.0219C89.068 71.566 89.0786 67.1928 86.6403 61.7065C82.3297 52.0058 71.7088 41.2704 62.3239 36.3281H68.4495C69.0194 36.3281 69.5611 36.0786 69.9327 35.6461L81.6514 21.9742C82.3533 21.1548 82.258 19.9219 81.4393 19.22C80.6199 18.5181 79.387 18.6127 78.6851 19.4321L67.5508 32.4219H58.6839C58.3787 32.4219 58.0819 32.4928 57.8142 32.6263C56.8307 30.3665 55.6939 28.3737 54.4359 26.6983L67.9696 24.5857C68.9203 24.4377 69.6214 23.6183 69.6214 22.6562V1.95312C69.6214 0.874328 68.7471 0 67.6683 0C66.5895 0 65.7151 0.874328 65.7151 1.95312V20.9839L56.9681 22.3495C57.5776 21.2273 57.9027 20.0119 57.9027 18.75C57.9027 13.3507 51.7778 5.07812 44.2308 5.07812C36.6838 5.07812 30.5589 13.3507 30.5589 18.75C30.5589 20.0569 30.9068 21.315 31.5584 22.4693L22.7464 21.0014V1.95312C22.7464 0.874328 21.8721 0 20.7933 0C19.7152 0 18.8402 0.874328 18.8402 1.95312V22.6562C18.8402 23.6115 19.5306 24.4263 20.4721 24.5827L33.9319 26.825C32.7112 28.4744 31.6072 30.4268 30.6482 32.6286C30.3796 32.4951 30.0828 32.4219 29.7777 32.4219H20.9108L9.77643 19.4321C9.07376 18.6127 7.84162 18.5181 7.02222 19.22C6.20282 19.9219 6.10822 21.1548 6.81012 21.9742L18.5289 35.6461C18.8997 36.0786 19.4421 36.3258 20.012 36.3258H26.1392C16.7398 41.275 6.12424 52.0226 1.82126 61.7065C-0.617094 67.1928 -0.606412 71.566 1.84949 74.0211C4.9104 77.0836 10.2182 75.8041 14.1649 74.0501ZM38.2783 51.9531H50.1832C51.7595 54.5425 53.7294 57.1938 55.9861 59.7656H32.4754C34.7322 57.1938 36.7029 54.5425 38.2783 51.9531ZM55.0775 71.4844H33.3833C32.5258 69.0994 31.8422 66.4497 31.3661 63.6696H57.0947C56.6179 66.4528 55.9343 69.1025 55.0775 71.4844ZM44.2308 83.2031C40.9318 83.2031 37.6039 80.3253 35.0648 75.3883H53.3967C50.8592 80.3253 47.532 83.2031 44.2308 83.2031ZM83.0705 63.2927C84.7307 67.028 85.029 70.0806 83.8495 71.2601C82.6707 72.4396 79.6182 72.1405 75.8828 70.4803C67.3303 66.6801 57.7485 57.3303 52.9893 49.0288V49.028C52.7246 48.5672 52.4759 48.1102 52.2439 47.6616L57.9225 38.575C67.1357 42.3248 78.7561 53.5843 83.0705 63.2927ZM54.947 35.965L48.3537 46.5157C48.0653 46.9772 47.989 47.5311 48.1248 48.0469H40.3367C40.4725 47.5311 40.3962 46.9765 40.1079 46.5157L33.5138 35.9634C34.8253 32.4364 36.4892 29.5731 38.3722 27.5917C40.1925 28.1982 42.1922 28.5156 44.2308 28.5156C46.2701 28.5156 48.2713 28.1982 50.0932 27.5902C51.9777 29.5753 53.6371 32.4387 54.947 35.965ZM44.2308 8.98438C49.5752 8.98438 53.9964 15.4503 53.9964 18.75C53.9964 20.5864 52.3851 22.4182 49.7926 23.5306C48.1424 24.2363 46.219 24.6094 44.2308 24.6094C42.2426 24.6094 40.32 24.2363 38.6705 23.5313C36.0765 22.4182 34.4652 20.5864 34.4652 18.75C34.4652 15.4503 38.8864 8.98438 44.2308 8.98438ZM5.39105 63.2927C9.71997 53.5507 21.3632 42.3088 30.5406 38.5757L36.2176 47.6616C35.9857 48.1102 35.7362 48.5672 35.4722 49.0288C30.7031 57.3471 21.1152 66.687 12.5787 70.4803C8.84336 72.1405 5.79083 72.4388 4.61133 71.2593C3.43259 70.0806 3.7309 67.028 5.39105 63.2927Z" fill="#494949"/>
<path d="M11.927 63.3629C12.8379 63.9473 14.0449 63.6772 14.6247 62.7724C16.352 60.0785 18.5821 57.3578 21.2524 54.6875C22.0642 53.8758 22.9133 53.0777 23.7762 52.3148C24.5842 51.6007 24.6604 50.3662 23.9463 49.5583C23.2322 48.7496 21.997 48.674 21.1891 49.3881C20.2667 50.2037 19.3588 51.0575 18.4906 51.9257C15.6219 54.7943 13.2148 57.7339 11.3365 60.6644C10.7543 61.573 11.0183 62.7808 11.927 63.3629Z" fill="#494949"/>
<path d="M64.7552 52.3147C65.6196 53.0784 66.4687 53.8772 67.279 54.6874C69.9523 57.363 72.1824 60.0829 73.9066 62.7723C74.4865 63.6779 75.6934 63.9464 76.6051 63.3628C77.513 62.7807 77.777 61.5722 77.1949 60.6643C75.3203 57.7392 72.9133 54.7996 70.0408 51.9256C69.1741 51.0589 68.2662 50.2051 67.3423 49.388C66.5336 48.6732 65.2999 48.7495 64.5858 49.5574C63.8709 50.3661 63.9472 51.6006 64.7552 52.3147Z" fill="#494949"/>
</svg>
