<svg width="96" height="100" viewBox="0 0 96 100" fill="none" xmlns="http://www.w3.org/2000/svg">
<path d="M14.0377 34.6914C14.0126 34.5663 13.9753 34.4435 13.9266 34.3245C13.8779 34.207 13.8178 34.0941 13.7478 33.9888C13.6779 33.8812 13.5957 33.782 13.5067 33.692C13.0548 33.2396 12.3816 33.0305 11.7495 33.1579C11.627 33.1831 11.5046 33.2197 11.3859 33.2686C11.2695 33.3174 11.1562 33.3784 11.0512 33.4486C10.9439 33.5203 10.8451 33.6027 10.7553 33.692C10.664 33.782 10.5841 33.8812 10.5126 33.9888C10.4427 34.0941 10.3818 34.207 10.3331 34.3245C10.2844 34.4435 10.2479 34.5663 10.2228 34.6914C10.197 34.8166 10.1855 34.9447 10.1855 35.0722C10.1855 35.5848 10.394 36.0884 10.7553 36.4515C10.8451 36.5408 10.9439 36.6232 11.0512 36.6934C11.1562 36.7636 11.2695 36.8239 11.3859 36.8727C11.5046 36.9215 11.627 36.9581 11.7495 36.9841C11.8758 37.0093 12.0043 37.023 12.1314 37.023C12.6426 37.023 13.1446 36.8139 13.5067 36.4508C13.868 36.0884 14.0764 35.5848 14.0764 35.0714C14.0764 34.9447 14.0628 34.8166 14.0377 34.6914Z" fill="#494949"/>
<path d="M33.4367 34.3247C33.388 34.2072 33.3279 34.0943 33.2572 33.989C33.1857 33.8814 33.1035 33.7822 33.0145 33.6922C32.5627 33.2375 31.8917 33.0307 31.2596 33.1581C31.1349 33.1833 31.0124 33.2199 30.896 33.2688C30.7789 33.3176 30.664 33.3786 30.559 33.4488C30.4525 33.5205 30.3529 33.6029 30.2639 33.6922C30.1741 33.7822 30.092 33.8814 30.022 33.989C29.952 34.0943 29.8919 34.2072 29.8432 34.3247C29.7945 34.4437 29.758 34.5665 29.7322 34.6917C29.7071 34.8168 29.6934 34.945 29.6934 35.0724C29.6934 35.5851 29.9018 36.0886 30.2639 36.4518C30.3529 36.541 30.4525 36.6234 30.559 36.6936C30.664 36.7638 30.7789 36.8241 30.896 36.8729C31.0124 36.9217 31.1349 36.9583 31.2596 36.9843C31.3844 37.0095 31.5122 37.0232 31.6392 37.0232C31.7655 37.0232 31.894 37.0095 32.0203 36.9843C32.1428 36.9583 32.2652 36.9217 32.3839 36.8729C32.501 36.8241 32.6136 36.7638 32.7186 36.6936C32.8259 36.6234 32.9247 36.541 33.0145 36.4518C33.1035 36.3617 33.1857 36.2618 33.2572 36.155C33.3279 36.0497 33.388 35.936 33.4367 35.817C33.4854 35.7003 33.5219 35.5774 33.5477 35.4523C33.5729 35.3272 33.5843 35.199 33.5843 35.0724C33.5843 34.945 33.5729 34.816 33.5477 34.6917C33.5219 34.5665 33.4854 34.4437 33.4367 34.3247Z" fill="#494949"/>
<path d="M89.9723 55.8121C85.7247 51.2421 79.694 49.6971 73.8085 48.7091C68.7584 47.86 63.3225 44.2505 63.3225 38.3308C63.3225 32.6172 67.9444 27.9686 73.626 27.9686C74.1706 27.9686 74.7145 28.0106 75.2409 28.0945C76.2595 28.2578 77.2248 27.5948 77.4461 26.5862C77.6667 25.5768 77.065 24.5697 76.0739 24.2897C74.0215 23.7083 71.8893 23.4138 69.7351 23.4138C59.0262 23.4138 49.9801 30.6999 47.2409 40.5983C47.2241 40.6509 47.2097 40.7036 47.1983 40.757C46.6719 42.7101 46.3897 44.7632 46.3897 46.8811C46.3897 51.7258 47.9042 56.4484 50.6389 60.3691C50.4061 60.3615 50.1733 60.3546 49.9398 60.3546C48.1081 60.3531 46.3197 60.0433 44.6196 59.4337C38.8551 57.3723 34.8303 52.2224 34.1784 46.1761L38.5082 43.7866C42.6722 41.4909 44.6758 36.6852 43.3804 32.0992L39.8805 19.7151V1.95084C39.8805 0.873566 39.0095 0 37.9354 0C33.0016 0 28.8217 3.29437 27.4646 7.80487H16.2917C14.9407 3.2959 10.766 0 5.83605 0C4.7612 0 3.89022 0.873566 3.89022 1.95084V19.677L0.39031 32.0999C-0.904375 36.6852 1.09851 41.4917 5.26173 43.7866L12.651 47.863C9.61513 50.7324 7.51412 54.538 6.75115 58.6617C6.75039 58.6624 6.75039 58.6632 6.75039 58.6639C6.6941 58.9645 6.64542 59.2667 6.60358 59.5711C6.47883 60.4729 6.41569 61.3892 6.41569 62.307C6.41569 64.6622 6.83711 66.9746 7.63203 69.1422C8.60494 71.7934 10.137 74.2287 12.149 76.2642V84.3224C9.24468 84.7427 6.56327 86.1031 4.45161 88.2561C1.8881 90.8752 0.476267 94.3527 0.476267 98.0484C0.476267 99.1264 1.34725 100 2.42134 100H23.0116H49.9375C56.3387 100 62.0377 96.9307 65.6517 92.1837C68.1924 93.1602 70.867 93.6562 73.626 93.6562C85.9628 93.6562 96 83.567 96 71.1655C96 65.4427 93.8587 59.9899 89.9723 55.8121ZM63.4959 28.3485C60.9834 30.9227 59.4316 34.4482 59.4316 38.3308C59.4316 38.929 59.4757 39.5172 59.5564 40.0963C58.7592 40.2863 57.3519 40.4869 55.3726 40.4869C53.604 40.4869 52.2949 40.3267 51.4672 40.1566C53.4884 34.6207 57.9293 30.249 63.4959 28.3485ZM36.6339 40.3679L31.2589 43.3334C31.2574 43.3334 31.2566 43.3342 31.2551 43.335L27.7118 45.2904V30.2643L36.8431 23.2765L39.6371 33.1635C40.435 35.9901 39.2004 38.9526 36.6339 40.3679ZM16.7237 11.7073H27.0264C27.3011 15.834 29.8615 19.342 33.4466 20.9671L27.7118 25.3555V21.463C27.7118 20.3857 26.8408 19.5122 25.7668 19.5122C24.6919 19.5122 23.8209 20.3857 23.8209 21.463V42.2813C23.2124 42.067 22.5574 41.9502 21.8758 41.9502C21.1943 41.9502 20.5393 42.067 19.93 42.2821V21.463C19.93 20.3857 19.059 19.5122 17.9849 19.5122C16.9101 19.5122 16.0391 20.3857 16.0391 21.463V25.3319L10.3142 20.9312C13.8879 19.3115 16.4415 15.8188 16.7237 11.7073ZM21.8758 45.8527C22.8328 45.8527 23.6292 46.5378 23.7928 47.4525L21.8857 48.5039L19.9604 47.4419C20.1293 46.5324 20.9235 45.8527 21.8758 45.8527ZM35.9896 4.17633V17.7612C33.048 16.9121 30.8892 14.1884 30.8892 10.9688C30.8892 7.74918 33.048 5.02548 35.9896 4.17633ZM7.78112 4.17709C10.712 5.02548 12.8617 7.74002 12.8617 10.9489C12.8617 14.1586 10.712 16.8732 7.78112 17.7216V4.17709ZM4.1344 33.1619L6.92839 23.2452L16.0391 30.2483V45.2789L7.13682 40.3679C4.57027 38.9526 3.33568 35.9901 4.1344 33.1619ZM27.7118 82.5104C29.1472 82.9185 30.3522 83.6151 31.3585 84.6313C30.076 84.9686 28.8498 85.4927 27.7118 86.1908V82.5104ZM24.9969 78.1937C21.5237 77.9343 18.2132 76.5228 15.5979 74.1714C14.9673 73.6061 14.3869 72.9942 13.8605 72.3434C11.5792 69.5251 10.3066 65.9813 10.3066 62.307C10.3066 62.3024 10.3066 62.2971 10.3066 62.2925C10.3066 62.0773 10.3127 61.8629 10.321 61.6486C10.3241 61.5845 10.3271 61.5211 10.3309 61.4571C10.3401 61.2854 10.3515 61.1137 10.3659 60.9421C10.3705 60.8902 10.3743 60.8376 10.3789 60.7857C10.3979 60.585 10.4215 60.3859 10.4481 60.1875C12.2509 59.1042 14.3025 58.5358 16.4286 58.5358C22.8647 58.5358 28.1013 63.7871 28.1013 70.2423C28.1013 73.2323 27.0044 76.0262 24.9969 78.1937ZM7.22658 90.9912C9.0644 89.1174 11.5032 88.0859 14.094 88.0859C15.1681 88.0859 16.0391 87.2116 16.0391 86.1343V79.3198C18.4147 80.7472 21.0657 81.6628 23.8209 81.9954V89.7408C22.422 91.6092 21.5267 93.7843 21.2034 96.0976H4.55202C4.92323 94.175 5.84138 92.4072 7.22658 90.9912ZM27.8655 91.0034C29.3093 89.5561 31.1045 88.6116 33.0412 88.2515C33.5189 91.304 34.9923 94.0269 37.1139 96.0793L25.1468 96.0945C25.5249 94.1788 26.4582 92.4164 27.8655 91.0034ZM73.626 89.7545C71.5965 89.7545 69.624 89.4302 67.736 88.7909C68.9949 86.1847 69.7016 83.2626 69.7016 80.1773C69.7016 79.9423 69.6971 79.7081 69.6894 79.4746C69.6514 78.3974 68.7492 77.5558 67.6774 77.5925C66.6033 77.6299 65.7635 78.5332 65.8008 79.6104C65.8069 79.7989 65.8107 79.9873 65.8107 80.1773C65.8107 88.9557 58.6899 96.0976 49.9565 96.0976L46.7708 96.0663C46.77 96.0663 46.77 96.0663 46.7693 96.0663C46.7685 96.0663 46.7677 96.0663 46.767 96.0663H46.7061C41.2239 96.0663 36.764 91.5924 36.764 86.0939C36.764 80.5954 41.2239 76.1223 46.7061 76.1223C47.781 76.1223 48.652 75.2487 48.652 74.1707C48.652 73.0934 47.781 72.2198 46.7061 72.2198C40.6998 72.2198 35.5773 76.0811 33.6703 81.4575C32.4273 80.3246 30.9843 79.4807 29.3465 78.933C31.0489 76.3802 31.9914 73.3498 31.9914 70.2431C31.9914 61.6356 25.0099 54.6333 16.4286 54.6333C14.8897 54.6333 13.3813 54.8592 11.9375 55.2948C12.9675 53.2005 14.4523 51.3359 16.2833 49.8665L17.0455 50.2876C17.0463 50.2876 17.0463 50.2876 17.047 50.2884L20.9478 52.4406C21.2392 52.6016 21.5624 52.6817 21.885 52.6817C22.2083 52.6817 22.5308 52.6016 22.8221 52.4406L26.7039 50.2998L30.5461 48.1804C31.8439 55.0179 36.6423 60.7246 43.3112 63.1088C45.4289 63.8687 47.6577 64.2555 49.9512 64.2578C51.7753 64.2593 53.5477 64.5668 55.2212 65.1588C55.2851 65.1855 55.3498 65.2092 55.416 65.229C56.9031 65.7776 58.3096 66.5512 59.5974 67.5438C59.9512 67.8162 60.368 67.9482 60.7818 67.9482C61.3653 67.9482 61.9426 67.6849 62.326 67.1852C62.9802 66.3307 62.8205 65.1062 61.9685 64.4493C60.4251 63.2607 58.747 62.3222 56.9723 61.644C56.7745 61.4716 56.5889 61.3029 56.4102 61.1328C52.4577 57.3975 50.2806 52.3361 50.2806 46.8811C50.2806 45.8824 50.3582 44.902 50.5027 43.9438C51.0664 44.0689 51.7335 44.1757 52.5292 44.2551C53.429 44.3451 54.4012 44.3901 55.3711 44.3901C56.4977 44.3901 57.6219 44.3298 58.6291 44.2101C59.4088 44.117 60.085 43.9934 60.6715 43.837C62.7588 48.2521 67.326 51.5762 73.1665 52.5574C78.3742 53.4325 83.6701 54.7554 87.1266 58.474C90.3398 61.927 92.1091 66.4352 92.1091 71.1655C92.1091 81.4156 83.8176 89.7545 73.626 89.7545Z" fill="#494949"/>
<path d="M67.5047 71.1971C67.456 71.0803 67.3959 70.9667 67.326 70.8614C67.256 70.7546 67.1746 70.6546 67.0848 70.5653C66.9951 70.473 66.8962 70.3929 66.7889 70.3212C66.6839 70.251 66.5714 70.1907 66.4527 70.1419C66.3355 70.0931 66.2131 70.0557 66.0891 70.0305C65.8381 69.9794 65.5809 69.9794 65.3284 70.0305C65.2052 70.0557 65.0827 70.0931 64.964 70.1419C64.8476 70.1907 64.7351 70.251 64.6293 70.3212C64.5228 70.3929 64.4232 70.473 64.3342 70.5653C64.2444 70.6546 64.163 70.7546 64.093 70.8614C64.0208 70.9667 63.9622 71.0803 63.9135 71.1971C63.8648 71.3161 63.826 71.4389 63.8009 71.5617C63.7774 71.6892 63.7637 71.8181 63.7637 71.9447C63.7637 72.4574 63.9721 72.961 64.3342 73.3241C64.4232 73.4134 64.5228 73.4958 64.6293 73.566C64.7351 73.6362 64.8476 73.6964 64.964 73.7453C65.0827 73.7941 65.2052 73.8307 65.3284 73.8567C65.4547 73.8818 65.5832 73.8956 65.7095 73.8956C65.8358 73.8956 65.9643 73.8818 66.0891 73.8567C66.2131 73.8307 66.3355 73.7941 66.4527 73.7453C66.5714 73.6964 66.6839 73.6362 66.7889 73.566C66.8962 73.4958 66.9951 73.4134 67.0848 73.3241C67.4469 72.961 67.6546 72.4574 67.6546 71.9447C67.6546 71.8181 67.6409 71.6892 67.6158 71.5617C67.5907 71.4397 67.5534 71.3161 67.5047 71.1971Z" fill="#494949"/>
</svg>
