<svg width="100" height="60" viewBox="0 0 100 60" fill="none" xmlns="http://www.w3.org/2000/svg">
<path d="M99.6571 33.6301C96.3028 28.5657 91.3437 25.6462 88.1991 24.1981L93.6971 18.2288C94.2078 17.6746 94.3746 16.8862 94.1324 16.1733C93.8902 15.4604 93.2775 14.9357 92.5341 14.8047C86.3942 13.7229 82.0242 13.873 79.1849 14.295L81.8494 6.56272C82.0588 5.95513 81.972 5.28445 81.6146 4.7497C81.2572 4.21475 80.6701 3.87707 80.0267 3.83578C72.7994 3.37425 67.5855 5.69185 64.5165 7.68072L63.9809 1.87223C63.8797 0.774286 62.9301 -0.0430345 61.826 0.0017556C54.3626 0.348587 48.1123 4.4533 44.1913 7.82346L44.7343 3.48486C44.8247 2.76413 44.5279 2.04964 43.9532 1.60329C43.3784 1.15695 42.6108 1.04556 41.9323 1.30865C41.7386 1.38382 37.1217 3.21106 31.1815 8.44838C30.3262 9.20261 30.246 10.5054 31.0022 11.358C31.7587 12.2109 33.0654 12.2908 33.9206 11.5368C36.326 9.41604 38.4875 7.91285 40.1401 6.89962L39.3391 13.2993C39.2246 14.2142 39.734 15.0925 40.5856 15.4518C41.437 15.8109 42.4249 15.562 43.004 14.8432C43.0813 14.7474 50.3625 5.83907 60.0541 4.31991L60.7502 11.8696C60.8252 12.684 61.376 13.377 62.1541 13.636C62.9319 13.8947 63.7901 13.6709 64.3411 13.0649C64.3884 13.0127 68.7322 8.344 77.0067 7.92843L74.0274 16.5745C74.0258 16.5791 74.0248 16.584 74.0233 16.5887C74.0047 16.6442 73.9885 16.7001 73.9748 16.7564C73.9719 16.768 73.9688 16.7801 73.9662 16.792C73.9543 16.845 73.9448 16.8983 73.9371 16.9519C73.9348 16.9671 73.9325 16.9825 73.9305 16.9976C73.9244 17.0481 73.9207 17.0987 73.9186 17.1493C73.9178 17.1665 73.9164 17.1836 73.9161 17.2009C73.9151 17.2512 73.9164 17.3018 73.9192 17.3521C73.92 17.3678 73.9202 17.3838 73.9215 17.3994C73.9254 17.4529 73.9323 17.5063 73.9405 17.5597C73.942 17.5708 73.9434 17.5819 73.9452 17.5932C73.9553 17.6518 73.968 17.7098 73.9834 17.7674C73.9846 17.7723 73.9858 17.7774 73.9871 17.7822C74.0039 17.8444 74.0237 17.9053 74.0463 17.9657C74.0465 17.9663 74.0467 17.9669 74.0469 17.9676C74.0698 18.0286 74.0957 18.0884 74.1246 18.1474C74.125 18.148 74.1252 18.1487 74.1256 18.1495C74.153 18.205 74.1829 18.2592 74.2155 18.3127C74.2184 18.3174 74.2211 18.3223 74.2239 18.3269C74.2532 18.3743 74.285 18.4202 74.3188 18.4658C74.3266 18.4765 74.3342 18.4872 74.3424 18.4977C74.3723 18.5365 74.4043 18.5742 74.4372 18.6112C74.451 18.6268 74.4649 18.6424 74.4791 18.6576C74.4932 18.6724 74.5053 18.6882 74.5202 18.7028C74.5436 18.7261 74.568 18.7472 74.592 18.769C74.5979 18.7744 74.6036 18.7799 74.6096 18.7852C74.9989 19.1306 75.4872 19.3047 75.9766 19.3061C75.9788 19.3061 75.9809 19.3063 75.9833 19.3063C76.0184 19.3063 76.0532 19.3039 76.0882 19.3022C76.1038 19.3014 76.1196 19.3016 76.1352 19.3002C76.168 19.2977 76.2005 19.2934 76.2333 19.2895C76.2538 19.287 76.2743 19.2854 76.2946 19.2823C76.3186 19.2786 76.3427 19.2732 76.3665 19.2689C76.3954 19.2634 76.4245 19.2586 76.4536 19.2517C76.4669 19.2486 76.4798 19.2445 76.493 19.241C76.5321 19.2311 76.571 19.221 76.6095 19.2089C76.6102 19.2087 76.611 19.2083 76.612 19.2081C76.7089 19.1774 76.804 19.1398 76.8966 19.0944C77.1632 18.9791 80.6111 17.5762 87.9929 18.3277L83.1232 23.6147C82.6414 24.1378 82.4637 24.8717 82.6529 25.5562C82.8424 26.2409 83.3717 26.7804 84.0541 26.9839C84.1217 27.0041 89.9603 28.7893 94.3277 33.5141L85.4914 35.6455C84.7182 35.8321 84.1225 36.4455 83.957 37.2215C83.7914 37.9974 84.0887 38.8003 84.7192 39.2842C84.7744 39.3267 89.628 43.1054 91.508 48.4586L86.1823 49.0654C83.4785 49.3719 80.8035 49.4408 78.2302 49.2708C77.5597 49.227 76.8968 49.167 76.2575 49.0924C65.0436 47.7957 53.0864 43.0331 44.5224 36.5236C46.7048 33.2227 46.7004 29.2088 44.2745 26.6772C41.6346 23.929 36.9793 24.0005 33.42 26.6752C32.1894 25.8119 30.8768 24.9931 29.4993 24.2318C27.7701 23.2772 25.8656 22.8638 23.998 22.9629C24.8996 21.6276 25.8346 20.3388 26.8022 19.1094C27.5071 18.2138 27.3504 16.918 26.4522 16.2154C25.5539 15.5122 24.2543 15.6685 23.5494 16.5641C21.2868 19.4387 19.186 22.6015 17.2997 25.9656C16.9901 26.2768 16.7014 26.6043 16.4422 26.9424C15.8119 27.7613 15.0883 28.7062 14.257 29.7975C13.3728 30.9579 12.0753 31.9626 10.4013 32.7834C7.30339 34.3024 4.02677 34.6804 3.09375 34.7604C2.04139 34.8519 1.11012 35.413 0.538627 36.3C-0.0307184 37.1837 -0.15533 38.2568 0.196434 39.2433C0.826327 41.0127 2.2453 43.5206 5.4266 45.4202C9.84562 48.057 16.3018 48.6915 24.6244 47.3092C25.7443 47.9034 28.0563 48.9106 31.8925 49.641C30.0557 49.9912 28.361 50.8694 27.075 52.1672C26.3459 52.9051 25.7424 53.8186 25.3299 54.8079C24.9097 55.8156 24.6879 56.8982 24.6879 57.9385C24.6879 59.0767 25.6135 59.9998 26.7553 59.9998H40.8592C43.93 59.9998 46.524 57.3188 46.524 54.1457V52.5738L60.3279 53.1181C59.523 54.49 59.0506 56.1506 59.0506 57.9387C59.0506 59.0769 59.9762 60 61.118 60H73.4955C75.1817 60 76.8118 58.8288 78.0857 56.7021C78.7027 55.6721 79.1648 54.5416 79.429 53.4577C79.9546 53.4754 80.4832 53.4848 81.0148 53.4848C82.8689 53.4848 84.7551 53.3769 86.6516 53.1617L94.3404 52.2856C94.9057 52.2211 95.4192 51.9275 95.7604 51.4737C96.1016 51.0198 96.2399 50.4459 96.143 49.887C95.3141 45.1015 92.4423 41.1938 90.1784 38.7572L98.4208 36.7691C99.0753 36.611 99.6118 36.1454 99.8585 35.5205C100.102 34.8961 100.028 34.1906 99.6571 33.6301ZM6.72916 41.3366C5.60785 40.4984 4.91214 39.5713 4.48127 38.7535C5.60317 38.6026 7.32077 38.2947 9.20889 37.6883C8.80654 39.0809 8.07059 40.5934 6.72916 41.3366ZM44.5357 48.3704C43.9761 48.3501 43.4269 48.5555 43.0212 48.9441C42.6157 49.3326 42.3864 49.8693 42.3864 50.4301V54.1465C42.3864 55.0367 41.643 55.8779 40.8565 55.8779H29.3993C29.5747 55.5747 29.7833 55.2982 30.0155 55.0634C30.9411 54.1294 32.2817 53.594 33.6958 53.594C33.6978 53.594 33.6997 53.594 33.7017 53.594L37.1461 53.5962C37.1465 53.5962 37.1469 53.5962 37.1473 53.5962C37.6953 53.5962 38.2211 53.3791 38.6088 52.9929C38.9969 52.6061 39.2147 52.0817 39.2147 51.5349V48.2658C39.2147 47.1935 38.3903 46.3003 37.3182 46.2115C29.6538 45.5772 26.3859 43.5796 26.1873 43.4538C25.7334 43.1262 25.2025 43.0234 24.6496 43.1219C19.0749 44.1159 14.3996 44.1441 10.8765 43.2285C13.067 40.7403 13.6312 37.2233 13.7765 35.6286C15.3143 34.68 16.5787 33.5626 17.5469 32.2921C18.3737 31.2068 19.0928 30.2676 19.722 29.4506C19.9151 29.199 20.1351 28.9562 20.3737 28.7307C22.3036 26.9126 25.165 26.5543 27.4932 27.8396C28.5889 28.4448 29.6372 29.0888 30.6274 29.7634C29.9106 30.9552 29.4526 32.2526 29.3044 33.5575C29.176 34.6887 29.9915 35.7096 31.1261 35.8377C32.2603 35.9658 33.2845 35.1526 33.4128 34.0212C33.5425 32.8796 34.1218 31.7137 35.055 30.7268C35.1339 30.6419 35.2166 30.5601 35.2972 30.4828C37.2508 28.6209 39.9934 28.1842 41.2842 29.528C42.5474 30.8463 42.0257 33.5228 40.1346 35.3822C40.1157 35.4011 40.0954 35.42 40.0639 35.4496C38.9873 36.4765 37.6422 37.1055 36.3728 37.1748C35.2326 37.2373 34.3591 38.2094 34.4216 39.3459C34.482 40.4443 35.3941 41.2943 36.4842 41.2943C36.5223 41.2943 36.5607 41.2933 36.5992 41.2912C38.3533 41.1952 40.0905 40.5656 41.6171 39.4974C46.5279 43.311 52.3868 46.5312 58.6398 48.9263L44.5357 48.3704ZM73.4166 55.8781H63.5733C64.1172 54.5097 65.1657 53.5385 66.3108 53.5385H75.067C74.5959 54.6661 73.8811 55.677 73.4166 55.8781Z" fill="#494949"/>
<path d="M30.3795 11.9647C29.551 11.1819 28.2424 11.2171 27.4568 12.0434L27.2871 12.223C26.5054 13.0526 26.5462 14.3573 27.3787 15.1367C27.7777 15.5102 28.2861 15.6956 28.7935 15.6956C29.3445 15.6956 29.8939 15.4773 30.301 15.0453L30.4586 14.879C31.2436 14.0525 31.2082 12.748 30.3795 11.9647Z" fill="#494949"/>
<path d="M22.708 31.6367C21.5662 31.6367 20.6406 32.5598 20.6406 33.698V34.7679C20.6406 35.9062 21.5662 36.8293 22.708 36.8293C23.8499 36.8293 24.7755 35.9062 24.7755 34.7679V33.698C24.7755 32.5596 23.8499 31.6367 22.708 31.6367Z" fill="#494949"/>
</svg>
