<svg width="82" height="90" viewBox="0 0 82 90" fill="none" xmlns="http://www.w3.org/2000/svg">
<path d="M81.8838 46.9737L73.0739 23.3128C72.8502 22.7116 72.3298 22.2643 71.6939 22.1265C71.0582 21.9883 70.3944 22.1788 69.934 22.6314L51.1826 41.0634C48.7031 39.017 45.8373 37.3664 42.8664 36.2257C49.6152 33.2825 54.3349 26.6308 54.3349 18.9144C54.3351 8.48492 45.7032 0 35.093 0C24.4791 0 15.844 8.48492 15.844 18.9144C15.844 26.1778 20.0276 32.4976 26.1492 35.6696C22.0919 36.9967 18.4109 39.3807 15.3744 42.698C14.8648 42.638 14.3492 42.6038 13.8279 42.6038C10.4067 42.6038 7.19129 43.9141 4.77582 46.292L3.75062 47.2988C1.33114 49.6758 -0.000762613 52.8381 3.27589e-07 56.2034C0.000763268 59.5675 1.33305 62.7276 3.75004 65.1004L24.2926 85.2975L25.3176 86.3057C27.7356 88.6875 30.951 89.9994 34.3716 90C34.3724 90 34.373 90 34.3737 90C37.7947 90 41.0117 88.6883 43.4298 86.3078L44.4575 85.2984C44.4693 85.287 44.481 85.2752 44.4922 85.2636L81.4409 48.9441C81.9663 48.428 82.139 47.6594 81.8838 46.9737ZM48.4719 43.7279L36.283 55.7091V38.9785H39.2087V38.9787C42.4723 39.8889 45.7516 41.5503 48.4719 43.7279ZM35.093 3.74999C43.5998 3.74999 50.5204 10.5527 50.5204 18.9144C50.5204 19.4634 50.4889 20.0049 50.431 20.5391L41.0266 11.4335C40.5034 10.9269 39.7309 10.7606 39.0406 11.0057L19.6997 17.8682C20.2492 9.99317 26.941 3.74999 35.093 3.74999ZM19.9368 21.7706L39.2056 14.9338L49.3358 24.7419C47.0084 30.2259 41.5015 34.0906 35.093 34.0906C27.5757 34.0908 21.3 28.7778 19.9368 21.7706ZM28.3577 38.9311C28.4935 38.9613 28.6345 38.9787 28.7795 38.9787H32.4683V55.7151L22.8819 46.2935C21.8788 45.3061 20.7369 44.5062 19.5013 43.9043C22.0751 41.5083 25.0889 39.8215 28.3577 38.9311ZM40.7334 83.6556L40.7325 83.6565C39.0332 85.3292 36.7753 86.2502 34.3739 86.2502C34.3733 86.2502 34.373 86.2502 34.3724 86.2502C31.972 86.2498 29.7152 85.3288 28.0169 83.656L26.9907 82.6466V82.6465H26.9906L6.44685 62.4482C4.75007 60.7825 3.81547 58.5646 3.81489 56.2028C3.81432 53.84 4.74912 51.62 6.44723 49.9516L7.47358 48.9434C9.16998 47.2737 11.4266 46.354 13.8279 46.354C16.2295 46.354 18.4862 47.2735 20.1838 48.9443L33.0243 61.5644C33.7082 62.2367 34.7813 62.2896 35.5292 61.7271C35.5448 61.7153 35.5612 61.7052 35.5769 61.6926C35.6013 61.6733 35.624 61.6508 35.6476 61.6298C35.6724 61.6081 35.698 61.5874 35.7216 61.564L70.5186 27.3599L77.8829 47.1387L40.7334 83.6556Z" fill="#494949"/>
<path d="M13.4325 53.6982C12.6881 52.9656 11.4803 52.9652 10.7351 53.6969C9.98993 54.4287 9.98917 55.6157 10.7338 56.3485L18.4807 63.9716C18.8532 64.3382 19.3417 64.5216 19.8302 64.5216C20.3181 64.5216 20.8058 64.3386 21.1781 63.973C21.9233 63.2411 21.924 62.0541 21.1794 61.3213L13.4325 53.6982Z" fill="#494949"/>
<path d="M22.3887 67.0484C22.3887 68.1662 23.2912 69.0734 24.4032 69.0734C25.516 69.0734 26.4186 68.1662 26.4186 67.0484C26.4186 65.9307 25.516 65.0234 24.4032 65.0234C23.2912 65.0234 22.3887 65.9307 22.3887 67.0484Z" fill="#494949"/>
</svg>
