<svg width="100" height="72" viewBox="0 0 100 72" fill="none" xmlns="http://www.w3.org/2000/svg">
<path d="M84.5775 15.0255C83.4458 14.8478 82.3845 15.6183 82.2064 16.747C82.1445 17.139 82.0835 17.53 82.0239 17.9195C81.8515 19.0491 82.629 20.1043 83.7611 20.2769C83.8673 20.2931 83.9726 20.3007 84.0767 20.3007C85.0835 20.3007 85.9673 19.5675 86.1242 18.5443C86.1826 18.1612 86.2425 17.7763 86.3033 17.3909C86.4814 16.2621 85.7089 15.2032 84.5775 15.0255Z" fill="#494949"/>
<path d="M96.7524 13.5651C96.752 13.5649 96.7516 13.5645 96.7512 13.5641C93.5893 11.082 89.2379 8.25546 83.2187 7.91354C83.223 7.7943 83.2252 7.67468 83.2252 7.55467C83.2252 3.24779 80.2572 0 76.3216 0C72.402 0 69.5571 3.17707 69.5571 7.55467C69.5571 10.1724 70.6288 12.5766 72.3309 14.073C71.0468 16.5131 70.018 19.7299 69.1497 23.9843C68.9212 25.1038 69.6458 26.196 70.768 26.424C70.9079 26.4526 71.0468 26.4661 71.1841 26.4661C72.1491 26.4661 73.0138 25.7898 73.2138 24.8098C74.1944 20.0052 75.389 16.659 76.865 14.5798C77.2441 14.046 77.3476 13.3644 77.1442 12.7426C76.9409 12.1207 76.4546 11.6313 75.8327 11.423C74.7751 11.0688 73.7044 9.62647 73.7044 7.55486C73.7044 5.51072 74.756 4.13738 76.3214 4.13738C77.9441 4.13738 79.0775 5.54287 79.0775 7.55486C79.0775 8.17929 78.9775 8.7778 78.7796 9.33364C78.5398 10.0095 78.6673 10.7608 79.1173 11.3199C79.5671 11.8787 80.273 12.1663 80.9882 12.0778C81.3171 12.0375 81.6574 12.0168 81.9992 12.0168C87.3824 12.0168 91.3395 14.5815 94.1858 16.8158H94.186C95.0276 17.4769 95.8975 19.1249 95.851 20.5248C95.8168 21.5593 95.3032 22.0277 94.92 22.2897C92.3479 24.0486 88.4801 25.3604 81.5706 26.8166C80.6117 27.0188 79.9255 27.8628 79.9255 28.8404V54.9194C79.6017 63.2015 73.3763 63.462 72.6815 63.4648C72.6735 63.4646 72.6651 63.4646 72.6571 63.4646C72.1118 63.4646 71.588 63.6789 71.1995 64.0617C70.8055 64.4504 70.5835 64.9801 70.5835 65.5331V67.818C70.329 67.7744 70.0874 67.6995 69.8717 67.5871C67.7157 66.4675 66.5258 64.7364 66.2344 62.2938C65.8473 59.0673 67.1907 55.8382 67.2186 55.7722C67.6684 54.7236 67.1823 53.5096 66.1317 53.0584C65.0795 52.6068 63.86 53.0913 63.4071 54.1407C63.3436 54.2879 62.0619 57.3084 62.0201 60.9135C58.065 61.5831 53.5046 60.7843 51.1992 60.267C51.0201 58.2268 50.2624 56.0862 48.931 53.8794C48.3405 52.9004 47.0663 52.5853 46.0847 53.1735C45.1034 53.7629 44.7866 55.0338 45.3772 56.0128C46.6448 58.114 47.2161 60.0313 47.0741 61.7107C47.0741 61.7117 47.0741 61.7129 47.0741 61.7138C46.7632 65.3688 43.0091 67.3233 41.9057 67.8211H39.9106C38.1977 67.8211 35.5805 67.42 34.4156 66.8234C32.3955 65.7875 31.0174 64.1361 30.3148 61.9165C30.0668 60.9201 29.1299 60.2591 28.1125 60.3572C28.0834 60.3602 28.0545 60.3652 28.0252 60.3695C27.9908 60.3742 27.9568 60.3771 27.922 60.3835C27.8785 60.3913 23.4622 61.1208 17.4655 58.1346C16.4702 57.639 15.4887 57.0682 14.5214 56.4301C16.0702 56.7855 17.7479 57.0066 19.5333 57.0066C23.5993 57.0064 28.2164 55.8682 33.0971 52.6062C41.4719 47.0094 43.4053 47.0154 49.7861 47.0113H50.0964C56.1988 47.0113 58.5676 47.507 60.2965 47.8689C61.4172 48.1035 62.4758 48.3248 64.0213 48.3248C67.011 48.3248 69.0631 46.354 70.1206 42.4664C70.1208 42.4656 70.121 42.4644 70.1212 42.4636C70.6428 40.5409 71.036 38.2282 71.3518 36.219C71.5294 35.0901 70.7561 34.0318 69.6247 33.8547C68.4938 33.6767 67.4321 34.4492 67.2545 35.5776C66.9559 37.4766 66.5873 39.6507 66.1182 41.381C66.118 41.3814 66.1178 41.3819 66.1178 41.3819C65.3549 44.1873 64.4201 44.1873 64.0213 44.1873C62.9061 44.1873 62.2066 44.041 61.148 43.8194C59.241 43.4202 56.6289 42.8739 50.0962 42.8739H49.7866C43.0126 42.8741 40.2112 42.872 30.7885 49.169C24.5722 53.3232 18.1679 53.9947 11.7532 51.1645C6.80509 48.981 3.66678 45.4455 3.63866 45.4131C3.54569 45.3062 3.44374 45.2109 3.33455 45.1273C3.30291 45.1032 3.26951 45.0819 3.2367 45.0597C3.21385 45.0441 3.19178 45.0272 3.16854 45.0128C3.11678 44.9804 3.06365 44.9518 3.00975 44.9245C3.00428 44.9218 2.9992 44.9183 2.99354 44.9155C2.93729 44.8879 2.87986 44.8631 2.82166 44.8409C2.81775 44.8396 2.81404 44.8374 2.81014 44.836C2.75604 44.8156 2.70057 44.7984 2.64529 44.7825C2.6367 44.7799 2.62849 44.7766 2.61971 44.7743C2.57029 44.761 2.52049 44.7509 2.47049 44.7412C2.45486 44.738 2.43982 44.7338 2.424 44.731C2.38181 44.7238 2.33924 44.7199 2.29685 44.7153C2.27283 44.7125 2.249 44.7084 2.22498 44.7065C2.1906 44.704 2.15623 44.7043 2.12166 44.7036C2.08923 44.7028 2.05681 44.7005 2.02439 44.7012C1.99705 44.7018 1.9699 44.7051 1.94255 44.7067C1.9031 44.7092 1.86384 44.7106 1.82458 44.7155C1.80075 44.7184 1.77732 44.7234 1.75349 44.7273C1.71111 44.734 1.66892 44.7398 1.62693 44.7488C1.599 44.755 1.57146 44.764 1.54372 44.7712C1.50681 44.7809 1.4695 44.7895 1.43298 44.8014C1.38728 44.816 1.34274 44.8345 1.29821 44.8524C1.28005 44.8596 1.26149 44.8655 1.24352 44.8733C1.11735 44.9282 0.99528 44.9964 0.879655 45.0778C0.879459 45.078 0.879069 45.078 0.878873 45.0782C0.877701 45.079 0.87653 45.0804 0.875358 45.0811C0.820279 45.1203 0.765982 45.162 0.714028 45.2072C0.69606 45.223 0.680239 45.2401 0.662856 45.2563C0.644106 45.2734 0.625942 45.291 0.607973 45.3089C0.542933 45.3736 0.481019 45.4408 0.426331 45.5121C0.422815 45.5166 0.419886 45.5218 0.41637 45.5263C0.379065 45.5758 0.343518 45.6261 0.311291 45.6779C0.291955 45.7089 0.275744 45.7412 0.258166 45.7728C0.243517 45.7995 0.227306 45.8256 0.21383 45.8529C0.193517 45.8938 0.176525 45.936 0.159142 45.9779C0.151134 45.9972 0.141759 46.0159 0.134337 46.0356C0.118126 46.0781 0.105235 46.1215 0.092149 46.1648C0.085899 46.185 0.0782817 46.2051 0.0726176 46.2254C0.0618754 46.2647 0.0544535 46.3047 0.046055 46.3446C0.0405862 46.3701 0.0337502 46.3951 0.0294533 46.4206C0.0235939 46.4545 0.0206641 46.4888 0.0165626 46.5227C0.0126563 46.5548 0.00738281 46.5866 0.00523435 46.6187C0.0030859 46.6468 0.00386716 46.675 0.00289059 46.7031C0.0017187 46.7415 -0.000625062 46.7799 0.000156194 46.8182C0.000742135 46.8418 0.00367184 46.8652 0.00484373 46.8888C0.00738281 46.9318 0.00914063 46.9747 0.0142188 47.0173C0.0169532 47.0396 0.021836 47.0616 0.0251564 47.0838C0.031797 47.1272 0.0380471 47.1709 0.0474222 47.2141C0.0538675 47.2433 0.0632426 47.2718 0.0708598 47.3008C0.0804302 47.3365 0.0884381 47.3721 0.0999616 47.4074C0.11754 47.4618 0.138829 47.5153 0.161095 47.5685C0.164806 47.5777 0.167735 47.5868 0.171642 47.596C0.22672 47.7224 0.295471 47.8446 0.377698 47.9605C4.92421 54.3971 10.05 59.0657 15.6132 61.8362C20.2968 64.1685 24.2357 64.6059 26.5312 64.6059C26.663 64.6059 26.7878 64.6043 26.9087 64.6016C28.0634 67.1762 29.9767 69.1993 32.5199 70.5035C34.6041 71.5712 38.0815 71.9585 39.9104 71.9585H42.3087C42.3141 71.9585 42.3192 71.9591 42.3245 71.9591C42.329 71.9591 42.3339 71.9585 42.3383 71.9585H52.6101C53.7552 71.9585 54.6839 71.0321 54.6839 69.8898C54.6839 68.7475 53.7552 67.8213 52.6101 67.8213H48.7452C49.555 66.8725 50.265 65.7382 50.7193 64.4011C52.6376 64.8116 55.5812 65.302 58.6994 65.3018C59.9885 65.3018 61.3072 65.2167 62.5953 65.0086C63.459 67.7299 65.2799 69.867 67.9543 71.2561C68.8885 71.7428 69.962 72 71.0583 72H78.5363C79.6814 72 80.6101 71.0736 80.6101 69.9313C80.6101 68.789 79.6814 67.8628 78.5363 67.8628H74.7306V67.3613C75.72 67.1529 76.9546 66.7651 78.2122 66.0454C80.7537 64.5909 83.833 61.4999 84.0714 55.0349C84.0724 55.0094 84.0728 54.9843 84.0728 54.9587V30.5082C90.6256 29.0466 94.4008 27.6608 97.2647 25.7023C98.9569 24.5451 99.9268 22.7548 99.996 20.6614C100.083 18.051 98.7489 15.1337 96.7524 13.5651Z" fill="#494949"/>
<path d="M83.9868 4.52832C81.2801 4.52832 79.0781 6.72482 79.0781 9.42475C79.0781 10.567 80.0068 11.4932 81.1518 11.4932C82.2969 11.4932 83.2256 10.5668 83.2256 9.42475C83.2256 9.00626 83.567 8.6655 83.9868 8.6655C84.4055 8.6655 84.7457 9.00606 84.7457 9.42475C84.7457 10.567 85.6745 11.4932 86.8194 11.4932C87.9643 11.4932 88.8932 10.5668 88.8932 9.42475C88.8932 6.72462 86.6922 4.52832 83.9868 4.52832Z" fill="#494949"/>
</svg>
