<svg width="96" height="96" viewBox="0 0 96 96" fill="none" xmlns="http://www.w3.org/2000/svg">
<path d="M17.5005 30.0332C18.5239 30.0332 19.3545 29.2026 19.3545 28.1792C19.3545 27.1558 18.5239 26.3252 17.5005 26.3252C16.4771 26.3252 15.6465 27.1558 15.6465 28.1792C15.6465 29.2026 16.4771 30.0332 17.5005 30.0332Z" fill="#494949" stroke="#494949" stroke-width="1.2"/>
<path d="M87.3235 69.1821C88.0642 63.5751 87.0669 58.2254 84.3946 53.5874C83.7336 52.4393 83.0066 51.3362 82.2332 50.3092C81.6179 49.4909 80.4553 49.3271 79.637 49.9424C78.8187 50.5578 78.6549 51.7203 79.2703 52.5386C79.953 53.4453 80.5952 54.4202 81.1815 55.4378C85.452 62.8495 84.2569 71.8652 79.9733 79.1313C78.431 81.7551 77.696 84.7999 77.7613 87.8419V91.3963H44.6527C45.3282 88.8436 47.5091 87.2135 50.0575 86.73L64.9317 83.912C65.879 83.7323 66.5313 82.856 66.4305 81.8964C66.3313 80.9513 65.5333 80.2359 64.5867 80.2359C64.5729 80.2359 62.6928 80.2779 62.6928 80.2779C56.5625 80.4171 51.4607 75.5624 51.3251 69.4024C51.2034 63.8954 55.2028 59.0705 60.6278 58.1797C61.6382 58.0137 62.3231 57.0599 62.1572 56.0503C61.9912 55.0392 61.0388 54.355 60.027 54.5209C52.8066 55.706 47.454 62.0515 47.6178 69.4843C47.7367 74.8797 50.7047 79.5053 55.0375 82.0131L49.3675 83.0872C48.8789 83.18 48.3991 83.3047 47.9324 83.4554C43.5205 81.808 39.4117 79.4886 35.7138 76.5539C35.1564 76.1118 34.3954 76.027 33.7547 76.3365C33.1139 76.646 32.7073 77.2947 32.7073 78.0064V89.5423C32.7073 90.5649 31.8753 91.3963 30.8533 91.3963H14.4838C15.2485 89.2378 17.3105 87.6882 19.7285 87.6882H23.4365C24.4606 87.6882 25.2905 86.8576 25.2905 85.8342V65.3146C25.2905 64.9783 25.1985 64.647 25.0252 64.3586C21.7731 58.9552 19.6052 52.8945 18.5608 46.3199C18.7717 46.3242 18.9826 46.3271 19.1943 46.3271C25.7841 46.3271 32.8994 44.3782 37.4468 39.6054C39.9335 42.1784 43.3734 43.6193 47.0445 43.5323L60.0067 43.2468C62.9762 43.183 65.7906 43.5925 68.373 44.4688C68.5701 44.5362 68.7709 44.5681 68.9688 44.5681C69.7414 44.5673 70.4626 44.081 70.725 43.3091C71.054 42.3393 70.5343 41.2869 69.5646 40.9571C66.5712 39.941 63.3292 39.4648 59.9248 39.5394L46.9626 39.825C44.1489 39.8837 41.5136 38.6936 39.7146 36.5874C41.0236 34.3275 41.7528 31.7747 41.8876 28.964C44.7933 28.7342 47.4257 28.5284 49.8132 28.3428C71.8948 26.6229 73.6191 26.5997 77.5431 22.6764C80.2835 19.9352 80.6293 15.4799 78.3462 12.3133C76.9705 10.4042 74.5294 8.90096 71.2664 9.24886C71.6338 6.66062 70.6431 4.10209 68.9818 2.41985C66.3849 -0.209704 61.7477 -1.07511 57.2431 2.91851C50.1807 9.18217 41.5803 13.552 32.3587 15.5676C19.3016 14.7899 11.5441 19.3097 7.33158 23.2569C2.55156 27.7362 0.816406 32.8206 0.816406 35.145C0.816406 40.5918 6.3589 44.8558 14.7607 46.0205C15.7957 53.2265 18.0868 59.8801 21.5825 65.8241V83.9802H19.7285C14.6165 83.9802 10.4576 88.1383 10.4576 93.2503C10.4576 94.2744 11.2875 95.1043 12.3116 95.1043H30.8526C33.9199 95.1043 36.4154 92.6089 36.4154 89.5423V81.6637C38.7753 83.2597 41.2672 84.6419 43.8684 85.7994C41.8202 87.6984 40.6714 90.3482 40.7352 93.2909C40.7576 94.2991 41.581 95.1043 42.5892 95.1043H79.6153C80.6394 95.1043 81.4693 94.2744 81.4693 93.2503C81.4693 93.2503 81.4693 87.7933 81.4693 87.7795C81.457 87.2483 81.478 86.7235 81.5251 86.206C83.0015 87.1577 84.7367 87.6882 86.5458 87.6882C91.6577 87.6882 95.8166 83.5294 95.8166 78.4174C95.8166 73.5678 92.0723 69.5785 87.3235 69.1821ZM59.703 5.69302C62.1405 3.53241 64.6222 3.2838 66.3436 5.02548C67.6924 6.39172 68.2237 8.82775 66.6705 10.7832C59.0993 14.4471 50.8692 16.317 42.5305 16.3011C48.7999 13.7824 54.6244 10.1969 59.703 5.69302ZM4.52445 35.145C4.52445 33.8368 5.86967 29.7091 9.86691 25.9626C13.2575 22.7851 19.3334 19.1851 29.4523 19.1851C34.6215 19.1851 36.5118 20.012 42.6399 20.012C51.0033 20.0113 60.4967 18.1109 68.9898 13.7788C71.7187 12.414 74.0322 12.6706 75.3383 14.4811C76.3849 15.9336 76.5943 18.3805 74.9208 20.0541C72.139 22.8351 71.6643 22.9214 49.5247 24.6457C46.6785 24.8674 43.485 25.116 39.8944 25.4016C38.9036 25.4806 38.1505 26.3272 38.189 27.3216C38.3114 30.5216 37.5569 33.3106 35.9464 35.6103C31.7339 41.6189 22.882 43.0779 16.5814 42.501C16.5749 42.5002 16.5676 42.4995 16.5611 42.4988C10.7599 41.961 4.52445 39.4329 4.52445 35.145ZM86.5458 83.9795C85.0164 83.9795 83.5734 83.3503 82.5333 82.2646C82.7217 81.8341 82.9327 81.4144 83.1689 81.0129C84.7077 78.4015 85.8579 75.6632 86.5965 72.856C89.6406 72.8836 92.1086 75.3675 92.1086 78.4174C92.1086 81.4847 89.6131 83.9795 86.5458 83.9795Z" fill="#494949"/>
<path d="M73.6816 46.1553C73.6816 47.1787 74.5122 48.0093 75.5357 48.0093C76.5598 48.0093 77.3904 47.1787 77.3904 46.1553C77.3904 45.1319 76.5598 44.3013 75.5357 44.3013C74.5122 44.3013 73.6816 45.1319 73.6816 46.1553Z" fill="#494949" stroke="#494949" stroke-width="1.2"/>
</svg>
