<svg width="100" height="96" viewBox="0 0 100 96" fill="none" xmlns="http://www.w3.org/2000/svg">
<path d="M83.7209 61.8403C82.5731 61.8403 81.6424 62.771 81.6424 63.9189C81.6424 64.2341 81.385 64.4905 81.0686 64.4905C80.7533 64.4905 80.4969 64.2343 80.4969 63.9189C80.4969 62.771 79.566 61.8403 78.4184 61.8403C77.2707 61.8403 76.3398 62.771 76.3398 63.9189C76.3398 66.5261 78.4611 68.6476 81.0686 68.6476C83.6774 68.6476 85.7994 66.5263 85.7994 63.9189C85.7994 62.7708 84.8688 61.8403 83.7209 61.8403Z" fill="#494949"/>
<path d="M98.8043 61.43C98.7932 61.4144 98.7822 61.3985 98.7707 61.3835C98.7684 61.3805 98.7664 61.3774 98.7643 61.3745C97.4226 59.623 90.3554 50.7375 82.9736 47.7951C77.7255 45.7018 72.1191 47.4675 66.697 49.175C61.6599 50.7617 56.4515 52.4025 51.1927 51.2867C44.8573 49.9431 37.5248 48.5058 30.6815 48.4557C23.9156 48.412 18.8408 49.7152 15.2965 52.4309C16.0836 49.3648 17.4383 46.8976 19.1389 43.8024C20.6842 40.9894 22.4358 37.8009 24.2451 33.3391C27.7752 24.6363 25.5151 16.0877 17.709 8.61785C12.1008 3.25068 5.61266 0.345446 5.23473 0.178528C5.15309 0.142174 5.06911 0.112856 4.98415 0.0874468C4.96208 0.0808014 4.94001 0.0749378 4.91794 0.0690742C4.8529 0.0520696 4.78747 0.0379969 4.72106 0.0274423C4.70251 0.0245105 4.68434 0.0202105 4.66579 0.0176696C4.5861 0.00711506 4.50602 0.0012514 4.42575 7.8671e-05C4.40133 -0.000312238 4.37731 0.00086059 4.35309 0.0012515C4.29293 0.00222877 4.23297 0.00574682 4.17301 0.0120014C4.14704 0.0147377 4.12106 0.0172787 4.09508 0.0209923C4.015 0.0321332 3.93571 0.0467923 3.857 0.0675105C3.84977 0.069465 3.84274 0.0723968 3.83532 0.0743513C3.76305 0.0942877 3.69176 0.11911 3.62125 0.146865C3.59723 0.156442 3.5734 0.166997 3.54977 0.177356C3.49332 0.202374 3.43785 0.229933 3.38336 0.260228C3.36246 0.271956 3.34078 0.282706 3.31989 0.295215C3.25016 0.337042 3.18239 0.382974 3.11676 0.433792C3.11227 0.43731 3.10699 0.440046 3.1027 0.443564C3.08727 0.455683 3.07438 0.470146 3.05953 0.482655C3.0277 0.509237 2.99508 0.534646 2.96461 0.563378C2.95113 0.576278 2.93942 0.590155 2.92633 0.603251C2.90348 0.625923 2.88121 0.649182 2.85953 0.672637C2.8193 0.716614 2.7816 0.761569 2.74567 0.808087C2.73063 0.827437 2.71461 0.8462 2.70035 0.865941C2.65231 0.932787 2.60895 1.00159 2.56988 1.07234C2.56012 1.08974 2.55231 1.10811 2.54293 1.12609C2.51363 1.18297 2.48707 1.24063 2.46305 1.29965C2.45309 1.32448 2.44352 1.3491 2.43434 1.37412C2.41227 1.4355 2.39332 1.49745 2.37731 1.56019C2.37281 1.57837 2.36656 1.59616 2.36227 1.61434C2.34488 1.69076 2.33277 1.76777 2.32418 1.84536C2.32086 1.87507 2.3191 1.90478 2.31715 1.93469C2.31344 1.99019 2.31168 2.0457 2.31246 2.10141C2.31266 2.13034 2.31246 2.15926 2.31383 2.18819C2.31793 2.26754 2.32613 2.34709 2.33941 2.42586C2.34039 2.43153 2.3402 2.437 2.34137 2.44267L2.52203 3.45649C4.03571 11.9461 5.4654 19.965 3.27125 26.8041C-0.720358 39.2448 -3.14868 53.7522 8.80095 67.322C8.41267 71.5006 8.54333 76.2546 9.17439 80.5245C10.2781 87.9954 12.1742 94.2628 12.2541 94.5259C12.5207 95.4011 13.3279 95.9992 14.2422 95.9992H20.5775C21.7252 95.9992 22.6561 95.0679 22.6561 93.9192C22.6561 92.7705 21.7252 91.8392 20.5775 91.8392H20.5129L22.5922 82.9767C22.619 82.9823 22.6486 82.9882 22.676 82.9937C23.7807 89.7064 25.318 94.3681 25.3877 94.5767C25.6703 95.4263 26.4651 95.9994 27.3596 95.9994H31.0022C31.0045 95.9994 31.0069 95.9998 31.0092 95.9998C31.0123 95.9998 31.0157 95.9994 31.0188 95.9994H33.695C34.8426 95.9994 35.7735 95.0679 35.7735 93.9194C35.7735 92.7709 34.8426 91.8394 33.695 91.8394H33.6309L35.4463 84.1056C37.6897 84.1359 40.0924 84.1084 42.6305 84.0214C43.7174 89.8741 45.0633 94.3216 45.1258 94.5259L45.126 94.5263C45.1344 94.5534 45.1448 94.5796 45.1542 94.6066C45.1659 94.64 45.1772 94.6736 45.1907 94.7063C45.2008 94.7311 45.2122 94.755 45.2231 94.7794C45.2389 94.8142 45.2551 94.8488 45.2727 94.8828C45.2833 94.9029 45.2944 94.9225 45.3053 94.9424C45.327 94.9807 45.3497 95.018 45.3735 95.0548C45.3831 95.0694 45.3924 95.0841 45.4024 95.0986C45.4327 95.1427 45.4647 95.1855 45.4985 95.2272C45.5038 95.2336 45.5085 95.2403 45.5137 95.2467C45.595 95.3446 45.6848 95.4344 45.7813 95.5151C45.794 95.5256 45.8071 95.5354 45.82 95.5456C45.8546 95.5729 45.8897 95.5997 45.926 95.6247C45.9448 95.6378 45.9637 95.6505 45.9831 95.663C46.0153 95.6839 46.0481 95.7039 46.0813 95.7228C46.1028 95.7352 46.1239 95.7477 46.1458 95.7592C46.1827 95.7787 46.2208 95.7963 46.2589 95.8137C46.2772 95.8221 46.295 95.8311 46.3135 95.8391C46.3676 95.8616 46.4227 95.8817 46.479 95.8997C46.4995 95.9064 46.5208 95.9118 46.5417 95.9179C46.5827 95.9296 46.6239 95.9406 46.6657 95.9498C46.6858 95.9541 46.7059 95.9584 46.7264 95.9621C46.7749 95.9713 46.8237 95.9789 46.8731 95.9846C46.8866 95.9861 46.9001 95.9883 46.9137 95.9893C46.9796 95.9957 47.046 96 47.1128 96C47.1182 96 47.1237 95.9994 47.1294 95.9994H53.4489C54.5966 95.9994 55.5274 95.0679 55.5274 93.9194C55.5274 92.7709 54.5966 91.8394 53.4489 91.8394H53.3845L54.6563 86.4188C55.6393 91.0785 56.6692 94.3609 56.728 94.5472C57.0017 95.4119 57.8034 95.9994 58.7097 95.9994H62.3521C62.3544 95.9994 62.3566 95.9998 62.3589 95.9998C62.362 95.9998 62.3653 95.9994 62.3685 95.9994H65.0448C66.1927 95.9994 67.1234 95.0679 67.1234 93.9194C67.1234 92.7709 66.1927 91.8394 65.0448 91.8394H64.995L68.5661 76.9799C71.8865 75.024 73.5644 74.2078 76.2691 74.9648C83.5478 76.9983 91.6998 73.4887 97.2551 70.1873C98.6031 69.3879 99.5605 67.9795 99.8814 66.3224C100.22 64.5776 99.8266 62.7997 98.8043 61.43ZM8.20017 59.5061C1.97945 49.0702 3.94977 38.2966 7.22946 28.0757C9.03963 22.433 8.75427 16.4309 7.85154 10.1418C11.2275 15.5344 14.5353 23.2703 11.292 29.6902C6.23806 39.6933 6.3154 51.1245 8.20017 59.5061ZM11.2433 51.5136C10.8513 45.1834 11.7344 38.0349 15.0017 31.5673C18.8236 24.0032 15.8281 15.5573 12.2799 9.40299C13.1627 10.1037 14.0496 10.8669 14.907 11.6925C21.4125 17.9547 23.2586 24.7112 20.3936 31.7745C18.6756 36.0104 16.9865 39.0851 15.4959 41.7982C13.7115 45.0458 12.1564 47.8803 11.2433 51.5136ZM29.3608 91.8392H28.901C28.4344 90.2146 27.6684 87.3017 27.0074 83.6446C28.3086 83.7837 29.7108 83.8928 31.2076 83.9708L29.3608 91.8392ZM60.7198 91.8392H60.2659C59.7214 89.9018 58.7618 86.2142 58.0302 81.9218C60.1665 81.27 61.9925 80.512 63.6345 79.7104L60.7198 91.8392ZM95.8006 65.5308C95.7057 66.0214 95.4635 66.4143 95.1346 66.6093C91.1562 68.9737 83.5601 72.6829 77.388 70.9578C72.7595 69.6627 69.67 71.4922 66.0919 73.6101L65.6944 73.8453L65.673 73.8578C65.6696 73.8599 65.6663 73.8617 65.663 73.8636C62.7317 75.5955 59.7196 77.2442 55.1768 78.4015C55.1737 78.4023 55.1706 78.4031 55.1675 78.404C54.6167 78.5444 54.0249 78.6802 53.4089 78.8078C52.6163 78.9716 51.9909 79.5811 51.8059 80.3693L49.1147 91.8398H48.6835C48.1333 89.8264 47.1509 85.9566 46.412 81.5299C46.244 80.5233 45.3735 79.7923 44.3631 79.7923C44.3325 79.7923 44.3014 79.7929 44.2706 79.7945C40.4928 79.961 36.9958 80.0013 33.8737 79.9141C33.8676 79.9139 33.8618 79.9139 33.8559 79.9137C30.3326 79.816 27.2975 79.5631 24.8363 79.1624C22.8354 78.836 21.9275 78.5221 21.8223 78.4844C21.2604 78.2481 20.6428 78.2789 20.0986 78.5549C19.5514 78.8325 19.1746 79.3457 19.0342 79.9434L16.2428 91.84H15.8119C15.1957 89.5823 14.0363 84.9928 13.2865 79.9168C12.6586 75.6659 12.5639 70.905 13.0279 66.8507C13.1463 65.7988 13.3062 64.7824 13.5035 63.8265C13.5502 63.598 13.5998 63.3755 13.6502 63.1562C13.7463 62.7393 17.1346 62.213 17.6031 62.1176C19.1367 61.806 20.6895 61.5936 22.2492 61.4671C25.6178 61.1939 29.0274 61.3012 32.3842 61.6769C32.4205 61.681 32.4498 61.6837 32.4866 61.686L32.6221 61.6997C33.7661 61.8094 34.7789 60.9681 34.8871 59.8243C34.9952 58.6807 34.1561 57.6661 33.0133 57.5578L32.9703 57.5536C32.9178 57.5479 32.8655 57.5428 32.8125 57.5385C26.9744 57.0665 21.1988 56.9646 15.4598 58.3291C15.6031 58.0934 15.751 57.8721 15.9035 57.6689C22.1309 49.3767 40.4751 53.2665 50.3305 55.3566C56.6569 56.6979 62.6538 54.8098 67.9445 53.1433C73.1046 51.5179 77.5613 50.1144 81.4341 51.6598C83.4033 52.4448 85.4941 53.8489 87.5113 55.5324C86.0416 55.1172 84.5519 54.8154 83.0339 54.6327C76.8292 53.8862 70.3109 55.0549 63.1089 58.2054C59.4177 59.8198 55.3202 60.1388 51.3389 59.9309C49.3694 59.828 47.4089 59.5939 45.4581 59.3105C43.977 59.0953 42.0047 58.7986 41.7085 60.8444C41.361 63.2442 44.1833 63.3249 45.802 63.5346C52.1214 64.3538 58.8097 64.6268 64.7739 62.0173C76.5765 56.8552 86.3816 57.5219 95.5982 64.1144C95.8211 64.5176 95.8976 65.0291 95.8006 65.5308Z" fill="#494949"/>
<path d="M38.9742 58.2839L38.3527 58.1925C37.2164 58.0212 36.1587 58.8034 35.9882 59.9386C35.8175 61.0739 36.5994 62.1325 37.7343 62.303L38.3558 62.3944C38.4607 62.4103 38.5648 62.4177 38.6675 62.4177C39.6787 62.4177 40.5654 61.6784 40.7203 60.648C40.891 59.5132 40.1093 58.4546 38.9742 58.2839Z" fill="#494949"/>
</svg>
