<svg width="100" height="92" viewBox="0 0 100 92" fill="none" xmlns="http://www.w3.org/2000/svg">
<path d="M99.5204 52.9782C98.8565 52.2386 98.1491 51.5616 97.4063 50.9515C97.4354 50.8366 97.5577 49.2154 97.5577 48.4674C97.5577 42.5358 95.9665 36.7924 93.0536 32.079C93.2942 31.8575 93.5329 31.6297 93.7673 31.3937C98.9104 26.2143 100.427 19.9319 97.2983 16.7812C96.2444 15.7157 94.7817 15.1536 93.0659 15.1516H93.0596C89.846 15.1516 86.0036 17.0884 82.7818 20.333C82.2464 20.8721 81.7464 21.4319 81.2839 22.0064C78.3171 20.8176 75.0953 20.2138 71.6761 20.2138C68.255 20.2138 65.033 20.8176 62.0662 22.0064C61.6035 21.4319 61.1035 20.8719 60.5662 20.333C57.3463 17.0882 53.5039 15.1516 50.2903 15.1516H50.284C48.5682 15.1538 47.1055 15.7157 46.0537 16.7792C43.1803 19.6729 44.2239 25.2012 48.3877 30.0942C45.3297 29.3442 42.1844 28.9618 39.0143 28.9618C34.1886 28.9618 29.477 29.8351 25.056 31.5211V12.6151C25.056 5.65791 19.4357 0 12.5291 0C5.62244 0 0.00214843 5.65772 0.00214843 12.6151V63.5897C0.00214843 63.6105 0 63.6335 0 63.6544V86.7305C0 89.6368 2.34648 91.9998 5.23026 91.9998H16.2923C18.2259 91.9998 19.8089 90.4725 19.9208 88.5525H26.6241C28.6304 88.5525 30.2651 86.9062 30.2651 84.8837V83.2854C30.2651 80.3791 27.9165 78.0141 25.0308 78.0141H24.7817V70.6891H37.6405V86.7307C37.6405 89.637 39.9889 92 42.8708 92H53.9309C55.8666 92 57.4496 90.4727 57.5637 88.5527H64.2629C66.2732 88.5527 67.906 86.9064 67.906 84.8839V83.2856C67.906 80.3793 65.5576 78.0143 62.6736 78.0143H62.4226V70.5072C64.2463 70.1834 65.9724 69.4333 67.4599 68.3092C68.7939 68.8273 70.2152 69.0989 71.6757 69.0989C75.0658 69.0989 78.2441 67.6426 80.6321 65.0017C80.6384 64.9954 80.6446 64.9891 80.6509 64.9828C82.3314 63.1151 84.5472 62.0891 86.8915 62.0891C89.2358 62.0891 91.4516 63.1151 93.13 64.9828C93.4952 65.386 93.9971 65.5929 94.4993 65.5929C94.9413 65.5929 95.3852 65.4342 95.7399 65.1103C96.1403 64.7446 96.3436 64.2411 96.3436 63.7354L96.3458 63.7332C96.3458 61.3305 95.854 58.9614 94.9163 56.8156C95.6237 56.0341 96.6403 55.7062 97.6051 56.007C97.6051 56.007 97.9682 56.0864 98.1528 56.0864C98.5948 56.0864 99.0387 55.9277 99.3934 55.6038C100.149 54.915 100.207 53.7386 99.5204 52.9782ZM93.4354 47.4458C90.6657 45.5131 87.4106 44.3975 83.9646 44.2366C83.896 44.2262 83.8298 44.2199 83.7591 44.2177C82.5495 44.176 81.4271 43.664 80.5993 42.774C79.7716 41.8819 79.34 40.7202 79.3794 39.5002C79.4603 37.0349 81.479 35.0877 83.9085 35.0877C83.9605 35.0877 84.0103 35.0877 84.062 35.0898C86.448 35.1693 88.7403 35.7063 90.8835 36.686C92.4167 39.9451 93.3005 43.6306 93.4354 47.4458ZM85.6845 23.2559C88.0808 20.8428 90.9749 19.2842 93.06 19.2842H93.0622C93.4833 19.2864 94.0559 19.3574 94.3942 19.7C95.4503 20.7635 94.6016 24.7101 90.8651 28.4729C90.7821 28.5565 90.695 28.6379 90.6098 28.7215C88.9792 26.8181 87.1224 25.2136 85.056 23.9223C85.2591 23.6967 85.4665 23.4752 85.6845 23.2559ZM62.2883 26.4191C62.3131 26.4065 62.3381 26.3941 62.3629 26.3815C65.1658 25.0318 68.2986 24.3466 71.6761 24.3466C75.0517 24.3466 78.1843 25.0318 80.9872 26.3815C81.012 26.3941 81.037 26.4065 81.0599 26.4191C83.6595 27.681 85.9271 29.4882 87.8192 31.801C86.6325 31.5565 85.4188 31.4124 84.1845 31.3707C79.6575 31.2224 75.8402 34.8096 75.6886 39.3768C75.614 41.5894 76.4001 43.6975 77.9023 45.3146C78.9189 46.4094 80.1824 47.1887 81.5745 47.6003C78.7757 48.4131 76.1867 49.9425 73.9896 52.1049C73.2781 51.8311 72.4958 51.6765 71.6742 51.6765C70.8173 51.6765 70.0041 51.8457 69.2697 52.1425C67.0808 49.9779 64.5 48.4487 61.7096 47.6338C63.1453 47.2306 64.4502 46.4387 65.4937 45.3146C66.9959 43.6975 67.782 41.5894 67.7095 39.3768C67.5582 34.8096 63.7469 31.2265 59.2117 31.3707C57.9586 31.4145 56.7262 31.5628 55.5209 31.8115C57.4148 29.4945 59.6867 27.6832 62.2883 26.4191ZM73.8691 56.9853C73.8691 57.846 72.865 58.5732 71.6742 58.5732C70.4853 58.5732 69.4812 57.846 69.4812 56.9853C69.4812 56.1246 70.4853 55.3974 71.6742 55.3974C72.865 55.3974 73.8691 56.1246 73.8691 56.9853ZM59.6369 44.2177C59.5684 44.2199 59.5 44.2262 59.4336 44.2366C55.9647 44.3975 52.6951 45.5257 49.9151 47.4792C50.0438 43.6621 50.9233 39.9744 52.4545 36.7131C54.6143 35.7165 56.9254 35.1691 59.3342 35.0896C61.8279 35.0019 63.9338 36.9845 64.0168 39.5002C64.0582 40.7202 63.6246 41.8819 62.7969 42.774C61.9687 43.664 60.8484 44.176 59.6369 44.2177ZM48.9565 19.6979C49.2946 19.3574 49.8672 19.2862 50.2885 19.2842H50.2906C52.3756 19.2842 55.2699 20.8428 57.666 23.2559C57.8838 23.4752 58.0914 23.6967 58.2947 23.9225C56.2283 25.2138 54.3715 26.8183 52.7408 28.7217C52.6557 28.6381 52.5686 28.5567 52.4856 28.4731C48.7491 24.7101 47.8983 20.7633 48.9565 19.6979ZM4.10624 12.6151C4.10624 7.93733 7.8863 4.1326 12.5294 4.1326C17.1747 4.1326 20.9527 7.93713 20.9527 12.6151V12.7155C19.963 13.2294 17.0003 13.9689 12.5294 13.9689C8.06052 13.9689 5.09588 13.2294 4.10624 12.7155V12.6151ZM4.10624 17.1008C4.2701 17.1488 4.43827 17.197 4.61034 17.2408C6.75134 17.7945 9.56462 18.1015 12.5294 18.1015C15.4941 18.1015 18.3074 17.7943 20.4486 17.2408C20.6208 17.197 20.7888 17.149 20.9527 17.1008V21.0558C19.963 21.5719 17.0003 22.3073 12.5294 22.3073C8.06267 22.3073 5.09998 21.5719 4.10624 21.0558V17.1008ZM4.10624 25.4435C4.2701 25.4915 4.43827 25.5375 4.61034 25.5835C6.75134 26.1372 9.56462 26.4423 12.5294 26.4423C15.4941 26.4423 18.3074 26.1372 20.4486 25.5835C20.6228 25.5397 20.7888 25.4917 20.9527 25.4435V29.3965C19.963 29.9126 17.0003 30.65 12.5294 30.65C8.06052 30.65 5.09588 29.9124 4.10624 29.3965V25.4435ZM4.10624 33.7838C4.2701 33.8318 4.43827 33.88 4.61034 33.9239C6.75134 34.4776 9.56462 34.7826 12.5294 34.7826C15.0999 34.7826 17.5564 34.5527 19.5605 34.1308C18.5273 34.7242 17.5148 35.3656 16.5314 36.0572C15.2451 36.9576 14.0169 37.9397 12.8468 38.9884C12.741 38.9906 12.6353 38.9906 12.5294 38.9906C8.06267 38.9906 5.09998 38.253 4.10624 37.739V33.7838ZM4.10624 42.1305C4.32401 42.191 4.51502 42.2412 4.66229 42.2788C5.91131 42.5984 7.3863 42.8303 8.9818 42.9703C8.95485 43.0059 8.9238 43.0372 8.89684 43.0728C8.13552 43.9795 7.40525 44.9364 6.72673 45.91C5.75994 47.3035 4.88436 48.7514 4.10643 50.2495V42.1305H4.10624ZM25.0314 82.1487C25.6558 82.1487 26.1601 82.6585 26.1601 83.2854V84.4199H19.3986C18.5417 82.667 16.7429 81.4634 14.7037 81.4634H14.4527V80.6299C17.104 78.641 19.2286 76.0669 20.6788 73.1231V80.0803C20.6788 81.2211 21.598 82.1487 22.7306 82.1487H25.0314ZM62.6742 82.1487C63.2967 82.1487 63.8029 82.6585 63.8029 83.2854V84.4199H57.0395C56.1805 82.667 54.3838 81.4634 52.3445 81.4634H52.0914V70.6889H58.3195V80.0803C58.3195 81.2211 59.2387 82.1487 60.3713 82.1487H62.6742ZM60.3734 66.5563H50.0395C48.9067 66.5563 47.9875 67.4819 47.9875 68.6225V83.5296C47.9875 84.6724 48.9067 85.5959 50.0395 85.5959H52.3444C52.9295 85.5959 53.4211 86.0555 53.4668 86.6446C53.469 86.6739 53.4709 86.701 53.4709 86.7301V87.8668H42.8713C42.2532 87.8668 41.7448 87.357 41.7448 86.7301V68.6223C41.7448 67.4815 40.8278 66.5561 39.693 66.5561H20.1724C19.2388 66.5561 18.4255 67.1912 18.1869 68.1001C17.1537 72.0844 14.6953 75.5422 11.2658 77.8342C10.6931 78.2165 10.3488 78.8642 10.3488 79.5558V83.5296C10.3488 84.6724 11.2679 85.5961 12.4005 85.5961H14.7035C15.2865 85.5961 15.7802 86.0557 15.8259 86.6448C15.8281 86.6741 15.83 86.7012 15.83 86.7305V87.8672H5.23045C4.61014 87.8672 4.10389 87.3574 4.10389 86.7305L4.10604 63.5897C4.10819 63.5124 4.81561 59.664 5.36951 57.9026C6.44842 54.4742 8.03337 51.2357 10.0894 48.2793C10.6972 47.406 11.3488 46.5494 12.0314 45.7346C14.0335 43.3444 16.3363 41.2281 18.8757 39.45C24.7989 35.2924 31.7636 33.0944 39.0145 33.0944C42.3569 33.0944 45.6659 33.5667 48.8485 34.4943C48.8817 34.5047 48.9149 34.5088 48.9481 34.5173C46.8961 38.7126 45.7924 43.5242 45.7924 48.4674C45.7924 49.1839 45.8215 49.9028 45.8795 50.6004C45.8899 50.7237 45.9127 50.8408 45.9418 50.9556C45.1991 51.5658 44.4938 52.2406 43.8297 52.978C43.8276 52.978 43.8276 52.978 43.8276 52.978C43.143 53.7386 43.201 54.9148 43.9563 55.6041C44.4584 56.0616 45.1409 56.1891 45.7426 56.0011L45.7467 56.0074C46.7094 55.7064 47.728 56.0345 48.4334 56.8159C47.508 58.9408 47.0186 61.2829 47.008 63.6605C47.0059 63.6857 47.0039 63.7085 47.0039 63.7315V63.7336H47.0061C47.0082 64.7615 47.8338 65.5931 48.8526 65.5931C49.3961 65.5931 49.8817 65.3571 50.2197 64.983C50.2301 64.9684 50.2426 64.9559 50.2551 64.9433C51.9315 63.1027 54.1307 62.0893 56.4584 62.0893C58.8027 62.0893 61.0207 63.1153 62.699 64.9808V64.983C62.9769 65.2902 63.2676 65.5827 63.5662 65.8585C62.5724 66.314 61.4853 66.5563 60.3734 66.5563ZM91.1553 55.8006C90.8669 56.3626 90.8897 57.002 91.1595 57.5223C91.4956 58.1678 91.7776 58.8489 92.0018 59.5509C90.4147 58.7779 88.6823 58.3684 86.8919 58.3684C83.4915 58.3684 80.3027 59.831 77.9148 62.4843C77.9148 62.4843 77.9148 62.4865 77.9126 62.4865C76.2322 64.3501 74.0185 65.378 71.6761 65.378C69.3296 65.378 67.1138 64.3501 65.4355 62.4843C64.8381 61.8199 64.1908 61.2308 63.5041 60.721C62.8152 60.2112 62.0871 59.7808 61.3256 59.4319C59.8049 58.7362 58.1576 58.3684 56.4584 58.3684C54.668 58.3684 52.9377 58.7779 51.3485 59.5509C51.5746 58.8467 51.8547 58.1678 52.1928 57.5223H52.1906C52.4623 57.002 52.4852 56.3628 52.1969 55.8006C51.5496 54.5428 50.5951 53.5714 49.4811 52.9508C51.7238 51.4674 54.284 50.6736 56.9479 50.6736C60.4541 50.6736 63.7777 52.0484 66.4375 54.5658C66.0226 55.2908 65.7881 56.114 65.7881 56.9853C65.7881 59.9102 68.4291 62.2921 71.674 62.2921C74.9208 62.2921 77.5618 59.9104 77.5618 56.9853C77.5618 56.0807 77.3109 55.2302 76.8669 54.4844C79.5286 52.0002 82.8441 50.6443 86.3356 50.6443C89.0265 50.6443 91.6116 51.4466 93.8729 52.9508C92.7591 53.5694 91.8048 54.5409 91.1553 55.8006Z" fill="#494949"/>
<path d="M24.5208 41.9534C23.9102 40.9918 22.6411 40.711 21.6866 41.3258C20.3626 42.1787 19.0905 43.1375 17.906 44.1758C13.9986 47.6001 10.9368 51.9694 9.05209 56.8104C8.88314 57.2441 8.72123 57.6886 8.57026 58.1312C8.20307 59.211 8.77436 60.3862 9.84662 60.7558C10.0669 60.8319 10.2911 60.8679 10.5118 60.8679C11.3646 60.8679 12.1611 60.3282 12.4529 59.4706C12.5841 59.0845 12.7253 58.6975 12.8726 58.3194C14.5171 54.0952 17.1894 50.2824 20.6003 47.2931C21.6335 46.3874 22.7429 45.5513 23.8975 44.8076C24.8522 44.1927 25.1313 42.9149 24.5208 41.9534Z" fill="#494949"/>
<path d="M59.4873 41.7183C60.6204 41.7183 61.5391 40.7933 61.5391 39.6521C61.5391 38.511 60.6204 37.5859 59.4873 37.5859C58.3541 37.5859 57.4355 38.511 57.4355 39.6521C57.4355 40.7933 58.3541 41.7183 59.4873 41.7183Z" fill="#494949"/>
<path d="M83.9131 41.7183C85.0462 41.7183 85.9648 40.7933 85.9648 39.6521C85.9648 38.511 85.0462 37.5859 83.9131 37.5859C82.7799 37.5859 81.8613 38.511 81.8613 39.6521C81.8613 40.7933 82.7799 41.7183 83.9131 41.7183Z" fill="#494949"/>
</svg>
