<svg width="100" height="74" viewBox="0 0 100 74" fill="none" xmlns="http://www.w3.org/2000/svg">
<path d="M77.9297 31.1567C76.8517 31.1567 75.9766 32.0292 75.9766 33.104C75.9766 34.1789 76.8517 35.0514 77.9297 35.0514C79.0077 35.0514 79.8828 34.1789 79.8828 33.104C79.8828 32.0292 79.0077 31.1567 77.9297 31.1567Z" fill="#494949"/>
<path d="M53.9063 27.2623C54.9843 27.2623 55.8594 26.3898 55.8594 25.315C55.8594 24.2394 54.9843 23.3677 53.9063 23.3677C52.8282 23.3677 51.9531 24.2394 51.9531 25.315C51.9531 26.3898 52.8282 27.2623 53.9063 27.2623Z" fill="#494949"/>
<path d="M44.1406 25.315C44.1406 26.3898 45.0157 27.2623 46.0938 27.2623C47.1718 27.2623 48.0469 26.3898 48.0469 25.315C48.0469 24.2394 47.1718 23.3677 46.0938 23.3677C45.0157 23.3677 44.1406 24.2394 44.1406 25.315Z" fill="#494949"/>
<path d="M22.0703 31.1567C20.9923 31.1567 20.1172 32.0292 20.1172 33.104C20.1172 34.1789 20.9923 35.0514 22.0703 35.0514C23.1484 35.0514 24.0235 34.1789 24.0235 33.104C24.0235 32.0292 23.1484 31.1567 22.0703 31.1567Z" fill="#494949"/>
<path d="M78.6566 20.0847C77.9051 19.9295 77.1315 20.2269 76.6798 20.8453C73.3205 25.4496 67.9082 29.6501 61.9412 32.3382C61.797 31.9708 61.6437 31.6126 61.4819 31.2642C62.8606 27.7834 63.6723 24.1588 63.6723 21.4204V1.94731C63.6723 0.871725 62.798 0 61.7192 0C56.3343 0 51.9535 4.36775 51.9535 9.73654V11.7287C51.3386 11.6991 50.6908 11.6839 50.0003 11.6839C49.3099 11.6839 48.6621 11.6998 48.0472 11.7287V9.73654C48.0472 4.36775 43.6664 0 38.2807 0C37.2027 0 36.3276 0.871725 36.3276 1.94731V21.4204C36.3276 24.1588 37.1401 27.7834 38.5188 31.2649C38.357 31.6133 38.2037 31.9708 38.0595 32.3382C32.0925 29.6501 26.6802 25.4496 23.3209 20.8453C22.8692 20.2269 22.0948 19.9295 21.3441 20.0847C8.99583 22.6428 -0.332702 32.9886 0.00909777 45.5031C0.0441932 46.8191 1.35799 47.7288 2.61074 47.2876C3.6514 46.9218 4.74394 46.7362 5.85784 46.7362C10.1395 46.7362 14.354 49.5347 15.6625 53.246C15.9524 54.0682 16.755 54.5961 17.6286 54.5437C21.8141 54.2767 25.7799 57.2805 26.4383 60.9234C26.7442 62.6159 28.9514 63.1133 29.9532 61.7061C31.418 59.6485 33.8007 58.4208 36.3276 58.4208C37.131 58.4208 37.9138 58.541 38.666 58.776C38.8385 59.3891 39.0208 59.9923 39.2092 60.5833L32.9935 66.7805C32.2306 67.5412 32.2306 68.7742 32.9935 69.5349C33.7565 70.2955 34.9924 70.2948 35.7554 69.5349L40.6878 64.6172C42.702 69.3866 45.7485 74 50.0003 74C54.2507 74 57.2979 69.3873 59.3121 64.6172L64.2445 69.5349C65.0075 70.2955 66.2435 70.2948 67.0064 69.5349C67.7693 68.7742 67.7693 67.5412 67.0064 66.7805L60.7914 60.5841C60.9799 59.9923 61.1615 59.3891 61.3339 58.776C62.0869 58.541 62.8697 58.4208 63.6723 58.4208C66.1992 58.4208 68.5819 59.6493 70.0467 61.7061C71.05 63.1141 73.2557 62.6151 73.5616 60.9234C74.1995 57.3962 77.9119 54.5262 81.8373 54.5262C82.0074 54.5262 82.1867 54.5315 82.3721 54.5437C83.2442 54.5961 84.0483 54.0682 84.3382 53.246C85.6459 49.5347 89.8612 46.7362 94.1421 46.7362C95.256 46.7362 96.3485 46.9218 97.3892 47.2876C98.6404 47.7281 99.9557 46.8206 99.9908 45.5031C100.336 32.857 90.8675 22.6146 78.6566 20.0847ZM59.766 4.22855V13.7126C59.5883 13.6007 59.4036 13.4935 59.2137 13.3908C58.2516 12.8751 57.1423 12.4856 55.8598 12.2079V9.73654C55.8598 7.19743 57.4925 5.03181 59.766 4.22855ZM57.3597 16.8191C58.4797 17.4223 59.766 18.4903 59.766 21.4204C59.766 27.4548 54.736 38.9469 50.0003 38.9469C45.1495 38.9469 40.2346 27.3095 40.2346 21.4204C40.2346 18.4903 41.5202 17.4223 42.6387 16.8199C44.646 15.7428 47.7237 15.5785 50.0003 15.5785C52.2693 15.5785 55.3524 15.742 57.3597 16.8191ZM44.1409 9.73654V12.2079C42.8577 12.4856 41.7483 12.8751 40.7847 13.3923C40.5948 13.4942 40.4116 13.6007 40.2346 13.7126V4.22855C42.5075 5.03181 44.1409 7.19743 44.1409 9.73654ZM29.1178 57.0021C27.1311 53.4262 23.1439 50.8757 18.7959 50.6475C16.5253 46.0538 11.3098 42.8415 5.85784 42.8415C5.2307 42.8415 4.60737 42.8841 3.99091 42.9678C4.8271 34.1821 11.6433 26.5868 20.9542 24.174C24.8224 29.0195 30.6437 33.3583 36.9624 36.1127C36.7045 37.3723 36.526 38.7111 36.426 40.1199C34.2066 39.2375 31.2983 37.9847 29.0941 36.5288C28.1946 35.9354 26.983 36.1804 26.3872 37.0764C25.7913 37.9733 26.037 39.182 26.9365 39.7761C29.6572 41.5728 33.0454 42.9868 35.6928 44.0191C35.9095 44.1027 36.1308 44.1446 36.3505 44.1507C36.4481 47.4078 36.9013 51.0453 37.6452 54.5999C37.2103 54.552 36.7716 54.5254 36.3276 54.5254C33.6893 54.5262 31.1548 55.4184 29.1178 57.0021ZM50.0003 70.1046C48.434 70.1046 45.737 67.5845 43.2872 60.4822C42.8859 59.3168 42.5128 58.0823 42.1779 56.8104C40.9427 52.1392 40.2346 47.048 40.2346 42.8415C40.2346 40.3777 40.4757 38.1391 40.9488 36.1713C42.9286 39.398 45.9819 42.8415 50.0003 42.8415C53.2391 42.8415 56.4106 40.4926 59.0535 36.1834C59.5257 38.1482 59.766 40.3823 59.766 42.8415C59.766 47.048 59.058 52.1392 57.8228 56.812C57.4871 58.0823 57.114 59.3168 56.7143 60.4807C54.2637 67.5845 51.5659 70.1046 50.0003 70.1046ZM94.1421 42.8415C88.6908 42.8415 83.4753 46.0538 81.2048 50.6475C76.856 50.8757 72.8689 53.4262 70.8829 57.0021C68.8451 55.4184 66.3114 54.5262 63.6723 54.5262C63.2291 54.5262 62.7904 54.552 62.3555 54.6007C63.0994 51.0453 63.5525 47.4078 63.6502 44.1507C63.8692 44.1446 64.0912 44.1027 64.3071 44.0191C66.9553 42.9876 70.3435 41.5728 73.0642 39.7761C73.9637 39.182 74.2094 37.9733 73.6135 37.0772C73.0177 36.1804 71.8061 35.9354 70.9066 36.5295C68.7024 37.9854 65.7933 39.2383 63.5747 40.1199C63.4747 38.7111 63.2954 37.3723 63.0368 36.1134C69.3563 33.3591 75.1783 29.0202 79.0464 24.174C88.3574 26.5868 95.1728 34.1829 96.009 42.9686C95.3933 42.8841 94.77 42.8415 94.1421 42.8415Z" fill="#494949"/>
</svg>
