<svg width="28" height="100" viewBox="0 0 28 100" fill="none" xmlns="http://www.w3.org/2000/svg">
<path d="M15.625 49.6094C15.625 50.6882 14.7507 51.5625 13.6719 51.5625C12.5931 51.5625 11.7188 50.6882 11.7188 49.6094C11.7188 48.5306 12.5931 47.6562 13.6719 47.6562C14.7507 47.6562 15.625 48.5306 15.625 49.6094Z" fill="#494949"/>
<path d="M27.3438 43.75C27.3438 40.8646 25.7614 38.2782 23.4573 36.8668C24.6902 35.4111 25.3906 33.5335 25.3906 31.6406C25.3906 28.7125 23.8335 26.1368 21.5187 24.7398C22.7425 23.2864 23.4375 21.4165 23.4375 19.5312C23.4375 16.6458 21.8643 14.1228 19.5312 12.7701V9.76562C19.5312 8.8768 19.3344 8.01849 18.9606 7.23877L22.8653 3.33405C23.6282 2.57187 23.6282 1.33514 22.8653 0.572205C22.1031 -0.190735 20.8664 -0.190735 20.1035 0.572205L16.1987 4.47693C15.4198 4.10385 14.5607 3.90625 13.6719 3.90625C12.7831 3.90625 11.924 4.10385 11.145 4.47693L7.2403 0.572205C6.47812 -0.190735 5.24139 -0.190735 4.47845 0.572205C3.71552 1.33514 3.71552 2.57187 4.47845 3.33481L8.38318 7.23953C8.0101 8.01849 7.8125 8.8768 7.8125 9.76562V12.7647C5.47638 14.119 3.90625 16.6298 3.90625 19.5312C3.90625 21.4561 4.62952 23.3047 5.83725 24.7406C3.3905 26.2314 1.95312 28.92 1.95312 31.6406C1.95312 33.6143 2.69394 35.4462 3.89862 36.8599C1.58768 38.269 0 40.8592 0 43.75C0 46.1082 1.05057 48.2254 2.70767 49.659C1.05896 51.1398 0 53.302 0 55.6641C0 58.0475 1.08032 60.2264 2.75421 61.7088C0.970459 63.2889 0 65.538 0 67.7734C0 70.6642 1.58768 73.2544 3.89862 74.6635C2.69394 76.0773 1.95312 77.9099 1.95312 79.8828C1.95312 82.6271 3.40729 85.2989 5.82962 86.7783C4.60281 88.2332 3.90625 90.1054 3.90625 91.9922C3.90625 96.3333 7.48444 100 11.7188 100H15.625C19.9989 100 23.4375 96.244 23.4375 91.9922C23.4375 90.0192 22.6967 88.1866 21.492 86.7729C23.8029 85.3638 25.3906 82.7736 25.3906 79.8828C25.3906 77.9953 24.6941 76.123 23.468 74.6689C25.8728 73.2002 27.3438 70.5368 27.3438 67.7734C27.3438 65.3847 26.2589 63.2004 24.5773 61.7188C26.2589 60.2371 27.3438 58.0536 27.3438 55.6641C27.3438 53.302 26.2848 51.1398 24.6368 49.659C26.2939 48.2254 27.3438 46.1082 27.3438 43.75ZM9.76562 35.7422C7.64847 35.7422 5.85938 33.8638 5.85938 31.6406C5.85938 29.4998 7.59735 27.5391 9.76562 27.5391H17.614C19.7121 27.5597 21.4844 29.438 21.4844 31.6406C21.4844 33.7814 19.7464 35.7422 17.5781 35.7422H9.76562ZM11.7188 9.76562C11.7188 8.68759 12.5931 7.8125 13.6719 7.8125C14.7499 7.8125 15.625 8.68759 15.625 9.76562V11.7188H11.7188V9.76562ZM11.7188 15.625H15.625C17.7788 15.625 19.5312 17.3775 19.5312 19.5312C19.5312 21.6759 17.7887 23.6328 15.625 23.6328H11.7188C9.56116 23.6328 7.8125 21.6957 7.8125 19.5312C7.8125 17.3744 9.56116 15.625 11.7188 15.625ZM17.5781 75.7812C19.7426 75.7812 21.4844 77.7382 21.4844 79.8828C21.4844 82.106 19.6953 83.9844 17.5781 83.9844C14.7278 83.9844 12.6556 83.9844 9.76562 83.9844C7.60193 83.9844 5.85938 82.0282 5.85938 79.8828C5.85938 77.6596 7.64847 75.7812 9.76562 75.7812H17.5781ZM15.625 96.0938H11.7188C9.60159 96.0938 7.8125 94.2154 7.8125 91.9922C7.8125 89.8514 9.55048 87.8906 11.7188 87.8906H15.625C17.7422 87.8906 19.5312 89.769 19.5312 91.9922C19.5312 94.133 17.7933 96.0938 15.625 96.0938ZM23.4375 67.7734C23.4375 69.9142 21.6995 71.875 19.5312 71.875H7.8125C5.69534 71.875 3.90625 69.9966 3.90625 67.7734C3.90625 65.6326 5.64423 63.6719 7.8125 63.6719H19.5312C21.6484 63.6719 23.4375 65.5502 23.4375 67.7734ZM7.8125 59.7656C5.69534 59.7656 3.90625 57.8873 3.90625 55.6641C3.90625 53.4409 5.69534 51.5625 7.8125 51.5625C8.8913 51.5625 9.76562 50.6882 9.76562 49.6094C9.76562 48.5306 8.8913 47.6562 7.8125 47.6562C5.65872 47.6562 3.90625 45.9038 3.90625 43.75C3.90625 41.5268 5.69534 39.6484 7.8125 39.6484H19.5312C21.6484 39.6484 23.4375 41.5268 23.4375 43.75C23.4375 45.9038 21.685 47.6562 19.5312 47.6562C18.4525 47.6562 17.5781 48.5306 17.5781 49.6094C17.5781 50.6882 18.4525 51.5625 19.5312 51.5625C21.6484 51.5625 23.4375 53.4409 23.4375 55.6641C23.4375 57.8873 21.6484 59.7656 19.5312 59.7656H7.8125Z" fill="#494949"/>
</svg>
