<svg xmlns="http://www.w3.org/2000/svg" width="11.469" height="15" viewBox="0 0 11.469 15">
  <metadata><?xpacket begin="﻿" id="W5M0MpCehiHzreSzNTczkc9d"?>
<x:xmpmeta xmlns:x="adobe:ns:meta/" x:xmptk="Adobe XMP Core 5.6-c138 79.159824, 2016/09/14-01:09:01        ">
   <rdf:RDF xmlns:rdf="http://www.w3.org/1999/02/22-rdf-syntax-ns#">
      <rdf:Description rdf:about=""/>
   </rdf:RDF>
</x:xmpmeta>
                                                                                                    
                                                                                                    
                                                                                                    
                                                                                                    
                                                                                                    
                                                                                                    
                                                                                                    
                                                                                                    
                                                                                                    
                                                                                                    
                                                                                                    
                                                                                                    
                                                                                                    
                                                                                                    
                                                                                                    
                                                                                                    
                                                                                                    
                                                                                                    
                                                                                                    
                                                                                                    
                           
<?xpacket end="w"?></metadata>
<defs>
    <style>
      .cls-1 {
        fill: none;
        stroke: #2862ac;
        stroke-width: 1px;
        fill-rule: evenodd;
      }
    </style>
  </defs>
  <path id="Forma_1_копия_18_copy_4" data-name="Forma 1 копия 18 copy 4" class="cls-1" d="M32.214,522.5a4.128,4.128,0,0,0-.245-0.561,5.148,5.148,0,0,0-4.811-2.924A4.987,4.987,0,0,0,22,523.353v0.6c0,0.025.009,0.249,0.023,0.361,0.189,1.394,1.382,2.875,2.274,4.269,0.959,1.493,1.954,2.962,2.94,4.43,0.608-.958,1.213-1.929,1.807-2.862,0.162-.274.35-0.547,0.512-0.809,0.108-.174.314-0.348,0.409-0.51,0.959-1.618,2.5-3.248,2.5-4.854v-0.659A4.625,4.625,0,0,0,32.214,522.5Zm-5.015,3a1.859,1.859,0,0,1-1.778-1.171,1.492,1.492,0,0,1-.05-0.435V523.5a1.711,1.711,0,0,1,1.886-1.592,1.839,1.839,0,0,1,1.916,1.792A1.893,1.893,0,0,1,27.2,525.494Z" transform="translate(-21.5 -518.5)"/>
</svg>
