<svg width="240" height="215" viewBox="0 0 240 215" fill="none" xmlns="http://www.w3.org/2000/svg">
<path d="M17.2313 113.76C45.7146 139.802 33.3786 165.945 12.317 214.411C19.9287 214.411 19.9287 214.411 25.9568 205.663C49.5257 155.991 59.4548 131.155 80.5164 147.243C101.478 163.432 17.2313 113.76 17.2313 113.76Z" fill="#E0E0E0"/>
<path d="M1.54675 80.4485C5.06633 64.9869 25.5805 48.3206 53.1337 34.1642C49.0108 56.955 35.9382 94.2033 49.5138 101.834C67.8156 112.175 51.3236 60.1678 58.3628 31.5538C84.2065 18.9035 115.38 8.66267 144.04 3.54229C144.04 3.64269 143.939 3.74301 143.939 3.84341C127.749 44.8065 106.631 60.8705 115.38 67.0953C121.916 71.7137 143.235 24.5258 171.392 0.229045C192.509 -0.875353 210.409 1.93582 220.967 10.3694C237.258 23.321 248.319 34.7666 231.828 74.0229C222.476 80.7497 210.308 85.5689 196.129 86.9745C158.822 90.6893 141.425 91.8941 167.57 104.344C180.341 110.368 201.761 104.042 219.157 100.127C213.526 110.468 206.587 122.215 198.14 135.568C192.811 144.002 186.878 151.431 180.643 157.756C168.676 160.065 158.118 160.065 152.587 157.756C135.19 150.327 90.4413 126.733 79.2792 136.672C68.3182 146.411 162.14 152.536 155.604 177.234C110.151 203.338 58.1618 190.989 48.9103 166.893C36.6421 134.464 -8.91142 126.934 1.54675 80.4485Z" fill="#EDEDED"/>
<path d="M211.743 34.045C123.194 57.8767 58.2857 115.032 46.1654 128.867C34.045 142.701 34.045 146.64 34.045 146.64L43.3606 164.412L47.7679 162.191C47.7679 162.191 40.656 147.245 59.2873 127.857C91.5414 94.432 130.807 67.9749 157.753 56.362C184.698 44.7491 211.743 34.045 211.743 34.045Z" fill="#E0E0E0"/>
</svg>
