<svg width="125" height="163" viewBox="0 0 125 163" fill="none" xmlns="http://www.w3.org/2000/svg">
<path d="M92.286 21C120.875 21 130.192 64.7891 122.321 90.2279C114.451 115.667 103.745 163 103.745 163L96.5686 155.911C96.5686 155.911 123.71 89.5419 117.287 59.8728C110.863 30.2037 95.1217 25.2874 92.286 25.2874C89.3925 25.2303 92.286 21 92.286 21Z" fill="#E0E0E0"/>
<path d="M86.2738 51.043C91.9377 39.0798 77.0629 36.2884 77.8066 45.4032C78.4359 53.4926 78.4932 73.2034 70.1404 78.5583C55.7233 77.0202 36.1572 71.2095 21.3396 62.4365C21.168 61.2402 21.3397 60.0439 21.969 58.7906C28.3194 46.1438 69.3395 35.5478 56.5815 31.3322C46.4552 27.9711 28.7199 47.7958 14.36 57.8222C5.77834 51.3278 0 43.5802 0 34.9781C0 23.2997 14.2456 10.0263 32.7247 3.7029C41.0202 4.55741 48.7436 9.05781 60.8151 15.837C78.6076 25.8633 74.4884 9.62753 57.6685 0C72.2 0.740579 86.6744 6.95004 97.3728 21.7047C97.3728 21.7047 96.343 28.028 103.094 37.7695C121.401 64.4304 100.291 79.9256 75.0034 78.9571C76.4336 71.9501 82.3835 59.3033 86.2738 51.043Z" fill="#EDEDED"/>
</svg>
