<svg width="79" height="69" viewBox="0 0 79 69" fill="none" xmlns="http://www.w3.org/2000/svg">
<path d="M2.61924 54.1567C2.44017 54.3669 2.46541 54.6825 2.67562 54.8615L6.10121 57.7796C6.31141 57.9587 6.62699 57.9335 6.80606 57.7232C6.98513 57.513 6.95988 57.1975 6.74968 57.0184L3.70471 54.4245L6.29859 51.3795C6.47766 51.1693 6.45241 50.8538 6.2422 50.6747C6.03199 50.4956 5.71642 50.5209 5.53734 50.7311L2.61924 54.1567ZM66.8801 3.62052C66.8801 4.48887 66.8566 5.34214 66.8106 6.18062L67.8091 6.23542C67.8561 5.37845 67.8801 4.50689 67.8801 3.62052L66.8801 3.62052ZM66.5406 9.20463C66.326 10.9263 66.0129 12.5818 65.6103 14.1737L66.5798 14.4189C66.9926 12.7866 67.3133 11.0905 67.5329 9.32829L66.5406 9.20463ZM64.7526 17.0846C64.2041 18.7091 63.5587 20.2628 62.8274 21.7488L63.7247 22.1903C64.475 20.6656 65.1373 19.0713 65.7001 17.4045L64.7526 17.0846ZM61.3803 24.4194C60.5124 25.8821 59.5582 27.2739 58.53 28.5982L59.3199 29.2115C60.3725 27.8557 61.3503 26.4297 62.2403 24.9298L61.3803 24.4194ZM56.5829 30.931C55.4533 32.1929 54.2551 33.3875 53.0008 34.5184L53.6705 35.2611C54.9495 34.1078 56.1732 32.888 57.328 31.5979L56.5829 30.931ZM50.6798 36.4905C49.3569 37.5508 47.9854 38.5486 46.5785 39.4876L47.1336 40.3194C48.563 39.3654 49.958 38.3505 51.3052 37.2708L50.6798 36.4905ZM44.0009 41.1207C42.5394 42.0001 41.0498 42.8212 39.5458 43.5878L39.9999 44.4788C41.5232 43.7023 43.0334 42.8699 44.5165 41.9776L44.0009 41.1207ZM36.7959 44.9235C35.2368 45.6449 33.6716 46.311 32.1149 46.9256L32.4822 47.8557C34.0553 47.2346 35.6382 46.5611 37.2159 45.831L36.7959 44.9235ZM29.2506 48.0042C27.607 48.594 25.9838 49.1281 24.3993 49.6113L24.691 50.5679C26.2899 50.0802 27.9284 49.5411 29.5884 48.9454L29.2506 48.0042ZM21.4578 50.4645C19.7341 50.9394 18.0743 51.3535 16.5042 51.7139L16.728 52.6885C18.3109 52.3252 19.9848 51.9076 21.7234 51.4286L21.4578 50.4645ZM13.5148 52.3605C11.639 52.7416 9.94521 53.0396 8.49102 53.27L8.64758 54.2577C10.1147 54.0252 11.8227 53.7247 13.7139 53.3405L13.5148 52.3605ZM5.46049 53.7057C4.65983 53.8082 4.03298 53.8775 3.60713 53.9212C3.39422 53.943 3.23156 53.9584 3.12256 53.9683C3.06807 53.9733 3.02698 53.9768 2.99974 53.9792C2.98613 53.9803 2.97597 53.9812 2.96932 53.9817C2.966 53.982 2.96356 53.9822 2.962 53.9823C2.96122 53.9824 2.96066 53.9824 2.96033 53.9825C2.96015 53.9825 2.96004 53.9825 2.95999 53.9825C2.95996 53.9825 2.95994 53.9825 2.95994 53.9825L2.95995 53.9825C2.95997 53.9825 2.95999 53.9825 2.99985 54.4809C3.03972 54.9793 3.03975 54.9793 3.03978 54.9793C3.03979 54.9793 3.03982 54.9793 3.03985 54.9793C3.0399 54.9793 3.03998 54.9793 3.04006 54.9793C3.04022 54.9793 3.04044 54.9792 3.04072 54.9792C3.04128 54.9792 3.04205 54.9791 3.04306 54.979C3.04505 54.9789 3.04794 54.9786 3.0517 54.9783C3.05923 54.9777 3.07028 54.9768 3.0848 54.9755C3.11384 54.9731 3.15674 54.9693 3.21308 54.9642C3.32577 54.954 3.49224 54.9382 3.70909 54.916C4.14276 54.8715 4.77797 54.8012 5.58747 54.6976L5.46049 53.7057ZM2.23862 53.8324C1.88047 54.2529 1.93096 54.884 2.35138 55.2421L9.20256 61.0784C9.62298 61.4365 10.2541 61.386 10.6123 60.9656C10.9704 60.5452 10.9199 59.914 10.4995 59.5559L4.40956 54.3681L9.59732 48.2782C9.95546 47.8578 9.90497 47.2266 9.48455 46.8685C9.06412 46.5103 8.43298 46.5608 8.07484 46.9813L2.23862 53.8324ZM66.3801 3.62052C66.3801 4.47985 66.3568 5.32399 66.3113 6.15322L68.3083 6.26282C68.3559 5.3966 68.3801 4.51591 68.3801 3.62052L66.3801 3.62052ZM66.0444 9.14279C65.8324 10.8443 65.5231 12.4794 65.1256 14.0511L67.0645 14.5415C67.4825 12.889 67.8069 11.1726 68.0291 9.39012L66.0444 9.14279ZM64.2789 16.9247C63.7375 18.528 63.1006 20.0614 62.3788 21.528L64.1733 22.4111C64.9332 20.867 65.6039 19.2524 66.1738 17.5645L64.2789 16.9247ZM60.9503 24.1643C60.0934 25.6083 59.1511 26.9829 58.1351 28.2916L59.7148 29.5181C60.7796 28.1467 61.7692 26.7034 62.6703 25.1849L60.9503 24.1643ZM56.2104 30.5975C55.0934 31.8453 53.9078 33.0274 52.666 34.1471L54.0053 35.6324C55.2968 34.4679 56.5332 33.2356 57.7006 31.9314L56.2104 30.5975ZM50.3671 36.1003C49.0563 37.1509 47.6966 38.1402 46.3009 39.0717L47.4111 40.7353C48.8518 39.7738 50.2586 38.7503 51.6179 37.661L50.3671 36.1003ZM43.7432 40.6923C42.2923 41.5652 40.813 42.3807 39.3187 43.1424L40.2269 44.9242C41.76 44.1429 43.2804 43.3048 44.7743 42.406L43.7432 40.6923ZM36.5859 44.4697C35.0361 45.1869 33.4797 45.8492 31.9313 46.4605L32.6658 48.3208C34.2472 47.6964 35.8389 47.0191 37.4258 46.2848L36.5859 44.4697ZM29.0817 47.5335C27.4463 48.1205 25.8308 48.652 24.2534 49.1331L24.8368 51.0461C26.4429 50.5563 28.0892 50.0147 29.7573 49.416L29.0817 47.5335ZM21.325 49.9825C19.6088 50.4553 17.9559 50.8676 16.3923 51.2266L16.8398 53.1759C18.4293 52.811 20.1101 52.3917 21.8562 51.9107L21.325 49.9825ZM13.4153 51.8705C11.5471 52.2501 9.86047 52.5467 8.41275 52.7762L8.72585 54.7516C10.1994 54.518 11.9146 54.2163 13.8135 53.8305L13.4153 51.8705ZM5.397 53.2098C4.60077 53.3117 3.97809 53.3805 3.55616 53.4238C3.3452 53.4454 3.18445 53.4606 3.0773 53.4704C3.02373 53.4752 2.98355 53.4787 2.95722 53.481C2.94405 53.4821 2.93434 53.4829 2.92813 53.4834C2.92503 53.4837 2.92281 53.4839 2.92147 53.484C2.9208 53.484 2.92035 53.4841 2.92013 53.4841C2.92001 53.4841 2.91996 53.4841 2.91995 53.4841C2.91995 53.4841 2.91996 53.4841 2.91999 53.4841C2.92 53.4841 2.92004 53.4841 2.92004 53.4841C2.92008 53.4841 2.92011 53.4841 2.99985 54.4809C3.0796 55.4777 3.07964 55.4777 3.07969 55.4777C3.07971 55.4777 3.07976 55.4777 3.0798 55.4777C3.07988 55.4777 3.07998 55.4777 3.08009 55.4777C3.08031 55.4777 3.08059 55.4776 3.08092 55.4776C3.08158 55.4776 3.08247 55.4775 3.08358 55.4774C3.0858 55.4772 3.08891 55.477 3.09289 55.4766C3.10086 55.476 3.11236 55.475 3.12732 55.4737C3.15726 55.4712 3.20107 55.4674 3.25835 55.4621C3.37288 55.4517 3.54126 55.4358 3.76006 55.4134C4.19765 55.3685 4.83704 55.2978 5.65095 55.1936L5.397 53.2098Z" fill="#F2590D"/>
</svg>
