<svg width="220" height="167" viewBox="0 0 220 167" fill="none" xmlns="http://www.w3.org/2000/svg">
<path d="M97.1934 24.1468C50 -4.5 10 26 0 36C0 41 0 42.5 0 46.5C46 11.5 79.9452 20.5367 83.6556 34.1749C87.3659 47.813 67.5103 72.5823 67.5103 72.5823L97.1934 24.1468Z" fill="#C3D0EF"/>
<path d="M38.3284 69.8749C132.492 30.2642 82.8528 -24.1881 165.885 11.7123C171.701 14.2193 178.821 20.6372 186.041 29.4619C178.62 31.5678 169.696 33.0719 159.768 31.5677C134.999 27.8574 143.623 47.7129 184.537 52.6266C192.259 53.5291 198.476 54.8328 203.691 56.6378C223.145 94.0424 231.97 143.28 190.755 160.428C182.632 163.838 172.604 165.743 161.372 166.445C148.637 156.317 164.481 97.853 144.826 105.875C125.973 113.597 150.743 156.016 147.333 166.746C128.781 166.445 108.224 163.336 88.4686 158.523C80.6467 154.211 74.7301 148.294 72.9251 140.673C66.7077 114.7 107.622 98.555 108.825 76.2928C109.928 55.8356 93.8835 121.419 51.164 131.046C12.5561 112.895 -5.69474 88.4268 38.3284 69.8749Z" fill="#EBEFFA"/>
<path d="M94.1856 22.041C118.453 40.7934 145.328 62.6546 178.321 77.4961C211.313 92.3376 204.795 140.773 204.795 140.773C204.795 140.773 209.709 98.9561 182.232 84.616C154.655 70.2759 136.504 53.2282 115.645 49.919C94.6869 46.6097 83.1547 43.3005 83.1547 43.3005C83.1547 43.3005 89.7732 30.0634 85.8622 25.1497C82.0516 20.2359 94.1856 22.041 94.1856 22.041Z" fill="#C3D0EF"/>
</svg>
