<svg width="158" height="56" viewBox="0 0 158 56" fill="none" xmlns="http://www.w3.org/2000/svg">
<path fill-rule="evenodd" clip-rule="evenodd" d="M53.2114 34.9112C49.6343 35.0896 45.2602 33.7202 42.5341 32.3122C38.8916 30.4308 37.6175 29.1249 35.0222 26.4723C36.139 23.5423 37.5188 20.7151 39.1721 17.9279C39.8948 16.7096 43.6032 11.2984 44.6571 10.8157C45.5524 11.3964 48.4412 14.7262 49.2993 15.7252C50.6658 17.3163 52.2998 19.4228 53.402 21.2024C56.9781 26.9762 56.8619 29.3554 53.2115 34.9112H53.2114Z" fill="#274792"/>
<path fill-rule="evenodd" clip-rule="evenodd" d="M24.2605 32.0844C24.2636 33.1935 24.003 36.7754 23.5514 37.5354C20.7461 36.7166 14.5949 32.1443 12.278 30.121C10.5606 28.6214 9.10082 27.1133 7.59672 25.3563C6.21597 23.7434 3.93309 20.3565 3.57373 19.9692C3.82075 19.435 4.08799 19.1051 4.41832 18.6868L7.27026 15.1517C7.96614 14.3396 8.5568 13.7228 9.2685 12.9332C9.68225 12.474 11.0754 10.9917 11.4703 10.7736C12.8224 11.2941 15.1861 13.1577 16.422 14.2558C17.8765 15.5481 19.1467 17.1207 20.3524 18.8964C22.7351 22.4049 24.2466 27.1719 24.2605 32.0845V32.0844Z" fill="#83603E"/>
<path fill-rule="evenodd" clip-rule="evenodd" d="M28.767 39.7085C28.249 39.7098 26.2925 38.8882 25.8638 38.6202C25.9996 38.1236 26.1149 37.609 26.2125 37.0811C28.0455 27.1642 24.3582 17.075 16.0782 10.8315L13.4014 9.04243C13.6601 8.1551 18.9786 4.21485 20.0094 3.49165C22.8054 1.52982 25.4274 -0.0116203 28.883 6.60091e-05C28.8316 0.721485 27.7802 3.21087 27.4195 4.91414C25.9205 11.9926 27.1471 19.3918 31.1343 25.2661C32.6679 27.5256 32.2597 26.5899 31.3154 29.656C30.2728 33.0411 29.4419 36.2435 28.767 39.7085Z" fill="#E3C655"/>
<path fill-rule="evenodd" clip-rule="evenodd" d="M16.5644 49.5941C14.2884 48.4508 6.58337 40.0666 4.74727 37.6159C2.92195 35.1798 -0.00272292 31.043 1.9026e-06 27.8817C0.00125951 26.3604 1.22753 23.0709 2.16948 22.2249L5.02069 26.0425C9.28472 31.3192 15.9236 36.7511 22.0338 39.5395C22.9365 39.9515 23.1439 39.6254 22.2409 41.6534C21.5337 43.2417 20.8006 44.5744 19.7688 46.0032C19.3018 46.6498 18.7726 47.3368 18.3081 47.8756C17.9939 48.24 16.9812 49.3499 16.5645 49.5941H16.5644Z" fill="#274792"/>
<path fill-rule="evenodd" clip-rule="evenodd" d="M42.8205 9.13297C41.1823 10.5957 38.7221 14.1377 37.5315 16.0014C36.6693 17.3509 35.989 18.5923 35.3142 19.8871C34.9111 20.6604 33.622 23.6855 33.3036 24.0609C32.5871 23.723 30.7054 19.2193 30.4431 18.4191C28.845 13.545 28.8422 10.1431 29.8251 5.33733C30.0037 4.46389 30.7849 1.67734 31.4114 0.86994C34.2674 1.7126 39.5289 6.043 42.1426 8.35667C42.2481 8.45006 42.3351 8.51391 42.4441 8.63046C42.4679 8.65592 42.4965 8.68441 42.5199 8.71174L42.8205 9.13297Z" fill="#F2590D"/>
<path fill-rule="evenodd" clip-rule="evenodd" d="M51.3897 37.201C51.2036 38.565 47.184 42.0433 46.6131 43.2659C46.5978 43.2988 46.5832 43.3396 46.568 43.372C46.5523 43.4056 46.5322 43.449 46.5175 43.4798L46.4036 43.6978C43.7806 43.523 32.536 41.6488 31.1282 40.49C31.3515 38.5966 32.5461 33.8436 33.1752 31.7947C33.3638 31.1805 33.7761 29.6249 34.0314 29.1156L37.3751 31.9461C41.1917 34.794 46.376 37.0177 51.3898 37.2009L51.3897 37.201Z" fill="#8AC245"/>
<path fill-rule="evenodd" clip-rule="evenodd" d="M46.9137 46.196C47.3222 47.1731 47.7733 51.1752 47.8997 52.4472C47.082 52.2116 45.5605 50.916 43.4117 50.1268C40.9454 49.221 39.9732 49.3 38.19 50.7154C36.2786 52.2325 31.9954 55.2215 29.4635 55.5982C29.3418 53.3931 30.1294 44.9254 30.6831 43.1021C30.7601 43.1054 40.5414 45.8067 46.9136 46.1961L46.9137 46.196Z" fill="#83603E"/>
<path fill-rule="evenodd" clip-rule="evenodd" d="M28.2312 42.2291C28.3449 43.2984 27.6135 47.3189 27.4815 48.7459C27.2726 51.0037 27.0377 53.4328 26.9635 55.6512C25.3359 55.4895 23.5674 54.4735 22.4122 53.7978C21.3037 53.1495 19.2477 51.9208 18.5908 51.2142C18.7772 50.7943 20.0218 49.5877 20.4842 49.0269C24.104 44.6366 24.2022 42.4541 25.1522 41.0661C25.5694 41.1093 27.8827 41.9997 28.2311 42.2292L28.2312 42.2291Z" fill="#F2590D"/>
<path d="M67.3898 11.8336C67.3898 16.3484 68.9096 19.5216 73.362 19.5216C76.8297 19.5216 78.3923 17.2641 78.8204 14.9641C78.9917 14.0697 78.4565 13.7076 77.4505 13.7076C76.5942 13.7289 76.1233 13.9845 75.9307 14.6234C75.5668 15.9012 75.053 17.0086 73.362 17.0086C70.7077 17.0299 70.3224 14.1336 70.3224 11.8336C70.3224 9.51225 70.6649 6.63724 73.362 6.63724C75.0102 6.63724 75.5668 7.4678 75.8879 9.00114C76.0591 9.76781 76.5942 9.93818 77.4077 9.91689C78.1569 9.91689 78.8418 9.55485 78.7776 8.89466C78.4994 6.21131 76.9367 4.14556 73.4904 4.14556C68.9524 4.14556 67.3898 7.29743 67.3898 11.8336Z" fill="#333333"/>
<path d="M80.7834 17.2003C80.7834 18.3503 81.2115 19.2873 82.6885 19.2873H85.9422C88.3824 19.2873 90.0307 18.1586 90.0307 15.7947C90.0307 15.028 89.9451 13.8567 88.5751 13.2817C89.3457 12.9623 89.7524 11.8975 89.7524 11.2586C89.7524 9.06503 88.147 8.25577 86.0492 8.25577H82.6885C81.2115 8.25577 80.7834 9.17151 80.7834 10.3215V17.2003ZM86.884 11.4076C86.884 12.0891 86.3703 12.3447 85.8566 12.3447H83.6518V10.8752C83.6518 10.6197 83.7588 10.4493 84.0371 10.4493H85.5997C86.1991 10.4493 86.884 10.5558 86.884 11.4076ZM83.6518 14.5382H85.8994C86.4987 14.5382 87.1623 14.9641 87.1623 15.7947C87.1623 16.6465 86.4987 17.0725 85.8994 17.0725H83.9086C83.716 17.0725 83.6518 16.8595 83.6518 16.6678V14.5382Z" fill="#333333"/>
<path d="M96.6285 10.1724C97.6132 10.1724 98.3195 10.79 98.4052 11.9187C98.4266 12.2595 98.2339 12.3873 98.0199 12.3873H94.5093C94.6592 11.0456 95.387 10.1724 96.6285 10.1724ZM100.803 16.7743C100.952 16.3484 100.867 15.7308 99.925 15.6243C99.1116 15.5391 98.5764 15.7095 98.3624 16.1141C97.9771 16.8382 97.5489 17.2428 96.6499 17.2428C94.8946 17.2641 94.4665 15.7734 94.4237 14.3678H99.1544C100.46 14.3678 101.081 13.9632 101.102 12.5363C101.124 9.8317 99.4326 7.97891 96.5001 7.97891C92.8825 7.97891 91.5339 10.7049 91.5339 13.7076C91.5553 16.8169 93.0323 19.5642 96.5857 19.5855C98.6406 19.5855 100.246 18.5845 100.803 16.7743Z" fill="#333333"/>
<path d="M104.234 10.5558V18.478C104.234 19.2873 104.94 19.5003 105.668 19.5003C106.375 19.5003 107.102 19.2873 107.102 18.478V10.5558H108.772C109.585 10.5558 109.8 9.98078 109.8 9.40577C109.8 8.83077 109.585 8.25577 108.772 8.25577H102.564C101.751 8.25577 101.537 8.83077 101.537 9.40577C101.537 9.98078 101.751 10.5558 102.564 10.5558H104.234Z" fill="#333333"/>
<path d="M119.576 10.3215C119.576 9.17151 119.148 8.25577 117.65 8.25577H113.54C112.042 8.25577 111.592 9.17151 111.528 10.3215L111.143 15.8799C111.1 16.4336 110.993 17.0086 110.351 17.1151C109.944 17.179 109.559 17.5623 109.601 18.3503C109.666 19.1808 110.008 19.5216 110.821 19.5216C112.684 19.5216 113.818 17.9456 113.925 16.1993L114.289 10.9817C114.311 10.7261 114.396 10.5558 114.696 10.5558H116.323C116.601 10.5558 116.687 10.7261 116.687 10.9817V18.478C116.687 19.2873 117.414 19.5003 118.121 19.5003C118.849 19.5003 119.576 19.266 119.576 18.478V10.3215Z" fill="#333333"/>
<path d="M128.398 18.4141C128.719 19.0956 129.083 19.3512 129.832 19.3512C130.517 19.3299 130.967 19.1169 130.902 18.3716C130.86 17.8604 130.817 17.4132 130.817 16.9447V12.0252C130.817 9.06503 128.74 7.95762 126.3 7.95762C124.909 7.95762 123.689 8.21317 122.447 8.95855C121.805 9.34188 121.826 10.1511 122.233 10.6623C122.64 11.1308 123.089 11.1095 123.603 10.8965C124.609 10.4706 125.08 10.2363 126.257 10.2576C127.135 10.2576 127.97 10.6836 127.948 12.153C125.144 11.9826 121.505 12.366 121.505 16.029C121.505 18.2225 123.239 19.5216 125.187 19.5216C126.771 19.5216 127.67 19.0317 128.398 18.4141ZM127.948 14.2401C128.141 15.816 127.392 17.2215 125.893 17.2215C124.994 17.2215 124.416 16.753 124.395 16.029C124.331 14.1549 126.75 14.1549 127.948 14.2401Z" fill="#333333"/>
<path d="M136.351 14.6234H139.819V18.478C139.819 19.2873 140.546 19.5003 141.253 19.5003C141.981 19.5003 142.687 19.2873 142.687 18.478V9.06503C142.687 8.25577 141.981 8.0428 141.253 8.0428C140.546 8.0428 139.819 8.25577 139.819 9.06503V12.3234H136.351V9.06503C136.351 8.25577 135.623 8.0428 134.917 8.0428C134.189 8.0428 133.482 8.25577 133.482 9.06503V18.478C133.482 19.2873 134.189 19.5003 134.917 19.5003C135.623 19.5003 136.351 19.2873 136.351 18.478V14.6234Z" fill="#333333"/>
<path d="M151.497 18.4141C151.818 19.0956 152.182 19.3512 152.931 19.3512C153.616 19.3299 154.066 19.1169 154.001 18.3716C153.959 17.8604 153.916 17.4132 153.916 16.9447V12.0252C153.916 9.06503 151.839 7.95762 149.399 7.95762C148.008 7.95762 146.788 8.21317 145.546 8.95855C144.904 9.34188 144.925 10.1511 145.332 10.6623C145.739 11.1308 146.188 11.1095 146.702 10.8965C147.708 10.4706 148.179 10.2363 149.356 10.2576C150.234 10.2576 151.069 10.6836 151.047 12.153C148.243 11.9826 144.604 12.366 144.604 16.029C144.604 18.2225 146.338 19.5216 148.286 19.5216C149.87 19.5216 150.769 19.0317 151.497 18.4141ZM151.047 14.2401C151.24 15.816 150.491 17.2215 148.992 17.2215C148.093 17.2215 147.515 16.753 147.494 16.029C147.43 14.1549 149.849 14.1549 151.047 14.2401Z" fill="#333333"/>
<path d="M67.8607 25.6762C67.1543 25.6762 66.9617 26.3151 66.9617 26.954C66.9617 27.5929 67.1329 28.2318 67.8607 28.2318H70.5792V39.7744C70.5792 40.5624 71.3712 40.7754 71.992 40.7754C72.6984 40.7754 73.4048 40.5624 73.4048 39.7744V28.2318H76.1233C76.8511 28.2318 77.0224 27.5929 77.0224 26.954C77.0224 26.3151 76.8297 25.6762 76.1233 25.6762H67.8607Z" fill="#333333"/>
<path d="M76.1695 35.0679C76.1695 38.4328 77.4538 40.7967 81.0714 40.7967C84.689 40.7967 85.9733 38.4328 85.9733 35.0679C85.9733 31.7031 84.689 29.3392 81.0714 29.3392C77.4538 29.3392 76.1695 31.7031 76.1695 35.0679ZM83.212 35.0679C83.212 36.6439 82.9551 38.6031 81.0714 38.6031C79.2091 38.6031 78.9522 36.6439 78.9522 35.0679C78.9522 33.492 79.1663 31.5327 81.0714 31.5327C82.9979 31.5327 83.212 33.492 83.212 35.0679Z" fill="#333333"/>
<path d="M97.4322 29.3392C96.7472 29.3392 96.2977 29.5096 96.0194 30.042L93.4722 34.855L90.9249 30.042C90.6252 29.5096 90.1757 29.3392 89.5121 29.3392C88.7843 29.3392 88.1207 29.6373 88.1207 30.4466V39.7744C88.1207 40.5624 88.8057 40.7967 89.5335 40.7967C90.2399 40.7967 90.9463 40.5837 90.9463 39.7744V34.6633C91.0961 35.0679 91.2031 35.3874 91.4172 35.7707L92.4233 37.6448C92.6587 38.092 92.9798 38.2624 93.4722 38.2624C93.9645 38.2624 94.2856 38.092 94.521 37.6448L95.5271 35.7494C95.7412 35.3661 95.8482 35.0679 95.998 34.6633V39.7744C95.998 40.5837 96.683 40.7967 97.4108 40.7967C98.1172 40.7967 98.8236 40.5624 98.8236 39.7744V30.4466C98.8236 29.6373 98.1386 29.3392 97.4322 29.3392Z" fill="#333333"/>
<path d="M105.179 34.7485C104.922 35.1105 104.686 35.5152 104.472 35.9411V30.3614C104.472 29.5522 103.766 29.3392 103.038 29.3392C102.332 29.3392 101.604 29.5522 101.604 30.3614V39.7744C101.604 40.5837 102.267 40.7967 102.974 40.7967C103.402 40.7967 103.937 40.7115 104.194 40.3281L107.448 35.3874C107.683 35.004 107.919 34.5994 108.133 34.1735V39.7744C108.133 40.5837 108.839 40.7967 109.567 40.7967C110.273 40.7967 111.001 40.5837 111.001 39.7744V30.3614C111.001 29.5522 110.337 29.3392 109.631 29.3392C109.203 29.3392 108.668 29.4031 108.411 29.7864L105.179 34.7485Z" fill="#333333"/>
<path d="M122.503 31.6179C122.503 30.4679 122.075 29.5522 120.576 29.5522H116.467C114.968 29.5522 114.519 30.4679 114.454 31.6179L114.069 37.1763C114.026 37.73 113.919 38.305 113.277 38.4115C112.87 38.4754 112.485 38.8587 112.528 39.6467C112.592 40.4772 112.935 40.818 113.748 40.818C115.61 40.818 116.745 39.242 116.852 37.4957L117.216 32.2781C117.237 32.0225 117.323 31.8522 117.622 31.8522H119.249C119.528 31.8522 119.613 32.0225 119.613 32.2781V39.7744C119.613 40.5837 120.341 40.7967 121.047 40.7967C121.775 40.7967 122.503 40.5624 122.503 39.7744V31.6179Z" fill="#333333"/>
<path d="M128.863 34.7485C128.606 35.1105 128.371 35.5152 128.156 35.9411V30.3614C128.156 29.5522 127.45 29.3392 126.722 29.3392C126.016 29.3392 125.288 29.5522 125.288 30.3614V39.7744C125.288 40.5837 125.952 40.7967 126.658 40.7967C127.086 40.7967 127.621 40.7115 127.878 40.3281L131.132 35.3874C131.367 35.004 131.603 34.5994 131.817 34.1735V39.7744C131.817 40.5837 132.523 40.7967 133.251 40.7967C133.957 40.7967 134.685 40.5837 134.685 39.7744V30.3614C134.685 29.5522 134.022 29.3392 133.315 29.3392C132.887 29.3392 132.352 29.4031 132.095 29.7864L128.863 34.7485Z" fill="#333333"/>
<path d="M140.343 35.9198H143.811V39.7744C143.811 40.5837 144.539 40.7967 145.245 40.7967C145.973 40.7967 146.68 40.5837 146.68 39.7744V30.3614C146.68 29.5522 145.973 29.3392 145.245 29.3392C144.539 29.3392 143.811 29.5522 143.811 30.3614V33.6198H140.343V30.3614C140.343 29.5522 139.616 29.3392 138.909 29.3392C138.182 29.3392 137.475 29.5522 137.475 30.3614V39.7744C137.475 40.5837 138.182 40.7967 138.909 40.7967C139.616 40.7967 140.343 40.5837 140.343 39.7744V35.9198Z" fill="#333333"/>
<path d="M155.49 39.7105C155.811 40.392 156.175 40.6476 156.924 40.6476C157.609 40.6263 158.058 40.4133 157.994 39.6679C157.951 39.1568 157.908 38.7096 157.908 38.2411V33.3216C157.908 30.3614 155.832 29.254 153.392 29.254C152 29.254 150.78 29.5096 149.539 30.2549C148.897 30.6383 148.918 31.4475 149.325 31.9587C149.731 32.4272 150.181 32.4059 150.695 32.1929C151.701 31.767 152.172 31.5327 153.349 31.554C154.227 31.554 155.061 31.9799 155.04 33.4494C152.236 33.279 148.597 33.6624 148.597 37.3253C148.597 39.5189 150.331 40.818 152.279 40.818C153.863 40.818 154.762 40.3281 155.49 39.7105ZM155.04 35.5364C155.233 37.1124 154.483 38.5179 152.985 38.5179C152.086 38.5179 151.508 38.0494 151.487 37.3253C151.422 35.4513 153.841 35.4513 155.04 35.5364Z" fill="#333333"/>
<path d="M69.8433 51.8378C69.8433 51.0122 70.2535 50.5852 70.8215 50.5852C71.3926 50.5852 71.8028 51.0122 71.8028 51.8378V52.3965C71.8028 53.2222 71.3926 53.6208 70.8215 53.6208C70.2535 53.6208 69.8433 53.2222 69.8433 52.3965V51.8378ZM68.9756 52.3934C68.9756 53.602 69.6666 54.3272 70.8183 54.3272C71.97 54.3272 72.6673 53.602 72.6673 52.3934V51.844C72.6673 50.6323 71.9795 49.8789 70.8246 49.8789C69.6761 49.8789 68.9756 50.626 68.9756 51.844V52.3934Z" fill="#333333" fill-opacity="0.67"/>
<path d="M75.7132 50.6606H77.638V49.9605H74.8613V54.2455H76.5652C77.4928 54.2455 78.0198 53.6616 78.0198 52.8988C78.0198 52.1454 77.4865 51.5835 76.5588 51.5835H75.7132V50.6606ZM75.7101 53.5706V52.2364H76.4295C76.8807 52.2364 77.152 52.4813 77.152 52.9051C77.152 53.3258 76.8807 53.5706 76.4295 53.5706H75.7101Z" fill="#333333" fill-opacity="0.67"/>
<path d="M82.4288 49.9605L81.52 52.227H81.4853L80.5166 49.9605H79.5858L81.0783 53.1405C80.889 53.4639 80.687 53.5769 80.422 53.5769C80.2768 53.5769 80.1506 53.5518 80.1159 53.5455V54.2455C80.1443 54.255 80.3084 54.2926 80.5198 54.2926C81.2013 54.2926 81.5642 53.9096 81.9365 53.0683L83.3154 49.9605H82.4288Z" fill="#333333" fill-opacity="0.67"/>
<path d="M88.4533 54.2455V49.9605H87.6013V51.7687C87.5509 51.8032 87.2101 51.9759 86.7431 51.9759C86.2004 51.9759 85.9196 51.7028 85.9196 51.1597V49.9605H85.0676V51.2005C85.0676 52.1485 85.6166 52.6791 86.579 52.6791C87.1028 52.6791 87.4846 52.5158 87.5698 52.4719H87.6013V54.2455H88.4533Z" fill="#333333" fill-opacity="0.67"/>
<path d="M91.2752 54.2455L91.6159 53.1437H93.0516L93.3892 54.2455H94.2948L92.8591 49.9605H91.8589L90.4138 54.2455H91.2752ZM92.3574 50.7799L92.8812 52.5127H91.7926L92.3196 50.7799H92.3574Z" fill="#333333" fill-opacity="0.67"/>
<path d="M100.446 52.3965C100.446 53.2222 100.048 53.6208 99.4989 53.6208C98.9468 53.6208 98.5523 53.2222 98.5523 52.3965V51.8378C98.5523 51.0122 98.9468 50.5852 99.4989 50.5852C100.048 50.5852 100.446 51.0122 100.446 51.8378V52.3965ZM97.1104 51.7028V49.9605H96.2584V54.2455H97.1104V52.4091H97.7004C97.7067 53.6083 98.3757 54.3272 99.4958 54.3272C100.629 54.3272 101.313 53.602 101.313 52.3934V51.844C101.313 50.6323 100.635 49.8789 99.5021 49.8789C98.423 49.8789 97.7541 50.5695 97.7036 51.7028H97.1104Z" fill="#333333" fill-opacity="0.67"/>
<path d="M106.534 51.5207C106.506 52.9585 106.421 53.5392 105.973 53.5392C105.9 53.5392 105.834 53.5172 105.815 53.511V54.2455C105.849 54.2644 105.963 54.2926 106.111 54.2926C107.055 54.2926 107.263 53.5486 107.314 51.64L107.342 50.6668H108.604V54.2455H109.456V49.9605H106.559L106.534 51.5207Z" fill="#333333" fill-opacity="0.67"/>
<path d="M112.518 51.8378C112.518 51.0122 112.928 50.5852 113.496 50.5852C114.067 50.5852 114.477 51.0122 114.477 51.8378V52.3965C114.477 53.2222 114.067 53.6208 113.496 53.6208C112.928 53.6208 112.518 53.2222 112.518 52.3965V51.8378ZM111.65 52.3934C111.65 53.602 112.341 54.3272 113.493 54.3272C114.644 54.3272 115.342 53.602 115.342 52.3934V51.844C115.342 50.6323 114.654 49.8789 113.499 49.8789C112.35 49.8789 111.65 50.626 111.65 51.844V52.3934Z" fill="#333333" fill-opacity="0.67"/>
<path d="M118.388 54.2455V50.6606H120.268V49.9605H117.536V54.2455H118.388Z" fill="#333333" fill-opacity="0.67"/>
<path d="M122.989 51.8378C122.989 51.0122 123.399 50.5852 123.967 50.5852C124.538 50.5852 124.949 51.0122 124.949 51.8378V52.3965C124.949 53.2222 124.538 53.6208 123.967 53.6208C123.399 53.6208 122.989 53.2222 122.989 52.3965V51.8378ZM122.121 52.3934C122.121 53.602 122.812 54.3272 123.964 54.3272C125.116 54.3272 125.813 53.602 125.813 52.3934V51.844C125.813 50.6323 125.125 49.8789 123.97 49.8789C122.822 49.8789 122.121 50.626 122.121 51.844V52.3934Z" fill="#333333" fill-opacity="0.67"/>
<path d="M131.459 54.2455V49.9605H128.007V54.2455H128.859V50.6668H130.604V54.2455H131.459Z" fill="#333333" fill-opacity="0.67"/>
<path d="M136.6 53.5518H134.672V52.4028H136.483V51.753H134.672V50.6543H136.6V49.9605H133.826V54.2455H136.6V53.5518Z" fill="#333333" fill-opacity="0.67"/>
<path d="M141.416 53.5392H139.687V53.5047C139.936 53.1719 139.974 52.5818 140.009 51.6337L140.047 50.6668H141.416V53.5392ZM139.195 55.1434V54.2455H142.035V55.1434H142.795V53.5392H142.255V49.9605H139.28L139.229 51.5207C139.192 52.8015 139.144 53.2944 138.788 53.5392H138.434V55.1434H139.195Z" fill="#333333" fill-opacity="0.67"/>
<path d="M145.472 51.8378C145.472 51.0122 145.882 50.5852 146.45 50.5852C147.021 50.5852 147.431 51.0122 147.431 51.8378V52.3965C147.431 53.2222 147.021 53.6208 146.45 53.6208C145.882 53.6208 145.472 53.2222 145.472 52.3965V51.8378ZM144.604 52.3934C144.604 53.602 145.295 54.3272 146.447 54.3272C147.598 54.3272 148.296 53.602 148.296 52.3934V51.844C148.296 50.6323 147.608 49.8789 146.453 49.8789C145.304 49.8789 144.604 50.626 144.604 51.844V52.3934Z" fill="#333333" fill-opacity="0.67"/>
<path d="M150.49 54.2455H152.282C153.156 54.2455 153.781 53.8029 153.781 53.0369C153.781 52.3934 153.339 52.0418 152.821 51.9916V51.9539C153.247 51.8503 153.56 51.5364 153.56 51.0153C153.56 50.3592 153.055 49.9605 152.285 49.9605H150.49V54.2455ZM151.335 50.5978H152.089C152.487 50.5978 152.72 50.8112 152.72 51.1597C152.72 51.5333 152.468 51.7436 151.897 51.7436H151.335V50.5978ZM151.335 52.3338H152.143C152.642 52.3338 152.913 52.5818 152.913 52.9867C152.913 53.3948 152.638 53.6083 151.966 53.6083H151.335V52.3338Z" fill="#333333" fill-opacity="0.67"/>
</svg>
