<svg width="158" height="56" viewBox="0 0 158 56" fill="none" xmlns="http://www.w3.org/2000/svg">
<path fill-rule="evenodd" clip-rule="evenodd" d="M53.2114 34.9112C49.6343 35.0896 45.2602 33.7202 42.5341 32.3123C38.8916 30.4308 37.6175 29.1249 35.0222 26.4724C36.139 23.5423 37.5188 20.7151 39.1721 17.9279C39.8948 16.7096 43.6032 11.2985 44.6571 10.8157C45.5524 11.3964 48.4412 14.7262 49.2993 15.7253C50.6658 17.3163 52.2998 19.4228 53.402 21.2024C56.9781 26.9762 56.8619 29.3554 53.2115 34.9112H53.2114Z" fill="#274792"/>
<path fill-rule="evenodd" clip-rule="evenodd" d="M24.2605 32.0844C24.2636 33.1936 24.003 36.7754 23.5514 37.5355C20.7461 36.7167 14.5949 32.1443 12.278 30.121C10.5606 28.6214 9.10082 27.1134 7.59672 25.3564C6.21597 23.7435 3.93309 20.3565 3.57373 19.9692C3.82075 19.4351 4.08799 19.1052 4.41832 18.6869L7.27026 15.1518C7.96614 14.3397 8.5568 13.7229 9.2685 12.9332C9.68225 12.474 11.0754 10.9918 11.4703 10.7737C12.8224 11.2941 15.1861 13.1578 16.422 14.2559C17.8765 15.5482 19.1467 17.1208 20.3524 18.8965C22.7351 22.405 24.2466 27.1719 24.2605 32.0845V32.0844Z" fill="#83603E"/>
<path fill-rule="evenodd" clip-rule="evenodd" d="M28.767 39.7085C28.249 39.7098 26.2925 38.8882 25.8638 38.6202C25.9996 38.1236 26.1149 37.609 26.2125 37.0811C28.0455 27.1642 24.3582 17.075 16.0782 10.8315L13.4014 9.04243C13.6601 8.1551 18.9786 4.21485 20.0094 3.49165C22.8054 1.52982 25.4274 -0.0116203 28.883 6.60091e-05C28.8316 0.721485 27.7802 3.21087 27.4195 4.91414C25.9205 11.9926 27.1471 19.3918 31.1343 25.2661C32.6679 27.5256 32.2597 26.5899 31.3154 29.656C30.2728 33.0411 29.4419 36.2435 28.767 39.7085Z" fill="#E3C655"/>
<path fill-rule="evenodd" clip-rule="evenodd" d="M16.5644 49.5941C14.2884 48.4508 6.58337 40.0666 4.74727 37.6159C2.92195 35.1798 -0.00272292 31.043 1.9026e-06 27.8817C0.00125951 26.3604 1.22753 23.0709 2.16948 22.2249L5.02069 26.0425C9.28472 31.3192 15.9236 36.7511 22.0338 39.5395C22.9365 39.9515 23.1439 39.6254 22.2409 41.6534C21.5337 43.2417 20.8006 44.5744 19.7688 46.0032C19.3018 46.6498 18.7726 47.3368 18.3081 47.8756C17.9939 48.24 16.9812 49.3499 16.5645 49.5941H16.5644Z" fill="#274792"/>
<path fill-rule="evenodd" clip-rule="evenodd" d="M42.8205 9.1329C41.1823 10.5957 38.7221 14.1377 37.5315 16.0013C36.6693 17.3509 35.989 18.5922 35.3142 19.887C34.9111 20.6604 33.622 23.6854 33.3036 24.0609C32.5871 23.7229 30.7054 19.2192 30.4431 18.419C28.845 13.5449 28.8422 10.143 29.8251 5.33726C30.0037 4.46382 30.7849 1.67727 31.4114 0.869873C34.2674 1.71254 39.5289 6.04293 42.1426 8.3566C42.2481 8.44999 42.3351 8.51385 42.4441 8.63039C42.4679 8.65585 42.4965 8.68434 42.5199 8.71168L42.8205 9.1329Z" fill="#F2590D"/>
<path fill-rule="evenodd" clip-rule="evenodd" d="M51.3897 37.2009C51.2036 38.5649 47.184 42.0432 46.6131 43.2658C46.5978 43.2986 46.5832 43.3394 46.568 43.3719C46.5523 43.4055 46.5322 43.4489 46.5175 43.4797L46.4036 43.6976C43.7806 43.5229 32.536 41.6487 31.1282 40.4899C31.3515 38.5965 32.5461 33.8435 33.1752 31.7946C33.3638 31.1804 33.7761 29.6248 34.0314 29.1155L37.3751 31.946C41.1917 34.7939 46.376 37.0176 51.3898 37.2008L51.3897 37.2009Z" fill="#8AC245"/>
<path fill-rule="evenodd" clip-rule="evenodd" d="M46.9137 46.1959C47.3222 47.173 47.7733 51.1751 47.8997 52.4471C47.082 52.2115 45.5605 50.9159 43.4117 50.1268C40.9454 49.221 39.9732 49.2999 38.19 50.7153C36.2786 52.2324 31.9954 55.2214 29.4635 55.5981C29.3418 53.393 30.1294 44.9253 30.6831 43.1021C30.7601 43.1053 40.5414 45.8066 46.9136 46.196L46.9137 46.1959Z" fill="#83603E"/>
<path fill-rule="evenodd" clip-rule="evenodd" d="M28.2312 42.2292C28.3449 43.2984 27.6135 47.3189 27.4815 48.7459C27.2726 51.0038 27.0377 53.4329 26.9635 55.6513C25.3359 55.4895 23.5674 54.4736 22.4122 53.7978C21.3037 53.1496 19.2477 51.9208 18.5908 51.2142C18.7772 50.7944 20.0218 49.5878 20.4842 49.0269C24.104 44.6366 24.2022 42.4541 25.1522 41.0662C25.5694 41.1094 27.8827 41.9997 28.2311 42.2293L28.2312 42.2292Z" fill="#F2590D"/>
<path d="M67.3898 11.8335C67.3898 16.3483 68.9096 19.5215 73.362 19.5215C76.8297 19.5215 78.3923 17.2641 78.8204 14.9641C78.9917 14.0696 78.4565 13.7076 77.4505 13.7076C76.5942 13.7289 76.1233 13.9844 75.9307 14.6233C75.5668 15.9011 75.053 17.0085 73.362 17.0085C70.7077 17.0298 70.3224 14.1335 70.3224 11.8335C70.3224 9.5122 70.6649 6.63719 73.362 6.63719C75.0102 6.63719 75.5668 7.46775 75.8879 9.00109C76.0591 9.76776 76.5942 9.93813 77.4077 9.91683C78.1569 9.91683 78.8418 9.55479 78.7776 8.8946C78.4994 6.21126 76.9367 4.14551 73.4904 4.14551C68.9524 4.14551 67.3898 7.29737 67.3898 11.8335Z" fill="white"/>
<path d="M80.7834 17.2002C80.7834 18.3502 81.2115 19.2872 82.6885 19.2872H85.9422C88.3824 19.2872 90.0307 18.1585 90.0307 15.7946C90.0307 15.028 89.9451 13.8567 88.5751 13.2817C89.3457 12.9622 89.7524 11.8974 89.7524 11.2585C89.7524 9.06498 88.147 8.25571 86.0492 8.25571H82.6885C81.2115 8.25571 80.7834 9.17146 80.7834 10.3215V17.2002ZM86.884 11.4076C86.884 12.0891 86.3703 12.3446 85.8566 12.3446H83.6518V10.8752C83.6518 10.6196 83.7588 10.4492 84.0371 10.4492H85.5997C86.1991 10.4492 86.884 10.5557 86.884 11.4076ZM83.6518 14.5381H85.8994C86.4987 14.5381 87.1623 14.9641 87.1623 15.7946C87.1623 16.6465 86.4987 17.0724 85.8994 17.0724H83.9086C83.716 17.0724 83.6518 16.8595 83.6518 16.6678V14.5381Z" fill="white"/>
<path d="M96.6285 10.1724C97.6132 10.1724 98.3195 10.79 98.4052 11.9187C98.4266 12.2594 98.2339 12.3872 98.0199 12.3872H94.5093C94.6592 11.0455 95.387 10.1724 96.6285 10.1724ZM100.803 16.7743C100.952 16.3483 100.867 15.7307 99.925 15.6243C99.1116 15.5391 98.5764 15.7094 98.3624 16.1141C97.9771 16.8382 97.5489 17.2428 96.6499 17.2428C94.8946 17.2641 94.4665 15.7733 94.4237 14.3678H99.1544C100.46 14.3678 101.081 13.9631 101.102 12.5363C101.124 9.83165 99.4326 7.97886 96.5001 7.97886C92.8825 7.97886 91.5339 10.7048 91.5339 13.7076C91.5553 16.8169 93.0323 19.5641 96.5857 19.5854C98.6406 19.5854 100.246 18.5845 100.803 16.7743Z" fill="white"/>
<path d="M104.234 10.5557V18.478C104.234 19.2872 104.94 19.5002 105.668 19.5002C106.375 19.5002 107.102 19.2872 107.102 18.478V10.5557H108.772C109.585 10.5557 109.8 9.98072 109.8 9.40572C109.8 8.83071 109.585 8.25571 108.772 8.25571H102.564C101.751 8.25571 101.537 8.83071 101.537 9.40572C101.537 9.98072 101.751 10.5557 102.564 10.5557H104.234Z" fill="white"/>
<path d="M119.576 10.3215C119.576 9.17146 119.148 8.25571 117.65 8.25571H113.54C112.042 8.25571 111.592 9.17146 111.528 10.3215L111.143 15.8798C111.1 16.4335 110.993 17.0085 110.351 17.115C109.944 17.1789 109.559 17.5622 109.601 18.3502C109.666 19.1808 110.008 19.5215 110.821 19.5215C112.684 19.5215 113.818 17.9456 113.925 16.1993L114.289 10.9817C114.311 10.7261 114.396 10.5557 114.696 10.5557H116.323C116.601 10.5557 116.687 10.7261 116.687 10.9817V18.478C116.687 19.2872 117.414 19.5002 118.121 19.5002C118.849 19.5002 119.576 19.2659 119.576 18.478V10.3215Z" fill="white"/>
<path d="M128.398 18.4141C128.719 19.0956 129.083 19.3511 129.832 19.3511C130.517 19.3298 130.967 19.1169 130.902 18.3715C130.86 17.8604 130.817 17.4132 130.817 16.9446V12.0252C130.817 9.06497 128.74 7.95756 126.3 7.95756C124.909 7.95756 123.689 8.21312 122.447 8.95849C121.805 9.34183 121.826 10.1511 122.233 10.6622C122.64 11.1307 123.089 11.1094 123.603 10.8965C124.609 10.4705 125.08 10.2363 126.257 10.2576C127.135 10.2576 127.97 10.6835 127.948 12.153C125.144 11.9826 121.505 12.3659 121.505 16.0289C121.505 18.2224 123.239 19.5215 125.187 19.5215C126.771 19.5215 127.67 19.0317 128.398 18.4141ZM127.948 14.24C128.141 15.8159 127.392 17.2215 125.893 17.2215C124.994 17.2215 124.416 16.753 124.395 16.0289C124.331 14.1548 126.75 14.1548 127.948 14.24Z" fill="white"/>
<path d="M136.351 14.6233H139.819V18.478C139.819 19.2872 140.546 19.5002 141.253 19.5002C141.981 19.5002 142.687 19.2872 142.687 18.478V9.06497C142.687 8.25571 141.981 8.04275 141.253 8.04275C140.546 8.04275 139.819 8.25571 139.819 9.06497V12.3233H136.351V9.06497C136.351 8.25571 135.623 8.04275 134.917 8.04275C134.189 8.04275 133.482 8.25571 133.482 9.06497V18.478C133.482 19.2872 134.189 19.5002 134.917 19.5002C135.623 19.5002 136.351 19.2872 136.351 18.478V14.6233Z" fill="white"/>
<path d="M151.497 18.4141C151.818 19.0956 152.182 19.3511 152.931 19.3511C153.616 19.3298 154.066 19.1169 154.001 18.3715C153.959 17.8604 153.916 17.4132 153.916 16.9446V12.0252C153.916 9.06497 151.839 7.95756 149.399 7.95756C148.008 7.95756 146.788 8.21312 145.546 8.95849C144.904 9.34183 144.925 10.1511 145.332 10.6622C145.739 11.1307 146.188 11.1094 146.702 10.8965C147.708 10.4705 148.179 10.2363 149.356 10.2576C150.234 10.2576 151.069 10.6835 151.047 12.153C148.243 11.9826 144.604 12.3659 144.604 16.0289C144.604 18.2224 146.338 19.5215 148.286 19.5215C149.87 19.5215 150.769 19.0317 151.497 18.4141ZM151.047 14.24C151.24 15.8159 150.491 17.2215 148.992 17.2215C148.093 17.2215 147.515 16.753 147.494 16.0289C147.43 14.1548 149.849 14.1548 151.047 14.24Z" fill="white"/>
<path d="M67.8607 25.6762C67.1543 25.6762 66.9617 26.3151 66.9617 26.9539C66.9617 27.5928 67.1329 28.2317 67.8607 28.2317H70.5792V39.7744C70.5792 40.5623 71.3712 40.7753 71.992 40.7753C72.6984 40.7753 73.4048 40.5623 73.4048 39.7744V28.2317H76.1233C76.8511 28.2317 77.0224 27.5928 77.0224 26.9539C77.0224 26.3151 76.8297 25.6762 76.1233 25.6762H67.8607Z" fill="white"/>
<path d="M76.1695 35.0679C76.1695 38.4327 77.4538 40.7966 81.0714 40.7966C84.689 40.7966 85.9733 38.4327 85.9733 35.0679C85.9733 31.703 84.689 29.3391 81.0714 29.3391C77.4538 29.3391 76.1695 31.703 76.1695 35.0679ZM83.212 35.0679C83.212 36.6438 82.9551 38.6031 81.0714 38.6031C79.2091 38.6031 78.9522 36.6438 78.9522 35.0679C78.9522 33.4919 79.1663 31.5327 81.0714 31.5327C82.9979 31.5327 83.212 33.4919 83.212 35.0679Z" fill="white"/>
<path d="M97.4322 29.3391C96.7472 29.3391 96.2977 29.5095 96.0194 30.0419L93.4722 34.8549L90.9249 30.0419C90.6252 29.5095 90.1757 29.3391 89.5121 29.3391C88.7843 29.3391 88.1207 29.6373 88.1207 30.4466V39.7744C88.1207 40.5623 88.8057 40.7966 89.5335 40.7966C90.2399 40.7966 90.9463 40.5836 90.9463 39.7744V34.6632C91.0961 35.0679 91.2031 35.3873 91.4172 35.7707L92.4233 37.6447C92.6587 38.092 92.9798 38.2623 93.4722 38.2623C93.9645 38.2623 94.2856 38.092 94.521 37.6447L95.5271 35.7494C95.7412 35.366 95.8482 35.0679 95.998 34.6632V39.7744C95.998 40.5836 96.683 40.7966 97.4108 40.7966C98.1172 40.7966 98.8236 40.5623 98.8236 39.7744V30.4466C98.8236 29.6373 98.1386 29.3391 97.4322 29.3391Z" fill="white"/>
<path d="M105.179 34.7484C104.922 35.1105 104.686 35.5151 104.472 35.941V30.3614C104.472 29.5521 103.766 29.3391 103.038 29.3391C102.332 29.3391 101.604 29.5521 101.604 30.3614V39.7744C101.604 40.5836 102.267 40.7966 102.974 40.7966C103.402 40.7966 103.937 40.7114 104.194 40.3281L107.448 35.3873C107.683 35.004 107.919 34.5994 108.133 34.1734V39.7744C108.133 40.5836 108.839 40.7966 109.567 40.7966C110.273 40.7966 111.001 40.5836 111.001 39.7744V30.3614C111.001 29.5521 110.337 29.3391 109.631 29.3391C109.203 29.3391 108.668 29.403 108.411 29.7864L105.179 34.7484Z" fill="white"/>
<path d="M122.503 31.6179C122.503 30.4679 122.075 29.5521 120.576 29.5521H116.467C114.968 29.5521 114.519 30.4679 114.454 31.6179L114.069 37.1762C114.026 37.7299 113.919 38.3049 113.277 38.4114C112.87 38.4753 112.485 38.8586 112.528 39.6466C112.592 40.4772 112.935 40.8179 113.748 40.8179C115.61 40.8179 116.745 39.242 116.852 37.4957L117.216 32.278C117.237 32.0225 117.323 31.8521 117.622 31.8521H119.249C119.528 31.8521 119.613 32.0225 119.613 32.278V39.7744C119.613 40.5836 120.341 40.7966 121.047 40.7966C121.775 40.7966 122.503 40.5623 122.503 39.7744V31.6179Z" fill="white"/>
<path d="M128.863 34.7484C128.606 35.1105 128.371 35.5151 128.156 35.941V30.3614C128.156 29.5521 127.45 29.3391 126.722 29.3391C126.016 29.3391 125.288 29.5521 125.288 30.3614V39.7744C125.288 40.5836 125.952 40.7966 126.658 40.7966C127.086 40.7966 127.621 40.7114 127.878 40.3281L131.132 35.3873C131.367 35.004 131.603 34.5994 131.817 34.1734V39.7744C131.817 40.5836 132.523 40.7966 133.251 40.7966C133.957 40.7966 134.685 40.5836 134.685 39.7744V30.3614C134.685 29.5521 134.022 29.3391 133.315 29.3391C132.887 29.3391 132.352 29.403 132.095 29.7864L128.863 34.7484Z" fill="white"/>
<path d="M140.343 35.9197H143.811V39.7744C143.811 40.5836 144.539 40.7966 145.245 40.7966C145.973 40.7966 146.68 40.5836 146.68 39.7744V30.3614C146.68 29.5521 145.973 29.3391 145.245 29.3391C144.539 29.3391 143.811 29.5521 143.811 30.3614V33.6197H140.343V30.3614C140.343 29.5521 139.616 29.3391 138.909 29.3391C138.182 29.3391 137.475 29.5521 137.475 30.3614V39.7744C137.475 40.5836 138.182 40.7966 138.909 40.7966C139.616 40.7966 140.343 40.5836 140.343 39.7744V35.9197Z" fill="white"/>
<path d="M155.49 39.7105C155.811 40.392 156.175 40.6475 156.924 40.6475C157.609 40.6262 158.058 40.4133 157.994 39.6679C157.951 39.1568 157.908 38.7096 157.908 38.241V33.3216C157.908 30.3614 155.832 29.254 153.392 29.254C152 29.254 150.78 29.5095 149.539 30.2549C148.897 30.6382 148.918 31.4475 149.325 31.9586C149.731 32.4271 150.181 32.4058 150.695 32.1929C151.701 31.7669 152.172 31.5327 153.349 31.554C154.227 31.554 155.061 31.9799 155.04 33.4493C152.236 33.279 148.597 33.6623 148.597 37.3253C148.597 39.5188 150.331 40.8179 152.279 40.8179C153.863 40.8179 154.762 40.3281 155.49 39.7105ZM155.04 35.5364C155.233 37.1123 154.483 38.5179 152.985 38.5179C152.086 38.5179 151.508 38.0494 151.487 37.3253C151.422 35.4512 153.841 35.4512 155.04 35.5364Z" fill="white"/>
<path d="M69.8433 51.8378C69.8433 51.0122 70.2535 50.5852 70.8215 50.5852C71.3926 50.5852 71.8028 51.0122 71.8028 51.8378V52.3966C71.8028 53.2222 71.3926 53.6208 70.8215 53.6208C70.2535 53.6208 69.8433 53.2222 69.8433 52.3966V51.8378ZM68.9756 52.3934C68.9756 53.602 69.6666 54.3272 70.8183 54.3272C71.97 54.3272 72.6673 53.602 72.6673 52.3934V51.8441C72.6673 50.6323 71.9795 49.8789 70.8246 49.8789C69.6761 49.8789 68.9756 50.626 68.9756 51.8441V52.3934Z" fill="white" fill-opacity="0.67"/>
<path d="M75.7132 50.6606H77.638V49.9605H74.8613V54.2455H76.5652C77.4928 54.2455 78.0198 53.6617 78.0198 52.8988C78.0198 52.1454 77.4865 51.5835 76.5588 51.5835H75.7132V50.6606ZM75.7101 53.5706V52.2365H76.4295C76.8807 52.2365 77.152 52.4813 77.152 52.9051C77.152 53.3258 76.8807 53.5706 76.4295 53.5706H75.7101Z" fill="white" fill-opacity="0.67"/>
<path d="M82.4288 49.9605L81.52 52.227H81.4853L80.5166 49.9605H79.5858L81.0783 53.1405C80.889 53.4639 80.687 53.5769 80.422 53.5769C80.2768 53.5769 80.1506 53.5518 80.1159 53.5455V54.2455C80.1443 54.255 80.3084 54.2926 80.5198 54.2926C81.2013 54.2926 81.5642 53.9097 81.9365 53.0683L83.3154 49.9605H82.4288Z" fill="white" fill-opacity="0.67"/>
<path d="M88.4533 54.2455V49.9605H87.6013V51.7687C87.5509 51.8032 87.2101 51.9759 86.7431 51.9759C86.2004 51.9759 85.9196 51.7028 85.9196 51.1597V49.9605H85.0676V51.2005C85.0676 52.1486 85.6166 52.6791 86.579 52.6791C87.1028 52.6791 87.4846 52.5158 87.5698 52.4719H87.6013V54.2455H88.4533Z" fill="white" fill-opacity="0.67"/>
<path d="M91.2752 54.2455L91.6159 53.1437H93.0516L93.3892 54.2455H94.2948L92.8591 49.9605H91.8589L90.4138 54.2455H91.2752ZM92.3574 50.7799L92.8812 52.5127H91.7926L92.3196 50.7799H92.3574Z" fill="white" fill-opacity="0.67"/>
<path d="M100.446 52.3966C100.446 53.2222 100.048 53.6208 99.4989 53.6208C98.9468 53.6208 98.5523 53.2222 98.5523 52.3966V51.8378C98.5523 51.0122 98.9468 50.5852 99.4989 50.5852C100.048 50.5852 100.446 51.0122 100.446 51.8378V52.3966ZM97.1104 51.7028V49.9605H96.2584V54.2455H97.1104V52.4091H97.7004C97.7067 53.6083 98.3757 54.3272 99.4958 54.3272C100.629 54.3272 101.313 53.602 101.313 52.3934V51.8441C101.313 50.6323 100.635 49.8789 99.5021 49.8789C98.423 49.8789 97.7541 50.5695 97.7036 51.7028H97.1104Z" fill="white" fill-opacity="0.67"/>
<path d="M106.534 51.5207C106.506 52.9585 106.421 53.5392 105.973 53.5392C105.9 53.5392 105.834 53.5172 105.815 53.511V54.2455C105.849 54.2644 105.963 54.2926 106.111 54.2926C107.055 54.2926 107.263 53.5486 107.314 51.64L107.342 50.6668H108.604V54.2455H109.456V49.9605H106.559L106.534 51.5207Z" fill="white" fill-opacity="0.67"/>
<path d="M112.518 51.8378C112.518 51.0122 112.928 50.5852 113.496 50.5852C114.067 50.5852 114.477 51.0122 114.477 51.8378V52.3966C114.477 53.2222 114.067 53.6208 113.496 53.6208C112.928 53.6208 112.518 53.2222 112.518 52.3966V51.8378ZM111.65 52.3934C111.65 53.602 112.341 54.3272 113.493 54.3272C114.644 54.3272 115.342 53.602 115.342 52.3934V51.8441C115.342 50.6323 114.654 49.8789 113.499 49.8789C112.35 49.8789 111.65 50.626 111.65 51.8441V52.3934Z" fill="white" fill-opacity="0.67"/>
<path d="M118.388 54.2455V50.6606H120.268V49.9605H117.536V54.2455H118.388Z" fill="white" fill-opacity="0.67"/>
<path d="M122.989 51.8378C122.989 51.0122 123.399 50.5852 123.967 50.5852C124.538 50.5852 124.949 51.0122 124.949 51.8378V52.3966C124.949 53.2222 124.538 53.6208 123.967 53.6208C123.399 53.6208 122.989 53.2222 122.989 52.3966V51.8378ZM122.121 52.3934C122.121 53.602 122.812 54.3272 123.964 54.3272C125.116 54.3272 125.813 53.602 125.813 52.3934V51.8441C125.813 50.6323 125.125 49.8789 123.97 49.8789C122.822 49.8789 122.121 50.626 122.121 51.8441V52.3934Z" fill="white" fill-opacity="0.67"/>
<path d="M131.459 54.2455V49.9605H128.007V54.2455H128.859V50.6668H130.604V54.2455H131.459Z" fill="white" fill-opacity="0.67"/>
<path d="M136.6 53.5518H134.672V52.4028H136.483V51.753H134.672V50.6543H136.6V49.9605H133.826V54.2455H136.6V53.5518Z" fill="white" fill-opacity="0.67"/>
<path d="M141.416 53.5392H139.687V53.5047C139.936 53.1719 139.974 52.5818 140.009 51.6337L140.047 50.6668H141.416V53.5392ZM139.195 55.1434V54.2455H142.035V55.1434H142.795V53.5392H142.255V49.9605H139.28L139.229 51.5207C139.192 52.8015 139.144 53.2944 138.788 53.5392H138.434V55.1434H139.195Z" fill="white" fill-opacity="0.67"/>
<path d="M145.472 51.8378C145.472 51.0122 145.882 50.5852 146.45 50.5852C147.021 50.5852 147.431 51.0122 147.431 51.8378V52.3966C147.431 53.2222 147.021 53.6208 146.45 53.6208C145.882 53.6208 145.472 53.2222 145.472 52.3966V51.8378ZM144.604 52.3934C144.604 53.602 145.295 54.3272 146.447 54.3272C147.598 54.3272 148.296 53.602 148.296 52.3934V51.8441C148.296 50.6323 147.608 49.8789 146.453 49.8789C145.304 49.8789 144.604 50.626 144.604 51.8441V52.3934Z" fill="white" fill-opacity="0.67"/>
<path d="M150.49 54.2455H152.282C153.156 54.2455 153.781 53.8029 153.781 53.037C153.781 52.3934 153.339 52.0418 152.821 51.9916V51.9539C153.247 51.8503 153.56 51.5364 153.56 51.0153C153.56 50.3592 153.055 49.9605 152.285 49.9605H150.49V54.2455ZM151.335 50.5978H152.089C152.487 50.5978 152.72 50.8113 152.72 51.1597C152.72 51.5333 152.468 51.7436 151.897 51.7436H151.335V50.5978ZM151.335 52.3338H152.143C152.642 52.3338 152.913 52.5818 152.913 52.9867C152.913 53.3948 152.638 53.6083 151.966 53.6083H151.335V52.3338Z" fill="white" fill-opacity="0.67"/>
</svg>
