<svg width="100" height="86" viewBox="0 0 100 86" fill="none" xmlns="http://www.w3.org/2000/svg">
<path d="M90.2622 70.8017L65.1685 86C57.9276 78.0919 54.3071 67.9598 54.3071 55.6034C54.3071 30.3965 64.9189 11.8621 86.1423 0L100 13.3448C88.2647 21.2529 82.397 33.115 82.397 48.931C82.397 58.3218 85.0187 65.6121 90.2622 70.8017ZM35.9551 70.8017L10.8614 86C3.62047 78.0919 0 67.9598 0 55.6034C0 30.3965 10.6117 11.8621 31.8352 0L45.6929 13.3448C33.9576 21.2529 28.0899 33.115 28.0899 48.931C28.0899 58.3218 30.7116 65.6121 35.9551 70.8017Z" fill="#333333" fill-opacity="0.05"/>
</svg>
