<svg width="141" height="127" viewBox="0 0 141 127" fill="none" xmlns="http://www.w3.org/2000/svg">
<path d="M130.458 67.5623C113.775 82.815 121 98.1266 133.336 126.512C128.878 126.512 128.878 126.512 125.347 121.389C111.543 92.2965 105.728 77.7504 93.3924 87.173C81.1156 96.6544 130.458 67.5623 130.458 67.5623Z" fill="#E0E0E0"/>
<path d="M139.645 48.0523C137.583 38.9966 125.569 29.2354 109.431 20.9441C111.846 34.2924 119.502 56.1083 111.551 60.5773C100.832 66.634 110.491 36.1741 106.368 19.4153C91.232 12.0061 72.974 6.00819 56.1885 3.00924C56.1885 3.06805 56.2475 3.12681 56.2475 3.18561C65.7298 27.1772 78.098 36.5857 72.974 40.2315C69.1457 42.9364 56.6597 15.299 40.1687 1.06872C27.8005 0.421887 17.3169 2.06835 11.1328 7.0078C1.59157 14.5934 -4.88692 21.2969 4.77209 44.2889C10.2495 48.2287 17.3759 51.0512 25.6803 51.8745C47.5309 54.0502 57.7199 54.7558 42.4068 62.0474C34.927 65.5756 22.382 61.871 12.1929 59.5776C15.4911 65.6344 19.5551 72.5143 24.5024 80.3351C27.6239 85.2746 31.0987 89.626 34.7503 93.3306C41.759 94.683 47.943 94.683 51.1823 93.3306C61.3714 88.9791 87.5804 75.1604 94.1179 80.9819C100.538 86.6858 45.5872 90.2728 49.4155 104.738C76.0366 120.027 106.486 112.794 111.905 98.6816C119.09 79.6883 145.77 75.278 139.645 48.0523Z" fill="#EDEDED"/>
<path d="M16.5376 20.8743C68.3995 34.8322 106.416 68.3075 113.514 76.4102C120.613 84.5129 120.613 86.8196 120.613 86.8196L115.157 97.2288L112.576 95.9276C112.576 95.9276 116.741 87.1744 105.829 75.8188C86.9383 56.2422 63.9407 40.7466 48.1592 33.945C32.3777 27.1435 16.5376 20.8743 16.5376 20.8743Z" fill="#E0E0E0"/>
</svg>
