<svg width="179" height="234" viewBox="0 0 179 234" fill="none" xmlns="http://www.w3.org/2000/svg">
<path d="M46.7632 31.0095C5.89542 31.0095 -7.42395 93.6065 3.82709 129.972C15.0781 166.337 30.3829 234 30.3829 234L40.6411 223.867C40.6411 223.867 1.84177 128.991 11.0246 86.5787C20.2074 44.1663 42.7095 37.1385 46.7632 37.1385C50.8996 37.0568 46.7632 31.0095 46.7632 31.0095Z" fill="#E0E0E0"/>
<path d="M55.358 73.9561C47.2614 56.8545 68.5251 52.8642 67.462 65.8939C66.5623 77.4578 66.4805 105.635 78.4209 113.29C99.0303 111.091 127 102.784 148.182 90.2433C148.428 88.5331 148.182 86.823 147.283 85.0314C138.205 66.9526 79.5658 51.8055 97.8035 45.7793C112.279 40.9746 137.632 69.3143 158.16 83.647C170.427 74.3633 178.688 63.2879 178.688 50.9911C178.688 34.2967 158.323 15.3222 131.907 6.28284C120.049 7.50438 109.008 13.9378 91.7516 23.6286C66.3169 37.9614 72.2054 14.7522 96.2497 0.989502C75.4767 2.04817 54.7854 10.9247 39.4918 32.0166C39.4918 32.0166 40.9639 41.0559 31.3135 54.9815C5.14278 93.0935 35.321 115.244 71.4693 113.86C69.4247 103.843 60.9192 85.7643 55.358 73.9561Z" fill="#EDEDED"/>
</svg>
