<svg width="138" height="130" viewBox="0 0 138 130" fill="none" xmlns="http://www.w3.org/2000/svg">
<path d="M80.1584 8.82267C106.299 -2.55885 132.32 33.6164 135.29 59.9204C138.261 86.2244 137.994 89.4949 137.994 89.4949V130C137.994 130 136.286 58.7427 118.555 34.2764C100.823 9.81007 84.4649 11.5989 81.872 12.7278C79.2033 13.8277 80.1584 8.82267 80.1584 8.82267Z" fill="#E0E0E0"/>
<path d="M86.6682 38.5802C87.0659 25.4288 72.3489 28.8081 76.6719 36.8142C80.4804 43.9317 88.4105 61.8622 82.913 70.0651C69.1155 74.4038 48.9022 76.9007 31.8469 74.809C31.2118 73.7877 30.8907 72.6297 30.9652 71.2376C31.7174 57.1903 64.9908 31.2084 51.6402 32.4478C41.0376 33.4178 32.7439 58.5356 23.6205 73.3848C13.1781 70.886 4.79796 66.1296 1.35999 58.2945C-3.30745 47.6574 4.4136 29.8962 18.7834 16.7798C26.7102 14.2555 35.571 15.2799 49.3184 16.6487C69.5949 18.6976 59.3395 5.54941 40.1117 3.47657C53.6951 -1.63409 69.4121 -1.74075 85.0915 7.4391C85.0915 7.4391 86.6771 13.6086 96.7433 19.7939C124.139 36.7891 111.028 59.3073 87.519 68.4923C86.0263 61.5407 86.4123 47.6528 86.6682 38.5802Z" fill="#EDEDED"/>
</svg>
