<svg width="275" height="173" viewBox="0 0 275 173" fill="none" xmlns="http://www.w3.org/2000/svg">
<path d="M39.5936 58.4538C55.0172 93.74 38.889 108.165 1.3825e-09 143.805C-2.37781e-08 147.796 3.02578e-07 147.796 2.75659e-07 152.784C41.6668 117.06 71.0654 91.4277 83.7562 114.631C96.3146 137.885 39.5936 58.4538 39.5936 58.4538Z" fill="#E0E0E0"/>
<path d="M38.8015 21.7301C48.2883 9.06278 73.7726 2.18679 104.662 0.4524C91.65 19.5561 64.6036 48.2105 73.8953 60.6695C86.3999 77.5155 92.4566 23.4223 110.493 0.192721C139.211 -0.861894 171.815 2.44064 200.046 9.39149C200.006 9.48301 199.873 9.53366 199.832 9.62518C168.433 40.402 142.643 46.4844 148.101 55.7053C152.191 62.565 190.796 28.193 226.351 17.4597C246.071 25.0139 261.264 34.8328 267.477 46.801C277.087 65.2112 282.536 80.1287 251.554 109.227C240.29 111.568 227.231 111.028 213.721 106.562C178.168 94.8235 161.804 88.8693 180.61 110.817C189.82 121.486 211.933 124.403 229.398 127.886C220.062 135.03 208.963 142.925 195.835 151.673C187.549 157.2 179.119 161.567 170.863 164.805C159.006 162.059 149.37 157.779 145.26 153.432C132.4 139.607 101.139 99.9582 86.9191 104.494C72.9642 108.928 156.097 152.545 140.108 172.41C88.036 177.778 45.6045 145.445 46.9411 119.73C48.9066 85.1954 10.3923 59.8642 38.8015 21.7301Z" fill="#EDEDED"/>
<path d="M249.45 64.6431C158.973 50.4699 76.5434 76.2568 59.8683 83.9542C43.1932 91.6516 41.5947 95.2416 41.5947 95.2416L42.8829 115.219L47.8065 114.981C47.8065 114.981 47.3818 98.4739 72.2526 88.3533C115.252 70.9602 161.822 62.7612 191.124 63.0988C220.426 63.4365 249.45 64.6431 249.45 64.6431Z" fill="#E0E0E0"/>
</svg>
