<svg width="13" height="13" viewBox="0 0 13 13" fill="none" xmlns="http://www.w3.org/2000/svg">
<path d="M5.59766 1.58203C5.43359 1.71875 5.37891 1.88281 5.37891 2.04688C5.37891 2.23828 5.46094 2.40234 5.59766 2.51172L8.87891 5.65625H1.03125C0.839844 5.65625 0.675781 5.73828 0.566406 5.84766C0.429688 5.98438 0.375 6.14844 0.375 6.3125V7.1875C0.375 7.37891 0.429688 7.54297 0.566406 7.65234C0.675781 7.78906 0.839844 7.84375 1.03125 7.84375H8.87891L5.59766 10.9883C5.46094 11.125 5.37891 11.2891 5.37891 11.4531C5.37891 11.6445 5.43359 11.8086 5.59766 11.918L6.19922 12.5195C6.30859 12.6562 6.47266 12.7109 6.66406 12.7109C6.82812 12.7109 6.99219 12.6562 7.12891 12.5195L12.4336 7.21484C12.543 7.10547 12.625 6.94141 12.625 6.75C12.625 6.58594 12.543 6.42188 12.4336 6.28516L7.12891 0.980469C6.99219 0.871094 6.82812 0.789062 6.66406 0.789062C6.47266 0.789062 6.30859 0.871094 6.19922 0.980469L5.59766 1.58203Z" fill="#005E6A"/>
</svg>
