<svg width="21" height="21" viewBox="0 0 21 21" fill="none" xmlns="http://www.w3.org/2000/svg">
<path opacity="0.7" d="M10.9375 5.20898C11.8359 5.20898 12.6895 5.47852 13.498 5.92773C14.3066 6.37695 14.9355 7.00586 15.3848 7.81445C15.834 8.62305 16.1035 9.47656 16.1035 10.375C16.1035 11.3184 15.834 12.1719 15.3848 12.9805C14.9355 13.7891 14.3066 14.418 13.498 14.8672C12.6895 15.3164 11.8359 15.541 10.9375 15.541C9.99414 15.541 9.14062 15.3164 8.33203 14.8672C7.52344 14.418 6.89453 13.7891 6.44531 12.9805C5.99609 12.1719 5.77148 11.3184 5.77148 10.375C5.77148 9.47656 5.99609 8.62305 6.44531 7.81445C6.89453 7.00586 7.52344 6.37695 8.33203 5.92773C9.14062 5.47852 9.99414 5.20898 10.9375 5.20898ZM10.9375 13.7441C11.8359 13.7441 12.6445 13.4297 13.3184 12.7559C13.9473 12.127 14.3066 11.3184 14.3066 10.375C14.3066 9.47656 13.9473 8.66797 13.3184 7.99414C12.6445 7.36523 11.8359 7.00586 10.9375 7.00586C9.99414 7.00586 9.18555 7.36523 8.55664 7.99414C7.88281 8.66797 7.56836 9.47656 7.56836 10.375C7.56836 11.3184 7.88281 12.127 8.55664 12.7559C9.18555 13.4297 9.99414 13.7441 10.9375 13.7441ZM17.541 4.98438C17.541 4.66992 17.4062 4.40039 17.1816 4.13086C16.9121 3.90625 16.6426 3.77148 16.3281 3.77148C15.9688 3.77148 15.6992 3.90625 15.4746 4.13086C15.2051 4.40039 15.1152 4.66992 15.1152 4.98438C15.1152 5.34375 15.2051 5.61328 15.4746 5.83789C15.6992 6.10742 15.9688 6.19727 16.3281 6.19727C16.6426 6.19727 16.9121 6.10742 17.1367 5.83789C17.3613 5.61328 17.4961 5.34375 17.541 4.98438ZM20.9551 6.19727C20.9551 7.05078 21 8.44336 21 10.375C21 12.3516 20.9551 13.7441 20.9102 14.5977C20.8652 15.4512 20.7305 16.1699 20.5508 16.7988C20.2812 17.5625 19.832 18.2363 19.293 18.7754C18.7539 19.3145 18.0801 19.7188 17.3613 19.9883C16.7324 20.2129 15.9688 20.3477 15.1152 20.3926C14.2617 20.4375 12.8691 20.4375 10.9375 20.4375C8.96094 20.4375 7.56836 20.4375 6.71484 20.3926C5.86133 20.3477 5.14258 20.2129 4.51367 19.9434C3.75 19.7188 3.07617 19.3145 2.53711 18.7754C1.99805 18.2363 1.59375 17.5625 1.32422 16.7988C1.09961 16.1699 0.964844 15.4512 0.919922 14.5977C0.875 13.7441 0.875 12.3516 0.875 10.375C0.875 8.44336 0.875 7.05078 0.919922 6.19727C0.964844 5.34375 1.09961 4.58008 1.32422 3.95117C1.59375 3.23242 1.99805 2.55859 2.53711 2.01953C3.07617 1.48047 3.75 1.03125 4.51367 0.761719C5.14258 0.582031 5.86133 0.447266 6.71484 0.402344C7.56836 0.357422 8.96094 0.3125 10.9375 0.3125C12.8691 0.3125 14.2617 0.357422 15.1152 0.402344C15.9688 0.447266 16.7324 0.582031 17.3613 0.761719C18.0801 1.03125 18.7539 1.48047 19.293 2.01953C19.832 2.55859 20.2812 3.23242 20.5508 3.95117C20.7305 4.58008 20.8652 5.34375 20.9551 6.19727ZM18.7988 16.3047C18.9785 15.8105 19.0684 15.002 19.1582 13.8789C19.1582 13.25 19.2031 12.3066 19.2031 11.0938V9.65625C19.2031 8.44336 19.1582 7.5 19.1582 6.87109C19.0684 5.74805 18.9785 4.93945 18.7988 4.44531C18.4395 3.54688 17.7656 2.87305 16.8672 2.51367C16.373 2.33398 15.5645 2.24414 14.4414 2.1543C13.7676 2.1543 12.8242 2.10938 11.6562 2.10938H10.2188C9.00586 2.10938 8.0625 2.1543 7.43359 2.1543C6.31055 2.24414 5.50195 2.33398 5.00781 2.51367C4.06445 2.87305 3.43555 3.54688 3.07617 4.44531C2.89648 4.93945 2.76172 5.74805 2.7168 6.87109C2.67188 7.54492 2.67188 8.48828 2.67188 9.65625V11.0938C2.67188 12.3066 2.67188 13.25 2.7168 13.8789C2.76172 15.002 2.89648 15.8105 3.07617 16.3047C3.43555 17.248 4.10938 17.877 5.00781 18.2363C5.50195 18.416 6.31055 18.5508 7.43359 18.5957C8.0625 18.6406 9.00586 18.6406 10.2188 18.6406H11.6562C12.8691 18.6406 13.8125 18.6406 14.4414 18.5957C15.5645 18.5508 16.373 18.416 16.8672 18.2363C17.7656 17.877 18.4395 17.2031 18.7988 16.3047Z" fill="white"/>
</svg>
