<svg width="15" height="21" viewBox="0 0 15 21" fill="none" xmlns="http://www.w3.org/2000/svg">
<path opacity="0.7" d="M6.71875 20.1094C6.875 20.3828 7.14844 20.5 7.5 20.5C7.8125 20.5 8.08594 20.3828 8.28125 20.1094L10.8984 16.3594C12.1875 14.4844 13.0469 13.2344 13.4766 12.5703C14.0625 11.6328 14.4531 10.8516 14.6875 10.2266C14.8828 9.60156 15 8.85938 15 8C15 6.67188 14.6484 5.42188 13.9844 4.25C13.2812 3.11719 12.3828 2.21875 11.25 1.51562C10.0781 0.851562 8.82812 0.5 7.5 0.5C6.13281 0.5 4.88281 0.851562 3.75 1.51562C2.57812 2.21875 1.67969 3.11719 1.01562 4.25C0.3125 5.42188 0 6.67188 0 8C0 8.85938 0.078125 9.60156 0.3125 10.2266C0.507812 10.8516 0.898438 11.6328 1.52344 12.5703C1.91406 13.2344 2.77344 14.4844 4.10156 16.3594C5.15625 17.8828 6.01562 19.1328 6.71875 20.1094ZM7.5 11.125C6.64062 11.125 5.89844 10.8516 5.27344 10.2266C4.64844 9.60156 4.375 8.85938 4.375 8C4.375 7.14062 4.64844 6.4375 5.27344 5.8125C5.89844 5.1875 6.64062 4.875 7.5 4.875C8.35938 4.875 9.0625 5.1875 9.6875 5.8125C10.3125 6.4375 10.625 7.14062 10.625 8C10.625 8.85938 10.3125 9.60156 9.6875 10.2266C9.0625 10.8516 8.35938 11.125 7.5 11.125Z" fill="white"/>
</svg>
