<svg width="32" height="32" viewBox="0 0 32 32" fill="none" xmlns="http://www.w3.org/2000/svg">
<path d="M30.5898 23.3098L25.8397 19.2749C25.8177 19.2564 25.7945 19.2393 25.7703 19.2239C24.5241 18.4314 22.924 18.6069 21.8792 19.6504L19.2892 22.2373C19.1099 22.4167 18.8422 22.4697 18.6076 22.373C15.6831 21.1646 13.2807 19.3452 11.467 16.9661C10.0839 15.1519 9.58533 13.7102 9.51958 13.5071C9.51176 13.4636 9.4993 13.4204 9.4817 13.3782C9.38467 13.1438 9.43771 12.877 9.61759 12.6978L12.2073 10.1101C13.2521 9.06641 13.4275 7.46802 12.6342 6.22315C12.6279 6.21314 12.6213 6.20338 12.6144 6.19361L9.18402 1.43165C8.10475 -0.240959 5.75386 -0.493644 4.34294 0.915535L3.82432 1.4336C3.82408 1.43409 3.82359 1.43458 3.8231 1.43482L1.97152 3.28443C-0.236394 5.49024 -0.597618 8.80469 0.927196 12.8701C2.23327 16.3525 4.84787 20.1638 8.28927 23.6016C11.8121 27.1206 15.7305 29.7808 19.3227 31.092C22.8783 32.3896 26.6604 32.5496 29.3373 29.8752L31.0835 28.1311C32.4881 26.7278 32.243 24.3948 30.5898 23.3098ZM25.0644 20.2568L29.8104 24.2883C29.8322 24.3069 29.8554 24.324 29.8796 24.3394C30.8934 24.9841 31.0469 26.4001 30.1986 27.2473L30.069 27.377L21.9742 21.3228L22.7639 20.5342C23.381 19.9175 24.3215 19.8059 25.0644 20.2568ZM8.13872 2.11842C8.14507 2.12843 8.15167 2.13844 8.15852 2.14796L11.5875 6.90821C12.0533 7.65308 11.9455 8.60401 11.3225 9.22633L10.5573 9.99097L5.08078 1.94605L5.22767 1.79932C6.0794 0.948494 7.4957 1.10938 8.13872 2.11842ZM19.7519 29.918C16.3274 28.668 12.5707 26.1108 9.174 22.7178C5.85602 19.4036 3.34334 15.7505 2.09861 12.4316C1.16426 9.94044 0.537378 6.48463 2.85625 4.16846L4.18017 2.84571L9.65669 10.8906L8.7331 11.8137C8.20764 12.3377 8.04243 13.113 8.30467 13.8035C8.50214 14.613 9.41082 16.2935 10.3276 17.5317C11.6767 19.354 14.1253 21.8733 18.1293 23.5281C18.833 23.8188 19.6353 23.6592 20.174 23.1213L21.0805 22.2156L29.1752 28.2698L28.4526 28.9915C25.9668 31.4749 22.3491 30.866 19.7519 29.918Z" fill="#005E6A"/>
</svg>
