<svg width="21" height="21" viewBox="0 0 21 21" fill="none" xmlns="http://www.w3.org/2000/svg">
<path opacity="0.7" d="M20.2578 1.47656C20.4922 1.51562 20.6484 1.63281 20.8047 1.78906C20.9219 1.98438 21 2.17969 21 2.375C21 5.65625 20.1797 8.70312 18.5391 11.5156C16.8984 14.25 14.75 16.4375 12.0156 18.0391C9.20312 19.6797 6.15625 20.5 2.875 20.5C2.64062 20.5 2.44531 20.4609 2.28906 20.3047C2.09375 20.1875 1.97656 19.9922 1.97656 19.7578L1.03906 15.6953C0.960938 15.5 1 15.3047 1.11719 15.0703C1.19531 14.875 1.35156 14.7188 1.58594 14.6406L5.96094 12.7656C6.11719 12.6875 6.3125 12.6875 6.54688 12.7266C6.74219 12.7656 6.89844 12.8828 7.05469 13.0391L8.96875 15.3828C10.4922 14.6797 11.8594 13.7422 13.0312 12.5312C14.2031 11.3594 15.1797 9.99219 15.8828 8.46875L13.5391 6.51562C13.3828 6.39844 13.2656 6.24219 13.2266 6.04688C13.1484 5.85156 13.1875 5.65625 13.2656 5.42188L15.1406 1.04688C15.2188 0.890625 15.3359 0.734375 15.5703 0.617188C15.7656 0.539062 15.9609 0.5 16.1953 0.539062L20.2578 1.47656Z" fill="white"/>
</svg>
