<svg width="15" height="15" viewBox="0 0 15 15" fill="none" xmlns="http://www.w3.org/2000/svg">
<path d="M14.4575 12.8633C14.5669 13 14.6489 13.1641 14.6489 13.3281C14.6489 13.5195 14.5669 13.6836 14.4575 13.793L13.6919 14.5586C13.5552 14.6953 13.3911 14.75 13.227 14.75C13.0356 14.75 12.8716 14.6953 12.7622 14.5586L10.0278 11.8242C9.8911 11.7148 9.83641 11.5508 9.83641 11.3594V10.9219C8.79735 11.7422 7.64891 12.125 6.33641 12.125C5.29735 12.125 4.34032 11.8789 3.46532 11.3594C2.59032 10.8672 1.90672 10.1836 1.41454 9.30859C0.895006 8.43359 0.648912 7.47656 0.648912 6.4375C0.648912 5.39844 0.895006 4.46875 1.41454 3.59375C1.90672 2.71875 2.59032 2.03516 3.46532 1.51562C4.34032 1.02344 5.29735 0.75 6.33641 0.75C7.37547 0.75 8.30516 1.02344 9.18016 1.51562C10.0552 2.03516 10.7388 2.71875 11.2583 3.59375C11.7505 4.46875 12.0239 5.39844 12.0239 6.4375C12.0239 7.75 11.6138 8.92578 10.8208 9.9375H11.2583C11.4223 9.9375 11.5864 10.0195 11.7231 10.1289L14.4575 12.8633ZM6.33641 9.9375C6.96532 9.9375 7.53954 9.80078 8.08641 9.47266C8.63329 9.17188 9.04344 8.76172 9.37157 8.21484C9.67235 7.66797 9.83641 7.09375 9.83641 6.4375C9.83641 5.80859 9.67235 5.23438 9.37157 4.6875C9.04344 4.14062 8.63329 3.73047 8.08641 3.40234C7.53954 3.10156 6.96532 2.9375 6.33641 2.9375C5.68016 2.9375 5.10594 3.10156 4.55907 3.40234C4.01219 3.73047 3.60204 4.14062 3.30126 4.6875C2.97313 5.23438 2.83641 5.80859 2.83641 6.4375C2.83641 7.09375 2.97313 7.66797 3.30126 8.21484C3.60204 8.76172 4.01219 9.17188 4.55907 9.47266C5.10594 9.80078 5.68016 9.9375 6.33641 9.9375Z" fill="#666666"/>
</svg>
