<svg width="1658" height="867" viewBox="0 0 1658 867" fill="none" xmlns="http://www.w3.org/2000/svg">
<path opacity="0.2" fill-rule="evenodd" clip-rule="evenodd" d="M238 76C238 80.4182 234.418 84 230 84C225.582 84 222 80.4182 222 76C222 71.5818 225.582 68 230 68C234.418 68 238 71.5818 238 76Z" fill="#33CC66"/>
<path opacity="0.2" fill-rule="evenodd" clip-rule="evenodd" d="M203 17.0002C203 26.3885 195.388 34 186 34C176.61 34 169 26.3885 169 17.0002C169 7.61184 176.61 0 186 0C195.388 0 203 7.61184 203 17.0002Z" fill="#00CCFF"/>
<path opacity="0.2" fill-rule="evenodd" clip-rule="evenodd" d="M13 774.5C13 778.09 10.0896 781 6.49994 781C2.9098 781 0 778.09 0 774.5C0 770.91 2.9098 768 6.49994 768C10.0896 768 13 770.91 13 774.5Z" fill="#00CCFF"/>
<path opacity="0.2" fill-rule="evenodd" clip-rule="evenodd" d="M1524 199C1524 205.075 1519.08 210 1513 210C1506.92 210 1502 205.075 1502 199C1502 192.925 1506.92 188 1513 188C1519.08 188 1524 192.925 1524 199Z" fill="#FF00FF"/>
<path opacity="0.2" fill-rule="evenodd" clip-rule="evenodd" d="M1658 859.5C1658 863.642 1654.64 867 1650.5 867C1646.36 867 1643 863.642 1643 859.5C1643 855.358 1646.36 852 1650.5 852C1654.64 852 1658 855.358 1658 859.5Z" fill="#0000A2"/>
</svg>
