<svg width="688" height="396" viewBox="0 0 688 396" fill="none" xmlns="http://www.w3.org/2000/svg">
<path d="M108 56.5L327 15M327 15L586 56.5M327 15L108 180.5M327 15L363 172.5M327 15L313 56.5M327 15L586 180.5M327 15L108 302M327 15L344.5 296.5" stroke="#B5B5B5"/>
<circle opacity="0.2" cx="326" cy="15" r="15" fill="#4396F7"/>
<circle cx="326" cy="15" r="6" fill="#4396F7"/>
<rect x="236" y="176" width="216" height="100" rx="20" fill="white"/>
<rect x="236.5" y="176.5" width="215" height="99" rx="19.5" stroke="#5555C4" stroke-opacity="0.2"/>
<g clip-path="url(#clip0)">
<path fill-rule="evenodd" clip-rule="evenodd" d="M391.776 233.547C389.626 234.408 387.929 237.382 385.349 239.072C385.189 239.177 385.029 239.23 384.922 239.23C384.709 239.23 384.443 239.02 384.443 238.076C384.443 234.827 385.509 233.255 386.416 230.948C389.563 222.93 394.95 216.064 399.75 208.569C400.123 207.992 400.337 207.363 400.337 206.682C400.337 206.105 400.123 205.634 399.857 205.057C399.643 204.585 398.683 204.166 397.616 204.166C397.03 204.166 396.497 204.218 395.803 204.218C393.296 204.218 392.763 207.835 392.176 208.778C388.176 215.435 383.589 223.663 381.242 229.481C380.727 230.785 380.171 232.089 379.749 233.428C377.43 234.088 375.692 237.292 372.975 239.073C372.815 239.177 372.655 239.23 372.548 239.23C372.335 239.23 372.068 239.02 372.068 238.077C372.068 234.827 373.135 233.255 374.042 230.949C377.189 222.93 382.576 216.064 387.376 208.569C387.749 207.992 387.963 207.363 387.963 206.682C387.963 206.106 387.749 205.634 387.482 205.057C387.269 204.585 386.309 204.166 385.242 204.166C384.656 204.166 384.122 204.218 383.429 204.218C380.922 204.218 380.389 207.835 379.802 208.778C375.802 215.435 371.215 223.663 368.868 229.481C368.682 229.954 368.49 230.426 368.3 230.901C368.242 230.932 368.183 230.965 368.121 231.001C365.401 232.573 363.108 235.351 359.801 237.238C359.161 237.605 357.187 238.967 355.587 238.967C355.214 238.967 354.894 238.863 354.574 238.705C354.094 238.496 353.614 237.5 353.614 237.186C353.614 236.924 353.667 236.871 354.2 236.557C358.894 233.779 362.734 229.796 366.041 225.812C367.268 224.345 368.868 221.462 368.868 219.366C368.868 218.003 368.388 216.431 366.735 215.854C365.561 215.435 364.228 215.225 363.161 215.225C360.334 215.225 358.254 216.483 357.081 217.688C355.886 218.942 354.731 220.228 353.657 221.561C352.535 220.609 350.953 220.204 349.453 220.204C347.693 220.204 344.386 222.353 342.679 223.611C342.413 223.82 342.253 223.925 342.146 223.925C342.093 223.925 342.04 223.873 342.04 223.768C342.04 223.716 342.146 223.244 342.146 222.405C342.146 221.672 341.986 220.728 341.293 219.575C341.133 219.313 340.173 218.736 338.999 218.736C337.559 218.736 336.226 219.418 336.226 220.151C336.226 220.676 336.706 220.885 336.706 221.357C336.706 221.619 336.492 222.824 336.172 223.977C335.265 227.332 334.145 230.634 332.972 233.936C332.332 235.77 330.198 237.395 330.198 239.387C330.198 240.015 330.625 240.854 331.212 241.483C332.172 242.531 332.759 242.898 333.612 242.898C333.985 242.898 334.412 242.793 334.785 242.479C335.585 241.798 336.012 241.116 336.226 240.173C337.612 233.988 341.612 229.795 346.039 227.018C347.533 226.074 349.56 225.078 349.826 225.078C350.1 225.078 350.527 225.202 350.958 225.323C349.721 227.307 348.718 229.398 348.066 231.63C347.853 232.363 347.746 233.045 347.746 233.779C347.746 234.984 348.013 236.242 348.44 237.447C349.026 239.125 349.986 240.592 351.32 241.273C353.773 242.531 355.533 243.213 357.133 243.213C358.04 243.213 358.734 243.056 359.48 242.636C362.986 240.687 365.136 239.209 366.687 237.895C366.73 239.227 366.997 239.965 367.961 240.959C368.921 241.955 370.414 242.846 372.388 243.266C372.708 243.318 373.028 243.37 373.348 243.37C375.606 243.37 377.779 241.567 379.454 239.779C379.648 240.169 379.93 240.542 380.335 240.959C381.295 241.955 382.789 242.846 384.762 243.266C385.082 243.318 385.402 243.37 385.722 243.37C388.367 243.37 390.895 240.896 392.644 238.87C393.227 240.055 394.856 241.226 396.816 242.165C397.349 242.427 397.99 242.584 398.576 242.584C400.87 242.584 402.523 240.75 403.803 239.387C407.11 235.823 408.924 231.42 410.31 225.865C410.417 225.445 410.577 225.288 410.791 225.288C411.324 225.288 412.017 225.288 412.764 225.183C414.204 224.974 415.324 224.502 416.658 224.292C417.458 224.135 417.351 223.873 418.098 223.611C418.631 223.402 419.058 223.192 419.058 222.668C419.058 221.777 417.405 220.833 414.898 220.833C412.924 220.833 411.751 220.99 410.951 220.99C409.724 220.99 409.404 220.624 408.604 218.58C408.604 218.58 409.404 220.624 408.604 218.58C408.444 218.16 408.284 217.951 407.804 217.531C406.684 216.588 405.297 216.273 404.177 216.273C401.51 216.273 399.216 218.947 397.616 221.2C397.243 221.724 396.71 222.144 396.336 222.72C394.139 225.959 392.035 229.611 391.776 233.547L391.776 233.547ZM323.585 215.697C324.918 215.697 325.665 215.592 325.825 215.592C325.985 215.592 326.092 215.644 326.092 215.801C326.092 215.906 326.038 216.064 325.665 216.85C322.411 223.716 320.171 230.686 318.198 238.391C318.144 238.601 317.984 239.387 317.984 240.173C317.984 240.907 318.198 241.693 318.944 242.112C320.385 242.951 321.558 243.318 322.358 243.318C323.532 243.318 324.118 242.584 324.118 241.378C324.118 240.33 324.171 239.229 324.331 238.391C325.825 230.686 328.065 224.659 331.532 218.37C333.185 215.382 333.399 215.225 333.399 214.963C333.399 214.858 333.345 214.701 333.239 214.544C335.372 214.072 337.932 213.757 340.279 213.757C340.546 213.757 341.612 214.124 341.772 214.282C342.146 214.649 342.519 215.015 343.159 215.015C343.693 215.015 344.599 214.649 344.919 214.439C345.666 213.915 346.039 213.338 346.039 212.395C346.039 211.504 342.679 209.302 340.332 209.302C337.452 209.302 334.839 209.669 332.385 210.141C331.318 210.351 327.478 210.927 324.704 210.927C322.038 210.927 322.197 210.56 321.078 210.56C320.438 210.56 320.118 210.875 319.851 211.137C319.584 211.399 319.424 212.447 319.424 213.391C319.424 213.862 319.424 214.229 319.691 214.544C320.491 215.487 322.038 215.697 323.584 215.697C323.584 215.697 322.038 215.697 323.584 215.697L323.585 215.697ZM363.108 219.942C363.108 220.414 362.947 220.728 362.308 221.724C361.668 222.72 361.934 222.72 361.134 223.768C359.588 225.812 357.668 227.856 355.161 230.11C354.467 230.739 354.361 230.739 354.254 230.739C354.2 230.739 354.094 230.686 354.094 230.582C354.094 230.425 354.147 230.215 354.68 229.114C356.334 225.707 358.361 223.453 360.601 221.252C361.828 220.047 362.574 219.627 362.841 219.627C363.001 219.627 363.108 219.68 363.108 219.942C363.108 219.942 363.108 219.68 363.108 219.942H363.108ZM404.124 221.305C404.177 221.305 404.23 221.357 404.284 221.462C404.337 221.619 404.444 221.776 404.71 221.986C404.924 222.143 404.924 222.877 404.924 223.453C404.924 228.537 401.99 232.73 399.11 236.976C398.47 237.919 398.097 238.076 397.777 238.076C397.51 238.076 397.083 237.395 396.923 236.976C396.71 236.399 396.657 235.718 396.657 235.456C396.657 231.368 400.603 225.288 403.217 221.934C403.644 221.357 403.964 221.305 404.124 221.305C404.124 221.305 403.964 221.305 404.124 221.305V221.305Z" fill="#4396F7"/>
<path fill-rule="evenodd" clip-rule="evenodd" d="M282.627 209.956C280.302 209.956 278.418 211.809 278.418 214.092V238.908C278.418 241.192 280.304 243.044 282.627 243.044H307.881C310.206 243.044 312.09 241.191 312.09 238.908V214.092C312.09 211.808 310.205 209.956 307.881 209.956H282.627ZM299.463 214.258C298.347 214.258 297.443 215.146 297.443 216.244V226.83C297.443 227.927 298.347 228.816 299.463 228.816H305.693C306.809 228.816 307.713 227.928 307.713 226.83V216.244C307.713 215.147 306.808 214.258 305.693 214.258H299.463ZM284.815 214.258C283.699 214.258 282.795 215.145 282.795 216.244V235.102C282.795 236.199 283.7 237.088 284.815 237.088H291.046C292.161 237.088 293.065 236.2 293.065 235.102V216.244C293.065 215.147 292.161 214.258 291.046 214.258H284.815Z" fill="#4396F7"/>
</g>
<rect x="236" y="56" width="216" height="100" rx="20" fill="white"/>
<rect x="236.5" y="56.5" width="215" height="99" rx="19.5" stroke="#5555C4" stroke-opacity="0.2"/>
<g clip-path="url(#clip1)">
<path fill-rule="evenodd" clip-rule="evenodd" d="M311.207 108.815C311.207 111.01 309.541 112.431 306.979 112.431C304.878 112.431 303.212 111.475 302.366 109.822L302.264 109.641L304.621 108.272L304.724 108.454C305.313 109.409 305.954 109.822 306.928 109.822C307.773 109.822 308.337 109.435 308.337 108.841C308.337 108.169 307.85 107.937 306.697 107.42L306.082 107.162C304.493 106.49 303.032 105.535 303.032 103.288C303.032 101.248 304.596 99.8271 306.799 99.8271C308.491 99.8271 309.644 100.473 310.438 101.893L310.541 102.074L308.286 103.546L308.158 103.34C307.722 102.565 307.312 102.41 306.799 102.41C306.236 102.41 305.877 102.746 305.877 103.236C305.877 103.83 306.21 104.063 307.235 104.502L307.85 104.76C309.926 105.664 311.207 106.646 311.207 108.815Z" fill="#143E5A"/>
<path fill-rule="evenodd" clip-rule="evenodd" d="M317.17 99.8271V112.431H320.003V107.688C320.003 107.426 320.003 107.111 319.977 106.745L319.95 106.378L320.187 106.666C320.423 106.98 320.632 107.216 320.816 107.426L323.282 110.177H323.728L326.194 107.426C326.377 107.216 326.587 106.98 326.823 106.666L327.033 106.378L327.007 106.745C326.981 107.111 326.981 107.426 326.981 107.688V112.431H329.84V99.8271H329.289L323.544 106.221L317.721 99.8271H317.17Z" fill="#143E5A"/>
<path fill-rule="evenodd" clip-rule="evenodd" d="M340.094 108.553L340.792 106.797C340.917 106.509 341.042 106.142 341.167 105.697L341.267 105.356L341.366 105.697C341.491 106.142 341.641 106.509 341.741 106.797L342.439 108.553H340.094ZM341.541 99.8271H341.042L335.802 112.431H338.547L339.096 111.068H343.463L344.012 112.431H346.981L341.541 99.8271Z" fill="#143E5A"/>
<path fill-rule="evenodd" clip-rule="evenodd" d="M358.53 104.76L357.915 104.502C356.89 104.063 356.557 103.804 356.557 103.236C356.557 102.746 356.941 102.41 357.479 102.41C357.991 102.41 358.402 102.565 358.837 103.34L358.965 103.546L361.221 102.074L361.118 101.893C360.324 100.473 359.17 99.8271 357.479 99.8271C355.25 99.8271 353.712 101.248 353.712 103.288C353.712 105.561 355.173 106.49 356.762 107.162L357.377 107.42C358.504 107.911 359.016 108.169 359.016 108.841C359.016 109.435 358.453 109.822 357.607 109.822C356.659 109.822 355.993 109.409 355.404 108.453L355.301 108.272L352.943 109.641L353.046 109.822C353.891 111.475 355.557 112.431 357.659 112.431C360.221 112.431 361.887 111.01 361.887 108.815C361.887 106.645 360.606 105.664 358.53 104.76Z" fill="#143E5A"/>
<path fill-rule="evenodd" clip-rule="evenodd" d="M370.003 99.8271H367.104V112.431H370.003V108.731H374.637V112.431H377.537V99.8271H374.637V106.036H370.003V99.8271Z" fill="#143E5A"/>
<path fill-rule="evenodd" clip-rule="evenodd" d="M391.972 106.036H387.179V102.496H392.443V99.8271H384.245V112.431H387.179V108.731H391.972V106.036Z" fill="#143E5A"/>
<path fill-rule="evenodd" clip-rule="evenodd" d="M402.019 99.8271H399.15V112.431H407.349V109.762H402.019V99.8271Z" fill="#143E5A"/>
<path fill-rule="evenodd" clip-rule="evenodd" d="M419.986 99.8271L417.926 103.843C417.746 104.213 417.54 104.689 417.308 105.297L417.205 105.561L417.102 105.297C416.87 104.689 416.638 104.187 416.458 103.843L414.295 99.8271H411.075L415.711 108.388V112.431H418.621L418.647 108.203L423 99.8271H419.986Z" fill="#143E5A"/>
<mask id="mask0" mask-type="alpha" maskUnits="userSpaceOnUse" x="265" y="85" width="21" height="27">
<path d="M265 85H285.816V111.51H265V85Z" fill="white"/>
</mask>
<g mask="url(#mask0)">
<path fill-rule="evenodd" clip-rule="evenodd" d="M285.816 90.4662V85L265 90.2866V103.631L280.26 99.7563V102.169L265 106.044V111.51L285.816 106.223V92.8786L270.582 96.7537V94.3414L285.816 90.4662Z" fill="#143E5A"/>
</g>
<path fill-rule="evenodd" clip-rule="evenodd" d="M265 119.844H270.962V112.431L265 113.935V119.844Z" fill="#BDD755"/>
<path fill-rule="evenodd" clip-rule="evenodd" d="M272.453 124.293H278.415V110.948L272.453 112.368V124.293Z" fill="#59B6A0"/>
<mask id="mask1" mask-type="alpha" maskUnits="userSpaceOnUse" x="280" y="108" width="6" height="20">
<path d="M280.042 108.749H285.815V127.999H280.042V108.749Z" fill="white"/>
</mask>
<g mask="url(#mask1)">
<path fill-rule="evenodd" clip-rule="evenodd" d="M280.042 128H285.815V108.749L280.042 110.144V128Z" fill="#0082AC"/>
</g>
</g>
<rect y="56" width="216" height="100" rx="20" fill="white"/>
<rect x="0.5" y="56.5" width="215" height="99" rx="19.5" stroke="#5555C4" stroke-opacity="0.2"/>
<path fill-rule="evenodd" clip-rule="evenodd" d="M64.7158 114.23V115.253C64.7158 118.12 67.3595 120.076 70.2225 120.076C73.7896 120.076 73.8833 120.108 76.7435 118.176C76.3183 120.017 76.0171 122.001 75.6679 123.96L73.0369 138.552C72.8747 139.421 72.5411 140.728 72.5411 141.56H77.7579C77.7931 141.134 77.9478 140.555 78.0082 140.205L85.5832 97.2762C84.2808 97.2762 82.9691 97.2916 81.6679 97.2736C80.7907 97.2614 80.404 97.0546 80.2206 97.7137C80.1154 98.0919 80.0181 99.0885 79.952 99.489L77.9402 111.198C77.8258 111.787 77.757 112.417 77.6198 112.921C76.8188 115.86 72.4255 117.355 70.7605 115.441C70.3375 114.954 70.0022 114 70.0926 113.087C70.3873 110.11 71.3355 105.785 71.8579 102.579C72.0581 101.351 72.686 98.3756 72.686 97.276H67.9039C67.4531 97.276 67.4926 97.5305 67.3968 97.9337L65.3329 109.737C65.071 111.089 64.7159 112.737 64.7159 114.23L64.7158 114.23Z" fill="#18ADD0"/>
<path fill-rule="evenodd" clip-rule="evenodd" d="M137.605 116.129H136.59C133.729 116.129 133.692 112.876 133.692 110.868C133.692 99.4599 142.319 98.3867 143.073 103.598C143.578 107.085 142.655 113.124 139.804 115.278C139.382 115.597 138.306 116.129 137.605 116.129ZM128.33 109.991C128.33 112.823 128.144 115.638 130.319 117.924C133.156 120.906 138.871 120.495 142.149 118.812C146.177 116.744 148.618 111.372 148.618 106.63C148.618 103.857 148.816 100.833 146.444 98.7372C142.35 95.1184 135.214 96.5329 131.628 100.602C129.985 102.466 128.33 106.505 128.33 109.991H128.33Z" fill="#18ADD0"/>
<path fill-rule="evenodd" clip-rule="evenodd" d="M91.5222 106.92C92.1578 105.584 92.7563 101.027 97.5054 100.52C99.2833 100.33 99.9272 101.374 99.9272 102.828C99.9272 105.909 94.822 106.92 91.5222 106.92V106.92ZM85.7257 111.304C85.7257 113.893 86.4329 116.003 87.585 117.468C89.7804 120.259 92.8771 120.074 95.8695 120.074C98.3258 120.074 101.168 119.05 103.115 117.735C103.115 116.996 102.963 116.614 102.968 115.691C102.973 114.911 102.97 114.131 102.97 113.351C100.474 115.036 98.3843 115.981 95.0001 115.981C92.7435 115.981 91.0875 114.175 91.0875 111.889V110.574C96.5054 110.574 104.854 109.003 104.854 101.951C104.854 98.7171 102.233 96.6895 99.0575 96.6895C95.0562 96.6895 91.4659 98.0067 89.1394 101.155C88.5888 101.901 88.2403 102.303 87.8025 103.169C86.4857 105.772 85.7256 108.047 85.7256 111.305L85.7257 111.304Z" fill="#18ADD0"/>
<path fill-rule="evenodd" clip-rule="evenodd" d="M121.519 120.074C123.996 120.074 125.662 120.096 127.895 118.905C127.844 118.292 127.394 117.919 127.117 117.35C126.814 116.728 126.715 116.109 126.446 115.543L124.272 115.982C122.07 115.982 122.572 113.815 122.864 112.077C123.141 110.425 123.44 108.734 123.733 106.962L128.495 78.5878C128.61 77.8903 128.893 76.6557 128.909 75.9365H123.692L121.684 87.6491C121.028 91.6333 120.38 95.3901 119.718 99.4043C119.062 103.381 118.383 107.182 117.731 111.138C117.292 113.795 116.491 117.409 118.884 119.223C119.444 119.647 120.567 120.074 121.519 120.074L121.519 120.074Z" fill="#18ADD0"/>
<path fill-rule="evenodd" clip-rule="evenodd" d="M105.289 114.52V115.982C105.289 118.347 107.166 120.074 109.492 120.074C111.288 120.074 111.978 120.177 113.777 119.719C114.509 119.533 115.106 119.196 115.723 119.051C115.6 118.519 115.374 118.081 115.198 117.388C114.989 116.565 114.998 116.381 114.998 115.397C111.837 116.14 110.02 117.114 110.858 112.098L115.163 86.3337C115.439 84.6606 115.744 82.9684 116.033 81.2185L116.882 75.9365H111.665L105.993 109.531C105.745 111.04 105.289 112.808 105.289 114.52V114.52Z" fill="#18ADD0"/>
<rect y="176" width="216" height="100" rx="20" fill="white"/>
<rect x="0.5" y="176.5" width="215" height="99" rx="19.5" stroke="#5555C4" stroke-opacity="0.2"/>
<path d="M35.7326 236.934V218.854H30.1338V215H46.1162V218.854H40.4177V236.934H35.7326Z" fill="#3D85F9"/>
<path d="M51.5655 228.183H55.9682L53.8748 220.343H53.7419L51.5655 228.183ZM56.7822 215L63.1121 236.934H58.3605L56.9982 231.889H50.5687L49.1731 236.934H44.7871L51.117 215H56.7822Z" fill="#3D85F9"/>
<path d="M70.2388 215V233.063H78.6288V236.934H65.5205V215H70.2388Z" fill="#3D85F9"/>
<path d="M94.1288 236.934H80.9043V215H94.0624V218.854H85.5229V223.866H92.0355V227.671H85.5229V233.063H94.1288V236.934Z" fill="#3D85F9"/>
<path d="M104.731 236.934L100.81 221.402H100.66V236.934H96.5068V215H103.086L106.409 228.398H106.542L109.831 215H116.094V236.934H111.692V221.402H111.542L107.588 236.934H104.731Z" fill="#3D85F9"/>
<path d="M132.559 236.934H119.351V215H132.492V218.854H123.953V223.866H130.465V227.671H123.953V233.063H132.559V236.934Z" fill="#3D85F9"/>
<path d="M140.499 236.934V218.854H134.9V215H150.883V218.854H145.184V236.934H140.499Z" fill="#3D85F9"/>
<path d="M160.501 225.156C162.877 225.156 163.924 224.147 163.924 221.98C163.924 219.962 162.877 218.738 160.501 218.738H157.777V225.14H160.501V225.156ZM164.007 236.934C163.558 236.024 163.309 234.783 163.16 232.054C163.027 229.821 162.429 228.812 160.335 228.812H157.777V236.917H153.158V215H160.684C166.034 215 168.559 217.614 168.559 221.716C168.559 224.776 166.781 226.662 164.705 227.141C166.765 227.77 167.529 229.159 167.745 231.839C167.961 234.767 168.094 235.908 168.759 236.917H164.007V236.934Z" fill="#3D85F9"/>
<path d="M181.8 215H186.519L180.023 229.06V236.934H175.471V229.06L168.958 215H173.859L177.913 224.015L181.8 215Z" fill="#3D85F9"/>
<rect x="472" y="176" width="216" height="100" rx="20" fill="white"/>
<rect x="472.5" y="176.5" width="215" height="99" rx="19.5" stroke="#5555C4" stroke-opacity="0.2"/>
<g clip-path="url(#clip2)">
<path d="M520.188 203.032L497.031 249.455H501.126C508.905 249.455 518.15 243.691 522.149 235.874L529.381 221.412L520.188 203.032Z" fill="url(#paint0_linear)"/>
<path d="M523.899 229.543C522.287 229.076 520.617 228.841 518.939 228.845C513.454 228.845 509.364 231.262 509.303 231.295C512.594 232.087 516.184 234.153 519.636 238.511C530.533 252.23 542.914 249.162 542.914 249.162C542.914 249.162 538.291 233.506 523.899 229.543Z" fill="url(#paint1_linear)"/>
<path d="M523.899 229.544C516.077 227.267 509.315 231.289 509.303 231.295L509.436 231.33C530.498 228.206 526.109 245.113 542.914 249.162C542.914 249.162 538.291 233.507 523.899 229.544Z" fill="url(#paint2_linear)"/>
<path d="M524.808 212.276L520.188 203.032L497.031 249.455H501.126H501.552L513.709 225.085C517.482 217.802 521.288 214.465 524.808 212.276Z" fill="url(#paint3_linear)"/>
<path d="M649.33 228.607C649.541 231.403 652.095 233.807 655.132 233.807C656.821 233.801 658.468 233.276 659.85 232.304C659.967 232.225 660.101 232.174 660.24 232.154C660.332 232.154 660.421 232.214 660.54 232.335L661.111 233.026C661.322 233.297 661.322 233.475 661.111 233.688C659.699 235.07 657.263 235.791 655.039 235.791C650.501 235.791 647.013 232.214 647.013 227.826C647.013 223.438 650.501 219.83 654.889 219.83C659.578 219.83 662.314 223.616 662.314 228.125C662.314 228.487 662.254 228.607 661.865 228.607H649.33ZM649.39 227.044H660.001C659.88 224.338 657.926 221.723 654.861 221.723C651.764 221.723 649.48 224.338 649.39 227.044Z" fill="#001D43"/>
<path d="M593.921 219.846C592.659 219.859 591.4 219.959 590.152 220.145C589.966 220.172 589.806 220.291 589.727 220.462L589.045 221.906C589.004 221.993 589.015 222.095 589.072 222.172C589.129 222.249 589.224 222.288 589.319 222.274L590.101 222.153C591.333 221.942 592.581 221.834 593.831 221.829C596.987 221.829 598.099 223.212 598.099 227C596.567 226.368 594.823 225.952 593.229 225.952C589.533 225.952 587.067 227.546 587.067 230.822C587.067 234.038 589.533 235.811 592.419 235.811C595.665 235.811 597.655 234.068 598.459 232.957L598.581 235C598.67 235.361 598.79 235.48 599.029 235.48H599.902C600.232 235.48 600.35 235.361 600.35 235V227.059C600.353 222.1 598.971 219.846 593.921 219.846ZM598.099 231.215C597.137 232.628 595.183 234.041 593.11 234.041C590.674 234.041 589.322 232.695 589.322 230.825C589.322 228.78 590.818 227.638 593.681 227.638C595.394 227.638 596.567 228.087 598.099 228.722V231.215Z" fill="#001D43"/>
<path d="M645.714 221.7L646.251 220.563C646.307 220.447 646.308 220.312 646.252 220.196C646.197 220.079 646.092 219.994 645.967 219.965C645.606 219.887 645.238 219.841 644.869 219.83C641.521 219.83 639.184 221.853 638.585 223.114L638.256 220.641C638.219 220.243 637.986 220.161 637.745 220.161H636.997C636.666 220.161 636.548 220.28 636.548 220.641V234.979C636.548 235.341 636.669 235.46 636.997 235.46H638.343C638.674 235.46 638.792 235.341 638.792 234.979V227.585C638.792 224.789 640.654 222.05 644.562 222.05C644.668 222.05 644.896 222.05 645.16 222.05C645.397 222.049 645.612 221.913 645.714 221.7Z" fill="#001D43"/>
<path d="M560.324 214.355C560.474 214.116 560.534 213.935 560.715 213.935H560.804C560.954 213.935 561.045 214.116 561.165 214.355L570.995 235C571.115 235.271 570.995 235.482 570.696 235.482H568.956C568.657 235.482 568.536 235.362 568.358 235L566.012 229.891H555.515L553.17 235C552.989 235.362 552.871 235.482 552.539 235.482H550.795C550.524 235.482 550.404 235.271 550.524 235L560.324 214.355ZM565.194 227.852L560.775 218.053H560.745L556.327 227.852H565.194Z" fill="#001D43"/>
<path d="M577.977 236C577.827 236 577.775 235.891 577.616 235.578L570.552 220.669C570.431 220.398 570.552 220.188 570.823 220.188H572.319C572.649 220.188 572.767 220.278 572.95 220.669L578.036 231.64V231.67L583.087 220.669C583.266 220.278 583.416 220.188 583.685 220.188H585.181C585.512 220.188 585.572 220.428 585.481 220.669L578.449 235.578C578.288 235.849 578.238 236 578.059 236H577.977Z" fill="#001D43"/>
<path d="M618.116 220.569C618.116 220.21 618.237 220.089 618.564 220.089H619.911C620.241 220.089 620.36 220.21 620.36 220.569V228.356C620.36 231.933 622.164 233.676 624.598 233.676C627.213 233.676 628.897 231.152 628.897 228.14V220.569C628.897 220.21 629.017 220.089 629.346 220.089H630.692C631.023 220.089 631.141 220.21 631.141 220.569V234.908C631.141 235.269 631.02 235.39 630.692 235.39H629.944C629.704 235.39 629.584 235.269 629.433 234.908L629.204 232.331C628.573 233.528 626.999 235.719 624.053 235.719C620.837 235.719 618.101 233.774 618.101 228.957L618.116 220.569Z" fill="#001D43"/>
<path d="M614.361 233.698C614.235 233.433 613.924 233.314 613.652 233.426C613.088 233.649 612.485 233.763 611.878 233.762C609.474 233.762 608.421 232.47 608.421 228.953V222.04H612.789C613.076 222.038 613.337 221.872 613.461 221.613L613.956 220.566C613.996 220.482 613.99 220.383 613.94 220.304C613.891 220.226 613.804 220.178 613.711 220.179H608.421V217.082C608.421 216.817 608.206 216.602 607.941 216.602H606.656C606.408 216.602 606.207 216.802 606.207 217.05V220.177H604.733C604.373 220.177 604.253 220.267 604.253 220.657V221.555C604.253 221.82 604.468 222.036 604.733 222.037H606.207V229.131C606.207 233.309 607.679 235.803 611.648 235.803C612.662 235.803 613.76 235.393 614.39 235.101C614.53 235.035 614.638 234.916 614.69 234.77C614.742 234.624 614.734 234.463 614.667 234.323L614.361 233.698Z" fill="#001D43"/>
</g>
<rect x="472" y="56" width="216" height="100" rx="20" fill="white"/>
<rect x="472.5" y="56.5" width="215" height="99" rx="19.5" stroke="#5555C4" stroke-opacity="0.2"/>
<path d="M557.828 107.202C558.571 108.062 558.942 109.196 558.942 110.605C558.942 112.418 558.303 113.82 557.026 114.809C555.749 115.798 553.912 116.288 551.516 116.278H542.663V95.751H550.297C552.556 95.751 554.304 96.2259 555.541 97.1755C556.778 98.1252 557.398 99.4697 557.399 101.209C557.424 102.17 557.177 103.118 556.686 103.947C556.222 104.7 555.507 105.27 554.664 105.559V105.646C556.032 105.824 557.086 106.343 557.828 107.202ZM553.104 99.2381C552.468 98.7583 551.458 98.5184 550.074 98.5184H545.931V104.414H550.061C551.445 104.414 552.456 104.175 553.092 103.697C553.728 103.219 554.044 102.47 554.041 101.452C554.041 100.456 553.729 99.7179 553.104 99.2381ZM554.559 112.731C555.227 112.237 555.561 111.44 555.561 110.34C555.561 109.24 555.227 108.429 554.559 107.906C553.891 107.397 552.782 107.142 551.231 107.142H545.931V113.481H551.218C552.763 113.481 553.872 113.231 554.547 112.731H554.559Z" fill="#201E5A"/>
<path d="M574.953 110.34H563.783C563.922 111.575 564.363 112.509 565.106 113.142C565.849 113.775 566.834 114.093 568.061 114.097C568.933 114.128 569.797 113.93 570.565 113.523C570.867 113.367 571.134 113.153 571.351 112.894C571.568 112.635 571.731 112.336 571.83 112.014H574.801C574.497 113.351 573.692 114.525 572.546 115.299C571.339 116.159 569.837 116.59 568.039 116.59C566.693 116.618 565.364 116.304 564.177 115.679C563.088 115.094 562.191 114.213 561.592 113.142C560.963 111.995 560.645 110.707 560.67 109.403C560.648 108.103 560.966 106.819 561.592 105.676C562.189 104.6 563.079 103.71 564.162 103.109C565.321 102.478 566.628 102.16 567.951 102.186C569.238 102.164 570.508 102.472 571.637 103.081C572.698 103.663 573.568 104.534 574.142 105.589C574.753 106.736 575.06 108.018 575.033 109.314C575.037 109.657 575.011 110.001 574.953 110.34ZM565.163 105.53C564.462 106.117 564.012 106.987 563.813 108.141H571.888C571.711 106.987 571.285 106.117 570.611 105.53C569.936 104.943 569.045 104.649 567.938 104.649C566.793 104.649 565.868 104.943 565.163 105.53Z" fill="#201E5A"/>
<path d="M591.544 102.508V116.269H588.722L588.544 114.213H588.454C588.022 114.973 587.363 115.582 586.568 115.959C585.686 116.389 584.714 116.605 583.73 116.59C582.505 116.603 581.301 116.276 580.254 115.645C579.208 115.013 578.352 114.117 577.775 113.049C577.179 111.918 576.868 110.663 576.868 109.388C576.868 108.114 577.179 106.859 577.775 105.728C578.347 104.656 579.205 103.759 580.254 103.131C581.303 102.507 582.506 102.182 583.73 102.194C584.714 102.179 585.686 102.395 586.568 102.825C587.363 103.202 588.022 103.811 588.454 104.571H588.544L588.722 102.516L591.544 102.508ZM581.206 112.571C582.026 113.379 583.137 113.832 584.295 113.832C585.453 113.832 586.564 113.379 587.384 112.571C588.188 111.699 588.614 110.552 588.571 109.373C588.611 108.205 588.184 107.068 587.384 106.205C586.564 105.398 585.453 104.945 584.295 104.945C583.137 104.945 582.026 105.398 581.206 106.205C580.404 107.067 579.977 108.204 580.016 109.373C579.974 110.552 580.401 111.7 581.206 112.571Z" fill="#201E5A"/>
<path d="M614.894 103.712C615.825 104.728 616.291 106.129 616.291 107.917V116.278H613.21V108.698C613.21 107.467 612.952 106.537 612.437 105.911C611.921 105.284 611.188 104.972 610.241 104.974C609.779 104.959 609.32 105.043 608.895 105.221C608.47 105.398 608.089 105.664 607.778 106C607.135 106.686 606.814 107.615 606.814 108.787V116.268H603.724V108.698C603.724 107.467 603.467 106.537 602.952 105.911C602.69 105.599 602.356 105.352 601.98 105.189C601.604 105.026 601.193 104.952 600.784 104.974C600.321 104.958 599.861 105.041 599.436 105.219C599.009 105.396 598.628 105.662 598.316 106C597.684 106.686 597.367 107.615 597.367 108.787V116.268H594.276V102.508H597.099L597.277 104.679H597.395C597.743 103.907 598.332 103.266 599.075 102.847C599.895 102.407 600.814 102.179 601.747 102.187C602.68 102.194 603.595 102.436 604.408 102.889C605.188 103.37 605.8 104.078 606.161 104.914H606.248C606.671 104.067 607.344 103.367 608.179 102.906C609.068 102.417 610.073 102.169 611.092 102.186C612.695 102.186 613.962 102.695 614.894 103.712Z" fill="#201E5A"/>
<path d="M632.244 110.341H621.075C621.212 111.576 621.652 112.51 622.398 113.143C623.142 113.776 624.127 114.094 625.353 114.097C626.224 114.129 627.089 113.931 627.857 113.524C628.157 113.367 628.422 113.153 628.636 112.894C628.852 112.635 629.013 112.336 629.109 112.015H632.082C631.779 113.352 630.974 114.526 629.828 115.299C628.621 116.16 627.118 116.59 625.32 116.59C623.981 116.616 622.658 116.302 621.476 115.68C620.387 115.095 619.491 114.214 618.891 113.143C618.262 111.996 617.944 110.708 617.969 109.403C617.948 108.104 618.265 106.82 618.891 105.677C619.488 104.6 620.378 103.711 621.461 103.109C622.615 102.482 623.915 102.164 625.233 102.187C626.522 102.163 627.797 102.471 628.929 103.082C629.99 103.664 630.859 104.534 631.433 105.59C632.044 106.737 632.349 108.019 632.323 109.314C632.327 109.658 632.301 110.002 632.244 110.341ZM622.458 105.531C621.757 106.117 621.306 106.988 621.107 108.142H629.187C629.01 106.988 628.584 106.117 627.91 105.531C627.236 104.944 626.343 104.65 625.233 104.65C624.087 104.65 623.162 104.944 622.458 105.531Z" fill="#201E5A"/>
<path d="M643.013 102.451V105.258C642.56 105.183 642.103 105.144 641.645 105.142C640.261 105.142 639.197 105.577 638.452 106.447C637.707 107.318 637.337 108.643 637.341 110.422V116.261H634.247V102.508H637.069L637.248 105.149H637.338C637.668 104.266 638.276 103.51 639.073 102.993C639.866 102.493 640.792 102.235 641.733 102.251C642.168 102.238 642.602 102.306 643.013 102.451Z" fill="#201E5A"/>
<path d="M659.178 102.507L650.277 122.604H646.969L650.027 115.855L644.116 102.5H647.415L651.603 112.563H651.693L655.85 102.5L659.178 102.507Z" fill="#201E5A"/>
<path d="M508.39 119.625L513.166 122.345V104.408C513.165 103.994 513.055 103.588 512.845 103.229C512.635 102.871 512.334 102.574 511.971 102.367C511.608 102.16 511.197 102.051 510.778 102.051C510.358 102.051 509.947 102.159 509.584 102.366C509.221 102.573 508.919 102.871 508.71 103.229C508.5 103.587 508.39 103.994 508.39 104.408V119.625Z" fill="#F15852"/>
<path d="M504.426 98.0631C504.063 97.8565 503.651 97.7479 503.232 97.748C502.813 97.7483 502.402 97.8574 502.039 98.0644C501.676 98.2714 501.375 98.5691 501.166 98.9274C500.957 99.2858 500.847 99.6922 500.847 100.106V112.583C500.846 113.416 501.068 114.234 501.489 114.955C501.911 115.676 502.518 116.275 503.248 116.691L505.62 118.043V100.106C505.62 99.6919 505.509 99.2852 505.3 98.9267C505.09 98.5681 504.789 98.2703 504.426 98.0631Z" fill="#F15852"/>
<path d="M532.778 106.719V101.278L517.04 110.243C516.677 110.451 516.376 110.749 516.167 111.107C515.958 111.466 515.848 111.872 515.848 112.286C515.848 112.7 515.958 113.106 516.168 113.464C516.377 113.822 516.678 114.119 517.041 114.326C517.404 114.532 517.815 114.641 518.234 114.642C518.652 114.642 519.064 114.533 519.427 114.326L532.778 106.719Z" fill="#F15852"/>
<path d="M515.852 120.888C515.851 121.302 515.962 121.708 516.171 122.067C516.38 122.425 516.681 122.723 517.044 122.93C517.407 123.137 517.818 123.246 518.237 123.246C518.656 123.246 519.068 123.138 519.43 122.931L530.375 116.691C531.105 116.275 531.711 115.676 532.132 114.955C532.554 114.234 532.776 113.416 532.777 112.583V109.878L517.039 118.86C516.679 119.067 516.381 119.363 516.172 119.719C515.964 120.074 515.854 120.477 515.852 120.888Z" fill="#F15852"/>
<path d="M509.274 92.3184L504.501 95.0388L520.224 104.021C520.587 104.228 520.998 104.337 521.417 104.337C521.836 104.337 522.248 104.228 522.611 104.021C522.974 103.814 523.275 103.517 523.485 103.158C523.695 102.8 523.805 102.393 523.805 101.98C523.805 101.566 523.695 101.159 523.485 100.801C523.275 100.442 522.974 100.145 522.611 99.9381L509.274 92.3184Z" fill="#F15852"/>
<path d="M530.157 99.7057C530.519 99.4987 530.82 99.2012 531.029 98.8431C531.238 98.485 531.348 98.0788 531.348 97.6654C531.348 97.2519 531.238 96.8457 531.029 96.4876C530.82 96.1294 530.519 95.832 530.157 95.625L519.212 89.3853C518.482 88.9685 517.654 88.749 516.811 88.749C515.969 88.749 515.141 88.9685 514.411 89.3853L512.029 90.7381L527.762 99.7057C528.126 99.9149 528.539 100.025 528.959 100.025C529.38 100.025 529.793 99.9149 530.157 99.7057Z" fill="#F15852"/>
<rect y="296" width="216" height="100" rx="20" fill="white"/>
<rect x="0.5" y="296.5" width="215" height="99" rx="19.5" stroke="#5555C4" stroke-opacity="0.2"/>
<path d="M51.1133 332.645L27.1121 345.945C26.9266 341.83 28.4105 337.642 31.6007 334.519C36.9055 329.228 45.1408 328.641 51.1133 332.645Z" fill="#082A41"/>
<path d="M53.3755 334.482L38.9451 360.127C36.2742 359.502 33.7146 358.143 31.6372 356.085C29.5598 354.028 28.1873 351.493 27.5566 348.848L53.3755 334.482Z" fill="#34B3CE"/>
<path d="M53.3757 356.048C50.1855 359.207 45.9936 360.677 41.8389 360.493L55.2305 336.723C59.3111 342.674 58.6805 350.794 53.3757 356.048Z" fill="#082A41"/>
<path d="M77.0057 335.437H74.4832L65.8027 355.239H68.9188L75.6703 338.67L79.3799 347.965H73.7042L72.7026 350.389H80.3815L82.4218 355.239H85.5749L77.0057 335.437Z" fill="#082A41"/>
<path d="M95.368 345.32C95.0712 344.843 94.626 344.439 94.1067 344.145C93.5502 343.851 92.9567 343.667 92.289 343.667C91.9922 343.667 91.6954 343.704 91.3987 343.777C91.1019 343.851 90.8422 343.961 90.5826 344.071C90.36 344.218 90.1745 344.402 90.0261 344.586C89.8777 344.806 89.8036 345.063 89.8036 345.394C89.8036 345.945 90.0632 346.386 90.5826 346.643C91.1019 346.9 91.8438 347.157 92.8825 347.378C93.5132 347.525 94.1067 347.708 94.6631 347.892C95.2196 348.112 95.7018 348.37 96.0728 348.664C96.4808 348.957 96.7776 349.325 97.0002 349.766C97.2227 350.207 97.334 350.684 97.334 351.272C97.334 352.044 97.1857 352.705 96.8889 353.256C96.5921 353.807 96.1841 354.248 95.7018 354.579C95.2196 354.909 94.626 355.166 93.9954 355.313C93.3648 355.46 92.697 355.534 92.0293 355.534C91.0277 355.534 90.0261 355.35 89.0616 354.946C88.0971 354.542 87.281 353.954 86.6504 353.146L88.5423 351.566C88.9132 352.08 89.3955 352.521 90.0261 352.889C90.6568 353.256 91.3616 353.403 92.1035 353.403C92.4374 353.403 92.7712 353.366 93.068 353.293C93.3648 353.219 93.6615 353.109 93.9212 352.962C94.1809 352.815 94.3664 352.631 94.5147 352.374C94.6631 352.117 94.7373 351.823 94.7373 351.456C94.7373 350.831 94.4405 350.39 93.847 350.096C93.2535 349.802 92.4003 349.509 91.2503 349.251C90.8051 349.141 90.36 348.994 89.8777 348.847C89.4326 348.7 88.9874 348.48 88.6165 348.186C88.2455 347.892 87.9488 347.561 87.6891 347.121C87.4665 346.716 87.3181 346.202 87.3181 345.577C87.3181 344.879 87.4665 344.255 87.7633 343.74C88.06 343.226 88.431 342.822 88.9132 342.491C89.3955 342.161 89.9148 341.94 90.5084 341.757C91.1019 341.61 91.7325 341.536 92.3632 341.536C93.3277 341.536 94.2551 341.72 95.1454 342.087C96.0357 342.455 96.7405 343.006 97.2228 343.704L95.368 345.32Z" fill="#082A41"/>
<path d="M109.576 345.32C109.28 344.879 108.872 344.549 108.315 344.255C107.759 343.961 107.165 343.814 106.497 343.814C105.793 343.814 105.199 343.961 104.643 344.218C104.123 344.475 103.641 344.843 103.27 345.284C102.899 345.724 102.602 346.239 102.417 346.79C102.231 347.378 102.12 347.966 102.12 348.59C102.12 349.215 102.231 349.839 102.417 350.39C102.602 350.978 102.899 351.493 103.27 351.897C103.641 352.338 104.123 352.668 104.643 352.962C105.199 353.219 105.793 353.366 106.497 353.366C107.165 353.366 107.796 353.219 108.352 352.962C108.909 352.705 109.354 352.338 109.725 351.897L111.505 353.476C110.949 354.138 110.244 354.652 109.391 354.983C108.538 355.35 107.573 355.534 106.497 355.534C105.459 355.534 104.494 355.35 103.641 355.019C102.751 354.689 102.009 354.211 101.378 353.623C100.748 353.036 100.228 352.301 99.8572 351.419C99.4863 350.574 99.3008 349.619 99.3008 348.553C99.3008 347.525 99.4863 346.569 99.8201 345.688C100.191 344.843 100.673 344.108 101.304 343.483C101.935 342.859 102.714 342.381 103.567 342.05C104.457 341.72 105.385 341.536 106.386 341.536C107.314 341.536 108.278 341.72 109.205 342.087C110.133 342.455 110.875 343.006 111.431 343.704L109.576 345.32Z" fill="#082A41"/>
<path d="M125.899 348.479C125.899 348.626 125.899 348.773 125.899 348.92C125.899 349.067 125.899 349.214 125.861 349.361H115.215C115.215 349.912 115.363 350.426 115.586 350.941C115.808 351.418 116.142 351.859 116.513 352.227C116.921 352.594 117.366 352.851 117.886 353.072C118.405 353.292 118.962 353.366 119.555 353.366C120.445 353.366 121.224 353.182 121.892 352.778C122.56 352.374 123.079 351.896 123.45 351.345L125.305 352.815C124.6 353.77 123.747 354.431 122.782 354.872C121.818 355.313 120.742 355.533 119.555 355.533C118.553 355.533 117.589 355.35 116.736 355.019C115.883 354.688 115.141 354.211 114.51 353.623C113.879 353.035 113.397 352.3 113.026 351.418C112.655 350.573 112.507 349.618 112.507 348.553C112.507 347.524 112.692 346.569 113.026 345.724C113.36 344.842 113.842 344.107 114.473 343.519C115.104 342.895 115.845 342.417 116.662 342.087C117.515 341.756 118.442 341.572 119.407 341.572C120.371 341.572 121.261 341.719 122.078 342.05C122.894 342.381 123.561 342.821 124.118 343.409C124.674 343.997 125.119 344.732 125.416 345.577C125.75 346.459 125.899 347.414 125.899 348.479ZM123.19 347.414C123.153 346.899 123.079 346.385 122.931 345.944C122.782 345.503 122.523 345.099 122.226 344.769C121.929 344.438 121.521 344.181 121.076 343.96C120.631 343.777 120.074 343.666 119.444 343.666C118.887 343.666 118.331 343.777 117.849 343.96C117.366 344.144 116.921 344.438 116.55 344.769C116.179 345.099 115.883 345.503 115.66 345.944C115.437 346.385 115.289 346.899 115.252 347.414H123.19Z" fill="#082A41"/>
<path d="M131.315 341.977C131.352 342.308 131.389 342.675 131.389 343.116C131.389 343.52 131.426 343.888 131.426 344.182H131.5C131.685 343.814 131.908 343.483 132.205 343.19C132.502 342.896 132.835 342.602 133.206 342.381C133.577 342.161 133.985 341.977 134.431 341.83C134.876 341.683 135.358 341.646 135.84 341.646C136.693 341.646 137.435 341.793 138.066 342.087C138.697 342.381 139.216 342.749 139.624 343.263C140.032 343.741 140.329 344.328 140.551 344.953C140.737 345.614 140.848 346.312 140.848 347.047V355.277H138.177V347.929C138.177 347.378 138.14 346.863 138.066 346.386C137.992 345.908 137.843 345.467 137.584 345.1C137.361 344.733 137.064 344.439 136.656 344.218C136.248 343.998 135.766 343.888 135.135 343.888C134.097 343.888 133.206 344.292 132.539 345.063C131.871 345.872 131.537 346.9 131.537 348.223V355.277H128.866V344.806C128.866 344.439 128.866 343.998 128.829 343.447C128.792 342.896 128.792 342.381 128.755 341.977H131.315Z" fill="#082A41"/>
<path d="M155.352 353.109C154.833 353.917 154.165 354.505 153.275 354.946C152.385 355.35 151.494 355.571 150.53 355.571C149.491 355.571 148.564 355.387 147.748 355.02C146.931 354.652 146.227 354.175 145.633 353.513C145.04 352.889 144.594 352.117 144.261 351.272C143.927 350.427 143.778 349.509 143.778 348.517C143.778 347.561 143.927 346.643 144.261 345.798C144.594 344.953 145.04 344.218 145.633 343.594C146.227 342.969 146.931 342.455 147.748 342.124C148.564 341.757 149.491 341.61 150.493 341.61C151.568 341.61 152.533 341.83 153.349 342.308C154.165 342.749 154.796 343.336 155.278 343.961H155.352V334.078H158.023V355.203H155.464V353.109H155.352ZM146.561 348.59C146.561 349.215 146.672 349.803 146.857 350.39C147.043 350.978 147.34 351.493 147.711 351.933C148.081 352.374 148.564 352.742 149.083 352.999C149.64 353.256 150.27 353.403 151.012 353.403C151.68 353.403 152.31 353.256 152.867 352.999C153.423 352.742 153.906 352.374 154.277 351.97C154.685 351.529 154.981 351.015 155.204 350.464C155.426 349.876 155.538 349.288 155.538 348.664C155.538 348.039 155.426 347.415 155.204 346.863C154.981 346.276 154.685 345.761 154.277 345.32C153.868 344.88 153.423 344.512 152.867 344.255C152.31 343.998 151.68 343.851 151.012 343.851C150.27 343.851 149.64 343.998 149.083 344.255C148.527 344.512 148.081 344.88 147.711 345.32C147.34 345.761 147.043 346.276 146.857 346.863C146.635 347.378 146.561 347.966 146.561 348.59Z" fill="#082A41"/>
<path d="M164.961 337.201C164.961 337.679 164.775 338.083 164.441 338.414C164.107 338.744 163.662 338.891 163.18 338.891C162.698 338.891 162.29 338.744 161.956 338.414C161.622 338.083 161.437 337.679 161.437 337.238C161.437 336.76 161.622 336.356 161.956 336.025C162.29 335.695 162.698 335.548 163.18 335.548C163.662 335.548 164.07 335.695 164.441 336.025C164.775 336.319 164.961 336.724 164.961 337.201ZM164.553 355.203H161.882V341.977H164.553V355.203Z" fill="#082A41"/>
<path d="M175.051 344.108H171.935V355.203H169.264V344.108H166.593V341.94H169.264V339.222C169.264 338.45 169.338 337.715 169.523 337.054C169.709 336.393 170.006 335.805 170.414 335.327C170.822 334.85 171.341 334.445 171.972 334.188C172.602 333.894 173.381 333.784 174.272 333.784C174.902 333.784 175.459 333.858 175.941 333.968L175.644 336.246C175.422 336.172 175.236 336.136 175.014 336.099C174.791 336.062 174.568 336.025 174.309 336.025C173.789 336.025 173.381 336.099 173.085 336.282C172.788 336.466 172.528 336.687 172.38 336.981C172.194 337.274 172.083 337.605 172.046 338.009C171.972 338.377 171.972 338.781 171.972 339.185V341.94H174.42L175.051 344.108Z" fill="#082A41"/>
<path d="M183.323 352.375H183.397L187.106 341.978H189.926L183.434 358.363C183.211 358.914 182.952 359.429 182.692 359.87C182.432 360.31 182.136 360.678 181.765 360.972C181.394 361.266 180.986 361.523 180.503 361.67C180.021 361.854 179.465 361.927 178.797 361.927C178.5 361.927 178.24 361.927 177.944 361.89C177.647 361.854 177.35 361.817 177.053 361.743L177.313 359.429C177.758 359.576 178.203 359.649 178.649 359.649C179.353 359.649 179.873 359.465 180.207 359.061C180.54 358.694 180.837 358.143 181.134 357.408L181.987 355.204L176.237 341.978H179.205L183.323 352.375Z" fill="#082A41"/>
<rect x="236" y="296" width="216" height="100" rx="20" fill="white"/>
<rect x="236.5" y="296.5" width="215" height="99" rx="19.5" stroke="#5555C4" stroke-opacity="0.2"/>
<path d="M322.29 362.079C322.256 362.134 322.256 362.2 322.223 362.266C320.677 365.458 318.524 368.307 315.885 370.67C315.056 371.421 314.118 372.039 313.113 372.525C312.539 372.79 311.931 372.989 311.313 373.1C311.225 373.1 311.158 373.166 311.07 373.166H309.491C309.369 373.133 309.281 373.1 309.16 373.078C307.094 372.658 305.493 371.012 305.14 368.936C304.919 367.81 304.93 366.651 305.173 365.524C305.56 363.481 306.101 361.482 306.785 359.528C308.033 355.718 309.314 351.908 310.562 348.109C311.324 345.824 312.053 343.538 312.782 341.252C313.025 340.457 313.212 339.639 313.389 338.844C313.477 338.458 313.455 338.06 313.323 337.685C313.201 337.177 312.782 336.79 312.252 336.713C311.699 336.603 311.125 336.669 310.606 336.901C309.999 337.166 309.447 337.519 308.961 337.972C308.033 338.811 307.172 339.728 306.399 340.711C305.526 341.76 304.775 342.919 304.179 344.156C304.124 344.244 304.091 344.344 303.969 344.344H302.048C302.081 344.255 302.081 344.189 302.103 344.156C303.351 341.583 305.018 339.242 307.039 337.21C308.055 336.183 309.215 335.311 310.485 334.626C311.434 334.118 312.483 333.831 313.566 333.798C315.929 333.732 317.983 335.443 318.314 337.784C318.469 338.8 318.436 339.827 318.226 340.832C317.795 342.897 317.254 344.929 316.58 346.928L311.733 361.637C311.202 363.183 310.761 364.762 310.418 366.363C310.253 367.081 310.242 367.832 310.385 368.561C310.429 368.881 310.573 369.19 310.783 369.444C311.213 369.963 311.887 370.217 312.55 370.118C313.245 370.041 313.908 369.787 314.471 369.378C315.355 368.771 316.15 368.031 316.812 367.181C317.983 365.767 319.021 364.243 319.915 362.642L320.191 362.189H322.29V362.079V362.079Z" fill="#E51837"/>
<path d="M322.699 324.798C321.584 325.902 319.883 326.189 318.469 325.505C317.034 324.908 316.106 323.495 316.128 321.938C316.106 320.071 317.409 318.448 319.231 318.073C319.353 318.051 319.485 318.006 319.596 317.951H320.446C320.568 317.984 320.689 318.04 320.811 318.073C322.246 318.338 323.395 319.398 323.77 320.811C324.289 322.236 323.858 323.837 322.699 324.798Z" fill="#E51837"/>
<path d="M384.584 339.055C384.175 338.017 383.093 337.42 382 337.619C380.763 337.873 379.968 339.077 380.211 340.314C380.211 340.336 380.222 340.369 380.233 340.391C380.487 341.429 381.414 342.158 382.485 342.158C383.546 342.158 384.462 341.407 384.683 340.358C384.683 340.302 384.738 340.236 384.738 340.203V339.529C384.672 339.386 384.639 339.209 384.584 339.055ZM383.943 340.91C383.568 341.572 382.795 341.904 382.055 341.738C381.282 341.572 380.708 340.91 380.652 340.126V339.916C380.619 339.342 380.84 338.79 381.26 338.392C381.978 337.752 383.082 337.807 383.722 338.525C383.822 338.635 383.899 338.756 383.965 338.878C384.33 339.507 384.319 340.291 383.943 340.91Z" fill="#66676B"/>
<path d="M367.191 357.783V358.181C365.832 358.269 364.474 358.28 363.105 358.214V348.076C363.094 347.59 363.05 347.104 362.983 346.619C362.95 346.442 362.895 346.265 362.829 346.1C362.597 345.437 362.034 344.94 361.338 344.819C360.189 344.52 358.986 345.028 358.412 346.066C358.257 346.32 358.135 346.585 358.047 346.862C357.815 347.524 357.672 348.209 357.616 348.904C357.583 349.479 357.561 350.097 357.561 350.671V358.214C356.203 358.302 354.845 358.313 353.475 358.247V348.628C353.475 348.143 353.442 347.624 353.42 347.138C353.398 346.817 353.321 346.497 353.21 346.188C353.012 345.47 352.393 344.94 351.653 344.852C351.09 344.752 350.516 344.808 349.975 345.006C349.445 345.238 349.014 345.647 348.76 346.166C348.385 346.839 348.164 347.59 348.086 348.363C347.998 349.081 347.965 349.799 347.965 350.528V358.258C346.629 358.346 345.281 358.357 343.945 358.291C343.89 358.081 343.857 342.367 343.912 341.97C345.16 341.892 346.408 341.892 347.656 341.97C347.656 342.058 347.689 342.179 347.689 342.268V343.825C347.689 343.935 347.7 344.046 347.722 344.156C347.91 344.123 347.932 344.001 347.998 343.946C348.462 343.273 349.069 342.72 349.765 342.301C350.836 341.649 352.095 341.395 353.332 341.561C353.796 341.605 354.237 341.704 354.668 341.859C355.739 342.257 356.612 343.052 357.108 344.079C357.164 344.167 357.197 344.266 357.296 344.41C357.351 344.322 357.418 344.255 357.451 344.2C358.29 342.743 359.77 341.782 361.437 341.616C362.232 341.495 363.039 341.528 363.812 341.704C365.115 341.992 366.186 342.908 366.672 344.145C366.981 344.852 367.158 345.603 367.224 346.365C367.279 346.939 367.29 347.524 367.279 348.098C367.191 351.301 367.191 354.525 367.191 357.783Z" fill="#66676B"/>
<path d="M380.254 354.614C379.967 355.851 379.172 356.911 378.056 357.541C377.151 358.071 376.146 358.413 375.097 358.545C373.507 358.744 371.883 358.678 370.315 358.336L369.034 358.06C368.913 358.026 368.824 357.993 368.703 357.971C368.791 356.845 368.857 355.718 368.946 354.559C369.056 354.603 369.167 354.647 369.277 354.68C370.094 355.078 370.967 355.354 371.861 355.509C372.645 355.663 373.451 355.652 374.235 355.476C374.622 355.398 374.986 355.233 375.307 354.99C376.068 354.404 376.212 353.311 375.616 352.549C375.505 352.417 375.384 352.295 375.24 352.185C374.821 351.92 374.368 351.721 373.904 351.577C373.164 351.334 372.446 351.125 371.707 350.871C371.176 350.683 370.68 350.44 370.216 350.131C369.299 349.534 368.692 348.563 368.57 347.48C368.449 346.718 368.482 345.945 368.659 345.195C368.957 344.046 369.708 343.074 370.735 342.478C371.673 341.926 372.722 341.595 373.816 341.506C375.527 341.363 377.261 341.495 378.929 341.904C379.105 341.926 379.282 341.97 379.448 342.025C379.569 342.058 379.602 342.114 379.602 342.213C379.514 343.129 379.414 344.068 379.359 344.985C379.359 345.051 379.326 345.106 379.326 345.195C379.205 345.161 379.116 345.128 379.017 345.106C378.012 344.753 376.952 344.554 375.892 344.532C375.329 344.51 374.754 344.587 374.213 344.742C373.694 344.896 373.275 345.294 373.087 345.813C372.8 346.431 373.054 347.171 373.661 347.491C373.981 347.679 374.313 347.834 374.666 347.944L376.587 348.585C377.272 348.795 377.935 349.093 378.542 349.468C379.624 350.142 380.32 351.279 380.43 352.549C380.475 353.234 380.408 353.941 380.254 354.614Z" fill="#66676B"/>
<path d="M334.603 358.181C334.04 358.325 333.465 358.435 332.891 358.512C332.041 358.601 331.191 358.634 330.329 358.634C329.092 358.645 327.878 358.38 326.762 357.839C325.007 356.988 323.681 355.464 323.085 353.609C322.599 352.174 322.411 350.65 322.533 349.137C322.621 347.469 323.151 345.857 324.09 344.477C325.15 342.986 326.74 341.959 328.54 341.617C329.589 341.429 330.65 341.374 331.71 341.462C332.549 341.517 333.388 341.65 334.205 341.86C334.272 341.893 334.327 341.893 334.393 341.926C334.492 341.926 334.559 342.014 334.559 342.102C334.559 342.125 334.548 342.147 334.548 342.169C334.481 342.688 334.426 343.24 334.36 343.748C334.294 344.234 334.238 344.753 334.172 345.272C334.018 345.206 333.929 345.183 333.841 345.15C332.803 344.731 331.665 344.598 330.55 344.753C329.137 344.941 327.933 345.89 327.425 347.215C326.961 348.275 326.784 349.446 326.906 350.595C326.95 351.323 327.105 352.03 327.392 352.693C327.878 354.018 329.026 354.979 330.407 355.221C331.29 355.376 332.196 355.343 333.057 355.1C333.51 354.979 333.94 354.824 334.371 354.702C334.459 354.669 334.526 354.636 334.614 354.614C334.647 354.702 334.647 354.802 334.68 354.857C334.746 355.829 334.769 356.812 334.835 357.817C334.846 358.115 334.846 358.148 334.603 358.181Z" fill="#66676B"/>
<path d="M340.874 341.859V358.214C339.472 358.313 338.069 358.324 336.667 358.247C336.667 358.126 336.634 358.004 336.634 357.883V342.246C336.634 342.113 336.645 341.981 336.667 341.848C338.069 341.826 339.472 341.826 340.874 341.859Z" fill="#66676B"/>
<path d="M383.026 339.926C383.313 339.849 383.501 339.551 383.457 339.252C383.49 338.954 383.291 338.678 383.004 338.612C382.551 338.535 382.087 338.513 381.634 338.557C381.568 339.396 381.579 340.246 381.668 341.086H382.065V340.047C382.374 339.992 382.374 339.992 382.496 340.169C382.65 340.412 382.772 340.622 382.926 340.876C383.081 341.119 383.081 341.119 383.479 341.063C383.269 340.732 383.048 340.357 382.838 339.992C382.893 339.992 382.96 339.97 383.026 339.926ZM382.021 339.716V338.888C382.231 338.877 382.452 338.877 382.661 338.888C382.871 338.899 383.037 339.076 383.026 339.286C383.015 339.473 382.882 339.628 382.695 339.65C382.474 339.694 382.253 339.716 382.021 339.716Z" fill="#66676B"/>
<defs>
<linearGradient id="paint0_linear" x1="497.031" y1="226.243" x2="531.641" y2="226.243" gradientUnits="userSpaceOnUse">
<stop stop-color="#0054B9"/>
<stop offset="0.59" stop-color="#0054B9"/>
<stop offset="0.67" stop-color="#0256BD"/>
<stop offset="0.75" stop-color="#085EC9"/>
<stop offset="0.84" stop-color="#126ADD"/>
<stop offset="0.92" stop-color="#1F7CFA"/>
<stop offset="0.93" stop-color="#227FFF"/>
</linearGradient>
<linearGradient id="paint1_linear" x1="509.303" y1="239.149" x2="542.914" y2="239.149" gradientUnits="userSpaceOnUse">
<stop offset="0.06" stop-color="#0054B9"/>
<stop offset="0.16" stop-color="#0D64D3"/>
<stop offset="0.27" stop-color="#1873EB"/>
<stop offset="0.38" stop-color="#207CFA"/>
<stop offset="0.47" stop-color="#227FFF"/>
</linearGradient>
<linearGradient id="paint2_linear" x1="509.303" y1="239.003" x2="542.914" y2="239.003" gradientUnits="userSpaceOnUse">
<stop offset="0.06" stop-color="#0054B9"/>
<stop offset="0.39" stop-color="#0275EE"/>
<stop offset="0.71" stop-color="#0264F6"/>
<stop offset="1" stop-color="#025BFA"/>
</linearGradient>
<linearGradient id="paint3_linear" x1="507.273" y1="251.376" x2="527.049" y2="211.541" gradientUnits="userSpaceOnUse">
<stop offset="0.29" stop-color="#005BCC"/>
<stop offset="0.64" stop-color="#227FFF"/>
</linearGradient>
<clipPath id="clip0">
<rect width="149" height="45" fill="white" transform="translate(270 204)"/>
</clipPath>
<clipPath id="clip1">
<rect width="158" height="43" fill="white" transform="translate(265 85)"/>
</clipPath>
<clipPath id="clip2">
<rect width="165.425" height="46.5258" fill="white" transform="translate(497 203)"/>
</clipPath>
</defs>
</svg>
