<svg width="108" height="165" viewBox="0 0 108 165" fill="none" xmlns="http://www.w3.org/2000/svg">
<path d="M22.9763 94.5784L21.7434 95.1054L22.9763 94.5784ZM94.16 157.639C94.8255 157.314 95.1018 156.511 94.7771 155.846L89.4853 145C89.1606 144.335 88.3578 144.058 87.6923 144.383C87.0267 144.708 86.7505 145.511 87.0752 146.176L91.779 155.817L82.1385 160.52C81.473 160.845 81.1967 161.648 81.5214 162.313C81.8462 162.979 82.6489 163.255 83.3145 162.931L94.16 157.639ZM15.9167 0.450818C14.6113 0.144199 14.6112 0.144742 14.611 0.145477C14.6109 0.145976 14.6107 0.146901 14.6105 0.1479C14.61 0.149896 14.6094 0.152655 14.6086 0.156173C14.6069 0.163208 14.6046 0.173279 14.6016 0.186358C14.5955 0.212517 14.5868 0.25071 14.5755 0.300724C14.553 0.400751 14.5202 0.548065 14.4785 0.74095C14.3952 1.12671 14.2762 1.69481 14.132 2.43151C13.8436 3.90483 13.4541 6.05299 13.0464 8.76614C12.2313 14.1915 11.3429 21.8815 11.0468 30.9565C10.455 49.0892 12.2246 72.8383 21.7434 95.1054L24.2092 94.0513C14.9024 72.2801 13.1422 48.9655 13.727 31.044C14.0192 22.0918 14.8957 14.5072 15.6984 9.16458C16.0996 6.49377 16.4823 4.38466 16.7637 2.9467C16.9045 2.22776 17.0199 1.67671 17.0997 1.30724C17.1397 1.12251 17.1707 0.983185 17.1915 0.890977C17.2019 0.844874 17.2097 0.810551 17.2149 0.788223C17.2174 0.777059 17.2193 0.768893 17.2205 0.763753C17.2211 0.761183 17.2215 0.75937 17.2218 0.758316C17.2219 0.757789 17.222 0.757569 17.222 0.757306C17.222 0.757276 17.222 0.757437 15.9167 0.450818ZM21.7434 95.1054C31.3019 117.466 49.1927 133.111 64.6021 143.144C72.3166 148.167 79.4363 151.801 84.6303 154.181C87.228 155.371 89.3461 156.248 90.8185 156.829C91.5548 157.12 92.1298 157.337 92.5229 157.481C92.7194 157.554 92.8705 157.608 92.9735 157.645C93.025 157.663 93.0644 157.677 93.0916 157.686C93.1052 157.691 93.1156 157.695 93.123 157.697C93.1267 157.698 93.1296 157.699 93.1317 157.7C93.1328 157.701 93.1338 157.701 93.1343 157.701C93.1351 157.701 93.1357 157.702 93.572 156.434C94.0084 155.166 94.0086 155.166 94.0086 155.166C94.0083 155.166 94.0081 155.166 94.0076 155.166C94.0066 155.165 94.0048 155.165 94.0022 155.164C93.997 155.162 93.9886 155.159 93.9773 155.155C93.9545 155.147 93.9194 155.135 93.8724 155.118C93.7783 155.084 93.6364 155.033 93.4491 154.965C93.0747 154.827 92.5191 154.617 91.803 154.335C90.3707 153.77 88.2972 152.911 85.7473 151.743C80.646 149.405 73.6466 145.833 66.0653 140.897C50.8833 131.012 33.4762 115.729 24.2092 94.0513L21.7434 95.1054Z" fill="#0084FF"/>
</svg>
