<svg width="453" height="110" viewBox="0 0 453 110" fill="none" xmlns="http://www.w3.org/2000/svg">
<path d="M146.35 37.3867C140.836 37.3867 135.446 38.9996 130.862 42.0213C126.278 45.043 122.705 49.338 120.595 54.3629C118.485 59.3879 117.933 64.9172 119.008 70.2517C120.084 75.5862 122.739 80.4862 126.638 84.3321C130.536 88.1781 135.503 90.7972 140.911 91.8583C146.319 92.9194 151.924 92.3748 157.018 90.2934C162.111 88.212 166.465 84.6872 169.528 80.1649C172.592 75.6425 174.227 70.3257 174.227 64.8867C174.227 57.5933 171.289 50.5985 166.062 45.4413C160.834 40.284 153.743 37.3867 146.35 37.3867ZM146.35 82.0742C142.904 82.0742 139.535 81.0662 136.67 79.1776C133.805 77.289 131.571 74.6047 130.253 71.4641C128.934 68.3235 128.589 64.8676 129.261 61.5336C129.934 58.1995 131.593 55.137 134.03 52.7333C136.466 50.3296 139.571 48.6927 142.951 48.0295C146.33 47.3663 149.833 47.7067 153.017 49.0075C156.201 50.3084 158.922 52.5114 160.836 55.3379C162.751 58.1643 163.773 61.4873 163.773 64.8867C163.773 69.4451 161.937 73.8168 158.67 77.0401C155.402 80.2634 150.97 82.0742 146.35 82.0742Z" fill="#D11F12"/>
<path d="M216.045 37.3867H181.199V92.3867H191.653V78.6367H216.045C221.59 78.6367 226.908 76.4637 230.829 72.5958C234.75 68.7279 236.953 63.4818 236.953 58.0117C236.953 52.5416 234.75 47.2956 230.829 43.4276C226.908 39.5597 221.59 37.3867 216.045 37.3867ZM216.045 68.3242H191.653V47.6992H216.045C218.818 47.6992 221.477 48.7857 223.437 50.7197C225.398 52.6536 226.499 55.2767 226.499 58.0117C226.499 60.7468 225.398 63.3698 223.437 65.3038C221.477 67.2377 218.818 68.3242 216.045 68.3242Z" fill="#D11F12"/>
<path d="M271.795 37.3867V47.6992H254.372V92.3867H243.918V37.3867H271.795Z" fill="#D11F12"/>
<path d="M327.549 37.3867C322.035 37.3867 316.646 38.9996 312.061 42.0213C307.477 45.043 303.904 49.338 301.794 54.3629C299.684 59.3879 299.132 64.9172 300.208 70.2517C301.283 75.5862 303.938 80.4862 307.837 84.3321C311.736 88.1781 316.703 90.7972 322.11 91.8583C327.518 92.9194 333.123 92.3748 338.217 90.2934C343.311 88.212 347.664 84.6872 350.728 80.1649C353.791 75.6425 355.426 70.3257 355.426 64.8867C355.426 57.5933 352.489 50.5985 347.261 45.4413C342.033 40.284 334.942 37.3867 327.549 37.3867ZM327.549 82.0742C324.103 82.0742 320.734 81.0662 317.869 79.1776C315.004 77.289 312.771 74.6047 311.452 71.4641C310.133 68.3235 309.788 64.8676 310.461 61.5336C311.133 58.1995 312.792 55.137 315.229 52.7333C317.665 50.3296 320.77 48.6927 324.15 48.0295C327.53 47.3663 331.033 47.7067 334.216 49.0075C337.4 50.3084 340.121 52.5114 342.036 55.3379C343.95 58.1643 344.972 61.4873 344.972 64.8867C344.972 69.4451 343.136 73.8168 339.869 77.0401C336.601 80.2634 332.17 82.0742 327.549 82.0742Z" fill="#140302"/>
<path d="M397.245 37.3867H362.398V92.3867H372.852V78.6367H397.245C402.79 78.6367 408.107 76.4637 412.028 72.5958C415.949 68.7279 418.152 63.4818 418.152 58.0117C418.152 52.5416 415.949 47.2956 412.028 43.4276C408.107 39.5597 402.79 37.3867 397.245 37.3867ZM397.245 68.3242H372.852V47.6992H397.245C400.017 47.6992 402.676 48.7857 404.636 50.7197C406.597 52.6536 407.698 55.2767 407.698 58.0117C407.698 60.7468 406.597 63.3698 404.636 65.3038C402.676 67.2377 400.017 68.3242 397.245 68.3242Z" fill="#140302"/>
<path d="M452.994 37.3867V47.6992H435.571V92.3867H425.117V37.3867H452.994Z" fill="#140302"/>
<path d="M278.765 30.5117V92.3867H292.703V30.5117H452.996V16.7617H118.473V30.5117H278.765Z" fill="#140302"/>
<path d="M27.8757 39.2819C30.0744 39.2819 31.8569 37.5236 31.8569 35.3546C31.8569 33.1856 30.0744 31.4272 27.8757 31.4272C25.677 31.4272 23.8945 33.1856 23.8945 35.3546C23.8945 37.5236 25.677 39.2819 27.8757 39.2819Z" fill="#140302"/>
<path d="M27.8787 19.6455C24.727 19.6455 21.6461 20.5676 19.0257 22.2951C16.4053 24.0226 14.363 26.4779 13.1573 29.3505C11.9516 32.223 11.6366 35.3838 12.2521 38.4331C12.8676 41.4823 14.386 44.2829 16.6152 46.4808C18.8444 48.6787 21.6843 50.175 24.7756 50.7805C27.867 51.386 31.0709 51.0735 33.9822 49.8825C36.8935 48.6916 39.3814 46.6756 41.1311 44.0897C42.8808 41.5037 43.8138 38.464 43.8121 35.3549C43.8121 33.2912 43.3999 31.2477 42.5991 29.3412C41.7983 27.4347 40.6245 25.7025 39.1448 24.2436C37.6651 22.7848 35.9086 21.6278 33.9755 20.8388C32.0424 20.0499 29.9707 19.6444 27.8787 19.6455ZM27.8787 45.1775C25.9094 45.1775 23.9842 44.6015 22.3467 43.5221C20.7093 42.4428 19.433 40.9087 18.6794 39.1139C17.9257 37.319 17.7286 35.344 18.1128 33.4386C18.497 31.5332 19.4453 29.7829 20.8379 28.4092C22.2304 27.0355 24.0046 26.1 25.9361 25.721C27.8677 25.342 29.8698 25.5365 31.6892 26.2799C33.5087 27.0234 35.0638 28.2824 36.1579 29.8977C37.252 31.513 37.836 33.4121 37.836 35.3549C37.836 37.96 36.7869 40.4584 34.9196 42.3006C33.0522 44.1427 30.5196 45.1775 27.8787 45.1775Z" fill="#140302"/>
<path d="M67.696 39.2819C69.8947 39.2819 71.6772 37.5236 71.6772 35.3546C71.6772 33.1856 69.8947 31.4272 67.696 31.4272C65.4973 31.4272 63.7148 33.1856 63.7148 35.3546C63.7148 37.5236 65.4973 39.2819 67.696 39.2819Z" fill="#140302"/>
<path d="M67.699 19.6455C64.5473 19.6455 61.4664 20.5676 58.846 22.2951C56.2256 24.0226 54.1834 26.4779 52.9777 29.3505C51.772 32.2231 51.4569 35.3839 52.0724 38.4331C52.6879 41.4823 54.2063 44.283 56.4355 46.4808C58.6647 48.6787 61.5046 50.175 64.5959 50.7805C67.6873 51.386 70.8912 51.0735 73.8025 49.8825C76.7138 48.6916 79.2017 46.6756 80.9514 44.0897C82.7012 41.5037 83.6342 38.464 83.6325 35.3549C83.6336 33.2909 83.2222 31.2469 82.4218 29.3399C81.6213 27.4328 80.4476 25.7002 78.9677 24.2411C77.4878 22.782 75.7308 21.6251 73.7972 20.8366C71.8636 20.048 69.7914 19.6433 67.699 19.6455ZM67.699 45.1776C65.7297 45.1776 63.8045 44.6015 62.1671 43.5221C60.5296 42.4428 59.2533 40.9087 58.4997 39.1139C57.7461 37.319 57.5489 35.344 57.9331 33.4386C58.3173 31.5332 59.2656 29.783 60.6582 28.4092C62.0507 27.0355 63.8249 26.1 65.7565 25.721C67.688 25.342 69.6901 25.5365 71.5095 26.2799C73.329 27.0234 74.8841 28.2824 75.9782 29.8977C77.0724 31.513 77.6563 33.4122 77.6563 35.3549C77.6575 36.6451 77.4007 37.923 76.9007 39.1152C76.4007 40.3075 75.6673 41.3907 74.7425 42.3031C73.8176 43.2154 72.7195 43.9389 71.5109 44.4321C70.3023 44.9254 69.007 45.1787 67.699 45.1776Z" fill="#140302"/>
<path d="M83.6354 70.7181V51.0728H51.7773V56.9681H59.7397V70.7181C59.8238 73.7889 61.1194 76.7061 63.3509 78.8488C65.5824 80.9915 68.5735 82.1904 71.6876 82.1904C74.8016 82.1904 77.7927 80.9915 80.0242 78.8488C82.2557 76.7061 83.5514 73.7889 83.6354 70.7181ZM65.7158 70.7181V56.9681H77.6593V70.7181C77.6003 72.2415 76.9453 73.6832 75.8319 74.7405C74.7184 75.7977 73.233 76.3883 71.6876 76.3883C70.1421 76.3883 68.6567 75.7977 67.5432 74.7405C66.4298 73.6832 65.7748 72.2415 65.7158 70.7181Z" fill="#140302"/>
<path d="M11.9453 70.7181V51.0728H43.8121V56.9681H35.8411V70.7181C35.757 73.7889 34.4613 76.7061 32.2298 78.8488C29.9983 80.9915 27.0072 82.1904 23.8932 82.1904C20.7791 82.1904 17.788 80.9915 15.5565 78.8488C13.325 76.7061 12.0294 73.7889 11.9453 70.7181ZM29.8737 70.7181V56.9681H17.9214V70.7181C17.9214 72.2816 18.5511 73.7811 19.6718 74.8867C20.7925 75.9923 22.3126 76.6134 23.8975 76.6134C25.4825 76.6134 27.0026 75.9923 28.1233 74.8867C29.244 73.7811 29.8737 72.2816 29.8737 70.7181Z" fill="#140302"/>
<path d="M83.6354 98.218H77.6593V88.3953H51.7773V82.5H83.6354V98.218Z" fill="#140302"/>
<path d="M11.9453 98.218H17.9214V88.3953H43.8121V82.5H11.9453V98.218Z" fill="#140302"/>
<path d="M43.8121 19.6455V98.2182H51.7745V19.6455H83.6326V11.7822H11.9453V19.6455H43.8121Z" fill="#140302"/>
<path d="M0 0V110H95.5743V0H0ZM89.6069 104.105H5.97612V5.89531H89.6069V104.105Z" fill="#140302"/>
</svg>
