<?xml version="1.0" encoding="utf-8"?>
<!-- Generator: Adobe Illustrator 21.0.2, SVG Export Plug-In . SVG Version: 6.00 Build 0)  -->
<svg version="1.1" id="Слой_1" xmlns="http://www.w3.org/2000/svg" xmlns:xlink="http://www.w3.org/1999/xlink" x="0px" y="0px"
	 viewBox="0 0 241.9 210.2" style="enable-background:new 0 0 241.9 210.2;" xml:space="preserve">
<style type="text/css">
	.st0{clip-path:url(#SVGID_2_);}
	.st1{fill:#fff;}
</style>
<title>Ресурс 1</title>
<g id="Слой_2">
	<g id="_1">
		<g>
			<defs>
				<polygon id="SVGID_1_" points="241.9,210.2 0,210.2 120.8,0 				"/>
			</defs>
			<clipPath id="SVGID_2_">
				<use xlink:href="#SVGID_1_"  style="overflow:visible;"/>
			</clipPath>
			<g class="st0">
				<polygon class="st1" points="0,210.2 13.5,210.2 134.3,0 120.8,0 				"/>
				<polygon class="st1" points="21.3,210.2 34.8,210.2 155.6,0 142.1,0 				"/>
				<polygon class="st1" points="41.8,210.2 55.3,210.2 176.1,0 162.6,0 				"/>
				<polygon class="st1" points="62.5,210.2 76,210.2 196.8,0 183.3,0 				"/>
				<polygon class="st1" points="83.2,210.2 96.7,210.2 217.5,0 204,0 				"/>
				<polygon class="st1" points="103.9,210.2 117.4,210.2 238.3,0 224.8,0 				"/>
				<polygon class="st1" points="124.8,210.2 138.3,210.2 259.1,0 245.6,0 				"/>
				<polygon class="st1" points="145.4,210.2 158.9,210.2 279.8,0 266.3,0 				"/>
				<polygon class="st1" points="166.3,210.2 179.8,210.2 300.6,0 287.1,0 				"/>
				<polygon class="st1" points="186.9,210.2 200.4,210.2 321.3,0 307.8,0 				"/>
				<polygon class="st1" points="207.6,210.2 221.1,210.2 342,0 328.5,0 				"/>
				<polygon class="st1" points="228.4,210.2 241.9,210.2 362.8,0 349.3,0 				"/>
			</g>
		</g>
	</g>
</g>
</svg>
