<svg width="46" height="46" viewBox="0 0 46 46" fill="none" xmlns="http://www.w3.org/2000/svg">
<g clip-path="url(#clip0)">
<path d="M45.4393 22.8862C46.3593 21.3908 46.1284 19.486 44.8777 18.254L43.0844 16.4872C42.6776 16.0864 42.4674 15.5296 42.508 14.9599L42.6877 12.4365C42.813 10.6771 41.7211 9.09272 40.0325 8.58361L37.6579 7.86766C37.1074 7.70161 36.6606 7.30392 36.4321 6.77639L35.4381 4.48316C34.7434 2.87982 32.994 1.96053 31.2799 2.29694L28.8705 2.76984C28.3035 2.88117 27.7203 2.73677 27.2706 2.37368L25.3526 0.824966C23.9891 -0.276006 22.0099 -0.276006 20.6464 0.824966L18.7284 2.37368C18.2787 2.73677 17.6954 2.88099 17.1285 2.76984L14.7189 2.29685C13.0048 1.96035 11.2558 2.87964 10.5607 4.48271L9.56625 6.77657C9.33768 7.30401 8.8908 7.7017 8.34051 7.86766L5.96629 8.58352C4.27777 9.09263 3.1859 10.6769 3.31123 12.4363L3.49092 14.9599C3.53153 15.5296 3.32129 16.0863 2.91448 16.4872L1.12111 18.254C-0.129337 19.486 -0.360326 21.3908 0.559675 22.8861L1.88568 25.0411C2.1845 25.5269 2.25575 26.1168 2.08127 26.6597L1.30547 29.0726C0.767214 30.7467 1.44724 32.5429 2.95922 33.4407L5.10838 34.7168C5.6009 35.0093 5.93862 35.5009 6.03485 36.0656L6.45783 38.5471C6.75521 40.2916 8.1973 41.5712 9.96452 41.6591L12.4262 41.7815C13.0021 41.8101 13.5325 42.0897 13.8814 42.5489L15.3823 44.5238C16.1059 45.476 17.2312 45.999 18.3773 45.999C18.9095 45.999 19.4464 45.8863 19.9494 45.6516L22.1746 44.6123C22.6988 44.3676 23.3001 44.3676 23.8242 44.6123L26.0493 45.6516C27.6361 46.3925 29.5569 45.9183 30.6166 44.5237L32.117 42.5492C32.466 42.09 32.9964 41.8103 33.5724 41.7817L36.0345 41.6593C37.8018 41.5714 39.2438 40.2917 39.5412 38.5471L39.9641 36.0658C40.0603 35.5011 40.398 35.0094 40.8906 34.7171L43.0397 33.441C44.5518 32.5432 45.2317 30.7469 44.6935 29.0728L43.9177 26.6598C43.7431 26.1169 43.8143 25.527 44.1133 25.0413L45.4393 22.8862ZM31.7105 37.681C29.0022 39.2907 25.9946 40.0756 23.0073 40.0756C18.5946 40.0756 14.2262 38.3632 10.9313 35.068C8.48147 32.6178 6.85287 29.5288 6.22154 26.1346C5.60521 22.821 5.97106 19.4346 7.27954 16.3414C7.47288 15.8844 8 15.6708 8.45676 15.864C8.91362 16.0573 9.12736 16.5844 8.93401 17.0413C6.49835 22.7991 7.78105 29.3764 12.2015 33.7974C15.1498 36.7459 19.0591 38.2782 23.0071 38.2784C25.6796 38.2785 28.3697 37.5765 30.7927 36.1364C31.2191 35.8831 31.7703 36.0232 32.0238 36.4497C32.2772 36.8762 32.137 37.4275 31.7105 37.681ZM38.7196 29.6557C38.5746 29.9983 38.2419 30.2043 37.8918 30.2043C37.7751 30.2043 37.6564 30.1815 37.5423 30.1331C37.0854 29.9397 36.8717 29.4127 37.065 28.9558C39.5007 23.198 38.218 16.6207 33.7975 12.1997C28.8535 7.25513 21.2086 6.29316 15.2064 9.86069C14.7799 10.114 14.2288 9.97391 13.9752 9.54738C13.7219 9.12084 13.862 8.56959 14.2885 8.31612C20.9977 4.32861 29.5423 5.40317 35.0678 10.9291C37.5176 13.3793 39.1462 16.4684 39.7776 19.8625C40.3938 23.176 40.0281 26.5625 38.7196 29.6557Z" fill="#252525"/>
<circle cx="23" cy="23" r="18.5769" fill="#252525"/>
<path d="M28.9947 26.6833C28.9691 27.4625 29.0245 28.2468 28.856 29.0142C28.5323 30.4876 27.9624 31.8246 26.7734 32.7827C25.8859 33.4978 24.8717 33.8699 23.7472 33.9631C22.5521 34.062 21.3903 33.9772 20.2607 33.5235C19.0731 33.0464 18.2851 32.1436 17.6911 31.0209C17.2601 30.206 17.0795 29.318 17.0045 28.4045C16.9695 27.9768 17.1363 27.8117 17.5522 27.8093C18.1792 27.8057 18.8071 27.828 19.433 27.8C19.7662 27.7851 20.0016 27.8926 20.1756 28.1741C20.1818 28.2105 20.1881 28.247 20.1943 28.2834C20.181 28.431 20.155 28.5802 20.2485 28.7133C20.2644 29.3248 20.5426 29.7823 21.0197 30.1231C21.2615 30.3813 21.5871 30.4627 21.8999 30.5712C21.9418 30.5793 21.9839 30.5875 22.0258 30.5957C22.2136 30.6809 22.4046 30.7472 22.6145 30.7073C22.6535 30.7083 22.6923 30.7093 22.7313 30.7102C23.6189 30.7967 24.4251 30.5838 25.1014 29.9683C25.4262 29.6727 25.6178 29.2631 25.6842 28.8311C25.8586 27.6955 25.814 26.549 25.728 25.4087C25.6589 24.495 25.0957 23.9656 24.3143 23.6409C23.7889 23.4226 23.2431 23.3374 22.6792 23.3497C22.3561 23.3568 22.0324 23.3569 21.7094 23.3475C21.4078 23.3389 21.2637 23.1847 21.2603 22.8733C21.2542 22.3053 21.2598 21.737 21.2513 21.1691C21.247 20.8754 21.3882 20.6466 21.5302 20.4153C22.3434 19.0917 23.1568 17.7682 23.9714 16.4454C24.1136 16.2146 24.2679 15.9917 24.4045 15.7575C24.5678 15.4778 24.5093 15.3751 24.1911 15.3744C22.5746 15.3709 20.9581 15.3655 19.3416 15.3712C18.9924 15.3725 18.6518 15.2711 18.2922 15.3479C18.0447 15.4008 17.8156 15.1094 17.8177 14.8423C17.8235 14.1049 17.8308 13.3675 17.8337 12.6301C17.8356 12.1341 17.936 12.0235 18.4204 12.0226C19.6253 12.0202 20.8333 11.9651 22.0342 12.0361C23.3563 12.1144 24.6766 12.0325 25.9955 12.0938C26.6991 12.1266 27.4024 12.1132 28.1053 12.1437C28.4592 12.1591 28.6091 12.321 28.6029 12.7004C28.5915 13.3983 28.5748 14.0962 28.5661 14.7942C28.564 14.9645 28.5123 15.1084 28.4227 15.2478C27.5816 16.5552 26.7417 17.8635 25.9041 19.1733C25.672 19.5363 25.4513 19.9071 25.2193 20.2702C25.122 20.4225 25.1293 20.5285 25.3042 20.6013C25.4766 20.6731 25.6448 20.756 25.8181 20.8254C26.9032 21.26 27.7115 22.0106 28.2576 23.0757C28.8377 24.2075 29.0363 25.413 28.9947 26.6833Z" fill="white"/>
</g>
<defs>
<clipPath id="clip0">
<rect width="46" height="46" fill="white"/>
</clipPath>
</defs>
</svg>
