<svg id="chat" xmlns="http://www.w3.org/2000/svg" width="27" height="27" viewBox="0 0 27 27">
  <g id="Group_2415" data-name="Group 2415">
    <g id="Group_2414" data-name="Group 2414">
      <path id="Path_5172" data-name="Path 5172" d="M18.563,0H3.375A3.378,3.378,0,0,0,0,3.375V13.5a3.378,3.378,0,0,0,3.375,3.375v4.219a.845.845,0,0,0,.844.844.835.835,0,0,0,.548-.2l5.67-4.858h8.125A3.378,3.378,0,0,0,21.938,13.5V3.375A3.378,3.378,0,0,0,18.563,0ZM20.25,13.5a1.69,1.69,0,0,1-1.687,1.688H10.125a.831.831,0,0,0-.548.2L5.063,19.259V16.031a.844.844,0,0,0-.844-.844H3.375A1.69,1.69,0,0,1,1.688,13.5V3.375A1.69,1.69,0,0,1,3.375,1.688H18.563A1.69,1.69,0,0,1,20.25,3.375Z"/>
    </g>
  </g>
  <g id="Group_2417" data-name="Group 2417" transform="translate(8.556 5.214)">
    <g id="Group_2416" data-name="Group 2416">
      <path id="Path_5173" data-name="Path 5173" d="M178.428,98.91a.844.844,0,1,0-.55,1.6A1.669,1.669,0,0,1,179,102.088v10.125a1.69,1.69,0,0,1-1.687,1.688h-.844a.844.844,0,0,0-.844.844v3.228l-4.514-3.868a.831.831,0,0,0-.548-.2h-7.476a.844.844,0,0,0,0,1.688h7.163l5.67,4.858a.839.839,0,0,0,.9.127.844.844,0,0,0,.491-.766v-4.219a3.378,3.378,0,0,0,3.375-3.375V102.088A3.358,3.358,0,0,0,178.428,98.91Z" transform="translate(-162.24 -98.864)"/>
    </g>
  </g>
  <g id="Group_2419" data-name="Group 2419" transform="translate(5.063 5.063)">
    <g id="Group_2418" data-name="Group 2418">
      <path id="Path_5174" data-name="Path 5174" d="M106.969,96H96.844a.844.844,0,0,0,0,1.688h10.125a.844.844,0,0,0,0-1.687Z" transform="translate(-96 -96)"/>
    </g>
  </g>
  <g id="Group_2421" data-name="Group 2421" transform="translate(5.063 8.438)">
    <g id="Group_2420" data-name="Group 2420">
      <path id="Path_5175" data-name="Path 5175" d="M103.594,160h-6.75a.844.844,0,0,0,0,1.688h6.75a.844.844,0,0,0,0-1.687Z" transform="translate(-96 -160)"/>
    </g>
  </g>
</svg>
