<svg id="dimbuy" xmlns="http://www.w3.org/2000/svg" width="102.994" height="50.9" viewBox="0 0 102.994 50.9">
  <g id="Group_2352" data-name="Group 2352" transform="translate(0 14.51)">
    <path id="Path_5112" data-name="Path 5112" d="M0,21.055H4.962a37.52,37.52,0,0,1,6.493.36A5.329,5.329,0,0,1,14.028,22.6a3.522,3.522,0,0,1,1.1,1.845,22.21,22.21,0,0,1,.225,3.982v7.318a14.214,14.214,0,0,1-.324,3.768A2.843,2.843,0,0,1,13.9,41a5.164,5.164,0,0,1-1.983.746,21.513,21.513,0,0,1-3.558.214H0ZM6.63,24.63v13.75c.955,0,1.541-.152,1.762-.471a5.733,5.733,0,0,0,.329-2.562V27.224a9.112,9.112,0,0,0-.109-1.82.87.87,0,0,0-.507-.587A3.9,3.9,0,0,0,6.63,24.63Z" transform="translate(0 -21.055)" fill="#ec0b77"/>
    <path id="Path_5113" data-name="Path 5113" d="M32.137,21.055V23.78H25.586V21.055Zm0,3.768V41.958H25.586V24.823Z" transform="translate(-7.953 -21.055)" fill="#ec0b77"/>
    <path id="Path_5114" data-name="Path 5114" d="M44.686,26.383l-.111,1.629a4.756,4.756,0,0,1,1.763-1.452,5.38,5.38,0,0,1,2.329-.487,4.772,4.772,0,0,1,4.018,1.939A5.34,5.34,0,0,1,54.5,26.558a5.633,5.633,0,0,1,4.917.161,2.865,2.865,0,0,1,1.357,1.58,10.938,10.938,0,0,1,.3,3.038V43.516H54.9V32.347a11.593,11.593,0,0,0-.179-2.717.792.792,0,0,0-.842-.522.835.835,0,0,0-.877.515,10.947,10.947,0,0,0-.2,2.724v11.17H46.636V32.635a15.908,15.908,0,0,0-.153-3.026c-.1-.333-.373-.5-.822-.5a1.05,1.05,0,0,0-.725.264.941.941,0,0,0-.331.644c-.019.253-.03.8-.03,1.62V43.517H38.4V26.383Z" transform="translate(-11.937 -22.614)" fill="#ec0b77"/>
  </g>
  <path id="Path_5115" data-name="Path 5115" d="M74.751,21.055h6.614a21.061,21.061,0,0,1,4.745.4,4.719,4.719,0,0,1,2.606,1.618A6.234,6.234,0,0,1,89.705,27a3.65,3.65,0,0,1-.7,2.555,5.333,5.333,0,0,1-2.765,1.11,5.222,5.222,0,0,1,3.116,1.415,4.692,4.692,0,0,1,.819,3.031v1.938a6.5,6.5,0,0,1-.589,3.139,3.023,3.023,0,0,1-1.884,1.391,22.875,22.875,0,0,1-5.293.378H74.751Zm6.628,3.575v4.648c.278-.012.506-.014.662-.014.651,0,1.063-.128,1.243-.391a5.363,5.363,0,0,0,.269-2.254,3.111,3.111,0,0,0-.219-1.378.988.988,0,0,0-.578-.493A6.1,6.1,0,0,0,81.379,24.63Zm0,7.905V38.38a3.272,3.272,0,0,0,1.784-.358c.264-.215.39-.748.39-1.592V34.483c0-.9-.12-1.44-.345-1.629A3.652,3.652,0,0,0,81.379,32.536Z" transform="translate(-23.235 -6.545)" fill="#1e1e1e"/>
  <path id="Path_5116" data-name="Path 5116" d="M108.472,28.937v9.117a12.34,12.34,0,0,1-.132,2.492c-.09.257-.373.388-.839.388-.445,0-.713-.124-.816-.377a9.732,9.732,0,0,1-.154-2.373V28.362l-6.2-1.839h-.155V38.078a25.994,25.994,0,0,0,.108,2.953,3.571,3.571,0,0,0,.561,1.425,3.056,3.056,0,0,0,1.394,1.1,5.952,5.952,0,0,0,2.376.416,5.462,5.462,0,0,0,2.229-.435,4.145,4.145,0,0,0,1.627-1.3l-.109,1.422h6.469V30.822Z" transform="translate(-31.138 -8.244)" fill="#1e1e1e"/>
  <path id="Path_5117" data-name="Path 5117" d="M132.328,36.006v7.655l-1.972-8.26-5.777-1.711S127.4,45.218,127.4,45.356c0,.285-.283.463-.565.545a8.949,8.949,0,0,1-1.912.123v3.21l2.972-.039a15.957,15.957,0,0,0,3.848-.33,4.03,4.03,0,0,0,1.881-1.025,2.591,2.591,0,0,0,.614-1.1c.016-.051,2.71-9.338,2.71-9.338C136.945,37.434,132.328,36.006,132.328,36.006Z" transform="translate(-38.723 -10.472)" fill="#1e1e1e"/>
  <path id="Path_5118" data-name="Path 5118" d="M121.341,32.563" transform="translate(-37.717 -10.122)" fill="none" stroke="#231f20" stroke-miterlimit="10" stroke-width="0.729"/>
  <g id="Group_2353" data-name="Group 2353" transform="translate(99.032 31.837)">
    <path id="Path_5119" data-name="Path 5119" d="M147.659,48.125A1.981,1.981,0,1,1,145.7,46.2,1.941,1.941,0,0,1,147.659,48.125Zm-3.467,0a1.5,1.5,0,0,0,1.505,1.54,1.473,1.473,0,0,0,1.466-1.528,1.487,1.487,0,1,0-2.971-.012Zm1.187,1h-.447V47.2a5.722,5.722,0,0,1,.74-.057,1.02,1.02,0,0,1,.661.154.494.494,0,0,1,.2.412.5.5,0,0,1-.4.458v.024c.188.057.28.209.343.469a1.59,1.59,0,0,0,.14.471h-.471a1.548,1.548,0,0,1-.155-.471c-.035-.2-.152-.294-.4-.294h-.212v.764Zm.012-1.082h.212c.247,0,.447-.082.447-.283,0-.175-.13-.292-.415-.292a1.182,1.182,0,0,0-.244.021v.553Z" transform="translate(-143.698 -46.196)" fill="#1e1e1e"/>
  </g>
  <g id="Group_2354" data-name="Group 2354" transform="translate(63.9 0)">
    <rect id="Rectangle_713" data-name="Rectangle 713" width="5.952" height="0.742" transform="translate(25.897 13.423) rotate(16.828)" fill="#ec0b77"/>
    <rect id="Rectangle_714" data-name="Rectangle 714" width="5.95" height="0.731" transform="matrix(0.957, 0.29, -0.29, 0.957, 25.424, 14.977)" fill="#ec0b77"/>
    <rect id="Rectangle_715" data-name="Rectangle 715" width="5.954" height="0.73" transform="translate(24.961 16.521) rotate(16.828)" fill="#ec0b77"/>
    <path id="Path_5120" data-name="Path 5120" d="M136.279,14.914l-1.036-.314-.391,1.288,1.04.314Z" transform="translate(-105.816 -4.538)" fill="#ec0b77"/>
    <rect id="Rectangle_716" data-name="Rectangle 716" width="1.072" height="1.345" transform="translate(26.63 9.212) rotate(16.828)" fill="#ec0b77"/>
    <rect id="Rectangle_717" data-name="Rectangle 717" width="1.072" height="1.345" transform="translate(32.253 10.918) rotate(16.882)" fill="#ec0b77"/>
    <path id="Path_5121" data-name="Path 5121" d="M114.691,9.286l.194-.643-.93-.28-.561,1.858.717-1.11Z" transform="translate(-99.146 -2.599)" fill="#ec0b77"/>
    <path id="Path_5122" data-name="Path 5122" d="M109.755,8.7l-.5,1.663.929.279.215-.718-.566-.172Z" transform="translate(-97.86 -2.704)" fill="#ec0b77"/>
    <path id="Path_5123" data-name="Path 5123" d="M110.149,7.862l.54.163.057,1.216.527-1.741-.931-.28Z" transform="translate(-98.137 -2.244)" fill="#ec0b77"/>
    <rect id="Rectangle_718" data-name="Rectangle 718" width="1.174" height="3.683" transform="translate(17.721 16.481) rotate(-163.19)" fill="#ec0b77"/>
    <path id="Path_5124" data-name="Path 5124" d="M130.442,8.175l-1.388-.416L103.857.3A8.843,8.843,0,0,0,93.093,6.337c-1.322,4.452,1.027,9.118,4.58,10.562l27.581,8.183a2.306,2.306,0,0,0,2.9-1.786L131.7,11.321A2.738,2.738,0,0,0,130.442,8.175Zm-28.52,2.85,1.672.419.2-.655-1.545-.467.371-1.216,1.541.468.159-.524-1.61-.488,1.552-5.128,5.6,1.694-1.552,5.13-1.731-.522-.156.523,1.716.518-.37,1.217-1.713-.518-.161.537,1.9.473-.354,1.178-5.863-1.489Zm-1.451-2.515a1.644,1.644,0,1,1-1.107-2.039A1.646,1.646,0,0,1,100.472,8.509Zm.14,6.246.938-2.109,1.4.424-.911,2.116Zm2.079.629.429-2.263,1.147.348-.448,2.254Zm1.453.44.453-2.255,1.074.325-.415,2.266Zm1.4.423.425-2.263,1.167.352-.456,2.256Zm1.295.392,1.761-5.823,1.152.349L111.467,5.5l2.342.708-.669,2.212,2,.6-.37,1.218-2-.605-.678,2.238,1.817.551-1.759,5.823Zm18.351,4.167-.914-.278,1.181,1.759-3.01-.91-1.156-1.75-2.553-.772-1.956.807-3.061-.927,1.956-.807-.93-.28,1.84-6.074,10.441,3.159Zm2.306-6.489-11.1-3.357,1.072-3.546,11.1,3.358Z" transform="translate(-92.72 0)" fill="#ec0b77"/>
    <path id="Path_5125" data-name="Path 5125" d="M114.5,10.08l-.657.959-.593-.18-.216.72.928.283Z" transform="translate(-99.034 -3.133)" fill="#ec0b77"/>
  </g>
  <path id="Path_5126" data-name="Path 5126" d="M95.761,8.653c-.151-.289-.972-1.009-1.2-1.353a2.3,2.3,0,0,0-.421.347l.493.5c.179.163.373.341.49.464a27.136,27.136,0,0,1-8.75-.5c-1.821-.453-3.8-1.664-4.307-3.371-.528-1.807,1.949-2.056,3.378-2.079a9.4,9.4,0,0,1,5.395,1.747c.1-.134.206-.269.308-.388A10.32,10.32,0,0,0,84.36,2.237c-1.289.138-2.771.513-2.885,1.872-.117,1.433,1.116,2.637,2.325,3.431a13.449,13.449,0,0,0,6.238,1.652,33.643,33.643,0,0,0,5.269-.1c.061,0,.12-.014.186-.021a.31.31,0,0,0,.13-.021.267.267,0,0,0,.185-.2V8.839a.193.193,0,0,0,0-.05h0A.217.217,0,0,0,95.761,8.653Z" transform="translate(-25.323 -0.68)" fill="#071923"/>
  <g id="Group_2355" data-name="Group 2355" transform="translate(0.306 44.097)">
    <path id="Path_5127" data-name="Path 5127" d="M.444,68.433H7.179v.538H.444Z" transform="translate(-0.444 -65.368)" fill="#1e1e1e"/>
    <path id="Path_5128" data-name="Path 5128" d="M15.819,66.373c-.014.051-.072.072-.16.081-.1.727-.3,1.789-.487,2.517l.93-.212.051.428c-1.025.256-2.1.525-2.793.685a.124.124,0,0,1-.094.116l-.2-.56c.466-.1,1.084-.226,1.746-.378l-.058-.014a27.061,27.061,0,0,0,.487-2.815Zm.2-.857v.466H13.178v-.466h1.207v-1.4l.6.038c-.008.05-.043.088-.139.1v1.258Zm-2.131.77a13.851,13.851,0,0,1,.328,2.546l-.437.066a13.7,13.7,0,0,0-.3-2.54Zm5.935-.21H17.972v1.5h1.535v3.186H19v-.33H16.691v.357h-.48V67.575h1.265V64.032l.64.035c-.008.051-.043.089-.145.1V65.6h1.855ZM19,69.973V68.039H16.691v1.934Z" transform="translate(-4.366 -64)" fill="#1e1e1e"/>
    <path id="Path_5129" data-name="Path 5129" d="M32.461,65.922H30.271c.182,2.356.757,4.379,1.542,4.379.211,0,.305-.422.349-1.412a1.459,1.459,0,0,0,.436.277c-.094,1.278-.291,1.651-.83,1.651-1.186,0-1.8-2.261-2.008-4.894H25.9v-.48h3.826c-.022-.452-.037-.91-.044-1.367l.684.037c0,.066-.044.1-.153.117,0,.407.008.815.029,1.214h2.219v.48ZM28,67.536V69.7c.531-.117,1.084-.24,1.622-.363l.037.431c-1.245.312-2.582.624-3.419.806a.141.141,0,0,1-.1.116l-.2-.566c.429-.081.974-.188,1.578-.32V67.536h-1.36v-.466h3.258v.466H28Zm3.063-3.455a6.253,6.253,0,0,1,1.091.9l-.342.32a6.181,6.181,0,0,0-1.076-.946Z" transform="translate(-8.357 -64.013)" fill="#1e1e1e"/>
    <path id="Path_5130" data-name="Path 5130" d="M42.213,64.025a.171.171,0,0,1-.145.109,10.1,10.1,0,0,0,3.143,2.64,2.137,2.137,0,0,0-.328.431,11.31,11.31,0,0,1-3.119-2.714,10.094,10.094,0,0,1-3.056,2.764,2.42,2.42,0,0,0-.305-.385,9.024,9.024,0,0,0,3.1-2.882Zm-.19,4.815v1.272h2.932v.452H38.664v-.452h2.851V68.839h-2.24v-.445h2.24V67.189h-1.92v-.445h4.429v.445h-2v1.206h2.269v.445Z" transform="translate(-12.243 -63.986)" fill="#1e1e1e"/>
    <path id="Path_5131" data-name="Path 5131" d="M52.51,68.89c.32-.094.647-.2.974-.3l.058.428c-.837.277-1.717.56-2.269.736a.146.146,0,0,1-.094.116L51,69.326c.283-.081.647-.182,1.04-.3V67.2h-.85v-.459h.85V65.137h-.953v-.458h2.429v.459h-1v1.607h.858V67.2H52.51V68.89Zm.4.7c.5-.276,1.237-.757,1.942-1.214l.153.4c-.618.436-1.288.887-1.717,1.171a.133.133,0,0,1-.058.13Zm2.837-3.775v.24a4.917,4.917,0,0,0,2.2,3.862,1.05,1.05,0,0,0-.314.371,4.828,4.828,0,0,1-1.891-2.438v2.307c0,.589-.3.64-1.4.64a2.537,2.537,0,0,0-.174-.473c.19.007.363.007.509.007.567,0,.6,0,.6-.168V65.815H53.332v-.459h1.941V64.033l.62.035c-.008.059-.052.089-.146.1v1.186h2.11v.459h-2.11Zm-1.84.5a5.854,5.854,0,0,1,.859,1.346l-.4.212a6.073,6.073,0,0,0-.844-1.382Zm2.647-2.21a4.979,4.979,0,0,1,1.121.806l-.292.305a4.889,4.889,0,0,0-1.1-.836Zm1.274,2.421a.2.2,0,0,1-.16.051,11.286,11.286,0,0,1-.989,1.272c-.008,0-.343-.218-.343-.218a9.574,9.574,0,0,0,.983-1.4Z" transform="translate(-16.157 -64.001)" fill="#1e1e1e"/>
    <path id="Path_5132" data-name="Path 5132" d="M65.77,67.261a6.912,6.912,0,0,0-.414-.719l.364-.154a6.389,6.389,0,0,1,.786,1.52l-.386.182a3.589,3.589,0,0,0-.168-.451l-.64.038V70.79h-.436V67.7c-.386.021-.734.037-1.01.043a.146.146,0,0,1-.11.094l-.132-.544h.5c.16-.2.327-.438.5-.684a6.887,6.887,0,0,0-.931-1.092,1.792,1.792,0,0,0,.254-.314c.079.074.16.147.241.226a11.077,11.077,0,0,0,.646-1.4l.523.218c-.021.043-.079.058-.16.058a11.3,11.3,0,0,1-.742,1.4,4.838,4.838,0,0,1,.422.509,15.369,15.369,0,0,0,.778-1.361l.51.241a.184.184,0,0,1-.16.058,19.733,19.733,0,0,1-1.433,2.124Zm-1.163,1.092c-.014.066-.072.081-.139.072A6.83,6.83,0,0,1,64,70.171a3.441,3.441,0,0,0-.357-.182,6.353,6.353,0,0,0,.437-1.768Zm1.44,1.382a7.018,7.018,0,0,0-.451-1.4l.371-.116a6.221,6.221,0,0,1,.466,1.389ZM70.2,64.389v5.827c0,.515-.211.589-1.207.573a2.308,2.308,0,0,0-.145-.443c.174.007.342.007.472.007.379,0,.422,0,.422-.137V64.826H66.97V70.8h-.451V64.389H70.2Zm-2.3,4.6c0,.2.029.253.174.253h.917a2.579,2.579,0,0,0,.414-.028c.014.109.029.3.044.4a1.9,1.9,0,0,1-.451.03h-.931c-.487,0-.6-.168-.6-.662V67.865h-.327v-.4H68.1v-.793l.567.037c-.007.043-.043.079-.132.094v.662H69.56v.4H67.9Zm-.691-2.32v-.4h.444a4.536,4.536,0,0,0-.342-1.034l.32-.109A3.968,3.968,0,0,1,68,66.149l-.328.117h1.164l-.247-.1a7.581,7.581,0,0,0,.414-1.09l.487.175a.162.162,0,0,1-.145.065,10.121,10.121,0,0,1-.444.954h.611v.4H67.21Z" transform="translate(-20.082 -64.001)" fill="#1e1e1e"/>
    <path id="Path_5133" data-name="Path 5133" d="M77.627,69.263c-.014.044-.058.072-.137.066a4.19,4.19,0,0,1-.793,1.455,2.727,2.727,0,0,0-.349-.254,3.409,3.409,0,0,0,.735-1.425Zm1.143-4.952v4.626H76.718V64.311Zm-.444,1.41v-1H77.148v1Zm0,1.4v-1H77.148v1h1.178Zm0,1.405V67.511H77.148v1.012Zm.065.582a6.116,6.116,0,0,1,.618,1.128c-.088.043-.174.079-.4.2a6.877,6.877,0,0,0-.589-1.156Zm4.787.021v.385H82.64v.764c0,.5-.212.524-1.316.524a1.688,1.688,0,0,0-.139-.408c.233.008.459.014.626.014.34,0,.378,0,.378-.137v-.758H79.876V70.8h-.443V69.511H78.88v-.385h.553V67.351h1.36V66.82H78.96v-.378H80v-.494h-.626v-.371H80V65.1H79.12v-.378H80v-.677l.58.037c-.007.043-.043.081-.137.094v.547h1.164v-.677l.582.037c-.008.051-.044.081-.139.094v.547h.938V65.1h-.938v.479h.742v.371h-.742v.494h1.092v.378H81.236v.531h1.4v1.774h.539Zm-2.387-1.4h-.917v.51h.917Zm-.917.875v.522h.917V68.6Zm.568-3.506v.479h1.164V65.1Zm0,.851v.494h1.164v-.494Zm1.746,1.781h-.953v.51h.953v-.51Zm-.953,1.4h.953V68.6h-.953Z" transform="translate(-24.038 -64.003)" fill="#1e1e1e"/>
    <path id="Path_5134" data-name="Path 5134" d="M95.217,66.368l.335.147a.152.152,0,0,1-.072.079,5.756,5.756,0,0,1-1.717,2.932,6,6,0,0,0,2.168.968,2.086,2.086,0,0,0-.342.449,6.146,6.146,0,0,1-2.248-1.076,7,7,0,0,1-2.329,1.1,2.079,2.079,0,0,0-.276-.436,6.21,6.21,0,0,0,2.226-.99,6.915,6.915,0,0,1-1.724-2.793h-.007A5.963,5.963,0,0,1,89.4,70.811a1.842,1.842,0,0,0-.356-.4,5.949,5.949,0,0,0,1.716-4.693v-.64H89.442V64.6h4.167l.109-.021.312.086a.532.532,0,0,1-.043.116c-.088.4-.241,1.012-.393,1.609h1.528Zm-3.949-1.287v.241a7.2,7.2,0,0,0,2.11,3.891,5.037,5.037,0,0,0,1.507-2.357H93.465l-.109.391-.5-.072c.183-.641.4-1.484.538-2.1H91.268Z" transform="translate(-27.985 -64.17)" fill="#1e1e1e"/>
    <path id="Path_5135" data-name="Path 5135" d="M101.772,64.946v-.429h3.563v.429h-1.186v1.113h.939v4.691h-.421v-.357H102.44v.451h-.413V66.059h.872V64.946Zm1.186,1.541h-.518v2.307h2.227v-.94c-.052.218-.145.292-.307.292h-.232c-.271,0-.35-.081-.35-.429v-1.23h-.515v.474a2.253,2.253,0,0,1-.525,1.549.983.983,0,0,0-.254-.2,1.892,1.892,0,0,0,.474-1.36Zm-.518,3.493h2.227v-.786H102.44Zm1.34-3.921V64.946h-.509v1.113Zm.531,1.767c.079,0,.1-.044.108-.466a.807.807,0,0,0,.249.116v-.99h-.576v1.222c0,.1.008.117.066.117h.154Zm1.81,2.212c0,.254.066.3.4.3h1.155c.335,0,.387-.188.422-1.272a1.444,1.444,0,0,0,.445.2c-.059,1.207-.2,1.528-.836,1.528h-1.23c-.64,0-.837-.154-.837-.771V67.121h2.167V65.033H105.57v-.459h2.719V67.92h-.48v-.341h-1.686v2.459Z" transform="translate(-31.94 -64.151)" fill="#1e1e1e"/>
    <path id="Path_5136" data-name="Path 5136" d="M116.022,66.941V69.32c.568.866,1.609.866,2.917.866.786,0,1.709-.023,2.278-.059a1.77,1.77,0,0,0-.16.5c-.5.021-1.3.037-2.023.037-1.5,0-2.494,0-3.229-.9-.357.319-.742.646-1.054.894a.1.1,0,0,1-.066.116l-.283-.537a12.741,12.741,0,0,0,1.147-.888V67.407h-1.069v-.466h1.543Zm-1.083-2.727a5.227,5.227,0,0,1,1.3,1.148l-.385.327a5.281,5.281,0,0,0-1.28-1.185Zm6.169,3.227H119.17a2.745,2.745,0,0,0,1.95,1.914,1.555,1.555,0,0,0-.312.408,3.1,3.1,0,0,1-1.987-1.994,3.25,3.25,0,0,1-1.964,1.964,1.712,1.712,0,0,0-.326-.363,2.707,2.707,0,0,0,1.883-1.929h-1.949v-.449h2c.008-.088.008-.175.008-.254V65.9H116.7V65.45h2.9l-.371-.167a8.05,8.05,0,0,0,.728-1.25l.58.218c-.02.051-.072.065-.16.072a9.187,9.187,0,0,1-.755,1.127h1.267V65.9H118.96v.837c0,.079,0,.167-.007.254h2.154v.449Zm-3.434-1.992a4.189,4.189,0,0,0-.662-1.222l.415-.174a3.892,3.892,0,0,1,.684,1.192Z" transform="translate(-35.865 -64.001)" fill="#1e1e1e"/>
  </g>
</svg>
