<svg id="wechat-3" xmlns="http://www.w3.org/2000/svg" width="189" height="53.425" viewBox="0 0 189 53.425">
  <path id="Path_5160" data-name="Path 5160" d="M180.031,24.874c4.106-.991,9.1-.069,11.782,3.437a11.8,11.8,0,0,1,2.05,4.828c-1.8.028-3.614.028-5.418.028-.785-3.883-6.118-5.436-8.947-2.778-1.994,2.171-2.354,5.4-1.942,8.208.441,2.159,1.312,4.667,3.539,5.561a5.538,5.538,0,0,0,7.349-4.348c1.839,0,3.683-.006,5.527.034-.383,3.288-1.97,6.712-5.189,8.059-5,2.171-12.149,1.523-15.042-3.648.46-2.108.975-4.3.5-6.456a29.537,29.537,0,0,0-1.615-4.507C172.615,29.181,176.143,25.687,180.031,24.874Z" transform="translate(-55.96 -7.942)" fill="#2e3233"/>
  <path id="Path_5161" data-name="Path 5161" d="M102.2,25.923c1.975-.017,3.952-.017,5.928-.023,1.174,5.183,1.827,10.487,3.259,15.614,1.437-4.25,2.1-8.712,3.323-13.025.36-1.306,1.386-2.686,2.886-2.588,1.627-.195,2.732,1.312,3.065,2.732,1.169,4.239,1.936,8.586,3.236,12.8,1.495-5.081,2.315-10.321,3.409-15.5q2.893-.034,5.785-.005c-1.616,6.5-3.443,12.944-5.1,19.433-.407,1.616-1.116,3.46-2.847,4.056a3.747,3.747,0,0,1-4.21-2.926c-1.219-3.9-2.1-7.893-3.3-11.8-.968,3.883-1.959,7.755-3.024,11.61-.4,1.724-1.913,3.493-3.854,3.151-1.873-.212-2.8-2.073-3.207-3.7-1.772-6.61-3.576-13.214-5.345-19.825Z" transform="translate(-33.13 -8.391)" fill="#9de60b"/>
  <path id="Path_5162" data-name="Path 5162" d="M205.983,25.929c1.771-.006,3.546-.006,5.316-.012-.012,1.948-.029,3.895.126,5.831,2.847.2,5.969-.608,8.592.836a7.134,7.134,0,0,1,3.551,6.312c.035,3.522-.011,7.045.005,10.573q-2.586.017-5.161.022c-.034-3.385.041-6.77-.016-10.154a2.34,2.34,0,0,0-1.925-2.475,35.588,35.588,0,0,0-5.178-.069c.011,4.227.006,8.459.006,12.693q-2.655-.008-5.309-.005c-.007-7.852,0-15.7-.007-23.551Zm40.725-.007h5.034c-.005,1.771-.005,3.534-.012,5.3,1.346,0,2.692,0,4.044.006-.006,1.306-.006,2.617-.006,3.923h-4.085c.1,2.991-.222,6.014.173,8.993.9,1.117,2.5.957,3.78,1.317q-.025,2-.022,4.01c-2.893.064-6.845.441-8.328-2.7-1.278-3.706-.321-7.761-.607-11.6-1.294-.012-2.589-.018-3.883-.034,0-1.295-.006-2.589-.006-3.877,1.306-.017,2.612-.028,3.924-.034Q246.705,28.575,246.708,25.922Z" transform="translate(-66.774 -8.402)" fill="#2e3233"/>
  <path id="Path_5163" data-name="Path 5163" d="M163.722,43.925c.092-3.385-.66-7.206-3.655-9.233-3.918-2.491-10.189-2.154-12.829,2.056-2.206,3.712-2.325,8.97.664,12.309,2.863,3.236,7.939,3.408,11.69,1.788,2.069-.842,3.208-2.853,3.987-4.823q-2.474-.08-4.949-.023a5.027,5.027,0,0,1-6.082,1.346c-1.3-.63-1.563-2.153-1.971-3.379C154.958,43.9,159.34,43.959,163.722,43.925Zm-13.278-3.534c.591-1.8,2.08-3.38,4.148-3.053,2.039-.332,3.424,1.312,4,3.059q-4.072.12-8.145-.005Z" transform="translate(-47.205 -10.739)" fill="#9de60b"/>
  <path id="Path_5164" data-name="Path 5164" d="M250.982,39.587a6.5,6.5,0,0,0-5.888-5.928c-2.991-.309-6.375-.309-8.844,1.673-1.311.95-1.729,2.583-2.068,4.078,1.541.041,3.082.046,4.628.034.877-2.624,4.308-2.956,6.369-1.6.779.653.711,1.752.934,2.663-3.23.126-6.781-.5-9.651,1.363-2.732,1.6-3.23,5.539-1.644,8.105,1.111,1.667,3.282,1.976,5.132,1.971,3.689.017,7.377-.006,11.066,0C250.982,47.818,251.085,43.7,250.982,39.587ZM239.126,47.13a4.22,4.22,0,0,1,.572-2.537,25.722,25.722,0,0,1,6.26-.481c.011,1.437.011,2.87.006,4.308C243.685,48.276,240.889,49,239.126,47.13Z" transform="translate(-75.831 -10.863)" fill="#2e3233"/>
  <g id="Group_2358" data-name="Group 2358" transform="translate(0 0)">
    <path id="Path_5165" data-name="Path 5165" d="M36.532,3.334A27.138,27.138,0,0,0,14.3,1.6a22.618,22.618,0,0,0-11.66,9.182A17.187,17.187,0,0,0,.5,23.966,20.171,20.171,0,0,0,9.253,35.807c-.784,2.28-1.557,4.558-2.286,6.854,2.635-1.369,5.239-2.8,7.864-4.189a29.163,29.163,0,0,0,9.815,1.393,16.9,16.9,0,0,1-.677-7.923,16.908,16.908,0,0,1,5.366-9.534c4.627-4.333,11.187-6.164,17.429-5.722A20.321,20.321,0,0,0,36.532,3.334ZM18.6,13.713a3.3,3.3,0,1,1-4.3-3.891A3.32,3.32,0,0,1,18.6,13.713Zm16.252-.65a3.291,3.291,0,1,1-4.432-3.217A3.314,3.314,0,0,1,34.848,13.063Z" transform="translate(0 0)" fill="#9de60b"/>
    <path id="Path_5166" data-name="Path 5166" d="M75.136,37.3a17.743,17.743,0,0,0-8.292-8.442,22.829,22.829,0,0,0-20.465.075C42,31.184,38.35,35.208,37.309,40.105a14.357,14.357,0,0,0,1.824,10.629,19.591,19.591,0,0,0,13.336,8.7,24.4,24.4,0,0,0,11.639-.77c2.252.88,4.271,2.3,6.458,3.344q-.839-2.837-1.806-5.633a18.413,18.413,0,0,0,6.02-6.649A14.41,14.41,0,0,0,75.136,37.3ZM53.158,38.716A2.641,2.641,0,1,1,49.776,35.3,2.665,2.665,0,0,1,53.158,38.716Zm12.864.243a2.662,2.662,0,0,1-4.2.719A4.182,4.182,0,0,1,60.9,37.72a2.978,2.978,0,0,1,2.511-2.557A2.661,2.661,0,0,1,66.023,38.959Z" transform="translate(-11.982 -8.583)" fill="#2e3233"/>
  </g>
</svg>
