<svg width="32" height="32" viewBox="0 0 32 32" fill="none" xmlns="http://www.w3.org/2000/svg">
<path d="M27.3137 4.68631C24.2917 1.66425 20.2738 0 16 0C11.7262 0 7.70831 1.66425 4.68625 4.68631C1.66431 7.70831 0 11.7262 0 16C0 20.2738 1.66431 24.2917 4.68625 27.3137C7.70831 30.3358 11.7262 32 16 32C20.2738 32 24.2917 30.3358 27.3137 27.3137C30.3357 24.2917 32 20.2738 32 16C32 11.7262 30.3357 7.70831 27.3137 4.68631ZM16 30.75C7.86681 30.75 1.25 24.1332 1.25 16C1.25 7.86681 7.86681 1.25 16 1.25C24.1332 1.25 30.75 7.86681 30.75 16C30.75 24.1332 24.1332 30.75 16 30.75Z" fill="#E6DA6B"/>
<path d="M29.2564 13.4345C28.4139 9.0567 25.4621 5.38257 21.3602 3.6062C21.0435 3.46901 20.6755 3.61463 20.5383 3.93132C20.4012 4.24807 20.5467 4.61607 20.8635 4.7532C24.5859 6.36526 27.2646 9.69888 28.0289 13.6707C28.0864 13.9698 28.3483 14.1777 28.642 14.1777C28.6811 14.1777 28.7209 14.174 28.7607 14.1663C29.0996 14.1011 29.3216 13.7734 29.2564 13.4345Z" fill="#E6DA6B"/>
<path d="M18.9019 2.81277L18.8855 2.80921C18.5482 2.73646 18.2156 2.95108 18.1429 3.28858C18.0702 3.62602 18.2849 3.95846 18.6223 4.03114L18.6296 4.03277C18.6755 4.04302 18.7212 4.04789 18.7664 4.04789C19.0526 4.04789 19.3109 3.8499 19.3758 3.5589C19.4509 3.22196 19.2388 2.88796 18.9019 2.81277Z" fill="#E6DA6B"/>
<path d="M11.2777 27.3069C7.47848 25.7182 4.74704 22.3621 3.97098 18.3292C3.90579 17.9903 3.57854 17.768 3.23917 17.8336C2.90017 17.8988 2.67829 18.2265 2.74348 18.5654C3.16417 20.7512 4.13523 22.8206 5.55192 24.5497C6.95223 26.259 8.76542 27.6111 10.7954 28.4601C10.8742 28.493 10.9559 28.5086 11.0363 28.5086C11.2807 28.5086 11.5129 28.3642 11.6131 28.1246C11.7463 27.8061 11.5961 27.44 11.2777 27.3069Z" fill="#E6DA6B"/>
<path d="M13.379 27.9691L13.3404 27.9606C13.0037 27.8858 12.6696 28.0982 12.5947 28.4351C12.5199 28.7721 12.7323 29.1059 13.0693 29.1808L13.113 29.1904C13.1579 29.2002 13.2026 29.2049 13.2467 29.2049C13.5342 29.2049 13.793 29.0052 13.8567 28.7128C13.9302 28.3755 13.7163 28.0426 13.379 27.9691Z" fill="#E6DA6B"/>
<path d="M28.7128 18.1434C28.3759 18.0698 28.0426 18.2837 27.9691 18.621C26.9255 23.41 23.1416 27.103 18.3292 28.029C17.9902 28.0942 17.7683 28.4219 17.8335 28.7609C17.8911 29.0599 18.1529 29.2679 18.4466 29.2679C18.4858 29.2679 18.5256 29.2642 18.5654 29.2565C21.1593 28.7574 23.5343 27.5127 25.4336 25.657C27.3299 23.8042 28.6291 21.4632 29.1904 18.887C29.2638 18.5498 29.05 18.2169 28.7128 18.1434Z" fill="#E6DA6B"/>
<path d="M14.1664 3.23918C14.1011 2.90024 13.7735 2.67799 13.4345 2.74355C10.8406 3.24268 8.46561 4.48737 6.5663 6.34299C4.66992 8.1958 3.3708 10.5368 2.80949 13.113C2.73605 13.4502 2.94986 13.7832 3.28711 13.8567C3.33193 13.8664 3.37674 13.8711 3.4208 13.8711C3.70836 13.8711 3.96718 13.6715 4.03086 13.3791C5.07443 8.58993 8.8583 4.89705 13.6707 3.97099C14.0097 3.9058 14.2316 3.57812 14.1664 3.23918Z" fill="#E6DA6B"/>
<path d="M16 13.875C14.8283 13.875 13.875 14.8283 13.875 16C13.875 17.1718 14.8283 18.125 16 18.125C17.1718 18.125 18.125 17.1718 18.125 16C18.125 14.8283 17.1718 13.875 16 13.875ZM16 16.875C15.5175 16.875 15.125 16.4825 15.125 16C15.125 15.5175 15.5175 15.125 16 15.125C16.4825 15.125 16.875 15.5175 16.875 16C16.875 16.4825 16.4825 16.875 16 16.875Z" fill="#E6DA6B"/>
<path d="M16.0095 2.5C15.6644 2.5 15.3845 2.77981 15.3845 3.125V4.5255C15.3845 4.87069 15.6644 5.1505 16.0095 5.1505C16.3547 5.1505 16.6345 4.87069 16.6345 4.5255V3.125C16.6345 2.77981 16.3547 2.5 16.0095 2.5Z" fill="#E6DA6B"/>
<path d="M15.9905 26.4041C15.6454 26.4041 15.3655 26.6839 15.3655 27.0291V28.8751C15.3655 29.2203 15.6454 29.5001 15.9905 29.5001C16.3356 29.5001 16.6155 29.2203 16.6155 28.8751V27.0291C16.6155 26.6839 16.3356 26.4041 15.9905 26.4041Z" fill="#E6DA6B"/>
<path d="M28.875 15.3845H27.1875C26.8424 15.3845 26.5625 15.6643 26.5625 16.0095C26.5625 16.3547 26.8424 16.6345 27.1875 16.6345H28.875C29.2201 16.6345 29.5 16.3547 29.5 16.0095C29.5 15.6643 29.2201 15.3845 28.875 15.3845Z" fill="#E6DA6B"/>
<path d="M4.9375 15.3655H3.125C2.77988 15.3655 2.5 15.6453 2.5 15.9905C2.5 16.3357 2.77988 16.6155 3.125 16.6155H4.9375C5.28262 16.6155 5.5625 16.3357 5.5625 15.9905C5.5625 15.6453 5.28262 15.3655 4.9375 15.3655Z" fill="#E6DA6B"/>
<path d="M14.5 15.375H11.6458C11.3007 15.375 11.0208 15.6548 11.0208 16C11.0208 16.3452 11.3007 16.625 11.6458 16.625H14.5C14.8451 16.625 15.125 16.3452 15.125 16C15.125 15.6548 14.8451 15.375 14.5 15.375Z" fill="#E6DA6B"/>
<path d="M16 8.02081C15.6549 8.02081 15.375 8.30063 15.375 8.64581V14.5C15.375 14.8452 15.6549 15.125 16 15.125C16.3451 15.125 16.625 14.8452 16.625 14.5V8.64581C16.625 8.30063 16.3451 8.02081 16 8.02081Z" fill="#E6DA6B"/>
</svg>
