<svg width="230" height="230" viewBox="0 0 230 230" fill="none" xmlns="http://www.w3.org/2000/svg">
<path d="M212.031 134.838V93.4376H164.03C174.474 67.3496 167.827 37.5274 147.293 18.3426C126.759 -0.840432 96.554 -5.44668 71.2363 6.7454C52.6885 -0.152567 31.8209 4.4993 17.9582 18.6181C4.09563 32.7387 -0.16844 53.6888 7.06995 72.105C-3.16733 91.4354 -2.23204 114.774 9.51609 133.223C4.40271 137.826 1.11254 144.113 0.247438 150.938H1.70771e-05V208.438H21.8503C23.6261 220.807 34.2231 229.99 46.7188 229.99C59.2144 229.99 69.8114 220.807 71.5873 208.438H151.225C153.001 220.807 163.598 229.99 176.094 229.99C188.589 229.99 199.186 220.807 200.962 208.438H230V149.213L212.031 134.838ZM179.688 100.625H204.844V132.969H179.688V100.625ZM100.625 7.1876C126.831 7.16303 150.127 23.8736 158.504 48.7035C166.881 73.5351 158.467 100.943 137.601 116.797C131.983 115.004 126.023 114.535 120.194 115.432C115.016 97.7543 100.636 84.2935 82.6563 80.2909V39.5313H97.0313V21.5626H89.8438V32.3438H75.4688V79.2205C74.2791 79.1345 73.0823 79.0626 71.875 79.0626C61.5167 79.0591 51.4145 82.2791 42.9706 88.2768C40.7052 81.8527 39.5436 75.0933 39.5313 68.2813C39.5699 34.5566 66.9003 7.2262 100.625 7.1876ZM71.875 118.594C80.905 118.575 89.5244 122.358 95.6222 129.015C90.372 135.201 87.1625 142.857 86.4343 150.938H57.2526C56.2699 143.234 52.2112 136.257 46.0011 131.597C52.0655 123.393 61.6729 118.564 71.875 118.594ZM39.791 127.992C36.3499 126.553 32.6614 125.802 28.9343 125.781C30.6434 105.112 46.8311 88.5927 67.4601 86.4642C88.0908 84.3357 107.311 97.2033 113.203 117.088C108.665 118.613 104.44 120.95 100.737 123.984C93.2936 115.948 82.83 111.387 71.875 111.406C59.1407 111.477 47.2119 117.643 39.791 127.992ZM125.781 122.188C142.243 122.21 156.068 134.58 157.913 150.938H93.6499C95.4959 134.58 109.32 122.21 125.781 122.188ZM145.026 120.031C150.108 115.669 154.521 110.583 158.125 104.938V131.891C154.702 127.006 150.225 122.954 145.026 120.031ZM53.9063 10.7813C56.7911 10.7866 59.6672 11.0832 62.4923 11.6657C50.6249 19.7131 41.5773 31.2752 36.6166 44.7272C26.8777 48.9649 18.4145 55.6734 12.064 64.1875C8.83173 51.3216 11.7271 37.6836 19.9078 27.2392C28.0902 16.7967 40.6403 10.7217 53.9063 10.7813ZM7.18752 100.625C7.1454 81.4894 17.3002 63.7786 33.8353 54.1468C31.0453 67.1758 32.1894 80.7384 37.1237 93.1147C27.927 101.955 22.4206 113.953 21.7134 126.69C19.5217 127.238 17.402 128.043 15.3998 129.091C10.032 120.566 7.18576 110.699 7.18752 100.625ZM28.75 132.969C39.261 132.988 48.2296 140.576 49.9897 150.938H7.5104C9.27218 140.576 18.2408 132.988 28.75 132.969ZM7.18752 158.125H158.125V165.313H7.18752V158.125ZM21.8503 201.25H7.18752V194.063H24.0245C22.9418 196.335 22.2083 198.758 21.8503 201.25ZM46.7188 222.813C36.7956 222.813 28.75 214.767 28.75 204.844C28.75 194.921 36.7956 186.875 46.7188 186.875C56.6437 186.875 64.6875 194.921 64.6875 204.844C64.6752 214.764 56.6384 222.8 46.7188 222.813ZM151.225 201.25H71.5873C71.2293 198.758 70.4976 196.335 69.4131 194.063H153.399C152.317 196.335 151.583 198.758 151.225 201.25ZM176.094 222.813C166.171 222.813 158.125 214.767 158.125 204.844C158.125 194.921 166.171 186.875 176.094 186.875C186.019 186.875 194.063 194.921 194.063 204.844C194.05 214.764 186.013 222.8 176.094 222.813ZM222.813 201.25H200.962C200.604 198.758 199.873 196.335 198.788 194.063H222.813V201.25ZM222.813 186.875H193.664C183.911 177.292 168.278 177.292 158.523 186.875H64.2892C54.5362 177.292 38.9031 177.292 29.1484 186.875H7.18752V172.5H165.313V100.625H172.5V140.156H207.176L222.813 152.663V186.875Z" fill="#575757"/>
<path d="M125.781 48.5156C125.781 53.4781 121.759 57.5 116.797 57.5V64.6875C121.759 64.6875 125.781 68.7094 125.781 73.6719C125.781 78.6343 121.759 82.6562 116.797 82.6562H115V89.8438H116.797C123.647 89.8385 129.752 85.5165 132.033 79.0572C134.315 72.5962 132.277 65.3999 126.95 61.0938C132.277 56.7876 134.315 49.5913 132.033 43.1303C129.752 36.671 123.647 32.349 116.797 32.3438H111.406V21.5625H104.219V39.5312H116.797C121.759 39.5312 125.781 43.5532 125.781 48.5156Z" fill="#575757"/>
<path d="M229.526 39.5312H219.219V14.375H212.031V46.7188H216.099L201.027 69.3271L183.443 46.7188H190.469V14.375H183.281V39.5312H168.745L201.476 81.6104L229.526 39.5312Z" fill="#575757"/>
<path d="M43.125 201.25H50.3125V208.438H43.125V201.25Z" fill="#575757"/>
<path d="M172.5 201.25H179.688V208.438H172.5V201.25Z" fill="#575757"/>
<path d="M179.688 150.938H194.062V158.125H179.688V150.938Z" fill="#575757"/>
<path d="M89.8438 46.7188H111.406V53.9062H89.8438V46.7188Z" fill="#575757"/>
<path d="M89.8438 68.2812H111.406V75.4688H89.8438V68.2812Z" fill="#575757"/>
<path d="M197.656 0H204.844V46.7188H197.656V0Z" fill="#575757"/>
</svg>
