<?xml version="1.0" encoding="utf-8"?>
<!-- Generator: Adobe Illustrator 22.1.0, SVG Export Plug-In . SVG Version: 6.00 Build 0)  -->
<svg version="1.1" id="Capa_1" xmlns="http://www.w3.org/2000/svg" xmlns:xlink="http://www.w3.org/1999/xlink" x="0px" y="0px"
	 viewBox="0 0 57 57" style="enable-background:new 0 0 57 57;" xml:space="preserve">
<style type="text/css">
	.st0{fill:#F58705;}
</style>
<g>
	<g>
		<path class="st0" d="M39,13c3.3,0,6-2.7,6-6s-2.7-6-6-6s-6,2.7-6,6S35.7,13,39,13z M39,3c2.2,0,4,1.8,4,4s-1.8,4-4,4
			c-0.1,0-0.2,0-0.3,0c0.8-0.7,1.3-1.8,1.3-3h-2c0,1-0.7,1.8-1.7,2C35.5,9.2,35,8.2,35,7C35,4.8,36.8,3,39,3z"/>
		<path class="st0" d="M8,25c3.3,0,6-2.7,6-6s-2.7-6-6-6s-6,2.7-6,6S4.7,25,8,25z M8,15c2.2,0,4,1.8,4,4c0,1.2-0.5,2.2-1.3,3
			c-1-0.2-1.7-1-1.7-2H7c0,1.2,0.5,2.2,1.3,3c-0.1,0-0.2,0-0.3,0c-2.2,0-4-1.8-4-4S5.8,15,8,15z"/>
		<path class="st0" d="M56.3,2.1l-6-2C50-0.1,49.7,0,49.4,0.2C49.2,0.4,49,0.7,49,1v8v5H35c-0.2,0-0.5,0.1-0.6,0.2l-6,5
			c-0.1,0.1-0.2,0.2-0.3,0.3l-2.8,5.7L19,27.9L13.4,26c-0.2,0-0.3,0-0.4,0H5c-2.8,0-5,2.2-5,5v11c0,0.6,0.4,1,1,1h3v12H0v2h5h5h4
			c0.6,0,1-0.4,1-1v-5h2h5h7c0.6,0,1-0.4,1-1v-5h6h5c0.6,0,1-0.4,1-1v-5h6h5h3v-2h-2v-8c0-2.8-2.2-5-5-5h-4v-4h5c2.8,0,5-2.2,5-5V9
			c0-0.6-0.4-1-1-1h-3V5.7L56.3,4C56.7,3.8,57,3.4,57,3S56.7,2.2,56.3,2.1z M40.5,16L40,17.3L39.5,16H40.5z M14,49c-0.6,0-1,0.4-1,1
			v5h-2V43h5v6H14z M18,49v-7c0-0.6-0.4-1-1-1h-7c-0.6,0-1,0.4-1,1v13H6V32H4v9H2V31c0-1.7,1.3-3,3-3h3v7h2v-7h2.8l5.8,1.9
			c0.2,0.1,0.5,0.1,0.7,0l6.2-2.7l0.6,0.9l0.3,0.5L19.8,32l-6.7-1c-0.3,0-0.6,0-0.8,0.2C12.1,31.4,12,31.7,12,32v5c0,0.6,0.4,1,1,1
			h5c1.7,0,3,1.3,3,3v8H18z M29,43c-0.6,0-1,0.4-1,1v5h-5v-8c0-2.8-2.2-5-5-5h-4v-2.8l5.9,0.8c0.2,0,0.4,0,0.6-0.1l8-4
			c0.1-0.1,0.3-0.2,0.4-0.3l0,0l3.9-5.9L35,22v21H29z M47,37h-5v-6h5V37z M53,15c0,1.7-1.3,3-3,3h-6c-0.6,0-1,0.4-1,1v6
			c0,0.6,0.4,1,1,1h5c1.7,0,3,1.3,3,3v8h-3v-7c0-0.6-0.4-1-1-1h-7c-0.6,0-1,0.4-1,1v8v5h-3V20c0-0.4-0.2-0.7-0.6-0.9
			c-0.3-0.2-0.7-0.1-1,0.1l-4,3c-0.1,0.1-0.2,0.1-0.2,0.2L28,27.2l-0.8-1.3l2.6-5.3l5.6-4.6h2l1.7,4.4c0.2,0.4,0.5,0.6,0.9,0.6
			s0.8-0.2,0.9-0.6l1.7-4.4H50c0.6,0,1-0.4,1-1v-5h2V15z M51,3.6V2.4L52.8,3L51,3.6z"/>
		<rect x="24" y="5" class="st0" width="2" height="2"/>
		<rect x="20" y="5" class="st0" width="2" height="2"/>
		<rect x="16" y="5" class="st0" width="2" height="2"/>
	</g>
</g>
</svg>
