<?xml version="1.0" encoding="utf-8"?>
<!-- Generator: Adobe Illustrator 22.1.0, SVG Export Plug-In . SVG Version: 6.00 Build 0)  -->
<svg version="1.1" id="Layer_1" xmlns="http://www.w3.org/2000/svg" xmlns:xlink="http://www.w3.org/1999/xlink" x="0px" y="0px"
	 viewBox="0 0 480 464.1" style="enable-background:new 0 0 480 464.1;" xml:space="preserve">
<style type="text/css">
	.st0{fill:#F58705;}
</style>
<path class="st0" d="M440,0H104C81.9,0,64,17.9,64,40v312H8c-4.4,0-8,3.6-8,8v16c0,22.1,17.9,40,40,40h248.2v40c0,3,1.7,5.8,4.4,7.2
	s6,1.1,8.4-0.8l27.2-20.4l27.2,20.4c1.4,1,3.1,1.6,4.8,1.6c1.2,0,2.5-0.3,3.6-0.8c2.7-1.4,4.4-4.2,4.4-7.2v-40h7.8
	c22.1,0,40-17.9,40-40V64h56c4.4,0,8-3.6,8-8V40C480,17.9,462.1,0,440,0z M288.2,400H40c-13.3,0-24-10.7-24-24v-8h272.2V400z
	 M352.2,440L333,425.6c-2.8-2.1-6.8-2.1-9.6,0L304.2,440v-89.4c1.5,0.1,3.1,0.1,4.6-0.1c4.6,6,11.7,9.4,19.3,9.4s14.6-3.5,19.3-9.4
	c1.6,0.2,3.2,0.2,4.8,0.1L352.2,440z M362.5,311.8c-2.1,0.8-3.8,2.4-4.7,4.5c-0.9,2.1-0.8,4.5,0.2,6.5c1.5,3.2,0.9,7-1.6,9.4
	c-2.5,2.5-6.3,3.2-9.4,1.7c-2-1-4.4-1-6.5-0.2c-2.1,0.9-3.7,2.6-4.5,4.7c-1.2,3.3-4.3,5.5-7.8,5.5s-6.6-2.2-7.8-5.5
	c-0.8-2.1-2.4-3.9-4.5-4.7c-2.1-0.9-4.5-0.8-6.5,0.2c-3.2,1.5-7,0.8-9.4-1.7c-2.5-2.5-3.1-6.3-1.6-9.4c1-2,1-4.4,0.2-6.5
	c-0.9-2.1-2.6-3.7-4.7-4.5c-3.3-1.2-5.5-4.3-5.5-7.8s2.2-6.7,5.5-7.8c2.1-0.8,3.8-2.4,4.7-4.5c0.9-2.1,0.8-4.4-0.2-6.5
	c-1.5-3.2-0.9-7,1.6-9.5s6.3-3.2,9.4-1.7c2,1,4.4,1,6.5,0.2c2.1-0.9,3.7-2.6,4.5-4.7c1.2-3.3,4.3-5.5,7.8-5.5s6.6,2.2,7.8,5.5
	c0.8,2.1,2.4,3.9,4.5,4.7c2.1,0.9,4.5,0.8,6.5-0.2c3.2-1.5,7-0.8,9.4,1.7c2.5,2.5,3.1,6.3,1.6,9.4c-1,2-1,4.4-0.2,6.5
	c0.9,2.1,2.6,3.7,4.7,4.5c3.3,1.2,5.5,4.3,5.5,7.8S365.8,310.7,362.5,311.8z M407.4,17c-0.5,0.6-0.9,1.3-1.3,2
	c-0.9,1.4-1.6,2.8-2.3,4.2c-0.4,0.8-0.7,1.5-1,2.3c-0.6,1.6-1.1,3.2-1.5,4.8c-0.2,0.7-0.4,1.5-0.6,2.2c-0.5,2.4-0.7,4.9-0.8,7.4v336
	c0,13.3-10.7,24-24,24c-2.7-0.1-5.3-0.5-7.8-1.5v-55.6c5-5.2,7.3-12.4,6.4-19.6c5.9-4.6,9.4-11.7,9.4-19.3s-3.5-14.7-9.4-19.3
	c0.9-7.5-1.6-15-6.9-20.3s-12.8-7.9-20.3-7c-4.6-6-11.7-9.4-19.3-9.4s-14.6,3.5-19.3,9.4c-7.5-0.9-15,1.7-20.3,7s-7.9,12.8-6.9,20.3
	c-5.9,4.6-9.4,11.7-9.4,19.3s3.5,14.7,9.4,19.3c-0.9,7.3,1.5,14.6,6.6,19.8v8.9H80V40c0-13.3,10.7-24,24-24h304
	C407.8,16.3,407.6,16.7,407.4,17z M464,48h-48v-8c0-13.3,10.7-24,24-24s24,10.7,24,24V48z"/>
<path class="st0" d="M264,64h32v16h-32V64z"/>
<path class="st0" d="M184,64h64v16h-64V64z"/>
<path class="st0" d="M160,104h160v16H160V104z"/>
<path class="st0" d="M120,152h40v16h-40V152z"/>
<path class="st0" d="M120,192h88v16h-88V192z"/>
<path class="st0" d="M176,152h184v16H176V152z"/>
<path class="st0" d="M224,192h136v16H224V192z"/>
<path class="st0" d="M120,232h160v16H120V232z"/>
<path class="st0" d="M120,272h136v16H120V272z"/>
</svg>
