<?xml version="1.0" encoding="utf-8"?>
<!-- Generator: Adobe Illustrator 22.1.0, SVG Export Plug-In . SVG Version: 6.00 Build 0)  -->
<svg version="1.1" id="Capa_1" xmlns="http://www.w3.org/2000/svg" xmlns:xlink="http://www.w3.org/1999/xlink" x="0px" y="0px"
	 viewBox="0 0 464 464" style="enable-background:new 0 0 464 464;" xml:space="preserve">
<style type="text/css">
	.st0{fill:#3c3c3b;}
</style>
<g>
	<g>
		<path class="st0" d="M286.7,415.2c-18.1,3-36.4,4.4-54.7,4.4c-37.2,0.8-74.2-6-108.7-20l-6.7,14.5c36.5,15.1,75.8,22.4,115.3,21.5
			c19.2,0,38.4-1.5,57.3-4.6L286.7,415.2z"/>
	</g>
</g>
<g>
	<g>
		<path class="st0" d="M94.2,379.1l-12.5,10c5.1,6.1,11.1,11.4,17.9,15.7l8.8-13.4C103.1,388,98.3,383.9,94.2,379.1z"/>
	</g>
</g>
<g>
	<g>
		<path class="st0" d="M463.2,152c-0.8-1.6-2-2.8-3.6-3.6v0l-224-112c-2.3-1.1-4.9-1.1-7.2,0l-224,112c-4,2-5.6,6.8-3.6,10.7
			c0.8,1.6,2,2.8,3.6,3.6L88,204.5v127.1c0,40.4,63.3,72,144,72s144-31.6,144-72V204.5l40-20V293c-12.5,4.4-19,18-14.7,30.5
			c1.2,3.4,3.1,6.5,5.7,9l-14.4,36.1c-1.6,4.1,0.4,8.8,4.5,10.4c0.9,0.4,1.9,0.6,2.9,0.6h48c4.4,0,8-3.6,8-8c0-1-0.2-2-0.6-3
			L441,332.5c9.3-9.3,9.3-24.5,0-33.8c-2.5-2.5-5.6-4.5-9-5.7V176.5l27.6-13.7C463.5,160.8,465.1,156,463.2,152z M360,331.6
			c0,27-51.4,56-128,56s-128-29-128-56v-6.6c23.7,23.1,71.5,38.6,128,38.6s104.3-15.5,128-38.6V331.6z M360,291.6
			c0,27-51.4,56-128,56s-128-29-128-56v-79.1l124.4,62.3c2.3,1.1,4.9,1.1,7.2,0L360,212.5V291.6z M424,307.6c4.4,0,8,3.6,8,8
			s-3.6,8-8,8s-8-3.6-8-8S419.6,307.6,424,307.6z M436.2,363.6h-24.4l9.7-24.2c0.8,0.1,1.6,0.2,2.5,0.2s1.7-0.2,2.5-0.2L436.2,363.6
			z M422.5,163.4L270,148.1c-5-9.8-19.6-16.6-38-16.6c-22.8,0-40,10.3-40,24s17.2,24,40,24c17.7,0,31.9-6.2,37.4-15.4l126.3,12.6
			L232,258.6L25.9,155.6L232,52.5l206.1,103.1L422.5,163.4z M256,155.6c0,2-8.5,8-24,8s-24-6-24-8s8.5-8,24-8S256,153.6,256,155.6z"
			/>
	</g>
</g>
<g>
	<g>

			<rect x="416" y="98.6" transform="matrix(0.4472 -0.8944 0.8944 0.4472 138.2122 438.675)" class="st0" width="16" height="17.9"/>
	</g>
</g>
<g>
	<g>

			<rect x="332" y="-1.5" transform="matrix(0.4472 -0.8944 0.8944 0.4472 129.3192 340.3452)" class="st0" width="16" height="134.2"/>
	</g>
</g>
</svg>
