<svg width="28" height="18" viewBox="0 0 28 18" fill="none" xmlns="http://www.w3.org/2000/svg">
<path d="M27.9807 1.43221C27.9795 0.642033 27.3364 0 26.5464 0C26.5457 0 26.5451 0 26.5445 0L1.43227 0.0345077C1.04918 0.0349999 0.689174 0.18468 0.418635 0.45593C0.14815 0.727236 -0.00049097 1.08768 1.21841e-06 1.47066L0.0194153 15.5816C0.0199075 15.9647 0.169587 16.3247 0.440838 16.5953C0.711596 16.8653 1.07117 17.0139 1.4536 17.0139C1.45425 17.0139 1.45496 17.0139 1.45551 17.0139L26.5677 16.9794C27.3584 16.9783 28.0009 16.3341 28 15.5433L27.9807 1.43221ZM24.971 1.43637L14.0011 9.06223L3.01001 1.46656L24.971 1.43637ZM18.6401 10.5014L25.1463 15.5472L2.83528 15.5778L9.38117 10.5014C9.69409 10.2587 9.75107 9.80828 9.50837 9.49524C9.26561 9.18232 8.81521 9.12534 8.50217 9.36804L1.45256 14.8351L1.43506 2.12161L13.5945 10.5247C13.7172 10.6096 13.8597 10.6519 14.0022 10.6519C14.1453 10.6519 14.2886 10.6091 14.4116 10.5236L26.5474 2.08726L26.5658 14.8331L19.5189 9.3681C19.2062 9.12545 18.7556 9.18238 18.5128 9.4953C18.2701 9.80822 18.327 10.2587 18.6401 10.5014Z" fill="#43AA8B"/>
</svg>
