<svg width="43" height="52" viewBox="0 0 43 52" fill="none" xmlns="http://www.w3.org/2000/svg">
<path d="M21.4099 22.9286C20.9896 22.9286 20.6373 23.0613 20.3532 23.3262C20.069 23.5912 19.857 23.9185 19.7169 24.3081V25.5005C19.7169 26.701 19.8763 27.5973 20.1956 28.1894C20.5147 28.7817 20.9351 29.0778 21.4567 29.0778C21.986 29.0778 22.41 28.7914 22.7293 28.2186C23.0484 27.6457 23.208 26.9112 23.208 26.0149C23.208 25.1033 23.0425 24.3608 22.7117 23.7879C22.3808 23.2152 21.947 22.9286 21.4099 22.9286Z" fill="#252525"/>
<path d="M41.7014 8.05868L34.0837 0.446266C33.7979 0.16057 33.4101 0 33.0058 0H9.6207C9.21641 0 8.82868 0.16057 8.54278 0.446266L0.925091 8.05868C0.639197 8.34437 0.478516 8.73184 0.478516 9.13585V30.3854C0.478516 33.0253 1.15021 35.644 2.42103 37.9583C3.69184 40.2727 5.54136 42.2454 7.76956 43.6635L20.4943 51.7615C20.7441 51.9205 21.0287 52 21.3133 52C21.5978 52 21.8824 51.9205 22.1322 51.7615L34.8569 43.6635C37.0852 42.2455 38.9347 40.2727 40.2055 37.9583C41.4763 35.644 42.148 33.0252 42.148 30.3854V9.13585C42.148 8.73184 41.9873 8.34437 41.7014 8.05868ZM14.8819 25.9941C14.8611 26.6082 14.9063 27.2263 14.7686 27.831C14.5043 28.9922 14.039 30.0457 13.068 30.8009C12.3433 31.3644 11.5151 31.6576 10.5969 31.7311C9.6209 31.8091 8.67216 31.7422 7.74984 31.3846C6.78006 31.0087 6.13652 30.2973 5.65153 29.4124C5.29957 28.7702 5.152 28.0704 5.09082 27.3506C5.06216 27.0135 5.19845 26.8834 5.53801 26.8816C6.05003 26.8787 6.56277 26.8963 7.07388 26.8741C7.34595 26.8624 7.53814 26.9472 7.68033 27.169C7.68541 27.1977 7.69049 27.2265 7.69557 27.2552C7.6847 27.3715 7.66356 27.4891 7.73988 27.594C7.75279 28.0759 7.98004 28.4364 8.3696 28.705C8.56697 28.9084 8.83294 28.9726 9.08835 29.0581C9.1226 29.0645 9.15695 29.0709 9.1912 29.0774C9.34446 29.1446 9.50047 29.1969 9.67192 29.1654C9.70374 29.1662 9.73555 29.1669 9.76736 29.1677C10.4921 29.2359 11.1505 29.0681 11.7028 28.583C11.968 28.3501 12.1244 28.0273 12.1786 27.6869C12.321 26.7919 12.2846 25.8884 12.2144 24.9898C12.1581 24.2698 11.6981 23.8526 11.0599 23.5967C10.6308 23.4247 10.1853 23.3575 9.72467 23.3672C9.46073 23.3728 9.19649 23.3728 8.93265 23.3655C8.68639 23.3586 8.5687 23.2372 8.56595 22.9917C8.56097 22.544 8.56555 22.0962 8.55864 21.6487C8.55508 21.4172 8.67033 21.2369 8.7864 21.0547C9.45047 20.0116 10.1147 18.9685 10.7798 17.9261C10.8959 17.7442 11.0219 17.5686 11.1335 17.384C11.2668 17.1636 11.2191 17.0827 10.9592 17.0821C9.6392 17.0793 8.31909 17.0751 6.99908 17.0797C6.7139 17.0807 6.43583 17.0008 6.14211 17.0613C5.94007 17.1029 5.75296 16.8734 5.75469 16.6629C5.75946 16.0817 5.76536 15.5006 5.7677 14.9194C5.76932 14.5285 5.85124 14.4414 6.24689 14.4407C7.2308 14.4388 8.21725 14.3954 9.19791 14.4514C10.2775 14.5131 11.3557 14.4486 12.4327 14.4969C13.0072 14.5227 13.5815 14.5122 14.1555 14.5362C14.4445 14.5483 14.5669 14.6759 14.5618 14.975C14.5525 15.525 14.5388 16.075 14.5318 16.6251C14.5301 16.7592 14.4879 16.8727 14.4146 16.9825C13.7278 18.0128 13.042 19.0439 12.358 20.0761C12.1684 20.3621 11.9882 20.6544 11.7988 20.9405C11.7193 21.0605 11.7252 21.1441 11.8681 21.2015C12.009 21.258 12.1463 21.3234 12.2878 21.3781C13.1738 21.7206 13.8339 22.3121 14.2799 23.1515C14.7539 24.043 14.916 24.993 14.8819 25.9941ZM25.8702 28.9961C25.4498 29.8907 24.8602 30.5848 24.1013 31.0788C23.3423 31.5729 22.4841 31.8197 21.5267 31.8197C19.9854 31.8197 18.7496 31.2013 17.8195 29.9645C16.8894 28.7277 16.4242 27.0633 16.4242 24.9706V23.7454C16.4242 21.871 16.7178 20.2294 17.3058 18.8216C17.8935 17.4138 18.742 16.3304 19.8512 15.5721C20.9604 14.8137 22.2545 14.4305 23.7334 14.4228H24.2472V17.2231H24.0604C22.8227 17.2309 21.84 17.6023 21.1122 18.3373C20.3842 19.0724 19.9426 20.1011 19.787 21.4235C20.4952 20.6145 21.3826 20.21 22.4492 20.21C23.6791 20.21 24.6619 20.7351 25.3974 21.7852C26.133 22.8353 26.5008 24.2355 26.5008 25.9857C26.5007 27.0983 26.2905 28.1017 25.8702 28.9961ZM37.5234 26.5526C37.5237 27.2343 37.5157 27.9121 37.2875 28.5633C37.0191 29.3295 36.5951 29.9908 35.9742 30.529C35.5229 30.9202 35.0391 31.2394 34.4845 31.4702C33.9959 31.6734 33.4878 31.7727 32.9736 31.8055C31.8347 31.8783 30.752 31.6763 29.7669 31.0527C28.6467 30.3436 27.9574 29.3395 27.6645 28.0579C27.6152 27.8422 27.6069 27.6147 27.6019 27.3923C27.5962 27.1346 27.7441 26.9838 27.9976 26.9855C28.5955 26.9893 29.1935 26.9998 29.7913 27.0157C30.0339 27.0222 30.1697 27.1637 30.1753 27.4134C30.1973 28.3648 30.9904 29.1433 31.8815 29.2977C32.5225 29.4088 33.1228 29.3953 33.7031 29.1131C34.5307 28.7105 34.9714 28.0447 34.9846 27.1169C34.9927 26.5414 35.0027 25.9651 34.982 25.3902C34.9392 24.2076 34.0612 23.2621 32.8433 23.2527C31.485 23.2423 30.1267 23.225 28.7684 23.2077C28.3526 23.2025 28.2593 23.1022 28.2627 22.6985C28.2654 22.3953 28.2632 22.0921 28.2632 21.7888C28.2373 21.0069 28.3215 20.2314 28.3852 19.4537C28.4223 19.0008 28.466 18.5486 28.5038 18.0958C28.5655 17.3575 28.6305 16.6196 28.6917 15.8813C28.7154 15.5953 28.7337 15.3088 28.7524 15.0224C28.7745 14.6822 28.9088 14.5358 29.2406 14.5425C31.0627 14.579 32.885 14.5822 34.7073 14.5951C35.2652 14.5991 35.8244 14.6269 36.3834 14.6305C36.6747 14.6323 36.7929 14.7425 36.7961 15.0332C36.8024 15.6007 36.8048 16.1682 36.8012 16.7358C36.7993 17.0495 36.5826 17.2033 36.2674 17.1951C35.4695 17.1744 34.6711 17.1764 33.8728 17.1727C33.0889 17.1691 32.3048 17.1753 31.521 17.1655C31.2976 17.1626 31.1816 17.2266 31.1623 17.467C31.116 18.0464 31.0512 18.6243 30.9948 19.2029C30.9647 19.5116 30.948 19.8221 30.9044 20.1289C30.8408 20.5762 30.9255 20.669 31.3711 20.6779C32.1453 20.6935 32.9209 20.6327 33.6936 20.7524C34.5813 20.8898 35.3451 21.277 36.0265 21.8442C36.8388 22.5204 37.2746 23.4174 37.46 24.432C37.5873 25.13 37.5231 25.8443 37.5234 26.5526Z" fill="#252525"/>
</svg>
