<svg width="14" height="16" viewBox="0 0 14 16" fill="none" xmlns="http://www.w3.org/2000/svg">
<path d="M12.062 3.45806H10.0292C10.0292 1.55125 8.47793 0 6.57112 0C4.66431 0 3.11306 1.55125 3.11306 3.45806H1.08023L0.789185 6.68283L9.5371 15.43H13.1414L12.062 3.45806ZM6.57112 0.750122C8.06461 0.750122 9.27906 1.96457 9.27906 3.45806H6.57112H3.86318C3.86318 1.96457 5.07763 0.750122 6.57112 0.750122Z" fill="white"/>
<path d="M0.540771 9.43426L6.53649 15.43H6.571H7.41564L0.613533 8.62863L0.540771 9.43426Z" fill="white"/>
<path d="M0.292603 12.1865L3.53613 15.43H4.41527L0.365364 11.3801L0.292603 12.1865Z" fill="white"/>
<path d="M0 15.43H1.41473L0.117019 14.1323L0 15.43Z" fill="white"/>
</svg>
