<svg width="26" height="28" viewBox="0 0 26 28" fill="none" xmlns="http://www.w3.org/2000/svg">
<path d="M20.3352 2.67257L23.3051 5.14921C23.5096 5.31978 23.758 5.40301 24.005 5.40301C24.3183 5.40301 24.6292 5.26914 24.8456 5.00975C25.2324 4.54584 25.17 3.85612 24.706 3.46926L21.7362 0.992573C21.2723 0.605714 20.5826 0.668112 20.1957 1.13208C19.8088 1.596 19.8713 2.28566 20.3352 2.67257Z" fill="#252525"/>
<path d="M1.80778 5.40297C2.05475 5.40297 2.3032 5.31973 2.50767 5.14916L5.47748 2.67258C5.94139 2.28572 6.0039 1.59601 5.61704 1.13209C5.23024 0.668232 4.54046 0.605724 4.07655 0.992584L1.10669 3.46922C0.642776 3.85608 0.580268 4.54579 0.967127 5.00971C1.18353 5.26909 1.49448 5.40297 1.80778 5.40297Z" fill="#252525"/>
<path d="M22.0323 5.96766C19.8544 3.78968 17.0348 2.48686 14 2.23382V1.09375C14 0.489672 13.5103 0 12.9062 0C12.3022 0 11.8125 0.489672 11.8125 1.09375V2.23382C8.77767 2.48686 5.95815 3.78963 3.78016 5.96761C1.34247 8.4053 0 11.6464 0 15.0938C0 18.5411 1.34247 21.7822 3.78016 24.2198C6.2178 26.6575 9.45886 28 12.9062 28C15.6819 28 18.3268 27.1322 20.5551 25.4902C21.0414 25.1319 21.1451 24.4472 20.7868 23.9608C20.4284 23.4744 19.7437 23.3708 19.2574 23.7291C17.4077 25.0921 15.2115 25.8125 12.9062 25.8125C6.9959 25.8125 2.1875 21.0041 2.1875 15.0938C2.1875 9.1834 6.9959 4.375 12.9062 4.375C18.8166 4.375 23.625 9.1834 23.625 15.0938C23.625 16.899 23.1681 18.6833 22.3037 20.2538C22.0124 20.7831 22.2053 21.4482 22.7345 21.7394C23.2636 22.0306 23.9288 21.8379 24.2201 21.3086C25.2619 19.4158 25.8125 17.2668 25.8125 15.0938C25.8125 11.6464 24.47 8.4053 22.0323 5.96766Z" fill="#252525"/>
<path d="M18.2347 8.50942C17.7652 8.12951 17.0765 8.20197 16.6964 8.67157L13.2478 12.9331C13.1364 12.9155 13.0224 12.9062 12.9062 12.9062C11.7001 12.9062 10.7188 13.8876 10.7188 15.0937C10.7188 16.2999 11.7001 17.2812 12.9062 17.2812C14.1124 17.2812 15.0937 16.2999 15.0937 15.0937C15.0937 14.8175 15.0417 14.5532 14.9478 14.3096L18.3968 10.0477C18.7768 9.57807 18.7043 8.88933 18.2347 8.50942Z" fill="#252525"/>
</svg>
