<svg width="62" height="59" viewBox="0 0 62 59" fill="none" xmlns="http://www.w3.org/2000/svg">
<path fill-rule="evenodd" clip-rule="evenodd" d="M53.996 52.359C52.5597 52.1325 51.2805 52.0627 51.2805 51.2974C51.2805 51.0017 51.4559 50.6884 51.7364 50.4795C51.9815 50.2883 52.6293 50.2184 53.0676 50.2184C53.5229 50.2184 53.9779 50.4449 54.2585 50.7406C54.4329 50.9498 54.6438 51.2807 54.679 51.6283H57.0088C56.9559 50.7758 56.5883 49.9397 55.9224 49.4708C55.2739 49.0008 54.4332 48.4264 53.2778 48.4264C52.174 48.4264 51.0883 48.461 50.3356 49.0184C49.5817 49.5576 49.0393 50.4622 49.0393 51.2451C49.0393 51.6975 49.0042 52.2373 49.1793 52.5675C49.3721 52.8981 49.9325 53.5766 50.3708 53.838C50.9835 54.1859 52.4197 54.3253 53.2079 54.5345C53.8563 54.6905 54.6445 54.7257 54.8192 55.3693C54.924 55.7521 54.8015 56.1003 54.4513 56.3265C54.1188 56.5523 53.6109 56.709 53.0502 56.709C52.4717 56.709 51.9115 56.5347 51.6316 56.1868C51.3862 55.8565 51.246 55.5432 51.0531 55.039H48.7239C48.7765 56.1003 49.3718 57.1443 50.1076 57.7357C50.8258 58.3097 51.7893 58.5884 53.0153 58.5884C54.241 58.5884 55.3091 58.3796 56.0981 57.8222C56.8685 57.2657 57.2893 56.2217 57.2893 55.369C57.2893 54.6382 57.0794 54.0642 56.746 53.6115C56.0627 52.7245 54.8363 52.4804 53.996 52.359Z" fill="white"/>
<path fill-rule="evenodd" clip-rule="evenodd" d="M23.6239 58.3094H25.9886V48.5655H23.6239V58.3094Z" fill="white"/>
<path fill-rule="evenodd" clip-rule="evenodd" d="M23.6239 47.9047H26.006V45.5556H23.6239V47.9047Z" fill="white"/>
<path fill-rule="evenodd" clip-rule="evenodd" d="M20.1739 49.8533C19.2977 49.1745 18.1768 48.7055 16.9511 48.67C16.916 48.67 16.8808 48.67 16.8283 48.67C14.1134 48.67 11.9061 50.8627 11.9061 53.5418C11.9061 56.2391 14.1131 58.4485 16.8283 58.4485C16.8808 58.4485 16.916 58.4485 16.9511 58.4485C18.1768 58.4315 19.2977 57.9443 20.1565 57.1088L20.1739 58.3095H22.4157V45.5556H20.1739V49.8533ZM16.9685 56.4476H16.9511C15.3394 56.4476 14.026 55.1432 14.026 53.5418C14.026 51.959 15.3394 50.6363 16.9511 50.6363H16.9685C18.5625 50.6363 19.8933 51.9417 19.8933 53.5418C19.8933 55.1429 18.5625 56.4476 16.9685 56.4476Z" fill="white"/>
<path fill-rule="evenodd" clip-rule="evenodd" d="M34.8513 49.8185C33.9758 49.1396 32.8549 48.6697 31.6289 48.6354C31.5938 48.6354 31.5412 48.6354 31.5061 48.6354C28.7912 48.6354 26.5671 50.8448 26.5671 53.5249C26.5671 56.2218 28.7912 58.4316 31.5061 58.4316C31.5412 58.4316 31.5934 58.4316 31.6289 58.4316C32.8549 58.3967 33.9584 57.9094 34.8342 57.0746V58.2753H37.076V45.538H34.8342L34.8513 49.8185ZM31.6289 56.4301C30.0172 56.4301 28.6861 55.108 28.6861 53.5076C28.6861 51.9241 30.0169 50.6184 31.6289 50.6184C33.2403 50.6184 34.5714 51.9238 34.5714 53.5076C34.5714 55.108 33.2403 56.4301 31.6289 56.4301Z" fill="white"/>
<path fill-rule="evenodd" clip-rule="evenodd" d="M8.75374 48.5655V49.4881C8.29841 49.0009 8.08848 48.8442 7.56286 48.6524C7.0898 48.4787 6.44196 48.3224 5.81122 48.3048C5.77607 48.3048 5.74092 48.3048 5.70609 48.3048C4.95313 48.3048 4.28755 48.4265 3.69196 48.67C3.11377 48.9138 2.57074 49.2966 2.08026 49.8187C1.64267 50.2711 1.29183 50.8278 1.02934 51.4374C0.801676 52.0461 0.679138 52.6724 0.679138 53.3505C0.679138 54.8302 1.16929 56.0658 2.15056 57.0227C3.11377 57.9972 4.34012 58.5011 5.81122 58.5011C5.81122 58.5011 5.81122 58.5011 5.82895 58.5011C6.42423 58.5011 7.07207 58.3268 7.59769 58.1359C8.12299 57.9443 8.50834 57.7877 8.75341 57.4398V58.3265L11.0304 58.3095L11.0133 48.5482L8.75374 48.5655ZM5.82895 56.2907C5.81122 56.2907 5.81122 56.2907 5.81122 56.2907C4.19984 56.2907 2.90352 55.0032 2.90352 53.4024C2.90352 51.8193 4.19984 50.5142 5.81122 50.5142C5.81122 50.5142 5.81122 50.5142 5.82895 50.5142C7.42259 50.5142 8.73632 51.819 8.73632 53.4024C8.73632 55.0035 7.42259 56.2907 5.82895 56.2907Z" fill="white"/>
<path fill-rule="evenodd" clip-rule="evenodd" d="M45.9034 48.5309L45.9211 49.4532C45.4655 48.9839 45.2382 48.8266 44.7306 48.6177C44.2401 48.4444 43.6091 48.3047 42.9783 48.2878C42.9435 48.2878 42.9083 48.2878 42.8738 48.2878C42.1205 48.2878 41.4553 48.4092 40.8597 48.6356C40.2638 48.8791 39.7207 49.2799 39.2483 49.7841C38.7924 50.2364 38.4425 50.7932 38.1971 51.4198C37.9694 52.0108 37.8295 52.6547 37.8295 53.3329C37.8295 54.7953 38.337 56.0305 39.3177 57.005C40.2638 57.9619 41.5075 58.4664 42.9783 58.4664C43.5916 58.4664 44.2398 58.3101 44.7474 58.1012C45.273 57.9097 45.6764 57.7533 45.9211 57.4054V58.2931L48.1987 58.2755L48.1629 48.5312H45.9034V48.5309ZM42.9783 56.2733C41.3676 56.2563 40.0538 54.9692 40.0538 53.3681C40.0538 51.7853 41.3676 50.4972 42.9783 50.4796C44.5906 50.4796 45.9034 51.785 45.9034 53.3681C45.9034 54.9689 44.5906 56.2733 42.9783 56.2733Z" fill="white"/>
<path fill-rule="evenodd" clip-rule="evenodd" d="M59.2677 43.3804C59.2499 43.3804 59.2328 43.3634 59.2328 43.3634C57.7085 43.3634 56.4651 44.5983 56.4651 46.112C56.4651 47.6259 57.7085 48.8442 59.2328 48.8442C59.2328 48.8442 59.2502 48.8442 59.2677 48.8442C60.7739 48.8263 61.9999 47.6083 61.9999 46.112C61.9999 44.6156 60.7739 43.3977 59.2677 43.3804ZM59.2677 48.4088C57.9888 48.4088 56.9556 47.3821 56.9556 46.112C56.9556 44.877 57.9888 43.8327 59.2677 43.85C60.5466 43.85 61.5798 44.8767 61.5798 46.1299C61.5798 47.3821 60.5466 48.4088 59.2677 48.4088Z" fill="white"/>
<path fill-rule="evenodd" clip-rule="evenodd" d="M60.0731 46.5642C59.9854 46.4777 59.8806 46.3906 59.741 46.3035C60.0035 46.2692 60.2141 46.1644 60.3363 46.0078C60.4588 45.8857 60.5468 45.6948 60.5468 45.4856C60.5468 45.3117 60.4765 45.1381 60.4062 44.9987C60.3189 44.8766 60.1789 44.7725 60.0557 44.72C59.9158 44.6678 59.6881 44.6505 59.3556 44.6505H59.2676H58.0764V47.6255H58.6891V46.373H58.7942C58.9348 46.373 59.0396 46.3906 59.1099 46.4076C59.1802 46.4252 59.2151 46.4598 59.2676 46.5117C59.2676 46.5296 59.2853 46.5296 59.2853 46.5469C59.3556 46.5812 59.4608 46.7385 59.6185 46.964L60.0554 47.6252H60.7739L60.4059 47.0512C60.2663 46.8256 60.1431 46.6344 60.0731 46.5642ZM59.2676 45.9034C59.2328 45.9034 59.1802 45.9034 59.1273 45.9034H58.6891V45.1557H59.1451C59.1976 45.1557 59.2325 45.1557 59.2676 45.1557C59.4427 45.1557 59.5649 45.1557 59.6007 45.173C59.6881 45.173 59.7752 45.2249 59.8277 45.2777C59.898 45.3293 59.9158 45.4161 59.9158 45.5032C59.9158 45.5901 59.898 45.6948 59.8455 45.747C59.7932 45.7819 59.7407 45.8335 59.6881 45.8691C59.6185 45.8857 59.4779 45.8857 59.2676 45.9034Z" fill="white"/>
<path fill-rule="evenodd" clip-rule="evenodd" d="M25.1825 37.2672H14.8838C17.9615 39.1592 21.5628 40.4146 25.6607 41.2575L25.1825 37.2672ZM33.0349 37.2759L32.4212 41.0239C36.5372 40.2708 40.1656 39.0871 43.3158 37.2759H33.0349ZM31.8527 37.258L26.1934 37.2669C26.9877 38.9077 27.9986 40.2887 29.154 41.607C30.291 40.2618 31.0495 38.8719 31.8527 37.258ZM47.0797 34.7653L11.0571 34.7474C9.85656 33.7969 9.04426 33.3036 8.07847 32.0395H50.1031C49.1641 33.0617 48.0903 33.985 47.0797 34.7653ZM52.4497 28.9373L5.89407 28.9549C5.27106 28.0941 4.55808 26.8836 4.11598 25.9241H54.2281C53.7583 27.0005 53.1269 27.9955 52.4497 28.9373ZM19.1349 22.6428L2.87932 22.6518C1.39016 19.2356 0.451455 15.7118 0 11.3359C8.37611 12.8153 14.8387 16.2317 19.1349 22.6428ZM35.7878 22.6697H22.4206C22.1226 14.1245 24.5056 5.45372 29.1089 0.235291C33.784 5.3195 36.2032 13.9541 35.7878 22.6697ZM55.5996 22.6518L39.028 22.6608C43.6041 16.2676 50.175 12.6541 58.6866 11.3718C58.1542 15.6487 57.1613 19.2802 55.5996 22.6518Z" fill="white"/>
</svg>
