<svg width="24" height="24" viewBox="0 0 24 24" fill="none" xmlns="http://www.w3.org/2000/svg">
<path fill-rule="evenodd" clip-rule="evenodd" d="M23.8627 4.13033L19.8697 0.137285C19.6866 -0.0457617 19.3898 -0.0457617 19.2067 0.137285L0.137297 19.2067C0.0494062 19.2946 0 19.4139 0 19.5382C0 19.6625 0.0494062 19.7818 0.137297 19.8697L4.13034 23.8627C4.21823 23.9506 4.33748 24 4.46179 24C4.5861 24 4.70535 23.9506 4.79325 23.8627L23.8627 4.79324C24.0458 4.61019 24.0458 4.31338 23.8627 4.13033ZM4.46179 22.8683L1.13166 19.5382L1.83084 18.839L2.8252 19.8334C2.91675 19.9249 3.0367 19.9707 3.15665 19.9707C3.27661 19.9707 3.39661 19.9249 3.48811 19.8334C3.67115 19.6503 3.67115 19.3535 3.48811 19.1704L2.49375 18.1761L3.19293 17.4769L3.85579 18.1398C3.94734 18.2313 4.06729 18.2771 4.18725 18.2771C4.3072 18.2771 4.4272 18.2313 4.5187 18.1398C4.70179 17.9567 4.70179 17.6599 4.5187 17.4769L3.85593 16.814L3.85589 16.814L4.55507 16.1148L5.21798 16.7777C5.30953 16.8692 5.42948 16.915 5.54943 16.915C5.66939 16.915 5.78939 16.8692 5.88089 16.7777C6.06393 16.5946 6.06398 16.2978 5.88089 16.1148L5.21798 15.4519L5.91717 14.7527L6.91152 15.747C7.00307 15.8386 7.12302 15.8843 7.24298 15.8843C7.36293 15.8843 7.48293 15.8386 7.57443 15.747C7.75748 15.564 7.75748 15.2672 7.57443 15.0841L6.58007 14.0897L7.27926 13.3905L7.94216 14.0534C8.03371 14.145 8.15366 14.1907 8.27362 14.1907C8.39357 14.1907 8.51357 14.145 8.60507 14.0534C8.78812 13.8704 8.78812 13.5736 8.60507 13.3905L7.94216 12.7276L8.64135 12.0284L9.30421 12.6913C9.39576 12.7829 9.51571 12.8286 9.63566 12.8286C9.75562 12.8286 9.87562 12.7828 9.96712 12.6913C10.1502 12.5083 10.1502 12.2114 9.96712 12.0284L9.30421 11.3655L10.0034 10.6663L10.0034 10.6664L10.9978 11.6607C11.0893 11.7522 11.2093 11.798 11.3293 11.798C11.4492 11.798 11.5692 11.7522 11.6607 11.6607C11.8438 11.4776 11.8438 11.1808 11.6607 10.9978L10.6663 10.0034L11.3655 9.30426L12.0284 9.96716C12.12 10.0587 12.2399 10.1045 12.3599 10.1045C12.4798 10.1045 12.5998 10.0587 12.6913 9.96716C12.8744 9.78412 12.8744 9.48731 12.6913 9.30421L12.0284 8.64131L12.7276 7.94212L13.3905 8.60502C13.4821 8.69657 13.602 8.74232 13.722 8.74232C13.8419 8.74232 13.9619 8.69657 14.0534 8.60502C14.2365 8.42198 14.2365 8.12516 14.0534 7.94207L13.3905 7.27916L14.0897 6.57998L15.084 7.57434C15.1756 7.66588 15.2955 7.71163 15.4155 7.71163C15.5354 7.71163 15.6554 7.66588 15.7469 7.57434C15.93 7.39129 15.93 7.09448 15.7469 6.91138L14.7526 5.91702L15.4517 5.21783L16.1146 5.88074C16.2062 5.97229 16.3261 6.01804 16.4461 6.01804C16.566 6.01804 16.686 5.97229 16.7775 5.88074C16.9606 5.69769 16.9606 5.40088 16.7775 5.21779L16.1146 4.55488L16.8138 3.85569L17.4767 4.5186C17.5683 4.61015 17.6882 4.6559 17.8082 4.6559C17.9281 4.6559 18.0481 4.61015 18.1396 4.5186C18.3227 4.33555 18.3227 4.03874 18.1396 3.85565L17.4767 3.19274L18.1759 2.49355L19.1703 3.48791C19.2618 3.57946 19.3818 3.62521 19.5017 3.62521C19.6217 3.62521 19.7417 3.57946 19.8332 3.48791C20.0162 3.30486 20.0162 3.00805 19.8332 2.82496L18.839 1.83083L19.5382 1.13165L22.8683 4.46174L4.46179 22.8683Z" fill="black"/>
</svg>
