<svg width="41" height="42" viewBox="0 0 41 42" fill="none" xmlns="http://www.w3.org/2000/svg">
<g clip-path="url(#clip0)">
<path d="M29.221 11.1469C28.942 10.6856 28.3899 10.4663 27.8703 10.6111C27.3511 10.7559 26.9916 11.2292 26.9916 11.7682C26.9916 13.2343 25.7989 14.4267 24.3331 14.4267C22.8673 14.4267 21.6746 13.2343 21.6746 11.7682V1.70116C21.6746 1.21538 21.3818 0.77745 20.9329 0.591644C20.484 0.405524 19.9676 0.508124 19.6241 0.851897C19.489 0.986717 16.2862 4.20861 13.0412 9.07617C11.1274 11.9465 9.6003 14.7936 8.50236 17.5385C7.11163 21.0159 6.40625 24.3448 6.40625 27.4331C6.40625 35.1895 12.7168 41.5 20.4734 41.5C28.2297 41.5 34.5403 35.1895 34.5403 27.4331C34.5406 22.468 32.7507 16.9886 29.221 11.1469ZM28.4884 27.1207C28.4884 27.7841 27.9507 28.3218 27.2872 28.3218C26.6241 28.3218 26.0861 27.7841 26.0861 27.1207V24.8744L20.1052 30.8555C19.8797 31.0808 19.5744 31.2071 19.2557 31.2071C18.9372 31.2071 18.6316 31.0808 18.4064 30.8555L15.6168 28.0656L13.7368 29.9456C13.2676 30.4148 12.5072 30.4148 12.038 29.9456C11.5688 29.4764 11.5688 28.716 12.038 28.2468L14.7675 25.5175C15.2367 25.0486 15.9972 25.0486 16.4664 25.5178L19.2557 28.3074L24.3875 23.1756H22.141C21.4775 23.1756 20.9398 22.6378 20.9398 21.9744C20.9398 21.3109 21.4775 20.7732 22.141 20.7732H27.2876C27.9507 20.7732 28.4887 21.3112 28.4887 21.9744V27.1207H28.4884Z" fill="#252525"/>
</g>
<defs>
<clipPath id="clip0">
<rect y="0.5" width="41" height="41" fill="white"/>
</clipPath>
</defs>
</svg>
