<svg width="111" height="162" viewBox="0 0 111 162" fill="none" xmlns="http://www.w3.org/2000/svg">
<path d="M48.0918 47.4575L43.2547 59.3021L32.709 85.125L20.7803 85.125L31.186 60.0631L36.4199 47.4575L48.0918 47.4575Z" fill="#00DA7E" stroke="#FEFEFE" stroke-width="2"/>
<path d="M104.339 67.6538L60.4688 124.35L60.5887 124.411L104.499 67.6538H104.339Z" fill="#9E9E9E"/>
<path d="M110.048 64.9312C109.614 64.0436 108.973 63.274 108.178 62.6874C107.154 61.9476 105.921 61.5545 104.658 61.5655L72.5083 62.3168L95.7483 0.210938H38.6183L14.4283 58.7106L0.458341 92.4882C0.0800208 93.4013 -0.0676059 94.3938 0.0285432 95.3777C0.124692 96.3616 0.461648 97.3065 1.00955 98.1288C1.55745 98.9511 2.29938 99.6252 3.16959 100.092C4.0398 100.558 5.01142 100.802 5.99834 100.802H51.0783L39.9983 161.015L109.448 71.252C110.139 70.3654 110.563 69.2993 110.67 68.1794C110.776 67.0595 110.56 65.9325 110.048 64.9312ZM60.5883 124.423L60.4683 124.363L50.7883 136.874L53.6583 121.327L53.4883 121.247L57.0783 101.824C57.2384 100.956 57.2057 100.064 56.9825 99.2098C56.7593 98.356 56.3511 97.5619 55.787 96.8839C55.2228 96.206 54.5165 95.6608 53.7183 95.2872C52.92 94.9135 52.0494 94.7206 51.1683 94.722H6.16834L18.8683 63.8895L42.6783 6.30132H86.2583L66.2583 59.532C65.9175 60.4409 65.8015 61.4189 65.9204 62.3825C66.0392 63.346 66.3893 64.2664 66.9406 65.0648C67.492 65.8633 68.2283 66.5161 69.0864 66.9673C69.9446 67.4185 70.8991 67.6548 71.8683 67.6559H104.498L60.5883 124.423Z" fill="#494949"/>
<path d="M104.339 67.6538L60.4688 124.35L60.5887 124.411L104.499 67.6538H104.339ZM104.339 67.6538L60.4688 124.35L60.5887 124.411L104.499 67.6538H104.339ZM104.339 67.6538L60.4688 124.35L60.5887 124.411L104.499 67.6538H104.339ZM104.339 67.6538L60.4688 124.35L60.5887 124.411L104.499 67.6538H104.339ZM104.339 67.6538L60.4688 124.35L60.5887 124.411L104.499 67.6538H104.339Z" fill="white"/>
</svg>
