<svg width="176" height="154" viewBox="0 0 176 154" fill="none" xmlns="http://www.w3.org/2000/svg">
<path d="M67.9057 44.9419C64.098 44.9419 60.999 48.0725 60.999 51.9379C60.999 55.803 64.0977 58.9363 67.9057 58.9363C71.7184 58.9363 74.8168 55.8027 74.8168 51.9379C74.8168 48.0725 71.7184 44.9419 67.9057 44.9419Z" fill="#494949" stroke="white" stroke-width="2"/>
<path d="M107.963 44.8867C104.119 44.8867 101 48.0435 101 51.9375C101 55.8315 104.119 58.9883 107.963 58.9883C111.804 58.9883 114.922 55.8315 114.922 51.9375C114.923 48.0435 111.804 44.8867 107.963 44.8867Z" fill="#494949" stroke="white" stroke-width="2"/>
<path d="M166.824 40.1399C161.351 30.9262 153.663 22.1618 148.472 17.5639C137.14 7.52394 127.687 7.76844 123.06 8.80827C121.116 9.24523 119.331 9.96566 117.759 10.9266C109.686 4.9351 99.8637 2 87.9809 2C76.0981 2 66.2758 4.9351 58.2023 10.9269C56.6304 9.96599 54.8457 9.24523 52.9017 8.80861C48.2759 7.76911 38.8217 7.52427 27.4903 17.5639C22.2989 22.1622 14.611 30.9265 9.13778 40.1402C1.72797 52.6145 0.0775443 62.7055 4.23217 70.1338C9.30504 79.2031 16.9997 81.5239 23.2114 82.0962C21.6846 88.0259 20.7418 94.3693 20.7418 102.273C20.7418 112.75 23.1265 121.763 27.8302 129.063C31.965 135.48 37.9179 140.619 45.5231 144.337C59.575 151.206 76.4846 152 87.9812 152C99.4778 152 116.388 151.206 130.439 144.337C138.044 140.619 143.997 135.48 148.132 129.063C152.836 121.763 155.221 112.749 155.221 102.273C155.221 94.3696 154.278 88.0262 152.751 82.0962C158.963 81.5236 166.658 79.2024 171.73 70.1335C175.884 62.7058 174.233 52.6145 166.824 40.1399ZM26.477 71.7291C20.9796 71.5847 16.5093 70.5204 13.419 64.9958C11.3226 61.2472 13.0607 54.1471 18.1883 45.5151C23.0546 37.3224 30.0395 29.3671 34.4702 25.4419C41.7873 18.9584 47.2726 18.6014 49.8534 18.947C42.1732 28.3095 37.4658 40.4771 33.5291 52.3072C31.8989 57.2061 30.3277 61.3886 28.8076 65.4341C27.9948 67.5984 27.2129 69.68 26.477 71.7291ZM88.2302 121.5C89.5609 121.5 88.3073 121.467 88.2302 121.5V121.5ZM125.817 134.881C117.739 138.829 107.046 140.97 93.2439 141.394V130.614V121.5H88.2302H82.7182V141.394C68.9163 140.971 58.2231 138.829 50.1453 134.881C37.4423 128.671 31.2671 118.005 31.2671 102.273C31.2671 88.8145 34.3685 80.56 38.6604 69.1356C40.1426 65.1909 41.8219 60.7199 43.5157 55.6306C52.8191 27.6747 62.6605 12.5256 87.9809 12.5256C113.301 12.5256 123.143 27.675 132.446 55.6306C134.139 60.7202 135.819 65.1909 137.301 69.1356C141.593 80.56 144.694 88.8141 144.694 102.273C144.695 118.005 138.52 128.671 125.817 134.881ZM162.543 64.9958C159.453 70.521 154.982 71.5844 149.485 71.7291C148.749 69.6797 147.968 67.5984 147.155 65.4341C145.635 61.3889 144.064 57.2061 142.433 52.3072C138.497 40.4771 133.789 28.3095 126.109 18.947C128.69 18.602 134.175 18.9584 141.493 25.4422C145.924 29.3668 152.908 37.3217 157.774 45.5144C162.902 54.1471 164.64 61.2475 162.543 64.9958Z" fill="#494949"/>
<path d="M88.2302 121.5C88.3073 121.467 89.5609 121.5 88.2302 121.5ZM88.2302 121.5H82.7182V141.394C68.9163 140.971 58.2231 138.829 50.1453 134.881C37.4423 128.671 31.2671 118.005 31.2671 102.273C31.2671 88.8145 34.3685 80.56 38.6604 69.1356C40.1426 65.1909 41.8219 60.7199 43.5157 55.6306C52.8191 27.6747 62.6605 12.5256 87.9809 12.5256C113.301 12.5256 123.143 27.675 132.446 55.6306C134.139 60.7202 135.819 65.1909 137.301 69.1356C141.593 80.56 144.694 88.8141 144.694 102.273C144.695 118.005 138.519 128.671 125.817 134.881C117.739 138.829 107.046 140.97 93.2439 141.394V130.614V121.5H88.2302ZM166.824 40.1399C161.351 30.9262 153.663 22.1618 148.472 17.5639C137.14 7.52394 127.687 7.76844 123.06 8.80827C121.116 9.24523 119.331 9.96566 117.759 10.9266C109.686 4.9351 99.8637 2 87.9809 2C76.0981 2 66.2758 4.9351 58.2023 10.9269C56.6304 9.96599 54.8457 9.24523 52.9017 8.80861C48.2759 7.76911 38.8217 7.52427 27.4903 17.5639C22.2989 22.1622 14.611 30.9265 9.13778 40.1402C1.72797 52.6145 0.0775443 62.7055 4.23217 70.1338C9.30504 79.2031 16.9997 81.5239 23.2114 82.0962C21.6846 88.0259 20.7418 94.3693 20.7418 102.273C20.7418 112.75 23.1265 121.763 27.8302 129.063C31.965 135.48 37.9179 140.619 45.5231 144.337C59.575 151.206 76.4846 152 87.9812 152C99.4778 152 116.388 151.206 130.439 144.337C138.044 140.619 143.997 135.48 148.132 129.063C152.836 121.763 155.221 112.749 155.221 102.273C155.221 94.3696 154.278 88.0262 152.751 82.0962C158.963 81.5236 166.658 79.2024 171.73 70.1335C175.884 62.7058 174.233 52.6145 166.824 40.1399ZM26.477 71.7291C20.9796 71.5847 16.5093 70.5204 13.419 64.9958C11.3226 61.2472 13.0607 54.1471 18.1883 45.5151C23.0546 37.3224 30.0395 29.3671 34.4702 25.4419C41.7873 18.9584 47.2726 18.6014 49.8534 18.947C42.1732 28.3095 37.4658 40.4771 33.5291 52.3072C31.8989 57.2061 30.3277 61.3886 28.8076 65.4341C27.9948 67.5984 27.2129 69.68 26.477 71.7291ZM162.543 64.9958C159.453 70.521 154.982 71.5844 149.485 71.7291C148.749 69.6797 147.968 67.5984 147.155 65.4341C145.635 61.3889 144.064 57.2061 142.433 52.3072C138.497 40.4771 133.789 28.3095 126.109 18.947C128.69 18.602 134.175 18.9584 141.493 25.4422C145.924 29.3668 152.908 37.3217 157.774 45.5144C162.902 54.1471 164.64 61.2475 162.543 64.9958Z" stroke="white" stroke-width="3"/>
<path d="M104.201 83.2693C100.379 81.6768 95.5618 81 87.5197 81C79.4776 81 74.6603 81.637 70.8383 83.2693C65.1452 85.658 62 90.4753 62 96.7657C62 104.489 68.0117 111.297 70.5597 113.885C72.391 115.716 76.3723 119.299 81.2692 121.171L87.7586 123.52L93.7305 121.171C98.6274 119.26 102.609 115.716 104.44 113.885C107.028 111.297 113 104.489 113 96.7657C113.039 90.4753 109.894 85.658 104.201 83.2693ZM95.6414 105.086C92.4565 108.271 89.0724 109.983 87.5197 109.983C85.967 109.983 82.5432 108.271 79.3582 105.086C76.1334 101.862 74.4613 98.4776 74.4613 96.8055C74.4613 95.2926 74.7001 95.213 75.6556 94.8149C78.3629 93.6603 83.7375 93.5409 87.5197 93.5409C91.3019 93.5409 96.6367 93.6603 99.3838 94.8149C100.339 95.213 100.578 95.3324 100.578 96.8055C100.578 98.4776 98.8662 101.862 95.6414 105.086Z" fill="#00DA7E" stroke="white" stroke-width="3"/>
</svg>
