<svg width="152" height="152" viewBox="0 0 152 152" fill="none" xmlns="http://www.w3.org/2000/svg">
<path d="M15.9825 89.6332L15.9824 89.6331C12.6947 86.012 12.6011 80.5204 15.75 76.7904V41C15.75 38.3765 13.6235 36.25 11 36.25C8.37651 36.25 6.25 38.3765 6.25 41V88.3173C6.25277 91.2489 6.99976 94.1319 8.42104 96.6961L15.9825 89.6332ZM15.9825 89.6332L36.465 112.168L36.6332 112.353M15.9825 89.6332L36.6332 112.353M36.6332 112.353L36.8182 112.185M36.6332 112.353L36.8182 112.185M36.8182 112.185L40.5182 108.82L40.7031 108.652M36.8182 112.185L40.7031 108.652M40.7031 108.652L40.535 108.467M40.7031 108.652L40.535 108.467M40.535 108.467L20.0525 85.9343L19.8675 86.1025M40.535 108.467L19.8675 86.1025M19.8675 86.1025L20.0525 85.9343C18.5098 84.2375 18.5721 81.6278 20.1942 80.0068L20.1944 80.0067M19.8675 86.1025L20.1944 80.0067M20.1944 80.0067C21.8699 78.3297 24.5878 78.3285 26.2648 80.0043M20.1944 80.0067L26.2648 80.0043M26.2648 80.0043C26.3193 80.0588 26.3723 80.1147 26.4242 80.1722L26.2648 80.0043ZM66.25 125.75H66.1768C65.4583 113.272 58.5474 101.973 47.7548 95.6514L30.5124 76.4946C30.5122 76.4943 30.5119 76.4939 30.5116 76.4936C28.1976 73.8724 24.6471 72.7249 21.25 73.4781V41C21.25 35.3391 16.6609 30.75 11 30.75C5.33912 30.75 0.75 35.3391 0.75 41L0.75 88.3175L0.75 88.3177C0.752528 92.1853 1.73801 95.9889 3.61387 99.3713L3.61397 99.3714L25.75 139.212V148.5C25.75 150.019 26.9813 151.25 28.5 151.25H63.5C65.0187 151.25 66.25 150.019 66.25 148.5V126V125.75ZM30.9035 137.164L8.42116 96.6963L26.4244 80.1725L43.9567 99.6522L43.9565 99.6525L43.9652 99.6613C44.2041 99.9015 44.4741 100.109 44.7682 100.277C54.6402 105.933 60.7354 116.435 60.75 127.813V145.75H31.25V138.5C31.25 138.032 31.1307 137.572 30.9035 137.164C30.9035 137.164 30.9035 137.164 30.9035 137.164Z" fill="#494949" stroke="#494949" stroke-width="0.5"/>
<path d="M130.75 41V73.4792C130.017 73.3188 129.268 73.2419 128.517 73.25L128.514 73.2501C125.825 73.31 123.281 74.4835 121.489 76.4906C121.489 76.4907 121.489 76.4909 121.488 76.491L104.25 95.6437C93.443 101.955 86.5261 113.264 85.8229 125.75H85.75V126V148.5C85.75 150.019 86.9813 151.25 88.5 151.25H123.5C125.019 151.25 126.25 150.019 126.25 148.5V139.207L148.108 99.5892C148.109 99.5882 148.109 99.5872 148.11 99.5863C150.165 96.0908 151.249 92.11 151.25 88.0551V41C151.25 35.3391 146.661 30.75 141 30.75C135.339 30.75 130.75 35.3391 130.75 41ZM143.335 96.8602L143.335 96.8602L143.331 96.8667L121.081 137.172L121.08 137.174C120.86 137.581 120.746 138.038 120.75 138.501V145.75H91.25V127.813C91.2805 116.391 97.4275 105.86 107.358 100.217C107.614 100.072 107.846 99.8864 108.043 99.6674L108.043 99.6672L125.576 80.1676C125.576 80.1675 125.576 80.1674 125.576 80.1673C127.167 78.406 129.885 78.2681 131.646 79.8593C133.408 81.4504 133.546 84.1681 131.955 85.9297C131.955 85.9298 131.955 85.9299 131.954 85.9299L111.465 108.462L111.297 108.647L111.482 108.815L115.182 112.185L115.367 112.353L115.535 112.168L136.017 89.6382L136.018 89.6381C139.308 86.0161 139.402 80.521 136.25 76.7904V41C136.25 38.3765 138.377 36.25 141 36.25C143.623 36.25 145.75 38.3765 145.75 41V88.0547C145.746 91.1528 144.912 94.1937 143.335 96.8602Z" fill="#494949" stroke="#494949" stroke-width="0.5"/>
<path d="M101 63.25C92.2103 63.2595 83.9625 67.435 78.75 74.4741V58.75H81H81.0003C96.3184 58.732 108.732 46.3184 108.75 31.0003V31C108.75 29.4813 107.519 28.25 106 28.25H101H101C92.2103 28.2595 83.9625 32.435 78.75 39.4741V23.75H81H81.0003C92.1788 23.7373 101.237 14.6788 101.25 3.50028V3.5C101.25 1.9813 100.019 0.75 98.5 0.75L93.5 0.75L93.4999 0.75C86.2766 0.754341 79.6151 4.60476 76 10.8325C72.3849 4.60476 65.7234 0.754341 58.5002 0.75H58.5H53.5C51.9813 0.75 50.75 1.9813 50.75 3.5V3.50028C50.7627 14.6788 59.8212 23.7373 70.9997 23.75H71H73.25V39.4741C68.0375 32.435 59.7897 28.2595 51.0003 28.25H51H46C44.4813 28.25 43.25 29.4813 43.25 31L43.25 31.0003C43.268 46.3184 55.6816 58.732 70.9997 58.75H71H73.25V74.4741C68.0375 67.435 59.7897 63.2595 51.0003 63.25H51H46C44.4813 63.25 43.25 64.4813 43.25 66L43.25 66.0003C43.268 81.3185 55.6816 93.732 70.9997 93.75H71H73.25V113.5V113.75H73.5H78.5H78.75V113.5V93.75H81H81.0003C96.3184 93.732 108.732 81.3185 108.75 66.0003V66C108.75 64.4813 107.519 63.25 106 63.25H101H101ZM101 33.75H103.081C101.684 44.8671 92.2332 53.2365 80.9997 53.25H78.9191C80.3163 42.1329 89.7668 33.7635 101 33.75ZM93.5003 6.25H95.4933C94.1674 13.1925 88.0954 18.2412 80.9997 18.25H79.0067C80.3326 11.3075 86.4046 6.25879 93.5003 6.25ZM71.0003 18.25C63.9046 18.2412 57.8326 13.1925 56.5067 6.25H58.4997C65.5954 6.25879 71.6674 11.3075 72.9933 18.25H71.0003ZM71.0003 53.25C59.7668 53.2365 50.3163 44.8671 48.9191 33.75H50.9997C62.2332 33.7635 71.6837 42.1329 73.0809 53.25H71.0003ZM71.0003 88.25C59.7668 88.2365 50.3163 79.8671 48.9191 68.75H50.9997C62.2332 68.7635 71.6837 77.1329 73.0809 88.25H71.0003ZM80.9997 88.25H78.9191C80.3163 77.1329 89.7668 68.7635 101 68.75H103.081C101.684 79.8671 92.2332 88.2365 80.9997 88.25Z" fill="#00DA7E" stroke="#00DA7E" stroke-width="0.5"/>
</svg>
