<svg width="100" height="101" viewBox="0 0 100 101" fill="none" xmlns="http://www.w3.org/2000/svg">
<path d="M26.6667 25.1831C20.2262 25.1904 15.0073 30.4183 15 36.8697V53.5648H18.3333V46.8868H35V53.5648H38.3333V36.8697C38.326 30.4183 33.1071 25.1904 26.6667 25.1831ZM18.3333 36.8697C18.3325 34.363 19.4572 31.9883 21.3957 30.4028C23.3341 28.8164 25.8813 28.1879 28.3333 28.6892V43.5477H18.3333V36.8697ZM35 43.5477H31.6667V30.2348C33.7573 31.7984 34.9927 34.2562 35 36.8697V43.5477Z" fill="#FF007C"/>
<path d="M70 23.5149V26.854H73.3333V11.8284C73.3333 9.06242 71.0946 6.81982 68.3333 6.81982H55C52.2388 6.81982 50 9.06242 50 11.8284V26.854H53.3333V23.5149H70ZM55 10.1588H68.3333C69.2537 10.1588 70 10.9064 70 11.8284V20.1759H53.3333V11.8284C53.3333 10.9064 54.0796 10.1588 55 10.1588Z" fill="#FF007C"/>
<path d="M80 20.1748V8.48818C79.9943 3.87991 76.2671 0.146331 71.6667 0.140625H51.6667C47.0662 0.146331 43.339 3.87991 43.3333 8.48818V20.1748H34.2749C28.6027 17.5694 21.9963 18.0373 16.7464 21.4155C11.4966 24.7945 8.3252 30.619 8.33333 36.8699V43.5479H0V91.9638C0.00569662 96.5721 3.73291 100.306 8.33333 100.311H51.6667C55.625 100.306 59.0356 97.5177 59.8332 93.6333H91.6667C96.2671 93.6276 99.9943 89.894 100 85.2857V20.1748H80ZM8.33333 96.9723C5.5721 96.9723 3.33333 94.7297 3.33333 91.9638V46.887H8.33333V53.565H11.6667V36.8699C11.6667 28.5712 18.3822 21.8443 26.6667 21.8443C34.9512 21.8443 41.6667 28.5712 41.6667 36.8699V53.565H45V46.887H50V91.9638C50 94.7297 47.7612 96.9723 45 96.9723H8.33333ZM56.6667 91.9638C56.6667 94.7297 54.4279 96.9723 51.6667 96.9723H51.6235C52.7262 95.536 53.3268 93.776 53.3333 91.9638V46.887H56.6667V91.9638ZM60 90.2943V43.5479H45V36.8699C45.0122 31.9967 43.0778 27.3216 39.6281 23.8863C39.4971 23.7543 39.353 23.641 39.2179 23.5138H43.3333V26.8528H46.6667V8.48818C46.6667 5.72224 48.9054 3.47965 51.6667 3.47965H71.6667C74.4279 3.47965 76.6667 5.72224 76.6667 8.48818V26.8528H80V23.5138H88.3333V85.2857C88.3333 88.0517 86.0946 90.2943 83.3333 90.2943H60ZM96.6667 85.2857C96.6667 88.0517 94.4279 90.2943 91.6667 90.2943H89.9569C91.0596 88.8579 91.6602 87.0979 91.6667 85.2857V23.5138H96.6667V85.2857Z" fill="#FF007C"/>
<path d="M65.4467 74.3557C64.7647 74.5913 64.0681 74.7821 63.3617 74.9264C62.4592 75.1106 61.8774 75.9926 62.0613 76.8967C62.246 77.7999 63.1266 78.3836 64.0282 78.1985C64.8754 78.0241 65.7112 77.795 66.5282 77.5113C67.3917 77.2048 67.8474 76.2584 67.5479 75.391C67.2476 74.5237 66.3061 74.0614 65.4386 74.3557H65.4467Z" fill="#FF007C"/>
<path d="M59.9986 38.5381C58.6452 38.5381 57.2959 38.6742 55.9703 38.9457C55.3746 39.0525 54.8838 39.4739 54.6877 40.0478C54.4916 40.6209 54.621 41.2551 55.0254 41.7059C55.4307 42.1559 56.0476 42.3516 56.6368 42.2162C64.3793 40.6127 72.1812 44.6789 75.3135 51.9504C78.4467 59.2219 76.0484 67.6975 69.5722 72.2405C69.0627 72.5748 68.7763 73.1601 68.8243 73.7674C68.8715 74.3755 69.2466 74.9087 69.8008 75.1589C70.3558 75.4092 71.0028 75.3366 71.4887 74.9698C78.6298 69.949 81.6978 60.8703 79.0692 52.5374C76.4415 44.2037 68.7234 38.5381 59.9986 38.5381Z" fill="#FF007C"/>
<path d="M26.6667 61.9141C20.223 61.9141 15 67.146 15 73.6006C15 80.0553 20.223 85.2872 26.6667 85.2872C27.3096 85.2872 27.9517 85.2342 28.5864 85.1299C29.4954 84.9799 30.1099 84.1207 29.9601 83.2101C29.8096 82.3004 28.9518 81.6841 28.0436 81.8349C27.5887 81.9099 27.1281 81.9482 26.6667 81.9482C22.0646 81.9482 18.3333 78.2106 18.3333 73.6006C18.3333 68.9907 22.0646 65.2531 26.6667 65.2531C31.2687 65.2531 35 68.9907 35 73.6006C35 74.0523 34.9642 74.5031 34.8934 74.9498C34.7762 75.5473 34.9935 76.162 35.4606 76.5525C35.9277 76.9429 36.5698 77.0481 37.1362 76.8255C37.7026 76.6038 38.1038 76.0902 38.182 75.4854C38.7337 72.1015 37.7743 68.6451 35.5575 66.0324C33.3407 63.4197 30.0895 61.9141 26.6667 61.9141Z" fill="#FF007C"/>
<path d="M32.953 79.0797C32.7056 79.3634 32.4395 79.6307 32.1563 79.8794C31.6794 80.2641 31.4516 80.8804 31.563 81.4837C31.6753 82.0877 32.1083 82.5809 32.6918 82.7684C33.2753 82.9567 33.9141 82.8084 34.356 82.3836C34.7523 82.0356 35.1242 81.6614 35.4701 81.2628C36.0536 80.5649 35.9722 79.5264 35.2854 78.9297C34.5985 78.3321 33.5609 78.3965 32.953 79.074V79.0797Z" fill="#FF007C"/>
</svg>
