<svg width="100" height="101" viewBox="0 0 100 101" fill="none" xmlns="http://www.w3.org/2000/svg">
<path d="M97.4554 43.2976C97.9698 43.6171 98.6159 43.6318 99.1441 43.3375C99.6731 43.0424 100 42.4848 100 41.8783V31.8612C100 31.2832 99.7024 30.7468 99.2116 30.442L50.8782 0.390686C50.3403 0.0572715 49.6599 0.0572715 49.122 0.390686L26.6667 14.3533V10.1575C26.6667 9.23553 25.9205 8.488 25.0001 8.488H18.3334C17.413 8.488 16.6667 9.23553 16.6667 10.1575V20.5708L0.788576 30.442C0.297852 30.7468 0 31.2832 0 31.8612V41.8783C0 42.4848 0.327963 43.0424 0.856122 43.3375C1.38428 43.6318 2.03125 43.6171 2.54476 43.2976L6.66668 40.7346V98.6418C6.66668 99.5638 7.41294 100.311 8.33335 100.311H91.6669C92.5873 100.311 93.3335 99.5638 93.3335 98.6418V81.3508C96.8085 80.1247 99.3264 77.0816 99.8846 73.4344C100.442 69.7864 98.9488 66.1279 96.0004 63.9162C95.8433 63.7997 95.6838 63.7092 95.5251 63.604C97.641 59.1898 96.7645 53.9195 93.3335 50.4313V40.7346L97.4554 43.2976ZM20 11.827H23.3334V16.4231L20 18.4953V11.827ZM3.33334 32.7914L50.0001 3.77537L96.6669 32.7897V38.8735L50.8782 10.4078C50.3403 10.0744 49.6599 10.0744 49.122 10.4078L3.33334 38.8735V32.7914ZM20 96.9723V53.5649H40.0001V96.9723H20ZM73.3335 96.9723V73.5991H76.6668V96.9723H73.3335ZM90.0002 96.9723H80.0002V81.9467H90.0002V96.9723ZM96.6669 71.9296C96.6612 75.1097 94.4232 77.8471 91.312 78.4797C90.8807 78.5685 90.4405 78.6117 90.0002 78.6077H80.0002V71.9296C80.0002 71.0076 79.2539 70.2601 78.3335 70.2601H71.6668C70.7464 70.2601 70.0001 71.0076 70.0001 71.9296V78.6077H58.3335C55.5722 78.6077 53.3334 76.3659 53.3334 73.5991C53.34 72.7105 53.5849 71.8407 54.0439 71.0802C55.6097 72.6885 57.7573 73.5967 60.0001 73.5991C60.206 73.6032 60.4111 73.582 60.6121 73.5355C61.478 73.3276 62.0273 72.4741 61.8597 71.5978C61.6912 70.7215 60.8652 70.1321 59.9838 70.2601C57.2283 70.2511 55.0001 68.0118 55.0001 65.2515C55.0001 65.0159 55.0164 64.7803 55.0489 64.5472C55.2768 62.9119 56.303 61.4976 57.785 60.7745C58.1381 60.5919 58.5125 60.4557 58.8999 60.3701H58.9153C60.0986 60.1085 61.3364 60.287 62.3984 60.8707C63.2016 61.3231 64.2181 61.0378 64.6697 60.234C65.1206 59.4302 64.8366 58.4112 64.0333 57.9596C62.8322 57.3001 61.4869 56.948 60.1165 56.9341C60.0766 56.9341 60.0416 56.9105 60.0001 56.9105C59.8439 56.9105 59.6933 56.9496 59.5387 56.9578C59.2555 56.9724 58.9755 57.001 58.7054 57.0425C58.5882 57.0613 58.4685 57.0548 58.3538 57.0776C58.3538 57.0213 58.3416 56.9675 58.3416 56.9105C58.3481 53.7296 60.5877 50.9922 63.7005 50.3612C64.1277 50.2699 64.5631 50.2243 65.0001 50.2259C66.4202 50.2218 67.8037 50.6767 68.9455 51.522C69.6868 52.0682 70.7301 51.9093 71.2762 51.1666C71.8223 50.424 71.6636 49.3789 70.9222 48.8319C69.258 47.6059 67.2536 46.9309 65.1889 46.9023H65.1686C65.1784 46.8551 65.1987 46.8119 65.2085 46.767C65.3102 46.3105 65.4494 45.8638 65.6251 45.4309C65.6919 45.2646 65.7822 45.1203 65.8571 44.9638C65.9987 44.6606 66.1582 44.3663 66.3356 44.0826C66.4422 43.9155 66.5635 43.7614 66.6823 43.6049C66.8646 43.3563 67.0615 43.1174 67.2706 42.89C67.4106 42.7416 67.5571 42.6014 67.7068 42.4628C67.9298 42.2574 68.1642 42.0634 68.4083 41.8832C68.5752 41.7617 68.742 41.6435 68.9088 41.5327C69.1741 41.3688 69.4484 41.2196 69.73 41.0851C69.9066 41.0003 70.0799 40.9082 70.2654 40.8349C70.5885 40.7118 70.9189 40.6091 71.255 40.5259C71.4219 40.4843 71.5789 40.4264 71.7555 40.393C72.8249 40.168 73.9284 40.1623 75.0002 40.3759C75.1768 40.411 75.3338 40.486 75.5006 40.5332C75.8579 40.6205 76.2095 40.7321 76.5521 40.8667C76.7352 40.9449 76.8955 41.059 77.0705 41.1471C77.3781 41.2922 77.6768 41.4544 77.9657 41.6346C78.1317 41.752 78.2855 41.9036 78.4499 42.0324C78.7103 42.2239 78.9601 42.431 79.1969 42.6511C79.3556 42.8084 79.4785 42.9951 79.6234 43.1639C79.8341 43.3921 80.0311 43.6318 80.215 43.8821C80.3468 44.0753 80.4388 44.2945 80.5487 44.5C80.7082 44.7559 80.8522 45.0209 80.98 45.294C81.0752 45.5165 81.1273 45.7603 81.2021 45.9942C81.3071 46.2755 81.3958 46.5624 81.4683 46.8534C81.5203 47.0955 81.522 47.3548 81.5505 47.6034C81.6001 47.9107 81.631 48.2205 81.6432 48.5319C81.6359 48.5922 81.631 48.6526 81.6302 48.7137C81.6204 50.2487 81.1729 51.7495 80.3403 53.0391C79.8464 53.8209 80.0791 54.8562 80.8595 55.351C81.64 55.845 82.6735 55.6127 83.1667 54.8309C84.0513 53.4386 84.6283 51.8726 84.8569 50.2381C84.905 50.2381 84.9473 50.2259 84.9953 50.2259C87.8688 50.2275 90.5381 51.7112 92.0599 54.1527C93.5817 56.5942 93.7404 59.6487 92.4807 62.2353C92.3269 62.1962 92.1722 62.1465 92.02 62.1196C91.356 61.9785 90.6789 61.9092 90.0002 61.9125C86.8451 61.9003 83.8714 63.3913 81.9899 65.9298C81.4382 66.6675 81.5871 67.7134 82.3236 68.2669C83.0601 68.8204 84.105 68.6704 84.6567 67.9327C85.9108 66.2387 87.8949 65.2426 90.0002 65.2515C90.46 65.2483 90.919 65.2955 91.369 65.3917C91.8028 65.4733 92.2235 65.6118 92.6223 65.8026C93.113 66.0015 93.5752 66.2648 93.9968 66.586C95.6716 67.8512 96.6595 69.828 96.6669 71.9296ZM90.0002 38.6664V48.0159C89.9286 47.9808 89.8521 47.9572 89.7805 47.9238C89.5086 47.8023 89.2336 47.6866 88.9471 47.5896C88.8039 47.5366 88.6582 47.4917 88.5117 47.4444C88.2839 47.3711 88.0519 47.3059 87.8184 47.248C87.6418 47.2023 87.4652 47.1591 87.287 47.1224C87.0803 47.0809 86.8703 47.0507 86.662 47.0205C86.4536 46.9904 86.2787 46.9586 86.085 46.9407C85.7285 46.9056 85.3656 46.8869 85.0002 46.8869H84.957C84.9318 46.8869 84.9066 46.8869 84.8822 46.8869C84.8635 46.7605 84.8317 46.6366 84.8106 46.5094C84.7821 46.3431 84.7536 46.1907 84.7186 46.0342C84.6722 45.8222 84.6152 45.6152 84.5518 45.4097C84.5103 45.2614 84.472 45.1105 84.4256 44.9654C84.3556 44.7502 84.2734 44.5399 84.1921 44.3296C84.14 44.2008 84.0969 44.0687 84.0423 43.9424C83.9373 43.7003 83.8202 43.4663 83.7005 43.234C83.655 43.1443 83.6151 43.0522 83.5687 42.9658C83.4019 42.6479 83.2066 42.3397 83.0072 42.0422C82.9673 41.9802 82.9185 41.9256 82.877 41.8653C82.7101 41.6297 82.5433 41.399 82.3634 41.1772C82.2837 41.0786 82.1966 40.9873 82.112 40.8919C81.9606 40.7167 81.8068 40.543 81.6457 40.3759C81.5456 40.2756 81.4406 40.1803 81.3372 40.0824C81.1802 39.9333 81.0223 39.7849 80.8555 39.6447C80.7415 39.5477 80.6252 39.458 80.5088 39.3659C80.342 39.2355 80.1751 39.1091 80.0083 38.9868C79.8822 38.8988 79.7552 38.8197 79.625 38.7317C79.459 38.62 79.2751 38.5107 79.0952 38.4072C78.9601 38.3306 78.8234 38.2572 78.6851 38.1855C78.5003 38.0885 78.3123 37.9988 78.1219 37.9116C77.9803 37.848 77.8403 37.7852 77.6971 37.7265C77.4985 37.6466 77.2967 37.5749 77.0933 37.5064C76.95 37.4559 76.8084 37.4045 76.6619 37.3605C76.4471 37.2977 76.229 37.2456 76.0101 37.1942C75.8685 37.1608 75.7285 37.1241 75.5853 37.0956C75.3403 37.0467 75.0856 37.0132 74.8423 36.9798C74.7186 36.9651 74.5989 36.9415 74.4736 36.9301C74.1001 36.8918 73.7184 36.8698 73.3335 36.8698C72.9486 36.8698 72.5571 36.8918 72.1673 36.9285C72.0404 36.9415 71.9166 36.9668 71.7921 36.9839C71.5399 37.0165 71.2916 37.0483 71.0418 37.0988C70.8953 37.1274 70.7537 37.1689 70.6105 37.2024C70.3883 37.2553 70.1686 37.3075 69.944 37.3695C69.7951 37.4143 69.6502 37.4697 69.5037 37.5211C69.3003 37.5912 69.0968 37.6613 68.8983 37.7428C68.7501 37.8048 68.6069 37.8733 68.4621 37.9401C68.2733 38.0273 68.0853 38.1072 67.9022 38.2108C67.7573 38.2874 67.6189 38.3689 67.479 38.4512C67.3016 38.5548 67.1266 38.6583 66.9565 38.7683C66.8206 38.858 66.6888 38.9518 66.5553 39.0471C66.3885 39.1653 66.2216 39.2844 66.0735 39.4091C65.945 39.511 65.8204 39.6161 65.6967 39.7229C65.5462 39.8558 65.3973 39.9911 65.2516 40.1289C65.1336 40.2422 65.0189 40.358 64.9049 40.4762C64.7666 40.6213 64.6339 40.768 64.5021 40.9205C64.3955 41.0452 64.2889 41.1707 64.1871 41.2995C64.0618 41.456 63.9438 41.6166 63.8283 41.7797C63.7322 41.9134 63.637 42.0487 63.5467 42.1856C63.4368 42.3528 63.3351 42.5199 63.235 42.7017C63.152 42.8435 63.069 42.987 62.99 43.1337C62.8973 43.313 62.8118 43.4965 62.7272 43.6799C62.6572 43.8299 62.5856 43.9807 62.5221 44.1339C62.4456 44.3231 62.3789 44.5179 62.3121 44.7119C62.2568 44.8684 62.1966 45.0241 62.1453 45.1839C62.0835 45.3845 62.0371 45.5915 61.9866 45.7969C61.9484 45.9641 61.9036 46.1124 61.8719 46.2746C61.8287 46.4931 61.8003 46.7165 61.7701 46.9423C61.7482 47.0972 61.7189 47.2496 61.7034 47.4061V47.4363C61.6334 47.4616 61.57 47.4999 61.5 47.5252C61.2851 47.6067 61.0817 47.7053 60.875 47.8007C60.582 47.9319 60.2939 48.0689 60.0172 48.2278C59.817 48.3444 59.6266 48.4716 59.4353 48.602C59.1749 48.7683 58.9235 48.9574 58.6818 49.1539C58.5035 49.3015 58.3335 49.4531 58.165 49.612C57.9388 49.8256 57.7255 50.0474 57.5205 50.2797C57.3683 50.4468 57.2202 50.6131 57.0802 50.8039C56.889 51.0541 56.7156 51.3166 56.5472 51.5832C56.4283 51.7723 56.3071 51.959 56.2005 52.1563C56.0475 52.4473 55.9091 52.7456 55.7871 53.0505C55.7032 53.2478 55.6202 53.4386 55.5437 53.6399C55.429 53.9872 55.3338 54.341 55.2589 54.6988C55.2182 54.8774 55.1621 55.0494 55.1303 55.2295C54.944 56.2885 54.935 57.3711 55.1035 58.4333V58.4854C54.852 58.6664 54.6111 58.862 54.3816 59.0715C54.3588 59.0911 54.3352 59.1099 54.3133 59.1311C54.0602 59.365 53.8217 59.6137 53.6004 59.8778C53.5239 59.9691 53.4571 60.0661 53.3855 60.1598C53.2399 60.3481 53.0983 60.5389 52.9705 60.737C52.8972 60.8527 52.8305 60.9709 52.7622 61.09C52.6523 61.2815 52.5489 61.4756 52.4537 61.6753C52.3935 61.8024 52.3382 61.9312 52.2869 62.0617C52.2023 62.2663 52.1282 62.4766 52.0598 62.691C52.0183 62.8206 51.9752 62.9494 51.9402 63.0815C51.8767 63.3187 51.8303 63.5592 51.7888 63.8013C51.7685 63.9162 51.7416 64.0296 51.727 64.1461C51.6155 64.9295 51.6253 65.7243 51.7571 66.5037C51.775 66.6243 51.8019 66.7425 51.8255 66.8615C51.8881 67.1786 51.9695 67.4925 52.0688 67.8015C52.0916 67.8716 52.1005 67.9449 52.1233 68.015C52.0916 68.0501 52.0704 68.0917 52.0387 68.1267C51.7359 68.4675 51.4617 68.8327 51.2184 69.2183C51.207 69.237 51.1988 69.2549 51.1883 69.2737C50.9636 69.647 50.7691 70.0375 50.6072 70.4427C50.5755 70.5193 50.5421 70.5943 50.5136 70.6709C50.3598 71.0842 50.2402 71.5089 50.1555 71.9418C50.1368 72.0282 50.1254 72.1081 50.11 72.2019C50.0351 72.6641 49.9985 73.1312 50.0001 73.5991C50.0058 78.2074 53.7338 81.9418 58.3335 81.9467H70.0001V96.9723H43.3334V51.8954C43.3334 50.9734 42.5872 50.2259 41.6668 50.2259H18.3334C17.413 50.2259 16.6667 50.9734 16.6667 51.8954V96.9723H10V38.6664L50.0001 13.7908L90.0002 38.6664Z" fill="#FF007C"/>
<path d="M50 41.8799C55.5233 41.8799 60.0001 37.3955 60.0001 31.8628C60.0001 26.3309 55.5233 21.8457 50 21.8457C44.4776 21.8457 40 26.3309 40 31.8628C40.0057 37.3931 44.4792 41.875 50 41.8799ZM43.5702 33.5323H48.3334V38.3037C46.001 37.6931 44.1797 35.8687 43.5702 33.5323ZM51.6667 38.3037V33.5323H56.4299C55.8204 35.8687 53.9991 37.6931 51.6667 38.3037ZM56.4299 30.1933H51.6667V25.422C53.9991 26.0325 55.8204 27.857 56.4299 30.1933ZM48.3334 25.422V30.1933H43.5702C44.1797 27.857 46.001 26.0325 48.3334 25.422Z" fill="#FF007C"/>
</svg>
