<svg width="100" height="94" viewBox="0 0 100 94" fill="none" xmlns="http://www.w3.org/2000/svg">
<path d="M47.9672 23.0393C47.3698 23.0393 47.144 22.9134 45.5594 21.9262C44.7995 21.4532 43.6284 20.6994 42.365 19.7983C38.9806 17.3852 36.9084 15.3565 36.028 13.5964C34.9523 11.4457 34.6326 8.99972 35.1277 6.70938C35.6244 4.41065 36.8726 2.48118 38.6418 1.27573C40.3935 0.0817357 42.4489 -0.283712 44.5859 0.219827C46.095 0.575357 47.0486 1.3299 47.968 2.2523C48.8866 1.3299 49.8402 0.575357 51.3493 0.219827C53.4863 -0.283712 55.5417 0.0817357 57.2941 1.27573C59.0626 2.48118 60.31 4.41065 60.8075 6.70938C61.3019 9.00048 60.9822 11.4457 59.9072 13.5964C59.0268 15.3565 56.9539 17.3852 53.5702 19.7983C52.3068 20.7001 51.1357 21.4532 50.3758 21.9262C48.7904 22.9134 48.5654 23.0393 47.9672 23.0393ZM42.7556 3.90863C42.0628 3.90863 41.422 4.107 40.8414 4.50296C39.903 5.14231 39.2301 6.21881 38.9455 7.53412C38.638 8.95852 38.8425 10.4905 39.5215 11.8485C40.6033 14.013 45.6845 17.4386 47.9672 18.8309C50.2499 17.4386 55.3311 14.013 56.413 11.8485C57.092 10.4905 57.2964 8.95852 56.989 7.53412C56.7044 6.21881 56.0315 5.14231 55.0938 4.50296C54.2592 3.93457 53.3017 3.77283 52.245 4.02155C51.5179 4.19245 51.1479 4.55789 50.0867 5.68628C49.8654 5.92127 49.6289 6.17227 49.3687 6.44006C49.001 6.81924 48.4952 7.03287 47.9672 7.03287C47.4393 7.03287 46.9334 6.81924 46.5657 6.44006C46.3055 6.17227 46.069 5.92127 45.8478 5.68628C44.7865 4.55789 44.4165 4.19245 43.6894 4.02155C43.369 3.94602 43.0577 3.90863 42.7556 3.90863Z" fill="#FF007C"/>
<path d="M32.3629 62.6816C32.2363 62.6816 32.1089 62.6678 31.9822 62.6426C31.8571 62.6167 31.7343 62.5801 31.6168 62.5313C31.5001 62.4824 31.3864 62.4214 31.2788 62.3512C31.1735 62.281 31.0721 62.1986 30.982 62.1094C30.8928 62.0193 30.8104 61.9179 30.7402 61.8126C30.67 61.705 30.6089 61.5913 30.5601 61.4746C30.5113 61.3571 30.4747 61.2343 30.4487 61.1091C30.4236 60.9825 30.4121 60.8551 30.4121 60.7261C30.4121 60.2127 30.6189 59.7084 30.982 59.3452C31.0721 59.2552 31.1735 59.1759 31.2788 59.1034C31.3864 59.0332 31.5001 58.9722 31.6168 58.9233C31.7343 58.8745 31.8571 58.8379 31.9822 58.8119C32.234 58.7616 32.4942 58.7616 32.7459 58.8119C32.8711 58.8379 32.9939 58.8745 33.1114 58.9233C33.2281 58.9722 33.3418 59.0332 33.4494 59.1034C33.5547 59.1759 33.6561 59.2552 33.7461 59.3452C34.1093 59.7107 34.3184 60.2127 34.3184 60.7261C34.3184 60.8551 34.3046 60.9825 34.2794 61.1091C34.2535 61.2343 34.2169 61.3571 34.1681 61.4746C34.1192 61.5913 34.0582 61.705 33.988 61.8126C33.9155 61.9179 33.8354 62.017 33.7461 62.1094C33.6561 62.1986 33.5547 62.281 33.4494 62.3512C33.3418 62.4214 33.2281 62.4824 33.1114 62.5313C32.9939 62.5801 32.8711 62.6167 32.7459 62.6426C32.6193 62.6678 32.4919 62.6816 32.3629 62.6816Z" fill="#FF007C"/>
<path d="M99.9968 84.3314C99.8747 79.8942 96.1035 76.284 91.5892 76.284H91.0224V53.2737L91.5335 53.6491C91.8753 53.9001 92.2812 54.0283 92.6901 54.0283C92.9907 54.0283 93.2929 53.9589 93.5721 53.8177C94.229 53.4851 94.6425 52.8114 94.6425 52.0752V42.3263C94.6425 41.7045 94.3472 41.1201 93.846 40.7524L67.6741 21.5263C66.986 21.0205 66.0491 21.0205 65.3617 21.5263L53.6163 30.1544V27.1263C53.6163 26.0475 52.7412 25.1732 51.6631 25.1732H44.2703C43.1922 25.1732 42.3171 26.0475 42.3171 27.1263V38.4537L39.1891 40.7524C38.6886 41.1201 38.3926 41.7045 38.3926 42.3263V46.0716C31.9976 43.293 22.6349 43.4929 16.9922 43.9522V42.1028C16.9922 41.024 16.1178 40.1497 15.039 40.1497H1.95312C0.874327 40.1497 0 41.024 0 42.1028V73.2551C0 74.3331 0.874327 75.2082 1.95312 75.2082H15.039C16.1178 75.2082 16.9922 74.3331 16.9922 73.2551V68.5394H19.8356C20.1301 69.3 20.7644 71.5804 21.4564 75.6004C23.4202 87.017 30.3606 93.3043 40.9983 93.3043L91.7212 92.8405C93.9757 92.8405 96.0829 91.9509 97.6553 90.335C99.227 88.7198 100.059 86.5874 99.9968 84.3314ZM87.1169 76.284H75.849V56.6757C75.849 55.5969 74.9739 54.7226 73.8959 54.7226H59.1399C58.0611 54.7226 57.1868 55.5969 57.1868 56.6757V61.5127L45.0889 50.9658L66.516 35.2714L87.1161 50.4036L87.1169 76.284ZM71.7093 76.284C71.3141 74.5292 70.3483 72.8919 68.846 71.6773L61.093 64.9177V58.6296H71.9428V76.284H71.7093ZM46.2241 29.0794H49.71V33.0238L46.2241 35.5842V29.0794ZM42.2988 43.3151L66.5175 25.5241L90.7363 43.3151V48.217L67.6741 31.2752C67.3301 31.0219 66.9242 30.896 66.5175 30.896C66.1124 30.896 65.7073 31.0219 65.3632 31.2736L42.2988 48.1674V43.3151ZM13.0859 71.302H3.90624V44.0559H13.0859V71.302ZM94.8554 87.6113C94.0253 88.4643 92.9122 88.9342 91.722 88.9342L40.9164 88.9213C30.0845 89.3981 26.4407 81.5345 25.2235 74.4613C24.7627 71.7834 24.2958 69.6655 23.835 68.1678C23.455 66.9326 22.7478 64.6331 20.7641 64.6331H16.9922V47.8729C22.6448 47.3961 34.7854 46.9612 39.6011 51.3626C39.6118 51.3725 39.6232 51.3832 39.6346 51.3931L66.3085 74.6467C66.3291 74.665 66.3497 74.6825 66.3711 74.6993C68.254 76.2061 68.5592 78.9626 67.0531 80.8448C66.323 81.7565 65.2823 82.3302 64.1211 82.4592C62.9592 82.5874 61.8194 82.2562 60.9168 81.5345L38.6001 63.4345C37.7624 62.7555 36.5325 62.8837 35.8528 63.7214C35.173 64.5591 35.3012 65.789 36.1389 66.4688L58.4663 84.5763C59.9486 85.7627 61.7515 86.3929 63.623 86.3929C63.9312 86.3929 64.2409 86.3753 64.5514 86.341C66.7495 86.0976 68.7209 85.012 70.1026 83.2854C70.8556 82.3447 71.3698 81.2881 71.6529 80.1894H91.5892C94.0077 80.1894 96.0272 82.0953 96.0913 84.4382C96.1241 85.6315 95.6854 86.7576 94.8554 87.6113Z" fill="#9E9E9E"/>
</svg>
