<svg width="107" height="100" viewBox="0 0 107 100" fill="none" xmlns="http://www.w3.org/2000/svg">
<path d="M57.138 87.6579C55.9881 87.6579 55.0547 88.5905 55.0547 89.7412C55.0547 90.8919 55.9881 91.8245 57.138 91.8245H78.8047C79.9546 91.8245 80.888 90.8919 80.888 89.7412C80.888 88.5905 79.9546 87.6579 78.8047 87.6579H77.4619C79.14 85.839 80.3021 83.5392 80.7171 80.9912H82.138C86.2738 80.9912 89.638 77.627 89.638 73.4912C89.638 69.3555 86.2738 65.9912 82.138 65.9912H57.138C55.9873 65.9912 55.0547 66.9246 55.0547 68.0745V78.9079C55.0547 82.2811 56.356 85.3548 58.4808 87.6579H57.138ZM85.4714 73.4912C85.4714 75.3296 83.9756 76.8245 82.138 76.8245H80.888V70.1579H82.138C83.9756 70.1579 85.4714 71.6536 85.4714 73.4912ZM59.2214 78.9079V70.1579H76.7214V78.9079C76.7214 83.7329 72.7964 87.6579 67.9714 87.6579C63.1463 87.6579 59.2214 83.7329 59.2214 78.9079Z" fill="#9e9e9e"/>
<path d="M66.0482 54.8323C65.6112 55.8968 66.1206 57.1134 67.1851 57.5504C67.4438 57.6562 67.7116 57.7067 67.9744 57.7067C68.7948 57.7067 69.5727 57.2192 69.9032 56.4136C70.7804 54.2741 70.3214 52.5285 69.9853 51.2532C69.6826 50.1009 69.5524 49.5085 69.9032 48.654C70.3393 47.5895 69.8299 46.3729 68.7655 45.9359C67.701 45.4997 66.4844 46.0091 66.0482 47.0736C65.153 49.257 65.6169 51.0229 65.9562 52.312C66.2532 53.4416 66.381 54.0202 66.0482 54.8323Z" fill="#FF007C"/>
<path d="M57.7155 58.999C57.2793 60.0634 57.7887 61.2809 58.8532 61.7171C59.112 61.8237 59.3789 61.8733 59.6426 61.8733C60.4629 61.8733 61.2401 61.3859 61.5705 60.5802C62.4477 58.4407 61.9888 56.6951 61.6535 55.4199C61.3507 54.2675 61.2205 53.6751 61.5713 52.8206C62.0075 51.7561 61.498 50.5395 60.4336 50.1033C59.3691 49.6663 58.1517 50.1757 57.7155 51.2402C56.8211 53.4236 57.285 55.1896 57.6243 56.4786C57.9206 57.6082 58.0483 58.1868 57.7155 58.999Z" fill="#FF007C"/>
<path d="M74.3819 58.999C73.9449 60.0634 74.4543 61.2809 75.5188 61.7171C75.7776 61.8237 76.0453 61.8733 76.309 61.8733C77.1293 61.8733 77.9065 61.3859 78.2369 60.5802C79.1142 58.4407 78.6552 56.6951 78.3199 55.4199C78.0163 54.2675 77.8869 53.6751 78.2369 52.8206C78.6739 51.7561 78.1645 50.5395 77.1 50.1033C76.0347 49.6663 74.8181 50.1757 74.3819 51.2402C73.4867 53.4236 73.9514 55.1896 74.2899 56.4786C74.587 57.6082 74.7147 58.1868 74.3819 58.999Z" fill="#FF007C"/>
<path d="M106.667 32.2624V28.6011C106.667 28.5815 106.664 28.562 106.663 28.5417C106.663 28.4969 106.661 28.453 106.657 28.4082C106.654 28.3797 106.65 28.3529 106.646 28.3252C106.641 28.2853 106.636 28.2454 106.628 28.2056C106.622 28.1746 106.615 28.1437 106.607 28.1128C106.598 28.0778 106.59 28.0436 106.58 28.0094C106.57 27.9744 106.558 27.9403 106.545 27.9061C106.535 27.8768 106.525 27.8475 106.514 27.8182C106.498 27.7799 106.48 27.7433 106.463 27.7067C106.451 27.6823 106.44 27.6571 106.427 27.6326C106.406 27.5928 106.383 27.5553 106.36 27.5171C106.349 27.4992 106.341 27.4821 106.33 27.465L94.8381 9.80387C96.1971 8.81917 97.0833 7.22005 97.0833 5.41748C97.0833 2.43001 94.6533 0 91.6667 0H35.8333C34.6826 0 33.75 0.933431 33.75 2.08333C33.75 3.23405 34.6826 4.16667 35.8333 4.16667H91.6667C92.3446 4.16667 92.9167 4.73958 92.9167 5.41748C92.9167 6.09456 92.3446 6.66667 91.6667 6.66667H15C14.3221 6.66667 13.75 6.09456 13.75 5.41748C13.75 4.73958 14.3221 4.16667 15 4.16667H21.4657C22.6156 4.16667 23.549 3.23405 23.549 2.08333C23.549 0.932617 22.6156 0 21.4657 0H15C12.0133 0 9.58333 2.43001 9.58333 5.41667C9.58333 7.22005 10.4696 8.81917 11.8286 9.80387L0.336914 27.465C0.326335 27.4821 0.317383 27.5 0.306803 27.5171C0.283203 27.5553 0.260417 27.5928 0.239258 27.6326C0.226237 27.6571 0.215658 27.6823 0.20345 27.7075C0.186361 27.7433 0.168457 27.7799 0.153809 27.8174C0.141602 27.8467 0.131836 27.8768 0.120443 27.9069C0.10905 27.9403 0.0968425 27.9744 0.0862629 28.0086C0.0764975 28.0436 0.0675456 28.0778 0.0594075 28.1128C0.0520833 28.1437 0.0447592 28.1738 0.0382488 28.2056C0.0309246 28.2454 0.0252279 28.2853 0.020345 28.3252C0.016276 28.3529 0.012207 28.3797 0.00976562 28.4074C0.00488281 28.4521 0.004069 28.4969 0.00244142 28.5417C0.00244142 28.562 0 28.5815 0 28.6011V32.2624C0 36.7318 3.13558 40.4801 7.32178 41.4315V95.8333H2.08333C0.932617 95.8333 0 96.7659 0 97.9167C0 99.0666 0.932617 100 2.08333 100H104.583C105.734 100 106.667 99.0666 106.667 97.9167C106.667 96.7659 105.734 95.8333 104.583 95.8333H99.3449V41.4315C103.531 40.4801 106.667 36.7318 106.667 32.2624ZM97.2616 37.5C94.3734 37.5 92.0239 35.1497 92.0239 32.2616V28.6011C92.0239 28.6003 92.0239 28.5986 92.0239 28.597C92.0239 28.5319 92.0199 28.4668 92.0133 28.4009C92.0133 28.396 92.0133 28.3919 92.0125 28.387C92.0076 28.3374 91.9987 28.2886 91.9906 28.2389C91.9865 28.2186 91.9849 28.1974 91.9808 28.1771C91.9767 28.1592 91.971 28.1413 91.9661 28.1234C91.9548 28.0721 91.9425 28.0216 91.9271 27.9728C91.9255 27.9696 91.9246 27.9671 91.9238 27.9639C91.9027 27.8996 91.8791 27.8369 91.853 27.7751C91.8522 27.7743 91.8522 27.7734 91.8514 27.7718L84.5036 10.8333H90.5363L102.5 29.2188V32.2616C102.5 35.1497 100.151 37.5 97.2616 37.5ZM18.8094 29.034L26.7041 10.8333H33.0908L29.3335 28.16C29.3327 28.1616 29.3327 28.1632 29.3327 28.1649C29.3221 28.2113 29.3156 28.2593 29.3091 28.3073C29.3058 28.3309 29.3009 28.3553 29.2977 28.3789C29.2952 28.4066 29.2944 28.4351 29.2928 28.4627C29.2896 28.5067 29.2863 28.5506 29.2863 28.5946C29.2863 28.597 29.2855 28.5994 29.2855 28.6011V32.2624C29.2855 35.1497 26.936 37.5 24.0479 37.5C21.1597 37.5 18.8094 35.1506 18.8094 32.2624V29.034ZM33.4521 28.8241L37.3543 10.8333H43.9282V32.2624C43.9282 35.1497 41.5788 37.5 38.6906 37.5C35.8024 37.5 33.4521 35.1506 33.4521 32.2624V28.8241ZM48.0949 10.8333H58.571V32.2616C58.571 35.1497 56.2215 37.5 53.3333 37.5C50.4451 37.5 48.0949 35.1497 48.0949 32.2616V10.8333ZM62.7384 10.8333H69.3123L73.2145 28.8241V32.2616C73.2145 35.1497 70.8643 37.5 67.9761 37.5C65.0879 37.5 62.7376 35.1497 62.7376 32.2616V10.8333H62.7384ZM77.3804 28.5946C77.3804 28.5506 77.3771 28.5059 77.3739 28.4619C77.3722 28.4342 77.3714 28.4066 77.369 28.3789C77.3657 28.3545 77.3608 28.3293 77.3576 28.3048C77.3511 28.2585 77.3446 28.2113 77.3348 28.1657C77.334 28.1641 77.334 28.1616 77.334 28.16L73.5758 10.8341H79.9626L87.8573 29.034V32.2624C87.8573 35.1506 85.507 37.5 82.6188 37.5C79.7306 37.5 77.3804 35.1506 77.3804 32.2624V28.6019C77.3812 28.5986 77.3804 28.597 77.3804 28.5946ZM4.16667 32.2624V29.2196L16.1304 10.8333H22.1631L14.8153 27.7726C14.8145 27.7734 14.8145 27.7751 14.8136 27.7759C14.7876 27.8369 14.764 27.9004 14.7428 27.9647C14.742 27.9671 14.7412 27.9696 14.7396 27.9728C14.7241 28.0225 14.7119 28.0729 14.7005 28.1234C14.6956 28.1421 14.6899 28.16 14.6859 28.1779C14.6818 28.1982 14.6802 28.2194 14.6761 28.2397C14.668 28.2886 14.659 28.3382 14.6541 28.387C14.6533 28.3919 14.6533 28.3968 14.6533 28.4009C14.6468 28.4668 14.6436 28.5319 14.6427 28.5978V28.6019V32.2624C14.6427 35.1506 12.2933 37.5 9.4043 37.5C6.51611 37.5 4.16667 35.1497 4.16667 32.2624ZM11.4884 41.4315C13.5856 40.9546 15.4191 39.7762 16.7261 38.1559C18.4513 40.2946 21.0921 41.6667 24.0479 41.6667C27.0036 41.6667 29.6436 40.2946 31.3696 38.1559C33.0949 40.2946 35.7349 41.6667 38.6906 41.6667C41.6463 41.6667 44.2863 40.2946 46.0124 38.1559C47.7368 40.2946 50.3776 41.6667 53.3333 41.6667C56.2891 41.6667 58.9298 40.2946 60.6551 38.1559C62.3804 40.2946 65.0203 41.6667 67.9761 41.6667C70.9318 41.6667 73.5726 40.2946 75.2979 38.1559C77.0231 40.2946 79.6631 41.6667 82.6188 41.6667C85.5754 41.6667 88.2153 40.2946 89.9406 38.1559C91.2476 39.7762 93.0811 40.9546 95.179 41.4315V95.8333H46.9051V47.8638C46.9051 46.7139 45.9725 45.7804 44.8218 45.7804H15.6551C14.5044 45.7804 13.5718 46.7139 13.5718 47.8638V95.8333H11.4884V41.4315ZM42.7384 65.9912H40.4395C39.2887 65.9912 38.3561 66.9246 38.3561 68.0745C38.3561 69.2253 39.2887 70.1579 40.4395 70.1579H42.7384V95.7804H17.7384V49.9471H42.7384V65.9912Z" fill="#9e9e9e"/>
<path d="M34.4056 70.1586H34.4544C35.6051 70.1586 36.5378 69.2252 36.5378 68.0753C36.5378 66.9246 35.6051 65.9919 34.4544 65.9919H34.4056C33.2549 65.9919 32.3223 66.9246 32.3223 68.0753C32.3223 69.2252 33.2549 70.1586 34.4056 70.1586Z" fill="#FF007C"/>
<path d="M27.4505 4.16667H27.5067C28.6574 4.16667 29.59 3.23405 29.59 2.08333C29.59 0.932617 28.6574 0 27.5067 0H27.4505C26.2998 0 25.3672 0.932617 25.3672 2.08333C25.3672 3.23405 26.2998 4.16667 27.4505 4.16667Z" fill="#9e9e9e"/>
</svg>
