<svg width="100" height="101" viewBox="0 0 100 101" fill="none" xmlns="http://www.w3.org/2000/svg">
<path d="M98.332 7.33154H64.9987C64.0783 7.33154 63.332 8.07907 63.332 9.00106V37.3828H44.9987C44.0783 37.3828 43.332 38.1303 43.332 39.0523V99.1547C43.332 100.077 44.0783 100.824 44.9987 100.824H98.332C99.2524 100.824 99.9987 100.077 99.9987 99.1547V9.00106C99.9987 8.07907 99.2524 7.33154 98.332 7.33154ZM46.6654 40.7218H83.332V97.4852H46.6654V40.7218ZM96.6654 97.4852H86.6654V39.0523C86.6654 38.1303 85.9191 37.3828 84.9987 37.3828H66.6654V10.6706H96.6654V97.4852Z" fill="#FF007C"/>
<path d="M61.6654 44.0586H54.9987C54.0783 44.0586 53.332 44.8061 53.332 45.7281V52.4062C53.332 53.3281 54.0783 54.0757 54.9987 54.0757H61.6654C62.5858 54.0757 63.332 53.3281 63.332 52.4062V45.7281C63.332 44.8061 62.5858 44.0586 61.6654 44.0586ZM59.9987 50.7366H56.6654V47.3976H59.9987V50.7366Z" fill="#FF007C"/>
<path d="M75.0013 44.0586H68.3346C67.4142 44.0586 66.668 44.8061 66.668 45.7281V52.4062C66.668 53.3281 67.4142 54.0757 68.3346 54.0757H75.0013C75.9217 54.0757 76.668 53.3281 76.668 52.4062V45.7281C76.668 44.8061 75.9217 44.0586 75.0013 44.0586ZM73.3346 50.7366H70.0013V47.3976H73.3346V50.7366Z" fill="#FF007C"/>
<path d="M71.6667 24.0244H78.3333C79.2537 24.0244 80 23.2769 80 22.3549V15.6768C80 14.7549 79.2537 14.0073 78.3333 14.0073H71.6667C70.7463 14.0073 70 14.7549 70 15.6768V22.3549C70 23.2769 70.7463 24.0244 71.6667 24.0244ZM73.3333 17.3463H76.6667V20.6854H73.3333V17.3463Z" fill="#FF007C"/>
<path d="M84.9987 24.0244H91.6654C92.5858 24.0244 93.332 23.2769 93.332 22.3549V15.6768C93.332 14.7549 92.5858 14.0073 91.6654 14.0073H84.9987C84.0783 14.0073 83.332 14.7549 83.332 15.6768V22.3549C83.332 23.2769 84.0783 24.0244 84.9987 24.0244ZM86.6654 17.3463H89.9987V20.6854H86.6654V17.3463Z" fill="#FF007C"/>
<path d="M71.6667 35.7119H78.3333C79.2537 35.7119 80 34.9644 80 34.0424V27.3643C80 26.4424 79.2537 25.6948 78.3333 25.6948H71.6667C70.7463 25.6948 70 26.4424 70 27.3643V34.0424C70 34.9644 70.7463 35.7119 71.6667 35.7119ZM73.3333 29.0338H76.6667V32.3729H73.3333V29.0338Z" fill="#FF007C"/>
<path d="M84.9987 35.7119H91.6654C92.5858 35.7119 93.332 34.9644 93.332 34.0424V27.3643C93.332 26.4424 92.5858 25.6948 91.6654 25.6948H84.9987C84.0783 25.6948 83.332 26.4424 83.332 27.3643V34.0424C83.332 34.9644 84.0783 35.7119 84.9987 35.7119ZM86.6654 29.0338H89.9987V32.3729H86.6654V29.0338Z" fill="#FF007C"/>
<path d="M61.6654 57.417H54.9987C54.0783 57.417 53.332 58.1645 53.332 59.0865V65.7646C53.332 66.6865 54.0783 67.4341 54.9987 67.4341H61.6654C62.5858 67.4341 63.332 66.6865 63.332 65.7646V59.0865C63.332 58.1645 62.5858 57.417 61.6654 57.417ZM59.9987 64.095H56.6654V60.756H59.9987V64.095Z" fill="#FF007C"/>
<path d="M75.0013 57.417H68.3346C67.4142 57.417 66.668 58.1645 66.668 59.0865V65.7646C66.668 66.6865 67.4142 67.4341 68.3346 67.4341H75.0013C75.9217 67.4341 76.668 66.6865 76.668 65.7646V59.0865C76.668 58.1645 75.9217 57.417 75.0013 57.417ZM73.3346 64.095H70.0013V60.756H73.3346V64.095Z" fill="#FF007C"/>
<path d="M61.6654 70.772H54.9987C54.0783 70.772 53.332 71.5195 53.332 72.4415V79.1195C53.332 80.0415 54.0783 80.789 54.9987 80.789H61.6654C62.5858 80.789 63.332 80.0415 63.332 79.1195V72.4415C63.332 71.5195 62.5858 70.772 61.6654 70.772ZM59.9987 77.45H56.6654V74.111H59.9987V77.45Z" fill="#FF007C"/>
<path d="M75.0013 70.772H68.3346C67.4142 70.772 66.668 71.5195 66.668 72.4415V79.1195C66.668 80.0415 67.4142 80.789 68.3346 80.789H75.0013C75.9217 80.789 76.668 80.0415 76.668 79.1195V72.4415C76.668 71.5195 75.9217 70.772 75.0013 70.772ZM73.3346 77.45H70.0013V74.111H73.3346V77.45Z" fill="#FF007C"/>
<path d="M61.6654 84.1265H54.9987C54.0783 84.1265 53.332 84.874 53.332 85.796V92.474C53.332 93.396 54.0783 94.1435 54.9987 94.1435H61.6654C62.5858 94.1435 63.332 93.396 63.332 92.474V85.796C63.332 84.874 62.5858 84.1265 61.6654 84.1265ZM59.9987 90.8045H56.6654V87.4655H59.9987V90.8045Z" fill="#FF007C"/>
<path d="M75.0013 84.1265H68.3346C67.4142 84.1265 66.668 84.874 66.668 85.796V92.474C66.668 93.396 67.4142 94.1435 68.3346 94.1435H75.0013C75.9217 94.1435 76.668 93.396 76.668 92.474V85.796C76.668 84.874 75.9217 84.1265 75.0013 84.1265ZM73.3346 90.8045H70.0013V87.4655H73.3346V90.8045Z" fill="#FF007C"/>
<path d="M40 90.8045H10C6.31836 90.8045 3.33333 87.8144 3.33333 84.1264C3.33333 80.4385 6.31836 77.4484 10 77.4484H20C22.7612 77.4484 25 75.2058 25 72.4398V65.7618C25 64.8398 24.2537 64.0923 23.3333 64.0923C22.4129 64.0923 21.6667 64.8398 21.6667 65.7618V72.4398C21.6667 73.3618 20.9204 74.1094 20 74.1094H10C4.47754 74.1094 0 78.5945 0 84.1264C0 89.6583 4.47754 94.1435 10 94.1435H40C40.9204 94.1435 41.6667 93.396 41.6667 92.474C41.6667 91.552 40.9204 90.8045 40 90.8045Z" fill="#FF007C"/>
<path d="M28.3346 34.044V29.0355H33.3346C34.255 29.0355 35.0013 28.2879 35.0013 27.3659V20.6879C35.0013 19.7659 34.255 19.0184 33.3346 19.0184H28.3346V14.0098C28.3346 13.0879 27.5884 12.3403 26.668 12.3403H20.0013C19.0809 12.3403 18.3346 13.0879 18.3346 14.0098V19.0184H13.3346C12.4142 19.0184 11.668 19.7659 11.668 20.6879V27.3659C11.668 28.2879 12.4142 29.0355 13.3346 29.0355H18.3346V34.044C18.3346 34.966 19.0809 35.7135 20.0013 35.7135H26.668C27.5884 35.7135 28.3346 34.966 28.3346 34.044ZM25.0013 27.3659V32.3745H21.668V27.3659C21.668 26.444 20.9217 25.6964 20.0013 25.6964H15.0013V22.3574H20.0013C20.9217 22.3574 21.668 21.6099 21.668 20.6879V15.6794H25.0013V20.6879C25.0013 21.6099 25.7476 22.3574 26.668 22.3574H31.668V25.6964H26.668C25.7476 25.6964 25.0013 26.444 25.0013 27.3659Z" fill="#FF007C"/>
<path d="M40.0013 24.0267C40.0013 14.806 32.5396 7.33154 23.3346 7.33154C14.1297 7.33154 6.66797 14.806 6.66797 24.0267C6.66797 33.2473 14.1297 40.7218 23.3346 40.7218C32.5355 40.712 39.9915 33.2432 40.0013 24.0267ZM10.0013 24.0267C10.0013 16.65 15.9705 10.6706 23.3346 10.6706C30.6987 10.6706 36.668 16.65 36.668 24.0267C36.668 31.4033 30.6987 37.3828 23.3346 37.3828C15.9746 37.3746 10.0094 31.3993 10.0013 24.0267Z" fill="#FF007C"/>
<path d="M23.3333 62.4243C23.8135 62.4243 24.27 62.2164 24.5866 61.8553C25.4883 60.8265 46.6667 36.4988 46.6667 24.0255C46.6667 11.117 36.2199 0.652344 23.3333 0.652344C10.4468 0.652344 0 11.117 0 24.0255C0 36.4988 21.1784 60.8265 22.0801 61.8553C22.3966 62.2164 22.8532 62.4243 23.3333 62.4243ZM23.3333 3.99137C34.3742 4.0036 43.3211 12.9658 43.3333 24.0255C43.3333 33.6382 27.8947 52.7414 23.3333 58.182C18.772 52.7414 3.33333 33.6382 3.33333 24.0255C3.34554 12.9658 12.2925 4.0036 23.3333 3.99137Z" fill="#FF007C"/>
</svg>
