<svg width="100" height="79" viewBox="0 0 100 79" fill="none" xmlns="http://www.w3.org/2000/svg">
<path d="M47.0703 27.5897C48.1483 27.5897 49.0234 26.7131 49.0234 25.6332C49.0234 24.5533 48.1483 23.6768 47.0703 23.6768C45.9923 23.6768 45.1172 24.5533 45.1172 25.6332C45.1172 26.7131 45.9923 27.5897 47.0703 27.5897Z" fill="#FF007C"/>
<path d="M1.95312 4.11213H19.1612C19.934 7.35633 30.9036 53.4072 31.6146 56.3915C32.035 58.6927 33.4289 60.601 35.3263 61.7221C33.5342 63.4967 32.4218 65.9575 32.4218 68.6752C32.4218 74.0692 36.8026 78.4575 42.1874 78.4575C47.5722 78.4575 51.953 74.0692 51.953 68.6752C51.953 66.4749 51.2237 64.4398 49.9946 62.8035H65.6302C64.4011 64.4398 63.6718 66.4749 63.6718 68.6752C63.6718 74.0692 68.0526 78.4575 73.4374 78.4575C78.8222 78.4575 83.203 74.0692 83.203 68.6752C83.203 66.4749 82.4736 64.4421 81.2445 62.8058H85.1561C86.2349 62.8058 87.1092 61.93 87.1092 60.8494C87.1092 59.7687 86.2349 58.8929 85.1561 58.8929H39.2989C37.3969 58.8929 35.7787 57.531 35.4514 55.6548C35.4446 55.6151 35.4362 55.5761 35.427 55.5371L34.362 51.0671H83.5112C86.0388 51.0671 88.2735 49.4538 89.0715 47.0525L92.0973 37.9588C92.0988 37.9565 92.0996 37.9542 92.1004 37.9519L96.0036 26.2201C96.0051 26.2178 96.0059 26.2155 96.0066 26.2132L99.8999 14.5134C100.098 13.9166 99.9983 13.2609 99.6313 12.7503C99.2644 12.2406 98.6746 11.938 98.0467 11.938H25.0412L22.6028 1.70172C22.393 0.820546 21.6072 0.199219 20.7031 0.199219H1.95312C0.874327 0.199219 0 1.07504 0 2.15567C0 3.23631 0.874327 4.11213 1.95312 4.11213ZM48.0468 68.6752C48.0468 71.9117 45.4185 74.5446 42.1874 74.5446C38.9564 74.5446 36.3281 71.9117 36.3281 68.6752C36.3281 65.4386 38.9564 62.8058 42.1874 62.8058C45.4185 62.8058 48.0468 65.4386 48.0468 68.6752ZM79.2967 68.6752C79.2967 71.9117 76.6684 74.5446 73.4374 74.5446C70.2063 74.5446 67.578 71.9117 67.578 68.6752C67.578 65.4386 70.2063 62.8058 73.4374 62.8058C76.6684 62.8058 79.2967 65.4386 79.2967 68.6752ZM31.5658 39.3283H46.9497L47.8179 47.1542H33.4304L31.5658 39.3283ZM51.7478 47.1542L50.8803 39.3283H69.2366L68.3692 47.1542H51.7478ZM83.5112 47.1542H72.2991L73.1673 39.3283H87.5243L85.3652 45.816C85.0996 46.6161 84.3543 47.1542 83.5112 47.1542ZM88.8266 35.4154H73.6014L74.4696 27.5896H91.4305L88.8266 35.4154ZM92.7328 23.6767H74.9037L75.7712 15.8509H95.3368L92.7328 23.6767ZM44.3458 15.8509L44.5876 18.0404C44.699 19.0416 45.5444 19.7814 46.527 19.7814C46.5987 19.7814 46.672 19.7775 46.7445 19.7691C47.8164 19.6507 48.5892 18.6831 48.4702 17.6094L48.2757 15.8509H71.8413L70.9731 23.6767H54.8827C53.8039 23.6767 52.9296 24.5525 52.9296 25.6331C52.9296 26.7138 53.8039 27.5896 54.8827 27.5896H70.539L69.6708 35.4154H50.4462L50.1952 33.1533C50.0762 32.0795 49.1111 31.3053 48.0384 31.4246C46.9665 31.5438 46.1936 32.5106 46.3126 33.5851L46.5156 35.4154H30.6343L28.7696 27.5896H39.2577C40.3365 27.5896 41.2109 26.7138 41.2109 25.6331C41.2109 24.5525 40.3365 23.6767 39.2577 23.6767H27.8373L25.9735 15.8509H44.3458Z" fill="#FF007C"/>
</svg>
