<svg width="100" height="100" viewBox="0 0 100 100" fill="none" xmlns="http://www.w3.org/2000/svg">
<path d="M91.6685 83.3333C91.6685 83.2983 91.6588 83.2666 91.6588 83.2332H91.6685V43.1665C95.5454 42.369 98.3288 38.9583 98.3337 35V21.6667C98.3117 21.473 98.2735 21.2809 98.219 21.0937C98.2043 21.0571 98.1685 20.9416 98.1588 20.9269L91.4936 7.59359C91.2129 7.02637 90.6352 6.66748 90.0022 6.66667H71.673V0H28.3493V6.66667H10.02C9.38867 6.66667 8.81099 7.02311 8.52867 7.5887L1.86349 20.922C1.85372 20.9416 1.81874 21.0571 1.80409 21.088C1.74876 21.2777 1.71052 21.4713 1.68856 21.6667V35C1.69344 38.9583 4.47765 42.369 8.35374 43.1665V77.1468C2.79264 78.7939 -0.714066 84.2773 0.12315 90.0171C0.960366 95.7576 5.88684 100.011 11.6863 100H91.6685C96.2704 100 100 96.2695 100 91.6666C100 87.0646 96.2704 83.3333 91.6685 83.3333ZM95.0011 35C95.0011 37.7612 92.7628 40 90.0022 40C87.2416 40 85.0033 37.7612 85.0033 35V23.3333H95.0011V35ZM81.6707 35C81.6707 37.7612 79.4325 40 76.6719 40C73.9112 40 71.673 37.7612 71.673 35V23.3333H81.6707V35ZM68.3404 35C68.3404 37.7612 66.1021 40 63.3415 40C60.5809 40 58.3426 37.7612 58.3426 35V23.3333H68.3404V35ZM55.01 35C55.01 37.7612 52.7717 40 50.0111 40C47.2505 40 45.0122 37.7612 45.0122 35V23.3333H55.01V35ZM41.6797 35C41.6797 37.7612 39.4414 40 36.6808 40C33.9201 40 31.6819 37.7612 31.6819 35V23.3333H41.6797V35ZM28.3493 35C28.3493 37.7612 26.111 40 23.3504 40C20.5898 40 18.3515 37.7612 18.3515 35V23.3333H28.3493V35ZM31.6819 3.33333H68.3404V13.3333H31.6819V3.33333ZM11.0501 10H28.3493V16.6667H71.673V10H88.973L93.9719 20H6.05119L11.0501 10ZM5.02115 35V23.3333H15.0189V35C15.0189 37.7612 12.7807 40 10.02 40C7.25942 40 5.02115 37.7612 5.02115 35ZM11.6863 43.1665C13.6919 42.7466 15.4721 41.6016 16.6852 39.9504C18.24 42.0776 20.7159 43.3358 23.3504 43.3358C25.9849 43.3358 28.4616 42.0776 30.0156 39.9504C31.5704 42.0776 34.0463 43.3358 36.6808 43.3358C39.3153 43.3358 41.7919 42.0776 43.3459 39.9504C44.9008 42.0776 47.3766 43.3358 50.0111 43.3358C52.6456 43.3358 55.1223 42.0776 56.6763 39.9504C58.2311 42.0776 60.707 43.3358 63.3415 43.3358C65.976 43.3358 68.4527 42.0776 70.0067 39.9504C71.5615 42.0776 74.0374 43.3358 76.6719 43.3358C79.3064 43.3358 81.783 42.0776 83.337 39.9504C84.551 41.6016 86.3304 42.7466 88.3359 43.1665V76.7098C85.6225 74.6232 81.9043 74.4246 78.9834 76.2101C77.6458 72.7987 75.104 69.9967 71.8398 68.3333H83.337C84.2572 68.3333 85.0033 67.5871 85.0033 66.6667V50C85.0033 49.0796 84.2572 48.3333 83.337 48.3333H50.0111C49.0909 48.3333 48.3448 49.0796 48.3448 50V56.9881C47.2464 56.7781 46.131 56.6699 45.0122 56.6667C43.8943 56.6699 42.7789 56.7741 41.6797 56.9783V50C41.6797 49.0796 40.9336 48.3333 40.0134 48.3333H20.0178C19.0976 48.3333 18.3515 49.0796 18.3515 50V67.8003C14.8407 69.4905 12.395 72.8117 11.8214 76.6667C11.7766 76.6667 11.7319 76.6667 11.6863 76.6667V43.1665ZM60.3539 65C58.2572 61.8115 55.2273 59.3489 51.6774 57.9484V51.6667H81.6707V65H60.3539ZM28.0816 67.6798C27.8383 67.57 27.5894 67.4748 27.338 67.3836C27.2013 67.3332 27.0678 67.2803 26.9311 67.2347C26.7017 67.1598 26.4666 67.102 26.2314 67.0418C26.0752 67.0019 25.9214 66.9547 25.7652 66.9214C25.5138 66.8685 25.2567 66.8335 25.0004 66.7969C24.8572 66.7765 24.7173 66.7464 24.5716 66.7318C24.1665 66.6886 23.7588 66.6675 23.3504 66.6667C22.7931 66.6699 22.2357 66.7139 21.6841 66.7985V51.6667H38.3471V57.9053C33.7761 59.6753 30.1124 63.2137 28.1825 67.7197C28.1491 67.7051 28.1141 67.6953 28.0816 67.6798ZM91.6685 96.6666H11.6863C7.0853 96.6666 3.35485 92.9362 3.35485 88.3333C3.35485 83.7313 7.0853 80 11.6863 80C12.142 79.9975 12.5968 80.039 13.0443 80.1221C13.543 80.1847 14.045 80.0277 14.4177 79.6899C14.8001 79.3432 15.0189 78.8501 15.0189 78.3333C15.0246 73.7337 18.7518 70.0057 23.3504 70C23.8581 70.0041 24.3642 70.0553 24.8621 70.1538C25.0134 70.1815 25.1615 70.2222 25.312 70.2588C25.6448 70.3393 25.9719 70.4411 26.2916 70.5631C26.4584 70.6282 26.6252 70.6901 26.7912 70.7666C27.0475 70.8895 27.2973 71.0254 27.5397 71.1735C27.7244 71.285 27.9181 71.3818 28.0963 71.5071H28.1093C30.3451 73.0607 31.6794 75.6103 31.6819 78.3333C31.6819 79.2537 32.428 80 33.3482 80C34.2684 80 35.0145 79.2537 35.0145 78.3333C35.0128 74.9748 33.5597 71.7806 31.0285 69.5736C33.1594 64.0495 38.3462 60.3011 44.2588 60.013C50.1714 59.7241 55.6983 62.95 58.3564 68.2397C54.4511 70.1684 51.579 73.7028 50.4895 77.9199C50.1747 79.1439 50.0144 80.4028 50.0111 81.6667C50.0111 82.5871 50.7572 83.3333 51.6774 83.3333C52.5976 83.3333 53.3437 82.5871 53.3437 81.6667C53.338 76.7253 56.4518 72.3193 61.1105 70.6754C61.126 70.673 61.1415 70.6706 61.1569 70.6665C62.3928 70.223 63.6954 69.9975 65.0078 70C70.6161 69.9943 75.4319 73.9868 76.4668 79.5003C76.5872 80.144 77.073 80.6575 77.7084 80.8138C78.3438 80.9692 79.0126 80.7389 79.4162 80.2238C80.3616 79.0218 81.8083 78.3236 83.337 78.3333C86.0977 78.3333 88.3359 80.5721 88.3359 83.3333C88.3384 83.8306 88.2635 84.3245 88.1146 84.7982C87.9267 85.3914 88.0853 86.04 88.5247 86.4795C88.9649 86.9197 89.6125 87.0776 90.2056 86.8904C90.6792 86.7399 91.1722 86.6642 91.6685 86.6666C94.4291 86.6666 96.6674 88.9054 96.6674 91.6666C96.6674 94.4279 94.4291 96.6666 91.6685 96.6666Z" fill="#494949"/>
</svg>
