<svg width="74" height="60" viewBox="0 0 74 60" fill="none" xmlns="http://www.w3.org/2000/svg">
<path d="M42.4457 0L0 25.622L32.0633 42L74 17.9856L42.4457 0Z" fill="#E2B77F"/>
<path d="M0.711111 44.6705L0 25.5L32 41.9191V60L0.711111 44.6705Z" fill="#B18B61"/>
<path d="M74 18L32 42V60L73.4 36.7109L74 18Z" fill="#A68D61"/>
<g clip-path="url(#clip0)">
<path d="M19.3874 26.2782L17 24.8024L24.0898 20.4489L26.4289 21.7771L28.3823 25.4419C28.3823 25.4419 31.903 24.4581 34.5557 25.9585C37.2083 27.4588 38.7999 28.5411 38.7758 30.0415C38.7517 31.5419 36.4125 32.8455 34.4833 32.9685C32.5541 33.0914 30.8179 32.8455 29.6784 32.3751C28.539 31.9047 28.4395 31.8954 28.4395 31.8954L30.3838 30.4473C30.3838 30.4473 32.5722 31.5173 34.2362 30.7978C35.9001 30.0784 35.6107 28.9715 34.5255 28.3443C33.4404 27.7171 31.686 26.7763 30.1306 27.1083C28.5752 27.4404 28.0688 28.3628 28.0688 28.3628L25.8984 27.2375L23.9451 23.3082L19.3874 26.2782Z" fill="#1D2E23"/>
<path d="M35.0501 23.4742L27.273 18.5303L33.8202 14.435L36.0267 15.9846L31.8669 18.6779L34.7245 20.6702C34.7245 20.6702 39.3546 17.8662 42.6101 18.9546C45.827 20.0301 49.8084 22.2198 48.1083 24.95C46.4082 27.6802 41.7781 27.053 41.1813 26.9976C40.5844 26.9423 38.4322 26.0015 38.4322 26.0015L40.1504 24.6733C40.1504 24.6733 42.7307 26.0322 44.2981 24.9992C45.8656 23.9661 45.2145 22.5149 43.8641 21.8016C42.5136 21.0883 40.7291 20.2029 38.4864 21.5065C36.2437 22.8101 35.0501 23.4742 35.0501 23.4742Z" fill="#1D2E23"/>
<path d="M57.5493 14.9281C55.0172 13.4759 49.4999 10.2292 48.5148 9.89714C47.5297 9.56509 46.8423 9.30682 46.8423 9.30682C42.7548 8.45825 40.7653 9.52819 39.7525 10.5981C38.7396 11.6681 38.5226 13.9187 40.9823 15.3207C43.442 16.7227 47.3487 19.1208 50.0978 20.3014C52.8469 21.4821 56.3194 20.5597 57.5493 19.5635C58.7792 18.5674 60.0814 16.3804 57.5493 14.9281ZM42.7307 13.5126C41.5008 12.3812 43.8399 11.1514 43.8399 11.1514H43.9605L50.0616 17.7678C50.0616 17.7678 43.9605 14.6441 42.7307 13.5126ZM54.1853 18.8255L47.9395 12.2582C47.9395 12.2582 53.2448 14.7178 55.0534 16.0706C56.862 17.4235 54.1853 18.8255 54.1853 18.8255Z" fill="#1D2E23"/>
</g>
<g clip-path="url(#clip1)">
<path d="M60.9035 35.6024C59.2087 35.6308 58.6069 34.8817 58.8662 33.2052C59.1757 31.2029 59.9359 29.5402 62.0294 28.7824C62.8829 28.4734 63.5253 28.8365 63.9253 29.7388C64.297 30.5773 63.9249 31.0112 63.176 31.3392C62.8648 31.4755 62.6969 31.5286 62.5415 31.1527C62.2355 30.4135 61.7344 30.6793 61.2729 30.9872C60.8523 31.2676 60.6169 31.6966 60.4408 32.1487C60.0994 33.0251 60.3696 33.5379 61.3217 33.5186C63.9291 33.4656 64.4929 34.4731 63.7482 37.1574C63.2502 38.9523 62.2532 40.4116 60.1841 40.8002C59.4671 40.9349 58.9221 40.7566 58.7269 40.0044C58.5455 39.3061 58.4806 38.6434 59.3595 38.2947C59.7077 38.1565 59.9693 37.9642 60.1456 38.5036C60.3272 39.0592 60.7485 38.9547 61.1677 38.7444C61.6274 38.5137 61.9109 38.1133 62.155 37.7041C62.4585 37.1952 62.7104 36.602 62.4152 36.0437C62.1073 35.4624 61.4583 35.5946 60.9035 35.6024Z" fill="#2C2C2C"/>
<path d="M44.2361 44.1903C44.2361 44.1903 45.2384 43.228 45.1817 41.3774C45.1707 41.0237 45.1461 40.704 45.1134 40.4177C45.0096 39.5128 43.9903 39.0127 43.1926 39.4817L40 41.3589L40.1891 52C40.1891 52 41.9668 51.2042 43.2338 50.2974C44.5009 49.3906 45.3708 47.8546 45.314 46.041C45.2573 44.2274 44.2361 44.1903 44.2361 44.1903ZM41.3811 42.2965C41.3811 42.2965 42.5599 41.6087 42.9665 41.3866C43.3731 41.1646 43.8081 41.5162 43.8081 42.1732C43.8081 42.8301 43.5528 43.3946 42.7774 44.0053C42.0021 44.616 41.3811 44.7887 41.3811 44.7887V42.2965ZM43.5055 48.1137C42.768 48.8169 41.3811 49.4636 41.3811 49.4636V46.6517L43.0369 45.5911C43.4006 45.3581 43.8898 45.5925 43.9184 46.0169C43.9671 46.7442 43.936 47.7032 43.5055 48.1137Z" fill="#1D2E23"/>
<path d="M56.6685 32.4726C55.786 32.0284 54.6009 32.8427 54.6009 32.8427C53.3401 33.7557 52.735 34.7674 52.5332 36.544C52.3315 38.3206 52.3231 41.1582 52.3231 42.3426C52.3231 43.527 53.1132 44.4647 54.7521 43.7244C56.3911 42.9842 57.3745 40.8784 57.4501 38.4152C57.5258 35.9518 57.551 32.9167 56.6685 32.4726ZM56.0814 39.3026C56.0057 40.8489 55.098 42.3212 54.2407 42.2965C53.3834 42.2719 53.7868 39.5823 53.7868 38.3485C53.7868 37.1148 53.7587 36.0887 54.2407 35.0668C54.5433 34.4252 56.0814 33.2902 56.0814 34.7213C56.0814 36.1525 56.157 37.7563 56.0814 39.3026Z" fill="#1D2E23"/>
<path d="M50.5848 35.9682C49.7022 35.5241 48.5172 36.3384 48.5172 36.3384C47.2564 37.2513 46.6513 38.263 46.4495 40.0396C46.2478 41.8162 46.2394 44.6538 46.2394 45.8382C46.2394 47.0226 47.0295 47.9603 48.6684 47.22C50.3074 46.4798 51.2908 44.374 51.3664 41.9108C51.4421 39.4474 51.4673 36.4124 50.5848 35.9682ZM49.9977 42.7983C49.922 44.3446 49.0143 45.8169 48.157 45.7922C47.2997 45.7675 47.7031 43.0779 47.7031 41.8442C47.7031 40.6104 47.675 39.5844 48.157 38.5624C48.4596 37.9208 49.9977 36.7858 49.9977 38.2169C49.9977 39.6481 50.0733 41.252 49.9977 42.7983Z" fill="#1D2E23"/>
<path d="M64.4023 27.1461V28.8116L66.3312 27.9789L66.1043 37.1395L67.655 36.3252L67.9198 26.924L70 25.8136V24L64.4023 27.1461Z" fill="#1D2E23"/>
</g>
<path d="M16.547 35.7781C15.2385 35.1736 14.9719 33.2594 15.0022 32.3778L16.547 32L20 34.2668L19.0004 35.1484C18.7278 35.6102 17.8555 36.3826 16.547 35.7781Z" fill="#252525"/>
<defs>
<clipPath id="clip0">
<rect x="17" y="9" width="42" height="24" fill="white"/>
</clipPath>
<clipPath id="clip1">
<rect x="40" y="24" width="30" height="28" fill="white"/>
</clipPath>
</defs>
</svg>
