<svg width="35" height="32" viewBox="0 0 35 32" fill="none" xmlns="http://www.w3.org/2000/svg">
<path fill-rule="evenodd" clip-rule="evenodd" d="M29.7827 28.584C28.9945 28.4598 28.2925 28.4215 28.2925 28.0019C28.2925 27.8397 28.3887 27.6679 28.5427 27.5534C28.6772 27.4485 29.0327 27.4102 29.2732 27.4102C29.5231 27.4102 29.7727 27.5344 29.9267 27.6965C30.0224 27.8112 30.1382 27.9927 30.1575 28.1833H31.436C31.407 27.7159 31.2052 27.2574 30.8398 27.0002C30.4839 26.7425 30.0226 26.4275 29.3886 26.4275C28.7828 26.4275 28.187 26.4465 27.774 26.7521C27.3602 27.0478 27.0626 27.5439 27.0626 27.9732C27.0626 28.2213 27.0433 28.5173 27.1394 28.6984C27.2452 28.8797 27.5528 29.2518 27.7933 29.3951C28.1295 29.5859 28.9177 29.6623 29.3502 29.777C29.706 29.8626 30.1385 29.8819 30.2344 30.2348C30.2919 30.4447 30.2247 30.6357 30.0325 30.7597C29.8501 30.8836 29.5714 30.9695 29.2636 30.9695C28.9462 30.9695 28.6388 30.8739 28.4852 30.6831C28.3505 30.502 28.2735 30.3302 28.1677 30.0537H26.8895C26.9184 30.6357 27.245 31.2082 27.6489 31.5325C28.043 31.8473 28.5717 32.0001 29.2445 32.0001C29.9171 32.0001 30.5032 31.8856 30.9363 31.5799C31.359 31.2748 31.59 30.7023 31.59 30.2346C31.59 29.8339 31.4747 29.5191 31.2918 29.2709C30.9168 28.7845 30.2438 28.6506 29.7827 28.584Z" fill="black"/>
<path fill-rule="evenodd" clip-rule="evenodd" d="M13.1155 31.8471H14.4122V26.5037H13.1155V31.8471Z" fill="black"/>
<path fill-rule="evenodd" clip-rule="evenodd" d="M13.1155 26.1412H14.4218V24.853H13.1155V26.1412Z" fill="black"/>
<path fill-rule="evenodd" clip-rule="evenodd" d="M11.2222 27.2099C10.7414 26.8376 10.1263 26.5805 9.45366 26.561C9.43437 26.561 9.41508 26.561 9.38624 26.561C7.89641 26.561 6.68512 27.7635 6.68512 29.2326C6.68512 30.7118 7.89623 31.9235 9.38624 31.9235C9.41508 31.9235 9.43437 31.9235 9.45366 31.9235C10.1263 31.9142 10.7414 31.6469 11.2126 31.1888L11.2222 31.8472H12.4524V24.853H11.2222V27.2099ZM9.46321 30.8262H9.45366C8.56921 30.8262 7.84845 30.1108 7.84845 29.2326C7.84845 28.3646 8.56921 27.6392 9.45366 27.6392H9.46321C10.3379 27.6392 11.0682 28.3551 11.0682 29.2326C11.0682 30.1107 10.3379 30.8262 9.46321 30.8262Z" fill="black"/>
<path fill-rule="evenodd" clip-rule="evenodd" d="M19.2767 27.1909C18.7963 26.8186 18.1812 26.5609 17.5084 26.5421C17.4891 26.5421 17.4602 26.5421 17.4409 26.5421C15.9511 26.5421 14.7306 27.7537 14.7306 29.2234C14.7306 30.7024 15.9511 31.9142 17.4409 31.9142C17.4602 31.9142 17.4889 31.9142 17.5084 31.9142C18.1812 31.895 18.7867 31.6278 19.2673 31.17V31.8285H20.4976V24.8435H19.2673L19.2767 27.1909ZM17.5084 30.8166C16.6239 30.8166 15.8934 30.0916 15.8934 29.2139C15.8934 28.3456 16.6237 27.6295 17.5084 27.6295C18.3926 27.6295 19.1231 28.3454 19.1231 29.2139C19.1231 30.0916 18.3926 30.8166 17.5084 30.8166Z" fill="black"/>
<path fill-rule="evenodd" clip-rule="evenodd" d="M4.95513 26.5037V27.0097C4.70526 26.7425 4.59006 26.6566 4.30162 26.5513C4.04201 26.4561 3.6865 26.3704 3.34037 26.3607C3.32108 26.3607 3.30179 26.3607 3.28268 26.3607C2.86948 26.3607 2.50423 26.4275 2.17739 26.561C1.8601 26.6947 1.5621 26.9046 1.29294 27.191C1.0528 27.439 0.860272 27.7443 0.716227 28.0786C0.591293 28.4124 0.524048 28.7559 0.524048 29.1278C0.524048 29.9392 0.793027 30.6168 1.33152 31.1415C1.8601 31.6759 2.53308 31.9523 3.34037 31.9523C3.34037 31.9523 3.34037 31.9523 3.3501 31.9523C3.67677 31.9523 4.03228 31.8567 4.32073 31.752C4.609 31.6469 4.82046 31.561 4.95495 31.3703V31.8565L6.20447 31.8472L6.19509 26.4942L4.95513 26.5037ZM3.3501 30.7401C3.34037 30.7401 3.34037 30.7401 3.34037 30.7401C2.4561 30.7401 1.74472 30.0341 1.74472 29.1562C1.74472 28.288 2.4561 27.5723 3.34037 27.5723C3.34037 27.5723 3.34037 27.5723 3.3501 27.5723C4.22464 27.5723 4.94557 28.2879 4.94557 29.1562C4.94557 30.0343 4.22464 30.7401 3.3501 30.7401Z" fill="black"/>
<path fill-rule="evenodd" clip-rule="evenodd" d="M25.3416 26.4847L25.3514 26.9904C25.1013 26.7331 24.9766 26.6468 24.698 26.5323C24.4289 26.4372 24.0826 26.3606 23.7364 26.3513C23.7173 26.3513 23.698 26.3513 23.6791 26.3513C23.2657 26.3513 22.9007 26.4179 22.5738 26.5421C22.2468 26.6756 21.9488 26.8954 21.6895 27.1719C21.4393 27.42 21.2473 27.7253 21.1127 28.0689C20.9877 28.393 20.9109 28.7461 20.9109 29.118C20.9109 29.92 21.1895 30.5974 21.7276 31.1318C22.2468 31.6565 22.9293 31.9332 23.7364 31.9332C24.073 31.9332 24.4287 31.8475 24.7072 31.733C24.9957 31.6279 25.2171 31.5422 25.3514 31.3514V31.8382L26.6012 31.8285L26.5816 26.4848H25.3416V26.4847ZM23.7364 30.7306C22.8525 30.7212 22.1316 30.0154 22.1316 29.1374C22.1316 28.2693 22.8525 27.563 23.7364 27.5533C24.6212 27.5533 25.3416 28.2692 25.3416 29.1374C25.3416 30.0152 24.6212 30.7306 23.7364 30.7306Z" fill="black"/>
<path fill-rule="evenodd" clip-rule="evenodd" d="M32.6756 23.6602C32.6659 23.6602 32.6565 23.6509 32.6565 23.6509C31.82 23.6509 31.1376 24.3281 31.1376 25.1582C31.1376 25.9884 31.82 26.6565 32.6565 26.6565C32.6565 26.6565 32.666 26.6565 32.6756 26.6565C33.5022 26.6467 34.175 25.9787 34.175 25.1582C34.175 24.3376 33.5022 23.6697 32.6756 23.6602ZM32.6756 26.4178C31.9738 26.4178 31.4068 25.8547 31.4068 25.1582C31.4068 24.4809 31.9738 23.9082 32.6756 23.9177C33.3774 23.9177 33.9444 24.4808 33.9444 25.168C33.9444 25.8547 33.3774 26.4178 32.6756 26.4178Z" fill="black"/>
<path fill-rule="evenodd" clip-rule="evenodd" d="M33.1176 25.4062C33.0695 25.3588 33.012 25.311 32.9354 25.2632C33.0794 25.2444 33.195 25.187 33.262 25.1011C33.3293 25.0341 33.3776 24.9294 33.3776 24.8147C33.3776 24.7193 33.339 24.6241 33.3004 24.5477C33.2525 24.4807 33.1757 24.4236 33.1081 24.3948C33.0313 24.3662 32.9064 24.3567 32.7239 24.3567H32.6756H32.0219V25.9883H32.3581V25.3014H32.4158C32.493 25.3014 32.5505 25.311 32.5891 25.3203C32.6276 25.33 32.6468 25.349 32.6756 25.3774C32.6756 25.3873 32.6853 25.3873 32.6853 25.3967C32.7239 25.4155 32.7816 25.5018 32.8681 25.6255L33.1079 25.9881H33.5022L33.3003 25.6733C33.2236 25.5496 33.156 25.4447 33.1176 25.4062ZM32.6756 25.0438C32.6565 25.0438 32.6276 25.0438 32.5986 25.0438H32.3581V24.6337H32.6084C32.6372 24.6337 32.6563 24.6337 32.6756 24.6337C32.7717 24.6337 32.8388 24.6337 32.8584 24.6432C32.9064 24.6432 32.9541 24.6717 32.983 24.7007C33.0216 24.729 33.0313 24.7766 33.0313 24.8244C33.0313 24.872 33.0216 24.9294 32.9927 24.9581C32.964 24.9772 32.9352 25.0055 32.9064 25.025C32.8681 25.0341 32.791 25.0341 32.6756 25.0438Z" fill="black"/>
<path fill-rule="evenodd" clip-rule="evenodd" d="M13.9707 20.3079H8.31914C10.0081 21.3454 11.9843 22.0339 14.2332 22.4961L13.9707 20.3079ZM18.2799 20.3126L17.9431 22.368C20.2018 21.955 22.193 21.3059 23.9217 20.3126H18.2799ZM17.6311 20.3028L14.5255 20.3077C14.9613 21.2075 15.5161 21.9648 16.1502 22.6877C16.7741 21.9501 17.1903 21.1878 17.6311 20.3028ZM25.9872 18.9359L6.21916 18.926C5.56033 18.4048 5.11457 18.1343 4.58458 17.4411H27.6464C27.1311 18.0016 26.5418 18.5079 25.9872 18.9359ZM28.9341 15.7398L3.38585 15.7495C3.04396 15.2775 2.6527 14.6136 2.41009 14.0875H29.9101C29.6522 14.6777 29.3057 15.2234 28.9341 15.7398ZM10.652 12.288L1.73145 12.2929C0.914243 10.4196 0.399112 8.48715 0.151367 6.08745C4.74791 6.89871 8.29437 8.77227 10.652 12.288ZM19.7906 12.3028H12.4551C12.2915 7.61669 13.5993 2.86173 16.1254 0C18.691 2.78812 20.0185 7.52323 19.7906 12.3028ZM30.6627 12.2929L21.5687 12.2979C24.0799 8.79195 27.6859 6.81035 32.3567 6.10712C32.0646 8.45255 31.5197 10.444 30.6627 12.2929Z" fill="black"/>
</svg>
