<svg width="32" height="32" viewBox="0 0 32 32" fill="none" xmlns="http://www.w3.org/2000/svg">
<g clip-path="url(#clip0)">
<path d="M19.75 16.25C19.405 16.25 19.125 16.53 19.125 16.875C19.125 17.22 19.405 17.5 19.75 17.5C20.095 17.5 20.375 17.22 20.375 16.875C20.375 16.53 20.095 16.25 19.75 16.25Z" fill="#E6DA6B"/>
<path d="M6.38555 23.1116L0.135549 30.9866C-0.0136213 31.1743 -0.0419416 31.4309 0.0623064 31.6467C0.166554 31.8628 0.385304 32 0.62505 32H31.375C31.6148 32 31.8335 31.8628 31.9378 31.6467C32.0423 31.4309 32.0137 31.1743 31.8645 30.9866L25.6145 23.1116C25.4961 22.9622 25.3157 22.875 25.125 22.875H19.6502L24.3243 15.5439C25.4207 13.9001 26 11.9832 26 10C26 4.48608 21.5142 0 16 0C10.4859 0 6.00005 4.48608 6.00005 10C6.00005 11.9832 6.57939 13.8999 7.67583 15.5439L12.3499 22.875H6.87505C6.68438 22.875 6.5042 22.9622 6.38555 23.1116ZM4.05205 28.0625H7.8311L5.69829 30.75H1.919L4.05205 28.0625ZM13.147 24.125L14.8604 26.8125H10.419L12.552 24.125H13.147ZM18.8533 24.125H19.4483L21.5811 26.8125H17.1399L18.8533 24.125ZM22.5733 28.0625L24.7061 30.75H7.29399L9.42705 28.0625H22.5733ZM26.302 30.75L24.169 28.0625H27.9483L30.0811 30.75H26.302ZM26.9561 26.8125H23.177L21.044 24.125H24.8233L26.9561 26.8125ZM8.71929 14.8555C7.75811 13.4165 7.25005 11.7375 7.25005 10C7.25005 5.17529 11.1753 1.25 16 1.25C20.8248 1.25 24.75 5.17529 24.75 10C24.75 11.7375 24.242 13.4165 23.2811 14.8555C23.2784 14.8591 23.2762 14.8628 23.2737 14.8665C22.8633 15.5103 16.3162 25.7793 16 26.2749C15.2049 25.0276 9.53618 16.1365 8.72637 14.8665C8.72417 14.8628 8.72173 14.8591 8.71929 14.8555ZM10.9561 24.125L8.82329 26.8125H5.04399L7.17705 24.125H10.9561Z" fill="#E6DA6B"/>
<path d="M16 16.25C19.4312 16.25 22.25 13.4714 22.25 10C22.25 6.55371 19.4463 3.75 16 3.75C12.5537 3.75 9.75 6.55371 9.75 10C9.75 13.4724 12.5698 16.25 16 16.25ZM16 5C18.7571 5 21 7.24292 21 10C21 12.7827 18.739 15 16 15C13.2603 15 11 12.7827 11 10C11 7.24292 13.2429 5 16 5Z" fill="#E6DA6B"/>
<path d="M18.6326 18.3828C18.3372 18.2046 17.9529 18.2998 17.7746 18.5954L15.4646 22.428C15.2864 22.7236 15.3816 23.1076 15.6772 23.2859C15.9741 23.4648 16.3577 23.3677 16.5351 23.0732L18.8452 19.2407C19.0234 18.9451 18.9282 18.561 18.6326 18.3828Z" fill="#E6DA6B"/>
</g>
<defs>
<clipPath id="clip0">
<rect width="32" height="32" fill="white"/>
</clipPath>
</defs>
</svg>
