<svg width="45" height="45" viewBox="0 0 45 45" fill="none" xmlns="http://www.w3.org/2000/svg">
<path d="M18.75 17.4994L28.7494 22.4906L18.75 27.5006V17.4994ZM45 9.375V35.625C45 40.8019 40.8037 45 35.625 45H9.375C4.19813 45 0 40.8019 0 35.625V9.375C0 4.19813 4.19813 0 9.375 0H35.625C40.8037 0 45 4.19813 45 9.375ZM37.5 22.5C37.4625 14.7694 36.8944 11.8125 32.0194 11.4806C27.5138 11.1731 17.4806 11.175 12.9825 11.4806C8.11125 11.8125 7.5375 14.7562 7.5 22.5C7.5375 30.2306 8.10563 33.1875 12.9806 33.5194C17.4788 33.825 27.5119 33.8269 32.0175 33.5194C36.8888 33.1875 37.4625 30.2437 37.5 22.5Z" fill="#786E6E"/>
</svg>
