<?xml version="1.0" standalone="no"?>
<!DOCTYPE svg PUBLIC "-//W3C//DTD SVG 20010904//EN"
 "http://www.w3.org/TR/2001/REC-SVG-20010904/DTD/svg10.dtd">
<svg version="1.0" xmlns="http://www.w3.org/2000/svg"
 width="700.000000pt" height="700.000000pt" viewBox="0 0 700.000000 700.000000"
 preserveAspectRatio="xMidYMid meet">
<metadata>
Created by potrace 1.14, written by Peter Selinger 2001-2017
</metadata>
<g transform="translate(0.000000,700.000000) scale(0.100000,-0.100000)"
fill="#000000" stroke="none">
<path d="M0 5972 l0 -1027 51 -55 c28 -30 81 -87 117 -126 37 -38 128 -135
202 -214 74 -79 169 -180 211 -225 41 -44 109 -116 150 -159 41 -44 108 -116
149 -159 41 -44 91 -97 110 -117 218 -232 298 -317 311 -330 14 -15 11 -22
-44 -81 -71 -75 -148 -158 -352 -374 -82 -88 -181 -193 -220 -234 -38 -41
-102 -109 -141 -150 -40 -42 -86 -92 -104 -111 -56 -60 -292 -311 -367 -390
l-72 -75 -1 -1072 0 -1073 1040 0 1039 0 163 167 c169 173 195 199 418 430 74
76 255 262 402 413 146 151 305 315 353 365 l86 89 126 -129 c115 -120 519
-536 708 -730 44 -45 179 -185 300 -310 121 -125 236 -243 255 -261 l35 -34
1038 0 1037 0 0 1068 c0 1004 -1 1070 -17 1089 -10 11 -75 80 -144 154 -70 74
-144 152 -164 174 -129 138 -301 321 -367 390 -42 44 -85 90 -96 102 -10 13
-80 87 -154 165 -74 79 -158 168 -186 198 -28 30 -83 88 -121 129 -56 58 -68
76 -58 86 17 17 236 251 282 300 20 22 92 99 160 170 67 72 139 148 160 170
20 22 88 94 150 160 62 66 127 136 145 155 18 19 88 94 155 165 68 72 153 162
189 200 l65 70 1 1028 0 1027 -1038 0 -1038 0 -708 -710 c-389 -390 -711 -710
-715 -710 -4 0 -326 320 -715 710 l-709 710 -1039 0 -1038 0 0 -1028z m6390
-184 l0 -603 -73 -76 c-39 -42 -124 -131 -187 -198 -63 -68 -137 -146 -163
-175 -27 -28 -106 -112 -175 -186 -70 -74 -159 -168 -199 -210 -39 -41 -80
-85 -90 -96 -10 -12 -75 -82 -145 -155 -69 -74 -138 -146 -152 -161 -14 -16
-29 -28 -33 -28 -10 0 -1233 1231 -1233 1241 0 4 278 287 618 628 l617 621
608 0 607 0 0 -602z m-1000 -2825 c118 -126 305 -325 340 -363 18 -19 96 -102
174 -185 77 -82 177 -187 221 -234 44 -47 108 -115 141 -151 34 -36 76 -81 93
-100 l31 -34 0 -643 0 -643 -605 0 -606 0 -57 59 c-31 33 -158 163 -282 291
-124 127 -263 271 -310 319 -47 49 -200 206 -340 351 -140 144 -256 265 -257
268 -3 7 51 65 461 486 143 147 299 308 346 356 47 49 164 170 260 270 l175
181 70 -74 c39 -41 104 -110 145 -154z"/>
</g>
</svg>
