<svg width="164" height="21" viewBox="0 0 164 21" fill="none" xmlns="http://www.w3.org/2000/svg">
<mask id="path-1-outside-1" maskUnits="userSpaceOnUse" x="0" y="0" width="164" height="21" fill="black">
<rect fill="white" width="164" height="21"/>
<path d="M22.9771 19.9053H19.3384L9.68799 10.189L3.70264 14.5V19.9053H1V1H3.70264V11.5337L18.521 1H22.4629L11.7446 8.69922L22.9771 19.9053Z"/>
<path d="M42.2778 19.9053H38.5996L34.3809 15.8843H28.9097V13.208H36.3848C36.7627 13.208 37.1187 13.1333 37.4526 12.9839C37.7866 12.8345 38.0767 12.6367 38.3228 12.3906C38.5688 12.1357 38.7622 11.8413 38.9028 11.5073C39.0435 11.1733 39.1138 10.8218 39.1138 10.4526C39.1138 10.0747 39.0435 9.72314 38.9028 9.39795C38.7622 9.06396 38.5688 8.77393 38.3228 8.52783C38.0767 8.28174 37.7866 8.08838 37.4526 7.94775C37.1187 7.79834 36.7627 7.72363 36.3848 7.72363H27.499V19.9053H24.7964V5.06055H36.3848C37.1318 5.06055 37.835 5.20557 38.4941 5.49561C39.1533 5.77686 39.7246 6.16357 40.208 6.65576C40.7002 7.13916 41.0869 7.71045 41.3682 8.36963C41.6494 9.02002 41.79 9.71436 41.79 10.4526C41.79 11.0591 41.6934 11.6436 41.5 12.2061C41.3066 12.7598 41.0342 13.2695 40.6826 13.7354C40.3398 14.1924 39.9312 14.5879 39.4565 14.9219C38.9819 15.2559 38.4634 15.502 37.9009 15.6602L42.2778 19.9053Z"/>
<path d="M62.5015 12.4565C62.5015 13.4849 62.3389 14.4517 62.0137 15.3569C61.6885 16.2534 61.2227 17.04 60.6162 17.7168C60.0186 18.3936 59.2979 18.9297 58.4541 19.3252C57.6191 19.7119 56.6875 19.9053 55.6592 19.9053H50.9658C49.9375 19.9053 49.0015 19.7119 48.1577 19.3252C47.314 18.9297 46.5889 18.3936 45.9824 17.7168C45.3848 17.04 44.9233 16.2534 44.5981 15.3569C44.2729 14.4517 44.1104 13.4849 44.1104 12.4565C44.1104 11.437 44.2729 10.479 44.5981 9.58252C44.9233 8.68604 45.3848 7.90381 45.9824 7.23584C46.5889 6.55908 47.314 6.02734 48.1577 5.64062C49.0015 5.25391 49.9375 5.06055 50.9658 5.06055H55.6592C56.6875 5.06055 57.6191 5.25391 58.4541 5.64062C59.2979 6.02734 60.0186 6.55908 60.6162 7.23584C61.2227 7.90381 61.6885 8.68604 62.0137 9.58252C62.3389 10.479 62.5015 11.437 62.5015 12.4565ZM59.7988 12.4565C59.7988 11.8062 59.7021 11.1953 59.5088 10.624C59.3242 10.0439 59.0518 9.54297 58.6914 9.12109C58.3398 8.69043 57.9092 8.35205 57.3994 8.10596C56.8896 7.85107 56.3096 7.72363 55.6592 7.72363H50.9658C50.3154 7.72363 49.731 7.85107 49.2124 8.10596C48.7026 8.35205 48.2676 8.69043 47.9072 9.12109C47.5557 9.54297 47.2832 10.0439 47.0898 10.624C46.9053 11.1953 46.813 11.8062 46.813 12.4565C46.813 13.1069 46.9053 13.7222 47.0898 14.3022C47.2832 14.8735 47.5557 15.3745 47.9072 15.8052C48.2676 16.2358 48.7026 16.5786 49.2124 16.8335C49.731 17.0796 50.3154 17.2026 50.9658 17.2026H55.6592C56.3096 17.2026 56.8896 17.0796 57.3994 16.8335C57.9092 16.5786 58.3398 16.2358 58.6914 15.8052C59.0518 15.3745 59.3242 14.8735 59.5088 14.3022C59.7021 13.7222 59.7988 13.1069 59.7988 12.4565Z"/>
<path d="M79.126 19.9053C79.126 18.9209 78.959 17.9673 78.625 17.0444C78.2998 16.1128 77.856 15.2383 77.2935 14.4209C76.7397 13.5947 76.0938 12.8257 75.3555 12.1138C74.626 11.4019 73.8569 10.769 73.0483 10.2153C72.2397 9.65283 71.4136 9.18262 70.5698 8.80469C69.7349 8.41797 68.9395 8.13232 68.1836 7.94775V19.9053H65.481V5.06055H66.9443V5.08691C67.9111 5.13965 68.9395 5.35498 70.0293 5.73291C71.1279 6.10205 72.2178 6.60742 73.2988 7.24902C74.3887 7.88184 75.4346 8.6377 76.4365 9.5166C77.4473 10.3867 78.3438 11.3491 79.126 12.4038V5.06055H81.8154V19.9053H79.126Z"/>
<path d="M115.948 19.9053H103.779C102.47 19.9053 101.279 19.6592 100.207 19.167C99.1343 18.6748 98.2158 18.0024 97.4512 17.1499C96.6953 16.2974 96.1108 15.2954 95.6978 14.144C95.2847 12.9927 95.0781 11.7622 95.0781 10.4526C95.0781 9.15186 95.2847 7.93018 95.6978 6.7876C96.1108 5.63623 96.6953 4.63428 97.4512 3.78174C98.2158 2.92041 99.1343 2.24365 100.207 1.75146C101.279 1.25049 102.47 1 103.779 1H115.948V3.70264H103.779C102.848 3.70264 102.008 3.88281 101.261 4.24316C100.523 4.59473 99.8945 5.07812 99.376 5.69336C98.8662 6.2998 98.4707 7.01172 98.1895 7.8291C97.917 8.64648 97.7808 9.521 97.7808 10.4526C97.7808 11.3843 97.917 12.2632 98.1895 13.0894C98.4707 13.9067 98.8662 14.623 99.376 15.2383C99.8945 15.8447 100.523 16.3237 101.261 16.6753C102.008 17.0269 102.848 17.2026 103.779 17.2026H115.948V19.9053Z"/>
<path d="M136.277 12.4565C136.277 13.4849 136.114 14.4517 135.789 15.3569C135.464 16.2534 134.998 17.04 134.392 17.7168C133.794 18.3936 133.073 18.9297 132.229 19.3252C131.395 19.7119 130.463 19.9053 129.435 19.9053H124.741C123.713 19.9053 122.777 19.7119 121.933 19.3252C121.089 18.9297 120.364 18.3936 119.758 17.7168C119.16 17.04 118.699 16.2534 118.374 15.3569C118.048 14.4517 117.886 13.4849 117.886 12.4565C117.886 11.437 118.048 10.479 118.374 9.58252C118.699 8.68604 119.16 7.90381 119.758 7.23584C120.364 6.55908 121.089 6.02734 121.933 5.64062C122.777 5.25391 123.713 5.06055 124.741 5.06055H129.435C130.463 5.06055 131.395 5.25391 132.229 5.64062C133.073 6.02734 133.794 6.55908 134.392 7.23584C134.998 7.90381 135.464 8.68604 135.789 9.58252C136.114 10.479 136.277 11.437 136.277 12.4565ZM133.574 12.4565C133.574 11.8062 133.478 11.1953 133.284 10.624C133.1 10.0439 132.827 9.54297 132.467 9.12109C132.115 8.69043 131.685 8.35205 131.175 8.10596C130.665 7.85107 130.085 7.72363 129.435 7.72363H124.741C124.091 7.72363 123.506 7.85107 122.988 8.10596C122.478 8.35205 122.043 8.69043 121.683 9.12109C121.331 9.54297 121.059 10.0439 120.865 10.624C120.681 11.1953 120.588 11.8062 120.588 12.4565C120.588 13.1069 120.681 13.7222 120.865 14.3022C121.059 14.8735 121.331 15.3745 121.683 15.8052C122.043 16.2358 122.478 16.5786 122.988 16.8335C123.506 17.0796 124.091 17.2026 124.741 17.2026H129.435C130.085 17.2026 130.665 17.0796 131.175 16.8335C131.685 16.5786 132.115 16.2358 132.467 15.8052C132.827 15.3745 133.1 14.8735 133.284 14.3022C133.478 13.7222 133.574 13.1069 133.574 12.4565Z"/>
<path d="M141.933 19.9053H139.256V5.06055H141.933V19.9053Z"/>
<path d="M159.467 19.9053C159.467 18.9209 159.3 17.9673 158.966 17.0444C158.641 16.1128 158.197 15.2383 157.634 14.4209C157.081 13.5947 156.435 12.8257 155.696 12.1138C154.967 11.4019 154.198 10.769 153.389 10.2153C152.581 9.65283 151.754 9.18262 150.911 8.80469C150.076 8.41797 149.28 8.13232 148.524 7.94775V19.9053H145.822V5.06055H147.285V5.08691C148.252 5.13965 149.28 5.35498 150.37 5.73291C151.469 6.10205 152.559 6.60742 153.64 7.24902C154.729 7.88184 155.775 8.6377 156.777 9.5166C157.788 10.3867 158.685 11.3491 159.467 12.4038V5.06055H162.156V19.9053H159.467Z"/>
</mask>
<path d="M22.9771 19.9053H19.3384L9.68799 10.189L3.70264 14.5V19.9053H1V1H3.70264V11.5337L18.521 1H22.4629L11.7446 8.69922L22.9771 19.9053Z" fill="white"/>
<path d="M42.2778 19.9053H38.5996L34.3809 15.8843H28.9097V13.208H36.3848C36.7627 13.208 37.1187 13.1333 37.4526 12.9839C37.7866 12.8345 38.0767 12.6367 38.3228 12.3906C38.5688 12.1357 38.7622 11.8413 38.9028 11.5073C39.0435 11.1733 39.1138 10.8218 39.1138 10.4526C39.1138 10.0747 39.0435 9.72314 38.9028 9.39795C38.7622 9.06396 38.5688 8.77393 38.3228 8.52783C38.0767 8.28174 37.7866 8.08838 37.4526 7.94775C37.1187 7.79834 36.7627 7.72363 36.3848 7.72363H27.499V19.9053H24.7964V5.06055H36.3848C37.1318 5.06055 37.835 5.20557 38.4941 5.49561C39.1533 5.77686 39.7246 6.16357 40.208 6.65576C40.7002 7.13916 41.0869 7.71045 41.3682 8.36963C41.6494 9.02002 41.79 9.71436 41.79 10.4526C41.79 11.0591 41.6934 11.6436 41.5 12.2061C41.3066 12.7598 41.0342 13.2695 40.6826 13.7354C40.3398 14.1924 39.9312 14.5879 39.4565 14.9219C38.9819 15.2559 38.4634 15.502 37.9009 15.6602L42.2778 19.9053Z" fill="white"/>
<path d="M62.5015 12.4565C62.5015 13.4849 62.3389 14.4517 62.0137 15.3569C61.6885 16.2534 61.2227 17.04 60.6162 17.7168C60.0186 18.3936 59.2979 18.9297 58.4541 19.3252C57.6191 19.7119 56.6875 19.9053 55.6592 19.9053H50.9658C49.9375 19.9053 49.0015 19.7119 48.1577 19.3252C47.314 18.9297 46.5889 18.3936 45.9824 17.7168C45.3848 17.04 44.9233 16.2534 44.5981 15.3569C44.2729 14.4517 44.1104 13.4849 44.1104 12.4565C44.1104 11.437 44.2729 10.479 44.5981 9.58252C44.9233 8.68604 45.3848 7.90381 45.9824 7.23584C46.5889 6.55908 47.314 6.02734 48.1577 5.64062C49.0015 5.25391 49.9375 5.06055 50.9658 5.06055H55.6592C56.6875 5.06055 57.6191 5.25391 58.4541 5.64062C59.2979 6.02734 60.0186 6.55908 60.6162 7.23584C61.2227 7.90381 61.6885 8.68604 62.0137 9.58252C62.3389 10.479 62.5015 11.437 62.5015 12.4565ZM59.7988 12.4565C59.7988 11.8062 59.7021 11.1953 59.5088 10.624C59.3242 10.0439 59.0518 9.54297 58.6914 9.12109C58.3398 8.69043 57.9092 8.35205 57.3994 8.10596C56.8896 7.85107 56.3096 7.72363 55.6592 7.72363H50.9658C50.3154 7.72363 49.731 7.85107 49.2124 8.10596C48.7026 8.35205 48.2676 8.69043 47.9072 9.12109C47.5557 9.54297 47.2832 10.0439 47.0898 10.624C46.9053 11.1953 46.813 11.8062 46.813 12.4565C46.813 13.1069 46.9053 13.7222 47.0898 14.3022C47.2832 14.8735 47.5557 15.3745 47.9072 15.8052C48.2676 16.2358 48.7026 16.5786 49.2124 16.8335C49.731 17.0796 50.3154 17.2026 50.9658 17.2026H55.6592C56.3096 17.2026 56.8896 17.0796 57.3994 16.8335C57.9092 16.5786 58.3398 16.2358 58.6914 15.8052C59.0518 15.3745 59.3242 14.8735 59.5088 14.3022C59.7021 13.7222 59.7988 13.1069 59.7988 12.4565Z" fill="white"/>
<path d="M79.126 19.9053C79.126 18.9209 78.959 17.9673 78.625 17.0444C78.2998 16.1128 77.856 15.2383 77.2935 14.4209C76.7397 13.5947 76.0938 12.8257 75.3555 12.1138C74.626 11.4019 73.8569 10.769 73.0483 10.2153C72.2397 9.65283 71.4136 9.18262 70.5698 8.80469C69.7349 8.41797 68.9395 8.13232 68.1836 7.94775V19.9053H65.481V5.06055H66.9443V5.08691C67.9111 5.13965 68.9395 5.35498 70.0293 5.73291C71.1279 6.10205 72.2178 6.60742 73.2988 7.24902C74.3887 7.88184 75.4346 8.6377 76.4365 9.5166C77.4473 10.3867 78.3438 11.3491 79.126 12.4038V5.06055H81.8154V19.9053H79.126Z" fill="white"/>
<path d="M115.948 19.9053H103.779C102.47 19.9053 101.279 19.6592 100.207 19.167C99.1343 18.6748 98.2158 18.0024 97.4512 17.1499C96.6953 16.2974 96.1108 15.2954 95.6978 14.144C95.2847 12.9927 95.0781 11.7622 95.0781 10.4526C95.0781 9.15186 95.2847 7.93018 95.6978 6.7876C96.1108 5.63623 96.6953 4.63428 97.4512 3.78174C98.2158 2.92041 99.1343 2.24365 100.207 1.75146C101.279 1.25049 102.47 1 103.779 1H115.948V3.70264H103.779C102.848 3.70264 102.008 3.88281 101.261 4.24316C100.523 4.59473 99.8945 5.07812 99.376 5.69336C98.8662 6.2998 98.4707 7.01172 98.1895 7.8291C97.917 8.64648 97.7808 9.521 97.7808 10.4526C97.7808 11.3843 97.917 12.2632 98.1895 13.0894C98.4707 13.9067 98.8662 14.623 99.376 15.2383C99.8945 15.8447 100.523 16.3237 101.261 16.6753C102.008 17.0269 102.848 17.2026 103.779 17.2026H115.948V19.9053Z" fill="white"/>
<path d="M136.277 12.4565C136.277 13.4849 136.114 14.4517 135.789 15.3569C135.464 16.2534 134.998 17.04 134.392 17.7168C133.794 18.3936 133.073 18.9297 132.229 19.3252C131.395 19.7119 130.463 19.9053 129.435 19.9053H124.741C123.713 19.9053 122.777 19.7119 121.933 19.3252C121.089 18.9297 120.364 18.3936 119.758 17.7168C119.16 17.04 118.699 16.2534 118.374 15.3569C118.048 14.4517 117.886 13.4849 117.886 12.4565C117.886 11.437 118.048 10.479 118.374 9.58252C118.699 8.68604 119.16 7.90381 119.758 7.23584C120.364 6.55908 121.089 6.02734 121.933 5.64062C122.777 5.25391 123.713 5.06055 124.741 5.06055H129.435C130.463 5.06055 131.395 5.25391 132.229 5.64062C133.073 6.02734 133.794 6.55908 134.392 7.23584C134.998 7.90381 135.464 8.68604 135.789 9.58252C136.114 10.479 136.277 11.437 136.277 12.4565ZM133.574 12.4565C133.574 11.8062 133.478 11.1953 133.284 10.624C133.1 10.0439 132.827 9.54297 132.467 9.12109C132.115 8.69043 131.685 8.35205 131.175 8.10596C130.665 7.85107 130.085 7.72363 129.435 7.72363H124.741C124.091 7.72363 123.506 7.85107 122.988 8.10596C122.478 8.35205 122.043 8.69043 121.683 9.12109C121.331 9.54297 121.059 10.0439 120.865 10.624C120.681 11.1953 120.588 11.8062 120.588 12.4565C120.588 13.1069 120.681 13.7222 120.865 14.3022C121.059 14.8735 121.331 15.3745 121.683 15.8052C122.043 16.2358 122.478 16.5786 122.988 16.8335C123.506 17.0796 124.091 17.2026 124.741 17.2026H129.435C130.085 17.2026 130.665 17.0796 131.175 16.8335C131.685 16.5786 132.115 16.2358 132.467 15.8052C132.827 15.3745 133.1 14.8735 133.284 14.3022C133.478 13.7222 133.574 13.1069 133.574 12.4565Z" fill="white"/>
<path d="M141.933 19.9053H139.256V5.06055H141.933V19.9053Z" fill="white"/>
<path d="M159.467 19.9053C159.467 18.9209 159.3 17.9673 158.966 17.0444C158.641 16.1128 158.197 15.2383 157.634 14.4209C157.081 13.5947 156.435 12.8257 155.696 12.1138C154.967 11.4019 154.198 10.769 153.389 10.2153C152.581 9.65283 151.754 9.18262 150.911 8.80469C150.076 8.41797 149.28 8.13232 148.524 7.94775V19.9053H145.822V5.06055H147.285V5.08691C148.252 5.13965 149.28 5.35498 150.37 5.73291C151.469 6.10205 152.559 6.60742 153.64 7.24902C154.729 7.88184 155.775 8.6377 156.777 9.5166C157.788 10.3867 158.685 11.3491 159.467 12.4038V5.06055H162.156V19.9053H159.467Z" fill="white"/>
<path d="M22.9771 19.9053H19.3384L9.68799 10.189L3.70264 14.5V19.9053H1V1H3.70264V11.5337L18.521 1H22.4629L11.7446 8.69922L22.9771 19.9053Z" stroke="black" stroke-width="2" mask="url(#path-1-outside-1)"/>
<path d="M42.2778 19.9053H38.5996L34.3809 15.8843H28.9097V13.208H36.3848C36.7627 13.208 37.1187 13.1333 37.4526 12.9839C37.7866 12.8345 38.0767 12.6367 38.3228 12.3906C38.5688 12.1357 38.7622 11.8413 38.9028 11.5073C39.0435 11.1733 39.1138 10.8218 39.1138 10.4526C39.1138 10.0747 39.0435 9.72314 38.9028 9.39795C38.7622 9.06396 38.5688 8.77393 38.3228 8.52783C38.0767 8.28174 37.7866 8.08838 37.4526 7.94775C37.1187 7.79834 36.7627 7.72363 36.3848 7.72363H27.499V19.9053H24.7964V5.06055H36.3848C37.1318 5.06055 37.835 5.20557 38.4941 5.49561C39.1533 5.77686 39.7246 6.16357 40.208 6.65576C40.7002 7.13916 41.0869 7.71045 41.3682 8.36963C41.6494 9.02002 41.79 9.71436 41.79 10.4526C41.79 11.0591 41.6934 11.6436 41.5 12.2061C41.3066 12.7598 41.0342 13.2695 40.6826 13.7354C40.3398 14.1924 39.9312 14.5879 39.4565 14.9219C38.9819 15.2559 38.4634 15.502 37.9009 15.6602L42.2778 19.9053Z" stroke="black" stroke-width="2" mask="url(#path-1-outside-1)"/>
<path d="M62.5015 12.4565C62.5015 13.4849 62.3389 14.4517 62.0137 15.3569C61.6885 16.2534 61.2227 17.04 60.6162 17.7168C60.0186 18.3936 59.2979 18.9297 58.4541 19.3252C57.6191 19.7119 56.6875 19.9053 55.6592 19.9053H50.9658C49.9375 19.9053 49.0015 19.7119 48.1577 19.3252C47.314 18.9297 46.5889 18.3936 45.9824 17.7168C45.3848 17.04 44.9233 16.2534 44.5981 15.3569C44.2729 14.4517 44.1104 13.4849 44.1104 12.4565C44.1104 11.437 44.2729 10.479 44.5981 9.58252C44.9233 8.68604 45.3848 7.90381 45.9824 7.23584C46.5889 6.55908 47.314 6.02734 48.1577 5.64062C49.0015 5.25391 49.9375 5.06055 50.9658 5.06055H55.6592C56.6875 5.06055 57.6191 5.25391 58.4541 5.64062C59.2979 6.02734 60.0186 6.55908 60.6162 7.23584C61.2227 7.90381 61.6885 8.68604 62.0137 9.58252C62.3389 10.479 62.5015 11.437 62.5015 12.4565ZM59.7988 12.4565C59.7988 11.8062 59.7021 11.1953 59.5088 10.624C59.3242 10.0439 59.0518 9.54297 58.6914 9.12109C58.3398 8.69043 57.9092 8.35205 57.3994 8.10596C56.8896 7.85107 56.3096 7.72363 55.6592 7.72363H50.9658C50.3154 7.72363 49.731 7.85107 49.2124 8.10596C48.7026 8.35205 48.2676 8.69043 47.9072 9.12109C47.5557 9.54297 47.2832 10.0439 47.0898 10.624C46.9053 11.1953 46.813 11.8062 46.813 12.4565C46.813 13.1069 46.9053 13.7222 47.0898 14.3022C47.2832 14.8735 47.5557 15.3745 47.9072 15.8052C48.2676 16.2358 48.7026 16.5786 49.2124 16.8335C49.731 17.0796 50.3154 17.2026 50.9658 17.2026H55.6592C56.3096 17.2026 56.8896 17.0796 57.3994 16.8335C57.9092 16.5786 58.3398 16.2358 58.6914 15.8052C59.0518 15.3745 59.3242 14.8735 59.5088 14.3022C59.7021 13.7222 59.7988 13.1069 59.7988 12.4565Z" stroke="black" stroke-width="2" mask="url(#path-1-outside-1)"/>
<path d="M79.126 19.9053C79.126 18.9209 78.959 17.9673 78.625 17.0444C78.2998 16.1128 77.856 15.2383 77.2935 14.4209C76.7397 13.5947 76.0938 12.8257 75.3555 12.1138C74.626 11.4019 73.8569 10.769 73.0483 10.2153C72.2397 9.65283 71.4136 9.18262 70.5698 8.80469C69.7349 8.41797 68.9395 8.13232 68.1836 7.94775V19.9053H65.481V5.06055H66.9443V5.08691C67.9111 5.13965 68.9395 5.35498 70.0293 5.73291C71.1279 6.10205 72.2178 6.60742 73.2988 7.24902C74.3887 7.88184 75.4346 8.6377 76.4365 9.5166C77.4473 10.3867 78.3438 11.3491 79.126 12.4038V5.06055H81.8154V19.9053H79.126Z" stroke="black" stroke-width="2" mask="url(#path-1-outside-1)"/>
<path d="M115.948 19.9053H103.779C102.47 19.9053 101.279 19.6592 100.207 19.167C99.1343 18.6748 98.2158 18.0024 97.4512 17.1499C96.6953 16.2974 96.1108 15.2954 95.6978 14.144C95.2847 12.9927 95.0781 11.7622 95.0781 10.4526C95.0781 9.15186 95.2847 7.93018 95.6978 6.7876C96.1108 5.63623 96.6953 4.63428 97.4512 3.78174C98.2158 2.92041 99.1343 2.24365 100.207 1.75146C101.279 1.25049 102.47 1 103.779 1H115.948V3.70264H103.779C102.848 3.70264 102.008 3.88281 101.261 4.24316C100.523 4.59473 99.8945 5.07812 99.376 5.69336C98.8662 6.2998 98.4707 7.01172 98.1895 7.8291C97.917 8.64648 97.7808 9.521 97.7808 10.4526C97.7808 11.3843 97.917 12.2632 98.1895 13.0894C98.4707 13.9067 98.8662 14.623 99.376 15.2383C99.8945 15.8447 100.523 16.3237 101.261 16.6753C102.008 17.0269 102.848 17.2026 103.779 17.2026H115.948V19.9053Z" stroke="black" stroke-width="2" mask="url(#path-1-outside-1)"/>
<path d="M136.277 12.4565C136.277 13.4849 136.114 14.4517 135.789 15.3569C135.464 16.2534 134.998 17.04 134.392 17.7168C133.794 18.3936 133.073 18.9297 132.229 19.3252C131.395 19.7119 130.463 19.9053 129.435 19.9053H124.741C123.713 19.9053 122.777 19.7119 121.933 19.3252C121.089 18.9297 120.364 18.3936 119.758 17.7168C119.16 17.04 118.699 16.2534 118.374 15.3569C118.048 14.4517 117.886 13.4849 117.886 12.4565C117.886 11.437 118.048 10.479 118.374 9.58252C118.699 8.68604 119.16 7.90381 119.758 7.23584C120.364 6.55908 121.089 6.02734 121.933 5.64062C122.777 5.25391 123.713 5.06055 124.741 5.06055H129.435C130.463 5.06055 131.395 5.25391 132.229 5.64062C133.073 6.02734 133.794 6.55908 134.392 7.23584C134.998 7.90381 135.464 8.68604 135.789 9.58252C136.114 10.479 136.277 11.437 136.277 12.4565ZM133.574 12.4565C133.574 11.8062 133.478 11.1953 133.284 10.624C133.1 10.0439 132.827 9.54297 132.467 9.12109C132.115 8.69043 131.685 8.35205 131.175 8.10596C130.665 7.85107 130.085 7.72363 129.435 7.72363H124.741C124.091 7.72363 123.506 7.85107 122.988 8.10596C122.478 8.35205 122.043 8.69043 121.683 9.12109C121.331 9.54297 121.059 10.0439 120.865 10.624C120.681 11.1953 120.588 11.8062 120.588 12.4565C120.588 13.1069 120.681 13.7222 120.865 14.3022C121.059 14.8735 121.331 15.3745 121.683 15.8052C122.043 16.2358 122.478 16.5786 122.988 16.8335C123.506 17.0796 124.091 17.2026 124.741 17.2026H129.435C130.085 17.2026 130.665 17.0796 131.175 16.8335C131.685 16.5786 132.115 16.2358 132.467 15.8052C132.827 15.3745 133.1 14.8735 133.284 14.3022C133.478 13.7222 133.574 13.1069 133.574 12.4565Z" stroke="black" stroke-width="2" mask="url(#path-1-outside-1)"/>
<path d="M141.933 19.9053H139.256V5.06055H141.933V19.9053Z" stroke="black" stroke-width="2" mask="url(#path-1-outside-1)"/>
<path d="M159.467 19.9053C159.467 18.9209 159.3 17.9673 158.966 17.0444C158.641 16.1128 158.197 15.2383 157.634 14.4209C157.081 13.5947 156.435 12.8257 155.696 12.1138C154.967 11.4019 154.198 10.769 153.389 10.2153C152.581 9.65283 151.754 9.18262 150.911 8.80469C150.076 8.41797 149.28 8.13232 148.524 7.94775V19.9053H145.822V5.06055H147.285V5.08691C148.252 5.13965 149.28 5.35498 150.37 5.73291C151.469 6.10205 152.559 6.60742 153.64 7.24902C154.729 7.88184 155.775 8.6377 156.777 9.5166C157.788 10.3867 158.685 11.3491 159.467 12.4038V5.06055H162.156V19.9053H159.467Z" stroke="black" stroke-width="2" mask="url(#path-1-outside-1)"/>
</svg>
