<svg width="800" height="500" viewBox="0 0 800 500" fill="none" xmlns="http://www.w3.org/2000/svg">
<g clip-path="url(#clip0)">
<rect x="335" y="19" width="103" height="184" fill="#E9BE97"/>
<path d="M361 257.5H490V398.5H506V478H490H361L361 257.5Z" fill="#E9BE97"/>
<rect x="442" y="12" width="90" height="191" fill="#E9BE97"/>
<rect x="97" y="20" width="234" height="181" fill="#E9BE97"/>
<rect x="97" y="201" width="117" height="112" fill="#E9BE97"/>
<rect x="493" y="257" width="117" height="190" fill="#E9BE97"/>
<rect x="532" y="13" width="85" height="190" fill="#E9BE97"/>
<path fill-rule="evenodd" clip-rule="evenodd" d="M99.4997 65.6849H86.5128V0.917236H452.121V19.6667H448.714V21.3693H441.892V140.681H449.331V151.765H441.892V204.601H438.486V19.6667H334.511V149.208H341.329V204.601H247.583V201.194H331.105V19.6667H99.7313L99.4997 65.6849Z" fill="#434242"/>
<path fill-rule="evenodd" clip-rule="evenodd" d="M85.9895 0.393555H452.645V20.1901H449.238V21.8927H442.416V140.158H449.854V152.288H442.416V205.124H437.962V20.1901H335.035V148.684H341.852V205.124H247.06V200.671H330.582V20.1901H100.253L100.021 66.2084H85.9895V0.393555ZM87.0366 1.44068V65.1613H98.979L99.2107 19.143H331.629V201.718H248.107V204.077H340.805V149.731H333.988V19.143H439.009V204.077H441.369V151.241H448.807V141.205H441.369V20.8456H448.191V19.143H451.598V1.44068H87.0366Z" fill="#2B2A29"/>
<path fill-rule="evenodd" clip-rule="evenodd" d="M102.077 219.945V216.451L113.049 216.533V219.945H102.077Z" fill="#434242"/>
<path fill-rule="evenodd" clip-rule="evenodd" d="M101.553 215.924L113.573 216.013V220.468H101.553V215.924ZM102.6 216.979V219.421H112.525V217.053L102.6 216.979Z" fill="#2B2A29"/>
<path fill-rule="evenodd" clip-rule="evenodd" d="M213.497 216.532H134.234V219.944H172.587V226.761H175.999V219.944H213.497V303.46H175.999V245.51H172.587V313.689H216.903V204.6H226.48V201.194H213.497V216.532Z" fill="#434242"/>
<path fill-rule="evenodd" clip-rule="evenodd" d="M212.973 200.671H227.003V205.124H217.426V314.213H172.063V244.987H176.522V302.937H212.973V220.468H176.522V227.285H172.063V220.468H133.711V216.009H212.973V200.671ZM214.021 201.718V217.056H134.758V219.421H173.111V226.238H175.475V219.421H214.021V303.984H175.475V246.034H173.111V313.166H216.379V204.077H225.956V201.718H214.021Z" fill="#2B2A29"/>
<path fill-rule="evenodd" clip-rule="evenodd" d="M277.082 317.95V313.713L301.273 313.69V317.95H277.082Z" fill="#434242"/>
<path fill-rule="evenodd" clip-rule="evenodd" d="M301.797 313.166V318.473H276.559V313.189L301.797 313.166ZM277.606 314.235V317.426H300.749V314.214L277.606 314.235Z" fill="#2B2A29"/>
<path fill-rule="evenodd" clip-rule="evenodd" d="M360.932 467.049H357.521V255.734H418.033V277.894L415.614 277.577L415.477 258.291H372.864V307.721H415.477V296.644H418.033V307.721H449.563V319.653H438.485V310.278H360.932V467.049Z" fill="#434242"/>
<path fill-rule="evenodd" clip-rule="evenodd" d="M356.997 255.211H418.557V278.492L415.094 278.037L414.957 258.815H373.388V307.198H414.953V296.121H418.557V307.198H450.087V320.177H437.962V310.802H361.456V467.573H356.997V255.211ZM358.045 256.258V466.526H360.409V309.755H439.009V319.13H449.04V308.245H417.51V297.168H416.001V308.245H372.341V257.768H415.997L416.134 277.118L417.51 277.298V256.258H358.045Z" fill="#2B2A29"/>
<path fill-rule="evenodd" clip-rule="evenodd" d="M490.474 398.91V255.734H493.03V396.358H508.368V440.692H505.812V398.91H490.474Z" fill="#434242"/>
<path fill-rule="evenodd" clip-rule="evenodd" d="M489.95 255.211H493.554V395.835H508.892V441.216H505.288V399.434H489.95V255.211ZM490.997 256.258V398.386H506.335V440.169H507.845V396.882H492.507V256.258H490.997Z" fill="#2B2A29"/>
<path fill-rule="evenodd" clip-rule="evenodd" d="M609.786 439.819V255.734H612.342V307.721H621.717V319.653H612.342V343.517H621.717V346.928H612.342V438.965H624.5V458.569H592.739V439.819H609.786Z" fill="#434242"/>
<path fill-rule="evenodd" clip-rule="evenodd" d="M609.262 255.211H612.866V307.198H622.241V320.177H612.866V342.993H622.241V347.452H612.866V438.442H625.024V459.093H592.216V439.296H609.262V255.211ZM610.309 256.258V440.343H593.263V458.045H623.977V439.489H611.819V346.405H621.194V344.041H611.819V319.13H621.194V308.245H611.819V256.258H610.309Z" fill="#2B2A29"/>
<path fill-rule="evenodd" clip-rule="evenodd" d="M541.607 0.917236H509.222V19.6667H528.82V204.601H532.232V19.6667H541.607V0.917236Z" fill="#434242"/>
<path fill-rule="evenodd" clip-rule="evenodd" d="M508.699 0.393555H542.13V20.1901H532.755V205.124H528.297V20.1901H508.699V0.393555ZM509.746 1.44068V19.143H529.344V204.077H531.708V19.143H541.083V1.44068H509.746Z" fill="#2B2A29"/>
<path fill-rule="evenodd" clip-rule="evenodd" d="M598.708 19.6667V0.917236H635.352V19.6667H620.014V140.681H621.717V151.765H620.014V157.728H623.42V160.162H620.014V204.601H615.748V151.765H609.786V140.681H615.748V21.3693H610.64V19.6667H598.708Z" fill="#434242"/>
<path fill-rule="evenodd" clip-rule="evenodd" d="M598.185 0.393555H635.875V20.1901H620.538V140.158H622.241V152.288H620.538V157.204H623.944V160.686H620.538V205.124H615.225V152.288H609.262V140.158H615.225V21.8927H610.116V20.1901H598.185V0.393555ZM599.232 1.44068V19.143H611.163V20.8456H616.272V141.205H610.309V151.241H616.272V204.077H619.491V159.638H622.897V158.251H619.491V151.241H621.193V141.205H619.491V19.143H634.828V1.44068H599.232Z" fill="#2B2A29"/>
<path fill-rule="evenodd" clip-rule="evenodd" d="M713.295 0.523438H681.627V19.3516H697.034V20.3523H701.313V140.877H697.034V150.29H697.887V156.648H646.539V160.069H649.965V160.926H652.533V160.069H697.887V223.035H653.79V180.717H651.221V283.708H653.79V233.307H697.887V306.018H653.744V302.775H651.175L651.409 317.944L653.253 317.95V308.575H698.164L697.887 308.619H696.177V318.891H701.495L701.313 331.307H679.776L679.644 343.034H653.364L653.253 338.594H650.695L650.687 343.034H642.226L642.171 346.879L678.88 346.46L679.059 346.715H701.313L701.345 440.451L681.489 440.416L681.627 467.806H713.295V460.954H715.005V3.94378H713.295V0.523438Z" fill="#434242"/>
<path fill-rule="evenodd" clip-rule="evenodd" d="M681.104 0H713.819V3.42034H715.529V461.478H713.819V468.329H681.106L680.962 439.892L700.821 439.927L700.789 347.239H678.788L678.611 346.987L641.639 347.409L641.71 342.511H650.164L650.172 338.07H653.763L653.875 342.511H679.126L679.259 330.783H700.797L700.964 319.415H695.653V309.099H653.776V318.475L650.894 318.467L650.643 302.252H654.267V305.495H697.364V233.83H654.313V284.231H650.698V180.194H654.313V222.511H697.364V160.592H653.057V161.45H649.441V160.592H646.016V156.124H697.364V150.814H696.511V140.353H700.789V20.8759H696.511V19.8753H681.104V0ZM697.558 19.8288H701.836V141.4H697.558V149.767H698.411V157.172H647.063V159.545H650.488V160.403H652.01V159.545H698.411V223.559H653.266V181.241H651.745V283.184H653.266V232.783H698.411V306.542H653.22V303.299H651.707L651.925 317.422L652.729 317.425V308.052H704.788L697.929 309.143H696.7V318.368H702.026L701.829 331.83H680.294L680.162 343.558H652.854L652.742 339.117H651.217L651.209 343.558H642.742L642.702 346.349L679.15 345.934L679.331 346.191H701.836L701.868 440.976L682.015 440.94L682.148 467.282H712.772V460.431H714.482V4.46747H712.772V1.04713H682.151V18.8282H697.558V19.8288Z" fill="#2B2A29"/>
<path fill-rule="evenodd" clip-rule="evenodd" d="M84.958 244.851V212.768H102.076V244.851H84.958Z" fill="#434242"/>
<path fill-rule="evenodd" clip-rule="evenodd" d="M84.4347 212.245H102.6V245.374H84.4347V212.245ZM85.4818 213.292V244.327H101.553V213.292H85.4818Z" fill="#2B2A29"/>
<path fill-rule="evenodd" clip-rule="evenodd" d="M84.5236 467.805V287.222H102.494V295.779H134.162V313.755H265.101V307.761H273.663V307.742H277.083V319.742H265.101V318.89H101.642V441.232L116.186 441.273V467.805H84.5236Z" fill="#434242"/>
<path fill-rule="evenodd" clip-rule="evenodd" d="M84 286.699H103.018V295.256H134.686V313.231H264.577V307.238H273.14V307.219H277.606V320.266H264.577V319.414H102.166V440.71L116.71 440.751V468.329H84V286.699ZM265.625 319.219H276.559V308.266H274.187V308.285H265.625V314.278H133.639V296.303H101.971V287.746H85.0471V467.282H115.663V441.796L101.118 441.754V318.367H265.625V319.219Z" fill="#2B2A29"/>
<path fill-rule="evenodd" clip-rule="evenodd" d="M261.895 460.16V440.474H292.704V467.864H296.131V486.787L277.302 486.692V460.16H261.895Z" fill="#434242"/>
<path fill-rule="evenodd" clip-rule="evenodd" d="M261.371 439.951H293.228V467.341H296.654V487.314L276.778 487.213V460.684H261.371V439.951ZM262.418 440.998V459.637H277.826V486.171L295.607 486.261V468.388H292.181V440.998H262.418Z" fill="#2B2A29"/>
<path fill-rule="evenodd" clip-rule="evenodd" d="M84.5635 155.075V122.581H99.1014V140.537H102.453L102.52 155.075H84.5635Z" fill="#434242"/>
<path fill-rule="evenodd" clip-rule="evenodd" d="M84.0399 122.058H99.6249V140.014H102.974L103.046 155.599H84.0399V122.058ZM85.087 123.105V154.552H101.994L101.931 141.061H98.5778V123.105H85.087Z" fill="#2B2A29"/>
<path fill-rule="evenodd" clip-rule="evenodd" d="M501.87 467.203V486.016H519.826V459.233H535.222V440.692H505.288V467.203H501.87Z" fill="#434242"/>
<path fill-rule="evenodd" clip-rule="evenodd" d="M504.764 440.168H535.746V459.756H520.35V486.539H501.347V466.679H504.764V440.168ZM505.811 441.216V467.726H502.394V485.492H519.303V458.709H534.699V441.216H505.811Z" fill="#2B2A29"/>
<path fill-rule="evenodd" clip-rule="evenodd" d="M650.207 160.793H653.81V162.696H650.207V160.793Z" fill="#00FFFF"/>
<path fill-rule="evenodd" clip-rule="evenodd" d="M245.753 201.091H247.654V204.694H245.753V201.091Z" fill="#00FFFF"/>
<path fill-rule="evenodd" clip-rule="evenodd" d="M113.118 216.155H115.021V219.758H113.118V216.155Z" fill="#00FFFF"/>
<path fill-rule="evenodd" clip-rule="evenodd" d="M380.584 201.88H382.485V205.485H380.584V201.88Z" fill="#00FFFF"/>
<path fill-rule="evenodd" clip-rule="evenodd" d="M485.62 201.901H487.522V205.505H485.62V201.901Z" fill="#00FFFF"/>
<path fill-rule="evenodd" clip-rule="evenodd" d="M576.098 201.764H577.999V205.369H576.098V201.764Z" fill="#00FFFF"/>
<path fill-rule="evenodd" clip-rule="evenodd" d="M623.375 157.148H625.276V160.751H623.375V157.148Z" fill="#00FFFF"/>
<path fill-rule="evenodd" clip-rule="evenodd" d="M573.287 254.984H575.19V258.588H573.287V254.984Z" fill="#00FFFF"/>
<path fill-rule="evenodd" clip-rule="evenodd" d="M467.78 254.606H469.682V258.209H467.78V254.606Z" fill="#00FFFF"/>
<path fill-rule="evenodd" clip-rule="evenodd" d="M621.25 343.472H623.151V347.077H621.25V343.472Z" fill="#00FFFF"/>
<path fill-rule="evenodd" clip-rule="evenodd" d="M650.038 336.634H653.642V338.535H650.038V336.634Z" fill="#00FFFF"/>
<path fill-rule="evenodd" clip-rule="evenodd" d="M650.279 301.878H653.882V303.779H650.279V301.878Z" fill="#00FFFF"/>
<path fill-rule="evenodd" clip-rule="evenodd" d="M415.093 296.266H418.696V298.167H415.093V296.266Z" fill="#00FFFF"/>
<path fill-rule="evenodd" clip-rule="evenodd" d="M172.393 225.524H175.998V227.425H172.393V225.524Z" fill="#00FFFF"/>
<path fill-rule="evenodd" clip-rule="evenodd" d="M650.207 180.009H653.81V181.909H650.207V180.009Z" fill="#00FFFF"/>
<path fill-rule="evenodd" clip-rule="evenodd" d="M226.538 201.091H228.44V204.694H226.538V201.091Z" fill="#00FFFF"/>
<path fill-rule="evenodd" clip-rule="evenodd" d="M132.333 216.155H134.234V219.758H132.333V216.155Z" fill="#00FFFF"/>
<path fill-rule="evenodd" clip-rule="evenodd" d="M361.369 201.88H363.27V205.485H361.369V201.88Z" fill="#00FFFF"/>
<path fill-rule="evenodd" clip-rule="evenodd" d="M466.406 201.901H468.307V205.505H466.406V201.901Z" fill="#00FFFF"/>
<path fill-rule="evenodd" clip-rule="evenodd" d="M556.883 201.764H558.784V205.369H556.883V201.764Z" fill="#00FFFF"/>
<path fill-rule="evenodd" clip-rule="evenodd" d="M644.682 157.148H646.583V160.751H644.682V157.148Z" fill="#00FFFF"/>
<path fill-rule="evenodd" clip-rule="evenodd" d="M554.074 254.984H555.975V258.588H554.074V254.984Z" fill="#00FFFF"/>
<path fill-rule="evenodd" clip-rule="evenodd" d="M448.566 254.606H450.467V258.209H448.566V254.606Z" fill="#00FFFF"/>
<path fill-rule="evenodd" clip-rule="evenodd" d="M640.465 343.472H642.366V347.077H640.465V343.472Z" fill="#00FFFF"/>
<path fill-rule="evenodd" clip-rule="evenodd" d="M650.038 317.418H653.642V319.32H650.038V317.418Z" fill="#00FFFF"/>
<path fill-rule="evenodd" clip-rule="evenodd" d="M650.279 282.663H653.882V284.564H650.279V282.663Z" fill="#00FFFF"/>
<path fill-rule="evenodd" clip-rule="evenodd" d="M415.093 277.051H418.696V278.952H415.093V277.051Z" fill="#00FFFF"/>
<path fill-rule="evenodd" clip-rule="evenodd" d="M172.393 244.739H175.998V246.64H172.393V244.739Z" fill="#00FFFF"/>
<path fill-rule="evenodd" clip-rule="evenodd" d="M651.508 161.649H653.575L664.178 178.44L662.557 180.057L651.508 161.649ZM660.274 174.219L662.766 178.37L662.845 178.29L660.274 174.219Z" fill="#00FFFF"/>
<path fill-rule="evenodd" clip-rule="evenodd" d="M230.01 190.725L246.8 201.327V203.394L228.393 192.345L230.01 190.725ZM230.16 192.057L230.08 192.137L234.225 194.625L230.16 192.057Z" fill="#00FFFF"/>
<path fill-rule="evenodd" clip-rule="evenodd" d="M130.764 205.788L132.381 207.409L113.973 218.458V216.391L130.764 205.788ZM126.542 209.692L130.693 207.2L130.614 207.121L126.542 209.692Z" fill="#00FFFF"/>
<path fill-rule="evenodd" clip-rule="evenodd" d="M364.842 191.513L381.632 202.115V204.182L363.222 193.133L364.842 191.513ZM364.991 192.845L364.911 192.925L369.083 195.429L364.991 192.845Z" fill="#00FFFF"/>
<path fill-rule="evenodd" clip-rule="evenodd" d="M469.879 191.536L486.668 202.136V204.204L468.258 193.154L469.879 191.536ZM470.027 192.868L469.948 192.947L474.079 195.427L470.027 192.868Z" fill="#00FFFF"/>
<path fill-rule="evenodd" clip-rule="evenodd" d="M560.356 191.398L577.145 201.998V204.066L558.735 193.016L560.356 191.398ZM560.504 192.73L560.425 192.809L564.555 195.288L560.504 192.73Z" fill="#00FFFF"/>
<path fill-rule="evenodd" clip-rule="evenodd" d="M624.229 158.449L642.639 169.499L641.019 171.119L624.229 160.517V158.449ZM636.785 167.207L640.87 169.786L640.95 169.707L636.785 167.207Z" fill="#00FFFF"/>
<path fill-rule="evenodd" clip-rule="evenodd" d="M574.334 256.286V258.353L557.544 268.954L555.927 267.335L574.334 256.286ZM557.615 267.543L557.693 267.621L561.711 265.085L557.615 267.543Z" fill="#00FFFF"/>
<path fill-rule="evenodd" clip-rule="evenodd" d="M468.827 255.907V257.974L452.036 268.576L450.419 266.956L468.827 255.907ZM452.107 267.164L452.186 267.244L456.248 264.679L452.107 267.164Z" fill="#00FFFF"/>
<path fill-rule="evenodd" clip-rule="evenodd" d="M638.893 333.108L640.514 334.725L622.104 345.775V343.708L638.893 333.108ZM634.703 336.992L638.824 334.518L638.746 334.44L634.703 336.992Z" fill="#00FFFF"/>
<path fill-rule="evenodd" clip-rule="evenodd" d="M662.389 319.271L664.007 320.889L653.407 337.681H651.338L662.389 319.271ZM662.597 320.959L660.127 325.074L662.675 321.038L662.597 320.959Z" fill="#00FFFF"/>
<path fill-rule="evenodd" clip-rule="evenodd" d="M662.628 284.518L664.249 286.135L653.646 302.925H651.579L662.628 284.518ZM662.837 286.205L660.348 290.351L662.916 286.285L662.837 286.205Z" fill="#00FFFF"/>
<path fill-rule="evenodd" clip-rule="evenodd" d="M427.443 278.905L429.064 280.521L418.461 297.313H416.394L427.443 278.905ZM427.652 280.592L425.167 284.731L427.731 280.671L427.652 280.592Z" fill="#00FFFF"/>
<path fill-rule="evenodd" clip-rule="evenodd" d="M172.628 226.378H174.697L163.646 244.786L162.028 243.168L172.628 226.378ZM165.912 238.977L163.36 243.019L163.438 243.097L165.912 238.977Z" fill="#00FFFF"/>
<path fill-rule="evenodd" clip-rule="evenodd" d="M663.396 178.924L654.021 181.481L653.745 180.471L663.12 177.913L663.396 178.924Z" fill="#FF0000"/>
<path fill-rule="evenodd" clip-rule="evenodd" d="M230.59 192.378L228.033 201.753L227.022 201.478L229.58 192.103L230.59 192.378Z" fill="#FF0000"/>
<path fill-rule="evenodd" clip-rule="evenodd" d="M131.194 207.167L133.75 216.541L132.739 216.817L130.183 207.442L131.194 207.167Z" fill="#FF0000"/>
<path fill-rule="evenodd" clip-rule="evenodd" d="M365.422 193.167L362.864 202.541L361.854 202.266L364.411 192.891L365.422 193.167Z" fill="#FF0000"/>
<path fill-rule="evenodd" clip-rule="evenodd" d="M470.458 193.188L467.9 202.562L466.89 202.287L469.448 192.912L470.458 193.188Z" fill="#FF0000"/>
<path fill-rule="evenodd" clip-rule="evenodd" d="M560.935 193.05L558.377 202.425L557.367 202.149L559.925 192.775L560.935 193.05Z" fill="#FF0000"/>
<path fill-rule="evenodd" clip-rule="evenodd" d="M641.693 169.464L644.251 160.089L645.261 160.365L642.703 169.74L641.693 169.464Z" fill="#FF0000"/>
<path fill-rule="evenodd" clip-rule="evenodd" d="M557.114 267.577L554.558 258.202L555.568 257.927L558.124 267.301L557.114 267.577Z" fill="#FF0000"/>
<path fill-rule="evenodd" clip-rule="evenodd" d="M451.606 267.198L449.05 257.824L450.061 257.548L452.616 266.923L451.606 267.198Z" fill="#FF0000"/>
<path fill-rule="evenodd" clip-rule="evenodd" d="M639.325 334.483L641.882 343.858L640.872 344.134L638.314 334.759L639.325 334.483Z" fill="#FF0000"/>
<path fill-rule="evenodd" clip-rule="evenodd" d="M662.355 321.469L652.98 318.914L653.256 317.903L662.63 320.459L662.355 321.469Z" fill="#FF0000"/>
<path fill-rule="evenodd" clip-rule="evenodd" d="M662.595 286.715L653.22 284.158L653.496 283.147L662.871 285.705L662.595 286.715Z" fill="#FF0000"/>
<path fill-rule="evenodd" clip-rule="evenodd" d="M163.68 242.589L173.055 245.146L172.78 246.156L163.405 243.599L163.68 242.589Z" fill="#FF0000"/>
<path fill-rule="evenodd" clip-rule="evenodd" d="M669.447 49.1658H648.14V48.1187H669.447V49.1658Z" fill="#212830"/>
<path d="M681.376 19.6862H636.323V19.1936H681.376V19.6862Z" fill="#212830"/>
<path fill-rule="evenodd" clip-rule="evenodd" d="M620.016 83.0605H648.141V84.1077H620.016V83.0605Z" fill="#212830"/>
<path fill-rule="evenodd" clip-rule="evenodd" d="M620.016 76.2439H648.141V77.291H620.016V76.2439Z" fill="#212830"/>
<path fill-rule="evenodd" clip-rule="evenodd" d="M620.016 69.4202H648.141V70.4673H620.016V69.4202Z" fill="#212830"/>
<path fill-rule="evenodd" clip-rule="evenodd" d="M620.016 61.7529H648.141V62.8001H620.016V61.7529Z" fill="#212830"/>
<path fill-rule="evenodd" clip-rule="evenodd" d="M620.016 54.9365H648.141V55.9836H620.016V54.9365Z" fill="#212830"/>
<path fill-rule="evenodd" clip-rule="evenodd" d="M620.016 48.1187H648.141V49.1658H620.016V48.1187Z" fill="#212830"/>
<path fill-rule="evenodd" clip-rule="evenodd" d="M696.715 119.048H669.447V118.001H696.715V119.048Z" fill="#212830"/>
<path fill-rule="evenodd" clip-rule="evenodd" d="M671.149 119.048H669.447V118.001H671.149V119.048Z" fill="#212830"/>
<path fill-rule="evenodd" clip-rule="evenodd" d="M668.924 111.185H696.716V112.232H669.971V123.639H668.924V111.185Z" fill="#212830"/>
<path fill-rule="evenodd" clip-rule="evenodd" d="M668.924 103.512H696.716V104.559H669.971V111.708H668.924V103.512Z" fill="#212830"/>
<path fill-rule="evenodd" clip-rule="evenodd" d="M649.318 121.931V49.491H650.366V121.931H649.318Z" fill="#212830"/>
<path fill-rule="evenodd" clip-rule="evenodd" d="M667.738 122.454H649.842V121.407H667.738V122.454Z" fill="#212830"/>
<path fill-rule="evenodd" clip-rule="evenodd" d="M668.261 92.958V121.93H667.214V92.958H668.261Z" fill="#212830"/>
<path fill-rule="evenodd" clip-rule="evenodd" d="M669.447 93.4819H667.738V92.4348H669.447V93.4819Z" fill="#212830"/>
<path fill-rule="evenodd" clip-rule="evenodd" d="M668.924 96.6946H696.716V97.7417H669.971V104.035H668.924V96.6946Z" fill="#212830"/>
<path fill-rule="evenodd" clip-rule="evenodd" d="M669.971 92.1033V97.2187H668.924V92.1033H669.971Z" fill="#212830"/>
<path fill-rule="evenodd" clip-rule="evenodd" d="M696.716 90.9241H671.149V89.877H696.716V90.9241Z" fill="#212830"/>
<path fill-rule="evenodd" clip-rule="evenodd" d="M668.924 83.0605H678.82V84.1077H669.971V90.4013H668.924V83.0605Z" fill="#212830"/>
<path fill-rule="evenodd" clip-rule="evenodd" d="M696.715 84.1077H681.378V83.0605H696.715V84.1077Z" fill="#212830"/>
<path fill-rule="evenodd" clip-rule="evenodd" d="M668.924 76.2439H689.045V77.291H669.971V83.5843H668.924V76.2439Z" fill="#212830"/>
<path fill-rule="evenodd" clip-rule="evenodd" d="M649.842 48.9678H668.262V90.4017H667.215V50.0149H649.842V48.9678Z" fill="#212830"/>
<path fill-rule="evenodd" clip-rule="evenodd" d="M668.924 69.4202H696.716V70.4673H669.971V76.7668H668.924V69.4202Z" fill="#212830"/>
<path fill-rule="evenodd" clip-rule="evenodd" d="M668.924 61.7529H696.716V62.8001H669.971V69.9435H668.924V61.7529Z" fill="#212830"/>
<path fill-rule="evenodd" clip-rule="evenodd" d="M668.924 54.9365H696.716V55.9836H669.971V62.2773H668.924V54.9365Z" fill="#212830"/>
<path fill-rule="evenodd" clip-rule="evenodd" d="M668.924 48.1187H696.716V49.1658H669.971V55.4594H668.924V48.1187Z" fill="#212830"/>
<path fill-rule="evenodd" clip-rule="evenodd" d="M697.009 71.2313L668.032 90.8348L667.445 89.9675L696.423 70.364L697.009 71.2313Z" fill="#212830"/>
<path fill-rule="evenodd" clip-rule="evenodd" d="M697.009 73.7889L668.032 93.392L667.445 92.5247L696.423 72.9216L697.009 73.7889Z" fill="#212830"/>
<path fill-rule="evenodd" clip-rule="evenodd" d="M620.016 96.6946H648.141V97.7417H620.016V96.6946Z" fill="#212830"/>
<path fill-rule="evenodd" clip-rule="evenodd" d="M620.016 89.877H648.141V90.9241H620.016V89.877Z" fill="#212830"/>
<path fill-rule="evenodd" clip-rule="evenodd" d="M620.016 111.185H648.141V112.232H620.016V111.185Z" fill="#212830"/>
<path fill-rule="evenodd" clip-rule="evenodd" d="M620.016 103.512H648.141V104.559H620.016V103.512Z" fill="#212830"/>
<path fill-rule="evenodd" clip-rule="evenodd" d="M620.016 118.001H648.141V119.048H620.016V118.001Z" fill="#212830"/>
<path fill-rule="evenodd" clip-rule="evenodd" d="M648.664 48.6421V123.638H647.617V48.6421H648.664Z" fill="#212830"/>
<path fill-rule="evenodd" clip-rule="evenodd" d="M696.716 77.291H691.601V76.2439H696.716V77.291Z" fill="#212830"/>
<path fill-rule="evenodd" clip-rule="evenodd" d="M648.14 123.115H669.447V124.162H648.14V123.115Z" fill="#212830"/>
<path fill-rule="evenodd" clip-rule="evenodd" d="M135.091 317.425H205.496V349.152H178.558V348.105H204.448V318.472H135.091V317.425Z" fill="#212830"/>
<path fill-rule="evenodd" clip-rule="evenodd" d="M197.631 438.962V409.136H198.678V438.962H197.631Z" fill="#212830"/>
<path fill-rule="evenodd" clip-rule="evenodd" d="M189.96 438.962V409.136H191.007V438.962H189.96Z" fill="#212830"/>
<path fill-rule="evenodd" clip-rule="evenodd" d="M183.143 438.962V409.136H184.19V438.962H183.143Z" fill="#212830"/>
<path fill-rule="evenodd" clip-rule="evenodd" d="M176.327 438.962V409.136H177.374V438.962H176.327Z" fill="#212830"/>
<path fill-rule="evenodd" clip-rule="evenodd" d="M169.507 438.962V409.136H170.554V438.962H169.507Z" fill="#212830"/>
<path fill-rule="evenodd" clip-rule="evenodd" d="M162.69 438.962V409.136H163.737V438.962H162.69Z" fill="#212830"/>
<path fill-rule="evenodd" clip-rule="evenodd" d="M155.873 438.962V409.136H156.92V438.962H155.873Z" fill="#212830"/>
<path fill-rule="evenodd" clip-rule="evenodd" d="M141.385 438.962V409.136H142.432V438.962H141.385Z" fill="#212830"/>
<path fill-rule="evenodd" clip-rule="evenodd" d="M134.568 438.962V409.136H135.615V438.962H134.568Z" fill="#212830"/>
<path fill-rule="evenodd" clip-rule="evenodd" d="M205.495 317.948V348.628H204.448V317.948H205.495Z" fill="#212830"/>
<path fill-rule="evenodd" clip-rule="evenodd" d="M198.678 317.948V348.628H197.631V317.948H198.678Z" fill="#212830"/>
<path fill-rule="evenodd" clip-rule="evenodd" d="M191.007 317.948V348.628H189.96V317.948H191.007Z" fill="#212830"/>
<path fill-rule="evenodd" clip-rule="evenodd" d="M184.19 317.948V348.628H183.143V317.948H184.19Z" fill="#212830"/>
<path fill-rule="evenodd" clip-rule="evenodd" d="M177.374 317.948V346.071H176.327V317.948H177.374Z" fill="#212830"/>
<path fill-rule="evenodd" clip-rule="evenodd" d="M170.554 338.4V348.629H169.507V338.4H170.554Z" fill="#212830"/>
<path fill-rule="evenodd" clip-rule="evenodd" d="M170.554 317.948V335.842H169.507V317.948H170.554Z" fill="#212830"/>
<path fill-rule="evenodd" clip-rule="evenodd" d="M163.737 328.177V348.628H162.69V328.177H163.737Z" fill="#212830"/>
<path fill-rule="evenodd" clip-rule="evenodd" d="M156.92 317.948V348.628H155.873V317.948H156.92Z" fill="#212830"/>
<path fill-rule="evenodd" clip-rule="evenodd" d="M149.249 317.948V348.628H148.202V317.948H149.249Z" fill="#212830"/>
<path fill-rule="evenodd" clip-rule="evenodd" d="M142.432 317.948V348.628H141.385V317.948H142.432Z" fill="#212830"/>
<path fill-rule="evenodd" clip-rule="evenodd" d="M135.615 317.948V348.628H134.568V317.948H135.615Z" fill="#212830"/>
<path fill-rule="evenodd" clip-rule="evenodd" d="M179.405 349.153H178.557V348.105H205.495V355.97H201.892V354.069H202.746V350.006H179.405V349.153ZM203.794 349.153V354.923H204.448V349.153H203.794Z" fill="#212830"/>
<path fill-rule="evenodd" clip-rule="evenodd" d="M134.568 348.105H176.85V348.959H177.704V350.006H136.469V355.116H134.568V348.105Z" fill="#212830"/>
<path fill-rule="evenodd" clip-rule="evenodd" d="M201.893 400.941H205.496V409.66H134.568V402.649H136.469V406.909H202.747V403.696H201.893V400.941ZM202.94 402.649H203.794V407.956H135.615V408.612H204.448V401.988H202.94V402.649Z" fill="#212830"/>
<path fill-rule="evenodd" clip-rule="evenodd" d="M156.83 317.655L178.137 349.188L177.27 349.775L155.963 318.241L156.83 317.655Z" fill="#212830"/>
<path fill-rule="evenodd" clip-rule="evenodd" d="M158.534 317.655L179.839 349.188L178.971 349.775L157.667 318.241L158.534 317.655Z" fill="#212830"/>
<path fill-rule="evenodd" clip-rule="evenodd" d="M204.448 438.962V409.136H205.495V438.962H204.448Z" fill="#212830"/>
<path fill-rule="evenodd" clip-rule="evenodd" d="M197.631 438.962V409.136H198.678V438.962H197.631Z" fill="#212830"/>
<path fill-rule="evenodd" clip-rule="evenodd" d="M189.96 438.962V409.136H191.007V438.962H189.96Z" fill="#212830"/>
<path fill-rule="evenodd" clip-rule="evenodd" d="M183.143 438.962V409.136H184.19V438.962H183.143Z" fill="#212830"/>
<path fill-rule="evenodd" clip-rule="evenodd" d="M176.327 438.962V410.84H177.374V438.962H176.327Z" fill="#212830"/>
<path fill-rule="evenodd" clip-rule="evenodd" d="M169.507 418.511V409.136H170.554V418.511H169.507Z" fill="#212830"/>
<path fill-rule="evenodd" clip-rule="evenodd" d="M169.507 438.963V421.069H170.554V438.963H169.507Z" fill="#212830"/>
<path fill-rule="evenodd" clip-rule="evenodd" d="M148.202 438.962V409.136H149.249V438.962H148.202Z" fill="#212830"/>
<path fill-rule="evenodd" clip-rule="evenodd" d="M201.892 400.941H205.495V409.66H178.557V408.612H204.448V401.988H202.94V402.649H203.794V407.956H179.405V406.909H202.746V403.696H201.892V400.941Z" fill="#212830"/>
<path fill-rule="evenodd" clip-rule="evenodd" d="M204.972 439.485H105.264V438.438H204.972V439.485Z" fill="#212830"/>
<path fill-rule="evenodd" clip-rule="evenodd" d="M204.448 439.816V438.962H205.495V439.816H204.448Z" fill="#212830"/>
<path fill-rule="evenodd" clip-rule="evenodd" d="M163.737 317.948V325.619H162.69V317.948H163.737Z" fill="#212830"/>
<path fill-rule="evenodd" clip-rule="evenodd" d="M375.75 477.645H423.668V481.25H375.75V477.645ZM376.797 478.692V480.203H422.621V478.692H376.797Z" fill="#3F00FF"/>
<path fill-rule="evenodd" clip-rule="evenodd" d="M375.75 477.645H378.504V481.25H375.75V477.645ZM376.797 478.692V480.203H377.457V478.692H376.797Z" fill="#3F00FF"/>
<path fill-rule="evenodd" clip-rule="evenodd" d="M421.774 477.645H423.669V481.25H421.774V477.645Z" fill="#3F00FF"/>
<path fill-rule="evenodd" clip-rule="evenodd" d="M399.613 477.645H401.513V481.25H399.613V477.645Z" fill="#3F00FF"/>
<path fill-rule="evenodd" clip-rule="evenodd" d="M397.908 477.645H400.659V481.25H397.908V477.645ZM398.956 478.692V480.203H399.612V478.692H398.956Z" fill="#3F00FF"/>
<path fill-rule="evenodd" clip-rule="evenodd" d="M297.346 477.645H344.411V481.25H297.346V477.645ZM298.393 478.692V480.203H343.364V478.692H298.393Z" fill="#3F00FF"/>
<path d="M296.383 480.538H298.725V480.915H296.383L295.859 480.727L296.383 480.538ZM296.383 480.915H295.859V480.727L296.383 480.915ZM296.907 478.169V480.727H295.859V478.169L296.383 477.981L296.907 478.169ZM295.859 478.169V477.981H296.383L295.859 478.169ZM298.725 478.358H296.383V477.981H298.725L299.248 478.169L298.725 478.358ZM298.725 477.981H299.248V478.169L298.725 477.981ZM298.201 480.727V478.169H299.248V480.727L298.725 480.915L298.201 480.727ZM299.248 480.727V480.915H298.725L299.248 480.727Z" fill="#3F00FF"/>
<path fill-rule="evenodd" clip-rule="evenodd" d="M342.516 477.645H344.411V481.25H342.516V477.645Z" fill="#3F00FF"/>
<path fill-rule="evenodd" clip-rule="evenodd" d="M320.355 477.645H322.258V481.25H320.355V477.645Z" fill="#3F00FF"/>
<path fill-rule="evenodd" clip-rule="evenodd" d="M319.501 477.645H321.402V481.25H319.501V477.645Z" fill="#3F00FF"/>
<path fill-rule="evenodd" clip-rule="evenodd" d="M455.011 477.645H502.931V481.25H455.011V477.645ZM456.058 478.692V480.203H501.884V478.692H456.058Z" fill="#3F00FF"/>
<path fill-rule="evenodd" clip-rule="evenodd" d="M455.011 477.645H456.906V481.25H455.011V477.645Z" fill="#3F00FF"/>
<path fill-rule="evenodd" clip-rule="evenodd" d="M500.175 477.645H502.931V481.25H500.175V477.645ZM501.222 478.692V480.203H501.884V478.692H501.222Z" fill="#3F00FF"/>
<path fill-rule="evenodd" clip-rule="evenodd" d="M478.019 477.645H480.77V481.25H478.019V477.645ZM479.066 478.692V480.203H479.723V478.692H479.066Z" fill="#3F00FF"/>
<path fill-rule="evenodd" clip-rule="evenodd" d="M477.166 477.645H479.067V481.25H477.166V477.645Z" fill="#3F00FF"/>
<path fill-rule="evenodd" clip-rule="evenodd" d="M535.122 446.966H593.266V449.715H535.122V446.966ZM536.169 448.013V448.668H592.218V448.013H536.169Z" fill="#3F00FF"/>
<path fill-rule="evenodd" clip-rule="evenodd" d="M535.122 446.966H537.017V449.715H535.122V446.966Z" fill="#3F00FF"/>
<path fill-rule="evenodd" clip-rule="evenodd" d="M590.514 446.966H593.265V449.715H590.514V446.966ZM591.562 448.013V448.668H592.218V448.013H591.562Z" fill="#3F00FF"/>
<path fill-rule="evenodd" clip-rule="evenodd" d="M563.246 446.966H565.995V449.715H563.246V446.966ZM564.293 448.013V448.668H564.948V448.013H564.293Z" fill="#3F00FF"/>
<path fill-rule="evenodd" clip-rule="evenodd" d="M562.39 446.966H564.293V449.715H562.39V446.966Z" fill="#3F00FF"/>
<path fill-rule="evenodd" clip-rule="evenodd" d="M624.602 446.966H682.751V449.715H624.602V446.966ZM625.649 448.013V448.668H681.704V448.013H625.649Z" fill="#3F00FF"/>
<path fill-rule="evenodd" clip-rule="evenodd" d="M680 446.966H682.751V449.715H680V446.966ZM681.047 448.013V448.668H681.704V448.013H681.047Z" fill="#3F00FF"/>
<path fill-rule="evenodd" clip-rule="evenodd" d="M624.602 446.966H626.503V449.715H624.602V446.966Z" fill="#3F00FF"/>
<path fill-rule="evenodd" clip-rule="evenodd" d="M651.876 446.966H653.777V449.715H651.876V446.966Z" fill="#3F00FF"/>
<path fill-rule="evenodd" clip-rule="evenodd" d="M652.73 446.966H655.481V449.715H652.73V446.966ZM653.777 448.013V448.668H654.434V448.013H653.777Z" fill="#3F00FF"/>
<path d="M262.417 448.013H207.53V446.966H262.417L262.93 447.489L262.417 448.013ZM262.417 446.966H262.93V447.489L262.417 446.966ZM261.903 449.191V447.489H262.93V449.191L262.417 449.715L261.903 449.191ZM262.93 449.191V449.715H262.417L262.93 449.191ZM207.53 448.668H262.417V449.715H207.53L207.016 449.191L207.53 448.668ZM207.53 449.715H207.016V449.191L207.53 449.715ZM208.043 447.489V449.191H207.016V447.489L207.53 446.966L208.043 447.489ZM207.016 447.489V446.966H207.53L207.016 447.489Z" fill="#3F00FF"/>
<path fill-rule="evenodd" clip-rule="evenodd" d="M207.006 446.966H208.907V449.715H207.006V446.966Z" fill="#3F00FF"/>
<path fill-rule="evenodd" clip-rule="evenodd" d="M234.282 446.966H236.177V449.715H234.282V446.966Z" fill="#3F00FF"/>
<path fill-rule="evenodd" clip-rule="evenodd" d="M235.13 446.966H237.031V449.715H235.13V446.966Z" fill="#3F00FF"/>
<path fill-rule="evenodd" clip-rule="evenodd" d="M117.52 446.966H174.816V449.715H117.52V446.966ZM118.567 448.013V448.668H173.769V448.013H118.567Z" fill="#3F00FF"/>
<path d="M116.432 449.007H118.9V449.374H116.432L115.909 449.19L116.432 449.007ZM116.432 449.374H115.909V449.19L116.432 449.374ZM116.956 447.489V449.19H115.909V447.489L116.432 447.305L116.956 447.489ZM115.909 447.489V447.305H116.432L115.909 447.489ZM118.9 447.672H116.432V447.305H118.9L119.424 447.489L118.9 447.672ZM118.9 447.305H119.424V447.489L118.9 447.305ZM118.377 449.19V447.489H119.424V449.19L118.9 449.374L118.377 449.19ZM119.424 449.19V449.374H118.9L119.424 449.19Z" fill="#3F00FF"/>
<path fill-rule="evenodd" clip-rule="evenodd" d="M172.919 446.966H174.816V449.715H172.919V446.966Z" fill="#3F00FF"/>
<path fill-rule="evenodd" clip-rule="evenodd" d="M145.645 446.966H147.546V449.715H145.645V446.966Z" fill="#3F00FF"/>
<path fill-rule="evenodd" clip-rule="evenodd" d="M144.797 446.966H146.692V449.715H144.797V446.966Z" fill="#3F00FF"/>
<path fill-rule="evenodd" clip-rule="evenodd" d="M93.6573 154.645H97.262V212.794H93.6573V154.645ZM94.7045 155.692V211.747H96.2149V155.692H94.7045Z" fill="#3F00FF"/>
<path fill-rule="evenodd" clip-rule="evenodd" d="M93.6573 154.645H97.262V157.396H93.6573V154.645ZM94.7045 155.692V156.348H96.2149V155.692H94.7045Z" fill="#3F00FF"/>
<path fill-rule="evenodd" clip-rule="evenodd" d="M93.6573 210.893H97.262V212.794H93.6573V210.893Z" fill="#3F00FF"/>
<path fill-rule="evenodd" clip-rule="evenodd" d="M93.6573 183.622H97.262V185.523H93.6573V183.622Z" fill="#3F00FF"/>
<path fill-rule="evenodd" clip-rule="evenodd" d="M93.6573 182.769H97.262V184.67H93.6573V182.769Z" fill="#3F00FF"/>
<path fill-rule="evenodd" clip-rule="evenodd" d="M93.6573 65.1592H97.262V123.309H93.6573V65.1592ZM94.7045 66.2063V122.262H96.2149V66.2063H94.7045Z" fill="#3F00FF"/>
<path fill-rule="evenodd" clip-rule="evenodd" d="M93.6573 65.1592H97.262V67.9156H93.6573V65.1592ZM94.7045 66.2063V66.8685H96.2149V66.2063H94.7045Z" fill="#3F00FF"/>
<path fill-rule="evenodd" clip-rule="evenodd" d="M93.6573 121.407H97.262V123.308H93.6573V121.407Z" fill="#3F00FF"/>
<path fill-rule="evenodd" clip-rule="evenodd" d="M93.6573 94.137H97.262V96.0381H93.6573V94.137Z" fill="#3F00FF"/>
<path fill-rule="evenodd" clip-rule="evenodd" d="M93.6573 93.2834H97.262V95.1842H93.6573V93.2834Z" fill="#3F00FF"/>
<path fill-rule="evenodd" clip-rule="evenodd" d="M174.622 449.19H175.67V458.042H206.158V449.19H207.205V459.089H174.622V449.19Z" fill="#FF9F7F"/>
<path fill-rule="evenodd" clip-rule="evenodd" d="M93.6573 244.131H97.262V286.936H93.6573V244.131ZM94.7045 245.178V285.889H96.2149V245.178H94.7045Z" fill="#3F00FF"/>
<path fill-rule="evenodd" clip-rule="evenodd" d="M93.6573 244.131H97.262V246.88H93.6573V244.131ZM94.7045 245.178V245.832H96.2149V245.178H94.7045Z" fill="#3F00FF"/>
<path d="M94.5054 285.569V286.937H93.8562V285.569L94.1808 285.045L94.5054 285.569ZM93.8562 285.569V285.045H94.1808L93.8562 285.569ZM96.7383 286.093H94.1808V285.045H96.7383L97.0629 285.569L96.7383 286.093ZM96.7383 285.045H97.0629V285.569L96.7383 285.045ZM96.4137 286.937V285.569H97.0629V286.937L96.7383 287.46L96.4137 286.937ZM97.0629 286.937V287.46H96.7383L97.0629 286.937ZM94.1808 286.413H96.7383V287.46H94.1808L93.8562 286.937L94.1808 286.413ZM94.1808 287.46H93.8562V286.937L94.1808 287.46Z" fill="#3F00FF"/>
<path fill-rule="evenodd" clip-rule="evenodd" d="M93.6573 265.436H97.262V267.338H93.6573V265.436Z" fill="#3F00FF"/>
<path fill-rule="evenodd" clip-rule="evenodd" d="M93.6573 264.583H97.262V266.483H93.6573V264.583Z" fill="#3F00FF"/>
<path fill-rule="evenodd" clip-rule="evenodd" d="M275.384 463.157V498.953H524.039V463.158H682.227V464.205H525.086V500H274.337V464.205L116.188 464.297L116.187 463.25L275.384 463.157Z" fill="#3F007F"/>
<path fill-rule="evenodd" clip-rule="evenodd" d="M696.192 141.534V20.5183H697.239V141.534H696.192Z" fill="#212830"/>
<path fill-rule="evenodd" clip-rule="evenodd" d="M634.831 5.50659H682.751V8.2555H634.831V5.50659ZM635.878 6.55372V7.20838H681.704V6.55372H635.878Z" fill="#3F00FF"/>
<path fill-rule="evenodd" clip-rule="evenodd" d="M634.831 5.50659H636.731V8.2555H634.831V5.50659Z" fill="#3F00FF"/>
<path fill-rule="evenodd" clip-rule="evenodd" d="M680 5.50659H682.751V8.2555H680V5.50659ZM681.047 6.55372V7.20838H681.704V6.55372H681.047Z" fill="#3F00FF"/>
<path fill-rule="evenodd" clip-rule="evenodd" d="M657.84 5.50659H660.596V8.2555H657.84V5.50659ZM658.887 6.55372V7.20838H659.549V6.55372H658.887Z" fill="#3F00FF"/>
<path fill-rule="evenodd" clip-rule="evenodd" d="M656.991 5.50659H658.887V8.2555H656.991V5.50659Z" fill="#3F00FF"/>
<path fill-rule="evenodd" clip-rule="evenodd" d="M451.599 9.76685H509.749V13.3715H451.599V9.76685ZM452.646 10.814V12.3244H508.701V10.814H452.646Z" fill="#3F00FF"/>
<path fill-rule="evenodd" clip-rule="evenodd" d="M451.599 9.76685H453.5V13.3715H451.599V9.76685Z" fill="#3F00FF"/>
<path fill-rule="evenodd" clip-rule="evenodd" d="M506.998 9.76685H509.749V13.3715H506.998V9.76685ZM508.045 10.814V12.3244H508.702V10.814H508.045Z" fill="#3F00FF"/>
<path fill-rule="evenodd" clip-rule="evenodd" d="M479.723 9.76685H481.624V13.3715H479.723V9.76685Z" fill="#3F00FF"/>
<path fill-rule="evenodd" clip-rule="evenodd" d="M478.019 9.76685H480.77V13.3715H478.019V9.76685ZM479.066 10.814V12.3244H479.723V10.814H479.066Z" fill="#3F00FF"/>
<path fill-rule="evenodd" clip-rule="evenodd" d="M541.085 9.76685H599.235V13.3715H541.085V9.76685ZM542.132 10.814V12.3244H598.187V10.814H542.132Z" fill="#3F00FF"/>
<path fill-rule="evenodd" clip-rule="evenodd" d="M596.477 9.76685H599.234V13.3715H596.477V9.76685ZM597.524 10.814V12.3244H598.187V10.814H597.524Z" fill="#3F00FF"/>
<path fill-rule="evenodd" clip-rule="evenodd" d="M541.085 9.76685H542.986V13.3715H541.085V9.76685Z" fill="#3F00FF"/>
<path fill-rule="evenodd" clip-rule="evenodd" d="M569.209 9.76685H571.111V13.3715H569.209V9.76685Z" fill="#3F00FF"/>
<path fill-rule="evenodd" clip-rule="evenodd" d="M570.063 9.76685H571.958V13.3715H570.063V9.76685Z" fill="#3F00FF"/>
<path fill-rule="evenodd" clip-rule="evenodd" d="M311.417 274.531L302.043 277.088L301.767 276.078L311.142 273.521L311.417 274.531Z" fill="#FF0000"/>
<path fill-rule="evenodd" clip-rule="evenodd" d="M300.752 313.687V277.038H301.799V313.687H300.752Z" fill="#0000FF"/>
<path fill-rule="evenodd" clip-rule="evenodd" d="M299.049 313.687V277.038H300.097V313.687H299.049Z" fill="#0000FF"/>
<path fill-rule="evenodd" clip-rule="evenodd" d="M301.275 277.561H299.573V276.514H301.275V277.561Z" fill="#3F00FF"/>
<path fill-rule="evenodd" clip-rule="evenodd" d="M299.049 256.587V204.598H300.097V256.587H299.049Z" fill="#0000FF"/>
<path fill-rule="evenodd" clip-rule="evenodd" d="M300.752 256.587V204.598H301.799V256.587H300.752Z" fill="#0000FF"/>
<path fill-rule="evenodd" clip-rule="evenodd" d="M361.789 205.121H341.332V204.074H361.789V205.121Z" fill="#0000FF"/>
<path d="M438.483 205.1H382.473V204.094H438.483V205.1Z" fill="#0000FF"/>
<path d="M361.89 203.42H341.328V202.373H361.89V203.42Z" fill="#0000FF"/>
<path d="M438.483 203.398H382.473V202.393H438.483V203.398Z" fill="#0000FF"/>
<path fill-rule="evenodd" clip-rule="evenodd" d="M615.751 205.121H577.404V204.074H615.751V205.121Z" fill="#0000FF"/>
<path fill-rule="evenodd" clip-rule="evenodd" d="M615.751 203.42H577.404V202.373H615.751V203.42Z" fill="#0000FF"/>
<path fill-rule="evenodd" clip-rule="evenodd" d="M466.612 205.121H441.894V204.074H466.612V205.121Z" fill="#0000FF"/>
<path fill-rule="evenodd" clip-rule="evenodd" d="M466.612 203.42H441.894V202.373H466.612V203.42Z" fill="#0000FF"/>
<path d="M528.819 205.079H486.995V204.116H528.819V205.079Z" fill="#0000FF"/>
<path d="M528.819 203.378H486.995V202.415H528.819V203.378Z" fill="#0000FF"/>
<path fill-rule="evenodd" clip-rule="evenodd" d="M466.089 204.598V202.896H467.136V204.598H466.089Z" fill="#0000FF"/>
<path fill-rule="evenodd" clip-rule="evenodd" d="M469.168 256.67H490.475V257.717H469.168V256.67Z" fill="#0000FF"/>
<path fill-rule="evenodd" clip-rule="evenodd" d="M469.168 255.208H490.475V256.255H469.168V255.208Z" fill="#0000FF"/>
<path d="M418.032 255.265H448.582V256.197H418.032V255.265Z" fill="#0000FF"/>
<path d="M418.035 256.936H448.541V257.899H418.035V256.936Z" fill="#0000FF"/>
<path fill-rule="evenodd" clip-rule="evenodd" d="M574.846 255.208H609.787V256.255H574.846V255.208Z" fill="#0000FF"/>
<path fill-rule="evenodd" clip-rule="evenodd" d="M493.033 255.208H553.541V256.255H493.033V255.208Z" fill="#0000FF"/>
<path fill-rule="evenodd" clip-rule="evenodd" d="M574.846 256.917L609.903 256.878L609.904 257.926L574.847 257.964L574.846 256.917Z" fill="#0000FF"/>
<path fill-rule="evenodd" clip-rule="evenodd" d="M493.352 256.696L553.543 256.916L553.539 257.963L493.348 257.743L493.352 256.696Z" fill="#0000FF"/>
<path fill-rule="evenodd" clip-rule="evenodd" d="M554.064 255.731V257.44H553.017V255.731H554.064Z" fill="#0000FF"/>
<path fill-rule="evenodd" clip-rule="evenodd" d="M575.37 255.731V257.44H574.323V255.731H575.37Z" fill="#0000FF"/>
<path fill-rule="evenodd" clip-rule="evenodd" d="M275.185 340.434H278.79V343.183H275.185V340.434ZM276.232 341.481V342.135H277.743V341.481H276.232Z" fill="#3F00FF"/>
<path fill-rule="evenodd" clip-rule="evenodd" d="M275.185 319.98H278.79V343.182H275.185V319.98ZM276.232 321.027V342.135H277.743V321.027H276.232Z" fill="#3F00FF"/>
<path fill-rule="evenodd" clip-rule="evenodd" d="M275.185 319.126H278.79V321.027H275.185V319.126Z" fill="#3F00FF"/>
<path fill-rule="evenodd" clip-rule="evenodd" d="M275.185 342.135H278.79V344.038H275.185V342.135Z" fill="#3F00FF"/>
<path fill-rule="evenodd" clip-rule="evenodd" d="M275.185 394.122H278.79V416.476H275.185V394.122ZM276.232 395.169V415.429H277.743V395.169H276.232Z" fill="#3F00FF"/>
<path fill-rule="evenodd" clip-rule="evenodd" d="M275.185 394.122H278.79V396.025H275.185V394.122Z" fill="#3F00FF"/>
<path fill-rule="evenodd" clip-rule="evenodd" d="M275.185 415.429H278.79V417.33H275.185V415.429Z" fill="#3F00FF"/>
<path fill-rule="evenodd" clip-rule="evenodd" d="M275.185 415.429H278.79V438.637H275.185V415.429ZM276.232 416.476V437.59H277.743V416.476H276.232Z" fill="#3F00FF"/>
<path d="M275.52 440.478V438.122H275.897V440.478L275.708 441.001L275.52 440.478ZM275.708 441.001H275.52V440.478L275.708 441.001ZM278.266 441.001H275.708V439.954H278.266L278.455 440.478L278.266 441.001ZM278.455 440.478V441.001H278.266L278.455 440.478ZM278.455 438.122V440.478H278.078V438.122L278.266 437.599L278.455 438.122ZM278.266 437.599H278.455V438.122L278.266 437.599ZM275.708 437.599H278.266V438.646H275.708L275.52 438.122L275.708 437.599ZM275.52 438.122V437.599H275.708L275.52 438.122Z" fill="#3F00FF"/>
<path fill-rule="evenodd" clip-rule="evenodd" d="M275.185 414.581H278.79V416.476H275.185V414.581Z" fill="#3F00FF"/>
<path fill-rule="evenodd" clip-rule="evenodd" d="M653.254 318.472H650.698V317.425H653.254V318.472Z" fill="#A52900"/>
<path d="M557.407 205.058H532.234V204.137H557.407V205.058Z" fill="#0000FF"/>
<path d="M557.407 203.357H532.234V202.435H557.407V203.357Z" fill="#0000FF"/>
<path fill-rule="evenodd" clip-rule="evenodd" d="M276.041 392.421H277.629L278.79 393.581V395.17H275.185V393.274H276.041V392.421ZM277.088 394.122V393.468H277.196L277.743 394.015V394.122H277.088Z" fill="#00FFFF"/>
<path fill-rule="evenodd" clip-rule="evenodd" d="M266.436 375.052L277.224 393.026L275.604 394.641L264.827 376.672L266.436 375.052ZM266.144 376.832L275.813 392.954L275.905 392.862L266.231 376.745L266.144 376.832Z" fill="#00FFFF"/>
<path fill-rule="evenodd" clip-rule="evenodd" d="M275.185 342.135H278.79V364.489H275.185V342.135ZM276.232 343.182V363.442H277.743V343.182H276.232Z" fill="#3F00FF"/>
<path fill-rule="evenodd" clip-rule="evenodd" d="M275.185 363.443H278.79V365.344H275.185V363.443Z" fill="#00FFFF"/>
<path fill-rule="evenodd" clip-rule="evenodd" d="M275.428 364.297H277.49L271.554 374.183L269.921 372.561L275.428 364.297ZM272.467 370.629L271.27 372.425L271.344 372.499L272.467 370.629Z" fill="#00FFFF"/>
<path fill-rule="evenodd" clip-rule="evenodd" d="M266.196 377.101L275.571 374.543L275.846 375.553L266.472 378.111L266.196 377.101Z" fill="#FF0000"/>
<path fill-rule="evenodd" clip-rule="evenodd" d="M275.606 373.854L271.347 373.006L271.551 371.979L275.81 372.827L275.606 373.854Z" fill="#FF0000"/>
<path fill-rule="evenodd" clip-rule="evenodd" d="M135.615 317.948V403.173H134.568V317.948H135.615Z" fill="#212830"/>
<path fill-rule="evenodd" clip-rule="evenodd" d="M105.264 374.525H135.092V375.572H105.264V374.525Z" fill="#212830"/>
<path fill-rule="evenodd" clip-rule="evenodd" d="M105.264 367.708H135.092V368.755H105.264V367.708Z" fill="#212830"/>
<path fill-rule="evenodd" clip-rule="evenodd" d="M105.264 360.885H135.092V361.933H105.264V360.885Z" fill="#212830"/>
<path fill-rule="evenodd" clip-rule="evenodd" d="M105.264 381.342H135.092V382.389H105.264V381.342Z" fill="#212830"/>
<path fill-rule="evenodd" clip-rule="evenodd" d="M105.264 388.161H135.092V389.208H105.264V388.161Z" fill="#212830"/>
<path fill-rule="evenodd" clip-rule="evenodd" d="M105.264 395.832H135.092V396.879H105.264V395.832Z" fill="#212830"/>
<path fill-rule="evenodd" clip-rule="evenodd" d="M105.264 402.649H135.092V403.696H105.264V402.649Z" fill="#212830"/>
<path fill-rule="evenodd" clip-rule="evenodd" d="M105.264 354.068H135.092V355.115H105.264V354.068Z" fill="#212830"/>
<path fill-rule="evenodd" clip-rule="evenodd" d="M104.74 403.173V354.591H105.787V403.173H104.74Z" fill="#212830"/>
<path fill-rule="evenodd" clip-rule="evenodd" d="M648.664 20.5183V48.6425H647.617V20.5183H648.664Z" fill="#212830"/>
<path fill-rule="evenodd" clip-rule="evenodd" d="M655.481 20.5183V48.6425H654.434V20.5183H655.481Z" fill="#212830"/>
<path fill-rule="evenodd" clip-rule="evenodd" d="M663.152 20.5183V48.6425H662.105V20.5183H663.152Z" fill="#212830"/>
<path fill-rule="evenodd" clip-rule="evenodd" d="M669.971 20.5183V48.6425H668.924V20.5183H669.971Z" fill="#212830"/>
<path fill-rule="evenodd" clip-rule="evenodd" d="M174.565 460.102V441.274H207.085V460.102H174.565Z" fill="#434242"/>
<path fill-rule="evenodd" clip-rule="evenodd" d="M174.042 440.75H207.609V460.626H174.042V440.75ZM175.089 441.798V459.579H206.562V441.798H175.089Z" fill="#212830"/>
<path fill-rule="evenodd" clip-rule="evenodd" d="M343.818 485.877V467.049H376.338V485.877H343.818Z" fill="#434242"/>
<path fill-rule="evenodd" clip-rule="evenodd" d="M343.295 466.526H376.862V486.401H343.295V466.526ZM344.342 467.573V485.354H375.815V467.573H344.342Z" fill="#212830"/>
<path fill-rule="evenodd" clip-rule="evenodd" d="M423.078 485.877V467.049H455.598V485.877H423.078Z" fill="#434242"/>
<path fill-rule="evenodd" clip-rule="evenodd" d="M422.554 466.526H456.121V486.401H422.554V466.526ZM423.601 467.573V485.354H455.074V467.573H423.601Z" fill="#212830"/>
<path fill-rule="evenodd" clip-rule="evenodd" d="M417.521 278.62L427.236 278.846L427.212 279.893L417.497 279.666L417.521 278.62Z" fill="#FF0000"/>
<path fill-rule="evenodd" clip-rule="evenodd" d="M301.279 255.86L311.972 272.593L311.093 274.465L299.127 256.64L301.279 255.86ZM300.743 257.168L303.434 261.177L300.848 257.13L300.743 257.168Z" fill="#00FFFF"/>
</g>
<defs>
<clipPath id="clip0">
<rect width="800" height="500" fill="white"/>
</clipPath>
</defs>
</svg>
