<svg width="26" height="26" viewBox="0 0 26 26" fill="none" xmlns="http://www.w3.org/2000/svg">
<path d="M22.1244 6.43378L20.7825 5.51746L19.8662 6.85936L21.2081 7.77568L22.1244 6.43378Z" fill="#1E3E87"/>
<path d="M19.4404 4.5981L18.0985 3.68178L17.1822 5.02368L18.5241 5.94L19.4404 4.5981Z" fill="#1E3E87"/>
<path d="M24.9618 8.37012C24.9533 8.36423 24.9448 8.35834 24.9363 8.35255V8.35092L23.4673 7.3475L22.5508 8.68973L24.0198 9.69234C24.2406 9.84275 24.3734 10.0922 24.3748 10.3594C24.3746 10.5224 24.3244 10.6815 24.231 10.8152C23.9606 11.1797 23.4535 11.2715 23.0724 11.0248L13 4.14717L2.92521 11.0257C2.54491 11.273 2.03782 11.1819 1.76742 10.8177C1.67408 10.6832 1.62442 10.5232 1.62523 10.3594C1.62615 10.0917 1.75899 9.84153 1.98029 9.69076L13 2.16715L15.8437 4.10736L16.7594 2.76595L13 0.203369L1.0638 8.35098C-0.0448326 9.10349 -0.333519 10.6122 0.418995 11.7209C0.424784 11.7294 0.430624 11.7379 0.436565 11.7464C0.902983 12.3864 1.6458 12.7667 2.43772 12.7709V25.7967H23.5623V12.7969C24.3601 12.7926 25.1061 12.4016 25.5635 11.748C26.3301 10.649 26.0607 9.13675 24.9618 8.37012ZM10.5626 24.1717H7.31263V18.4843H10.5626V24.1717ZM21.9374 24.1717H12.1875V16.8593H5.68766V24.1717H4.06269V12.2184L13 6.11496L21.9374 12.2184V24.1717Z" fill="#1E3E87"/>
<path d="M14.625 22.5467H20.3124V16.8593H14.625V22.5467ZM16.25 18.4843H18.6874V20.9217H16.25V18.4843Z" fill="#1E3E87"/>
<path d="M9.75006 11.9844C9.75006 13.7793 11.2051 15.2343 13 15.2343C14.7949 15.2343 16.2499 13.7793 16.2499 11.9844C16.2499 10.1895 14.7949 8.73445 13 8.73445C11.2051 8.73445 9.75006 10.1895 9.75006 11.9844ZM14.625 11.9844C14.625 12.8818 13.8974 13.6094 13 13.6094C12.1026 13.6094 11.375 12.8818 11.375 11.9844C11.375 11.087 12.1026 10.3594 13 10.3594C13.8974 10.3594 14.625 11.0869 14.625 11.9844Z" fill="#1E3E87"/>
</svg>
