<svg width="32" height="21" viewBox="0 0 32 21" fill="none" xmlns="http://www.w3.org/2000/svg">
<path d="M31.3625 0H0.637436C0.285437 0 0 0.285374 0 0.637436V17.4329C0 19.2307 1.4625 20.6932 3.26031 20.6932H28.7397C30.5374 20.6932 32 19.2307 32 17.4329V0.637436C31.9999 0.285374 31.7145 0 31.3625 0ZM30.7251 17.4328C30.7251 18.5276 29.8344 19.4182 28.7397 19.4182H3.26031C2.16556 19.4182 1.27494 18.5275 1.27494 17.4328V2.02818L15.5962 13.7522C15.7137 13.8483 15.8568 13.8963 16 13.8963C16.1429 13.8963 16.2858 13.8484 16.4032 13.7526L27.4848 4.7008C27.7574 4.47805 27.7979 4.07655 27.5753 3.80387C27.3524 3.53118 26.951 3.49068 26.6783 3.71349L16.0004 12.4355L2.36743 1.27487H30.7251V17.4328Z" fill="#1E3E87"/>
<path d="M29.3702 2.33776C29.1475 2.06507 28.7458 2.02457 28.4733 2.24732L28.282 2.40351C28.0094 2.62626 27.9689 3.02776 28.1915 3.30044C28.3175 3.45469 28.5008 3.53463 28.6856 3.53463C28.8274 3.53463 28.9701 3.48751 29.0884 3.39088L29.2797 3.23469C29.5523 3.01201 29.5928 2.61045 29.3702 2.33776Z" fill="#1E3E87"/>
</svg>
