<svg width="26" height="26" viewBox="0 0 26 26" fill="none" xmlns="http://www.w3.org/2000/svg">
<path d="M25.1331 0H7.79979C7.32118 0 6.93311 0.379588 6.93311 0.847839V18.3695C6.93311 18.8377 7.32113 19.2173 7.79979 19.2173H25.1331C25.6117 19.2173 25.9998 18.8377 25.9998 18.3695V0.847789C25.9998 0.379588 25.6118 0 25.1331 0ZM24.2665 6.78256H21.6665C21.1879 6.78256 20.7998 7.16215 20.7998 7.6304C20.7998 8.09865 21.1878 8.47824 21.6665 8.47824H24.2665V17.5217H13.2887V14.9782C13.2887 14.51 12.9006 14.1304 12.422 14.1304C11.9433 14.1304 11.5553 14.51 11.5553 14.9782V17.5217H8.66642V1.69563H11.5553V11.0217C11.5553 11.4899 11.9433 11.8695 12.422 11.8695C12.9006 11.8695 13.2887 11.4899 13.2887 11.0217V8.47819H17.622C18.1006 8.47819 18.4887 8.0986 18.4887 7.63035C18.4887 7.1621 18.1006 6.78251 17.622 6.78251H13.2887V1.69563H24.2664V6.78256H24.2665Z" fill="white"/>
<path d="M25.746 22.8569L24.0128 21.1614C23.6744 20.8303 23.1256 20.8303 22.7872 21.1614C22.4487 21.4925 22.4487 22.0293 22.7872 22.3604L23.041 22.6088H6.42559L6.67943 22.3604C7.01788 22.0294 7.01788 21.4926 6.67948 21.1615C6.34108 20.8304 5.79229 20.8304 5.45384 21.1615L3.72068 22.857C3.37989 23.19 3.38576 23.729 3.72068 24.0563L5.45384 25.7518C5.79224 26.0829 6.34103 26.083 6.67948 25.7518C7.01793 25.4207 7.01793 24.8839 6.67948 24.5528L6.42559 24.3044H23.0409L22.7871 24.5528C22.4487 24.8839 22.4487 25.4207 22.7871 25.7518C23.1255 26.0829 23.6743 26.0829 24.0127 25.7518L25.7459 24.0562C26.0839 23.726 26.0831 23.1864 25.746 22.8569Z" fill="white"/>
<path d="M3.72042 17.77L3.46653 18.0184V2.89467L3.72042 3.14299C4.05882 3.47408 4.60761 3.47413 4.94606 3.14299C5.28451 2.81195 5.28456 2.27509 4.94606 1.944L3.21269 0.248319C2.87429 -0.082773 2.3255 -0.082773 1.98705 0.248319L0.253736 1.94395C-0.0847154 2.27499 -0.0847673 2.81184 0.253736 3.14294C0.592135 3.47403 1.14092 3.47403 1.47938 3.14294L1.73321 2.89462V18.0183L1.47938 17.7699C1.14098 17.4389 0.592187 17.4389 0.253736 17.7699C-0.0847154 18.101 -0.0847673 18.6378 0.253736 18.9689L1.98705 20.6646C2.32545 20.9957 2.87424 20.9957 3.21269 20.6646L4.94601 18.9689C5.28446 18.6379 5.28451 18.101 4.94601 17.7699C4.60766 17.439 4.05887 17.439 3.72042 17.77Z" fill="white"/>
</svg>
