<svg width="16" height="16" viewBox="0 0 16 16" fill="none" xmlns="http://www.w3.org/2000/svg">
<path d="M1.60201 0H14.398C15.2804 0 16 0.717588 16 1.60201V14.398C16 15.2804 15.2804 16 14.398 16H1.60201C0.719599 16 0 15.2804 0 14.398V1.60201C0 0.717588 0.719599 0 1.60201 0ZM8 4.8C6.23719 4.8 4.8 6.23719 4.8 8C4.8 9.7608 6.23719 11.2 8 11.2C9.7608 11.2 11.2 9.76281 11.2 8C11.2 6.23719 9.7608 4.8 8 4.8ZM14 14.398C14.2392 14.398 14.398 14.2372 14.398 14V7.19799H12.7176C12.8 7.4392 12.8 7.7608 12.8 7.99799C12.8 10.6392 10.6392 12.8 8 12.8C5.35879 12.8 3.2 10.6412 3.2 7.99799C3.2 7.7608 3.2 7.4392 3.28241 7.19799H1.60201V13.998C1.60201 14.2352 1.76281 14.396 2 14.396H14V14.398ZM1.60201 3.60201C1.60201 3.8392 1.76281 4 2 4H3.60201C3.84121 4 4 3.8392 4 3.60201V2C4 1.76281 3.8392 1.60201 3.60201 1.60201H2C1.7608 1.60201 1.60201 1.76281 1.60201 2V3.60201Z" fill="#1E3E87"/>
</svg>
