<svg width="122" height="90" viewBox="0 0 122 90" fill="none" xmlns="http://www.w3.org/2000/svg">
<g clip-path="url(#clip0)">
<path fill-rule="evenodd" clip-rule="evenodd" d="M9.65631 86.1799C10.3044 85.7914 10.758 85.241 11.0173 84.4964V82.7806H7.71208C5.73546 82.7806 4.73094 83.4281 4.73094 84.723C4.73094 85.3381 4.99017 85.8237 5.47623 86.2122C5.96228 86.5683 6.64276 86.7626 7.48526 86.7626C8.29535 86.7302 9.04064 86.5683 9.65631 86.1799ZM13.804 74.6547C15.1973 75.8849 15.8778 77.7302 15.8778 80.223V89.7734H11.3413V87.7014C10.434 89.2554 8.7166 90.0324 6.25392 90.0324C4.95777 90.0324 3.85604 89.8058 2.91633 89.3849C1.97663 88.964 1.26375 88.3489 0.745286 87.5719C0.25923 86.795 0 85.9209 0 84.9496C0 83.3957 0.583267 82.1655 1.7498 81.2914C2.91633 80.3849 4.73094 79.964 7.16122 79.964H11.0173C11.0173 78.8957 10.6932 78.0863 10.0452 77.536C9.39708 76.9532 8.42497 76.6942 7.16122 76.6942C6.25392 76.6942 5.37902 76.8237 4.53652 77.1151C3.66162 77.4065 2.94874 77.7626 2.33307 78.2482L0.583267 74.8489C1.49057 74.2014 2.5923 73.7158 3.85604 73.3597C5.11979 73.0036 6.44834 72.8417 7.77689 72.8417C10.434 72.8094 12.4106 73.4245 13.804 74.6547Z" fill="#1E3E87"/>
<path fill-rule="evenodd" clip-rule="evenodd" d="M31.5288 84.7878C32.3389 83.946 32.7277 82.8129 32.7277 81.4209C32.7277 79.9964 32.3389 78.8957 31.5288 78.054C30.7187 77.2122 29.7142 76.7914 28.4829 76.7914C27.2515 76.7914 26.2146 77.2122 25.4045 78.054C24.5944 78.8957 24.2056 80.0288 24.2056 81.4209C24.2056 82.8453 24.5944 83.946 25.4045 84.7878C26.2146 85.6295 27.2515 86.0503 28.4829 86.0503C29.7142 86.018 30.7187 85.5971 31.5288 84.7878ZM37.4911 66.6906V89.741H32.8574V87.8309C31.6584 89.2878 29.9086 90 27.6404 90C26.0526 90 24.6268 89.6439 23.3631 88.9317C22.0993 88.2194 21.0948 87.2158 20.3495 85.9209C19.6366 84.6259 19.2478 83.1043 19.2478 81.3885C19.2478 79.6727 19.6042 78.1511 20.3495 76.8561C21.0624 75.5611 22.0669 74.5576 23.3631 73.8453C24.6268 73.1331 26.0526 72.777 27.6404 72.777C29.779 72.777 31.4316 73.4568 32.6629 74.7842V66.6906H37.4911Z" fill="#1E3E87"/>
<path fill-rule="evenodd" clip-rule="evenodd" d="M50.5498 86.1799C51.1979 85.7914 51.6515 85.241 51.9108 84.4964V82.7806H48.6056C46.629 82.7806 45.6244 83.4281 45.6244 84.723C45.6244 85.3381 45.8837 85.8237 46.3697 86.2122C46.8558 86.5683 47.5363 86.7626 48.3788 86.7626C49.1889 86.7302 49.9341 86.5683 50.5498 86.1799ZM54.6975 74.6547C56.0908 75.8849 56.7713 77.7302 56.7713 80.223V89.7734H52.2348V87.7014C51.3275 89.2554 49.6101 90.0324 47.1474 90.0324C45.8513 90.0324 44.7495 89.8058 43.8098 89.3849C42.8701 88.964 42.1572 88.3489 41.6388 87.5719C41.1527 86.795 40.8935 85.9209 40.8935 84.9496C40.8935 83.3957 41.4768 82.1655 42.6433 81.2914C43.8098 80.3849 45.6244 79.964 48.0547 79.964H51.9108C51.9108 78.8957 51.5867 78.0863 50.9386 77.536C50.2906 76.9532 49.3185 76.6942 48.0547 76.6942C47.1474 76.6942 46.2725 76.8237 45.43 77.1151C44.5551 77.4065 43.8422 77.7626 43.2266 78.2482L41.4768 74.8489C42.3841 74.2014 43.4858 73.7158 44.7495 73.3597C46.0133 73.0036 47.3418 72.8417 48.6704 72.8417C51.3275 72.8094 53.3041 73.4245 54.6975 74.6547Z" fill="#1E3E87"/>
<path d="M66.0388 66.6906H61.1782V89.741H66.0388V66.6906Z" fill="#1E3E87"/>
<path fill-rule="evenodd" clip-rule="evenodd" d="M79.0975 86.1799C79.7456 85.7914 80.1992 85.241 80.4585 84.4964V82.7806H77.1209C75.1443 82.7806 74.1398 83.4281 74.1398 84.723C74.1398 85.3381 74.399 85.8237 74.885 86.2122C75.3711 86.5683 76.0516 86.7626 76.8941 86.7626C77.7366 86.7302 78.4818 86.5683 79.0975 86.1799ZM83.2452 74.6547C84.6385 75.8849 85.319 77.7302 85.319 80.223V89.7734H80.7825V87.7014C79.8752 89.2554 78.1578 90.0324 75.6951 90.0324C74.399 90.0324 73.2973 89.8058 72.3576 89.3849C71.4178 88.964 70.705 88.3489 70.1865 87.5719C69.7005 86.795 69.4412 85.9209 69.4412 84.9496C69.4412 83.3957 70.0245 82.1655 71.191 81.2914C72.3576 80.3849 74.1722 79.964 76.6024 79.964H80.4585C80.4585 78.8957 80.1344 78.0863 79.4864 77.536C78.8383 76.9532 77.8662 76.6942 76.6024 76.6942C75.6951 76.6942 74.8202 76.8237 73.9777 77.1151C73.1028 77.4065 72.39 77.7626 71.7743 78.2482L70.0245 74.8489C70.9318 74.2014 72.0335 73.7158 73.2973 73.3597C74.561 73.0036 75.8896 72.8417 77.2181 72.8417C79.8752 72.8094 81.8518 73.4245 83.2452 74.6547Z" fill="#1E3E87"/>
<path fill-rule="evenodd" clip-rule="evenodd" d="M104.891 74.6547C106.155 75.8849 106.803 77.7302 106.803 80.1906V89.7734H101.942V80.9353C101.942 79.6079 101.65 78.6367 101.067 77.9568C100.484 77.3094 99.6414 76.9856 98.5397 76.9856C97.3084 76.9856 96.3362 77.3741 95.6234 78.1187C94.9105 78.8633 94.5216 79.9964 94.5216 81.4856V89.741H89.6611V73.036H94.2948V74.9784C94.9429 74.2662 95.7206 73.7158 96.6927 73.3597C97.6324 72.9712 98.7017 72.777 99.8358 72.777C101.942 72.8094 103.627 73.4245 104.891 74.6547Z" fill="#1E3E87"/>
<path fill-rule="evenodd" clip-rule="evenodd" d="M122 88.964C121.514 89.3201 120.931 89.5791 120.25 89.741C119.57 89.9029 118.824 90 118.047 90C116.07 90 114.515 89.482 113.413 88.4784C112.311 87.4748 111.793 85.9856 111.793 84.0108V77.1475H109.201V73.4244H111.793V69.3453H116.653V73.4244H120.833V77.1475H116.653V83.946C116.653 84.6583 116.848 85.2086 117.204 85.5647C117.561 85.9532 118.079 86.1475 118.76 86.1475C119.537 86.1475 120.185 85.9532 120.704 85.5324L122 88.964Z" fill="#1E3E87"/>
<path fill-rule="evenodd" clip-rule="evenodd" d="M61.4375 34.5755H60.919C57.9379 34.5755 55.0863 35.0935 52.4616 36.0324L62.1504 11.4604L70.0245 31.1439H79.2271L66.7841 0H57.5166L36.033 54.4532H45.3004C47.5363 47.946 53.7578 43.1547 61.0162 43.1547H61.3403C68.5987 43.1547 74.7878 47.8489 76.9913 54.3561H85.9347C83.5368 43.0575 73.4917 34.5755 61.4375 34.5755Z" fill="#1E3E87"/>
</g>
<defs>
<clipPath id="clip0">
<rect width="122" height="90" fill="white"/>
</clipPath>
</defs>
</svg>
