<svg width="32" height="32" viewBox="0 0 32 32" fill="none" xmlns="http://www.w3.org/2000/svg">
<g clip-path="url(#clip0)">
<path d="M14.0108 12.4451C14.0768 12.907 14.4723 13.2501 14.9388 13.2501H17.0626C17.5292 13.2501 17.9248 12.907 17.9907 12.4451L18.9728 5.57013C19.0536 5.00531 18.6153 4.5 18.0448 4.5H13.9567C13.3862 4.5 12.948 5.00531 13.0286 5.57006L14.0108 12.4451Z" fill="#D11F12"/>
<path d="M9.28134 22.625C7.1464 22.625 5.39084 24.2804 5.23071 26.375H13.332C13.1718 24.2804 11.4163 22.625 9.28134 22.625Z" fill="#D11F12"/>
<path d="M28.563 10.125H20.2159L19.8466 12.7102C19.65 14.0869 18.453 15.125 17.0624 15.125H14.9386C13.548 15.125 12.3511 14.0869 12.1544 12.7102L11.7851 10.125H3.43799C1.54255 10.125 0.000488281 11.6671 0.000488281 13.5625V28.5625C0.000488281 30.4579 1.54255 32 3.43799 32H28.563C30.4584 32 32.0005 30.4579 32.0005 28.5625V13.5625C32.0005 11.6671 30.4584 10.125 28.563 10.125ZM15.2192 27.3125C15.2192 27.8302 14.7995 28.25 14.2817 28.25H4.28174C3.76399 28.25 3.34424 27.8302 3.34424 27.3125V26.6875C3.34424 24.4039 4.6403 22.4176 6.5353 21.4247C5.91318 20.7551 5.53174 19.8589 5.53174 18.875C5.53174 16.8073 7.21399 15.125 9.28174 15.125C11.3495 15.125 13.0317 16.8073 13.0317 18.875C13.0317 19.8589 12.6503 20.7551 12.0282 21.4247C13.9232 22.4176 15.2192 24.4039 15.2192 26.6875V27.3125ZM27.0942 17.625C27.612 17.625 28.0317 18.0448 28.0317 18.5625C28.0317 19.0802 27.612 19.5 27.0942 19.5C26.5765 19.5 26.1567 19.0802 26.1567 18.5625C26.1567 18.0448 26.5765 17.625 27.0942 17.625ZM23.3442 17.625C23.862 17.625 24.2817 18.0448 24.2817 18.5625C24.2817 19.0802 23.862 19.5 23.3442 19.5C22.8265 19.5 22.4067 19.0802 22.4067 18.5625C22.4067 18.0448 22.8265 17.625 23.3442 17.625ZM19.5942 17.625C20.112 17.625 20.5317 18.0448 20.5317 18.5625C20.5317 19.0802 20.112 19.5 19.5942 19.5C19.0765 19.5 18.6567 19.0802 18.6567 18.5625C18.6567 18.0448 19.0765 17.625 19.5942 17.625ZM27.7192 27H18.9692C18.4515 27 18.0317 26.5802 18.0317 26.0625C18.0317 25.5448 18.4515 25.125 18.9692 25.125H27.7192C28.237 25.125 28.6567 25.5448 28.6567 26.0625C28.6567 26.5802 28.237 27 27.7192 27ZM27.7192 23.25H18.9692C18.4515 23.25 18.0317 22.8302 18.0317 22.3125C18.0317 21.7948 18.4515 21.375 18.9692 21.375H27.7192C28.237 21.375 28.6567 21.7948 28.6567 22.3125C28.6567 22.8302 28.237 23.25 27.7192 23.25Z" fill="#D11F12"/>
<path d="M9.28174 20.75C10.3173 20.75 11.1567 19.9105 11.1567 18.875C11.1567 17.8395 10.3173 17 9.28174 17C8.2462 17 7.40674 17.8395 7.40674 18.875C7.40674 19.9105 8.2462 20.75 9.28174 20.75Z" fill="#D11F12"/>
<path d="M11.4255 7.61239L11.1418 5.62646C7.55772 4.75077 4.31253 2.92471 1.66291 0.275082C1.29684 -0.091043 0.703219 -0.091043 0.337094 0.275082C-0.0290312 0.641145 -0.0290312 1.23477 0.337094 1.60089C3.41097 4.67483 7.21922 6.73352 11.4255 7.61239Z" fill="#D11F12"/>
<path d="M31.6631 0.275082C31.2971 -0.091043 30.7035 -0.091043 30.3373 0.275082C27.6876 2.92477 24.4425 4.75077 20.8584 5.62646L20.5747 7.61239C24.781 6.73358 28.5893 4.67483 31.6631 1.60089C32.0293 1.23477 32.0293 0.641145 31.6631 0.275082Z" fill="#D11F12"/>
</g>
<defs>
<clipPath id="clip0">
<rect width="32" height="32" fill="white" transform="translate(0.000488281)"/>
</clipPath>
</defs>
</svg>
