<svg width="32" height="32" viewBox="0 0 32 32" fill="none" xmlns="http://www.w3.org/2000/svg">
<g clip-path="url(#clip0)">
<path d="M31.9548 12.3286C31.8445 11.9892 31.5512 11.7418 31.1981 11.6906L21.278 10.249L16.8414 1.25987C16.6835 0.939866 16.3576 0.737305 16.0008 0.737305C15.6439 0.737305 15.318 0.939866 15.1601 1.25987L10.7234 10.249L0.803409 11.6906C0.450347 11.7418 0.156911 11.9892 0.0466615 12.3286C-0.0636506 12.668 0.0283491 13.0406 0.283911 13.2896L7.46188 20.2867L5.76764 30.1669C5.70726 30.5186 5.85189 30.874 6.14057 31.0838C6.30389 31.2024 6.49732 31.2628 6.6917 31.2628C6.84095 31.2628 6.9907 31.2272 7.12782 31.1551L16.0007 26.4903L24.8733 31.1551C25.1892 31.3211 25.5719 31.2935 25.8606 31.0837C26.1492 30.874 26.2939 30.5185 26.2336 30.1668L24.5388 20.2867L31.7176 13.2896C31.9731 13.0406 32.0652 12.668 31.9548 12.3286Z" fill="#D11F12"/>
</g>
<defs>
<clipPath id="clip0">
<rect width="32" height="32" fill="white" transform="translate(0.000488281)"/>
</clipPath>
</defs>
</svg>
