<svg width="27" height="26" viewBox="0 0 27 26" fill="none" xmlns="http://www.w3.org/2000/svg">
<g clip-path="url(#clip0)">
<path d="M19.5187 0H7.71219C3.86968 0 0.743652 3.12602 0.743652 6.96854V18.7752C0.743652 22.6175 3.86968 25.7435 7.71219 25.7435H19.5188C23.3612 25.7435 26.4872 22.6175 26.4872 18.7752V6.96854C26.4872 3.12602 23.3612 0 19.5187 0V0ZM13.6154 19.9108C9.73401 19.9108 6.57637 16.7532 6.57637 12.8718C6.57637 8.99036 9.73401 5.83272 13.6154 5.83272C17.4968 5.83272 20.6545 8.99036 20.6545 12.8718C20.6545 16.7532 17.4968 19.9108 13.6154 19.9108ZM20.8228 7.49275C19.6758 7.49275 18.7428 6.55982 18.7428 5.4128C18.7428 4.26578 19.6758 3.33264 20.8228 3.33264C21.9698 3.33264 22.903 4.26578 22.903 5.4128C22.903 6.55982 21.9698 7.49275 20.8228 7.49275Z" fill="#D11F12"/>
<path d="M13.6153 7.3418C10.5663 7.3418 8.08545 9.82243 8.08545 12.8717C8.08545 15.9207 10.5663 18.4015 13.6153 18.4015C16.6645 18.4015 19.1452 15.9207 19.1452 12.8717C19.1452 9.82243 16.6645 7.3418 13.6153 7.3418Z" fill="#D11F12"/>
<path d="M20.8227 4.8418C20.5081 4.8418 20.252 5.09791 20.252 5.41256C20.252 5.7272 20.5081 5.98332 20.8227 5.98332C21.1376 5.98332 21.3937 5.7274 21.3937 5.41256C21.3937 5.09772 21.1376 4.8418 20.8227 4.8418Z" fill="#D11F12"/>
</g>
<defs>
<clipPath id="clip0">
<rect width="25.7436" height="25.7436" fill="white" transform="translate(0.743652)"/>
</clipPath>
</defs>
</svg>
