<svg width="32" height="32" viewBox="0 0 32 32" fill="none" xmlns="http://www.w3.org/2000/svg">
<g clip-path="url(#clip0)">
<path d="M32.0005 15.3333C32.0005 14.0206 31.281 12.8867 30.2227 12.2711V3.77833C30.2227 3.29222 29.8349 2 28.4449 2C28.0494 2 27.6566 2.13222 27.3349 2.39L22.611 6.16944C20.2383 8.06611 17.2594 9.11111 14.2227 9.11111H3.55604C1.59216 9.11111 0.000488281 10.7028 0.000488281 12.6667V18C0.000488281 19.9639 1.59216 21.5556 3.55604 21.5556H5.42827C5.35104 22.1378 5.30715 22.73 5.30715 23.3333C5.30715 25.5428 5.8216 27.6306 6.72716 29.4967C7.01549 30.0906 7.64493 30.4444 8.30493 30.4444H12.4316C13.8788 30.4444 14.7477 28.7867 13.8705 27.6356C12.9594 26.44 12.4177 24.9489 12.4177 23.3333C12.4177 22.7161 12.5077 22.1228 12.6627 21.5556H14.2227C17.2594 21.5556 20.2383 22.6006 22.6105 24.4972L27.3344 28.2767C27.6494 28.5288 28.0409 28.6663 28.4444 28.6667C29.8288 28.6667 30.2222 27.4011 30.2222 26.8889V18.3961C31.281 17.78 32.0005 16.6461 32.0005 15.3333ZM26.6672 23.19L24.831 21.7211C21.831 19.3211 18.0627 18 14.2227 18V12.6667C18.0627 12.6667 21.831 11.3456 24.831 8.94556L26.6672 7.47667V23.19Z" fill="#D11F12"/>
</g>
<defs>
<clipPath id="clip0">
<rect width="32" height="32" fill="white" transform="translate(0.000488281)"/>
</clipPath>
</defs>
</svg>
