<svg width="27" height="26" viewBox="0 0 27 26" fill="none" xmlns="http://www.w3.org/2000/svg">
<path d="M13.8491 0H13.8427C6.74551 0 0.974121 5.773 0.974121 12.8718C0.974121 15.6875 1.88158 18.2973 3.42459 20.4163L1.82044 25.1981L6.76804 23.6165C8.80339 24.9648 11.2313 25.7436 13.8491 25.7436C20.9463 25.7436 26.7177 19.969 26.7177 12.8718C26.7177 5.77461 20.9463 0 13.8491 0ZM21.3389 18.1766C21.0284 19.0535 19.7959 19.7807 18.8128 19.9931C18.1403 20.1363 17.2618 20.2506 14.3045 19.0245C10.5218 17.4574 8.08579 13.6135 7.89593 13.3641C7.71411 13.1147 6.3674 11.3288 6.3674 9.48169C6.3674 7.63458 7.30544 6.73517 7.68354 6.34901C7.99408 6.03204 8.50734 5.88724 8.99969 5.88724C9.15897 5.88724 9.30217 5.89528 9.43089 5.90172C9.809 5.91781 9.99886 5.94033 10.2482 6.53726C10.5588 7.28544 11.315 9.13254 11.4051 9.3224C11.4968 9.51226 11.5885 9.76969 11.4598 10.0191C11.3391 10.2765 11.2329 10.3908 11.0431 10.6096C10.8532 10.8284 10.673 10.9957 10.4832 11.2306C10.3094 11.435 10.1131 11.6538 10.3319 12.0319C10.5507 12.402 11.307 13.6361 12.4204 14.6272C13.8572 15.9063 15.0221 16.315 15.4388 16.4888C15.7493 16.6175 16.1194 16.5869 16.3463 16.3456C16.6343 16.035 16.9899 15.5202 17.3519 15.0133C17.6093 14.6497 17.9343 14.6047 18.2754 14.7334C18.623 14.8541 20.462 15.7631 20.8401 15.9514C21.2182 16.1412 21.4676 16.2313 21.5593 16.3906C21.6494 16.5499 21.6494 17.2981 21.3389 18.1766Z" fill="#D11F12"/>
</svg>
