<svg width="24" height="20" viewBox="0 0 24 20" fill="none" xmlns="http://www.w3.org/2000/svg">
<g opacity="0.01">
<path opacity="0.01" d="M24 0H0V20H24V0Z" fill="#E45C52"/>
</g>
<path d="M17.4092 11.164C17.1122 11.164 16.8342 11.246 16.5952 11.385C16.4522 10.624 15.7882 10.047 14.9892 10.047C14.6642 10.047 14.3632 10.144 14.1082 10.307C13.8712 9.693 13.2792 9.259 12.5852 9.259C12.2792 9.259 11.9972 9.344 11.7522 9.489V5.644C11.7532 4.736 11.0212 4 10.1182 4C9.21518 4 8.48218 4.736 8.48218 5.644V13.061L7.90418 12.405C7.30518 11.726 6.27218 11.666 5.59618 12.268C4.92018 12.872 4.85818 13.91 5.45918 14.589L9.02618 18.627C9.74418 19.332 10.9672 20 12.0182 20H15.5312C17.4722 20 19.0462 18.585 19.0462 16.838L19.0442 12.808C19.0442 11.9 18.3122 11.164 17.4092 11.164Z" fill="#E45C52"/>
<path d="M21.354 0.147075C21.284 0.0770753 21.195 0.0290753 21.098 0.0100753C21.001 -0.00992466 20.9 7.53365e-05 20.809 0.0380753C20.718 0.0760753 20.639 0.140075 20.584 0.222075C20.529 0.304075 20.5 0.401075 20.5 0.500075V1.50008C20.5 1.63308 20.448 1.75908 20.354 1.85308C20.26 1.94708 20.133 2.00008 20 2.00008H17C16.735 2.00008 16.48 2.10508 16.293 2.29308C16.105 2.48008 16 2.73508 16 3.00008C16 3.26508 16.106 3.51908 16.293 3.70708C16.48 3.89508 16.735 4.00008 17 4.00008H20C20.133 4.00008 20.26 4.05208 20.354 4.14608C20.447 4.24008 20.5 4.36708 20.5 4.50008V5.50008C20.5 5.59908 20.529 5.69608 20.584 5.77808C20.639 5.86008 20.718 5.92408 20.809 5.96208C20.87 5.98908 20.937 6.00308 21.004 6.00308C21.07 6.00308 21.135 5.99008 21.196 5.96508C21.256 5.94008 21.312 5.90308 21.358 5.85708L23.858 3.35708C23.952 3.26308 24.004 3.13608 24.004 3.00308C24.004 2.87108 23.952 2.74408 23.858 2.65008L21.354 0.147075Z" fill="#E45C52"/>
<path d="M2.65 5.856C2.72 5.926 2.809 5.974 2.906 5.993C3.003 6.013 3.104 6.003 3.195 5.965C3.287 5.927 3.365 5.863 3.42 5.781C3.475 5.699 3.504 5.602 3.504 5.503V4.503C3.504 4.37 3.557 4.243 3.651 4.149C3.745 4.056 3.871 4.003 4.004 4.003H7.004C7.27 4.003 7.524 3.898 7.712 3.71C7.899 3.523 8.004 3.268 8.004 3.003C8.004 2.738 7.9 2.484 7.712 2.296C7.524 2.108 7.269 2.003 7.004 2.003H4.004C3.872 2.003 3.745 1.951 3.651 1.857C3.557 1.763 3.504 1.636 3.504 1.503V0.503C3.504 0.404 3.475 0.307 3.42 0.225C3.365 0.143 3.286 0.079 3.195 0.041C3.134 0.014 3.067 0 3 0C2.935 0 2.87 0.013 2.809 0.038C2.748 0.063 2.693 0.1 2.646 0.146L0.146 2.646C0.053 2.74 0 2.867 0 3C0 3.132 0.052 3.259 0.146 3.353L2.65 5.856Z" fill="#E45C52"/>
</svg>
