<svg width="24" height="24" viewBox="0 0 24 24" fill="none" xmlns="http://www.w3.org/2000/svg">
<path d="M22.2369 7.83992C22.2329 7.77826 22.2211 7.7176 22.1992 7.65401L22.1771 7.59451C22.14 7.51188 22.0937 7.44312 22.0356 7.38493L14.8575 0.206435C14.8 0.149569 14.7319 0.103988 14.6406 0.0623159C14.6261 0.0562054 14.6116 0.0510858 14.5871 0.0429385C14.5223 0.0213041 14.4601 0.00842256 14.3933 0.00539484L14.357 0H9.61479C7.90909 0 6.52206 1.38719 6.52206 3.0929V3.50874H4.84812C3.14324 3.50874 1.7561 4.89659 1.7561 6.60163V20.9073C1.7561 22.6123 3.14329 24 4.84812 24H14.3854C16.0905 24 17.4775 22.6123 17.4775 20.9073V20.4908H19.1508C20.8564 20.4908 22.2435 19.1038 22.2435 17.398V7.88715L22.2369 7.83992ZM12.4643 16.8969H10.0366V19.3245C10.0366 19.6988 9.73326 20.0015 9.35958 20.0015C8.98558 20.0015 8.68259 19.6988 8.68259 19.3245V16.8969H6.25496C5.88096 16.8969 5.57796 16.5941 5.57796 16.2199C5.57796 15.8464 5.8809 15.5429 6.25496 15.5429H8.68259V13.1152C8.68259 12.7417 8.98552 12.4382 9.35958 12.4382C9.73326 12.4382 10.0366 12.7417 10.0366 13.1152V15.5429H12.4643C12.8384 15.5429 13.1412 15.8464 13.1412 16.2199C13.1412 16.5941 12.8384 16.8969 12.4643 16.8969ZM11.9751 10.6872C11.0511 10.6872 10.2992 9.93548 10.2992 9.01142V5.92778L15.0595 10.6872H11.9751ZM16.741 7.17877C15.8171 7.17877 15.0657 6.42691 15.0657 5.50285V2.41887L19.8255 7.1791H16.741V7.17877Z" fill="#D11F12"/>
</svg>
