<svg width="32" height="23" viewBox="0 0 32 23" fill="none" xmlns="http://www.w3.org/2000/svg">
<path d="M4.80049 9.85714C5.43339 9.85714 6.05208 9.66444 6.57831 9.3034C7.10455 8.94236 7.5147 8.4292 7.7569 7.82882C7.9991 7.22843 8.06247 6.56778 7.939 5.93042C7.81553 5.29305 7.51076 4.70759 7.06323 4.24808C6.6157 3.78856 6.04552 3.47563 5.42478 3.34885C4.80404 3.22207 4.16062 3.28714 3.5759 3.53583C2.99118 3.78451 2.49141 4.20565 2.13979 4.74598C1.78817 5.28632 1.60049 5.92158 1.60049 6.57143C1.60128 7.4426 1.93868 8.27786 2.53862 8.89388C3.13857 9.50989 3.95204 9.85633 4.80049 9.85714ZM16.0005 11.5C17.1081 11.5 18.1908 11.1628 19.1117 10.531C20.0326 9.89913 20.7504 9.00111 21.1742 7.95043C21.5981 6.89976 21.709 5.74362 21.4929 4.62823C21.2768 3.51284 20.7435 2.48829 19.9603 1.68414C19.1771 0.879986 18.1793 0.332352 17.093 0.110487C16.0067 -0.111378 14.8807 0.00249138 13.8575 0.437695C12.8342 0.872899 11.9596 1.60989 11.3443 2.55547C10.7289 3.50106 10.4005 4.61276 10.4005 5.75C10.4001 6.50522 10.5447 7.2531 10.826 7.95091C11.1072 8.64871 11.5197 9.28275 12.0398 9.81677C12.5599 10.3508 13.1774 10.7743 13.857 11.0631C14.5366 11.352 15.265 11.5004 16.0005 11.5ZM17.6005 16.4286C17.6005 15.448 17.7965 14.5203 18.105 13.6475C17.4213 13.8534 16.7129 13.96 16.0005 13.9643C14.7705 13.9643 13.6205 13.6562 12.5755 13.1429H12.1605C10.633 13.1433 9.16812 13.7665 8.08799 14.8756C7.00787 15.9846 6.40089 17.4887 6.40049 19.0571V20.5357C6.40049 21.1893 6.65334 21.8161 7.10343 22.2782C7.55352 22.7404 8.16397 23 8.80049 23H20.8505C18.8895 21.5014 17.6005 19.1254 17.6005 16.4286ZM8.65549 12.4549C8.05667 11.8425 7.24567 11.4991 6.40049 11.5H3.20049C2.35204 11.5008 1.53857 11.8472 0.938624 12.4633C0.33868 13.0793 0.00128259 13.9145 0.000488281 14.7857V16.4286C0.000488281 16.8643 0.169059 17.2822 0.469117 17.5902C0.769176 17.8983 1.17614 18.0714 1.60049 18.0714H4.89549C5.04783 16.8976 5.46772 15.7772 6.12105 14.8013C6.77437 13.8254 7.6427 13.0215 8.65549 12.4549ZM25.6005 9.85714C24.3347 9.85714 23.0973 10.2425 22.0448 10.9646C20.9924 11.6867 20.1721 12.713 19.6877 13.9138C19.2033 15.1146 19.0765 16.4359 19.3235 17.7106C19.5704 18.9853 20.1799 20.1562 21.075 21.0753C21.9701 21.9943 23.1104 22.6202 24.3519 22.8737C25.5934 23.1273 26.8802 22.9972 28.0497 22.4998C29.2191 22.0024 30.2187 21.1601 30.9219 20.0795C31.6251 18.9988 32.0005 17.7283 32.0005 16.4286C32.0005 14.6857 31.3262 13.0142 30.126 11.7819C28.9257 10.5495 27.2979 9.85714 25.6005 9.85714ZM28.8005 17.25C28.8005 17.3226 28.7724 17.3922 28.7224 17.4435C28.6725 17.4948 28.6047 17.5236 28.534 17.5236H26.667V19.4406C26.667 19.5132 26.6389 19.5828 26.5889 19.6341C26.539 19.6855 26.4712 19.7143 26.4005 19.7143H24.8005C24.7298 19.7143 24.662 19.6855 24.612 19.6341C24.5621 19.5828 24.534 19.5132 24.534 19.4406V17.5236H22.667C22.5963 17.5236 22.5285 17.4948 22.4785 17.4435C22.4286 17.3922 22.4005 17.3226 22.4005 17.25V15.6071C22.4005 15.5346 22.4286 15.465 22.4785 15.4136C22.5285 15.3623 22.5963 15.3335 22.667 15.3335H24.534V13.4165C24.534 13.3439 24.5621 13.2743 24.612 13.223C24.662 13.1717 24.7298 13.1429 24.8005 13.1429H26.4005C26.4712 13.1429 26.539 13.1717 26.5889 13.223C26.6389 13.2743 26.667 13.3439 26.667 13.4165V15.3335H28.534C28.569 15.3335 28.6036 15.3406 28.636 15.3543C28.6683 15.3681 28.6977 15.3882 28.7224 15.4136C28.7472 15.4391 28.7668 15.4692 28.7802 15.5024C28.7936 15.5356 28.8005 15.5712 28.8005 15.6071V17.25Z" fill="#D11F12"/>
</svg>
