<svg width="32" height="32" viewBox="0 0 32 32" fill="none" xmlns="http://www.w3.org/2000/svg">
<g clip-path="url(#clip0)">
<path d="M24.0005 12.5L23.9727 2.90781C23.9727 2.42656 23.5727 2.03281 23.0838 2.03281L8.87271 2C8.37827 2 7.97271 2.39375 7.97271 2.88594L8.00049 12.5H24.0005ZM0.000488281 19.5V28.25C0.000488281 29.218 0.794933 30 1.77827 30H30.2227C31.206 30 32.0005 29.218 32.0005 28.25V19.5H0.000488281ZM31.9283 17.75C31.9505 17.7227 31.956 17.7117 31.9727 17.6844L28.8894 10.1047C28.6172 9.44297 27.9672 9.00547 27.2394 9.00547H25.7616L25.7727 12.5055L26.6616 14.2555H5.30604L6.19493 12.5055H6.22271L6.2116 9.00547H4.7616C4.03382 9.00547 3.38382 9.44297 3.1116 10.1047L0.0227105 17.6844C0.0393772 17.7117 0.0504883 17.7227 0.067155 17.75H31.9283Z" fill="#D11F12"/>
</g>
<defs>
<clipPath id="clip0">
<rect width="32" height="32" fill="white" transform="translate(0.000488281)"/>
</clipPath>
</defs>
</svg>
