<svg width="24" height="24" viewBox="0 0 24 24" fill="none" xmlns="http://www.w3.org/2000/svg">
<path d="M22.6991 15.4688L17.9371 13.4273C17.5096 13.2456 17.0347 13.2071 16.5835 13.3178C16.1324 13.4285 15.7292 13.6824 15.4344 14.0414L13.9016 15.9164C11.4428 14.5763 9.42179 12.5564 8.08026 10.0983L9.95525 8.56548C10.3143 8.27036 10.5681 7.86695 10.6788 7.41559C10.7895 6.96422 10.7511 6.48915 10.5693 6.06142L8.5312 1.30268C8.33448 0.839565 7.9808 0.460628 7.53233 0.232492C7.08386 0.00435604 6.56933 -0.0583723 6.07919 0.055336L1.66406 1.07299C1.19032 1.1805 0.767346 1.44622 0.464855 1.82634C0.162363 2.20646 -0.00159226 2.67829 1.1657e-05 3.16408C1.1657e-05 14.7075 9.35994 24.0047 20.8386 24C21.3243 24.0014 21.796 23.8374 22.176 23.5348C22.5559 23.2322 22.8214 22.8092 22.9287 22.3355L23.9459 17.9189C24.058 17.4291 23.9946 16.9155 23.7667 16.4678C23.5389 16.02 23.161 15.6664 22.6991 15.4688ZM20.7495 21.7542C10.5506 21.7073 2.29687 13.4531 2.24999 3.24846L6.50106 2.26877L8.47401 6.87283L5.28232 9.48423C7.45683 14.1248 9.88494 16.545 14.5166 18.7186L17.1271 15.5259L21.7297 17.4998L20.7495 21.7542Z" fill="#140302"/>
</svg>
