<svg width="20" height="20" viewBox="0 0 20 20" fill="none" xmlns="http://www.w3.org/2000/svg">
<path d="M18.3333 11H15.1354L16.7361 9.39931C17.7812 8.35417 17.0417 6.55556 15.559 6.55556H13.3368V2.66667C13.3368 1.74653 12.5903 1 11.6701 1H8.33681C7.41667 1 6.67014 1.74653 6.67014 2.66667V6.55556H4.44792C2.96875 6.55556 2.21875 8.35069 3.27083 9.39931L4.87153 11H1.66667C0.746528 11 0 11.7465 0 12.6667V17.1111C0 18.0312 0.746528 18.7778 1.66667 18.7778H18.3333C19.2535 18.7778 20 18.0312 20 17.1111V12.6667C20 11.7465 19.2535 11 18.3333 11ZM4.44444 8.22222H8.33333V2.66667H11.6667V8.22222H15.5556L10 13.7778L4.44444 8.22222ZM18.3333 17.1111H1.66667V12.6667H6.53125L8.81944 14.9549C9.47222 15.6076 10.5243 15.6042 11.1771 14.9549L13.4653 12.6667H18.3333V17.1111ZM15.2778 14.8889C15.2778 14.4271 15.6493 14.0556 16.1111 14.0556C16.5729 14.0556 16.9444 14.4271 16.9444 14.8889C16.9444 15.3507 16.5729 15.7222 16.1111 15.7222C15.6493 15.7222 15.2778 15.3507 15.2778 14.8889Z" fill="#D11F12"/>
</svg>
