<svg width="26" height="22" viewBox="0 0 26 22" fill="none" xmlns="http://www.w3.org/2000/svg">
<path d="M25.9741 2.8893C25.0167 3.30924 23.9966 3.58759 22.9331 3.72275C24.0272 3.0695 24.8623 2.04298 25.2548 0.805676C24.2348 1.41387 23.1085 1.84346 21.9082 2.0832C20.9396 1.05185 19.5591 0.413086 18.0531 0.413086C15.1312 0.413086 12.7789 2.78471 12.7789 5.69213C12.7789 6.11046 12.8143 6.51271 12.9011 6.89564C8.51347 6.68165 4.63101 4.57872 2.02287 1.37525C1.56753 2.16526 1.30044 3.0695 1.30044 4.04293C1.30044 5.87073 2.24169 7.49096 3.64471 8.429C2.79678 8.41291 1.96494 8.16673 1.26021 7.77897C1.26021 7.79506 1.26021 7.81598 1.26021 7.83689C1.26021 10.4016 3.08962 12.5319 5.4886 13.0226C5.059 13.1401 4.59079 13.1964 4.10488 13.1964C3.76699 13.1964 3.42589 13.1771 3.10571 13.1063C3.78952 15.1963 5.72994 16.7329 8.03721 16.7828C6.2416 18.1874 3.96168 19.0337 1.49351 19.0337C1.0607 19.0337 0.645584 19.0144 0.230469 18.9613C2.56831 20.469 5.33896 21.3298 8.32683 21.3298C18.0386 21.3298 23.3482 13.2849 23.3482 6.31159C23.3482 6.07828 23.3402 5.85303 23.3289 5.62938C24.3763 4.88603 25.2565 3.95766 25.9741 2.8893Z" fill="#D11F12"/>
</svg>
