<svg width="32" height="32" viewBox="0 0 32 32" fill="none" xmlns="http://www.w3.org/2000/svg">
<path d="M31.5614 12.4592L30.1472 11.045C29.5614 10.4592 28.6117 10.4592 28.0259 11.045L27.6723 11.3986L20.6012 4.32751L20.9548 3.97395C21.5406 3.38813 21.5406 2.43838 20.9548 1.85263L19.5406 0.438383C18.9548 -0.14743 18.005 -0.14743 17.4193 0.438383L9.64109 8.21657C9.05528 8.80238 9.05528 9.75213 9.64109 10.3379L11.0553 11.7521C11.6411 12.3379 12.5908 12.3379 13.1766 11.7521L13.5302 11.3985L16.005 13.8734L10.94 18.9384L10.5865 18.5848C9.80541 17.8038 8.53909 17.8038 7.75803 18.5848L0.586529 25.7564C-0.194533 26.5375 -0.194533 27.8038 0.586529 28.5849L3.41497 31.4133C4.19603 32.1944 5.46234 32.1944 6.24341 31.4133L13.415 24.2418C14.196 23.4607 14.196 22.1944 13.415 21.4133L13.0614 21.0598L18.1264 15.9948L20.6013 18.4696L20.2477 18.8232C19.6619 19.409 19.6619 20.3588 20.2477 20.9445L21.6619 22.3587C22.2477 22.9445 23.1975 22.9445 23.7832 22.3587L31.5614 14.5805C32.1472 13.9948 32.1472 13.045 31.5614 12.4592Z" fill="#D11F12"/>
</svg>
