<svg width="124" height="92" viewBox="0 0 124 92" fill="none" xmlns="http://www.w3.org/2000/svg">
<g filter="url(#filter0_d)">
<path fill-rule="evenodd" clip-rule="evenodd" d="M60.4384 65.1729C56.4207 68.2032 51.4202 70 46 70C32.7452 70 22 59.2548 22 46C22 32.7452 32.7452 22 46 22C51.4202 22 56.4207 23.7968 60.4384 26.8271C55.2519 31.5803 52 38.4104 52 46C52 53.5896 55.2519 60.4197 60.4384 65.1729ZM62 66.4954C57.5881 69.9444 52.0341 72 46 72C31.6406 72 20 60.3594 20 46C20 31.6406 31.6406 20 46 20C52.0341 20 57.5881 22.0556 62 25.5046C66.4119 22.0556 71.9659 20 78 20C92.3594 20 104 31.6406 104 46C104 60.3594 92.3594 72 78 72C71.9659 72 66.4119 69.9444 62 66.4954ZM63.5616 26.8271C67.5793 23.7968 72.5798 22 78 22C91.2548 22 102 32.7452 102 46C102 59.2548 91.2548 70 78 70C72.5798 70 67.5793 68.2032 63.5616 65.1729C68.7481 60.4197 72 53.5896 72 46C72 38.4104 68.7481 31.5803 63.5616 26.8271ZM62 28.1111C66.91 32.5057 70 38.892 70 46C70 53.108 66.91 59.4943 62 63.8889C57.09 59.4943 54 53.108 54 46C54 38.892 57.09 32.5057 62 28.1111Z" fill="url(#paint0_linear)"/>
</g>
<defs>
<filter id="filter0_d" x="0" y="0" width="124" height="92" filterUnits="userSpaceOnUse" color-interpolation-filters="sRGB">
<feFlood flood-opacity="0" result="BackgroundImageFix"/>
<feColorMatrix in="SourceAlpha" type="matrix" values="0 0 0 0 0 0 0 0 0 0 0 0 0 0 0 0 0 0 127 0"/>
<feOffset/>
<feGaussianBlur stdDeviation="10"/>
<feColorMatrix type="matrix" values="0 0 0 0 0.882353 0 0 0 0 0.286275 0 0 0 0 0.278431 0 0 0 0.6 0"/>
<feBlend mode="normal" in2="BackgroundImageFix" result="effect1_dropShadow"/>
<feBlend mode="normal" in="SourceGraphic" in2="effect1_dropShadow" result="shape"/>
</filter>
<linearGradient id="paint0_linear" x1="62" y1="20" x2="62" y2="88.7143" gradientUnits="userSpaceOnUse">
<stop stop-color="#F55A5A"/>
<stop offset="1" stop-color="#C12E28"/>
</linearGradient>
</defs>
</svg>
