<svg width="48" height="48" viewBox="0 0 48 48" fill="none" xmlns="http://www.w3.org/2000/svg">
<g clip-path="url(#clip0)">
<g filter="url(#filter0_d)">
<path d="M39.1789 21.5391C34.9288 21.5391 30.3579 22.5431 30.3579 24.7467V43.9926C30.3579 46.1962 34.9288 47.2002 39.1789 47.2002C43.4291 47.2002 48 46.1962 48 43.9926V24.7467C48 22.5431 43.4291 21.5391 39.1789 21.5391ZM46.3961 43.9805C46.275 44.4256 43.8701 45.5964 39.1789 45.5964C34.4878 45.5964 32.0828 44.4256 31.9617 43.9926V42.732C33.6682 43.5916 36.4869 43.9926 39.1789 43.9926C41.871 43.9926 44.6905 43.5876 46.3961 42.7312V43.9805ZM46.3961 40.7729C46.275 41.218 43.8701 42.3887 39.1789 42.3887C34.4878 42.3887 32.0828 41.218 31.9617 40.7849V39.5243C33.6682 40.384 36.4869 40.7849 39.1789 40.7849C41.871 40.7849 44.6905 40.38 46.3961 39.5235V40.7729ZM46.3961 37.5652C46.275 38.0103 43.8701 39.1811 39.1789 39.1811C34.4878 39.1811 32.0828 38.0103 31.9617 37.5773V36.3167C33.6682 37.1763 36.4869 37.5773 39.1789 37.5773C41.871 37.5773 44.6905 37.1723 46.3961 36.3159V37.5652ZM46.3961 34.3576C46.275 34.8027 43.8701 35.9735 39.1789 35.9735C34.4878 35.9735 32.0828 34.8027 31.9617 34.3696V33.109C33.6682 33.9687 36.4869 34.3696 39.1789 34.3696C41.871 34.3696 44.6905 33.9647 46.3961 33.1082V34.3576ZM46.3961 31.15C46.275 31.595 43.8701 32.7658 39.1789 32.7658C34.4878 32.7658 32.0828 31.595 31.9617 31.162V29.9014C33.6682 30.757 36.4869 31.162 39.1789 31.162C41.871 31.162 44.6905 30.757 46.3961 29.9006V31.15ZM46.3961 27.9423C46.275 28.3874 43.8701 29.5582 39.1789 29.5582C34.4878 29.5582 32.0828 28.3874 31.9617 27.9543V26.6937C33.6682 27.5494 36.4869 27.9543 39.1789 27.9543C41.871 27.9543 44.6905 27.5494 46.3961 26.6929V27.9423ZM39.1789 26.3505C34.495 26.3505 32.0908 25.1829 31.9617 24.7611V24.7563C32.0908 24.3097 34.495 23.1429 39.1789 23.1429C43.83 23.1429 46.2358 24.2928 46.3961 24.7467C46.2358 25.2006 43.83 26.3505 39.1789 26.3505Z" fill="url(#paint0_linear)"/>
</g>
<g opacity="0.5">
<path d="M40.7844 16.0403H0.687238C0.308135 16.0399 0.000401348 16.3468 3.9239e-07 16.7259V35.9734C-0.000400563 36.3525 0.306531 36.6602 0.685634 36.6606H27.9522C28.3317 36.6606 28.6395 36.3529 28.6395 35.9734C28.6395 35.5939 28.3317 35.2862 27.9522 35.2862H1.37448V17.4148H40.0956V19.1333C40.0952 19.5124 40.4021 19.8201 40.7812 19.8205H40.7828C41.1619 19.8209 41.4696 19.514 41.47 19.1349V16.7275C41.4704 16.3484 41.1635 16.0408 40.7844 16.0403Z" fill="url(#paint1_linear)"/>
<path d="M36.1221 12.8487L4.04566 5.63154C3.86764 5.59175 3.68109 5.62403 3.52682 5.72136C3.37276 5.81949 3.2638 5.97456 3.2237 6.15279L1.61988 13.37C1.53748 13.7407 1.77124 14.1079 2.14192 14.1903C2.51261 14.2727 2.87988 14.039 2.96228 13.6683L4.41614 7.1239L35.8206 14.1895C35.8703 14.2011 35.9211 14.2068 35.9722 14.2064C36.3517 14.2057 36.6588 13.8974 36.6582 13.5179C36.6576 13.1971 36.4351 12.9194 36.1221 12.8487Z" fill="url(#paint2_linear)"/>
<path d="M32.2272 8.87214L12.9813 0.853025C12.6468 0.713593 12.2614 0.856834 12.0992 1.18101L10.4954 4.38865C10.3143 4.72365 10.4389 5.14215 10.774 5.32328C11.109 5.50441 11.5275 5.37971 11.7087 5.04462C11.7158 5.03148 11.7225 5.01805 11.7287 5.00442V5.00602L13.0447 2.37255L31.6963 10.1439C32.0475 10.2904 32.4511 10.1246 32.5977 9.77339C32.7442 9.42235 32.5784 9.01879 32.2272 8.87214Z" fill="url(#paint3_linear)"/>
<path d="M32.7132 19.2479H26.3484C25.9689 19.2479 25.6612 19.5557 25.6612 19.9352C25.6612 20.3147 25.9689 20.6224 26.3484 20.6224H32.7132C33.0927 20.6224 33.4004 20.3147 33.4004 19.9352C33.4004 19.5557 33.0927 19.2479 32.7132 19.2479Z" fill="url(#paint4_linear)"/>
<path d="M19.9331 19.2936C16.0357 19.2936 12.8762 22.453 12.8762 26.3504C12.8802 30.2461 16.0374 33.4033 19.9331 33.4073C23.8304 33.4073 26.9899 30.2478 26.9899 26.3504C26.9899 22.453 23.8304 19.2936 19.9331 19.2936ZM19.9331 32.1242C16.7443 32.1242 14.1593 29.5392 14.1593 26.3504C14.1628 23.1631 16.7458 20.5802 19.9331 20.5767C23.1219 20.5767 25.7068 23.1616 25.7068 26.3504C25.7068 29.5392 23.1219 32.1242 19.9331 32.1242Z" fill="url(#paint5_linear)"/>
<path d="M13.5179 32.0777H7.45622L4.58217 28.9342V23.7218L7.75613 20.6224H13.5179C13.8974 20.6224 14.2051 20.3147 14.2051 19.9352C14.2051 19.5557 13.8974 19.2479 13.5179 19.2479H7.47707C7.29744 19.2475 7.12473 19.3175 6.99592 19.4428L3.41378 22.9367C3.27996 23.0931 3.20659 23.2923 3.20689 23.4981V29.2013C3.20689 29.3728 3.27094 29.5381 3.38652 29.6648L6.64468 33.2285C6.77489 33.371 6.95913 33.4523 7.15229 33.4522H13.5179C13.8974 33.4522 14.2051 33.1445 14.2051 32.765C14.2051 32.3855 13.8975 32.0777 13.5179 32.0777Z" fill="url(#paint6_linear)"/>
<path d="M20.3341 25.5482H19.5322C19.2828 25.5482 19.1312 25.4086 19.1312 25.3477C19.1312 25.2867 19.2828 25.1472 19.5322 25.1472H21.537C21.9798 25.1472 22.3389 24.7881 22.3389 24.3453C22.3389 23.9024 21.9798 23.5434 21.537 23.5434H20.7351C20.7351 23.1005 20.376 22.7415 19.9332 22.7415C19.4903 22.7415 19.1312 23.1005 19.1312 23.5434V23.5795C18.2418 23.7051 17.568 24.4463 17.5274 25.3437C17.5849 26.3951 18.4804 27.2029 19.5322 27.152H20.3341C20.5835 27.152 20.7351 27.2915 20.7351 27.3525C20.7351 27.4134 20.5835 27.5529 20.3341 27.5529H18.3293C17.8865 27.5529 17.5274 27.912 17.5274 28.3548C17.5274 28.7977 17.8865 29.1568 18.3293 29.1568H19.1312C19.1312 29.5996 19.4903 29.9587 19.9332 29.9587C20.376 29.9587 20.7351 29.5996 20.7351 29.1568V29.1207C21.6245 28.9951 22.2983 28.2538 22.3389 27.3565C22.2815 26.3051 21.3859 25.4972 20.3341 25.5482Z" fill="url(#paint7_linear)"/>
</g>
</g>
<defs>
<filter id="filter0_d" x="20.3579" y="11.5391" width="37.642" height="45.6611" filterUnits="userSpaceOnUse" color-interpolation-filters="sRGB">
<feFlood flood-opacity="0" result="BackgroundImageFix"/>
<feColorMatrix in="SourceAlpha" type="matrix" values="0 0 0 0 0 0 0 0 0 0 0 0 0 0 0 0 0 0 127 0"/>
<feOffset/>
<feGaussianBlur stdDeviation="5"/>
<feColorMatrix type="matrix" values="0 0 0 0 0.882353 0 0 0 0 0.286275 0 0 0 0 0.278431 0 0 0 0.5 0"/>
<feBlend mode="normal" in2="BackgroundImageFix" result="effect1_dropShadow"/>
<feBlend mode="normal" in="SourceGraphic" in2="effect1_dropShadow" result="shape"/>
</filter>
<linearGradient id="paint0_linear" x1="39.1789" y1="21.5391" x2="39.1789" y2="55.4484" gradientUnits="userSpaceOnUse">
<stop stop-color="#F55A5A"/>
<stop offset="1" stop-color="#C12E28"/>
</linearGradient>
<linearGradient id="paint1_linear" x1="20.735" y1="0.799805" x2="20.735" y2="48.1873" gradientUnits="userSpaceOnUse">
<stop stop-color="#F55A5A"/>
<stop offset="1" stop-color="#C12E28"/>
</linearGradient>
<linearGradient id="paint2_linear" x1="20.735" y1="0.799805" x2="20.735" y2="48.1873" gradientUnits="userSpaceOnUse">
<stop stop-color="#F55A5A"/>
<stop offset="1" stop-color="#C12E28"/>
</linearGradient>
<linearGradient id="paint3_linear" x1="20.735" y1="0.799805" x2="20.735" y2="48.1873" gradientUnits="userSpaceOnUse">
<stop stop-color="#F55A5A"/>
<stop offset="1" stop-color="#C12E28"/>
</linearGradient>
<linearGradient id="paint4_linear" x1="20.735" y1="0.799805" x2="20.735" y2="48.1873" gradientUnits="userSpaceOnUse">
<stop stop-color="#F55A5A"/>
<stop offset="1" stop-color="#C12E28"/>
</linearGradient>
<linearGradient id="paint5_linear" x1="20.735" y1="0.799805" x2="20.735" y2="48.1873" gradientUnits="userSpaceOnUse">
<stop stop-color="#F55A5A"/>
<stop offset="1" stop-color="#C12E28"/>
</linearGradient>
<linearGradient id="paint6_linear" x1="20.735" y1="0.799805" x2="20.735" y2="48.1873" gradientUnits="userSpaceOnUse">
<stop stop-color="#F55A5A"/>
<stop offset="1" stop-color="#C12E28"/>
</linearGradient>
<linearGradient id="paint7_linear" x1="20.735" y1="0.799805" x2="20.735" y2="48.1873" gradientUnits="userSpaceOnUse">
<stop stop-color="#F55A5A"/>
<stop offset="1" stop-color="#C12E28"/>
</linearGradient>
<clipPath id="clip0">
<rect width="48" height="48" fill="white"/>
</clipPath>
</defs>
</svg>
