<svg width="21" height="22" viewBox="0 0 21 22" fill="none" xmlns="http://www.w3.org/2000/svg">
<g clip-path="url(#clip0)">
<path opacity="0.6" d="M4.1408 18.6268C5.37761 18.6268 6.38024 17.6242 6.38024 16.3874C6.38024 15.1506 5.37761 14.1479 4.1408 14.1479C2.904 14.1479 1.90137 15.1506 1.90137 16.3874C1.90137 17.6242 2.904 18.6268 4.1408 18.6268Z" fill="white"/>
<path opacity="0.3" d="M18.5494 16.6407C19.6228 16.6407 20.493 15.7705 20.493 14.6971C20.493 13.6236 19.6228 12.7534 18.5494 12.7534C17.4759 12.7534 16.6057 13.6236 16.6057 14.6971C16.6057 15.7705 17.4759 16.6407 18.5494 16.6407Z" fill="white"/>
<path opacity="0.1" d="M16.7746 6.83821C17.6613 6.83821 18.3802 6.11935 18.3802 5.23258C18.3802 4.34582 17.6613 3.62695 16.7746 3.62695C15.8878 3.62695 15.1689 4.34582 15.1689 5.23258C15.1689 6.11935 15.8878 6.83821 16.7746 6.83821Z" fill="white"/>
<path opacity="0.7" d="M2.37655 13.1602C3.68908 13.1602 4.7531 12.1221 4.7531 10.8416C4.7531 9.56103 3.68908 8.52295 2.37655 8.52295C1.06402 8.52295 0 9.56103 0 10.8416C0 12.1221 1.06402 13.1602 2.37655 13.1602Z" fill="white"/>
<path opacity="0.5" d="M9.20372 21.5001C10.3969 21.5001 11.3642 20.5575 11.3642 19.3948C11.3642 18.2321 10.3969 17.2896 9.20372 17.2896C8.01051 17.2896 7.04321 18.2321 7.04321 19.3948C7.04321 20.5575 8.01051 21.5001 9.20372 21.5001Z" fill="white"/>
<path opacity="0.4" d="M14.7561 20.578C15.8896 20.578 16.8085 19.6832 16.8085 18.5795C16.8085 17.4758 15.8896 16.5811 14.7561 16.5811C13.6225 16.5811 12.7036 17.4758 12.7036 18.5795C12.7036 19.6832 13.6225 20.578 14.7561 20.578Z" fill="white"/>
<path opacity="0.8" d="M4.94744 7.77574C6.31961 7.77574 7.43198 6.68993 7.43198 5.35051C7.43198 4.0111 6.31961 2.92529 4.94744 2.92529C3.57526 2.92529 2.46289 4.0111 2.46289 5.35051C2.46289 6.68993 3.57526 7.77574 4.94744 7.77574Z" fill="white"/>
<path opacity="0.2" d="M19.1636 11.4495C20.1778 11.4495 21 10.6425 21 9.64709C21 8.65167 20.1778 7.84473 19.1636 7.84473C18.1493 7.84473 17.3271 8.65167 17.3271 9.64709C17.3271 10.6425 18.1493 11.4495 19.1636 11.4495Z" fill="white"/>
<path d="M11.1126 5.73944C12.5595 5.73944 13.7324 4.56655 13.7324 3.11972C13.7324 1.67289 12.5595 0.5 11.1126 0.5C9.66581 0.5 8.49292 1.67289 8.49292 3.11972C8.49292 4.56655 9.66581 5.73944 11.1126 5.73944Z" fill="white"/>
</g>
<defs>
<clipPath id="clip0">
<rect width="21" height="21" fill="white" transform="translate(0 0.5)"/>
</clipPath>
</defs>
</svg>
