<svg width="48" height="48" viewBox="0 0 48 48" fill="none" xmlns="http://www.w3.org/2000/svg">
<g clip-path="url(#clip0)">
<path opacity="0.5" d="M46.665 21C47.025 20.601 47.25 20.0782 47.25 19.5C47.25 18.2595 46.2405 17.25 45 17.25H44.25V5.25H27.75V14.5057C27.1365 14.7 26.5553 14.9948 26.0482 15.4005L23.7367 17.25H17.5605L17.3805 17.07C18.1845 16.7265 18.75 15.9285 18.75 15C18.75 14.2365 18.366 13.5623 17.7825 13.1558L20.25 11.6745V11.25C20.25 9.14325 18.7418 7.36275 16.6642 7.017L16.467 6.984L16.572 6.51075L16.2803 6.21975C16.1048 6.0435 14.5103 4.5 12.75 4.5C10.9897 4.5 9.39525 6.0435 9.21975 6.21975L8.928 6.51075L9.033 6.984L8.83575 7.017C6.75825 7.36275 5.25 9.14325 5.25 11.25V11.6745L7.7175 13.155C7.134 13.5623 6.75 14.2365 6.75 15C6.75 15.9285 7.3155 16.7265 8.1195 17.07L4.2645 20.925C1.998 23.1908 0.75 26.2043 0.75 29.4098V30C0.75 36.6165 6.1335 42 12.75 42C19.3665 42 24.75 36.6165 24.75 30V29.4098C24.75 29.3228 24.7395 29.2373 24.7373 29.1502L25.3597 29.6482C26.0505 30.201 26.88 30.5535 27.75 30.6855V42.75H44.25V30.75H45C46.2405 30.75 47.25 29.7405 47.25 28.5C47.25 27.9217 47.0243 27.399 46.665 27C47.025 26.601 47.25 26.0783 47.25 25.5C47.25 24.9217 47.0243 24.399 46.665 24C47.025 23.601 47.25 23.0783 47.25 22.5C47.25 21.9217 47.0243 21.399 46.665 21ZM45.75 25.5C45.75 25.9132 45.414 26.25 45 26.25H43.5C43.086 26.25 42.75 25.9132 42.75 25.5C42.75 25.0868 43.086 24.75 43.5 24.75H45C45.414 24.75 45.75 25.0868 45.75 25.5ZM38.31 41.25H33.69C33.3592 38.9557 31.5443 37.1408 29.25 36.81V28.7288C30.744 30.8542 33.21 32.25 36 32.25C38.1893 32.25 40.2225 31.4002 41.7525 29.9002C42.0112 30.2227 42.3532 30.4703 42.75 30.612V36.81C40.4557 37.1408 38.6408 38.9557 38.31 41.25ZM29.25 19.9792C29.6798 19.6515 30.063 19.257 30.372 18.7935L30.4012 18.75H33.75C34.848 18.75 35.7998 18.1508 36.3225 17.2687C38.277 17.3602 40.0597 18.2692 41.2808 19.8097C41.3445 20.265 41.541 20.6745 41.835 21.0007C41.475 21.3997 41.25 21.9225 41.25 22.5007C41.25 23.079 41.4757 23.6017 41.835 24.0007C41.475 24.3997 41.25 24.9225 41.25 25.5007C41.25 26.079 41.4757 26.6017 41.835 27.0007C41.541 27.327 41.3445 27.7365 41.2808 28.1917C39.9922 29.8162 38.0812 30.75 36 30.75C32.2778 30.75 29.25 27.7215 29.25 24V19.9792ZM43.5 23.25C43.086 23.25 42.75 22.9132 42.75 22.5C42.75 22.0868 43.086 21.75 43.5 21.75H45C45.414 21.75 45.75 22.0868 45.75 22.5C45.75 22.9132 45.414 23.25 45 23.25H43.5ZM45.75 19.5C45.75 19.9132 45.414 20.25 45 20.25H43.5C43.086 20.25 42.75 19.9132 42.75 19.5C42.75 19.0868 43.086 18.75 43.5 18.75H45C45.414 18.75 45.75 19.0868 45.75 19.5ZM42.75 9.67425C41.283 9.375 40.125 8.217 39.8258 6.75H42.75V9.67425ZM32.1742 6.75C31.875 8.217 30.717 9.375 29.25 9.67425V6.75H32.1742ZM29.25 11.19C31.5443 10.8593 33.3592 9.04425 33.69 6.75H38.31C38.6408 9.04425 40.4557 10.8593 42.75 11.19V17.388C42.3532 17.5297 42.0112 17.7772 41.7525 18.0997C40.398 16.7722 38.649 15.9615 36.7455 15.7927C36.7463 15.7785 36.75 15.765 36.75 15.75C36.75 14.9227 36.0773 14.25 35.25 14.25H29.328C29.3018 14.25 29.2763 14.256 29.25 14.2568V11.19ZM16.5 14.25C16.914 14.25 17.25 14.5868 17.25 15C17.25 15.4132 16.914 15.75 16.5 15.75H9C8.586 15.75 8.25 15.4132 8.25 15C8.25 14.5868 8.586 14.25 9 14.25H16.5ZM16.4183 8.49675C17.6333 8.69925 18.549 9.65625 18.7208 10.8427L15.5422 12.75H15.1852L16.1407 8.45025L16.4183 8.49675ZM12.75 6C13.5262 6 14.4157 6.59475 14.9227 7.01475L13.6485 12.75H11.8523L10.5772 7.01475C11.0842 6.59475 11.9738 6 12.75 6ZM9.08175 8.49675L9.35925 8.45025L10.3148 12.75H9.95775L6.77925 10.8427C6.95175 9.65625 7.86675 8.69925 9.08175 8.49675ZM23.25 30C23.25 35.79 18.54 40.5 12.75 40.5C6.96 40.5 2.25 35.79 2.25 30V29.4098C2.25 26.6048 3.342 23.9678 5.32575 21.9847L10.0605 17.25H15.4395L20.1742 21.9847C22.158 23.9678 23.25 26.6048 23.25 29.4098V30ZM26.2972 28.4775L24.5198 27.0555C24.063 24.747 22.9357 22.6252 21.2347 20.9242L19.0605 18.75H24.2633L26.9865 16.572C27.648 16.0418 28.4805 15.75 29.328 15.75H35.25C35.25 16.5773 34.5773 17.25 33.75 17.25H29.5988L29.124 17.9618C28.482 18.9247 27.4072 19.5 26.25 19.5V21C26.7675 21 27.2708 20.9107 27.75 20.7585V29.1585C27.2227 29.043 26.7218 28.8173 26.2972 28.4775ZM29.25 38.3258C30.717 38.625 31.875 39.783 32.1742 41.25H29.25V38.3258ZM39.8258 41.25C40.125 39.783 41.283 38.625 42.75 38.3258V41.25H39.8258ZM45 29.25H43.5C43.086 29.25 42.75 28.9132 42.75 28.5C42.75 28.0868 43.086 27.75 43.5 27.75H45C45.414 27.75 45.75 28.0868 45.75 28.5C45.75 28.9132 45.414 29.25 45 29.25Z" fill="url(#paint0_linear)"/>
<g filter="url(#filter0_d)">
<path fill-rule="evenodd" clip-rule="evenodd" d="M47.25 19.5C47.25 20.0782 47.025 20.601 46.665 21C47.0243 21.399 47.25 21.9217 47.25 22.5C47.25 23.0783 47.025 23.601 46.665 24C47.0243 24.399 47.25 24.9217 47.25 25.5C47.25 26.0783 47.025 26.601 46.665 27C47.0243 27.399 47.25 27.9217 47.25 28.5C47.25 29.7405 46.2405 30.75 45 30.75H44.25V42.75H27.75V30.6855C26.88 30.5535 26.0505 30.201 25.3597 29.6482L24.7373 29.1502L24.5198 27.0555L26.2972 28.4775C26.7217 28.8173 27.2227 29.043 27.75 29.1585V20.7585C27.2708 20.9107 26.7675 21 26.25 21V19.5C27.4072 19.5 28.482 18.9248 29.124 17.9618L29.5988 17.25H33.75C34.5773 17.25 35.25 16.5772 35.25 15.75H29.328C28.4805 15.75 27.648 16.0418 26.9865 16.572L24.2633 18.75H19.0605L17.5605 17.25H23.7367L26.0482 15.4005C26.5552 14.9948 27.1365 14.7 27.75 14.5057V5.25H44.25V17.25H45C46.2405 17.25 47.25 18.2595 47.25 19.5ZM45 26.25C45.414 26.25 45.75 25.9132 45.75 25.5C45.75 25.0868 45.414 24.75 45 24.75H43.5C43.086 24.75 42.75 25.0868 42.75 25.5C42.75 25.9132 43.086 26.25 43.5 26.25H45ZM29.25 36.81C31.5443 37.1408 33.3592 38.9557 33.69 41.25H38.31C38.6408 38.9557 40.4557 37.1408 42.75 36.81V30.612C42.3532 30.4703 42.0112 30.2227 41.7525 29.9002C40.2225 31.4002 38.1893 32.25 36 32.25C33.21 32.25 30.744 30.8542 29.25 28.7288V36.81ZM30.372 18.7935C30.063 19.257 29.6798 19.6515 29.25 19.9792V24C29.25 27.7215 32.2778 30.75 36 30.75C38.0812 30.75 39.9922 29.8162 41.2808 28.1917C41.3445 27.7365 41.541 27.327 41.835 27.0007C41.4757 26.6017 41.25 26.079 41.25 25.5007C41.25 24.9225 41.475 24.3997 41.835 24.0007C41.4757 23.6017 41.25 23.079 41.25 22.5007C41.25 21.9225 41.475 21.3997 41.835 21.0007C41.541 20.6745 41.3445 20.265 41.2808 19.8097C40.0597 18.2692 38.277 17.3602 36.3225 17.2687C35.7998 18.1507 34.848 18.75 33.75 18.75H30.4012L30.372 18.7935ZM42.75 22.5C42.75 22.9132 43.086 23.25 43.5 23.25H45C45.414 23.25 45.75 22.9132 45.75 22.5C45.75 22.0868 45.414 21.75 45 21.75H43.5C43.086 21.75 42.75 22.0868 42.75 22.5ZM45 20.25C45.414 20.25 45.75 19.9132 45.75 19.5C45.75 19.0868 45.414 18.75 45 18.75H43.5C43.086 18.75 42.75 19.0868 42.75 19.5C42.75 19.9132 43.086 20.25 43.5 20.25H45ZM39.8258 6.75C40.125 8.217 41.283 9.375 42.75 9.67425V6.75H39.8258ZM29.25 9.67425C30.717 9.375 31.875 8.217 32.1742 6.75H29.25V9.67425ZM33.69 6.75C33.3592 9.04425 31.5443 10.8593 29.25 11.19V14.2568C29.2623 14.2564 29.2744 14.2549 29.2865 14.2534C29.3002 14.2517 29.314 14.25 29.328 14.25H35.25C36.0773 14.25 36.75 14.9228 36.75 15.75C36.75 15.7584 36.7488 15.7664 36.7477 15.7742C36.7467 15.7804 36.7458 15.7865 36.7455 15.7927C38.649 15.9615 40.398 16.7722 41.7525 18.0997C42.0112 17.7772 42.3532 17.5298 42.75 17.388V11.19C40.4557 10.8593 38.6408 9.04425 38.31 6.75H33.69ZM32.1742 41.25C31.875 39.783 30.717 38.625 29.25 38.3258V41.25H32.1742ZM42.75 38.3258C41.283 38.625 40.125 39.783 39.8258 41.25H42.75V38.3258ZM42.75 28.5C42.75 28.9132 43.086 29.25 43.5 29.25H45C45.414 29.25 45.75 28.9132 45.75 28.5C45.75 28.0868 45.414 27.75 45 27.75H43.5C43.086 27.75 42.75 28.0868 42.75 28.5Z" fill="url(#paint1_linear)"/>
</g>
<path opacity="0.5" d="M36 26.25C35.586 26.25 35.25 25.9132 35.25 25.5H33.75C33.75 26.4765 34.3792 27.3015 35.25 27.612V29.25H36.75V27.612C37.6207 27.3015 38.25 26.4765 38.25 25.5C38.25 24.2595 37.2405 23.25 36 23.25C35.586 23.25 35.25 22.9132 35.25 22.5C35.25 22.0868 35.586 21.75 36 21.75C36.414 21.75 36.75 22.0868 36.75 22.5H38.25C38.25 21.5235 37.6207 20.6985 36.75 20.388V18.75H35.25V20.388C34.3792 20.6985 33.75 21.5235 33.75 22.5C33.75 23.7405 34.7595 24.75 36 24.75C36.414 24.75 36.75 25.0868 36.75 25.5C36.75 25.9132 36.414 26.25 36 26.25Z" fill="url(#paint2_linear)"/>
<path opacity="0.5" d="M15.4771 36.987L16.0238 38.3835C19.4491 37.0417 21.7501 33.6727 21.7501 30H20.2501C20.2501 33.0607 18.3316 35.8688 15.4771 36.987Z" fill="url(#paint3_linear)"/>
<path opacity="0.5" d="M12.75 37.5005V39.0005C13.299 39.0005 13.8502 38.9502 14.3865 38.8512L14.1143 37.376C13.668 37.4585 13.2082 37.5005 12.75 37.5005Z" fill="url(#paint4_linear)"/>
</g>
<defs>
<filter id="filter0_d" x="-12.4395" y="-24.75" width="89.6895" height="97.5" filterUnits="userSpaceOnUse" color-interpolation-filters="sRGB">
<feFlood flood-opacity="0" result="BackgroundImageFix"/>
<feColorMatrix in="SourceAlpha" type="matrix" values="0 0 0 0 0 0 0 0 0 0 0 0 0 0 0 0 0 0 127 0"/>
<feOffset/>
<feGaussianBlur stdDeviation="15"/>
<feColorMatrix type="matrix" values="0 0 0 0 0.882353 0 0 0 0 0.286275 0 0 0 0 0.278431 0 0 0 0.2 0"/>
<feBlend mode="normal" in2="BackgroundImageFix" result="effect1_dropShadow"/>
<feBlend mode="normal" in="SourceGraphic" in2="effect1_dropShadow" result="shape"/>
</filter>
<linearGradient id="paint0_linear" x1="24" y1="4.5" x2="24" y2="55.0446" gradientUnits="userSpaceOnUse">
<stop stop-color="#F55A5A"/>
<stop offset="1" stop-color="#C12E28"/>
</linearGradient>
<linearGradient id="paint1_linear" x1="24" y1="4.5" x2="24" y2="55.0446" gradientUnits="userSpaceOnUse">
<stop stop-color="#F55A5A"/>
<stop offset="1" stop-color="#C12E28"/>
</linearGradient>
<linearGradient id="paint2_linear" x1="36" y1="18.75" x2="36" y2="32.625" gradientUnits="userSpaceOnUse">
<stop stop-color="#F55A5A"/>
<stop offset="1" stop-color="#C12E28"/>
</linearGradient>
<linearGradient id="paint3_linear" x1="18.6136" y1="30" x2="18.6136" y2="41.0782" gradientUnits="userSpaceOnUse">
<stop stop-color="#F55A5A"/>
<stop offset="1" stop-color="#C12E28"/>
</linearGradient>
<linearGradient id="paint4_linear" x1="13.5682" y1="37.376" x2="13.5682" y2="39.5226" gradientUnits="userSpaceOnUse">
<stop stop-color="#F55A5A"/>
<stop offset="1" stop-color="#C12E28"/>
</linearGradient>
<clipPath id="clip0">
<rect width="48" height="48" fill="white"/>
</clipPath>
</defs>
</svg>
