<svg width="48" height="48" viewBox="0 0 48 48" fill="none" xmlns="http://www.w3.org/2000/svg">
<g clip-path="url(#clip0)">
<g filter="url(#filter0_d)">
<path d="M12 3.75C10.3683 3.75 8.77327 4.23385 7.41656 5.14038C6.05986 6.0469 5.00244 7.33537 4.37801 8.84286C3.75359 10.3504 3.59021 12.0092 3.90854 13.6095C4.22687 15.2098 5.0126 16.6798 6.16639 17.8336C7.32017 18.9874 8.79018 19.7731 10.3905 20.0915C11.9909 20.4098 13.6497 20.2464 15.1572 19.622C16.6646 18.9976 17.9531 17.9402 18.8596 16.5835C19.7662 15.2268 20.25 13.6317 20.25 12C20.2475 9.81273 19.3775 7.71575 17.8309 6.16911C16.2843 4.62247 14.1873 3.75248 12 3.75ZM12 18.75C10.665 18.75 9.35995 18.3541 8.24992 17.6124C7.13989 16.8707 6.27472 15.8165 5.76383 14.5831C5.25294 13.3497 5.11927 11.9925 5.37972 10.6831C5.64017 9.37377 6.28304 8.17103 7.22705 7.22703C8.17105 6.28302 9.37379 5.64015 10.6832 5.3797C11.9925 5.11925 13.3497 5.25292 14.5831 5.76381C15.8165 6.2747 16.8707 7.13987 17.6124 8.2499C18.3541 9.35993 18.75 10.665 18.75 12C18.748 13.7896 18.0361 15.5053 16.7707 16.7707C15.5053 18.0361 13.7896 18.7479 12 18.75Z" fill="url(#paint0_linear)"/>
<path d="M12 0.75C9.77497 0.75 7.59989 1.4098 5.74984 2.64597C3.89979 3.88213 2.45785 5.63914 1.60636 7.69481C0.754875 9.75048 0.532087 12.0125 0.966171 14.1948C1.40025 16.3771 2.47171 18.3816 4.04505 19.955C5.61839 21.5283 7.62295 22.5998 9.80524 23.0338C11.9875 23.4679 14.2495 23.2451 16.3052 22.3936C18.3609 21.5422 20.1179 20.1002 21.354 18.2502C22.5902 16.4001 23.25 14.225 23.25 12C23.2467 9.01733 22.0603 6.15779 19.9513 4.04872C17.8422 1.93966 14.9827 0.753325 12 0.75ZM12 21.75C10.0716 21.75 8.18657 21.1782 6.5832 20.1068C4.97982 19.0355 3.73013 17.5127 2.99218 15.7312C2.25423 13.9496 2.06114 11.9892 2.43735 10.0979C2.81355 8.20656 3.74215 6.46927 5.10571 5.10571C6.46928 3.74215 8.20656 2.81355 10.0979 2.43734C11.9892 2.06114 13.9496 2.25422 15.7312 2.99217C17.5127 3.73013 19.0355 4.97981 20.1068 6.58319C21.1782 8.18657 21.75 10.0716 21.75 12C21.7472 14.585 20.7191 17.0633 18.8912 18.8912C17.0634 20.7191 14.585 21.7472 12 21.75Z" fill="url(#paint1_linear)"/>
<path d="M15.7501 10.5C15.7493 9.90351 15.512 9.33167 15.0902 8.90989C14.6684 8.4881 14.0965 8.25079 13.5001 8.25C13.5001 8.05109 13.421 7.86032 13.2804 7.71967C13.1397 7.57902 12.949 7.5 12.7501 7.5C12.5511 7.5 12.3604 7.57902 12.2197 7.71967C12.0791 7.86032 12.0001 8.05109 12.0001 8.25H11.2501C11.2501 8.05109 11.171 7.86032 11.0304 7.71967C10.8897 7.57902 10.699 7.5 10.5001 7.5C10.3011 7.5 10.1104 7.57902 9.96972 7.71967C9.82907 7.86032 9.75005 8.05109 9.75005 8.25H9.00005C8.80114 8.25 8.61038 8.32902 8.46972 8.46967C8.32907 8.61032 8.25005 8.80109 8.25005 9C8.25005 9.19891 8.32907 9.38968 8.46972 9.53033C8.61038 9.67098 8.80114 9.75 9.00005 9.75V14.25C8.80114 14.25 8.61038 14.329 8.46972 14.4697C8.32907 14.6103 8.25005 14.8011 8.25005 15C8.25005 15.1989 8.32907 15.3897 8.46972 15.5303C8.61038 15.671 8.80114 15.75 9.00005 15.75H9.75005C9.75005 15.9489 9.82907 16.1397 9.96972 16.2803C10.1104 16.421 10.3011 16.5 10.5001 16.5C10.699 16.5 10.8897 16.421 11.0304 16.2803C11.171 16.1397 11.2501 15.9489 11.2501 15.75H12.0066C12.0293 15.9312 12.1174 16.0978 12.2543 16.2186C12.3912 16.3394 12.5675 16.4061 12.7501 16.4061C12.9326 16.4061 13.1089 16.3394 13.2458 16.2186C13.3827 16.0978 13.4708 15.9312 13.4935 15.75H13.5001C13.9345 15.7503 14.3598 15.6247 14.7243 15.3884C15.0889 15.1521 15.3773 14.8153 15.5545 14.4186C15.7317 14.0219 15.7902 13.5824 15.7229 13.1532C15.6556 12.724 15.4655 12.3234 15.1754 12C15.5457 11.5882 15.7505 11.0538 15.7501 10.5ZM13.5001 14.25H10.5001V12.75H13.5001C13.699 12.75 13.8897 12.829 14.0304 12.9697C14.171 13.1103 14.2501 13.3011 14.2501 13.5C14.2501 13.6989 14.171 13.8897 14.0304 14.0303C13.8897 14.171 13.699 14.25 13.5001 14.25ZM13.5001 11.25H10.5001V9.75H13.5001C13.699 9.75 13.8897 9.82902 14.0304 9.96967C14.171 10.1103 14.2501 10.3011 14.2501 10.5C14.2501 10.6989 14.171 10.8897 14.0304 11.0303C13.8897 11.171 13.699 11.25 13.5001 11.25Z" fill="url(#paint2_linear)"/>
</g>
<path opacity="0.5" d="M29.5682 16.4292C29.6973 16.3687 29.8064 16.2727 29.8829 16.1524C29.9594 16.0321 30 15.8925 30 15.75V14.25H33.75V23.25C33.75 23.4489 33.829 23.6397 33.9697 23.7803C34.1103 23.921 34.3011 24 34.5 24H37.5C37.6989 24 37.8897 23.921 38.0303 23.7803C38.171 23.6397 38.25 23.4489 38.25 23.25V10.5C38.25 10.3011 38.171 10.1103 38.0303 9.96966C37.8897 9.829 37.6989 9.74998 37.5 9.74998H30V8.24999C30 8.10744 29.9594 7.96785 29.8829 7.84757C29.8064 7.72728 29.6972 7.63128 29.5681 7.57082C29.439 7.51035 29.2954 7.48793 29.154 7.50616C29.0126 7.5244 28.8794 7.58255 28.7699 7.6738L24.2699 11.4238C24.1854 11.4942 24.1175 11.5823 24.0708 11.6819C24.0242 11.7814 24 11.89 24 12C24 12.1099 24.0242 12.2185 24.0708 12.3181C24.1175 12.4177 24.1854 12.5058 24.2699 12.5762L28.7699 16.3262C28.8794 16.4174 29.0127 16.4756 29.154 16.4938C29.2954 16.5121 29.4391 16.4897 29.5682 16.4292ZM28.5 13.5V14.1487L25.9219 12L28.5 9.85124V10.5C28.5 10.6989 28.579 10.8897 28.7196 11.0303C28.8603 11.171 29.0511 11.25 29.25 11.25H36.75V22.5H35.25V13.5C35.25 13.3011 35.171 13.1103 35.0303 12.9697C34.8897 12.829 34.6989 12.75 34.5 12.75H29.25C29.0511 12.75 28.8603 12.829 28.7196 12.9697C28.579 13.1103 28.5 13.3011 28.5 13.5Z" fill="url(#paint3_linear)"/>
<path opacity="0.5" d="M23.7301 35.4238L19.2301 31.6738C19.1206 31.5826 18.9873 31.5244 18.846 31.5062C18.7046 31.4879 18.5609 31.5104 18.4319 31.5708C18.3028 31.6313 18.1936 31.7273 18.1171 31.8476C18.0406 31.9679 18 32.1075 18 32.25V33.75H14.25V24.75C14.25 24.5511 14.171 24.3603 14.0303 24.2197C13.8897 24.079 13.6989 24 13.5 24H10.5C10.3011 24 10.1103 24.079 9.96967 24.2197C9.82902 24.3603 9.75 24.5511 9.75 24.75V37.5C9.75 37.6989 9.82902 37.8897 9.96967 38.0303C10.1103 38.171 10.3011 38.25 10.5 38.25H18V39.75C18 39.8925 18.0406 40.0321 18.1171 40.1524C18.1936 40.2727 18.3028 40.3687 18.4319 40.4292C18.5609 40.4896 18.7046 40.5121 18.846 40.4938C18.9873 40.4756 19.1206 40.4174 19.2301 40.3262L23.7301 36.5762C23.8146 36.5058 23.8825 36.4177 23.9292 36.3181C23.9758 36.2186 24 36.11 24 36C24 35.89 23.9758 35.7814 23.9292 35.6819C23.8825 35.5823 23.8146 35.4942 23.7301 35.4238ZM19.5 38.1488V37.5C19.5 37.3011 19.421 37.1103 19.2803 36.9697C19.1397 36.829 18.9489 36.75 18.75 36.75H11.25V25.5H12.75V34.5C12.75 34.6989 12.829 34.8897 12.9697 35.0303C13.1103 35.171 13.3011 35.25 13.5 35.25H18.75C18.9489 35.25 19.1397 35.171 19.2803 35.0303C19.421 34.8897 19.5 34.6989 19.5 34.5V33.8512L22.0781 36L19.5 38.1488Z" fill="url(#paint4_linear)"/>
<g filter="url(#filter1_d)">
<path d="M36 27.75C34.3683 27.75 32.7733 28.2339 31.4166 29.1404C30.0599 30.0469 29.0025 31.3354 28.378 32.8429C27.7536 34.3504 27.5902 36.0092 27.9086 37.6095C28.2269 39.2098 29.0126 40.6799 30.1664 41.8336C31.3202 42.9874 32.7902 43.7732 34.3905 44.0915C35.9909 44.4098 37.6497 44.2464 39.1572 43.622C40.6647 42.9976 41.9531 41.9402 42.8596 40.5835C43.7662 39.2268 44.25 37.6317 44.25 36C44.2475 33.8127 43.3776 31.7157 41.8309 30.1691C40.2843 28.6225 38.1873 27.7525 36 27.75ZM36 42.75C34.665 42.75 33.36 42.3541 32.2499 41.6124C31.1399 40.8707 30.2747 39.8165 29.7638 38.5831C29.253 37.3497 29.1193 35.9925 29.3797 34.6831C29.6402 33.3738 30.2831 32.171 31.2271 31.227C32.1711 30.283 33.3738 29.6401 34.6832 29.3797C35.9925 29.1192 37.3497 29.2529 38.5831 29.7638C39.8165 30.2747 40.8707 31.1399 41.6124 32.2499C42.3541 33.3599 42.75 34.665 42.75 36C42.748 37.7896 42.0361 39.5053 40.7707 40.7707C39.5053 42.0361 37.7896 42.7479 36 42.75Z" fill="url(#paint5_linear)"/>
<path d="M36 24.75C33.775 24.75 31.5999 25.4098 29.7498 26.646C27.8998 27.8821 26.4578 29.6391 25.6064 31.6948C24.7549 33.7505 24.5321 36.0125 24.9662 38.1948C25.4003 40.3771 26.4717 42.3816 28.0451 43.955C29.6184 45.5283 31.623 46.5998 33.8052 47.0338C35.9875 47.4679 38.2495 47.2451 40.3052 46.3936C42.3609 45.5422 44.1179 44.1002 45.354 42.2502C46.5902 40.4001 47.25 38.225 47.25 36C47.2467 33.0173 46.0603 30.1578 43.9513 28.0487C41.8422 25.9397 38.9827 24.7533 36 24.75ZM36 45.75C34.0716 45.75 32.1866 45.1782 30.5832 44.1068C28.9798 43.0355 27.7301 41.5127 26.9922 39.7312C26.2542 37.9496 26.0611 35.9892 26.4373 34.0979C26.8136 32.2066 27.7422 30.4693 29.1057 29.1057C30.4693 27.7421 32.2066 26.8135 34.0979 26.4373C35.9892 26.0611 37.9496 26.2542 39.7312 26.9922C41.5127 27.7301 43.0355 28.9798 44.1068 30.5832C45.1782 32.1866 45.75 34.0716 45.75 36C45.7472 38.585 44.7191 41.0633 42.8912 42.8912C41.0634 44.7191 38.585 45.7472 36 45.75Z" fill="url(#paint6_linear)"/>
<path d="M39.0001 37.5C38.9993 38.0965 38.762 38.6683 38.3402 39.0901C37.9184 39.5119 37.3466 39.7492 36.7501 39.75C36.7501 39.9489 36.671 40.1397 36.5304 40.2803C36.3897 40.421 36.199 40.5 36.0001 40.5C35.8011 40.5 35.6104 40.421 35.4697 40.2803C35.3291 40.1397 35.2501 39.9489 35.2501 39.75H33.7501C33.5511 39.75 33.3604 39.671 33.2197 39.5303C33.0791 39.3897 33.0001 39.1989 33.0001 39C33.0001 38.8011 33.0791 38.6103 33.2197 38.4697C33.3604 38.329 33.5511 38.25 33.7501 38.25H36.7501C36.9489 38.2497 37.1395 38.1706 37.2801 38.03C37.4207 37.8894 37.4998 37.6988 37.5001 37.5C37.5001 37.1072 37.0979 36.75 36.6563 36.75H35.2501C34.6533 36.75 34.081 36.5129 33.6591 36.091C33.2371 35.669 33.0001 35.0967 33.0001 34.5C33.0001 33.9033 33.2371 33.331 33.6591 32.909C34.081 32.4871 34.6533 32.25 35.2501 32.25C35.2501 32.0511 35.3291 31.8603 35.4697 31.7197C35.6104 31.579 35.8011 31.5 36.0001 31.5C36.199 31.5 36.3897 31.579 36.5304 31.7197C36.671 31.8603 36.7501 32.0511 36.7501 32.25H38.2501C38.449 32.25 38.6397 32.329 38.7804 32.4697C38.921 32.6103 39.0001 32.8011 39.0001 33C39.0001 33.1989 38.921 33.3897 38.7804 33.5303C38.6397 33.671 38.449 33.75 38.2501 33.75H35.2501C35.0511 33.75 34.8604 33.829 34.7197 33.9697C34.5791 34.1103 34.5001 34.3011 34.5001 34.5C34.5001 34.6989 34.5791 34.8897 34.7197 35.0303C34.8604 35.171 35.0511 35.25 35.2501 35.25H36.6563C37.9266 35.25 39.0001 36.2803 39.0001 37.5Z" fill="url(#paint7_linear)"/>
</g>
</g>
<defs>
<filter id="filter0_d" x="-29.25" y="-29.25" width="82.5" height="82.5" filterUnits="userSpaceOnUse" color-interpolation-filters="sRGB">
<feFlood flood-opacity="0" result="BackgroundImageFix"/>
<feColorMatrix in="SourceAlpha" type="matrix" values="0 0 0 0 0 0 0 0 0 0 0 0 0 0 0 0 0 0 127 0"/>
<feOffset/>
<feGaussianBlur stdDeviation="15"/>
<feColorMatrix type="matrix" values="0 0 0 0 0.882353 0 0 0 0 0.286275 0 0 0 0 0.278431 0 0 0 0.2 0"/>
<feBlend mode="normal" in2="BackgroundImageFix" result="effect1_dropShadow"/>
<feBlend mode="normal" in="SourceGraphic" in2="effect1_dropShadow" result="shape"/>
</filter>
<filter id="filter1_d" x="-5.25" y="-5.25" width="82.5" height="82.5" filterUnits="userSpaceOnUse" color-interpolation-filters="sRGB">
<feFlood flood-opacity="0" result="BackgroundImageFix"/>
<feColorMatrix in="SourceAlpha" type="matrix" values="0 0 0 0 0 0 0 0 0 0 0 0 0 0 0 0 0 0 127 0"/>
<feOffset/>
<feGaussianBlur stdDeviation="15"/>
<feColorMatrix type="matrix" values="0 0 0 0 0.882353 0 0 0 0 0.286275 0 0 0 0 0.278431 0 0 0 0.2 0"/>
<feBlend mode="normal" in2="BackgroundImageFix" result="effect1_dropShadow"/>
<feBlend mode="normal" in="SourceGraphic" in2="effect1_dropShadow" result="shape"/>
</filter>
<linearGradient id="paint0_linear" x1="12" y1="0.75" x2="12" y2="30.4821" gradientUnits="userSpaceOnUse">
<stop stop-color="#F55A5A"/>
<stop offset="1" stop-color="#C12E28"/>
</linearGradient>
<linearGradient id="paint1_linear" x1="12" y1="0.75" x2="12" y2="30.4821" gradientUnits="userSpaceOnUse">
<stop stop-color="#F55A5A"/>
<stop offset="1" stop-color="#C12E28"/>
</linearGradient>
<linearGradient id="paint2_linear" x1="12" y1="0.75" x2="12" y2="30.4821" gradientUnits="userSpaceOnUse">
<stop stop-color="#F55A5A"/>
<stop offset="1" stop-color="#C12E28"/>
</linearGradient>
<linearGradient id="paint3_linear" x1="31.125" y1="7.5" x2="31.125" y2="29.3036" gradientUnits="userSpaceOnUse">
<stop stop-color="#F55A5A"/>
<stop offset="1" stop-color="#C12E28"/>
</linearGradient>
<linearGradient id="paint4_linear" x1="16.875" y1="24" x2="16.875" y2="45.8036" gradientUnits="userSpaceOnUse">
<stop stop-color="#F55A5A"/>
<stop offset="1" stop-color="#C12E28"/>
</linearGradient>
<linearGradient id="paint5_linear" x1="36" y1="24.75" x2="36" y2="54.4822" gradientUnits="userSpaceOnUse">
<stop stop-color="#F55A5A"/>
<stop offset="1" stop-color="#C12E28"/>
</linearGradient>
<linearGradient id="paint6_linear" x1="36" y1="24.75" x2="36" y2="54.4822" gradientUnits="userSpaceOnUse">
<stop stop-color="#F55A5A"/>
<stop offset="1" stop-color="#C12E28"/>
</linearGradient>
<linearGradient id="paint7_linear" x1="36" y1="24.75" x2="36" y2="54.4822" gradientUnits="userSpaceOnUse">
<stop stop-color="#F55A5A"/>
<stop offset="1" stop-color="#C12E28"/>
</linearGradient>
<clipPath id="clip0">
<rect width="48" height="48" fill="white"/>
</clipPath>
</defs>
</svg>
