<svg width="60" height="60" viewBox="0 0 60 60" fill="none" xmlns="http://www.w3.org/2000/svg">
    <path opacity="0.5" d="M34.6875 50.625H32.8125V41.4375C32.8125 41.1889 32.7137 40.9504 32.5379 40.7746C32.3621 40.5988 32.1236 40.5 31.875 40.5C31.6264 40.5 31.3879 40.5988 31.2121 40.7746C31.0363 40.9504 30.9375 41.1889 30.9375 41.4375V50.625H6.5625V31.875H14.3625C14.6111 31.875 14.8496 31.7762 15.0254 31.6004C15.2012 31.4246 15.3 31.1861 15.3 30.9375C15.3 30.6889 15.2012 30.4504 15.0254 30.2746C14.8496 30.0988 14.6111 30 14.3625 30H5.625C5.37636 30 5.1379 30.0988 4.96209 30.2746C4.78627 30.4504 4.6875 30.6889 4.6875 30.9375V50.625H2.8125C2.56386 50.625 2.3254 50.7238 2.14959 50.8996C1.97377 51.0754 1.875 51.3139 1.875 51.5625V53.4375C1.875 54.6807 2.36886 55.873 3.24794 56.7521C4.12701 57.6311 5.3193 58.125 6.5625 58.125H30.9375C32.1807 58.125 33.373 57.6311 34.2521 56.7521C35.1311 55.873 35.625 54.6807 35.625 53.4375V51.5625C35.625 51.3139 35.5262 51.0754 35.3504 50.8996C35.1746 50.7238 34.9361 50.625 34.6875 50.625ZM33.75 53.4375C33.75 54.1834 33.4537 54.8988 32.9262 55.4262C32.3988 55.9537 31.6834 56.25 30.9375 56.25H29.0625V55.3125C29.0625 55.0639 28.9637 54.8254 28.7879 54.6496C28.6121 54.4738 28.3736 54.375 28.125 54.375C27.8764 54.375 27.6379 54.4738 27.4621 54.6496C27.2863 54.8254 27.1875 55.0639 27.1875 55.3125V56.25H10.3125V55.3125C10.3125 55.0639 10.2137 54.8254 10.0379 54.6496C9.8621 54.4738 9.62364 54.375 9.375 54.375C9.12636 54.375 8.8879 54.4738 8.71209 54.6496C8.53627 54.8254 8.4375 55.0639 8.4375 55.3125V56.25H6.5625C5.81658 56.25 5.10121 55.9537 4.57376 55.4262C4.04632 54.8988 3.75 54.1834 3.75 53.4375V52.5H33.75V53.4375Z" fill="#35C773"/>
    <path d="M50.625 7.5H52.5C52.7486 7.5 52.9871 7.40123 53.1629 7.22541C53.3387 7.0496 53.4375 6.81114 53.4375 6.5625C53.4375 6.31386 53.3387 6.0754 53.1629 5.89959C52.9871 5.72377 52.7486 5.625 52.5 5.625H50.625C49.8791 5.625 49.1637 5.92132 48.6363 6.44876C48.1088 6.97621 47.8125 7.69158 47.8125 8.4375V9.375H46.875C46.6264 9.375 46.3879 9.47377 46.2121 9.64959C46.0363 9.8254 45.9375 10.0639 45.9375 10.3125C45.9375 10.5611 46.0363 10.7996 46.2121 10.9754C46.3879 11.1512 46.6264 11.25 46.875 11.25H47.8125V14.0625C47.8125 14.3111 47.9113 14.5496 48.0871 14.7254C48.2629 14.9012 48.5014 15 48.75 15C48.9986 15 49.2371 14.9012 49.4129 14.7254C49.5887 14.5496 49.6875 14.3111 49.6875 14.0625V11.25H50.625C50.8736 11.25 51.1121 11.1512 51.2879 10.9754C51.4637 10.7996 51.5625 10.5611 51.5625 10.3125C51.5625 10.0639 51.4637 9.8254 51.2879 9.64959C51.1121 9.47377 50.8736 9.375 50.625 9.375H49.6875V8.4375C49.6875 8.18886 49.7863 7.9504 49.9621 7.77459C50.1379 7.59877 50.3764 7.5 50.625 7.5Z" fill="#35C773"/>
    <path d="M55.3125 1.875H44.0625C43.3166 1.875 42.6012 2.17132 42.0738 2.69876C41.5463 3.22621 41.25 3.94158 41.25 4.6875V6.5625C41.25 6.81114 41.3488 7.0496 41.5246 7.22541C41.7004 7.40123 41.9389 7.5 42.1875 7.5C42.4361 7.5 42.6746 7.40123 42.8504 7.22541C43.0262 7.0496 43.125 6.81114 43.125 6.5625V4.6875C43.125 4.43886 43.2238 4.2004 43.3996 4.02459C43.5754 3.84877 43.8139 3.75 44.0625 3.75H55.3125C55.5611 3.75 55.7996 3.84877 55.9754 4.02459C56.1512 4.2004 56.25 4.43886 56.25 4.6875V15.9375C56.25 16.1861 56.1512 16.4246 55.9754 16.6004C55.7996 16.7762 55.5611 16.875 55.3125 16.875H44.0625C43.8139 16.875 43.5754 16.7762 43.3996 16.6004C43.2238 16.4246 43.125 16.1861 43.125 15.9375V10.3125C43.125 10.0639 43.0262 9.8254 42.8504 9.64959C42.6746 9.47377 42.4361 9.375 42.1875 9.375C41.9389 9.375 41.7004 9.47377 41.5246 9.64959C41.3488 9.8254 41.25 10.0639 41.25 10.3125V15.9375C41.25 16.6834 41.5463 17.3988 42.0738 17.9262C42.6012 18.4537 43.3166 18.75 44.0625 18.75H55.3125C56.0584 18.75 56.7738 18.4537 57.3012 17.9262C57.8287 17.3988 58.125 16.6834 58.125 15.9375V4.6875C58.125 3.94158 57.8287 3.22621 57.3012 2.69876C56.7738 2.17132 56.0584 1.875 55.3125 1.875Z" fill="#35C773"/>
    <path d="M45.9375 39.375C45.9375 40.1167 46.1574 40.8417 46.5695 41.4584C46.9815 42.0751 47.5672 42.5557 48.2524 42.8395C48.9377 43.1234 49.6917 43.1976 50.4191 43.0529C51.1465 42.9082 51.8147 42.5511 52.3392 42.0266C52.8636 41.5022 53.2208 40.834 53.3655 40.1066C53.5102 39.3792 53.4359 38.6252 53.1521 37.9399C52.8682 37.2547 52.3876 36.669 51.7709 36.257C51.1542 35.8449 50.4292 35.625 49.6875 35.625C48.6929 35.625 47.7391 36.0201 47.0359 36.7234C46.3326 37.4266 45.9375 38.3804 45.9375 39.375ZM51.5625 39.375C51.5625 39.7458 51.4525 40.1084 51.2465 40.4167C51.0405 40.725 50.7477 40.9654 50.405 41.1073C50.0624 41.2492 49.6854 41.2863 49.3217 41.214C48.958 41.1416 48.6239 40.963 48.3617 40.7008C48.0995 40.4386 47.9209 40.1045 47.8485 39.7408C47.7762 39.3771 47.8133 39.0001 47.9552 38.6575C48.0971 38.3149 48.3375 38.022 48.6458 37.816C48.9542 37.61 49.3167 37.5 49.6875 37.5C50.1848 37.5 50.6617 37.6975 51.0133 38.0492C51.365 38.4008 51.5625 38.8777 51.5625 39.375Z" fill="#35C773"/>
    <path d="M55.3125 30.9375H44.0625C43.3166 30.9375 42.6012 31.2338 42.0738 31.7613C41.5463 32.2887 41.25 33.0041 41.25 33.75V45C41.25 45.7459 41.5463 46.4613 42.0738 46.9887C42.6012 47.5162 43.3166 47.8125 44.0625 47.8125H55.3125C56.0584 47.8125 56.7738 47.5162 57.3012 46.9887C57.8287 46.4613 58.125 45.7459 58.125 45V43.125C58.125 42.8764 58.0262 42.6379 57.8504 42.4621C57.6746 42.2863 57.4361 42.1875 57.1875 42.1875C56.9389 42.1875 56.7004 42.2863 56.5246 42.4621C56.3488 42.6379 56.25 42.8764 56.25 43.125V45C56.25 45.2486 56.1512 45.4871 55.9754 45.6629C55.7996 45.8387 55.5611 45.9375 55.3125 45.9375H44.0625C43.8139 45.9375 43.5754 45.8387 43.3996 45.6629C43.2238 45.4871 43.125 45.2486 43.125 45V33.75C43.125 33.5014 43.2238 33.2629 43.3996 33.0871C43.5754 32.9113 43.8139 32.8125 44.0625 32.8125H55.3125C55.5611 32.8125 55.7996 32.9113 55.9754 33.0871C56.1512 33.2629 56.25 33.5014 56.25 33.75V39.375C56.25 39.6236 56.3488 39.8621 56.5246 40.0379C56.7004 40.2137 56.9389 40.3125 57.1875 40.3125C57.4361 40.3125 57.6746 40.2137 57.8504 40.0379C58.0262 39.8621 58.125 39.6236 58.125 39.375V33.75C58.125 33.0041 57.8287 32.2887 57.3012 31.7613C56.7738 31.2338 56.0584 30.9375 55.3125 30.9375Z" fill="#35C773"/>
    <path d="M22.9406 12.984C23.0898 13.0764 23.262 13.1252 23.4375 13.1246C23.5843 13.1237 23.7288 13.0884 23.8594 13.0215L29.4844 10.209C29.6379 10.1303 29.7668 10.0108 29.8568 9.86356C29.9468 9.71635 29.9944 9.54715 29.9944 9.3746C29.9944 9.20206 29.9468 9.03286 29.8568 8.88565C29.7668 8.73843 29.6379 8.6189 29.4844 8.54023L23.8594 5.72773C23.7167 5.65581 23.5579 5.62157 23.3983 5.62826C23.2386 5.63495 23.0833 5.68235 22.9471 5.76594C22.8109 5.84954 22.6983 5.96657 22.6201 6.10592C22.5418 6.24526 22.5005 6.40229 22.5 6.5621V12.1871C22.4997 12.3464 22.54 12.5032 22.6171 12.6426C22.6942 12.7821 22.8055 12.8995 22.9406 12.984ZM24.375 8.08085L26.9625 9.3746L24.375 10.6684V8.08085Z" fill="#35C773"/>
    <path d="M25.3125 17.8125C26.9813 17.8125 28.6126 17.3177 30.0001 16.3905C31.3877 15.4634 32.4691 14.1456 33.1077 12.6039C33.7463 11.0621 33.9134 9.36564 33.5879 7.72893C33.2623 6.09221 32.4587 4.5888 31.2787 3.40879C30.0987 2.22878 28.5953 1.42519 26.9586 1.09963C25.3219 0.774065 23.6254 0.941156 22.0836 1.57977C20.5419 2.21838 19.2241 3.29984 18.297 4.68738C17.3699 6.07492 16.875 7.70622 16.875 9.375C16.875 11.6128 17.7639 13.7589 19.3463 15.3412C20.9286 16.9236 23.0747 17.8125 25.3125 17.8125ZM25.3125 2.8125C26.6104 2.8125 27.8792 3.19739 28.9584 3.91848C30.0376 4.63958 30.8788 5.6645 31.3755 6.86364C31.8722 8.06278 32.0021 9.38228 31.7489 10.6553C31.4957 11.9283 30.8707 13.0976 29.9529 14.0154C29.0351 14.9332 27.8658 15.5582 26.5928 15.8114C25.3198 16.0646 24.0003 15.9347 22.8011 15.438C21.602 14.9413 20.5771 14.1001 19.856 13.0209C19.1349 11.9417 18.75 10.6729 18.75 9.375C18.75 7.63452 19.4414 5.96532 20.6721 4.73462C21.9028 3.50391 23.572 2.8125 25.3125 2.8125Z" fill="#35C773"/>
    <path d="M34.6875 21.5625C34.833 21.5625 34.9766 21.5286 35.1068 21.4635C35.2369 21.3984 35.3502 21.3039 35.4375 21.1875L38.25 17.4375C38.3992 17.2386 38.4632 16.9886 38.4281 16.7424C38.3929 16.4963 38.2614 16.2742 38.0625 16.125C37.8636 15.9758 37.6135 15.9118 37.3674 15.9469C37.1213 15.9821 36.8992 16.1136 36.75 16.3125L33.9375 20.0625C33.7883 20.2614 33.7243 20.5114 33.7594 20.7576C33.7946 21.0037 33.9261 21.2258 34.125 21.375C34.2873 21.4967 34.4847 21.5625 34.6875 21.5625Z" fill="#35C773"/>
    <path d="M36.75 24.9375C36.8373 25.0539 36.9506 25.1484 37.0807 25.2135C37.2109 25.2786 37.3545 25.3125 37.5 25.3125C37.7028 25.3125 37.9002 25.2467 38.0625 25.125L41.8125 22.3125C42.0114 22.1633 42.1429 21.9412 42.1781 21.6951C42.2132 21.4489 42.1492 21.1989 42 21C41.8508 20.8011 41.6287 20.6696 41.3826 20.6344C41.1364 20.5993 40.8864 20.6633 40.6875 20.8125L36.9375 23.625C36.7386 23.7742 36.6071 23.9963 36.5719 24.2424C36.5368 24.4886 36.6008 24.7386 36.75 24.9375Z" fill="#35C773"/>
    <path d="M45.9375 27.0001C45.9153 26.8758 45.8681 26.7573 45.7989 26.6517C45.7297 26.5461 45.6398 26.4555 45.5348 26.3855C45.4297 26.3154 45.3116 26.2673 45.1875 26.2441C45.0634 26.2208 44.9358 26.2229 44.8125 26.2501L40.125 27.1876C40.0019 27.1999 39.8824 27.2363 39.7734 27.2948C39.6644 27.3533 39.5679 27.4327 39.4896 27.5285C39.3313 27.7219 39.2564 27.9702 39.2813 28.2188C39.3062 28.4675 39.4288 28.6961 39.6222 28.8543C39.8156 29.0125 40.0639 29.0875 40.3125 29.0626H40.5L45.1875 28.1251C45.3118 28.1028 45.4303 28.0557 45.5359 27.9864C45.6416 27.9172 45.7321 27.8274 45.8022 27.7223C45.8722 27.6173 45.9203 27.4991 45.9436 27.375C45.9668 27.2509 45.9648 27.1234 45.9375 27.0001Z" fill="#35C773"/>
    <path d="M2.8125 27.1875H14.0625C14.3111 27.1875 14.5496 27.0887 14.7254 26.9129C14.9012 26.7371 15 26.4986 15 26.25V11.25C15 11.0014 14.9012 10.7629 14.7254 10.5871C14.5496 10.4113 14.3111 10.3125 14.0625 10.3125H2.8125C2.56386 10.3125 2.3254 10.4113 2.14959 10.5871C1.97377 10.7629 1.875 11.0014 1.875 11.25V26.25C1.875 26.4986 1.97377 26.7371 2.14959 26.9129C2.3254 27.0887 2.56386 27.1875 2.8125 27.1875ZM3.75 12.1875H13.125V25.3125H3.75V12.1875Z" fill="#35C773"/>
    <path d="M10.3125 14.0625H8.4375C8.18886 14.0625 7.9504 14.1613 7.77459 14.3371C7.59877 14.5129 7.5 14.7514 7.5 15C7.5 15.2486 7.59877 15.4871 7.77459 15.6629C7.9504 15.8387 8.18886 15.9375 8.4375 15.9375H10.3125C10.5611 15.9375 10.7996 15.8387 10.9754 15.6629C11.1512 15.4871 11.25 15.2486 11.25 15C11.25 14.7514 11.1512 14.5129 10.9754 14.3371C10.7996 14.1613 10.5611 14.0625 10.3125 14.0625Z" fill="#35C773"/>
    <path d="M10.3125 17.8125H6.5625C6.31386 17.8125 6.0754 17.9113 5.89959 18.0871C5.72377 18.2629 5.625 18.5014 5.625 18.75C5.625 18.9986 5.72377 19.2371 5.89959 19.4129C6.0754 19.5887 6.31386 19.6875 6.5625 19.6875H10.3125C10.5611 19.6875 10.7996 19.5887 10.9754 19.4129C11.1512 19.2371 11.25 18.9986 11.25 18.75C11.25 18.5014 11.1512 18.2629 10.9754 18.0871C10.7996 17.9113 10.5611 17.8125 10.3125 17.8125Z" fill="#35C773"/>
    <path d="M10.3125 21.5625H6.5625C6.31386 21.5625 6.0754 21.6613 5.89959 21.8371C5.72377 22.0129 5.625 22.2514 5.625 22.5C5.625 22.7486 5.72377 22.9871 5.89959 23.1629C6.0754 23.3387 6.31386 23.4375 6.5625 23.4375H10.3125C10.5611 23.4375 10.7996 23.3387 10.9754 23.1629C11.1512 22.9871 11.25 22.7486 11.25 22.5C11.25 22.2514 11.1512 22.0129 10.9754 21.8371C10.7996 21.6613 10.5611 21.5625 10.3125 21.5625Z" fill="#35C773"/>
    <path opacity="0.5" d="M33.8624 26.9062C33.8008 26.7991 33.7188 26.7051 33.6209 26.6297C33.5231 26.5543 33.4113 26.4989 33.2921 26.4667C33.1728 26.4345 33.0483 26.4261 32.9258 26.442C32.8033 26.4579 32.6851 26.4977 32.578 26.5593C32.4709 26.6208 32.377 26.7029 32.3016 26.8008C32.2262 26.8986 32.1708 27.0104 32.1386 27.1296C32.1064 27.2489 32.098 27.3733 32.1139 27.4959C32.1297 27.6184 32.1696 27.7366 32.2312 27.8437L36.3655 34.9968L21.3655 40.6218C21.3655 40.6218 21.3655 40.6218 21.2999 40.6218H21.2249L18.7874 42.028L17.1655 42.9655C16.952 43.089 16.7162 43.1691 16.4717 43.2013C16.2272 43.2334 15.9787 43.217 15.7405 43.153C15.262 43.0238 14.8542 42.7103 14.6062 42.2812L12.7312 39.0374C12.5106 38.613 12.4605 38.1204 12.5912 37.6603C12.7219 37.2002 13.0235 36.8074 13.4343 36.5624L16.678 34.6874L19.0218 38.7468C19.1044 38.8899 19.2233 39.0086 19.3665 39.0909C19.5098 39.1732 19.6722 39.2162 19.8374 39.2155C20.0023 39.2162 20.1644 39.1734 20.3075 39.0913C20.4505 39.0093 20.5694 38.891 20.6521 38.7484C20.7348 38.6058 20.7785 38.4439 20.7786 38.279C20.7788 38.1141 20.7355 37.9521 20.653 37.8093L18.2343 33.628L29.9999 23.9249L30.3843 24.5905C30.4458 24.6976 30.5279 24.7916 30.6257 24.867C30.7236 24.9424 30.8354 24.9978 30.9546 25.03C31.0739 25.0622 31.1983 25.0706 31.3208 25.0547C31.4434 25.0388 31.5615 24.999 31.6687 24.9374C31.7758 24.8759 31.8697 24.7938 31.9451 24.6959C32.0205 24.5981 32.0759 24.4863 32.1081 24.3671C32.1403 24.2478 32.1487 24.1234 32.1328 24.0008C32.1169 23.8783 32.0771 23.7601 32.0155 23.653L31.078 22.0312C31.0093 21.9137 30.9159 21.8126 30.8042 21.7349C30.6925 21.6572 30.5652 21.6047 30.4312 21.5812C30.2964 21.5558 30.1577 21.5602 30.0249 21.5943C29.8921 21.6283 29.7683 21.691 29.6624 21.778L16.5374 32.5968L12.5437 34.903C11.8269 35.3205 11.2689 35.9638 10.9567 36.7322C10.6446 37.5007 10.596 38.3509 10.8187 39.1499L9.88115 39.6843C9.39811 39.9617 9.00832 40.3763 8.76119 40.8755C8.51406 41.3747 8.42073 41.936 8.49303 42.4883C8.56534 43.0406 8.80001 43.559 9.16731 43.9778C9.53461 44.3966 10.018 44.6968 10.5562 44.8405C10.7947 44.9037 11.0406 44.9353 11.2874 44.9343C11.7806 44.9322 12.2649 44.8031 12.6937 44.5593L13.6312 44.0249C14.0815 44.4901 14.6479 44.8267 15.2718 44.9999C15.5921 45.0895 15.9235 45.1337 16.2562 45.1312C16.9151 45.1327 17.5625 44.9579 18.1312 44.6249L18.9468 44.1562L20.8218 47.4093C21.1944 48.0535 21.8072 48.5238 22.5259 48.7171C23.2446 48.9104 24.0106 48.811 24.6562 48.4405C24.9764 48.256 25.2571 48.0102 25.4823 47.7171C25.7075 47.424 25.8727 47.0894 25.9685 46.7324C26.0642 46.3754 26.0887 46.0031 26.0405 45.6366C25.9923 45.2702 25.8723 44.9168 25.6874 44.5968L23.9812 41.6249L38.0437 36.3468C38.1712 36.2989 38.2867 36.2237 38.3823 36.1266C38.4778 36.0294 38.551 35.9126 38.5968 35.7843C38.6424 35.6575 38.6602 35.5223 38.6488 35.3881C38.6375 35.2538 38.5974 35.1235 38.5312 35.0062L33.8624 26.9062ZM11.7187 42.928C11.6119 42.9898 11.494 43.0298 11.3717 43.0459C11.2495 43.062 11.1252 43.0538 11.0062 43.0218C10.766 42.9594 10.5603 42.8043 10.4343 42.5905C10.3726 42.4838 10.3325 42.3659 10.3164 42.2436C10.3003 42.1214 10.3085 41.9971 10.3405 41.878C10.3725 41.7583 10.428 41.6461 10.5036 41.548C10.5792 41.4498 10.6736 41.3676 10.7812 41.3062L11.5968 40.8374L12.5343 42.4593L11.7187 42.928ZM24.0562 45.553C24.1179 45.6598 24.1579 45.7777 24.174 45.9C24.1901 46.0222 24.1819 46.1464 24.1499 46.2655C24.083 46.5039 23.9247 46.7061 23.7093 46.828C23.4951 46.9511 23.2411 46.9846 23.0024 46.9214C22.7637 46.8582 22.5595 46.7034 22.4343 46.4905L20.5593 43.2374L22.1155 42.3468H22.1905L24.0562 45.553Z" fill="#35C773"/>
</svg>
