<svg width="48" height="48" viewBox="0 0 48 48" fill="none" xmlns="http://www.w3.org/2000/svg">
<g clip-path="url(#clip0)">
<g opacity="0.5">
<path d="M36.2376 40.6359C35.9984 40.6359 35.7616 40.5287 35.604 40.3247C35.3344 39.9743 35.3984 39.4727 35.748 39.2031C37.052 38.1959 38.224 37.0231 39.2312 35.7183C39.5 35.3679 40.0024 35.3047 40.3528 35.5735C40.7032 35.8439 40.7672 36.3463 40.4976 36.6959C39.4072 38.1095 38.1384 39.3791 36.7264 40.4687C36.5808 40.5815 36.4088 40.6359 36.2376 40.6359Z" fill="url(#paint0_linear)"/>
<path d="M4.02393 28.0003C1.81833 28.0003 0.0239258 26.2059 0.0239258 24.0003C0.0239258 21.7947 1.81833 20.0003 4.02393 20.0003C6.22953 20.0003 8.02393 21.7947 8.02393 24.0003C8.02393 26.2059 6.22953 28.0003 4.02393 28.0003ZM4.02393 21.6003C2.70073 21.6003 1.62393 22.6771 1.62393 24.0003C1.62393 25.3235 2.70073 26.4003 4.02393 26.4003C5.34713 26.4003 6.42392 25.3235 6.42392 24.0003C6.42392 22.6771 5.34713 21.6003 4.02393 21.6003Z" fill="url(#paint1_linear)"/>
<path d="M44.024 28.0003C41.8184 28.0003 40.024 26.2059 40.024 24.0003C40.024 21.7947 41.8184 20.0003 44.024 20.0003C46.2296 20.0003 48.024 21.7947 48.024 24.0003C48.024 26.2059 46.2296 28.0003 44.024 28.0003ZM44.024 21.6003C42.7008 21.6003 41.624 22.6771 41.624 24.0003C41.624 25.3235 42.7008 26.4003 44.024 26.4003C45.3472 26.4003 46.424 25.3235 46.424 24.0003C46.424 22.6771 45.3472 21.6003 44.024 21.6003Z" fill="url(#paint2_linear)"/>
<path d="M24.0239 47.9997C21.8183 47.9997 20.0239 46.2053 20.0239 43.9997C20.0239 41.7941 21.8183 39.9997 24.0239 39.9997C26.2295 39.9997 28.0239 41.7941 28.0239 43.9997C28.0239 46.2053 26.2295 47.9997 24.0239 47.9997ZM24.0239 41.5997C22.7007 41.5997 21.6239 42.6765 21.6239 43.9997C21.6239 45.3229 22.7007 46.3997 24.0239 46.3997C25.3471 46.3997 26.4239 45.3229 26.4239 43.9997C26.4239 42.6765 25.3471 41.5997 24.0239 41.5997Z" fill="url(#paint3_linear)"/>
<path d="M24.0239 8C21.8183 8 20.0239 6.2056 20.0239 4C20.0239 1.7944 21.8183 0 24.0239 0C26.2295 0 28.0239 1.7944 28.0239 4C28.0239 6.2056 26.2295 8 24.0239 8ZM24.0239 1.6C22.7007 1.6 21.6239 2.6768 21.6239 4C21.6239 5.3232 22.7007 6.4 24.0239 6.4C25.3471 6.4 26.4239 5.3232 26.4239 4C26.4239 2.6768 25.3471 1.6 24.0239 1.6Z" fill="url(#paint4_linear)"/>
<path d="M43.7687 21.6253C43.3831 21.6253 43.0423 21.3445 42.9799 20.9509C42.7367 19.4309 42.3111 17.9429 41.7135 16.5301C41.5415 16.1229 41.7311 15.6533 42.1383 15.4813C42.5463 15.3085 43.0151 15.4989 43.1871 15.9061C43.8351 17.4381 44.2975 19.0509 44.5599 20.6989C44.6295 21.1349 44.3327 21.5453 43.8959 21.6149C43.8535 21.6221 43.8111 21.6253 43.7687 21.6253Z" fill="url(#paint5_linear)"/>
<path d="M39.8599 12.5867C39.6207 12.5867 39.3839 12.4795 39.2263 12.2755C38.2199 10.9723 37.0479 9.80028 35.7423 8.79228C35.3927 8.52268 35.3279 8.02028 35.5983 7.67068C35.8687 7.32108 36.3711 7.25708 36.7207 7.52668C38.1343 8.61788 39.4031 9.88667 40.4927 11.2979C40.7623 11.6483 40.6983 12.1499 40.3487 12.4195C40.2023 12.5323 40.0311 12.5867 39.8599 12.5867Z" fill="url(#paint6_linear)"/>
<path d="M31.8047 6.37329C31.7007 6.37329 31.5951 6.35329 31.4935 6.31009C30.0807 5.71249 28.5927 5.28609 27.0719 5.04289C26.6359 4.97329 26.3383 4.56288 26.4079 4.12608C26.4775 3.69008 26.8887 3.39168 27.3239 3.46288C28.9727 3.72608 30.5847 4.18848 32.1167 4.83649C32.5239 5.00849 32.7143 5.47809 32.5415 5.88529C32.4127 6.19009 32.1167 6.37329 31.8047 6.37329Z" fill="url(#paint7_linear)"/>
<path d="M27.1975 44.5472C26.8111 44.5472 26.4711 44.2664 26.4087 43.8736C26.3391 43.4368 26.6359 43.0264 27.0727 42.9568C28.5935 42.7136 30.0815 42.2872 31.4943 41.6896C31.9023 41.5184 32.3711 41.7064 32.5431 42.1144C32.7151 42.5216 32.5255 42.9912 32.1183 43.1632C30.5863 43.8112 28.9743 44.2736 27.3255 44.5368C27.2815 44.544 27.2391 44.5472 27.1975 44.5472Z" fill="url(#paint8_linear)"/>
<path d="M42.4495 32.5813C42.3455 32.5813 42.2399 32.5613 42.1383 32.5181C41.7311 32.3461 41.5407 31.8765 41.7135 31.4693C42.3111 30.0557 42.7375 28.5685 42.9799 27.0485C43.0487 26.6117 43.4607 26.3133 43.8959 26.3845C44.3319 26.4541 44.6295 26.8645 44.5599 27.3005C44.2967 28.9493 43.8351 30.5613 43.1871 32.0933C43.0583 32.3981 42.7615 32.5813 42.4495 32.5813Z" fill="url(#paint9_linear)"/>
<path d="M5.5975 32.5813C5.2855 32.5813 4.9895 32.3981 4.8607 32.0933C4.2127 30.5613 3.7503 28.9485 3.4879 27.3005C3.4183 26.8645 3.7151 26.4541 4.1519 26.3845C4.5839 26.3133 4.9991 26.6117 5.0679 27.0485C5.3111 28.5685 5.7367 30.0565 6.3343 31.4693C6.5063 31.8765 6.3167 32.3461 5.9095 32.5181C5.8071 32.5605 5.7015 32.5813 5.5975 32.5813Z" fill="url(#paint10_linear)"/>
<path d="M11.8159 40.6406C11.6447 40.6406 11.4727 40.5862 11.3271 40.4734C9.91352 39.3822 8.64472 38.1134 7.55512 36.7022C7.28552 36.3518 7.34952 35.8503 7.69912 35.5807C8.04872 35.3102 8.55032 35.3742 8.82152 35.7246C9.82792 37.0278 10.9999 38.1998 12.3055 39.2078C12.6551 39.4774 12.7199 39.9798 12.4495 40.3294C12.2919 40.5334 12.0551 40.6406 11.8159 40.6406Z" fill="url(#paint11_linear)"/>
<path d="M20.8503 44.5472C20.8087 44.5472 20.7663 44.544 20.7231 44.5368C19.0743 44.2736 17.4623 43.8112 15.9303 43.1632C15.5231 42.9912 15.3327 42.5216 15.5055 42.1144C15.6775 41.7064 16.1463 41.5184 16.5543 41.6896C17.9671 42.2872 19.4551 42.7136 20.9759 42.9568C21.4119 43.0264 21.7095 43.4368 21.6399 43.8736C21.5767 44.2664 21.2367 44.5472 20.8503 44.5472Z" fill="url(#paint12_linear)"/>
<path d="M16.2432 6.37349C15.9312 6.37349 15.6352 6.19029 15.5064 5.88549C15.3344 5.47829 15.524 5.00869 15.9312 4.83669C17.4632 4.18869 19.0752 3.72629 20.724 3.46309C21.16 3.39189 21.5704 3.69109 21.64 4.12629C21.7096 4.56309 21.4128 4.97349 20.976 5.04309C19.4552 5.28629 17.9672 5.71269 16.5544 6.31029C16.452 6.35269 16.3472 6.37349 16.2432 6.37349Z" fill="url(#paint13_linear)"/>
<path d="M8.18307 12.5929C8.01267 12.5929 7.84067 12.5385 7.69507 12.4265C7.34467 12.1561 7.28067 11.6537 7.55027 11.3041C8.64067 9.89047 9.90947 8.62087 11.3215 7.53127C11.6711 7.26167 12.1727 7.32487 12.4439 7.67527C12.7135 8.02567 12.6495 8.52727 12.2999 8.79687C10.9959 9.80407 9.82387 10.9769 8.81667 12.2817C8.65907 12.4857 8.42227 12.5929 8.18307 12.5929Z" fill="url(#paint14_linear)"/>
<path d="M4.27829 21.6253C4.23589 21.6253 4.19429 21.6221 4.15109 21.6149C3.71509 21.5453 3.41749 21.1349 3.48709 20.6989C3.75029 19.0501 4.21189 17.4381 4.85989 15.9061C5.03189 15.4989 5.50069 15.3085 5.90869 15.4813C6.31589 15.6533 6.50629 16.1229 6.33349 16.5301C5.73589 17.9437 5.30949 19.4309 5.06709 20.9509C5.00469 21.3453 4.66469 21.6253 4.27829 21.6253Z" fill="url(#paint15_linear)"/>
</g>
<g filter="url(#filter0_d)">
<path d="M17.6241 27.1995C17.5017 27.1995 17.3793 27.1715 17.2665 27.1155L10.8665 23.9155C10.5953 23.7795 10.4241 23.5027 10.4241 23.1995V16.7996C10.4241 16.522 10.5681 16.2652 10.8033 16.1188C11.0393 15.9716 11.3345 15.9604 11.5817 16.0836L17.9817 19.2836C18.2529 19.4196 18.4241 19.6964 18.4241 19.9996V26.3995C18.4241 26.6771 18.2801 26.9339 18.0449 27.0803C17.9161 27.1595 17.7697 27.1995 17.6241 27.1995ZM12.0241 22.7051L16.8241 25.1051V20.4939L12.0241 18.094V22.7051Z" fill="url(#paint16_linear)"/>
<path d="M17.6241 27.1995C17.4777 27.1995 17.332 27.1595 17.2032 27.0803C16.968 26.9339 16.824 26.6771 16.824 26.3995V19.9996C16.824 19.6964 16.9952 19.4196 17.2664 19.2836L23.6664 16.0836C23.9144 15.9604 24.2088 15.9716 24.4448 16.1188C24.68 16.2652 24.824 16.522 24.824 16.7996V23.1995C24.824 23.5027 24.6528 23.7795 24.3816 23.9155L17.9816 27.1155C17.8688 27.1715 17.7465 27.1995 17.6241 27.1995ZM18.424 20.4939V25.1051L23.224 22.7051V18.094L18.424 20.4939Z" fill="url(#paint17_linear)"/>
<path d="M17.6241 20.7994C17.5017 20.7994 17.3785 20.7714 17.2665 20.7154L10.8665 17.5154C10.5953 17.3794 10.4241 17.1028 10.4241 16.7996C10.4241 16.4964 10.5953 16.2194 10.8665 16.0834L17.2665 12.8834C17.4913 12.7706 17.7569 12.7706 17.9825 12.8834L24.3825 16.0834C24.6537 16.2194 24.824 16.4964 24.824 16.7996C24.824 17.1028 24.6537 17.3794 24.3825 17.5154L17.9825 20.7154C17.8689 20.7714 17.7465 20.7994 17.6241 20.7994ZM13.0129 16.7994L17.6241 19.105L22.2353 16.7994L17.6241 14.4938L13.0129 16.7994Z" fill="url(#paint18_linear)"/>
<path d="M30.4241 27.1995C30.3017 27.1995 30.1793 27.1715 30.0665 27.1155L23.6665 23.9155C23.3953 23.7795 23.2241 23.5027 23.2241 23.1995V16.7996C23.2241 16.522 23.3681 16.2652 23.6033 16.1188C23.8393 15.9716 24.1353 15.9602 24.3825 16.0834L30.7817 19.2836C31.0529 19.4196 31.2241 19.6964 31.2241 19.9996V26.3995C31.2241 26.6771 31.0801 26.9339 30.8449 27.0803C30.7161 27.1595 30.5697 27.1995 30.4241 27.1995ZM24.8241 22.7051L29.6241 25.1051V20.4939L24.8241 18.094V22.7051Z" fill="url(#paint19_linear)"/>
<path d="M30.4241 27.1995C30.2777 27.1995 30.1321 27.1595 30.0033 27.0803C29.7681 26.9339 29.6241 26.6771 29.6241 26.3995V19.9996C29.6241 19.6964 29.7953 19.4196 30.0665 19.2836L36.4665 16.0836C36.7145 15.9604 37.0089 15.9716 37.2449 16.1188C37.4801 16.2652 37.6241 16.522 37.6241 16.7996V23.1995C37.6241 23.5027 37.4529 23.7795 37.1817 23.9155L30.7817 27.1155C30.6689 27.1715 30.5465 27.1995 30.4241 27.1995ZM31.2241 20.4939V25.1051L36.0241 22.7051V18.094L31.2241 20.4939Z" fill="url(#paint20_linear)"/>
<path d="M30.4241 20.7994C30.3017 20.7994 30.1785 20.7714 30.0665 20.7154L23.6665 17.5154C23.3953 17.3794 23.2241 17.1028 23.2241 16.7996C23.2241 16.4964 23.3952 16.2196 23.6664 16.0836L30.0665 12.8834C30.2913 12.7706 30.5569 12.7706 30.7825 12.8834L37.1825 16.0834C37.4537 16.2194 37.6241 16.4964 37.6241 16.7996C37.6241 17.1028 37.4537 17.3794 37.1825 17.5154L30.7825 20.7154C30.6689 20.7714 30.5465 20.7994 30.4241 20.7994ZM25.8129 16.7994L30.4241 19.105L35.0353 16.7994L30.4241 14.4938L25.8129 16.7994Z" fill="url(#paint21_linear)"/>
<path d="M24.024 36.8001C23.9016 36.8001 23.7792 36.7721 23.6664 36.7161L17.2664 33.5161C16.9952 33.3801 16.824 33.1033 16.824 32.8001V26.3995C16.824 26.1219 16.968 25.8657 17.2032 25.7193C17.4392 25.5721 17.7336 25.5609 17.9816 25.6841L24.3816 28.8841C24.6528 29.0201 24.824 29.2969 24.824 29.6001V36.0001C24.824 36.2777 24.68 36.5345 24.4448 36.6809C24.316 36.7601 24.1696 36.8001 24.024 36.8001ZM18.424 32.3057L23.224 34.7057V30.0945L18.424 27.6945V32.3057Z" fill="url(#paint22_linear)"/>
<path d="M24.024 36.8001C23.8776 36.8001 23.7321 36.7601 23.6033 36.6809C23.3681 36.5345 23.2241 36.2777 23.2241 36.0001V29.6001C23.2241 29.2969 23.3953 29.0201 23.6665 28.8841L30.0665 25.6841C30.3145 25.5609 30.6089 25.5721 30.8449 25.7193C31.0801 25.8657 31.2241 26.1219 31.2241 26.3995V32.8001C31.2241 33.1033 31.0529 33.3801 30.7817 33.5161L24.3817 36.7161C24.2689 36.7721 24.1464 36.8001 24.024 36.8001ZM24.8241 30.0945V34.7057L29.6241 32.3057V27.6945L24.8241 30.0945Z" fill="url(#paint23_linear)"/>
<path d="M24.024 30.4C23.9016 30.4 23.7784 30.372 23.6664 30.316L17.2665 27.1155C16.9953 26.9795 16.824 26.7027 16.824 26.3995C16.824 26.0963 16.9952 25.82 17.2664 25.684L23.6664 22.484C23.8912 22.3712 24.1568 22.3712 24.3824 22.484L30.7824 25.684C31.0536 25.82 31.2241 26.0963 31.2241 26.3995C31.2241 26.7027 31.0529 26.9795 30.7817 27.1155L24.3824 30.316C24.2688 30.372 24.1464 30.4 24.024 30.4ZM19.4128 26.4L24.024 28.7056L28.6352 26.4L24.024 24.0944L19.4128 26.4Z" fill="url(#paint24_linear)"/>
</g>
</g>
<defs>
<filter id="filter0_d" x="0.424072" y="2.79883" width="47.2001" height="44.0012" filterUnits="userSpaceOnUse" color-interpolation-filters="sRGB">
<feFlood flood-opacity="0" result="BackgroundImageFix"/>
<feColorMatrix in="SourceAlpha" type="matrix" values="0 0 0 0 0 0 0 0 0 0 0 0 0 0 0 0 0 0 127 0"/>
<feOffset/>
<feGaussianBlur stdDeviation="5"/>
<feColorMatrix type="matrix" values="0 0 0 0 0.882353 0 0 0 0 0.286275 0 0 0 0 0.278431 0 0 0 0.5 0"/>
<feBlend mode="normal" in2="BackgroundImageFix" result="effect1_dropShadow"/>
<feBlend mode="normal" in="SourceGraphic" in2="effect1_dropShadow" result="shape"/>
</filter>
<linearGradient id="paint0_linear" x1="24.024" y1="0" x2="24.024" y2="63.4282" gradientUnits="userSpaceOnUse">
<stop stop-color="#F55A5A"/>
<stop offset="1" stop-color="#C12E28"/>
</linearGradient>
<linearGradient id="paint1_linear" x1="24.024" y1="0" x2="24.024" y2="63.4282" gradientUnits="userSpaceOnUse">
<stop stop-color="#F55A5A"/>
<stop offset="1" stop-color="#C12E28"/>
</linearGradient>
<linearGradient id="paint2_linear" x1="24.024" y1="0" x2="24.024" y2="63.4282" gradientUnits="userSpaceOnUse">
<stop stop-color="#F55A5A"/>
<stop offset="1" stop-color="#C12E28"/>
</linearGradient>
<linearGradient id="paint3_linear" x1="24.024" y1="0" x2="24.024" y2="63.4282" gradientUnits="userSpaceOnUse">
<stop stop-color="#F55A5A"/>
<stop offset="1" stop-color="#C12E28"/>
</linearGradient>
<linearGradient id="paint4_linear" x1="24.024" y1="0" x2="24.024" y2="63.4282" gradientUnits="userSpaceOnUse">
<stop stop-color="#F55A5A"/>
<stop offset="1" stop-color="#C12E28"/>
</linearGradient>
<linearGradient id="paint5_linear" x1="24.024" y1="0" x2="24.024" y2="63.4282" gradientUnits="userSpaceOnUse">
<stop stop-color="#F55A5A"/>
<stop offset="1" stop-color="#C12E28"/>
</linearGradient>
<linearGradient id="paint6_linear" x1="24.024" y1="0" x2="24.024" y2="63.4282" gradientUnits="userSpaceOnUse">
<stop stop-color="#F55A5A"/>
<stop offset="1" stop-color="#C12E28"/>
</linearGradient>
<linearGradient id="paint7_linear" x1="24.024" y1="0" x2="24.024" y2="63.4282" gradientUnits="userSpaceOnUse">
<stop stop-color="#F55A5A"/>
<stop offset="1" stop-color="#C12E28"/>
</linearGradient>
<linearGradient id="paint8_linear" x1="24.024" y1="0" x2="24.024" y2="63.4282" gradientUnits="userSpaceOnUse">
<stop stop-color="#F55A5A"/>
<stop offset="1" stop-color="#C12E28"/>
</linearGradient>
<linearGradient id="paint9_linear" x1="24.024" y1="0" x2="24.024" y2="63.4282" gradientUnits="userSpaceOnUse">
<stop stop-color="#F55A5A"/>
<stop offset="1" stop-color="#C12E28"/>
</linearGradient>
<linearGradient id="paint10_linear" x1="24.024" y1="0" x2="24.024" y2="63.4282" gradientUnits="userSpaceOnUse">
<stop stop-color="#F55A5A"/>
<stop offset="1" stop-color="#C12E28"/>
</linearGradient>
<linearGradient id="paint11_linear" x1="24.024" y1="0" x2="24.024" y2="63.4282" gradientUnits="userSpaceOnUse">
<stop stop-color="#F55A5A"/>
<stop offset="1" stop-color="#C12E28"/>
</linearGradient>
<linearGradient id="paint12_linear" x1="24.024" y1="0" x2="24.024" y2="63.4282" gradientUnits="userSpaceOnUse">
<stop stop-color="#F55A5A"/>
<stop offset="1" stop-color="#C12E28"/>
</linearGradient>
<linearGradient id="paint13_linear" x1="24.024" y1="0" x2="24.024" y2="63.4282" gradientUnits="userSpaceOnUse">
<stop stop-color="#F55A5A"/>
<stop offset="1" stop-color="#C12E28"/>
</linearGradient>
<linearGradient id="paint14_linear" x1="24.024" y1="0" x2="24.024" y2="63.4282" gradientUnits="userSpaceOnUse">
<stop stop-color="#F55A5A"/>
<stop offset="1" stop-color="#C12E28"/>
</linearGradient>
<linearGradient id="paint15_linear" x1="24.024" y1="0" x2="24.024" y2="63.4282" gradientUnits="userSpaceOnUse">
<stop stop-color="#F55A5A"/>
<stop offset="1" stop-color="#C12E28"/>
</linearGradient>
<linearGradient id="paint16_linear" x1="24.0241" y1="12.7988" x2="24.0241" y2="44.5147" gradientUnits="userSpaceOnUse">
<stop stop-color="#F55A5A"/>
<stop offset="1" stop-color="#C12E28"/>
</linearGradient>
<linearGradient id="paint17_linear" x1="24.0241" y1="12.7988" x2="24.0241" y2="44.5147" gradientUnits="userSpaceOnUse">
<stop stop-color="#F55A5A"/>
<stop offset="1" stop-color="#C12E28"/>
</linearGradient>
<linearGradient id="paint18_linear" x1="24.0241" y1="12.7988" x2="24.0241" y2="44.5147" gradientUnits="userSpaceOnUse">
<stop stop-color="#F55A5A"/>
<stop offset="1" stop-color="#C12E28"/>
</linearGradient>
<linearGradient id="paint19_linear" x1="24.0241" y1="12.7988" x2="24.0241" y2="44.5147" gradientUnits="userSpaceOnUse">
<stop stop-color="#F55A5A"/>
<stop offset="1" stop-color="#C12E28"/>
</linearGradient>
<linearGradient id="paint20_linear" x1="24.0241" y1="12.7988" x2="24.0241" y2="44.5147" gradientUnits="userSpaceOnUse">
<stop stop-color="#F55A5A"/>
<stop offset="1" stop-color="#C12E28"/>
</linearGradient>
<linearGradient id="paint21_linear" x1="24.0241" y1="12.7988" x2="24.0241" y2="44.5147" gradientUnits="userSpaceOnUse">
<stop stop-color="#F55A5A"/>
<stop offset="1" stop-color="#C12E28"/>
</linearGradient>
<linearGradient id="paint22_linear" x1="24.0241" y1="12.7988" x2="24.0241" y2="44.5147" gradientUnits="userSpaceOnUse">
<stop stop-color="#F55A5A"/>
<stop offset="1" stop-color="#C12E28"/>
</linearGradient>
<linearGradient id="paint23_linear" x1="24.0241" y1="12.7988" x2="24.0241" y2="44.5147" gradientUnits="userSpaceOnUse">
<stop stop-color="#F55A5A"/>
<stop offset="1" stop-color="#C12E28"/>
</linearGradient>
<linearGradient id="paint24_linear" x1="24.0241" y1="12.7988" x2="24.0241" y2="44.5147" gradientUnits="userSpaceOnUse">
<stop stop-color="#F55A5A"/>
<stop offset="1" stop-color="#C12E28"/>
</linearGradient>
<clipPath id="clip0">
<rect width="48" height="48" fill="white"/>
</clipPath>
</defs>
</svg>
