<svg width="21" height="21" viewBox="0 0 21 21" fill="none" xmlns="http://www.w3.org/2000/svg">
<path opacity="0.2" d="M18.9 10.5C18.9 15.12 15.12 18.9 10.5 18.9C5.88 18.9 2.1 15.12 2.1 10.5C2.1 5.88 5.88 2.1 10.5 2.1C11.34 2.1 12.075 2.205 12.81 2.415L14.49 0.735C13.23 0.315 11.865 0 10.5 0C4.725 0 0 4.725 0 10.5C0 16.275 4.725 21 10.5 21C16.275 21 21 16.275 21 10.5H18.9Z" fill="white"/>
<path d="M6.1951 8.50498L4.7251 9.97498L9.4501 14.7L19.9501 4.19998L18.4801 2.72998L9.4501 11.76L6.1951 8.50498Z" fill="white"/>
</svg>
