<svg width="48" height="48" viewBox="0 0 48 48" fill="none" xmlns="http://www.w3.org/2000/svg">
<g clip-path="url(#clip0)">
<path opacity="0.5" d="M44.4 48H3.6C1.6152 48 0 46.3848 0 44.4V3.6C0 1.6152 1.6152 0 3.6 0H44.4C46.3848 0 48 1.6152 48 3.6V44.4C48 46.3848 46.3848 48 44.4 48ZM3.6 1.6C2.4976 1.6 1.6 2.4976 1.6 3.6V44.4C1.6 45.5024 2.4976 46.4 3.6 46.4H44.4C45.5032 46.4 46.4 45.5024 46.4 44.4V3.6C46.4 2.4976 45.5024 1.6 44.4 1.6H3.6Z" fill="url(#paint0_linear)"/>
<path opacity="0.5" d="M7.19995 7.99922H3.99995C3.55835 7.99922 3.19995 7.64082 3.19995 7.19922V3.99922C3.19995 3.55762 3.55835 3.19922 3.99995 3.19922H7.19995C7.64155 3.19922 7.99995 3.55762 7.99995 3.99922V7.19922C7.99995 7.64082 7.64155 7.99922 7.19995 7.99922ZM4.79995 6.39922H6.39995V4.79922H4.79995V6.39922Z" fill="url(#paint1_linear)"/>
<path opacity="0.5" d="M13.6001 7.99922H10.4001C9.9585 7.99922 9.6001 7.64082 9.6001 7.19922V3.99922C9.6001 3.55762 9.9585 3.19922 10.4001 3.19922H13.6001C14.0417 3.19922 14.4001 3.55762 14.4001 3.99922V7.19922C14.4001 7.64082 14.0417 7.99922 13.6001 7.99922ZM11.2001 6.39922H12.8001V4.79922H11.2001V6.39922Z" fill="url(#paint2_linear)"/>
<path opacity="0.5" d="M20 7.99922H16.8C16.3584 7.99922 16 7.64082 16 7.19922V3.99922C16 3.55762 16.3584 3.19922 16.8 3.19922H20C20.4416 3.19922 20.8 3.55762 20.8 3.99922V7.19922C20.8 7.64082 20.4416 7.99922 20 7.99922ZM17.6 6.39922H19.2V4.79922H17.6V6.39922Z" fill="url(#paint3_linear)"/>
<path opacity="0.5" d="M47.2 11.2H0.8C0.3584 11.2 0 10.8416 0 10.4V3.6C0 1.6152 1.6152 0 3.6 0H44.4C46.3848 0 48 1.6152 48 3.6V10.4C48 10.8416 47.6416 11.2 47.2 11.2ZM1.6 9.6H46.4V3.6C46.4 2.4976 45.5024 1.6 44.4 1.6H3.6C2.4976 1.6 1.6 2.4976 1.6 3.6V9.6Z" fill="url(#paint4_linear)"/>
<g filter="url(#filter0_d)">
<path d="M21.6001 30.3998H4.00009C3.55849 30.3998 3.20009 30.0414 3.20009 29.5998V13.5998C3.20009 13.1582 3.55849 12.7998 4.00009 12.7998H21.6001C22.0417 12.7998 22.4001 13.1582 22.4001 13.5998V29.5998C22.4001 30.0414 22.0417 30.3998 21.6001 30.3998ZM4.80009 28.7998H20.8001V14.3998H4.80009V28.7998Z" fill="url(#paint5_linear)"/>
<path d="M12.8001 30.3995C12.5953 30.3995 12.3905 30.3211 12.2345 30.1651L8.00015 25.9307L4.56575 29.3651C4.25295 29.6779 3.74735 29.6779 3.43455 29.3651C3.12175 29.0523 3.12175 28.5467 3.43455 28.2339L7.43455 24.2339C7.74735 23.9211 8.25295 23.9211 8.56575 24.2339L13.3657 29.0339C13.6785 29.3467 13.6785 29.8523 13.3657 30.1651C13.2097 30.3211 13.0049 30.3995 12.8001 30.3995Z" fill="url(#paint6_linear)"/>
<path d="M9.60012 22.3994C7.83532 22.3994 6.40012 20.9642 6.40012 19.1994C6.40012 17.4346 7.83532 15.9994 9.60012 15.9994C11.3649 15.9994 12.8001 17.4346 12.8001 19.1994C12.8001 20.9642 11.3649 22.3994 9.60012 22.3994ZM9.60012 17.5994C8.71772 17.5994 8.00012 18.317 8.00012 19.1994C8.00012 20.0818 8.71772 20.7994 9.60012 20.7994C10.4825 20.7994 11.2001 20.0818 11.2001 19.1994C11.2001 18.317 10.4825 17.5994 9.60012 17.5994Z" fill="url(#paint7_linear)"/>
<path d="M21.6 28.7996C21.3952 28.7996 21.1904 28.7212 21.0344 28.5652L16.0248 23.5557L11.62 28.3572C11.3216 28.6836 10.816 28.7052 10.4896 28.406C10.164 28.1076 10.1416 27.6012 10.4408 27.2756L15.4096 21.8589C15.5568 21.6981 15.764 21.6045 15.9816 21.5997C16.2024 21.5901 16.4104 21.6797 16.5648 21.8341L22.1648 27.434C22.4776 27.7468 22.4776 28.2524 22.1648 28.5652C22.0096 28.7212 21.8048 28.7996 21.6 28.7996Z" fill="url(#paint8_linear)"/>
<path d="M44.0001 44.7993H26.4001C25.9585 44.7993 25.6001 44.4409 25.6001 43.9993V27.9993C25.6001 27.5577 25.9585 27.1993 26.4001 27.1993H44.0001C44.4417 27.1993 44.8001 27.5577 44.8001 27.9993V43.9993C44.8001 44.4409 44.4417 44.7993 44.0001 44.7993ZM27.2001 43.1993H43.2001V28.7993H27.2001V43.1993Z" fill="url(#paint9_linear)"/>
<path d="M35.2002 44.7999C34.9954 44.7999 34.7906 44.7215 34.6346 44.5655L30.4002 40.3311L26.9658 43.7655C26.653 44.0783 26.1474 44.0783 25.8346 43.7655C25.5218 43.4527 25.5218 42.9471 25.8346 42.6343L29.8346 38.6343C30.1474 38.3215 30.653 38.3215 30.9658 38.6343L35.7658 43.4343C36.0786 43.7471 36.0786 44.2527 35.7658 44.5655C35.6098 44.7215 35.405 44.7999 35.2002 44.7999Z" fill="url(#paint10_linear)"/>
<path d="M32.0001 36.7998C30.2353 36.7998 28.8001 35.3646 28.8001 33.5998C28.8001 31.8349 30.2353 30.3997 32.0001 30.3997C33.7649 30.3997 35.2001 31.8349 35.2001 33.5998C35.2001 35.3646 33.7649 36.7998 32.0001 36.7998ZM32.0001 31.9998C31.1177 31.9998 30.4001 32.7174 30.4001 33.5998C30.4001 34.4822 31.1177 35.1998 32.0001 35.1998C32.8825 35.1998 33.6001 34.4822 33.6001 33.5998C33.6001 32.7174 32.8825 31.9998 32.0001 31.9998Z" fill="url(#paint11_linear)"/>
<path d="M44.0002 43.2001C43.7954 43.2001 43.5906 43.1217 43.4346 42.9657L38.425 37.9561L34.0202 42.7577C33.7218 43.0841 33.2162 43.1057 32.8898 42.8065C32.5642 42.5081 32.5418 42.0017 32.841 41.6761L37.8098 36.2593C37.957 36.0985 38.1642 36.0049 38.3818 36.0001C38.5954 35.9913 38.8106 36.0801 38.965 36.2345L44.565 41.8345C44.8778 42.1473 44.8778 42.6529 44.565 42.9657C44.4098 43.1217 44.205 43.2001 44.0002 43.2001Z" fill="url(#paint12_linear)"/>
<path d="M39.2001 17.5994H26.4001C25.9585 17.5994 25.6001 17.241 25.6001 16.7994C25.6001 16.3578 25.9585 15.9994 26.4001 15.9994H39.2001C39.6417 15.9994 40.0001 16.3578 40.0001 16.7994C40.0001 17.241 39.6417 17.5994 39.2001 17.5994Z" fill="url(#paint13_linear)"/>
<path d="M44 17.5994H42.4C41.9584 17.5994 41.6 17.241 41.6 16.7994C41.6 16.3578 41.9584 15.9994 42.4 15.9994H44C44.4416 15.9994 44.8 16.3578 44.8 16.7994C44.8 17.241 44.4416 17.5994 44 17.5994Z" fill="url(#paint14_linear)"/>
<path d="M39.2001 23.9995H26.4001C25.9585 23.9995 25.6001 23.6411 25.6001 23.1995C25.6001 22.7579 25.9585 22.3995 26.4001 22.3995H39.2001C39.6417 22.3995 40.0001 22.7579 40.0001 23.1995C40.0001 23.6411 39.6417 23.9995 39.2001 23.9995Z" fill="url(#paint15_linear)"/>
<path d="M44 23.9995H42.4C41.9584 23.9995 41.6 23.6411 41.6 23.1995C41.6 22.7579 41.9584 22.3995 42.4 22.3995H44C44.4416 22.3995 44.8 22.7579 44.8 23.1995C44.8 23.6411 44.4416 23.9995 44 23.9995Z" fill="url(#paint16_linear)"/>
<path d="M44.0001 20.7999H31.2001C30.7585 20.7999 30.4001 20.4415 30.4001 19.9999C30.4001 19.5583 30.7585 19.1999 31.2001 19.1999H44.0001C44.4417 19.1999 44.8001 19.5583 44.8001 19.9999C44.8001 20.4415 44.4417 20.7999 44.0001 20.7999Z" fill="url(#paint17_linear)"/>
<path d="M28.0001 20.7999H26.4001C25.9585 20.7999 25.6001 20.4415 25.6001 19.9999C25.6001 19.5583 25.9585 19.1999 26.4001 19.1999H28.0001C28.4417 19.1999 28.8001 19.5583 28.8001 19.9999C28.8001 20.4415 28.4417 20.7999 28.0001 20.7999Z" fill="url(#paint18_linear)"/>
<path d="M16.8001 35.1993H4.00009C3.55849 35.1993 3.20009 34.8409 3.20009 34.3993C3.20009 33.9577 3.55849 33.5993 4.00009 33.5993H16.8001C17.2417 33.5993 17.6001 33.9577 17.6001 34.3993C17.6001 34.8409 17.2417 35.1993 16.8001 35.1993Z" fill="url(#paint19_linear)"/>
<path d="M21.6 35.1993H20C19.5584 35.1993 19.2 34.8409 19.2 34.3993C19.2 33.9577 19.5584 33.5993 20 33.5993H21.6C22.0416 33.5993 22.4 33.9577 22.4 34.3993C22.4 34.8409 22.0416 35.1993 21.6 35.1993Z" fill="url(#paint20_linear)"/>
<path d="M16.8001 41.5994H4.00009C3.55849 41.5994 3.20009 41.241 3.20009 40.7994C3.20009 40.3578 3.55849 39.9994 4.00009 39.9994H16.8001C17.2417 39.9994 17.6001 40.3578 17.6001 40.7994C17.6001 41.241 17.2417 41.5994 16.8001 41.5994Z" fill="url(#paint21_linear)"/>
<path d="M21.6 41.5994H20C19.5584 41.5994 19.2 41.241 19.2 40.7994C19.2 40.3578 19.5584 39.9994 20 39.9994H21.6C22.0416 39.9994 22.4 40.3578 22.4 40.7994C22.4 41.241 22.0416 41.5994 21.6 41.5994Z" fill="url(#paint22_linear)"/>
<path d="M21.6001 38.3998H8.80014C8.35854 38.3998 8.00014 38.0414 8.00014 37.5998C8.00014 37.1582 8.35854 36.7998 8.80014 36.7998H21.6001C22.0417 36.7998 22.4001 37.1582 22.4001 37.5998C22.4001 38.0414 22.0417 38.3998 21.6001 38.3998Z" fill="url(#paint23_linear)"/>
<path d="M5.6001 38.3998H4.00009C3.55849 38.3998 3.20009 38.0414 3.20009 37.5998C3.20009 37.1582 3.55849 36.7998 4.00009 36.7998H5.6001C6.0417 36.7998 6.4001 37.1582 6.4001 37.5998C6.4001 38.0414 6.0417 38.3998 5.6001 38.3998Z" fill="url(#paint24_linear)"/>
</g>
</g>
<defs>
<filter id="filter0_d" x="-26.8" y="-17.2002" width="101.6" height="92.0001" filterUnits="userSpaceOnUse" color-interpolation-filters="sRGB">
<feFlood flood-opacity="0" result="BackgroundImageFix"/>
<feColorMatrix in="SourceAlpha" type="matrix" values="0 0 0 0 0 0 0 0 0 0 0 0 0 0 0 0 0 0 127 0"/>
<feOffset/>
<feGaussianBlur stdDeviation="15"/>
<feColorMatrix type="matrix" values="0 0 0 0 0.882353 0 0 0 0 0.286275 0 0 0 0 0.278431 0 0 0 0.2 0"/>
<feBlend mode="normal" in2="BackgroundImageFix" result="effect1_dropShadow"/>
<feBlend mode="normal" in="SourceGraphic" in2="effect1_dropShadow" result="shape"/>
</filter>
<linearGradient id="paint0_linear" x1="24" y1="0" x2="24" y2="63.4286" gradientUnits="userSpaceOnUse">
<stop stop-color="#F55A5A"/>
<stop offset="1" stop-color="#C12E28"/>
</linearGradient>
<linearGradient id="paint1_linear" x1="5.59995" y1="3.19922" x2="5.59995" y2="9.54208" gradientUnits="userSpaceOnUse">
<stop stop-color="#F55A5A"/>
<stop offset="1" stop-color="#C12E28"/>
</linearGradient>
<linearGradient id="paint2_linear" x1="12.0001" y1="3.19922" x2="12.0001" y2="9.54208" gradientUnits="userSpaceOnUse">
<stop stop-color="#F55A5A"/>
<stop offset="1" stop-color="#C12E28"/>
</linearGradient>
<linearGradient id="paint3_linear" x1="18.4" y1="3.19922" x2="18.4" y2="9.54208" gradientUnits="userSpaceOnUse">
<stop stop-color="#F55A5A"/>
<stop offset="1" stop-color="#C12E28"/>
</linearGradient>
<linearGradient id="paint4_linear" x1="24" y1="0" x2="24" y2="14.8" gradientUnits="userSpaceOnUse">
<stop stop-color="#F55A5A"/>
<stop offset="1" stop-color="#C12E28"/>
</linearGradient>
<linearGradient id="paint5_linear" x1="24" y1="12.7998" x2="24" y2="55.0856" gradientUnits="userSpaceOnUse">
<stop stop-color="#F55A5A"/>
<stop offset="1" stop-color="#C12E28"/>
</linearGradient>
<linearGradient id="paint6_linear" x1="24" y1="12.7998" x2="24" y2="55.0856" gradientUnits="userSpaceOnUse">
<stop stop-color="#F55A5A"/>
<stop offset="1" stop-color="#C12E28"/>
</linearGradient>
<linearGradient id="paint7_linear" x1="24" y1="12.7998" x2="24" y2="55.0856" gradientUnits="userSpaceOnUse">
<stop stop-color="#F55A5A"/>
<stop offset="1" stop-color="#C12E28"/>
</linearGradient>
<linearGradient id="paint8_linear" x1="24" y1="12.7998" x2="24" y2="55.0856" gradientUnits="userSpaceOnUse">
<stop stop-color="#F55A5A"/>
<stop offset="1" stop-color="#C12E28"/>
</linearGradient>
<linearGradient id="paint9_linear" x1="24" y1="12.7998" x2="24" y2="55.0856" gradientUnits="userSpaceOnUse">
<stop stop-color="#F55A5A"/>
<stop offset="1" stop-color="#C12E28"/>
</linearGradient>
<linearGradient id="paint10_linear" x1="24" y1="12.7998" x2="24" y2="55.0856" gradientUnits="userSpaceOnUse">
<stop stop-color="#F55A5A"/>
<stop offset="1" stop-color="#C12E28"/>
</linearGradient>
<linearGradient id="paint11_linear" x1="24" y1="12.7998" x2="24" y2="55.0856" gradientUnits="userSpaceOnUse">
<stop stop-color="#F55A5A"/>
<stop offset="1" stop-color="#C12E28"/>
</linearGradient>
<linearGradient id="paint12_linear" x1="24" y1="12.7998" x2="24" y2="55.0856" gradientUnits="userSpaceOnUse">
<stop stop-color="#F55A5A"/>
<stop offset="1" stop-color="#C12E28"/>
</linearGradient>
<linearGradient id="paint13_linear" x1="24" y1="12.7998" x2="24" y2="55.0856" gradientUnits="userSpaceOnUse">
<stop stop-color="#F55A5A"/>
<stop offset="1" stop-color="#C12E28"/>
</linearGradient>
<linearGradient id="paint14_linear" x1="24" y1="12.7998" x2="24" y2="55.0856" gradientUnits="userSpaceOnUse">
<stop stop-color="#F55A5A"/>
<stop offset="1" stop-color="#C12E28"/>
</linearGradient>
<linearGradient id="paint15_linear" x1="24" y1="12.7998" x2="24" y2="55.0856" gradientUnits="userSpaceOnUse">
<stop stop-color="#F55A5A"/>
<stop offset="1" stop-color="#C12E28"/>
</linearGradient>
<linearGradient id="paint16_linear" x1="24" y1="12.7998" x2="24" y2="55.0856" gradientUnits="userSpaceOnUse">
<stop stop-color="#F55A5A"/>
<stop offset="1" stop-color="#C12E28"/>
</linearGradient>
<linearGradient id="paint17_linear" x1="24" y1="12.7998" x2="24" y2="55.0856" gradientUnits="userSpaceOnUse">
<stop stop-color="#F55A5A"/>
<stop offset="1" stop-color="#C12E28"/>
</linearGradient>
<linearGradient id="paint18_linear" x1="24" y1="12.7998" x2="24" y2="55.0856" gradientUnits="userSpaceOnUse">
<stop stop-color="#F55A5A"/>
<stop offset="1" stop-color="#C12E28"/>
</linearGradient>
<linearGradient id="paint19_linear" x1="24" y1="12.7998" x2="24" y2="55.0856" gradientUnits="userSpaceOnUse">
<stop stop-color="#F55A5A"/>
<stop offset="1" stop-color="#C12E28"/>
</linearGradient>
<linearGradient id="paint20_linear" x1="24" y1="12.7998" x2="24" y2="55.0856" gradientUnits="userSpaceOnUse">
<stop stop-color="#F55A5A"/>
<stop offset="1" stop-color="#C12E28"/>
</linearGradient>
<linearGradient id="paint21_linear" x1="24" y1="12.7998" x2="24" y2="55.0856" gradientUnits="userSpaceOnUse">
<stop stop-color="#F55A5A"/>
<stop offset="1" stop-color="#C12E28"/>
</linearGradient>
<linearGradient id="paint22_linear" x1="24" y1="12.7998" x2="24" y2="55.0856" gradientUnits="userSpaceOnUse">
<stop stop-color="#F55A5A"/>
<stop offset="1" stop-color="#C12E28"/>
</linearGradient>
<linearGradient id="paint23_linear" x1="24" y1="12.7998" x2="24" y2="55.0856" gradientUnits="userSpaceOnUse">
<stop stop-color="#F55A5A"/>
<stop offset="1" stop-color="#C12E28"/>
</linearGradient>
<linearGradient id="paint24_linear" x1="24" y1="12.7998" x2="24" y2="55.0856" gradientUnits="userSpaceOnUse">
<stop stop-color="#F55A5A"/>
<stop offset="1" stop-color="#C12E28"/>
</linearGradient>
<clipPath id="clip0">
<rect width="48" height="48" fill="white"/>
</clipPath>
</defs>
</svg>
