<svg width="60" height="60" viewBox="0 0 60 60" fill="none" xmlns="http://www.w3.org/2000/svg">
    <path d="M39.895 20.5735C39.3397 20.4225 38.7675 20.4188 38.2246 20.5575L36.4008 17.3701L34.8733 18.244L36.697 21.4319C36.3024 21.8292 36.015 22.3245 35.8639 22.8798C35.6336 23.7262 35.7467 24.6115 36.1825 25.3727L37.0976 26.9726C37.5329 27.7339 38.2392 28.28 39.0856 28.5107C39.3722 28.5885 39.6638 28.6274 39.9531 28.6274C40.2241 28.6274 40.4933 28.5931 40.756 28.5263L41.1149 29.153C40.1042 30.1756 39.8515 31.786 40.5995 33.0934L41.5145 34.6933C41.9503 35.4545 42.6562 36.0006 43.5026 36.2309C43.7892 36.3092 44.0807 36.3476 44.3701 36.3476C44.6411 36.3476 44.9107 36.3138 45.173 36.2465L47.01 39.4577L48.538 38.5838L46.7001 35.3717C47.7108 34.3495 47.9635 32.7386 47.2155 31.4317L46.3004 29.8318C45.5525 28.5244 44.0359 27.9261 42.6425 28.2791L42.2836 27.6524C42.6786 27.2546 42.9656 26.7598 43.1167 26.2045C43.347 25.3581 43.2339 24.4723 42.7981 23.7111L41.883 22.1116C41.4477 21.3499 40.7414 20.8038 39.895 20.5735ZM44.7724 30.7057L45.688 32.3056C45.9425 32.7505 45.9471 33.2715 45.7466 33.7045L45.2348 32.8105L43.7072 33.6844L44.2195 34.5793C44.1343 34.571 44.0492 34.5555 43.9649 34.5326C43.5722 34.4259 43.2444 34.1723 43.0421 33.8189L42.127 32.2195C41.8725 31.7741 41.8675 31.2532 42.0684 30.8201L42.593 31.737L44.121 30.8632L43.596 29.9458C44.0711 29.9925 44.5179 30.2607 44.7724 30.7057ZM40.8178 25.0903L39.2903 25.9642L39.802 26.8591C39.7169 26.8509 39.6317 26.8353 39.5475 26.8124C39.1548 26.7053 38.827 26.4521 38.6251 26.0988L37.7101 24.4989C37.5077 24.1455 37.4551 23.7344 37.5622 23.3416C37.5851 23.2574 37.6148 23.1764 37.6505 23.0986L38.1761 24.0168L39.7036 23.1425L39.179 22.2256C39.6542 22.2719 40.101 22.5401 40.3555 22.985L41.2705 24.5849C41.4729 24.9383 41.5255 25.3489 41.4184 25.7422C41.3955 25.8264 41.3658 25.9074 41.33 25.9852L40.8178 25.0903Z" fill="#F55A5A"/>
    <path d="M13.0366 39.4577L14.8745 36.2455C15.1391 36.3124 15.4087 36.3453 15.6765 36.3453C16.8168 36.3453 17.9264 35.7516 18.532 34.6928L19.4476 33.0934C19.8829 32.3321 19.996 31.4464 19.7657 30.5999C19.6147 30.0447 19.3272 29.5498 18.9326 29.152L19.2915 28.5254C19.5565 28.5922 19.8257 28.6252 20.0935 28.6252C21.2338 28.6252 22.3434 28.0314 22.9495 26.9726L23.8645 25.3727C24.6125 24.0658 24.3598 22.4554 23.3491 21.4328L25.1737 18.244L23.6462 17.3701L21.8215 20.5589C20.4281 20.2055 18.9115 20.8043 18.1635 22.1112L17.2485 23.7111C16.5005 25.0184 16.7532 26.6288 17.7639 27.651L17.405 28.2782C16.8621 28.1395 16.2899 28.1427 15.7346 28.2937C14.8882 28.524 14.1824 29.0701 13.7466 29.8314L12.8315 31.4312C12.0835 32.7386 12.3362 34.349 13.3465 35.3717L11.509 38.5833L13.0366 39.4577ZM18.6282 25.7422C18.5215 25.3489 18.5737 24.9383 18.776 24.5849L19.6911 22.985C19.9456 22.5401 20.3924 22.2723 20.868 22.2256L20.3434 23.143L21.871 24.0168L22.3956 23.0995C22.5965 23.533 22.5919 24.0539 22.337 24.4989L21.4219 26.0988C21.1669 26.5437 20.7206 26.812 20.245 26.8582L20.7563 25.9646L19.2288 25.0903L18.717 25.9852C18.6808 25.9074 18.6511 25.8264 18.6282 25.7422ZM14.3591 32.3056L15.2741 30.7057C15.4765 30.3523 15.8038 30.0987 16.1965 29.992C16.2808 29.9691 16.3659 29.9536 16.451 29.9453L15.926 30.8632L17.4536 31.737L17.9781 30.8201C18.1791 31.2532 18.1745 31.7741 17.92 32.2195L17.0045 33.8189C16.75 34.2643 16.3032 34.5321 15.828 34.5788L16.3394 33.6848L14.8118 32.8109L14.3005 33.705C14.0995 33.2715 14.1041 32.7505 14.3591 32.3056Z" fill="#F55A5A"/>
    <path d="M38.8578 48.7181L42.5305 48.7076L42.5254 46.9475L38.8514 46.958C38.4628 45.5774 37.192 44.563 35.6901 44.563H35.6805L33.8375 44.5685C32.3315 44.5726 31.0616 45.5957 30.6803 46.9814L29.958 46.9836C29.8074 46.4439 29.519 45.9496 29.1107 45.544C28.4908 44.9278 27.6692 44.5886 26.7953 44.5886H26.7857L24.9427 44.5937C24.0656 44.5964 23.2421 44.9402 22.6237 45.5623C22.2177 45.9706 21.932 46.4664 21.7846 47.007L18.085 47.0175L18.09 48.7772L21.7906 48.7666C22.1792 50.1477 23.4504 51.1617 24.9523 51.1617H24.9615L26.8044 51.1562C27.6815 51.1539 28.5055 50.8096 29.1239 50.188C29.5295 49.7797 29.8152 49.2839 29.963 48.7433L30.684 48.741C30.8346 49.2807 31.1234 49.7751 31.5313 50.1811C32.1511 50.7973 32.9728 51.136 33.8467 51.136H33.8563L35.6992 51.131C36.5763 51.1282 37.4003 50.7845 38.0187 50.1624C38.4243 49.7545 38.71 49.2587 38.8578 48.7181ZM27.8761 48.947C27.5891 49.2358 27.2068 49.3951 26.7999 49.3965L24.9569 49.4016H24.9523C24.4415 49.4016 23.9878 49.1489 23.7113 48.7611L24.7413 48.7584L24.7363 46.9983L23.7049 47.0015C23.7544 46.9315 23.8098 46.8651 23.8716 46.8033C24.1586 46.5144 24.5408 46.3551 24.9478 46.3538L26.7907 46.3483H26.7953C27.2009 46.3483 27.5822 46.5057 27.8697 46.7918C27.9319 46.8532 27.9878 46.9191 28.0377 46.9891L26.9798 46.9919L26.9848 48.752L28.0427 48.7488C27.9933 48.8188 27.9374 48.8852 27.8761 48.947ZM35.6942 49.3709L33.8513 49.3764H33.8467C33.4411 49.3764 33.0598 49.2189 32.7723 48.9333C32.7105 48.8715 32.6542 48.8055 32.6048 48.736L33.6357 48.7328L33.6306 46.9731L32.6006 46.9759C32.8758 46.5858 33.3299 46.33 33.8426 46.3281L35.6855 46.3231H35.6901C36.201 46.3231 36.6541 46.5758 36.9311 46.9635L35.8746 46.9667L35.8796 48.7263L36.937 48.7236C36.8876 48.7936 36.8322 48.8596 36.7704 48.9218C36.4834 49.2102 36.1012 49.37 35.6942 49.3709Z" fill="#F55A5A"/>
    <path d="M30.9032 24.8207V15.0745L39.3439 10.2011L38.4637 8.67725L30.0234 13.5501L21.5832 8.67725L20.7029 10.2011L29.1436 15.0745V24.8207H30.9032Z" fill="#F55A5A"/>
    <path d="M56.3274 39.5342L47.8894 44.4117L39.4455 39.542L38.5662 41.0663L47.0101 45.936L47.0146 55.6823L48.7743 55.6818L48.7702 45.9355L57.2081 41.0576L56.3274 39.5342Z" fill="#F55A5A"/>
    <path d="M12.9876 55.6196V45.8733L21.4279 41.0004L20.5481 39.4765L12.1078 44.3494L3.6662 39.4761L2.78638 41.0004L11.2275 45.8733V55.6196H12.9876Z" fill="#F55A5A"/>
    <path opacity="0.5" d="M19.6761 8.59222L30.0234 2.61795L40.3707 8.59222V19.5433H42.1308V7.57599L30.0234 0.585938L17.9165 7.57599V19.5433H19.6761V8.59222Z" fill="#F55A5A"/>
    <path opacity="0.5" d="M30.0233 28.5462L34.8839 25.7401L34.004 24.2162L30.0233 26.5142L26.0417 24.2153L25.1619 25.7392L30.0233 28.5462Z" fill="#F55A5A"/>
    <path opacity="0.5" d="M12.1074 57.3136L1.7601 51.3393V39.3912L11.3722 33.8417L10.4924 32.3174L0 38.3754V52.3555L12.1074 59.3456L23.2814 52.8943L22.4016 51.37L12.1074 57.3136Z" fill="#F55A5A"/>
    <path opacity="0.5" d="M24.2143 43.4084V38.3753L19.4907 35.6479L18.6108 37.1723L22.4547 39.3911V43.4084H24.2143Z" fill="#F55A5A"/>
    <path opacity="0.5" d="M59.9932 38.4316L49.553 32.4106L48.6736 33.935L58.234 39.4483L58.24 51.3964L47.8954 57.3757L37.7798 51.542L36.9004 53.0663L47.8963 59.4077L60.0001 52.4117L59.9932 38.4316Z" fill="#F55A5A"/>
    <path opacity="0.5" d="M40.5771 35.6699L35.7788 38.4435L35.7811 43.1969L37.5412 43.196L37.5389 39.4588L41.4578 37.1934L40.5771 35.6699Z" fill="#F55A5A"/>
    <path d="M24.5005 9.20719L23.6184 7.68421L25.1409 6.8021L26.0235 8.32462L24.5005 9.20719ZM34.9444 8.84601L30.0244 6.00559L29.5762 6.2656L28.6936 4.74262L30.0225 3.97266L35.8247 7.32212L34.9444 8.84601ZM27.0384 7.73639L26.1562 6.21341L27.6788 5.3313L28.5609 6.85382L27.0384 7.73639Z" fill="#F55A5A"/>
    <path d="M51.2667 54.0716L50.386 52.5482L55.3047 49.705L55.3037 49.1868L57.0634 49.1831L57.0666 50.7189L51.2667 54.0716ZM55.301 48.0135L55.2973 46.2539L57.057 46.2498L57.0611 48.0099L55.301 48.0135ZM55.2946 45.0807L55.2909 43.3206L57.051 43.3169L57.0547 45.0765L55.2946 45.0807Z" fill="#F55A5A"/>
    <path d="M9.35028 54.3529L2.93335 50.6624V48.8218H4.69299V49.6448L10.2274 52.8277L9.35028 54.3529ZM2.93335 47.6485V45.8884H4.69299V47.6481L2.93335 47.6485ZM4.69299 44.7152H2.93335V42.9551H4.69299V44.7152Z" fill="#F55A5A"/>
</svg>
