<svg width="60" height="60" viewBox="0 0 60 60" fill="none" xmlns="http://www.w3.org/2000/svg">
    <path d="M57.1875 37.5C57.4361 37.5 57.6746 37.4012 57.8504 37.2254C58.0262 37.0496 58.125 36.8111 58.125 36.5625V32.8125C58.125 32.5639 58.0262 32.3254 57.8504 32.1496C57.6746 31.9738 57.4361 31.875 57.1875 31.875H53.0647C51.8795 31.8738 50.7117 31.5903 49.658 31.048C48.6042 30.5057 47.6948 29.7202 47.005 28.7565C46.0383 27.4058 44.6858 26.379 43.125 25.8109V23.4375C43.125 23.1889 43.0262 22.9504 42.8504 22.7746C42.6746 22.5988 42.4361 22.5 42.1875 22.5H38.4375C38.1889 22.5 37.9504 22.5988 37.7746 22.7746C37.5988 22.9504 37.5 23.1889 37.5 23.4375V25.8109C35.9392 26.379 34.5867 27.4059 33.62 28.7566C32.9302 29.7203 32.0207 30.5057 30.967 31.048C29.9132 31.5903 28.7455 31.8738 27.5603 31.875H23.4375C23.1889 31.875 22.9504 31.9738 22.7746 32.1496C22.5988 32.3254 22.5 32.5639 22.5 32.8125V36.5625C22.5 36.8111 22.5988 37.0496 22.7746 37.2254C22.9504 37.4012 23.1889 37.5 23.4375 37.5H26.6081L24.7331 41.25H23.4375C23.1889 41.25 22.9504 41.3488 22.7746 41.5246C22.5988 41.7004 22.5 41.9389 22.5 42.1875V42.6562C22.5 44.2724 23.142 45.8224 24.2848 46.9652C25.4276 48.108 26.9776 48.75 28.5938 48.75C30.2099 48.75 31.7599 48.108 32.9027 46.9652C34.0455 45.8224 34.6875 44.2724 34.6875 42.6562V42.1875C34.6875 41.9389 34.5887 41.7004 34.4129 41.5246C34.2371 41.3488 33.9986 41.25 33.75 41.25H32.4544L30.5794 37.5H33.75C33.9199 37.5 34.0866 37.4538 34.2324 37.3664L37.312 35.5186C37.374 35.4814 37.4367 35.4455 37.5 35.4108V50.3412L36.0608 52.5H32.8125C32.6384 52.5 32.4677 52.5485 32.3196 52.64C32.1715 52.7315 32.0519 52.8625 31.974 53.0182L30.099 56.7682C30.0275 56.9111 29.9938 57.07 30.0009 57.2296C30.0081 57.3892 30.056 57.5444 30.14 57.6804C30.224 57.8163 30.3414 57.9285 30.481 58.0063C30.6205 58.0842 30.7777 58.125 30.9375 58.125H49.6875C49.8473 58.125 50.0045 58.0842 50.144 58.0063C50.2836 57.9285 50.401 57.8163 50.485 57.6804C50.569 57.5444 50.6169 57.3892 50.6241 57.2296C50.6312 57.07 50.5975 56.9111 50.526 56.7682L48.651 53.0182C48.5731 52.8625 48.4535 52.7315 48.3054 52.64C48.1573 52.5485 47.9866 52.5 47.8125 52.5H44.5642L43.125 50.3412V35.4109C43.1882 35.4456 43.2509 35.4814 43.3129 35.5186L46.3926 37.3664C46.5384 37.4538 46.7051 37.5 46.875 37.5H50.0456L48.1706 41.25H46.875C46.6264 41.25 46.3879 41.3488 46.2121 41.5246C46.0363 41.7004 45.9375 41.9389 45.9375 42.1875V42.6562C45.9375 44.2724 46.5795 45.8224 47.7223 46.9652C48.8651 48.108 50.4151 48.75 52.0312 48.75C53.6474 48.75 55.1974 48.108 56.3402 46.9652C57.483 45.8224 58.125 44.2724 58.125 42.6562V42.1875C58.125 41.9389 58.0262 41.7004 57.8504 41.5246C57.6746 41.3488 57.4361 41.25 57.1875 41.25H55.8919L54.0169 37.5H57.1875ZM39.375 24.375H41.25V25.367C40.6271 25.2943 39.9979 25.2943 39.375 25.367V24.375ZM28.5938 46.875C27.5564 46.8737 26.5557 46.4908 25.7825 45.7992C25.0093 45.1077 24.5175 44.1558 24.4009 43.125H32.7866C32.67 44.1558 32.1782 45.1077 31.405 45.7992C30.6318 46.4908 29.6311 46.8737 28.5938 46.875ZM26.8294 41.25L28.5938 37.7213L30.3581 41.25H26.8294ZM48.1706 56.25H32.4544L33.3919 54.375H47.2331L48.1706 56.25ZM41.4075 51.145L42.3108 52.5H38.3142L39.2175 51.145C39.3202 50.991 39.375 50.8101 39.375 50.625V34.764C39.9958 34.662 40.6292 34.662 41.25 34.764V50.625C41.25 50.8101 41.3048 50.991 41.4075 51.145ZM44.2776 33.9107H44.2776C43.0798 33.1921 41.7093 32.8125 40.3125 32.8125C38.9157 32.8125 37.5451 33.1921 36.3474 33.9107L33.4903 35.625H24.375V33.75H27.5603C29.0438 33.7485 30.5057 33.3936 31.8247 32.7148C33.1438 32.036 34.2822 31.0527 35.1457 29.8464C35.7332 29.024 36.5084 28.3537 37.4071 27.8912C38.3057 27.4288 39.3018 27.1875 40.3125 27.1875C41.3231 27.1875 42.3192 27.4287 43.2179 27.8912C44.1165 28.3536 44.8918 29.0239 45.4793 29.8463C46.3427 31.0526 47.4812 32.0359 48.8002 32.7148C50.1193 33.3936 51.5811 33.7485 53.0647 33.75H56.25V35.625H47.1347L44.2776 33.9107ZM52.0312 46.875C50.9939 46.8737 49.9932 46.4908 49.22 45.7992C48.4468 45.1077 47.955 44.1558 47.8384 43.125H56.2241C56.1075 44.1558 55.6157 45.1077 54.8425 45.7992C54.0693 46.4908 53.0686 46.8737 52.0312 46.875ZM50.2669 41.25L52.0312 37.7213L53.7956 41.25H50.2669Z" fill="#4291FC"/>
    <path d="M40.3125 31.875C41.348 31.875 42.1875 31.0355 42.1875 30C42.1875 28.9645 41.348 28.125 40.3125 28.125C39.277 28.125 38.4375 28.9645 38.4375 30C38.4375 31.0355 39.277 31.875 40.3125 31.875Z" fill="#4291FC"/>
    <path d="M17.8125 9.375H27.1875V11.25H17.8125V9.375Z" fill="#4291FC"/>
    <path d="M13.125 9.375H15V11.25H13.125V9.375Z" fill="#4291FC"/>
    <path d="M18.75 15.9375H27.1875V17.8125H18.75V15.9375Z" fill="#4291FC"/>
    <path d="M8.4375 15.9375H16.875V17.8125H8.4375V15.9375Z" fill="#4291FC"/>
    <path d="M23.4375 22.5H35.625V24.375H23.4375V22.5Z" fill="#4291FC"/>
    <path d="M14.0625 22.5H21.5625V24.375H14.0625V22.5Z" fill="#4291FC"/>
    <path d="M8.4375 22.5H12.1875V24.375H8.4375V22.5Z" fill="#4291FC"/>
    <path d="M8.4375 29.0625H20.625V30.9375H8.4375V29.0625Z" fill="#4291FC"/>
    <path d="M15 35.625H20.625V37.5H15V35.625Z" fill="#4291FC"/>
    <path d="M8.4375 35.625H12.1875V37.5H8.4375V35.625Z" fill="#4291FC"/>
    <path d="M8.4375 42.1875H20.625V44.0625H8.4375V42.1875Z" fill="#4291FC"/>
    <path d="M15.9375 48.75H24.375V50.625H15.9375V48.75Z" fill="#4291FC"/>
    <path d="M8.4375 48.75H14.0625V50.625H8.4375V48.75Z" fill="#4291FC"/>
    <path opacity="0.5" d="M4.6875 58.125H28.125V56.25H4.6875C4.43895 56.2497 4.20066 56.1509 4.0249 55.9751C3.84915 55.7994 3.75028 55.5611 3.75 55.3125V4.68752C3.75028 4.43896 3.84915 4.20067 4.0249 4.02492C4.20066 3.84917 4.43895 3.7503 4.6875 3.75002H30.3217C30.5288 3.75015 30.7353 3.77298 30.9375 3.81808V13.125C30.9389 14.3678 31.4332 15.5593 32.312 16.438C33.1908 17.3168 34.3822 17.8111 35.625 17.8125H41.25V15.9375H35.625C34.8793 15.9367 34.1645 15.6401 33.6372 15.1128C33.1099 14.5856 32.8133 13.8707 32.8125 13.125V5.07593L44.1762 16.4395C44.4382 16.7 44.6459 17.01 44.7873 17.3514C44.9287 17.6928 45.001 18.0588 45 18.4283V25.3125H46.875V18.4283C46.8767 17.8125 46.7562 17.2024 46.5205 16.6335C46.2848 16.0645 45.9387 15.548 45.5021 15.1137L33.6363 3.24808C33.2021 2.81139 32.6855 2.46518 32.1166 2.22949C31.5476 1.9938 30.9375 1.87332 30.3217 1.87502H4.6875C3.94184 1.87587 3.22697 2.17246 2.6997 2.69972C2.17244 3.22698 1.87585 3.94186 1.875 4.68752V55.3125C1.87585 56.0582 2.17244 56.7731 2.6997 57.3003C3.22697 57.8276 3.94184 58.1242 4.6875 58.125Z" fill="#4291FC"/>
</svg>
