<svg width="48" height="48" viewBox="0 0 48 48" fill="none" xmlns="http://www.w3.org/2000/svg">
<g clip-path="url(#clip0)">
<g opacity="0.5">
<path d="M25.7689 8.35581C24.7175 8.13399 23.6467 8.01689 22.5722 8.0062L22.525 8.00854C22.4992 8.00582 22.4211 7.99954 22.3953 7.99954C13.5933 7.99935 6.44445 15.1095 6.39701 23.9114C6.34947 32.7132 13.4211 39.9002 22.2227 39.995L22.3098 39.9961C22.3426 39.9988 22.3844 40.0015 22.4019 40.0015C23.5869 40.0023 24.7684 39.8728 25.9252 39.6155C26.0635 39.5847 26.2014 39.5492 26.3994 39.498C33.4666 37.6747 38.4034 31.299 38.3995 24.0004C38.3743 16.4706 33.1243 9.96776 25.7689 8.35581ZM25.9622 37.9585C25.8196 37.9952 25.6974 38.0268 25.5755 38.0542C24.5584 38.2809 23.5201 38.3986 22.4781 38.4051L22.4253 38.4C22.4034 38.398 22.3816 38.3969 22.3597 38.3965L22.2417 38.3949C14.3368 38.3071 7.98083 31.863 8.00165 23.9578C8.02246 16.0524 14.4123 9.64206 22.3175 9.59574C22.3397 9.59808 22.4139 9.60437 22.4363 9.60474L22.5527 9.60634C30.4538 9.66578 36.8214 16.0993 36.7993 24.0006C36.7992 30.5824 32.3388 36.3274 25.9622 37.9585Z" fill="url(#paint0_linear)"/>
<path d="M22.3984 6.39881C22.5029 6.39749 22.6061 6.37574 22.7023 6.33477C22.7992 6.29408 22.8885 6.23727 22.9664 6.16685C23.1124 6.01338 23.1952 5.81058 23.1985 5.59879C23.1973 5.49415 23.1755 5.39074 23.1344 5.29445C23.0957 5.19667 23.0387 5.10722 22.9665 5.03072C22.8887 4.96002 22.7994 4.90302 22.7024 4.86233C22.4045 4.73688 22.0603 4.80336 21.8304 5.03072C21.7579 5.10703 21.7007 5.19657 21.662 5.29445C21.621 5.39074 21.5995 5.49415 21.5983 5.59879C21.5963 5.81161 21.6799 6.01628 21.8304 6.16676C21.9808 6.31724 22.1855 6.40087 22.3984 6.39881Z" fill="url(#paint1_linear)"/>
<path d="M22.9663 41.8338C22.8885 41.7631 22.7992 41.7061 22.7022 41.6654C22.4038 41.5441 22.062 41.6101 21.8302 41.8338C21.7595 41.9114 21.7025 42.0007 21.6618 42.0975C21.6208 42.1938 21.5992 42.2972 21.5981 42.4018C21.596 42.6147 21.6797 42.8193 21.8302 42.9698C21.9806 43.1203 22.1853 43.2039 22.3981 43.2019C22.5027 43.2006 22.6059 43.1788 22.7021 43.1378C22.7989 43.0971 22.8883 43.0403 22.9662 42.9698C23.1122 42.8163 23.1951 42.6136 23.1982 42.4018C23.197 42.2972 23.1753 42.1938 23.1342 42.0975C23.0956 41.9997 23.0386 41.9103 22.9663 41.8338Z" fill="url(#paint2_linear)"/>
<path d="M17.0698 6.79124C17.2212 6.9405 17.4254 7.02385 17.6379 7.02328C17.8484 7.02535 18.0507 6.94153 18.1981 6.79124C18.3508 6.6416 18.4372 6.43703 18.4379 6.22317C18.4366 6.17216 18.4313 6.12135 18.4219 6.07119C18.4107 6.01915 18.3947 5.96825 18.3738 5.91921C18.3547 5.87149 18.3306 5.82592 18.3019 5.78326C18.2737 5.73807 18.2386 5.69748 18.198 5.66288C17.8817 5.36305 17.3861 5.36305 17.0698 5.66288C16.9196 5.81036 16.8358 6.01259 16.8378 6.22307C16.8362 6.32977 16.8552 6.43571 16.8937 6.53519C16.9355 6.6312 16.9953 6.71801 17.0698 6.79124Z" fill="url(#paint3_linear)"/>
<path d="M27.1626 40.9702C26.95 40.9702 26.7466 41.0564 26.5986 41.2089C26.4458 41.3585 26.3593 41.5631 26.3583 41.777C26.3594 41.9885 26.446 42.1906 26.5986 42.3372C26.6695 42.4143 26.7571 42.4744 26.8545 42.513C27.1533 42.6423 27.5011 42.5721 27.7264 42.3372C27.7669 42.3047 27.7997 42.2638 27.8225 42.2173C27.8538 42.1746 27.8806 42.1289 27.9026 42.0809C27.9208 42.0317 27.9341 41.9808 27.9425 41.929C27.9557 41.8795 27.9611 41.8282 27.9585 41.777C27.9607 41.5642 27.877 41.3594 27.7264 41.2089C27.5786 41.0563 27.3751 40.9702 27.1626 40.9702Z" fill="url(#paint4_linear)"/>
<path d="M12.4613 8.36694C12.4789 8.41785 12.5032 8.46623 12.5336 8.51067L12.6297 8.63096C12.6655 8.66771 12.7058 8.69987 12.7496 8.72668C12.7957 8.7564 12.8438 8.78312 12.8933 8.80675C12.9403 8.82372 12.9885 8.83722 13.0375 8.84697C13.0898 8.85991 13.1438 8.86516 13.1976 8.86263C13.3016 8.86432 13.4049 8.84538 13.5016 8.80675C13.5972 8.76034 13.686 8.70128 13.7657 8.63096C13.9129 8.47814 13.996 8.27478 13.9978 8.06251C14.0005 7.9576 13.9785 7.85353 13.9337 7.75856C13.8609 7.55764 13.7026 7.39938 13.5017 7.32653C13.3557 7.26277 13.1935 7.2459 13.0376 7.27843C12.9874 7.28734 12.9389 7.30356 12.8934 7.32653C12.8425 7.34415 12.7942 7.36853 12.7497 7.39881C12.7095 7.43079 12.6696 7.46247 12.6298 7.49454C12.5591 7.57236 12.5021 7.66161 12.4614 7.75865C12.4205 7.85484 12.3988 7.95807 12.3977 8.06261C12.3989 8.11633 12.4043 8.16987 12.4137 8.22274C12.4222 8.2729 12.4383 8.32156 12.4613 8.36694Z" fill="url(#paint5_linear)"/>
<path d="M32.1671 39.3695C31.9755 39.1806 31.7024 39.0996 31.4389 39.1534C31.3886 39.162 31.3401 39.1782 31.2947 39.2014C31.1959 39.2381 31.1059 39.2954 31.0309 39.3695C30.9567 39.4446 30.8993 39.5346 30.8626 39.6336C30.8216 39.7298 30.8 39.833 30.7989 39.9375C30.8019 40.1493 30.8848 40.3522 31.0309 40.5056C31.0708 40.5376 31.1106 40.5696 31.1509 40.6017C31.1954 40.6319 31.2438 40.6561 31.2946 40.6736C31.3401 40.6966 31.3886 40.7128 31.4388 40.7217C31.4918 40.7305 31.5453 40.7359 31.5989 40.7377C31.8117 40.7398 32.0164 40.6562 32.1669 40.5057C32.3174 40.3552 32.401 40.1505 32.3989 39.9377C32.4018 39.8328 32.3797 39.7286 32.3349 39.6338C32.2982 39.5346 32.2411 39.4446 32.1671 39.3695Z" fill="url(#paint6_linear)"/>
<path d="M9.0771 11.7271C9.17602 11.7684 9.28205 11.7901 9.38922 11.7912C9.49376 11.7901 9.59708 11.7683 9.69318 11.7271C9.79068 11.6885 9.87835 11.6284 9.94941 11.5513C10.1027 11.4037 10.1892 11.2 10.1892 10.9872C10.1892 10.7744 10.1026 10.5707 9.94941 10.4231C9.80147 10.2704 9.59792 10.1843 9.38528 10.1843C9.17274 10.1843 8.96919 10.2704 8.82115 10.4231C8.51175 10.7355 8.51175 11.2388 8.82115 11.5512C8.89222 11.6284 8.97969 11.6885 9.0771 11.7271Z" fill="url(#paint7_linear)"/>
<path d="M34.8471 36.4494C34.6944 36.5957 34.6077 36.7977 34.6068 37.0092C34.6076 37.2231 34.6941 37.4277 34.8471 37.5773C34.9944 37.7276 35.1965 37.8114 35.4069 37.8093C35.5136 37.8109 35.6196 37.7919 35.7191 37.7534C35.815 37.7118 35.9018 37.652 35.9749 37.5773C36.1255 37.4268 36.209 37.222 36.207 37.0092C36.209 36.7988 36.1252 36.5967 35.9749 36.4494C35.6605 36.1451 35.1615 36.1451 34.8471 36.4494Z" fill="url(#paint8_linear)"/>
<path d="M5.72491 15.1034C5.74084 15.1526 5.76531 15.1985 5.79719 15.2393C5.82916 15.2874 5.86085 15.3273 5.89292 15.3675C6.0464 15.5134 6.24919 15.5962 6.46099 15.5995C6.67316 15.5977 6.87651 15.5148 7.02934 15.3676C7.06553 15.3283 7.09759 15.2854 7.12506 15.2394C7.15694 15.1986 7.18141 15.1526 7.19735 15.1035C7.22032 15.058 7.23654 15.0094 7.24544 14.9593C7.25454 14.9065 7.2597 14.853 7.2611 14.7995C7.26316 14.4744 7.06825 14.1803 6.76794 14.0557C6.46764 13.931 6.12178 14.0005 5.89301 14.2315C5.74694 14.3849 5.66415 14.5878 5.66096 14.7996C5.66246 14.8531 5.66781 14.9066 5.677 14.9594C5.68571 15.0093 5.70193 15.0579 5.72491 15.1034Z" fill="url(#paint9_linear)"/>
<path d="M38.6421 32.4576C38.3419 32.333 37.9961 32.4023 37.7673 32.6331C37.6211 32.7864 37.5383 32.9893 37.5353 33.2012C37.5368 33.4133 37.6199 33.6167 37.7674 33.7692C38.0828 34.0786 38.5879 34.0786 38.9034 33.7692C39.0509 33.6167 39.1339 33.4134 39.1354 33.2012C39.1372 32.8761 38.9423 32.5822 38.6421 32.4576Z" fill="url(#paint10_linear)"/>
<path d="M5.18899 18.672C4.87125 18.3759 4.37857 18.3759 4.06083 18.672C3.98385 18.7431 3.92375 18.8305 3.88503 18.9278C3.84481 19.0271 3.82306 19.1329 3.821 19.24C3.82522 19.4531 3.9111 19.6563 4.06083 19.808C4.37322 20.1174 4.8766 20.1174 5.18899 19.808C5.26194 19.7304 5.32157 19.6411 5.36526 19.5439C5.4037 19.4473 5.42263 19.344 5.42113 19.24C5.42198 19.1334 5.40304 19.0275 5.36526 18.9278C5.32325 18.8321 5.26344 18.7453 5.18899 18.672Z" fill="url(#paint11_linear)"/>
<path d="M40.7356 28.2005C40.421 27.8962 39.9219 27.8962 39.6074 28.2005C39.4571 28.3478 39.3733 28.5499 39.3754 28.7603C39.3747 28.9729 39.4581 29.1771 39.6074 29.3284C39.757 29.4802 39.9623 29.564 40.1754 29.5603C40.3859 29.5624 40.5882 29.4786 40.7356 29.3283C40.9705 29.1029 41.0407 28.7552 40.9114 28.4564C40.8728 28.3588 40.8127 28.2714 40.7356 28.2005Z" fill="url(#paint12_linear)"/>
<path d="M4.56506 24.5682C4.63566 24.4903 4.69238 24.401 4.73317 24.3041C4.81858 24.1104 4.81858 23.8896 4.73317 23.6959C4.69248 23.5991 4.63566 23.5099 4.56516 23.4321C4.24442 23.136 3.74994 23.136 3.42911 23.4321C3.35664 23.5084 3.29945 23.598 3.26072 23.6959C3.17578 23.8897 3.17578 24.1103 3.26072 24.3042C3.29954 24.4021 3.35664 24.4918 3.42902 24.5683C3.74451 24.8776 4.24957 24.8776 4.56506 24.5682Z" fill="url(#paint13_linear)"/>
<path d="M40.4954 23.2637C40.3986 23.3044 40.3094 23.3613 40.2317 23.4321C39.9223 23.7476 39.9223 24.2526 40.2317 24.5681C40.3095 24.6386 40.3987 24.6954 40.4954 24.7361C40.5917 24.7772 40.6951 24.7989 40.7997 24.8002C41.1232 24.7989 41.4144 24.6036 41.5384 24.3049C41.6625 24.0061 41.5953 23.6621 41.3678 23.4321C41.1374 23.2054 40.7936 23.1391 40.4954 23.2637Z" fill="url(#paint14_linear)"/>
<path d="M4.06087 28.2003C3.75419 28.5126 3.75644 29.0138 4.06602 29.3233C4.37561 29.6328 4.87683 29.6349 5.18903 29.3281C5.33961 29.1776 5.42314 28.9728 5.42108 28.76C5.42314 28.5496 5.33933 28.3475 5.18903 28.2002C4.87458 27.896 4.37542 27.896 4.06087 28.2003Z" fill="url(#paint15_linear)"/>
<path d="M40.1754 20.0402C40.6128 20.0298 40.9651 19.6777 40.9754 19.2402C40.9743 19.1357 40.9525 19.0323 40.9113 18.9362C40.875 18.8353 40.8146 18.7447 40.7355 18.6721C40.5877 18.5193 40.3841 18.433 40.1714 18.433C39.9588 18.433 39.7552 18.5193 39.6073 18.6721C39.458 18.8234 39.3747 19.0276 39.3752 19.2402C39.3732 19.4507 39.457 19.653 39.6073 19.8004C39.7561 19.9543 39.9612 20.041 40.1754 20.0402Z" fill="url(#paint16_linear)"/>
<path d="M7.02928 32.6331C6.99121 32.5986 6.95099 32.5665 6.90899 32.537C6.86455 32.5066 6.81617 32.4823 6.76526 32.4648C6.71988 32.4417 6.67122 32.4257 6.62106 32.4172C6.3578 32.3686 6.08712 32.4488 5.89286 32.6332C5.82236 32.711 5.76554 32.8002 5.72485 32.8969C5.68378 32.9932 5.66203 33.0966 5.66081 33.2012C5.65875 33.4141 5.74238 33.6187 5.89286 33.7692C6.04334 33.9197 6.24801 34.0033 6.46083 34.0013C6.67301 33.9995 6.87646 33.9165 7.02918 33.7692C7.17507 33.6157 7.25776 33.4129 7.26086 33.2011C7.26376 33.0961 7.24201 32.9919 7.1972 32.8968C7.1566 32.8001 7.09978 32.7109 7.02928 32.6331Z" fill="url(#paint17_linear)"/>
<path d="M38.3355 15.5997C38.7128 15.5961 39.0351 15.3268 39.106 14.9563C39.1769 14.5858 38.9766 14.2165 38.6274 14.0738C38.2781 13.9311 37.8767 14.0546 37.6678 14.3688C37.459 14.6831 37.5006 15.1009 37.7675 15.3677C37.9209 15.5137 38.1237 15.5965 38.3355 15.5997Z" fill="url(#paint18_linear)"/>
<path d="M9.6932 36.2732C9.49565 36.1931 9.27467 36.1931 9.07712 36.2732C8.97971 36.312 8.89224 36.3722 8.82126 36.4494C8.51187 36.7617 8.51187 37.2649 8.82126 37.5772C8.89449 37.6518 8.98131 37.7116 9.07712 37.7533C9.1766 37.7918 9.28264 37.8107 9.38924 37.8092C9.49322 37.8108 9.59653 37.7918 9.6932 37.7533C9.78911 37.7116 9.87612 37.6518 9.94943 37.5772C10.1027 37.4296 10.1893 37.226 10.1893 37.0132C10.1893 36.8004 10.1026 36.5968 9.94943 36.4493C9.87837 36.3722 9.7908 36.312 9.6932 36.2732Z" fill="url(#paint19_linear)"/>
<path d="M35.4069 11.791C35.5141 11.7899 35.6201 11.7682 35.7191 11.7269C35.8166 11.6884 35.904 11.6283 35.9749 11.5511C36.1252 11.4037 36.209 11.2014 36.207 10.9909C36.2075 10.7784 36.1242 10.5743 35.9749 10.4229C35.6573 10.1268 35.1648 10.1268 34.8471 10.4229C34.6941 10.5724 34.6076 10.777 34.6068 10.9909C34.6176 11.4283 34.9696 11.7803 35.4069 11.791Z" fill="url(#paint20_linear)"/>
<path d="M13.5016 39.1933C13.2017 39.0745 12.8599 39.1436 12.6297 39.3695C12.4835 39.5228 12.4006 39.7257 12.3976 39.9376C12.3987 40.0421 12.4204 40.1453 12.4613 40.2415C12.502 40.3385 12.5589 40.4278 12.6297 40.5056C12.7829 40.6518 12.9858 40.7347 13.1977 40.7377C13.3023 40.7364 13.4055 40.7146 13.5017 40.6736C13.7026 40.6008 13.8609 40.4425 13.9337 40.2416C13.9786 40.1467 14.0006 40.0426 13.9978 39.9377C13.9961 39.7256 13.913 39.5222 13.7657 39.3696C13.6861 39.299 13.5973 39.2397 13.5016 39.1933Z" fill="url(#paint21_linear)"/>
<path d="M31.151 8.72722C31.1955 8.7575 31.2439 8.78179 31.2947 8.79951C31.3402 8.82248 31.3887 8.8387 31.4389 8.8476C31.4913 8.86017 31.5452 8.86542 31.599 8.86326C31.8115 8.86401 32.0157 8.78076 32.1671 8.63159C32.4765 8.31601 32.4765 7.81085 32.1671 7.49517C31.9734 7.31 31.7023 7.22956 31.4389 7.27916C31.3887 7.28806 31.3402 7.30428 31.2947 7.32725C31.2438 7.34488 31.1955 7.36925 31.151 7.39954C31.1107 7.43151 31.0709 7.4632 31.0311 7.49526C30.7217 7.81085 30.7217 8.31601 31.0311 8.63168C31.069 8.6659 31.1091 8.69788 31.151 8.72722Z" fill="url(#paint22_linear)"/>
<path d="M18.1982 41.2096C17.972 40.9746 17.6247 40.9026 17.3237 41.0283C17.0228 41.154 16.8298 41.4516 16.8379 41.7776C16.8358 41.9881 16.9196 42.1904 17.0699 42.3378C17.2205 42.4891 17.4245 42.5753 17.638 42.5776C18.0755 42.5672 18.4277 42.215 18.438 41.7776C18.4361 41.6705 18.4144 41.5647 18.374 41.4655C18.3352 41.3681 18.2752 41.2808 18.1982 41.2096Z" fill="url(#paint23_linear)"/>
<path d="M26.4225 6.53502C26.4383 6.58415 26.4626 6.63019 26.4944 6.67097C26.5268 6.71297 26.5616 6.75301 26.5986 6.79088C26.6719 6.86542 26.7587 6.92524 26.8545 6.96705C27.1546 7.0835 27.495 7.01477 27.7264 6.79088C27.7634 6.75507 27.7956 6.71475 27.8225 6.67097C27.8539 6.6285 27.8807 6.58303 27.9026 6.53502C27.9197 6.48543 27.933 6.43461 27.9425 6.38304C27.9557 6.33073 27.961 6.27673 27.9585 6.22291C27.9605 6.01243 27.8767 5.81019 27.7264 5.66272C27.496 5.43704 27.1543 5.36823 26.8545 5.48692C26.7571 5.52555 26.6697 5.58565 26.5986 5.66272C26.4461 5.80926 26.3595 6.0114 26.3583 6.22291C26.3598 6.27663 26.3652 6.33017 26.3744 6.38304C26.3833 6.43574 26.3995 6.48683 26.4225 6.53502Z" fill="url(#paint24_linear)"/>
<path d="M46.9848 17.3266C46.9782 17.3086 46.9745 17.2902 46.9666 17.273C46.2171 14.9007 45.0766 12.6701 43.5923 10.6734C43.581 10.6605 43.5749 10.6439 43.5628 10.6319C39.3404 4.94929 32.6784 1.59938 25.5988 1.59891C24.9904 1.59891 24.4599 1.62047 23.9737 1.66304C23.5491 1.63426 23.126 1.61419 22.7083 1.61063C22.6053 1.60144 22.502 1.5975 22.3986 1.59891C10.089 1.59797 0.0859216 11.5314 0.00079101 23.8407C-0.0843396 36.15 9.7804 46.2208 22.0888 46.3902C22.1918 46.3994 22.2952 46.4033 22.3986 46.4019C22.934 46.4019 23.467 46.3765 23.9982 46.3394C24.4782 46.3805 25.0001 46.4019 25.5988 46.4019C32.6784 46.4015 39.3404 43.0515 43.5628 37.3689C43.5749 37.3569 43.581 37.3402 43.5923 37.3274C45.0766 35.3306 46.2171 33.1001 46.9666 30.7278C46.9745 30.7105 46.9782 30.6921 46.9848 30.6741C48.3388 26.328 48.3388 21.6728 46.9848 17.3266ZM42.5732 11.9996C43.6266 13.4816 44.4808 15.0954 45.1138 16.7999H43.5847C43.0035 15.1135 42.2239 13.502 41.2624 11.9996H42.5732ZM41.3175 10.3995H40.1434C38.6059 8.39118 36.7421 6.65528 34.6297 5.26412C37.1845 6.50414 39.46 8.25148 41.3175 10.3995ZM26.9762 44.3009C25.4733 44.6354 23.9382 44.8033 22.3986 44.8018C22.3439 44.8014 22.2962 44.8025 22.1747 44.794C10.7316 44.6723 1.53652 35.3288 1.59811 23.8851C1.65971 12.4414 10.9547 3.19755 22.3986 3.19905H22.4314C22.4748 3.19905 22.5248 3.19989 22.622 3.20683C34.0322 3.30021 43.2255 12.5899 43.2 24.0004C43.2018 33.4991 36.7696 41.7929 27.5692 44.1549C27.3719 44.2057 27.1742 44.2568 26.9762 44.3009ZM34.881 42.6079C36.9154 41.2412 38.7117 39.5499 40.1982 37.6013H41.3175C39.5212 39.6761 37.3341 41.3773 34.881 42.6079ZM42.5733 36.0012H41.3084C42.2637 34.4983 43.0362 32.8868 43.6095 31.2008H45.1139C44.4809 32.9053 43.6267 34.5193 42.5733 36.0012ZM45.628 29.6008H44.0912C44.489 28.0298 44.7154 26.4203 44.7664 24.8005H46.3798C46.3185 26.4245 46.0661 28.0357 45.628 29.6008ZM44.7648 23.2003C44.7112 21.5799 44.4799 19.9701 44.075 18.4H45.628C46.0661 19.9651 46.3185 21.5763 46.3798 23.2003H44.7648Z" fill="url(#paint25_linear)"/>
</g>
<g filter="url(#filter0_d)">
<path d="M28.4449 25.1776L22.3985 28.1609L16.352 25.1775C16.0304 25.0189 15.6427 25.0936 15.4031 25.3603C15.1634 25.6269 15.1304 26.0204 15.3223 26.3233L21.7227 36.4291C21.8694 36.6606 22.1245 36.8009 22.3985 36.8009C22.6726 36.8009 22.9277 36.6605 23.0743 36.4291L29.4748 26.3233C29.6666 26.0204 29.6335 25.6269 29.3939 25.3603C29.1542 25.0937 28.7665 25.019 28.4449 25.1776ZM21.5984 33.2423L18.1974 27.8726L21.5984 29.5506V33.2423ZM23.1985 33.2423V29.5506L26.5995 27.8726L23.1985 33.2423Z" fill="url(#paint26_linear)"/>
<path d="M29.5704 21.9027C29.5504 21.824 29.5185 21.7488 29.4759 21.6797L29.4747 21.6769L23.0743 11.5711C23.0635 11.5541 23.0431 11.5486 23.0311 11.5327C22.8881 11.324 22.6514 11.1992 22.3985 11.1992C22.1455 11.1992 21.9089 11.324 21.7659 11.5327C21.7539 11.5486 21.7335 11.5541 21.7227 11.5711L15.3222 21.6769L15.3211 21.6797C15.2784 21.7488 15.2466 21.824 15.2266 21.9027C15.2171 21.9702 15.2076 22.0376 15.198 22.1051C15.198 22.1176 15.2025 22.129 15.2032 22.1414C15.2112 22.2216 15.2275 22.3007 15.2519 22.3775C15.2628 22.4065 15.2753 22.4348 15.2896 22.4623C15.3131 22.5087 15.3413 22.5526 15.3734 22.5935C15.3849 22.6082 15.3905 22.6259 15.4031 22.6399C15.411 22.6487 15.4218 22.6531 15.43 22.6615C15.4688 22.6997 15.5114 22.734 15.5573 22.7636C15.5793 22.7804 15.6023 22.7959 15.6259 22.8104C15.6325 22.8138 15.6373 22.8195 15.6441 22.8228L22.0445 25.9812C22.2677 26.0911 22.5293 26.0911 22.7524 25.9812L29.1529 22.8228C29.2349 22.7805 29.3088 22.7241 29.3714 22.6563C29.3781 22.6495 29.3875 22.6471 29.3939 22.64C29.4066 22.6259 29.4121 22.6082 29.4236 22.5936C29.4559 22.5527 29.4839 22.5088 29.5074 22.4624C29.5217 22.435 29.5343 22.4066 29.5451 22.3776C29.5695 22.3008 29.5858 22.2217 29.5939 22.1415C29.5945 22.1291 29.599 22.1177 29.599 22.1052C29.5965 22.0642 29.5907 22.0234 29.5818 21.9832C29.5793 21.9562 29.5755 21.9292 29.5704 21.9027ZM23.1985 14.7579L26.5995 20.1276L23.1985 18.4496V14.7579ZM21.5984 14.7579V18.4496L18.1974 20.1276L21.5984 14.7579ZM22.3985 24.3713L17.8062 22.1052L22.3985 19.8393L26.9908 22.1052L22.3985 24.3713Z" fill="url(#paint27_linear)"/>
</g>
</g>
<defs>
<filter id="filter0_d" x="-14.802" y="-18.8008" width="74.401" height="85.6017" filterUnits="userSpaceOnUse" color-interpolation-filters="sRGB">
<feFlood flood-opacity="0" result="BackgroundImageFix"/>
<feColorMatrix in="SourceAlpha" type="matrix" values="0 0 0 0 0 0 0 0 0 0 0 0 0 0 0 0 0 0 127 0"/>
<feOffset/>
<feGaussianBlur stdDeviation="15"/>
<feColorMatrix type="matrix" values="0 0 0 0 0.882353 0 0 0 0 0.286275 0 0 0 0 0.278431 0 0 0 0.2 0"/>
<feBlend mode="normal" in2="BackgroundImageFix" result="effect1_dropShadow"/>
<feBlend mode="normal" in="SourceGraphic" in2="effect1_dropShadow" result="shape"/>
</filter>
<linearGradient id="paint0_linear" x1="24.0003" y1="1.59863" x2="24.0003" y2="60.8033" gradientUnits="userSpaceOnUse">
<stop stop-color="#F55A5A"/>
<stop offset="1" stop-color="#C12E28"/>
</linearGradient>
<linearGradient id="paint1_linear" x1="24.0003" y1="1.59863" x2="24.0003" y2="60.8033" gradientUnits="userSpaceOnUse">
<stop stop-color="#F55A5A"/>
<stop offset="1" stop-color="#C12E28"/>
</linearGradient>
<linearGradient id="paint2_linear" x1="24.0003" y1="1.59863" x2="24.0003" y2="60.8033" gradientUnits="userSpaceOnUse">
<stop stop-color="#F55A5A"/>
<stop offset="1" stop-color="#C12E28"/>
</linearGradient>
<linearGradient id="paint3_linear" x1="24.0003" y1="1.59863" x2="24.0003" y2="60.8033" gradientUnits="userSpaceOnUse">
<stop stop-color="#F55A5A"/>
<stop offset="1" stop-color="#C12E28"/>
</linearGradient>
<linearGradient id="paint4_linear" x1="24.0003" y1="1.59863" x2="24.0003" y2="60.8033" gradientUnits="userSpaceOnUse">
<stop stop-color="#F55A5A"/>
<stop offset="1" stop-color="#C12E28"/>
</linearGradient>
<linearGradient id="paint5_linear" x1="24.0003" y1="1.59863" x2="24.0003" y2="60.8033" gradientUnits="userSpaceOnUse">
<stop stop-color="#F55A5A"/>
<stop offset="1" stop-color="#C12E28"/>
</linearGradient>
<linearGradient id="paint6_linear" x1="24.0003" y1="1.59863" x2="24.0003" y2="60.8033" gradientUnits="userSpaceOnUse">
<stop stop-color="#F55A5A"/>
<stop offset="1" stop-color="#C12E28"/>
</linearGradient>
<linearGradient id="paint7_linear" x1="24.0003" y1="1.59863" x2="24.0003" y2="60.8033" gradientUnits="userSpaceOnUse">
<stop stop-color="#F55A5A"/>
<stop offset="1" stop-color="#C12E28"/>
</linearGradient>
<linearGradient id="paint8_linear" x1="24.0003" y1="1.59863" x2="24.0003" y2="60.8033" gradientUnits="userSpaceOnUse">
<stop stop-color="#F55A5A"/>
<stop offset="1" stop-color="#C12E28"/>
</linearGradient>
<linearGradient id="paint9_linear" x1="24.0003" y1="1.59863" x2="24.0003" y2="60.8033" gradientUnits="userSpaceOnUse">
<stop stop-color="#F55A5A"/>
<stop offset="1" stop-color="#C12E28"/>
</linearGradient>
<linearGradient id="paint10_linear" x1="24.0003" y1="1.59863" x2="24.0003" y2="60.8033" gradientUnits="userSpaceOnUse">
<stop stop-color="#F55A5A"/>
<stop offset="1" stop-color="#C12E28"/>
</linearGradient>
<linearGradient id="paint11_linear" x1="24.0003" y1="1.59863" x2="24.0003" y2="60.8033" gradientUnits="userSpaceOnUse">
<stop stop-color="#F55A5A"/>
<stop offset="1" stop-color="#C12E28"/>
</linearGradient>
<linearGradient id="paint12_linear" x1="24.0003" y1="1.59863" x2="24.0003" y2="60.8033" gradientUnits="userSpaceOnUse">
<stop stop-color="#F55A5A"/>
<stop offset="1" stop-color="#C12E28"/>
</linearGradient>
<linearGradient id="paint13_linear" x1="24.0003" y1="1.59863" x2="24.0003" y2="60.8033" gradientUnits="userSpaceOnUse">
<stop stop-color="#F55A5A"/>
<stop offset="1" stop-color="#C12E28"/>
</linearGradient>
<linearGradient id="paint14_linear" x1="24.0003" y1="1.59863" x2="24.0003" y2="60.8033" gradientUnits="userSpaceOnUse">
<stop stop-color="#F55A5A"/>
<stop offset="1" stop-color="#C12E28"/>
</linearGradient>
<linearGradient id="paint15_linear" x1="24.0003" y1="1.59863" x2="24.0003" y2="60.8033" gradientUnits="userSpaceOnUse">
<stop stop-color="#F55A5A"/>
<stop offset="1" stop-color="#C12E28"/>
</linearGradient>
<linearGradient id="paint16_linear" x1="24.0003" y1="1.59863" x2="24.0003" y2="60.8033" gradientUnits="userSpaceOnUse">
<stop stop-color="#F55A5A"/>
<stop offset="1" stop-color="#C12E28"/>
</linearGradient>
<linearGradient id="paint17_linear" x1="24.0003" y1="1.59863" x2="24.0003" y2="60.8033" gradientUnits="userSpaceOnUse">
<stop stop-color="#F55A5A"/>
<stop offset="1" stop-color="#C12E28"/>
</linearGradient>
<linearGradient id="paint18_linear" x1="24.0003" y1="1.59863" x2="24.0003" y2="60.8033" gradientUnits="userSpaceOnUse">
<stop stop-color="#F55A5A"/>
<stop offset="1" stop-color="#C12E28"/>
</linearGradient>
<linearGradient id="paint19_linear" x1="24.0003" y1="1.59863" x2="24.0003" y2="60.8033" gradientUnits="userSpaceOnUse">
<stop stop-color="#F55A5A"/>
<stop offset="1" stop-color="#C12E28"/>
</linearGradient>
<linearGradient id="paint20_linear" x1="24.0003" y1="1.59863" x2="24.0003" y2="60.8033" gradientUnits="userSpaceOnUse">
<stop stop-color="#F55A5A"/>
<stop offset="1" stop-color="#C12E28"/>
</linearGradient>
<linearGradient id="paint21_linear" x1="24.0003" y1="1.59863" x2="24.0003" y2="60.8033" gradientUnits="userSpaceOnUse">
<stop stop-color="#F55A5A"/>
<stop offset="1" stop-color="#C12E28"/>
</linearGradient>
<linearGradient id="paint22_linear" x1="24.0003" y1="1.59863" x2="24.0003" y2="60.8033" gradientUnits="userSpaceOnUse">
<stop stop-color="#F55A5A"/>
<stop offset="1" stop-color="#C12E28"/>
</linearGradient>
<linearGradient id="paint23_linear" x1="24.0003" y1="1.59863" x2="24.0003" y2="60.8033" gradientUnits="userSpaceOnUse">
<stop stop-color="#F55A5A"/>
<stop offset="1" stop-color="#C12E28"/>
</linearGradient>
<linearGradient id="paint24_linear" x1="24.0003" y1="1.59863" x2="24.0003" y2="60.8033" gradientUnits="userSpaceOnUse">
<stop stop-color="#F55A5A"/>
<stop offset="1" stop-color="#C12E28"/>
</linearGradient>
<linearGradient id="paint25_linear" x1="24.0003" y1="1.59863" x2="24.0003" y2="60.8033" gradientUnits="userSpaceOnUse">
<stop stop-color="#F55A5A"/>
<stop offset="1" stop-color="#C12E28"/>
</linearGradient>
<linearGradient id="paint26_linear" x1="22.3985" y1="11.1992" x2="22.3985" y2="45.03" gradientUnits="userSpaceOnUse">
<stop stop-color="#F55A5A"/>
<stop offset="1" stop-color="#C12E28"/>
</linearGradient>
<linearGradient id="paint27_linear" x1="22.3985" y1="11.1992" x2="22.3985" y2="45.03" gradientUnits="userSpaceOnUse">
<stop stop-color="#F55A5A"/>
<stop offset="1" stop-color="#C12E28"/>
</linearGradient>
<clipPath id="clip0">
<rect width="48" height="48" fill="white"/>
</clipPath>
</defs>
</svg>
