<svg width="88" height="61" viewBox="0 0 88 61" fill="none" xmlns="http://www.w3.org/2000/svg">
<path d="M24.015 21.3965L18.1047 26.3341L21.0224 28.1297L24.015 21.3965Z" fill="url(#paint0_linear)"/>
<path d="M18.1047 26.3341V47.581L21.0598 44.7007L21.0224 28.1297L18.1047 26.3341Z" fill="url(#paint1_linear)"/>
<path d="M24.015 41.8204V21.3965L21.0225 28.1297L21.0599 44.7007L24.015 41.8204Z" fill="url(#paint2_linear)"/>
<path d="M14.1397 14.0648L8.22949 19.0025L11.1472 20.798L14.1397 14.0648Z" fill="url(#paint3_linear)"/>
<path d="M8.22949 19.0025V40.2494L11.1846 37.3691L11.1472 20.798L8.22949 19.0025Z" fill="url(#paint4_linear)"/>
<path d="M14.1397 39.2768V14.0648L11.1472 20.798L11.1846 37.3691L14.1397 39.2768Z" fill="url(#paint5_linear)"/>
<path d="M34.4888 6.58356L28.5786 11.5212L31.4963 13.3167L34.4888 6.58356Z" fill="url(#paint6_linear)"/>
<path d="M28.5786 11.5212V32.7681L31.5337 29.8878L31.4963 13.3167L28.5786 11.5212Z" fill="url(#paint7_linear)"/>
<path d="M34.4888 27.0075V6.58356L31.4963 13.3167L31.5337 29.8878L34.4888 27.0075Z" fill="url(#paint8_linear)"/>
<path d="M21.3216 60C14.3396 49.7265 0.301427 29.1055 0 28.8031L10.6608 39.4825L21.0972 50.5736L21.3216 60Z" fill="url(#paint9_linear)"/>
<path d="M63.2917 0L21.3216 60L21.0972 50.5736L63.2917 0Z" fill="url(#paint10_linear)"/>
<path d="M19.0025 40.6234L63.2918 0L21.0973 50.5736L19.0025 40.6234Z" fill="url(#paint11_linear)"/>
<path d="M0 28.803L19.0025 40.6234L21.0973 50.5736C21.0973 50.5736 7.06775 35.8707 0 28.803Z" fill="url(#paint12_linear)"/>
<path d="M12.0822 9.90337C12.0822 10.5386 11.5672 11.0536 10.9319 11.0536C10.2967 11.0536 9.78169 10.5386 9.78169 9.90337C9.78169 9.2681 10.2967 8.75312 10.9319 8.75312C11.5672 8.75312 12.0822 9.2681 12.0822 9.90337Z" fill="url(#paint13_linear)"/>
<path d="M21.9388 18.7126C21.9388 19.3479 21.4238 19.8628 20.7885 19.8628C20.1533 19.8628 19.6383 19.3479 19.6383 18.7126C19.6383 18.0773 20.1533 17.5623 20.7885 17.5623C21.4238 17.5623 21.9388 18.0773 21.9388 18.7126Z" fill="url(#paint14_linear)"/>
<path d="M41.2405 2.54364L32.5248 3.34788L32.4313 4.0399L41.2405 2.54364Z" fill="url(#paint15_linear)"/>
<path d="M31.253 4.76933L30.748 4.41396L20.8166 17.6372L21.6957 18.2544L31.253 4.76933Z" fill="url(#paint16_linear)"/>
<path d="M11.5024 9.98753L20.3116 17.8055V19.0025L11.2967 10.717L11.5024 9.98753Z" fill="url(#paint17_linear)"/>
<path d="M0.504883 22.2382L10.6607 10.8853L10.2119 10.1746L0.504883 22.2382Z" fill="url(#paint18_linear)"/>
<path d="M32.7212 3.71259C32.7212 4.34786 32.2062 4.86284 31.571 4.86284C30.9357 4.86284 30.4207 4.34786 30.4207 3.71259C30.4207 3.07733 30.9357 2.56234 31.571 2.56234C32.2062 2.56234 32.7212 3.07733 32.7212 3.71259Z" fill="url(#paint19_linear)"/>
<path d="M47.4159 38.76C47.4159 38.37 47.4849 37.986 47.6229 37.608C47.7669 37.23 47.9739 36.888 48.2439 36.582C48.5139 36.276 48.8439 36.033 49.2339 35.853C49.6239 35.667 50.0679 35.574 50.5659 35.574C51.1479 35.574 51.6549 35.703 52.0869 35.961C52.5189 36.219 52.8399 36.555 53.0499 36.969L52.0959 37.626C51.9879 37.386 51.8469 37.197 51.6729 37.059C51.4989 36.921 51.3099 36.822 51.1059 36.762C50.9079 36.702 50.7159 36.672 50.5299 36.672C50.2179 36.672 49.9449 36.735 49.7109 36.861C49.4829 36.987 49.2909 37.152 49.1349 37.356C48.9789 37.56 48.8619 37.788 48.7839 38.04C48.7119 38.292 48.6759 38.544 48.6759 38.796C48.6759 39.174 48.7539 39.528 48.9099 39.858C49.0659 40.182 49.2849 40.446 49.5669 40.65C49.8489 40.854 50.1759 40.956 50.5479 40.956C50.7399 40.956 50.9379 40.923 51.1419 40.857C51.3519 40.791 51.5439 40.686 51.7179 40.542C51.8919 40.398 52.0269 40.212 52.1229 39.984L53.1399 40.569C53.0079 40.887 52.8009 41.157 52.5189 41.379C52.2369 41.595 51.9189 41.763 51.5649 41.883C51.2109 41.997 50.8599 42.054 50.5119 42.054C50.0559 42.054 49.6389 41.961 49.2609 41.775C48.8889 41.583 48.5649 41.331 48.2889 41.019C48.0129 40.701 47.7969 40.347 47.6409 39.957C47.4909 39.561 47.4159 39.162 47.4159 38.76ZM56.3507 42.045C55.8827 42.045 55.4567 41.955 55.0727 41.775C54.6947 41.595 54.3677 41.352 54.0917 41.046C53.8217 40.734 53.6117 40.386 53.4617 40.002C53.3117 39.612 53.2367 39.213 53.2367 38.805C53.2367 38.379 53.3147 37.974 53.4707 37.59C53.6267 37.2 53.8457 36.855 54.1277 36.555C54.4097 36.249 54.7397 36.009 55.1177 35.835C55.5017 35.655 55.9217 35.565 56.3777 35.565C56.8397 35.565 57.2597 35.658 57.6377 35.844C58.0217 36.03 58.3487 36.279 58.6187 36.591C58.8947 36.903 59.1047 37.254 59.2487 37.644C59.3987 38.028 59.4737 38.421 59.4737 38.823C59.4737 39.243 59.3957 39.648 59.2397 40.038C59.0837 40.422 58.8647 40.767 58.5827 41.073C58.3067 41.373 57.9767 41.61 57.5927 41.784C57.2147 41.958 56.8007 42.045 56.3507 42.045ZM54.4967 38.805C54.4967 39.177 54.5687 39.525 54.7127 39.849C54.8627 40.173 55.0757 40.437 55.3517 40.641C55.6337 40.845 55.9697 40.947 56.3597 40.947C56.7617 40.947 57.1007 40.842 57.3767 40.632C57.6527 40.422 57.8627 40.152 58.0067 39.822C58.1507 39.492 58.2227 39.153 58.2227 38.805C58.2227 38.433 58.1477 38.085 57.9977 37.761C57.8477 37.437 57.6317 37.176 57.3497 36.978C57.0737 36.774 56.7437 36.672 56.3597 36.672C55.9577 36.672 55.6187 36.777 55.3427 36.987C55.0667 37.197 54.8567 37.467 54.7127 37.797C54.5687 38.121 54.4967 38.457 54.4967 38.805ZM61.3984 37.896V42H60.1564V35.61H61.1464L64.4494 39.822V35.619H65.6914V42H64.6564L61.3984 37.896ZM70.5577 37.284C70.5037 37.224 70.3897 37.146 70.2157 37.05C70.0417 36.948 69.8317 36.858 69.5857 36.78C69.3457 36.696 69.0967 36.654 68.8387 36.654C68.1607 36.654 67.8217 36.894 67.8217 37.374C67.8217 37.548 67.8757 37.686 67.9837 37.788C68.0917 37.89 68.2537 37.977 68.4697 38.049C68.6857 38.121 68.9557 38.199 69.2797 38.283C69.6997 38.391 70.0627 38.517 70.3687 38.661C70.6807 38.805 70.9177 38.997 71.0797 39.237C71.2477 39.471 71.3317 39.783 71.3317 40.173C71.3317 40.629 71.2207 40.998 70.9987 41.28C70.7827 41.556 70.4947 41.757 70.1347 41.883C69.7747 42.009 69.3847 42.072 68.9647 42.072C68.4847 42.072 68.0077 42 67.5337 41.856C67.0657 41.706 66.6487 41.502 66.2827 41.244L66.8317 40.173C66.8857 40.227 66.9817 40.299 67.1197 40.389C67.2577 40.473 67.4257 40.56 67.6237 40.65C67.8217 40.734 68.0377 40.806 68.2717 40.866C68.5057 40.926 68.7427 40.956 68.9827 40.956C69.6667 40.956 70.0087 40.737 70.0087 40.299C70.0087 40.113 69.9397 39.963 69.8017 39.849C69.6637 39.735 69.4687 39.639 69.2167 39.561C68.9707 39.483 68.6827 39.396 68.3527 39.3C67.9447 39.186 67.6057 39.06 67.3357 38.922C67.0717 38.778 66.8737 38.601 66.7417 38.391C66.6097 38.175 66.5437 37.902 66.5437 37.572C66.5437 37.134 66.6457 36.768 66.8497 36.474C67.0597 36.174 67.3417 35.949 67.6957 35.799C68.0497 35.643 68.4427 35.565 68.8747 35.565C69.3187 35.565 69.7327 35.637 70.1167 35.781C70.5007 35.925 70.8307 36.09 71.1067 36.276L70.5577 37.284ZM74.7092 42.045C74.1992 42.045 73.7642 41.961 73.4042 41.793C73.0502 41.619 72.7622 41.382 72.5402 41.082C72.3242 40.782 72.1652 40.443 72.0632 40.065C71.9612 39.681 71.9102 39.282 71.9102 38.868V35.61H73.1522V38.868C73.1522 39.222 73.2002 39.558 73.2962 39.876C73.3922 40.194 73.5542 40.452 73.7822 40.65C74.0102 40.848 74.3162 40.947 74.7002 40.947C75.0962 40.947 75.4082 40.848 75.6362 40.65C75.8642 40.446 76.0262 40.185 76.1222 39.867C76.2182 39.549 76.2662 39.216 76.2662 38.868V35.61H77.4992V38.868C77.4992 39.306 77.4452 39.717 77.3372 40.101C77.2352 40.485 77.0702 40.824 76.8422 41.118C76.6202 41.406 76.3322 41.634 75.9782 41.802C75.6242 41.964 75.2012 42.045 74.7092 42.045ZM78.4802 42V35.61H79.7222V40.911H82.9802V42H78.4802ZM87.3222 36.699H85.2792V42H84.0462V36.699H82.0032V35.61H87.3222V36.699ZM42.8894 51.045C42.4694 51.045 42.0764 50.961 41.7104 50.793C41.3444 50.625 41.0204 50.394 40.7384 50.1C40.4624 49.8 40.2464 49.452 40.0904 49.056C39.9344 48.66 39.8564 48.231 39.8564 47.769C39.8564 47.331 39.9344 46.92 40.0904 46.536C40.2464 46.146 40.4654 45.804 40.7474 45.51C41.0294 45.216 41.3594 44.985 41.7374 44.817C42.1154 44.649 42.5264 44.565 42.9704 44.565C43.5644 44.565 44.0774 44.694 44.5094 44.952C44.9414 45.204 45.2654 45.54 45.4814 45.96L44.5544 46.644C44.3924 46.332 44.1644 46.092 43.8704 45.924C43.5824 45.75 43.2674 45.663 42.9254 45.663C42.5654 45.663 42.2474 45.762 41.9714 45.96C41.7014 46.158 41.4884 46.419 41.3324 46.743C41.1824 47.067 41.1074 47.421 41.1074 47.805C41.1074 48.207 41.1884 48.57 41.3504 48.894C41.5124 49.218 41.7344 49.476 42.0164 49.668C42.3044 49.854 42.6314 49.947 42.9974 49.947C43.6154 49.947 44.1734 49.656 44.6714 49.074V48.624H43.3844V47.715H45.6974V51H44.6714V50.28C44.1554 50.79 43.5614 51.045 42.8894 51.045ZM46.4859 51V44.61H47.7279V49.911H50.9859V51H46.4859ZM54.0582 51.045C53.5902 51.045 53.1642 50.955 52.7802 50.775C52.4022 50.595 52.0752 50.352 51.7992 50.046C51.5292 49.734 51.3192 49.386 51.1692 49.002C51.0192 48.612 50.9442 48.213 50.9442 47.805C50.9442 47.379 51.0222 46.974 51.1782 46.59C51.3342 46.2 51.5532 45.855 51.8352 45.555C52.1172 45.249 52.4472 45.009 52.8252 44.835C53.2092 44.655 53.6292 44.565 54.0852 44.565C54.5472 44.565 54.9672 44.658 55.3452 44.844C55.7292 45.03 56.0562 45.279 56.3262 45.591C56.6022 45.903 56.8122 46.254 56.9562 46.644C57.1062 47.028 57.1812 47.421 57.1812 47.823C57.1812 48.243 57.1032 48.648 56.9472 49.038C56.7912 49.422 56.5722 49.767 56.2902 50.073C56.0142 50.373 55.6842 50.61 55.3002 50.784C54.9222 50.958 54.5082 51.045 54.0582 51.045ZM52.2042 47.805C52.2042 48.177 52.2762 48.525 52.4202 48.849C52.5702 49.173 52.7832 49.437 53.0592 49.641C53.3412 49.845 53.6772 49.947 54.0672 49.947C54.4692 49.947 54.8082 49.842 55.0842 49.632C55.3602 49.422 55.5702 49.152 55.7142 48.822C55.8582 48.492 55.9302 48.153 55.9302 47.805C55.9302 47.433 55.8552 47.085 55.7052 46.761C55.5552 46.437 55.3392 46.176 55.0572 45.978C54.7812 45.774 54.4512 45.672 54.0672 45.672C53.6652 45.672 53.3262 45.777 53.0502 45.987C52.7742 46.197 52.5642 46.467 52.4202 46.797C52.2762 47.121 52.2042 47.457 52.2042 47.805ZM63.0119 49.353C63.0119 49.713 62.9189 50.016 62.7329 50.262C62.5469 50.502 62.2949 50.685 61.9769 50.811C61.6649 50.937 61.3229 51 60.9509 51H57.8639V44.61H61.2839C61.5839 44.61 61.8419 44.691 62.0579 44.853C62.2739 45.009 62.4419 45.213 62.5619 45.465C62.6819 45.717 62.7419 45.975 62.7419 46.239C62.7419 46.551 62.6639 46.845 62.5079 47.121C62.3519 47.391 62.1239 47.592 61.8239 47.724C62.1899 47.832 62.4779 48.027 62.6879 48.309C62.9039 48.591 63.0119 48.939 63.0119 49.353ZM59.1059 45.672V47.283H60.7619C60.9659 47.283 61.1429 47.211 61.2929 47.067C61.4429 46.923 61.5179 46.725 61.5179 46.473C61.5179 46.233 61.4489 46.041 61.3109 45.897C61.1789 45.747 61.0139 45.672 60.8159 45.672H59.1059ZM61.7609 49.119C61.7609 48.885 61.6889 48.684 61.5449 48.516C61.4009 48.348 61.2239 48.264 61.0139 48.264H59.1059V49.947H60.9509C61.1789 49.947 61.3709 49.866 61.5269 49.704C61.6829 49.542 61.7609 49.347 61.7609 49.119ZM65.3075 44.61H66.5675L68.9165 51H67.6385L67.0445 49.407H64.8125L64.2275 51H62.9495L65.3075 44.61ZM66.8195 48.534L65.9375 45.897L65.0195 48.534H66.8195ZM69.3473 51V44.61H70.5893V49.911H73.8473V51H69.3473ZM36.473 55.284C36.419 55.224 36.305 55.146 36.131 55.05C35.957 54.948 35.747 54.858 35.501 54.78C35.261 54.696 35.012 54.654 34.754 54.654C34.076 54.654 33.737 54.894 33.737 55.374C33.737 55.548 33.791 55.686 33.899 55.788C34.007 55.89 34.169 55.977 34.385 56.049C34.601 56.121 34.871 56.199 35.195 56.283C35.615 56.391 35.978 56.517 36.284 56.661C36.596 56.805 36.833 56.997 36.995 57.237C37.163 57.471 37.247 57.783 37.247 58.173C37.247 58.629 37.136 58.998 36.914 59.28C36.698 59.556 36.41 59.757 36.05 59.883C35.69 60.009 35.3 60.072 34.88 60.072C34.4 60.072 33.923 60 33.449 59.856C32.981 59.706 32.564 59.502 32.198 59.244L32.747 58.173C32.801 58.227 32.897 58.299 33.035 58.389C33.173 58.473 33.341 58.56 33.539 58.65C33.737 58.734 33.953 58.806 34.187 58.866C34.421 58.926 34.658 58.956 34.898 58.956C35.582 58.956 35.924 58.737 35.924 58.299C35.924 58.113 35.855 57.963 35.717 57.849C35.579 57.735 35.384 57.639 35.132 57.561C34.886 57.483 34.598 57.396 34.268 57.3C33.86 57.186 33.521 57.06 33.251 56.922C32.987 56.778 32.789 56.601 32.657 56.391C32.525 56.175 32.459 55.902 32.459 55.572C32.459 55.134 32.561 54.768 32.765 54.474C32.975 54.174 33.257 53.949 33.611 53.799C33.965 53.643 34.358 53.565 34.79 53.565C35.234 53.565 35.648 53.637 36.032 53.781C36.416 53.925 36.746 54.09 37.022 54.276L36.473 55.284ZM38.4685 53.61L40.0435 56.616L41.6455 53.61H42.9865L40.6645 57.768V60H39.4315V57.75L37.1185 53.61H38.4685ZM46.9545 55.284C46.9005 55.224 46.7865 55.146 46.6125 55.05C46.4385 54.948 46.2285 54.858 45.9825 54.78C45.7425 54.696 45.4935 54.654 45.2355 54.654C44.5575 54.654 44.2185 54.894 44.2185 55.374C44.2185 55.548 44.2725 55.686 44.3805 55.788C44.4885 55.89 44.6505 55.977 44.8665 56.049C45.0825 56.121 45.3525 56.199 45.6765 56.283C46.0965 56.391 46.4595 56.517 46.7655 56.661C47.0775 56.805 47.3145 56.997 47.4765 57.237C47.6445 57.471 47.7285 57.783 47.7285 58.173C47.7285 58.629 47.6175 58.998 47.3955 59.28C47.1795 59.556 46.8915 59.757 46.5315 59.883C46.1715 60.009 45.7815 60.072 45.3615 60.072C44.8815 60.072 44.4045 60 43.9305 59.856C43.4625 59.706 43.0455 59.502 42.6795 59.244L43.2285 58.173C43.2825 58.227 43.3785 58.299 43.5165 58.389C43.6545 58.473 43.8225 58.56 44.0205 58.65C44.2185 58.734 44.4345 58.806 44.6685 58.866C44.9025 58.926 45.1395 58.956 45.3795 58.956C46.0635 58.956 46.4055 58.737 46.4055 58.299C46.4055 58.113 46.3365 57.963 46.1985 57.849C46.0605 57.735 45.8655 57.639 45.6135 57.561C45.3675 57.483 45.0795 57.396 44.7495 57.3C44.3415 57.186 44.0025 57.06 43.7325 56.922C43.4685 56.778 43.2705 56.601 43.1385 56.391C43.0065 56.175 42.9405 55.902 42.9405 55.572C42.9405 55.134 43.0425 54.768 43.2465 54.474C43.4565 54.174 43.7385 53.949 44.0925 53.799C44.4465 53.643 44.8395 53.565 45.2715 53.565C45.7155 53.565 46.1295 53.637 46.5135 53.781C46.8975 53.925 47.2275 54.09 47.5035 54.276L46.9545 55.284ZM53.176 54.699H51.133V60H49.9V54.699H47.857V53.61H53.176V54.699ZM58.1363 58.911V60H53.6993V53.61H58.0553V54.699H54.9413V56.238H57.6323V57.246H54.9413V58.911H58.1363ZM64.0456 60V55.806L62.4076 58.929H61.7146L60.0766 55.806V60H58.8346V53.61H60.1666L62.0566 57.246L63.9646 53.61H65.2876V60H64.0456ZM70.1587 55.284C70.1047 55.224 69.9907 55.146 69.8167 55.05C69.6427 54.948 69.4327 54.858 69.1867 54.78C68.9467 54.696 68.6977 54.654 68.4397 54.654C67.7617 54.654 67.4227 54.894 67.4227 55.374C67.4227 55.548 67.4767 55.686 67.5847 55.788C67.6927 55.89 67.8547 55.977 68.0707 56.049C68.2867 56.121 68.5567 56.199 68.8807 56.283C69.3007 56.391 69.6637 56.517 69.9697 56.661C70.2817 56.805 70.5187 56.997 70.6807 57.237C70.8487 57.471 70.9327 57.783 70.9327 58.173C70.9327 58.629 70.8217 58.998 70.5997 59.28C70.3837 59.556 70.0957 59.757 69.7357 59.883C69.3757 60.009 68.9857 60.072 68.5657 60.072C68.0857 60.072 67.6087 60 67.1347 59.856C66.6667 59.706 66.2497 59.502 65.8837 59.244L66.4327 58.173C66.4867 58.227 66.5827 58.299 66.7207 58.389C66.8587 58.473 67.0267 58.56 67.2247 58.65C67.4227 58.734 67.6387 58.806 67.8727 58.866C68.1067 58.926 68.3437 58.956 68.5837 58.956C69.2677 58.956 69.6097 58.737 69.6097 58.299C69.6097 58.113 69.5407 57.963 69.4027 57.849C69.2647 57.735 69.0697 57.639 68.8177 57.561C68.5717 57.483 68.2837 57.396 67.9537 57.3C67.5457 57.186 67.2067 57.06 66.9367 56.922C66.6727 56.778 66.4747 56.601 66.3427 56.391C66.2107 56.175 66.1447 55.902 66.1447 55.572C66.1447 55.134 66.2467 54.768 66.4507 54.474C66.6607 54.174 66.9427 53.949 67.2967 53.799C67.6507 53.643 68.0437 53.565 68.4757 53.565C68.9197 53.565 69.3337 53.637 69.7177 53.781C70.1017 53.925 70.4317 54.09 70.7077 54.276L70.1587 55.284Z" fill="white"/>
<defs>
<linearGradient id="paint0_linear" x1="20.1591" y1="49.5449" x2="19.1657" y2="43.5931" gradientUnits="userSpaceOnUse">
<stop stop-color="#F55A5A"/>
<stop offset="1" stop-color="#C12E28"/>
</linearGradient>
<linearGradient id="paint1_linear" x1="20.1591" y1="49.5449" x2="19.1657" y2="43.5931" gradientUnits="userSpaceOnUse">
<stop stop-color="#F55A5A"/>
<stop offset="1" stop-color="#C12E28"/>
</linearGradient>
<linearGradient id="paint2_linear" x1="22.0627" y1="31.3037" x2="29.0724" y2="44.43" gradientUnits="userSpaceOnUse">
<stop stop-color="#F55A5A"/>
<stop offset="1" stop-color="#C12E28"/>
</linearGradient>
<linearGradient id="paint3_linear" x1="10.2839" y1="42.2132" x2="9.29048" y2="36.2615" gradientUnits="userSpaceOnUse">
<stop stop-color="#F55A5A"/>
<stop offset="1" stop-color="#C12E28"/>
</linearGradient>
<linearGradient id="paint4_linear" x1="10.2839" y1="42.2132" x2="9.29048" y2="36.2615" gradientUnits="userSpaceOnUse">
<stop stop-color="#F55A5A"/>
<stop offset="1" stop-color="#C12E28"/>
</linearGradient>
<linearGradient id="paint5_linear" x1="12.1874" y1="24.783" x2="20.0928" y2="38.4664" gradientUnits="userSpaceOnUse">
<stop stop-color="#F55A5A"/>
<stop offset="1" stop-color="#C12E28"/>
</linearGradient>
<linearGradient id="paint6_linear" x1="30.633" y1="34.7319" x2="29.6396" y2="28.7802" gradientUnits="userSpaceOnUse">
<stop stop-color="#F55A5A"/>
<stop offset="1" stop-color="#C12E28"/>
</linearGradient>
<linearGradient id="paint7_linear" x1="30.633" y1="34.7319" x2="29.6396" y2="28.7802" gradientUnits="userSpaceOnUse">
<stop stop-color="#F55A5A"/>
<stop offset="1" stop-color="#C12E28"/>
</linearGradient>
<linearGradient id="paint8_linear" x1="32.5365" y1="16.4907" x2="39.5463" y2="29.617" gradientUnits="userSpaceOnUse">
<stop stop-color="#F55A5A"/>
<stop offset="1" stop-color="#C12E28"/>
</linearGradient>
<linearGradient id="paint9_linear" x1="22" y1="64.5" x2="21.5" y2="50.5" gradientUnits="userSpaceOnUse">
<stop stop-color="#F55A5A"/>
<stop offset="1" stop-color="#C12E28"/>
</linearGradient>
<linearGradient id="paint10_linear" x1="22" y1="64.5" x2="21.5" y2="50.5" gradientUnits="userSpaceOnUse">
<stop stop-color="#F55A5A"/>
<stop offset="1" stop-color="#C12E28"/>
</linearGradient>
<linearGradient id="paint11_linear" x1="22" y1="21.5" x2="24" y2="58" gradientUnits="userSpaceOnUse">
<stop stop-color="#F55A5A"/>
<stop offset="1" stop-color="#C12E28"/>
</linearGradient>
<linearGradient id="paint12_linear" x1="22" y1="21.5" x2="24" y2="58" gradientUnits="userSpaceOnUse">
<stop stop-color="#F55A5A"/>
<stop offset="1" stop-color="#C12E28"/>
</linearGradient>
<linearGradient id="paint13_linear" x1="14.6645" y1="10.9162" x2="15.1366" y2="25.1572" gradientUnits="userSpaceOnUse">
<stop stop-color="#F55A5A"/>
<stop offset="1" stop-color="#C12E28"/>
</linearGradient>
<linearGradient id="paint14_linear" x1="14.6645" y1="10.9162" x2="15.1366" y2="25.1572" gradientUnits="userSpaceOnUse">
<stop stop-color="#F55A5A"/>
<stop offset="1" stop-color="#C12E28"/>
</linearGradient>
<linearGradient id="paint15_linear" x1="14.6645" y1="10.9162" x2="15.1366" y2="25.1572" gradientUnits="userSpaceOnUse">
<stop stop-color="#F55A5A"/>
<stop offset="1" stop-color="#C12E28"/>
</linearGradient>
<linearGradient id="paint16_linear" x1="14.6645" y1="10.9162" x2="15.1366" y2="25.1572" gradientUnits="userSpaceOnUse">
<stop stop-color="#F55A5A"/>
<stop offset="1" stop-color="#C12E28"/>
</linearGradient>
<linearGradient id="paint17_linear" x1="14.6645" y1="10.9162" x2="15.1366" y2="25.1572" gradientUnits="userSpaceOnUse">
<stop stop-color="#F55A5A"/>
<stop offset="1" stop-color="#C12E28"/>
</linearGradient>
<linearGradient id="paint18_linear" x1="14.6645" y1="10.9162" x2="15.1366" y2="25.1572" gradientUnits="userSpaceOnUse">
<stop stop-color="#F55A5A"/>
<stop offset="1" stop-color="#C12E28"/>
</linearGradient>
<linearGradient id="paint19_linear" x1="14.6645" y1="10.9162" x2="15.1366" y2="25.1572" gradientUnits="userSpaceOnUse">
<stop stop-color="#F55A5A"/>
<stop offset="1" stop-color="#C12E28"/>
</linearGradient>
</defs>
</svg>
