<svg width="19" height="18" viewBox="0 0 19 18" fill="none" xmlns="http://www.w3.org/2000/svg">
<path d="M8.17034 1.09227C8.58886 -0.195803 10.4111 -0.1958 10.8297 1.09227L11.9925 4.67123C12.1797 5.24728 12.7165 5.63729 13.3222 5.63729H17.0853C18.4397 5.63729 19.0028 7.37038 17.9071 8.16645L14.8627 10.3784C14.3727 10.7344 14.1676 11.3654 14.3548 11.9415L15.5177 15.5204C15.9362 16.8085 14.4619 17.8796 13.3662 17.0835L10.3218 14.8716C9.83176 14.5156 9.16824 14.5156 8.67822 14.8716L5.63378 17.0836C4.53808 17.8796 3.06382 16.8085 3.48234 15.5204L4.64522 11.9415C4.83239 11.3654 4.62735 10.7344 4.13733 10.3784L1.09289 8.16645C-0.00281453 7.37038 0.560303 5.63729 1.91466 5.63729H5.6778C6.28349 5.63729 6.8203 5.24728 7.00747 4.67123L8.17034 1.09227Z" fill="white"/>
</svg>
