<svg width="17" height="30" viewBox="0 0 17 30" fill="none" xmlns="http://www.w3.org/2000/svg">
<path fill-rule="evenodd" clip-rule="evenodd" d="M3.9409 30V18.028H0V10.0377H3.9409V7.88998C3.9409 5.6164 4.53468 3.62242 6.05539 2.13143C7.46986 0.693854 9.32231 0 11.5065 0C13.0139 0 14.3028 0.109984 15.2628 0.218944L16.6667 0.378274V7.67661H12.6325C12.2964 7.67661 12.0784 7.71391 11.956 7.75036C11.9557 7.75156 11.9555 7.75278 11.9552 7.75401C11.929 7.86903 11.9069 8.06039 11.9069 8.36049V10.0377H16.4796L15.4481 18.028H11.9069V30H3.9409ZM7.15618 3.28937C6.03021 4.38724 5.5184 5.90335 5.5184 7.88998V11.6541H1.5775V16.4115H5.5184V28.3836H10.3294V16.4115H14.0656L14.6797 11.6541H10.3294V8.36049C10.3294 7.62858 10.4317 7.0535 10.7388 6.68754C11.0459 6.26931 11.7113 6.06019 12.6325 6.06019H15.0892V1.82554C14.1679 1.72098 12.9396 1.61642 11.5065 1.61642C9.66403 1.61642 8.23097 2.1915 7.15618 3.28937Z" fill="#393969" fill-opacity="0.4"/>
</svg>
