<svg width="43" height="42" viewBox="0 0 43 42" fill="none" xmlns="http://www.w3.org/2000/svg">
<path fill-rule="evenodd" clip-rule="evenodd" d="M5.50933 3.80997C2.9008 4.10976 1.02655 6.44473 1.32278 9.02231L4.54263 37.0395C4.83898 39.6182 7.19526 41.4658 9.80247 41.1662L38.1417 37.9093C40.75 37.6096 42.6244 35.2746 42.3282 32.697L39.1084 4.67983C38.812 2.10094 36.4557 0.253478 33.8485 0.55311L5.50933 3.80997ZM24.9597 6.4951C23.7076 6.63899 22.8084 7.75897 22.9508 8.99808L24.3244 20.9498C24.4667 22.1882 25.5972 23.0757 26.8486 22.9318L33.8401 22.1283C35.092 21.9845 35.9914 20.8645 35.849 19.6254L34.4754 7.67362C34.3331 6.43526 33.2026 5.54779 31.9511 5.69161L24.9597 6.4951ZM8.52294 8.38408C7.27091 8.52797 6.37157 9.64702 6.51406 10.8869L8.96094 32.178C9.10325 33.4164 10.2337 34.3037 11.4852 34.1599L18.4767 33.3564C19.7285 33.2125 20.628 32.0934 20.4855 30.8536L18.0387 9.56242C17.8963 8.32406 16.7659 7.43677 15.5144 7.58059L8.52294 8.38408Z" fill="white"/>
</svg>
