<svg width="30" height="30" viewBox="0 0 30 30" fill="none" xmlns="http://www.w3.org/2000/svg">
<path d="M23.5515 17.7686C23.9814 17.7686 24.3918 17.8516 24.7826 18.0176C25.1832 18.1738 25.5349 18.4033 25.8378 18.7061L29.062 21.9287C29.3649 22.2314 29.5945 22.583 29.7509 22.9834C29.917 23.374 30 23.7842 30 24.2139C30 24.6436 29.917 25.0586 29.7509 25.459C29.5945 25.8496 29.3649 26.1963 29.062 26.499L28.8569 26.7041C28.3293 27.2314 27.8456 27.7002 27.406 28.1104C26.9663 28.5205 26.5071 28.8672 26.0283 29.1504C25.5496 29.4238 25.0171 29.6338 24.4309 29.7803C23.8447 29.9268 23.1461 30 22.3351 30C21.1138 30 19.8583 29.8096 18.5686 29.4287C17.2789 29.0479 15.9941 28.5205 14.7142 27.8467C13.4441 27.1729 12.1935 26.3721 10.9624 25.4443C9.74109 24.5166 8.58329 23.5059 7.48901 22.4121C6.40449 21.3086 5.40303 20.1465 4.48461 18.9258C3.56619 17.6953 2.77479 16.4453 2.11041 15.1758C1.44602 13.8965 0.928188 12.6221 0.556913 11.3525C0.185638 10.083 0 8.85254 0 7.66113C0 6.85059 0.0683928 6.15723 0.205178 5.58105C0.351734 5.00488 0.561798 4.47754 0.835369 3.99902C1.11871 3.52051 1.46067 3.06641 1.86126 2.63672C2.27162 2.19727 2.7406 1.71387 3.2682 1.18652L3.50269 0.952148C3.80557 0.649414 4.15242 0.415039 4.54323 0.249023C4.93405 0.0830078 5.34929 0 5.78896 0C6.21886 0 6.62921 0.0830078 7.02003 0.249023C7.42062 0.415039 7.77235 0.649414 8.07523 0.952148L11.2995 4.1748C11.6023 4.47754 11.832 4.8291 11.9883 5.22949C12.1544 5.62012 12.2374 6.03027 12.2374 6.45996C12.2374 6.88965 12.1641 7.27539 12.0176 7.61719C11.871 7.94922 11.6903 8.25195 11.4753 8.52539C11.2604 8.79883 11.021 9.04785 10.7572 9.27246C10.5032 9.49707 10.2687 9.7168 10.0537 9.93164C9.83879 10.1465 9.65804 10.3662 9.51148 10.5908C9.36492 10.8057 9.29165 11.04 9.29165 11.2939C9.29165 11.665 9.42355 11.9824 9.68735 12.2461L17.7626 20.3174C18.0264 20.5811 18.3439 20.7129 18.7152 20.7129C18.9692 20.7129 19.2037 20.6396 19.4187 20.4932C19.6434 20.3467 19.8632 20.166 20.0782 19.9512C20.2931 19.7363 20.5129 19.502 20.7377 19.248C20.9624 18.9844 21.2115 18.7451 21.4851 18.5303C21.7587 18.3154 22.0616 18.1348 22.3937 17.9883C22.7357 17.8418 23.1216 17.7686 23.5515 17.7686ZM22.3351 28.125C23.0386 28.125 23.6248 28.0615 24.0938 27.9346C24.5725 27.7979 25.0024 27.6074 25.3835 27.3633C25.7645 27.1094 26.1358 26.7969 26.4973 26.4258C26.8588 26.0547 27.2741 25.6348 27.743 25.166C28.0068 24.9023 28.1387 24.585 28.1387 24.2139C28.1387 24.0381 28.0655 23.833 27.9189 23.5986C27.7821 23.3545 27.6014 23.1006 27.3766 22.8369C27.1519 22.5732 26.8979 22.3047 26.6146 22.0312C26.341 21.748 26.0674 21.4844 25.7938 21.2402C25.53 20.9863 25.2809 20.7568 25.0464 20.5518C24.8217 20.3369 24.6458 20.166 24.5188 20.0391C24.255 19.7754 23.9326 19.6436 23.5515 19.6436C23.2975 19.6436 23.063 19.7168 22.8481 19.8633C22.6331 20.0098 22.4182 20.1904 22.2032 20.4053C21.9883 20.6201 21.7636 20.8594 21.5291 21.123C21.3043 21.377 21.0552 21.6113 20.7816 21.8262C20.5081 22.041 20.2003 22.2217 19.8583 22.3682C19.5261 22.5146 19.1451 22.5879 18.7152 22.5879C18.2853 22.5879 17.8701 22.5098 17.4695 22.3535C17.0787 22.1875 16.7318 21.9531 16.4289 21.6504L8.35369 13.5791C8.05081 13.2764 7.81632 12.9297 7.65022 12.5391C7.49389 12.1387 7.41573 11.7236 7.41573 11.2939C7.41573 10.8643 7.48901 10.4834 7.63556 10.1514C7.78212 9.80957 7.96287 9.50195 8.17782 9.22852C8.39277 8.95508 8.62726 8.70605 8.88129 8.48145C9.14509 8.24707 9.38447 8.02246 9.59941 7.80762C9.81436 7.59277 9.99512 7.37793 10.1417 7.16309C10.2882 6.94824 10.3615 6.71387 10.3615 6.45996C10.3615 6.0791 10.2296 5.75684 9.9658 5.49316C9.83879 5.36621 9.66781 5.19043 9.45286 4.96582C9.24768 4.73145 9.01808 4.48242 8.76405 4.21875C8.51979 3.94531 8.25598 3.67188 7.97264 3.39844C7.69907 3.11523 7.43039 2.86133 7.16659 2.63672C6.90278 2.41211 6.64875 2.23145 6.40449 2.09473C6.17001 1.94824 5.96483 1.875 5.78896 1.875C5.41768 1.875 5.10015 2.00684 4.83635 2.27051C4.36737 2.73926 3.94724 3.1543 3.57596 3.51562C3.21446 3.87695 2.90181 4.24805 2.63801 4.62891C2.38398 5.00977 2.18857 5.43945 2.05178 5.91797C1.92477 6.38672 1.86126 6.96777 1.86126 7.66113C1.86126 8.75488 2.03713 9.88281 2.38886 11.0449C2.75037 12.207 3.24377 13.3691 3.86908 14.5312C4.50415 15.6934 5.25159 16.8408 6.11138 17.9736C6.97118 19.0967 7.90914 20.1611 8.92526 21.167C9.94138 22.1729 11.0112 23.1006 12.1348 23.9502C13.2682 24.7998 14.4113 25.5371 15.5642 26.1621C16.7269 26.7773 17.8798 27.2607 19.023 27.6123C20.1759 27.9541 21.2799 28.125 22.3351 28.125Z" fill="#393969" fill-opacity="0.4"/>
</svg>
