<svg width="16" height="12" viewBox="0 0 16 12" fill="none" xmlns="http://www.w3.org/2000/svg">
<path d="M0.306182 8.21075C1.44653 9.22537 2.58778 10.245 3.72815 11.2596C3.89378 11.4051 4.05445 11.5506 4.22007 11.6962C4.65237 12.0818 5.28838 12.1203 5.72066 11.6962C6.84446 10.5871 7.96325 9.47372 9.08709 8.36452C10.8767 6.59125 12.6655 4.81872 14.455 3.04549C14.8666 2.63898 15.2815 2.22744 15.6931 1.82092C16.0915 1.42696 16.113 0.69422 15.6931 0.305271C15.265 -0.0886882 14.6165 -0.114619 14.1925 0.305271C13.0687 1.41441 11.9499 2.52774 10.8261 3.63695C9.03648 5.40938 7.24364 7.18275 5.45389 8.95597C5.04231 9.36248 4.62741 9.77402 4.21583 10.1805H5.71642C4.57607 9.16593 3.43482 8.1463 2.29445 7.13174C2.12882 6.9862 1.96815 6.84065 1.80253 6.69511C1.38681 6.32706 0.708546 6.25012 0.301942 6.69511C-0.0624523 7.10162 -0.138626 7.81262 0.306082 8.21075H0.306182Z" fill="#373836"/>
</svg>
