<svg width="20" height="20" viewBox="0 0 20 20" fill="none" xmlns="http://www.w3.org/2000/svg">
<path d="M2.49765 12.2612C6.8073 17.0829 10.0037 19.5986 10.0037 19.5986C10.0537 19.5595 13.1942 17.0845 17.5036 12.2612C17.8949 11.8238 18.2558 11.3525 18.5739 10.8475C19.6553 9.13544 20.2222 7.01829 19.9186 4.93221C19.687 3.34569 18.8848 1.52553 17.5414 0.750382C15.703 -0.30956 13.2586 -0.286608 11.547 1.07579C11.0021 1.50922 10.5388 2.06553 10.1829 2.69339C10.1402 2.76901 10.0695 2.88108 10 2.9999C9.93174 2.88108 9.86103 2.77036 9.81714 2.69339C9.45995 2.06553 8.99668 1.50922 8.45296 1.07579C6.74133 -0.286604 4.29842 -0.309557 2.45865 0.750382C1.11519 1.52543 0.313026 3.3442 0.0813931 4.93221C-0.222164 7.01836 0.344719 9.1341 1.42606 10.8475C1.74546 11.3525 2.10633 11.8238 2.49766 12.2612H2.49765ZM14.7644 1.47413C15.7079 1.49573 17.6037 2.10604 18.1655 4.54594C18.2374 4.85784 18.0668 5.17515 17.7851 5.25482C17.7412 5.26697 17.6974 5.27373 17.6547 5.27373C17.4194 5.27373 17.2048 5.09819 17.1451 4.83491C16.6428 2.65695 14.8422 2.64074 14.7691 2.64209H14.7666C14.4765 2.64209 14.2412 2.38284 14.24 2.06148C14.2388 1.73742 14.4741 1.47547 14.7642 1.47413L14.7644 1.47413Z" fill="black" fill-opacity="0.6"/>
</svg>
