<svg width="26" height="17" viewBox="0 0 26 17" fill="none" xmlns="http://www.w3.org/2000/svg">
<path d="M25.623 7.29688C25.8027 7.65625 25.9375 8.01562 25.9375 8.375C25.9375 8.7793 25.8027 9.13867 25.623 9.45312C24.3203 11.6543 22.5684 13.4062 20.3672 14.6641C18.1211 16.0117 15.6504 16.6406 13 16.6406C10.3047 16.6406 7.87891 16.0117 5.63281 14.6641C3.38672 13.4062 1.63477 11.6543 0.376953 9.45312C0.152344 9.13867 0.0625 8.7793 0.0625 8.375C0.0625 8.01562 0.152344 7.65625 0.376953 7.29688C1.63477 5.14062 3.38672 3.38867 5.63281 2.08594C7.87891 0.783203 10.3047 0.109375 13 0.109375C15.6504 0.109375 18.1211 0.783203 20.3672 2.08594C22.5684 3.38867 24.3203 5.14062 25.623 7.29688ZM13 14.4844C15.2461 14.4844 17.3574 13.9453 19.2441 12.8223C21.1309 11.7441 22.6582 10.2617 23.7812 8.375C23.0625 7.25195 22.209 6.26367 21.2207 5.36523C20.2324 4.4668 19.1094 3.74805 17.8516 3.20898C18.6602 4.33203 19.1094 5.58984 19.1094 6.9375C19.1094 8.06055 18.7949 9.09375 18.2559 9.99219C17.7168 10.9355 16.9531 11.6992 16.0547 12.2383C15.1113 12.7773 14.0781 13.0469 13 13.0469C11.877 13.0469 10.8438 12.7773 9.94531 12.2383C9.00195 11.6992 8.23828 10.9355 7.69922 9.99219C7.16016 9.09375 6.89062 8.06055 6.89062 6.9375C6.89062 5.94922 7.11523 4.96094 7.60938 4.0625C7.60938 4.78125 7.83398 5.36523 8.32812 5.85938C8.82227 6.35352 9.40625 6.57812 10.125 6.57812C10.7988 6.57812 11.3828 6.35352 11.877 5.85938C12.3711 5.36523 12.6406 4.78125 12.6406 4.0625C12.6406 3.38867 12.3711 2.80469 11.9219 2.31055C9.85547 2.49023 8.01367 3.11914 6.30664 4.19727C4.59961 5.27539 3.20703 6.66797 2.21875 8.375C3.29688 10.2617 4.82422 11.7441 6.71094 12.8223C8.59766 13.9453 10.709 14.4844 13 14.4844Z" fill="white"/>
</svg>
