<svg width="13" height="15" viewBox="0 0 13 15" fill="none" xmlns="http://www.w3.org/2000/svg">
<path d="M4.04688 8.625C4.12891 8.625 4.21094 8.59766 4.26562 8.54297C4.32031 8.48828 4.375 8.40625 4.375 8.29688V7.20312C4.375 7.12109 4.32031 7.03906 4.26562 6.98438C4.21094 6.92969 4.12891 6.875 4.04688 6.875H2.95312C2.84375 6.875 2.76172 6.92969 2.70703 6.98438C2.65234 7.03906 2.625 7.12109 2.625 7.20312V8.29688C2.625 8.40625 2.65234 8.48828 2.70703 8.54297C2.76172 8.59766 2.84375 8.625 2.95312 8.625H4.04688ZM7 8.29688C7 8.40625 6.94531 8.48828 6.89062 8.54297C6.83594 8.59766 6.75391 8.625 6.67188 8.625H5.57812C5.46875 8.625 5.38672 8.59766 5.33203 8.54297C5.27734 8.48828 5.25 8.40625 5.25 8.29688V7.20312C5.25 7.12109 5.27734 7.03906 5.33203 6.98438C5.38672 6.92969 5.46875 6.875 5.57812 6.875H6.67188C6.75391 6.875 6.83594 6.92969 6.89062 6.98438C6.94531 7.03906 7 7.12109 7 7.20312V8.29688ZM9.625 8.29688C9.625 8.40625 9.57031 8.48828 9.51562 8.54297C9.46094 8.59766 9.37891 8.625 9.29688 8.625H8.20312C8.09375 8.625 8.01172 8.59766 7.95703 8.54297C7.90234 8.48828 7.875 8.40625 7.875 8.29688V7.20312C7.875 7.12109 7.90234 7.03906 7.95703 6.98438C8.01172 6.92969 8.09375 6.875 8.20312 6.875H9.29688C9.37891 6.875 9.46094 6.92969 9.51562 6.98438C9.57031 7.03906 9.625 7.12109 9.625 7.20312V8.29688ZM7 10.9219C7 11.0312 6.94531 11.1133 6.89062 11.168C6.83594 11.2227 6.75391 11.25 6.67188 11.25H5.57812C5.46875 11.25 5.38672 11.2227 5.33203 11.168C5.27734 11.1133 5.25 11.0312 5.25 10.9219V9.82812C5.25 9.74609 5.27734 9.66406 5.33203 9.60938C5.38672 9.55469 5.46875 9.5 5.57812 9.5H6.67188C6.75391 9.5 6.83594 9.55469 6.89062 9.60938C6.94531 9.66406 7 9.74609 7 9.82812V10.9219ZM4.375 10.9219C4.375 11.0312 4.32031 11.1133 4.26562 11.168C4.21094 11.2227 4.12891 11.25 4.04688 11.25H2.95312C2.84375 11.25 2.76172 11.2227 2.70703 11.168C2.65234 11.1133 2.625 11.0312 2.625 10.9219V9.82812C2.625 9.74609 2.65234 9.66406 2.70703 9.60938C2.76172 9.55469 2.84375 9.5 2.95312 9.5H4.04688C4.12891 9.5 4.21094 9.55469 4.26562 9.60938C4.32031 9.66406 4.375 9.74609 4.375 9.82812V10.9219ZM9.625 10.9219C9.625 11.0312 9.57031 11.1133 9.51562 11.168C9.46094 11.2227 9.37891 11.25 9.29688 11.25H8.20312C8.09375 11.25 8.01172 11.2227 7.95703 11.168C7.90234 11.1133 7.875 11.0312 7.875 10.9219V9.82812C7.875 9.74609 7.90234 9.66406 7.95703 9.60938C8.01172 9.55469 8.09375 9.5 8.20312 9.5H9.29688C9.37891 9.5 9.46094 9.55469 9.51562 9.60938C9.57031 9.66406 9.625 9.74609 9.625 9.82812V10.9219ZM12.25 3.8125C12.25 3.45703 12.1133 3.15625 11.8672 2.88281C11.5938 2.63672 11.293 2.5 10.9375 2.5H9.625V1.07812C9.625 0.996094 9.57031 0.914062 9.51562 0.859375C9.46094 0.804688 9.37891 0.75 9.29688 0.75H8.20312C8.09375 0.75 8.01172 0.804688 7.95703 0.859375C7.90234 0.914062 7.875 0.996094 7.875 1.07812V2.5H4.375V1.07812C4.375 0.996094 4.32031 0.914062 4.26562 0.859375C4.21094 0.804688 4.12891 0.75 4.04688 0.75H2.95312C2.84375 0.75 2.76172 0.804688 2.70703 0.859375C2.65234 0.914062 2.625 0.996094 2.625 1.07812V2.5H1.3125C0.929688 2.5 0.628906 2.63672 0.382812 2.88281C0.109375 3.15625 0 3.45703 0 3.8125V13.4375C0 13.8203 0.109375 14.1211 0.382812 14.3672C0.628906 14.6406 0.929688 14.75 1.3125 14.75H10.9375C11.293 14.75 11.5938 14.6406 11.8672 14.3672C12.1133 14.1211 12.25 13.8203 12.25 13.4375V3.8125ZM10.9375 13.2734C10.9375 13.3281 10.9102 13.3555 10.8828 13.3828C10.8281 13.4375 10.8008 13.4375 10.7734 13.4375H1.47656C1.42188 13.4375 1.39453 13.4375 1.36719 13.3828C1.3125 13.3555 1.3125 13.3281 1.3125 13.2734V5.125H10.9375V13.2734Z" fill="black" fill-opacity="0.4"/>
</svg>
