<svg width="30" height="24" viewBox="0 0 30 24" fill="none" xmlns="http://www.w3.org/2000/svg">
<path d="M27.5 0H2.5C1.11979 0 0 1.15179 0 2.57143V21.4286C0 22.8482 1.11979 24 2.5 24H27.5C28.8802 24 30 22.8482 30 21.4286V2.57143C30 1.15179 28.8802 0 27.5 0ZM27.5 21.4286H2.5V2.57143H27.5V21.4286ZM10.8333 12C12.6719 12 14.1667 10.4625 14.1667 8.57143C14.1667 6.68036 12.6719 5.14286 10.8333 5.14286C8.99479 5.14286 7.5 6.68036 7.5 8.57143C7.5 10.4625 8.99479 12 10.8333 12ZM6.16667 18.8571H15.5C16.1458 18.8571 16.6667 18.3964 16.6667 17.8286V16.8C16.6667 15.0964 15.099 13.7143 13.1667 13.7143C12.6042 13.7143 12.1927 14.1429 10.8333 14.1429C9.43229 14.1429 9.09375 13.7143 8.5 13.7143C6.56771 13.7143 5 15.0964 5 16.8V17.8286C5 18.3964 5.52083 18.8571 6.16667 18.8571ZM18.75 15.4286H24.5833C24.8125 15.4286 25 15.2357 25 15V14.1429C25 13.9071 24.8125 13.7143 24.5833 13.7143H18.75C18.5208 13.7143 18.3333 13.9071 18.3333 14.1429V15C18.3333 15.2357 18.5208 15.4286 18.75 15.4286ZM18.75 12H24.5833C24.8125 12 25 11.8071 25 11.5714V10.7143C25 10.4786 24.8125 10.2857 24.5833 10.2857H18.75C18.5208 10.2857 18.3333 10.4786 18.3333 10.7143V11.5714C18.3333 11.8071 18.5208 12 18.75 12ZM18.75 8.57143H24.5833C24.8125 8.57143 25 8.37857 25 8.14286V7.28571C25 7.05 24.8125 6.85714 24.5833 6.85714H18.75C18.5208 6.85714 18.3333 7.05 18.3333 7.28571V8.14286C18.3333 8.37857 18.5208 8.57143 18.75 8.57143Z" fill="#3E980E"/>
</svg>
