<svg width="16" height="16" viewBox="0 0 16 16" fill="none" xmlns="http://www.w3.org/2000/svg">
<g clip-path="url(#clip0)">
<path d="M5.83325 11.7413V14.8333C5.83325 15.0493 5.97192 15.2407 6.17725 15.3087C6.22858 15.3253 6.28125 15.3333 6.33325 15.3333C6.48925 15.3333 6.63992 15.26 6.73592 15.1293L8.54458 12.668L5.83325 11.7413Z" fill="white"/>
<path d="M15.7895 0.0918331C15.6362 -0.0168336 15.4349 -0.0315002 15.2682 0.0558331L0.268208 7.88917C0.0908747 7.98183 -0.013792 8.17117 0.000874704 8.3705C0.016208 8.5705 0.148875 8.74117 0.337541 8.80583L4.50754 10.2312L13.3882 2.63783L6.51621 10.9172L13.5049 13.3058C13.5569 13.3232 13.6115 13.3325 13.6662 13.3325C13.7569 13.3325 13.8469 13.3078 13.9262 13.2598C14.0529 13.1825 14.1389 13.0525 14.1609 12.9065L15.9942 0.573166C16.0215 0.3865 15.9429 0.201166 15.7895 0.0918331Z" fill="white"/>
</g>
<defs>
<clipPath id="clip0">
<rect width="16" height="16" fill="white"/>
</clipPath>
</defs>
</svg>
