<svg width="19" height="19" viewBox="0 0 19 19" fill="none" xmlns="http://www.w3.org/2000/svg">
<path d="M18.2308 17.1728L13.9034 12.8455C14.9761 11.5377 15.6226 9.8626 15.6226 8.03689C15.6226 3.84913 12.2246 0.451172 8.03689 0.451172C3.84546 0.451172 0.451172 3.84913 0.451172 8.03689C0.451172 12.2246 3.84546 15.6226 8.03689 15.6226C9.8626 15.6226 11.534 14.9797 12.8418 13.9071L17.1691 18.2308C17.463 18.5246 17.9369 18.5246 18.2308 18.2308C18.5246 17.9406 18.5246 17.463 18.2308 17.1728ZM8.03689 14.1128C4.68301 14.1128 1.95729 11.3871 1.95729 8.03689C1.95729 4.68668 4.68301 1.95729 8.03689 1.95729C11.3871 1.95729 14.1165 4.68668 14.1165 8.03689C14.1165 11.3871 11.3871 14.1128 8.03689 14.1128Z" fill="white"/>
</svg>
