<svg width="34" height="34" viewBox="0 0 34 34" fill="none" xmlns="http://www.w3.org/2000/svg">
<g clip-path="url(#clip0)">
<path d="M29.0187 4.97688C22.3788 -1.66102 11.6149 -1.65942 4.97701 4.98054C-1.6609 11.6205 -1.6593 22.3843 4.98066 29.0222C11.6206 35.6601 22.3844 35.6585 29.0223 29.0185C32.2102 25.8296 34.0007 21.5049 33.9997 16.9959C33.9987 12.4876 32.207 8.16425 29.0187 4.97688ZM25.7433 23.6769L24.8819 24.5325C23.768 25.6606 22.1456 26.1247 20.6036 25.7565C19.05 25.3407 17.5731 24.6788 16.2289 23.7959C14.9801 22.9977 13.8228 22.0647 12.7779 21.0135C11.8166 20.0592 10.9529 19.0113 10.1996 17.8855C9.37562 16.6741 8.72345 15.3545 8.26159 13.9642C7.73214 12.3308 8.17088 10.5386 9.39495 9.33453L10.4036 8.32588C10.684 8.04419 11.1397 8.04319 11.4213 8.32363C11.4221 8.32436 11.4229 8.32509 11.4236 8.32588L14.6082 11.5105C14.8899 11.791 14.8909 12.2466 14.6105 12.5283C14.6098 12.529 14.609 12.5298 14.6082 12.5305L12.7382 14.4005C12.2017 14.9312 12.1342 15.7746 12.5796 16.3839C13.2559 17.3121 14.0044 18.1856 14.8179 18.9962C15.725 19.9072 16.7111 20.7359 17.7646 21.4726C18.3733 21.8972 19.1986 21.8256 19.7252 21.3026L21.5329 19.4666C21.8133 19.1849 22.269 19.1839 22.5506 19.4643C22.5514 19.4651 22.5521 19.4658 22.5529 19.4666L25.7432 22.6626C26.0249 22.943 26.0259 23.3987 25.7455 23.6803C25.7448 23.6811 25.744 23.6818 25.7432 23.6826V23.6769H25.7433Z" fill="white"/>
</g>
<defs>
<clipPath id="clip0">
<rect width="34" height="34" fill="white"/>
</clipPath>
</defs>
</svg>
