<svg width="35" height="35" viewBox="0 0 35 35" fill="none" xmlns="http://www.w3.org/2000/svg">
<g clip-path="url(#clip0)">
<path d="M27.3003 1.86269H16.5541C15.8739 1.86269 15.2207 2.13346 14.7395 2.61469L0.751684 16.5999C-0.250562 17.6022 -0.250562 19.2268 0.751684 20.2303L11.4979 30.9766C12.5002 31.9788 14.1248 31.9788 15.127 30.9766L29.1149 16.9913C29.5961 16.5088 29.8669 15.8556 29.8669 15.1742V4.42926C29.8669 3.01123 28.7183 1.86269 27.3003 1.86269ZM22.8088 10.8457C21.7462 10.8457 20.8839 9.98331 20.8839 8.92075C20.8839 7.85819 21.7462 6.99583 22.8088 6.99583C23.8714 6.99583 24.7337 7.85819 24.7337 8.92075C24.7337 9.98331 23.8714 10.8457 22.8088 10.8457Z" fill="#252525"/>
<path d="M32.4334 4.42924L32.4321 16.3753C32.4321 16.9669 32.1973 17.5354 31.7776 17.9538L17.564 32.1674L17.7821 32.3856C18.7844 33.3879 20.409 33.3879 21.4113 32.3856L34.2467 19.5528C34.7292 19.0715 35 18.4183 35 17.7382V6.99582C35 5.57779 33.8514 4.42924 32.4334 4.42924Z" fill="#252525"/>
</g>
<defs>
<clipPath id="clip0">
<rect width="35" height="35" fill="white"/>
</clipPath>
</defs>
</svg>
