<svg xmlns="http://www.w3.org/2000/svg" xmlns:xlink="http://www.w3.org/1999/xlink" width="173" height="164" viewBox="0 0 173 164">
    <defs>
        <path id="a" d="M.485.455h76.177v93.028H.485z"/>
        <path id="c" d="M0 164h174V1H0z"/>
    </defs>
    <g fill="none" fill-rule="evenodd">
        <g transform="translate(48)">
            <mask id="b" fill="#fff">
                <use xlink:href="#a"/>
            </mask>
            <path fill="#262C39" d="M64.206 71.066V40.163a29.531 29.531 0 0 1 4.341 15.453 29.511 29.511 0 0 1-4.34 15.45m0-43.457V9.273l-8.6 8.477V80.124s-2.27 1.524-4.423 2.517V.454l-8.492 8.444v9.076a38.701 38.701 0 0 0-4.118-.224C17.538 17.75.485 34.703.485 55.616s17.053 37.867 38.09 37.867V32.727l-8.528 8.443v43.014C17.65 80.531 8.601 69.128 8.601 55.616c0-16.457 13.42-29.798 29.973-29.798 1.398 0 2.77.103 4.118.287v67.154c19.098-2.042 33.97-18.113 33.97-37.643 0-11.098-4.803-21.081-12.456-28.007" mask="url(#b)"/>
        </g>
        <path fill="#1A8293" d="M0 138v-24h5.15v19.798H15V138zM26.764 122.557c-1.067 0-1.904.336-2.508 1.008-.605.673-.953 1.626-1.04 2.861h7.064c-.023-1.235-.347-2.188-.974-2.86-.627-.673-1.475-1.009-2.542-1.009m.71 15.443c-2.971 0-5.293-.814-6.965-2.443-1.673-1.628-2.509-3.934-2.509-6.918 0-3.07.773-5.445 2.32-7.123C21.864 119.84 24.001 119 26.73 119c2.608 0 4.638.738 6.09 2.213 1.453 1.475 2.179 3.514 2.179 6.114v2.427H23.1c.055 1.42.479 2.53 1.271 3.328.792.797 1.904 1.196 3.334 1.196 1.112 0 2.162-.114 3.153-.344.99-.23 2.023-.595 3.102-1.098v3.869c-.88.437-1.821.762-2.822.975-1.002.213-2.223.32-3.664.32M41.948 137L35 119h5.202l3.523 10.256c.391 1.298.636 2.528.734 3.687h.098c.054-1.03.3-2.26.734-3.687L48.798 119H54l-6.948 18h-5.104zM64.764 122.557c-1.067 0-1.904.336-2.508 1.008-.605.673-.953 1.626-1.04 2.861h7.064c-.023-1.235-.347-2.188-.974-2.86-.627-.673-1.475-1.009-2.542-1.009m.71 15.443c-2.971 0-5.293-.814-6.965-2.443-1.673-1.628-2.509-3.934-2.509-6.918 0-3.07.773-5.445 2.32-7.123C59.864 119.84 62.001 119 64.73 119c2.608 0 4.638.738 6.09 2.213 1.453 1.475 2.179 3.514 2.179 6.114v2.427H61.1c.055 1.42.479 2.53 1.271 3.328.792.797 1.904 1.196 3.334 1.196 1.112 0 2.162-.114 3.153-.344.99-.23 2.023-.595 3.102-1.098v3.869c-.88.437-1.821.762-2.822.975-1.002.213-2.223.32-3.664.32"/>
        <mask id="d" fill="#fff">
            <use xlink:href="#c"/>
        </mask>
        <path fill="#1A8293" d="M77 138h5v-26h-5zM111 130.914c0 2.196-.798 3.926-2.393 5.19-1.594 1.264-3.813 1.896-6.656 1.896-2.62 0-4.936-.488-6.951-1.464v-4.79c1.657.732 3.058 1.248 4.206 1.547 1.147.3 2.196.449 3.148.449 1.141 0 2.017-.216 2.627-.649.61-.432.915-1.075.915-1.93 0-.476-.134-.9-.403-1.272-.268-.371-.663-.729-1.184-1.072-.52-.344-1.58-.893-3.181-1.647-1.5-.699-2.625-1.37-3.374-2.013a7.562 7.562 0 0 1-1.797-2.245c-.448-.854-.672-1.852-.672-2.994 0-2.151.736-3.843 2.208-5.074 1.472-1.23 3.506-1.846 6.103-1.846 1.276 0 2.493.15 3.652.45 1.158.299 2.37.72 3.635 1.263l-1.68 4.009c-1.309-.532-2.392-.903-3.248-1.114a10.524 10.524 0 0 0-2.527-.316c-.985 0-1.74.227-2.266.682-.526.454-.79 1.048-.79 1.78 0 .454.107.85.32 1.189.212.338.551.665 1.015.981.465.316 1.565.885 3.3 1.705 2.294 1.087 3.866 2.176 4.717 3.269.85 1.092 1.276 2.43 1.276 4.016M125.137 129.195l-1.893.066c-1.423.043-2.482.305-3.178.785-.695.48-1.043 1.211-1.043 2.193 0 1.408.792 2.112 2.375 2.112 1.134 0 2.04-.333 2.72-1 .68-.664 1.02-1.548 1.02-2.65v-1.506zm1.445 8.478l-.947-2.488h-.128c-.824 1.058-1.672 1.792-2.544 2.201-.872.41-2.009.614-3.41.614-1.723 0-3.079-.502-4.069-1.506-.99-1.003-1.484-2.433-1.484-4.287 0-1.942.666-3.374 1.998-4.296 1.332-.922 3.34-1.432 6.026-1.53l3.113-.099v-.801c0-1.855-.93-2.783-2.792-2.783-1.434 0-3.119.442-5.055 1.326l-1.62-3.371c2.064-1.102 4.353-1.653 6.868-1.653 2.407 0 4.253.535 5.536 1.604 1.284 1.069 1.926 2.694 1.926 4.877v12.192h-3.418zM152 138h-5.025v-10.893c0-1.345-.235-2.355-.707-3.027-.473-.673-1.225-1.01-2.257-1.01-1.406 0-2.422.475-3.048 1.426-.626.951-.939 2.528-.939 4.73V138H135v-18.65h3.838l.675 2.386h.28a5.328 5.328 0 0 1 2.315-2.044c.983-.461 2.1-.692 3.352-.692 2.142 0 3.767.586 4.876 1.76 1.11 1.173 1.664 2.866 1.664 5.08V138zM164.606 133.991c1.269 0 2.199-.374 2.79-1.122.59-.747.914-2.018.968-3.81v-.545c0-1.98-.301-3.399-.903-4.256-.602-.858-1.58-1.287-2.936-1.287-1.107 0-1.967.475-2.579 1.427-.613.951-.919 2.334-.919 4.149s.309 3.176.927 4.083c.618.907 1.502 1.361 2.652 1.361M162.865 138c-2.136 0-3.815-.841-5.035-2.524-1.22-1.683-1.83-4.014-1.83-6.995 0-3.024.62-5.38 1.862-7.07 1.243-1.687 2.953-2.531 5.133-2.531 2.289 0 4.035.902 5.238 2.705h.163c-.25-1.375-.374-2.6-.374-3.679V112H173v25.67h-3.806l-.96-2.392h-.212c-1.128 1.815-2.847 2.722-5.157 2.722M49.65 156.096h1.486c1.463 0 2.52-.234 3.175-.7.653-.466.98-1.213.98-2.24 0-.926-.308-1.615-.922-2.068-.615-.454-1.573-.68-2.874-.68H49.65v5.688zm7.35-3.017c0 1.417-.49 2.507-1.47 3.27-.982.763-2.385 1.144-4.21 1.144h-1.67V163H48v-14h3.68c3.547 0 5.32 1.36 5.32 4.08zM62.9 161.671c1.059 0 1.89-.275 2.494-.824.604-.55.906-1.32.906-2.31v-.96l-1.7.068c-1.35.046-2.325.244-2.923.597-.597.353-.896.9-.896 1.644 0 .582.187 1.025.558 1.33.372.303.893.455 1.562.455zm3.84 1.135l-.337-1.513h-.082c-.56.666-1.118 1.117-1.674 1.353-.557.236-1.251.354-2.084.354-1.112 0-1.984-.272-2.616-.815-.631-.543-.947-1.316-.947-2.318 0-2.147 1.812-3.272 5.437-3.376l1.904-.058v-.66c0-.834-.19-1.45-.568-1.848-.379-.397-.985-.596-1.817-.596-.936 0-1.993.271-3.175.814l-.522-1.231a8.244 8.244 0 0 1 1.818-.67 8.284 8.284 0 0 1 1.98-.242c1.339 0 2.33.28 2.975.844.645.562.968 1.464.968 2.706v7.256h-1.26zM75.754 152c.463 0 .878.04 1.246.118l-.22 1.518a5.187 5.187 0 0 0-1.14-.148c-.843 0-1.564.355-2.163 1.065-.599.71-.899 1.594-.899 2.651V163H71v-10.803h1.303l.18 2.001h.077c.386-.703.852-1.245 1.397-1.626a3.068 3.068 0 0 1 1.797-.572M82.613 162.6c.271 0 .533-.022.786-.066.253-.044.453-.09.601-.139v1.299c-.167.088-.412.161-.735.22a5.04 5.04 0 0 1-.874.086c-1.96 0-2.94-1.141-2.94-3.423v-6.663H78v-.818l1.451-.705L80.1 150h.887v2.596h2.94v1.318h-2.94v6.59c0 .676.145 1.193.434 1.554.29.361.688.542 1.193.542M94.369 163v-6.988c0-.88-.2-1.538-.6-1.972-.399-.433-1.024-.65-1.876-.65-1.126 0-1.952.305-2.476.916-.524.612-.786 1.62-.786 3.027V163H87v-10.803h1.326l.266 1.478h.079a3.333 3.333 0 0 1 1.404-1.237c.603-.292 1.275-.438 2.015-.438 1.296 0 2.272.313 2.927.941.655.628.983 1.632.983 3.012V163h-1.631zM103.65 153.346c-.854 0-1.535.277-2.043.833-.508.555-.808 1.323-.898 2.304h5.563c0-1.014-.227-1.79-.68-2.329-.453-.539-1.1-.808-1.941-.808m.436 9.654c-1.573 0-2.814-.478-3.723-1.433-.91-.956-1.364-2.282-1.364-3.98 0-1.71.423-3.07 1.267-4.076.845-1.007 1.979-1.511 3.403-1.511 1.333 0 2.388.437 3.165 1.312.777.874 1.165 2.029 1.165 3.462v1.016h-7.33c.032 1.246.348 2.192.946 2.838.599.646 1.442.968 2.53.968 1.145 0 2.278-.239 3.398-.716v1.433a8.5 8.5 0 0 1-1.617.527c-.508.107-1.121.16-1.84.16M115.754 152c.463 0 .878.04 1.246.118l-.22 1.518a5.187 5.187 0 0 0-1.14-.148c-.843 0-1.564.355-2.163 1.065-.599.71-.899 1.594-.899 2.651V163H111v-10.803h1.303l.18 2.001h.077c.386-.703.852-1.245 1.397-1.626a3.068 3.068 0 0 1 1.797-.572M126 159.911c0 .988-.391 1.75-1.174 2.285-.782.536-1.88.804-3.295.804-1.496 0-2.663-.223-3.5-.668v-1.491a8.8 8.8 0 0 0 1.745.61 7.74 7.74 0 0 0 1.796.222c.893 0 1.58-.133 2.06-.401s.72-.677.72-1.225c0-.413-.19-.767-.57-1.06-.382-.294-1.125-.641-2.23-1.041-1.05-.368-1.797-.69-2.24-.964-.442-.274-.771-.586-.988-.935-.216-.348-.324-.764-.324-1.249 0-.865.374-1.547 1.122-2.048.748-.5 1.774-.75 3.079-.75 1.215 0 2.402.232 3.562.697l-.607 1.307c-1.133-.439-2.16-.658-3.079-.658-.81 0-1.42.12-1.832.358-.412.239-.618.568-.618.988 0 .284.077.526.232.726.154.2.403.39.746.571.343.181 1.002.443 1.977.785 1.338.458 2.242.92 2.713 1.384.47.465.705 1.05.705 1.753" mask="url(#d)"/>
    </g>
</svg>
