<svg xmlns="http://www.w3.org/2000/svg" width="51" height="52" viewBox="0 0 51 52">
    <g fill="#14839A" fill-rule="evenodd">
        <path fill-rule="nonzero" d="M13.061 14.54l-1.115 1.354c1.115.956 2.39 1.513 3.743 1.673v1.115h.956v-1.115c1.912-.08 3.425-1.195 3.425-3.106 0-1.991-1.434-2.708-3.425-3.186V8.408c.797.08 1.513.398 2.15.876l.956-1.434a6.162 6.162 0 0 0-3.186-1.115V5.94h-.955v.796c-1.912.08-3.345 1.195-3.345 3.106 0 1.912 1.354 2.629 3.345 3.106v2.947c-.797-.16-1.673-.557-2.549-1.354zm3.584-1.354c.876.24 1.593.558 1.593 1.434 0 .796-.796 1.194-1.593 1.274v-2.708zm-2.39-3.504c0-.796.718-1.195 1.434-1.274v2.628c-.876-.239-1.433-.558-1.433-1.354z"/>
        <path fill-rule="nonzero" d="M46.351.364H9.477A4.793 4.793 0 0 0 4.7 5.142v35.043H.796c-.477 0-.796.318-.796.796v2.867c0 2.549 2.07 4.62 4.62 4.62h19.91v1.115c0 .876.716 1.592 1.592 1.592h23.256c.876 0 1.593-.716 1.593-1.592V23.938c0-.876-.717-1.593-1.593-1.593h-6.053v-5.893h6.85c.477 0 .796-.319.796-.797V4.983c0-2.548-2.071-4.619-4.62-4.619zM4.62 46.874a3.025 3.025 0 0 1-3.026-3.026v-2.07H24.53v5.097H4.62zm44.759 2.709H26.122V23.938h23.256v25.645zM26.122 22.345c-.876 0-1.592.717-1.592 1.593v16.247H6.292V5.142a3.195 3.195 0 0 1 3.185-3.185h33.37c-.717.796-1.115 1.832-1.115 3.026v17.362h-15.61zm23.256-7.486h-6.053V4.983a3.025 3.025 0 0 1 3.026-3.026 3.025 3.025 0 0 1 3.027 3.026v9.876z"/>
        <path fill-rule="nonzero" d="M47.148 26.646H27.875v7.327h19.273v-7.327zm-1.593 5.734H29.467v-4.141h16.088v4.141z"/>
        <path d="M31.25 36h-1.5c-.45 0-.75.4-.75 1s.3 1 .75 1h1.5c.45 0 .75-.4.75-1s-.3-1-.75-1zM38.25 36h-1.5c-.45 0-.75.4-.75 1s.3 1 .75 1h1.5c.45 0 .75-.4.75-1s-.375-1-.75-1zM44.25 36h-1.5c-.45 0-.75.4-.75 1s.3 1 .75 1h1.5c.45 0 .75-.4.75-1s-.3-1-.75-1zM31.25 41h-1.5c-.45 0-.75.4-.75 1s.3 1 .75 1h1.5c.45 0 .75-.4.75-1 0-.5-.3-1-.75-1zM38.25 41h-1.5c-.45 0-.75.4-.75 1s.3 1 .75 1h1.5c.45 0 .75-.4.75-1 0-.5-.375-1-.75-1zM44.25 41h-1.5c-.45 0-.75.4-.75 1s.3 1 .75 1h1.5c.45 0 .75-.4.75-1 0-.5-.3-1-.75-1zM31.25 46h-1.5c-.45 0-.75.4-.75 1s.3 1 .75 1h1.5c.45 0 .75-.4.75-1 0-.5-.3-1-.75-1zM38.25 46h-1.5c-.45 0-.75.4-.75 1s.3 1 .75 1h1.5c.45 0 .75-.4.75-1 0-.5-.375-1-.75-1zM44.25 46h-1.5c-.45 0-.75.4-.75 1s.3 1 .75 1h1.5c.45 0 .75-.4.75-1 0-.5-.3-1-.75-1zM36.476 5.939h-10.99c-.478 0-.797.318-.797.796 0 .478.319.797.796.797h10.99c.479 0 .797-.319.797-.797a.798.798 0 0 0-.796-.796zM36.476 11.514h-10.99c-.478 0-.797.318-.797.796 0 .478.319.797.796.797h10.99c.479 0 .797-.319.797-.797 0-.398-.398-.796-.796-.796zM36.476 16.292h-10.99c-.478 0-.797.319-.797.797 0 .478.319.796.796.796h10.99c.479 0 .797-.318.797-.796a.798.798 0 0 0-.796-.797zM20.214 23h-9.428c-.472 0-.786.4-.786 1s.314 1 .786 1h9.428c.472 0 .786-.4.786-1s-.314-1-.786-1zM20.214 29h-9.428c-.472 0-.786.4-.786 1s.314 1 .786 1h9.428c.472 0 .786-.4.786-1s-.314-1-.786-1zM20.214 34h-9.428c-.472 0-.786.4-.786 1s.314 1 .786 1h9.428c.472 0 .786-.4.786-1s-.314-1-.786-1z"/>
    </g>
</svg>
