<svg xmlns="http://www.w3.org/2000/svg" width="51" height="52" viewBox="0 0 51 52">
    <g fill="#14839A" fill-rule="evenodd">
        <path d="M17.372 6.32h2.39c.479 0 .797-.32.797-.8 0-.48-.318-.8-.797-.8h-2.39c-.478 0-.797.32-.797.8 0 .4.319.8.797.8z"/>
        <path fill-rule="nonzero" d="M49.008 22.88H36.656V8.16c0-1.28-1.036-2.4-2.39-2.4h-4.861c0-.08.16-1.6-1.355-2.32 0 0-.08 0-.08-.08L19.444.96a2.423 2.423 0 0 0-1.833 0c-9.084 2.56-8.527 2.4-8.606 2.48C7.49 4.16 7.65 5.68 7.65 5.76H2.79a2.402 2.402 0 0 0-2.392 2.4V49.6c0 1.28 1.036 2.4 2.391 2.4h31.556c1.275 0 2.39-1.04 2.39-2.4V30.88h12.352c.877 0 1.594-.72 1.594-1.6v-4.8c-.08-.88-.797-1.6-1.673-1.6zm-30.919 6.4v-1.6h26.138v1.6H18.089zm6.614 10.8h5.18l-5.18 4.64v-4.64zm-11.395-13.2l3.187-1.84v3.68l-3.187-1.84zm30.839-.8H18.089v-1.6h26.138v1.6h-.08zM35.063 8.16v14.72h-2.311V7.36h1.593c.399 0 .718.4.718.8zM9.163 5.6c0-.32.16-.56.399-.72 9.084-2.56 8.526-2.4 8.606-2.48.239-.08.478-.08.637 0 .08.08-.478-.16 8.607 2.48.637.4.318 1.12.398 2.88 0 .32-.16.64-.478.72-.24.08-17.531.08-17.77 0-.32-.08-.479-.4-.479-.72V5.6h.08zM7.57 7.36c0 .08-.239 1.84 1.435 2.56.717.32 18.328.32 18.965 0 1.674-.72 1.435-2.48 1.435-2.56h1.673v15.52c-4.781 0-15.22-.08-14.264.08l-5.578 3.2c-.558.32-.558 1.12 0 1.36l5.578 3.2c.319.16.558.08 14.264.08v7.6h-7.172c-.478 0-.797.32-.797.8v6.48H5.897V7.28H7.57v.08zM35.062 49.6a.8.8 0 0 1-.796.8H2.709a.8.8 0 0 1-.796-.8V8.16c0-.4.318-.8.796-.8h1.594v39.2c0 .48.319.8.797.8 20.32 0 18.647.08 18.966 0 .478-.08.159-.08 8.447-7.44l.08-.08c.238-.4.159-.16.159-8.88h2.31V49.6zm10.679-20.32v-4.8h3.267v4.8H45.74z"/>
        <path d="M10.598 14.88h15.938c.478 0 .797-.32.797-.8 0-.48-.319-.8-.797-.8H10.598c-.478 0-.796.32-.796.8 0 .48.318.8.796.8zM10.598 19.68h15.938c.478 0 .797-.32.797-.8 0-.48-.319-.8-.797-.8H10.598c-.478 0-.796.32-.796.8 0 .48.318.8.796.8zM10.598 35.68h15.938c.478 0 .797-.32.797-.8 0-.48-.319-.8-.797-.8H10.598c-.478 0-.796.32-.796.8 0 .48.318.8.796.8zM10.598 40.48h5.26c.478 0 .797-.32.797-.8 0-.48-.32-.8-.797-.8h-5.26c-.478 0-.796.32-.796.8 0 .48.318.8.796.8z"/>
    </g>
</svg>
