<svg xmlns="http://www.w3.org/2000/svg" width="50" height="52" viewBox="0 0 50 52">
    <g fill="#14839A" fill-rule="evenodd">
        <path d="M17.025 6.228h1.603c.481 0 .802-.323.802-.806 0-.484-.321-.806-.802-.806h-1.603c-.481 0-.802.322-.802.806 0 .483.401.806.802.806zM12.616 16.462c-1.683.886-3.607 2.66-4.65 3.626l-.801-.967c-.24-.322-.802-.403-1.122-.16-.321.24-.401.805-.16 1.127l1.362 1.693a.804.804 0 0 0 1.203.08s2.805-2.82 4.89-3.948c.4-.242.56-.726.32-1.129-.16-.403-.641-.564-1.042-.322zM12.616 24.601c-1.683.887-3.607 2.66-4.65 3.626l-.801-.967c-.24-.322-.802-.403-1.122-.16-.321.241-.401.805-.16 1.127l1.362 1.693c.16.16.32.322.561.322h.08c.24 0 .401-.08.562-.242 0 0 2.805-2.82 4.89-3.948.4-.242.56-.726.32-1.129-.16-.402-.641-.564-1.042-.322zM12.616 32.74c-1.683.887-3.607 2.66-4.65 3.627l-.801-.967c-.24-.323-.802-.403-1.122-.162-.321.242-.401.806-.16 1.129l1.362 1.692c.16.161.32.322.561.322h.08c.24 0 .401-.08.562-.242 0 0 2.805-2.82 4.89-3.948.4-.242.56-.726.32-1.128-.16-.323-.641-.484-1.042-.323zM12.616 40.96c-1.683.886-3.607 2.66-4.65 3.626l-.801-.967c-.24-.322-.802-.403-1.122-.161-.321.242-.401.806-.16 1.128l1.362 1.692c.16.162.32.323.561.323h.08c.24 0 .401-.08.562-.242 0 0 2.805-2.82 4.89-3.949.4-.241.56-.725.32-1.128-.16-.403-.641-.564-1.042-.322z"/>
        <path fill-rule="nonzero" d="M38.107 41.363L44.6 47.89c1.042 1.048 2.806 1.128 4.008 0 1.123-1.128 1.123-2.9 0-3.948l-6.493-6.528a.772.772 0 0 0-1.122 0l-.882.887-1.924-1.934c4.33-4.916 4.089-12.41-.56-17.084-.802-.806-1.684-1.451-2.566-2.015v-9.51c0-.483-.32-.805-.802-.805h-5.771v-.645c0-.886-.722-1.611-1.603-1.611H24.8L21.834.748c-.16-.242-.4-.322-.64-.322H14.54c-.24 0-.481.08-.642.322l-2.965 3.949H8.848c-.881 0-1.603.725-1.603 1.611v.645H1.473c-.48 0-.801.322-.801.806v43.435c0 .484.32.806.801.806H34.26c.481 0 .802-.322.802-.806v-12.41c.722-.403 1.363-.886 2.004-1.45l1.924 1.934-.882.886a.88.88 0 0 0 0 1.209zm-1.603-5.641c-4.249 4.19-11.142 4.19-15.31 0a10.887 10.887 0 0 1 0-15.392 10.75 10.75 0 0 1 15.31 0c4.168 4.19 4.168 11.12 0 15.392zM11.334 6.228c.24 0 .48-.08.64-.323l2.967-3.868h5.851l2.966 3.949c.16.161.401.322.642.322h2.485v4.594H8.848V6.308h2.485v-.08zm22.124 44.16H2.275V8.565h4.97v2.337c0 .886.722 1.611 1.603 1.611h18.037c.881 0 1.603-.725 1.603-1.611V8.565h4.97v7.816c-4.49-1.772-9.78-.886-13.387 2.74-4.89 4.916-4.89 12.813 0 17.648 3.607 3.627 8.898 4.594 13.387 2.74v10.88zm8.016-11.362l5.932 5.963c.48.484.48 1.209 0 1.773-.481.483-1.283.483-1.683 0l-5.932-6.044.881-.886.802-.806z"/>
        <path fill-rule="nonzero" d="M23.438 22.586c-4.73 4.755-1.363 13.055 5.37 13.055 4.249 0 7.616-3.384 7.616-7.655a7.648 7.648 0 0 0-2.245-5.4 7.568 7.568 0 0 0-10.741 0zm9.058.565l-3.607 3.626-3.608-3.626c2.004-1.612 5.05-1.612 7.215 0zm-8.417 1.208l4.008 4.03v5.64c-4.65-.644-6.814-6.043-4.008-9.67zm5.531 9.59v-5.641l4.008-4.03c.802 1.048 1.203 2.338 1.203 3.627 0 3.143-2.245 5.641-5.21 6.044z"/>
        <path d="M17.265 44.506h1.603v1.612h-1.603zM22.075 44.506h1.603v1.612h-1.603zM26.885 44.506h1.603v1.612h-1.603z"/>
    </g>
</svg>
