<svg xmlns="http://www.w3.org/2000/svg" width="1085" height="958" viewBox="0 0 1085 958">
    <g fill="#14839A" fill-opacity=".03" fill-rule="evenodd" transform="translate(-219)">
        <path d="M76.121 0h1151.758C1276.466 91.248 1304 195.41 1304 306c0 360.09-291.91 652-652 652S0 666.09 0 306C0 195.41 27.534 91.248 76.121 0z"/>
        <path d="M224.119 0h855.762C1141.644 86.21 1178 191.86 1178 306c0 290.502-235.498 526-526 526S126 596.502 126 306c0-114.14 36.356-219.79 98.119-306z"/>
        <path d="M391.281 0H912.72C999.176 73.734 1054 183.465 1054 306c0 222.018-179.982 402-402 402S250 528.018 250 306c0-122.535 54.824-232.266 141.281-306z"/>
        <circle cx="652" cy="306" r="261"/>
    </g>
</svg>
