<svg xmlns="http://www.w3.org/2000/svg" width="65" height="65" viewBox="0 0 65 65">
    <g fill="#14839A" fill-rule="evenodd">
        <path d="M31.7 0h1.5v6.4h-1.5zM16.97 3.984l3.2 5.543-1.3.75-3.2-5.543zM9.518 20.085l-5.543-3.2.75-1.3 5.543 3.201zM0 31.7h6.4v1.5H0zM4.776 49.442l-.75-1.299 5.543-3.2.75 1.3zM16.885 61.025l-1.299-.75 3.201-5.542 1.299.75zM31.7 58.6h1.5V65h-1.5zM48.054 61.024l-3.2-5.543 1.3-.75 3.2 5.543zM60.277 49.416l-5.542-3.2.75-1.299 5.542 3.2zM58.6 31.7H65v1.5h-6.4zM60.213 15.583l.75 1.3-5.543 3.2-.75-1.3zM46.215 10.269l-1.299-.75 3.2-5.543 1.3.75zM31.7 32.1V34c-.6.1-1.2.4-1.7.8-.7.6-1.1 1.4-1.1 2.3 0 .9.4 1.7 1.1 2.3.7.6 1.6.9 2.5.9.6 0 1.1.2 1.5.5.4.3.6.7.6 1.1 0 .4-.2.8-.6 1.1-.8.7-2.2.7-3 0-.4-.3-.6-.7-.6-1.1h-1.5c0 .9.4 1.7 1.1 2.3.5.4 1.1.7 1.7.8v1.9h1.5V45c.6-.1 1.2-.4 1.7-.8.7-.6 1.1-1.4 1.1-2.3 0-.9-.4-1.7-1.1-2.3-.7-.6-1.6-.9-2.5-.9-.6 0-1.1-.2-1.5-.5-.4-.3-.6-.7-.6-1.1 0-.4.2-.8.6-1.1.8-.7 2.2-.7 3 0 .4.3.6.7.6 1.1H36c0-.9-.4-1.7-1.1-2.3-.5-.4-1.1-.7-1.7-.8v-1.9h-1.5zM28.1 19.5l1.5.2c.1-1.2-.7-2.4-1.4-3.7-.3-.6-.9-1.4-1-1.8.2 0 .5.1.8.4.3.2.7.4 1.1.5.9.1 1.5-.5 1.9-.8.3-.3.4-.3.5-.4 0 0 0 .1.1.1.2.3.5.7 1 .8 1.3.5 2.3-.3 3-.9.4-.3.8-.6 1.1-.6h.1c-.1.2-.3.5-.4.6l-.2.2c-1 1.4-1.7 3.3-2 5.3l1.5.2c.2-1.7.8-3.3 1.7-4.6l.2-.2c.5-.6 1.1-1.5.7-2.3-.2-.5-.8-.8-1.6-.8s-1.5.5-2 .9c-.7.6-1.1.8-1.6.7-.1 0-.2-.2-.3-.3-.2-.3-.4-.5-.7-.6-1-.3-1.7.3-2.1.7-.4.3-.5.5-.7.4-.1 0-.3-.1-.4-.2-.5-.3-1.4-.9-2.4-.5-.5.2-.7.6-.8.9-.3.9.4 1.9 1.1 3.1.7.9 1.4 2.1 1.3 2.7z"/>
        <path d="M44 34.7c-1.3-2.2-2.8-4.1-4.3-6-1.3-1.7-2.7-3.5-3.9-5.3l-1.3.8c1.2 2 2.6 3.7 4 5.5 1.5 1.9 3 3.8 4.2 5.8 1 1.8 4.1 7.9.5 12.3-3.1 3.7-9.7 5.1-15.4 3.2-4.6-1.5-7.4-4.7-7.6-8.8-.2-4.3 2.2-7.5 4.8-10.8 1.7-2.2 3.5-4.5 4.5-7.2l-1.5-.7c-.9 2.5-2.6 4.7-4.3 6.8-2.6 3.4-5.3 6.9-5.1 11.8.2 4.6 3.4 8.4 8.6 10.2 1.8.6 3.9.9 5.9.9 4.2 0 8.5-1.4 11.1-4.6 4.4-5.1.9-12-.2-13.9zM37.8 21.7c0-.4-.3-.8-.8-.8h-9.8c-.4 0-.8.3-.8.8 0 .4.3.8.8.8H37c.4 0 .8-.4.8-.8z"/>
    </g>
</svg>
