<svg xmlns="http://www.w3.org/2000/svg" width="40" height="40" viewBox="0 0 40 40">
    <g fill="#FFF" fill-rule="evenodd">
        <path fill-rule="nonzero" d="M39.556 19.756c.244 10.266-7.823 19.31-18.578 19.8-11 .488-20.045-8.067-20.534-18.823C-.044 10.223 8.267.933 19.022.444c11-.488 20.29 8.067 20.534 19.312zM20 36.866c9.289 0 16.867-7.577 16.867-16.866S29.289 2.889 20 2.889c-9.289 0-16.867 7.578-16.867 16.867 0 9.533 7.334 17.11 16.867 17.11z"/>
        <path d="M21.3 14.303l-2.173 2.162-.192-.162a3.986 3.986 0 0 0-1.982-.911c-1.534-.242-2.875.175-3.988 1.259a4.462 4.462 0 0 0-1.336 2.573c-.249 1.64.233 3.053 1.422 4.203.85.822 1.89 1.236 3.076 1.251.949.012 1.845-.192 2.645-.724a3.548 3.548 0 0 0 1.562-2.326c.002-.014 0-.028 0-.061h-4.167v-3.001h7.224c.023.135.05.272.07.41.06.455.09.912.08 1.37-.03 1.313-.303 2.566-.931 3.73a6.63 6.63 0 0 1-2.195 2.41c-.883.586-1.855.935-2.9 1.099a8.576 8.576 0 0 1-1.696.099 7.542 7.542 0 0 1-1.98-.348 7.585 7.585 0 0 1-2.205-1.114 7.719 7.719 0 0 1-2.147-2.393 7.738 7.738 0 0 1-.915-5.083 7.538 7.538 0 0 1 1.416-3.338 7.558 7.558 0 0 1 3.94-2.766 7.639 7.639 0 0 1 2.629-.323c1.51.076 2.883.548 4.097 1.46.22.164.426.345.645.524zM29.141 23.362h-1.924v-2.396h-2.398v-1.922h2.39v-2.4h1.924v2.393h2.397v1.922h-2.389v2.403z"/>
    </g>
</svg>
