<svg width="1034" height="472" viewBox="0 0 1034 472" fill="none" xmlns="http://www.w3.org/2000/svg">
<path d="M237.701 127.341C237.701 133.397 235.441 139.236 231.365 143.715C227.288 148.194 221.687 150.991 215.657 151.558C214.897 151.665 214.136 151.665 213.376 151.665H182.211C181.703 151.666 181.196 151.641 180.691 151.589C178.452 151.365 176.291 150.647 174.364 149.487C172.436 148.327 170.79 146.754 169.544 144.881C168.298 143.008 167.484 140.881 167.159 138.655C166.834 136.429 167.008 134.159 167.667 132.008C168.326 129.857 169.454 127.879 170.97 126.217C172.486 124.555 174.352 123.25 176.434 122.396C178.515 121.542 180.76 121.161 183.006 121.28C185.253 121.399 187.445 122.015 189.425 123.084C190.485 117.093 193.753 111.717 198.582 108.016C203.411 104.316 209.452 102.56 215.513 103.094C221.573 103.628 227.214 106.415 231.321 110.903C235.428 115.392 237.705 121.256 237.701 127.341Z" fill="#F7F7F7"/>
<path d="M1033.7 176.341C1033.7 182.397 1031.44 188.236 1027.36 192.715C1023.29 197.194 1017.69 199.991 1011.66 200.558C1010.9 200.665 1010.14 200.665 1009.38 200.665H978.211C977.703 200.666 977.196 200.641 976.691 200.589C974.452 200.365 972.291 199.647 970.364 198.487C968.436 197.327 966.79 195.754 965.544 193.881C964.298 192.008 963.484 189.881 963.159 187.655C962.834 185.429 963.008 183.159 963.667 181.008C964.326 178.857 965.454 176.879 966.97 175.217C968.486 173.555 970.352 172.25 972.434 171.396C974.515 170.542 976.76 170.161 979.006 170.28C981.253 170.399 983.445 171.015 985.425 172.084C986.485 166.093 989.753 160.717 994.582 157.016C999.411 153.316 1005.45 151.56 1011.51 152.094C1017.57 152.628 1023.21 155.415 1027.32 159.903C1031.43 164.392 1033.7 170.256 1033.7 176.341Z" fill="#F7F7F7"/>
<path d="M70.7005 382.341C70.7007 388.397 68.4414 394.236 64.3645 398.715C60.2877 403.194 54.6866 405.991 48.6567 406.558C47.8966 406.665 47.1365 406.665 46.3763 406.665H15.211C14.7033 406.666 14.1958 406.641 13.6908 406.589C11.4522 406.365 9.29129 405.647 7.36376 404.487C5.43622 403.327 3.79015 401.754 2.54426 399.881C1.29838 398.008 0.483747 395.881 0.159117 393.655C-0.165513 391.429 0.00795335 389.159 0.667006 387.008C1.32606 384.857 2.45427 382.879 3.97026 381.217C5.48625 379.555 7.35223 378.25 9.43362 377.396C11.515 376.542 13.7599 376.161 16.0064 376.28C18.2529 376.399 20.445 377.015 22.4246 378.084C23.4853 372.093 26.7526 366.717 31.582 363.016C36.4114 359.316 42.4522 357.56 48.5128 358.094C54.5735 358.628 60.2138 361.415 64.3211 365.903C68.4285 370.392 70.7046 376.256 70.7005 382.341Z" fill="#F7F7F7"/>
<path d="M781.656 24.3497C781.657 30.4062 779.397 36.2449 775.32 40.7238C771.244 45.2028 765.642 47.9996 759.613 48.5674C758.852 48.6739 758.092 48.6739 757.332 48.6739H707.924C705.933 48.6741 703.968 48.2142 702.184 47.33C700.4 46.4458 698.844 45.1613 697.639 43.5767C696.433 41.9921 695.61 40.1503 695.233 38.195C694.857 36.2398 694.937 34.2239 695.468 32.3049C695.999 30.3858 696.967 28.6155 698.295 27.132C699.623 25.6485 701.276 24.4921 703.125 23.7529C704.974 23.0137 706.969 22.7117 708.953 22.8706C710.938 23.0296 712.86 23.645 714.567 24.6689C716.175 20.8707 719.129 17.8004 722.862 16.0479C726.596 14.2955 730.846 13.9846 734.794 15.1749C736.917 9.94496 740.793 5.61616 745.758 2.9303C750.722 0.244441 756.466 -0.631267 762.006 0.453235C767.545 1.53774 772.535 4.51493 776.12 8.87466C779.705 13.2344 781.662 18.7052 781.656 24.3497Z" fill="#F7F7F7"/>
<path d="M629.656 447.35C629.657 453.406 627.397 459.245 623.32 463.724C619.244 468.203 613.642 471 607.613 471.567C606.852 471.674 606.092 471.674 605.332 471.674H555.924C553.933 471.674 551.968 471.214 550.184 470.33C548.4 469.446 546.844 468.161 545.639 466.577C544.433 464.992 543.61 463.15 543.233 461.195C542.857 459.24 542.937 457.224 543.468 455.305C543.999 453.386 544.967 451.615 546.295 450.132C547.623 448.649 549.276 447.492 551.125 446.753C552.974 446.014 554.969 445.712 556.953 445.871C558.938 446.03 560.86 446.645 562.567 447.669C564.175 443.871 567.129 440.8 570.862 439.048C574.596 437.295 578.846 436.985 582.794 438.175C584.917 432.945 588.793 428.616 593.758 425.93C598.722 423.244 604.466 422.369 610.006 423.453C615.545 424.538 620.535 427.515 624.12 431.875C627.705 436.234 629.662 441.705 629.656 447.35Z" fill="#F7F7F7"/>
</svg>
