<svg width="867" height="201" viewBox="0 0 867 201" fill="none" xmlns="http://www.w3.org/2000/svg">
<path d="M70.7005 127.341C70.7007 133.397 68.4414 139.236 64.3645 143.715C60.2877 148.194 54.6866 150.991 48.6567 151.558C47.8966 151.665 47.1365 151.665 46.3763 151.665H15.211C14.7033 151.666 14.1958 151.641 13.6908 151.589C11.4522 151.365 9.29129 150.647 7.36376 149.487C5.43622 148.327 3.79015 146.754 2.54426 144.881C1.29838 143.008 0.483747 140.881 0.159117 138.655C-0.165513 136.429 0.00795338 134.159 0.667006 132.008C1.32606 129.857 2.45427 127.879 3.97026 126.217C5.48625 124.555 7.35223 123.25 9.43362 122.396C11.515 121.542 13.7599 121.161 16.0064 121.28C18.2529 121.399 20.445 122.015 22.4246 123.084C23.4853 117.093 26.7526 111.717 31.582 108.016C36.4114 104.316 42.4522 102.56 48.5128 103.094C54.5735 103.628 60.2138 106.415 64.3211 110.903C68.4285 115.392 70.7046 121.256 70.7005 127.341Z" fill="#F7F7F7"/>
<path d="M866.701 176.341C866.701 182.397 864.441 188.236 860.365 192.715C856.288 197.194 850.687 199.991 844.657 200.558C843.897 200.665 843.136 200.665 842.376 200.665H811.211C810.703 200.666 810.196 200.641 809.691 200.589C807.452 200.365 805.291 199.647 803.364 198.487C801.436 197.327 799.79 195.754 798.544 193.881C797.298 192.008 796.484 189.881 796.159 187.655C795.834 185.429 796.008 183.159 796.667 181.008C797.326 178.857 798.454 176.879 799.97 175.217C801.486 173.555 803.352 172.25 805.434 171.396C807.515 170.542 809.76 170.161 812.006 170.28C814.253 170.399 816.445 171.015 818.425 172.084C819.485 166.093 822.753 160.717 827.582 157.016C832.411 153.316 838.452 151.56 844.513 152.094C850.573 152.628 856.214 155.415 860.321 159.903C864.428 164.392 866.705 170.256 866.701 176.341Z" fill="#F7F7F7"/>
<path d="M614.656 24.3497C614.657 30.4062 612.397 36.2449 608.32 40.7238C604.244 45.2028 598.642 47.9996 592.613 48.5674C591.852 48.6739 591.092 48.6739 590.332 48.6739H540.924C538.933 48.6741 536.968 48.2142 535.184 47.33C533.4 46.4458 531.844 45.1613 530.639 43.5767C529.433 41.9921 528.61 40.1503 528.233 38.195C527.857 36.2398 527.937 34.2239 528.468 32.3049C528.999 30.3858 529.967 28.6155 531.295 27.132C532.623 25.6485 534.276 24.4921 536.125 23.7529C537.974 23.0137 539.969 22.7117 541.953 22.8706C543.938 23.0296 545.86 23.645 547.567 24.6689C549.175 20.8707 552.129 17.8004 555.862 16.0479C559.596 14.2955 563.846 13.9846 567.794 15.1749C569.917 9.94496 573.793 5.61616 578.758 2.9303C583.722 0.244441 589.466 -0.631267 595.006 0.453235C600.545 1.53774 605.535 4.51493 609.12 8.87466C612.705 13.2344 614.662 18.7052 614.656 24.3497Z" fill="#F7F7F7"/>
</svg>
