<svg width="39" height="38" viewBox="0 0 39 38" fill="none" xmlns="http://www.w3.org/2000/svg">
<path d="M34.0469 2.96875H32.2656V0H29.2969V2.96875H9.70312V0H6.73438V2.96875H4.95312C2.49767 2.96875 0.5 4.96642 0.5 7.42188V33.5469C0.5 36.0023 2.49767 38 4.95312 38H34.0469C36.5023 38 38.5 36.0023 38.5 33.5469V7.42188C38.5 4.96642 36.5023 2.96875 34.0469 2.96875ZM35.5312 33.5469C35.5312 34.3654 34.8654 35.0312 34.0469 35.0312H4.95312C4.13464 35.0312 3.46875 34.3654 3.46875 33.5469V13.9531H35.5312V33.5469ZM35.5312 10.9844H3.46875V7.42188C3.46875 6.60339 4.13464 5.9375 4.95312 5.9375H6.73438V8.90625H9.70312V5.9375H29.2969V8.90625H32.2656V5.9375H34.0469C34.8654 5.9375 35.5312 6.60339 35.5312 7.42188V10.9844Z" fill="#FF007C"/>
<circle cx="10.5" cy="19.5" r="1.5" fill="#FF007C"/>
<circle cx="16.5" cy="19.5" r="1.5" fill="#FF007C"/>
<circle cx="22.5" cy="19.5" r="1.5" fill="#FF007C"/>
<circle cx="28.5" cy="19.5" r="1.5" fill="#FF007C"/>
<circle cx="10.5" cy="24.5" r="1.5" fill="#FF007C"/>
<circle cx="16.5" cy="24.5" r="1.5" fill="#FF007C"/>
<circle cx="22.5" cy="24.5" r="1.5" fill="#FF007C"/>
<circle cx="10.5" cy="29.5" r="1.5" fill="#FF007C"/>
<circle cx="16.5" cy="29.5" r="1.5" fill="#FF007C"/>
<circle cx="22.5" cy="29.5" r="1.5" fill="#FF007C"/>
<circle cx="28.5" cy="24.5" r="1.5" fill="#FF007C"/>
</svg>
