<svg width="40" height="40" viewBox="0 0 40 40" fill="none" xmlns="http://www.w3.org/2000/svg">
<path d="M35.3125 3.125H33.4375V0H30.3125V3.125H9.6875V0H6.5625V3.125H4.6875C2.10281 3.125 0 5.22781 0 7.8125V35.3125C0 37.8972 2.10281 40 4.6875 40H35.3125C37.8972 40 40 37.8972 40 35.3125V7.8125C40 5.22781 37.8972 3.125 35.3125 3.125ZM36.875 35.3125C36.875 36.1741 36.1741 36.875 35.3125 36.875H4.6875C3.82594 36.875 3.125 36.1741 3.125 35.3125V14.6875H36.875V35.3125ZM36.875 11.5625H3.125V7.8125C3.125 6.95094 3.82594 6.25 4.6875 6.25H6.5625V9.375H9.6875V6.25H30.3125V9.375H33.4375V6.25H35.3125C36.1741 6.25 36.875 6.95094 36.875 7.8125V11.5625Z" fill="#494949"/>
<path d="M21.5625 18H18.4375V33.5938H21.5625V18Z" fill="#494949"/>
<path d="M27.7724 24.2188H12.1875V27.3438H27.7724V24.2188Z" fill="#494949"/>
</svg>
