<svg width="46" height="46" viewBox="0 0 46 46" fill="none" xmlns="http://www.w3.org/2000/svg">
<path d="M23 44.5C34.8741 44.5 44.5 34.8741 44.5 23C44.5 11.1259 34.8741 1.5 23 1.5C11.1259 1.5 1.5 11.1259 1.5 23C1.5 34.8741 11.1259 44.5 23 44.5Z" fill="#00DA7E" stroke="#00DA7E" stroke-width="3"/>
<path d="M15.9591 21.1321C15.2036 20.3263 13.9379 20.2855 13.1321 21.0409C12.3263 21.7964 12.2855 23.0621 13.0409 23.8679L15.9591 21.1321ZM22 30.5L20.5409 31.8679C20.9337 32.2869 21.4877 32.5168 22.0618 32.499C22.6359 32.4813 23.1746 32.2176 23.5408 31.7751L22 30.5ZM35.5408 17.2751C36.245 16.4242 36.1261 15.1634 35.2751 14.4592C34.4242 13.755 33.1634 13.8739 32.4592 14.7249L35.5408 17.2751ZM13.0409 23.8679L20.5409 31.8679L23.4591 29.1321L15.9591 21.1321L13.0409 23.8679ZM23.5408 31.7751L35.5408 17.2751L32.4592 14.7249L20.4592 29.2249L23.5408 31.7751Z" fill="white"/>
<path d="M4.5 23C4.5 13.5 12 5 22 4.5" stroke="#38FCA9" stroke-width="3" stroke-linecap="round" stroke-linejoin="round"/>
</svg>
