<svg width="48" height="50" viewBox="0 0 48 50" fill="none" xmlns="http://www.w3.org/2000/svg">
<path d="M32.8125 39.6603H36.7188V44.1406C36.7188 47.3717 34.0904 50 30.8594 50H5.85938C2.62833 50 0 47.3717 0 44.1406V5.85938C0 2.62833 2.62833 0 5.85938 0H30.8594C34.0904 0 36.7188 2.62833 36.7188 5.85938V11.7306H32.8125V5.85938C32.8125 4.78249 31.9363 3.90625 30.8594 3.90625H5.85938C4.78249 3.90625 3.90625 4.78249 3.90625 5.85938V44.1406C3.90625 45.2175 4.78249 46.0938 5.85938 46.0938H30.8594C31.9363 46.0938 32.8125 45.2175 32.8125 44.1406V39.6603ZM22.2656 7.82433H14.4531V11.7306H22.2656V7.82433ZM16.4062 40.2462C16.4062 41.325 17.2806 42.1993 18.3594 42.1993C19.4382 42.1993 20.3125 41.325 20.3125 40.2462C20.3125 39.1674 19.4382 38.2931 18.3594 38.2931C17.2806 38.2931 16.4062 39.1674 16.4062 40.2462ZM47.4609 15.6368V35.754H20.7031V15.6368H47.4609ZM27.6501 19.5431L34.082 24.3271L40.514 19.5431H27.6501ZM43.5547 31.8478V22.1497L34.082 29.1958L24.6094 22.1497V31.8478H43.5547Z" fill="white"/>
</svg>
