<svg width="38" height="40" viewBox="0 0 38 40" fill="none" xmlns="http://www.w3.org/2000/svg">
<path d="M26.25 31.7282H29.375V35.3125C29.375 37.8973 27.2723 40 24.6875 40H4.6875C2.10266 40 0 37.8973 0 35.3125V4.6875C0 2.10266 2.10266 0 4.6875 0H24.6875C27.2723 0 29.375 2.10266 29.375 4.6875V9.38446H26.25V4.6875C26.25 3.82599 25.549 3.125 24.6875 3.125H4.6875C3.82599 3.125 3.125 3.82599 3.125 4.6875V35.3125C3.125 36.174 3.82599 36.875 4.6875 36.875H24.6875C25.549 36.875 26.25 36.174 26.25 35.3125V31.7282ZM17.8125 6.25946H11.5625V9.38446H17.8125V6.25946ZM13.125 32.197C13.125 33.06 13.8245 33.7595 14.6875 33.7595C15.5505 33.7595 16.25 33.06 16.25 32.197C16.25 31.3339 15.5505 30.6345 14.6875 30.6345C13.8245 30.6345 13.125 31.3339 13.125 32.197ZM37.9688 12.5095V28.6032H16.5625V12.5095H37.9688ZM22.1201 15.6345L27.2656 19.4617L32.4112 15.6345H22.1201ZM34.8438 25.4782V17.7197L27.2656 23.3566L19.6875 17.7197V25.4782H34.8438Z" fill="#FF007C"/>
</svg>
