<svg width="36" height="36" viewBox="0 0 36 36" fill="none" xmlns="http://www.w3.org/2000/svg">
<path d="M18 34.5C27.1127 34.5 34.5 27.1127 34.5 18C34.5 8.8873 27.1127 1.5 18 1.5C8.8873 1.5 1.5 8.8873 1.5 18C1.5 27.1127 8.8873 34.5 18 34.5Z" fill="#FF007C" stroke="#FF007C" stroke-width="3"/>
<path d="M13.0841 16.2571C12.3286 15.4513 11.0629 15.4105 10.2571 16.1659C9.45129 16.9214 9.41047 18.1871 10.1659 18.9929L13.0841 16.2571ZM17.25 23.625L15.7909 24.9929C16.1837 25.4119 16.7377 25.6418 17.3118 25.624C17.8859 25.6063 18.4246 25.3426 18.7908 24.9001L17.25 23.625ZM27.7908 14.0251C28.495 13.1742 28.3761 11.9134 27.5251 11.2092C26.6742 10.505 25.4134 10.6239 24.7092 11.4749L27.7908 14.0251ZM10.1659 18.9929L15.7909 24.9929L18.7091 22.2571L13.0841 16.2571L10.1659 18.9929ZM18.7908 24.9001L27.7908 14.0251L24.7092 11.4749L15.7092 22.3499L18.7908 24.9001Z" fill="white"/>
<path d="M4.125 18C4.125 10.875 9.75 4.5 17.25 4.125" stroke="#FFA4D0" stroke-width="3" stroke-linecap="round" stroke-linejoin="round"/>
</svg>
