<svg width="45" height="42" viewBox="0 0 45 42" fill="none" xmlns="http://www.w3.org/2000/svg">
<path fill-rule="evenodd" clip-rule="evenodd" d="M22.7295 1C22.0354 1 21.3414 1.39059 21.0843 2.17098L17.258 13.7937C17.0285 14.491 16.3635 14.9639 15.6129 14.9639H3.18999C1.52129 14.9639 0.821737 17.0455 2.16739 18.0102L12.2496 25.24C12.8493 25.669 13.0992 26.4243 12.8721 27.1153L9.02849 38.7898C8.63863 39.9725 9.60227 41 10.6799 41C11.0202 41 11.3724 40.8973 11.6962 40.6651L21.7069 33.4871C22.011 33.269 22.3703 33.16 22.7295 33.16C23.0887 33.16 23.4479 33.269 23.7521 33.4871L33.7627 40.6651C34.0865 40.8973 34.4387 41 34.779 41C35.8566 41 36.8203 39.9725 36.4304 38.7898L32.5868 27.1153C32.3597 26.4243 32.6096 25.669 33.2094 25.24L43.2915 18.0102C44.6372 17.0455 43.9376 14.9639 42.2689 14.9639H29.846C29.0954 14.9639 28.4304 14.491 28.2009 13.7937L24.3746 2.17098C24.1176 1.39059 23.4235 1 22.7295 1Z" fill="white" stroke="#9E9E9E"/>
</svg>
