<svg width="48" height="46" viewBox="0 0 48 46" fill="none" xmlns="http://www.w3.org/2000/svg">
<path d="M24 44.5C36.3566 44.5 46.5 34.9422 46.5 23C46.5 11.0578 36.3566 1.5 24 1.5C11.6434 1.5 1.5 11.0578 1.5 23C1.5 34.9422 11.6434 44.5 24 44.5Z" fill="#494949" stroke="#494949" stroke-width="3"/>
<path d="M14.0249 20.5593C12.3282 20.5593 10.9527 21.8693 10.9526 23.4853C10.9526 25.1012 12.3281 26.4112 14.0249 26.4112L14.0249 20.5593ZM34.2251 26.4113C35.9219 26.4114 37.2974 25.1014 37.2974 23.4854C37.2974 21.8694 35.9219 20.5594 34.2252 20.5594L34.2251 26.4113ZM14.0249 26.4112L34.2251 26.4113L34.2252 20.5594L14.0249 20.5593L14.0249 26.4112Z" fill="white"/>
<path d="M4.57422 23C4.57422 13.5 12.4492 5 22.9492 4.5" stroke="#949494" stroke-width="3" stroke-linecap="round" stroke-linejoin="round"/>
</svg>
