<svg width="103" height="103" viewBox="0 0 103 103" fill="none" xmlns="http://www.w3.org/2000/svg">
<g clip-path="url(#clip0)">
<path d="M98.8774 27.1021V27.3694C98.8774 31.359 97.9314 80.9811 51.1677 99.4481C4.40398 80.9811 3.45801 31.3384 3.45801 27.3489V27.0815C16.208 27.061 26.5314 16.7376 26.552 3.98759H75.804C75.804 16.7582 86.1274 27.0815 98.8774 27.1021Z" fill="#D0AB50"/>
<path d="M47.7955 62.3908L36.6084 51.2037L41.256 46.5561L47.7749 53.0751L63.6096 37.2404L68.2572 41.888L47.7955 62.3908Z" fill="#252525"/>
<path d="M89.0272 21.2207L84.2563 25.9916C87.6289 28.2537 91.4744 29.7138 95.5051 30.2279C94.8881 41.6412 89.8704 79.809 51.168 95.767C12.4655 79.7884 7.44781 41.6412 6.83087 30.2279C18.7377 28.6856 28.0946 19.3082 29.6164 7.42186H72.699C73.3776 12.7275 75.6603 17.7247 79.2591 21.6936L83.9272 17.0461C77.799 9.97186 79.3002 2.38356 79.074 0.841217H23.2619C23.2002 1.00573 24.6397 23.8735 3.45829 23.8735H0.167969V27.4106C0.167969 86.184 51.0446 102.677 51.168 102.841C51.3942 102.512 102.168 87.0888 102.168 27.4106V23.8735H98.8776C95.4228 23.8735 92.0091 22.9481 89.0272 21.2207Z" fill="#252525"/>
</g>
<defs>
<clipPath id="clip0">
<rect x="0.167969" y="0.841217" width="102" height="102" fill="white"/>
</clipPath>
</defs>
</svg>
