<svg width="84" height="96" viewBox="0 0 84 96" fill="none" xmlns="http://www.w3.org/2000/svg">
<g clip-path="url(#clip0)">
<path d="M42 4.5285C20.8342 4.58394 3.72103 21.8063 3.75787 43.0385C3.77629 60.9446 16.1552 76.4668 33.5631 80.4398L42 93.2272L50.5105 80.4398C71.1421 75.7277 84.0552 55.1237 79.3579 34.4274C75.3789 16.9463 59.8684 4.54698 42 4.5285Z" fill="#D0AB50"/>
<path d="M35.5523 57.2858L23.376 45.0527L27.5391 40.8765L35.7918 49.155L56.6997 30.5098L60.6049 34.9263L35.5523 57.2858Z" fill="#252525"/>
<path d="M50.0689 77.9635L48.2268 79.257L42.0005 88.4595L35.9031 79.257L34.061 77.9819C14.7557 73.4731 2.76362 54.1072 7.27678 34.7598C11.7899 15.4124 31.0768 3.36415 50.382 7.89148C65.5426 11.4394 76.6873 24.3747 77.9768 39.9339H84.0005C82.4715 16.6874 62.4478 -0.922957 39.2926 0.610791C16.1373 2.14454 -1.41796 22.2311 0.0925642 45.4591C1.28993 63.6238 13.9636 78.9798 31.5557 83.5256L39.5505 95.5184H44.561L52.5557 83.5256C70.0557 79.1276 82.7478 63.938 83.982 45.8656H77.9768C76.7241 61.5727 65.3952 74.6003 50.0689 77.9635Z" fill="#252525"/>
</g>
<defs>
<clipPath id="clip0">
<rect y="0.518585" width="84" height="95" fill="white"/>
</clipPath>
</defs>
</svg>
