<svg width="41" height="41" viewBox="0 0 41 41" fill="none" xmlns="http://www.w3.org/2000/svg">
<g clip-path="url(#clip0)">
<path d="M40.999 7.55042V22.1966C40.9952 23.2257 40.162 24.059 39.1329 24.0627H36.0653C34.1992 24.0627 32.354 24.1619 30.792 25.3211C30.2812 25.7224 29.8035 26.1644 29.3641 26.6429C23.8999 32.3686 15.3116 33.2945 9.75575 38.8506C7.91778 40.6882 6.07982 38.8506 6.07982 37.0126C6.07982 35.2807 9.35975 31.8312 12.046 29.9016C12.3569 29.6755 12.661 29.4562 12.9578 29.216L13.2615 28.9685C14.4173 28.134 15.4092 27.0943 16.188 25.9007C16.2234 25.8513 16.3225 25.6533 16.4426 25.413C16.5874 25.1237 16.5721 24.7803 16.4023 24.505C16.2324 24.2301 15.9318 24.0627 15.6084 24.0627H2.82834C2.07795 24.0643 1.35822 23.7665 0.828035 23.2357C0.0832774 22.4872 -0.186037 21.388 0.128007 20.3799C0.571546 19.2226 1.66726 18.445 2.90591 18.4077L2.9203 18.3442C2.14583 18.1703 1.47989 17.6799 1.08359 16.992C0.687279 16.3045 0.597195 15.4822 0.834917 14.7252C1.27846 13.5676 2.37385 12.79 3.61282 12.7531H4.94876C4.19868 12.7543 3.47864 12.4566 2.94845 11.9258C2.20401 11.1772 1.93469 10.0781 2.24874 9.07027C2.69228 7.91263 3.78767 7.13503 5.02664 7.09812H8.40543C7.50302 7.09968 6.65379 6.67022 6.12017 5.94235C5.58623 5.21448 5.43234 4.27548 5.7054 3.4153C6.14894 2.25766 7.24434 1.48006 8.48331 1.44315H24.2252C24.2252 1.44315 29.2511 1.44315 32.1564 4.62393C32.4885 4.98458 32.5167 5.6843 33.9305 5.6843H39.1329C40.162 5.68805 40.9952 6.52133 40.999 7.55042Z" fill="#FDD7AD"/>
<path d="M38.1727 21.2354C37.7824 21.2354 37.4658 20.9188 37.4658 20.5285V19.1146C37.4658 18.7243 37.7824 18.4077 38.1727 18.4077C38.5631 18.4077 38.8796 18.7243 38.8796 19.1146V20.5285C38.8796 20.9188 38.5631 21.2354 38.1727 21.2354Z" fill="#FEE7CE"/>
<path d="M38.1727 16.9942C37.7824 16.9942 37.4658 16.6777 37.4658 16.2873V9.21852C37.4658 8.82815 37.7824 8.51161 38.1727 8.51161C38.5631 8.51161 38.8796 8.82815 38.8796 9.21852V16.2873C38.8796 16.6777 38.5631 16.9942 38.1727 16.9942Z" fill="#FEE7CE"/>
<path d="M9.89729 12.0462C9.89729 12.4365 9.58074 12.7531 9.19038 12.7531H4.94892C4.19884 12.7543 3.4788 12.4566 2.94861 11.9258C2.82913 11.8063 2.72028 11.6761 2.62362 11.5373C2.15412 10.8588 2.00429 10.0093 2.21355 9.21166C2.33366 9.70462 2.58796 10.155 2.94861 10.5122C3.4788 11.0431 4.19884 11.3405 4.94892 11.3393H9.19038C9.58074 11.3393 9.89729 11.6558 9.89729 12.0462Z" fill="#CBB292"/>
<path d="M11.3113 6.3912C11.3113 6.78157 10.9948 7.09812 10.6044 7.09812H8.40612C7.52967 7.10062 6.7014 6.69524 6.16559 6.00147C5.62977 5.30769 5.44679 4.40435 5.67075 3.55668C5.79086 4.04964 6.04516 4.50006 6.40581 4.85727C6.93599 5.38808 7.65604 5.68555 8.40612 5.68429H10.6044C10.9948 5.68429 11.3113 6.00084 11.3113 6.3912Z" fill="#CBB292"/>
<path d="M8.24327 17.7011C8.24327 18.0915 7.92704 18.4077 7.53668 18.4077H3.21764C3.11505 18.4093 3.0137 18.3877 2.9208 18.3442C2.39563 18.2266 1.91518 17.962 1.53513 17.5807C1.48915 17.5372 1.44661 17.49 1.40814 17.4393C0.792253 16.7352 0.564541 15.7718 0.800073 14.8666C0.920185 15.3596 1.1748 15.8097 1.53513 16.1672C2.00495 16.6233 2.61051 16.9135 3.25987 16.9942H7.53668C7.92704 16.9942 8.24327 17.3105 8.24327 17.7011Z" fill="#CBB292"/>
<path d="M17.8567 23.9992C17.7363 24.2394 17.6375 24.4374 17.6021 24.4869C17.0297 25.393 16.3162 26.2022 15.4886 26.8832C15.7147 26.5935 15.9481 26.2754 16.1883 25.9007C16.2236 25.8513 16.3228 25.6533 16.4429 25.413C16.5852 25.1237 16.5687 24.7815 16.3994 24.5072C16.2299 24.2329 15.9312 24.0649 15.6087 24.0627H2.82863C2.07824 24.0643 1.35851 23.7665 0.828327 23.2357C0.573401 22.9767 0.369461 22.6723 0.227453 22.338C0.0766873 21.9901 -0.000259586 21.6145 0.000991579 21.2354C0.00130437 21.1196 0.0081858 21.0039 0.0222614 20.8891C0.0357115 20.7646 0.0591709 20.6417 0.0929525 20.5213C0.213065 21.0145 0.467677 21.4646 0.828327 21.8222C1.35851 22.3527 2.07824 22.6504 2.82863 22.6492H17.0225C17.3459 22.6489 17.6462 22.8162 17.8164 23.0915C17.9862 23.3664 18.0016 23.7102 17.8567 23.9992Z" fill="#CBB292"/>
</g>
<defs>
<clipPath id="clip0">
<rect width="41" height="41" fill="white"/>
</clipPath>
</defs>
</svg>
