<svg width="35" height="32" viewBox="0 0 35 32" fill="none" xmlns="http://www.w3.org/2000/svg">
<path fill-rule="evenodd" clip-rule="evenodd" d="M30.0098 28.584C29.2216 28.4598 28.5196 28.4215 28.5196 28.0019C28.5196 27.8397 28.6159 27.6679 28.7698 27.5534C28.9043 27.4485 29.2598 27.4102 29.5003 27.4102C29.7502 27.4102 29.9999 27.5344 30.1538 27.6965C30.2496 27.8112 30.3653 27.9927 30.3846 28.1833H31.6631C31.6341 27.7159 31.4324 27.2574 31.0669 27.0002C30.7111 26.7425 30.2497 26.4275 29.6157 26.4275C29.0099 26.4275 28.4141 26.4465 28.0011 26.7521C27.5874 27.0478 27.2897 27.5439 27.2897 27.9732C27.2897 28.2213 27.2704 28.5173 27.3665 28.6984C27.4723 28.8797 27.7799 29.2518 28.0204 29.3951C28.3566 29.5859 29.1448 29.6623 29.5773 29.777C29.9332 29.8626 30.3656 29.8819 30.4616 30.2348C30.5191 30.4447 30.4518 30.6357 30.2596 30.7597C30.0772 30.8836 29.7985 30.9695 29.4907 30.9695C29.1733 30.9695 28.8659 30.8739 28.7123 30.6831C28.5776 30.502 28.5007 30.3302 28.3948 30.0537H27.1166C27.1455 30.6357 27.4722 31.2082 27.876 31.5325C28.2701 31.8473 28.7988 32.0001 29.4716 32.0001C30.1443 32.0001 30.7304 31.8856 31.1634 31.5799C31.5861 31.2748 31.8171 30.7023 31.8171 30.2346C31.8171 29.8339 31.7019 29.5191 31.5189 29.2709C31.1439 28.7845 30.4709 28.6506 30.0098 28.584Z" fill="white"/>
<path fill-rule="evenodd" clip-rule="evenodd" d="M13.3427 31.8471H14.6394V26.5037H13.3427V31.8471Z" fill="white"/>
<path fill-rule="evenodd" clip-rule="evenodd" d="M13.3427 26.1412H14.6489V24.853H13.3427V26.1412Z" fill="white"/>
<path fill-rule="evenodd" clip-rule="evenodd" d="M11.4493 27.2099C10.9685 26.8376 10.3534 26.5805 9.68072 26.561C9.66144 26.561 9.64215 26.561 9.6133 26.561C8.12347 26.561 6.91217 27.7635 6.91217 29.2326C6.91217 30.7118 8.12329 31.9235 9.6133 31.9235C9.64215 31.9235 9.66144 31.9235 9.68072 31.9235C10.3534 31.9142 10.9685 31.6469 11.4397 31.1888L11.4493 31.8472H12.6795V24.853H11.4493V27.2099ZM9.69028 30.8262H9.68072C8.79627 30.8262 8.07551 30.1108 8.07551 29.2326C8.07551 28.3646 8.79627 27.6392 9.68072 27.6392H9.69028C10.565 27.6392 11.2953 28.3551 11.2953 29.2326C11.2953 30.1107 10.565 30.8262 9.69028 30.8262Z" fill="white"/>
<path fill-rule="evenodd" clip-rule="evenodd" d="M19.5038 27.1909C19.0233 26.8186 18.4082 26.5609 17.7354 26.5421C17.7161 26.5421 17.6873 26.5421 17.668 26.5421C16.1782 26.5421 14.9577 27.7537 14.9577 29.2234C14.9577 30.7024 16.1782 31.9142 17.668 31.9142C17.6873 31.9142 17.716 31.9142 17.7354 31.9142C18.4082 31.895 19.0138 31.6278 19.4944 31.17V31.8285H20.7246V24.8435H19.4944L19.5038 27.1909ZM17.7354 30.8166C16.851 30.8166 16.1205 30.0916 16.1205 29.2139C16.1205 28.3456 16.8508 27.6295 17.7354 27.6295C18.6197 27.6295 19.3502 28.3454 19.3502 29.2139C19.3502 30.0916 18.6197 30.8166 17.7354 30.8166Z" fill="white"/>
<path fill-rule="evenodd" clip-rule="evenodd" d="M5.18225 26.5037V27.0097C4.93239 26.7425 4.81719 26.6566 4.52875 26.5513C4.26915 26.4561 3.91364 26.3704 3.56751 26.3607C3.54822 26.3607 3.52893 26.3607 3.50982 26.3607C3.09662 26.3607 2.73138 26.4275 2.40454 26.561C2.08726 26.6947 1.78926 26.9046 1.5201 27.191C1.27997 27.439 1.08744 27.7443 0.943397 28.0786C0.818465 28.4124 0.751221 28.7559 0.751221 29.1278C0.751221 29.9392 1.0202 30.6168 1.55868 31.1415C2.08726 31.6759 2.76023 31.9523 3.56751 31.9523C3.56751 31.9523 3.56751 31.9523 3.57724 31.9523C3.90391 31.9523 4.25942 31.8567 4.54786 31.752C4.83612 31.6469 5.04759 31.561 5.18208 31.3703V31.8565L6.43158 31.8472L6.4222 26.4942L5.18225 26.5037ZM3.57724 30.7401C3.56751 30.7401 3.56751 30.7401 3.56751 30.7401C2.68325 30.7401 1.97188 30.0341 1.97188 29.1562C1.97188 28.288 2.68325 27.5723 3.56751 27.5723C3.56751 27.5723 3.56751 27.5723 3.57724 27.5723C4.45177 27.5723 5.1727 28.2879 5.1727 29.1562C5.1727 30.0343 4.45177 30.7401 3.57724 30.7401Z" fill="white"/>
<path fill-rule="evenodd" clip-rule="evenodd" d="M25.5688 26.4847L25.5785 26.9904C25.3285 26.7331 25.2037 26.6468 24.9252 26.5323C24.656 26.4372 24.3097 26.3606 23.9636 26.3513C23.9445 26.3513 23.9252 26.3513 23.9062 26.3513C23.4929 26.3513 23.1278 26.4179 22.8009 26.5421C22.4739 26.6756 22.1759 26.8954 21.9167 27.1719C21.6665 27.42 21.4745 27.7253 21.3398 28.0689C21.2149 28.393 21.1381 28.7461 21.1381 29.118C21.1381 29.92 21.4166 30.5974 21.9547 31.1318C22.4739 31.6565 23.1565 31.9332 23.9636 31.9332C24.3002 31.9332 24.6558 31.8475 24.9344 31.733C25.2228 31.6279 25.4442 31.5422 25.5785 31.3514V31.8382L26.8284 31.8285L26.8087 26.4848H25.5688V26.4847ZM23.9636 30.7306C23.0797 30.7212 22.3587 30.0154 22.3587 29.1374C22.3587 28.2693 23.0797 27.563 23.9636 27.5533C24.8484 27.5533 25.5688 28.2692 25.5688 29.1374C25.5688 30.0152 24.8484 30.7306 23.9636 30.7306Z" fill="white"/>
<path fill-rule="evenodd" clip-rule="evenodd" d="M32.9027 23.6602C32.893 23.6602 32.8836 23.6509 32.8836 23.6509C32.0471 23.6509 31.3647 24.3281 31.3647 25.1582C31.3647 25.9884 32.0471 26.6565 32.8836 26.6565C32.8836 26.6565 32.8932 26.6565 32.9027 26.6565C33.7293 26.6467 34.4021 25.9787 34.4021 25.1582C34.4021 24.3376 33.7293 23.6697 32.9027 23.6602ZM32.9027 26.4178C32.2009 26.4178 31.6339 25.8547 31.6339 25.1582C31.6339 24.4809 32.2009 23.9082 32.9027 23.9177C33.6045 23.9177 34.1715 24.4808 34.1715 25.168C34.1715 25.8547 33.6045 26.4178 32.9027 26.4178Z" fill="white"/>
<path fill-rule="evenodd" clip-rule="evenodd" d="M33.344 25.4062C33.2959 25.3587 33.2384 25.3109 33.1619 25.2632C33.3058 25.2444 33.4213 25.1869 33.4883 25.101C33.5555 25.0341 33.6038 24.9294 33.6038 24.8147C33.6038 24.7193 33.5652 24.6241 33.5267 24.5476C33.4787 24.4807 33.402 24.4236 33.3345 24.3948C33.2577 24.3662 33.1329 24.3567 32.9505 24.3567H32.9023H32.249V25.9882H32.585V25.3013H32.6427C32.7198 25.3013 32.7772 25.3109 32.8158 25.3203C32.8543 25.3299 32.8734 25.3489 32.9023 25.3774C32.9023 25.3872 32.912 25.3872 32.912 25.3967C32.9505 25.4155 33.0082 25.5017 33.0947 25.6254L33.3343 25.988H33.7283L33.5265 25.6732C33.4499 25.5495 33.3824 25.4446 33.344 25.4062ZM32.9023 25.0438C32.8832 25.0438 32.8543 25.0438 32.8253 25.0438H32.585V24.6337H32.8351C32.8639 24.6337 32.883 24.6337 32.9023 24.6337C32.9983 24.6337 33.0653 24.6337 33.0849 24.6432C33.1329 24.6432 33.1806 24.6717 33.2094 24.7007C33.248 24.7289 33.2577 24.7765 33.2577 24.8243C33.2577 24.8719 33.248 24.9294 33.2192 24.958C33.1905 24.9772 33.1617 25.0055 33.1329 25.025C33.0947 25.0341 33.0176 25.0341 32.9023 25.0438Z" fill="white"/>
<path fill-rule="evenodd" clip-rule="evenodd" d="M14.1979 20.3079H8.54626C10.2352 21.3454 12.2115 22.0339 14.4603 22.4961L14.1979 20.3079ZM18.507 20.3126L18.1703 22.368C20.429 21.955 22.4201 21.3059 24.1489 20.3126H18.507ZM17.8583 20.3028L14.7526 20.3077C15.1885 21.2075 15.7432 21.9648 16.3773 22.6877C17.0013 21.9501 17.4175 21.1878 17.8583 20.3028ZM26.2143 18.9359L6.44628 18.926C5.78745 18.4048 5.34169 18.1343 4.81169 17.4411H27.8735C27.3582 18.0016 26.7689 18.5079 26.2143 18.9359ZM29.1613 15.7398L3.61296 15.7495C3.27107 15.2775 2.87981 14.6136 2.6372 14.0875H30.1372C29.8794 14.6777 29.5329 15.2234 29.1613 15.7398ZM10.8791 12.288L1.95856 12.2929C1.14136 10.4196 0.626224 8.48715 0.378479 6.08745C4.97503 6.89871 8.52149 8.77227 10.8791 12.288ZM20.0177 12.3028H12.6822C12.5187 7.61669 13.8264 2.86173 16.3525 0C18.9181 2.78812 20.2456 7.52323 20.0177 12.3028ZM30.8898 12.2929L21.7958 12.2979C24.3071 8.79195 27.913 6.81035 32.5839 6.10712C32.2917 8.45255 31.7468 10.444 30.8898 12.2929Z" fill="white"/>
</svg>
