<svg width="50" height="26" viewBox="0 0 50 26" fill="none" xmlns="http://www.w3.org/2000/svg">
<path fill-rule="evenodd" clip-rule="evenodd" d="M2.07906 17.3484C2.20937 16.4555 2.44909 14.9855 2.67268 14.1656C2.71241 14.02 2.75214 13.8808 2.79007 13.748C3.06053 12.8006 3.23932 12.1744 2.67268 11.7966C2.60486 11.7514 2.53585 11.7062 2.46665 11.6608C1.87663 11.2743 1.27279 10.8786 1.27279 10.3967C1.27279 10.0436 1.22647 9.82942 1.16421 9.54155C1.13154 9.39051 1.09448 9.21917 1.05742 8.99683C1.04065 8.89621 1.02388 8.80865 1.00915 8.73171C0.929259 8.31458 0.909135 8.2095 1.27279 8.02768C1.33706 7.99554 1.39894 7.9658 1.45806 7.93739C1.79514 7.77538 2.04264 7.65642 2.13426 7.38157C2.24194 7.05852 2.67268 7.16621 2.78036 7.38157C2.88805 7.59694 3.31878 7.91998 3.74952 7.70462C4.0941 7.53232 4.61098 7.63283 4.82635 7.70462L5.58014 6.73546C5.58014 6.62778 5.60167 6.41241 5.68782 6.41241C5.71273 6.41241 5.7434 6.37208 5.7865 6.3154C5.92972 6.12706 6.21015 5.75827 6.87234 6.08936C7.73381 6.5201 8.59528 7.05852 9.1337 8.13536C9.67212 9.21219 11.3951 11.0428 13.8718 10.1813C16.3485 9.31988 18.3945 7.59694 18.8252 6.73547C18.8522 6.68158 18.8833 6.61885 18.9184 6.54832C19.4433 5.49132 20.8376 2.68381 21.9481 1.67434C23.1326 0.5975 23.3479 1.02823 23.3479 1.13592C23.3479 1.22206 24.5684 3.97159 25.1786 5.33559C26.0041 6.52011 28.4306 9.27681 31.5319 10.8275C35.4085 12.7658 40.2543 14.8118 44.5616 15.8886C48.0075 16.7501 49.1561 17.6833 49.2997 18.0423C49.4212 18.0423 49.6454 18.1656 49.7116 18.6207C49.6455 18.7174 49.5307 18.8395 49.3409 18.9804C48.8724 19.3281 47.9904 19.7586 46.4268 20.1948C42.5229 21.2838 37.6294 21.5044 32.6048 21.3947C30.107 21.3401 26.16 20.7665 22.1223 20.1754L21.9644 20.1523C17.9888 19.5703 13.946 18.9784 11.1805 18.8695C7.32294 18.7175 3.84351 17.8934 2.07906 17.3484ZM1.80114 17.7127C1.62861 17.767 1.37567 17.941 1.05742 18.3653C0.411322 19.2268 -0.127097 20.842 0.0882707 22.3496C0.260565 23.5557 1.38047 24.1443 1.91889 24.2879C2.13426 24.4315 2.84497 24.7833 3.96488 25.0417C5.08479 25.3001 6.15445 25.1494 6.54929 25.0417C6.65697 25.1135 6.91542 25.2786 7.08771 25.3647C7.26 25.4509 7.94918 25.3289 8.27223 25.2571C8.34402 25.3289 8.59528 25.494 9.02602 25.5801C9.45675 25.6663 9.92338 25.4006 10.1029 25.2571C10.1746 25.3289 10.4044 25.494 10.749 25.5801C11.0935 25.6663 11.3233 25.4724 11.3951 25.3647H11.8258C11.8976 25.4365 12.1273 25.5801 12.4719 25.5801C12.8165 25.5801 12.9026 25.4365 12.9026 25.3647H13.441C13.4769 25.4006 13.6349 25.494 13.9795 25.5801C14.3241 25.6663 14.5538 25.4724 14.6256 25.3647H15.0563C15.0563 25.5083 15.2071 25.7955 15.8101 25.7955H23.671C25.1355 25.7955 27.4399 25.7237 28.4091 25.6878C28.445 25.7596 28.5814 25.9032 28.8398 25.9032C29.0983 25.9032 29.1629 25.7596 29.1629 25.6878H29.9166C29.9525 25.7237 30.1105 25.817 30.4551 25.9032C30.7997 25.9893 30.8858 25.7237 30.8858 25.5801L31.6396 25.4724C31.7114 25.5801 31.9196 25.7955 32.178 25.7955C32.4364 25.7955 32.5728 25.5801 32.6087 25.4724H33.2548C33.3266 25.5442 33.5564 25.6878 33.9009 25.6878C34.2455 25.6878 34.3317 25.4724 34.3317 25.3647L35.0855 25.2571C35.1573 25.3647 35.3654 25.5801 35.6239 25.5801C35.8823 25.5801 35.9469 25.293 35.9469 25.1494H36.8084C36.8443 25.2212 36.9807 25.3647 37.2391 25.3647C37.4976 25.3647 37.634 25.1494 37.6699 25.0417L38.4237 24.934C38.4954 25.0417 38.7036 25.2571 38.9621 25.2571C39.2205 25.2571 39.2133 24.9699 39.1774 24.8263L40.1466 24.7186C40.2184 24.7904 40.4266 24.934 40.685 24.934C40.9435 24.934 41.0081 24.6469 41.0081 24.5033L41.8695 24.3956C41.9054 24.4674 42.0418 24.611 42.3003 24.611C42.5587 24.611 42.6233 24.3238 42.6233 24.1802L43.4848 23.9649C43.5207 24.0725 43.6571 24.2664 43.9155 24.1802C44.174 24.0941 44.1668 23.8572 44.1309 23.7495L44.8847 23.5341C44.9206 23.6059 45.057 23.7495 45.3154 23.7495C45.5739 23.7495 45.7103 23.3906 45.7461 23.2111L46.2846 23.1034C46.3205 23.1752 46.4569 23.3188 46.7153 23.3188C46.9737 23.3188 47.0384 22.9598 47.0384 22.7803L47.3614 22.565C47.4332 22.6368 47.6629 22.7588 48.0075 22.6727C48.3521 22.5865 48.51 22.206 48.5459 22.0266C48.5818 22.206 48.7828 22.4142 49.2997 21.8112C49.823 21.2007 49.7812 20.237 49.7464 19.435C49.7432 19.3605 49.74 19.2874 49.7373 19.2161C49.694 19.2526 49.6474 19.2893 49.5977 19.3262C49.0677 19.7196 48.1276 20.1675 46.5425 20.6097C42.5749 21.7165 37.6289 21.9352 32.5954 21.8253C30.0643 21.77 26.085 21.1908 22.0599 20.6016L21.9235 20.5816C17.9313 19.9972 13.9059 19.4079 11.1636 19.2999C7.1543 19.142 3.54918 18.2672 1.80114 17.7127Z" fill="#C4C4C4"/>
</svg>
