<svg width="64" height="32" viewBox="0 0 64 32" fill="none" xmlns="http://www.w3.org/2000/svg">
<path fill-rule="evenodd" clip-rule="evenodd" d="M2.61411 21.0109C2.78117 19.8662 3.08851 17.9814 3.37518 16.9303C3.42612 16.7436 3.47705 16.5651 3.52568 16.3948C3.87243 15.1803 4.10164 14.3774 3.37518 13.8931C3.28823 13.8351 3.19975 13.7772 3.11103 13.719C2.3546 13.2234 1.58045 12.7162 1.58045 12.0984C1.58045 11.6456 1.52107 11.3711 1.44124 11.002C1.39936 10.8084 1.35185 10.5887 1.30434 10.3036C1.28284 10.1746 1.26134 10.0624 1.24245 9.96374C1.14003 9.42896 1.11423 9.29425 1.58045 9.06114C1.66285 9.01993 1.74218 8.98181 1.81798 8.94538C2.25013 8.73767 2.56744 8.58517 2.6849 8.2328C2.82296 7.81863 3.37518 7.95669 3.51324 8.2328C3.65129 8.50891 4.20352 8.92307 4.75574 8.64695C5.19752 8.42607 5.86019 8.55492 6.1363 8.64695L7.10269 7.40445C7.10269 7.2664 7.1303 6.99028 7.24075 6.99028C7.27268 6.99028 7.31201 6.93857 7.36726 6.8659C7.55087 6.62444 7.9104 6.15164 8.75936 6.57612C9.86381 7.12834 10.9683 7.81863 11.6585 9.19919C12.3488 10.5797 14.5577 12.9267 17.733 11.8223C20.9083 10.7178 23.5314 8.50891 24.0836 7.40446C24.1181 7.33537 24.1581 7.25494 24.203 7.16452C24.876 5.8094 26.6636 2.21003 28.0872 0.915827C29.6058 -0.464733 29.8819 0.0874907 29.8819 0.225547C29.8819 0.335992 31.4466 3.86103 32.2289 5.60974C33.2873 7.12835 36.3982 10.6626 40.3742 12.6506C45.3442 15.1356 51.5567 17.7587 57.079 19.1392C61.4968 20.2437 62.9694 21.4402 63.1534 21.9003C63.3091 21.9003 63.5964 22.0583 63.6814 22.6414C63.5968 22.7655 63.4495 22.9222 63.2058 23.103C62.6051 23.5489 61.4743 24.1008 59.4698 24.66C54.4647 26.0562 48.1911 26.3389 41.7493 26.1983C38.5469 26.1284 33.4867 25.3929 28.3101 24.6351L28.1077 24.6055C23.0108 23.8593 17.8277 23.1005 14.2822 22.9609C9.33691 22.7661 4.87636 21.7096 2.61411 21.0109ZM2.25761 21.478C2.03642 21.5476 1.71222 21.7707 1.30434 22.3145C0.476003 23.419 -0.214277 25.4898 0.0618354 27.4226C0.282725 28.9688 1.71851 29.7235 2.40879 29.9076C2.6849 30.0917 3.59607 30.5427 5.03185 30.874C6.46763 31.2053 7.83899 31.012 8.34519 30.874C8.48325 30.966 8.81459 31.1777 9.03547 31.2882C9.25636 31.3986 10.1399 31.2421 10.5541 31.1501C10.6461 31.2421 10.9683 31.4538 11.5205 31.5643C12.0727 31.6747 12.6709 31.3342 12.901 31.1501C12.9931 31.2421 13.2876 31.4538 13.7294 31.5643C14.1712 31.6747 14.4657 31.4262 14.5577 31.2882H15.1099C15.202 31.3802 15.4965 31.5643 15.9383 31.5643C16.3801 31.5643 16.4905 31.3802 16.4905 31.2882H17.1808C17.2268 31.3342 17.4293 31.4538 17.8711 31.5643C18.3128 31.6747 18.6074 31.4262 18.6994 31.2882H19.2516C19.2516 31.4722 19.4449 31.8404 20.218 31.8404H30.2961C32.1737 31.8404 35.1281 31.7483 36.3706 31.7023C36.4166 31.7944 36.5915 31.9784 36.9228 31.9784C37.2541 31.9784 37.337 31.7944 37.337 31.7023H38.3033C38.3494 31.7483 38.5518 31.868 38.9936 31.9784C39.4354 32.0889 39.5458 31.7483 39.5459 31.5643L40.5122 31.4262C40.6043 31.5643 40.8712 31.8404 41.2025 31.8404C41.5339 31.8404 41.7087 31.5643 41.7547 31.4262H42.5831C42.6751 31.5182 42.9696 31.7023 43.4114 31.7023C43.8532 31.7023 43.9636 31.4262 43.9636 31.2882L44.93 31.1501C45.0221 31.2882 45.289 31.5643 45.6203 31.5643C45.9516 31.5643 46.0345 31.1961 46.0345 31.012H47.1389C47.1849 31.1041 47.3598 31.2882 47.6912 31.2882C48.0225 31.2882 48.1974 31.012 48.2434 30.874L49.2098 30.7359C49.3018 30.874 49.5687 31.1501 49.9001 31.1501C50.2314 31.1501 50.2222 30.7819 50.1762 30.5979L51.4187 30.4598C51.5107 30.5519 51.7776 30.7359 52.1089 30.7359C52.4403 30.7359 52.5231 30.3678 52.5231 30.1837L53.6276 30.0456C53.6736 30.1377 53.8485 30.3218 54.1798 30.3218C54.5111 30.3218 54.594 29.9536 54.594 29.7695L55.6984 29.4934C55.7444 29.6315 55.9193 29.88 56.2506 29.7695C56.582 29.6591 56.5728 29.3554 56.5267 29.2173L57.4931 28.9412C57.5392 29.0332 57.714 29.2173 58.0454 29.2173C58.3767 29.2173 58.5516 28.7571 58.5976 28.527L59.2879 28.389C59.3339 28.481 59.5088 28.6651 59.8401 28.6651C60.1714 28.6651 60.2542 28.2049 60.2542 27.9748L60.6684 27.6987C60.7605 27.7907 61.055 27.9472 61.4968 27.8368C61.9385 27.7263 62.141 27.2385 62.187 27.0084C62.2331 27.2385 62.4908 27.5054 63.1534 26.7323C63.8243 25.9496 63.7707 24.7141 63.7261 23.6859C63.7219 23.5902 63.7179 23.4964 63.7145 23.4049C63.6587 23.4518 63.5989 23.499 63.535 23.5465C62.8555 24.0507 61.6503 24.625 59.6181 25.1919C54.5314 26.6109 48.1904 26.8913 41.7372 26.7504C38.4921 26.6795 33.3906 25.937 28.2301 25.1815L28.0552 25.1559C22.9371 24.4067 17.7763 23.6511 14.2605 23.5127C9.12058 23.3102 4.49876 22.1889 2.25761 21.478Z" fill="white"/>
</svg>
