<svg width="128" height="452" viewBox="0 0 128 452" fill="none" xmlns="http://www.w3.org/2000/svg">
<g style="mix-blend-mode:multiply">
<path d="M63.6605 260.351C44.0655 260.351 24.4705 260.353 4.8755 260.35C0.763941 260.349 0.0552184 259.667 0.0552182 255.701C0.0533891 234.792 0.0546053 213.882 0.0625264 192.973C0.0637451 189.103 0.756624 188.429 4.67745 188.421C8.5355 188.414 12.3936 188.407 16.2516 188.424C19.557 188.439 20.3382 189.201 20.3431 192.541C20.3638 207.217 20.4278 221.894 20.3022 236.57C20.2803 239.167 20.8349 239.978 23.6082 239.917C32.7411 239.718 41.8832 239.756 51.0186 239.901C53.341 239.938 53.901 239.275 53.8846 237.053C53.7859 223.683 53.8334 210.313 53.8364 196.943C53.8377 192.932 54.5372 192.249 58.6196 192.244C62.3758 192.241 66.1327 192.232 69.889 192.247C73.365 192.26 74.2121 193.069 74.2157 196.487C74.2303 209.857 74.2962 223.227 74.1578 236.595C74.131 239.21 74.7392 239.974 77.4778 239.915C86.6113 239.721 95.7528 239.762 104.888 239.896C107.173 239.93 107.788 239.33 107.772 237.058C107.665 222.583 107.778 208.107 107.679 193.632C107.651 189.574 108.144 188.106 113.119 188.383C116.459 188.569 119.818 188.415 123.168 188.419C127.302 188.423 127.984 189.075 127.985 193.085C127.99 213.089 127.987 233.094 127.988 253.099C127.988 254.104 127.995 255.109 127.985 256.114C127.952 259.499 127.105 260.346 123.664 260.346C103.663 260.354 83.6619 260.351 63.6605 260.351Z" fill="#F2F2F0"/>
<path d="M63.6768 351.669C43.9734 351.669 24.2705 351.67 4.56703 351.669C0.803424 351.669 0.0581375 350.969 0.0569185 347.328C0.0496049 326.311 0.0502134 305.294 0.0569158 284.277C0.0581344 280.543 0.919814 279.714 4.70475 279.711C8.3611 279.708 12.0175 279.708 15.6738 279.712C19.6891 279.717 20.3478 280.384 20.3503 284.489C20.3588 299.07 20.4222 313.652 20.3058 328.232C20.2863 330.65 20.9993 331.236 23.3467 331.204C32.5875 331.078 41.832 331.067 51.0722 331.212C53.4159 331.249 53.9052 330.547 53.8882 328.346C53.7846 314.872 53.8321 301.396 53.8407 287.921C53.8431 284.369 54.5293 283.693 58.0979 283.682C62.1607 283.669 66.2241 283.736 70.2851 283.659C73.1249 283.605 74.2669 284.845 74.2535 287.656C74.187 301.131 74.2955 314.607 74.1584 328.081C74.1328 330.613 74.8494 331.249 77.3364 331.21C86.5766 331.067 95.8211 331.085 105.062 331.2C107.232 331.226 107.773 330.552 107.761 328.48C107.68 313.799 107.715 299.116 107.72 284.434C107.721 280.295 108.311 279.714 112.446 279.712C116.306 279.709 120.167 279.775 124.024 279.689C126.709 279.629 127.981 280.86 127.982 283.441C127.99 304.961 127.976 326.481 128 348.001C128.004 350.972 126.346 351.697 123.701 351.691C103.693 351.65 83.685 351.668 63.6768 351.669Z" fill="#F2F2F0"/>
<path d="M20.6049 122.4C20.6049 135.954 20.5928 148.914 20.611 161.874C20.6177 166.658 20.037 167.277 15.2405 167.279C11.4836 167.281 7.72606 167.24 3.96977 167.297C1.28418 167.338 0.059913 166.031 0.0593035 163.466C0.0556463 142.856 0.0580813 122.246 0.0580804 101.636C0.0580803 99.3002 1.22385 98.1279 3.59194 98.1303C7.34884 98.1339 11.1076 98.1955 14.862 98.0977C16.4038 98.0579 17.6025 98.747 18.8438 99.3932C29.7074 105.049 40.5899 110.672 51.3884 116.447C53.492 117.573 53.9831 117.288 53.8485 115.023C53.7296 113.02 53.8405 111.003 53.8326 108.993C53.8235 106.669 54.9679 105.428 57.3238 105.412C61.7913 105.382 66.2593 105.385 70.7268 105.397C73.0888 105.404 74.2265 106.625 74.2235 108.949C74.2162 114.579 74.2661 120.21 74.1918 125.839C74.1723 127.319 74.5861 128.185 75.9852 128.898C85.7257 133.863 95.448 138.867 105.104 143.991C107.538 145.283 107.474 144.098 107.47 142.304C107.443 128.329 107.455 114.355 107.46 100.38C107.462 96.1096 108.013 95.5757 112.388 95.572C116.348 95.569 120.309 95.6143 124.269 95.5564C126.826 95.519 127.988 96.7389 127.988 99.191C127.987 121.51 127.987 143.829 127.98 166.148C127.98 168.499 126.74 169.617 124.39 169.612C120.43 169.603 116.469 169.564 112.51 169.633C110.978 169.66 109.797 168.935 108.551 168.278C97.7173 162.563 86.8848 156.846 76.0492 151.135C75.6202 150.909 75.1631 150.734 74.2277 150.316C74.2277 153.215 74.2101 155.763 74.2326 158.311C74.2546 160.792 73.0857 161.995 70.536 161.968C66.2715 161.923 62.0064 161.927 57.7419 161.965C54.9045 161.991 53.7613 160.608 53.7973 157.872C53.8667 152.545 53.818 147.216 53.8229 141.888C53.8241 140.788 53.9344 139.772 52.6254 139.095C42.128 133.668 31.6617 128.176 20.6049 122.4Z" fill="#F2F2F0"/>
<path d="M47.0536 410.084C41.2321 407.429 36.0132 405.043 30.7901 402.667C21.7547 398.557 12.757 394.362 3.65454 390.403C1.04939 389.27 -0.124298 387.842 0.0103774 384.966C0.212695 380.652 0.0475491 376.321 0.0499865 371.998C0.0524239 368.046 1.45524 367.138 5.047 368.749C27.2246 378.696 49.4089 388.63 71.5676 398.619C73.2775 399.391 74.9467 399.788 76.8254 399.783C92.3637 399.742 107.902 399.761 123.441 399.766C127.386 399.768 127.98 400.367 127.989 404.347C127.997 408.269 128.007 412.19 127.986 416.112C127.968 419.342 127.121 420.186 123.842 420.189C108.202 420.201 92.5624 420.221 76.9229 420.168C74.7328 420.16 72.7669 420.599 70.7797 421.501C48.9208 431.42 27.0375 441.288 5.15791 451.162C1.3486 452.881 0.0749753 452.042 0.0621779 447.83C0.0487711 443.406 0.168821 438.977 0.00733196 434.558C-0.0877333 431.956 0.960421 430.574 3.33766 429.536C16.9838 423.577 30.5726 417.489 44.1791 411.44C44.9158 411.112 45.6392 410.752 47.0536 410.084Z" fill="#F2F2F0"/>
<path d="M47.0949 42.138C39.7145 38.7694 32.8278 35.6162 25.9319 32.4811C18.2822 29.0033 10.6453 25.4947 2.95542 22.1049C0.934072 21.2138 -0.0275494 19.9968 0.0199831 17.7577C0.121751 12.9343 0.0224214 8.10743 0.0644692 3.28229C0.0912823 0.229846 1.71287 -0.736776 4.61053 0.564087C26.7826 10.5148 48.9535 20.4674 71.1043 30.4634C73.0842 31.357 75.0398 31.8361 77.2378 31.8276C92.6713 31.7673 108.105 31.7926 123.539 31.7981C127.204 31.7993 127.977 32.5643 127.988 36.1864C128 40.0069 127.996 43.8268 127.989 47.6473C127.981 51.6718 127.444 52.2197 123.447 52.2215C107.709 52.2287 91.9705 52.2414 76.2317 52.2064C74.5632 52.2028 73.0818 52.5473 71.5614 53.2357C49.3301 63.3005 27.0782 73.3195 4.82809 83.3426C1.61233 84.7913 0.0736123 83.8398 0.0583773 80.3831C0.0382672 75.7589 0.154662 71.1311 0.0181581 66.5105C-0.0543597 64.0614 0.832915 62.6984 3.14556 61.6884C16.6954 55.7711 30.1818 49.7133 43.689 43.7007C44.6122 43.2898 45.5257 42.8584 47.0949 42.138Z" fill="#F2F2F0"/>
</g>
</svg>
