<svg width="72" height="26" viewBox="0 0 72 26" fill="none" xmlns="http://www.w3.org/2000/svg">
<path fill-rule="evenodd" clip-rule="evenodd" d="M0 0L72 0V26L0 26L0 0ZM31.2872 10.6374L31.2872 12.7268L31.2872 14.4223C31.2871 16.4564 31.287 18.4904 31.2878 20.5244C31.2879 20.9715 31.3987 21.0816 31.8419 21.0859C31.9338 21.0868 32.0258 21.0866 32.1177 21.0864H32.1182L32.2367 21.0862H34.5389H34.5611C36.4052 21.0863 38.2492 21.0863 40.0933 21.0858C40.6182 21.0857 40.7036 20.9971 40.7041 20.4599C40.7043 20.3222 40.7024 20.1843 40.7004 20.0465C40.6963 19.7486 40.6922 19.4507 40.7089 19.154C40.7451 18.5075 40.5528 18.4434 40.0216 18.447C39.0902 18.4534 38.1587 18.4531 37.2273 18.4528C36.2637 18.4524 35.3001 18.4521 34.3366 18.4592C34.0391 18.4613 33.9606 18.3814 33.965 18.0844C33.9826 16.8973 33.988 15.7093 33.9626 14.5224C33.9549 14.1665 34.0549 14.0875 34.3972 14.091C35.7964 14.1054 37.1958 14.1028 38.5953 14.1002C38.9462 14.0995 39.2971 14.0989 39.6479 14.0985C40.0953 14.098 40.2013 13.988 40.203 13.5362C40.2046 13.1325 40.2041 12.7286 40.2036 12.3248L40.2033 12.0718C40.2028 11.5413 40.1133 11.4504 39.5882 11.4502C39.1799 11.4501 38.7717 11.4497 38.3634 11.4493C37.0214 11.448 35.6793 11.4466 34.3373 11.4565C34.0464 11.4586 33.9596 11.3858 33.9644 11.084C33.9833 9.89687 33.9883 8.70885 33.9623 7.52201C33.9544 7.16161 34.0605 7.08955 34.4005 7.0924C35.9647 7.10568 37.5289 7.10264 39.0932 7.09959C39.4503 7.0989 39.8074 7.09821 40.1645 7.0977C40.6017 7.09707 40.7015 6.99555 40.7035 6.56602C40.7057 6.06466 40.7048 5.5633 40.7038 5.06194C40.7028 4.55243 40.6146 4.46239 40.1079 4.46223C37.3706 4.4612 34.6333 4.46104 31.896 4.46128C31.3767 4.46128 31.2875 4.55338 31.2874 5.08768C31.2871 6.93757 31.2871 8.78746 31.2872 10.6374ZM19.3325 12.7291C19.3324 10.1686 19.3323 7.6082 19.3325 5.04771C19.3325 4.55863 19.4241 4.46178 19.9007 4.46162C22.6521 4.46067 25.4035 4.46075 28.155 4.46162C28.6437 4.46178 28.7523 4.57376 28.7527 5.06561C28.7531 5.54076 28.7531 6.0159 28.7526 6.49105C28.752 7.01284 28.6646 7.09845 28.1272 7.09876C27.681 7.09902 27.2348 7.09967 26.7885 7.10032C25.3259 7.10245 23.8632 7.10457 22.4007 7.09298C22.0841 7.09045 22.0073 7.1831 22.0115 7.48815C22.028 8.689 22.0295 9.89033 22.0106 11.0911C22.0058 11.3957 22.0975 11.4593 22.3857 11.457C23.7878 11.4463 25.1899 11.4481 26.5921 11.4498C26.954 11.4502 27.3159 11.4506 27.6779 11.4509C28.143 11.4512 28.2314 11.5404 28.2328 12.0041C28.2334 12.1921 28.2327 12.38 28.232 12.568C28.2307 12.908 28.2294 13.248 28.2358 13.5878C28.2429 13.9569 28.0806 14.1053 27.7125 14.1035C26.9788 14.0999 26.2451 14.1003 25.5113 14.1006C24.481 14.1011 23.4507 14.1016 22.4204 14.0912C22.089 14.0879 22.0058 14.181 22.0108 14.5042C22.0295 15.7049 22.0272 16.9063 22.0122 18.1071C22.0087 18.3891 22.097 18.4594 22.3682 18.4579C23.8931 18.4495 25.418 18.4507 26.9429 18.4518C27.3401 18.4521 27.7372 18.4524 28.1343 18.4525C28.6763 18.4527 28.7523 18.5294 28.7526 19.0668C28.7527 19.222 28.7519 19.3773 28.7512 19.5325V19.5328C28.7495 19.879 28.7478 20.2253 28.7556 20.5713C28.7634 20.9201 28.6023 21.0855 28.2644 21.0856C27.2151 21.086 26.1657 21.086 25.1164 21.086C23.3485 21.086 21.5805 21.086 19.8126 21.0879C19.4237 21.0884 19.3288 20.873 19.3295 20.5293C19.3337 18.5297 19.3332 16.53 19.3328 14.5304L19.3325 12.7291ZM47.8297 7.13159L49.3468 7.13186C49.1661 7.47534 48.9875 7.81443 48.8106 8.15024L48.8074 8.15622L48.8068 8.15738C48.245 9.22381 47.7007 10.2572 47.1612 11.2929C47.079 11.4508 46.9586 11.4498 46.8265 11.4487L46.7957 11.4486C46.578 11.4484 46.3603 11.4488 46.1427 11.4493C45.6628 11.4504 45.1829 11.4514 44.7031 11.4452C44.3449 11.4406 44.1638 11.5891 44.1672 11.9578C44.1723 12.512 44.1727 13.0663 44.1668 13.6205C44.1633 13.9518 44.3209 14.1037 44.6457 14.1008C44.8746 14.0988 45.1036 14.0993 45.3474 14.0997C45.4588 14.1 45.5733 14.1002 45.6923 14.1002C45.6723 14.1446 45.6565 14.1807 45.6432 14.2113L45.6431 14.2114C45.6199 14.2647 45.6039 14.3015 45.5851 14.3369C45.0676 15.3115 44.5498 16.2858 44.0319 17.2602L44.0311 17.2617L44.0288 17.2661L43.3408 18.5605L43.3153 18.6082C43.2371 18.7531 43.1602 18.8955 43.1634 19.075C43.1705 19.4776 43.1689 19.8804 43.1673 20.2831L43.1673 20.2897C43.1669 20.3994 43.1664 20.5091 43.1662 20.6188C43.1655 20.9242 43.3118 21.0853 43.6196 21.0854C46.0915 21.0861 48.5635 21.0862 51.0354 21.0864L52.3852 21.0864C52.7062 21.0864 52.8659 20.9353 52.861 20.603C52.8559 20.2525 52.857 19.9018 52.8581 19.5511C52.8586 19.3872 52.8591 19.2232 52.859 19.0592C52.8585 18.4906 52.7886 18.419 52.2295 18.4188L51.3274 18.4184H51.325C49.797 18.4178 48.2691 18.4171 46.7411 18.4201L46.724 18.4201C46.4989 18.4208 46.3553 18.4212 46.5203 18.1126C47.1911 16.8578 47.8461 15.5944 48.4962 14.3286C48.5896 14.1468 48.7028 14.093 48.8966 14.0955C49.4011 14.1021 49.9057 14.1012 50.4102 14.1002C50.6427 14.0998 50.8752 14.0993 51.1077 14.0996C51.4121 14.1 51.5719 13.9522 51.5727 13.6452C51.5743 13.0647 51.5747 12.4841 51.5708 11.9035C51.5687 11.5974 51.4062 11.4486 51.102 11.4498C51.0123 11.4502 50.9225 11.4487 50.8327 11.4473C50.6591 11.4445 50.4855 11.4417 50.3126 11.4519C50.016 11.4694 49.9788 11.4056 50.1261 11.1322C50.7464 9.98096 51.3533 8.82236 51.9601 7.66381L51.9667 7.65126C52.0973 7.40181 52.228 7.15236 52.3588 6.90299L52.3758 6.87065C52.455 6.72062 52.5332 6.5725 52.5283 6.38556C52.519 6.02782 52.5208 5.66977 52.5226 5.31174L52.5226 5.30901C52.5233 5.17967 52.524 5.05032 52.5241 4.921C52.5244 4.61327 52.3709 4.46177 52.0652 4.46177L49.7525 4.46172C47.8252 4.46166 45.898 4.46159 43.9708 4.46193C43.6349 4.46201 43.4638 4.62111 43.4692 4.9701C43.4744 5.31009 43.4734 5.65016 43.4724 5.99023C43.4719 6.1384 43.4715 6.28657 43.4716 6.43474C43.4719 7.05805 43.5528 7.13352 44.1791 7.13265C45.3865 7.13096 46.5938 7.13127 47.8291 7.13159H47.8294H47.8297ZM11.6852 10.569L11.9908 9.9041L11.9917 9.9022C12.2215 9.4024 12.4391 8.92911 12.6561 8.45555C12.7986 8.14445 12.942 7.83369 13.0853 7.52294L13.0854 7.52272C13.4831 6.66068 13.8807 5.79865 14.2617 4.92926C14.41 4.59072 14.5969 4.43819 14.9735 4.45569C15.3613 4.47375 15.7502 4.46928 16.1391 4.46482H16.1391C16.3165 4.46278 16.4939 4.46074 16.6712 4.46084C17.1885 4.46116 17.3074 4.64346 17.0965 5.11021L16.3507 6.76128C15.2974 9.09309 14.244 11.4249 13.186 13.7546C13.0851 13.9768 13.033 14.1937 13.0337 14.4379C13.038 16.0901 13.0372 17.7424 13.0364 19.3947L13.0359 20.4956C13.0357 21.0083 12.9572 21.0855 12.4362 21.0866L12.3767 21.0867C11.8831 21.0878 11.3896 21.0889 10.896 21.0862C10.4731 21.0839 10.3626 20.9738 10.3623 20.5478L10.3618 19.9566C10.3603 18.1212 10.3588 16.2859 10.3651 14.4506C10.366 14.1659 10.3086 13.9105 10.1905 13.6522C9.03471 11.1239 7.88421 8.59313 6.73374 6.06238L6.30743 5.12462C6.08239 4.6296 6.19234 4.46409 6.74368 4.46243C6.92991 4.46187 7.11618 4.4631 7.30245 4.46433L7.30259 4.46433H7.3026C7.69564 4.46693 8.08866 4.46954 8.48112 4.4553C8.8218 4.44295 9.00269 4.57915 9.13863 4.88808C9.73432 6.24209 10.3398 7.59175 10.9453 8.94142C11.1328 9.35939 11.3204 9.77736 11.5076 10.1955C11.5346 10.2555 11.5632 10.315 11.6024 10.3963L11.6025 10.3964L11.6025 10.3965C11.6257 10.4447 11.6526 10.5006 11.6852 10.569ZM60.2594 9.69358C60.1266 9.98222 59.9918 10.2751 59.8542 10.5743C59.8201 10.5005 59.791 10.4379 59.7651 10.3824C59.7194 10.2843 59.684 10.2083 59.6496 10.1317C59.4575 9.70325 59.265 9.275 59.0726 8.84675C58.4765 7.52039 57.8804 6.19405 57.2948 4.86299C57.1626 4.56246 56.9841 4.44716 56.6635 4.45659C56.2707 4.46811 55.8774 4.46576 55.4842 4.46342C55.2719 4.46216 55.0596 4.4609 54.8474 4.46181C54.3949 4.46379 54.2703 4.66375 54.46 5.08164L54.7881 5.80466C55.9908 8.4551 57.1936 11.1055 58.4014 13.7537C58.4915 13.9513 58.5366 14.1438 58.5361 14.3606C58.532 16.198 58.5329 18.0353 58.5338 19.8726L58.5341 20.4963C58.5344 21.0157 58.6061 21.0855 59.133 21.0865C59.6331 21.0874 60.1332 21.0879 60.6334 21.0864C61.1075 21.085 61.2077 20.9845 61.2078 20.5082C61.208 20.13 61.2082 19.7518 61.2084 19.3736C61.2094 17.7461 61.2104 16.1187 61.204 14.4914C61.2029 14.2057 61.2656 13.9516 61.3826 13.6943C62.6912 10.8158 63.9941 7.93466 65.2968 5.05337C65.4671 4.67682 65.3405 4.46609 64.9409 4.4626C64.6802 4.46035 64.4194 4.46122 64.1586 4.4621C63.7876 4.46334 63.4167 4.46459 63.0459 4.45682C62.7528 4.45065 62.5935 4.57561 62.4768 4.83829C62.1235 5.63399 61.7602 6.42533 61.3971 7.21661C61.3041 7.41909 61.2112 7.62156 61.1184 7.82411C60.836 8.44073 60.5525 9.0568 60.2594 9.69358Z" fill="white"/>
</svg>
