<svg width="79" height="276" viewBox="0 0 79 276" fill="none" xmlns="http://www.w3.org/2000/svg">
<path d="M39.6826 158.975C27.7336 158.975 15.7846 158.977 3.83562 158.975C1.3284 158.974 0.896221 158.558 0.896221 156.136C0.895105 143.368 0.895847 130.601 0.900677 117.833C0.90142 115.47 1.32394 115.059 3.71485 115.054C6.06748 115.049 8.42012 115.045 10.7728 115.055C12.7883 115.064 13.2647 115.53 13.2677 117.569C13.2804 126.531 13.3194 135.493 13.2428 144.454C13.2294 146.04 13.5676 146.535 15.2588 146.498C20.828 146.377 26.4029 146.4 31.9736 146.488C33.3898 146.511 33.7313 146.106 33.7213 144.749C33.6611 136.585 33.6901 128.421 33.6919 120.257C33.6927 117.808 34.1193 117.391 36.6087 117.388C38.8992 117.386 41.1902 117.381 43.4808 117.39C45.6004 117.398 46.1169 117.892 46.1192 119.979C46.1281 128.143 46.1682 136.307 46.0839 144.47C46.0675 146.066 46.4384 146.533 48.1084 146.497C53.678 146.378 59.2524 146.404 64.8232 146.485C66.2167 146.506 66.5917 146.14 66.5816 144.752C66.5166 135.914 66.5853 127.074 66.5248 118.235C66.5077 115.758 66.8087 114.861 69.8421 115.03C71.8789 115.144 73.9272 115.05 75.9702 115.052C78.4908 115.055 78.9067 115.453 78.9074 117.901C78.9104 130.117 78.9089 142.332 78.9093 154.547C78.9093 155.161 78.9137 155.775 78.9078 156.388C78.8877 158.455 78.3708 158.972 76.2727 158.973C64.0763 158.977 51.8794 158.975 39.6826 158.975Z" fill="white"/>
<path d="M39.6926 214.736C27.6774 214.736 15.6627 214.737 3.64752 214.736C1.35248 214.736 0.898001 214.308 0.897258 212.085C0.892798 199.252 0.893169 186.419 0.897256 173.585C0.897999 171.305 1.42345 170.799 3.7315 170.797C5.96113 170.795 8.19077 170.795 10.4204 170.798C12.8689 170.8 13.2706 171.208 13.2721 173.714C13.2773 182.618 13.316 191.522 13.245 200.425C13.2331 201.901 13.6679 202.259 15.0993 202.24C20.7343 202.163 26.3716 202.156 32.0063 202.244C33.4355 202.267 33.7339 201.839 33.7235 200.495C33.6603 192.267 33.6893 184.038 33.6945 175.81C33.696 173.641 34.1144 173.228 36.2905 173.222C38.768 173.214 41.2459 173.255 43.7223 173.208C45.454 173.175 46.1503 173.932 46.1422 175.649C46.1017 183.877 46.1678 192.105 46.0842 200.333C46.0686 201.878 46.5056 202.267 48.0221 202.243C53.6568 202.156 59.2941 202.167 64.9291 202.237C66.2524 202.253 66.5824 201.841 66.5753 200.576C66.5255 191.611 66.5471 182.646 66.55 173.681C66.5508 171.153 66.9105 170.799 69.4322 170.798C71.7856 170.796 74.1401 170.836 76.4924 170.784C78.1293 170.747 78.9052 171.499 78.9056 173.075C78.9108 186.215 78.9019 199.356 78.9167 212.496C78.919 214.31 77.9082 214.753 76.2954 214.749C64.0945 214.724 51.8935 214.735 39.6926 214.736Z" fill="white"/>
<path d="M13.4274 74.7399C13.4274 83.0163 13.42 90.9297 13.4311 98.8435C13.4352 101.765 13.0811 102.142 10.1562 102.144C7.86521 102.145 5.57389 102.12 3.28331 102.155C1.64564 102.18 0.899084 101.382 0.898712 99.8155C0.896482 87.2307 0.897967 74.6456 0.897966 62.0609C0.897966 60.6347 1.60885 59.9188 3.05291 59.9203C5.34386 59.9225 7.63592 59.9601 9.92539 59.9004C10.8656 59.8761 11.5965 60.2968 12.3535 60.6914C18.9781 64.145 25.6142 67.5784 32.1991 71.105C33.4819 71.7921 33.7814 71.6186 33.6992 70.2352C33.6268 69.012 33.6944 67.7807 33.6896 66.5531C33.684 65.1343 34.3819 64.3764 35.8185 64.3669C38.5428 64.3484 41.2674 64.3503 43.9916 64.3576C45.432 64.3617 46.1257 65.107 46.1239 66.5266C46.1194 69.9644 46.1499 73.4025 46.1046 76.8399C46.0927 77.7437 46.345 78.272 47.1982 78.7075C53.1379 81.7397 59.0665 84.795 64.955 87.9237C66.4392 88.7125 66.3998 87.9889 66.3976 86.8936C66.3809 78.3605 66.3887 69.8273 66.3916 61.2942C66.3928 58.6864 66.7287 58.3604 69.3968 58.3582C71.8115 58.3563 74.227 58.384 76.6413 58.3486C78.2005 58.3257 78.9096 59.0707 78.9096 60.568C78.9088 74.1965 78.9088 87.825 78.9047 101.453C78.9044 102.889 78.1485 103.572 76.7152 103.568C74.3005 103.563 71.8851 103.539 69.4708 103.581C68.5366 103.598 67.8164 103.155 67.0568 102.754C60.4504 99.2643 53.8447 95.7731 47.2372 92.2859C46.9756 92.1477 46.6969 92.0413 46.1265 91.7859C46.1265 93.5562 46.1157 95.1121 46.1295 96.6676C46.1428 98.1826 45.4301 98.9176 43.8753 98.901C41.2748 98.8734 38.6739 98.8756 36.0734 98.8992C34.3432 98.915 33.6461 98.0706 33.668 96.3998C33.7104 93.1469 33.6807 89.893 33.6836 86.6394C33.6844 85.9677 33.7516 85.3473 32.9534 84.9343C26.5522 81.6203 20.1698 78.2665 13.4274 74.7399Z" fill="white"/>
<path d="M29.5557 250.405C26.0058 248.784 22.8234 247.327 19.6383 245.877C14.1285 243.367 8.64176 240.805 3.09108 238.388C1.50247 237.696 0.786752 236.824 0.868877 235.068C0.99225 232.433 0.891544 229.789 0.89303 227.149C0.894517 224.736 1.74995 224.181 3.9402 225.165C17.4641 231.239 30.992 237.305 44.5043 243.405C45.5471 243.876 46.5649 244.118 47.7106 244.115C57.1858 244.09 66.661 244.102 76.1366 244.105C78.5423 244.106 78.9046 244.472 78.9098 246.902C78.915 249.297 78.921 251.691 78.908 254.086C78.8972 256.058 78.3807 256.574 76.3814 256.575C66.8442 256.583 57.3069 256.595 47.77 256.562C46.4345 256.558 45.2357 256.826 44.0239 257.377C30.6943 263.434 17.35 269.459 4.00783 275.489C1.68493 276.538 0.908269 276.025 0.900465 273.454C0.892289 270.752 0.965496 268.048 0.86702 265.35C0.809049 263.761 1.44821 262.917 2.89785 262.283C11.2192 258.644 19.5057 254.927 27.8029 251.234C28.2522 251.033 28.6932 250.813 29.5557 250.405Z" fill="white"/>
<path d="M29.5809 25.7303C25.0804 23.6733 20.8809 21.748 16.6758 19.8336C12.011 17.71 7.35406 15.5676 2.66476 13.4977C1.43214 12.9536 0.845749 12.2104 0.874734 10.8432C0.936793 7.89798 0.876221 4.95056 0.901862 2.00424C0.918213 0.14035 1.90706 -0.44986 3.67404 0.344452C17.1946 6.42059 30.7143 12.4978 44.2218 18.6016C45.4292 19.1472 46.6217 19.4397 47.962 19.4346C57.3733 19.3977 66.7846 19.4132 76.1963 19.4165C78.4315 19.4173 78.9027 19.8844 78.9094 22.0961C78.9164 24.429 78.9142 26.7615 78.9098 29.0944C78.9053 31.5518 78.5779 31.8863 76.1402 31.8875C66.5431 31.8919 56.946 31.8996 47.3485 31.8782C46.3311 31.876 45.4277 32.0864 44.5005 32.5068C30.944 38.6525 17.3748 44.7703 3.80671 50.8906C1.84574 51.7752 0.907437 51.1942 0.898147 49.0835C0.885884 46.2599 0.956861 43.434 0.873622 40.6126C0.8294 39.1171 1.37046 38.2849 2.7807 37.6681C11.0434 34.0549 19.2674 30.3559 27.504 26.6845C28.067 26.4336 28.624 26.1702 29.5809 25.7303Z" fill="white"/>
</svg>
