<svg width="420" height="420" viewBox="0 0 420 420" fill="none" xmlns="http://www.w3.org/2000/svg">
<circle cx="210.001" cy="210" r="148" stroke="url(#paint0_linear)" stroke-width="124"/>
<line x1="213" y1="210" x2="213" y2="420" stroke="#FCFBF9" stroke-width="14"/>
<line x1="210.366" y1="216.99" x2="0.366158" y2="227.99" stroke="#FCFBF9" stroke-width="14"/>
<line x1="204.75" y1="203.629" x2="70.7497" y2="51.6291" stroke="#FCFBF9" stroke-width="14"/>
<line x1="417.366" y1="175.865" x2="211.366" y2="216.865" stroke="#FCFBF9" stroke-width="14"/>
<line x1="251.902" y1="1.1705" x2="215.902" y2="213.431" stroke="#FCFBF9" stroke-width="14"/>
<g clip-path="url(#clip0)">
<path d="M142.001 207.704C142.046 207.254 142.181 206.804 142.181 206.309C143.216 189.477 149.512 174.941 161.115 162.791C170.065 153.43 180.903 147.219 193.496 144.024C196.689 143.214 199.927 142.674 203.21 142.359C207.123 141.954 211.081 141.909 214.993 142.179C230.509 143.394 244.091 149.2 255.649 159.64C265.813 168.866 272.559 180.162 275.932 193.483C276.787 196.768 277.327 200.143 277.642 203.519C278.001 207.209 278.046 210.899 277.821 214.589C276.787 229.125 271.705 242.086 262.395 253.337C253.311 264.318 241.843 271.744 228.081 275.569C224.573 276.559 221.02 277.189 217.377 277.594C213.509 277.999 209.641 278.134 205.819 277.864C196.869 277.324 188.369 275.074 180.274 271.158C164.038 263.283 151.536 249.107 145.689 232.051C144.205 227.685 143.126 223.185 142.586 218.55C142.361 216.659 142.226 214.769 142.091 212.834C142.091 212.654 142.001 212.474 141.956 212.339C142.001 210.809 142.001 209.234 142.001 207.704ZM210.046 274.489C245.216 274.534 274.358 246.092 274.448 210.179C274.538 174.446 245.8 145.779 210.541 145.509C174.832 145.239 145.959 173.951 145.599 209.324C145.239 245.552 174.562 274.534 210.046 274.489Z" fill="url(#paint1_linear)"/>
<path d="M209.999 272.194C175.819 272.284 147.71 244.382 147.845 209.729C147.98 175.662 175.684 147.76 210.134 147.805C245.033 147.85 272.602 176.517 272.197 210.719C271.792 244.517 244.224 272.239 209.999 272.194ZM270.308 209.999C270.353 177.012 243.729 150.01 210.673 149.65C177.033 149.335 149.779 176.517 149.734 209.909C149.689 243.077 176.359 269.989 209.369 270.349C243.099 270.709 270.353 243.392 270.308 209.999Z" fill="url(#paint2_linear)"/>
<path d="M239.188 184.933C239.008 186.958 238.064 188.623 236.4 189.883C236.759 190.693 237.299 191.368 237.929 191.908C238.378 192.268 238.828 192.628 239.368 192.898C242.201 194.293 244.36 196.454 246.024 199.109C247.508 201.494 248.407 204.104 248.722 206.894C248.812 207.704 248.857 208.559 248.902 209.414C249.487 209.504 250.071 209.369 250.611 209.279C252.725 208.874 254.614 207.884 256.233 206.444C257.987 204.914 259.381 203.159 260.505 201.134C261.675 198.974 262.079 196.679 261.45 194.248C261.27 193.573 261.54 193.033 262.124 192.808C262.709 192.538 263.384 192.763 263.698 193.348C264.508 194.743 265.048 196.229 265.273 197.804C265.722 200.909 265.048 203.789 263.564 206.489C261.675 209.955 258.931 212.565 255.558 214.545C253.04 216.03 250.341 216.975 247.463 217.29C247.013 217.335 246.564 217.335 246.114 217.335C245.979 217.335 245.799 217.38 245.664 217.47C245.169 217.92 244.675 218.37 244.135 218.91C244.27 218.955 244.36 218.955 244.495 218.955C247.733 219.045 250.926 219.09 254.164 219.18C256.503 219.27 258.886 219.45 261.225 219.585C261.36 219.585 261.495 219.63 261.63 219.63C261.63 219.9 261.45 219.855 261.315 219.855C260.64 219.9 260.011 219.99 259.336 219.99C256.188 220.125 253.04 220.26 249.892 220.35C246.833 220.44 243.82 220.485 240.762 220.485C235.365 220.53 229.968 220.53 224.572 220.53C218.635 220.53 212.654 220.485 206.717 220.44C203.749 220.44 200.78 220.44 197.812 220.44C193.54 220.44 189.267 220.53 184.995 220.485C178.923 220.44 172.897 220.305 166.825 220.17C164.532 220.125 162.238 219.945 159.945 219.855C159.675 219.855 159.45 219.81 159.18 219.675C160.304 219.405 161.429 219.45 162.508 219.36C163.677 219.27 164.802 219.27 165.971 219.225C167.095 219.18 168.22 219.135 169.389 219.135C170.558 219.09 171.683 219.09 172.852 219.045C173.976 219 175.101 219 176.27 218.955C175.865 218.235 175.46 217.56 175.101 216.84C174.741 216.165 174.471 215.445 174.111 214.68C173.931 214.77 173.751 214.905 173.616 214.995C169.434 217.38 165.072 217.74 160.709 215.535C157.516 213.96 155.537 211.26 154.413 207.929C153.738 205.994 153.513 204.014 153.873 201.989C154.188 200.234 154.952 198.659 156.257 197.444C157.471 196.274 158.955 195.688 160.664 195.823C162.733 196.003 164.217 197.714 164.037 199.784C163.992 200.549 163.812 201.224 163.497 201.899C163.228 202.529 163.048 203.204 163.003 203.924C162.913 205.274 163.407 206.354 164.397 207.209C165.836 208.424 167.5 208.874 169.344 208.514C171.098 208.154 172.627 207.389 174.021 206.264C174.246 206.084 174.426 205.904 174.561 205.679C175.64 203.789 177.214 202.439 179.103 201.449C180.183 200.909 181.307 200.504 182.521 200.279C183.331 200.099 184.095 199.829 184.815 199.289C184.725 199.199 184.68 199.109 184.59 199.064C182.971 197.714 182.161 195.958 181.982 193.933C181.892 193.033 181.937 192.088 182.116 191.188C182.161 190.918 182.116 190.738 181.982 190.558C181.037 189.118 180.228 187.633 179.643 186.013C179.418 185.428 179.283 184.843 179.238 184.213C179.103 182.908 179.733 182.142 180.992 181.872C181.757 181.692 182.566 181.737 183.376 181.827C184.185 181.917 184.995 182.007 185.804 182.052C187.019 182.142 188.233 182.007 189.447 181.737C191.291 181.332 193.135 180.882 194.979 180.477C195.878 180.297 196.733 179.892 197.452 179.352C197.722 179.172 197.812 178.947 197.812 178.632C197.902 175.752 198.712 173.052 200.016 170.487C200.736 169.092 201.68 167.786 202.804 166.661C203.884 165.626 205.053 164.861 206.447 164.321C208.021 163.736 209.595 163.331 211.259 163.196C212.519 163.061 213.778 163.286 214.992 163.646C215.352 163.736 215.667 163.826 216.027 163.961C216.971 164.276 217.915 164.276 218.815 163.961C219.489 163.736 220.164 163.466 220.839 163.241C222.503 162.611 224.212 162.386 225.966 162.746C226.55 162.881 227.135 163.061 227.63 163.331C229.024 164.096 230.508 164.186 232.037 163.871C232.982 163.646 233.971 163.556 234.96 163.376C236.265 163.151 237.524 163.196 238.783 163.601C239.728 163.871 240.717 164.186 241.661 164.546C243.146 165.086 244.405 166.076 245.439 167.246C247.193 169.137 248.318 171.387 249.127 173.862C249.712 175.707 250.027 177.597 249.982 179.532C249.982 180.612 249.802 181.692 249.487 182.773C248.183 186.913 243.91 187.678 241.257 186.418C240.537 185.833 239.907 185.338 239.188 184.933ZM219.04 176.877C219.175 175.797 219.894 175.257 220.794 174.942C221.064 174.852 221.378 174.762 221.648 174.672C222.907 174.402 224.167 174.402 225.471 174.537C226.236 174.627 227 174.807 227.675 175.167C228.169 175.437 228.619 175.797 228.754 176.382C228.844 176.697 229.024 176.832 229.294 176.967C230.328 177.327 231.273 177.867 232.082 178.587C233.611 179.937 233.971 181.827 233.071 183.673C232.442 184.978 231.452 185.923 230.238 186.733C229.968 186.913 229.833 187.093 229.833 187.408C229.743 188.623 229.384 189.793 228.844 190.873C228.799 190.963 228.799 191.053 228.754 191.233C229.294 191.143 229.788 191.098 230.283 190.963C231.857 190.648 233.341 190.198 234.736 189.433C236.939 188.173 237.884 186.238 237.794 183.718C237.794 183.403 237.704 183.088 237.479 182.818C236.31 181.107 235.59 179.262 235.23 177.237C234.87 175.212 234.511 173.187 234.151 171.117C234.106 170.847 234.061 170.532 234.061 170.262C234.061 170.172 234.106 170.037 234.151 169.812C234.331 170.037 234.511 170.172 234.601 170.307C234.825 170.712 235.05 171.072 235.23 171.477C235.86 172.917 236.22 174.447 236.445 175.977C236.534 176.472 236.579 176.967 236.984 177.327C237.119 177.417 237.164 177.597 237.254 177.732C238.019 179.037 238.558 180.432 238.873 181.872C238.918 182.097 239.008 182.367 239.143 182.547C239.773 183.358 240.492 184.033 241.392 184.528C242.066 184.933 242.831 185.158 243.595 185.158C245.169 185.158 246.519 184.663 247.418 183.268C247.868 182.547 248.183 181.737 248.318 180.882C248.632 179.172 248.542 177.462 248.183 175.752C247.643 173.007 246.564 170.442 244.81 168.236C243.82 167.021 242.651 165.986 241.212 165.401C239.907 164.861 238.558 164.456 237.119 164.231C235.5 164.006 233.926 164.096 232.442 164.861C232.037 165.041 231.632 165.221 231.183 165.356C230.283 165.626 229.429 165.536 228.664 165.041C228.484 164.906 228.259 164.816 228.079 164.681C227.18 164.186 226.236 163.871 225.246 163.736C224.077 163.601 222.952 163.736 221.828 163.961C221.468 164.006 221.109 164.186 220.749 164.321C220.209 164.591 219.669 164.861 219.175 165.131C218.455 165.536 217.691 165.626 216.881 165.356C216.116 165.086 215.397 164.861 214.632 164.636C213.328 164.231 211.979 164.051 210.63 164.276C209.865 164.411 209.101 164.591 208.381 164.771C206.087 165.311 204.154 166.481 202.714 168.371C200.78 170.847 199.701 173.637 199.251 176.697C199.206 177.057 199.161 177.462 199.116 177.957C199.386 177.822 199.521 177.732 199.656 177.642C200.286 177.372 200.915 177.012 201.59 176.787C202.894 176.382 203.839 176.877 204.378 178.137C204.558 178.497 204.648 178.902 204.738 179.307C205.053 180.972 205.098 182.683 204.873 184.348C204.828 184.573 204.828 184.843 204.828 185.113C204.918 185.113 205.008 185.113 205.053 185.113C205.188 185.068 205.278 185.068 205.413 185.023C206.897 184.483 207.976 183.403 208.876 182.142C208.966 182.007 209.011 181.827 209.056 181.692C209.37 180.477 209.82 179.307 210.45 178.182C210.81 177.597 210.989 176.922 211.124 176.247C211.394 174.987 211.664 173.727 211.934 172.512C212.159 171.612 212.609 170.757 213.193 170.037C213.328 169.857 213.418 169.677 213.733 169.722C213.733 169.902 213.733 170.082 213.688 170.262C213.598 170.667 213.508 171.117 213.373 171.522C212.968 172.872 212.698 174.222 212.519 175.617C212.384 176.562 212.294 177.462 212.114 178.407C211.844 179.847 211.124 181.152 210.405 182.412C210.315 182.593 210.18 182.773 210.135 182.998C209.865 184.753 210.09 186.418 211.214 187.858C211.889 188.758 212.788 189.343 213.823 189.838C215.442 190.603 217.196 191.008 218.95 191.233C219.04 191.233 219.13 191.233 219.31 191.233C219.265 191.098 219.22 191.008 219.175 190.963C218.635 189.928 218.275 188.803 218.185 187.633C218.14 187.183 217.96 186.913 217.601 186.643C216.566 185.923 215.712 185.023 215.127 183.898C214.093 181.962 214.497 180.027 216.116 178.587C217.016 177.777 217.96 177.327 219.04 176.877ZM229.024 218.775C229.204 218.775 229.339 218.82 229.474 218.82C233.386 218.82 237.299 218.82 241.167 218.82C241.392 218.82 241.661 218.775 241.886 218.64C243.865 217.65 245.349 216.165 246.384 214.185C247.463 212.115 247.688 209.91 247.508 207.659C247.238 204.464 246.204 201.494 244.315 198.839C242.831 196.769 241.032 195.058 238.738 193.933C238.243 193.708 237.794 193.348 237.344 193.033C237.209 192.943 237.119 192.898 236.939 192.718C236.939 193.078 236.939 193.348 236.939 193.618C236.939 194.833 236.624 195.958 235.995 196.994C235.275 198.254 234.196 199.154 232.982 199.874C231.497 200.729 229.923 201.179 228.259 201.539C226.775 201.854 225.291 202.304 223.897 202.979C222.907 203.474 221.963 204.059 221.243 204.869C220.299 205.904 219.759 207.074 219.894 208.559C220.029 209.865 220.074 211.125 220.164 212.43C220.164 212.88 220.164 213.285 220.119 213.735C220.029 214.365 219.759 214.95 219.355 215.445C218.905 215.985 218.5 216.525 218.095 217.11C217.78 217.605 217.646 218.19 217.825 218.82C220.344 218.82 222.863 218.82 225.381 218.82C225.471 218.595 225.561 218.37 225.651 218.19C226.46 216.435 227.09 214.68 227.72 212.88C228.034 211.935 228.439 210.99 228.799 210.045C228.844 209.91 228.934 209.819 229.024 209.684C229.069 209.684 229.114 209.729 229.159 209.729C229.294 210.495 229.294 211.305 229.114 212.07C228.979 212.88 228.754 213.645 228.574 214.455C228.754 214.59 228.979 214.725 229.114 214.86C229.833 214.59 230.508 214.32 231.183 214.095C231.093 213.78 231.003 213.51 230.868 213.24C230.643 212.52 230.508 211.755 230.598 210.99C230.733 210 231.273 209.279 231.992 208.604C234.825 205.904 238.918 206.534 241.077 208.064C241.122 208.109 241.212 208.154 241.347 208.199C241.212 208.289 241.167 208.289 241.167 208.289C241.032 208.244 240.897 208.199 240.762 208.154C239.008 207.479 237.209 207.389 235.365 207.884C234.556 208.109 233.836 208.424 233.251 209.009C232.307 209.865 232.127 210.945 232.397 212.16C232.667 213.285 233.521 213.69 234.511 213.915C235.005 214.005 235.5 214.095 235.995 214.14C237.119 214.275 238.243 214.455 239.323 214.815C239.638 214.905 239.952 215.085 240.222 215.265C240.447 215.445 240.447 215.625 240.222 215.805C240.042 215.94 239.863 216.03 239.638 216.075C238.783 216.345 237.929 216.39 237.029 216.345C236.22 216.3 235.41 216.12 234.601 215.85C233.566 215.535 232.532 215.31 231.452 215.445C230.733 215.535 230.013 215.67 229.564 216.3C228.979 216.975 228.889 217.83 229.024 218.775ZM203.839 182.638H203.794C203.794 182.232 203.794 181.827 203.794 181.377C203.794 181.017 203.749 180.657 203.704 180.297C203.614 179.802 203.524 179.307 203.344 178.857C203.074 178.137 202.534 177.867 201.815 178.002C201.23 178.092 200.691 178.317 200.241 178.632C199.476 179.127 198.712 179.667 197.992 180.207C197.183 180.882 196.238 181.287 195.249 181.467C193.225 181.827 191.246 182.277 189.267 182.863C187.873 183.268 186.434 183.313 184.995 183.043C184.14 182.863 183.286 182.863 182.431 182.773C182.161 182.773 181.847 182.818 181.577 182.863C180.902 183.043 180.542 183.448 180.542 184.168C180.497 184.708 180.632 185.203 180.812 185.698C181.352 187.138 182.116 188.488 183.061 189.748C183.331 190.108 183.466 190.468 183.376 190.918C183.151 191.953 183.106 193.033 183.241 194.068C183.556 196.229 184.635 197.849 186.659 198.794C187.828 199.379 189.087 199.604 190.392 199.694C193.675 199.829 196.778 199.154 199.791 197.894C201.005 197.399 202.175 196.724 203.209 195.868C204.198 195.013 205.008 194.068 205.368 192.808C205.997 190.648 205.413 188.758 204.154 187.003C203.749 186.463 203.614 185.923 203.659 185.248C203.749 184.438 203.794 183.538 203.839 182.638ZM186.074 199.874C185.984 199.919 185.939 199.919 185.939 199.919C184.905 200.729 183.736 201.179 182.476 201.494C180.812 201.854 179.283 202.529 177.979 203.564C176.09 205.049 174.966 206.984 174.831 209.414C174.651 212.295 175.415 214.95 176.855 217.38C177.124 217.83 177.484 218.19 177.799 218.595C178.024 218.865 178.294 218.91 178.609 218.91C180.228 218.865 181.892 218.865 183.511 218.82C184.635 218.82 185.759 218.82 186.839 218.82C187.019 218.82 187.198 218.82 187.423 218.775C187.423 218.55 187.423 218.37 187.423 218.145C187.378 217.245 187.109 216.885 186.209 216.705C184.86 216.39 183.556 216.435 182.206 216.885C181.802 217.02 181.397 217.155 180.992 217.29C180.857 217.335 180.722 217.29 180.542 217.29C180.632 216.84 180.902 216.66 181.172 216.525C182.251 215.895 183.421 215.535 184.68 215.355C185.669 215.22 185.714 215.13 185.804 214.14C185.804 214.095 185.804 214.05 185.804 214.05C185.894 211.845 184.455 209.955 182.386 209.594C181.127 209.369 180.003 209.684 178.968 210.45C178.788 210.585 178.654 210.675 178.429 210.855C178.429 210.72 178.429 210.72 178.429 210.675C178.474 210.63 178.519 210.54 178.564 210.495C179.508 209.324 180.767 208.874 182.251 209.054C185.085 209.414 186.794 211.665 187.333 213.87C187.378 214.095 187.378 214.365 187.423 214.59C188.143 214.185 188.413 213.645 188.323 212.79C188.188 211.395 188.053 210.045 187.963 208.649C187.918 207.704 187.918 206.759 187.918 205.859C187.918 205.634 187.918 205.364 188.143 205.094C188.233 205.409 188.323 205.589 188.368 205.814C188.593 206.804 188.773 207.839 188.997 208.829C189.447 211.305 189.672 213.78 190.302 216.21C190.527 217.065 190.661 217.965 190.841 218.865C192.595 218.865 194.349 218.865 196.058 218.865C196.103 218.235 195.788 217.83 195.384 217.515C194.574 216.885 194.439 216.165 194.709 215.22C195.069 214.05 195.384 212.835 195.743 211.62C196.193 210 196.463 208.379 196.373 206.714C196.283 205.544 195.788 204.644 194.844 203.969C194.394 203.654 193.855 203.384 193.36 203.114C192.91 202.844 192.415 202.619 191.966 202.394C191.516 202.124 191.066 201.764 190.841 201.269C190.706 201.044 190.527 200.954 190.302 200.954C188.863 200.774 187.423 200.504 186.074 199.874ZM211.754 189.973C211.664 190.153 211.619 190.243 211.574 190.378C210.945 192.358 210.585 194.383 210.675 196.499C210.765 198.344 211.169 200.099 212.069 201.719C213.463 204.374 215.622 206.264 218.14 207.749C218.185 207.794 218.23 207.794 218.32 207.794C218.365 207.569 218.365 207.344 218.455 207.119C218.68 206.444 218.77 205.724 219.13 205.139C219.534 204.464 220.074 203.879 220.659 203.339C221.693 202.349 222.997 201.719 224.302 201.179C225.741 200.594 227.27 200.279 228.754 199.919C230.283 199.559 231.767 199.019 233.027 198.074C235.59 196.229 235.86 193.258 234.87 190.738C234.421 190.918 234.016 191.098 233.566 191.278C231.857 191.908 230.058 192.268 228.214 192.448C227.945 192.493 227.765 192.583 227.54 192.718C227 193.123 226.46 193.528 225.876 193.798C224.796 194.338 223.627 194.383 222.458 193.978C221.783 193.753 221.198 193.348 220.659 192.898C220.344 192.583 219.984 192.493 219.534 192.448C218.05 192.313 216.611 192.043 215.217 191.593C214.093 191.278 212.923 190.738 211.754 189.973ZM209.011 218.82C209.011 218.685 209.011 218.595 209.011 218.505C208.966 217.38 209.28 216.435 210.045 215.58C210.135 215.445 210.27 215.355 210.36 215.22C210.945 214.545 211.259 213.78 211.349 212.925C211.439 212.25 211.484 211.575 211.439 210.945C211.304 208.244 211.124 205.544 210.945 202.799C210.9 202.484 210.81 202.124 210.675 201.809C209.73 199.784 209.325 197.624 209.37 195.418C209.415 193.348 209.82 191.368 210.54 189.478C210.63 189.163 210.63 188.983 210.405 188.713C209.595 187.768 209.101 186.643 208.876 185.428C208.831 185.203 208.786 184.933 208.741 184.618C207.706 185.608 206.627 186.238 205.278 186.598C205.503 186.958 205.638 187.228 205.818 187.498C206.807 189.433 207.167 191.413 206.402 193.483C205.907 194.833 205.008 195.958 203.884 196.859C203.569 197.129 203.254 197.354 202.894 197.624C202.984 197.804 203.119 197.939 203.209 198.074C203.569 198.749 204.019 199.379 204.333 200.054C205.053 201.674 205.413 203.339 205.278 205.139C205.098 207.479 204.064 209.369 202.4 210.945C202.22 211.125 202.04 211.26 201.995 211.53C201.725 212.7 201.5 213.825 201.185 214.995C201.05 215.58 201.14 216.12 201.5 216.615C201.995 217.245 202.445 217.875 202.4 218.775C204.648 218.82 206.807 218.82 209.011 218.82ZM173.572 208.064C173.392 208.154 173.212 208.244 173.077 208.334C172.177 208.829 171.233 209.234 170.243 209.504C167.815 210.18 165.656 209.729 163.722 208.154C162.643 207.299 162.013 206.174 161.833 204.779C161.698 203.609 161.923 202.529 162.373 201.449C162.553 200.999 162.733 200.594 162.823 200.099C163.228 198.164 162.013 196.769 160.079 196.904C159 196.949 158.101 197.399 157.291 198.074C156.032 199.199 155.357 200.639 155.132 202.304C154.863 204.194 155.132 206.039 155.807 207.794C156.841 210.54 158.505 212.835 161.159 214.185C165.296 216.345 169.344 215.985 173.302 213.645C173.482 213.51 173.661 213.375 173.841 213.285C173.751 212.385 173.572 211.53 173.527 210.675C173.437 209.865 173.527 208.964 173.572 208.064ZM228.799 177.732C228.709 177.957 228.619 178.092 228.574 178.272C228.124 179.397 227.495 180.342 226.64 181.152C225.111 182.638 222.952 182.638 221.378 181.197C220.479 180.387 219.849 179.397 219.355 178.272C219.31 178.092 219.22 177.957 219.13 177.822C218.095 178.137 216.881 178.902 216.251 179.712C215.802 180.297 215.532 180.972 215.577 181.782C215.622 182.728 216.027 183.538 216.611 184.258C217.736 185.653 219.175 186.553 220.794 187.183C222.098 187.678 223.402 187.993 224.796 187.813C227.045 187.543 229.024 186.598 230.733 185.113C231.407 184.483 231.992 183.808 232.352 182.908C232.802 181.692 232.667 180.567 231.812 179.577C231.003 178.677 229.968 178.182 228.799 177.732ZM246.788 215.985C247.958 215.985 248.947 215.85 249.937 215.535C253.804 214.41 257.087 212.295 259.831 209.369C261.45 207.614 262.754 205.679 263.519 203.384C264.553 200.414 264.463 197.489 263.114 194.608C263.024 194.383 262.934 194.158 262.709 193.978C262.709 194.068 262.664 194.068 262.664 194.113C262.664 194.203 262.664 194.248 262.709 194.338C263.204 196.859 262.799 199.244 261.54 201.494C260.46 203.474 259.111 205.229 257.447 206.759C255.603 208.469 253.489 209.684 251.016 210.225C250.251 210.36 249.487 210.45 248.677 210.585C248.542 212.475 247.958 214.275 246.788 215.985ZM192.955 200.864C192.955 200.909 192.91 200.954 192.91 200.999C193.045 201.134 193.18 201.269 193.36 201.359C193.675 201.584 194.034 201.719 194.349 201.944C194.934 202.349 195.564 202.709 196.148 203.114C197.183 203.924 197.767 205.004 197.902 206.309C198.037 207.749 198.037 209.189 197.857 210.63C197.812 211.08 197.767 211.53 197.677 212.115C198.352 211.845 198.982 211.665 199.521 211.395C201.95 210.18 203.479 208.244 203.884 205.499C204.154 203.519 203.659 201.629 202.714 199.874C202.445 199.334 202.085 198.839 201.725 198.299C198.937 199.739 196.013 200.504 192.955 200.864ZM210.36 218.82C212.474 218.82 214.497 218.82 216.521 218.82C216.521 218.685 216.521 218.595 216.476 218.46C216.341 217.515 216.656 216.705 217.331 215.985C217.511 215.805 217.691 215.625 217.87 215.445C218.59 214.77 219.04 213.96 218.95 212.97C218.905 211.98 218.815 210.99 218.77 210C218.77 209.594 218.59 209.369 218.23 209.189C216.071 208.064 214.138 206.624 212.564 204.734C212.519 204.689 212.429 204.644 212.339 204.554C212.339 204.644 212.294 204.689 212.294 204.779C212.384 206.174 212.429 207.569 212.564 208.964C212.654 210.45 212.833 211.98 212.743 213.465C212.698 214.5 212.339 215.355 211.439 215.94C210.765 216.435 210.405 217.11 210.27 217.92C210.315 218.28 210.36 218.55 210.36 218.82ZM221.738 188.533C221.154 189.253 220.839 190.063 220.839 191.008C220.839 191.908 221.243 192.583 222.098 192.898C223.402 193.438 224.751 193.393 226.101 192.898C226.64 192.673 227.09 192.268 227.225 191.683C227.54 190.513 227.135 189.523 226.415 188.533C224.841 188.938 223.312 188.938 221.738 188.533ZM196.598 213.555C196.418 214.23 196.283 214.815 196.103 215.355C195.878 215.94 196.013 216.345 196.463 216.75C196.958 217.155 197.228 217.65 197.318 218.28C197.363 218.46 197.407 218.64 197.452 218.865C198.667 218.865 199.881 218.865 201.05 218.865C201.05 218.775 201.05 218.775 201.05 218.73C201.05 218.145 200.691 217.74 200.241 217.38C199.701 216.975 199.521 216.435 199.701 215.76C199.926 214.815 200.151 213.825 200.331 212.88C200.376 212.745 200.376 212.61 200.376 212.43C199.116 213.015 197.857 213.33 196.598 213.555ZM188.863 215.4C188.458 215.625 188.143 215.76 187.918 215.94C188.188 216.435 188.458 216.795 188.593 217.245C188.728 217.695 188.728 218.235 188.818 218.73C189.042 218.73 189.267 218.73 189.492 218.73C189.267 217.65 189.042 216.57 188.863 215.4ZM227.54 218.775C227.585 218.19 227.63 217.65 227.63 217.11C227.585 217.11 227.585 217.11 227.54 217.11C227.315 217.65 227.09 218.19 226.82 218.775C227.135 218.775 227.315 218.775 227.54 218.775Z" fill="url(#paint3_linear)"/>
<path d="M219.083 248.297C218.858 248.297 218.723 248.342 218.633 248.342C217.419 248.342 216.205 248.342 214.946 248.342C214.631 248.342 214.451 248.207 214.271 247.937C213.192 245.912 212.112 243.887 211.033 241.907C210.763 241.412 210.448 240.917 210.178 240.422C209.999 240.152 209.774 239.837 209.594 239.567C209.189 239.027 208.649 238.712 207.975 238.622C207.3 238.532 206.671 238.532 205.951 238.577C205.951 241.862 205.951 245.057 205.951 248.297C204.647 248.297 203.387 248.297 202.128 248.297C202.128 240.512 202.128 232.726 202.128 224.896C202.263 224.896 202.398 224.851 202.533 224.851C205.501 224.851 208.469 224.851 211.438 224.896C212.202 224.896 212.967 225.031 213.731 225.211C214.856 225.436 215.71 226.111 216.385 227.056C217.014 228.001 217.419 229.036 217.554 230.161C217.689 231.376 217.689 232.546 217.374 233.761C216.79 235.921 215.485 237.361 213.282 237.902C213.147 237.947 212.967 237.992 212.787 238.037C212.922 238.172 213.012 238.262 213.147 238.352C214.001 239.027 214.721 239.837 215.26 240.782C215.98 242.087 216.655 243.392 217.329 244.697C217.869 245.687 218.364 246.722 218.858 247.712C218.903 247.847 218.948 248.072 219.083 248.297ZM205.996 228.901C205.996 230.881 205.996 232.816 205.996 234.796C206.176 234.796 206.311 234.841 206.446 234.841C207.255 234.841 208.02 234.886 208.829 234.841C209.774 234.796 210.673 234.751 211.618 234.661C212.472 234.571 213.012 234.076 213.372 233.311C213.731 232.411 213.776 231.511 213.506 230.566C213.192 229.576 212.427 228.946 211.393 228.946C209.684 228.901 207.975 228.901 206.266 228.901C206.131 228.856 206.086 228.856 205.996 228.901Z" fill="url(#paint4_linear)"/>
<path d="M182.115 231.6C180.811 231.645 179.552 231.69 178.292 231.78C178.157 231.285 178.067 230.835 177.933 230.385C177.573 229.17 176.718 228.585 175.504 228.405C174.694 228.315 173.885 228.36 173.12 228.675C172.131 229.08 171.636 229.8 171.681 230.79C171.726 231.51 172.041 232.05 172.626 232.41C173.165 232.725 173.75 232.996 174.335 233.221C175.414 233.626 176.493 233.941 177.573 234.301C178.067 234.481 178.562 234.706 179.057 234.931C180.946 235.876 182.115 237.361 182.52 239.386C182.835 241.051 182.835 242.671 182.25 244.291C181.351 246.812 179.597 248.297 176.943 248.657C175.594 248.837 174.245 248.882 172.851 248.567C170.917 248.117 169.522 247.037 168.533 245.326C167.769 243.931 167.409 242.401 167.274 240.736C168.533 240.601 169.747 240.421 171.007 240.286C171.097 240.646 171.142 240.961 171.231 241.231C171.366 241.726 171.546 242.221 171.726 242.716C172.266 243.931 173.21 244.561 174.515 244.741C175.189 244.831 175.864 244.786 176.538 244.561C178.067 244.111 179.012 242.626 178.787 241.051C178.697 240.376 178.337 239.791 177.753 239.476C177.168 239.161 176.583 238.936 175.999 238.711C175.099 238.396 174.2 238.171 173.345 237.856C172.761 237.631 172.176 237.406 171.591 237.136C169.433 236.056 168.308 234.256 168.038 231.87C167.858 230.43 168.083 229.08 168.713 227.775C169.567 226.11 170.872 225.075 172.671 224.67C174.245 224.31 175.819 224.31 177.348 224.715C179.731 225.345 181.081 226.92 181.755 229.215C182.025 229.98 182.115 230.745 182.115 231.6Z" fill="url(#paint5_linear)"/>
<path d="M226.549 224.851C227.943 224.851 229.247 224.851 230.641 224.851C233.16 232.636 235.678 240.422 238.197 248.252C237.792 248.387 234.734 248.387 234.059 248.297C233.52 246.587 232.98 244.832 232.44 243.077C229.922 243.077 227.448 243.077 224.885 243.077C224.39 244.787 223.85 246.542 223.311 248.342C221.962 248.342 220.657 248.342 219.218 248.342C221.692 240.467 224.12 232.681 226.549 224.851ZM231.181 238.982C230.327 236.101 229.472 233.356 228.663 230.566C228.618 230.566 228.573 230.566 228.573 230.566C227.763 233.356 226.909 236.146 226.099 238.982C227.808 238.982 229.427 238.982 231.181 238.982Z" fill="url(#paint6_linear)"/>
<path d="M246.652 248.297C245.348 248.297 244.089 248.297 242.784 248.297C242.784 248.072 242.784 247.847 242.784 247.667C242.784 244.742 242.784 241.817 242.784 238.937C242.784 238.622 242.694 238.352 242.559 238.082C240.401 233.896 238.242 229.666 236.083 225.436C235.993 225.301 235.948 225.121 235.858 224.941C236.263 224.806 239.591 224.806 240.356 224.896C241.795 227.911 243.279 230.926 244.763 234.031C245.213 233.221 245.528 232.456 245.888 231.736C246.247 230.971 246.607 230.206 246.967 229.441C247.327 228.676 247.686 227.911 248.046 227.146C248.406 226.381 248.766 225.616 249.126 224.851C250.61 224.851 252.049 224.851 253.533 224.851C253.398 225.166 253.263 225.391 253.128 225.661C251.014 229.801 248.901 233.941 246.787 238.127C246.652 238.397 246.562 238.667 246.562 238.982C246.562 241.862 246.562 244.787 246.562 247.667C246.652 247.892 246.652 248.072 246.652 248.297Z" fill="url(#paint7_linear)"/>
<path d="M190.166 228.856C188.277 228.856 186.434 228.856 184.68 228.856C184.545 228.451 184.5 225.526 184.635 224.896C189.582 224.896 194.574 224.896 199.566 224.896C199.566 226.201 199.566 227.461 199.566 228.856C198.981 228.856 198.352 228.856 197.767 228.856C197.137 228.856 196.553 228.856 195.923 228.856C195.293 228.856 194.709 228.856 194.034 228.856C194.034 231.061 194.034 233.176 194.034 235.336C194.034 237.496 194.034 239.657 194.034 241.817C194.034 243.977 194.034 246.137 194.034 248.297C192.73 248.297 191.471 248.297 190.166 248.297C190.166 241.817 190.166 235.381 190.166 228.856Z" fill="url(#paint8_linear)"/>
<path d="M227.134 173.726C227.089 173.186 227.269 172.781 227.584 172.466C228.708 171.341 231.047 171.341 232.082 172.511C232.396 172.826 232.621 173.231 232.531 173.726C230.732 172.601 228.978 172.556 227.134 173.726Z" fill="url(#paint9_linear)"/>
<path d="M214.991 173.682C214.901 173.277 215.036 172.962 215.261 172.647C215.666 172.107 216.205 171.792 216.835 171.702C218.004 171.477 219.084 171.612 219.983 172.512C220.343 172.872 220.433 173.187 220.433 173.772C218.589 172.602 216.79 172.557 214.991 173.682Z" fill="url(#paint10_linear)"/>
<path d="M228.618 170.352C228.618 171.072 228.078 171.477 227.403 171.207C226.729 170.982 226.189 170.172 226.144 169.496C226.099 168.731 226.684 168.326 227.358 168.596C228.033 168.821 228.618 169.631 228.618 170.352Z" fill="url(#paint11_linear)"/>
<path d="M220.208 170.396C220.208 169.631 220.838 168.776 221.558 168.551C222.187 168.371 222.682 168.731 222.682 169.361C222.727 170.126 222.142 170.981 221.378 171.251C220.748 171.476 220.253 171.071 220.208 170.396Z" fill="url(#paint12_linear)"/>
<path d="M191.741 196.273C191.966 196.453 192.146 196.543 192.326 196.678C193.045 197.083 193.99 196.993 194.575 196.453C194.754 196.273 194.889 196.093 194.799 195.823C194.709 195.553 194.664 195.328 194.305 195.283C193.81 195.193 193.405 194.968 193 194.653C192.506 194.203 192.506 193.798 193.045 193.393C193.855 192.853 194.754 192.583 195.699 192.628C196.463 192.673 196.778 193.123 196.508 193.843C196.373 194.203 196.194 194.518 195.969 194.788C195.609 195.283 195.744 195.913 196.373 196.093C197.273 196.363 198.217 195.958 198.622 195.103C198.667 195.013 198.712 194.923 198.757 194.788C198.982 195.238 198.892 195.733 198.532 196.138C198.037 196.678 197.408 196.948 196.688 196.903C196.059 196.858 195.564 196.948 194.979 197.353C194.26 197.893 193.405 197.848 192.551 197.488C192.101 197.263 191.831 196.903 191.741 196.273Z" fill="url(#paint13_linear)"/>
<path d="M183.915 183.718C184.769 183.808 185.579 183.943 186.433 184.033C186.523 184.033 186.658 184.078 186.748 184.123C187.018 184.258 187.063 184.438 186.928 184.708C186.748 184.978 186.523 185.248 186.298 185.518C185.534 186.373 184.949 187.318 184.589 188.398C184.319 189.118 184.05 189.163 183.555 188.578C182.745 187.588 182.206 186.418 181.981 185.158C181.891 184.483 182.161 184.078 182.835 183.898C182.97 183.853 183.15 183.853 183.33 183.808C183.51 183.763 183.69 183.763 183.915 183.718C183.87 183.763 183.87 183.763 183.915 183.718ZM184.095 184.438C183.825 184.483 183.645 184.483 183.465 184.528C182.925 184.663 182.745 184.888 182.79 185.473C182.835 185.923 182.97 186.373 183.105 186.778C183.33 187.363 183.825 187.453 184.319 187.048C184.769 186.643 184.994 186.103 185.129 185.563C185.219 185.248 185.084 184.933 184.769 184.798C184.544 184.618 184.274 184.528 184.095 184.438Z" fill="url(#paint14_linear)"/>
<path d="M203.118 182.277C203.028 182.907 202.938 183.492 202.848 184.122C202.848 184.257 202.803 184.347 202.758 184.482C202.488 185.157 202.264 185.247 201.814 184.707C201.004 183.762 200.015 183.087 198.936 182.592C198.711 182.457 198.441 182.322 198.261 182.187C197.991 182.007 197.946 181.782 198.216 181.512C198.306 181.422 198.396 181.377 198.486 181.332C199.205 180.927 199.925 180.522 200.645 180.162C200.914 180.027 201.229 179.937 201.544 179.892C202.264 179.757 202.713 180.027 202.938 180.747C202.983 181.152 203.028 181.737 203.118 182.277ZM202.443 182.412C202.354 181.962 202.264 181.557 202.174 181.107C202.129 180.837 201.949 180.657 201.634 180.612C201.094 180.522 200.33 180.837 200.06 181.332C199.88 181.602 199.88 181.872 200.06 182.142C200.375 182.592 200.734 182.997 201.274 183.222C201.994 183.447 202.398 183.177 202.443 182.412Z" fill="url(#paint15_linear)"/>
<path d="M190.39 191.413C189.715 190.963 189.041 190.783 188.321 190.873C187.647 190.963 187.017 191.143 186.387 191.323C186.522 190.513 187.422 189.883 188.456 189.883C189.491 189.883 190.255 190.468 190.39 191.413Z" fill="url(#paint16_linear)"/>
<path d="M200.555 188.443C199.026 188.488 197.767 188.893 197.002 190.288C196.732 189.928 196.777 189.568 196.867 189.253C197.362 187.768 199.431 187.228 200.555 188.443Z" fill="url(#paint17_linear)"/>
<path d="M230.823 184.032C230.329 184.032 229.969 183.807 229.969 183.537C229.969 183.267 230.194 182.997 230.553 182.952C230.778 182.907 231.048 182.952 231.273 183.042C231.633 183.222 231.633 183.582 231.318 183.807C231.138 183.942 230.913 183.987 230.823 184.032Z" fill="url(#paint18_linear)"/>
<path d="M217.374 184.032C217.239 183.987 217.149 183.987 217.104 183.987C216.745 183.897 216.52 183.672 216.52 183.447C216.52 183.177 216.79 182.952 217.194 182.952C217.419 182.952 217.644 182.997 217.869 183.087C218.049 183.177 218.184 183.357 218.139 183.582C218.094 183.717 217.959 183.852 217.824 183.987C217.644 184.032 217.464 184.032 217.374 184.032Z" fill="url(#paint19_linear)"/>
<path d="M230.913 182.322C230.508 182.322 230.148 182.097 230.148 181.782C230.148 181.512 230.418 181.287 230.823 181.197C231.272 181.107 231.767 181.377 231.767 181.692C231.767 182.007 231.362 182.322 230.913 182.322Z" fill="url(#paint20_linear)"/>
<path d="M217.059 181.197C217.104 181.197 217.149 181.197 217.194 181.197C217.644 181.287 217.914 181.557 217.869 181.827C217.824 182.097 217.464 182.322 217.059 182.277C217.014 182.277 216.97 182.277 216.97 182.277C216.565 182.187 216.295 181.962 216.295 181.692C216.295 181.422 216.655 181.197 217.059 181.197Z" fill="url(#paint21_linear)"/>
<path d="M217.509 180.747C217.059 180.747 216.654 180.477 216.699 180.162C216.699 179.847 217.194 179.577 217.644 179.667C218.004 179.757 218.319 180.027 218.319 180.252C218.274 180.522 217.914 180.747 217.509 180.747Z" fill="url(#paint22_linear)"/>
<path d="M230.553 180.747C230.104 180.747 229.744 180.522 229.744 180.207C229.744 179.937 230.014 179.667 230.418 179.622C230.508 179.622 230.643 179.622 230.733 179.622C231.093 179.667 231.318 179.892 231.318 180.117C231.318 180.342 231.093 180.612 230.778 180.657C230.733 180.747 230.643 180.747 230.553 180.747Z" fill="url(#paint23_linear)"/>
</g>
<defs>
<linearGradient id="paint0_linear" x1="419.188" y1="210" x2="0.000610468" y2="210" gradientUnits="userSpaceOnUse">
<stop stop-color="#FCC796"/>
<stop offset="0.503472" stop-color="#FCA9AC"/>
<stop offset="1" stop-color="#9EBEE3"/>
</linearGradient>
<linearGradient id="paint1_linear" x1="277.696" y1="210.007" x2="143.008" y2="209.511" gradientUnits="userSpaceOnUse">
<stop stop-color="#F89A87"/>
<stop offset="1" stop-color="#D46493"/>
</linearGradient>
<linearGradient id="paint2_linear" x1="271.961" y1="209.999" x2="148.806" y2="209.546" gradientUnits="userSpaceOnUse">
<stop stop-color="#F89A87"/>
<stop offset="1" stop-color="#D46493"/>
</linearGradient>
<linearGradient id="paint3_linear" x1="265.194" y1="191.552" x2="154.571" y2="190.767" gradientUnits="userSpaceOnUse">
<stop stop-color="#F89A87"/>
<stop offset="1" stop-color="#D46493"/>
</linearGradient>
<linearGradient id="paint4_linear" x1="219.05" y1="236.596" x2="202.259" y2="236.552" gradientUnits="userSpaceOnUse">
<stop stop-color="#F89A87"/>
<stop offset="1" stop-color="#D46493"/>
</linearGradient>
<linearGradient id="paint5_linear" x1="182.7" y1="236.601" x2="167.393" y2="236.566" gradientUnits="userSpaceOnUse">
<stop stop-color="#F89A87"/>
<stop offset="1" stop-color="#D46493"/>
</linearGradient>
<linearGradient id="paint6_linear" x1="238.16" y1="236.605" x2="219.365" y2="236.549" gradientUnits="userSpaceOnUse">
<stop stop-color="#F89A87"/>
<stop offset="1" stop-color="#D46493"/>
</linearGradient>
<linearGradient id="paint7_linear" x1="253.499" y1="236.565" x2="235.995" y2="236.517" gradientUnits="userSpaceOnUse">
<stop stop-color="#F89A87"/>
<stop offset="1" stop-color="#D46493"/>
</linearGradient>
<linearGradient id="paint8_linear" x1="199.537" y1="236.596" x2="184.669" y2="236.561" gradientUnits="userSpaceOnUse">
<stop stop-color="#F89A87"/>
<stop offset="1" stop-color="#D46493"/>
</linearGradient>
<linearGradient id="paint9_linear" x1="232.541" y1="172.677" x2="227.17" y2="172.626" gradientUnits="userSpaceOnUse">
<stop stop-color="#F89A87"/>
<stop offset="1" stop-color="#D46493"/>
</linearGradient>
<linearGradient id="paint10_linear" x1="220.422" y1="172.689" x2="215.005" y2="172.639" gradientUnits="userSpaceOnUse">
<stop stop-color="#F89A87"/>
<stop offset="1" stop-color="#D46493"/>
</linearGradient>
<linearGradient id="paint11_linear" x1="228.613" y1="169.902" x2="226.161" y2="169.894" gradientUnits="userSpaceOnUse">
<stop stop-color="#F89A87"/>
<stop offset="1" stop-color="#D46493"/>
</linearGradient>
<linearGradient id="paint12_linear" x1="222.68" y1="169.909" x2="220.228" y2="169.901" gradientUnits="userSpaceOnUse">
<stop stop-color="#F89A87"/>
<stop offset="1" stop-color="#D46493"/>
</linearGradient>
<linearGradient id="paint13_linear" x1="198.866" y1="195.191" x2="191.796" y2="195.155" gradientUnits="userSpaceOnUse">
<stop stop-color="#F89A87"/>
<stop offset="1" stop-color="#D46493"/>
</linearGradient>
<linearGradient id="paint14_linear" x1="186.992" y1="186.349" x2="182.003" y2="186.332" gradientUnits="userSpaceOnUse">
<stop stop-color="#F89A87"/>
<stop offset="1" stop-color="#D46493"/>
</linearGradient>
<linearGradient id="paint15_linear" x1="203.108" y1="182.458" x2="198.074" y2="182.44" gradientUnits="userSpaceOnUse">
<stop stop-color="#F89A87"/>
<stop offset="1" stop-color="#D46493"/>
</linearGradient>
<linearGradient id="paint16_linear" x1="190.382" y1="190.648" x2="186.419" y2="190.61" gradientUnits="userSpaceOnUse">
<stop stop-color="#F89A87"/>
<stop offset="1" stop-color="#D46493"/>
</linearGradient>
<linearGradient id="paint17_linear" x1="200.548" y1="189.031" x2="196.827" y2="189.01" gradientUnits="userSpaceOnUse">
<stop stop-color="#F89A87"/>
<stop offset="1" stop-color="#D46493"/>
</linearGradient>
<linearGradient id="paint18_linear" x1="231.546" y1="183.483" x2="229.981" y2="183.475" gradientUnits="userSpaceOnUse">
<stop stop-color="#F89A87"/>
<stop offset="1" stop-color="#D46493"/>
</linearGradient>
<linearGradient id="paint19_linear" x1="218.144" y1="183.492" x2="216.532" y2="183.483" gradientUnits="userSpaceOnUse">
<stop stop-color="#F89A87"/>
<stop offset="1" stop-color="#D46493"/>
</linearGradient>
<linearGradient id="paint20_linear" x1="231.764" y1="181.751" x2="230.161" y2="181.743" gradientUnits="userSpaceOnUse">
<stop stop-color="#F89A87"/>
<stop offset="1" stop-color="#D46493"/>
</linearGradient>
<linearGradient id="paint21_linear" x1="217.871" y1="181.74" x2="216.307" y2="181.732" gradientUnits="userSpaceOnUse">
<stop stop-color="#F89A87"/>
<stop offset="1" stop-color="#D46493"/>
</linearGradient>
<linearGradient id="paint22_linear" x1="218.315" y1="180.198" x2="216.709" y2="180.189" gradientUnits="userSpaceOnUse">
<stop stop-color="#F89A87"/>
<stop offset="1" stop-color="#D46493"/>
</linearGradient>
<linearGradient id="paint23_linear" x1="231.315" y1="180.185" x2="229.756" y2="180.177" gradientUnits="userSpaceOnUse">
<stop stop-color="#F89A87"/>
<stop offset="1" stop-color="#D46493"/>
</linearGradient>
<clipPath id="clip0">
<rect width="136" height="136" fill="white" transform="translate(142 142)"/>
</clipPath>
</defs>
</svg>
