<svg width="247" height="235" viewBox="0 0 247 235" fill="none" xmlns="http://www.w3.org/2000/svg">
    <g clip-path="url(#coin2_clip0)">
    <path d="M48.8044 15.8913C55.2818 15.7571 60.5013 14.1395 60.4626 12.2784C60.4238 10.4172 55.1415 9.01726 48.6642 9.15149C42.1868 9.28572 36.9673 10.9033 37.006 12.7644C37.0448 14.6256 42.3271 16.0255 48.8044 15.8913Z" fill="white"/>
    <path d="M48.8067 15.0765C47.6082 15.0947 46.4097 15.0765 45.2294 14.9859C44.7028 14.9497 44.158 14.8953 43.6314 14.841C43.577 14.841 43.5406 14.8228 43.4862 14.8228C43.468 14.8228 43.2138 14.7866 43.4135 14.8228C43.2864 14.8047 43.1775 14.7866 43.0504 14.7685C42.7961 14.7322 42.5419 14.696 42.3058 14.6416C41.4705 14.4967 40.6352 14.2973 39.8181 14.0255C39.6547 13.9711 39.4731 13.8987 39.3096 13.8443C39.2733 13.8262 39.237 13.8081 39.2007 13.7899C39.4186 13.8443 39.2733 13.8262 39.2188 13.7899C39.1462 13.7537 39.0736 13.7174 38.9828 13.6812C38.7104 13.5544 38.4743 13.4094 38.2201 13.2463C38.0567 13.1376 38.3654 13.3731 38.2201 13.2463C38.1838 13.21 38.1293 13.1738 38.093 13.1376C38.0567 13.1013 38.0204 13.0651 37.984 13.0288C37.9659 13.0107 37.9477 12.9926 37.9296 12.9745C37.8569 12.8839 37.9114 12.8657 37.9659 13.0288C37.9296 12.9563 37.8569 12.8657 37.8206 12.7933C37.7843 12.7208 37.8932 13.0107 37.8388 12.8476C37.8206 12.7933 37.8206 12.7389 37.8025 12.7026C37.7843 12.6302 37.8025 12.9563 37.8206 12.7751C37.8206 12.7389 37.8388 12.6845 37.8206 12.6483C37.8569 12.8839 37.7843 12.8295 37.8206 12.7208C37.8388 12.6664 37.8569 12.6302 37.8751 12.5758C37.8388 12.8114 37.8025 12.7208 37.8569 12.6302C37.8751 12.5939 37.9114 12.5577 37.9296 12.5033C38.0385 12.3221 37.8206 12.612 37.9114 12.5214C37.9477 12.4852 37.984 12.4308 38.0385 12.3946C38.1293 12.304 38.2201 12.2315 38.3109 12.159C38.3835 12.0865 38.1293 12.2859 38.2564 12.2134C38.2927 12.1952 38.3109 12.1771 38.3472 12.1409C38.4017 12.1046 38.4743 12.0503 38.5288 12.014C38.8012 11.8328 39.0917 11.6878 39.3823 11.561C39.4186 11.5429 39.4367 11.5429 39.4731 11.5248C39.6365 11.4523 39.2915 11.5972 39.4731 11.5248C39.5457 11.4885 39.6365 11.4523 39.7091 11.4342C39.8907 11.3617 40.0905 11.2892 40.2902 11.2348C40.6897 11.108 41.1074 10.9811 41.525 10.8724C42.4874 10.6368 43.468 10.4556 44.4486 10.3106C44.7028 10.2744 44.2852 10.3287 44.5394 10.2925C44.612 10.2925 44.6665 10.2744 44.7391 10.2744C44.8844 10.2563 45.0297 10.2381 45.1749 10.22C45.4655 10.1838 45.756 10.1657 46.0647 10.1294C46.6458 10.075 47.2269 10.0388 47.8261 10.0207C49.0064 9.96632 50.2049 9.96632 51.3853 10.0207C51.93 10.0388 52.4929 10.0932 53.0377 10.1294C53.2919 10.1475 53.5643 10.1838 53.8185 10.22C53.873 10.22 53.9456 10.2381 54.0001 10.2381C54.0001 10.2381 54.2362 10.2744 54.1091 10.2563C53.982 10.2381 54.218 10.2744 54.218 10.2744C54.3088 10.2925 54.3815 10.2925 54.4723 10.3106C55.3802 10.4375 56.27 10.6187 57.1416 10.8724C57.5048 10.9811 57.8498 11.0898 58.1948 11.2348C58.4127 11.3254 58.0495 11.1805 58.2675 11.2711C58.3401 11.3073 58.4127 11.3254 58.4854 11.3617C58.6306 11.4342 58.7759 11.5066 58.903 11.5791C59.012 11.6516 59.1209 11.706 59.2299 11.7966C59.2662 11.8147 59.2843 11.8509 59.3207 11.8691C59.1572 11.7966 59.1936 11.7603 59.248 11.8147C59.3025 11.8509 59.357 11.9053 59.3933 11.9415C59.4296 11.9778 59.4659 12.014 59.5023 12.0503C59.5386 12.0865 59.6657 12.2496 59.5567 12.1046C59.4478 11.9597 59.5567 12.1228 59.5749 12.159C59.6112 12.2134 59.6294 12.2496 59.6475 12.304C59.6112 12.2496 59.5749 12.1046 59.6294 12.2496C59.6475 12.2859 59.6475 12.3402 59.6657 12.3765C59.6838 12.4671 59.6657 12.1228 59.6475 12.304C59.6475 12.3221 59.6475 12.3402 59.6475 12.3583C59.6475 12.4671 59.5749 12.5033 59.6657 12.2677C59.6475 12.3402 59.6112 12.4489 59.593 12.5214C59.6294 12.304 59.6657 12.3583 59.6112 12.4671C59.5749 12.5214 59.5567 12.5577 59.5204 12.612C59.4296 12.757 59.6657 12.4489 59.5386 12.5939C59.5023 12.6302 59.4659 12.6664 59.4296 12.7026C59.3388 12.7933 59.2299 12.8657 59.1391 12.9563C59.357 12.7751 59.1754 12.9201 59.1209 12.9563C59.0664 12.9926 59.012 13.0288 58.9575 13.0651C58.8304 13.1557 58.6851 13.2282 58.5398 13.3007C58.3946 13.3731 58.2675 13.4456 58.1222 13.5C58.0859 13.5181 58.0314 13.5362 57.9951 13.5544C57.868 13.6087 58.0314 13.5362 58.0495 13.5362C57.9587 13.5544 57.8498 13.6087 57.759 13.645C57.3777 13.7899 56.9782 13.9168 56.5968 14.0436C55.6707 14.3154 54.7265 14.5148 53.7822 14.6598C53.528 14.696 53.2919 14.7322 53.0377 14.7685C52.8016 14.8047 53.1285 14.7504 52.9832 14.7685C52.9106 14.7685 52.8561 14.7866 52.7835 14.7866C52.6201 14.8047 52.4748 14.8228 52.3114 14.841C51.7484 14.8953 51.1673 14.9497 50.6044 14.9859C50.0052 15.0403 49.4059 15.0584 48.8067 15.0765C48.3709 15.0947 47.9714 15.439 47.9896 15.892C48.0077 16.3269 48.3527 16.7256 48.8067 16.7075C51.1855 16.6531 53.6006 16.4357 55.925 15.892C56.7784 15.6927 57.6137 15.4571 58.4309 15.1309C59.1391 14.841 59.8291 14.4967 60.4102 14.0074C60.8823 13.6087 61.2273 13.047 61.2818 12.4308C61.3363 11.8328 61.0276 11.2711 60.6281 10.8543C60.1741 10.4012 59.593 10.075 59.012 9.82135C58.1948 9.47704 57.3413 9.20522 56.4697 9.02401C54.2362 8.53473 51.9119 8.35352 49.642 8.35352C47.1906 8.35352 44.721 8.53473 42.3058 9.02401C41.3979 9.20522 40.49 9.42268 39.6183 9.74886C38.9101 10.0026 38.1656 10.2925 37.5482 10.7455C37.0035 11.1261 36.5132 11.5791 36.2953 12.2134C36.1137 12.757 36.2226 13.3731 36.5313 13.8443C36.8945 14.3879 37.4574 14.7685 38.0204 15.0765C38.7649 15.4571 39.5639 15.7289 40.3628 15.9283C42.4874 16.49 44.7391 16.6894 46.9363 16.7437C47.5537 16.7618 48.1893 16.7618 48.8067 16.7437C49.2425 16.7437 49.642 16.3813 49.6238 15.9283C49.6057 15.4571 49.2607 15.0584 48.8067 15.0765Z" fill="white"/>
    <path d="M48.9777 24.2259C50.8427 24.1872 52.2456 18.9158 52.111 12.4518C51.9765 5.98783 50.3556 0.779069 48.4906 0.817717C46.6256 0.856365 45.2228 6.12779 45.3573 12.5918C45.4918 19.0558 47.1127 24.2645 48.9777 24.2259Z" fill="white"/>
    <path d="M46.1735 12.5941C46.1554 11.3981 46.1735 10.2021 46.2643 9.02417C46.3007 8.49865 46.3551 7.95501 46.4096 7.42948C46.4096 7.37512 46.4278 7.33888 46.4278 7.28451C46.4278 7.26639 46.4641 7.01269 46.4278 7.21203C46.4459 7.08518 46.4641 6.97645 46.4822 6.8496C46.5186 6.5959 46.5549 6.3422 46.6094 6.10662C46.7546 5.27304 46.9544 4.43946 47.2268 3.62399C47.2812 3.4609 47.3539 3.27969 47.4083 3.11659C47.4265 3.08035 47.4447 3.04411 47.4628 3.00786C47.4083 3.22532 47.4265 3.08035 47.4628 3.02599C47.4991 2.9535 47.5355 2.88102 47.5718 2.79041C47.6989 2.51859 47.8442 2.28301 48.0076 2.02931C48.1165 1.86622 47.8805 2.17428 48.0076 2.02931C48.0439 1.99307 48.0802 1.9387 48.1165 1.90246C48.1529 1.86622 48.1892 1.82997 48.2255 1.79373C48.2437 1.77561 48.2618 1.75749 48.28 1.73937C48.3708 1.66688 48.3889 1.72125 48.2255 1.77561C48.2981 1.75749 48.3889 1.66688 48.4616 1.63064C48.5342 1.5944 48.2437 1.70312 48.4071 1.64876C48.4616 1.63064 48.516 1.63064 48.5524 1.61252C48.625 1.5944 48.2981 1.61252 48.4797 1.63064C48.5342 1.63064 48.5705 1.63064 48.6068 1.63064C48.3708 1.66688 48.4252 1.5944 48.5342 1.63064C48.5887 1.64876 48.625 1.66688 48.6795 1.685C48.4434 1.64876 48.5342 1.61252 48.625 1.66688C48.6613 1.685 48.6976 1.72125 48.7521 1.73937C48.9337 1.8481 48.6432 1.63064 48.7339 1.72125C48.7703 1.75749 48.8247 1.79373 48.8611 1.8481C48.9519 1.9387 49.0245 2.02931 49.0971 2.11992C49.1698 2.1924 48.97 1.9387 49.0426 2.06555C49.0608 2.10179 49.079 2.11992 49.1153 2.15616C49.1516 2.21052 49.2061 2.28301 49.2424 2.33737C49.424 2.60919 49.5693 2.89914 49.6964 3.18908C49.7145 3.22532 49.7145 3.24344 49.7327 3.27969C49.8053 3.44278 49.66 3.09847 49.7327 3.27969C49.769 3.35217 49.8053 3.44278 49.8235 3.51526C49.8961 3.69648 49.9687 3.89581 50.0232 4.09515C50.1503 4.49382 50.2774 4.91061 50.3864 5.3274C50.6225 6.28784 50.8041 7.26639 50.9493 8.24495C50.9856 8.49865 50.9312 8.08185 50.9675 8.33555C50.9675 8.40804 50.9856 8.4624 50.9856 8.53489C51.0038 8.67986 51.022 8.82483 51.0401 8.9698C51.0764 9.25975 51.0946 9.54969 51.1309 9.85775C51.1854 10.4376 51.2217 11.0175 51.2399 11.6155C51.2943 12.7934 51.2943 13.9894 51.2399 15.1673C51.2217 15.711 51.1672 16.2727 51.1309 16.8164C51.1128 17.0701 51.0764 17.3419 51.0401 17.5956C51.0401 17.65 51.022 17.7224 51.022 17.7768C51.022 17.7768 50.9856 18.0124 51.0038 17.8855C51.022 17.7587 50.9856 17.9943 50.9856 17.9943C50.9675 18.0849 50.9675 18.1573 50.9493 18.248C50.8222 19.154 50.6406 20.042 50.3864 20.9118C50.2774 21.2742 50.1685 21.6185 50.0232 21.9628C49.9324 22.1803 50.0777 21.8179 49.9869 22.0353C49.9506 22.1078 49.9324 22.1803 49.8961 22.2528C49.8235 22.3978 49.7508 22.5427 49.6782 22.6696C49.6056 22.7783 49.5511 22.887 49.4603 22.9958C49.4421 23.032 49.4058 23.0501 49.3877 23.0864C49.4603 22.9233 49.4966 22.9595 49.4421 23.0139C49.4058 23.0682 49.3513 23.1226 49.315 23.1589C49.2787 23.1951 49.2424 23.2313 49.2061 23.2676C49.1698 23.3038 49.0063 23.4307 49.1516 23.3219C49.2969 23.2132 49.1334 23.3219 49.0971 23.3401C49.0426 23.3763 49.0063 23.3944 48.9519 23.4126C49.0063 23.3763 49.1516 23.3401 49.0063 23.3944C48.97 23.4126 48.9155 23.4126 48.8792 23.4307C48.7884 23.4488 49.1334 23.4307 48.9519 23.4126C48.9337 23.4126 48.9155 23.4126 48.8974 23.4126C48.7884 23.4126 48.7521 23.3401 48.9882 23.4307C48.9155 23.4126 48.8066 23.3763 48.7339 23.3582C48.9519 23.3944 48.8974 23.4307 48.7884 23.3763C48.7339 23.3401 48.6976 23.3219 48.6432 23.2857C48.4979 23.1951 48.8066 23.4307 48.6613 23.3038C48.625 23.2676 48.5887 23.2313 48.5524 23.1951C48.4616 23.1045 48.3889 22.9958 48.2981 22.9052C48.4797 23.1226 48.3345 22.9414 48.2981 22.887C48.2618 22.8327 48.2255 22.7783 48.1892 22.7239C48.0984 22.5971 48.0258 22.4521 47.9531 22.3071C47.8805 22.1622 47.8078 22.0353 47.7534 21.8904C47.7352 21.8541 47.7171 21.7997 47.6989 21.7635C47.6444 21.6367 47.7171 21.7997 47.7171 21.8179C47.6989 21.7273 47.6444 21.6185 47.6081 21.5279C47.4628 21.1474 47.3357 20.7487 47.2086 20.3682C46.9362 19.444 46.7365 18.5017 46.5912 17.5593C46.5549 17.3056 46.5186 17.0701 46.4822 16.8164C46.4459 16.5808 46.5004 16.907 46.4822 16.762C46.4822 16.6895 46.4641 16.6352 46.4641 16.5627C46.4459 16.3996 46.4278 16.2546 46.4096 16.0915C46.3551 15.5297 46.3007 14.9499 46.2643 14.3881C46.2099 13.7901 46.1735 13.1921 46.1735 12.5941C46.1554 12.1592 45.8104 11.7605 45.3564 11.7786C44.9206 11.7967 44.5211 12.141 44.5393 12.5941C44.5937 14.968 44.8116 17.3781 45.3564 19.6977C45.5561 20.5494 45.7922 21.383 46.1191 22.1984C46.4096 22.9052 46.7546 23.5938 47.2449 24.1737C47.6444 24.6448 48.2073 24.9891 48.8247 25.0435C49.424 25.0978 49.9869 24.7898 50.4046 24.3911C50.8585 23.9381 51.1854 23.3582 51.4396 22.7783C51.7846 21.9628 52.057 21.1111 52.2386 20.2413C52.7289 18.0124 52.9105 15.6928 52.9105 13.4277C52.9105 10.9813 52.7289 8.51677 52.2386 6.10662C52.057 5.20055 51.8391 4.29448 51.5122 3.42466C51.258 2.71792 50.9675 1.97495 50.5135 1.35882C50.1322 0.815176 49.6782 0.325899 49.0426 0.108442C48.4979 -0.0727721 47.8805 0.0359562 47.4083 0.34402C46.8636 0.706448 46.4822 1.26821 46.1735 1.82997C45.7922 2.57295 45.5198 3.37029 45.3201 4.16763C44.8116 6.28784 44.5937 8.51677 44.5393 10.7095C44.5211 11.3256 44.5211 11.9598 44.5393 12.576C44.5393 13.0109 44.9024 13.4095 45.3564 13.3914C45.7922 13.3914 46.1735 13.0471 46.1735 12.5941Z" fill="white"/>
    <path d="M102.667 188.324C109.139 188.014 114.313 186.255 114.223 184.396C114.134 182.536 108.815 181.28 102.344 181.59C95.8722 181.9 90.6985 183.659 90.7879 185.518C90.8773 187.378 96.196 188.634 102.667 188.324Z" fill="white"/>
    <path d="M102.666 187.503C101.467 187.557 100.269 187.575 99.0885 187.521C98.5438 187.503 98.0172 187.466 97.4906 187.412C97.2545 187.394 97.0003 187.358 96.7642 187.34C96.6552 187.321 96.5281 187.303 96.4192 187.303C96.6189 187.321 96.401 187.303 96.3647 187.303C96.2921 187.285 96.2376 187.285 96.165 187.267C95.3296 187.14 94.4762 186.977 93.6772 186.723C93.4956 186.669 93.3322 186.615 93.1687 186.542C93.078 186.506 93.0053 186.488 92.9145 186.452C92.8782 186.434 92.8601 186.433 92.8237 186.415C93.0598 186.488 92.8782 186.433 92.8237 186.415C92.5514 186.289 92.2971 186.162 92.0429 185.999C91.9884 185.962 91.9521 185.926 91.8976 185.89C92.1155 186.017 91.9703 185.944 91.8976 185.89C91.8068 185.817 91.7342 185.727 91.6616 185.654C91.6071 185.6 91.7887 185.854 91.6797 185.691C91.6616 185.654 91.6253 185.618 91.6071 185.582C91.5889 185.564 91.5889 185.527 91.5708 185.509C91.5708 185.509 91.6434 185.727 91.6252 185.636C91.6252 185.582 91.5889 185.527 91.5889 185.491C91.5345 185.328 91.5889 185.727 91.6071 185.564C91.6071 185.527 91.6071 185.473 91.6071 185.437C91.6071 185.364 91.5526 185.691 91.6071 185.509C91.6253 185.455 91.6434 185.419 91.6434 185.364C91.6616 185.292 91.5345 185.582 91.6252 185.419C91.6434 185.382 91.6797 185.328 91.6979 185.292C91.716 185.274 91.7342 185.237 91.7524 185.219C91.825 185.111 91.6253 185.364 91.6979 185.292C91.7342 185.256 91.7705 185.201 91.8068 185.165C91.8976 185.074 91.9884 185.002 92.0792 184.911C92.2608 184.766 91.934 185.002 92.1155 184.893C92.17 184.857 92.2427 184.803 92.2971 184.766C92.5695 184.585 92.8601 184.422 93.1506 184.295C93.2232 184.259 93.2959 184.223 93.3867 184.186C93.423 184.168 93.4411 184.15 93.4775 184.15C93.4956 184.15 93.5138 184.132 93.5319 184.132C93.6046 184.096 93.6046 184.096 93.4775 184.15C93.5138 184.114 93.6772 184.078 93.7317 184.041C93.8406 184.005 93.9496 183.969 94.0404 183.915C94.4399 183.77 94.8575 183.643 95.257 183.516C96.2194 183.244 97.1818 183.045 98.1624 182.882C98.453 182.827 98.7254 182.791 99.0159 182.755C99.0704 182.755 99.1248 182.737 99.1793 182.737C98.9977 182.755 99.2701 182.719 99.2883 182.719C99.4517 182.7 99.6151 182.682 99.7786 182.664C100.36 182.592 100.941 182.537 101.522 182.501C103.792 182.338 106.08 182.356 108.331 182.628C108.386 182.628 108.44 182.646 108.513 182.646C108.513 182.646 108.749 182.682 108.604 182.664C108.477 182.646 108.695 182.682 108.695 182.682C108.767 182.7 108.822 182.7 108.894 182.719C109.13 182.755 109.366 182.791 109.602 182.845C110.02 182.918 110.438 183.009 110.855 183.117C111.219 183.208 111.582 183.317 111.927 183.443C111.999 183.48 112.072 183.498 112.145 183.534C112.363 183.625 111.999 183.462 112.199 183.552C112.344 183.625 112.49 183.679 112.617 183.752C112.726 183.806 112.853 183.878 112.944 183.951C112.998 183.987 113.035 184.023 113.089 184.06C113.216 184.132 112.926 183.915 113.035 184.023C113.053 184.041 113.089 184.06 113.107 184.096C113.198 184.168 113.252 184.241 113.343 184.331C113.452 184.44 113.216 184.132 113.325 184.295C113.361 184.35 113.38 184.386 113.416 184.44C113.507 184.603 113.361 184.259 113.398 184.386C113.416 184.422 113.416 184.476 113.434 184.513C113.47 184.676 113.434 184.277 113.416 184.44C113.416 184.476 113.398 184.549 113.416 184.585C113.416 184.585 113.47 184.35 113.434 184.44C113.434 184.458 113.416 184.495 113.416 184.513C113.398 184.549 113.38 184.603 113.38 184.639C113.361 184.73 113.434 184.513 113.434 184.513C113.416 184.531 113.416 184.567 113.398 184.585C113.361 184.639 113.343 184.676 113.307 184.73C113.289 184.748 113.289 184.766 113.271 184.784C113.198 184.893 113.416 184.621 113.325 184.712C113.289 184.748 113.252 184.784 113.216 184.839C113.125 184.929 113.035 185.02 112.944 185.093C112.78 185.219 113.107 184.984 112.926 185.111C112.871 185.147 112.817 185.183 112.762 185.219C112.635 185.31 112.49 185.382 112.363 185.473C112.217 185.546 112.09 185.618 111.945 185.691C111.872 185.727 111.8 185.763 111.727 185.799C111.673 185.817 111.636 185.835 111.582 185.854C111.545 185.872 111.509 185.89 111.491 185.89C111.527 185.872 111.564 185.854 111.582 185.854C111.545 185.908 111.382 185.926 111.328 185.962C111.237 185.999 111.128 186.035 111.037 186.071C110.837 186.144 110.619 186.216 110.42 186.289C109.512 186.578 108.567 186.796 107.623 186.977C107.097 187.086 106.57 187.158 106.043 187.231C106.062 187.231 105.807 187.267 105.916 187.249C106.025 187.231 105.771 187.267 105.789 187.267C105.662 187.285 105.517 187.303 105.39 187.321C105.081 187.358 104.79 187.394 104.482 187.412C103.864 187.43 103.265 187.466 102.666 187.503C102.248 187.521 101.831 187.865 101.849 188.318C101.867 188.735 102.212 189.152 102.666 189.134C105.045 189.025 107.442 188.735 109.766 188.119C110.656 187.883 111.545 187.593 112.399 187.213C113.053 186.923 113.67 186.578 114.215 186.107C114.669 185.691 115.032 185.129 115.068 184.513C115.105 183.915 114.796 183.353 114.378 182.954C113.87 182.465 113.234 182.157 112.581 181.903C111.8 181.595 110.983 181.396 110.165 181.233C107.914 180.798 105.608 180.689 103.32 180.743C100.868 180.798 98.3985 181.07 96.0015 181.613C95.0936 181.813 94.2038 182.066 93.3322 182.411C92.624 182.682 91.8976 182.99 91.2802 183.443C90.7536 183.842 90.2633 184.295 90.0636 184.948C89.882 185.491 90.0091 186.107 90.336 186.578C90.7173 187.122 91.2621 187.485 91.8613 187.774C92.624 188.137 93.423 188.391 94.222 188.572C96.3647 189.061 98.6164 189.224 100.814 189.224C101.431 189.224 102.067 189.206 102.684 189.17C103.102 189.152 103.519 188.807 103.501 188.354C103.465 187.901 103.12 187.485 102.666 187.503Z" fill="white"/>
    <path d="M103.068 196.65C104.931 196.561 106.19 191.253 105.879 184.795C105.569 178.337 103.807 173.174 101.943 173.263C100.08 173.352 98.8212 178.66 99.1318 185.118C99.4424 191.576 101.205 196.739 103.068 196.65Z" fill="white"/>
    <path d="M99.942 185.11C99.8875 183.914 99.8694 182.718 99.9238 181.54C99.942 180.997 99.9783 180.471 100.033 179.946C100.051 179.71 100.087 179.457 100.105 179.221C100.124 179.112 100.142 178.985 100.142 178.877C100.124 179.076 100.142 178.858 100.142 178.822C100.16 178.75 100.16 178.695 100.178 178.623C100.305 177.789 100.469 176.938 100.723 176.14C100.777 175.959 100.832 175.796 100.886 175.633C100.923 175.542 100.941 175.47 100.977 175.379C100.995 175.343 100.995 175.325 101.013 175.289C100.941 175.524 100.995 175.343 101.013 175.289C101.14 175.017 101.268 174.763 101.431 174.509C101.467 174.455 101.504 174.419 101.54 174.364C101.413 174.582 101.486 174.437 101.54 174.364C101.613 174.274 101.703 174.201 101.776 174.129C101.831 174.074 101.576 174.256 101.74 174.147C101.776 174.129 101.812 174.093 101.849 174.074C101.867 174.056 101.903 174.056 101.921 174.038C101.921 174.038 101.703 174.111 101.794 174.093C101.849 174.093 101.903 174.056 101.939 174.056C102.103 174.002 101.703 174.056 101.867 174.074C101.903 174.074 101.958 174.074 101.994 174.074C102.067 174.074 101.74 174.02 101.921 174.074C101.976 174.093 102.012 174.111 102.067 174.111C102.139 174.129 101.849 174.002 102.012 174.093C102.048 174.111 102.103 174.147 102.139 174.165C102.157 174.183 102.194 174.201 102.212 174.219C102.321 174.292 102.067 174.093 102.139 174.165C102.176 174.201 102.23 174.238 102.266 174.274C102.357 174.364 102.43 174.455 102.521 174.546C102.666 174.727 102.43 174.401 102.539 174.582C102.575 174.636 102.63 174.709 102.666 174.763C102.847 175.035 103.011 175.325 103.138 175.615C103.174 175.687 103.211 175.76 103.247 175.85C103.265 175.887 103.283 175.905 103.283 175.941C103.283 175.959 103.301 175.977 103.301 175.995C103.338 176.068 103.338 176.068 103.283 175.941C103.32 175.977 103.356 176.14 103.392 176.195C103.428 176.303 103.465 176.412 103.519 176.503C103.665 176.901 103.792 177.318 103.919 177.717C104.191 178.677 104.391 179.638 104.554 180.616C104.609 180.906 104.645 181.178 104.681 181.468C104.681 181.522 104.7 181.577 104.7 181.631C104.681 181.45 104.718 181.722 104.718 181.74C104.736 181.903 104.754 182.066 104.772 182.229C104.845 182.809 104.899 183.389 104.936 183.969C105.099 186.234 105.081 188.517 104.809 190.764C104.809 190.819 104.79 190.873 104.79 190.945C104.79 190.945 104.754 191.181 104.772 191.036C104.79 190.909 104.754 191.127 104.754 191.127C104.736 191.199 104.736 191.254 104.718 191.326C104.681 191.562 104.645 191.797 104.591 192.033C104.518 192.45 104.427 192.866 104.318 193.283C104.227 193.646 104.119 194.008 103.991 194.352C103.955 194.425 103.937 194.497 103.901 194.57C103.81 194.787 103.973 194.425 103.882 194.624C103.81 194.769 103.755 194.914 103.683 195.041C103.628 195.15 103.556 195.276 103.483 195.367C103.447 195.421 103.41 195.458 103.374 195.512C103.301 195.639 103.519 195.349 103.41 195.458C103.392 195.476 103.374 195.512 103.338 195.53C103.265 195.621 103.192 195.675 103.102 195.766C102.993 195.874 103.301 195.639 103.138 195.748C103.083 195.784 103.047 195.802 102.993 195.838C102.829 195.929 103.174 195.784 103.047 195.82C103.011 195.838 102.956 195.838 102.92 195.856C102.757 195.893 103.156 195.856 102.993 195.838C102.956 195.838 102.884 195.82 102.847 195.838C102.847 195.838 103.083 195.893 102.993 195.856C102.975 195.856 102.938 195.838 102.92 195.838C102.884 195.82 102.829 195.802 102.793 195.802C102.702 195.784 102.92 195.856 102.92 195.856C102.902 195.838 102.866 195.838 102.847 195.82C102.793 195.784 102.757 195.766 102.702 195.73C102.684 195.711 102.666 195.711 102.648 195.693C102.539 195.621 102.811 195.838 102.72 195.748C102.684 195.711 102.648 195.675 102.593 195.639C102.502 195.548 102.412 195.458 102.339 195.367C102.212 195.204 102.448 195.53 102.321 195.349C102.284 195.295 102.248 195.24 102.212 195.186C102.121 195.059 102.048 194.914 101.958 194.787C101.885 194.642 101.812 194.515 101.74 194.37C101.703 194.298 101.667 194.225 101.631 194.153C101.613 194.099 101.594 194.062 101.576 194.008C101.558 193.972 101.54 193.935 101.54 193.917C101.558 193.954 101.576 193.99 101.576 194.008C101.522 193.972 101.504 193.809 101.467 193.754C101.431 193.664 101.395 193.555 101.358 193.464C101.286 193.265 101.213 193.048 101.14 192.848C100.85 191.942 100.632 191 100.45 190.058C100.341 189.532 100.269 189.006 100.196 188.481C100.196 188.499 100.16 188.245 100.178 188.354C100.196 188.463 100.16 188.209 100.16 188.227C100.142 188.1 100.124 187.955 100.105 187.829C100.069 187.521 100.033 187.231 100.015 186.923C100.015 186.306 99.9783 185.708 99.942 185.11C99.9238 184.694 99.5788 184.277 99.1249 184.295C98.7072 184.313 98.2896 184.657 98.3077 185.11C98.4167 187.484 98.7072 189.876 99.3246 192.196C99.5607 193.084 99.8512 193.972 100.233 194.823C100.523 195.476 100.868 196.092 101.34 196.636C101.758 197.089 102.321 197.451 102.938 197.487C103.537 197.524 104.1 197.215 104.5 196.799C104.99 196.291 105.299 195.657 105.553 195.005C105.862 194.225 106.062 193.41 106.225 192.595C106.661 190.347 106.77 188.046 106.715 185.763C106.661 183.316 106.388 180.852 105.844 178.46C105.644 177.554 105.39 176.666 105.045 175.796C104.772 175.089 104.464 174.364 104.01 173.748C103.61 173.223 103.156 172.733 102.502 172.534C101.958 172.353 101.34 172.48 100.868 172.806C100.323 173.186 99.9602 173.73 99.6696 174.328C99.3064 175.089 99.0522 175.887 98.8706 176.684C98.3803 178.822 98.2169 181.069 98.2169 183.262C98.2169 183.878 98.2351 184.512 98.2714 185.128C98.2896 185.545 98.6346 185.962 99.0885 185.944C99.5607 185.908 99.9783 185.563 99.942 185.11Z" fill="white"/>
    <path d="M103.223 55.3797C107.443 55.2556 110.836 54.1737 110.8 52.9632C110.764 51.7527 107.314 50.872 103.093 50.996C98.873 51.1201 95.4806 52.202 95.5164 53.4125C95.5521 54.623 99.0024 55.5037 103.223 55.3797Z" fill="white"/>
    <path d="M103.211 54.564C102.448 54.5822 101.685 54.5822 100.923 54.5278C100.578 54.5097 100.233 54.4734 99.8875 54.4372C99.7967 54.4191 99.7241 54.4191 99.6333 54.4009C99.597 54.4009 99.5607 54.4009 99.5243 54.3828C99.5062 54.3828 99.3972 54.3647 99.488 54.3828C99.5788 54.4009 99.4699 54.3828 99.4517 54.3828C99.3972 54.3828 99.3609 54.3647 99.3064 54.3647C99.2338 54.3466 99.143 54.3466 99.0704 54.3285C98.5256 54.2378 97.9627 54.111 97.4361 53.9479C97.3271 53.9117 97.2182 53.8754 97.1092 53.8392C97.0547 53.8211 97.0003 53.7848 96.9458 53.7848C96.9458 53.7848 97.1092 53.8573 97.0366 53.8211C97.0003 53.8029 96.9821 53.8029 96.9458 53.7848C96.7642 53.7123 96.6008 53.6217 96.4373 53.513C96.401 53.4949 96.2921 53.4043 96.4192 53.4949C96.5463 53.5855 96.4192 53.4949 96.401 53.4768C96.3466 53.4224 96.3102 53.368 96.2558 53.3137C96.2921 53.3318 96.3829 53.4949 96.3102 53.3861C96.2921 53.368 96.2739 53.3318 96.2558 53.2955C96.1831 53.1868 96.2921 53.4586 96.2921 53.3861C96.2921 53.368 96.2739 53.3137 96.2739 53.2955C96.2558 53.2774 96.2921 53.5311 96.2921 53.4043C96.2921 53.3861 96.2921 53.3499 96.2921 53.3318C96.3284 53.4405 96.2558 53.5674 96.2739 53.4405C96.2739 53.4043 96.3284 53.2774 96.2739 53.4224C96.2013 53.5855 96.3102 53.3861 96.3284 53.3499C96.3829 53.2593 96.2013 53.4949 96.2739 53.4224C96.3102 53.3861 96.3284 53.3499 96.3647 53.3318C96.3829 53.3137 96.4192 53.2774 96.4373 53.2593C96.4555 53.2412 96.5826 53.1324 96.4737 53.2231C96.3466 53.3137 96.4918 53.2231 96.51 53.2049C96.5463 53.1868 96.5826 53.1506 96.6189 53.1324C96.7824 53.0237 96.964 52.9331 97.1637 52.8425C97.1819 52.8244 97.3816 52.7519 97.2545 52.8063C97.1274 52.8606 97.309 52.7881 97.3453 52.77C97.4724 52.7157 97.5814 52.6794 97.7085 52.6432C97.9627 52.5526 98.2351 52.4801 98.4893 52.4076C99.1067 52.2445 99.7604 52.1177 100.396 52.027C100.45 52.027 100.614 51.9908 100.487 52.0089C100.578 51.9908 100.668 51.9908 100.759 51.9727C100.941 51.9546 101.122 51.9364 101.322 51.9183C101.703 51.8821 102.067 51.864 102.448 51.8277C103.229 51.7915 103.991 51.7733 104.772 51.8096C105.135 51.8277 105.48 51.8458 105.844 51.864C106.025 51.8821 106.189 51.9002 106.37 51.9183C106.443 51.9183 106.516 51.9364 106.588 51.9364C106.643 51.9364 106.897 51.9727 106.733 51.9546C107.314 52.0452 107.877 52.1358 108.44 52.2989C108.676 52.3714 108.912 52.4438 109.149 52.5344C109.185 52.5526 109.239 52.5707 109.294 52.5888C109.276 52.5888 109.112 52.4982 109.221 52.5707C109.239 52.5888 109.257 52.5888 109.276 52.6069C109.366 52.6432 109.457 52.6975 109.548 52.7519C109.621 52.7881 109.693 52.8425 109.766 52.8787C109.802 52.8969 109.929 53.0056 109.802 52.8969C109.675 52.8063 109.802 52.8969 109.82 52.915C109.875 52.9694 109.911 53.0056 109.966 53.06C110.002 53.0781 109.839 52.8606 109.911 53.0056C109.929 53.0418 109.948 53.0781 109.966 53.0962C110.02 53.1687 109.911 52.915 109.929 53.0056C109.929 53.0237 109.948 53.0781 109.948 53.0962C109.966 53.1324 109.911 52.8606 109.929 52.9694C109.929 53.0056 109.911 53.1506 109.948 52.9694C109.984 52.77 109.911 52.9875 109.911 53.0418C109.911 52.9875 110.02 52.8244 109.948 52.9512C109.929 52.9694 109.911 53.0056 109.893 53.0418C109.839 53.1506 110.038 52.8787 109.929 52.9875C109.911 53.0056 109.893 53.0418 109.857 53.06C109.82 53.0962 109.802 53.1143 109.766 53.1324C109.711 53.1868 109.584 53.2412 109.784 53.1143C109.621 53.2049 109.475 53.3318 109.312 53.4043C109.221 53.4586 109.13 53.4949 109.04 53.5311C109.003 53.5492 108.931 53.5674 108.894 53.5855C108.985 53.513 109.021 53.5311 108.949 53.5674C108.912 53.5855 108.876 53.5855 108.858 53.6036C108.604 53.6942 108.35 53.7848 108.095 53.8573C107.514 54.0385 106.915 54.1654 106.316 54.256C106.152 54.2922 105.989 54.3103 105.844 54.3285C105.807 54.3285 105.571 54.3647 105.717 54.3466C105.608 54.3647 105.517 54.3647 105.408 54.3828C105.045 54.4191 104.681 54.4553 104.318 54.4915C103.973 54.5459 103.592 54.564 103.211 54.564C102.775 54.5822 102.375 54.9265 102.393 55.3795C102.412 55.8144 102.757 56.2131 103.211 56.195C104.79 56.1406 106.388 55.9775 107.932 55.6151C108.985 55.3614 110.147 54.9989 110.964 54.2741C111.309 53.966 111.564 53.5311 111.582 53.06C111.6 52.6069 111.4 52.172 111.092 51.8458C110.783 51.5378 110.383 51.3022 109.984 51.1391C109.421 50.9035 108.858 50.7223 108.259 50.5955C106.77 50.2693 105.226 50.1605 103.719 50.1787C102.085 50.1787 100.45 50.3236 98.8525 50.6679C98.2532 50.7948 97.654 50.9579 97.0729 51.1572C96.5826 51.3384 96.0923 51.5378 95.6747 51.8458C95.2752 52.1358 94.9302 52.4801 94.7667 52.9512C94.6215 53.368 94.7123 53.8573 94.9483 54.2197C95.5112 55.0714 96.6371 55.4339 97.5814 55.6876C98.9977 56.05 100.487 56.1768 101.939 56.2131C102.357 56.2131 102.793 56.2131 103.211 56.2131C103.646 56.195 104.046 55.8507 104.028 55.3976C104.01 54.9627 103.665 54.564 103.211 54.564Z" fill="white"/>
    <path d="M103.383 60.8145C104.596 60.7789 105.479 57.3356 105.355 53.1239C105.23 48.9121 104.146 45.5267 102.933 45.5624C101.72 45.598 100.837 49.0413 100.962 53.253C101.086 57.4648 102.17 60.8502 103.383 60.8145Z" fill="white"/>
    <path d="M101.758 53.259C101.74 52.4979 101.74 51.7368 101.794 50.9757C101.812 50.6314 101.849 50.2871 101.885 49.9427C101.903 49.8521 101.903 49.7797 101.921 49.689C101.921 49.6528 101.921 49.6166 101.939 49.5803C101.939 49.5622 101.958 49.4535 101.939 49.5441C101.921 49.6347 101.939 49.526 101.939 49.5078C101.939 49.4535 101.958 49.4172 101.958 49.3629C101.976 49.2904 101.976 49.1998 101.994 49.1273C102.085 48.5836 102.212 48.0219 102.375 47.4964C102.412 47.3876 102.448 47.2789 102.484 47.1702C102.502 47.1158 102.539 47.0614 102.539 47.0071C102.539 47.0071 102.466 47.1702 102.502 47.0977C102.52 47.0614 102.52 47.0433 102.539 47.0071C102.611 46.8259 102.702 46.6628 102.811 46.4997C102.829 46.4634 102.92 46.3547 102.829 46.4816C102.738 46.6084 102.829 46.4816 102.847 46.4634C102.902 46.4091 102.956 46.3728 103.011 46.3185C102.993 46.3547 102.829 46.4453 102.938 46.3728C102.956 46.3547 102.993 46.3366 103.029 46.3185C103.138 46.246 102.865 46.3547 102.938 46.3547C102.956 46.3547 103.011 46.3366 103.029 46.3366C103.047 46.3185 102.793 46.3547 102.92 46.3547C102.938 46.3547 102.974 46.3547 102.993 46.3547C102.884 46.391 102.757 46.3185 102.884 46.3366C102.92 46.3366 103.047 46.391 102.902 46.3366C102.738 46.2641 102.938 46.3728 102.974 46.391C103.065 46.4453 102.829 46.2641 102.902 46.3366C102.938 46.3728 102.974 46.391 102.993 46.4272C103.011 46.4453 103.047 46.4816 103.065 46.4997C103.083 46.5178 103.192 46.6446 103.102 46.5359C103.011 46.4091 103.102 46.554 103.12 46.5722C103.138 46.6084 103.174 46.6447 103.192 46.6809C103.301 46.844 103.392 47.0252 103.483 47.2245C103.501 47.2427 103.574 47.442 103.519 47.3151C103.465 47.1883 103.537 47.3695 103.556 47.4058C103.61 47.5326 103.646 47.6413 103.683 47.7682C103.773 48.0219 103.846 48.2937 103.919 48.5474C104.082 49.1635 104.209 49.8159 104.3 50.4501C104.3 50.5045 104.336 50.6676 104.318 50.5407C104.336 50.6314 104.336 50.722 104.355 50.8126C104.373 50.9938 104.391 51.175 104.409 51.3743C104.445 51.7549 104.463 52.1173 104.5 52.4979C104.536 53.2771 104.554 54.0382 104.518 54.8174C104.5 55.1798 104.482 55.5241 104.463 55.8866C104.445 56.0678 104.427 56.2309 104.409 56.4121C104.409 56.4846 104.391 56.557 104.391 56.6295C104.391 56.6839 104.355 56.9376 104.373 56.7745C104.282 57.3544 104.191 57.9162 104.028 58.4779C103.955 58.7135 103.882 58.9491 103.792 59.1847C103.773 59.2209 103.755 59.2753 103.737 59.3296C103.737 59.3115 103.828 59.1484 103.755 59.2571C103.737 59.2753 103.737 59.2934 103.719 59.3115C103.683 59.4021 103.628 59.4927 103.592 59.5833C103.556 59.6558 103.501 59.7283 103.465 59.8008C103.447 59.837 103.338 59.9639 103.447 59.837C103.537 59.7102 103.447 59.837 103.428 59.8551C103.374 59.9095 103.338 59.9457 103.283 60.0001C103.265 60.0364 103.483 59.8733 103.338 59.9457C103.301 59.9639 103.265 59.982 103.247 60.0001C103.174 60.0545 103.428 59.9457 103.338 59.9639C103.319 59.9639 103.265 59.982 103.247 59.982C103.21 60.0001 103.483 59.9457 103.374 59.9639C103.338 59.9639 103.192 59.9457 103.374 59.982C103.574 60.0182 103.356 59.9457 103.301 59.9457C103.356 59.9457 103.519 60.0545 103.392 59.982C103.374 59.9639 103.338 59.9458 103.301 59.9276C103.192 59.8733 103.465 60.0726 103.356 59.9639C103.338 59.9457 103.301 59.9276 103.283 59.8914C103.247 59.8551 103.229 59.837 103.211 59.8008C103.156 59.7464 103.102 59.6196 103.229 59.8189C103.138 59.6558 103.011 59.5108 102.938 59.3477C102.884 59.2571 102.847 59.1665 102.811 59.0759C102.793 59.0397 102.775 58.9672 102.757 58.931C102.829 59.0216 102.811 59.0578 102.775 58.9853C102.757 58.9491 102.757 58.9128 102.738 58.8947C102.648 58.641 102.557 58.3873 102.484 58.1336C102.303 57.5537 102.175 56.9557 102.085 56.3577C102.048 56.1946 102.03 56.0315 102.012 55.8866C102.012 55.8503 101.976 55.6147 101.994 55.7597C101.976 55.651 101.976 55.5604 101.958 55.4516C101.921 55.0892 101.885 54.7268 101.849 54.3644C101.794 54.0201 101.776 53.6395 101.758 53.259C101.74 52.824 101.395 52.4254 100.941 52.4435C100.505 52.4616 100.105 52.8059 100.124 53.259C100.178 54.8355 100.341 56.4302 100.705 57.9705C100.959 59.0216 101.322 60.1813 102.048 60.9968C102.357 61.3411 102.793 61.5948 103.265 61.6129C103.719 61.631 104.155 61.4317 104.482 61.1236C104.79 60.8156 105.026 60.4169 105.19 60.0182C105.426 59.4565 105.607 58.8947 105.735 58.2967C106.061 56.8108 106.17 55.2704 106.152 53.7664C106.152 52.1354 106.007 50.5045 105.662 48.9098C105.535 48.3118 105.371 47.7138 105.172 47.1339C104.99 46.6447 104.79 46.1554 104.482 45.7386C104.191 45.3399 103.846 44.9956 103.374 44.8325C102.956 44.6875 102.466 44.7781 102.103 45.0137C101.249 45.5755 100.886 46.699 100.632 47.6413C100.269 49.0548 100.142 50.5407 100.105 51.9905C100.105 52.4072 100.105 52.8422 100.105 53.259C100.124 53.6939 100.469 54.0925 100.922 54.0744C101.376 54.0563 101.776 53.712 101.758 53.259Z" fill="white"/>
    <path d="M186.393 227.902C190.613 227.778 194.006 226.696 193.97 225.486C193.934 224.275 190.484 223.394 186.264 223.519C182.043 223.643 178.651 224.724 178.686 225.935C178.722 227.145 182.172 228.026 186.393 227.902Z" fill="white"/>
    <path d="M186.378 227.08C185.615 227.098 184.853 227.098 184.09 227.043C183.745 227.025 183.4 226.989 183.055 226.953C182.964 226.935 182.891 226.935 182.801 226.917C182.764 226.917 182.728 226.917 182.692 226.898C182.673 226.898 182.564 226.88 182.655 226.898C182.746 226.917 182.637 226.898 182.619 226.898C182.564 226.898 182.528 226.88 182.474 226.88C182.401 226.862 182.31 226.862 182.238 226.844C181.693 226.754 181.13 226.627 180.603 226.464C180.494 226.427 180.385 226.391 180.276 226.355C180.222 226.337 180.168 226.3 180.113 226.3C180.113 226.3 180.276 226.373 180.204 226.337C180.168 226.319 180.149 226.319 180.113 226.3C179.931 226.228 179.768 226.137 179.605 226.029C179.568 226.011 179.459 225.92 179.586 226.011C179.714 226.101 179.586 226.011 179.568 225.992C179.514 225.938 179.477 225.884 179.423 225.829C179.459 225.847 179.55 226.011 179.477 225.902C179.459 225.884 179.441 225.847 179.423 225.811C179.35 225.702 179.459 225.974 179.459 225.902C179.459 225.884 179.441 225.829 179.441 225.811C179.423 225.793 179.459 226.047 179.459 225.92C179.459 225.902 179.459 225.866 179.459 225.847C179.496 225.956 179.423 226.083 179.441 225.956C179.441 225.92 179.496 225.793 179.441 225.938C179.369 226.101 179.477 225.902 179.496 225.866C179.55 225.775 179.369 226.011 179.441 225.938C179.477 225.902 179.496 225.866 179.532 225.847C179.55 225.829 179.586 225.793 179.605 225.775C179.623 225.757 179.75 225.648 179.641 225.739C179.514 225.829 179.659 225.739 179.677 225.721C179.714 225.702 179.75 225.666 179.786 225.648C179.95 225.539 180.131 225.449 180.331 225.358C180.349 225.34 180.549 225.268 180.422 225.322C180.295 225.376 180.476 225.304 180.513 225.286C180.64 225.231 180.749 225.195 180.876 225.159C181.13 225.068 181.402 224.996 181.657 224.923C182.274 224.76 182.928 224.633 183.563 224.543C183.618 224.543 183.781 224.506 183.654 224.525C183.745 224.506 183.836 224.506 183.926 224.488C184.108 224.47 184.29 224.452 184.489 224.434C184.871 224.398 185.234 224.38 185.615 224.343C186.396 224.307 187.159 224.289 187.94 224.325C188.303 224.343 188.648 224.361 189.011 224.38C189.192 224.398 189.356 224.416 189.537 224.434C189.61 224.434 189.683 224.452 189.755 224.452C189.81 224.452 190.064 224.488 189.901 224.47C190.482 224.561 191.045 224.651 191.608 224.815C191.844 224.887 192.08 224.959 192.316 225.05C192.352 225.068 192.407 225.086 192.461 225.104C192.443 225.104 192.279 225.014 192.388 225.086C192.407 225.104 192.425 225.104 192.443 225.123C192.534 225.159 192.624 225.213 192.715 225.268C192.788 225.304 192.861 225.358 192.933 225.394C192.97 225.413 193.097 225.521 192.97 225.413C192.842 225.322 192.97 225.413 192.988 225.431C193.042 225.485 193.078 225.521 193.133 225.576C193.169 225.594 193.006 225.376 193.078 225.521C193.097 225.557 193.115 225.594 193.133 225.612C193.187 225.684 193.078 225.431 193.097 225.521C193.097 225.539 193.115 225.594 193.115 225.612C193.133 225.648 193.078 225.376 193.097 225.485C193.097 225.521 193.078 225.666 193.115 225.485C193.151 225.286 193.078 225.503 193.078 225.557C193.078 225.503 193.187 225.34 193.115 225.467C193.097 225.485 193.078 225.521 193.06 225.557C193.006 225.666 193.206 225.394 193.097 225.503C193.078 225.521 193.06 225.557 193.024 225.576C192.988 225.612 192.97 225.63 192.933 225.648C192.879 225.702 192.752 225.757 192.951 225.63C192.788 225.721 192.643 225.847 192.479 225.92C192.388 225.974 192.298 226.011 192.207 226.047C192.171 226.065 192.098 226.083 192.062 226.101C192.152 226.029 192.189 226.047 192.116 226.083C192.08 226.101 192.043 226.101 192.025 226.119C191.771 226.21 191.517 226.3 191.263 226.373C190.681 226.554 190.082 226.681 189.483 226.772C189.32 226.808 189.156 226.826 189.011 226.844C188.975 226.844 188.739 226.88 188.884 226.862C188.775 226.88 188.684 226.88 188.575 226.898C188.212 226.935 187.849 226.971 187.486 227.007C187.141 227.062 186.759 227.08 186.378 227.08C185.942 227.098 185.543 227.442 185.561 227.895C185.579 228.33 185.924 228.729 186.378 228.711C187.958 228.656 189.556 228.493 191.099 228.131C192.152 227.877 193.315 227.515 194.132 226.79C194.477 226.482 194.731 226.047 194.749 225.576C194.767 225.123 194.567 224.688 194.259 224.361C193.95 224.053 193.551 223.818 193.151 223.655C192.588 223.419 192.025 223.238 191.426 223.111C189.937 222.785 188.393 222.676 186.886 222.694C185.252 222.694 183.618 222.839 182.02 223.184C181.42 223.31 180.821 223.474 180.24 223.673C179.75 223.854 179.26 224.053 178.842 224.361C178.442 224.651 178.097 224.996 177.934 225.467C177.789 225.884 177.879 226.373 178.116 226.735C178.678 227.587 179.804 227.95 180.749 228.203C182.165 228.566 183.654 228.693 185.107 228.729C185.524 228.729 185.96 228.729 186.378 228.729C186.814 228.711 187.213 228.366 187.195 227.913C187.177 227.478 186.832 227.08 186.378 227.08Z" fill="white"/>
    <path d="M186.554 233.335C187.767 233.299 188.649 229.856 188.525 225.644C188.4 221.433 187.316 218.047 186.103 218.083C184.89 218.119 184.008 221.562 184.132 225.774C184.256 229.985 185.341 233.371 186.554 233.335Z" fill="white"/>
    <path d="M184.925 225.775C184.907 225.013 184.907 224.252 184.962 223.491C184.98 223.147 185.016 222.803 185.052 222.458C185.071 222.368 185.071 222.295 185.089 222.205C185.089 222.168 185.089 222.132 185.107 222.096C185.107 222.078 185.125 221.969 185.107 222.06C185.089 222.15 185.107 222.042 185.107 222.023C185.107 221.969 185.125 221.933 185.125 221.878C185.143 221.806 185.143 221.715 185.161 221.643C185.252 221.099 185.379 220.537 185.543 220.012C185.579 219.903 185.615 219.795 185.652 219.686C185.67 219.631 185.706 219.577 185.706 219.523C185.706 219.523 185.633 219.686 185.67 219.613C185.688 219.577 185.688 219.559 185.706 219.523C185.779 219.341 185.87 219.178 185.978 219.015C185.997 218.979 186.087 218.87 185.997 218.997C185.906 219.124 185.997 218.997 186.015 218.979C186.069 218.925 186.124 218.888 186.178 218.834C186.16 218.87 185.997 218.961 186.106 218.888C186.124 218.87 186.16 218.852 186.196 218.834C186.305 218.762 186.033 218.87 186.106 218.87C186.124 218.87 186.178 218.852 186.196 218.852C186.215 218.834 185.96 218.87 186.087 218.87C186.106 218.87 186.142 218.87 186.16 218.87C186.051 218.907 185.924 218.834 186.051 218.852C186.087 218.852 186.215 218.907 186.069 218.852C185.906 218.78 186.106 218.888 186.142 218.907C186.233 218.961 185.997 218.78 186.069 218.852C186.106 218.888 186.142 218.907 186.16 218.943C186.178 218.961 186.215 218.997 186.233 219.015C186.251 219.033 186.36 219.16 186.269 219.052C186.178 218.925 186.269 219.07 186.287 219.088C186.305 219.124 186.342 219.16 186.36 219.197C186.469 219.36 186.56 219.541 186.65 219.74C186.669 219.758 186.741 219.958 186.687 219.831C186.632 219.704 186.705 219.885 186.723 219.921C186.777 220.048 186.814 220.157 186.85 220.284C186.941 220.537 187.014 220.809 187.086 221.063C187.25 221.679 187.377 222.332 187.467 222.966C187.467 223.02 187.504 223.183 187.486 223.056C187.504 223.147 187.504 223.238 187.522 223.328C187.54 223.509 187.558 223.691 187.576 223.89C187.613 224.27 187.631 224.633 187.667 225.013C187.704 225.793 187.722 226.554 187.685 227.333C187.667 227.695 187.649 228.04 187.631 228.402C187.613 228.583 187.595 228.746 187.576 228.928C187.576 229 187.558 229.073 187.558 229.145C187.558 229.199 187.522 229.453 187.54 229.29C187.449 229.87 187.359 230.432 187.195 230.993C187.122 231.229 187.05 231.465 186.959 231.7C186.941 231.736 186.923 231.791 186.905 231.845C186.905 231.827 186.995 231.664 186.923 231.773C186.905 231.791 186.905 231.809 186.886 231.827C186.85 231.918 186.796 232.008 186.759 232.099C186.723 232.171 186.669 232.244 186.632 232.316C186.614 232.353 186.505 232.479 186.614 232.353C186.705 232.226 186.614 232.353 186.596 232.371C186.541 232.425 186.505 232.461 186.451 232.516C186.432 232.552 186.65 232.389 186.505 232.461C186.469 232.479 186.432 232.498 186.414 232.516C186.342 232.57 186.596 232.461 186.505 232.479C186.487 232.479 186.432 232.498 186.414 232.498C186.378 232.516 186.65 232.461 186.541 232.479C186.505 232.479 186.36 232.461 186.541 232.498C186.741 232.534 186.523 232.461 186.469 232.461C186.523 232.461 186.687 232.57 186.56 232.498C186.541 232.479 186.505 232.461 186.469 232.443C186.36 232.389 186.632 232.588 186.523 232.479C186.505 232.461 186.469 232.443 186.451 232.407C186.414 232.371 186.396 232.353 186.378 232.316C186.323 232.262 186.269 232.135 186.396 232.334C186.305 232.171 186.178 232.026 186.106 231.863C186.051 231.773 186.015 231.682 185.978 231.591C185.96 231.555 185.942 231.483 185.924 231.447C185.997 231.537 185.978 231.573 185.942 231.501C185.924 231.465 185.924 231.428 185.906 231.41C185.815 231.157 185.724 230.903 185.652 230.649C185.47 230.069 185.343 229.471 185.252 228.873C185.216 228.71 185.198 228.547 185.179 228.402C185.179 228.366 185.143 228.13 185.161 228.275C185.143 228.167 185.143 228.076 185.125 227.967C185.089 227.605 185.052 227.242 185.016 226.88C184.962 226.536 184.943 226.155 184.925 225.775C184.907 225.34 184.562 224.941 184.108 224.959C183.672 224.977 183.273 225.322 183.291 225.775C183.345 227.351 183.509 228.946 183.872 230.486C184.126 231.537 184.489 232.697 185.216 233.512C185.525 233.857 185.96 234.11 186.432 234.128C186.886 234.147 187.322 233.947 187.649 233.639C187.958 233.331 188.194 232.932 188.357 232.534C188.593 231.972 188.775 231.41 188.902 230.812C189.229 229.326 189.338 227.786 189.32 226.282C189.32 224.651 189.174 223.02 188.829 221.425C188.702 220.827 188.539 220.229 188.339 219.65C188.158 219.16 187.958 218.671 187.649 218.254C187.359 217.856 187.014 217.511 186.541 217.348C186.124 217.203 185.633 217.294 185.27 217.529C184.417 218.091 184.054 219.215 183.799 220.157C183.436 221.57 183.309 223.056 183.273 224.506C183.273 224.923 183.273 225.358 183.273 225.775C183.291 226.209 183.636 226.608 184.09 226.59C184.544 226.572 184.943 226.228 184.925 225.775Z" fill="white"/>
    </g>
    <g clip-path="url(#coin2_clip1)">
    <path d="M129.691 147.473C128.852 177.521 152.517 202.566 182.569 203.405C190.847 203.635 198.747 202.006 205.873 198.896L129.921 143.886C129.806 145.071 129.74 146.272 129.691 147.473Z" fill="#F9B74B"/>
    <path d="M160.417 99.999C153.785 103.208 147.893 107.733 143.104 113.229L230.773 177.076C234.789 170.428 237.422 162.842 238.261 154.697L160.417 99.999Z" fill="#F9B74B"/>
    <path d="M238.525 150.534C239.364 120.486 215.698 95.4575 185.647 94.6019C176.611 94.355 168.021 96.3132 160.417 99.9992L238.245 154.697C238.393 153.331 238.475 151.933 238.525 150.534Z" fill="#F9B74B"/>
    <path d="M132.768 130.903L218.858 190.899C223.548 186.999 227.58 182.326 230.757 177.076L143.087 113.229C138.611 118.364 135.072 124.337 132.768 130.903Z" fill="#F9B74B"/>
    <path d="M129.921 143.886L205.89 198.913C210.596 196.856 214.958 194.157 218.858 190.915L132.769 130.902C131.304 135.016 130.333 139.36 129.921 143.886Z" fill="#F9B74B"/>
    <path d="M177.237 111.83C169.189 113.311 162.014 117.343 156.599 123.069L217.229 167.219C220.043 162.118 221.722 156.293 221.886 150.056C221.952 147.604 221.787 145.185 221.409 142.849L177.237 111.83Z" fill="#FFEBC2"/>
    <path d="M184.116 186.801C204.994 186.801 221.919 169.878 221.919 149.003C221.919 128.128 204.994 111.205 184.116 111.205C163.238 111.205 146.313 128.128 146.313 149.003C146.313 169.878 163.238 186.801 184.116 186.801Z" fill="#ED9B24"/>
    <path d="M150.543 148.395C150.625 145.679 150.987 142.964 151.645 140.331C151.546 140.693 151.464 141.072 151.365 141.434C152.172 138.225 153.39 135.132 154.986 132.235C154.805 132.564 154.624 132.877 154.443 133.206C156.039 130.343 157.998 127.677 160.285 125.324C160.039 125.587 159.775 125.851 159.528 126.114C161.783 123.777 164.318 121.737 167.082 120.042C166.77 120.223 166.457 120.42 166.161 120.601C168.926 118.906 171.905 117.59 175.015 116.652C174.669 116.751 174.307 116.866 173.962 116.965C177.171 116.01 180.479 115.484 183.82 115.401C183.441 115.418 183.063 115.418 182.684 115.434C186.074 115.352 189.481 115.714 192.773 116.537C192.411 116.438 192.032 116.356 191.67 116.257C194.879 117.063 197.973 118.281 200.87 119.877C200.541 119.696 200.228 119.515 199.899 119.334C202.762 120.931 205.429 122.889 207.782 125.176C207.519 124.929 207.255 124.666 206.992 124.419C209.329 126.673 211.37 129.208 213.065 131.972C212.884 131.659 212.686 131.347 212.505 131.051C214.2 133.815 215.517 136.794 216.455 139.904C216.356 139.558 216.241 139.196 216.142 138.85C217.097 142.059 217.624 145.367 217.706 148.707C217.689 148.329 217.689 147.95 217.673 147.572C217.755 150.962 217.393 154.368 216.57 157.659C216.669 157.297 216.751 156.919 216.85 156.556C216.044 159.765 214.826 162.859 213.229 165.755C213.41 165.426 213.592 165.113 213.773 164.784C212.176 167.647 210.218 170.313 207.93 172.666C208.177 172.403 208.44 172.14 208.687 171.876C206.432 174.213 203.898 176.254 201.133 177.949C201.446 177.768 201.759 177.57 202.055 177.389C199.29 179.084 196.311 180.4 193.201 181.338C193.546 181.24 193.908 181.124 194.254 181.026C191.045 181.98 187.737 182.507 184.396 182.589C184.774 182.572 185.153 182.572 185.531 182.556C182.141 182.638 178.734 182.276 175.443 181.454C175.805 181.552 176.183 181.635 176.546 181.733C173.336 180.927 170.242 179.709 167.346 178.113C167.675 178.294 167.988 178.475 168.317 178.656C165.453 177.06 162.787 175.102 160.434 172.814C160.697 173.061 160.96 173.325 161.224 173.571C158.887 171.317 156.846 168.783 155.151 166.018C155.332 166.331 155.529 166.644 155.71 166.94C154.015 164.175 152.699 161.197 151.76 158.087C151.859 158.432 151.974 158.794 152.073 159.14C151.119 155.931 150.592 152.624 150.51 149.283C150.526 149.662 150.526 150.04 150.543 150.419C150.526 149.744 150.526 149.069 150.543 148.395C150.576 147.243 150.362 146.19 149.637 145.268C148.979 144.462 147.844 143.771 146.79 143.705C145.688 143.639 144.519 143.869 143.663 144.61C142.857 145.317 142.133 146.338 142.1 147.457C141.985 151.801 142.413 156.145 143.647 160.325C144.289 162.513 145.029 164.669 146 166.742C146.955 168.766 148.09 170.708 149.325 172.568C151.629 176.023 154.525 179.1 157.751 181.733C159.232 182.935 160.796 184.037 162.441 184.991C164.4 186.143 166.424 187.196 168.531 188.052C170.67 188.908 172.876 189.533 175.13 190.043C177.089 190.504 179.096 190.784 181.104 190.932C185.449 191.228 189.876 190.899 194.089 189.846C196.295 189.286 198.5 188.595 200.59 187.69C202.664 186.818 204.606 185.715 206.531 184.547C210.086 182.359 213.213 179.578 215.961 176.435C218.71 173.308 220.932 169.688 222.627 165.887C224.355 161.987 225.474 157.725 225.918 153.479C226.165 151.093 226.182 148.707 226.05 146.305C225.951 144.314 225.688 142.339 225.276 140.397C224.404 136.283 222.956 132.268 220.882 128.599C219.78 126.641 218.545 124.748 217.163 122.971C215.764 121.194 214.217 119.598 212.571 118.051C209.527 115.188 206.021 112.884 202.269 111.041C198.434 109.165 194.254 107.947 190.041 107.338C188.016 107.042 185.976 106.911 183.919 106.943C181.565 106.976 179.245 107.124 176.924 107.519C172.777 108.243 168.679 109.576 164.943 111.518C161.256 113.443 157.784 115.862 154.822 118.791C153.242 120.355 151.728 122.017 150.394 123.794C149.028 125.604 147.876 127.546 146.807 129.537C144.782 133.289 143.466 137.386 142.692 141.566C142.33 143.491 142.133 145.449 142.067 147.424C142.034 148.576 142.248 149.629 142.972 150.55C143.63 151.357 144.766 152.048 145.819 152.114C146.922 152.179 148.09 151.949 148.946 151.208C149.786 150.55 150.51 149.514 150.543 148.395Z" fill="#ED9B24"/>
    <path d="M129.806 147.818C129.937 143.606 130.497 139.409 131.501 135.329C131.402 135.691 131.32 136.069 131.221 136.431C132.455 131.462 134.348 126.673 136.833 122.197C136.652 122.526 136.471 122.839 136.29 123.168C138.759 118.725 141.803 114.611 145.325 110.958C145.078 111.221 144.815 111.485 144.568 111.748C148.057 108.128 151.991 104.968 156.27 102.352C155.957 102.533 155.644 102.73 155.348 102.911C159.643 100.295 164.252 98.238 169.074 96.79C168.728 96.8887 168.366 97.0039 168.02 97.1026C172.99 95.6216 178.125 94.8153 183.293 94.6837C182.914 94.7001 182.536 94.7001 182.157 94.7166C187.407 94.6014 192.674 95.1609 197.776 96.4279C197.414 96.3292 197.035 96.2469 196.673 96.1482C201.643 97.3824 206.432 99.2747 210.909 101.759C210.58 101.578 210.267 101.397 209.938 101.216C214.381 103.685 218.496 106.729 222.149 110.25C221.886 110.004 221.623 109.74 221.359 109.494C224.98 112.982 228.14 116.915 230.757 121.193C230.576 120.881 230.378 120.568 230.197 120.272C232.814 124.567 234.871 129.174 236.319 133.996C236.22 133.65 236.105 133.288 236.006 132.942C237.488 137.912 238.294 143.046 238.426 148.213C238.409 147.835 238.409 147.456 238.393 147.078C238.508 152.327 237.948 157.593 236.681 162.694C236.78 162.332 236.862 161.953 236.961 161.591C235.727 166.561 233.834 171.349 231.349 175.825C231.53 175.496 231.711 175.184 231.892 174.854C229.423 179.297 226.379 183.411 222.857 187.064C223.104 186.801 223.367 186.538 223.614 186.274C220.125 189.895 216.192 193.054 211.913 195.671C212.225 195.49 212.538 195.292 212.834 195.111C208.555 197.744 203.947 199.801 199.125 201.232C199.471 201.134 199.833 201.019 200.178 200.92C195.208 202.401 190.073 203.207 184.906 203.339C185.284 203.322 185.663 203.322 186.041 203.306C180.791 203.421 175.525 202.862 170.423 201.594C170.785 201.693 171.164 201.775 171.526 201.874C166.556 200.64 161.766 198.748 157.29 196.263C157.619 196.444 157.932 196.625 158.261 196.806C153.817 194.338 149.703 191.293 146.049 187.772C146.313 188.019 146.576 188.282 146.839 188.529C143.219 185.04 140.059 181.107 137.442 176.829C137.623 177.142 137.821 177.454 138.002 177.751C135.385 173.456 133.328 168.848 131.879 164.027C131.978 164.372 132.093 164.734 132.192 165.08C130.711 160.11 129.905 154.976 129.773 149.809C129.789 150.188 129.789 150.566 129.806 150.945C129.773 149.908 129.773 148.855 129.806 147.818C129.839 146.666 129.625 145.613 128.901 144.692C128.242 143.885 127.107 143.194 126.054 143.128C124.951 143.063 123.782 143.293 122.927 144.033C122.12 144.741 121.396 145.761 121.363 146.88C121.182 153.397 121.89 159.929 123.733 166.199C124.671 169.408 125.774 172.534 127.189 175.562C128.572 178.524 130.217 181.371 132.028 184.086C135.484 189.286 139.796 193.926 144.634 197.859C149.489 201.808 155.002 205.034 160.812 207.354C166.802 209.74 173.237 211.221 179.689 211.649C186.206 212.093 192.838 211.566 199.191 209.97C202.433 209.147 205.626 208.111 208.687 206.811C211.715 205.527 214.579 203.964 217.377 202.236C222.709 198.945 227.449 194.815 231.579 190.109C235.694 185.402 239.068 180.021 241.602 174.311C244.202 168.437 245.881 162.085 246.556 155.7C247.247 149.184 246.934 142.487 245.568 136.085C244.252 129.915 242.046 123.892 238.919 118.396C237.29 115.533 235.496 112.785 233.472 110.201C231.448 107.618 229.177 105.248 226.79 102.994C222.232 98.6988 216.998 95.1938 211.37 92.4457C205.626 89.6319 199.372 87.7724 193.036 86.8509C186.535 85.9129 179.82 86.0117 173.353 87.1306C167.115 88.2167 160.993 90.2407 155.381 93.1533C149.835 96.033 144.667 99.7026 140.223 104.096C137.903 106.383 135.731 108.802 133.772 111.419C131.797 114.068 130.069 116.882 128.506 119.795C125.51 125.439 123.47 131.56 122.318 137.83C121.758 140.825 121.445 143.852 121.363 146.897C121.33 148.049 121.544 149.102 122.268 150.023C122.927 150.83 124.062 151.521 125.115 151.586C126.218 151.652 127.387 151.422 128.242 150.681C129.049 149.957 129.773 148.937 129.806 147.818Z" fill="black"/>
    <path d="M184.116 186.801C204.994 186.801 221.919 169.878 221.919 149.003C221.919 128.128 204.994 111.205 184.116 111.205C163.238 111.205 146.313 128.128 146.313 149.003C146.313 169.878 163.238 186.801 184.116 186.801Z" fill="#E2860C"/>
    <g clip-path="url(#coin2_clip2)">
    <path d="M197.044 129.499C195.675 128.708 194.227 128.119 192.708 127.703C191.321 127.324 189.924 127.142 188.511 127.239C187.668 127.3 186.839 127.456 186.07 127.798C184.586 128.462 183.133 129.179 181.908 130.272C181.162 130.941 180.531 131.688 180.136 132.618C179.876 133.225 179.66 133.853 179.385 134.452C179.006 135.273 178.405 135.85 177.49 136.053C177.181 136.122 176.884 136.218 176.579 136.283C175.494 136.516 174.547 137.006 173.758 137.764C173.217 138.29 172.715 138.862 172.243 139.449C171.908 139.87 171.573 140.305 171.426 140.855C171.259 141.494 171.076 142.134 170.878 142.765C170.67 143.423 170.288 143.952 169.67 144.276C168.825 144.719 167.963 145.123 167.117 145.566C166.069 146.111 165.127 146.806 164.467 147.783C164.442 147.824 164.412 147.861 164.391 147.898C163.787 148.687 163.303 149.551 162.868 150.442C162.807 150.558 162.745 150.674 162.687 150.787C162.018 152.051 161.762 153.439 161.802 154.901C161.808 155.011 161.81 155.117 161.816 155.227C161.817 155.272 161.818 155.317 161.827 155.363L161.827 155.371C161.873 156.231 162.02 157.075 162.236 157.912C162.298 158.152 162.364 158.388 162.437 158.625C162.723 159.562 163.068 160.471 163.504 161.351C163.687 161.726 163.88 162.09 164.089 162.454C164.951 163.946 165.978 165.328 167.249 166.51C168.196 167.391 169.26 168.1 170.474 168.543C172.55 169.293 174.696 168.084 175.496 166.44C175.601 166.227 175.683 166.013 175.758 165.798C175.762 165.802 175.766 165.806 175.77 165.81C175.823 165.633 175.869 165.509 175.897 165.381C176.139 164.38 176.151 163.362 175.98 162.332C175.933 162.055 175.888 161.751 175.746 161.513C174.937 160.185 174.345 158.772 173.93 157.29C173.889 157.145 173.825 157 173.739 156.877C173.704 156.819 173.665 156.765 173.622 156.708C173.594 156.635 173.551 156.562 173.5 156.497C173.402 156.362 173.305 156.227 173.203 156.089C172.718 155.374 172.229 154.655 171.755 153.937C170.948 152.715 170.306 151.429 170.119 149.975C170.1 149.831 170.199 149.678 170.245 149.531C170.36 149.602 170.516 149.639 170.583 149.743C170.939 150.277 171.295 150.804 171.611 151.363C172.308 152.609 173.129 153.771 174.021 154.892C174.469 155.458 174.928 156.021 175.342 156.613C176.206 157.84 176.74 159.203 177.116 160.631C177.195 160.932 177.24 161.266 177.408 161.516C177.984 162.365 178.726 163.048 179.63 163.553C181.133 164.389 182.681 164.419 184.251 164.011C185.625 163.652 186.859 163.005 188.031 162.244C188.516 161.929 188.978 161.576 189.496 161.213C189.221 161.108 189 161.035 188.786 160.947C187.724 160.522 186.772 159.918 185.893 159.179C185.788 159.09 185.598 159.033 185.466 159.056C184.398 159.218 183.328 159.289 182.248 159.068C181.058 158.826 179.992 158.352 179.178 157.361C178.357 156.362 178.135 155.229 178.23 154.02C178.303 153.072 178.567 152.18 178.942 151.326C178.996 151.194 178.994 151.096 178.889 150.968C178.578 150.598 178.473 150.153 178.501 149.692C178.54 149.072 178.778 148.524 179.073 147.997C179.607 147.021 180.381 146.247 181.182 145.493C181.805 144.908 182.498 144.417 183.298 144.09C183.98 143.81 184.7 143.64 185.417 144.054C185.708 144.219 185.919 144.186 186.193 144.067C187.445 143.535 188.747 143.185 190.16 143.375C190.957 143.484 191.672 143.799 192.29 144.335C193.475 145.364 193.951 146.707 194.06 148.194C194.124 149.058 194.068 149.913 193.901 150.753C193.884 150.832 193.901 150.946 193.948 151.015C194.035 151.153 194.166 151.262 194.248 151.397C194.68 152.072 195.122 152.737 195.52 153.431C195.733 153.799 195.852 154.215 196.027 154.635C196.233 154.352 196.428 154.087 196.611 153.819C197.613 152.391 198.435 150.88 198.843 149.148C199.103 148.045 199.078 146.939 198.694 145.829C198.318 144.756 197.651 143.875 196.813 143.118C196.643 142.963 196.409 142.84 196.188 142.79C194.849 142.488 193.567 142.035 192.342 141.395C191.288 140.845 190.345 140.139 189.384 139.452C188.157 138.573 186.915 137.724 185.688 136.852C185.3 136.575 184.929 136.264 184.563 135.956C184.501 135.902 184.437 135.742 184.467 135.712C184.533 135.638 184.645 135.58 184.751 135.567C184.857 135.554 184.982 135.583 185.089 135.631C185.991 136 186.903 136.334 187.779 136.751C188.965 137.322 190.006 138.156 191.075 138.921C191.16 138.984 191.256 139.043 191.359 139.064C191.583 139.11 191.818 139.116 192.046 139.174C193.691 139.596 195.225 140.3 196.654 141.248C196.734 141.299 196.827 141.362 196.918 141.379C198.342 141.589 199.734 141.544 201.03 140.914C202.678 140.11 203.887 137.964 203.137 135.888C202.697 134.671 201.988 133.614 201.104 132.663C199.917 131.388 198.536 130.361 197.044 129.499ZM177.899 147.986C175.7 148.35 174.429 149.59 174.053 151.762C173.519 151.368 173.336 150.838 173.368 150.233C173.438 148.747 174.909 147.322 176.396 147.298C176.979 147.288 177.483 147.481 177.899 147.986ZM176.411 143.35C176.871 143.951 176.983 144.604 176.776 145.3C176.723 145.469 176.609 145.622 176.525 145.783C176.106 146.164 175.537 146.105 175.128 145.593C174.645 144.992 174.498 144.318 174.72 143.6C174.833 143.232 175.058 142.938 175.469 142.875C175.873 142.82 176.177 143.042 176.411 143.35ZM179.278 141.381C178.968 141.257 178.646 141.038 178.432 140.779C178.047 140.32 178.161 139.827 178.649 139.508C179.385 139.029 180.67 139.315 181.195 140.076C181.449 140.449 181.423 140.831 181.042 141.22C180.578 141.614 179.935 141.638 179.278 141.381ZM186.25 139.643C183.828 140.206 182.943 141.076 182.427 143.412C182.043 143.161 181.849 142.805 181.772 142.394C181.636 141.717 181.804 141.1 182.167 140.552C182.807 139.578 183.664 138.931 184.913 138.951C185.44 138.959 185.891 139.173 186.25 139.643Z" fill="white"/>
    <path d="M179.853 151.749C180.936 152.291 182.052 152.608 183.235 152.679C184.418 152.751 185.476 152.513 186.328 151.684C187.166 150.87 187.446 149.839 187.393 148.668C187.34 147.452 187.041 146.294 186.476 145.195C186.456 145.153 186.443 145.111 186.416 145.047C187.638 144.529 188.882 144.128 190.255 144.428C191.644 144.727 192.418 145.679 192.792 146.994C193.165 148.293 193.084 149.582 192.806 150.859C192.431 152.565 191.762 154.125 190.575 155.405C189.606 156.451 188.371 157.097 187.023 157.556C185.576 158.05 184.079 158.285 182.517 158.035C181.742 157.912 181.013 157.649 180.396 157.136C179.525 156.405 179.212 155.44 179.233 154.366C179.255 153.454 179.501 152.604 179.853 151.749ZM180.861 155.03C180.962 154.805 181.071 154.634 181.113 154.445C181.174 154.144 180.945 153.9 180.638 153.882C180.199 153.857 179.686 154.308 179.658 154.746C179.639 155.06 179.852 155.311 180.162 155.272C180.403 155.24 180.628 155.116 180.861 155.03ZM183.076 157.476C183.167 157.315 183.252 157.199 183.302 157.072C183.463 156.64 183.167 156.278 182.711 156.362C182.308 156.433 182.029 156.68 181.901 157.063C181.763 157.488 182.081 157.836 182.514 157.736C182.725 157.687 182.912 157.555 183.076 157.476ZM192.276 148.3C192.366 148.093 192.494 147.903 192.535 147.685C192.616 147.27 192.276 146.967 191.882 147.106C191.679 147.177 191.486 147.332 191.349 147.499C191.073 147.83 191.082 148.224 191.321 148.434C191.556 148.632 191.941 148.565 192.276 148.3ZM189.818 146.057C189.905 145.855 190.033 145.657 190.07 145.442C190.14 145.038 189.804 144.747 189.421 144.882C189.226 144.954 189.036 145.09 188.896 145.245C188.611 145.561 188.609 145.996 188.845 146.202C189.084 146.412 189.461 146.344 189.818 146.057ZM181.66 156.415C181.766 156.254 181.847 156.158 181.894 156.049C181.995 155.839 182.021 155.62 181.842 155.427C181.679 155.242 181.459 155.221 181.249 155.293C180.895 155.406 180.639 155.631 180.522 155.988C180.395 156.394 180.667 156.726 181.09 156.652C181.304 156.607 181.502 156.479 181.66 156.415ZM190.297 145.973C190.219 146.183 190.095 146.4 190.066 146.638C190.024 146.966 190.302 147.2 190.626 147.161C191.049 147.11 191.463 146.635 191.457 146.207C191.453 145.855 191.19 145.622 190.852 145.705C190.675 145.758 190.515 145.872 190.297 145.973Z" fill="white"/>
    <path d="M194.467 159.201C193.814 159.792 193.339 160.206 192.738 160.435C191.747 160.814 190.829 160.525 190.13 159.597C189.733 159.073 189.477 158.492 189.357 157.854C189.323 157.686 189.344 157.588 189.504 157.49C190.738 156.775 191.708 155.79 192.434 154.561C192.474 154.497 192.582 154.428 192.647 154.44C193.631 154.602 194.492 155.019 195.108 155.843C195.623 156.528 195.632 157.262 195.273 157.962C195.012 158.479 194.647 158.929 194.467 159.201Z" fill="white"/>
    </g>
    <path d="M150.543 148.395C150.625 145.679 150.987 142.964 151.645 140.331C151.546 140.693 151.464 141.072 151.365 141.434C152.172 138.225 153.39 135.132 154.986 132.235C154.805 132.564 154.624 132.877 154.443 133.206C156.039 130.343 157.998 127.677 160.285 125.324C160.039 125.587 159.775 125.851 159.528 126.114C161.783 123.777 164.318 121.737 167.082 120.042C166.77 120.223 166.457 120.42 166.161 120.601C168.926 118.906 171.905 117.59 175.015 116.652C174.669 116.751 174.307 116.866 173.962 116.965C177.171 116.01 180.479 115.484 183.82 115.401C183.441 115.418 183.063 115.418 182.684 115.434C186.074 115.352 189.481 115.714 192.773 116.537C192.411 116.438 192.032 116.356 191.67 116.257C194.879 117.063 197.973 118.281 200.87 119.877C200.541 119.696 200.228 119.515 199.899 119.334C202.762 120.931 205.429 122.889 207.782 125.176C207.519 124.929 207.255 124.666 206.992 124.419C209.329 126.673 211.37 129.208 213.065 131.972C212.884 131.659 212.686 131.347 212.505 131.051C214.2 133.815 215.517 136.794 216.455 139.904C216.356 139.558 216.241 139.196 216.142 138.85C217.097 142.059 217.624 145.367 217.706 148.707C217.689 148.329 217.689 147.95 217.673 147.572C217.755 150.962 217.393 154.368 216.57 157.659C216.669 157.297 216.751 156.919 216.85 156.556C216.044 159.765 214.826 162.859 213.229 165.755C213.41 165.426 213.592 165.113 213.773 164.784C212.176 167.647 210.218 170.313 207.93 172.666C208.177 172.403 208.44 172.14 208.687 171.876C206.432 174.213 203.898 176.254 201.133 177.949C201.446 177.768 201.759 177.57 202.055 177.389C199.29 179.084 196.311 180.4 193.201 181.338C193.546 181.24 193.908 181.124 194.254 181.026C191.045 181.98 187.737 182.507 184.396 182.589C184.774 182.572 185.153 182.572 185.531 182.556C182.141 182.638 178.734 182.276 175.443 181.454C175.805 181.552 176.183 181.635 176.546 181.733C173.336 180.927 170.242 179.709 167.346 178.113C167.675 178.294 167.988 178.475 168.317 178.656C165.453 177.06 162.787 175.102 160.434 172.814C160.697 173.061 160.96 173.325 161.224 173.571C158.887 171.317 156.846 168.783 155.151 166.018C155.332 166.331 155.529 166.644 155.71 166.94C154.015 164.175 152.699 161.197 151.76 158.087C151.859 158.432 151.974 158.794 152.073 159.14C151.119 155.931 150.592 152.624 150.51 149.283C150.526 149.662 150.526 150.04 150.543 150.419C150.526 149.744 150.526 149.069 150.543 148.395C150.576 147.243 150.362 146.19 149.637 145.268C148.979 144.462 147.844 143.771 146.79 143.705C145.688 143.639 144.519 143.869 143.663 144.61C142.857 145.317 142.133 146.338 142.1 147.457C141.985 151.801 142.413 156.145 143.647 160.325C144.289 162.513 145.029 164.669 146 166.742C146.955 168.766 148.09 170.708 149.325 172.568C151.629 176.023 154.525 179.1 157.751 181.733C159.232 182.935 160.796 184.037 162.441 184.991C164.4 186.143 166.424 187.196 168.531 188.052C170.67 188.908 172.876 189.533 175.13 190.043C177.089 190.504 179.096 190.784 181.104 190.932C185.449 191.228 189.876 190.899 194.089 189.846C196.295 189.286 198.5 188.595 200.59 187.69C202.664 186.818 204.606 185.715 206.531 184.547C210.086 182.359 213.213 179.578 215.961 176.435C218.71 173.308 220.932 169.688 222.627 165.887C224.355 161.987 225.474 157.725 225.918 153.479C226.165 151.093 226.182 148.707 226.05 146.305C225.951 144.314 225.688 142.339 225.276 140.397C224.404 136.283 222.956 132.268 220.882 128.599C219.78 126.641 218.545 124.748 217.163 122.971C215.764 121.194 214.217 119.598 212.571 118.051C209.527 115.188 206.021 112.884 202.269 111.041C198.434 109.165 194.254 107.947 190.041 107.338C188.016 107.042 185.976 106.911 183.919 106.943C181.565 106.976 179.245 107.124 176.924 107.519C172.777 108.243 168.679 109.576 164.943 111.518C161.256 113.443 157.784 115.862 154.822 118.791C153.242 120.355 151.728 122.017 150.394 123.794C149.028 125.604 147.876 127.546 146.807 129.537C144.782 133.289 143.466 137.386 142.692 141.566C142.33 143.491 142.133 145.449 142.067 147.424C142.034 148.576 142.248 149.629 142.972 150.55C143.63 151.357 144.766 152.048 145.819 152.114C146.922 152.179 148.09 151.949 148.946 151.208C149.786 150.55 150.51 149.514 150.543 148.395Z" fill="black"/>
    <path d="M157.076 110.119C157.471 110.399 157.636 110.744 157.619 111.106C157.603 111.485 157.422 111.88 157.159 112.308C157.027 112.521 156.862 112.719 156.698 112.933C156.533 113.147 156.352 113.361 156.155 113.558C155.974 113.756 155.76 113.953 155.579 114.151C155.381 114.348 155.2 114.529 155.019 114.677C154.032 115.566 153.044 116.471 152.09 117.442C151.135 118.396 150.181 119.383 149.292 120.42C148.387 121.457 147.531 122.526 146.725 123.662C145.935 124.781 145.178 125.933 144.536 127.134C142.067 131.61 140.29 136.481 139.269 141.499C139.171 141.96 139.088 142.52 139.006 143.096C138.957 143.392 138.924 143.688 138.874 144.001C138.825 144.297 138.759 144.609 138.71 144.906C138.463 146.074 138.117 147.127 137.41 147.571C136.422 148.18 135.583 147.999 135.007 147.275C134.727 146.913 134.513 146.403 134.381 145.794C134.316 145.498 134.283 145.169 134.283 144.807C134.266 144.461 134.283 144.083 134.332 143.704C134.776 139.772 135.665 135.872 136.982 132.103C138.298 128.335 140.043 124.715 142.232 121.342C144.421 117.968 147.021 114.825 150.065 112.176C151.102 111.287 152.402 110.465 153.703 110.053C154.328 109.839 154.97 109.724 155.529 109.724C156.089 109.708 156.599 109.839 157.011 110.086C157.027 110.07 157.06 110.086 157.076 110.119Z" fill="white"/>
    <path d="M156.55 110.612C156.928 110.909 156.994 111.271 156.879 111.682C156.813 111.88 156.714 112.093 156.566 112.307C156.5 112.406 156.418 112.521 156.319 112.636C156.237 112.752 156.138 112.867 156.04 112.966C155.842 113.196 155.628 113.41 155.398 113.624C155.184 113.838 154.953 114.068 154.723 114.282C154.493 114.496 154.279 114.693 154.081 114.874C153.884 115.055 153.686 115.236 153.538 115.368C151.267 117.474 149.094 119.712 147.185 122.197C146.198 123.481 145.309 124.813 144.486 126.212C143.663 127.611 142.939 129.059 142.265 130.54C141.606 132.021 141.014 133.535 140.504 135.082C139.993 136.628 139.549 138.192 139.171 139.771C138.907 140.874 138.71 141.976 138.529 143.095C138.446 143.622 138.364 144.231 138.249 144.823C138.134 145.416 137.953 145.975 137.706 146.403C137.146 147.292 136.06 147.407 135.468 146.798C134.645 145.959 134.711 144.297 134.908 142.849C135.369 139.311 136.192 135.789 137.377 132.399C138.562 128.993 140.092 125.719 141.985 122.625C144.058 119.219 146.56 116.043 149.506 113.311C150.543 112.34 151.843 111.369 153.143 110.777C153.801 110.497 154.427 110.3 155.019 110.267C155.579 110.234 156.105 110.333 156.55 110.612C157.093 110.942 158.13 109.987 157.603 109.625C157.224 109.378 156.78 109.23 156.286 109.164C156.04 109.131 155.776 109.115 155.496 109.131C155.233 109.148 154.937 109.181 154.657 109.23C153.489 109.444 152.254 110.004 151.119 110.744C149.72 111.682 148.469 112.916 147.284 114.134C145.655 115.829 144.174 117.639 142.824 119.564C140.142 123.382 138.035 127.578 136.504 131.939C135.78 133.979 135.204 136.069 134.743 138.175C134.283 140.249 133.772 142.552 133.772 144.659C133.772 144.955 133.789 145.251 133.822 145.531C133.855 145.811 133.904 146.074 133.97 146.337C134.036 146.584 134.118 146.831 134.2 147.045C134.299 147.259 134.398 147.473 134.53 147.654C135.007 148.378 135.665 148.756 136.439 148.657C137.377 148.542 138.002 147.917 138.446 147.045C138.677 146.6 138.841 146.09 138.99 145.547C139.072 145.268 139.121 144.988 139.187 144.692C139.253 144.395 139.302 144.099 139.352 143.787C139.944 140.15 140.866 136.53 142.199 133.091C143.532 129.635 145.276 126.344 147.449 123.398C148.65 121.769 150.033 120.239 151.448 118.774C152.88 117.31 154.361 115.928 155.793 114.545C156.007 114.331 156.221 114.134 156.418 113.92C156.616 113.706 156.813 113.476 156.994 113.262C157.175 113.048 157.34 112.834 157.488 112.604C157.554 112.488 157.636 112.39 157.685 112.274C157.751 112.159 157.817 112.061 157.866 111.962C158.294 111.106 158.311 110.267 157.554 109.642C157.126 109.23 156.056 110.218 156.55 110.612Z" fill="white"/>
    </g>
    <g clip-path="url(#coin2_clip3)">
    <path d="M73.1838 71.8479C73.1504 71.1146 73.0614 70.3926 72.7832 69.7045C72.0265 67.7979 71.0251 66.0155 69.9013 64.3008C67.6981 60.9503 64.8606 58.0736 61.923 55.3887C59.0077 52.7264 55.8142 50.3799 52.5873 48.1237C49.2603 45.7998 45.8331 43.6564 42.2835 41.6935C38.8897 39.8095 35.3847 38.1399 31.7683 36.7298C29.9212 36.0191 28.0407 35.3647 26.1491 34.7668C23.7679 34.0223 21.2976 33.4921 18.8051 33.8418C18.2042 33.9208 17.5589 34.0787 16.9357 34.3043C15.4558 33.1649 13.5197 32.7137 12.0398 34.4848C12.0064 34.5187 11.973 34.5525 11.9396 34.5976C11.9062 34.6315 11.884 34.6766 11.8617 34.7104C10.9382 36.1657 10.8714 37.8466 11.3165 39.3357C10.5153 40.3284 9.76982 41.3663 9.10219 42.4493C8.79063 42.9457 8.51245 43.4646 8.22314 43.9722C7.93384 44.4912 7.6334 45.0214 7.41086 45.5742C7.03253 46.5443 6.64308 47.5596 6.37603 48.5749C6.2425 49.06 6.16461 49.5 6.1201 49.9399C5.8753 50.4137 5.7529 50.8312 5.61938 51.4516C5.51923 51.9367 5.55261 52.4669 5.58599 52.952C5.59712 53.2453 5.65276 53.5273 5.71952 53.8094C5.96432 54.7908 6.30926 55.7046 6.78773 56.5845C7.36635 57.6449 8.02285 58.6602 8.74612 59.6304C10.0146 61.3339 11.4612 62.9019 12.9633 64.391C14.9217 66.3314 16.958 68.1928 19.0833 69.9414C21.242 71.7238 23.4674 73.4272 25.7485 75.0517C28.1186 76.7439 30.5443 78.3458 33.0146 79.8687C35.6406 81.4819 38.3222 83.0049 41.0484 84.415C42.2279 85.0242 43.4185 85.5995 44.6091 86.1523C47.135 87.3143 49.7165 88.3747 52.387 89.1305C53.5999 89.469 54.835 89.7848 56.0813 89.9766C57.1161 90.1345 58.1398 90.1571 59.1858 90.0894C59.5084 90.0669 59.82 90.033 60.1316 89.9653C60.6212 89.8525 61.1219 89.7171 61.5781 89.5028C61.9008 89.3561 62.2124 89.1418 62.5017 88.95C62.6018 88.8823 62.6908 88.8147 62.7798 88.747C62.9245 88.6229 63.058 88.4875 63.2027 88.3521C63.4697 88.2393 63.7368 88.1152 63.9927 87.9911C64.9719 87.4948 65.9288 86.8856 66.7523 86.1523C67.2975 85.6672 67.8093 85.137 68.2767 84.5842C68.5882 84.212 68.8553 83.7833 69.1223 83.3772C70.3352 81.5722 71.4924 79.6657 72.2491 77.6238C72.6719 76.4844 73.0169 75.266 73.1393 74.0477C73.2283 73.3257 73.206 72.5924 73.1838 71.8479Z" fill="#F9B74B"/>
    <path d="M78.7478 71.8486C78.7033 70.8558 78.592 69.8405 78.3584 68.8703C78.1247 67.9115 77.6573 66.9977 77.2679 66.0952C76.7894 65.0009 76.2331 63.9405 75.6211 62.9252C74.2413 60.6126 72.6167 58.4466 70.8475 56.4273C67.5093 52.6143 63.6148 49.3315 59.5867 46.2968C51.5306 40.2163 42.818 35.0496 33.4378 31.3719C30.9564 30.4018 28.4083 29.4541 25.8156 28.8224C22.4775 28.0102 18.7387 27.6943 15.4451 28.8788C16.8694 29.0706 18.3048 29.2624 19.7291 29.4429C18.2825 28.3486 16.5467 27.8748 14.7663 27.6943C13.9095 27.604 12.9748 27.7394 12.1514 27.965C10.7828 28.3373 9.75907 29.048 8.67973 29.9392C7.96759 30.5258 7.36672 31.3268 6.9105 32.1278C6.43203 32.9738 6.02033 33.9327 5.80891 34.8804C5.37495 36.8658 5.3972 38.8739 5.94244 40.8368C6.42091 39.0092 6.89938 37.1817 7.37785 35.3542C5.80891 37.3058 4.42913 39.3025 3.22739 41.4911C2.52638 42.7546 2.01453 44.1196 1.52493 45.4733C0.990824 46.9624 0.734898 48.3838 0.556863 49.9632C0.812789 49.0156 1.06871 48.068 1.31351 47.1204C0.423336 48.9366 -0.11077 50.8318 0.0116294 52.885C0.156283 55.0735 0.779407 56.9575 1.71409 58.9204C2.92696 61.4699 4.7852 63.7713 6.63232 65.8696C10.3043 70.0323 14.5994 73.6084 18.9724 76.9927C27.4513 83.5696 36.8205 89.2553 46.7904 93.1811C53.133 95.6856 61.6898 97.8402 67.1644 92.3576C66.341 92.8427 65.5287 93.3278 64.7053 93.8129C65.907 93.294 67.0754 92.8201 68.177 92.0982C69.234 91.41 70.2355 90.6203 71.1479 89.7517C72.6835 88.2739 73.8852 86.4238 75.0091 84.6075C77.368 80.7494 78.9147 76.4513 78.7478 71.8486C78.6922 70.3707 78.1692 68.9155 77.1232 67.855C76.1552 66.8736 74.5751 66.1403 73.1842 66.208C71.7488 66.2757 70.2577 66.7495 69.2452 67.855C68.266 68.938 67.565 70.3369 67.6206 71.8486C67.654 72.7285 67.654 73.5971 67.5427 74.4771C67.6095 73.9807 67.6762 73.473 67.743 72.9767C67.5538 74.274 67.1644 75.5149 66.6748 76.722C66.8639 76.2708 67.0531 75.8195 67.2311 75.3795C66.3076 77.5906 65.028 79.7228 63.5925 81.6293C63.8819 81.2457 64.1712 80.8735 64.4605 80.4899C63.8485 81.257 63.1363 81.9564 62.3797 82.5769C62.758 82.2836 63.1252 81.9903 63.5035 81.697C62.6134 82.3964 61.6342 82.9717 60.6105 83.4343C61.0555 83.2425 61.5006 83.0507 61.9346 82.8702C60.7996 83.3553 60.132 83.6148 59.2084 84.4721C59.0526 84.6188 58.8969 84.7654 58.7188 84.9008C59.0972 84.6075 59.4643 84.3142 59.8427 84.0209C59.4421 84.2916 59.0415 84.5511 58.5964 84.7429C59.0415 84.5511 59.4866 84.3593 59.9206 84.1788C59.3865 84.3932 58.8301 84.5398 58.2737 84.6301C58.7633 84.5624 59.2641 84.4947 59.7537 84.427C58.6076 84.5737 57.4281 84.5398 56.282 84.3932C56.7716 84.4608 57.2723 84.5285 57.7619 84.5962C54.3903 84.1224 51.1078 82.9379 47.9811 81.5954C48.4261 81.7872 48.8712 81.979 49.3052 82.1595C42.3396 79.1474 35.7189 75.2329 29.4876 70.8784C27.6961 69.6262 25.938 68.3289 24.2133 66.9864C24.5917 67.2797 24.9588 67.573 25.3372 67.8663C23.0116 66.0501 20.7639 64.1436 18.6163 62.1242C16.5355 60.1613 14.5104 58.1194 12.7745 55.8294C13.0639 56.2129 13.3532 56.5852 13.6425 56.9688C12.641 55.6376 11.6952 54.2275 11.0498 52.6819C11.239 53.1332 11.4282 53.5844 11.6062 54.0244C11.3058 53.2686 11.0387 52.4902 10.9386 51.6779C11.0053 52.1743 11.0721 52.6819 11.1388 53.1783C11.0943 52.6707 11.0721 52.1517 11.1277 51.6441C11.061 52.1405 10.9942 52.6481 10.9274 53.1445C11.0053 52.6707 11.1277 52.2081 11.3058 51.7569C11.1166 52.2081 10.9274 52.6594 10.7494 53.0993C10.894 52.7722 11.0387 52.445 11.1722 52.1179C11.4282 51.6779 11.5506 51.2041 11.5506 50.6965C11.5951 50.3806 11.6396 50.0647 11.673 49.7601C11.6062 50.2565 11.5394 50.7642 11.4727 51.2605C11.6841 49.7601 12.2516 48.2936 12.8191 46.8947C12.6299 47.346 12.4407 47.7972 12.2627 48.2372C13.1195 46.3081 14.3212 44.4806 15.5897 42.7997C15.3004 43.1833 15.0111 43.5555 14.7218 43.9391C14.8887 43.7247 15.0556 43.5217 15.2225 43.3073C15.5118 42.9238 15.8012 42.5515 16.0905 42.168C16.5912 41.288 16.8471 40.3404 16.8471 39.3251C16.8471 38.4226 16.5467 37.6329 16.4243 36.7756C16.491 37.2719 16.5578 37.7796 16.6246 38.276C16.5689 37.7909 16.5689 37.3171 16.6246 36.8207C16.5578 37.3171 16.491 37.8247 16.4243 38.3211C16.491 37.8811 16.5912 37.475 16.747 37.0689C16.5578 37.5201 16.3686 37.9714 16.1906 38.4113C16.3353 38.0729 16.5022 37.7458 16.7025 37.4412C16.4131 37.8247 16.1238 38.197 15.8345 38.5806C16.0571 38.3098 16.2907 38.0729 16.5689 37.8473C16.1906 38.1406 15.8234 38.4339 15.4451 38.7272C15.6231 38.6031 15.79 38.5016 15.9903 38.4001C15.5452 38.5918 15.1001 38.7836 14.6662 38.9641C14.8998 38.8626 15.1224 38.7949 15.3672 38.7498C14.8776 38.8175 14.3769 38.8851 13.8873 38.9528C14.1766 38.919 14.4548 38.9077 14.7441 38.9416C14.2545 38.8739 13.7537 38.8062 13.2641 38.7385C13.6091 38.7949 13.9207 38.8851 14.2433 39.0092C13.7983 38.8175 13.3532 38.6257 12.9192 38.4452C13.1751 38.558 13.4199 38.6821 13.6536 38.84C14.6328 39.4605 15.701 39.9794 16.9027 39.923C18.06 39.8666 19.1171 39.4266 20.252 39.2574C19.7624 39.3251 19.2617 39.3928 18.7721 39.4605C19.9405 39.3138 21.12 39.3364 22.2883 39.483C21.7987 39.4154 21.298 39.3477 20.8084 39.28C22.8558 39.5733 24.8142 40.205 26.7615 40.8706C28.7421 41.5362 30.6894 42.2808 32.6144 43.1043C32.1693 42.9125 31.7242 42.7207 31.2902 42.5402C38.0111 45.4169 44.3647 49.1735 50.3512 53.3927C52.0202 54.5659 53.6671 55.773 55.2805 57.0252C54.9022 56.7319 54.535 56.4386 54.1567 56.1453C57.9956 59.1686 61.6898 62.5529 64.6719 66.4675C64.3826 66.0839 64.0933 65.7116 63.804 65.3281C65.384 67.4264 66.7749 69.7164 67.7986 72.1419C67.6095 71.6906 67.4203 71.2394 67.2423 70.7994C67.4759 71.3635 67.6429 71.9162 67.7319 72.5254C67.6651 72.0291 67.5983 71.5214 67.5316 71.025C67.565 71.2845 67.5872 71.5553 67.5983 71.826C67.6651 73.3151 68.1658 74.7478 69.2229 75.8195C70.191 76.801 71.771 77.5342 73.1619 77.4666C74.5974 77.3989 76.0884 76.9251 77.101 75.8195C78.0802 74.7704 78.8146 73.3489 78.7478 71.8486Z" fill="white"/>
    <path d="M52.6983 84.5616C44.9538 80.7374 37.9993 75.5593 30.8668 70.652C29.9432 69.9977 29.0196 69.3321 28.0961 68.6666C23.5117 65.3161 19.0497 61.8076 14.8547 58.0059C14.1314 57.3178 13.4638 56.6635 12.8518 56.0204C12.0952 55.5692 11.4387 55.0503 10.9045 54.4749C10.2369 53.8206 9.64717 53.0084 9.2911 52.1285C8.93503 51.2485 8.82376 50.3009 9.13532 49.3984C9.33561 48.8344 9.52477 48.2478 9.72506 47.6724C9.88084 47.2437 10.0366 46.815 10.2147 46.3864C11.8949 43.0133 14.265 39.99 17.0245 37.5194C17.4362 37.2938 17.8702 37.0907 18.3153 36.9328C18.816 36.7974 19.339 36.7185 19.8508 36.6846C21.9316 36.5492 24.0792 37.1359 26.1043 37.8353C38.1885 41.6934 48.6035 48.338 58.3287 56.0881C59.5638 57.1598 60.7767 58.2541 61.9339 59.3822C65.4167 62.7891 68.4545 66.5457 70.2126 71.0582C70.335 71.7914 70.3683 72.5134 70.335 73.2241C70.3127 73.6641 70.2682 74.1041 70.1903 74.544C69.5561 77.6012 67.798 80.3312 66.051 82.7905C65.8507 83.0387 65.6282 83.2756 65.4056 83.5012C65.1831 83.7268 64.9383 83.9412 64.6935 84.1442C62.2121 86.1861 58.796 87.0548 55.6582 85.8477C54.7124 85.5544 53.722 85.1257 52.6983 84.5616Z" fill="#E2860C"/>
    <path d="M53.7556 81.854C52.4426 81.211 51.1518 80.5229 49.8722 79.8009C50.0947 79.9249 50.3061 80.049 50.5287 80.1731C45.7217 77.4544 41.1707 74.2957 36.6419 71.137C32.013 67.9106 27.4063 64.6616 23 61.1306C20.5297 59.1451 18.0595 57.1258 15.7784 54.9034C15.9564 55.0727 16.1345 55.2532 16.3125 55.4224C16.0677 55.1742 15.8118 54.926 15.567 54.6778C15.1887 54.2943 14.8215 53.843 14.3652 53.561C13.8089 53.2113 13.297 52.8052 12.8297 52.3539C13.0077 52.5231 13.1858 52.7036 13.3638 52.8728C12.8408 52.3426 12.3512 51.8011 11.9618 51.1581C12.0842 51.3725 12.2177 51.5868 12.3401 51.7899C12.0953 51.3837 11.9061 50.9551 11.7615 50.5038C11.8282 50.7407 11.9061 50.9889 11.9729 51.2258C11.8727 50.8648 11.806 50.5038 11.7837 50.1315C11.7949 50.391 11.7949 50.6505 11.806 50.9099C11.806 50.6053 11.8282 50.3233 11.895 50.03C11.8282 50.2782 11.7726 50.5377 11.7058 50.7858C11.895 50.03 12.1843 49.2854 12.4514 48.5522C12.7184 47.8189 13.0189 47.142 13.386 46.4539C13.2637 46.6795 13.1413 46.8939 13.0189 47.1195C14.254 44.8858 15.7673 42.8327 17.5142 40.9826C17.3473 41.163 17.1693 41.3435 17.0024 41.524C17.581 40.9149 18.1819 40.3282 18.805 39.7642C18.5936 39.8883 18.3822 40.0237 18.1819 40.1477C18.6047 39.9221 19.0275 39.7303 19.4726 39.5611C19.239 39.6288 18.9942 39.7078 18.7605 39.7755C19.3836 39.6175 20.0067 39.5273 20.6521 39.5047C20.3962 39.516 20.1403 39.516 19.8843 39.5273C21.0638 39.5047 22.2322 39.6852 23.3783 39.9673C23.1335 39.8996 22.8776 39.8432 22.6328 39.7755C23.9235 40.1026 25.192 40.5426 26.4494 40.9713C27.6623 41.3887 28.864 41.8286 30.0657 42.3024C32.4136 43.2275 34.7058 44.2654 36.9646 45.4047C38.2442 46.0478 39.5016 46.7246 40.7479 47.4241C40.5253 47.3 40.3139 47.1759 40.0914 47.0518C45.6327 50.1767 50.8625 53.8543 55.8697 57.8027C57.3942 59.0098 58.8296 60.3297 60.2205 61.6947C60.0424 61.5255 59.8644 61.345 59.6864 61.1757C62.0565 63.4996 64.2596 66.0153 65.9955 68.8695C65.8731 68.6551 65.7396 68.4408 65.6172 68.2377C66.3849 69.5125 67.0415 70.8324 67.5867 72.2199C67.5199 71.983 67.442 71.7349 67.3753 71.498C67.4532 71.983 67.4977 72.4569 67.5088 72.9532C67.4977 72.6938 67.4977 72.4343 67.4865 72.1748C67.4977 73.0096 67.4198 73.8444 67.2306 74.6567C67.2974 74.4085 67.353 74.149 67.4198 73.9008C67.0637 75.3223 66.4851 76.6647 65.7841 77.9508C65.9065 77.7251 66.0289 77.5108 66.1513 77.2852C65.7396 78.041 65.2834 78.7743 64.8049 79.4963C64.3264 80.2183 63.8591 80.9515 63.2693 81.5833C63.4362 81.4028 63.6143 81.2223 63.7812 81.0418C63.1692 81.6735 62.4904 82.2263 61.7449 82.6888C61.9563 82.5647 62.1677 82.4294 62.368 82.3053C61.6448 82.7452 60.877 83.0949 60.0758 83.3431C60.3095 83.2754 60.5543 83.1965 60.788 83.1288C60.0091 83.3657 59.219 83.4898 58.4179 83.5236C58.6738 83.5123 58.9297 83.5123 59.1856 83.5011C58.4401 83.5123 57.6946 83.4447 56.9602 83.2642C57.205 83.3318 57.4609 83.3883 57.7057 83.4559C56.3371 83.0949 55.0018 82.5422 53.7556 81.854C53.1436 81.5156 52.131 81.6284 51.519 81.8991C50.8847 82.1812 50.2505 82.8129 50.0168 83.4898C49.772 84.2118 49.7164 85.0466 50.0613 85.7573C50.1837 85.9716 50.3173 86.186 50.4397 86.389C50.7623 86.7839 51.1518 87.0772 51.6191 87.269C52.4982 87.754 53.4106 88.1714 54.3676 88.476C55.4358 88.8257 56.504 89.1642 57.6278 89.2544C59.7976 89.4236 62.0342 88.995 63.9815 88.0022C64.9607 87.5059 65.9176 86.8967 66.741 86.1634C67.2862 85.6783 67.7981 85.1481 68.2654 84.5953C68.577 84.2231 68.8441 83.7944 69.1111 83.3882C70.324 81.5833 71.4812 79.6768 72.2379 77.6349C72.6607 76.4955 73.0056 75.2771 73.128 74.0588C73.2059 73.3255 73.1837 72.5809 73.1503 71.8364C73.1169 71.1031 73.0279 70.3811 72.7497 69.693C71.9931 67.7865 70.9916 66.0041 69.8678 64.2893C67.6646 60.9388 64.8271 58.0622 61.8896 55.3772C58.9742 52.7149 55.7807 50.3684 52.5538 48.1122C49.2268 45.7883 45.7996 43.6449 42.25 41.682C38.8562 39.798 35.3512 38.1284 31.7348 36.7183C29.9211 36.0189 28.0406 35.3646 26.149 34.7667C23.7677 34.0221 21.2975 33.4919 18.805 33.8416C17.5031 34.0221 15.9787 34.5298 14.9884 35.4435C14.1316 36.2219 13.3304 37.0567 12.5404 37.9141C11.2608 39.3129 10.1147 40.8359 9.1132 42.4491C8.80164 42.9455 8.52346 43.4644 8.23415 43.972C7.94484 44.491 7.64441 45.0212 7.42187 45.574C7.04354 46.5441 6.65409 47.5594 6.38704 48.5747C6.13111 49.5336 6.04209 50.3346 6.14224 51.3273C6.209 52.0155 6.43154 52.7149 6.68747 53.3466C7.1103 54.3845 7.77794 55.3772 8.55684 56.1782C9.358 57.0017 10.1592 57.7576 11.1495 58.3555C10.9714 58.1862 10.7934 58.0057 10.6154 57.8365C13.0077 60.3071 15.6004 62.552 18.2598 64.7293C20.7745 66.7825 23.3449 68.7566 25.9598 70.6744C28.5969 72.6035 31.2786 74.4536 33.9603 76.315C36.564 78.1313 39.1789 79.9249 41.8383 81.6397C45.0096 83.6703 48.2699 85.5881 51.6414 87.2577C52.2868 87.5735 53.2437 87.4946 53.878 87.2125C54.5122 86.9305 55.1465 86.2988 55.3801 85.6219C55.6249 84.8999 55.6806 84.0651 55.3356 83.3544C54.9796 82.6663 54.4677 82.2037 53.7556 81.854Z" fill="black"/>
    <path d="M52.6983 84.5616C44.9538 80.7374 37.9993 75.5593 30.8668 70.652C29.9432 69.9977 29.0196 69.3321 28.0961 68.6666C23.5117 65.3161 19.0497 61.8076 14.8547 58.0059C14.1314 57.3178 13.4638 56.6635 12.8518 56.0204C12.0952 55.5692 11.4387 55.0503 10.9045 54.4749C10.2369 53.8206 9.64717 53.0084 9.2911 52.1285C8.93503 51.2485 8.82376 50.3009 9.13532 49.3984C9.33561 48.8344 9.52477 48.2478 9.72506 47.6724C9.88084 47.2437 10.0366 46.815 10.2147 46.3864C11.8949 43.0133 14.265 39.99 17.0245 37.5194C17.4362 37.2938 17.8702 37.0907 18.3153 36.9328C18.816 36.7974 19.339 36.7185 19.8508 36.6846C21.9316 36.5492 24.0792 37.1359 26.1043 37.8353C38.1885 41.6934 48.6035 48.338 58.3287 56.0881C59.5638 57.1598 60.7767 58.2541 61.9339 59.3822C65.4167 62.7891 68.4545 66.5457 70.2126 71.0582C70.335 71.7914 70.3683 72.5134 70.335 73.2241C70.3127 73.6641 70.2682 74.1041 70.1903 74.544C69.5561 77.6012 67.798 80.3312 66.051 82.7905C65.8507 83.0387 65.6282 83.2756 65.4056 83.5012C65.1831 83.7268 64.9383 83.9412 64.6935 84.1442C62.2121 86.1861 58.796 87.0548 55.6582 85.8477C54.7124 85.5544 53.722 85.1257 52.6983 84.5616Z" fill="#E2860C"/>
    <path d="M53.7556 81.854C52.4426 81.211 51.1518 80.5229 49.8722 79.8009C50.0947 79.9249 50.3061 80.049 50.5287 80.1731C45.7217 77.4544 41.1707 74.2957 36.6419 71.137C32.013 67.9106 27.4063 64.6616 23 61.1306C20.5297 59.1451 18.0595 57.1258 15.7784 54.9034C15.9564 55.0727 16.1345 55.2532 16.3125 55.4224C16.0677 55.1742 15.8118 54.926 15.567 54.6778C15.1887 54.2943 14.8215 53.843 14.3652 53.561C13.8089 53.2113 13.297 52.8052 12.8297 52.3539C13.0077 52.5231 13.1858 52.7036 13.3638 52.8728C12.8408 52.3426 12.3512 51.8011 11.9618 51.1581C12.0842 51.3725 12.2177 51.5868 12.3401 51.7899C12.0953 51.3837 11.9061 50.9551 11.7615 50.5038C11.8282 50.7407 11.9061 50.9889 11.9729 51.2258C11.8727 50.8648 11.806 50.5038 11.7837 50.1315C11.7949 50.391 11.7949 50.6505 11.806 50.9099C11.806 50.6053 11.8282 50.3233 11.895 50.03C11.8282 50.2782 11.7726 50.5377 11.7058 50.7858C11.895 50.03 12.1843 49.2854 12.4514 48.5522C12.7184 47.8189 13.0189 47.142 13.386 46.4539C13.2637 46.6795 13.1413 46.8939 13.0189 47.1195C14.254 44.8858 15.7673 42.8327 17.5142 40.9826C17.3473 41.163 17.1693 41.3435 17.0024 41.524C17.581 40.9149 18.1819 40.3282 18.805 39.7642C18.5936 39.8883 18.3822 40.0237 18.1819 40.1477C18.6047 39.9221 19.0275 39.7303 19.4726 39.5611C19.239 39.6288 18.9942 39.7078 18.7605 39.7755C19.3836 39.6175 20.0067 39.5273 20.6521 39.5047C20.3962 39.516 20.1403 39.516 19.8843 39.5273C21.0638 39.5047 22.2322 39.6852 23.3783 39.9673C23.1335 39.8996 22.8776 39.8432 22.6328 39.7755C23.9235 40.1026 25.192 40.5426 26.4494 40.9713C27.6623 41.3887 28.864 41.8286 30.0657 42.3024C32.4136 43.2275 34.7058 44.2654 36.9646 45.4047C38.2442 46.0478 39.5016 46.7246 40.7479 47.4241C40.5253 47.3 40.3139 47.1759 40.0914 47.0518C45.6327 50.1767 50.8625 53.8543 55.8697 57.8027C57.3942 59.0098 58.8296 60.3297 60.2205 61.6947C60.0424 61.5255 59.8644 61.345 59.6864 61.1757C62.0565 63.4996 64.2596 66.0153 65.9955 68.8695C65.8731 68.6551 65.7396 68.4408 65.6172 68.2377C66.3849 69.5125 67.0415 70.8324 67.5867 72.2199C67.5199 71.983 67.442 71.7349 67.3753 71.498C67.4532 71.983 67.4977 72.4569 67.5088 72.9532C67.4977 72.6938 67.4977 72.4343 67.4865 72.1748C67.4977 73.0096 67.4198 73.8444 67.2306 74.6567C67.2974 74.4085 67.353 74.149 67.4198 73.9008C67.0637 75.3223 66.4851 76.6647 65.7841 77.9508C65.9065 77.7251 66.0289 77.5108 66.1513 77.2852C65.7396 78.041 65.2834 78.7743 64.8049 79.4963C64.3264 80.2183 63.8591 80.9515 63.2693 81.5833C63.4362 81.4028 63.6143 81.2223 63.7812 81.0418C63.1692 81.6735 62.4904 82.2263 61.7449 82.6888C61.9563 82.5647 62.1677 82.4294 62.368 82.3053C61.6448 82.7452 60.877 83.0949 60.0758 83.3431C60.3095 83.2754 60.5543 83.1965 60.788 83.1288C60.0091 83.3657 59.219 83.4898 58.4179 83.5236C58.6738 83.5123 58.9297 83.5123 59.1856 83.5011C58.4401 83.5123 57.6946 83.4447 56.9602 83.2642C57.205 83.3318 57.4609 83.3883 57.7057 83.4559C56.3371 83.0949 55.0018 82.5422 53.7556 81.854C53.1436 81.5156 52.131 81.6284 51.519 81.8991C50.8847 82.1812 50.2505 82.8129 50.0168 83.4898C49.772 84.2118 49.7164 85.0466 50.0613 85.7573C50.1837 85.9716 50.3173 86.186 50.4397 86.389C50.7623 86.7839 51.1518 87.0772 51.6191 87.269C52.4982 87.754 53.4106 88.1714 54.3676 88.476C55.4358 88.8257 56.504 89.1642 57.6278 89.2544C59.7976 89.4236 62.0342 88.995 63.9815 88.0022C64.9607 87.5059 65.9176 86.8967 66.741 86.1634C67.2862 85.6783 67.7981 85.1481 68.2654 84.5953C68.577 84.2231 68.8441 83.7944 69.1111 83.3882C70.324 81.5833 71.4812 79.6768 72.2379 77.6349C72.6607 76.4955 73.0056 75.2771 73.128 74.0588C73.2059 73.3255 73.1837 72.5809 73.1503 71.8364C73.1169 71.1031 73.0279 70.3811 72.7497 69.693C71.9931 67.7865 70.9916 66.0041 69.8678 64.2893C67.6646 60.9388 64.8271 58.0622 61.8896 55.3772C58.9742 52.7149 55.7807 50.3684 52.5538 48.1122C49.2268 45.7883 45.7996 43.6449 42.25 41.682C38.8562 39.798 35.3512 38.1284 31.7348 36.7183C29.9211 36.0189 28.0406 35.3646 26.149 34.7667C23.7677 34.0221 21.2975 33.4919 18.805 33.8416C17.5031 34.0221 15.9787 34.5298 14.9884 35.4435C14.1316 36.2219 13.3304 37.0567 12.5404 37.9141C11.2608 39.3129 10.1147 40.8359 9.1132 42.4491C8.80164 42.9455 8.52346 43.4644 8.23415 43.972C7.94484 44.491 7.64441 45.0212 7.42187 45.574C7.04354 46.5441 6.65409 47.5594 6.38704 48.5747C6.13111 49.5336 6.04209 50.3346 6.14224 51.3273C6.209 52.0155 6.43154 52.7149 6.68747 53.3466C7.1103 54.3845 7.77794 55.3772 8.55684 56.1782C9.358 57.0017 10.1592 57.7576 11.1495 58.3555C10.9714 58.1862 10.7934 58.0057 10.6154 57.8365C13.0077 60.3071 15.6004 62.552 18.2598 64.7293C20.7745 66.7825 23.3449 68.7566 25.9598 70.6744C28.5969 72.6035 31.2786 74.4536 33.9603 76.315C36.564 78.1313 39.1789 79.9249 41.8383 81.6397C45.0096 83.6703 48.2699 85.5881 51.6414 87.2577C52.2868 87.5735 53.2437 87.4946 53.878 87.2125C54.5122 86.9305 55.1465 86.2988 55.3801 85.6219C55.6249 84.8999 55.6806 84.0651 55.3356 83.3544C54.9796 82.6663 54.4677 82.2037 53.7556 81.854Z" fill="black"/>
    <path d="M61.3559 86.087C63.6678 82.5131 53.7694 71.7883 39.2472 62.1326C24.725 52.4769 11.0783 47.5466 8.76641 51.1206C6.4545 54.6945 16.3529 65.4193 30.875 75.075C45.3972 84.7307 59.0439 89.661 61.3559 86.087Z" fill="#F9B74B"/>
    <path d="M46.7457 80.7716C44.32 79.6548 41.961 78.4252 39.6354 77.1166C39.8579 77.2406 40.0694 77.3647 40.2919 77.4888C36.9204 75.5823 33.6378 73.5179 30.4554 71.3068C27.4066 69.1859 24.4356 66.941 21.5982 64.5268C20.1517 63.2972 18.7385 62.0224 17.3698 60.7025C17.5479 60.8718 17.7259 61.0523 17.904 61.2215C16.1792 59.5406 14.5102 57.7582 13.0859 55.8065C12.7075 55.2876 12.3404 54.7461 12.0065 54.1933C12.1289 54.4077 12.2625 54.622 12.3849 54.8251C11.9286 54.0692 11.5169 53.2683 11.261 52.4109C11.3278 52.6478 11.4057 52.896 11.4724 53.1329C11.3612 52.7606 11.2833 52.3658 11.2721 51.9822C11.2833 52.2417 11.2833 52.5012 11.2944 52.7606C11.2944 52.535 11.3055 52.2981 11.3612 52.0725C11.2944 52.3207 11.2388 52.5801 11.172 52.8283C11.2165 52.6478 11.2833 52.4786 11.3723 52.3207C11.2499 52.5463 11.1275 52.7606 11.0051 52.9863C11.083 52.8396 11.1831 52.7155 11.2944 52.6027C11.1275 52.7832 10.9494 52.9637 10.7825 53.1442C10.9161 53.0088 11.0607 52.896 11.2165 52.7945C11.0051 52.9186 10.7937 53.0539 10.5934 53.178C10.827 53.0427 11.0718 52.9299 11.3278 52.8509C11.0941 52.9186 10.8493 52.9975 10.6156 53.0652C11.1052 52.9186 11.6282 52.8622 12.1401 52.8509C11.8841 52.8622 11.6282 52.8622 11.3723 52.8734C12.7632 52.8396 14.143 53.1104 15.4893 53.4375C15.2446 53.3698 14.9886 53.3134 14.7438 53.2457C19.0389 54.3287 23.1449 56.2239 27.0728 58.2545C28.23 58.8524 29.3761 59.4729 30.5111 60.1159C30.2885 59.9918 30.0771 59.8677 29.8546 59.7436C33.2261 61.6502 36.5086 63.7146 39.691 65.9257C42.7399 68.0465 45.7108 70.2915 48.5483 72.7056C49.9948 73.9353 51.408 75.2101 52.7766 76.5299C52.5986 76.3607 52.4206 76.1802 52.2425 76.011C53.9672 77.6919 55.6363 79.4743 57.0606 81.4259C57.4389 81.9449 57.8061 82.4864 58.1399 83.0391C58.0175 82.8248 57.884 82.6105 57.7616 82.4074C58.2178 83.1632 58.6295 83.9642 58.8855 84.8216C58.8187 84.5847 58.7408 84.3365 58.674 84.0996C58.7853 84.4718 58.8632 84.8667 58.8743 85.2502C58.8632 84.9908 58.8632 84.7313 58.8521 84.4718C58.8521 84.6975 58.841 84.9344 58.7853 85.16C58.8521 84.9118 58.9077 84.6523 58.9745 84.4042C58.93 84.5847 58.8632 84.7539 58.7742 84.9118C58.8966 84.6862 59.019 84.4718 59.1414 84.2462C59.0635 84.3929 58.9634 84.517 58.8521 84.6298C59.019 84.4493 59.197 84.2688 59.3639 84.0883C59.2304 84.2237 59.0858 84.3365 58.93 84.438C59.1414 84.3139 59.3528 84.1785 59.5531 84.0544C59.3194 84.1898 59.0746 84.3026 58.8187 84.3816C59.0524 84.3139 59.2972 84.2349 59.5308 84.1672C59.0412 84.3139 58.5183 84.3703 58.0064 84.3816C58.2623 84.3703 58.5183 84.3703 58.7742 84.359C57.3833 84.3929 56.0035 84.1221 54.6571 83.795C54.9019 83.8627 55.1578 83.9191 55.4026 83.9868C52.4206 83.2309 49.5386 82.0577 46.7457 80.7716C46.0892 80.467 45.1656 80.5235 44.5091 80.8168C43.8749 81.0988 43.2406 81.7305 43.0069 82.4074C42.7621 83.1294 42.7065 83.9642 43.0514 84.6749C43.3964 85.3743 43.9082 85.8707 44.6204 86.1978C47.1463 87.3598 49.7278 88.4202 52.3983 89.1761C53.6112 89.5145 54.8463 89.8304 56.0925 90.0221C57.1274 90.1801 58.1511 90.2026 59.197 90.135C59.5197 90.1124 59.8313 90.0785 60.1428 90.0109C60.6324 89.8981 61.1332 89.7627 61.5894 89.5483C61.9121 89.4017 62.2236 89.1873 62.5129 88.9956C62.6131 88.9279 62.7021 88.8602 62.7911 88.7925C63.1249 88.4992 63.4699 88.1608 63.7035 87.7772C64.1375 87.0665 64.3044 86.5927 64.4824 85.7804C64.5826 85.2954 64.5492 84.7877 64.527 84.2913C64.5158 83.998 64.4713 83.7047 64.3934 83.4227C64.2488 82.8586 64.0819 82.2946 63.8705 81.7644C63.4476 80.7378 62.8579 79.7676 62.257 78.8538C61.7118 78.0303 61.122 77.2407 60.4989 76.4735C58.9411 74.567 57.1941 72.8297 55.4138 71.1376C53.511 69.3439 51.5304 67.6404 49.483 66.0159C47.2575 64.2448 44.9765 62.5639 42.6286 60.9507C40.2251 59.3037 37.7771 57.7356 35.2735 56.2465C32.6586 54.701 29.9881 53.2232 27.2508 51.892C24.6915 50.6398 22.0767 49.4891 19.3727 48.5979C18.0597 48.1579 16.7356 47.7969 15.3892 47.4924C14.5102 47.3006 13.6089 47.1426 12.6964 47.0975C11.784 47.0524 10.8271 47.0411 9.93687 47.2442C9.44728 47.357 8.93542 47.4924 8.47921 47.7067C8.05637 47.9098 7.64467 48.1467 7.2886 48.4625C6.95478 48.7558 6.60984 49.0943 6.37617 49.4891C5.95333 50.1998 5.7753 50.6624 5.60839 51.4746C5.50824 51.9597 5.54163 52.4899 5.57501 52.975C5.58613 53.2683 5.64177 53.5503 5.70853 53.8323C5.95333 54.8138 6.29828 55.7276 6.77675 56.6075C7.35536 57.6679 8.01187 58.6832 8.73513 59.6534C10.0036 61.3568 11.4502 62.9249 12.9523 64.414C14.9107 66.3544 16.947 68.2158 19.0723 69.9643C21.231 71.7467 23.4564 73.4502 25.7375 75.0747C28.1076 76.7668 30.5333 78.3688 33.0036 79.8917C35.6296 81.5049 38.3113 83.0279 41.0374 84.438C42.2169 85.0472 43.4075 85.6225 44.5981 86.1753C45.2546 86.4799 46.1782 86.4235 46.8347 86.1302C47.4689 85.8481 48.1032 85.2164 48.3369 84.5395C48.5817 83.8175 48.6373 82.9827 48.2924 82.272C47.9697 81.5952 47.4578 81.0988 46.7457 80.7716Z" fill="black"/>
    </g>
    <defs>
    <clipPath id="coin2_clip0">
    <rect width="158.581" height="234.147" fill="white" transform="translate(36.1863)"/>
    </clipPath>
    <clipPath id="coin2_clip1">
    <rect width="125.588" height="125.588" fill="white" transform="translate(121.33 86.209)"/>
    </clipPath>
    <clipPath id="coin2_clip2">
    <rect width="47.8936" height="29.8005" fill="white" transform="translate(156.123 155.4) rotate(-45)"/>
    </clipPath>
    <clipPath id="coin2_clip3">
    <rect width="78.7584" height="68.1154" fill="white" transform="translate(0 27.6719)"/>
    </clipPath>
    </defs>
</svg>