<svg width="245" height="213" viewBox="0 0 245 213" fill="none" xmlns="http://www.w3.org/2000/svg">
    <path d="M200.371 13.5482C205.865 13.2341 210.245 11.6933 210.155 10.1066C210.064 8.51998 205.538 7.48835 200.045 7.80242C194.552 8.11649 190.172 9.65732 190.262 11.244C190.352 12.8306 194.878 13.8622 200.371 13.5482Z" fill="#C6C6C6"/>
    <path d="M200.36 12.8568C199.342 12.9187 198.324 12.9341 197.322 12.8877C196.859 12.8723 196.412 12.8413 195.965 12.8104C195.764 12.7949 195.548 12.7794 195.348 12.7485C195.255 12.733 195.148 12.733 195.055 12.7176C194.993 12.7176 194.932 12.7021 194.885 12.7021C195.009 12.7176 194.901 12.7021 194.839 12.7021C194.13 12.5938 193.405 12.4546 192.711 12.2535C192.557 12.207 192.418 12.1606 192.279 12.1142C192.202 12.0833 192.14 12.0678 192.063 12.0369C192.032 12.0214 192.017 12.0214 191.986 12.0059C191.955 11.9905 191.94 11.9905 191.909 11.975C192.002 12.0214 192.032 12.0214 191.986 12.0059C191.755 11.8976 191.539 11.7893 191.323 11.6501C191.277 11.6192 191.246 11.5882 191.2 11.5573C191.122 11.4954 191.277 11.6192 191.277 11.6192C191.261 11.6037 191.23 11.5882 191.215 11.5573C191.138 11.4954 191.076 11.4181 191.015 11.3562C190.968 11.3098 191.122 11.5264 191.03 11.3871C191.015 11.3562 190.984 11.3252 190.968 11.2943C190.953 11.2788 190.953 11.2479 190.937 11.2324C190.937 11.2324 190.999 11.4181 190.984 11.3407C190.968 11.2943 190.953 11.2634 190.953 11.2169C190.907 11.0777 190.953 11.4181 190.968 11.2788C190.968 11.2479 190.968 11.2015 190.968 11.1705C190.968 11.0313 190.922 11.3562 190.968 11.2324C190.984 11.186 190.999 11.1396 190.999 11.1087C191.015 11.0468 190.907 11.2943 190.984 11.1551C190.999 11.1241 191.015 11.0777 191.045 11.0468C191.061 11.0158 191.169 10.8766 191.076 10.9849C190.984 11.0932 191.107 10.9539 191.122 10.9385C191.2 10.8611 191.261 10.7838 191.354 10.7219C191.369 10.7064 191.4 10.691 191.415 10.6755C191.508 10.5981 191.277 10.7838 191.385 10.7064C191.431 10.6755 191.493 10.6291 191.539 10.5981C191.77 10.4434 192.002 10.3042 192.264 10.1804C192.387 10.1186 192.526 10.0567 192.665 9.99479C192.803 9.93291 192.557 10.0412 192.649 9.99479C192.68 9.97932 192.726 9.96385 192.757 9.94838C192.85 9.91744 192.942 9.87103 193.019 9.84009C193.359 9.71633 193.698 9.59257 194.053 9.49974C194.854 9.26769 195.687 9.08205 196.52 8.92734C196.751 8.88093 196.998 8.84999 197.245 8.80358C197.353 8.78811 197.461 8.77264 197.584 8.75717C197.6 8.75717 197.723 8.7417 197.6 8.75717C197.692 8.7417 197.785 8.72623 197.877 8.72623C198.371 8.66435 198.864 8.61794 199.358 8.57153C201.285 8.41683 203.228 8.41683 205.141 8.63341C205.233 8.64888 205.341 8.64888 205.434 8.66435C205.48 8.66435 205.526 8.67982 205.572 8.67982C205.403 8.66435 205.588 8.67982 205.619 8.67982C205.819 8.71076 206.02 8.7417 206.22 8.77264C206.575 8.83452 206.93 8.91187 207.284 9.0047C207.593 9.08205 207.901 9.17487 208.194 9.28316C208.256 9.3141 208.318 9.32957 208.395 9.36051C208.425 9.37598 208.472 9.39145 208.503 9.40692C208.564 9.43786 208.549 9.39145 208.441 9.37598C208.549 9.39145 208.703 9.49974 208.811 9.54616C208.904 9.59257 209.012 9.65445 209.104 9.71633C209.15 9.74727 209.181 9.77821 209.227 9.80915C209.289 9.85556 209.305 9.91744 209.181 9.77821C209.197 9.79368 209.227 9.80915 209.243 9.84009C209.32 9.90197 209.382 9.96385 209.443 10.0412C209.536 10.134 209.335 9.87103 209.428 10.0103C209.459 10.0567 209.474 10.0876 209.505 10.134C209.582 10.2733 209.459 9.97932 209.49 10.0876C209.505 10.1186 209.505 10.165 209.52 10.1959C209.567 10.3351 209.52 9.99479 209.505 10.134C209.505 10.1804 209.505 10.2268 209.505 10.2578C209.505 10.3351 209.551 10.0412 209.505 10.1959C209.49 10.2268 209.474 10.2733 209.474 10.3042C209.459 10.3816 209.52 10.1959 209.52 10.1959C209.505 10.2114 209.505 10.2423 209.49 10.2578C209.459 10.3042 209.443 10.3351 209.412 10.3816C209.366 10.4434 209.258 10.5208 209.428 10.3661C209.397 10.397 209.366 10.4434 209.335 10.4744C209.258 10.5517 209.181 10.6291 209.104 10.7064C209.089 10.7219 209.058 10.7374 209.042 10.7528C208.981 10.8147 209.197 10.6445 209.089 10.7219C209.042 10.7528 208.996 10.7838 208.95 10.8147C208.842 10.8921 208.718 10.9694 208.611 11.0313C208.364 11.1705 208.086 11.3098 207.824 11.4181C207.67 11.4799 207.978 11.3562 207.824 11.4181C207.793 11.4335 207.762 11.449 207.732 11.449C207.654 11.4799 207.562 11.5109 207.485 11.5418C207.315 11.6037 207.145 11.6656 206.96 11.7275C206.189 11.9905 205.387 12.1761 204.586 12.3463C204.138 12.4391 203.691 12.5164 203.244 12.5783C203.136 12.5938 203.028 12.6093 202.905 12.6247C202.689 12.6557 203.043 12.6093 202.812 12.6402C202.766 12.6402 202.72 12.6557 202.673 12.6557C202.411 12.6866 202.164 12.7176 201.902 12.7485C201.378 12.7794 200.869 12.8259 200.36 12.8568C200.005 12.8723 199.651 13.1662 199.666 13.553C199.681 13.9088 199.974 14.2646 200.36 14.2491C202.38 14.1254 204.416 13.8624 206.374 13.3364C207.13 13.1353 207.886 12.8723 208.595 12.5474C209.15 12.2999 209.675 11.9905 210.122 11.5882C210.507 11.2324 210.8 10.7528 210.831 10.2114C210.862 9.70086 210.6 9.22128 210.245 8.88093C209.813 8.46324 209.258 8.20024 208.718 7.98366C208.055 7.72066 207.361 7.55049 206.667 7.42673C204.755 7.07091 202.797 6.99356 200.853 7.05544C198.772 7.13279 196.674 7.36485 194.654 7.84443C193.883 8.03007 193.127 8.24665 192.402 8.54059C191.801 8.78811 191.2 9.05111 190.675 9.43786C190.228 9.77821 189.812 10.1804 189.642 10.7219C189.503 11.186 189.596 11.712 189.873 12.1142C190.197 12.5629 190.675 12.8877 191.169 13.1198C191.816 13.4137 192.495 13.6303 193.189 13.785C195.024 14.1872 196.921 14.311 198.787 14.2801C199.311 14.2801 199.851 14.2491 200.375 14.2182C200.73 14.2027 201.085 13.9088 201.069 13.522C201.039 13.1971 200.746 12.8259 200.36 12.8568Z" fill="#C6C6C6"/>
    <path d="M200.775 20.6523C202.356 20.5618 203.385 16.0213 203.072 10.5107C202.759 5.00011 201.223 0.60619 199.641 0.696618C198.059 0.787046 197.031 5.32757 197.344 10.8382C197.657 16.3488 199.193 20.7427 200.775 20.6523Z" fill="#C6C6C6"/>
    <path d="M198.032 10.8451C197.97 9.82408 197.954 8.80304 198.001 7.79747C198.016 7.33336 198.047 6.88472 198.078 6.43608C198.093 6.23497 198.109 6.01838 198.14 5.81727C198.155 5.72445 198.155 5.61616 198.17 5.52334C198.17 5.46145 198.186 5.39957 198.186 5.35316C198.17 5.47692 198.186 5.36863 198.186 5.30675C198.294 4.59512 198.433 3.86801 198.633 3.17185C198.679 3.01715 198.726 2.87792 198.772 2.73868C198.803 2.66133 198.818 2.59945 198.849 2.5221C198.864 2.49116 198.864 2.47569 198.88 2.44475C198.895 2.41381 198.895 2.39834 198.911 2.3674C198.864 2.46022 198.864 2.49116 198.88 2.44475C198.988 2.21269 199.096 1.99611 199.234 1.77953C199.265 1.73312 199.296 1.70217 199.327 1.65576C199.389 1.57841 199.265 1.73312 199.265 1.73312C199.281 1.71764 199.296 1.6867 199.327 1.67123C199.389 1.59388 199.466 1.532 199.527 1.47012C199.589 1.39277 199.358 1.54747 199.512 1.47012C199.543 1.45465 199.574 1.42371 199.605 1.40824C199.62 1.39277 199.651 1.39277 199.666 1.3773C199.666 1.3773 199.481 1.43918 199.558 1.42371C199.605 1.40824 199.635 1.39277 199.682 1.39277C199.82 1.34636 199.481 1.39277 199.62 1.40824C199.651 1.40824 199.697 1.40824 199.728 1.40824C199.867 1.40824 199.543 1.36183 199.666 1.40824C199.713 1.42371 199.759 1.43918 199.79 1.43918C199.851 1.45465 199.605 1.34636 199.743 1.42371C199.774 1.43918 199.82 1.45465 199.851 1.48559C199.882 1.50106 200.021 1.60935 199.913 1.51653C199.805 1.42371 199.944 1.54747 199.959 1.56294C200.036 1.64029 200.113 1.70217 200.175 1.795C200.191 1.81047 200.206 1.84141 200.221 1.85688C200.299 1.9497 200.113 1.71764 200.191 1.82594C200.221 1.87235 200.268 1.93423 200.299 1.98064C200.453 2.21269 200.592 2.44475 200.715 2.70774C200.777 2.83151 200.838 2.97074 200.9 3.10997C200.962 3.2492 200.854 3.00168 200.9 3.0945C200.915 3.12544 200.931 3.17185 200.946 3.20279C200.977 3.29561 201.023 3.38844 201.054 3.46579C201.178 3.80613 201.301 4.14648 201.393 4.5023C201.625 5.30675 201.81 6.14215 201.964 6.97754C202.01 7.2096 202.041 7.45712 202.087 7.70465C202.103 7.81294 202.118 7.92123 202.134 8.04499C202.134 8.06046 202.149 8.18423 202.134 8.06046C202.149 8.15328 202.165 8.24611 202.165 8.33893C202.226 8.83398 202.273 9.32903 202.319 9.82408C202.473 11.7579 202.473 13.7071 202.257 15.6254C202.242 15.7183 202.242 15.8265 202.226 15.9194C202.226 15.9658 202.211 16.0122 202.211 16.0586C202.226 15.8884 202.211 16.0741 202.211 16.105C202.18 16.3061 202.149 16.5072 202.118 16.7084C202.057 17.0642 201.979 17.42 201.887 17.7758C201.81 18.0852 201.717 18.3946 201.609 18.6886C201.579 18.7504 201.563 18.8123 201.532 18.8897C201.517 18.9206 201.501 18.967 201.486 18.998C201.455 19.0598 201.501 19.0444 201.517 18.9361C201.501 19.0444 201.393 19.1991 201.347 19.3074C201.301 19.4002 201.239 19.5085 201.178 19.6013C201.147 19.6477 201.116 19.6786 201.085 19.7251C201.039 19.7869 200.977 19.8024 201.116 19.6786C201.1 19.6941 201.085 19.7251 201.054 19.7405C200.993 19.8179 200.931 19.8798 200.854 19.9416C200.761 20.0345 201.023 19.8334 200.885 19.9262C200.838 19.9571 200.807 19.9726 200.761 20.0035C200.622 20.0809 200.915 19.9571 200.807 19.9881C200.777 20.0035 200.73 20.0035 200.7 20.019C200.561 20.0654 200.9 20.019 200.761 20.0035C200.715 20.0035 200.669 20.0035 200.638 20.0035C200.561 20.0035 200.854 20.0499 200.7 20.0035C200.669 19.9881 200.622 19.9726 200.592 19.9726C200.514 19.9571 200.7 20.019 200.7 20.019C200.684 20.0035 200.653 20.0035 200.638 19.9881C200.592 19.9571 200.561 19.9416 200.514 19.9107C200.453 19.8643 200.376 19.756 200.53 19.9262C200.499 19.8952 200.453 19.8643 200.422 19.8334C200.345 19.756 200.268 19.6786 200.191 19.6013C200.175 19.5858 200.16 19.5549 200.144 19.5394C200.083 19.4775 200.252 19.6941 200.175 19.5858C200.144 19.5394 200.113 19.493 200.083 19.4466C200.006 19.3383 199.928 19.2145 199.867 19.1062C199.728 18.8587 199.589 18.5803 199.481 18.3173C199.42 18.1626 199.543 18.472 199.481 18.3173C199.466 18.2863 199.45 18.2554 199.45 18.2244C199.42 18.1471 199.389 18.0543 199.358 17.9769C199.296 17.8067 199.234 17.6366 199.173 17.4509C198.911 16.6774 198.726 15.873 198.556 15.0685C198.463 14.6199 198.386 14.1712 198.325 13.7226C198.309 13.6143 198.294 13.506 198.278 13.3822C198.247 13.1657 198.294 13.5215 198.263 13.2894C198.263 13.243 198.247 13.1966 198.247 13.1502C198.217 12.8872 198.186 12.6397 198.155 12.3767C198.093 11.8507 198.062 11.3556 198.032 10.8451C198.016 10.4893 197.723 10.1335 197.338 10.149C196.983 10.1644 196.628 10.4584 196.644 10.8451C196.767 12.8717 197.029 14.9138 197.553 16.8785C197.754 17.6366 198.016 18.3946 198.34 19.1062C198.587 19.6632 198.895 20.1892 199.296 20.6378C199.651 21.0246 200.129 21.3185 200.669 21.3494C201.178 21.3804 201.656 21.1174 201.995 20.7616C202.411 20.3284 202.673 19.7715 202.889 19.23C203.152 18.5648 203.321 17.8686 203.445 17.1725C203.799 15.2541 203.876 13.2894 203.815 11.3402C203.738 9.25168 203.506 7.14772 203.028 5.12111C202.843 4.34759 202.627 3.58955 202.334 2.86245C202.087 2.2591 201.825 1.65576 201.44 1.12977C201.1 0.681136 200.7 0.263438 200.16 0.0932647C199.697 -0.0459679 199.173 0.0468538 198.772 0.325319C198.325 0.650195 198.001 1.12977 197.769 1.62482C197.476 2.27458 197.26 2.95527 197.106 3.65143C196.705 5.49239 196.582 7.39524 196.613 9.26715C196.613 9.79313 196.644 10.3346 196.674 10.8606C196.69 11.2164 196.983 11.5722 197.368 11.5567C197.692 11.5258 198.047 11.2319 198.032 10.8451Z" fill="#C6C6C6"/>
    <path d="M134.068 140.993C140.138 140.803 145.014 139.229 144.959 137.479C144.905 135.728 139.94 134.463 133.871 134.653C127.801 134.843 122.925 136.416 122.979 138.167C123.034 139.918 127.998 141.183 134.068 140.993Z" fill="#C6C6C6"/>
    <path d="M134.062 140.301C132.952 140.332 131.842 140.316 130.731 140.254C130.207 140.223 129.698 140.177 129.174 140.115C129.066 140.099 128.973 140.084 128.865 140.084C128.804 140.084 128.742 140.069 128.68 140.069C128.48 140.038 128.819 140.084 128.618 140.069C128.387 140.038 128.156 140.007 127.925 139.96C127.123 139.821 126.336 139.651 125.565 139.388C125.411 139.341 125.257 139.28 125.118 139.233C125.072 139.218 124.809 139.094 125.01 139.202C124.933 139.171 124.871 139.14 124.794 139.109C124.547 138.986 124.3 138.862 124.069 138.692C124.054 138.676 124.023 138.645 123.992 138.63C123.992 138.63 124.131 138.754 124.054 138.676C124.007 138.645 123.961 138.599 123.93 138.568C123.853 138.506 123.792 138.398 123.714 138.336C123.838 138.429 123.807 138.46 123.761 138.398C123.745 138.382 123.73 138.351 123.714 138.336C123.699 138.305 123.684 138.274 123.653 138.228C123.576 138.104 123.714 138.429 123.668 138.243C123.653 138.197 123.637 138.15 123.637 138.104C123.622 138.026 123.653 138.336 123.653 138.166C123.653 138.119 123.668 138.073 123.653 138.042C123.668 138.243 123.622 138.197 123.653 138.104C123.668 138.057 123.699 138.011 123.699 137.949C123.668 138.135 123.622 138.104 123.668 138.026C123.684 138.011 123.684 137.98 123.699 137.965C123.714 137.934 123.745 137.887 123.761 137.856C123.776 137.841 123.792 137.81 123.807 137.794C123.869 137.702 123.684 137.934 123.761 137.856C123.792 137.81 123.838 137.779 123.869 137.733C123.946 137.64 124.038 137.578 124.131 137.5C124.208 137.439 124.069 137.547 124.069 137.547C124.1 137.531 124.131 137.5 124.146 137.485C124.208 137.439 124.27 137.392 124.347 137.346C124.593 137.191 124.856 137.052 125.118 136.928C125.195 136.897 125.272 136.851 125.349 136.82C125.488 136.758 125.195 136.882 125.349 136.82C125.38 136.804 125.426 136.789 125.457 136.773C125.642 136.696 125.827 136.634 126.012 136.572C126.382 136.448 126.768 136.325 127.153 136.232C128.063 135.984 128.989 135.814 129.929 135.675C130.053 135.659 130.161 135.644 130.284 135.629C130.407 135.613 130.114 135.644 130.33 135.629C130.392 135.613 130.469 135.613 130.531 135.598C130.808 135.567 131.071 135.536 131.348 135.505C131.919 135.443 132.474 135.412 133.044 135.381C134.17 135.319 135.296 135.319 136.437 135.35C136.946 135.366 137.471 135.397 137.979 135.443C138.211 135.458 138.442 135.489 138.673 135.505C138.797 135.52 138.92 135.536 139.044 135.551C139.105 135.551 139.167 135.567 139.229 135.567C139.429 135.598 139.09 135.551 139.29 135.567C140.138 135.69 140.987 135.845 141.804 136.077C142.159 136.17 142.498 136.294 142.837 136.418C142.883 136.433 143.099 136.541 142.899 136.433C142.976 136.464 143.038 136.495 143.115 136.526C143.254 136.588 143.377 136.65 143.5 136.727C143.608 136.789 143.716 136.851 143.809 136.928C143.84 136.944 143.855 136.959 143.886 136.99C143.994 137.052 143.747 136.882 143.84 136.959C143.886 136.99 143.932 137.036 143.963 137.067C144.04 137.129 144.102 137.237 144.179 137.299C144.056 137.207 144.086 137.16 144.117 137.222C144.133 137.237 144.133 137.253 144.148 137.268C144.179 137.315 144.194 137.361 144.225 137.408C144.287 137.5 144.163 137.222 144.194 137.33C144.194 137.346 144.21 137.361 144.21 137.377C144.225 137.408 144.225 137.454 144.241 137.485C144.271 137.624 144.241 137.268 144.225 137.454C144.225 137.5 144.21 137.547 144.225 137.578C144.21 137.392 144.256 137.392 144.241 137.485C144.241 137.5 144.225 137.531 144.225 137.547C144.21 137.593 144.194 137.624 144.194 137.655C144.225 137.562 144.271 137.5 144.194 137.624C144.163 137.671 144.133 137.717 144.102 137.763C144.009 137.918 144.163 137.686 144.117 137.748C144.086 137.794 144.04 137.825 144.009 137.872C143.932 137.965 143.84 138.026 143.747 138.104C143.655 138.181 143.886 137.996 143.793 138.073C143.763 138.088 143.747 138.119 143.716 138.135C143.67 138.166 143.624 138.197 143.577 138.228C143.439 138.32 143.3 138.398 143.161 138.475C143.038 138.552 142.899 138.614 142.76 138.676C142.698 138.707 142.637 138.738 142.56 138.769C142.544 138.769 142.529 138.784 142.513 138.784C142.452 138.815 142.467 138.8 142.56 138.769C142.513 138.769 142.436 138.815 142.39 138.831C142.035 138.97 141.696 139.094 141.326 139.202C140.462 139.465 139.583 139.666 138.689 139.821C138.457 139.867 138.226 139.898 137.995 139.929C137.871 139.945 137.733 139.96 137.609 139.991C137.393 140.022 137.748 139.976 137.532 140.007C137.44 140.022 137.347 140.022 137.27 140.038C136.746 140.099 136.206 140.146 135.682 140.192C135.173 140.254 134.618 140.285 134.062 140.301C133.692 140.316 133.353 140.61 133.368 140.997C133.384 141.368 133.677 141.708 134.062 141.693C136.283 141.616 138.535 141.384 140.694 140.858C141.542 140.656 142.375 140.393 143.177 140.053C143.778 139.79 144.349 139.481 144.857 139.047C145.289 138.676 145.598 138.181 145.644 137.609C145.69 137.067 145.413 136.541 145.043 136.17C144.58 135.706 143.978 135.412 143.377 135.164C142.652 134.871 141.897 134.669 141.141 134.499C139.044 134.066 136.884 133.911 134.756 133.942C132.474 133.958 130.161 134.159 127.925 134.638C127.061 134.824 126.213 135.041 125.395 135.35C124.732 135.598 124.069 135.876 123.499 136.278C123.005 136.619 122.573 137.052 122.373 137.624C122.203 138.119 122.311 138.692 122.604 139.125C122.943 139.62 123.452 139.976 123.977 140.239C124.671 140.595 125.426 140.827 126.182 141.028C128.187 141.523 130.269 141.693 132.32 141.724C132.906 141.739 133.476 141.724 134.062 141.708C134.432 141.693 134.772 141.399 134.756 141.012C134.741 140.641 134.448 140.301 134.062 140.301Z" fill="#C6C6C6"/>
    <path d="M134.312 148.848C136.057 148.793 137.318 143.813 137.129 137.724C136.939 131.636 135.371 126.744 133.626 126.799C131.881 126.853 130.62 131.833 130.809 137.922C130.999 144.011 132.567 148.903 134.312 148.848Z" fill="#C6C6C6"/>
    <path d="M131.487 137.933C131.456 136.819 131.471 135.706 131.533 134.592C131.564 134.066 131.61 133.555 131.672 133.029C131.687 132.921 131.703 132.828 131.703 132.72C131.703 132.658 131.718 132.596 131.718 132.534C131.749 132.333 131.703 132.673 131.718 132.472C131.749 132.24 131.78 132.008 131.826 131.776C131.965 130.972 132.135 130.183 132.397 129.409C132.443 129.254 132.505 129.1 132.551 128.961C132.566 128.914 132.69 128.651 132.582 128.852C132.613 128.775 132.643 128.713 132.674 128.636C132.798 128.388 132.921 128.141 133.091 127.909C133.106 127.878 133.137 127.862 133.152 127.831C133.152 127.831 133.029 127.97 133.106 127.893C133.137 127.847 133.183 127.8 133.214 127.769C133.276 127.692 133.384 127.63 133.445 127.553C133.353 127.677 133.322 127.646 133.384 127.599C133.399 127.584 133.43 127.568 133.445 127.553C133.476 127.537 133.507 127.522 133.553 127.491C133.677 127.414 133.353 127.553 133.538 127.506C133.584 127.491 133.63 127.475 133.677 127.475C133.754 127.46 133.445 127.491 133.615 127.491C133.661 127.491 133.708 127.506 133.738 127.491C133.538 127.506 133.584 127.46 133.677 127.491C133.723 127.506 133.769 127.537 133.831 127.537C133.646 127.506 133.677 127.46 133.754 127.506C133.769 127.522 133.8 127.522 133.815 127.537C133.846 127.553 133.893 127.584 133.923 127.599C133.939 127.615 133.97 127.63 133.985 127.646C134.078 127.707 133.846 127.522 133.923 127.599C133.97 127.63 134.001 127.677 134.047 127.707C134.139 127.785 134.201 127.878 134.278 127.97C134.34 128.048 134.232 127.909 134.232 127.909C134.247 127.94 134.278 127.97 134.294 127.986C134.34 128.048 134.386 128.11 134.432 128.187C134.587 128.435 134.725 128.698 134.849 128.961C134.88 129.038 134.926 129.115 134.957 129.193C135.018 129.332 134.895 129.038 134.957 129.193C134.972 129.224 134.988 129.27 135.003 129.301C135.08 129.487 135.142 129.672 135.203 129.858C135.327 130.229 135.45 130.616 135.543 131.003C135.789 131.915 135.959 132.844 136.098 133.787C136.113 133.911 136.129 134.019 136.144 134.143C136.16 134.267 136.129 133.973 136.144 134.19C136.16 134.251 136.16 134.329 136.175 134.391C136.206 134.669 136.237 134.932 136.268 135.211C136.329 135.783 136.36 136.34 136.391 136.912C136.453 138.042 136.453 139.171 136.422 140.316C136.406 140.826 136.375 141.352 136.329 141.863C136.314 142.095 136.283 142.327 136.268 142.559C136.252 142.683 136.237 142.806 136.221 142.93C136.221 142.992 136.206 143.054 136.206 143.116C136.175 143.317 136.221 142.977 136.206 143.178C136.082 144.029 135.928 144.879 135.697 145.699C135.604 146.055 135.481 146.396 135.358 146.736C135.342 146.782 135.234 146.999 135.342 146.798C135.311 146.875 135.281 146.937 135.25 147.014C135.188 147.154 135.126 147.277 135.049 147.401C134.988 147.509 134.926 147.618 134.849 147.711C134.833 147.741 134.818 147.757 134.787 147.788C134.725 147.896 134.895 147.649 134.818 147.741C134.787 147.788 134.741 147.834 134.71 147.865C134.648 147.943 134.54 148.004 134.479 148.082C134.571 147.958 134.617 147.989 134.556 148.02C134.54 148.035 134.525 148.035 134.509 148.051C134.463 148.082 134.417 148.097 134.371 148.128C134.278 148.19 134.556 148.066 134.448 148.097C134.432 148.097 134.417 148.113 134.402 148.113C134.371 148.128 134.324 148.128 134.294 148.144C134.155 148.175 134.509 148.144 134.324 148.128C134.278 148.128 134.232 148.113 134.201 148.128C134.386 148.113 134.371 148.159 134.294 148.144C134.278 148.144 134.247 148.128 134.232 148.128C134.186 148.113 134.155 148.097 134.124 148.097C134.216 148.128 134.278 148.175 134.155 148.097C134.109 148.066 134.062 148.035 134.016 148.004C133.862 147.912 134.093 148.066 134.031 148.02C133.985 147.989 133.954 147.943 133.908 147.912C133.815 147.834 133.754 147.741 133.677 147.649C133.6 147.556 133.785 147.788 133.708 147.695C133.692 147.664 133.661 147.649 133.646 147.618C133.615 147.571 133.584 147.525 133.553 147.478C133.461 147.339 133.384 147.2 133.307 147.061C133.229 146.937 133.168 146.798 133.106 146.659C133.075 146.597 133.044 146.535 133.014 146.457C133.014 146.442 132.998 146.426 132.998 146.411C132.967 146.349 132.983 146.365 133.014 146.457C133.014 146.411 132.967 146.334 132.952 146.287C132.813 145.931 132.69 145.591 132.582 145.22C132.32 144.353 132.119 143.472 131.965 142.574C131.919 142.342 131.888 142.11 131.857 141.878C131.842 141.754 131.826 141.615 131.795 141.491C131.764 141.275 131.811 141.631 131.78 141.414C131.764 141.321 131.764 141.228 131.749 141.151C131.687 140.625 131.641 140.084 131.595 139.558C131.533 139.047 131.502 138.49 131.487 137.933C131.471 137.562 131.178 137.222 130.793 137.237C130.423 137.253 130.083 137.547 130.099 137.933C130.176 140.161 130.407 142.42 130.932 144.586C131.132 145.436 131.394 146.272 131.734 147.076C131.996 147.68 132.304 148.252 132.736 148.762C133.106 149.196 133.6 149.505 134.17 149.551C134.71 149.598 135.234 149.319 135.604 148.948C136.067 148.484 136.36 147.881 136.607 147.277C136.9 146.55 137.1 145.792 137.27 145.034C137.702 142.93 137.856 140.764 137.825 138.629C137.81 136.34 137.609 134.019 137.131 131.776C136.946 130.91 136.73 130.059 136.422 129.239C136.175 128.574 135.897 127.909 135.496 127.336C135.157 126.841 134.725 126.408 134.155 126.207C133.661 126.037 133.091 126.145 132.659 126.439C132.165 126.779 131.811 127.29 131.549 127.816C131.194 128.512 130.962 129.27 130.762 130.028C130.269 132.039 130.099 134.128 130.068 136.185C130.053 136.773 130.068 137.345 130.083 137.933C130.099 138.305 130.392 138.645 130.777 138.629C131.163 138.599 131.502 138.32 131.487 137.933Z" fill="#C6C6C6"/>
    <path d="M237.727 36.2286C241.307 36.0239 244.162 35.0212 244.103 33.989C244.045 32.9569 241.095 32.286 237.515 32.4907C233.935 32.6954 231.08 33.6981 231.139 34.7303C231.198 35.7624 234.147 36.4332 237.727 36.2286Z" fill="#C6C6C6"/>
    <path d="M237.726 35.5351C237.094 35.566 236.447 35.5815 235.814 35.566C235.521 35.5506 235.228 35.5351 234.935 35.5196C234.796 35.5042 234.673 35.5042 234.534 35.4887C234.457 35.4887 234.395 35.4732 234.318 35.4577C234.287 35.4577 234.257 35.4578 234.226 35.4423C234.087 35.4268 234.287 35.4578 234.21 35.4423C233.748 35.3649 233.285 35.2876 232.838 35.1638C232.653 35.1019 232.483 35.0401 232.298 34.9782C232.375 35.0091 232.421 35.0246 232.329 34.9936C232.298 34.9782 232.252 34.9627 232.221 34.9318C232.144 34.9008 232.082 34.8544 232.02 34.808C231.99 34.7925 231.959 34.7616 231.928 34.7461C231.835 34.6842 232.051 34.8544 231.974 34.7771C231.928 34.7306 231.882 34.6842 231.835 34.6533C231.774 34.5914 231.928 34.808 231.882 34.6997C231.866 34.6842 231.851 34.6533 231.851 34.6378C231.789 34.545 231.882 34.6688 231.882 34.7152C231.882 34.6997 231.866 34.6688 231.866 34.6378C231.851 34.5141 231.866 34.808 231.882 34.7306C231.882 34.7152 231.882 34.6842 231.882 34.6688C231.866 34.5759 231.835 34.8699 231.866 34.7616C231.882 34.7461 231.882 34.7152 231.882 34.6842C231.897 34.6069 231.789 34.8544 231.851 34.7616C231.866 34.7461 231.882 34.7152 231.882 34.6997C231.943 34.5914 231.882 34.7152 231.835 34.7461C231.866 34.7306 231.882 34.6842 231.913 34.6688C231.959 34.6224 232.005 34.5759 232.051 34.5295C232.144 34.4522 231.974 34.5759 232.02 34.5605C232.051 34.5295 232.098 34.5141 232.128 34.4831C232.267 34.3903 232.421 34.2975 232.591 34.2201C232.637 34.2047 232.668 34.1892 232.714 34.1582C232.745 34.1428 232.869 34.0654 232.792 34.1273C232.714 34.1892 232.822 34.1118 232.853 34.0964C232.915 34.0654 232.977 34.0499 233.038 34.0345C233.254 33.9571 233.486 33.8798 233.701 33.8179C234.226 33.6632 234.75 33.5549 235.29 33.4466C235.429 33.4157 235.567 33.4002 235.722 33.3847C235.799 33.3693 235.876 33.3538 235.953 33.3538C235.953 33.3538 236.076 33.3383 235.999 33.3538C235.938 33.3693 236.061 33.3383 236.076 33.3383C236.4 33.2919 236.709 33.261 237.033 33.2455C238.282 33.1527 239.531 33.1372 240.78 33.2764C240.857 33.2764 240.919 33.2919 240.996 33.3074C241.058 33.3074 241.166 33.3383 241.042 33.3074C241.166 33.3228 241.304 33.3383 241.428 33.3693C241.659 33.4157 241.89 33.4621 242.122 33.5085C242.322 33.5549 242.523 33.6168 242.723 33.6787C242.8 33.7096 242.893 33.7405 242.97 33.7715C243.047 33.8024 242.831 33.7096 242.908 33.7405C242.924 33.756 242.939 33.756 242.954 33.7715C243.001 33.787 243.047 33.8179 243.078 33.8334C243.139 33.8643 243.201 33.8952 243.247 33.9262C243.278 33.9417 243.309 33.9726 243.34 33.9881C243.448 34.0654 243.217 33.8798 243.309 33.9726C243.355 34.019 243.386 34.0499 243.432 34.0964C243.51 34.1582 243.34 33.9571 243.386 34.0345C243.402 34.0654 243.417 34.0964 243.432 34.1118C243.494 34.2047 243.402 34.0654 243.402 34.0345C243.402 34.0499 243.417 34.0809 243.417 34.1118C243.432 34.2201 243.417 33.9726 243.402 34.019C243.402 34.0345 243.402 34.0964 243.402 34.1118C243.402 34.1273 243.448 33.9262 243.417 34.019C243.402 34.0345 243.402 34.0654 243.402 34.0964C243.386 34.1737 243.479 33.9417 243.432 34.019C243.417 34.0499 243.402 34.0809 243.386 34.0964C243.34 34.1892 243.402 34.0654 243.432 34.0345C243.417 34.0499 243.386 34.0809 243.371 34.1118C243.325 34.1582 243.278 34.2047 243.217 34.2511C243.109 34.3439 243.34 34.1737 243.247 34.2356C243.217 34.2511 243.186 34.282 243.17 34.2975C243.093 34.3439 243.032 34.3903 242.954 34.4367C242.877 34.4831 242.8 34.5141 242.723 34.5605C242.677 34.5759 242.631 34.6069 242.584 34.6224C242.553 34.6378 242.43 34.7152 242.507 34.6533C242.584 34.5914 242.446 34.6688 242.415 34.6842C242.368 34.6997 242.322 34.7152 242.276 34.7306C242.168 34.7771 242.06 34.808 241.937 34.8544C241.428 35.0246 240.919 35.1483 240.394 35.2566C240.101 35.3185 239.824 35.3649 239.531 35.4113C239.469 35.4268 239.392 35.4268 239.33 35.4423C239.315 35.4423 239.192 35.4578 239.315 35.4423C239.284 35.4423 239.253 35.4577 239.207 35.4577C239.037 35.4732 238.883 35.5042 238.713 35.5196C238.374 35.4887 238.05 35.5196 237.726 35.5351C237.372 35.5506 237.017 35.8445 237.033 36.2313C237.048 36.5871 237.341 36.9429 237.726 36.9274C239.068 36.8501 240.425 36.6799 241.721 36.3241C242.615 36.0766 243.587 35.7517 244.281 35.1174C244.574 34.8389 244.774 34.4831 244.805 34.0654C244.82 33.6787 244.635 33.3074 244.373 33.0289C243.756 32.4101 242.785 32.178 241.952 32.0233C240.672 31.7913 239.361 31.7294 238.05 31.7603C236.678 31.8068 235.305 31.9615 233.964 32.2863C233.455 32.4101 232.946 32.5493 232.452 32.7504C232.036 32.9206 231.635 33.0908 231.28 33.3538C230.941 33.6013 230.648 33.9107 230.509 34.3129C230.401 34.6842 230.463 35.0865 230.679 35.3959C231.172 36.123 232.128 36.4014 232.93 36.5871C234.149 36.8655 235.429 36.9429 236.678 36.9274C237.033 36.9274 237.387 36.912 237.726 36.8965C238.081 36.881 238.436 36.5871 238.42 36.2003C238.405 35.8754 238.112 35.5196 237.726 35.5351Z" fill="#C6C6C6"/>
    <path d="M237.991 40.8635C239.02 40.8046 239.688 37.8456 239.484 34.2544C239.28 30.6631 238.281 27.7995 237.252 27.8583C236.223 27.9172 235.554 30.8761 235.758 34.4674C235.962 38.0587 236.962 40.9223 237.991 40.8635Z" fill="#C6C6C6"/>
    <path d="M236.447 34.4681C236.416 33.8338 236.4 33.184 236.416 32.5498C236.431 32.2558 236.447 31.9619 236.462 31.6679C236.478 31.5287 236.478 31.405 236.493 31.2657C236.493 31.1884 236.508 31.1265 236.524 31.0491C236.524 31.0182 236.524 30.9873 236.539 30.9563C236.555 30.8171 236.524 31.0182 236.539 30.9408C236.616 30.4767 236.693 30.0126 236.817 29.564C236.879 29.3783 236.94 29.2082 237.002 29.0225C236.971 29.0999 236.956 29.1463 236.986 29.0535C237.002 29.0225 237.017 28.9761 237.048 28.9452C237.079 28.8678 237.125 28.8059 237.172 28.7441C237.187 28.7131 237.218 28.6822 237.233 28.6512C237.295 28.5584 237.125 28.775 237.202 28.6977C237.249 28.6512 237.295 28.6048 237.326 28.5584C237.387 28.4965 237.172 28.6512 237.279 28.6048C237.295 28.5894 237.326 28.5739 237.341 28.5739C237.434 28.512 237.31 28.6048 237.264 28.6048C237.279 28.6048 237.31 28.5894 237.341 28.5894C237.465 28.5739 237.172 28.5894 237.249 28.6048C237.264 28.6048 237.295 28.6048 237.31 28.6048C237.403 28.5894 237.11 28.5584 237.218 28.5894C237.233 28.6048 237.264 28.6048 237.295 28.6048C237.372 28.6203 237.125 28.512 237.218 28.5739C237.233 28.5894 237.264 28.6048 237.279 28.6048C237.387 28.6667 237.264 28.6048 237.233 28.5584C237.249 28.5894 237.295 28.6048 237.31 28.6358C237.357 28.6822 237.403 28.7286 237.449 28.775C237.526 28.8678 237.403 28.6977 237.418 28.7441C237.449 28.775 237.465 28.8214 237.495 28.8524C237.588 28.9916 237.68 29.1463 237.758 29.3165C237.773 29.3629 237.788 29.3938 237.819 29.4402C237.835 29.4712 237.912 29.5949 237.85 29.5176C237.788 29.4402 237.866 29.5485 237.881 29.5795C237.912 29.6413 237.927 29.7032 237.943 29.7651C238.02 29.9817 238.097 30.2137 238.159 30.4303C238.313 30.9563 238.421 31.4823 238.529 32.0238C238.559 32.163 238.575 32.3022 238.59 32.4569C238.606 32.5343 238.621 32.6116 238.621 32.689C238.621 32.689 238.637 32.8128 238.621 32.7354C238.606 32.6735 238.637 32.7973 238.637 32.8128C238.683 33.1376 238.714 33.447 238.729 33.7719C238.822 35.025 238.837 36.2781 238.698 37.5312C238.698 37.6085 238.683 37.6704 238.667 37.7478C238.667 37.8097 238.637 37.9179 238.667 37.7942C238.652 37.9179 238.637 38.0572 238.606 38.1809C238.559 38.413 238.513 38.645 238.467 38.8771C238.421 39.0782 238.359 39.2793 238.297 39.4804C238.266 39.5578 238.236 39.6506 238.205 39.728C238.174 39.8053 238.266 39.5887 238.236 39.6661C238.22 39.6816 238.22 39.697 238.205 39.7125C238.189 39.7589 238.159 39.8053 238.143 39.8363C238.112 39.8981 238.081 39.96 238.051 40.0064C238.035 40.0374 238.004 40.0683 237.989 40.0993C237.912 40.2076 238.097 39.9755 238.004 40.0683C237.958 40.1147 237.927 40.1457 237.881 40.1921C237.819 40.2694 238.02 40.0993 237.943 40.1457C237.912 40.1611 237.881 40.1766 237.866 40.1921C237.773 40.254 237.912 40.1611 237.943 40.1611C237.927 40.1611 237.896 40.1766 237.866 40.1766C237.758 40.1921 238.004 40.1766 237.958 40.1611C237.943 40.1611 237.881 40.1611 237.866 40.1611C237.85 40.1611 238.051 40.2076 237.958 40.1766C237.943 40.1611 237.912 40.1611 237.881 40.1611C237.804 40.1457 238.035 40.2385 237.958 40.1921C237.927 40.1766 237.896 40.1611 237.881 40.1457C237.788 40.0993 237.912 40.1611 237.943 40.1921C237.927 40.1766 237.896 40.1457 237.866 40.1302C237.819 40.0838 237.773 40.0374 237.727 39.9755C237.634 39.8672 237.804 40.0993 237.742 40.0064C237.727 39.9755 237.696 39.9446 237.68 39.9291C237.634 39.8517 237.588 39.7899 237.542 39.7125C237.495 39.6351 237.465 39.5578 237.418 39.4804C237.403 39.434 237.372 39.3876 237.357 39.3412C237.341 39.3103 237.264 39.1865 237.326 39.2639C237.387 39.3412 237.31 39.202 237.295 39.171C237.279 39.1246 237.264 39.0782 237.249 39.0318C237.202 38.9235 237.172 38.8152 237.125 38.6915C236.956 38.1809 236.832 37.6704 236.724 37.1444C236.663 36.8505 236.616 36.572 236.57 36.2781C236.555 36.2162 236.555 36.1389 236.539 36.077C236.539 36.0615 236.524 35.9377 236.539 36.0615C236.539 36.0306 236.524 35.9996 236.524 35.9532C236.508 35.783 236.478 35.6283 236.462 35.4582C236.493 35.1333 236.462 34.7929 236.447 34.4681C236.431 34.1123 236.138 33.7564 235.753 33.7719C235.398 33.7874 235.043 34.0813 235.059 34.4681C235.136 35.814 235.306 37.1754 235.66 38.4749C235.907 39.3722 236.231 40.3468 236.863 41.0429C237.141 41.3369 237.495 41.538 237.912 41.5689C238.297 41.5844 238.667 41.3988 238.945 41.1358C239.562 40.517 239.793 39.5423 239.947 38.7069C240.179 37.4229 240.24 36.1079 240.21 34.7929C240.163 33.4161 240.009 32.0392 239.685 30.6933C239.562 30.1828 239.423 29.6723 239.223 29.1772C239.053 28.7595 238.883 28.3573 238.621 28.0015C238.374 27.6611 238.066 27.3672 237.665 27.228C237.295 27.1197 236.894 27.1816 236.586 27.3981C235.861 27.8932 235.583 28.8524 235.398 29.6568C235.12 30.879 235.043 32.163 235.059 33.4161C235.059 33.7719 235.074 34.1277 235.09 34.4681C235.105 34.8239 235.398 35.1797 235.784 35.1642C236.107 35.1488 236.462 34.8548 236.447 34.4681Z" fill="#C6C6C6"/>
    <g clip-path="url(#coin1_clip0)">
    <path d="M11.0686 140.037C0.837852 163.914 11.8903 191.545 35.7513 201.792C42.3248 204.611 49.1883 205.82 55.9067 205.578L12.3898 137.233C11.9225 138.152 11.4875 139.086 11.0686 140.037Z" fill="#F9B74B"/>
    <path d="M50.8315 111.681C44.4836 112.148 38.313 113.904 32.7062 116.804L82.8127 195.96C88.1456 191.9 92.6729 186.631 95.9436 180.364L50.8315 111.681Z" fill="#F9B74B"/>
    <path d="M97.4903 177.11C107.721 153.249 96.6686 125.601 72.8076 115.371C65.638 112.293 58.1139 111.15 50.8315 111.681L95.9436 180.364C96.4914 179.301 97.007 178.221 97.4903 177.11Z" fill="#F9B74B"/>
    <path d="M18.8021 127.711L68.8765 203.274C73.8871 201.63 78.6078 199.165 82.829 195.959L32.7224 116.804C27.4862 119.494 22.7494 123.168 18.8021 127.711Z" fill="#F9B74B"/>
    <path d="M12.3898 137.234L55.9067 205.578C60.3374 205.417 64.7036 204.644 68.8764 203.275L18.8021 127.712C16.321 130.564 14.162 133.738 12.3898 137.234Z" fill="#F9B74B"/>
    <path d="M60.5951 126.536C53.6672 125.166 46.6104 126.117 40.4397 129.001L75.0954 183.747C78.9783 180.541 82.1683 176.384 84.295 171.454C85.1328 169.505 85.7612 167.523 86.1962 165.509L60.5951 126.536Z" fill="#FFEBC2"/>
    <path d="M54.2795 191.24C72.3159 191.24 86.9373 176.618 86.9373 158.582C86.9373 140.545 72.3159 125.924 54.2795 125.924C36.243 125.924 21.6216 140.545 21.6216 158.582C21.6216 176.618 36.243 191.24 54.2795 191.24Z" fill="#ED9B24"/>
    <path d="M28.1305 147.239C28.5817 146.208 29.065 145.193 29.6128 144.21C29.4356 144.532 29.2583 144.838 29.0811 145.16C30.4506 142.712 32.1262 140.44 34.0757 138.41C33.834 138.668 33.5762 138.925 33.3345 139.183C35.2518 137.185 37.4268 135.445 39.7791 133.995C39.473 134.173 39.1669 134.366 38.8769 134.543C41.2936 133.061 43.8875 131.901 46.5942 131.095C46.2559 131.192 45.9015 131.305 45.5631 131.401C48.3343 130.58 51.2182 130.112 54.1022 130.032C53.7316 130.048 53.361 130.048 52.9905 130.064C55.8905 130 58.7906 130.306 61.6101 130.999C61.2556 130.902 60.8851 130.821 60.5306 130.725C63.3663 131.434 66.0891 132.497 68.6347 133.915C68.3125 133.737 68.0063 133.56 67.6841 133.383C70.1331 134.753 72.4048 136.428 74.4348 138.378C74.177 138.136 73.9192 137.878 73.6615 137.636C75.6593 139.554 77.3993 141.729 78.8493 144.081C78.6721 143.775 78.4788 143.469 78.3016 143.179C79.7838 145.596 80.9438 148.189 81.7494 150.896C81.6527 150.558 81.5399 150.203 81.4433 149.865C82.265 152.636 82.7322 155.52 82.8128 158.404C82.7966 158.034 82.7966 157.663 82.7805 157.292C82.845 160.192 82.5389 163.093 81.8461 165.912C81.9427 165.558 82.0233 165.187 82.12 164.833C81.4111 167.668 80.3477 170.391 78.9299 172.937C79.1071 172.614 79.2844 172.308 79.4616 171.986C78.0921 174.435 76.4165 176.707 74.467 178.737C74.7087 178.479 74.9665 178.221 75.2082 177.963C73.2909 179.961 71.1158 181.701 68.7636 183.151C69.0697 182.974 69.3758 182.781 69.6658 182.603C67.2491 184.086 64.6552 185.246 61.9484 186.051C62.2868 185.955 62.6412 185.842 62.9796 185.745C60.2084 186.567 57.3245 187.034 54.4405 187.115C54.8111 187.099 55.1816 187.099 55.5522 187.082C52.6521 187.147 49.7521 186.841 46.9326 186.148C47.287 186.245 47.6576 186.325 48.0121 186.422C45.1764 185.713 42.4536 184.65 39.908 183.232C40.2302 183.409 40.5363 183.586 40.8586 183.763C38.4096 182.394 36.1379 180.718 34.1079 178.769C34.3657 179.011 34.6234 179.268 34.8812 179.51C32.8834 177.593 31.1434 175.418 29.6933 173.065C29.8706 173.372 30.0639 173.678 30.2411 173.968C28.7589 171.551 27.5989 168.957 26.7933 166.25C26.89 166.589 27.0027 166.943 27.0994 167.281C26.2777 164.51 25.8105 161.626 25.7299 158.742C25.746 159.113 25.746 159.484 25.7622 159.854C25.6977 156.954 26.0038 154.054 26.6966 151.235C26.6 151.589 26.5194 151.96 26.4227 152.314C26.8577 150.59 27.4377 148.882 28.1305 147.239C28.5494 146.256 28.485 144.967 28.0661 144C27.6633 143.082 26.7611 142.164 25.7944 141.825C24.7632 141.471 23.571 141.39 22.556 141.89C21.5732 142.389 20.8321 143.13 20.3809 144.162C19.6881 145.773 19.1242 147.432 18.7053 149.124C18.2059 151.122 17.787 153.103 17.5937 155.15C17.4164 157.164 17.4164 159.21 17.5453 161.24C17.642 162.899 17.8837 164.543 18.2381 166.154C19.0115 169.682 20.252 173.162 22.0243 176.32C22.991 178.044 24.0705 179.72 25.2788 181.282C26.5033 182.861 27.905 184.279 29.355 185.665C32.094 188.242 35.284 190.305 38.6835 191.932C40.2625 192.689 41.9219 193.318 43.5975 193.817C45.5792 194.397 47.6093 194.864 49.6554 195.122C51.4921 195.364 53.3449 195.412 55.1978 195.364C57.0345 195.315 58.855 195.17 60.6595 194.848C62.609 194.494 64.5263 193.962 66.3952 193.334C67.958 192.802 69.4725 192.158 70.9386 191.4C74.177 189.741 77.206 187.63 79.7999 185.085C81.2338 183.667 82.6033 182.185 83.7955 180.573C85.02 178.93 86.0673 177.158 87.0178 175.337C88.8062 171.938 89.9662 168.216 90.5946 164.43C90.8685 162.77 91.0296 161.079 91.0457 159.403C91.0618 157.405 90.9813 155.375 90.6913 153.393C90.4657 151.75 90.0951 150.139 89.6279 148.56C89.064 146.659 88.4356 144.79 87.5817 143.002C86.7439 141.213 85.7289 139.505 84.6333 137.862C83.715 136.476 82.6839 135.171 81.5722 133.947C79.0588 131.192 76.1587 128.759 72.9203 126.906C71.0997 125.875 69.2469 124.925 67.2813 124.183C65.348 123.458 63.3179 122.911 61.2879 122.492C57.6628 121.734 53.9088 121.638 50.2193 122.024C48.576 122.202 46.9487 122.492 45.3376 122.911C43.4203 123.41 41.5353 124.006 39.7147 124.796C37.8941 125.569 36.1863 126.536 34.4946 127.583C33.0768 128.453 31.7395 129.42 30.4667 130.499C28.9361 131.804 27.5022 133.238 26.1972 134.769C25.0855 136.058 24.0705 137.427 23.1682 138.877C22.1049 140.585 21.1382 142.373 20.3487 144.226C19.9298 145.193 19.9943 146.498 20.4132 147.464C20.8159 148.383 21.7182 149.301 22.6849 149.639C23.716 149.994 24.9083 150.074 25.9233 149.575C26.9544 149.011 27.6955 148.27 28.1305 147.239Z" fill="#ED9B24"/>
    <path d="M11.2458 140.004C11.9385 138.409 12.6958 136.847 13.5336 135.332C13.3725 135.606 13.2275 135.896 13.0663 136.17C15.1769 132.368 17.787 128.855 20.7998 125.714C20.5743 125.939 20.3648 126.165 20.1393 126.39C23.1199 123.313 26.4711 120.606 30.1284 118.367C29.8545 118.528 29.5967 118.689 29.3228 118.866C33.0606 116.578 37.0724 114.79 41.2614 113.517C40.9552 113.614 40.6491 113.694 40.343 113.791C44.6448 112.502 49.0915 111.793 53.5705 111.664C53.2322 111.681 52.9099 111.681 52.5716 111.697C57.0667 111.584 61.5457 112.067 65.9119 113.147C65.5896 113.066 65.2674 112.986 64.9452 112.905C69.3275 113.984 73.5487 115.66 77.496 117.851C77.2221 117.69 76.9321 117.545 76.6582 117.384C80.4605 119.495 83.9728 122.105 87.1145 125.117C86.8889 124.892 86.6634 124.682 86.4378 124.457C89.5151 127.438 92.2218 130.789 94.4613 134.446C94.3002 134.172 94.1391 133.914 93.9619 133.64C96.2497 137.378 98.0381 141.39 99.3109 145.579C99.2142 145.273 99.1336 144.967 99.037 144.661C100.326 148.962 101.035 153.409 101.164 157.888C101.148 157.55 101.148 157.228 101.131 156.889C101.244 161.384 100.761 165.863 99.6814 170.23C99.762 169.907 99.8425 169.585 99.9231 169.263C98.8436 173.645 97.168 177.866 94.9769 181.814C95.138 181.54 95.283 181.25 95.4441 180.976C93.3335 184.778 90.7235 188.29 87.7106 191.432C87.9362 191.207 88.1456 190.981 88.3712 190.755C85.3906 193.833 82.0394 196.539 78.3821 198.779C78.656 198.618 78.9138 198.457 79.1877 198.28C75.4498 200.567 71.4381 202.356 67.2491 203.629C67.5552 203.532 67.8613 203.451 68.1675 203.355C63.8657 204.644 59.4189 205.352 54.94 205.481C55.2783 205.465 55.6005 205.465 55.9389 205.449C51.4438 205.562 46.9648 205.079 42.5986 203.999C42.9208 204.08 43.2431 204.16 43.5653 204.241C39.183 203.161 34.9618 201.486 31.0145 199.295C31.2884 199.456 31.5784 199.601 31.8523 199.762C28.05 197.651 24.5377 195.041 21.396 192.028C21.6215 192.254 21.8471 192.463 22.0726 192.689C18.9954 189.708 16.2886 186.357 14.0491 182.7C14.2103 182.974 14.3714 183.231 14.5486 183.505C12.2608 179.767 10.4724 175.756 9.1996 171.567C9.29627 171.873 9.37683 172.179 9.4735 172.485C8.18458 168.183 7.47568 163.737 7.34679 159.258C7.3629 159.596 7.3629 159.918 7.37901 160.257C7.26623 155.761 7.74957 151.282 8.82904 146.916C8.74848 147.238 8.66792 147.561 8.58737 147.883C9.26405 145.192 10.1502 142.566 11.2458 140.004C12.003 138.232 11.0202 135.848 9.16738 135.203C7.23401 134.527 5.17174 135.38 4.36617 137.282C2.15891 142.437 0.741099 147.996 0.225533 153.586C-0.273921 159.016 0.0483074 164.574 1.20833 169.891C2.35224 175.144 4.22117 180.267 6.86344 184.939C8.24903 187.404 9.79572 189.789 11.5358 192.028C13.2919 194.284 15.2575 196.346 17.3359 198.312C21.396 202.146 26.1166 205.256 31.1595 207.656C36.2668 210.089 41.8414 211.7 47.4481 212.409C52.8455 213.102 58.4039 212.957 63.7529 212.006C69.0375 211.056 74.2253 209.332 78.9943 206.867C83.7955 204.386 88.2745 201.244 92.1252 197.442C94.1713 195.412 96.1047 193.269 97.8286 190.949C99.5848 188.58 101.115 186.067 102.469 183.457C105.111 178.414 106.899 172.904 107.834 167.281C108.736 161.9 108.768 156.325 107.995 150.928C107.238 145.611 105.675 140.359 103.387 135.509C101.099 130.644 98.0703 126.052 94.4452 122.072C90.6912 117.98 86.3734 114.403 81.5399 111.664C78.9299 110.182 76.2554 108.845 73.4359 107.782C70.6647 106.734 67.7808 105.945 64.8807 105.333C59.5317 104.237 53.9733 104.044 48.5115 104.608C43.1625 105.155 37.8618 106.573 32.9317 108.684C27.9855 110.794 23.3132 113.678 19.2209 117.142C15.0158 120.703 11.3102 124.924 8.39403 129.613C6.86344 132.062 5.51008 134.639 4.36617 137.282C3.60893 139.054 4.59173 141.438 6.44455 142.083C8.37792 142.76 10.4241 141.906 11.2458 140.004Z" fill="black"/>
    <path d="M54.2795 191.239C72.3159 191.239 86.9373 176.617 86.9373 158.581C86.9373 140.544 72.3159 125.923 54.2795 125.923C36.243 125.923 21.6216 140.544 21.6216 158.581C21.6216 176.617 36.243 191.239 54.2795 191.239Z" fill="#E2860C"/>
    <g clip-path="url(#coin1_clip1)">
    <path d="M77.1329 166.525C77.5429 164.998 77.7367 163.447 77.7453 161.872C77.7526 160.435 77.5673 159.038 77.1074 157.698C76.8306 156.899 76.4655 156.139 75.9358 155.485C74.9106 154.223 73.8418 153.005 72.4687 152.105C71.6298 151.558 70.7452 151.142 69.7444 151C69.0906 150.907 68.4284 150.86 67.7783 150.75C66.8875 150.596 66.1746 150.165 65.7416 149.334C65.5951 149.053 65.4259 148.791 65.284 148.513C64.7778 147.526 64.0594 146.738 63.1225 146.172C62.4748 145.785 61.7925 145.448 61.1029 145.145C60.6102 144.93 60.1029 144.719 59.5342 144.72C58.8728 144.723 58.2079 144.712 57.5466 144.685C56.8572 144.653 56.2473 144.421 55.7753 143.909C55.1285 143.206 54.5144 142.479 53.8676 141.777C53.0704 140.905 52.1557 140.175 51.0411 139.791C50.9948 139.777 50.9513 139.758 50.9095 139.746C49.9911 139.368 49.0315 139.124 48.0582 138.935C47.9301 138.905 47.8021 138.875 47.6787 138.848C46.2841 138.53 44.8775 138.641 43.4757 139.058C43.3711 139.092 43.2693 139.122 43.1647 139.157C43.1211 139.169 43.0774 139.182 43.0356 139.202L43.0283 139.204C42.2091 139.471 41.4324 139.832 40.6791 140.257C40.4635 140.379 40.2524 140.503 40.0431 140.635C39.2115 141.154 38.4233 141.723 37.6858 142.372C37.3708 142.646 37.0694 142.927 36.7716 143.223C35.5538 144.441 34.4848 145.79 33.6714 147.325C33.0662 148.467 32.657 149.679 32.5429 150.966C32.3555 153.165 34.0789 154.925 35.874 155.273C36.1073 155.319 36.3353 155.343 36.5614 155.36C36.5587 155.364 36.5559 155.369 36.5532 155.374C36.7376 155.379 36.8693 155.392 37.0001 155.385C38.0304 155.361 39.0167 155.108 39.9671 154.677C40.2227 154.559 40.5046 154.437 40.6977 154.239C41.7708 153.114 42.9832 152.176 44.307 151.392C44.4362 151.315 44.56 151.215 44.6566 151.1C44.7031 151.051 44.745 151 44.7896 150.943C44.8524 150.897 44.9116 150.837 44.9618 150.771C45.0666 150.642 45.1714 150.513 45.2789 150.379C45.8438 149.725 46.4115 149.066 46.9827 148.423C47.9539 147.327 49.0302 146.374 50.3861 145.817C50.5207 145.762 50.694 145.818 50.8476 145.824C50.8091 145.953 50.8132 146.114 50.7303 146.205C50.3066 146.688 49.8902 147.168 49.4312 147.617C48.4085 148.614 47.4991 149.707 46.6467 150.859C46.2155 151.438 45.7907 152.027 45.326 152.581C44.3646 153.732 43.1859 154.601 41.904 155.334C41.6338 155.488 41.3228 155.618 41.1251 155.845C40.4536 156.621 39.9862 157.514 39.7329 158.518C39.3143 160.186 39.6857 161.69 40.486 163.1C41.1887 164.334 42.1327 165.36 43.1713 166.294C43.6009 166.682 44.0615 167.036 44.5465 167.442C44.5763 167.15 44.5896 166.917 44.6193 166.688C44.7548 165.552 45.0919 164.476 45.5779 163.435C45.6372 163.312 45.6432 163.113 45.5863 162.991C45.1537 162.002 44.8084 160.987 44.7421 159.887C44.668 158.674 44.85 157.521 45.5966 156.479C46.3488 155.428 47.3857 154.92 48.5782 154.698C49.5134 154.524 50.4427 154.548 51.3653 154.689C51.5061 154.707 51.6006 154.68 51.6964 154.545C51.9735 154.149 52.3765 153.933 52.8292 153.84C53.4382 153.718 54.0284 153.805 54.614 153.954C55.6953 154.218 56.6432 154.765 57.5792 155.343C58.3048 155.794 58.9593 156.336 59.4817 157.023C59.929 157.61 60.2789 158.261 60.0652 159.061C59.9807 159.385 60.0675 159.581 60.2531 159.814C61.0915 160.886 61.7663 162.053 61.9479 163.467C62.0495 164.265 61.9303 165.037 61.5723 165.773C60.8846 167.184 59.7106 167.991 58.3031 168.481C57.4848 168.767 56.645 168.934 55.79 168.99C55.7091 168.994 55.6036 169.04 55.5489 169.104C55.4378 169.223 55.3665 169.378 55.2581 169.492C54.717 170.084 54.1895 170.683 53.6221 171.247C53.3215 171.548 52.9512 171.77 52.5907 172.049C52.9175 172.174 53.2233 172.294 53.5301 172.401C55.1683 173 56.8406 173.402 58.6195 173.348C59.7524 173.313 60.8142 173.003 61.7871 172.345C62.7253 171.704 63.4043 170.832 63.9184 169.827C64.0243 169.622 64.0822 169.365 64.0737 169.139C64.0191 167.767 64.1243 166.411 64.4257 165.062C64.684 163.902 65.1219 162.809 65.5372 161.702C66.0686 160.289 66.5674 158.87 67.0915 157.459C67.2589 157.012 67.4635 156.574 67.6654 156.141C67.7019 156.067 67.8403 155.963 67.8766 155.984C67.9655 156.029 68.0506 156.123 68.0904 156.222C68.1301 156.32 68.1343 156.449 68.1158 156.565C67.9934 157.531 67.9065 158.499 67.7305 159.453C67.4855 160.747 66.95 161.967 66.4872 163.199C66.4488 163.297 66.4167 163.404 66.4228 163.509C66.4359 163.738 66.4916 163.966 66.4946 164.202C66.5121 165.9 66.2289 167.563 65.6833 169.189C65.6549 169.28 65.6183 169.386 65.6253 169.478C65.7915 170.908 66.1951 172.241 67.1389 173.33C68.3418 174.713 70.7276 175.326 72.5386 174.064C73.6007 173.324 74.438 172.366 75.1276 171.266C76.0525 169.79 76.6862 168.189 77.1329 166.525ZM54.3207 152.817C53.4003 150.788 51.8737 149.881 49.6784 150.08C49.9207 149.461 50.3857 149.148 50.9783 149.023C52.4318 148.705 54.1887 149.757 54.5966 151.187C54.7568 151.748 54.7009 152.284 54.3207 152.817ZM58.4137 150.18C57.9525 150.779 57.3504 151.058 56.6246 151.037C56.4475 151.03 56.2705 150.959 56.0934 150.92C55.6173 150.613 55.5261 150.049 55.9154 149.521C56.3712 148.899 56.9834 148.583 57.7346 148.612C58.1197 148.625 58.4618 148.766 58.6289 149.147C58.7869 149.523 58.6507 149.874 58.4137 150.18ZM61.0578 152.44C61.0977 152.109 61.2259 151.74 61.4201 151.467C61.7638 150.976 62.2699 150.958 62.704 151.348C63.3575 151.934 63.4141 153.25 62.8145 153.953C62.5202 154.295 62.1448 154.369 61.6704 154.102C61.1689 153.755 60.9797 153.14 61.0578 152.44ZM64.541 158.724C63.3702 156.531 62.3008 155.901 59.9113 156.007C60.0541 155.571 60.3483 155.292 60.7248 155.111C61.3434 154.804 61.9829 154.807 62.6065 155.015C63.7129 155.382 64.5597 156.042 64.8636 157.254C64.9922 157.765 64.902 158.256 64.541 158.724Z" fill="white"/>
    <path d="M51.1926 155.679C50.9488 156.865 50.9322 158.025 51.1691 159.186C51.4059 160.347 51.9094 161.308 52.9308 161.917C53.934 162.515 55.0023 162.518 56.1197 162.165C57.2807 161.798 58.3215 161.211 59.2366 160.38C59.2721 160.35 59.3094 160.327 59.3649 160.283C60.1817 161.33 60.8902 162.428 60.9565 163.832C61.0264 165.251 60.3071 166.245 59.1343 166.946C57.9761 167.643 56.71 167.898 55.4044 167.96C53.6591 168.04 51.9791 167.797 50.4359 166.982C49.1749 166.317 48.2309 165.291 47.4391 164.107C46.5875 162.838 45.9724 161.452 45.8102 159.879C45.7286 159.099 45.7933 158.327 46.1295 157.598C46.61 156.567 47.4608 156.015 48.5043 155.758C49.3906 155.542 50.2754 155.56 51.1926 155.679ZM48.2836 157.502C48.527 157.541 48.7212 157.602 48.9139 157.594C49.221 157.575 49.397 157.291 49.3351 156.99C49.2454 156.558 48.6777 156.18 48.2468 156.266C47.9387 156.329 47.7518 156.6 47.8691 156.889C47.963 157.114 48.1406 157.299 48.2836 157.502ZM46.4951 160.275C46.6739 160.321 46.8073 160.373 46.9435 160.388C47.4022 160.432 47.6757 160.052 47.476 159.634C47.3034 159.262 46.9924 159.057 46.5891 159.033C46.1431 159.009 45.8895 159.407 46.0984 159.799C46.1996 159.99 46.3755 160.136 46.4951 160.275ZM57.7394 166.786C57.9619 166.819 58.1788 166.894 58.4005 166.876C58.8221 166.848 59.0266 166.441 58.7904 166.096C58.6691 165.919 58.4697 165.772 58.2727 165.684C57.8817 165.502 57.5035 165.613 57.3628 165.898C57.2322 166.177 57.3967 166.531 57.7394 166.786ZM59.2695 163.832C59.4875 163.863 59.7117 163.935 59.9288 163.915C60.3368 163.879 60.5313 163.479 60.3015 163.144C60.182 162.974 60.0016 162.825 59.8147 162.73C59.4364 162.537 59.0155 162.648 58.8776 162.929C58.7369 163.214 58.8996 163.561 59.2695 163.832ZM47.1534 158.632C47.3358 158.693 47.4501 158.746 47.5673 158.763C47.7961 158.807 48.0142 158.775 48.1547 158.552C48.2915 158.347 48.2539 158.129 48.1308 157.944C47.9299 157.632 47.6461 157.443 47.2709 157.423C46.8458 157.405 46.596 157.754 46.7767 158.142C46.8752 158.338 47.0501 158.496 47.1534 158.632ZM59.4746 164.272C59.2512 164.251 59.0097 164.187 58.7725 164.221C58.4445 164.266 58.291 164.594 58.4119 164.898C58.5708 165.293 59.137 165.569 59.5488 165.453C59.8879 165.358 60.0449 165.044 59.8768 164.738C59.78 164.581 59.6286 164.456 59.4746 164.272Z" fill="white"/>
    <path d="M47.7765 171.724C47.0364 171.246 46.5141 170.894 46.1375 170.373C45.5147 169.514 45.5562 168.552 46.2717 167.637C46.6746 167.118 47.1698 166.721 47.7555 166.439C47.9084 166.363 48.0083 166.358 48.1451 166.487C49.1546 167.494 50.3574 168.176 51.7327 168.559C51.8044 168.581 51.8996 168.668 51.904 168.733C52.0023 169.726 51.8227 170.665 51.1865 171.474C50.6579 172.149 49.9506 172.347 49.1816 172.181C48.615 172.063 48.086 171.827 47.7765 171.724Z" fill="white"/>
    </g>
    <path d="M27.7117 147.061C28.1628 146.03 28.6462 145.015 29.1939 144.032C29.0328 144.306 28.8878 144.596 28.7267 144.87C30.0962 142.421 31.7718 140.149 33.7213 138.119C33.4957 138.345 33.2863 138.57 33.0607 138.796C34.978 136.798 37.153 135.058 39.5053 133.608C39.2314 133.769 38.9736 133.93 38.6997 134.108C41.1164 132.625 43.7104 131.465 46.4171 130.66C46.111 130.756 45.8048 130.837 45.4987 130.934C48.2699 130.112 51.1538 129.645 54.0378 129.564C53.6994 129.58 53.3772 129.58 53.0389 129.596C55.9389 129.532 58.839 129.838 61.6585 130.531C61.3363 130.45 61.014 130.37 60.6918 130.289C63.5274 130.998 66.2502 132.061 68.7958 133.479C68.522 133.318 68.2319 133.173 67.9581 133.012C70.407 134.381 72.6787 136.057 74.7087 138.006C74.4832 137.781 74.2576 137.571 74.0321 137.346C76.0299 139.263 77.7699 141.438 79.22 143.79C79.0588 143.517 78.8977 143.259 78.7205 142.985C80.2027 145.402 81.3628 147.996 82.1683 150.702C82.0717 150.396 81.9911 150.09 81.8944 149.784C82.7161 152.555 83.1834 155.439 83.2639 158.323C83.2478 157.985 83.2478 157.662 83.2317 157.324C83.2961 160.224 82.99 163.124 82.2972 165.944C82.3778 165.621 82.4583 165.299 82.5389 164.977C81.83 167.813 80.7666 170.535 79.3488 173.081C79.51 172.807 79.655 172.517 79.8161 172.243C78.4466 174.692 76.771 176.964 74.8215 178.994C75.0471 178.768 75.2565 178.543 75.4821 178.317C73.5648 180.315 71.3898 182.055 69.0375 183.505C69.3114 183.344 69.5692 183.183 69.8431 183.006C67.4264 184.488 64.8324 185.648 62.1257 186.454C62.4318 186.357 62.7379 186.276 63.0441 186.18C60.2729 187.001 57.389 187.469 54.505 187.549C54.8433 187.533 55.1656 187.533 55.5039 187.517C52.6039 187.581 49.7038 187.275 46.8843 186.582C47.2065 186.663 47.5288 186.744 47.851 186.824C45.0154 186.115 42.2925 185.052 39.7469 183.634C40.0208 183.795 40.3108 183.94 40.5847 184.101C38.1358 182.732 35.8641 181.056 33.834 179.107C34.0596 179.332 34.2852 179.542 34.5107 179.767C32.5129 177.85 30.7729 175.675 29.3228 173.323C29.484 173.597 29.6451 173.854 29.8223 174.128C28.34 171.712 27.18 169.118 26.3744 166.411C26.4711 166.717 26.5517 167.023 26.6483 167.329C25.8267 164.558 25.3594 161.674 25.2789 158.79C25.295 159.129 25.295 159.451 25.3111 159.789C25.2466 156.889 25.5528 153.989 26.2456 151.17C26.165 151.492 26.0844 151.814 26.0039 152.136C26.4389 150.412 27.0028 148.721 27.7117 147.061C28.0823 146.191 28.0339 145.047 27.6473 144.193C27.2767 143.388 26.4872 142.566 25.6333 142.26C24.715 141.938 23.6516 141.873 22.7655 142.324C21.8955 142.759 21.2188 143.42 20.8321 144.338C20.1393 145.949 19.5754 147.609 19.1565 149.301C18.6732 151.25 18.2543 153.2 18.0771 155.214C17.8998 157.195 17.8998 159.193 18.0287 161.175C18.1254 162.834 18.3671 164.478 18.7215 166.089C19.4788 169.585 20.7193 173.017 22.4755 176.142C23.4261 177.834 24.4733 179.477 25.6655 181.008C26.8739 182.555 28.2273 183.956 29.6612 185.294C32.3679 187.855 35.5257 189.901 38.8769 191.496C42.2764 193.124 45.9982 194.171 49.736 194.654C51.5566 194.896 53.3772 194.944 55.2139 194.896C57.0345 194.848 58.8229 194.703 60.6112 194.38C64.1235 193.752 67.6036 192.608 70.7776 190.965C73.9676 189.321 76.9805 187.227 79.5422 184.714C80.9439 183.328 82.2811 181.862 83.4573 180.283C84.6656 178.672 85.6806 176.932 86.6312 175.143C88.3874 171.776 89.5474 168.103 90.1757 164.365C90.7719 160.772 90.788 157.05 90.2724 153.457C90.0468 151.814 89.6763 150.203 89.209 148.624C88.6612 146.755 88.0329 144.934 87.1951 143.178C85.6645 139.94 83.6667 136.863 81.25 134.22C78.7527 131.497 75.8849 129.097 72.6787 127.26C70.8903 126.245 69.0697 125.311 67.1525 124.586C65.2513 123.861 63.2696 123.329 61.2879 122.926C57.7112 122.185 53.9894 122.072 50.3483 122.443C46.7876 122.813 43.2431 123.764 39.9564 125.166C38.168 125.923 36.4924 126.873 34.8329 127.889C33.4151 128.759 32.0779 129.725 30.8051 130.805C28.0178 133.173 25.5205 135.976 23.5872 139.102C22.5399 140.778 21.6055 142.534 20.816 144.354C20.4454 145.224 20.4938 146.384 20.8804 147.222C21.251 148.028 22.0405 148.849 22.8944 149.156C23.8127 149.478 24.8761 149.542 25.7622 149.091C26.6483 148.64 27.3089 147.979 27.7117 147.061Z" fill="black"/>
    <path d="M44.951 118.754C45.1927 119.156 45.2088 119.527 45.096 119.849C44.9671 120.187 44.7093 120.477 44.371 120.751C44.1938 120.88 44.0165 121.009 43.8071 121.138C43.6137 121.251 43.4043 121.38 43.1787 121.476C42.9693 121.589 42.7437 121.67 42.5343 121.766C42.3248 121.863 42.1154 121.944 41.9221 122.024C40.8587 122.427 39.7792 122.846 38.7159 123.297C37.6525 123.748 36.5731 124.231 35.5419 124.779C34.4947 125.311 33.4635 125.891 32.4646 126.535C31.4657 127.18 30.5152 127.857 29.6129 128.614C26.2456 131.417 23.2972 134.752 20.8966 138.426C20.4455 139.102 19.9299 140.101 19.366 140.955C18.786 141.809 18.1577 142.534 17.3843 142.615C16.3049 142.743 15.596 142.292 15.306 141.487C15.161 141.084 15.1287 140.601 15.2093 140.053C15.2415 139.779 15.3221 139.505 15.4187 139.215C15.5154 138.925 15.6282 138.635 15.7893 138.345C18.9955 132.271 23.5872 126.841 29.2907 122.765C32.1263 120.735 35.2519 119.027 38.5709 117.867C39.6987 117.481 41.0198 117.255 42.2121 117.384C42.8082 117.432 43.356 117.577 43.8232 117.787C44.2904 117.996 44.6771 118.302 44.9349 118.673C44.9027 118.705 44.9349 118.721 44.951 118.754Z" fill="white"/>
    <path d="M44.371 118.995C44.5965 119.398 44.5321 119.768 44.3226 120.075C44.2098 120.236 44.0648 120.381 43.8876 120.51C43.7909 120.574 43.6943 120.638 43.5976 120.703C43.5009 120.767 43.3882 120.832 43.2754 120.896C43.0498 121.025 42.8082 121.138 42.5665 121.235C42.3248 121.347 42.067 121.46 41.8254 121.557C41.3259 121.75 40.8748 121.927 40.5203 122.056C38.0553 123.039 35.5902 124.102 33.2863 125.488C30.9018 126.89 28.6945 128.63 26.6967 130.579C25.6978 131.562 24.7472 132.577 23.845 133.657C22.9428 134.736 22.105 135.848 21.2994 136.992C20.7355 137.781 20.236 138.603 19.7366 139.441C19.511 139.827 19.2533 140.294 18.9632 140.729C18.6894 141.164 18.351 141.551 17.9804 141.809C17.2071 142.308 16.176 142.018 15.8215 141.293C15.3382 140.311 15.9021 138.989 16.5304 137.878C18.0288 135.155 19.801 132.577 21.8311 130.209C23.8611 127.84 26.1489 125.665 28.6623 123.78C31.4335 121.702 34.4624 119.93 37.7169 118.657C38.8609 118.206 40.2464 117.851 41.4709 117.819C42.0992 117.819 42.6793 117.883 43.1626 118.077C43.6782 118.286 44.081 118.576 44.371 118.995C44.7093 119.511 45.8532 119.027 45.531 118.512C45.3054 118.157 44.9832 117.851 44.5965 117.593C44.4032 117.465 44.1937 117.352 43.9521 117.271C43.7265 117.175 43.4848 117.11 43.227 117.046C42.212 116.788 41.0037 116.82 39.8598 117.03C38.4097 117.32 37.008 117.916 35.6547 118.528C33.7858 119.366 32.0135 120.381 30.3057 121.492C26.9062 123.732 23.8611 126.455 21.235 129.5C20.0105 130.918 18.8666 132.432 17.8193 133.979C16.7882 135.509 15.6282 137.201 14.9837 138.925C14.8871 139.167 14.8226 139.408 14.7582 139.65C14.7098 139.892 14.6615 140.133 14.6454 140.359C14.6293 140.584 14.6293 140.81 14.6454 141.019C14.6615 141.229 14.6937 141.438 14.7582 141.632C14.9676 142.389 15.451 142.937 16.176 143.146C17.0782 143.404 17.8193 143.13 18.496 142.598C18.8344 142.324 19.1405 141.986 19.4466 141.599C19.5916 141.406 19.7366 141.197 19.8816 140.987C20.0266 140.778 20.1716 140.552 20.3005 140.327C21.9116 137.604 23.7967 135.026 25.9556 132.69C28.0984 130.354 30.5312 128.291 33.2057 126.632C34.6719 125.714 36.2669 124.94 37.8619 124.247C39.457 123.539 41.0681 122.91 42.647 122.25C42.8887 122.153 43.1143 122.056 43.3398 121.927C43.5654 121.815 43.7909 121.686 44.0004 121.573C44.4193 121.331 44.7899 121.041 45.096 120.735C45.6921 120.139 45.966 119.382 45.5471 118.528C45.2571 117.98 44.0648 118.463 44.371 118.995Z" fill="white"/>
    <path d="M82.6356 189.177C83.4734 189.515 83.7151 190.176 83.6023 190.917C83.5379 191.287 83.3929 191.658 83.1995 192.028C83.0062 192.383 82.7645 192.705 82.539 192.995C82.3778 193.188 82.2167 193.366 82.0556 193.543C81.8945 193.72 81.7173 193.897 81.54 194.058C81.1856 194.397 80.815 194.719 80.4445 195.041C80.0578 195.347 79.6711 195.654 79.2683 195.927C78.8655 196.201 78.4628 196.491 78.0439 196.733C76.3844 197.764 74.6605 198.618 72.9688 199.44C72.5821 199.633 72.1793 199.81 71.7765 199.988C71.3737 200.165 70.9709 200.326 70.5682 200.503L69.3598 200.986L68.1031 201.438L67.4425 201.647L66.8142 201.824C66.3953 201.937 65.9603 202.05 65.5414 202.163C64.6875 202.372 63.8175 202.549 62.9474 202.694C62.3191 202.807 61.433 203.016 60.5952 203.033C59.7574 203.049 59.0001 202.855 58.6457 202.211C58.1462 201.325 58.2107 200.487 58.5651 199.843C58.9357 199.198 59.6124 198.763 60.4502 198.602C61.5457 198.409 62.6252 198.151 63.6886 197.861C64.2202 197.716 64.7519 197.555 65.2836 197.394C65.5414 197.313 65.8153 197.232 66.0731 197.136L66.4597 197.007L66.637 196.942L66.8303 196.862L67.5875 196.556L68.3609 196.234C68.6187 196.121 68.8764 196.008 69.1181 195.895C69.3759 195.782 69.6337 195.67 69.8754 195.541C70.8743 195.074 71.8571 194.558 72.8076 194.026C73.7582 193.478 74.6605 192.882 75.5466 192.27C76.4327 191.642 77.2544 190.965 78.0761 190.288C78.3339 190.047 78.6722 189.837 79.0105 189.628C79.3489 189.418 79.7356 189.273 80.1061 189.145C80.4928 189.016 80.8956 188.935 81.3145 188.919C81.7173 188.903 82.1523 188.951 82.5551 189.112C82.5712 189.161 82.6034 189.177 82.6356 189.177Z" fill="white"/>
    <path d="M82.4583 189.612C82.8611 189.805 83.0706 190.095 83.135 190.433C83.1995 190.772 83.1028 191.142 82.9256 191.529C82.5711 192.302 81.8622 193.06 81.4272 193.478C79.8805 195.057 78.0438 196.25 76.1588 197.281C75.9171 197.426 75.6754 197.539 75.4338 197.667C75.1921 197.796 74.9504 197.925 74.7087 198.054C74.2093 198.296 73.726 198.554 73.2426 198.779C72.2598 199.262 71.2609 199.681 70.262 200.1C69.7464 200.294 69.2631 200.503 68.7314 200.696L67.9581 200.986C67.6681 201.083 67.4103 201.164 67.1525 201.244C66.1052 201.566 65.0419 201.84 63.9624 202.05C63.2213 202.195 62.4641 202.34 61.7229 202.469C61.0301 202.581 60.0473 202.759 59.419 202.372C58.7584 201.969 58.5812 200.922 58.8712 200.261C59.274 199.359 60.1762 199.166 61.014 198.989C62.0129 198.795 63.0119 198.554 63.9947 198.28C64.478 198.151 64.9774 198.006 65.4608 197.845L66.1858 197.603L66.5403 197.474C66.653 197.426 66.7497 197.41 66.8786 197.345C67.7969 196.975 68.7636 196.572 69.6981 196.153C70.6164 195.718 71.5348 195.267 72.4209 194.783C72.9204 194.526 73.3876 194.236 73.871 193.946C74.3382 193.64 74.8054 193.366 75.2565 193.043C75.7238 192.737 76.1588 192.399 76.5938 192.093C77.0288 191.755 77.4638 191.432 77.8827 191.062C78.0277 190.933 78.1888 190.82 78.3499 190.691C78.511 190.562 78.6722 190.433 78.8494 190.321C79.2038 190.095 79.5583 189.87 79.945 189.692C80.0416 189.644 80.1383 189.612 80.235 189.58C80.3316 189.547 80.4283 189.515 80.525 189.483C80.7183 189.435 80.9278 189.386 81.1372 189.37C81.3467 189.354 81.5722 189.37 81.7817 189.402C82.0072 189.467 82.2328 189.515 82.4583 189.612C83.0061 189.837 83.3767 188.951 82.7967 188.758C82.0072 188.468 81.2178 188.468 80.4766 188.613C80.1061 188.677 79.7516 188.79 79.4133 188.935C79.0749 189.064 78.7527 189.241 78.4627 189.435C77.7055 189.902 77.0932 190.546 76.3843 191.078C75.4338 191.819 74.4187 192.528 73.3715 193.172C72.3243 193.817 71.2126 194.413 70.0848 194.961C69.5209 195.235 68.9409 195.492 68.3608 195.75L67.4908 196.121L66.6369 196.459C66.5725 196.491 66.4919 196.524 66.4436 196.54L66.2664 196.604L65.8475 196.749C65.5736 196.846 65.2997 196.942 65.0097 197.023C64.4458 197.2 63.8819 197.361 63.318 197.506C62.1902 197.812 60.9335 197.925 59.8218 198.312C59.1934 198.537 58.6457 198.94 58.2751 199.488C57.9045 200.036 57.7112 200.696 57.8401 201.438C57.9851 202.34 58.4523 202.904 59.1129 203.21C59.7735 203.516 60.6113 203.564 61.4813 203.451C62.7702 203.274 64.043 203.033 65.3158 202.726C65.9441 202.565 66.5725 202.404 67.2008 202.211L67.6681 202.066L68.1514 201.905C68.232 201.873 68.3125 201.856 68.3931 201.824L68.6186 201.744L69.0859 201.566C71.5026 200.664 73.8387 199.601 76.1427 198.36C77.4155 197.667 78.7205 196.926 79.945 196.04C81.1694 195.154 82.2972 194.107 83.1834 192.882C83.4572 192.528 83.6667 192.125 83.8278 191.722C83.9084 191.529 83.9728 191.32 84.005 191.126C84.0373 190.933 84.0534 190.723 84.0534 190.546C84.0373 189.789 83.6667 189.161 82.7967 188.774C82.2489 188.516 81.9267 189.338 82.4583 189.612Z" fill="white"/>
    </g>
    <g clip-path="url(#coin1_clip2)">
    <path d="M163.404 81.8442C163.509 82.0909 163.641 82.3287 163.8 82.5577C163.932 82.9805 164.081 83.3945 164.266 83.7997C164.618 84.5749 165.084 85.3236 165.612 85.993C166.228 86.7594 166.959 87.3848 167.751 87.9573C169.133 88.9527 170.593 89.8864 172.169 90.5382C173.04 90.8993 173.973 91.1812 174.914 91.3133C175.328 91.375 175.75 91.4014 176.173 91.3926C176.938 91.3838 177.651 91.375 178.382 91.1107C179.886 90.5734 181.295 89.7807 182.65 88.9262C185.325 87.2438 187.613 85.0417 189.769 82.7515C191.89 80.4966 193.782 78.0126 195.595 75.511C197.373 73.0622 199.036 70.5254 200.549 67.9005C202.16 65.0994 203.63 62.219 204.862 59.2242C205.451 57.7884 205.988 56.3262 206.481 54.8464C207.114 52.9614 207.554 51.0059 207.343 48.9976C207.229 47.967 206.85 46.7426 206.164 45.9411C205.68 45.3773 205.178 44.84 204.642 44.3291C203.445 43.1664 202.178 42.083 200.778 41.1581C200.47 40.9555 200.153 40.7529 199.828 40.5679C199.353 40.2948 198.886 39.9954 198.385 39.784C197.628 39.4668 196.845 39.1409 196.061 38.9031C195.445 38.7181 194.9 38.6389 194.301 38.6565C193.571 38.4098 192.761 38.3746 191.978 38.5596C190.324 38.9472 188.854 39.8456 187.499 40.8322C186.152 41.8099 184.911 42.9198 183.715 44.0825C182.183 45.5799 180.723 47.1566 179.332 48.7862C177.898 50.4686 176.534 52.2038 175.222 53.9832C173.867 55.8241 172.573 57.7091 171.341 59.6382C170.048 61.6641 168.833 63.7429 167.698 65.8569C167.205 66.7818 166.73 67.7155 166.272 68.658C165.322 70.6311 164.451 72.657 163.817 74.7535C163.536 75.6871 163.289 76.6473 163.122 77.6074C162.99 78.409 162.955 79.1929 162.99 79.9945C163.016 80.6375 163.157 81.2717 163.404 81.8442Z" fill="#F9B74B"/>
    <path d="M159.602 84.0642C159.716 84.3108 159.848 84.5487 159.998 84.7777C159.848 84.4253 159.699 84.073 159.558 83.7295C160.209 85.7995 161.221 87.57 162.603 89.2259C163.72 90.556 165.216 91.5778 166.651 92.5379C169.661 94.5374 173.154 95.9468 176.815 95.7882C177.898 95.7442 178.989 95.5944 180.001 95.1981C180.995 94.8017 181.99 94.3789 182.931 93.8768C184.207 93.1986 185.431 92.4234 186.583 91.5514C189.162 89.6135 191.503 87.429 193.659 85.0243C195.921 82.4963 197.962 79.7569 199.925 76.991C201.729 74.4542 203.401 71.8293 204.914 69.1163C206.586 66.1302 208.038 63.0473 209.306 59.8674C210.555 56.7316 211.796 53.4373 211.779 50.0108C211.77 48.0289 211.339 45.862 210.265 44.1708C209.35 42.7174 208.047 41.4578 206.78 40.3127C205.46 39.1235 204.043 38.0049 202.53 37.0624C200.972 36.0934 199.291 35.3359 197.549 34.7634C196.51 34.4198 195.393 34.2525 194.301 34.2525C194.688 34.3053 195.085 34.3582 195.472 34.411C192.717 33.539 189.866 34.3582 187.411 35.6706C185.545 36.666 183.838 38.0489 182.254 39.4407C179.429 41.9246 176.903 44.7786 174.545 47.7118C169.581 53.9041 165.093 60.6161 161.82 67.8655C160.816 70.0764 159.884 72.3402 159.267 74.7008C158.915 76.0397 158.669 77.4314 158.599 78.8232C158.572 79.3781 158.572 79.9419 158.634 80.488C158.731 81.3512 158.827 82.2144 159.162 83.016C159.294 83.5885 159.558 84.0906 159.945 84.5134C160.253 84.9891 160.667 85.3679 161.177 85.6497C162.119 86.2047 163.509 86.4337 164.565 86.0901C165.63 85.7466 166.66 85.086 167.197 84.0642C167.707 83.0865 168.077 81.7388 167.637 80.673C167.461 80.2325 167.337 79.7833 167.267 79.3076C167.32 79.6952 167.373 80.0916 167.425 80.4792C167.329 79.6424 167.364 78.7879 167.469 77.96C167.417 78.3475 167.364 78.7439 167.311 79.1315C167.645 76.806 168.446 74.5423 169.361 72.3842C169.212 72.7365 169.062 73.0889 168.921 73.4324C171.165 68.1562 174.149 63.1618 177.414 58.4581C178.355 57.1016 179.341 55.7627 180.353 54.4502C180.124 54.7497 179.895 55.0404 179.666 55.3399C182.703 51.4113 186.029 47.5004 189.963 44.435C189.664 44.6641 189.373 44.8931 189.074 45.1221C190.218 44.2413 191.415 43.4221 192.744 42.8407C192.392 42.9905 192.04 43.1402 191.696 43.2811C192.312 43.0257 192.955 42.8143 193.624 42.7174C193.236 42.7702 192.84 42.8231 192.453 42.8759C192.823 42.8407 193.184 42.8407 193.553 42.8848C193.166 42.8319 192.77 42.7791 192.383 42.7262C192.84 42.7967 193.263 42.92 193.72 42.9816C194.187 43.0433 194.644 43.0521 195.102 43.0962C194.715 43.0433 194.319 42.9905 193.932 42.9376C195.023 43.0873 196.061 43.5454 197.065 43.9682C196.713 43.8184 196.361 43.6687 196.017 43.5278C197.425 44.1267 198.754 45.034 199.96 45.9677C199.661 45.7387 199.37 45.5097 199.071 45.2806C200.541 46.4257 201.949 47.7206 203.137 49.1652C202.908 48.8657 202.679 48.575 202.45 48.2755C202.706 48.6102 202.908 48.9626 203.066 49.3501C202.917 48.9978 202.767 48.6455 202.626 48.3019C202.855 48.8657 203.005 49.447 203.084 50.0548C203.031 49.6673 202.978 49.2709 202.926 48.8833C203.031 49.8082 203.005 50.7331 202.882 51.6491C202.934 51.2616 202.987 50.8652 203.04 50.4776C202.838 51.8782 202.406 53.2171 201.949 54.5471C201.482 55.886 200.981 57.2073 200.426 58.5197C200.576 58.1674 200.725 57.8151 200.866 57.4715C198.649 62.7214 195.762 67.6805 192.48 72.3314C191.547 73.6438 190.596 74.9475 189.611 76.2159C189.84 75.9164 190.068 75.6257 190.297 75.3262C187.736 78.6382 184.876 81.8092 181.567 84.3901C181.867 84.1611 182.157 83.9321 182.456 83.7031C180.749 85.0155 178.892 86.1782 176.912 87.015C177.264 86.8653 177.616 86.7155 177.959 86.5746C177.414 86.8036 176.868 86.9974 176.278 87.0767C176.666 87.0238 177.062 86.971 177.449 86.9181C176.613 87.015 175.75 87.015 174.914 86.9005C175.302 86.9534 175.698 87.0062 176.085 87.0591C175.143 86.9181 174.228 86.6451 173.339 86.2839C173.691 86.4337 174.043 86.5834 174.386 86.7244C172.67 86.0021 171.077 84.9891 169.599 83.8616C169.898 84.0906 170.189 84.3196 170.488 84.5487C169.801 84.0114 169.168 83.4212 168.622 82.7429C168.851 83.0424 169.08 83.3331 169.309 83.6326C168.745 82.9015 168.279 82.1087 167.918 81.2543C168.068 81.6066 168.217 81.959 168.358 82.3025C168.235 81.9942 168.129 81.6771 168.024 81.3688C167.804 80.7434 167.452 80.2061 167.179 79.6071C166.748 78.6646 165.507 77.8454 164.548 77.5812C163.492 77.2905 162.092 77.4226 161.16 78.0216C160.218 78.6294 159.391 79.5279 159.135 80.6553C159.083 81.0429 159.03 81.4393 158.977 81.8269C159.003 82.6372 159.206 83.3771 159.602 84.0642Z" fill="white"/>
    <path d="M167.188 74.947C170.303 68.8868 174.474 63.4696 178.426 57.9203C178.954 57.198 179.49 56.4845 180.027 55.7622C182.72 52.1948 185.536 48.7243 188.581 45.4651C189.127 44.9102 189.655 44.3905 190.165 43.9148C190.535 43.3159 190.948 42.8138 191.406 42.3998C191.925 41.8889 192.576 41.4221 193.272 41.1578C193.967 40.8936 194.706 40.8231 195.41 41.0873C195.85 41.2547 196.299 41.4132 196.748 41.5806C197.082 41.7039 197.408 41.8449 197.742 41.9858C200.347 43.3775 202.662 45.3066 204.536 47.5351C204.703 47.8698 204.853 48.2134 204.967 48.5745C205.064 48.9797 205.117 49.3849 205.134 49.7989C205.205 51.4461 204.703 53.1373 204.122 54.7316C200.901 64.2271 195.533 72.3573 189.312 79.9149C188.458 80.8751 187.578 81.8087 186.68 82.7072C183.961 85.4026 180.978 87.7368 177.422 89.0493C176.85 89.1374 176.287 89.1462 175.733 89.1109C175.39 89.0845 175.046 89.0405 174.712 88.97C172.336 88.4151 170.241 86.9705 168.349 85.5523C168.156 85.385 167.98 85.2088 167.804 85.0238C167.628 84.8388 167.469 84.6451 167.311 84.4513C165.762 82.4518 165.146 79.73 166.14 77.2724C166.378 76.5237 166.721 75.7485 167.188 74.947Z" fill="#E2860C"/>
    <path d="M169.3 75.7838C169.599 75.2024 169.907 74.6299 170.224 74.0661C170.127 74.2423 170.03 74.4097 169.933 74.5858C172.107 70.6925 174.668 67.037 177.264 63.4256C179.895 59.7701 182.518 56.1234 185.36 52.6264C186.979 50.6357 188.652 48.6978 190.403 46.8216C190.271 46.9626 190.13 47.1035 189.998 47.2445C190.464 46.7688 190.94 46.302 191.415 45.8439C191.635 45.6325 191.881 45.4211 192.048 45.1569C192.136 45.0159 192.224 44.8838 192.321 44.7517C192.506 44.4962 192.708 44.2672 192.92 44.0382C192.788 44.1791 192.647 44.3201 192.515 44.461C192.92 44.047 193.36 43.6594 193.852 43.3511C193.685 43.448 193.518 43.5537 193.36 43.6506C193.703 43.4392 194.055 43.2718 194.433 43.1485C194.248 43.2014 194.055 43.263 193.87 43.3159C194.152 43.2366 194.433 43.1838 194.724 43.1661C194.521 43.175 194.319 43.175 194.116 43.1838C194.381 43.175 194.636 43.2014 194.891 43.263C194.697 43.2102 194.495 43.1661 194.301 43.1133C194.794 43.2542 195.278 43.4568 195.762 43.6418C196.255 43.8268 196.739 44.0118 197.197 44.2672C197.021 44.1703 196.853 44.0734 196.677 43.9765C198.429 44.9543 200.039 46.1698 201.482 47.5527C201.342 47.4206 201.201 47.2797 201.06 47.1476C201.65 47.7201 202.213 48.3191 202.75 48.9533C202.653 48.7859 202.547 48.6186 202.45 48.46C202.618 48.7947 202.767 49.1383 202.882 49.4994C202.829 49.3144 202.767 49.1206 202.714 48.9357C202.82 49.3673 202.873 49.8077 202.89 50.2481C202.882 50.0455 202.882 49.8429 202.873 49.6403C202.89 50.5476 202.758 51.4373 202.538 52.3093C202.591 52.1155 202.635 51.9129 202.688 51.7191C202.45 52.6616 202.125 53.5689 201.799 54.4762C201.491 55.3394 201.174 56.2026 200.831 57.0571C200.153 58.7395 199.405 60.3955 198.596 62.025C198.138 62.9323 197.663 63.8307 197.17 64.7204C197.267 64.5442 197.364 64.3769 197.461 64.2007C194.953 68.7106 191.969 72.9563 188.748 76.9817C187.789 78.1885 186.786 79.3336 185.721 80.4523C185.853 80.3113 185.994 80.1704 186.126 80.0295C184.146 82.0906 182.007 84.0197 179.561 85.5171C179.728 85.4202 179.895 85.3145 180.054 85.2176C178.918 85.9047 177.73 86.4949 176.49 86.9617C176.674 86.9088 176.868 86.8472 177.053 86.7943C176.736 86.8384 176.428 86.8648 176.102 86.8736C176.305 86.8648 176.507 86.8648 176.71 86.856C176.094 86.8648 175.46 86.8208 174.853 86.6798C175.046 86.7327 175.249 86.7767 175.442 86.8296C174.378 86.5653 173.366 86.1249 172.397 85.5964C172.573 85.6933 172.741 85.7902 172.917 85.8871C172.292 85.5435 171.693 85.156 171.104 84.7508C170.523 84.3544 169.916 83.9492 169.405 83.4648C169.546 83.5969 169.687 83.7378 169.828 83.8699C169.353 83.4031 168.93 82.8834 168.578 82.3108C168.675 82.4782 168.781 82.6456 168.877 82.8041C168.517 82.2228 168.235 81.5974 168.033 80.9455C168.085 81.1305 168.147 81.3243 168.2 81.5093C168.015 80.8751 167.901 80.2321 167.883 79.5714C167.892 79.774 167.892 79.9766 167.901 80.1792C167.892 79.589 167.953 79.0165 168.085 78.4439C168.033 78.6377 167.989 78.8403 167.936 79.0341C168.2 77.9683 168.657 76.9201 169.185 75.9512C169.089 76.1273 168.992 76.2947 168.895 76.4708C168.93 76.4092 168.957 76.3563 168.992 76.3035C169.185 76.0657 169.309 75.7926 169.353 75.4931C169.449 75.2024 169.476 74.8941 169.414 74.5858C169.326 74.0485 168.983 73.4319 168.525 73.1236C168.033 72.7889 167.408 72.5775 166.809 72.7096C166.273 72.8242 165.63 73.0972 165.348 73.5993C164.442 75.1936 163.624 76.9377 163.421 78.7875C163.236 80.4875 163.544 82.2492 164.257 83.7995C164.609 84.5746 165.076 85.3233 165.604 85.9928C166.22 86.7591 166.95 87.3845 167.742 87.9571C169.124 88.9524 170.585 89.8861 172.16 90.5379C173.031 90.8991 173.964 91.1809 174.906 91.3131C175.319 91.3747 175.742 91.4012 176.164 91.3923C176.93 91.3835 177.642 91.3747 178.373 91.1105C179.878 90.5732 181.286 89.7804 182.641 88.926C185.316 87.2436 187.604 85.0415 189.76 82.7513C191.881 80.4963 193.773 78.0123 195.586 75.5107C197.364 73.062 199.027 70.5252 200.541 67.9002C202.151 65.0992 203.621 62.2188 204.853 59.2239C205.442 57.7882 205.979 56.326 206.472 54.8461C207.106 52.9611 207.546 51.0057 207.334 48.9973C207.22 47.9667 206.842 46.7424 206.155 45.9408C205.671 45.3771 205.17 44.8397 204.633 44.3289C203.436 43.1661 202.169 42.0827 200.769 41.1578C200.461 40.9552 200.145 40.7526 199.819 40.5677C199.344 40.2946 198.877 39.9951 198.376 39.7837C197.619 39.4666 196.836 39.1407 196.053 38.9029C195.313 38.6738 194.68 38.6122 193.905 38.6738C193.351 38.7179 192.796 38.8852 192.277 39.0878C191.459 39.4049 190.684 39.9246 190.042 40.5324C189.391 41.149 188.784 41.792 188.308 42.5496C188.44 42.4086 188.581 42.2677 188.713 42.1268C186.742 43.9765 184.947 46.0113 183.204 48.0724C181.55 50.0367 179.957 52.0451 178.408 54.0886C176.877 56.1145 175.407 58.1845 173.92 60.2457C172.459 62.2805 170.998 64.324 169.608 66.4116C167.962 68.8956 166.422 71.45 165.058 74.0926C164.803 74.5858 164.882 75.3698 165.093 75.8631C165.313 76.3652 165.806 76.8672 166.334 77.0522C166.897 77.246 167.549 77.29 168.103 77.017C168.27 76.9201 168.437 76.8144 168.596 76.7175C168.921 76.4708 169.15 76.1626 169.3 75.7838Z" fill="black"/>
    <path d="M167.188 74.947C170.303 68.8868 174.474 63.4696 178.426 57.9203C178.954 57.198 179.49 56.4845 180.027 55.7622C182.72 52.1948 185.536 48.7243 188.581 45.4651C189.127 44.9102 189.655 44.3905 190.165 43.9148C190.535 43.3159 190.948 42.8138 191.406 42.3998C191.925 41.8889 192.576 41.4221 193.272 41.1578C193.967 40.8936 194.706 40.8231 195.41 41.0873C195.85 41.2547 196.299 41.4132 196.748 41.5806C197.082 41.7039 197.408 41.8449 197.742 41.9858C200.347 43.3775 202.662 45.3066 204.536 47.5351C204.703 47.8698 204.853 48.2134 204.967 48.5745C205.064 48.9797 205.117 49.3849 205.134 49.7989C205.205 51.4461 204.703 53.1373 204.122 54.7316C200.901 64.2271 195.533 72.3573 189.312 79.9149C188.458 80.8751 187.578 81.8088 186.68 82.7072C183.961 85.4026 180.978 87.7368 177.422 89.0493C176.85 89.1374 176.287 89.1462 175.733 89.1109C175.39 89.0845 175.046 89.0405 174.712 88.97C172.336 88.4151 170.241 86.9705 168.349 85.5523C168.156 85.385 167.98 85.2088 167.804 85.0238C167.628 84.8389 167.469 84.6451 167.311 84.4513C165.762 82.4518 165.146 79.73 166.14 77.2724C166.378 76.5237 166.721 75.7485 167.188 74.947Z" fill="#E2860C"/>
    <path d="M169.062 75.6954C169.361 75.1141 169.669 74.5415 169.986 73.9778C169.898 74.1275 169.819 74.2861 169.731 74.4358C171.905 70.5425 174.466 66.887 177.062 63.2755C179.693 59.62 182.315 55.9733 185.158 52.4764C186.777 50.4857 188.449 48.5478 190.2 46.6716C190.077 46.7949 189.963 46.9183 189.84 47.0416C190.306 46.5659 190.781 46.0991 191.256 45.641C191.468 45.4384 191.688 45.2447 191.846 45.0068C191.934 44.8659 192.022 44.7338 192.119 44.6016C192.304 44.3462 192.506 44.1172 192.717 43.8882C192.594 44.0115 192.48 44.1348 192.357 44.2581C192.761 43.8441 193.201 43.4565 193.694 43.1483C193.545 43.2363 193.404 43.3244 193.254 43.4213C193.589 43.2099 193.949 43.0426 194.328 42.9192C194.161 42.9721 193.993 43.0161 193.826 43.069C194.108 42.9897 194.389 42.9368 194.68 42.9192C194.495 42.928 194.319 42.928 194.134 42.9368C194.398 42.928 194.653 42.9545 194.909 43.0161C194.733 42.9721 194.557 42.928 194.381 42.884C194.873 43.0249 195.357 43.2275 195.841 43.4125C196.334 43.5975 196.818 43.7825 197.276 44.0379C197.126 43.9498 196.968 43.8705 196.818 43.7825C198.57 44.7602 200.18 45.9758 201.623 47.3587C201.5 47.2354 201.377 47.1209 201.254 46.9975C201.843 47.5701 202.406 48.1691 202.943 48.8033C202.855 48.6535 202.767 48.5126 202.67 48.3628C202.838 48.6976 202.987 49.0411 203.102 49.4022C203.049 49.2349 203.005 49.0675 202.952 48.9002C203.058 49.3318 203.11 49.7722 203.128 50.2126C203.119 50.0276 203.119 49.8515 203.11 49.6665C203.128 50.5738 202.996 51.4634 202.776 52.3355C202.82 52.1593 202.864 51.9831 202.908 51.8069C202.67 52.7494 202.345 53.6567 202.019 54.564C201.711 55.4272 201.394 56.2904 201.051 57.1449C200.374 58.8273 199.626 60.4833 198.816 62.1128C198.358 63.0201 197.883 63.9186 197.39 64.8082C197.478 64.6585 197.557 64.4999 197.645 64.3502C195.137 68.8601 192.154 73.1058 188.933 77.1312C187.974 78.338 186.971 79.4831 185.906 80.6017C186.029 80.4784 186.144 80.3551 186.267 80.2318C184.287 82.293 182.148 84.222 179.702 85.7194C179.851 85.6314 179.992 85.5433 180.142 85.4464C179.007 86.1334 177.818 86.7236 176.578 87.1904C176.745 87.1376 176.912 87.0936 177.079 87.0407C176.762 87.0847 176.454 87.1112 176.129 87.12C176.314 87.1112 176.49 87.1112 176.674 87.1024C176.058 87.1112 175.425 87.0671 174.818 86.9262C174.994 86.9702 175.17 87.0143 175.346 87.0583C174.281 86.7941 173.269 86.3536 172.301 85.8251C172.45 85.9132 172.609 85.9925 172.758 86.0806C172.134 85.737 171.535 85.3495 170.945 84.9443C170.365 84.5479 169.757 84.1427 169.247 83.6583C169.37 83.7816 169.493 83.8961 169.617 84.0194C169.141 83.5526 168.719 83.0329 168.367 82.4603C168.455 82.6101 168.543 82.751 168.64 82.9007C168.279 82.3194 167.997 81.694 167.795 81.0422C167.848 81.2095 167.892 81.3769 167.945 81.5442C167.76 80.91 167.645 80.267 167.628 79.6064C167.637 79.7914 167.637 79.9675 167.645 80.1525C167.637 79.5623 167.698 78.9898 167.83 78.4172C167.786 78.5934 167.742 78.7696 167.698 78.9457C167.962 77.8799 168.42 76.8317 168.948 75.8628C168.86 76.0125 168.781 76.1711 168.693 76.3208C168.728 76.2592 168.754 76.2063 168.789 76.1535C169.071 75.6602 169.256 75.211 169.159 74.6296C169.08 74.1451 168.781 73.6078 168.367 73.326C167.927 73.0265 167.373 72.8415 166.845 72.956C166.369 73.0529 165.797 73.2995 165.542 73.7488C164.653 75.3079 163.861 77.0079 163.668 78.8136C163.483 80.4696 163.791 82.1873 164.486 83.6935C164.829 84.451 165.278 85.1821 165.806 85.8251C166.405 86.5739 167.126 87.1904 167.901 87.7454C169.265 88.7319 170.708 89.648 172.257 90.2998C173.11 90.6522 174.017 90.934 174.932 91.0573C175.346 91.119 175.768 91.1454 176.19 91.1366C176.903 91.1278 177.59 91.119 178.267 90.8812C179.755 90.3527 181.145 89.5687 182.474 88.7319C185.132 87.0583 187.402 84.8738 189.549 82.6012C191.67 80.3463 193.562 77.8623 195.375 75.3607C197.153 72.912 198.816 70.3751 200.33 67.7502C201.931 64.9668 203.383 62.104 204.606 59.1356C205.196 57.6998 205.733 56.2376 206.226 54.7578C206.851 52.9168 207.282 51.0054 207.071 49.0499C206.965 48.0546 206.604 46.883 205.944 46.1079C205.46 45.5441 204.958 45.0068 204.422 44.4959C203.234 43.342 201.993 42.285 200.611 41.3778C199.872 40.8933 199.089 40.3824 198.27 40.0301C197.513 39.713 196.73 39.387 195.947 39.1492C194.741 38.7793 193.545 38.8674 192.374 39.3254C191.582 39.6425 190.816 40.1446 190.2 40.7347C189.567 41.3337 188.977 41.9679 188.511 42.7078C188.634 42.5845 188.748 42.4612 188.872 42.3379C186.918 44.1788 185.14 46.1872 183.407 48.2395C181.752 50.2038 180.159 52.2121 178.611 54.2557C177.079 56.2816 175.61 58.3516 174.122 60.4128C172.662 62.4475 171.201 64.4911 169.81 66.5787C168.173 69.0451 166.642 71.5731 165.287 74.2068C165.058 74.6472 165.129 75.3431 165.322 75.7747C165.525 76.2151 165.956 76.6644 166.422 76.8317C166.924 77.0079 167.505 77.0431 167.989 76.7965C168.508 76.5499 168.807 76.1887 169.062 75.6954Z" fill="black"/>
    <path d="M184.92 64.693C192.71 53.3703 196.8 42.6569 194.054 40.764C191.308 38.8711 182.766 46.5155 174.975 57.8383C167.185 69.161 163.096 79.8743 165.842 81.7672C168.588 83.6601 177.129 76.0157 184.92 64.693Z" fill="#F9B74B"/>
    <path d="M170.039 70.1642C170.673 68.8429 171.35 67.5481 172.063 66.2708C171.975 66.4206 171.896 66.5791 171.808 66.7289C173.313 64.0247 174.967 61.3998 176.727 58.8541C178.452 56.3525 180.292 53.9302 182.245 51.6048C183.248 50.4156 184.287 49.2529 185.369 48.1254C185.246 48.2488 185.132 48.3721 185.008 48.4954C186.513 46.9363 188.089 45.4301 189.84 44.1352C190.289 43.8005 190.746 43.4922 191.221 43.1927C191.072 43.2808 190.931 43.3689 190.781 43.4658C191.433 43.0694 192.119 42.6994 192.858 42.4792C192.691 42.5321 192.524 42.5761 192.357 42.629C192.665 42.5409 192.981 42.4704 193.298 42.4616C193.113 42.4704 192.937 42.4704 192.753 42.4792C192.937 42.4792 193.131 42.488 193.316 42.5321C193.14 42.488 192.964 42.444 192.788 42.4C192.929 42.4352 193.061 42.488 193.184 42.5497C193.034 42.4616 192.876 42.3823 192.726 42.2943C192.832 42.3559 192.937 42.4264 193.025 42.5145C192.902 42.3912 192.779 42.2766 192.656 42.1533C192.761 42.2502 192.849 42.3647 192.929 42.488C192.841 42.3383 192.753 42.1974 192.656 42.0476C192.761 42.2238 192.841 42.4176 192.902 42.6114C192.849 42.444 192.805 42.2766 192.753 42.1093C192.858 42.4704 192.902 42.8492 192.911 43.2191C192.902 43.0342 192.902 42.858 192.893 42.673C192.911 43.6772 192.726 44.6725 192.489 45.6415C192.533 45.4653 192.577 45.2891 192.621 45.113C191.864 48.1431 190.544 51.0322 189.127 53.7981C188.705 54.6173 188.273 55.4276 187.825 56.2292C187.913 56.0795 187.992 55.9209 188.08 55.7712C186.575 58.4754 184.92 61.1003 183.16 63.6459C181.436 66.1475 179.596 68.5698 177.643 70.8953C176.639 72.0844 175.601 73.2471 174.519 74.3746C174.642 74.2513 174.756 74.128 174.879 74.0046C173.375 75.5637 171.79 77.07 170.048 78.3648C169.599 78.6995 169.142 79.0078 168.666 79.3073C168.816 79.2192 168.957 79.1311 169.106 79.0343C168.455 79.4306 167.769 79.8006 167.03 80.0208C167.197 79.968 167.364 79.9239 167.531 79.8711C167.223 79.9591 166.906 80.0296 166.59 80.0384C166.774 80.0296 166.95 80.0296 167.135 80.0208C166.95 80.0208 166.757 80.012 166.572 79.968C166.748 80.012 166.924 80.056 167.1 80.1001C166.959 80.0648 166.827 80.012 166.704 79.9503C166.854 80.0384 167.012 80.1177 167.162 80.2058C167.056 80.1441 166.95 80.0737 166.862 79.9856C166.986 80.1089 167.109 80.2234 167.232 80.3467C167.126 80.2498 167.038 80.1353 166.959 80.012C167.047 80.1617 167.135 80.3027 167.232 80.4524C167.126 80.2762 167.047 80.0825 166.986 79.8887C167.038 80.056 167.082 80.2234 167.135 80.3908C167.03 80.0296 166.986 79.6508 166.977 79.2809C166.986 79.4659 166.986 79.642 166.994 79.827C166.977 78.8229 167.162 77.8275 167.399 76.8586C167.355 77.0347 167.311 77.2109 167.267 77.3871C167.892 74.8855 168.922 72.4808 170.039 70.1642C170.259 69.7149 170.206 69.0367 170.004 68.5963C169.802 68.1558 169.37 67.7066 168.904 67.5392C168.402 67.3631 167.822 67.3278 167.338 67.5745C166.845 67.8211 166.519 68.1823 166.282 68.6755C165.331 70.6486 164.46 72.6746 163.826 74.771C163.545 75.7047 163.298 76.6648 163.131 77.6249C162.999 78.4265 162.964 79.2104 162.999 80.012C163.025 80.6374 163.157 81.2628 163.404 81.8442C163.545 82.1613 163.729 82.4784 163.949 82.7514C164.161 83.0069 164.407 83.2623 164.689 83.4385C165.287 83.826 165.982 84.0815 166.695 84.0727C167.1 84.0639 167.496 84.0639 167.892 83.967C168.314 83.8701 168.737 83.738 169.142 83.5794C169.934 83.2711 170.655 82.8307 171.377 82.3727C172.037 81.9587 172.662 81.5006 173.269 81.0162C174.642 79.9239 175.918 78.7172 177.141 77.4664C178.69 75.8808 180.16 74.2337 181.568 72.516C182.984 70.7896 184.34 69.0103 185.633 67.1957C186.962 65.3283 188.229 63.4257 189.426 61.4702C190.676 59.4355 191.846 57.3567 192.929 55.2339C193.949 53.2343 194.891 51.1908 195.639 49.0679C196 48.055 196.29 47.0332 196.537 45.985C196.704 45.2891 196.836 44.5933 196.889 43.8798C196.942 43.1751 196.95 42.444 196.81 41.7481C196.669 41.0347 196.405 40.3212 195.93 39.7574C194.97 38.6035 193.421 38.2248 191.978 38.5507C190.324 38.9382 188.854 39.8367 187.499 40.8232C186.152 41.801 184.912 42.9108 183.715 44.0736C182.184 45.571 180.723 47.1477 179.332 48.7773C177.898 50.4597 176.534 52.1949 175.223 53.9742C173.867 55.8152 172.574 57.7002 171.342 59.6293C170.048 61.6552 168.834 63.734 167.698 65.848C167.206 66.7729 166.73 67.7066 166.273 68.6491C166.053 69.0983 166.106 69.7766 166.308 70.217C166.51 70.6574 166.942 71.1067 167.408 71.274C167.91 71.4502 168.49 71.4854 168.974 71.2388C169.476 71.0186 169.793 70.6574 170.039 70.1642Z" fill="black"/>
    <path d="M198.569 51.331C199.528 51.4808 199.651 52.115 199.581 52.4849C199.387 53.4803 198.789 54.3964 198.437 55.3389C198.111 56.2285 197.759 57.1094 197.389 57.9814C197.257 58.2985 197.178 58.9503 196.457 58.827C195.444 58.642 194.828 58.0078 194.969 57.5234C195.339 56.2726 195.744 55.0394 196.175 53.815C196.386 53.2072 196.597 52.5906 196.844 51.9917C197.011 51.5865 197.592 51.1989 198.516 51.331C198.542 51.331 198.551 51.331 198.569 51.331Z" fill="white"/>
    <path d="M198.596 51.4723C199.564 51.6573 199.353 52.3796 199.265 52.6967C199.115 53.2604 198.86 53.7801 198.614 54.2998C198.103 55.3745 197.734 56.5019 197.276 57.603C197.197 57.7968 197.126 57.9906 197.056 58.1843C196.986 58.3605 196.915 58.6248 196.634 58.6776C196.334 58.7305 195.798 58.5367 195.516 58.3077C195.129 57.9994 195.182 57.7175 195.252 57.4885C195.595 56.3434 195.965 55.2159 196.352 54.0972C196.563 53.4806 196.774 52.8641 197.012 52.2563C197.188 51.8158 197.566 51.3138 198.596 51.4723C198.904 51.5164 198.851 51.2433 198.543 51.1993C197.672 51.0671 197.047 51.3138 196.757 51.6661C196.572 51.8863 196.51 52.1594 196.414 52.406C196.282 52.7584 196.158 53.1019 196.035 53.4542C195.789 54.1589 195.551 54.8548 195.322 55.5682C195.217 55.903 195.111 56.2289 195.005 56.5636C194.9 56.8895 194.715 57.2242 194.715 57.5942C194.715 58.017 195.19 58.5367 195.956 58.8274C196.889 59.1797 197.302 58.8978 197.487 58.475C198.024 57.1978 198.438 55.8677 199.027 54.6169C199.353 53.9211 199.784 53.2164 199.837 52.4324C199.863 51.9568 199.538 51.393 198.543 51.2081C198.235 51.1376 198.288 51.4107 198.596 51.4723Z" fill="white"/>
    <path d="M193.105 64.0686C193.597 64.1743 193.747 64.5443 193.729 64.9847C193.712 65.4339 193.501 65.9448 193.298 66.3236C192.744 67.3542 192.075 68.3495 191.362 69.3185C190.649 70.2786 189.901 71.2211 189.197 72.1636C188.528 73.0444 187.86 73.9077 187.147 74.7533C186.795 75.1761 186.434 75.5901 186.073 76.0129L185.528 76.6295L185.255 76.9378L184.973 77.2373C184.436 77.8362 183.547 79.0166 182.755 78.7964C182.201 78.6466 181.919 78.2855 181.867 77.8539C181.84 77.6424 181.875 77.4046 181.963 77.1756C182.051 76.9466 182.192 76.7088 182.386 76.4885C184.366 74.1983 186.223 71.8201 187.974 69.3625C188.845 68.1381 189.681 66.8697 190.517 65.6189C191.08 64.7733 192.093 63.9013 193.061 64.0598C193.069 64.0686 193.087 64.0686 193.105 64.0686Z" fill="white"/>
    <path d="M193.016 64.3592C193.5 64.4913 193.536 64.9405 193.395 65.4426C193.254 65.9359 192.937 66.482 192.744 66.7991C192.066 67.9618 191.265 69.0453 190.447 70.1111C188.766 72.2956 187.103 74.5065 185.246 76.5589C184.929 76.92 184.603 77.2724 184.287 77.6335C183.987 77.9594 183.583 78.4351 183.151 78.532C182.694 78.6377 182.236 78.2941 182.139 77.889C182.016 77.3428 182.403 76.8407 182.782 76.4091C184.577 74.3127 186.284 72.137 187.895 69.8997C188.783 68.6665 189.628 67.4069 190.473 66.1385C191.063 65.24 191.952 64.1566 193.016 64.3592C193.342 64.4208 193.509 63.8483 193.184 63.7866C192.726 63.6986 192.268 63.8131 191.837 64.0333C191.415 64.2535 191.01 64.5882 190.684 64.967C190.473 65.2048 190.288 65.4602 190.121 65.7245C189.945 65.9888 189.778 66.253 189.602 66.5173C189.127 67.2395 188.634 67.953 188.141 68.6665C187.147 70.0847 186.117 71.4676 185.052 72.8329L184.674 73.3086L184.295 73.7842L183.917 74.2599L183.53 74.7267C183.275 75.035 182.993 75.3433 182.711 75.6604C182.438 75.9775 182.166 76.2946 181.946 76.6293C181.699 77.0169 181.558 77.4309 181.576 77.8185C181.594 78.2061 181.752 78.5672 182.078 78.8138C182.87 79.4216 183.759 78.9195 184.507 78.1356C186.724 75.7925 188.687 73.2205 190.649 70.6748C191.732 69.2655 192.911 67.7945 193.65 66.1649C193.764 65.9183 193.852 65.6716 193.905 65.4162C193.958 65.1696 193.984 64.9229 193.958 64.7027C193.914 64.2623 193.685 63.9188 193.184 63.7778C192.867 63.6986 192.7 64.2623 193.016 64.3592Z" fill="white"/>
    </g>
    <defs>
    <clipPath id="coin1_clip0">
    <rect width="108.559" height="108.559" fill="white" transform="translate(0 104.302)"/>
    </clipPath>
    <clipPath id="coin1_clip1">
    <rect width="47.8936" height="29.8005" fill="white" transform="translate(41.5232 133.703) rotate(30)"/>
    </clipPath>
    <clipPath id="coin1_clip2">
    <rect width="53.2151" height="61.7295" fill="white" transform="translate(158.581 34.0586)"/>
    </clipPath>
    </defs>
</svg>