<svg width="494" height="494" viewBox="0 0 494 494" fill="none" xmlns="http://www.w3.org/2000/svg">
    <g clip-path="url(#dog_clip0)">
    <g opacity="0.2">
    <g opacity="0.2">
    <g opacity="0.2">
    <path opacity="0.2" d="M248.891 494C384.272 494 494.02 486.764 494.02 477.837C494.02 468.911 384.272 461.675 248.891 461.675C113.51 461.675 3.76257 468.911 3.76257 477.837C3.76257 486.764 113.51 494 248.891 494Z" fill="#650000"/>
    </g>
    </g>
    </g>
    <path d="M120.249 116.331C112.684 123.015 83.5923 133.188 69.9477 109.49C63.8482 98.8799 60.838 81.5274 64.2244 54.0411C66.7395 33.5553 70.3833 20.4467 74.6609 12.7521L74.7203 12.6331C75.453 11.3639 76.1858 10.2137 76.9581 9.22215C91.1374 -9.30037 110.802 23.3619 120.268 45.8309C133.24 76.629 131.121 106.713 120.249 116.331Z" fill="#874C30"/>
    <g opacity="0.6">
    <g opacity="0.6">
    <g opacity="0.6">
    <path opacity="0.6" d="M120.863 117.006C118.249 119.306 113.08 122.023 106.861 123.629C109.159 122.499 111.02 121.269 112.288 120.159C123.16 110.54 125.259 80.4563 112.288 49.6779C105.02 32.4246 91.7514 9.18223 79.5524 7.67504C93.5139 -5.63182 111.832 25.087 120.863 46.5247C133.834 77.3031 131.735 107.407 120.863 117.006Z" fill="white"/>
    </g>
    </g>
    </g>
    <path d="M95.8499 128.091C93.7904 128.091 91.711 127.933 89.6316 127.596C79.809 125.989 71.8678 120.377 66.6792 111.354C59.4113 98.7012 57.3121 79.2466 60.4807 53.565C62.9364 33.6741 66.4614 19.7524 71.3133 10.987L71.3331 10.9275C71.3727 10.868 71.3925 10.7887 71.4321 10.7292C72.2837 9.2418 73.1154 7.97259 73.9472 6.9017C78.8981 0.416832 84.3441 -0.376423 88.0275 0.0796988C104.702 2.22149 119.535 34.507 123.694 44.3434C136.428 74.5268 135.992 107.368 122.723 119.108C118.07 123.272 107.356 128.091 95.8499 128.091ZM78.0267 14.4178L78.0069 14.4376C77.9871 14.4773 77.9475 14.5368 77.9277 14.5764C73.6105 22.3702 70.2439 35.796 67.9467 54.497C64.9959 78.5129 66.7585 96.3809 73.1946 107.606C77.2742 114.685 83.2152 118.909 90.8594 120.179C102.385 122.063 114.069 116.768 117.773 113.495C127.239 105.127 129.12 76.5297 116.802 47.2983C107.376 24.9483 95.1568 8.6072 87.0968 7.57597C85.4729 7.37765 82.9578 7.55613 79.9279 11.5224C79.3139 12.3157 78.6802 13.2676 78.0267 14.4178Z" fill="#650000"/>
    <path d="M70.0455 109.609L69.9465 109.47C65.0946 101.041 62.2033 88.3493 62.9162 69.7078C63.0945 64.8887 63.5302 59.6731 64.2233 54.041C66.7581 33.5551 70.3822 20.4267 74.6598 12.7321L74.7192 12.6131L76.957 9.20215C76.957 9.20215 88.0272 10.0946 95.7506 28.1411C98.2656 33.9914 100.404 41.6265 101.731 51.6215C102.226 55.4093 102.622 59.5343 102.84 64.036C105.573 117.006 70.0455 109.609 70.0455 109.609Z" fill="#F1D0C2"/>
    <g opacity="0.2">
    <g opacity="0.2">
    <g opacity="0.2">
    <path opacity="0.2" d="M70.0455 109.609L69.9465 109.47C65.0946 101.041 62.2033 88.3494 62.9162 69.7079C71.2932 49.9558 85.1557 36.3317 95.7506 28.1611C98.2656 34.0114 100.404 41.6465 101.731 51.6415C102.226 55.4293 102.622 59.5542 102.84 64.0559C105.573 117.006 70.0455 109.609 70.0455 109.609Z" fill="#650000"/>
    </g>
    </g>
    </g>
    <path d="M74.363 113.734C71.4321 113.734 69.4914 113.337 69.2933 113.298C68.4022 113.119 67.61 112.604 67.0555 111.87L66.9565 111.751C66.8575 111.632 66.7783 111.493 66.6991 111.374C59.4311 98.7216 57.3518 79.2868 60.5005 53.6051C62.9562 33.7143 66.4812 19.7728 71.3331 11.0272L71.3529 10.9677C71.4123 10.8288 71.4915 10.7098 71.5707 10.5909L73.8085 7.19969C74.5611 6.04947 75.8879 5.41487 77.2544 5.51402C78.1653 5.59335 99.7314 7.79464 105.455 51.1857C105.989 55.2512 106.366 59.5347 106.583 63.8976C107.633 84.2248 103.355 98.6819 93.8497 106.833C87.0769 112.623 79.3139 113.734 74.363 113.734ZM72.4025 106.119C75.6107 106.376 82.9974 106.257 89.0375 101.022C96.6222 94.438 100.009 82.0632 99.0779 64.2348C98.8798 60.0504 98.5036 55.9849 98.0085 52.1178C94.1864 23.0846 83.136 15.509 78.5812 13.5854L77.9673 14.5175C77.9475 14.5373 77.9475 14.5571 77.9277 14.577C73.6105 22.3707 70.2439 35.7966 67.9467 54.4976C65.1148 77.502 66.6198 94.8544 72.4025 106.119Z" fill="#650000"/>
    <path d="M70.0475 109.609L69.9485 109.49C70.1663 63.5801 95.7327 53.3868 101.733 51.6416C102.228 55.4294 102.605 59.5543 102.842 64.0561C105.575 117.006 70.0475 109.609 70.0475 109.609Z" fill="#D1A28E"/>
    <path d="M74.3627 113.733C71.4318 113.733 69.491 113.337 69.293 113.297C68.4018 113.119 67.6097 112.603 67.0552 111.869L66.9562 111.75C66.4611 111.096 66.2036 110.303 66.2036 109.47C66.4413 60.5257 94.9782 49.6978 100.682 48.032C101.731 47.7147 102.88 47.8931 103.791 48.4881C104.702 49.083 105.316 50.0548 105.454 51.1455C105.989 55.2109 106.365 59.4747 106.583 63.8574C107.633 84.1846 103.355 98.6417 93.8494 106.792C87.0766 112.623 79.3136 113.733 74.3627 113.733ZM73.7686 106.197C77.4124 106.277 83.7298 105.622 89.0371 101.021C96.6219 94.4374 100.008 82.0626 99.0776 64.2342C98.9587 61.7553 98.7805 59.316 98.5429 56.9363C90.3244 60.9819 74.8974 72.9799 73.7686 106.197Z" fill="#650000"/>
    <path d="M481.682 447.417C479.643 464.095 467.859 476.391 467.859 476.391H131.417C131.417 476.391 109.237 478.532 106.9 462.469C106.761 461.577 106.702 460.625 106.702 459.613C106.702 452.355 110.821 446.465 115.95 441.963C124.327 434.566 135.397 430.878 135.397 430.878C135.239 429.946 135.08 429.014 134.961 428.081C134.843 427.249 134.763 426.435 134.664 425.622C134.011 419.177 134.308 413.426 135.219 408.349C138.942 387.526 152.943 378.166 152.943 378.166C152.923 378.047 152.923 377.948 152.903 377.829C151.497 367.596 152.29 357.382 154.092 348.121C155.003 343.421 156.151 338.979 157.419 334.914C161.795 320.774 167.32 311.096 167.32 311.096C167.32 311.096 47.7267 269.589 28.5964 255.211C23.3089 251.245 19.1105 235.162 18.7739 213.803C18.3184 185.325 24.7744 147.388 44.7562 116.352C63.8864 86.6442 95.3543 63.263 144.962 60.447C227.642 55.7469 279.052 108.955 307.312 153.496C308.56 155.459 309.748 157.403 310.916 159.326V159.346C328.066 187.824 335.492 211.344 335.492 211.344C408.785 258.305 437.758 319.663 449.185 360.139C453.363 374.894 455.205 386.872 456.017 394.368V394.408C456.611 399.881 456.651 402.955 456.651 402.955C456.829 403.074 457.007 403.193 457.185 403.312C471.325 413.049 478.137 423.282 480.692 432.94C482.078 437.977 482.237 442.856 481.682 447.417Z" fill="#945639"/>
    <g opacity="0.6">
    <g opacity="0.6">
    <g opacity="0.6">
    <path opacity="0.6" d="M481.683 446.623C472.494 425.522 455.186 423.559 455.186 423.559C457.146 413.901 455.958 393.613 455.958 393.613C455.958 393.613 455.978 393.613 456.057 393.613C456.651 399.087 456.691 402.161 456.691 402.161C456.869 402.28 457.047 402.399 457.225 402.518C471.365 412.255 478.177 422.488 480.732 432.146C482.079 437.163 482.237 442.061 481.683 446.623Z" fill="white"/>
    </g>
    </g>
    </g>
    <g opacity="0.6">
    <g opacity="0.6">
    <g opacity="0.6">
    <path opacity="0.6" d="M140.25 440.396C140.25 440.396 114.743 443.509 107.198 461.04C107.099 461.258 107.02 461.457 106.901 461.675C106.762 460.782 106.703 459.831 106.703 458.819C106.703 451.561 110.822 445.671 115.951 441.169C124.328 433.772 135.398 430.083 135.398 430.083C135.24 429.151 135.081 428.219 134.962 427.287C134.844 426.454 134.764 425.641 134.665 424.828C134.665 424.828 136.765 435.18 140.25 440.396Z" fill="white"/>
    </g>
    </g>
    </g>
    <g opacity="0.6">
    <g opacity="0.6">
    <g opacity="0.6">
    <path opacity="0.6" d="M223.286 375.131C223.286 375.131 155.301 366.306 135.22 407.575C135.22 407.575 149.855 348.973 223.286 375.131Z" fill="white"/>
    </g>
    </g>
    </g>
    <g opacity="0.2">
    <g opacity="0.2">
    <g opacity="0.2">
    <path opacity="0.2" d="M235.048 359.286C235.048 359.286 208.096 360.019 202.471 368.349C202.471 368.349 178.608 366.068 152.883 377.055C151.477 366.822 152.269 356.608 154.072 347.347C154.072 347.347 165.815 372.969 190.411 339.752C190.411 339.752 193.996 350.877 231.068 327.179C231.068 327.179 210.413 349.152 235.048 359.286Z" fill="#650000"/>
    </g>
    </g>
    </g>
    <g opacity="0.2">
    <g opacity="0.2">
    <g opacity="0.2">
    <path opacity="0.2" d="M255.922 255.607C255.922 255.607 239.366 325.87 157.399 334.159C161.776 320.02 167.301 310.342 167.301 310.342C167.301 310.342 47.7075 268.815 28.5574 254.437C23.2699 250.471 19.0715 234.388 18.7349 213.029C26.6365 234.665 45.9252 264.551 92.9983 278.691C171.48 302.27 215.741 278.037 228.653 249.658C228.435 250.649 218.177 294.358 255.922 255.607Z" fill="#650000"/>
    </g>
    </g>
    </g>
    <g opacity="0.2">
    <g opacity="0.2">
    <g opacity="0.2">
    <path opacity="0.2" d="M467.86 475.597H131.418C131.418 475.597 106.703 477.977 106.703 458.82C106.703 451.561 110.822 445.672 115.951 441.17C119.258 451.482 129.457 463.123 159.321 458.879C159.321 458.879 142.112 451.641 134.962 427.288C132.923 420.367 131.695 412.057 131.893 402.142C131.893 402.142 132.645 404.224 135.2 407.575C145.874 421.517 187.977 457.511 338.048 457.511C427.243 457.511 449.839 409.42 449.186 359.325C449.087 350.897 448.314 342.409 447.087 334.08C452.354 356.45 456.473 380.446 457.186 402.499C457.82 422.251 455.701 440.436 449.205 454.497C449.205 454.497 467.999 459.593 480.713 432.127C486.971 455.647 467.86 475.597 467.86 475.597Z" fill="#650000"/>
    </g>
    </g>
    </g>
    <g opacity="0.6">
    <g opacity="0.6">
    <g opacity="0.6">
    <path opacity="0.6" d="M456.056 393.555C455.997 393.594 455.957 393.614 455.957 393.614C418.311 261.775 328.541 218.225 328.541 218.225L307.332 152.683C308.58 154.646 309.768 156.589 310.936 158.513V158.533C328.086 187.011 335.512 210.531 335.512 210.531C435.5 274.626 453.007 365.493 456.056 393.555Z" fill="white"/>
    </g>
    </g>
    </g>
    <g opacity="0.6">
    <g opacity="0.6">
    <g opacity="0.6">
    <path opacity="0.6" d="M160.311 71.5911C160.33 71.6903 160.33 71.8092 160.33 71.9084C160.33 75.5574 151.419 78.5122 140.428 78.5122C131.992 78.5122 124.783 76.7869 121.892 74.308C84.7204 81.3283 62.4414 100.009 44.7766 115.518C63.8871 85.8499 95.3549 62.4687 144.963 59.6328C231.287 54.7146 283.509 112.94 310.917 158.492C309.768 157.283 249.882 74.5856 160.311 71.5911Z" fill="#874C30"/>
    </g>
    </g>
    </g>
    <path d="M40.3802 214.179C52.3345 214.179 62.0255 201.039 62.0255 184.829C62.0255 168.619 52.3345 155.479 40.3802 155.479C28.4258 155.479 18.7349 168.619 18.7349 184.829C18.7349 201.039 28.4258 214.179 40.3802 214.179Z" fill="#874C30"/>
    <path d="M59.2143 187.13C65.7495 178.424 65.5316 166.624 66.9575 155.816C70.2449 130.987 84.2658 107.784 104.683 93.3271C87.6126 128.012 79.6714 167.14 81.8696 205.732C82.1072 209.738 82.4241 213.823 81.4933 217.73C77.592 233.912 54.1644 238.394 43.4903 226.158C30.2417 210.987 51.2731 197.7 59.2143 187.13Z" fill="#F1D0C2"/>
    <path d="M139.974 244.085C156.281 244.085 169.501 226.168 169.501 204.066C169.501 181.963 156.281 164.046 139.974 164.046C123.666 164.046 110.446 181.963 110.446 204.066C110.446 226.168 123.666 244.085 139.974 244.085Z" fill="#874C30"/>
    <path d="M128.863 479.444C124.19 479.444 114.961 478.671 108.842 473.098C104.921 469.529 102.94 464.729 102.94 458.82C102.94 440.971 123.358 430.877 131.22 427.645C127.061 396.787 143.201 380.466 148.944 375.726C145.855 348.537 157.103 322.261 161.955 312.444C140.389 304.888 43.8862 270.64 26.3204 257.452C14.0026 248.19 10.1013 197.601 23.2706 153.912C31.3505 127.14 44.4407 105.226 62.2045 88.8055C83.7507 68.8551 111.535 57.7892 144.766 55.8854C177.501 54.0213 208.117 60.9821 235.783 76.5696C257.844 89.0038 278.044 106.912 295.827 129.777C323.295 165.117 336.187 200.774 338.662 208.091C400.509 248.111 430.313 298.423 444.433 333.684C457.761 366.961 459.999 392.9 460.375 400.119C493.863 423.797 487.011 450.669 479.822 464.69C475.188 473.733 465.96 479.345 455.701 479.345H131.576C131.16 479.385 130.21 479.444 128.863 479.444ZM155.281 63.104C151.934 63.104 148.588 63.2032 145.181 63.4015C72.2251 67.5463 42.5197 116.094 30.4593 156.093C16.3988 202.717 23.9638 246.287 30.8158 251.443C49.2727 265.305 167.322 306.376 168.51 306.792C169.56 307.169 170.411 307.982 170.807 309.033C171.203 310.084 171.104 311.254 170.55 312.226C170.372 312.543 152.113 345.067 156.648 376.896C156.846 378.324 156.212 379.752 155.004 380.565C154.133 381.16 133.24 395.796 139.082 429.489C139.399 431.333 138.329 433.118 136.567 433.713C136.309 433.792 110.426 442.677 110.426 458.879C110.426 462.627 111.555 465.483 113.852 467.585C119.674 472.9 130.923 471.908 131.022 471.908C131.141 471.889 131.259 471.889 131.378 471.889H455.682C463.088 471.889 469.762 467.843 473.109 461.318C480.634 446.623 483.525 424.967 454.553 405.315C453.543 404.62 452.929 403.49 452.909 402.261C452.909 401.983 452.295 373.525 437.304 336.222C423.481 301.874 394.251 252.732 333.454 213.763C332.721 213.287 332.167 212.573 331.889 211.74C331.771 211.344 319.116 172.038 289.708 134.299C252.972 87.0009 207.78 63.104 155.281 63.104Z" fill="#650000"/>
    <path d="M150.152 374.992C151.063 374.477 151.815 374.12 152.627 373.723C153.439 373.346 154.231 372.97 155.043 372.632C156.647 371.938 158.291 371.304 159.915 370.709C163.202 369.539 166.529 368.567 169.916 367.774C176.669 366.227 183.58 365.473 190.472 365.652C193.917 365.771 197.324 366.088 200.71 366.643C204.077 367.258 207.404 368.051 210.632 369.122C217.088 371.244 223.167 374.378 228.693 378.165C222.831 374.913 216.573 372.414 210.137 370.947C206.909 370.213 203.641 369.757 200.373 369.459C197.086 369.241 193.818 369.221 190.551 369.42C184.035 369.876 177.599 371.185 171.44 373.227C168.371 374.239 165.341 375.448 162.43 376.817C160.964 377.491 159.538 378.225 158.132 378.978C157.439 379.355 156.746 379.752 156.053 380.148C155.4 380.545 154.667 381.001 154.152 381.358H154.132C152.429 382.548 150.072 382.112 148.904 380.406C147.716 378.701 148.151 376.341 149.855 375.171C149.934 375.131 150.053 375.052 150.152 374.992Z" fill="#650000"/>
    <path d="M182.491 365.572C183.936 364.719 185.283 364.045 186.689 363.351C188.095 362.676 189.521 362.062 190.947 361.467C193.818 360.316 196.749 359.305 199.72 358.492C205.661 356.866 211.8 355.894 217.959 355.934C224.098 355.934 230.237 356.925 236 358.948C241.763 360.931 247.07 364.045 251.803 367.773C246.832 364.362 241.406 361.645 235.643 360.059C229.9 358.452 223.92 357.897 218.038 358.274C212.137 358.611 206.334 359.94 200.769 361.843C197.997 362.815 195.264 363.946 192.63 365.215C191.303 365.849 189.996 366.524 188.729 367.238C187.481 367.952 186.174 368.725 185.065 369.479L185.026 369.498C183.956 370.232 182.491 369.954 181.758 368.884C181.025 367.813 181.303 366.345 182.372 365.611C182.392 365.631 182.451 365.592 182.491 365.572Z" fill="#650000"/>
    <path d="M182.947 366.92C183.145 363.073 183.64 359.464 184.333 355.815C185.046 352.186 185.976 348.596 187.224 345.106C188.472 341.635 190.036 338.244 192.036 335.17C193.046 333.643 194.155 332.156 195.403 330.808C196.651 329.479 198.017 328.249 199.502 327.198C198.156 328.408 196.928 329.756 195.858 331.184C194.789 332.632 193.878 334.159 193.066 335.746C191.462 338.938 190.313 342.33 189.482 345.78C188.65 349.231 188.135 352.761 187.818 356.291C187.521 359.801 187.442 363.43 187.64 366.821V366.881C187.719 368.19 186.729 369.3 185.422 369.38C184.115 369.459 183.006 368.467 182.927 367.158C182.947 367.079 182.947 367 182.947 366.92Z" fill="#650000"/>
    <path d="M185.938 365.731C186.968 364.026 187.998 362.539 189.087 361.011C190.176 359.504 191.305 358.037 192.474 356.589C194.81 353.714 197.286 350.957 199.88 348.319C205.108 343.084 210.831 338.364 217.07 334.437C223.288 330.491 230.001 327.338 237.032 325.236C244.042 323.074 251.35 322.122 258.598 322.062C251.35 322.499 244.161 323.867 237.388 326.346C230.595 328.785 224.219 332.216 218.377 336.381C212.515 340.526 207.227 345.404 202.455 350.739C200.078 353.396 197.84 356.192 195.741 359.088C194.692 360.536 193.682 362.003 192.731 363.49C191.78 364.978 190.83 366.525 190.058 367.992L190.038 368.052C189.424 369.202 187.998 369.638 186.869 369.023C185.721 368.409 185.285 366.981 185.899 365.85C185.899 365.811 185.919 365.771 185.938 365.731Z" fill="#650000"/>
    <path d="M167.737 306.375C167.975 306.415 168.391 306.454 168.747 306.474C169.123 306.494 169.5 306.534 169.896 306.534C170.668 306.573 171.44 306.593 172.233 306.593C173.797 306.593 175.381 306.553 176.966 306.415C180.134 306.196 183.323 305.74 186.452 305.125C192.749 303.876 198.908 301.853 204.809 299.176C210.711 296.519 216.315 293.147 221.583 289.3C226.831 285.413 231.703 280.991 236.198 276.172C240.634 271.392 244.813 266.038 249.288 261.02C251.526 258.502 253.744 255.983 256.061 253.544C257.21 252.315 258.338 251.085 259.527 249.875L263.071 246.286C267.844 241.566 272.775 236.965 278.003 232.741C280.637 230.659 283.291 228.596 286.103 226.752C288.895 224.908 291.767 223.103 294.876 221.854C291.826 223.262 289.093 225.185 286.4 227.168C283.707 229.151 281.172 231.333 278.677 233.534C273.706 237.976 269.052 242.776 264.557 247.714L261.21 251.462C260.101 252.711 259.051 254 257.962 255.269C255.784 257.788 253.724 260.406 251.625 263.023C247.446 268.219 243.644 273.653 239.228 278.908C234.832 284.104 229.96 288.943 224.653 293.306C219.306 297.609 213.563 301.457 207.404 304.61C201.245 307.763 194.729 310.262 187.976 311.947C184.59 312.8 181.164 313.455 177.679 313.851C175.936 314.069 174.173 314.208 172.411 314.307C171.52 314.347 170.628 314.367 169.737 314.367C169.282 314.367 168.826 314.367 168.371 314.347C167.896 314.327 167.48 314.327 166.886 314.268C164.707 314.089 163.083 312.185 163.262 309.984C163.44 307.803 165.341 306.177 167.539 306.355C167.599 306.355 167.678 306.375 167.737 306.375Z" fill="#650000"/>
    <path d="M325.61 434.189C324.778 437.442 323.966 440.595 323.431 443.728C323.154 445.275 322.956 446.822 322.877 448.309C322.817 449.777 322.877 451.204 323.154 452.355C323.332 452.89 323.491 453.426 323.748 453.743C323.986 454.1 324.204 454.338 324.52 454.497C324.778 454.695 325.174 454.774 325.59 454.933L326.342 455.052L327.372 455.131C330.105 455.349 332.897 455.072 335.571 454.318C336.224 454.12 336.918 453.981 337.551 453.683C338.185 453.406 338.858 453.227 339.452 452.87C340.066 452.553 340.7 452.256 341.294 451.918C341.868 451.542 342.443 451.145 343.037 450.768C345.294 449.122 347.255 447.06 348.998 444.72C352.345 439.901 354.464 433.872 356.008 427.367C357.573 433.872 357.137 441.071 354.107 447.674C352.503 450.927 350.265 453.941 347.433 456.38C344.582 458.82 341.156 460.545 337.571 461.576C333.967 462.568 330.145 462.826 326.422 462.211L325.035 461.953C324.52 461.834 323.946 461.656 323.411 461.477C322.302 461.041 321.193 460.446 320.243 459.534C319.748 459.117 319.352 458.582 318.956 458.086C318.639 457.551 318.262 456.995 318.064 456.44C317.569 455.31 317.431 454.199 317.312 453.148C317.193 451.046 317.53 449.182 318.025 447.456C318.52 445.711 319.173 444.105 319.926 442.578C320.698 441.051 321.53 439.583 322.5 438.175C323.451 436.767 324.461 435.419 325.61 434.189Z" fill="#650000"/>
    <path d="M138.963 428.895C139.042 429.371 139.2 430.025 139.359 430.6C139.517 431.195 139.695 431.81 139.873 432.405C140.25 433.615 140.646 434.824 141.082 436.014C141.953 438.414 142.963 440.794 144.092 443.114C145.22 445.434 146.468 447.734 147.854 449.956C149.221 452.197 150.766 454.318 152.37 456.44C150.33 454.775 148.29 453.029 146.389 451.145C144.468 449.281 142.666 447.259 140.943 445.176C139.2 443.094 137.596 440.893 136.071 438.612C135.299 437.462 134.586 436.292 133.873 435.102C133.536 434.487 133.18 433.892 132.843 433.278C132.507 432.643 132.19 432.068 131.833 431.294L131.774 431.175C130.902 429.272 131.734 427.011 133.635 426.138C135.536 425.266 137.794 426.099 138.665 428.002C138.804 428.28 138.903 428.597 138.963 428.895Z" fill="#650000"/>
    <path d="M460.452 402.022C460.194 405.334 459.798 408.388 459.303 411.522C458.808 414.635 458.194 417.709 457.481 420.763C456.788 423.817 455.937 426.831 454.986 429.786C454.055 432.761 452.907 435.656 451.679 438.473C452.312 435.438 452.827 432.424 453.144 429.39C453.461 426.356 453.679 423.321 453.738 420.267C453.818 417.233 453.798 414.199 453.659 411.184C453.52 408.19 453.303 405.096 452.926 402.28V402.241C452.649 400.158 454.115 398.274 456.194 397.997C458.273 397.719 460.155 399.186 460.432 401.269C460.452 401.507 460.472 401.765 460.452 402.022Z" fill="#650000"/>
    <path d="M291.648 109.371C291.292 112.742 290.876 115.975 290.401 119.049C290.044 121.389 289.668 123.65 289.252 125.851C289.252 125.871 289.252 125.891 289.252 125.93C288.975 127.477 288.658 129.004 288.341 130.472C287.628 133.744 286.876 136.798 286.024 139.654C269.231 197.68 228.613 172.812 212.909 165.256C212.909 165.256 173.718 141.974 179.718 117.343C179.718 117.343 186.57 96.9963 196.472 73.5953C196.472 73.5754 196.472 73.5556 196.472 73.5556C209.186 43.4317 226.91 8.29045 241.486 4.91911C257.527 1.23047 276.875 5.41489 286.816 31.8502H286.836C292.975 48.1317 295.569 72.8615 291.648 109.371Z" fill="#874C30"/>
    <g opacity="0.2">
    <g opacity="0.2">
    <g opacity="0.2">
    <path opacity="0.2" d="M286.024 139.653C269.23 197.68 228.613 172.811 212.909 165.255C212.909 165.255 173.718 141.973 179.718 117.343C179.718 117.343 186.57 96.9958 196.472 73.5947C195.957 75.8555 170.688 190.045 286.024 139.653Z" fill="#874C30"/>
    </g>
    </g>
    </g>
    <g opacity="0.6">
    <g opacity="0.6">
    <g opacity="0.6">
    <path opacity="0.6" d="M284.893 26.3964C274.378 12.8713 259.862 10.9675 247.346 13.8431C221.859 19.733 181.043 113.298 179.697 116.371C180.786 113.139 215.937 9.91647 241.444 4.00671C256.535 0.53622 274.516 4.02655 284.893 26.3964Z" fill="white"/>
    </g>
    </g>
    </g>
    <path d="M291.647 109.371C291.291 112.742 290.875 115.974 290.4 119.048C289.905 121.547 289.509 123.828 289.251 125.85C289.251 125.87 289.251 125.89 289.251 125.93C289.073 127.397 288.756 128.924 288.34 130.471C285.588 140.823 278.201 151.929 268.477 158.513C257.427 166.009 243.366 167.675 229.623 155.776C201.997 131.82 229.841 46.505 248.377 27.5462C266.893 8.58738 286.796 31.8694 286.796 31.8694H286.815C292.974 48.1312 295.569 72.8609 291.647 109.371Z" fill="#F1D0C2"/>
    <g opacity="0.2">
    <g opacity="0.2">
    <g opacity="0.2">
    <path opacity="0.2" d="M268.477 158.513C257.427 166.01 243.366 167.676 229.623 155.777C201.997 131.82 229.841 46.5057 248.377 27.5469C248.396 27.527 295.39 78.8309 268.477 158.513Z" fill="#650000"/>
    </g>
    </g>
    </g>
    <path d="M248.397 164.324C242.297 163.828 235.92 161.23 229.643 155.776C215.939 143.897 215.899 116.907 221.583 90.4121C221.583 90.3923 255.902 117.145 248.397 164.324Z" fill="#D1A28E"/>
    <path d="M248.395 168.071C248.296 168.071 248.197 168.071 248.078 168.051C240.751 167.456 233.721 164.263 227.166 158.592C209.481 143.262 213.759 108.775 217.898 89.5982C218.175 88.329 219.066 87.2978 220.294 86.8615C221.502 86.4252 222.869 86.6235 223.879 87.4366C225.344 88.5868 259.862 116.093 252.099 164.918C251.821 166.742 250.217 168.071 248.395 168.071ZM223.958 97.7093C219.225 124.343 222.116 144.273 232.077 152.92C236.295 156.569 240.692 158.949 245.167 160.02C248.871 127.813 232.414 106.395 223.958 97.7093Z" fill="#650000"/>
    <path d="M213.463 164.125C222.651 166.307 230.692 170.015 239.029 171.8C243.168 172.673 247.307 173.228 251.307 172.931C255.308 172.673 259.169 171.622 262.655 169.658C266.14 167.715 269.15 164.879 271.685 161.567C274.22 158.255 276.299 154.487 278.121 150.561C281.607 142.608 283.884 133.962 285.548 125.276L285.884 124.264C285.627 124.74 285.488 125.335 285.508 125.871L285.567 125.157L286.696 118.493L286.657 119.069V119.049C286.657 118.91 286.657 118.771 286.676 118.632L286.696 118.493C287.132 114.904 287.647 111.354 288.043 107.745L288.578 102.311L289.013 96.8773C289.528 89.6388 289.805 82.4003 289.746 75.1817C289.667 67.9631 289.271 60.7841 288.281 53.7043C287.785 50.1743 287.152 46.6642 286.36 43.2333C285.528 39.8025 284.558 36.4312 283.349 33.159L286.875 35.5983H286.855C285.29 35.5983 283.963 34.6463 283.389 33.2978L283.33 33.159L282.24 30.5809C281.864 29.7282 281.567 28.8357 281.112 28.0425C280.24 26.4163 279.488 24.7306 278.438 23.2433C276.557 20.1099 274.22 17.3732 271.586 15.0331C266.378 10.2339 259.526 7.77481 252.436 7.55666C251.545 7.53683 250.654 7.49717 249.763 7.57649C248.871 7.63599 247.98 7.63599 247.089 7.77481C246.198 7.91363 245.307 7.95329 244.416 8.17144L243.089 8.42924L242.415 8.56806C242.217 8.60773 242.079 8.66722 241.92 8.70688C240.613 9.08368 239.207 9.8571 237.861 10.8288C236.494 11.8204 235.167 13.0103 233.9 14.2993C231.365 16.8972 229.028 19.872 226.83 22.9855C224.632 26.099 222.592 29.3514 220.612 32.6632C212.789 46.0097 206.234 60.2685 200.095 74.6661C198.57 78.2754 197.065 81.8847 195.639 85.5337C194.194 89.1827 192.926 92.8911 191.58 96.56C190.233 100.249 188.728 103.858 187.064 107.428C185.361 110.977 183.46 114.468 180.905 117.72V117.74C180.45 118.315 179.618 118.414 179.044 117.978C178.707 117.72 178.529 117.323 178.529 116.927C178.529 112.742 179.282 108.796 180.272 104.949C181.321 101.121 182.569 97.3532 184.034 93.6844L193.144 71.731C196.233 64.4331 199.461 57.1748 202.907 50.0157C206.373 42.8565 210.017 35.7569 214.096 28.8357C216.136 25.3851 218.295 21.9741 220.631 18.6424C222.988 15.3107 225.523 12.0584 228.474 9.02418C229.979 7.517 231.563 6.04948 233.405 4.72077C235.227 3.4119 237.286 2.20219 239.782 1.46842C240.079 1.3891 240.415 1.27011 240.693 1.21062L241.465 1.05197L243.029 0.754494C244.059 0.516518 245.129 0.437192 246.198 0.298372C247.248 0.139721 248.337 0.11989 249.406 0.0603957C250.476 -0.0189299 251.545 0.000901526 252.634 0.0405643C256.951 0.179384 261.288 0.992471 265.388 2.57898C266.398 3.01527 267.427 3.39207 268.398 3.88785L271.289 5.47437C272.2 6.06931 273.091 6.70391 274.002 7.33852C274.458 7.63599 274.874 7.99295 275.289 8.34992L276.537 9.42081C279.765 12.3162 282.577 15.6479 284.775 19.277C285.983 21.042 286.875 22.9458 287.845 24.81C288.36 25.7222 288.696 26.7138 289.112 27.6657L290.32 30.5412L286.795 28.102H286.815H286.835C288.439 28.102 289.805 29.1134 290.34 30.5412C291.687 34.1506 292.756 37.8392 293.647 41.5477C294.519 45.2561 295.172 48.9844 295.707 52.7127C296.757 60.1892 297.153 67.6854 297.232 75.142C297.311 82.5986 297.014 90.0354 296.479 97.4524L296.044 103.005L295.509 108.538C295.113 112.227 294.578 115.935 294.123 119.644L294.162 119.088V119.108V119.168C294.162 119.326 294.142 119.525 294.123 119.683L292.954 126.624L293.014 125.91C293.014 126.505 292.855 127.14 292.598 127.675L292.934 126.664C291.172 135.846 288.795 144.949 284.954 153.714C282.934 158.057 280.597 162.321 277.606 166.247C274.616 170.154 270.893 173.704 266.457 176.322C262.041 178.94 256.991 180.546 251.921 181.022C246.851 181.498 241.841 180.824 237.148 179.614C232.434 178.364 227.998 176.58 223.859 174.339C219.721 172.078 215.918 169.44 212.354 166.466L212.314 166.446C211.779 165.99 211.7 165.177 212.156 164.641C212.492 164.165 213.007 164.007 213.463 164.125Z" fill="#650000"/>
    <path d="M250.614 168.171C249.782 168.171 248.93 168.131 248.099 168.071C240.771 167.476 233.741 164.284 227.186 158.612C209.501 143.282 213.779 108.795 217.918 89.6184C223.701 62.7072 235.385 35.4788 245.722 24.9086C251.505 18.9989 258.02 16.1233 265.11 16.3613C277.863 16.7778 287.864 27.3677 289.468 29.1724C289.864 29.5492 290.161 30.0053 290.359 30.5407C297.35 49.1029 299.033 75.7563 295.389 109.787C295.033 113.119 294.617 116.411 294.142 119.524C294.122 119.623 294.122 119.722 294.102 119.802C293.607 122.38 293.231 124.502 292.993 126.326C292.993 126.366 292.993 126.406 292.973 126.425C292.775 128.012 292.439 129.698 291.983 131.423C287.131 149.589 270.179 168.171 250.614 168.171ZM264.298 23.8576C259.545 23.8576 255.228 25.92 251.089 30.1639C243.068 38.3741 231.206 63.441 225.265 91.1851C218.829 121.091 221.324 143.58 232.097 152.92C237.405 157.521 243.009 160.099 248.712 160.575C264.951 161.924 280.438 145.583 284.715 129.499C285.092 128.091 285.349 126.743 285.527 125.474C285.527 125.434 285.527 125.394 285.547 125.374C285.804 123.431 286.181 121.17 286.696 118.493C287.151 115.459 287.567 112.266 287.904 108.994C291.389 76.5892 289.943 51.324 283.586 33.9121C281.784 31.9884 273.922 24.1947 264.813 23.8972C264.634 23.8576 264.476 23.8576 264.298 23.8576Z" fill="#650000"/>
    <path d="M145.676 232.167C153.212 232.167 159.321 222.072 159.321 209.619C159.321 197.166 153.212 187.07 145.676 187.07C138.14 187.07 132.031 197.166 132.031 209.619C132.031 222.072 138.14 232.167 145.676 232.167Z" fill="#650000"/>
    <path d="M148.487 212.93C150.762 212.93 152.606 209.885 152.606 206.128C152.606 202.372 150.762 199.326 148.487 199.326C146.212 199.326 144.368 202.372 144.368 206.128C144.368 209.885 146.212 212.93 148.487 212.93Z" fill="white"/>
    <path d="M157.835 308.021C148.111 313.574 137.655 314.248 128.545 313.019C128.407 312.999 128.288 312.979 128.169 312.959C126.644 312.761 125.159 312.483 123.733 312.186C112.227 309.747 103.89 304.848 103.89 304.848C103.118 305.066 102.345 305.285 101.573 305.483C51.5888 318.611 39.9839 276.469 39.9839 276.469C39.1522 276.648 38.3402 276.787 37.5481 276.906C12.8927 280.614 -0.811416 261.12 5.14946 243.153C5.58514 241.824 6.13964 240.475 6.81296 239.167C12.0609 228.834 23.3885 221.834 35.1915 217.868C45.6676 214.338 56.5397 213.187 63.867 214.199C71.9271 215.309 80.1852 217.689 88.3838 221.021C121.099 234.348 152.27 262.707 161.756 284.144C162.231 285.195 162.647 286.227 163.004 287.238C163.182 287.793 163.38 288.388 163.578 289.043C163.697 289.479 163.835 289.955 163.934 290.431C164.053 290.927 164.172 291.403 164.251 291.879C164.331 292.315 164.41 292.751 164.489 293.207C165.38 299.593 163.42 304.828 157.835 308.021Z" fill="#874C30"/>
    <g opacity="0.6">
    <g opacity="0.6">
    <g opacity="0.6">
    <path opacity="0.6" d="M161.499 304.968C161.657 303.5 161.618 301.914 161.4 300.268C161.32 299.812 161.241 299.375 161.162 298.959C161.083 298.483 160.964 298.007 160.845 297.511C160.726 297.035 160.608 296.579 160.489 296.123C160.311 295.469 160.112 294.854 159.914 294.318C159.558 293.307 159.142 292.276 158.667 291.225C149.181 269.787 118.01 241.428 85.2946 228.101C77.1157 224.77 68.8378 222.39 60.7778 221.279C53.4505 220.268 42.5783 221.418 32.1022 224.948C20.6954 228.796 9.72421 235.459 4.25842 245.216C4.39705 244.641 4.57528 244.066 4.77332 243.491C5.20899 242.162 5.76349 240.813 6.43682 239.504C11.6848 229.172 23.0124 222.172 34.8153 218.206C45.2914 214.676 56.1636 213.525 63.4909 214.537C71.5509 215.647 79.809 218.027 88.0077 221.359C120.723 234.685 151.894 263.044 161.38 284.482C161.855 285.533 162.271 286.564 162.628 287.576C162.806 288.131 163.004 288.726 163.202 289.38C163.321 289.817 163.439 290.293 163.578 290.769C163.697 291.264 163.796 291.74 163.895 292.216C163.974 292.653 164.053 293.089 164.133 293.525C164.747 298.027 163.954 301.934 161.499 304.968Z" fill="white"/>
    </g>
    </g>
    </g>
    <path d="M136.012 317.342C120.842 317.342 107.693 311.155 103.375 308.894C86.0473 313.634 71.0956 312.563 58.9362 305.761C45.8262 298.423 39.7267 286.445 37.4493 280.694C24.4186 282.459 12.7939 278.294 5.88243 269.231C-1.00921 260.208 -1.93998 248.031 3.44659 237.441C14.6356 215.429 48.5195 208.269 64.3624 210.451C85.2749 213.326 109.614 224.967 131.12 242.379C151.161 258.621 165.281 277.303 167.955 291.105C169.698 300.069 166.747 307.228 159.677 311.274C151.874 315.756 143.695 317.342 136.012 317.342ZM103.851 301.08C104.504 301.08 105.178 301.259 105.752 301.596C106.029 301.755 133.596 317.54 155.974 304.749C158.667 303.202 162.093 300.267 160.608 292.553C158.291 280.575 144.884 263.183 126.427 248.23C105.95 231.651 82.9579 220.605 63.3722 217.908C47.9056 215.786 18.8142 223.857 10.1798 240.872C6.12007 248.844 6.77359 257.967 11.9027 264.67C17.6656 272.226 27.6267 275.181 39.2118 272.761C41.1526 272.365 43.0735 273.535 43.5884 275.438C43.628 275.577 48.1234 291.085 62.7187 299.216C73.3928 305.166 86.879 305.84 102.821 301.219C103.158 301.14 103.494 301.08 103.851 301.08Z" fill="#650000"/>
    <path d="M42.3211 218.76C43.3509 209.559 52.5992 203.034 62.9763 204.204C73.3534 205.374 80.9381 213.783 79.9083 222.984C78.8786 232.186 70.8779 227.526 60.5008 226.356C50.1237 225.206 41.2913 227.982 42.3211 218.76Z" fill="#650000"/>
    <path d="M68.6163 210.951C68.6964 209.672 65.8148 208.45 62.18 208.221C58.5451 207.993 55.5336 208.845 55.4535 210.124C55.3734 211.403 58.2551 212.625 61.8899 212.853C65.5247 213.081 68.5362 212.23 68.6163 210.951Z" fill="white"/>
    <g opacity="0.2">
    <g opacity="0.2">
    <g opacity="0.2">
    <path opacity="0.2" d="M128.546 313.039C128.407 313.019 128.288 313 128.17 312.98C127.16 312.821 126.11 312.643 125.041 312.444C124.605 312.365 124.169 312.286 123.734 312.186C115.872 310.659 108.445 308.319 101.573 305.483C72.3038 293.505 53.0745 273.138 53.0745 273.138C53.0745 273.138 46.5987 274.784 37.5089 276.887C12.8931 280.615 -0.811019 261.121 5.14986 243.153C8.81352 259.494 20.4976 276.272 55.946 256.877C55.946 256.877 139.339 330.094 161.757 284.145C161.757 284.145 162.331 285.335 163.004 287.258C163.182 287.814 163.38 288.409 163.578 289.063C163.935 290.293 164.272 291.701 164.489 293.208C166.093 303.5 162.846 318.275 128.546 313.039Z" fill="#650000"/>
    </g>
    </g>
    </g>
    <path d="M97.2566 256.876C99.5972 256.876 101.495 254.692 101.495 251.998C101.495 249.303 99.5972 247.119 97.2566 247.119C94.9161 247.119 93.0187 249.303 93.0187 251.998C93.0187 254.692 94.9161 256.876 97.2566 256.876Z" fill="#650000"/>
    <path d="M110.446 268.536C112.786 268.536 114.684 266.352 114.684 263.658C114.684 260.964 112.786 258.779 110.446 258.779C108.105 258.779 106.208 260.964 106.208 263.658C106.208 266.352 108.105 268.536 110.446 268.536Z" fill="#650000"/>
    <path d="M97.2566 272.86C99.5972 272.86 101.495 270.675 101.495 267.981C101.495 265.287 99.5972 263.103 97.2566 263.103C94.9161 263.103 93.0187 265.287 93.0187 267.981C93.0187 270.675 94.9161 272.86 97.2566 272.86Z" fill="#650000"/>
    <path d="M29.0539 242.499C30.9679 242.499 32.5195 240.714 32.5195 238.512C32.5195 236.311 30.9679 234.526 29.0539 234.526C27.1399 234.526 25.5883 236.311 25.5883 238.512C25.5883 240.714 27.1399 242.499 29.0539 242.499Z" fill="#650000"/>
    <path d="M39.8474 252.057C41.7614 252.057 43.313 250.272 43.313 248.071C43.313 245.87 41.7614 244.085 39.8474 244.085C37.9333 244.085 36.3817 245.87 36.3817 248.071C36.3817 250.272 37.9333 252.057 39.8474 252.057Z" fill="#650000"/>
    <path d="M29.0539 255.588C30.9679 255.588 32.5195 253.803 32.5195 251.601C32.5195 249.4 30.9679 247.615 29.0539 247.615C27.1399 247.615 25.5883 249.4 25.5883 251.601C25.5883 253.803 27.1399 255.588 29.0539 255.588Z" fill="#650000"/>
    <path d="M103.852 308.616C103.416 308.616 103 308.537 102.565 308.398C77.6915 299.335 60.6011 282.498 55.0165 276.43C50.3428 278.235 43.1739 279.682 40.6589 280.158C38.6191 280.555 36.6586 279.206 36.2625 277.164C35.8862 275.121 37.213 273.158 39.2528 272.761C45.0553 271.67 52.2836 269.786 53.8282 268.716C55.4323 267.605 57.6107 267.922 58.8583 269.41C59.0366 269.628 77.0974 291.105 105.139 301.318C107.08 302.032 108.09 304.194 107.377 306.137C106.823 307.664 105.397 308.616 103.852 308.616Z" fill="#650000"/>
    <path d="M55.9658 275.577C55.9262 275.577 55.8667 275.577 55.8271 275.577C53.7478 275.498 52.1239 273.753 52.2031 271.67L53.8072 227.327C53.8864 225.245 55.6093 223.619 57.7085 223.698C59.7878 223.777 61.4117 225.523 61.3325 227.605L59.7284 271.948C59.6294 273.991 57.9659 275.577 55.9658 275.577Z" fill="#650000"/>
    <path d="M30.281 199.425C34.7652 199.425 38.4004 192.89 38.4004 184.829C38.4004 176.768 34.7652 170.233 30.281 170.233C25.7967 170.233 22.1615 176.768 22.1615 184.829C22.1615 192.89 25.7967 199.425 30.281 199.425Z" fill="#650000"/>
    <path d="M28.3004 186.892C29.9082 186.892 31.2116 184.734 31.2116 182.073C31.2116 179.411 29.9082 177.254 28.3004 177.254C26.6926 177.254 25.3893 179.411 25.3893 182.073C25.3893 184.734 26.6926 186.892 28.3004 186.892Z" fill="white"/>
    <path d="M164.55 305.463C165.481 305.443 166.669 305.364 167.758 305.265C168.867 305.166 169.976 305.027 171.105 304.868C173.343 304.551 175.561 304.115 177.779 303.619C182.195 302.588 186.532 301.14 190.691 299.355C194.889 297.59 198.79 295.25 202.553 292.672L205.246 290.57C205.682 290.213 206.157 289.896 206.573 289.499L207.821 288.329C208.653 287.556 209.504 286.782 210.316 285.989L212.574 283.411C218.614 276.45 223.129 268.121 226.139 259.276C227.624 254.834 228.674 250.233 229.347 245.572C230.001 240.912 230.278 236.152 229.882 231.433C230.595 236.133 230.654 240.912 230.318 245.672C229.981 250.431 229.248 255.191 228.04 259.831C225.585 269.112 221.525 278.076 215.663 285.89L213.425 288.805C212.613 289.717 211.762 290.61 210.93 291.522L209.663 292.87C209.247 293.326 208.752 293.703 208.316 294.12L205.563 296.579C201.721 299.633 197.642 302.469 193.245 304.71C188.869 306.97 184.294 308.854 179.581 310.302C177.224 311.016 174.828 311.67 172.412 312.166C171.204 312.424 169.976 312.662 168.748 312.86C167.481 313.059 166.313 313.237 164.887 313.356C162.708 313.554 160.787 311.928 160.589 309.747C160.391 307.565 162.015 305.642 164.194 305.443C164.293 305.443 164.372 305.424 164.471 305.424L164.55 305.463Z" fill="#650000"/>
    <path d="M358.783 99.5151C352.901 91.7808 349.396 82.123 349.396 71.652C349.396 46.2282 369.992 25.6035 395.38 25.6035C420.768 25.6035 441.364 46.2282 441.364 71.652C441.364 97.0758 420.768 117.7 395.38 117.7C388.31 117.7 381.616 116.094 375.655 113.258L354.961 120.179L358.783 99.5151Z" fill="white"/>
    <g opacity="0.5">
    <g opacity="0.5">
    <g opacity="0.5">
    <g opacity="0.5">
    <path opacity="0.5" d="M395.38 34.4483C371.655 34.4483 352.129 52.4354 349.673 75.5389C349.495 73.9326 349.396 72.2866 349.396 70.6208C349.396 45.1969 369.992 24.5723 395.38 24.5723C420.768 24.5723 441.364 45.1969 441.364 70.6208C441.364 72.2866 441.265 73.9326 441.106 75.5588C438.631 52.4552 419.104 34.4483 395.38 34.4483Z" fill="white"/>
    </g>
    </g>
    </g>
    </g>
    <path d="M354.96 123.273C354.227 123.273 353.494 123.015 352.92 122.519C352.088 121.806 351.712 120.695 351.91 119.624L355.474 100.288C349.454 91.8998 346.286 82.0436 346.286 71.652C346.286 44.5424 368.307 22.5098 395.359 22.5098C422.43 22.5098 444.432 44.5623 444.432 71.652C444.432 98.7615 422.41 120.794 395.359 120.794C388.427 120.794 381.734 119.366 375.436 116.57L355.91 123.114C355.613 123.233 355.296 123.273 354.96 123.273ZM395.379 28.6972C371.733 28.6972 352.484 47.9733 352.484 71.652C352.484 81.1314 355.514 90.115 361.237 97.6509C361.772 98.345 361.97 99.2374 361.812 100.09L358.96 115.578L374.664 110.323C375.417 110.065 376.248 110.125 376.981 110.462C382.764 113.219 388.942 114.607 395.379 114.607C419.024 114.607 438.273 95.3306 438.273 71.652C438.273 47.9733 419.024 28.6972 395.379 28.6972Z" fill="#650000"/>
    <g opacity="0.3">
    <g opacity="0.3">
    <g opacity="0.3">
    <path opacity="0.3" d="M358.484 99.0983C372.109 108.419 389.833 111.295 406.547 105.266C425.063 98.5827 437.599 82.6383 440.827 64.5322C441.183 66.8525 441.382 69.2323 441.382 71.6517C441.382 97.0755 420.786 117.7 395.398 117.7C388.328 117.7 381.634 116.094 375.673 113.258L354.959 120.179L358.781 99.5148C358.682 99.3759 358.583 99.2371 358.484 99.0983Z" fill="#650000"/>
    </g>
    </g>
    </g>
    <path d="M378.763 58.3057C383.258 53.804 390.526 54.6171 395.022 59.1188L395.715 59.8129L396.408 59.1188C400.903 54.6171 408.171 53.8238 412.667 58.3057C417.162 62.8075 417.162 70.0856 412.667 74.5873L411.974 75.2814L397.854 89.4212C396.665 90.6111 394.744 90.6111 393.556 89.4212L379.436 75.2814L378.743 74.5873C374.267 70.1054 374.267 62.8075 378.763 58.3057Z" fill="#FF003D"/>
    </g>
    <defs>
    <clipPath id="dog_clip0">
    <rect width="494" height="494" fill="white"/>
    </clipPath>
    </defs>
</svg>