<svg width="472" height="248" viewBox="0 0 472 248" fill="none" xmlns="http://www.w3.org/2000/svg">
<g clip-path="url(#clip0)">
<g opacity="0.2">
<path opacity="0.2" d="M235.823 247.986C366.056 247.986 471.63 238.199 471.63 226.126C471.63 214.053 366.056 204.267 235.823 204.267C105.59 204.267 0.0148926 214.053 0.0148926 226.126C0.0148926 238.199 105.59 247.986 235.823 247.986Z" fill="#000072"/>
</g>
<path d="M73.1052 217.257C62.4846 224.83 48.4259 227.364 35.8241 224C23.2222 220.636 12.3103 211.432 6.87623 199.577C1.42756 187.722 1.57325 173.45 7.24044 161.698C9.77538 156.455 13.5778 151.532 18.8808 149.115C19.1721 148.984 19.4781 148.853 19.7695 148.736C24.9413 146.77 31.3661 147.615 34.95 151.78C38.5193 155.93 38.5047 162.047 37.616 167.436C36.5234 174.106 34.3818 180.572 33.3765 187.256C32.3713 193.926 32.5898 201.106 35.9406 206.975C39.102 212.524 44.9877 216.427 51.3397 217.17C56.4387 217.752 61.7271 216.281 66.4473 213.208C67.5982 212.466 68.72 211.621 69.7835 210.689C71.4735 212.524 72.6244 214.825 73.1052 217.257Z" fill="#FDC21F"/>
<path d="M47.1443 225.835C43.2982 225.835 39.4521 225.34 35.7225 224.349C22.9604 220.942 12.0485 211.738 6.52699 199.723C1.02005 187.723 1.16574 173.45 6.92034 161.552C9.00366 157.241 12.7624 151.518 18.7355 148.795C19.0269 148.664 19.3328 148.532 19.6533 148.416C25.3788 146.246 31.789 147.542 35.2563 151.562C38.3012 155.101 39.2044 160.314 38.0098 167.523C37.4853 170.742 36.6986 173.96 35.941 177.062C35.1252 180.412 34.2948 183.878 33.7703 187.329C32.5757 195.237 33.4207 201.791 36.2907 206.815C39.3938 212.262 45.1775 216.107 51.4129 216.82C56.2934 217.374 61.5672 215.99 66.2729 212.917C67.4384 212.16 68.5456 211.315 69.5654 210.427L69.8277 210.194L70.0753 210.456C71.809 212.349 72.9745 214.694 73.4553 217.199L73.499 217.432L73.3096 217.563C65.7047 222.98 56.4391 225.835 47.1443 225.835ZM25.3205 148.081C23.5286 148.081 21.6929 148.401 19.9156 149.086C19.6242 149.202 19.3328 149.319 19.0414 149.45C13.2577 152.086 9.61554 157.649 7.57593 161.858C1.92331 173.567 1.77762 187.606 7.19715 199.417C12.6167 211.242 23.3538 220.286 35.9119 223.636C48.3972 226.971 62.1354 224.524 72.6977 217.082C72.2315 214.898 71.2262 212.873 69.7694 211.184C68.7933 212.014 67.7589 212.801 66.6663 213.5C61.8149 216.66 56.3662 218.087 51.3255 217.519C44.8716 216.776 38.8548 212.801 35.6497 207.15C32.7068 201.98 31.8327 195.266 33.0419 187.198C33.5664 183.703 34.4113 180.237 35.2272 176.873C35.9847 173.771 36.7569 170.581 37.2814 167.377C38.4323 160.402 37.5873 155.377 34.6881 152.013C32.4883 149.465 29.0209 148.081 25.3205 148.081Z" fill="#000072"/>
<g opacity="0.6">
<path opacity="0.6" d="M66.4621 213.208C63.1259 216.514 58.9155 218.932 54.2827 219.878C45.8037 221.626 36.3633 218.145 31.4099 211.067C27.0248 204.82 26.3255 196.679 27.0685 189.077C27.8115 181.489 29.8511 174.047 30.3901 166.431C30.7835 160.882 30.0259 154.591 25.6845 151.11C23.9654 149.726 21.9258 148.998 19.7696 148.736C24.9415 146.77 31.3662 147.615 34.9501 151.78C38.5194 155.93 38.5049 162.047 37.6162 167.436C36.5235 174.106 34.3819 180.572 33.3767 187.256C32.3715 193.926 32.59 201.106 35.9408 206.975C39.1022 212.524 44.9879 216.427 51.3398 217.169C56.468 217.752 61.7564 216.296 66.4621 213.208Z" fill="white"/>
</g>
<path d="M47.1295 228.34C43.0794 228.34 39.0148 227.83 35.0812 226.767C21.5907 223.17 10.0669 213.441 4.25401 200.771C-1.55887 188.087 -1.41318 173.013 4.66194 160.46C7.91074 153.746 12.4124 148.926 17.6863 146.508C24.5627 143.377 32.7357 144.804 37.1354 149.93C40.6901 154.066 41.7682 159.95 40.4716 167.916C39.9326 171.222 39.1313 174.484 38.3737 177.63C37.5433 181.082 36.742 184.344 36.2467 187.693C35.1395 195.033 35.8825 201.048 38.4611 205.577C41.1709 210.354 46.2408 213.704 51.704 214.33C57.0798 214.941 62.9947 212.83 67.9335 208.534C69.1135 207.514 70.8909 207.616 71.9398 208.767C73.9794 211.009 75.3635 213.762 75.9316 216.733C76.1502 217.84 75.6985 218.961 74.7807 219.616C66.7243 225.325 56.9487 228.34 47.1295 228.34ZM25.2911 150.6C23.5429 150.6 21.7509 150.964 20.0755 151.736C14.962 154.067 11.684 159.135 9.8338 162.965C4.50168 174.004 4.37056 187.256 9.48415 198.397C14.5977 209.538 24.7229 218.087 36.5672 221.247C47.7705 224.233 60.0373 222.296 69.7837 216.063C69.6234 215.641 69.434 215.218 69.2155 214.825C63.5775 218.859 57.0944 220.738 51.0339 220.039C43.7933 219.209 37.0626 214.752 33.4641 208.417C30.2444 202.752 29.2683 195.485 30.5649 186.849C31.104 183.252 31.9635 179.713 32.7939 176.29C33.5369 173.246 34.2945 170.086 34.8044 166.999C35.8097 160.882 35.1249 156.397 32.7794 153.673C31.0749 151.664 28.2631 150.6 25.2911 150.6Z" fill="#311038"/>
<path d="M195.948 140.144C192.553 165.207 197.011 191.261 208.52 213.776C209.38 215.466 210.269 217.359 210.691 219.223C211.157 221.247 211.07 223.228 209.817 224.859C208.433 226.65 206.058 227.306 203.844 227.801C170.234 235.534 135.255 237.194 101.062 232.68C88.5915 231.034 74.897 227.714 67.9477 217.242C63.4897 210.514 62.703 202.009 63.1255 193.941C63.8977 178.984 68.3848 164.261 76.077 151.416C81.7151 141.993 89.1742 133.226 91.345 122.478C93.7633 110.566 89.2325 98.4343 88.6498 86.303C88.2418 77.7251 90.0046 69.1182 93.5011 61.2685C93.7779 60.6568 94.0693 60.0452 94.3607 59.4335C99.1392 49.6615 106.686 41.1856 116.141 35.5932C118.574 28.9815 122.376 22.8794 127.257 17.8113C130.374 14.5637 134.512 11.5636 138.955 12.1899C142.146 12.6413 144.826 14.9569 146.531 17.6948C148.221 20.4328 149.066 23.6076 150.173 26.7824C162.702 23.3309 176.149 23.2872 188.43 26.3892C192.859 22.5153 198.352 19.8502 204.135 18.758C206.335 18.3502 208.943 18.2919 210.414 19.9667C211.565 21.292 211.609 23.2289 211.522 24.9765C211.157 31.5446 209.817 38.0399 207.486 44.1856C207.369 44.1856 207.268 44.1856 206.612 44.8119C211.347 54.3946 216.111 64.0647 219.33 74.2299C219.811 75.7591 220.263 77.2882 220.671 78.8465C223.803 90.7448 224.473 103.604 220.321 115.182C216.169 126.76 206.641 136.794 195.948 140.144Z" fill="#FDC21F"/>
<path d="M150.742 79.0206C148.352 78.7584 146.211 79.7633 144.579 81.6857C142.481 84.1323 141.228 88.0353 141.374 92.5937C141.563 98.4773 144.055 103.822 147.478 106.531C148.775 107.565 150.203 108.22 151.703 108.395C157.152 109.007 161.348 102.934 161.085 94.8219C160.808 86.71 156.176 79.6322 150.742 79.0206Z" fill="white"/>
<path d="M152.447 108.861C152.184 108.861 151.908 108.847 151.631 108.817C150.086 108.643 148.586 107.987 147.187 106.866C143.574 103.997 141.112 98.39 140.923 92.5938C140.777 88.0937 141.986 84.016 144.23 81.3946C146.007 79.312 148.338 78.3217 150.771 78.5838C156.409 79.2246 161.217 86.5063 161.479 94.8075C161.639 99.8173 160.11 104.317 157.385 106.822C155.943 108.177 154.253 108.861 152.447 108.861ZM149.97 79.3994C148.076 79.3994 146.328 80.2732 144.885 81.948C142.773 84.4092 141.637 88.283 141.782 92.5647C141.957 98.1133 144.288 103.458 147.726 106.181C149.008 107.201 150.349 107.798 151.733 107.958C153.583 108.162 155.331 107.55 156.817 106.196C159.367 103.851 160.794 99.5988 160.634 94.8366C160.387 86.9432 155.914 80.0402 150.684 79.4431C150.451 79.4139 150.218 79.3994 149.97 79.3994Z" fill="#11116D"/>
<path d="M150.742 79.0215C148.353 78.7594 146.211 79.7643 144.579 81.6867C144.361 82.1818 144.171 82.7061 144.011 83.2449C143.647 84.4683 143.53 86.2304 144.361 87.1042C145.089 87.847 146.007 87.4101 146.852 87.4975C148.236 87.6576 149.562 89.6237 149.591 91.6043C149.62 93.5704 148.353 95.1724 146.954 94.9102C145.978 94.7209 144.9 93.8034 144.128 94.5025C143.559 95.0122 143.487 96.1627 143.574 97.1676C143.851 100.619 145.351 103.94 147.289 106.313C147.347 106.386 147.42 106.459 147.478 106.532C148.775 107.566 150.203 108.221 151.703 108.396C157.152 109.008 161.348 102.935 161.086 94.8229C160.809 86.711 156.176 79.6332 150.742 79.0215Z" fill="#1595FF"/>
<path d="M155.245 107.772C159.613 107.229 162.439 101.055 161.558 93.984C160.677 86.9126 156.422 81.621 152.055 82.1648C147.687 82.7086 144.861 88.8819 145.742 95.9532C146.623 103.025 150.878 108.316 155.245 107.772Z" fill="#311038"/>
<path d="M146.911 87.0745C146.066 86.9871 145.148 87.424 144.42 86.6813C143.575 85.8075 143.691 84.0453 144.07 82.822C144.23 82.2831 144.42 81.7588 144.638 81.2637C142.54 83.7103 141.287 87.6133 141.433 92.1717C141.622 98.0553 144.114 103.4 147.537 106.109C147.479 106.036 147.406 105.963 147.348 105.89C145.396 103.517 143.91 100.196 143.633 96.7446C143.545 95.7397 143.618 94.5746 144.186 94.0795C144.959 93.395 146.051 94.3125 147.013 94.4872C148.411 94.7494 149.679 93.162 149.65 91.1813C149.62 89.2007 148.309 87.2201 146.911 87.0745Z" fill="white"/>
<path d="M149.985 78.9775C150.232 78.9775 150.48 78.9921 150.742 79.0212C156.191 79.6328 160.809 86.7107 161.071 94.8225C161.319 102.556 157.517 108.439 152.447 108.439C152.199 108.439 151.951 108.425 151.689 108.396C150.189 108.221 148.761 107.565 147.464 106.531C144.041 103.808 141.549 98.4779 141.36 92.5943C141.214 88.0359 142.467 84.1329 144.565 81.6863C146.037 79.9678 147.901 78.9775 149.985 78.9775ZM149.985 76.2104C147.158 76.2104 144.478 77.5212 142.453 79.8804C139.83 82.9387 138.417 87.599 138.577 92.6817C138.796 99.2352 141.535 105.381 145.731 108.701C147.479 110.099 149.373 110.915 151.369 111.148C151.718 111.192 152.083 111.206 152.432 111.206C155.055 111.206 157.473 110.129 159.454 108.09C162.412 105.031 164 100.167 163.825 94.7351C163.519 85.1524 157.895 77.0406 151.034 76.2687C150.699 76.225 150.334 76.2104 149.985 76.2104Z" fill="#311038"/>
<path d="M201.367 72.8175C203.508 72.4535 205.519 73.269 207.092 74.9147C209.117 77.0264 210.458 80.507 210.56 84.6285C210.691 89.9732 208.709 94.9393 205.737 97.5753C204.616 98.5802 203.348 99.2501 202.008 99.4831C197.113 100.313 192.99 95.0267 192.815 87.6722C192.64 80.3031 196.472 73.6622 201.367 72.8175Z" fill="white"/>
<path d="M200.989 99.9638C199.488 99.9638 198.031 99.425 196.749 98.3619C194.156 96.2211 192.539 92.2307 192.423 87.6723C192.248 80.1431 196.225 73.2983 201.295 72.439C203.495 72.0749 205.651 72.8468 207.37 74.6527C209.541 76.91 210.837 80.5508 210.939 84.6286C211.07 89.886 209.118 95.0851 205.986 97.8667C204.777 98.959 203.451 99.6289 202.052 99.8619C201.703 99.9347 201.353 99.9638 200.989 99.9638ZM201.441 73.2109C196.735 74.0119 193.049 80.4926 193.209 87.6578C193.311 91.9831 194.826 95.755 197.245 97.7502C198.658 98.9153 200.275 99.3813 201.936 99.09C203.174 98.8716 204.369 98.2745 205.476 97.2842C208.448 94.6482 210.284 89.6821 210.167 84.6431C210.08 80.7547 208.856 77.3032 206.816 75.1915C205.257 73.5604 203.393 72.8759 201.441 73.2109Z" fill="#11116D"/>
<path d="M201.367 72.8171C203.508 72.453 205.519 73.2685 207.092 74.9142C207.311 75.3511 207.515 75.8171 207.69 76.2977C208.083 77.39 208.287 78.9774 207.558 79.8075C206.947 80.5211 206.087 80.157 205.329 80.2881C204.076 80.492 202.984 82.3561 203.057 84.1474C203.13 85.9387 204.368 87.3076 205.606 87.0018C206.48 86.7834 207.413 85.895 208.141 86.4775C208.68 86.9144 208.797 87.9484 208.782 88.8659C208.709 92.0116 207.529 95.0845 205.883 97.3418C205.825 97.4146 205.781 97.4875 205.723 97.5603C204.601 98.5651 203.333 99.2351 201.993 99.4681C197.098 100.298 192.975 95.0117 192.8 87.6572C192.64 80.3026 196.472 73.6617 201.367 72.8171Z" fill="#1595FF"/>
<path d="M206.746 87.9213C207.184 81.4695 204.312 76.0201 200.331 75.7496C196.349 75.4792 192.766 80.4902 192.327 86.942C191.889 93.3938 194.761 98.8433 198.743 99.1137C202.724 99.3841 206.307 94.3731 206.746 87.9213Z" fill="#311038"/>
<path d="M205.244 79.9232C206.001 79.7921 206.861 80.1562 207.473 79.4426C208.187 78.6125 207.997 77.0251 207.604 75.9328C207.429 75.4523 207.225 74.9862 207.007 74.5493C209.032 76.661 210.372 80.1417 210.474 84.2631C210.605 89.6079 208.624 94.574 205.652 97.21C205.71 97.1371 205.754 97.0643 205.812 96.9915C207.458 94.7342 208.638 91.6613 208.711 88.5156C208.74 87.5981 208.609 86.5496 208.07 86.1272C207.342 85.5447 206.395 86.433 205.535 86.6515C204.282 86.9573 203.059 85.5884 202.986 83.7971C202.898 81.9912 203.991 80.1271 205.244 79.9232Z" fill="white"/>
<path d="M202.387 72.7441C204.15 72.7441 205.767 73.5305 207.108 74.9286C209.133 77.0403 210.473 80.5209 210.575 84.6424C210.706 89.9871 208.725 94.9387 205.753 97.5892C204.631 98.5941 203.363 99.264 202.023 99.497C201.688 99.5552 201.338 99.5844 201.003 99.5844C196.56 99.5844 192.991 94.5309 192.83 87.6861C192.656 80.317 196.487 73.6761 201.382 72.846C201.717 72.7586 202.052 72.7441 202.387 72.7441ZM202.387 70.2246C201.907 70.2246 201.426 70.2683 200.96 70.3411C194.783 71.3897 190.106 79.0355 190.31 87.7298C190.499 95.9144 195.103 102.089 201.003 102.089C201.484 102.089 201.965 102.046 202.446 101.973C204.238 101.667 205.913 100.822 207.428 99.4679C211.056 96.2494 213.226 90.5405 213.081 84.5987C212.964 79.9966 211.449 75.8315 208.914 73.1955C207.064 71.244 204.806 70.2246 202.387 70.2246Z" fill="#311038"/>
<g opacity="0.6">
<path opacity="0.6" d="M219.346 74.2442C219.244 74.652 219.156 75.0598 219.054 75.453C215.893 68.3461 211.304 61.5595 206.729 55.4283C203.961 51.7147 203 46.9233 204.267 42.4669C207.997 29.3453 207.341 17.1995 191.84 30.8162C189.8 32.6075 186.96 33.2046 184.366 32.3745C174.372 29.1851 164.888 29.8405 152.082 33.2192C147.93 26.9861 145.424 20.7675 137.47 19.049C129.719 20.4762 124.518 30.1172 120.76 37.5154C119.769 39.4814 118.123 41.0252 116.098 41.899C107.429 45.6563 99.7809 51.8749 94.4051 59.6808C94.3177 59.6372 94.3468 59.6517 94.274 59.608C99.0525 49.7632 106.628 41.2145 116.156 35.5784C122.115 18.0587 142.933 -1.99508 150.188 26.7676C162.717 23.3161 176.164 23.2724 188.446 26.3744C192.874 22.5005 198.367 19.8354 204.151 18.7432C217.714 15.947 209.293 37.6173 207.487 44.1708C207.37 44.1708 207.268 44.1708 206.613 44.7971C211.362 54.4089 216.126 64.0644 219.346 74.2442Z" fill="white"/>
</g>
<g opacity="0.6">
<path opacity="0.6" d="M102.316 169.882C109.44 172.314 116.841 176.989 118.88 186.601C120.978 196.445 119.813 201.572 117.554 208.679C127.009 211.883 133.58 222.062 132.589 231.995C136.814 228.383 138.548 222.121 136.785 216.849C135.008 211.577 129.85 207.63 124.3 207.295C128.525 199.475 127.17 188.246 124.081 181.751C120.905 175.081 111.217 168.746 102.316 169.882Z" fill="white"/>
</g>
<path d="M139.072 238.038C126.28 238.038 113.474 237.194 100.698 235.504C88.4165 233.888 73.3234 230.524 65.5583 218.815C61.4354 212.611 59.7163 204.426 60.2553 193.78C61.0566 178.343 65.6748 163.183 73.6147 149.93C75.0862 147.469 76.6887 145.051 78.233 142.706C82.7493 135.862 87.0324 129.381 88.533 121.925C89.9607 114.876 88.7661 107.667 87.4986 100.036C86.7702 95.6085 86.0126 91.0356 85.7941 86.4481C84.818 65.7098 96.0504 44.622 113.824 33.6558C116.388 27.0732 120.307 20.9274 125.202 15.8302C129.966 10.8787 134.73 8.70873 139.378 9.36408C143.122 9.90292 146.633 12.3933 148.978 16.2089C150.391 18.4808 151.251 20.9565 152.052 23.3595C163.62 20.6216 176.12 20.5925 187.702 23.2721C192.305 19.5585 197.783 17.039 203.611 15.9467C207.646 15.1894 210.662 15.903 212.57 18.0875C214.391 20.1556 214.508 22.8207 214.377 25.1362C213.998 32.083 212.585 38.8404 210.152 45.2046C210.123 45.2628 210.108 45.3211 210.079 45.3793C215.222 55.8067 220.394 66.5836 223.438 78.1179C227.11 92.0113 226.949 105.162 223.016 116.143C218.704 128.158 209.219 138.206 198.555 142.255C195.685 166.168 200.1 191.028 211.07 212.451C212.614 215.465 215.819 221.742 212.089 226.577C209.992 229.3 206.539 230.101 204.485 230.567C182.909 235.548 161.026 238.038 139.072 238.038ZM137.76 14.971C135.24 14.971 132.414 16.5875 129.34 19.7915C124.751 24.5537 121.138 30.3645 118.85 36.5685C118.617 37.1947 118.18 37.719 117.612 38.054C101.106 47.8114 90.6163 67.1516 91.5196 86.1714C91.7235 90.4239 92.452 94.8221 93.1513 99.0891C94.4479 106.895 95.7882 114.963 94.1419 123.06C92.4083 131.609 87.6298 138.862 82.9969 145.867C81.4818 148.168 79.923 150.527 78.5098 152.886C71.0507 165.338 66.7092 179.596 65.9662 194.101C65.4854 203.465 66.8986 210.528 70.3077 215.669C76.7907 225.456 90.3395 228.383 101.412 229.854C135.459 234.354 169.695 232.737 203.173 225.033C204.936 224.626 206.728 224.145 207.515 223.126C208.855 221.378 207.384 217.926 205.942 215.101C194.185 192.12 189.61 165.367 193.077 139.779C193.223 138.672 193.995 137.755 195.059 137.42C204.645 134.42 213.692 125.099 217.596 114.235C221.151 104.347 221.239 92.3754 217.873 79.6033C214.799 67.938 209.321 56.8407 204.018 46.1075C203.465 44.9861 203.698 43.6317 204.601 42.7725C204.747 42.6269 204.922 42.4667 205.097 42.3065C207.107 36.7433 208.302 30.8742 208.622 24.845C208.651 24.2042 208.753 22.4711 208.229 21.8886C207.777 21.3789 206.437 21.2624 204.645 21.5973C199.327 22.5876 194.374 25.0052 190.309 28.5586C189.596 29.1849 188.634 29.4179 187.716 29.1849C175.814 26.1702 162.746 26.3013 150.93 29.5635C149.474 29.9713 147.958 29.1703 147.463 27.7431C147.23 27.0877 147.011 26.4178 146.793 25.7625C145.992 23.3741 145.249 21.1167 144.083 19.2235C142.655 16.8934 140.587 15.3351 138.547 15.0438C138.314 15.0001 138.037 14.971 137.76 14.971Z" fill="#311038"/>
<path d="M197.361 142.358C190.557 144.761 183.521 146.523 176.353 147.513C169.185 148.504 161.901 148.722 154.66 148.009C152.854 147.805 151.062 147.543 149.255 147.31L143.894 146.29L138.591 144.965C136.857 144.397 135.124 143.829 133.405 143.203C131.729 142.46 130.068 141.717 128.422 140.916C126.834 140.013 125.246 139.11 123.717 138.12C122.231 137.057 120.774 135.965 119.375 134.829C118.035 133.591 116.724 132.324 115.5 130.999C115.179 130.649 115.194 130.11 115.558 129.79C115.82 129.557 116.185 129.499 116.491 129.63L116.549 129.659C118.195 130.387 119.754 131.159 121.269 131.989C122.857 132.717 124.416 133.445 125.931 134.217C127.519 134.887 129.078 135.557 130.622 136.271C132.21 136.882 133.798 137.494 135.357 138.149C136.959 138.703 138.562 139.256 140.165 139.853L145.074 141.266C146.735 141.63 148.41 141.979 150.086 142.285C151.776 142.504 153.466 142.751 155.17 142.941C168.792 144.266 182.705 142.14 195.656 137.552C196.982 137.086 198.439 137.771 198.905 139.096C199.386 140.421 198.701 141.892 197.361 142.358Z" fill="#311038"/>
<path d="M102.082 167.829C106.773 167.246 111.698 168.586 115.85 171.091C120.002 173.611 123.484 177.339 125.683 181.752C127.869 186.164 128.918 190.956 129.209 195.703C129.471 200.466 128.889 205.213 127.592 209.757L125.086 206.102C128.801 206.436 132.196 208.14 134.789 210.602C137.367 213.063 139.247 216.369 139.757 220.068C140.267 223.767 139.363 227.451 137.542 230.524C135.721 233.597 132.909 236.16 129.428 237.471C127.942 238.039 126.295 237.282 125.727 235.811C125.159 234.325 125.917 232.68 127.388 232.112H127.403C129.53 231.311 131.409 229.65 132.618 227.597C133.842 225.544 134.41 223.097 134.09 220.854C133.784 218.611 132.589 216.412 130.855 214.767C129.122 213.106 126.863 212.029 124.605 211.825C123.032 211.694 121.866 210.31 121.998 208.738C122.012 208.548 122.041 208.373 122.1 208.199L122.114 208.17C123.25 204.223 123.746 200.087 123.513 196.024C123.309 191.96 122.216 187.985 120.322 184.548C118.457 181.125 115.879 178.052 112.79 175.533C109.687 172.999 106.089 171.033 101.966 169.737H101.951C101.441 169.577 101.15 169.023 101.31 168.513C101.383 168.12 101.718 167.873 102.082 167.829Z" fill="#311038"/>
<path d="M125.377 211.315C123.935 211.33 122.521 211.228 121.094 211.155C119.666 211.097 118.238 210.98 116.781 210.966C115.325 210.951 113.853 210.98 112.353 211.097C110.852 211.184 109.351 211.359 107.778 211.519C107.603 211.534 107.443 211.417 107.414 211.228C107.399 211.111 107.458 210.995 107.545 210.937C108.827 209.975 110.24 209.218 111.712 208.563C113.183 207.922 114.727 207.412 116.315 207.048C117.903 206.684 119.52 206.422 121.152 206.407C122.784 206.378 124.43 206.524 126.003 206.99C127.169 207.339 127.839 208.563 127.489 209.728C127.213 210.674 126.338 211.301 125.406 211.315H125.377Z" fill="#311038"/>
<path d="M137.863 109.604C137.659 109.604 137.469 109.575 137.265 109.502C128.961 106.575 119.798 106.516 111.464 109.342C110.532 109.662 109.512 109.152 109.192 108.22C108.871 107.288 109.381 106.269 110.313 105.948C119.404 102.861 129.398 102.919 138.46 106.123C139.392 106.458 139.888 107.478 139.553 108.41C139.29 109.152 138.606 109.604 137.863 109.604Z" fill="#311038"/>
<path d="M113.752 125.23C113.14 125.23 112.528 124.91 112.207 124.342C111.712 123.483 112.003 122.39 112.848 121.895C119.987 117.73 128.466 115.604 136.712 115.924C137.702 115.968 138.475 116.798 138.431 117.788C138.387 118.779 137.571 119.565 136.566 119.507C128.99 119.23 121.196 121.167 114.64 124.997C114.378 125.157 114.058 125.23 113.752 125.23Z" fill="#311038"/>
<path d="M122.989 138.993C122.523 138.993 122.057 138.818 121.707 138.454C121.022 137.74 121.022 136.604 121.736 135.92C126.748 131.027 133.639 127.998 140.646 127.619C141.651 127.561 142.482 128.318 142.54 129.308C142.598 130.299 141.841 131.143 140.85 131.201C134.702 131.536 128.656 134.187 124.256 138.483C123.892 138.818 123.441 138.993 122.989 138.993Z" fill="#311038"/>
<path d="M468.759 195.121C457.876 217.971 424.296 225.617 407.571 206.611C406.318 205.184 405.152 203.597 404.103 201.864C404.511 201.791 404.905 201.718 405.298 201.645C429.584 197.101 455.531 188.902 456.011 162.105C456.376 162.659 456.711 163.227 457.031 163.809C457.425 164.523 457.774 165.251 458.08 165.994C462.276 175.868 459.799 188.014 451.932 195.427C457.454 196.548 463.237 196.402 468.759 195.121Z" fill="#945639"/>
<g opacity="0.2">
<path opacity="0.2" d="M468.759 195.12C457.06 219.688 419.124 226.693 404.103 201.863C404.511 201.79 404.905 201.717 405.298 201.644C420.391 209.436 439.345 209.552 454.438 202.008C450.752 201.149 447.168 199.838 443.788 198.134C452.18 188.814 456.871 176.318 457.031 163.794C462.611 174.003 460.397 187.445 451.932 195.411C457.454 196.547 463.237 196.401 468.759 195.12Z" fill="#000072"/>
</g>
<g opacity="0.6">
<path opacity="0.6" d="M458.08 165.979C457.978 172.329 455.837 178.678 452.355 184.038C447.43 191.581 440.03 197.261 432.002 201.324C424.47 205.14 415.758 207.616 407.571 206.625C406.318 205.198 405.152 203.611 404.103 201.878C404.511 201.805 404.905 201.732 405.298 201.659C429.584 197.115 455.531 188.916 456.011 162.12C456.376 162.673 456.711 163.241 457.031 163.824C457.41 164.508 457.76 165.251 458.08 165.979Z" fill="white"/>
</g>
<path d="M432.352 220.242C419.299 220.242 408.183 214.169 401.642 203.349C401.161 202.548 401.088 201.543 401.482 200.683C401.875 199.824 402.647 199.213 403.579 199.038C429.06 194.377 452.69 186.659 453.142 162.032C453.171 160.78 454.002 159.687 455.211 159.323C456.42 158.974 457.717 159.454 458.401 160.503C464.841 170.261 464.258 183.688 457.571 193.242C461.053 193.431 464.622 193.125 468.104 192.309C469.182 192.062 470.304 192.455 470.989 193.3C471.673 194.159 471.819 195.339 471.338 196.329C464.811 210.019 450.345 219.368 434.48 220.155C433.766 220.227 433.052 220.242 432.352 220.242ZM408.999 203.858C414.957 211.155 423.917 214.985 434.203 214.46C445.945 213.878 456.784 207.936 463.223 198.892C459.203 199.242 455.182 199.009 451.365 198.237C450.316 198.018 449.471 197.246 449.179 196.212C448.888 195.178 449.194 194.072 449.966 193.343C455.4 188.232 457.877 180.615 457.075 173.421C450.957 192.164 430.24 199.577 408.999 203.858Z" fill="#311038"/>
<path d="M168.296 110.756C169.49 112.023 170.656 112.78 171.851 113.319C172.448 113.581 173.031 113.785 173.613 113.945C174.196 114.091 174.764 114.236 175.347 114.236C176.527 114.28 177.722 113.697 178.654 112.867C179.587 112.037 180.257 110.901 180.446 109.736C180.606 108.746 181.539 108.076 182.529 108.236C183.229 108.353 183.768 108.848 183.972 109.474V109.489C184.307 110.552 185.123 111.513 186.142 112.11C187.162 112.707 188.357 112.955 189.391 112.824C190.44 112.707 191.518 112.197 192.421 111.425C192.888 111.047 193.237 110.566 193.703 110.129C194.184 109.678 194.709 109.212 195.51 108.527L195.525 108.513C195.685 108.382 195.918 108.396 196.049 108.556L196.064 108.571C196.734 109.474 196.807 110.552 196.588 111.513C196.37 112.489 195.787 113.333 195.146 114.076C193.835 115.561 191.955 116.625 189.843 116.858C187.73 117.076 185.691 116.421 184.059 115.299C182.427 114.178 181.116 112.547 180.504 110.581L184.03 110.333C183.68 112.416 182.573 114.236 181.087 115.576C179.587 116.93 177.649 117.775 175.551 118.008C174.502 118.11 173.424 118.023 172.448 117.688C171.472 117.353 170.569 116.829 169.84 116.129C168.383 114.775 167.451 112.78 167.757 110.901C167.786 110.726 167.946 110.624 168.106 110.639C168.179 110.654 168.238 110.697 168.296 110.756Z" fill="#311038"/>
<path d="M184.104 99.5557C182.662 99.8906 181.161 99.7013 179.704 99.8615C178.247 100.022 176.674 100.662 176.091 102.017C175.727 102.862 175.829 103.852 176.149 104.711C176.485 105.57 177.024 106.328 177.563 107.085C178.204 107.973 178.845 108.862 179.69 109.546C180.535 110.231 181.642 110.667 182.72 110.507C183.915 110.318 184.891 109.43 185.692 108.527C186.814 107.245 187.79 105.847 188.577 104.347C188.999 103.531 189.392 102.629 189.188 101.726C188.955 100.648 187.906 99.9052 186.828 99.6867C185.765 99.4683 184.658 99.6722 184.104 99.5557Z" fill="#311038"/>
<path d="M138.329 24.787C132.88 22.2676 122.507 50.4477 124.372 54.4526C126.354 58.1372 143.151 46.8797 144.491 45.1466C147.653 40.9378 141.111 27.6706 138.329 24.787Z" fill="#CF9A06"/>
<path d="M138.11 23.1701C139.523 24.6556 140.718 26.345 141.782 28.1071C142.845 29.8839 143.748 31.748 144.477 33.6995C145.205 35.651 145.759 37.6607 146.152 39.7142C146.531 41.7676 146.735 43.8647 146.764 45.9473V45.991C146.779 46.7046 146.4 47.3599 145.861 47.7386C144.273 48.8308 142.627 49.8357 140.951 50.7678C139.261 51.6998 137.528 52.5154 135.765 53.2727C134.002 54.03 132.195 54.6708 130.36 55.2242C128.524 55.7776 126.674 56.229 124.78 56.5349C124.387 56.5931 124.008 56.331 123.95 55.9378C123.891 55.6174 124.066 55.3116 124.358 55.1659C126.048 54.3504 127.708 53.5639 129.355 52.7338C131.001 51.9037 132.618 51.0299 134.206 50.1415C135.794 49.2532 137.353 48.292 138.897 47.3162C140.427 46.3405 141.942 45.3211 143.413 44.2579L142.51 46.0492C142.452 44.1706 142.262 42.2919 141.971 40.4423C141.68 38.5782 141.301 36.7287 140.82 34.8937C140.339 33.0587 139.771 31.2237 139.116 29.4178C138.46 27.5974 137.717 25.8061 136.945 23.9857C136.785 23.6216 136.959 23.1847 137.338 23.0245C137.586 22.8789 137.906 22.9517 138.11 23.1701Z" fill="#311038"/>
<path d="M151.689 25.064C152.373 26.6951 152.869 28.3845 153.32 30.0884C153.787 31.7923 154.136 33.5399 154.5 35.2875C154.85 37.0352 155.171 38.8119 155.433 40.6032C155.681 42.3945 155.899 44.2003 155.957 46.0208C155.957 46.1955 155.826 46.3412 155.651 46.3557C155.52 46.3557 155.418 46.2975 155.36 46.181C154.5 44.579 153.714 42.9625 152.942 41.3459C152.184 39.7294 151.441 38.0983 150.742 36.4526C150.042 34.807 149.343 33.1467 148.789 31.4428C148.236 29.7389 147.726 28.0058 147.478 26.2C147.303 24.9912 148.148 23.8844 149.358 23.7096C150.363 23.5786 151.31 24.1466 151.689 25.064Z" fill="#311038"/>
<path d="M118.093 157.765C120.963 164.188 123.003 170.683 125.028 177.208C125.538 178.839 126.004 180.47 126.47 182.115L127.942 187.009C128.466 188.625 129.034 190.242 129.588 191.858L131.365 196.65C136.246 209.393 142.19 221.728 149.11 233.48C149.911 234.849 149.459 236.597 148.09 237.413C146.721 238.214 144.972 237.762 144.156 236.393C137.062 224.364 130.986 211.737 125.989 198.703L124.168 193.795C123.586 192.15 123.017 190.504 122.405 188.858L120.686 183.907C120.147 182.246 119.623 180.572 119.142 178.897C117.306 172.154 116.054 165.236 116.214 158.13C116.228 157.591 116.68 157.154 117.219 157.168C117.598 157.197 117.933 157.43 118.093 157.765Z" fill="#311038"/>
<path d="M403.58 225.631C388.312 232.432 371.004 232.534 354.28 232.534C332.441 232.519 310.603 232.505 288.765 232.49C284.656 232.49 280.417 232.461 276.614 230.888C272.812 229.315 269.52 225.791 269.505 221.684C269.505 219.864 270.102 218.204 270.976 216.616C272.025 214.708 273.497 212.946 274.808 211.213C284.452 198.412 289.522 173.756 292.057 155.13C292.509 151.838 292.873 148.722 293.179 145.911C266.533 143.887 237.148 127.619 254.426 93.5118C247.841 94.9536 241.402 88.8224 240.499 82.1524C239.596 75.4824 242.859 68.8997 247.026 63.6132C248.337 61.953 249.75 60.3656 251.178 58.8073C252.46 57.3946 253.771 56.0111 255.053 54.5984C256.889 52.6033 258.651 50.5498 260.21 48.3362C265.513 40.8506 268.281 31.7631 273.759 24.394C279.237 17.0103 289.173 11.4471 297.506 15.3064C307.646 6.78683 320.364 2.35956 332.908 2.9421C345.451 3.52463 357.703 9.08785 366.372 18.1608C372.724 14.9423 377.56 15.8598 380.984 18.2919C384.393 20.724 386.709 24.3648 388.938 27.9183C395.99 39.1758 403.041 50.4479 410.092 61.7199C411.301 63.6569 412.51 65.5792 413.72 67.5162C417.595 73.7202 421.543 80.0553 423.16 87.1913C424.544 93.2351 423.859 100.138 420.45 105.119C419.518 106.473 418.396 107.697 417.056 108.716C410.398 113.784 400.506 112.401 393.571 107.726C386.637 103.036 381.975 95.7546 377.517 88.6768C380.693 110.201 390.031 130.736 404.119 147.265C404.396 147.586 404.672 147.906 404.949 148.227C413.457 158.042 423.83 167.479 428.041 179.261C428.9 181.664 429.512 184.169 429.789 186.79C431.624 203.378 418.862 218.815 403.58 225.631Z" fill="#945639"/>
<path d="M298.598 14.4764C289.303 25.9669 282.281 39.2778 278.041 53.4334C276.074 60.0307 274.661 66.89 271.369 72.9338C268.28 78.599 263.677 83.2593 259.146 87.8467C257.004 90.0021 254.629 92.2886 251.599 92.609C247.389 93.0604 243.747 89.4196 242.057 85.5457C239.886 80.565 239.784 74.696 241.809 69.6571C245.072 61.5161 253.012 56.3753 258.519 49.545C262.628 44.4333 265.366 38.3895 268.426 32.5932C271.485 26.7824 275.011 21.0299 280.241 17.0687C285.457 13.0783 292.726 11.2287 298.598 14.4764Z" fill="#945639"/>
<path d="M375.536 17.7244C370.495 16.472 365.017 19.1662 362.03 23.4187C359.044 27.6712 358.272 33.1616 358.84 38.3171C359.408 43.4725 361.2 48.4095 362.977 53.2882C368.674 68.8856 374.472 84.7015 384.102 98.2309C387.467 102.949 391.372 107.449 396.441 110.26C401.511 113.071 407.907 113.974 413.123 111.44C418.629 108.76 421.907 102.658 422.49 96.5706C423.073 90.4831 421.325 84.3811 418.965 78.745C415.162 69.7012 409.772 61.4437 404.396 53.2445C398.729 44.5793 393.047 35.9287 387.38 27.2634C384.583 23.0255 381.494 19.2099 375.536 17.7244Z" fill="#945639"/>
<g opacity="0.6">
<path opacity="0.6" d="M420.479 103.648C420.318 99.1913 419.415 94.7203 418.002 90.4823C415.176 82.0065 410.456 74.3024 405.764 66.7003C399.5 56.506 393.235 46.3116 386.971 36.1318C383.708 30.8307 379.905 25.1073 373.903 23.4762C370.873 22.6606 367.609 23.0102 364.564 22.2674C360.383 21.248 356.989 18.3062 353.39 15.9324C336.301 4.6166 311.607 6.56809 296.514 20.4324C295.553 19.8499 295.218 19.8499 294.883 19.8499C289.9 18.0732 284.364 20.782 280.766 24.6558C277.167 28.5297 274.938 33.4375 272.112 37.9085C266.969 46.0494 259.67 52.7923 251.206 57.3361C252.488 55.9234 253.799 54.5399 255.081 53.1273C256.917 51.1321 258.68 49.0786 260.238 46.865C265.541 39.3794 268.309 30.2919 273.787 22.9228C279.265 15.5391 289.201 9.97593 297.534 13.8352C307.674 5.31564 320.392 0.888371 332.936 1.47091C345.479 2.05344 357.732 7.61666 366.4 16.6896C372.752 13.4711 377.589 14.3886 381.012 16.8207C384.421 19.2528 386.738 22.8937 388.967 26.4471C396.018 37.7046 403.069 48.9767 410.12 60.2488C411.33 62.1857 412.539 64.1081 413.748 66.045C417.623 72.249 421.571 78.5841 423.189 85.7201C424.573 91.7639 423.888 98.6524 420.479 103.648Z" fill="white"/>
</g>
<g opacity="0.6">
<path opacity="0.6" d="M396.791 139.896C400.914 151.226 408.694 160.765 415.337 170.829C421.995 180.877 427.779 192.324 426.992 204.485C431.086 196.97 430.926 187.664 428.114 179.581C425.302 171.499 420.101 164.479 414.405 158.086C408.723 151.692 402.473 145.794 396.791 139.896Z" fill="white"/>
</g>
<path d="M356.072 235.388C355.475 235.388 354.877 235.388 354.28 235.388L288.765 235.344C284.613 235.344 279.907 235.344 275.522 233.524C271.108 231.704 266.65 227.32 266.65 221.669C266.635 217.14 269.345 213.616 271.734 210.499C271.996 210.15 272.259 209.8 272.521 209.465C283.039 195.499 289.741 166.445 292.043 148.459C276.484 146.683 258.185 140.042 250.347 126.134C245.467 117.483 245.35 107.463 249.983 96.3078C248.177 95.9291 246.399 95.1573 244.753 94.0068C240.936 91.3417 238.285 87.0309 237.673 82.5017C236.799 75.9919 239.261 68.8267 244.782 61.8071C246.691 59.3896 248.789 57.1323 250.814 54.9478C253.392 52.1807 255.825 49.5593 257.894 46.6466C260.327 43.2097 262.206 39.4232 264.173 35.4182C266.3 31.122 268.5 26.6656 271.472 22.6462C277.314 14.7674 287.716 8.88375 297.011 11.9858C307.515 3.68462 320.248 -0.553331 333.039 0.0437679C345.655 0.626304 357.922 5.92738 366.998 14.6945C374.224 11.7382 379.454 13.6605 382.645 15.9324C386.579 18.7286 389.128 22.7918 391.372 26.3744L416.153 65.9868C419.926 72.0161 424.209 78.8608 425.957 86.5358C428.201 96.366 425.389 105.963 418.79 110.988C410.558 117.25 399.107 114.92 391.954 110.085C388.618 107.827 385.777 105.031 383.286 102.017C387.729 117.876 395.669 132.92 406.304 145.386C408.3 147.717 410.456 150.09 412.554 152.391C421.703 162.396 431.158 172.736 432.644 186.47C434.728 205.708 419.635 221.611 404.716 228.252C389.245 235.155 371.733 235.388 356.072 235.388ZM254.441 90.6281C255.315 90.6281 256.16 91.0358 256.714 91.7349C257.399 92.6087 257.501 93.8029 257.005 94.7932C251.44 105.789 250.872 115.4 255.344 123.323C262.585 136.168 281.481 141.964 295.452 143.027C296.224 143.085 296.938 143.449 297.433 144.047C297.929 144.644 298.162 145.416 298.074 146.187C296.384 161.887 289.814 196.023 277.095 212.917C276.819 213.281 276.556 213.63 276.28 213.995C274.269 216.616 272.375 219.077 272.375 221.655C272.375 224.655 275.143 227.16 277.707 228.223C281.044 229.607 284.962 229.607 288.765 229.607L354.28 229.65C369.825 229.65 387.423 229.665 402.415 222.995C415.905 216.98 428.667 202.723 426.963 187.067C425.681 175.198 416.867 165.571 408.344 156.251C406.217 153.921 404.017 151.518 401.963 149.1C387.598 132.25 377.91 110.929 374.705 89.0698C374.501 87.7299 375.273 86.4338 376.555 85.9678C377.823 85.5017 379.25 85.9823 379.979 87.1329C384.044 93.599 388.662 100.91 395.203 105.337C400.885 109.167 409.626 110.784 415.352 106.429C420.815 102.264 421.82 94.0796 420.392 87.8173C418.863 81.089 415.031 74.9579 411.316 69.0306L386.535 29.4181C384.481 26.1414 382.354 22.7335 379.352 20.6073C376.177 18.35 372.258 18.3791 367.698 20.6947C366.561 21.2626 365.206 21.0296 364.332 20.1121C356.145 11.5488 344.65 6.32059 332.806 5.76718C320.889 5.2429 309.03 9.39347 299.385 17.4761C298.526 18.1898 297.346 18.35 296.341 17.8839C289.493 14.7091 280.796 19.7335 276.105 26.0685C273.439 29.6657 271.443 33.6998 269.345 37.9523C267.349 41.9863 265.295 46.1515 262.6 49.9671C260.312 53.2001 257.632 56.0837 255.039 58.8653C252.999 61.0498 251.076 63.1178 249.313 65.3606C246.137 69.3946 242.539 75.4967 243.369 81.7444C243.762 84.6716 245.554 87.5697 248.046 89.3174C249.357 90.2349 251.426 91.2106 253.829 90.6863C254.033 90.6572 254.237 90.6281 254.441 90.6281Z" fill="#311038"/>
<path d="M343.397 81.4649C344.256 74.1961 341.13 67.8523 336.416 67.2957C331.702 66.739 327.184 72.1803 326.325 79.4491C325.466 86.7178 328.592 93.0616 333.306 93.6182C338.02 94.1749 342.538 88.7336 343.397 81.4649Z" fill="#311038"/>
<path d="M334.477 80.8475C334.748 78.555 333.886 76.5689 332.551 76.4114C331.217 76.2538 329.916 77.9845 329.645 80.2769C329.374 82.5694 330.236 84.5555 331.571 84.713C332.905 84.8706 334.206 83.1399 334.477 80.8475Z" fill="white"/>
<path d="M297.448 116.537C286.303 114.643 276.032 95.2885 291.373 94.3856C299.502 93.905 327.649 96.5847 312.687 109.328C308.156 113.172 301.95 117.294 297.448 116.537Z" fill="#311038"/>
<g opacity="0.2">
<path opacity="0.2" d="M417.085 108.701C410.428 113.769 400.536 112.385 393.601 107.71C386.666 103.021 382.004 95.7393 377.546 88.6615C380.722 110.186 390.061 130.721 404.149 147.25C404.425 147.57 404.702 147.891 404.979 148.211C393.907 147.498 383.097 140.201 380.737 129.424C378.144 130.24 377.43 130.604 376.716 130.968C356.626 148.721 329.237 158.478 302.518 156.498C299.021 156.236 295.525 155.77 292.087 155.114C292.538 151.823 292.903 148.706 293.209 145.896C266.562 143.871 237.178 127.604 254.456 93.4966C247.871 94.9384 241.432 88.8072 240.528 82.1371C239.625 75.4671 242.889 68.8845 247.055 63.598C249.546 60.4377 252.387 57.5542 255.097 54.5832C254.66 56.0396 254.412 56.1561 254.165 56.2871C250.683 62.0688 254.267 70.6029 260.779 72.3797C266.373 73.9088 272.652 70.0204 274.4 64.6174C271.632 76.137 259.438 84.2197 256.117 95.9141C252.562 108.38 260.517 121.968 271.749 128.434C282.981 134.915 296.603 135.658 309.54 134.769C320.918 133.997 332.427 132.031 342.611 126.89C352.794 121.764 361.608 113.128 365.003 102.235C369.009 89.4188 365.207 75.6564 362.205 62.564C361.608 59.9426 361.055 57.1901 361.812 54.6269C362.57 52.0638 365.119 49.8064 367.742 50.3307C370.48 50.8841 371.835 53.8696 372.913 56.4328C376.672 65.4766 381.829 73.9234 388.181 81.3798C391.998 85.8654 397.185 90.3363 402.998 89.448C410.034 88.3703 413.574 79.9381 412.89 72.8603C412.526 69.0301 411.331 65.3601 410.136 61.6756C411.345 63.6125 412.555 65.5349 413.764 67.4718C417.639 73.6758 421.587 80.0109 423.204 87.1469C424.938 94.851 423.365 103.924 417.085 108.701Z" fill="#000072"/>
</g>
<g opacity="0.2">
<path opacity="0.2" d="M403.579 225.63C388.311 232.431 371.004 232.533 354.279 232.533C332.441 232.519 310.602 232.504 288.764 232.49C284.656 232.49 280.416 232.461 276.614 230.888C272.811 229.315 269.519 225.791 269.504 221.684C269.504 219.863 270.102 218.203 270.976 216.616C279.528 219.892 288.735 221.247 297.855 222.324C306.159 223.3 314.725 224.058 322.753 221.742C333.796 218.567 342.566 209.858 348.306 199.911C354.031 189.965 357.12 178.751 360.15 167.683C359.407 174.877 358.65 182.071 357.907 189.266C357.674 191.494 357.499 193.94 358.839 195.732C361.097 198.761 366.313 197.596 368.484 194.494C370.654 191.392 370.654 187.329 370.581 183.542C371.485 192.324 375.608 200.727 381.493 207.164C376.234 205.387 370.494 203.596 365.264 205.46C360.034 207.31 356.654 214.65 360.544 218.596C361.665 219.732 363.181 220.388 364.681 220.941C381.712 227.189 402.093 221.494 414.462 208.213C421.834 200.29 426.35 190.023 428.084 179.217C428.943 181.62 429.555 184.125 429.832 186.746C431.624 203.377 418.862 218.815 403.579 225.63Z" fill="#000072"/>
</g>
<path d="M254.514 96.264C253.946 96.264 253.377 96.0892 252.867 95.7397C251.571 94.8368 251.25 93.0455 252.154 91.7493C256.277 85.8512 259.788 82.2977 262.614 79.4433C266.11 75.9044 268.645 73.3412 270.976 68.011C274.152 60.7439 275.42 57.3506 278.246 45.0591C278.596 43.5154 280.14 42.5542 281.684 42.9038C283.228 43.2533 284.19 44.797 283.84 46.3407C280.912 59.1128 279.586 62.6663 276.236 70.2975C273.482 76.6034 270.335 79.7928 266.693 83.4773C263.881 86.3172 260.705 89.5357 256.859 95.0261C256.306 95.8271 255.417 96.264 254.514 96.264Z" fill="#311038"/>
<g opacity="0.2">
<path opacity="0.2" d="M213.518 104.828C203.655 145.503 152.505 141.12 117.875 131.61C170.628 167.29 247.929 140.217 218.326 69.2203C217.16 62.6959 218.428 87.8178 213.518 104.828Z" fill="#000072"/>
</g>
<path d="M377.21 94.488C375.652 92.2015 374.428 89.7403 373.306 87.2354C372.199 84.7305 371.295 82.1236 370.48 79.5022C369.664 76.8808 368.964 74.2303 368.367 71.5506C367.799 68.8709 367.318 66.1622 367.056 63.4242C367.041 63.1912 367.202 62.9873 367.435 62.9728C367.61 62.9582 367.77 63.0456 367.843 63.1912C369.139 65.6087 370.349 68.0263 371.587 70.4147L375.258 77.5507C376.482 79.91 377.764 82.2402 378.944 84.614C380.11 86.9878 381.304 89.3471 382.266 91.8229V91.8374C382.848 93.3229 382.12 94.9977 380.634 95.5802C379.381 96.0463 377.953 95.5802 377.21 94.488Z" fill="#311038"/>
<path d="M382.047 98.4771C382.047 103.327 380.926 108.162 379.032 112.604C377.138 117.06 374.355 121.123 371.019 124.575C367.668 128.026 363.735 130.837 359.495 132.876C355.256 134.9 350.696 136.196 346.107 136.531C345.874 136.546 345.684 136.371 345.67 136.153C345.655 135.963 345.772 135.788 345.961 135.73C350.23 134.332 354.221 132.381 357.791 129.919C361.375 127.458 364.521 124.502 367.129 121.167C369.737 117.832 371.733 114.104 373.277 110.23C374.807 106.341 375.768 102.264 376.322 98.1131V98.0839C376.54 96.5111 377.983 95.4043 379.556 95.6227C380.998 95.8266 382.047 97.0645 382.047 98.4771Z" fill="#311038"/>
<g opacity="0.6">
<path opacity="0.6" d="M374.778 175.97C368.805 184.271 366.795 195.296 369.432 205.17C359.161 206.175 350.638 216.223 351.323 226.52C358.054 217.228 367.684 210.078 378.508 206.291C374.327 197.087 373.263 186.485 374.778 175.97Z" fill="white"/>
</g>
<path d="M272.333 110.58C272.799 113.842 273.819 116.74 275.538 118.896C277.242 121.051 279.486 122.304 281.875 122.551C282.166 122.61 282.472 122.595 282.778 122.595L283.23 122.61C283.361 122.61 283.478 122.58 283.609 122.566C284.104 122.537 284.701 122.347 285.313 122.173C286.537 121.765 287.804 121.153 288.985 120.41C290.165 119.668 291.301 118.808 292.204 117.847C293.122 116.901 293.792 115.823 294.011 115.022L294.054 114.847C294.477 113.304 296.065 112.401 297.609 112.823C298.746 113.129 299.547 114.09 299.707 115.182C299.853 116.172 300.071 117.134 300.333 118.051C300.625 118.969 301.004 119.813 301.441 120.6C302.315 122.173 303.553 123.367 305.039 124.182C305.797 124.576 306.613 124.867 307.487 125.085C308.39 125.289 309.322 125.42 310.255 125.464C311.202 125.493 312.134 125.478 313.081 125.362C314.028 125.231 314.975 125.085 315.907 124.823C319.652 123.818 323.09 121.823 326.018 119.012C329.005 116.245 331.583 112.896 334.366 109.182C334.526 108.964 334.847 108.92 335.065 109.08C335.196 109.182 335.269 109.342 335.269 109.502C335.211 111.891 334.672 114.25 333.798 116.493C332.924 118.736 331.685 120.876 330.112 122.799C329.325 123.76 328.466 124.663 327.519 125.493C326.586 126.338 325.596 127.124 324.517 127.823C322.376 129.207 320.03 130.284 317.539 130.94C315.062 131.624 312.44 131.857 309.832 131.639C308.521 131.522 307.224 131.275 305.957 130.94C304.66 130.561 303.364 130.037 302.155 129.338C299.722 127.94 297.711 125.77 296.429 123.41C295.132 121.037 294.419 118.532 293.996 116.071L299.692 116.231C299.139 118.634 297.915 120.367 296.662 121.852C295.366 123.323 293.938 124.546 292.364 125.595C290.791 126.644 289.101 127.503 287.193 128.1C286.216 128.377 285.211 128.61 284.075 128.668C283.798 128.682 283.507 128.697 283.23 128.697L282.458 128.639C281.948 128.595 281.423 128.551 280.913 128.42C278.874 128.027 276.907 127.139 275.305 125.843C273.702 124.546 272.464 122.901 271.662 121.139C270.06 117.585 270.104 113.638 271.415 110.42C271.517 110.172 271.808 110.041 272.056 110.143C272.231 110.216 272.333 110.362 272.362 110.522L272.333 110.58Z" fill="#311038"/>
<g opacity="0.2">
<path opacity="0.2" d="M118.88 133.415C129.704 148.764 148.629 158.012 167.393 157.138C186.158 156.265 204.135 145.284 212.862 128.915C199.765 139.022 183.535 145.022 167 145.866C150.479 146.711 133.725 142.4 118.88 133.415Z" fill="#000072"/>
</g>
<path d="M214.553 94.0213C213.984 94.0213 213.416 93.7446 213.067 93.2349C212.513 92.4193 212.717 91.298 213.533 90.7445C219.025 86.9872 225.96 85.2833 232.574 86.0552C233.565 86.1717 234.264 87.06 234.147 88.0503C234.031 89.0406 233.142 89.7251 232.152 89.6232C226.397 88.9387 220.351 90.4387 215.558 93.7155C215.252 93.9194 214.902 94.0213 214.553 94.0213Z" fill="#311038"/>
<path d="M213.517 108.57C212.876 108.57 212.25 108.221 211.929 107.609C211.478 106.735 211.813 105.643 212.687 105.192C219.884 101.434 228.741 100.866 236.361 103.663C237.293 103.998 237.774 105.032 237.424 105.964C237.089 106.896 236.055 107.376 235.122 107.027C228.435 104.565 220.656 105.075 214.333 108.367C214.071 108.498 213.794 108.57 213.517 108.57Z" fill="#311038"/>
<path d="M230.811 123.905C230.418 123.905 230.024 123.774 229.704 123.511C224.663 119.521 217.889 117.846 211.581 119.026C210.604 119.215 209.672 118.574 209.483 117.599C209.293 116.623 209.934 115.691 210.91 115.502C218.238 114.133 226.091 116.07 231.933 120.701C232.705 121.312 232.836 122.448 232.224 123.22C231.86 123.672 231.336 123.905 230.811 123.905Z" fill="#311038"/>
<path d="M376.264 175.853C375.579 178.489 374.72 180.907 374.05 183.324C373.351 185.727 372.797 188.072 372.491 190.402C372.185 192.732 372.054 195.106 372.156 197.582C372.243 200.058 372.608 202.635 372.972 205.257C373.19 206.815 372.098 208.271 370.539 208.49C370.481 208.504 370.422 208.504 370.364 208.504C365.105 208.912 359.962 211.708 356.757 215.873C353.523 220.039 352.124 225.718 353.057 230.903C353.333 232.461 352.299 233.947 350.74 234.223C349.181 234.5 347.695 233.466 347.419 231.908V231.893C346.224 225.048 348.001 217.869 352.226 212.364C356.48 206.873 362.992 203.349 369.912 202.781L367.305 206.029C366.955 203.422 366.547 200.771 366.285 197.99C366.023 195.223 365.979 192.266 366.532 189.397C367.071 186.528 368.135 183.805 369.534 181.373C370.961 178.955 372.637 176.742 374.662 174.848C375.055 174.47 375.696 174.499 376.06 174.892C376.293 175.154 376.381 175.489 376.293 175.81L376.264 175.853Z" fill="#311038"/>
<path d="M369.621 203.013C371.529 202.605 373.481 202.518 375.463 202.576C377.444 202.635 379.455 202.955 381.407 203.436C383.359 203.916 385.253 204.601 387.03 205.416C388.808 206.246 390.512 207.178 392.129 208.256C392.304 208.373 392.348 208.606 392.231 208.78C392.158 208.897 392.013 208.955 391.882 208.955C389.944 208.795 388.05 208.533 386.2 208.358C384.35 208.154 382.543 208.038 380.766 208.008C378.988 207.979 377.211 208.081 375.419 208.125C373.627 208.169 371.821 208.256 369.956 208.11H369.927C368.513 207.994 367.45 206.771 367.552 205.343C367.683 204.164 368.528 203.246 369.621 203.013Z" fill="#311038"/>
<g opacity="0.2">
<path opacity="0.2" d="M209.817 224.844C208.433 226.635 206.058 227.291 203.844 227.786C170.234 235.519 135.255 237.179 101.062 232.665C88.5915 231.019 74.897 227.699 67.9477 217.227C63.4897 210.499 62.703 201.994 63.1255 193.926C63.8977 178.969 68.3848 164.246 76.077 151.401C81.7151 141.993 89.1742 133.226 91.345 122.478C93.7633 110.565 89.2325 98.4338 88.6498 86.3025C88.2418 77.7247 90.0046 69.1177 93.5011 61.2681C93.1223 64.2536 93.0641 67.2973 93.2534 70.2682C93.8799 80.0403 96.9539 89.4774 99.1975 99.0164C101.441 108.555 102.84 118.648 100.144 128.07C97.0559 138.862 89.0431 147.411 83.3322 157.081C76.6015 168.484 73.0322 182.101 75.3923 195.12C77.7524 208.14 86.6393 220.257 99.1246 224.655C111.61 229.053 127.198 224.364 132.443 213.019C144.768 220.781 160.021 222.296 174.576 221.713C186.624 221.232 198.643 219.441 210.677 219.193C211.157 221.232 211.07 223.228 209.817 224.844Z" fill="#000072"/>
</g>
<path d="M362.584 161.056C362.701 164.566 362.482 168.003 362.176 171.44C361.87 174.877 361.404 178.27 360.85 181.664C360.282 185.042 359.583 188.406 358.942 191.785C358.301 195.149 357.718 198.543 357.121 201.921L355.329 212.043C354.732 215.436 354.091 218.975 352.765 222.485C352.109 224.232 351.25 225.965 350.157 227.582C349.006 229.228 347.651 230.699 346.034 231.893C344.432 233.087 342.596 234.048 340.556 234.572C338.531 235.126 336.273 235.14 334.161 234.587C332.806 234.223 331.99 232.839 332.34 231.47C332.704 230.116 334.088 229.3 335.457 229.65H335.472L335.516 229.665C337.89 230.32 340.717 229.533 343.004 227.8C344.155 226.956 345.145 225.878 345.961 224.713C346.792 223.49 347.476 222.121 348.016 220.664C349.123 217.752 349.735 214.504 350.332 211.14L352.124 201.004C352.721 197.625 353.333 194.246 353.872 190.853C354.426 187.46 354.906 184.067 355.533 180.688C356.174 177.309 356.888 173.96 357.776 170.625C358.651 167.29 359.641 163.984 360.938 160.722C361.113 160.27 361.623 160.066 362.074 160.241C362.366 160.416 362.57 160.722 362.584 161.056Z" fill="#311038"/>
<mask id="mask0" mask-type="alpha" maskUnits="userSpaceOnUse" x="113" y="68" width="261" height="148">
<path d="M154.253 215.457L113.752 68.2207L373.613 69.0363L323.103 215.457H154.253Z" fill="url(#paint0_linear)"/>
</mask>
<g mask="url(#mask0)">
<path opacity="0.6" d="M154.253 215.457L113.752 68.2207L373.613 69.0363L323.103 215.457H154.253Z" fill="url(#paint1_linear)"/>
</g>
<path d="M150.567 213.209L140.15 154.737C138.518 145.605 145.57 137.231 154.85 137.275L323.686 138.018C332.937 138.062 339.901 146.435 338.24 155.538L327.721 213.252C326.439 220.316 320.277 225.442 313.094 225.442H165.193C157.997 225.456 151.819 220.301 150.567 213.209Z" fill="#C4C4C4"/>
<path d="M313.094 225.82H165.193C157.807 225.82 151.499 220.548 150.202 213.266L139.786 154.809C138.985 150.352 140.208 145.808 143.122 142.342C146.021 138.891 150.261 136.925 154.777 136.925C154.806 136.925 154.821 136.925 154.85 136.925L323.685 137.668C328.202 137.682 332.441 139.692 335.326 143.158C338.21 146.624 339.405 151.168 338.589 155.61L328.07 213.324C326.759 220.577 320.451 225.82 313.094 225.82ZM150.916 213.15C152.155 220.082 158.157 225.106 165.193 225.106H313.094C320.101 225.106 326.104 220.096 327.357 213.208L337.875 155.493C338.647 151.27 337.511 146.944 334.758 143.639C332.004 140.333 327.969 138.425 323.671 138.41L154.835 137.668C154.821 137.668 154.791 137.668 154.777 137.668C150.494 137.668 146.444 139.546 143.69 142.823C140.908 146.129 139.757 150.454 140.514 154.692L150.916 213.15Z" fill="#000072"/>
<g opacity="0.6">
<path opacity="0.6" d="M337.905 146.785C336.477 146.304 334.933 146.042 333.316 146.042L164.48 145.299C155.2 145.256 148.149 153.63 149.78 162.761L160.211 221.233C160.401 222.34 160.721 223.374 161.129 224.379C156.045 222.704 152.111 218.364 151.135 212.873L140.704 154.401C139.072 145.27 146.124 136.896 155.404 136.925L324.239 137.668C330.489 137.697 335.69 141.513 337.905 146.785Z" fill="white"/>
</g>
<g opacity="0.2">
<path opacity="0.2" d="M337.337 156.615L326.819 214.33C325.537 221.393 319.374 226.534 312.192 226.534H164.291C157.298 226.534 151.281 221.67 149.781 214.898C152.141 216.456 154.952 217.344 157.954 217.344H305.84C313.022 217.344 319.17 212.203 320.467 205.14L330.985 147.411C331.35 145.387 331.291 143.391 330.883 141.527C335.647 144.688 338.444 150.484 337.337 156.615Z" fill="#000072"/>
</g>
<path d="M152.081 231.093C152.081 227.976 154.601 225.457 157.719 225.457H320.654C323.772 225.457 326.293 227.976 326.293 231.093C326.293 234.209 323.772 236.729 320.654 236.729H157.719C154.601 236.729 152.081 234.209 152.081 231.093Z" fill="#C4C4C4"/>
<path d="M320.655 237.092H157.719C154.412 237.092 151.717 234.398 151.717 231.092C151.717 227.787 154.412 225.092 157.719 225.092H320.655C323.962 225.092 326.657 227.787 326.657 231.092C326.657 234.413 323.976 237.092 320.655 237.092ZM157.719 225.82C154.806 225.82 152.445 228.18 152.445 231.092C152.445 234.005 154.806 236.364 157.719 236.364H320.655C323.568 236.364 325.928 234.005 325.928 231.092C325.928 228.18 323.568 225.82 320.655 225.82H157.719Z" fill="#000072"/>
<path d="M313.094 228.325H165.193C156.583 228.325 149.241 222.179 147.74 213.703L137.324 155.245C136.391 150.046 137.819 144.76 141.213 140.726C144.593 136.706 149.532 134.405 154.777 134.405C154.806 134.405 154.835 134.405 154.85 134.405L323.686 135.148C328.945 135.177 333.884 137.507 337.249 141.541C340.614 145.59 341.998 150.876 341.051 156.046L330.533 213.761C329.003 222.208 321.661 228.325 313.094 228.325ZM153.393 212.713C154.413 218.436 159.38 222.601 165.208 222.601H313.109C318.907 222.601 323.875 218.465 324.909 212.756L335.428 155.042C336.069 151.546 335.122 147.964 332.849 145.226C330.577 142.488 327.226 140.915 323.671 140.901L154.835 140.158C154.821 140.158 154.806 140.158 154.777 140.158C151.222 140.158 147.886 141.716 145.599 144.425C143.297 147.148 142.335 150.731 142.962 154.241L153.393 212.713Z" fill="#311038"/>
<path d="M320.655 239.596H157.719C153.028 239.596 149.211 235.781 149.211 231.091C149.211 226.402 153.028 222.586 157.719 222.586H320.655C325.346 222.586 329.163 226.402 329.163 231.091C329.163 235.781 325.346 239.596 320.655 239.596ZM157.719 228.324C156.19 228.324 154.951 229.562 154.951 231.091C154.951 232.621 156.19 233.858 157.719 233.858H320.655C322.184 233.858 323.423 232.621 323.423 231.091C323.423 229.562 322.184 228.324 320.655 228.324H157.719Z" fill="#311038"/>
<path d="M239.188 193.315C244.16 193.315 248.191 189.605 248.191 185.028C248.191 180.452 244.16 176.742 239.188 176.742C234.215 176.742 230.184 180.452 230.184 185.028C230.184 189.605 234.215 193.315 239.188 193.315Z" fill="#311038"/>
<path d="M196.427 35.8119C199.851 33.3943 203.61 31.4283 207.543 30.0156C207.412 34.4866 206.713 38.943 205.475 43.2392C202.59 41.3896 199.807 39.3653 196.427 35.8119Z" fill="#CF9A06"/>
<path d="M281.058 48.5698C280.868 48.5698 280.679 48.5553 280.49 48.5116C278.931 48.2057 277.926 46.6912 278.232 45.1474C281.291 29.6957 291.649 17.0401 297.287 11.9866C298.467 10.9235 300.288 11.0254 301.337 12.205C302.401 13.3847 302.299 15.1905 301.119 16.2537C296.02 20.8266 286.638 32.288 283.87 46.2542C283.593 47.6232 282.398 48.5698 281.058 48.5698Z" fill="#311038"/>
<path d="M205.477 45.0597C205.142 45.0597 204.792 44.9578 204.501 44.7685C201.791 43.05 198.775 40.9237 195.104 37.0644C194.74 36.6858 194.565 36.1615 194.609 35.6372C194.667 35.113 194.944 34.6324 195.366 34.3265C198.936 31.8071 202.811 29.7828 206.919 28.2973C207.487 28.0934 208.114 28.1808 208.609 28.5303C209.104 28.8798 209.381 29.4624 209.367 30.0595C209.236 34.6906 208.507 39.2926 207.225 43.749C207.065 44.3024 206.657 44.7393 206.118 44.9432C205.914 45.0161 205.695 45.0597 205.477 45.0597ZM199.271 36.0887C201.063 37.8363 202.694 39.147 204.37 40.3121C204.967 37.8217 205.36 35.3023 205.579 32.7537C203.394 33.6857 201.281 34.8071 199.271 36.0887Z" fill="#311038"/>
<path d="M367.74 20.3154C366.254 21.5387 364.972 22.8931 363.909 24.5825C362.845 26.2573 361.957 28.1942 361.301 30.2622C360.645 32.3448 360.208 34.5584 359.99 36.8157C359.873 37.9517 359.815 39.0876 359.815 40.2236C359.844 41.3595 359.888 42.5246 360.165 43.6168V43.646C360.208 43.8498 360.092 44.0392 359.902 44.0974C359.757 44.1411 359.611 44.0829 359.524 43.9664C358.737 42.9469 358.242 41.7673 357.848 40.5731C357.44 39.3789 357.164 38.1556 356.96 36.9177C356.566 34.4419 356.493 31.8933 356.799 29.3302C357.12 26.7816 357.775 24.1601 359.145 21.7572C360.485 19.3688 362.539 17.1697 365.118 15.9318C366.4 15.3202 367.915 15.859 368.527 17.1406C369.051 18.2183 368.731 19.4853 367.842 20.228L367.74 20.3154Z" fill="#311038"/>
<g opacity="0.2">
<path opacity="0.2" d="M22.1877 146.755C16.6808 159.279 13.6796 164.566 14.6994 178.212C15.7338 191.858 21.94 205.504 33.0705 213.455C44.2155 221.407 60.4886 222.485 71.5899 214.649C72.1435 215.756 72.7117 216.848 73.2653 217.955C60.2555 225.426 43.3268 225.499 30.2441 218.174C17.1615 210.848 8.04156 196.329 8.04156 181.328C8.04156 160.721 12.9658 158.639 22.1877 146.755Z" fill="#000072"/>
</g>
<path d="M288.108 89.0415C292.268 89.0415 295.64 83.8383 295.64 77.4199C295.64 71.0015 292.268 65.7983 288.108 65.7983C283.949 65.7983 280.576 71.0015 280.576 77.4199C280.576 83.8383 283.949 89.0415 288.108 89.0415Z" fill="#311038"/>
<path d="M290.526 81.4539C291.709 81.4539 292.668 79.8173 292.668 77.7985C292.668 75.7797 291.709 74.1431 290.526 74.1431C289.344 74.1431 288.385 75.7797 288.385 77.7985C288.385 79.8173 289.344 81.4539 290.526 81.4539Z" fill="white"/>
</g>
<path d="M153.79 231C153.79 233.932 156.241 236.302 159.273 236.302H317.725C320.757 236.302 323.208 233.932 323.208 231C323.208 228.069 320.757 225.699 317.725 225.699H159.273C156.241 225.699 153.79 228.069 153.79 231Z" fill="#C4C4C4"/>
<path d="M317.726 225.356H159.273C156.057 225.356 153.436 227.891 153.436 231C153.436 234.11 156.057 236.644 159.273 236.644H317.726C320.942 236.644 323.563 234.11 323.563 231C323.563 227.891 320.942 225.356 317.726 225.356ZM159.273 235.959C156.44 235.959 154.145 233.74 154.145 231C154.145 228.26 156.44 226.041 159.273 226.041H317.726C320.559 226.041 322.854 228.26 322.854 231C322.854 233.74 320.559 235.959 317.726 235.959H159.273Z" fill="#311038"/>
<path d="M317.726 223H159.274C154.712 223 151 226.589 151 231C151 235.411 154.712 239 159.274 239H317.726C322.288 239 326 235.411 326 231C326 226.589 322.288 223 317.726 223ZM159.274 233.603C157.786 233.603 156.582 232.438 156.582 231C156.582 229.562 157.786 228.397 159.274 228.397H317.726C319.214 228.397 320.418 229.562 320.418 231C320.418 232.438 319.214 233.603 317.726 233.603H159.274Z" fill="#311038"/>
<defs>
<linearGradient id="paint0_linear" x1="238.771" y1="218.235" x2="243.803" y2="64.7805" gradientUnits="userSpaceOnUse">
<stop stop-color="#B8B8B8"/>
<stop offset="0.2455" stop-color="#B5B5B5"/>
<stop offset="0.3968" stop-color="#ADADAD"/>
<stop offset="0.5224" stop-color="#9E9E9E"/>
<stop offset="0.6342" stop-color="#8A8A8A"/>
<stop offset="0.7367" stop-color="#6F6F6F"/>
<stop offset="0.8324" stop-color="#4F4F4F"/>
<stop offset="0.9211" stop-color="#292929"/>
<stop offset="1"/>
</linearGradient>
<linearGradient id="paint1_linear" x1="238.771" y1="218.235" x2="238.768" y2="81.5" gradientUnits="userSpaceOnUse">
<stop stop-color="white"/>
<stop offset="1" stop-color="white" stop-opacity="0"/>
</linearGradient>
<clipPath id="clip0">
<rect width="471.63" height="248" fill="white"/>
</clipPath>
</defs>
</svg>
