<svg width="84" height="84" viewBox="0 0 84 84" fill="none" xmlns="http://www.w3.org/2000/svg">
<g clip-path="url(#clip0)">
<path d="M0.000372995 40.5822C0.0281508 40.3042 0.111484 40.0263 0.111484 39.7205C0.750373 29.3247 4.63926 20.3466 11.8059 12.8416C17.3337 7.06002 24.0282 3.22415 31.8059 1.25062C33.7782 0.750292 35.7782 0.416738 37.8059 0.222164C40.2226 -0.028001 42.667 -0.0557971 45.0837 0.11098C54.667 0.861476 63.0559 4.44718 70.1948 10.8959C76.4726 16.5941 80.6393 23.5709 82.7226 31.7986C83.2504 33.8277 83.5837 35.9124 83.7782 37.9971C84.0004 40.2764 84.0282 42.5557 83.8893 44.835C83.2504 53.8132 80.1115 61.8185 74.3615 68.7675C68.7504 75.5498 61.667 80.1361 53.167 82.4988C51.0004 83.1103 48.8059 83.4995 46.5559 83.7496C44.167 83.9998 41.7782 84.0832 39.417 83.9164C33.8893 83.5828 28.6393 82.193 23.6393 79.7748C13.6115 74.9104 5.88926 66.1547 2.27815 55.6199C1.36148 52.9237 0.694817 50.1441 0.361484 47.2811C0.222595 46.1136 0.139262 44.9462 0.0559286 43.7509C0.0559286 43.6398 0.000372995 43.5286 -0.0274048 43.4452C0.000372995 42.5001 0.000372995 41.5273 0.000372995 40.5822ZM42.0282 81.8317C63.7504 81.8595 81.7504 64.2923 81.8059 42.111C81.8615 20.0408 64.1115 2.33467 42.3337 2.1679C20.2782 2.00112 2.44482 19.7351 2.2226 41.5829C2.00037 63.9588 20.1115 81.8595 42.0282 81.8317Z" fill="url(#paint0_linear)"/>
<path d="M41.9992 80.4146C20.8881 80.4701 3.52701 63.2365 3.61035 41.8335C3.69368 20.7918 20.8048 3.55817 42.0826 3.58597C63.6381 3.61377 80.6659 21.3199 80.4159 42.445C80.1659 63.3199 63.1381 80.4423 41.9992 80.4146ZM79.2492 42.0003C79.277 21.6257 62.8326 4.94798 42.4159 4.72561C21.6381 4.53104 4.80479 21.3199 4.77701 41.9447C4.74923 62.4304 21.2215 79.0525 41.6103 79.2749C62.4437 79.4973 79.277 62.625 79.2492 42.0003Z" fill="url(#paint1_linear)"/>
<path d="M60.0278 26.5176C59.9167 27.7685 59.3333 28.7969 58.3056 29.5752C58.5278 30.0755 58.8611 30.4925 59.25 30.826C59.5278 31.0484 59.8056 31.2708 60.1389 31.4376C61.8889 32.2992 63.2222 33.6335 64.25 35.2734C65.1667 36.7466 65.7222 38.3588 65.9167 40.0822C65.9722 40.5825 66 41.1106 66.0278 41.6388C66.3889 41.6943 66.75 41.611 67.0833 41.5554C68.3889 41.3052 69.5556 40.6937 70.5556 39.8042C71.6389 38.8591 72.5 37.7751 73.1944 36.5243C73.9167 35.19 74.1667 33.7724 73.7778 32.2714C73.6667 31.8545 73.8333 31.5209 74.1944 31.382C74.5556 31.2152 74.9722 31.3542 75.1667 31.7155C75.6667 32.5772 76 33.4945 76.1389 34.4673C76.4167 36.3853 76 38.1642 75.0833 39.832C73.9167 41.9723 72.2222 43.5845 70.1389 44.8075C68.5833 45.7248 66.9167 46.3085 65.1389 46.5031C64.8611 46.5309 64.5833 46.5309 64.3056 46.5309C64.2222 46.5309 64.1111 46.5587 64.0278 46.6143C63.7222 46.8922 63.4167 47.1702 63.0833 47.5037C63.1667 47.5315 63.2222 47.5315 63.3056 47.5315C65.3056 47.5871 67.2778 47.6149 69.2778 47.6705C70.7222 47.7261 72.1944 47.8373 73.6389 47.9207C73.7222 47.9207 73.8055 47.9485 73.8889 47.9485C73.8889 48.1153 73.7778 48.0875 73.6944 48.0875C73.2778 48.1153 72.8889 48.1708 72.4722 48.1708C70.5278 48.2542 68.5833 48.3376 66.6389 48.3932C64.75 48.4488 62.8889 48.4766 61 48.4766C57.6667 48.5044 54.3333 48.5044 51 48.5044C47.3333 48.5044 43.6389 48.4766 39.9722 48.4488C38.1389 48.4488 36.3056 48.4488 34.4722 48.4488C31.8333 48.4488 29.1944 48.5044 26.5556 48.4766C22.8056 48.4488 19.0833 48.3654 15.3333 48.282C13.9167 48.2542 12.5 48.1431 11.0833 48.0875C10.9167 48.0875 10.7778 48.0597 10.6111 47.9763C11.3056 47.8095 12 47.8373 12.6667 47.7817C13.3889 47.7261 14.0833 47.7261 14.8056 47.6983C15.5 47.6705 16.1945 47.6427 16.9167 47.6427C17.6389 47.6149 18.3333 47.6149 19.0556 47.5871C19.75 47.5593 20.4444 47.5593 21.1667 47.5315C20.9167 47.0868 20.6667 46.6699 20.4444 46.2251C20.2222 45.8082 20.0556 45.3634 19.8333 44.8909C19.7222 44.9465 19.6111 45.0299 19.5278 45.0855C16.9445 46.5587 14.25 46.781 11.5556 45.419C9.58334 44.4462 8.36112 42.7784 7.66667 40.7215C7.25001 39.5262 7.11112 38.3032 7.33334 37.0524C7.52779 35.9683 8.00001 34.9955 8.80556 34.245C9.55556 33.5223 10.4722 33.1609 11.5278 33.2443C12.8056 33.3555 13.7222 34.4117 13.6111 35.6904C13.5833 36.1629 13.4722 36.5799 13.2778 36.9968C13.1111 37.3859 13 37.8029 12.9722 38.2476C12.9167 39.0815 13.2222 39.7486 13.8333 40.2767C14.7222 41.0272 15.75 41.3052 16.8889 41.0828C17.9722 40.8605 18.9167 40.3879 19.7778 39.693C19.9167 39.5818 20.0278 39.4706 20.1111 39.3317C20.7778 38.1642 21.75 37.3303 22.9167 36.7188C23.5833 36.3853 24.2778 36.1351 25.0278 35.9961C25.5278 35.8849 26 35.7182 26.4444 35.3846C26.3889 35.329 26.3611 35.2734 26.3056 35.2456C25.3056 34.4117 24.8056 33.3277 24.6945 32.0769C24.6389 31.5209 24.6667 30.9372 24.7778 30.3813C24.8056 30.2145 24.7778 30.1033 24.6945 29.9922C24.1111 29.1027 23.6111 28.1854 23.25 27.1847C23.1111 26.8234 23.0278 26.462 23 26.0729C22.9167 25.2668 23.3056 24.7943 24.0833 24.6275C24.5556 24.5163 25.0556 24.5441 25.5556 24.5997C26.0556 24.6553 26.5556 24.7109 27.0556 24.7387C27.8056 24.7943 28.5556 24.7109 29.3056 24.5441C30.4444 24.2939 31.5833 24.016 32.7222 23.7658C33.2778 23.6546 33.8056 23.4045 34.25 23.0709C34.4167 22.9597 34.4722 22.8208 34.4722 22.6262C34.5278 20.8472 35.0278 19.1795 35.8333 17.5951C36.2778 16.7334 36.8611 15.9273 37.5556 15.2324C38.2222 14.5931 38.9444 14.1206 39.8056 13.787C40.7778 13.4256 41.75 13.1755 42.7778 13.0921C43.5556 13.0087 44.3333 13.1477 45.0833 13.3701C45.3056 13.4256 45.5 13.4812 45.7222 13.5646C46.3056 13.7592 46.8889 13.7592 47.4444 13.5646C47.8611 13.4256 48.2778 13.2589 48.6944 13.1199C49.7222 12.7307 50.7778 12.5918 51.8611 12.8141C52.2222 12.8975 52.5833 13.0087 52.8889 13.1755C53.75 13.648 54.6667 13.7036 55.6111 13.509C56.1944 13.3701 56.8056 13.3145 57.4167 13.2033C58.2222 13.0643 59 13.0921 59.7778 13.3423C60.3611 13.509 60.9722 13.7036 61.5556 13.926C62.4722 14.2595 63.25 14.871 63.8889 15.5937C64.9722 16.7612 65.6667 18.151 66.1667 19.6798C66.5278 20.8194 66.7222 21.9869 66.6944 23.1821C66.6944 23.8492 66.5833 24.5163 66.3889 25.1834C65.5833 27.7407 62.9444 28.2132 61.3056 27.4349C60.8611 27.0736 60.4722 26.7678 60.0278 26.5176ZM47.5833 21.5421C47.6667 20.875 48.1111 20.5415 48.6667 20.3469C48.8333 20.2913 49.0278 20.2357 49.1944 20.1801C49.9722 20.0133 50.75 20.0133 51.5556 20.0967C52.0278 20.1523 52.5 20.2635 52.9167 20.4859C53.2222 20.6526 53.5 20.875 53.5833 21.2364C53.6389 21.4309 53.75 21.5143 53.9167 21.5977C54.5556 21.8201 55.1389 22.1536 55.6389 22.5984C56.5833 23.4323 56.8056 24.5997 56.25 25.7393C55.8611 26.5454 55.25 27.1292 54.5 27.6295C54.3333 27.7407 54.25 27.8519 54.25 28.0464C54.1944 28.7969 53.9722 29.5196 53.6389 30.1867C53.6111 30.2423 53.6111 30.2979 53.5833 30.4091C53.9167 30.3535 54.2222 30.3257 54.5278 30.2423C55.5 30.0478 56.4167 29.7698 57.2778 29.2973C58.6389 28.519 59.2222 27.3237 59.1667 25.7671C59.1667 25.5726 59.1111 25.378 58.9722 25.2112C58.25 24.155 57.8056 23.0153 57.5833 21.7645C57.3611 20.5137 57.1389 19.2628 56.9167 17.9842C56.8889 17.8174 56.8611 17.6229 56.8611 17.4561C56.8611 17.4005 56.8889 17.3171 56.9167 17.1781C57.0278 17.3171 57.1389 17.4005 57.1944 17.4839C57.3333 17.7341 57.4722 17.9564 57.5833 18.2066C57.9722 19.0961 58.1944 20.0411 58.3333 20.9862C58.3889 21.292 58.4167 21.5977 58.6667 21.8201C58.75 21.8757 58.7778 21.9869 58.8333 22.0703C59.3056 22.8763 59.6389 23.738 59.8333 24.6275C59.8611 24.7665 59.9167 24.9333 60 25.0444C60.3889 25.5448 60.8333 25.9617 61.3889 26.2675C61.8056 26.5176 62.2778 26.6566 62.75 26.6566C63.7222 26.6566 64.5556 26.3509 65.1111 25.4892C65.3889 25.0444 65.5833 24.5441 65.6667 24.016C65.8611 22.9597 65.8056 21.9035 65.5833 20.8472C65.25 19.1517 64.5833 17.5673 63.5 16.2053C62.8889 15.4548 62.1667 14.8155 61.2778 14.4541C60.4722 14.1206 59.6389 13.8704 58.75 13.7314C57.75 13.5924 56.7778 13.648 55.8611 14.1206C55.6111 14.2317 55.3611 14.3429 55.0833 14.4263C54.5278 14.5931 54 14.5375 53.5278 14.2317C53.4167 14.1483 53.2778 14.0928 53.1667 14.0094C52.6111 13.7036 52.0278 13.509 51.4167 13.4256C50.6944 13.3423 50 13.4256 49.3056 13.5646C49.0833 13.5924 48.8611 13.7036 48.6389 13.787C48.3056 13.9538 47.9722 14.1206 47.6667 14.2873C47.2222 14.5375 46.75 14.5931 46.25 14.4263C45.7778 14.2595 45.3333 14.1206 44.8611 13.9816C44.0556 13.7314 43.2222 13.6202 42.3889 13.7592C41.9167 13.8426 41.4444 13.9538 41 14.065C39.5833 14.3985 38.3889 15.1212 37.5 16.2887C36.3056 17.8174 35.6389 19.5408 35.3611 21.4309C35.3333 21.6533 35.3056 21.9035 35.2778 22.2092C35.4444 22.1258 35.5278 22.0703 35.6111 22.0147C36 21.8479 36.3889 21.6255 36.8056 21.4865C37.6111 21.2364 38.1944 21.5421 38.5278 22.3204C38.6389 22.5428 38.6944 22.793 38.75 23.0431C38.9444 24.0716 38.9722 25.1278 38.8333 26.1563C38.8056 26.2953 38.8056 26.462 38.8056 26.6288C38.8611 26.6288 38.9167 26.6288 38.9444 26.6288C39.0278 26.601 39.0833 26.601 39.1667 26.5732C40.0833 26.2397 40.75 25.5726 41.3056 24.7943C41.3611 24.7109 41.3889 24.5997 41.4167 24.5163C41.6111 23.7658 41.8889 23.0431 42.2778 22.3482C42.5 21.9869 42.6111 21.5699 42.6944 21.153C42.8611 20.3747 43.0278 19.5964 43.1944 18.8459C43.3333 18.29 43.6111 17.7618 43.9722 17.3171C44.0556 17.2059 44.1111 17.0947 44.3056 17.1225C44.3056 17.2337 44.3056 17.3449 44.2778 17.4561C44.2222 17.7063 44.1667 17.9842 44.0833 18.2344C43.8333 19.0683 43.6667 19.9022 43.5556 20.7638C43.4722 21.3476 43.4167 21.9035 43.3056 22.4872C43.1389 23.3767 42.6944 24.1828 42.25 24.9611C42.1944 25.0722 42.1111 25.1834 42.0833 25.3224C41.9167 26.4065 42.0556 27.4349 42.75 28.3244C43.1667 28.8803 43.7222 29.2417 44.3611 29.5474C45.3611 30.02 46.4444 30.2701 47.5278 30.4091C47.5833 30.4091 47.6389 30.4091 47.75 30.4091C47.7222 30.3257 47.6944 30.2701 47.6667 30.2423C47.3333 29.603 47.1111 28.9081 47.0556 28.1854C47.0278 27.9074 46.9167 27.7407 46.6944 27.5739C46.0556 27.1292 45.5278 26.5732 45.1667 25.8783C44.5278 24.6831 44.7778 23.4879 45.7778 22.5984C46.3333 22.0981 46.9167 21.8201 47.5833 21.5421ZM53.75 47.4204C53.8611 47.4204 53.9444 47.4481 54.0278 47.4481C56.4444 47.4481 58.8611 47.4481 61.25 47.4481C61.3889 47.4481 61.5556 47.4204 61.6944 47.337C62.9167 46.7254 63.8333 45.8082 64.4722 44.5851C65.1389 43.3065 65.2778 41.9445 65.1667 40.5547C65 38.5812 64.3611 36.7466 63.1944 35.1067C62.2778 33.828 61.1667 32.7718 59.75 32.0769C59.4444 31.9379 59.1667 31.7155 58.8889 31.5209C58.8056 31.4654 58.75 31.4376 58.6389 31.3264C58.6389 31.5487 58.6389 31.7155 58.6389 31.8823C58.6389 32.6328 58.4444 33.3277 58.0556 33.967C57.6111 34.7453 56.9444 35.3012 56.1944 35.746C55.2778 36.2741 54.3056 36.5521 53.2778 36.7744C52.3611 36.969 51.4444 37.247 50.5833 37.6639C49.9722 37.9697 49.3889 38.331 48.9444 38.8313C48.3611 39.4706 48.0278 40.1933 48.1111 41.1106C48.1944 41.9167 48.2222 42.695 48.2778 43.5011C48.2778 43.7791 48.2778 44.0292 48.25 44.3072C48.1944 44.6963 48.0278 45.0577 47.7778 45.3634C47.5 45.697 47.25 46.0305 47 46.3919C46.8056 46.6976 46.7222 47.059 46.8333 47.4481C48.3889 47.4481 49.9444 47.4481 51.5 47.4481C51.5556 47.3092 51.6111 47.1702 51.6667 47.059C52.1667 45.975 52.5556 44.8909 52.9444 43.7791C53.1389 43.1953 53.3889 42.6116 53.6111 42.0279C53.6389 41.9445 53.6944 41.8889 53.75 41.8055C53.7778 41.8055 53.8056 41.8333 53.8333 41.8333C53.9167 42.3059 53.9167 42.8062 53.8056 43.2787C53.7222 43.7791 53.5833 44.2516 53.4722 44.7519C53.5833 44.8353 53.7222 44.9187 53.8056 45.0021C54.25 44.8353 54.6667 44.6685 55.0833 44.5295C55.0278 44.335 54.9722 44.1682 54.8889 44.0014C54.75 43.5567 54.6667 43.0842 54.7222 42.6116C54.8056 42.0001 55.1389 41.5554 55.5833 41.1384C57.3333 39.4706 59.8611 39.8598 61.1944 40.8049C61.2222 40.8327 61.2778 40.8605 61.3611 40.8883C61.2778 40.9438 61.25 40.9438 61.25 40.9438C61.1667 40.916 61.0833 40.8883 61 40.8605C59.9167 40.4435 58.8056 40.3879 57.6667 40.6937C57.1667 40.8327 56.7222 41.0272 56.3611 41.3886C55.7778 41.9167 55.6667 42.5838 55.8333 43.3343C56 44.0292 56.5278 44.2794 57.1389 44.4184C57.4444 44.474 57.75 44.5296 58.0556 44.5573C58.75 44.6407 59.4444 44.7519 60.1111 44.9743C60.3056 45.0299 60.5 45.1411 60.6667 45.2523C60.8056 45.3634 60.8056 45.4746 60.6667 45.5858C60.5556 45.6692 60.4444 45.7248 60.3056 45.7526C59.7778 45.9194 59.25 45.9472 58.6944 45.9194C58.1944 45.8916 57.6944 45.7804 57.1944 45.6136C56.5556 45.419 55.9167 45.28 55.25 45.3634C54.8056 45.419 54.3611 45.5024 54.0833 45.8916C53.7222 46.3085 53.6667 46.8366 53.75 47.4204ZM38.1944 25.1H38.1667C38.1667 24.8499 38.1667 24.5997 38.1667 24.3217C38.1667 24.0994 38.1389 23.877 38.1111 23.6546C38.0556 23.3489 38 23.0431 37.8889 22.7652C37.7222 22.3204 37.3889 22.1536 36.9444 22.237C36.5833 22.2926 36.25 22.4316 35.9722 22.6262C35.5 22.9319 35.0278 23.2655 34.5833 23.599C34.0833 24.016 33.5 24.2661 32.8889 24.3773C31.6389 24.5997 30.4167 24.8777 29.1944 25.239C28.3333 25.4892 27.4444 25.517 26.5556 25.3502C26.0278 25.239 25.5 25.239 24.9722 25.1834C24.8056 25.1834 24.6111 25.2112 24.4444 25.239C24.0278 25.3502 23.8056 25.6004 23.8056 26.0451C23.7778 26.3787 23.8611 26.6844 23.9722 26.9902C24.3056 27.8797 24.7778 28.7135 25.3611 29.4918C25.5278 29.7142 25.6111 29.9366 25.5556 30.2145C25.4167 30.8538 25.3889 31.5209 25.4722 32.1603C25.6667 33.4945 26.3333 34.4951 27.5833 35.0789C28.3056 35.4402 29.0833 35.5792 29.8889 35.6348C31.9167 35.7182 33.8333 35.3012 35.6944 34.5229C36.4444 34.2172 37.1667 33.8002 37.8056 33.2721C38.4167 32.744 38.9167 32.1603 39.1389 31.382C39.5278 30.0478 39.1667 28.8803 38.3889 27.7963C38.1389 27.4627 38.0556 27.1292 38.0833 26.7122C38.1389 26.2119 38.1667 25.656 38.1944 25.1ZM27.2222 35.746C27.1667 35.7738 27.1389 35.7738 27.1389 35.7738C26.5 36.2741 25.7778 36.5521 25 36.7466C23.9722 36.969 23.0278 37.3859 22.2222 38.0252C21.0556 38.9425 20.3611 40.1378 20.2778 41.6388C20.1667 43.4177 20.6389 45.0577 21.5278 46.5587C21.6944 46.8366 21.9167 47.059 22.1111 47.3092C22.25 47.4759 22.4167 47.5037 22.6111 47.5037C23.6111 47.4759 24.6389 47.4759 25.6389 47.4481C26.3333 47.4481 27.0278 47.4481 27.6944 47.4481C27.8056 47.4481 27.9167 47.4481 28.0556 47.4204C28.0556 47.2814 28.0556 47.1702 28.0556 47.0312C28.0278 46.4753 27.8611 46.2529 27.3056 46.1417C26.4722 45.9472 25.6667 45.9749 24.8333 46.2529C24.5833 46.3363 24.3333 46.4197 24.0833 46.5031C24 46.5309 23.9167 46.5031 23.8056 46.5031C23.8611 46.2251 24.0278 46.1139 24.1944 46.0305C24.8611 45.6414 25.5833 45.419 26.3611 45.3078C26.9722 45.2245 27 45.1689 27.0556 44.5573C27.0556 44.5296 27.0556 44.5018 27.0556 44.5018C27.1111 43.1397 26.2222 41.9723 24.9445 41.7499C24.1667 41.611 23.4722 41.8055 22.8333 42.2781C22.7222 42.3615 22.6389 42.417 22.5 42.5282C22.5 42.4448 22.5 42.4448 22.5 42.417C22.5278 42.3892 22.5556 42.3337 22.5833 42.3059C23.1667 41.5832 23.9444 41.3052 24.8611 41.4164C26.6111 41.6388 27.6667 43.0286 28 44.3906C28.0278 44.5295 28.0278 44.6963 28.0556 44.8353C28.5 44.5851 28.6667 44.2516 28.6111 43.7235C28.5278 42.8618 28.4444 42.0279 28.3889 41.1662C28.3611 40.5825 28.3611 39.9988 28.3611 39.4429C28.3611 39.3039 28.3611 39.1371 28.5 38.9703C28.5556 39.1649 28.6111 39.2761 28.6389 39.4151C28.7778 40.0266 28.8889 40.6659 29.0278 41.2774C29.3056 42.8062 29.4444 44.335 29.8333 45.836C29.9722 46.3641 30.0556 46.92 30.1667 47.4759C31.25 47.4759 32.3333 47.4759 33.3889 47.4759C33.4167 47.0868 33.2222 46.8366 32.9722 46.6421C32.4722 46.2529 32.3889 45.8082 32.5556 45.2245C32.7778 44.5018 32.9722 43.7513 33.1944 43.0008C33.4722 42.0001 33.6389 40.9994 33.5833 39.971C33.5278 39.2483 33.2222 38.6924 32.6389 38.2754C32.3611 38.0808 32.0278 37.9141 31.7222 37.7473C31.4444 37.5805 31.1389 37.4415 30.8611 37.3025C30.5833 37.1358 30.3056 36.9134 30.1667 36.6076C30.0833 36.4687 29.9722 36.4131 29.8333 36.4131C28.9444 36.3019 28.0556 36.1351 27.2222 35.746ZM43.0833 29.6308C43.0278 29.742 43 29.7976 42.9722 29.881C42.5833 31.104 42.3611 32.3548 42.4167 33.6613C42.4722 34.8009 42.7222 35.8849 43.2778 36.8856C44.1389 38.5256 45.4722 39.693 47.0278 40.6103C47.0556 40.6381 47.0833 40.6381 47.1389 40.6381C47.1667 40.4991 47.1667 40.3601 47.2222 40.2211C47.3611 39.8042 47.4167 39.3595 47.6389 38.9981C47.8889 38.5812 48.2222 38.2198 48.5833 37.8863C49.2222 37.2748 50.0278 36.8856 50.8333 36.5521C51.7222 36.1907 52.6667 35.9961 53.5833 35.7738C54.5278 35.5514 55.4444 35.2178 56.2222 34.6341C57.8056 33.4945 57.9722 31.6599 57.3611 30.1033C57.0833 30.2145 56.8333 30.3257 56.5556 30.4369C55.5 30.826 54.3889 31.0484 53.25 31.1596C53.0833 31.1874 52.9722 31.243 52.8333 31.3264C52.5 31.5765 52.1667 31.8267 51.8056 31.9935C51.1389 32.327 50.4167 32.3548 49.6944 32.1047C49.2778 31.9657 48.9167 31.7155 48.5833 31.4376C48.3889 31.243 48.1667 31.1874 47.8889 31.1596C46.9722 31.0762 46.0833 30.9094 45.2222 30.6315C44.5278 30.4369 43.8056 30.1033 43.0833 29.6308ZM41.3889 47.4481C41.3889 47.3648 41.3889 47.3092 41.3889 47.2536C41.3611 46.5587 41.5556 45.9749 42.0278 45.4468C42.0833 45.3634 42.1667 45.3078 42.2222 45.2245C42.5833 44.8075 42.7778 44.335 42.8333 43.8069C42.8889 43.3899 42.9167 42.973 42.8889 42.5838C42.8056 40.916 42.6944 39.2483 42.5833 37.5527C42.5556 37.3581 42.5 37.1358 42.4167 36.9412C41.8333 35.6904 41.5833 34.3562 41.6111 32.9941C41.6389 31.7155 41.8889 30.4925 42.3333 29.3251C42.3889 29.1305 42.3889 29.0193 42.25 28.8525C41.75 28.2688 41.4444 27.5739 41.3056 26.8234C41.2778 26.6844 41.25 26.5176 41.2222 26.3231C40.5833 26.9346 39.9167 27.3237 39.0833 27.5461C39.2222 27.7685 39.3056 27.9352 39.4167 28.102C40.0278 29.2973 40.25 30.5203 39.7778 31.7989C39.4722 32.6328 38.9167 33.3277 38.2222 33.8836C38.0278 34.0504 37.8333 34.1894 37.6111 34.3562C37.6667 34.4673 37.75 34.5507 37.8056 34.6341C38.0278 35.0511 38.3056 35.4402 38.5 35.8571C38.9444 36.8578 39.1667 37.8863 39.0833 38.9981C38.9722 40.4435 38.3333 41.611 37.3056 42.5838C37.1944 42.695 37.0833 42.7784 37.0556 42.9452C36.8889 43.6679 36.75 44.3628 36.5556 45.0855C36.4722 45.4468 36.5278 45.7804 36.75 46.0861C37.0556 46.4753 37.3333 46.8644 37.3056 47.4204C38.6944 47.4481 40.0278 47.4481 41.3889 47.4481ZM19.5 40.8049C19.3889 40.8605 19.2778 40.916 19.1944 40.9716C18.6389 41.2774 18.0556 41.5276 17.4445 41.6943C15.9445 42.1113 14.6111 41.8333 13.4167 40.8605C12.75 40.3323 12.3611 39.6374 12.25 38.7757C12.1667 38.053 12.3056 37.3859 12.5833 36.7188C12.6945 36.4409 12.8056 36.1907 12.8611 35.8849C13.1111 34.6897 12.3611 33.828 11.1667 33.9114C10.5 33.9392 9.94445 34.2172 9.44445 34.6341C8.66667 35.329 8.25001 36.2185 8.11112 37.247C7.94445 38.4144 8.11112 39.554 8.52779 40.6381C9.16667 42.3337 10.1945 43.7513 11.8333 44.5851C14.3889 45.9194 16.8889 45.697 19.3333 44.2516C19.4444 44.1682 19.5556 44.0848 19.6667 44.0292C19.6111 43.4733 19.5 42.9452 19.4722 42.417C19.4167 41.9167 19.4722 41.3608 19.5 40.8049ZM53.6111 22.0703C53.5556 22.2092 53.5 22.2926 53.4722 22.4038C53.1944 23.0987 52.8056 23.6824 52.2778 24.1828C51.3333 25.1 50 25.1 49.0278 24.2106C48.4722 23.7102 48.0833 23.0987 47.7778 22.4038C47.75 22.2926 47.6944 22.2092 47.6389 22.1258C47 22.3204 46.25 22.793 45.8611 23.2933C45.5833 23.6546 45.4167 24.0716 45.4444 24.5719C45.4722 25.1556 45.7222 25.656 46.0833 26.1007C46.7778 26.9624 47.6667 27.5183 48.6667 27.9074C49.4722 28.2132 50.2778 28.4078 51.1389 28.2966C52.5278 28.1298 53.75 27.5461 54.8056 26.6288C55.2222 26.2397 55.5833 25.8227 55.8056 25.2668C56.0833 24.5163 56 23.8214 55.4722 23.2099C54.9722 22.654 54.3333 22.3482 53.6111 22.0703ZM64.7222 45.697C65.4444 45.697 66.0556 45.6136 66.6667 45.419C69.0556 44.7241 71.0833 43.4177 72.7778 41.611C73.7778 40.5269 74.5833 39.3317 75.0556 37.9141C75.6944 36.0795 75.6389 34.2728 74.8055 32.4938C74.75 32.3548 74.6944 32.2159 74.5555 32.1047C74.5555 32.1603 74.5278 32.1603 74.5278 32.1881C74.5278 32.2436 74.5278 32.2714 74.5555 32.327C74.8611 33.8836 74.6111 35.3568 73.8333 36.7466C73.1667 37.9697 72.3333 39.0537 71.3056 39.9988C70.1667 41.055 68.8611 41.8055 67.3333 42.1391C66.8611 42.2225 66.3889 42.2781 65.8889 42.3614C65.8056 43.5289 65.4444 44.6407 64.7222 45.697ZM31.4722 36.3575C31.4722 36.3853 31.4444 36.4131 31.4444 36.4409C31.5278 36.5243 31.6111 36.6076 31.7222 36.6632C31.9167 36.8022 32.1389 36.8856 32.3333 37.0246C32.6944 37.2748 33.0833 37.4971 33.4444 37.7473C34.0833 38.2476 34.4444 38.9147 34.5278 39.7208C34.6111 40.6103 34.6111 41.4998 34.5 42.3892C34.4722 42.6672 34.4444 42.9452 34.3889 43.3065C34.8056 43.1397 35.1944 43.0286 35.5278 42.8618C37.0278 42.1113 37.9722 40.9161 38.2222 39.2205C38.3889 37.9975 38.0833 36.83 37.5 35.746C37.3333 35.4124 37.1111 35.1067 36.8889 34.7731C35.1667 35.6626 33.3611 36.1351 31.4722 36.3575ZM42.2222 47.4481C43.5278 47.4481 44.7778 47.4481 46.0278 47.4481C46.0278 47.3648 46.0278 47.3092 46 47.2258C45.9167 46.6421 46.1111 46.1417 46.5278 45.697C46.6389 45.5858 46.75 45.4746 46.8611 45.3634C47.3056 44.9465 47.5833 44.4462 47.5278 43.8346C47.5 43.2231 47.4444 42.6116 47.4167 42.0001C47.4167 41.7499 47.3056 41.611 47.0833 41.4998C45.75 40.8049 44.5556 39.9154 43.5833 38.7479C43.5556 38.7202 43.5 38.6924 43.4444 38.6368C43.4444 38.6924 43.4167 38.7202 43.4167 38.7757C43.4722 39.6374 43.5 40.4991 43.5833 41.3608C43.6389 42.2781 43.75 43.2231 43.6944 44.1404C43.6667 44.7797 43.4444 45.3078 42.8889 45.6692C42.4722 45.975 42.25 46.3919 42.1667 46.8922C42.1944 47.1146 42.2222 47.2814 42.2222 47.4481ZM49.25 28.7413C48.8889 29.1861 48.6944 29.6864 48.6944 30.2701C48.6944 30.826 48.9444 31.243 49.4722 31.4376C50.2778 31.7711 51.1111 31.7433 51.9444 31.4376C52.2778 31.2986 52.5556 31.0484 52.6389 30.6871C52.8333 29.9644 52.5833 29.3528 52.1389 28.7413C51.1667 28.9915 50.2222 28.9915 49.25 28.7413ZM33.7222 44.196C33.6111 44.6129 33.5278 44.9743 33.4167 45.3078C33.2778 45.6692 33.3611 45.9194 33.6389 46.1695C33.9444 46.4197 34.1111 46.7254 34.1667 47.1146C34.1944 47.2258 34.2222 47.337 34.25 47.4759C35 47.4759 35.75 47.4759 36.4722 47.4759C36.4722 47.4204 36.4722 47.4203 36.4722 47.3926C36.4722 47.0312 36.25 46.781 35.9722 46.5587C35.6389 46.3085 35.5278 45.9749 35.6389 45.558C35.7778 44.9743 35.9167 44.3628 36.0278 43.7791C36.0556 43.6957 36.0556 43.6123 36.0556 43.5011C35.2778 43.8624 34.5 44.057 33.7222 44.196ZM28.9444 45.3356C28.6944 45.4746 28.5 45.558 28.3611 45.6692C28.5278 45.975 28.6944 46.1973 28.7778 46.4753C28.8611 46.7532 28.8611 47.0868 28.9167 47.3926C29.0556 47.3926 29.1944 47.3926 29.3333 47.3926C29.1944 46.7254 29.0556 46.0583 28.9444 45.3356ZM52.8333 47.4204C52.8611 47.059 52.8889 46.7254 52.8889 46.3919C52.8611 46.3919 52.8611 46.3919 52.8333 46.3919C52.6944 46.7254 52.5556 47.059 52.3889 47.4204C52.5833 47.4204 52.6944 47.4204 52.8333 47.4204Z" fill="url(#paint2_linear)"/>
<path d="M47.6103 65.6546C47.4714 65.6546 47.3881 65.6824 47.3325 65.6824C46.5825 65.6824 45.8325 65.6824 45.0547 65.6824C44.8603 65.6824 44.7492 65.5991 44.6381 65.4323C43.9714 64.1814 43.3047 62.9306 42.6381 61.7076C42.4714 61.4018 42.277 61.0961 42.1103 60.7903C41.9992 60.6235 41.8603 60.429 41.7492 60.2622C41.4992 59.9286 41.1658 59.7341 40.7492 59.6785C40.3325 59.6229 39.9436 59.6229 39.4992 59.6507C39.4992 61.6798 39.4992 63.6533 39.4992 65.6546C38.6936 65.6546 37.9158 65.6546 37.1381 65.6546C37.1381 60.8459 37.1381 56.0372 37.1381 51.2006C37.2214 51.2006 37.3047 51.1729 37.3881 51.1729C39.2214 51.1729 41.0547 51.1728 42.8881 51.2006C43.3603 51.2006 43.8325 51.284 44.3047 51.3952C44.9992 51.5342 45.5269 51.9511 45.9436 52.5349C46.3325 53.1186 46.5825 53.7579 46.6658 54.4528C46.7492 55.2033 46.7492 55.926 46.5547 56.6765C46.1936 58.0107 45.3881 58.9002 44.027 59.2337C43.9436 59.2615 43.8325 59.2893 43.7214 59.3171C43.8047 59.4005 43.8603 59.4561 43.9436 59.5117C44.4714 59.9286 44.9158 60.429 45.2492 61.0127C45.6936 61.8188 46.1103 62.6249 46.527 63.431C46.8603 64.0425 47.1658 64.6818 47.4714 65.2933C47.4992 65.3767 47.5269 65.5157 47.6103 65.6546ZM39.527 53.6745C39.527 54.8975 39.527 56.0928 39.527 57.3158C39.6381 57.3158 39.7214 57.3436 39.8047 57.3436C40.3047 57.3436 40.777 57.3714 41.277 57.3436C41.8603 57.3158 42.4158 57.288 42.9992 57.2324C43.527 57.1768 43.8603 56.8711 44.0825 56.3985C44.3047 55.8426 44.3325 55.2867 44.1658 54.703C43.9714 54.0914 43.4992 53.7023 42.8603 53.7023C41.8047 53.6745 40.7492 53.6745 39.6936 53.6745C39.6103 53.6467 39.5825 53.6467 39.527 53.6745Z" fill="url(#paint3_linear)"/>
<path d="M24.7769 55.3415C23.9713 55.3693 23.1936 55.3971 22.4158 55.4527C22.3325 55.147 22.2769 54.869 22.1936 54.591C21.9713 53.8405 21.4436 53.4792 20.6936 53.368C20.1936 53.3124 19.6936 53.3402 19.2213 53.5348C18.6102 53.7849 18.3047 54.2297 18.3325 54.8412C18.3602 55.2859 18.5547 55.6195 18.9158 55.8419C19.2491 56.0364 19.6102 56.2032 19.9713 56.3422C20.638 56.5924 21.3047 56.7869 21.9713 57.0093C22.2769 57.1205 22.5825 57.2595 22.888 57.3984C24.0547 57.9822 24.7769 58.8994 25.0269 60.1503C25.2213 61.1787 25.2213 62.1794 24.8602 63.18C24.3047 64.7366 23.2213 65.6539 21.5825 65.8763C20.7491 65.9874 19.9158 66.0152 19.0547 65.8207C17.8602 65.5427 16.9991 64.8756 16.388 63.8194C15.9158 62.9577 15.6936 62.0126 15.6102 60.9841C16.388 60.9008 17.138 60.7896 17.9158 60.7062C17.9713 60.9285 17.9991 61.1231 18.0547 61.2899C18.138 61.5957 18.2491 61.9014 18.3602 62.2072C18.6936 62.9577 19.2769 63.3468 20.0825 63.458C20.4991 63.5136 20.9158 63.4858 21.3325 63.3468C22.2769 63.0689 22.8602 62.1516 22.7213 61.1787C22.6658 60.7618 22.4436 60.4004 22.0825 60.2059C21.7213 60.0113 21.3602 59.8723 20.9991 59.7333C20.4436 59.5387 19.888 59.3998 19.3602 59.2052C18.9991 59.0662 18.638 58.9272 18.2769 58.7604C16.9436 58.0933 16.2491 56.9815 16.0825 55.5083C15.9713 54.6188 16.1102 53.7849 16.4991 52.9789C17.0269 51.9504 17.8325 51.3111 18.9436 51.0609C19.9158 50.8385 20.888 50.8385 21.8325 51.0887C23.3047 51.4779 24.138 52.4507 24.5547 53.8683C24.7213 54.3409 24.7769 54.8134 24.7769 55.3415Z" fill="url(#paint4_linear)"/>
<path d="M52.2214 51.1729C53.0825 51.1729 53.8881 51.1729 54.7492 51.1729C56.3047 55.9816 57.8603 60.7903 59.4158 65.6268C59.1658 65.7102 57.2769 65.7102 56.8603 65.6546C56.5269 64.5984 56.1936 63.5143 55.8603 62.4303C54.3047 62.4303 52.7769 62.4303 51.1936 62.4303C50.8881 63.4865 50.5547 64.5706 50.2214 65.6824C49.3881 65.6824 48.5825 65.6824 47.6936 65.6824C49.2214 60.8181 50.7214 56.0094 52.2214 51.1729ZM55.0825 59.9008C54.5547 58.1219 54.0269 56.4263 53.5269 54.703C53.4992 54.703 53.4714 54.703 53.4714 54.703C52.9714 56.4263 52.4436 58.1497 51.9436 59.9008C52.9992 59.9008 53.9992 59.9008 55.0825 59.9008Z" fill="url(#paint5_linear)"/>
<path d="M64.638 65.6549C63.8325 65.6549 63.0547 65.6549 62.2492 65.6549C62.2492 65.5159 62.2492 65.3769 62.2492 65.2657C62.2492 63.459 62.2492 61.6522 62.2492 59.8733C62.2492 59.6787 62.1936 59.5119 62.1103 59.3451C60.7769 56.7601 59.4436 54.1472 58.1103 51.5344C58.0547 51.451 58.0269 51.3398 57.9714 51.2287C58.2214 51.1453 60.2769 51.1453 60.7492 51.2009C61.638 53.0632 62.5547 54.9255 63.4714 56.8435C63.7492 56.3431 63.9436 55.8706 64.1658 55.4259C64.388 54.9533 64.6103 54.4808 64.8325 54.0083C65.0547 53.5357 65.2769 53.0632 65.4992 52.5907C65.7214 52.1181 65.9436 51.6456 66.1658 51.1731C67.0825 51.1731 67.9714 51.1731 68.888 51.1731C68.8047 51.3676 68.7214 51.5066 68.638 51.6734C67.3325 54.2306 66.0269 56.7879 64.7214 59.3729C64.638 59.5397 64.5825 59.7065 64.5825 59.9011C64.5825 61.68 64.5825 63.4868 64.5825 65.2657C64.638 65.4047 64.638 65.5159 64.638 65.6549Z" fill="url(#paint6_linear)"/>
<path d="M29.7498 53.6463C28.5832 53.6463 27.4443 53.6463 26.3609 53.6463C26.2776 53.3961 26.2498 51.5893 26.3332 51.2002C29.3887 51.2002 32.472 51.2002 35.5554 51.2002C35.5554 52.0063 35.5554 52.7846 35.5554 53.6463C35.1943 53.6463 34.8054 53.6463 34.4443 53.6463C34.0554 53.6463 33.6943 53.6463 33.3054 53.6463C32.9165 53.6463 32.5554 53.6463 32.1387 53.6463C32.1387 55.0083 32.1387 56.3147 32.1387 57.6489C32.1387 58.9831 32.1387 60.3173 32.1387 61.6516C32.1387 62.9858 32.1387 64.32 32.1387 65.6542C31.3332 65.6542 30.5554 65.6542 29.7498 65.6542C29.7498 61.6516 29.7498 57.6767 29.7498 53.6463Z" fill="url(#paint7_linear)"/>
<path d="M52.5831 19.5958C52.5553 19.2623 52.6664 19.0121 52.8609 18.8176C53.5553 18.1227 54.9998 18.1227 55.6386 18.8454C55.8331 19.0399 55.972 19.2901 55.9164 19.5958C54.8053 18.9009 53.722 18.8731 52.5831 19.5958Z" fill="url(#paint8_linear)"/>
<path d="M45.0826 19.5682C45.0271 19.318 45.1104 19.1234 45.2493 18.9289C45.4993 18.5953 45.8326 18.4007 46.2215 18.3452C46.9438 18.2062 47.6104 18.2896 48.166 18.8455C48.3882 19.0679 48.4438 19.2624 48.4438 19.6238C47.3049 18.9011 46.1938 18.8733 45.0826 19.5682Z" fill="url(#paint9_linear)"/>
<path d="M53.4992 17.5117C53.4992 17.9565 53.1659 18.2066 52.7492 18.0399C52.3325 17.9009 51.9992 17.4006 51.9714 16.9836C51.9436 16.5111 52.3047 16.2609 52.7214 16.4277C53.1381 16.5667 53.4992 17.067 53.4992 17.5117Z" fill="url(#paint10_linear)"/>
<path d="M48.3053 17.5394C48.3053 17.0668 48.6942 16.5387 49.1386 16.3997C49.5275 16.2885 49.8331 16.5109 49.8331 16.9C49.8608 17.3726 49.4997 17.9007 49.0275 18.0675C48.6386 18.2065 48.3331 17.9563 48.3053 17.5394Z" fill="url(#paint11_linear)"/>
<path d="M30.7225 33.5221C30.8614 33.6332 30.9725 33.6888 31.0836 33.7722C31.528 34.0224 32.1114 33.9668 32.4725 33.6332C32.5836 33.5221 32.6669 33.4109 32.6114 33.2441C32.5558 33.0773 32.528 32.9383 32.3058 32.9105C32.0003 32.8549 31.7503 32.716 31.5003 32.5214C31.1947 32.2434 31.1947 31.9933 31.528 31.7431C32.028 31.4095 32.5836 31.2428 33.1669 31.2706C33.6391 31.2984 33.8336 31.5763 33.6669 32.0211C33.5836 32.2434 33.4725 32.438 33.3336 32.6048C33.1114 32.9105 33.1947 33.2997 33.5836 33.4109C34.1391 33.5776 34.7225 33.3275 34.9725 32.7994C35.0002 32.7438 35.028 32.6882 35.0558 32.6048C35.1947 32.8827 35.1391 33.1885 34.9169 33.4387C34.6114 33.7722 34.2225 33.939 33.778 33.9112C33.3891 33.8834 33.0836 33.939 32.7225 34.1892C32.278 34.5227 31.7503 34.4949 31.2225 34.2726C30.9447 34.1336 30.778 33.9112 30.7225 33.5221Z" fill="url(#paint12_linear)"/>
<path d="M25.8885 25.7666C26.4162 25.8222 26.9162 25.9056 27.444 25.9612C27.4996 25.9612 27.5829 25.989 27.6385 26.0168C27.8051 26.1002 27.8329 26.2113 27.7496 26.3781C27.6385 26.5449 27.4996 26.7117 27.3607 26.8784C26.8885 27.4066 26.5274 27.9903 26.3051 28.6574C26.1385 29.1021 25.9718 29.1299 25.6662 28.7686C25.1662 28.1571 24.8329 27.4344 24.694 26.6561C24.6385 26.2391 24.8051 25.989 25.2218 25.8778C25.3051 25.85 25.4162 25.85 25.5274 25.8222C25.6385 25.7944 25.7496 25.7944 25.8885 25.7666C25.8607 25.7944 25.8607 25.7944 25.8885 25.7666ZM25.9996 26.2113C25.8329 26.2391 25.7218 26.2391 25.6107 26.2669C25.2774 26.3503 25.1662 26.4893 25.194 26.8507C25.2218 27.1286 25.3051 27.4066 25.3885 27.6567C25.5274 28.0181 25.8329 28.0737 26.1385 27.8235C26.4162 27.5734 26.5551 27.2398 26.6385 26.9062C26.694 26.7117 26.6107 26.5171 26.4162 26.4337C26.2774 26.3225 26.1107 26.2669 25.9996 26.2113Z" fill="url(#paint13_linear)"/>
<path d="M37.7494 24.8777C37.6939 25.2669 37.6383 25.6282 37.5828 26.0174C37.5828 26.1007 37.555 26.1563 37.5272 26.2397C37.3605 26.6567 37.2217 26.7123 36.9439 26.3787C36.4439 25.795 35.8328 25.378 35.1661 25.0723C35.0272 24.9889 34.8605 24.9055 34.7494 24.8221C34.5828 24.7109 34.555 24.572 34.7217 24.4052C34.7772 24.3496 34.8328 24.3218 34.8883 24.294C35.3328 24.0438 35.7772 23.7937 36.2217 23.5713C36.3883 23.4879 36.5828 23.4323 36.7772 23.4045C37.2217 23.3211 37.4994 23.4879 37.6383 23.9326C37.6661 24.1828 37.6939 24.5442 37.7494 24.8777ZM37.3328 24.9611C37.2772 24.6831 37.2217 24.433 37.1661 24.155C37.1383 23.9882 37.0272 23.877 36.8328 23.8493C36.4994 23.7937 36.0272 23.9882 35.8605 24.294C35.7494 24.4608 35.7494 24.6275 35.8605 24.7943C36.055 25.0723 36.2772 25.3224 36.6105 25.4614C37.055 25.6004 37.305 25.4336 37.3328 24.9611Z" fill="url(#paint14_linear)"/>
<path d="M29.8881 30.5203C29.4714 30.2423 29.0547 30.1311 28.6103 30.1867C28.1936 30.2423 27.8047 30.3535 27.4158 30.4647C27.4992 29.9643 28.0547 29.5752 28.6936 29.5752C29.3325 29.5752 29.8047 29.9365 29.8881 30.5203Z" fill="url(#paint15_linear)"/>
<path d="M36.1662 28.6859C35.2218 28.7137 34.444 28.9638 33.9718 29.8255C33.8051 29.6031 33.8329 29.3808 33.8885 29.1862C34.194 28.2689 35.4718 27.9354 36.1662 28.6859Z" fill="url(#paint16_linear)"/>
<path d="M54.8614 25.9612C54.5558 25.9612 54.3336 25.8222 54.3336 25.6555C54.3336 25.4887 54.4725 25.3219 54.6947 25.2941C54.8336 25.2663 55.0003 25.2941 55.1392 25.3497C55.3614 25.4609 55.3614 25.6833 55.167 25.8222C55.0558 25.9056 54.917 25.9334 54.8614 25.9612Z" fill="url(#paint17_linear)"/>
<path d="M46.5547 25.962C46.4714 25.9342 46.4158 25.9342 46.388 25.9342C46.1658 25.8786 46.0269 25.7397 46.0269 25.6007C46.0269 25.4339 46.1936 25.2949 46.4436 25.2949C46.5825 25.2949 46.7214 25.3227 46.8602 25.3783C46.9714 25.4339 47.0547 25.5451 47.0269 25.6841C46.9991 25.7675 46.9158 25.8508 46.8325 25.9342C46.7214 25.962 46.6102 25.962 46.5547 25.962Z" fill="url(#paint18_linear)"/>
<path d="M54.9167 24.905C54.6667 24.905 54.4445 24.766 54.4445 24.5714C54.4445 24.4046 54.6111 24.2656 54.8611 24.2101C55.1389 24.1545 55.4445 24.3212 55.4445 24.5158C55.4445 24.7104 55.1945 24.905 54.9167 24.905Z" fill="url(#paint19_linear)"/>
<path d="M46.3603 24.21C46.3881 24.21 46.4158 24.21 46.4436 24.21C46.7214 24.2656 46.8881 24.4323 46.8603 24.5991C46.8325 24.7659 46.6103 24.9049 46.3603 24.8771C46.3325 24.8771 46.3047 24.8771 46.3047 24.8771C46.0547 24.8215 45.8881 24.6825 45.8881 24.5157C45.8881 24.3489 46.1103 24.21 46.3603 24.21Z" fill="url(#paint20_linear)"/>
<path d="M46.6379 23.9328C46.3601 23.9328 46.1101 23.7661 46.1379 23.5715C46.1379 23.3769 46.4435 23.2101 46.7212 23.2657C46.9435 23.3213 47.1379 23.4881 47.1379 23.6271C47.1101 23.7938 46.8879 23.9328 46.6379 23.9328Z" fill="url(#paint21_linear)"/>
<path d="M54.6948 23.9322C54.417 23.9322 54.1948 23.7932 54.1948 23.5987C54.1948 23.4319 54.3614 23.2651 54.6114 23.2373C54.667 23.2373 54.7503 23.2373 54.8059 23.2373C55.0281 23.2651 55.167 23.4041 55.167 23.5431C55.167 23.682 55.0281 23.8488 54.8337 23.8766C54.8059 23.9322 54.7503 23.9322 54.6948 23.9322Z" fill="url(#paint22_linear)"/>
</g>
<defs>
<linearGradient id="paint0_linear" x1="83.8117" y1="42.0045" x2="0.62202" y2="41.6983" gradientUnits="userSpaceOnUse">
<stop stop-color="#F89A87"/>
<stop offset="1" stop-color="#D46493"/>
</linearGradient>
<linearGradient id="paint1_linear" x1="80.2701" y1="42.0003" x2="4.20386" y2="41.7204" gradientUnits="userSpaceOnUse">
<stop stop-color="#F89A87"/>
<stop offset="1" stop-color="#D46493"/>
</linearGradient>
<linearGradient id="paint2_linear" x1="76.0904" y1="30.6062" x2="7.76414" y2="30.1215" gradientUnits="userSpaceOnUse">
<stop stop-color="#F89A87"/>
<stop offset="1" stop-color="#D46493"/>
</linearGradient>
<linearGradient id="paint3_linear" x1="47.59" y1="58.4277" x2="37.219" y2="58.4001" gradientUnits="userSpaceOnUse">
<stop stop-color="#F89A87"/>
<stop offset="1" stop-color="#D46493"/>
</linearGradient>
<linearGradient id="paint4_linear" x1="25.1382" y1="58.4304" x2="15.684" y2="58.4084" gradientUnits="userSpaceOnUse">
<stop stop-color="#F89A87"/>
<stop offset="1" stop-color="#D46493"/>
</linearGradient>
<linearGradient id="paint5_linear" x1="59.3932" y1="58.4331" x2="47.7842" y2="58.3986" gradientUnits="userSpaceOnUse">
<stop stop-color="#F89A87"/>
<stop offset="1" stop-color="#D46493"/>
</linearGradient>
<linearGradient id="paint6_linear" x1="68.8669" y1="58.4085" x2="58.0557" y2="58.3785" gradientUnits="userSpaceOnUse">
<stop stop-color="#F89A87"/>
<stop offset="1" stop-color="#D46493"/>
</linearGradient>
<linearGradient id="paint7_linear" x1="35.5374" y1="58.4272" x2="26.3545" y2="58.4055" gradientUnits="userSpaceOnUse">
<stop stop-color="#F89A87"/>
<stop offset="1" stop-color="#D46493"/>
</linearGradient>
<linearGradient id="paint8_linear" x1="55.9223" y1="18.9478" x2="52.605" y2="18.9163" gradientUnits="userSpaceOnUse">
<stop stop-color="#F89A87"/>
<stop offset="1" stop-color="#D46493"/>
</linearGradient>
<linearGradient id="paint9_linear" x1="48.4372" y1="18.955" x2="45.0916" y2="18.9238" gradientUnits="userSpaceOnUse">
<stop stop-color="#F89A87"/>
<stop offset="1" stop-color="#D46493"/>
</linearGradient>
<linearGradient id="paint10_linear" x1="53.4962" y1="17.2339" x2="51.9817" y2="17.2289" gradientUnits="userSpaceOnUse">
<stop stop-color="#F89A87"/>
<stop offset="1" stop-color="#D46493"/>
</linearGradient>
<linearGradient id="paint11_linear" x1="49.8316" y1="17.2386" x2="48.3171" y2="17.2337" gradientUnits="userSpaceOnUse">
<stop stop-color="#F89A87"/>
<stop offset="1" stop-color="#D46493"/>
</linearGradient>
<linearGradient id="paint12_linear" x1="35.123" y1="32.8537" x2="30.7566" y2="32.8314" gradientUnits="userSpaceOnUse">
<stop stop-color="#F89A87"/>
<stop offset="1" stop-color="#D46493"/>
</linearGradient>
<linearGradient id="paint13_linear" x1="27.7891" y1="27.3921" x2="24.7077" y2="27.3812" gradientUnits="userSpaceOnUse">
<stop stop-color="#F89A87"/>
<stop offset="1" stop-color="#D46493"/>
</linearGradient>
<linearGradient id="paint14_linear" x1="37.7434" y1="24.9896" x2="34.634" y2="24.9784" gradientUnits="userSpaceOnUse">
<stop stop-color="#F89A87"/>
<stop offset="1" stop-color="#D46493"/>
</linearGradient>
<linearGradient id="paint15_linear" x1="29.8833" y1="30.0477" x2="27.4351" y2="30.0242" gradientUnits="userSpaceOnUse">
<stop stop-color="#F89A87"/>
<stop offset="1" stop-color="#D46493"/>
</linearGradient>
<linearGradient id="paint16_linear" x1="36.1618" y1="29.049" x2="33.8634" y2="29.0363" gradientUnits="userSpaceOnUse">
<stop stop-color="#F89A87"/>
<stop offset="1" stop-color="#D46493"/>
</linearGradient>
<linearGradient id="paint17_linear" x1="55.3076" y1="25.6222" x2="54.3412" y2="25.6171" gradientUnits="userSpaceOnUse">
<stop stop-color="#F89A87"/>
<stop offset="1" stop-color="#D46493"/>
</linearGradient>
<linearGradient id="paint18_linear" x1="47.0303" y1="25.6285" x2="46.0347" y2="25.623" gradientUnits="userSpaceOnUse">
<stop stop-color="#F89A87"/>
<stop offset="1" stop-color="#D46493"/>
</linearGradient>
<linearGradient id="paint19_linear" x1="55.4425" y1="24.5521" x2="54.4522" y2="24.5469" gradientUnits="userSpaceOnUse">
<stop stop-color="#F89A87"/>
<stop offset="1" stop-color="#D46493"/>
</linearGradient>
<linearGradient id="paint20_linear" x1="46.8614" y1="24.5453" x2="45.8956" y2="24.5401" gradientUnits="userSpaceOnUse">
<stop stop-color="#F89A87"/>
<stop offset="1" stop-color="#D46493"/>
</linearGradient>
<linearGradient id="paint21_linear" x1="47.136" y1="23.5939" x2="46.1436" y2="23.5885" gradientUnits="userSpaceOnUse">
<stop stop-color="#F89A87"/>
<stop offset="1" stop-color="#D46493"/>
</linearGradient>
<linearGradient id="paint22_linear" x1="55.1651" y1="23.5848" x2="54.2023" y2="23.5798" gradientUnits="userSpaceOnUse">
<stop stop-color="#F89A87"/>
<stop offset="1" stop-color="#D46493"/>
</linearGradient>
<clipPath id="clip0">
<rect width="84" height="84" fill="white"/>
</clipPath>
</defs>
</svg>
