<svg width="42" height="42" viewBox="0 0 42 42" fill="none" xmlns="http://www.w3.org/2000/svg">
    <g clip-path="url(#oppo1_clip0)">
    <path d="M10.8971 16.7466C10.8008 17.8005 11.1195 18.8389 11.8988 19.5548C13.0215 20.5721 13.5829 21.8674 13.6193 23.375C13.6485 24.6191 13.6339 25.8633 13.6266 27.1074C13.6193 27.8758 13.1017 28.3954 12.3435 28.3954C8.66183 28.3954 4.98018 28.3954 1.29852 28.3954C0.511161 28.3954 0.00812299 27.8831 0.00812299 27.0854C0.00812299 25.9145 0.000832589 24.7435 0.00812299 23.5726C0.0299942 21.3259 1.05794 19.6939 3.02635 18.6474C3.08847 18.6127 3.15058 18.5846 3.20651 18.5507C3.21278 18.5469 3.21373 18.5471 3.2189 18.5419C3.24893 18.5118 3.26038 18.4607 3.24086 18.4229C2.67972 17.3368 2.58285 16.1947 3.01906 15.0175C3.33255 14.1759 3.86475 13.5099 4.60837 13.0269C6.13206 12.0316 8.07131 12.1414 9.46377 13.2977C10.5392 14.1947 11.0223 15.3779 10.8971 16.7466Z" fill="url(#oppo1_paint0-linear)"/>
    <path d="M39.2649 15.7698C39.5339 17.3246 40.086 19.0618 40.994 20.3522C41.6356 21.2597 41.9928 22.2696 41.9928 23.3893C42.0001 24.6188 41.9928 25.8556 41.9928 27.0851C41.9928 27.8974 41.4825 28.4024 40.666 28.4024C37.0062 28.4024 33.3537 28.4024 29.6939 28.4024C28.8847 28.4024 28.3671 27.8974 28.3671 27.0851C28.3671 25.6946 28.3015 24.2968 28.4181 22.9209C28.5931 20.9523 29.6648 19.5325 31.4218 18.6397C31.5495 18.5827 31.5886 18.416 31.5304 18.2888C31.0574 17.2544 30.9762 16.1882 31.3634 15.0903C31.6623 14.2487 32.1873 13.5754 32.9236 13.0777C34.44 12.0532 36.3938 12.1483 37.8081 13.2973C38.4881 13.8318 39.0805 14.7035 39.2649 15.7698Z" fill="url(#oppo1_paint1-linear)"/>
    <path d="M17.3817 6.21479C17.4046 6.19017 17.397 6.15157 17.3862 6.11968C16.5625 3.68768 16.9331 2.0189 18.5696 0.804978C19.9986 -0.263501 21.9597 -0.270819 23.3959 0.790341C24.2416 1.4124 24.7956 2.23937 25.0071 3.27126C25.1932 4.19862 25.0824 5.0834 24.6802 5.93115C24.614 6.07076 24.6503 6.25369 24.7884 6.32301C26.7203 7.3549 27.7045 8.97225 27.7556 11.1604C27.7847 12.3314 27.7701 13.5023 27.7628 14.6732C27.7556 15.5588 27.2598 16.0637 26.385 16.0637C22.7762 16.0637 19.1747 16.0637 15.566 16.0564C14.7859 16.0564 14.2464 15.5954 14.2391 14.8489C14.2173 13.4364 14.1808 12.0167 14.2829 10.6116C14.4141 8.68684 15.4493 7.30367 17.1043 6.36692C17.1841 6.32685 17.2639 6.28677 17.3382 6.24113C17.3523 6.23247 17.3704 6.22689 17.3817 6.21479Z" fill="url(#oppo1_paint2-linear)"/>
    <path d="M17.1916 32.2593C17.3195 32.1892 17.3762 32.0347 17.3329 31.8953C16.5902 29.5033 16.9975 27.8948 18.6278 26.7046C20.0348 25.6727 22.0251 25.6947 23.4249 26.7412C24.9232 27.8659 25.3664 29.3901 24.7875 31.4898C24.6837 31.8664 24.8422 32.2589 25.1746 32.4642C26.8586 33.54 27.7262 35.0915 27.7626 37.0967C27.7845 38.2676 27.7699 39.4386 27.7626 40.6095C27.7554 41.5097 27.2596 42 26.3483 42C22.776 42 19.211 42 15.6387 42C14.7274 42 14.2244 41.517 14.2244 40.6095C14.2244 39.2556 14.1806 37.9017 14.2754 36.5551C14.4139 34.5865 15.471 33.1814 17.1916 32.2593Z" fill="url(#oppo1_paint3-linear)"/>
    <path d="M36.4243 9.65295C36.4243 9.80698 36.2766 9.92373 36.1226 9.92373C35.8073 9.92373 35.4929 9.92373 35.175 9.92373C34.5041 9.92373 33.9719 9.37973 33.9601 8.70888C33.9529 7.8819 33.7269 7.12079 33.2311 6.45482C32.4948 5.48148 31.5179 4.9692 30.2931 4.95456C29.7787 4.95043 29.2666 4.95096 28.7594 4.95221C28.1055 4.95382 27.5643 4.44564 27.5236 3.79295C27.5043 3.4834 27.4849 3.17366 27.4656 2.85937C27.453 2.6542 27.6161 2.48096 27.8216 2.48096C28.9225 2.50291 30.0379 2.43705 31.1315 2.56146C33.7706 2.86151 35.9431 5.00579 36.3295 7.64772C36.4243 8.30637 36.4024 8.98697 36.4243 9.65295Z" fill="url(#oppo1_paint4-linear)"/>
    <path d="M13.245 2.47717C13.9575 2.47818 14.5221 3.08155 14.4777 3.79267C14.4609 4.0634 14.444 4.33563 14.4271 4.61227C14.4154 4.80439 14.2562 4.95431 14.0637 4.95431C13.2764 4.95431 12.4817 4.93968 11.6944 4.96163C9.72596 5.00554 8.1731 6.5424 8.1002 8.51835C8.09751 8.57597 8.09548 8.63369 8.09399 8.69149C8.07647 9.37172 7.55131 9.92348 6.87086 9.92348C6.1904 9.92348 5.6167 9.37177 5.63115 8.69147C5.63346 8.58266 5.63731 8.47367 5.64334 8.36467C5.79644 5.50319 7.75026 3.21255 10.5425 2.61244C10.8851 2.53926 11.2424 2.49535 11.5923 2.49535C12.1416 2.47913 12.6954 2.47639 13.245 2.47717Z" fill="url(#oppo1_paint5-linear)"/>
    <path d="M33.9521 32.2558C34.023 31.5254 34.6101 30.8979 35.3439 30.8979C35.9577 30.8979 36.4712 31.3411 36.4658 31.9548C36.4395 34.9598 34.1523 37.788 31.4179 38.2155C30.7465 38.3205 30.2264 37.7384 30.2264 37.0589C30.2264 36.381 30.7462 35.8269 31.392 35.6208C33.0072 35.1054 33.7901 33.9237 33.9521 32.2558Z" fill="url(#oppo1_paint6-linear)"/>
    <path d="M11.6299 35.8159C11.7292 35.8159 11.7976 35.9166 11.7976 36.0158C11.7976 36.3247 11.7976 36.6303 11.7976 36.9373C11.7976 37.6782 11.1872 38.2946 10.4623 38.1419C9.34756 37.907 8.37358 37.3787 7.51816 36.5624C6.20099 35.3 5.66828 33.7735 5.61731 32.0708C5.59758 31.4116 6.15889 30.9053 6.81834 30.9053C6.90915 30.9053 7.00018 30.9053 7.09151 30.9053C7.64119 30.9053 8.08681 31.3509 8.08681 31.9006C8.0941 34.1107 9.43553 35.6037 11.6299 35.8159Z" fill="url(#oppo1_paint7-linear)"/>
    </g>
    <defs>
    <linearGradient id="oppo1_paint0-linear" x1="13.6104" y1="20.3723" x2="0.110221" y2="20.33" gradientUnits="userSpaceOnUse">
    <stop stop-color="#F89A87"/>
    <stop offset="1" stop-color="#D46493"/>
    </linearGradient>
    <linearGradient id="oppo1_paint1-linear" x1="41.9697" y1="20.3853" x2="28.4542" y2="20.3429" gradientUnits="userSpaceOnUse">
    <stop stop-color="#F89A87"/>
    <stop offset="1" stop-color="#D46493"/>
    </linearGradient>
    <linearGradient id="oppo1_paint2-linear" x1="27.7468" y1="8.03138" x2="14.3192" y2="7.98967" gradientUnits="userSpaceOnUse">
    <stop stop-color="#F89A87"/>
    <stop offset="1" stop-color="#D46493"/>
    </linearGradient>
    <linearGradient id="oppo1_paint3-linear" x1="27.748" y1="33.9717" x2="14.3191" y2="33.9299" gradientUnits="userSpaceOnUse">
    <stop stop-color="#F89A87"/>
    <stop offset="1" stop-color="#D46493"/>
    </linearGradient>
    <linearGradient id="oppo1_paint4-linear" x1="36.4069" y1="6.20234" x2="27.512" y2="6.16283" gradientUnits="userSpaceOnUse">
    <stop stop-color="#F89A87"/>
    <stop offset="1" stop-color="#D46493"/>
    </linearGradient>
    <linearGradient id="oppo1_paint5-linear" x1="14.5422" y1="6.20027" x2="5.69728" y2="6.16122" gradientUnits="userSpaceOnUse">
    <stop stop-color="#F89A87"/>
    <stop offset="1" stop-color="#D46493"/>
    </linearGradient>
    <linearGradient id="oppo1_paint6-linear" x1="36.454" y1="34.5846" x2="30.2747" y2="34.5653" gradientUnits="userSpaceOnUse">
    <stop stop-color="#F89A87"/>
    <stop offset="1" stop-color="#D46493"/>
    </linearGradient>
    <linearGradient id="oppo1_paint7-linear" x1="11.7857" y1="34.5937" x2="5.66101" y2="34.5748" gradientUnits="userSpaceOnUse">
    <stop stop-color="#F89A87"/>
    <stop offset="1" stop-color="#D46493"/>
    </linearGradient>
    <clipPath id="oppo1_clip0">
    <rect width="42" height="42" fill="white"/>
    </clipPath>
    </defs>
</svg>