<svg width="42" height="42" viewBox="0 0 42 42" fill="none" xmlns="http://www.w3.org/2000/svg">
    <path d="M5.78977 28.3061C5.8378 28.1981 6.00034 28.215 6.04551 28.3242C6.91987 30.4393 7.78616 32.4905 8.61213 34.5551C9.03513 35.6124 9.60397 36.5238 10.6833 37.0269C11.5949 37.4499 12.543 37.5301 13.4765 37.1655C14.833 36.6332 16.1895 36.0936 17.4949 35.4592C18.9754 34.7374 19.7411 33.4759 19.7484 31.828C19.7703 27.5624 19.7557 23.2967 19.7557 19.0311C19.7557 18.9208 19.7557 18.8106 19.7557 18.7098C19.7557 18.6502 19.7691 18.5571 19.8287 18.5571C21.929 18.4696 24.0148 18.4696 25.8818 19.6728C26.8445 20.2926 27.6759 21.0436 28.2739 22.028C29.3678 23.8217 30.9577 24.704 33.0508 24.704C35.0563 24.6967 37.0619 24.704 39.0674 24.704C40.1249 24.704 40.6135 25.2801 40.4677 26.3374C40.3364 27.3144 40.2051 28.2842 40.103 29.2686C40.0739 29.553 39.9936 29.6332 39.7092 29.6259C37.1056 29.6186 34.5093 29.6186 31.9058 29.6186C31.3588 29.6186 30.9358 29.8374 30.6951 30.3405C30.294 31.1863 30.9139 32.0832 31.8985 32.0832C34.2176 32.0905 36.5441 32.0832 38.8632 32.0832C39.1585 32.0832 39.3613 32.3794 39.2332 32.6456C38.8676 33.4056 38.3915 34.0597 37.8203 34.6426C36.2742 36.203 34.3999 36.9905 32.1975 36.9978C29.572 36.9978 26.9466 36.9978 24.3211 36.9978C23.2053 36.9978 22.6437 37.4426 22.3812 38.5217C22.1843 39.3384 21.9874 40.1478 21.7832 40.9644C21.6081 41.6644 21.1779 42.0071 20.4486 42.0071C14.0672 42.0071 7.68593 42.0071 1.31191 42.0071C0.290898 41.9999 -0.292536 41.1103 0.14504 40.1769C2.01932 36.2176 3.90819 32.2582 5.78977 28.3061ZM24.2992 27.1394C24.9702 27.1321 25.5244 26.5707 25.5172 25.8999C25.5099 25.2363 24.941 24.6894 24.2701 24.6967C23.5918 24.704 23.0449 25.2655 23.0521 25.929C23.0594 26.6071 23.6283 27.154 24.2992 27.1394Z" fill="url(#paint0_linear)"/>
    <path d="M34.1369 2.53063C34.3612 2.55701 34.5453 2.72829 34.5453 2.95413C34.5453 2.96123 34.5453 2.96833 34.5453 2.97542C34.5453 6.78896 34.5453 10.6025 34.5526 14.4233C34.5526 14.7733 34.4578 14.8681 34.1078 14.8681C29.7539 14.8535 25.4073 14.8608 21.0534 14.8535C19.3031 14.8535 17.9174 13.8546 17.3924 12.265C17.2975 11.9806 17.3121 11.8202 17.6184 11.6671C18.5155 11.2077 19.3833 10.6973 20.2804 10.2306C20.5429 10.0994 20.8565 10.0119 21.1409 10.0046C23.11 9.98271 25.0791 10.0046 27.0482 9.99001C27.9963 9.98271 28.587 9.04209 28.164 8.22542C27.9088 7.72959 27.4639 7.5473 26.9242 7.5473C25.6698 7.5473 24.4227 7.54001 23.1684 7.54001C22.3078 7.54001 21.4399 7.51813 20.5794 7.55459C20.2439 7.56917 19.8719 7.64938 19.5802 7.8098C16.1015 9.69105 12.6301 11.6015 9.15134 13.4973C8.83045 13.6723 8.51685 13.8546 8.17408 13.9785C6.89053 14.4452 5.49028 13.8181 4.92873 12.5567C4.38176 11.3244 4.88497 9.87334 6.10289 9.2098C8.60437 7.86084 11.1131 6.51917 13.6146 5.17751C15.1242 4.36813 16.6266 3.55146 18.1435 2.75667C18.3988 2.62542 18.7197 2.53792 19.0041 2.53792C24.0508 2.52334 29.0902 2.53063 34.1369 2.53063Z" fill="url(#paint1_linear)"/>
    <path d="M16.7513 18.4951C17.0462 18.4884 17.2975 18.7221 17.2975 19.0171C17.2975 23.2098 17.2975 27.4025 17.2975 31.5879C17.2975 32.5577 16.9767 33.0317 16.0869 33.4108C15.0221 33.8556 13.9647 34.315 12.8999 34.7525C12.032 35.1098 11.4121 34.8473 11.0548 33.9942C9.44305 30.115 7.83861 26.2358 6.21958 22.364C6.11018 22.0942 6.13206 21.9265 6.37273 21.7952C6.76655 21.5838 7.14578 21.3285 7.56877 21.1827C9.99002 20.3223 12.4113 19.4473 14.8617 18.6744C15.446 18.4911 16.0888 18.5103 16.7513 18.4951Z" fill="url(#paint2_linear)"/>
    <path d="M39.68 17.2958C38.2058 17.3081 37.0107 16.1081 37.0107 14.6339C37.0107 9.87098 37.0107 5.13368 37.0107 0.372732C37.0107 0.17553 37.1636 0 37.3608 0C38.4693 0 39.5706 0 40.6791 0C41.4959 0 42.0064 0.503125 42.0064 1.3125C42.0064 6.20521 42.0064 11.1052 42.0064 15.9979C42.0064 16.6979 41.5688 17.2302 40.9198 17.2812C40.5113 17.3177 40.0957 17.2958 39.68 17.2958Z" fill="url(#paint3_linear)"/>
    <defs>
    <linearGradient id="paint0_linear" x1="40.4146" y1="30.2655" x2="0.312189" y2="30.011" gradientUnits="userSpaceOnUse">
    <stop stop-color="#F89A87"/>
    <stop offset="1" stop-color="#D46493"/>
    </linearGradient>
    <linearGradient id="paint1_linear" x1="34.4949" y1="8.69847" x2="4.94141" y2="8.43537" gradientUnits="userSpaceOnUse">
    <stop stop-color="#F89A87"/>
    <stop offset="1" stop-color="#D46493"/>
    </linearGradient>
    <linearGradient id="paint2_linear" x1="17.276" y1="26.6889" x2="6.24255" y2="26.6614" gradientUnits="userSpaceOnUse">
    <stop stop-color="#F89A87"/>
    <stop offset="1" stop-color="#D46493"/>
    </linearGradient>
    <linearGradient id="paint3_linear" x1="41.9967" y1="8.65157" x2="37.0493" y2="8.64631" gradientUnits="userSpaceOnUse">
    <stop stop-color="#F89A87"/>
    <stop offset="1" stop-color="#D46493"/>
    </linearGradient>
    </defs>
</svg>