<svg width="42" height="42" viewBox="0 0 42 42" fill="none" xmlns="http://www.w3.org/2000/svg">
    <path d="M12.7394 22.4814C12.3355 19.8996 12.9647 17.6211 14.5804 15.5993C14.5027 15.5138 14.4405 15.4282 14.3706 15.3582C13.0812 14.0674 11.784 12.7765 10.5023 11.4778C10.3004 11.2757 10.1761 11.2834 9.95081 11.439C6.22231 14.0518 1.13447 12.0688 0.147966 7.62077C-0.706482 3.79481 2.23748 0.0621721 6.1524 -3.86279e-05C9.89644 -0.0622493 12.8249 2.9783 12.5996 6.71872C12.5297 7.9085 12.1335 8.99718 11.4267 9.96145C11.2946 10.1481 11.2558 10.2647 11.4422 10.4514C12.7783 11.7733 14.0988 13.1031 15.427 14.4328C15.4737 14.4795 15.528 14.5106 15.5824 14.5573C18.2856 12.481 21.214 12.0377 24.4143 13.3131C25.0823 12.0999 25.7426 10.9024 26.4184 9.67373C26.3251 9.57263 26.2319 9.47154 26.1387 9.37045C25.1134 8.25843 24.8959 6.64095 25.6027 5.33453C26.3329 3.97367 27.7622 3.2738 29.3235 3.51487C30.7217 3.7326 31.9179 4.93794 32.1742 6.39211C32.5937 8.83388 30.4498 10.8635 27.9331 10.4125C27.8165 10.3891 27.6146 10.4436 27.5602 10.5291C26.9155 11.6645 26.2941 12.8154 25.6494 13.9896C26.6514 14.705 27.4981 15.5449 28.135 16.5869C28.7642 17.6211 29.1448 18.7332 29.3312 19.9696C29.4788 19.9696 29.6187 19.9774 29.7585 19.9696C32.3684 19.8763 34.9861 19.7752 37.5961 19.6896C37.8524 19.6819 37.9146 19.5497 38.0078 19.3708C38.4195 18.5621 39.2351 18.1033 40.1128 18.2121C40.9828 18.321 41.5965 18.8109 41.8839 19.643C42.2334 20.6617 41.7363 21.7737 40.7731 22.217C39.8021 22.668 38.6603 22.3258 38.101 21.3927C37.9534 21.1438 37.8058 21.0583 37.5262 21.0738C34.9007 21.1827 32.2752 21.276 29.6497 21.3771C29.572 21.3771 29.5021 21.4004 29.3856 21.416C29.2613 23.2823 28.6166 24.9465 27.4282 26.4006C27.4981 26.4862 27.5447 26.5562 27.6068 26.6184C28.904 27.9248 30.209 29.2157 31.4984 30.5299C31.6926 30.7321 31.8169 30.7243 32.0499 30.5687C34.2404 29.099 36.5397 28.9435 38.8234 30.2577C41.1071 31.5719 42.148 33.6637 41.946 36.2844C41.713 39.3716 39.0642 41.8678 36.0115 41.9844C32.7956 42.1088 30.0148 39.8926 29.4866 36.7743C29.1992 35.0635 29.5643 33.4771 30.5663 32.054C30.6906 31.8829 30.776 31.7585 30.5741 31.5641C29.2225 30.2266 27.8787 28.8735 26.5349 27.5282C26.5116 27.5049 26.4727 27.4815 26.4184 27.4504C26.0533 27.6993 25.6882 27.9715 25.3076 28.197C23.0705 29.5112 20.7091 29.76 18.2545 28.9124C17.9749 28.8191 17.8506 28.8657 17.7185 29.1301C17.1359 30.3277 16.5378 31.5252 15.932 32.7072C15.8154 32.9405 15.8543 33.0572 16.0407 33.2205C17.3068 34.3792 17.7962 35.81 17.3534 37.4741C16.9107 39.1538 15.7766 40.1803 14.091 40.5536C11.4655 41.129 8.88664 38.8739 9.0886 36.1988C9.28279 33.5238 11.5898 31.7663 14.2075 32.3029C14.4872 32.3573 14.5881 32.2951 14.7047 32.0618C15.2872 30.872 15.8776 29.6978 16.4679 28.5158C16.5223 28.4147 16.5611 28.3058 16.6155 28.1814C16.5223 28.1114 16.4446 28.0492 16.3592 27.9948C14.9455 27.0383 13.9046 25.7785 13.2521 24.2077C13.1433 23.9355 13.0424 23.8655 12.7472 23.9511C10.4946 24.5732 8.23415 25.1797 5.96598 25.7863C5.72518 25.8485 5.61643 25.9263 5.58536 26.2062C5.44554 27.6215 4.26485 28.6947 2.87443 28.7102C1.49955 28.7258 0.280017 27.7148 0.0935922 26.4162C-0.123904 24.9387 0.707241 23.64 2.10543 23.2512C3.17737 22.9557 4.34253 23.3368 5.01055 24.2388C5.18921 24.4799 5.3368 24.5188 5.61643 24.441C7.90791 23.8111 10.2071 23.1968 12.5064 22.5747C12.5841 22.5436 12.6462 22.5125 12.7394 22.4814ZM32.2131 39.1772C34.5511 39.1772 36.8582 39.1772 39.204 39.1772C39.0253 37.2564 37.9922 36.1288 36.1047 35.6934C37.3009 35.2501 37.9146 34.3636 37.7747 33.3449C37.6427 32.3729 36.8504 31.603 35.895 31.5097C34.9551 31.4164 34.0152 32.0151 33.7122 32.9094C33.5103 33.5082 33.5646 34.0837 33.8754 34.628C34.1783 35.1568 34.6521 35.4756 35.2735 35.6778C33.1685 36.3777 32.1354 37.5752 32.2131 39.1772ZM6.75829 6.2988C7.99335 5.77778 8.57593 4.90683 8.39727 3.88813C8.21862 2.87721 7.3797 2.13068 6.3932 2.10735C5.39117 2.08402 4.53672 2.74501 4.29592 3.72483C4.1561 4.30028 4.25708 4.82907 4.56002 5.32675C4.86297 5.81666 5.31349 6.11216 5.98152 6.30657C5.02609 6.47765 4.29592 6.83536 3.72888 7.4808C3.15407 8.13401 2.84336 8.88832 2.84336 9.79037C5.18144 9.79037 7.48845 9.79037 9.84207 9.79037C9.66341 7.86184 8.6303 6.72649 6.75829 6.2988ZM25.2066 25.8874C25.1056 24.2155 24.3988 22.9557 22.9462 22.2014C21.4082 21.4004 19.8857 21.5326 18.4875 22.5591C17.3767 23.3679 16.8485 24.5032 16.8019 25.8952C19.6216 25.8874 22.3869 25.8874 25.2066 25.8874ZM20.9965 21.0039C22.5345 21.0039 23.7929 19.7519 23.8006 18.2277C23.8084 16.688 22.5578 15.4204 21.0353 15.4127C19.474 15.4049 18.2157 16.6569 18.2079 18.2121C18.2079 19.7363 19.4663 21.0039 20.9965 21.0039Z" fill="url(#paint0_linear)"/>
    <circle cx="35.5" cy="35.5" r="6.5" fill="#EE8B8A"/>
    <circle cx="6.5" cy="6.5" r="6.5" fill="#DD728F"/>
    <circle cx="21" cy="21" r="8" fill="url(#paint1_linear)"/>
    <defs>
    <linearGradient id="paint0_linear" x1="41.9145" y1="20.9942" x2="0.324189" y2="20.8411" gradientUnits="userSpaceOnUse">
    <stop stop-color="#F89A87"/>
    <stop offset="1" stop-color="#D46493"/>
    </linearGradient>
    <linearGradient id="paint1_linear" x1="16.0769" y1="14.2308" x2="25.9231" y2="27.7692" gradientUnits="userSpaceOnUse">
    <stop stop-color="#E0778E"/>
    <stop offset="1" stop-color="#EA858B"/>
    </linearGradient>
    </defs>
</svg>