<svg width="42" height="42" viewBox="0 0 42 42" fill="none" xmlns="http://www.w3.org/2000/svg">
    <path d="M9.54317 21.7694C9.48414 21.6218 9.53772 21.4502 9.66984 21.3618C10.4114 20.8661 11.1275 20.3732 11.8615 19.9103C12.0438 19.7937 12.2989 19.7645 12.5249 19.7645C16.0827 19.7572 19.6477 19.7354 23.2054 19.7718C25.0207 19.7864 26.333 20.6758 27.1422 22.3089C27.2588 22.5495 27.2516 22.7098 27.0401 22.9067C26.1726 23.7086 25.3269 24.5179 24.4739 25.3417C24.0656 25.7354 23.5991 25.9249 23.0304 25.9249C20.7485 25.9176 18.4593 25.9176 16.1774 25.9249C15.9587 25.9249 15.7327 25.9395 15.5286 26.0051C14.9672 26.1801 14.6173 26.7414 14.6975 27.3028C14.7777 27.8933 15.2588 28.3672 15.8567 28.3672C18.3864 28.3745 20.9089 28.3891 23.4387 28.3526C24.4812 28.338 25.3779 27.8714 26.1361 27.1424C29.6064 23.8253 33.0839 20.5154 36.5468 17.1983C37.1373 16.6297 37.8153 16.2724 38.6464 16.236C39.9879 16.1776 41.1398 16.8411 41.6793 18.0294C42.2479 19.2834 42.0438 20.4571 41.1471 21.4851C40.5274 22.1995 39.8567 22.8702 39.2078 23.5628C36.1823 26.7852 33.1422 30.0002 30.1313 33.2445C28.5711 34.9213 26.6756 35.7742 24.3791 35.767C21.9514 35.7524 19.5164 35.7597 17.0887 35.767C16.8409 35.767 16.695 35.7086 16.5784 35.4753C14.2382 30.9043 11.8907 26.3405 9.54317 21.7694Z" fill="url(#paint0_linear)"/>
    <path d="M22.0973 1.45096C22.2013 1.55495 22.3738 1.54033 22.483 1.44179C23.1864 0.806851 23.973 0.359921 24.8823 0.145977C28.0171 -0.597644 31.3124 1.53115 31.9977 4.72435C32.3768 6.48863 32.0196 8.12168 31.152 9.66724C30.1678 11.4242 28.8118 12.8677 27.2443 14.0925C25.9102 15.135 24.4813 16.0609 23.0815 17.0305C22.5712 17.3805 22.0463 17.3732 21.5141 17.0524C18.6708 15.3319 16.0171 13.3853 14.0414 10.6514C13.1228 9.38292 12.525 7.99045 12.423 6.38656C12.2334 3.36833 14.5663 0.481335 17.5627 0.0584922C19.2978 -0.182091 20.7996 0.284495 22.0973 1.45096Z" fill="url(#paint1_linear)"/>
    <path d="M10.0752 41.8618C9.79145 42.0037 9.44469 42.0162 9.14463 41.9131C8.79304 41.7924 8.55652 41.5552 8.38384 41.2203C7.3486 39.2154 6.31337 37.2106 5.27084 35.2057C3.60863 31.9833 1.93912 28.761 0.276913 25.5386C-0.240706 24.5471 -0.0511552 23.9493 0.962211 23.4536C2.28177 22.8047 3.59405 22.1559 4.91361 21.5143C5.92697 21.0186 6.48104 21.2008 6.99137 22.1923C9.49927 27.0696 12.0072 31.9469 14.5151 36.8242C14.6973 37.1814 14.8942 37.5313 15.0618 37.8959C15.368 38.5447 15.1712 39.2154 14.5369 39.5508C13.057 40.3381 11.5697 41.0963 10.0752 41.8618Z" fill="url(#paint2_linear)"/>
    <defs>
    <linearGradient id="paint0_linear" x1="41.9342" y1="25.9997" x2="9.69357" y2="25.8019" gradientUnits="userSpaceOnUse">
    <stop stop-color="#F89A87"/>
    <stop offset="1" stop-color="#D46493"/>
    </linearGradient>
    <linearGradient id="paint1_linear" x1="32.11" y1="8.64505" x2="12.5648" y2="8.56296" gradientUnits="userSpaceOnUse">
    <stop stop-color="#F89A87"/>
    <stop offset="1" stop-color="#D46493"/>
    </linearGradient>
    <linearGradient id="paint2_linear" x1="15.1741" y1="31.6245" x2="0.115689" y2="31.5838" gradientUnits="userSpaceOnUse">
    <stop stop-color="#F89A87"/>
    <stop offset="1" stop-color="#D46493"/>
    </linearGradient>
    </defs>
</svg>