<svg width="50" height="55" viewBox="0 0 50 55" fill="none" xmlns="http://www.w3.org/2000/svg">
<path d="M20.9355 50.7031H8.59375C6.22459 50.7031 4.28513 48.7754 4.28513 46.4062V13.9648C4.28513 11.5957 6.22459 9.66797 8.59375 9.66797H15.3496V10.7422C15.3496 14.2963 18.2407 17.1875 21.7949 17.1875C25.3486 17.1875 28.2402 14.2963 28.2402 10.7422V9.66797H35.0078C37.3769 9.66797 39.3047 11.5957 39.3047 13.9648V30.5078C39.3047 31.6945 40.2664 32.6562 41.4531 32.6562C42.6394 32.6562 43.6015 31.6945 43.6015 30.5078V13.9648C43.6015 9.22611 39.7461 5.37109 35.0078 5.37109H28.2402V2.14844C28.2402 0.961761 27.278 0 26.0918 0H17.498C16.3113 0 15.3496 0.961761 15.3496 2.14844V5.37109H8.59375C3.85502 5.37109 0 9.22611 0 13.9648V46.4062C0 51.145 3.85502 55 8.59375 55H20.9355C22.1218 55 23.084 54.0382 23.084 52.8516C23.084 51.6649 22.1218 50.7031 20.9355 50.7031ZM19.6465 4.29688H23.9433V10.7422C23.9433 11.9268 22.9795 12.8906 21.7949 12.8906C20.6099 12.8906 19.6465 11.9268 19.6465 10.7422V4.29688ZM48.8891 37.9892L38.2565 52.8411C38.233 52.8734 38.209 52.9053 38.1843 52.9363C37.2187 54.1377 35.7832 54.8854 34.2458 54.9878C34.1241 54.9958 34.0024 55 33.8811 55C32.4695 55 31.0974 54.4558 30.0697 53.4772L23.2069 46.8876C22.3513 46.0659 22.3236 44.706 23.1456 43.8499C23.9668 42.9943 25.3272 42.9662 26.1832 43.7887L33.0389 50.3712C33.3717 50.688 33.759 50.7132 33.9596 50.7006C34.1539 50.6876 34.5164 50.615 34.8055 50.2797L45.3954 35.4878C46.0857 34.5231 47.4276 34.3007 48.3927 34.9914C49.3574 35.6821 49.5798 37.024 48.8891 37.9892ZM14.8125 25.6738C14.8125 26.8605 13.8503 27.8223 12.664 27.8223H11.5898C10.4031 27.8223 9.44138 26.8605 9.44138 25.6738C9.44138 24.4872 10.4031 23.5254 11.5898 23.5254H12.664C13.8503 23.5254 14.8125 24.4872 14.8125 25.6738ZM34.3633 25.6738C34.3633 26.8605 33.4011 27.8223 32.2148 27.8223H20.1836C18.9969 27.8223 18.0351 26.8605 18.0351 25.6738C18.0351 24.4872 18.9969 23.5254 20.1836 23.5254H32.2148C33.4011 23.5254 34.3633 24.4872 34.3633 25.6738ZM14.8125 34.2676C14.8125 35.4543 13.8503 36.416 12.664 36.416H11.5898C10.4031 36.416 9.44138 35.4543 9.44138 34.2676C9.44138 33.0809 10.4031 32.1191 11.5898 32.1191H12.664C13.8503 32.1191 14.8125 33.0809 14.8125 34.2676ZM34.3633 34.2676C34.3633 35.4543 33.4011 36.416 32.2148 36.416H20.1836C18.9969 36.416 18.0351 35.4543 18.0351 34.2676C18.0351 33.0809 18.9969 32.1191 20.1836 32.1191H32.2148C33.4011 32.1191 34.3633 33.0809 34.3633 34.2676Z" fill="#00B674"/>
</svg>
