<svg width="32" height="34" viewBox="0 0 32 34" fill="none" xmlns="http://www.w3.org/2000/svg">
<path d="M30.8027 14.1743C31.212 13.6326 31.5167 13.0342 31.7079 12.3961C32.1655 10.8744 31.7199 9.22481 30.5453 8.09125L27.2968 4.95768V3.98616C27.2968 3.45617 26.8671 3.02633 26.3369 3.02633C25.8068 3.02633 25.3771 3.45611 25.3771 3.98616V4.95801L22.129 8.09119C21.8365 8.37321 21.5906 8.68898 21.3908 9.02692C21.2464 8.93986 21.0777 8.88892 20.8968 8.88892C20.3667 8.88892 19.937 9.31871 19.937 9.84876V10.4993L17.5134 12.837C16.5519 13.7643 16.1874 15.1159 16.5622 16.3649C16.7175 16.8814 16.9634 17.3642 17.293 17.7998C17.3469 17.8711 17.4107 17.9324 17.4804 17.9851V28.2043H9.60452V18.1803H12.5978V24.1504C12.5978 24.6804 13.0276 25.1103 13.5577 25.1103C14.0878 25.1103 14.5175 24.6805 14.5175 24.1504V17.9849C14.5873 17.9322 14.6511 17.8709 14.705 17.7996C15.0345 17.364 15.2804 16.8812 15.436 16.3641C15.8107 15.1157 15.4461 13.7641 14.4846 12.8368L12.0651 10.5031L15.9989 3.02214L18.0126 6.85165C18.2594 7.32081 18.8398 7.50124 19.3088 7.2544C19.778 7.00771 19.9584 6.42745 19.7117 5.95816L16.8484 0.51312C16.6827 0.197625 16.3556 0 15.9991 0C15.6426 0 15.3154 0.197625 15.1496 0.51312L10.6419 9.08562C10.4363 8.7255 10.1785 8.38955 9.86928 8.09132L6.62103 4.95795V3.98616C6.62103 3.45617 6.19131 3.02633 5.66119 3.02633C5.13107 3.02633 4.70136 3.45611 4.70136 3.98616V4.95762L1.45264 8.09132C0.278113 9.22481 -0.167339 10.8743 0.289933 12.3954C0.481515 13.0341 0.786054 13.6327 1.19531 14.1742C1.27792 14.2835 1.38238 14.371 1.49932 14.4354V28.3395C1.21803 28.5069 1.02903 28.8131 1.02903 29.164V33.0402C1.02903 33.5702 1.45875 34.0001 1.98887 34.0001H30.0095C30.5396 34.0001 30.9693 33.5703 30.9693 33.0402V29.164C30.9693 28.813 30.7802 28.5068 30.499 28.3395V18.1995C30.499 17.6695 30.0693 17.2397 29.5392 17.2397C29.0091 17.2397 28.5793 17.6695 28.5793 18.1995V28.2041H19.4002V18.1803H22.3935V24.4384C22.3935 24.9684 22.8232 25.3982 23.3533 25.3982C23.8834 25.3982 24.3131 24.9684 24.3131 24.4384V17.9851C24.3831 17.9322 24.4472 17.8707 24.5012 17.7991C24.8312 17.3623 25.077 16.8794 25.2313 16.3645C25.4113 15.7658 25.4194 15.1437 25.2747 14.5554H30.0371C30.3379 14.5554 30.6214 14.4144 30.8027 14.1743ZM3.41892 28.2042V14.5555H6.72342C6.57866 15.1436 6.58676 15.7655 6.76659 16.364C6.92112 16.8795 7.16682 17.3624 7.49692 17.7992C7.55098 17.8708 7.61499 17.9324 7.68498 17.9852V28.2043H3.41892V28.2042ZM10.859 12.4739C10.8592 12.4737 10.8594 12.4735 10.8595 12.4733L11.101 12.2403L13.1519 14.2186C13.5939 14.6447 13.7645 15.2554 13.5975 15.8118C13.5515 15.9646 13.4897 16.1158 13.4143 16.2608H8.78792C8.71249 16.1157 8.65079 15.9646 8.60511 15.812C8.44454 15.2778 8.59601 14.6942 8.9991 14.2713C9.00228 14.2681 9.00574 14.2653 9.00879 14.2622L10.859 12.4739ZM2.78541 9.47283L5.66086 6.69925L8.53651 9.47297C9.05408 9.97201 9.32243 10.6487 9.28305 11.3268L8.43199 12.1477L7.92597 12.6358H2.47377C2.32721 12.3834 2.21 12.1151 2.12852 11.8433C1.8789 11.0131 2.13064 10.1047 2.78541 9.47283ZM29.0494 32.0803H2.94864V30.1237H29.0496V32.0803H29.0494ZM23.3926 15.8126C23.3469 15.9649 23.2853 16.1157 23.2099 16.2607H18.5836C18.5082 16.1158 18.4464 15.9648 18.4005 15.8123C18.2335 15.2554 18.4041 14.6447 18.846 14.2186L20.8969 12.2404L21.1385 12.4736C21.1387 12.4737 21.1388 12.4739 21.139 12.4741L21.793 13.105L22.9466 14.2177L22.9892 14.2623C22.9922 14.2654 22.9954 14.268 22.9984 14.2709C23.4019 14.6939 23.5535 15.2776 23.3926 15.8126ZM29.8694 11.844C29.788 12.1155 29.6709 12.3835 29.5244 12.6358H24.0719L22.7149 11.3268C22.6755 10.6486 22.9439 9.97194 23.4615 9.47283L26.3371 6.69925L29.2125 9.47277C29.8674 10.1047 30.1192 11.0131 29.8694 11.844Z" fill="#00B674"/>
</svg>
