<svg width="62" height="62" viewBox="0 0 62 62" fill="none" xmlns="http://www.w3.org/2000/svg">
<path d="M41.817 38.5719C41.1533 38.5719 40.6151 39.11 40.6151 39.7738V48.0671C40.6151 51.3808 37.9192 54.0767 34.6055 54.0767H21.6285C20.965 54.0767 20.4271 54.6144 20.4266 55.2778L20.4249 57.6675L17.5562 54.7989C17.3705 54.3725 16.9455 54.0767 16.4539 54.0767H8.64393C5.33023 54.0767 2.63431 51.3808 2.63431 48.0671V29.5575C2.63431 26.2438 5.33023 23.5479 8.64393 23.5479H20.7834C21.4471 23.5479 21.9853 23.0098 21.9853 22.346C21.9853 21.6821 21.4471 21.144 20.7834 21.144H8.64393C4.00475 21.144 0.230469 24.9183 0.230469 29.5575V48.0671C0.230469 52.7063 4.00475 56.4806 8.64393 56.4806H15.8384L20.7748 61.417C21.0047 61.6469 21.3121 61.769 21.6249 61.769C21.7796 61.769 21.9358 61.7391 22.0842 61.6777C22.5334 61.4919 22.8263 61.0539 22.8266 60.568L22.8295 56.4806H34.6055C39.2447 56.4806 43.0189 52.7063 43.0189 48.0671V39.7738C43.0189 39.11 42.4807 38.5719 41.817 38.5719Z" fill="black"/>
<path d="M44.3005 0.230469H41.2585C31.6258 0.230469 23.7891 8.06725 23.7891 17.6999C23.7891 27.3326 31.6258 35.1693 41.2584 35.1693H44.3004C45.8038 35.1693 47.2919 34.9783 48.7343 34.6009L53.2279 39.092C53.4578 39.3217 53.765 39.4438 54.0778 39.4438C54.2327 39.4438 54.3889 39.4139 54.5376 39.3522C54.9867 39.1662 55.2794 38.7279 55.2794 38.2419V31.288C57.182 29.7473 58.7624 27.801 59.8715 25.6267C61.1313 23.1573 61.7698 20.4903 61.7698 17.6999C61.7698 8.06725 53.9331 0.230469 44.3005 0.230469ZM53.3543 29.7419C53.053 29.9689 52.8756 30.3245 52.8756 30.702V35.3414L49.9344 32.4017C49.7055 32.1731 49.3986 32.0499 49.0846 32.0499C48.9668 32.0499 48.8478 32.0674 48.7317 32.1031C47.3011 32.5427 45.8102 32.7656 44.3005 32.7656H41.2585C32.9512 32.7656 26.1929 26.0071 26.1929 17.6999C26.1929 9.39273 32.9513 2.63431 41.2585 2.63431H44.3005C52.6077 2.63431 59.366 9.39273 59.366 17.6999C59.366 22.4753 57.1749 26.8645 53.3543 29.7419Z" fill="black"/>
<path d="M48.1921 13.3819C48.0187 10.8657 45.9903 8.83729 43.474 8.66385C42.0475 8.56589 40.6862 9.04702 39.6443 10.0197C38.6166 10.979 38.0273 12.335 38.0273 13.7402C38.0273 14.404 38.5656 14.9421 39.2293 14.9421C39.893 14.9421 40.4312 14.404 40.4312 13.7402C40.4312 12.9879 40.7343 12.2907 41.2846 11.7771C41.8343 11.264 42.5528 11.01 43.3088 11.0622C44.6343 11.1535 45.7027 12.2219 45.794 13.5473C45.8864 14.8858 45.0081 16.0688 43.7059 16.3601C42.6509 16.5962 41.9141 17.513 41.9141 18.5896V21.4772C41.9141 22.141 42.4523 22.6791 43.116 22.6791C43.7799 22.6791 44.318 22.141 44.3178 21.4772V18.6856C46.7397 18.1005 48.3646 15.8844 48.1921 13.3819Z" fill="#00B674"/>
<path d="M43.9618 25.3819C43.7383 25.1584 43.4282 25.0298 43.1121 25.0298C42.796 25.0298 42.4859 25.1584 42.2623 25.3819C42.0388 25.6055 41.9102 25.9156 41.9102 26.2317C41.9102 26.549 42.0389 26.8591 42.2623 27.0827C42.4859 27.3062 42.796 27.4336 43.1121 27.4336C43.4282 27.4336 43.7383 27.3062 43.9618 27.0827C44.1854 26.8579 44.314 26.549 44.314 26.2317C44.314 25.9156 44.1853 25.6055 43.9618 25.3819Z" fill="#00B674"/>
<path d="M33.2812 37.4902H7.92067C7.25697 37.4902 6.71875 38.0283 6.71875 38.6922C6.71875 39.356 7.25697 39.8941 7.92067 39.8941H33.2812C33.9451 39.8941 34.4832 39.356 34.4832 38.6922C34.4832 38.0283 33.945 37.4902 33.2812 37.4902Z" fill="black"/>
<path d="M34.1414 44.5729C33.918 44.3493 33.6079 44.2207 33.2918 44.2207C32.9757 44.2207 32.6656 44.3493 32.442 44.5729C32.2183 44.7964 32.0898 45.1065 32.0898 45.4226C32.0898 45.7387 32.2184 46.0488 32.442 46.2724C32.6656 46.4959 32.9757 46.6245 33.2918 46.6245C33.6079 46.6245 33.918 46.4959 34.1414 46.2724C34.3651 46.0488 34.4937 45.7399 34.4937 45.4226C34.4937 45.1065 34.365 44.7964 34.1414 44.5729Z" fill="black"/>
<path d="M28.5537 44.2207H7.92067C7.25697 44.2207 6.71875 44.7588 6.71875 45.4226C6.71875 46.0864 7.25697 46.6245 7.92067 46.6245H28.5537C29.2176 46.6245 29.7557 46.0864 29.7557 45.4226C29.7557 44.7588 29.2174 44.2207 28.5537 44.2207Z" fill="black"/>
<path d="M25.4688 30.7588H7.92067C7.25697 30.7588 6.71875 31.2969 6.71875 31.9607C6.71875 32.6245 7.25697 33.1626 7.92067 33.1626H25.4688C26.1326 33.1626 26.6707 32.6245 26.6707 31.9607C26.6707 31.2969 26.1325 30.7588 25.4688 30.7588Z" fill="black"/>
</svg>
