<svg width="69" height="48" viewBox="0 0 69 48" fill="none" xmlns="http://www.w3.org/2000/svg">
<rect x="0.15625" y="13.231" width="25.3846" height="2.30769" rx="1.15385" fill="#00B674"/>
<rect x="7.84766" y="18.6157" width="12.3077" height="2.30769" rx="1.15385" fill="#00B674"/>
<rect x="13.2344" y="24.0005" width="8.46154" height="2.30769" rx="1.15385" fill="#00B674"/>
<rect x="1.69531" y="24.0005" width="6.15385" height="2.30769" rx="1.15385" fill="#00B674"/>
<path fill-rule="evenodd" clip-rule="evenodd" d="M67.8407 30.9585L67.8351 32.1968L67.8349 32.2341L67.8349 32.236C67.8311 33.0194 67.8269 33.9099 67.8269 34.9915C67.8269 37.1681 66.1268 39.0395 63.7821 39.6358C63.2091 43.8316 59.5403 47.0777 55.1139 47.0777C50.2915 47.0777 46.3681 43.2244 46.3681 38.4881C46.3681 33.7519 50.2915 29.8986 55.1139 29.8986C59.354 29.8986 62.899 32.8775 63.6935 36.816C64.5229 36.4293 65.0861 35.7419 65.0861 34.9915C65.0861 33.8868 65.0904 32.9806 65.0943 32.1841L65.1 30.946C65.1074 29.348 65.1176 27.1595 65.094 26.1321C65.0866 25.8057 65.0773 25.5033 65.064 25.2212H31.2416C27.5209 25.2212 26.1522 21.963 25.7024 20.8922L25.7023 20.8921C25.4137 20.205 25.7468 19.4181 26.4465 19.1347C27.1472 18.8515 27.9475 19.1785 28.2359 19.8655C29.0203 21.7329 29.9193 22.5295 31.2416 22.5295H64.5778C64.0036 21.1974 62.771 20.1249 60.0634 17.7688L60.062 17.7676C59.5169 17.2934 58.9183 16.7725 58.2612 16.1932C57.7896 15.7777 57.3158 15.3333 56.8576 14.9034L56.8529 14.8989L56.8501 14.8963C56.1694 14.2577 55.4656 13.5973 54.7251 12.9882C54.0842 12.4609 53.4775 11.9592 52.9005 11.482C45.5931 5.43912 43.3877 3.61545 36.955 3.61545H11.7249C10.1519 3.61545 8.82279 4.60034 8.82279 5.76617V8.97925C8.82279 9.72263 8.20931 10.3251 7.45241 10.3251C6.6955 10.3251 6.08203 9.72263 6.08203 8.97925V5.76632C6.08203 3.09624 8.61342 0.923828 11.7249 0.923828H36.9548C44.3875 0.923828 47.1861 3.23807 54.6652 9.42262L54.6656 9.42294C55.2408 9.89879 55.8458 10.399 56.4848 10.9247C57.2949 11.5912 58.0326 12.2832 58.746 12.9526C59.2108 13.3888 59.6498 13.8007 60.0912 14.1895C60.744 14.7648 61.3381 15.2819 61.8793 15.7526L61.8798 15.7532C66.593 19.8544 67.713 20.8289 67.834 26.0711C67.8585 27.1352 67.8488 29.2552 67.8407 30.9585ZM61.1192 38.5066C61.1187 38.4887 61.1187 38.4709 61.119 38.4532C61.0997 35.2173 58.4133 32.5906 55.114 32.5906C51.8029 32.5906 49.109 35.2363 49.109 38.4882C49.109 41.7403 51.8027 44.3861 55.114 44.3861C58.4189 44.3861 61.1088 41.7502 61.1192 38.5066ZM18.8205 37.1422H18.8157C18.0588 37.1422 17.4478 37.7447 17.4478 38.4881C17.4478 39.2315 18.0637 39.834 18.8206 39.834C19.5775 39.834 20.191 39.2315 20.191 38.4881C20.191 37.7447 19.5774 37.1422 18.8205 37.1422ZM55.1163 37.1422H55.111C54.3541 37.1422 53.7433 37.7447 53.7433 38.4881C53.7433 39.2315 54.3595 39.834 55.1164 39.834C55.8734 39.834 56.4868 39.2315 56.4868 38.4881C56.4868 37.7447 55.8732 37.1422 55.1163 37.1422ZM43.4894 38.4881C43.4894 39.2315 42.8759 39.834 42.119 39.834H27.4567C26.797 43.9331 23.1743 47.0777 18.818 47.0777C14.3944 47.0777 10.7275 43.8357 10.1511 39.6437C8.55648 39.2499 7.23147 38.2678 6.54933 36.9225C6.23932 36.3112 6.08218 35.6616 6.08218 34.9915V31.0039C6.08218 30.2605 6.69566 29.658 7.45256 29.658C8.20947 29.658 8.82294 30.2605 8.82294 31.0039V34.9915C8.82294 35.2412 8.88339 35.4871 9.00276 35.7224C9.24167 36.1935 9.68339 36.5799 10.2361 36.83C11.025 32.8846 14.5732 29.8986 18.8182 29.8986C23.1745 29.8986 26.7971 33.0432 27.4569 37.1422H42.1192C42.8759 37.1422 43.4894 37.7449 43.4894 38.4881ZM24.8233 38.4881C24.8233 35.2361 22.1295 32.5904 18.8182 32.5904C15.5125 32.5904 12.8222 35.2272 12.8132 38.4718V38.4899C12.8142 41.7412 15.5075 44.3861 18.8182 44.3861C22.1293 44.3861 24.8233 41.7402 24.8233 38.4881Z" fill="black"/>
<path d="M67.8351 32.1968L68.0851 32.198L68.0851 32.198L67.8351 32.1968ZM67.8407 30.9585L67.5907 30.9573L67.5907 30.9573L67.8407 30.9585ZM67.8349 32.2341L68.0849 32.2356L68.0849 32.2353L67.8349 32.2341ZM67.8349 32.236L67.5849 32.2344L67.5849 32.2348L67.8349 32.236ZM63.7821 39.6358L63.7205 39.3935L63.5572 39.4351L63.5344 39.602L63.7821 39.6358ZM63.6935 36.816L63.4484 36.8655L63.5112 37.1769L63.7991 37.0426L63.6935 36.816ZM65.0943 32.1841L65.3443 32.1853L65.3443 32.1852L65.0943 32.1841ZM65.1 30.946L64.85 30.9449L64.85 30.9449L65.1 30.946ZM65.094 26.1321L64.8441 26.1378L64.8441 26.1379L65.094 26.1321ZM65.064 25.2212L65.3137 25.2095L65.3026 24.9712H65.064V25.2212ZM25.7024 20.8922L25.4671 20.9777L25.4719 20.989L25.7024 20.8922ZM25.7023 20.8921L25.9376 20.8066L25.9328 20.7953L25.7023 20.8921ZM26.4465 19.1347L26.3528 18.9029L26.3526 18.903L26.4465 19.1347ZM28.2359 19.8655L28.0054 19.9623L28.0054 19.9623L28.2359 19.8655ZM64.5778 22.5295V22.7795H64.9579L64.8074 22.4305L64.5778 22.5295ZM60.0634 17.7688L59.8992 17.9573L59.8992 17.9574L60.0634 17.7688ZM60.062 17.7676L60.2262 17.579L60.2261 17.579L60.062 17.7676ZM58.2612 16.1932L58.4265 16.0057L58.4264 16.0056L58.2612 16.1932ZM56.8576 14.9034L57.0287 14.7211L57.0286 14.721L56.8576 14.9034ZM56.8529 14.8989L57.0238 14.7165L57.0238 14.7165L56.8529 14.8989ZM56.8501 14.8963L56.679 15.0786L56.6792 15.0787L56.8501 14.8963ZM54.7251 12.9882L54.5663 13.1812L54.5663 13.1813L54.7251 12.9882ZM52.9005 11.482L53.0599 11.2894L53.0599 11.2893L52.9005 11.482ZM54.6652 9.42262L54.5059 9.61528L54.5065 9.6158L54.6652 9.42262ZM54.6656 9.42294L54.8249 9.23031L54.8243 9.22976L54.6656 9.42294ZM56.4848 10.9247L56.6437 10.7316L56.6437 10.7316L56.4848 10.9247ZM58.746 12.9526L58.917 12.7703L58.917 12.7703L58.746 12.9526ZM60.0912 14.1895L60.2565 14.0019L60.2565 14.0019L60.0912 14.1895ZM61.8793 15.7526L62.0441 15.5647L62.0433 15.564L61.8793 15.7526ZM61.8798 15.7532L61.715 15.9411L61.7157 15.9417L61.8798 15.7532ZM67.834 26.0711L68.0839 26.0653L68.0839 26.0653L67.834 26.0711ZM61.119 38.4532L61.369 38.4576L61.369 38.4517L61.119 38.4532ZM61.1192 38.5066L61.3693 38.5074L61.3691 38.5003L61.1192 38.5066ZM27.4567 39.834V39.584H27.2438L27.2099 39.7942L27.4567 39.834ZM10.1511 39.6437L10.3988 39.6097L10.3757 39.4417L10.2111 39.401L10.1511 39.6437ZM6.54933 36.9225L6.7723 36.8095L6.7723 36.8095L6.54933 36.9225ZM9.00276 35.7224L8.7798 35.8355L8.7798 35.8355L9.00276 35.7224ZM10.2361 36.83L10.1331 37.0577L10.4196 37.1874L10.4813 36.879L10.2361 36.83ZM27.4569 37.1422L27.2101 37.1819L27.2439 37.3922H27.4569V37.1422ZM12.8132 38.4718L12.5632 38.4711V38.4718H12.8132ZM12.8132 38.4899L12.5632 38.4899L12.5632 38.49L12.8132 38.4899ZM68.0851 32.198L68.0907 30.9596L67.5907 30.9573L67.5851 32.1957L68.0851 32.198ZM68.0849 32.2353L68.0851 32.198L67.5851 32.1956L67.5849 32.2329L68.0849 32.2353ZM68.0849 32.2375L68.0849 32.2356L67.5849 32.2326L67.5849 32.2344L68.0849 32.2375ZM68.0769 34.9915C68.0769 33.9106 68.0811 33.0206 68.0849 32.2372L67.5849 32.2348C67.5811 33.0182 67.5769 33.9093 67.5769 34.9915H68.0769ZM63.8437 39.8781C66.273 39.2602 68.0769 37.3074 68.0769 34.9915H67.5769C67.5769 37.0287 65.9806 38.8187 63.7205 39.3935L63.8437 39.8781ZM55.1139 47.3277C59.6637 47.3277 63.4397 43.9908 64.0298 39.6697L63.5344 39.602C62.9786 43.6723 59.4169 46.8277 55.1139 46.8277V47.3277ZM46.1181 38.4881C46.1181 43.3667 50.1577 47.3277 55.1139 47.3277V46.8277C50.4253 46.8277 46.6181 43.0821 46.6181 38.4881H46.1181ZM55.1139 29.6486C50.1577 29.6486 46.1181 33.6096 46.1181 38.4881H46.6181C46.6181 33.8942 50.4253 30.1486 55.1139 30.1486V29.6486ZM63.9386 36.7666C63.1204 32.7109 59.4724 29.6486 55.1139 29.6486V30.1486C59.2355 30.1486 62.6776 33.0442 63.4484 36.8655L63.9386 36.7666ZM64.8361 34.9915C64.8361 35.6103 64.3654 36.2269 63.5878 36.5895L63.7991 37.0426C64.6804 36.6317 65.3361 35.8735 65.3361 34.9915H64.8361ZM64.8443 32.1829C64.8404 32.9794 64.8361 33.8861 64.8361 34.9915H65.3361C65.3361 33.8875 65.3404 32.9817 65.3443 32.1853L64.8443 32.1829ZM64.85 30.9449L64.8443 32.183L65.3443 32.1852L65.35 30.9472L64.85 30.9449ZM64.8441 26.1379C64.8676 27.1608 64.8574 29.3448 64.85 30.9449L65.3499 30.9472C65.3574 29.3513 65.3677 27.1581 65.3439 26.1264L64.8441 26.1379ZM64.8143 25.233C64.8274 25.5123 64.8366 25.8124 64.8441 26.1378L65.3439 26.1264C65.3365 25.7989 65.3271 25.4943 65.3137 25.2095L64.8143 25.233ZM31.2416 25.4712H65.064V24.9712H31.2416V25.4712ZM25.4719 20.989C25.916 22.0462 27.341 25.4712 31.2416 25.4712V24.9712C27.7008 24.9712 26.3884 21.8798 25.9329 20.7954L25.4719 20.989ZM25.4674 20.9776L25.4674 20.9776L25.9373 20.8068L25.9373 20.8067L25.4674 20.9776ZM26.3526 18.903C25.5266 19.2375 25.128 20.1706 25.4719 20.989L25.9328 20.7953C25.6993 20.2394 25.967 19.5986 26.5403 19.3664L26.3526 18.903ZM28.4664 19.7688C28.1238 18.9527 27.1773 18.5696 26.3528 18.9029L26.5401 19.3665C27.117 19.1333 27.7711 19.4043 28.0054 19.9623L28.4664 19.7688ZM31.2416 22.2795C30.6378 22.2795 30.1425 22.1003 29.7029 21.7107C29.2549 21.3137 28.852 20.6867 28.4664 19.7687L28.0054 19.9623C28.4042 20.9117 28.843 21.6167 29.3712 22.0848C29.9077 22.5603 30.523 22.7795 31.2416 22.7795V22.2795ZM64.5778 22.2795H31.2416V22.7795H64.5778V22.2795ZM59.8992 17.9574C61.2562 19.1381 62.2325 19.9879 62.9425 20.7086C63.6501 21.4267 64.0783 22.0023 64.3483 22.6284L64.8074 22.4305C64.5031 21.7246 64.028 21.0979 63.2987 20.3577C62.572 19.6201 61.5782 18.7556 60.2275 17.5802L59.8992 17.9574ZM59.8978 17.9561L59.8992 17.9573L60.2275 17.5802L60.2262 17.579L59.8978 17.9561ZM58.0958 16.3807C58.7537 16.9607 59.3528 17.482 59.8979 17.9562L60.2261 17.579C59.6809 17.1048 59.083 16.5844 58.4265 16.0057L58.0958 16.3807ZM56.6866 15.0857C57.1443 15.5151 57.6208 15.9623 58.0959 16.3808L58.4264 16.0056C57.9583 15.5932 57.4874 15.1514 57.0287 14.7211L56.6866 15.0857ZM56.6819 15.0813L56.6867 15.0858L57.0286 14.721L57.0238 14.7165L56.6819 15.0813ZM56.6792 15.0787L56.6819 15.0813L57.0238 14.7165L57.021 14.7138L56.6792 15.0787ZM54.5663 13.1813C55.2995 13.7844 55.9974 14.4391 56.679 15.0786L57.0211 14.714C56.3414 14.0763 55.6318 13.4103 54.8839 12.7951L54.5663 13.1813ZM52.7412 11.6746C53.3181 12.1518 53.9251 12.6537 54.5663 13.1812L54.884 12.7951C54.2434 12.2681 53.6368 11.7665 53.0599 11.2894L52.7412 11.6746ZM36.955 3.86545C40.1419 3.86545 42.2584 4.31609 44.482 5.50319C46.7234 6.69981 49.0794 8.64652 52.7412 11.6747L53.0599 11.2893C49.4142 8.2746 47.0138 6.28804 44.7175 5.06211C42.4033 3.82665 40.2007 3.36545 36.955 3.36545V3.86545ZM11.7249 3.86545H36.955V3.36545H11.7249V3.86545ZM9.07279 5.76617C9.07279 5.28371 9.34828 4.81356 9.83282 4.45448C10.316 4.09639 10.9887 3.86545 11.7249 3.86545V3.36545C10.8882 3.36545 10.1097 3.62695 9.53513 4.05276C8.96186 4.47759 8.57279 5.0828 8.57279 5.76617H9.07279ZM9.07279 8.97925V5.76617H8.57279V8.97925H9.07279ZM7.45241 10.5751C8.34312 10.5751 9.07279 9.86493 9.07279 8.97925H8.57279C8.57279 9.58033 8.07551 10.0751 7.45241 10.0751V10.5751ZM5.83203 8.97925C5.83203 9.86493 6.5617 10.5751 7.45241 10.5751V10.0751C6.82931 10.0751 6.33203 9.58033 6.33203 8.97925H5.83203ZM5.83203 5.76632V8.97925H6.33203V5.76632H5.83203ZM11.7249 0.673828C8.5126 0.673828 5.83203 2.92366 5.83203 5.76632H6.33203C6.33203 3.26882 8.71425 1.17383 11.7249 1.17383V0.673828ZM36.9548 0.673828H11.7249V1.17383H36.9548V0.673828ZM54.8245 9.22995C51.0924 6.14383 48.5008 3.99926 45.9092 2.63287C43.3022 1.25836 40.7024 0.673828 36.9548 0.673828V1.17383C40.6399 1.17383 43.1558 1.74642 45.676 3.07516C48.2116 4.41204 50.7589 6.51685 54.5059 9.61528L54.8245 9.22995ZM54.8243 9.22976L54.8239 9.22943L54.5065 9.6158L54.5069 9.61613L54.8243 9.22976ZM56.6437 10.7316C56.0049 10.2062 55.4002 9.70615 54.8249 9.23031L54.5062 9.61558C55.0815 10.0914 55.6867 10.5918 56.326 11.1177L56.6437 10.7316ZM58.917 12.7703C58.2044 12.1017 57.461 11.4041 56.6437 10.7316L56.326 11.1177C57.1288 11.7783 57.8608 12.4648 58.5749 13.1349L58.917 12.7703ZM60.2565 14.0019C59.8185 13.6161 59.3824 13.207 58.917 12.7703L58.5749 13.1349C59.0392 13.5706 59.4811 13.9852 59.926 14.3771L60.2565 14.0019ZM62.0433 15.564C61.5022 15.0933 60.9086 14.5766 60.2565 14.0019L59.9259 14.377C60.5793 14.9529 61.174 15.4705 61.7152 15.9413L62.0433 15.564ZM62.0447 15.5652L62.0441 15.5647L61.7144 15.9406L61.715 15.9411L62.0447 15.5652ZM68.0839 26.0653C68.0231 23.429 67.7109 21.8203 66.7908 20.3516C65.8822 18.9011 64.3889 17.605 62.044 15.5646L61.7157 15.9417C64.084 18.0025 65.5072 19.2443 66.3671 20.617C67.2155 21.9714 67.5239 23.4711 67.5841 26.0769L68.0839 26.0653ZM68.0907 30.9596C68.0988 29.2583 68.1086 27.1339 68.0839 26.0653L67.5841 26.0769C67.6085 27.1366 67.5988 29.252 67.5907 30.9573L68.0907 30.9596ZM60.869 38.4489C60.8687 38.4694 60.8687 38.4909 60.8692 38.513L61.3691 38.5003C61.3687 38.4865 61.3687 38.4723 61.369 38.4576L60.869 38.4489ZM55.114 32.8406C58.2799 32.8406 60.8505 35.3604 60.869 38.4547L61.369 38.4517C61.3488 35.0742 58.5466 32.3406 55.114 32.3406V32.8406ZM49.359 38.4882C49.359 35.3786 51.9367 32.8406 55.114 32.8406V32.3406C51.6691 32.3406 48.859 35.094 48.859 38.4882H49.359ZM55.114 44.1361C51.9365 44.1361 49.359 41.598 49.359 38.4882H48.859C48.859 41.8826 51.6689 44.6361 55.114 44.6361V44.1361ZM60.8692 38.5058C60.8593 41.6075 58.2853 44.1361 55.114 44.1361V44.6361C58.5525 44.6361 61.3584 41.8929 61.3692 38.5074L60.8692 38.5058ZM18.8157 37.3922H18.8205V36.8922H18.8157V37.3922ZM17.6978 38.4881C17.6978 37.8864 18.1932 37.3922 18.8157 37.3922V36.8922C17.9244 36.8922 17.1978 37.603 17.1978 38.4881H17.6978ZM18.8206 39.584C18.1969 39.584 17.6978 39.0886 17.6978 38.4881H17.1978C17.1978 39.3743 17.9305 40.084 18.8206 40.084V39.584ZM19.941 38.4881C19.941 39.0892 19.4437 39.584 18.8206 39.584V40.084C19.7113 40.084 20.441 39.3738 20.441 38.4881H19.941ZM18.8205 37.3922C19.4436 37.3922 19.941 37.887 19.941 38.4881H20.441C20.441 37.6024 19.7111 36.8922 18.8205 36.8922V37.3922ZM55.111 37.3922H55.1163V36.8922H55.111V37.3922ZM53.9933 38.4881C53.9933 37.8864 54.4885 37.3922 55.111 37.3922V36.8922C54.2196 36.8922 53.4933 37.603 53.4933 38.4881H53.9933ZM55.1164 39.584C54.4927 39.584 53.9933 39.0885 53.9933 38.4881H53.4933C53.4933 39.3744 54.2264 40.084 55.1164 40.084V39.584ZM56.2368 38.4881C56.2368 39.0892 55.7396 39.584 55.1164 39.584V40.084C56.0072 40.084 56.7368 39.3738 56.7368 38.4881H56.2368ZM55.1163 37.3922C55.7394 37.3922 56.2368 37.887 56.2368 38.4881H56.7368C56.7368 37.6024 56.007 36.8922 55.1163 36.8922V37.3922ZM42.119 40.084C43.0097 40.084 43.7394 39.3738 43.7394 38.4881H43.2394C43.2394 39.0892 42.7421 39.584 42.119 39.584V40.084ZM27.4567 40.084H42.119V39.584H27.4567V40.084ZM18.818 47.3277C23.2958 47.3277 27.0241 44.0952 27.7036 39.8737L27.2099 39.7942C26.5698 43.771 23.0528 46.8277 18.818 46.8277V47.3277ZM9.90347 39.6778C10.497 43.9951 14.2711 47.3277 18.818 47.3277V46.8277C14.5177 46.8277 10.9579 43.6764 10.3988 39.6097L9.90347 39.6778ZM6.32636 37.0356C7.04578 38.4544 8.43591 39.4776 10.0912 39.8865L10.2111 39.401C8.67704 39.0221 7.41717 38.0812 6.7723 36.8095L6.32636 37.0356ZM5.83218 34.9915C5.83218 35.7018 5.999 36.39 6.32636 37.0356L6.7723 36.8095C6.47964 36.2323 6.33218 35.6214 6.33218 34.9915H5.83218ZM5.83218 31.0039V34.9915H6.33218V31.0039H5.83218ZM7.45256 29.408C6.56185 29.408 5.83218 30.1182 5.83218 31.0039H6.33218C6.33218 30.4028 6.82946 29.908 7.45256 29.908V29.408ZM9.07294 31.0039C9.07294 30.1182 8.34327 29.408 7.45256 29.408V29.908C8.07567 29.908 8.57294 30.4028 8.57294 31.0039H9.07294ZM9.07294 34.9915V31.0039H8.57294V34.9915H9.07294ZM9.22573 35.6094C9.1231 35.407 9.07294 35.1997 9.07294 34.9915H8.57294C8.57294 35.2827 8.64367 35.5671 8.7798 35.8355L9.22573 35.6094ZM10.3391 36.6022C9.82653 36.3703 9.43359 36.0192 9.22573 35.6094L8.7798 35.8355C9.04974 36.3678 9.54024 36.7896 10.1331 37.0577L10.3391 36.6022ZM18.8182 29.6486C14.4546 29.6486 10.8033 32.7181 9.99096 36.7809L10.4813 36.879C11.2467 33.051 14.6918 30.1486 18.8182 30.1486V29.6486ZM27.7037 37.1025C27.0243 32.8812 23.296 29.6486 18.8182 29.6486V30.1486C23.0529 30.1486 26.57 33.2053 27.2101 37.1819L27.7037 37.1025ZM42.1192 36.8922H27.4569V37.3922H42.1192V36.8922ZM43.7394 38.4881C43.7394 37.6026 43.0098 36.8922 42.1192 36.8922V37.3922C42.7421 37.3922 43.2394 37.8871 43.2394 38.4881H43.7394ZM18.8182 32.8404C21.9957 32.8404 24.5733 35.3784 24.5733 38.4881H25.0733C25.0733 35.0938 22.2633 32.3404 18.8182 32.3404V32.8404ZM13.0632 38.4725C13.0718 35.3698 15.6461 32.8404 18.8182 32.8404V32.3404C15.3789 32.3404 12.5726 35.0845 12.5632 38.4711L13.0632 38.4725ZM13.0632 38.4899V38.4718H12.5632V38.4899H13.0632ZM18.8182 44.1361C15.6413 44.1361 13.0642 41.5989 13.0632 38.4898L12.5632 38.49C12.5643 41.8836 15.3737 44.6361 18.8182 44.6361V44.1361ZM24.5733 38.4881C24.5733 41.5979 21.9955 44.1361 18.8182 44.1361V44.6361C22.2631 44.6361 25.0733 41.8825 25.0733 38.4881H24.5733Z" fill="white"/>
</svg>
