<svg width="358" height="53" viewBox="0 0 358 53" fill="none" xmlns="http://www.w3.org/2000/svg">
<path d="M90.7192 33.3591H102.039V37.5184H86.2371V10.2827H90.7192V33.3591Z" fill="white"/>
<path d="M120.672 36.597C118.962 37.5531 117.05 38.0313 114.935 38.0313C112.821 38.0313 110.909 37.5531 109.2 36.597C107.491 35.6413 106.148 34.3248 105.173 32.6469C104.198 30.969 103.711 29.0918 103.711 27.0153C103.711 24.9261 104.198 23.0427 105.173 21.3648C106.148 19.6873 107.491 18.3738 109.2 17.4239C110.909 16.4744 112.821 15.9995 114.935 15.9995C117.05 15.9995 118.962 16.4744 120.672 17.4239C122.381 18.3738 123.723 19.6907 124.698 21.3746C125.673 23.0584 126.16 24.9389 126.16 27.0153C126.16 29.0918 125.673 30.969 124.698 32.6469C123.723 34.3248 122.381 35.6413 120.672 36.597ZM110.026 31.9725C111.311 33.264 112.948 33.9096 114.935 33.9096C116.924 33.9096 118.56 33.264 119.845 31.9725C121.13 30.6808 121.773 29.0288 121.773 27.0153C121.773 25.0019 121.13 23.3499 119.845 22.0583C118.56 20.7667 116.924 20.1211 114.935 20.1211C112.948 20.1211 111.311 20.7667 110.026 22.0583C108.741 23.3499 108.099 25.0019 108.099 27.0153C108.099 29.0288 108.741 30.6808 110.026 31.9725Z" fill="white"/>
<path d="M146.179 36.597C144.469 37.5531 142.557 38.0313 140.442 38.0313C138.328 38.0313 136.416 37.5531 134.707 36.597C132.998 35.6413 131.655 34.3248 130.68 32.6469C129.705 30.969 129.218 29.0918 129.218 27.0153C129.218 24.9261 129.705 23.0427 130.68 21.3648C131.655 19.6873 132.998 18.3738 134.707 17.4239C136.416 16.4744 138.328 15.9995 140.442 15.9995C142.557 15.9995 144.469 16.4744 146.179 17.4239C147.888 18.3738 149.23 19.6907 150.205 21.3746C151.18 23.0584 151.667 24.9389 151.667 27.0153C151.667 29.0918 151.18 30.969 150.205 32.6469C149.23 34.3248 147.888 35.6413 146.179 36.597ZM135.533 31.9725C136.818 33.264 138.455 33.9096 140.442 33.9096C142.43 33.9096 144.067 33.264 145.352 31.9725C146.637 30.6808 147.28 29.0288 147.28 27.0153C147.28 25.0019 146.637 23.3499 145.352 22.0583C144.067 20.7667 142.43 20.1211 140.442 20.1211C138.455 20.1211 136.818 20.7667 135.533 22.0583C134.248 23.3499 133.605 25.0019 133.605 27.0153C133.605 29.0288 134.248 30.6808 135.533 31.9725Z" fill="white"/>
<path d="M169.919 37.518L163.632 28.5536H161.011V37.518H156.7V8.99072H161.011V24.6407H163.67L169.33 16.5119H174.458L167.336 26.5973L175.199 37.518H169.919Z" fill="white"/>
<path d="M178.277 13.2644V8.80127H182.74V13.2644H178.277ZM178.353 37.5183V16.5123H182.664V37.5183H178.353Z" fill="white"/>
<path d="M199.909 16.0376C202.34 16.0376 204.277 16.8544 205.721 18.4878C207.164 20.1213 207.886 22.2483 207.886 24.8691V37.5185H203.574V25.743C203.574 23.8312 203.166 22.3813 202.349 21.3934C201.533 20.4059 200.333 19.9119 198.75 19.9119C197.104 19.9119 195.752 20.5105 194.696 21.7068C193.638 22.9035 193.11 24.426 193.11 26.2746V37.5185H188.798V16.5124H191.799L192.654 19.4371C193.464 18.3612 194.496 17.5253 195.749 16.9302C197.003 16.3354 198.389 16.0376 199.909 16.0376Z" fill="white"/>
<path d="M236.204 37.9937C234.216 37.9937 232.355 37.6391 230.62 36.9298C228.886 36.2208 227.404 35.2491 226.176 34.0146C224.948 32.7803 223.979 31.2892 223.27 29.5417C222.561 27.7943 222.207 25.9207 222.207 23.92C222.207 21.9192 222.561 20.0423 223.27 18.2885C223.979 16.5349 224.948 15.0375 226.176 13.7967C227.404 12.5558 228.886 11.581 230.62 10.8718C232.355 10.1627 234.216 9.80811 236.204 9.80811C239.42 9.80811 242.218 10.7327 244.599 12.5811C246.979 14.43 248.524 16.8864 249.233 19.9503H244.713C244.067 18.1399 242.991 16.7183 241.484 15.6864C239.977 14.6547 238.217 14.1385 236.204 14.1385C233.469 14.1385 231.209 15.0597 229.424 16.902C227.639 18.7443 226.746 21.0835 226.746 23.92C226.746 26.7566 227.639 29.0922 229.424 30.9282C231.209 32.7641 233.469 33.6821 236.204 33.6821C238.281 33.6821 240.079 33.1313 241.598 32.03C243.118 30.9282 244.187 29.4086 244.808 27.4715H249.347C248.638 30.6753 247.09 33.2297 244.704 35.1351C242.317 37.041 239.484 37.9937 236.204 37.9937Z" fill="#1CA8E1"/>
<path d="M271.246 16.4932L274.57 16.5123V37.4993H271.094L270.676 34.9543C269.714 35.9294 268.581 36.686 267.276 37.2239C265.972 37.7619 264.567 38.0313 263.06 38.0313C261.009 38.0313 259.148 37.5531 257.476 36.597C255.805 35.6413 254.494 34.318 253.545 32.6277C252.595 30.9376 252.121 29.0601 252.121 26.9963C252.121 24.9197 252.595 23.0427 253.545 21.3648C254.494 19.6873 255.805 18.3738 257.476 17.4239C259.148 16.4744 261.009 15.9995 263.06 15.9995C264.58 15.9995 265.998 16.2719 267.315 16.8161C268.631 17.3609 269.771 18.1331 270.733 19.1332L271.246 16.4932ZM258.464 31.925C259.768 33.2357 261.408 33.8906 263.383 33.8906C265.358 33.8906 266.995 33.2357 268.293 31.925C269.591 30.6144 270.24 28.9716 270.24 26.9963C270.24 25.0209 269.591 23.3812 268.293 22.0774C266.995 20.773 265.358 20.1211 263.383 20.1211C261.408 20.1211 259.768 20.776 258.464 22.0867C257.16 23.3974 256.508 25.0337 256.508 26.9963C256.508 28.9716 257.16 30.6144 258.464 31.925Z" fill="#1CA8E1"/>
<path d="M293.885 36.1984C292.328 37.4205 290.27 38.0313 287.713 38.0313C285.155 38.0313 283.1 37.3791 281.549 36.0752C279.998 34.7709 279.191 33.0298 279.128 30.852H283.344C283.395 31.9284 283.835 32.7609 284.664 33.3496C285.493 33.9384 286.56 34.2324 287.864 34.2324C289.055 34.2324 290.036 33.9888 290.808 33.5012C291.581 33.0141 291.967 32.3461 291.967 31.4976C291.967 31.1176 291.875 30.7758 291.692 30.472C291.508 30.1683 291.286 29.9247 291.027 29.7409C290.767 29.5575 290.4 29.3892 289.925 29.2376C289.45 29.0856 289.026 28.9716 288.653 28.8958C288.279 28.8194 287.776 28.7246 287.143 28.6106C286.497 28.4968 285.984 28.4019 285.604 28.326C285.224 28.2498 284.731 28.1265 284.123 27.9553C283.515 27.7847 283.024 27.6041 282.651 27.4145C282.277 27.2243 281.869 26.9713 281.426 26.6544C280.983 26.338 280.638 25.9869 280.391 25.6005C280.144 25.2141 279.935 24.7427 279.764 24.1852C279.593 23.6282 279.508 23.0144 279.508 22.3429C279.508 20.4566 280.258 18.9278 281.758 17.756C283.259 16.5852 285.224 15.9995 287.655 15.9995C290.087 15.9995 292.04 16.6104 293.515 17.8323C294.99 19.0544 295.746 20.6845 295.785 22.7229H291.701C291.663 21.7355 291.283 20.979 290.561 20.4532C289.84 19.9279 288.839 19.6649 287.561 19.6649C286.37 19.6649 285.427 19.8961 284.731 20.3583C284.034 20.8205 283.686 21.4376 283.686 22.2099C283.686 22.5141 283.737 22.7831 283.838 23.0173C283.939 23.2516 284.113 23.4574 284.36 23.6344C284.607 23.812 284.841 23.9572 285.063 24.0712C285.284 24.1852 285.614 24.2932 286.051 24.394C286.488 24.4958 286.845 24.5745 287.124 24.6317C287.402 24.6885 287.814 24.7617 288.358 24.8503C290.409 25.1921 291.884 25.5531 292.784 25.9326C294.936 26.8574 296.076 28.4846 296.202 30.8139C296.215 30.966 296.221 31.1308 296.221 31.3078C296.221 33.3467 295.443 34.9767 293.885 36.1984Z" fill="#1CA8E1"/>
<path d="M300.78 13.2644V8.80127H305.243V13.2644H300.78ZM300.856 37.5183V16.5123H305.167V37.5183H300.856Z" fill="#1CA8E1"/>
<path d="M322.412 16.0376C324.844 16.0376 326.781 16.8544 328.224 18.4878C329.668 20.1213 330.389 22.2483 330.389 24.8691V37.5185H326.078V25.743C326.078 23.8312 325.67 22.3813 324.853 21.3934C324.036 20.4059 322.836 19.9119 321.254 19.9119C319.608 19.9119 318.256 20.5105 317.199 21.7068C316.142 22.9035 315.613 24.426 315.613 26.2746V37.5185H311.302V16.5124H314.302L315.157 19.4371C315.968 18.3612 317 17.5253 318.253 16.9302C319.507 16.3354 320.893 16.0376 322.412 16.0376Z" fill="#1CA8E1"/>
<path d="M351.68 36.597C349.97 37.5531 348.058 38.0313 345.944 38.0313C343.829 38.0313 341.917 37.5531 340.208 36.597C338.499 35.6413 337.156 34.3248 336.182 32.6469C335.206 30.969 334.719 29.0918 334.719 27.0153C334.719 24.9261 335.206 23.0427 336.182 21.3648C337.156 19.6873 338.499 18.3738 340.208 17.4239C341.917 16.4744 343.829 15.9995 345.944 15.9995C348.058 15.9995 349.97 16.4744 351.68 17.4239C353.389 18.3738 354.731 19.6907 355.706 21.3746C356.681 23.0584 357.168 24.9389 357.168 27.0153C357.168 29.0918 356.681 30.969 355.706 32.6469C354.731 34.3248 353.389 35.6413 351.68 36.597ZM341.034 31.9725C342.319 33.264 343.956 33.9096 345.944 33.9096C347.932 33.9096 349.568 33.264 350.853 31.9725C352.139 30.6808 352.781 29.0288 352.781 27.0153C352.781 25.0019 352.139 23.3499 350.853 22.0583C349.568 20.7667 347.932 20.1211 345.944 20.1211C343.956 20.1211 342.319 20.7667 341.034 22.0583C339.749 23.3499 339.107 25.0019 339.107 27.0153C339.107 29.0288 339.749 30.6808 341.034 31.9725Z" fill="#1CA8E1"/>
<path d="M0 0H67.4484V52.4382H0V0Z" fill="#1CA8E1"/>
<path d="M15.7357 35.1359H27.5229V39.467H11.0681V11.106H15.7357V35.1359Z" fill="white"/>
<path d="M43.266 39.9617C41.1962 39.9617 39.2577 39.5925 37.4515 38.8539C35.645 38.116 34.1025 37.1037 32.8236 35.8184C31.5448 34.5327 30.5358 32.9804 29.7979 31.1606C29.0594 29.3413 28.6902 27.3899 28.6902 25.3066C28.6902 23.2232 29.0594 21.2684 29.7979 19.4423C30.5358 17.6161 31.5448 16.0572 32.8236 14.7648C34.1025 13.473 35.645 12.4577 37.4515 11.7192C39.2577 10.981 41.1962 10.6118 43.266 10.6118C46.6151 10.6118 49.5289 11.5741 52.0079 13.4991C54.4865 15.4243 56.095 17.982 56.8334 21.173H52.1267C51.4542 19.2877 50.3333 17.8074 48.7644 16.7326C47.1951 15.6583 45.3626 15.1208 43.266 15.1208C40.4182 15.1208 38.0648 16.0802 36.2054 17.9986C34.3465 19.9171 33.4168 22.3531 33.4168 25.3066C33.4168 28.26 34.3465 30.6926 36.2054 32.6043C38.0648 34.5165 40.4182 35.4722 43.266 35.4722C45.4286 35.4722 47.3007 34.8985 48.8828 33.7516C50.4654 32.6043 51.5795 31.0222 52.2255 29.0049H56.9523C56.2138 32.3407 54.6019 35.0007 52.1165 36.9853C49.6311 38.9699 46.6811 39.9617 43.266 39.9617Z" fill="white"/>
</svg>
