<svg width="100" height="92" viewBox="0 0 100 92" fill="none" xmlns="http://www.w3.org/2000/svg">
<path d="M99.9957 34.5238C99.9941 34.5026 99.9918 34.4815 99.9901 34.4607C99.9852 34.4113 99.9783 34.3622 99.9695 34.3136C99.9656 34.2927 99.9619 34.2713 99.9572 34.2505C99.9465 34.2014 99.934 34.1528 99.9195 34.1049C99.9139 34.0854 99.9088 34.0665 99.9027 34.0475C99.8836 33.9897 99.8615 33.933 99.8371 33.8775C99.8336 33.8696 99.8311 33.8608 99.8272 33.8528C99.7984 33.7901 99.7664 33.7292 99.7315 33.6701C99.7207 33.6521 99.7086 33.635 99.6975 33.6173C99.6711 33.5758 99.6438 33.5352 99.6143 33.4957C99.6086 33.4881 99.6039 33.4793 99.5979 33.4717C99.5887 33.4594 99.5779 33.4493 99.5686 33.4375C99.5393 33.4009 99.5082 33.3656 99.4762 33.331C99.4602 33.3139 99.4438 33.2967 99.4274 33.28C99.3914 33.2442 99.3541 33.2105 99.3156 33.1778C99.3012 33.1655 99.2871 33.1523 99.2721 33.1406C99.2229 33.1011 99.1713 33.0637 99.118 33.0289C99.1131 33.0258 99.1084 33.0217 99.1031 33.0186C99.0428 32.9798 98.9799 32.9444 98.9147 32.9121C98.907 32.9082 98.899 32.9057 98.8914 32.9018C98.8369 32.8759 98.7813 32.852 98.7236 32.8311C98.6996 32.822 98.6744 32.8152 98.6496 32.8072C98.6176 32.7969 98.5867 32.7852 98.5539 32.7764C98.5436 32.7737 98.533 32.7723 98.5223 32.7696C98.4947 32.7628 98.4666 32.7574 98.4387 32.7517C98.3955 32.743 98.3522 32.735 98.309 32.7293C98.2834 32.7258 98.2582 32.7233 98.2322 32.721C98.1838 32.7161 98.1354 32.7134 98.0873 32.7126C98.0744 32.7122 98.0613 32.7103 98.0485 32.7103H83.5422C83.5381 32.7103 83.5334 32.7099 83.529 32.7103H46.6074V15.0969C46.6074 6.77251 39.8121 0 31.4595 0C23.5756 0 17.082 6.03422 16.3773 13.7114L1.28305 19.2077C0.508242 19.4897 -0.00523319 20.2261 4.02398e-05 21.0484C0.00531367 21.8704 0.527969 22.6003 1.30629 22.8725L16.3113 28.1197V45.7064C16.3113 61.4556 26.5449 74.8671 40.7332 79.6853L39.2 88.1067H35.417C34.3382 88.1067 33.4638 88.9785 33.4638 90.0532C33.4638 91.1282 34.3382 91.9996 35.417 91.9996H40.8249C40.8277 91.9996 40.8306 92 40.8333 92C40.8978 92 40.9611 91.9961 41.0246 91.9901C41.0365 91.9889 41.0478 91.9866 41.0601 91.9852C41.1089 91.9796 41.1574 91.9727 41.205 91.9632C41.2263 91.9591 41.247 91.9541 41.2675 91.9492C41.3052 91.9408 41.3427 91.9313 41.3792 91.9206C41.404 91.9134 41.4281 91.9058 41.4525 91.8974C41.4845 91.8867 41.5162 91.8754 41.5474 91.8628C41.573 91.8529 41.5986 91.8425 41.6234 91.8312C41.6531 91.8184 41.6818 91.8042 41.7103 91.7894C41.7351 91.7771 41.7595 91.7651 41.7835 91.7518C41.8136 91.7351 41.8427 91.7168 41.8716 91.6987C41.8921 91.6855 41.9136 91.6732 41.9337 91.6596C41.9757 91.6308 42.0165 91.5998 42.0562 91.5683C42.0623 91.5634 42.0687 91.5591 42.0746 91.5543C42.1206 91.5163 42.1654 91.476 42.2081 91.4334C42.2165 91.425 42.2246 91.4155 42.233 91.4071C42.2662 91.3728 42.2986 91.338 42.3294 91.301C42.3406 91.2882 42.3503 91.2744 42.3611 91.2607C42.3878 91.2276 42.4138 91.1938 42.4382 91.1585C42.4497 91.1422 42.4603 91.1251 42.471 91.1083C42.4923 91.0752 42.513 91.0418 42.5324 91.0075C42.5439 90.9873 42.5544 90.9672 42.5652 90.9466C42.582 90.9147 42.5976 90.882 42.6124 90.8489C42.6232 90.8249 42.6333 90.801 42.6433 90.7766C42.6556 90.7463 42.6665 90.7155 42.6773 90.6842C42.6869 90.6566 42.6964 90.6287 42.7044 90.6005C42.7132 90.5709 42.7205 90.5404 42.7281 90.5096C42.7349 90.4804 42.7425 90.451 42.7484 90.421C42.7499 90.4142 42.7519 90.4074 42.7529 90.4006L44.5115 80.7391C47.0269 81.2956 49.6394 81.5915 52.3202 81.5915C53.4956 81.5915 54.6624 81.5349 55.8202 81.4272L54.6044 88.1065H50.821C49.7423 88.1065 48.8679 88.9783 48.8679 90.053C48.8679 91.128 49.7423 91.9994 50.821 91.9994H56.229C56.2321 91.9994 56.2347 91.9998 56.2378 91.9998C56.3019 91.9998 56.3655 91.9959 56.4286 91.9899C56.4405 91.9887 56.4523 91.9864 56.4642 91.985C56.513 91.9794 56.5614 91.9726 56.6095 91.963C56.6304 91.9589 56.6511 91.9539 56.672 91.949C56.7093 91.9406 56.7468 91.9311 56.7837 91.9204C56.8081 91.9132 56.8325 91.9056 56.8565 91.8972C56.8886 91.8865 56.9202 91.8752 56.9515 91.8626C56.9771 91.8527 57.0026 91.8423 57.0278 91.831C57.0571 91.8182 57.0862 91.804 57.1148 91.7892C57.1392 91.7769 57.164 91.7649 57.188 91.7516C57.2177 91.7349 57.2468 91.7166 57.2761 91.6985C57.2966 91.6853 57.3181 91.673 57.3382 91.6594C57.3802 91.6306 57.421 91.5996 57.4607 91.5681C57.4663 91.5632 57.473 91.5589 57.4786 91.5541C57.5251 91.5161 57.5694 91.4758 57.6122 91.4332C57.621 91.4248 57.6286 91.4153 57.6374 91.4069C57.6706 91.3727 57.703 91.3378 57.7339 91.3008C57.7446 91.288 57.7548 91.2742 57.7655 91.2605C57.7919 91.2275 57.8179 91.1936 57.8423 91.1584C57.8538 91.142 57.8644 91.1249 57.8755 91.1081C57.8968 91.075 57.9175 91.0416 57.937 91.0073C57.9485 90.9871 57.9591 90.967 57.9698 90.9464C57.9862 90.9145 58.0019 90.8818 58.0167 90.8487C58.0274 90.8247 58.038 90.8008 58.0476 90.7765C58.0599 90.7461 58.0708 90.7153 58.0819 90.684C58.0911 90.6564 58.1007 90.6285 58.1091 90.6003C58.1179 90.5707 58.1251 90.5402 58.1323 90.5094C58.1396 90.4802 58.1468 90.4508 58.1528 90.4208C58.154 90.414 58.156 90.4072 58.1575 90.4004L59.9013 80.8207C68.763 78.9916 76.9758 73.9349 83.9756 65.9291C91.0299 57.8614 96.8473 46.6461 99.9359 35.1597C99.9547 35.0894 99.9688 35.019 99.9795 34.9491C99.9822 34.931 99.983 34.9131 99.9852 34.895C99.992 34.8418 99.9975 34.7889 99.9992 34.7361C100 34.7157 99.9996 34.6954 100 34.675C100 34.6244 99.9992 34.5738 99.9957 34.5238ZM16.3113 23.9942L7.74631 20.9988L16.3113 17.8804V23.9942ZM45.2949 36.6026H81.3317C81.084 37.7666 80.6981 39.0828 80.1747 40.4951H71.5415C70.4628 40.4951 69.5884 41.3666 69.5884 42.4416C69.5884 43.5162 70.4628 44.388 71.5415 44.388H78.4805C77.8462 45.6616 77.1153 46.969 76.2878 48.2806H67.3817C66.3034 48.2806 65.4286 49.152 65.4286 50.227C65.4286 51.3017 66.3034 52.1735 67.3817 52.1735H73.5315C73.5102 52.2005 73.4895 52.2278 73.4682 52.2549C70.2067 56.3512 63.3843 63.223 54.3368 63.223C46.1279 63.223 39.4496 56.5676 39.4496 48.3868C39.4496 43.7605 41.6244 39.4 45.2949 36.6026ZM58.039 77.2024C57.9454 77.2112 57.8532 77.226 57.7632 77.2476C55.995 77.5419 54.1808 77.6984 52.3202 77.6984C34.6189 77.6984 20.2178 63.3468 20.2178 45.7062V15.0969C20.2178 8.91907 25.2609 3.89311 31.4599 3.89311C37.6586 3.89311 42.7013 8.91907 42.7013 15.0969V33.6811C38.2019 37.2179 35.5437 42.6403 35.5437 48.3876C35.5437 58.7151 43.9744 67.1167 54.3372 67.1167C60.1968 67.1167 66.0333 64.6972 71.2604 60.1921C71.468 60.1567 71.6807 60.1211 71.9012 60.0837C75.7632 59.4355 81.8487 58.414 87.5534 54.4018C80.5416 65.918 70.4567 75.0282 58.039 77.2024ZM76.019 55.3016C76.1895 55.0947 76.36 54.8869 76.5286 54.6751C77.3735 53.6137 78.178 52.5017 78.936 51.3608C78.9639 51.3221 78.9901 51.2818 79.0153 51.2407C82.2254 46.3764 84.5559 40.9862 85.3123 36.6028H95.4279C91.1026 49.6515 82.6459 53.6497 76.019 55.3016Z" fill="#494949"/>
<path d="M28.0312 45.7043V43.3283C28.0312 42.2537 27.1568 41.3818 26.0781 41.3818C24.9996 41.3818 24.125 42.2537 24.125 43.3283V45.7043C24.125 49.0445 24.7074 52.3141 25.8564 55.4217C26.1471 56.2082 26.8943 56.6956 27.6894 56.6956C27.9137 56.6956 28.1418 56.6569 28.3642 56.5751C29.3767 56.2033 29.8947 55.0845 29.5221 54.0759C28.5328 51.4005 28.0312 48.5839 28.0312 45.7043Z" fill="#494949"/>
<path d="M26.0781 39.7865C27.1568 39.7865 28.0312 38.9147 28.0312 37.8401V37.8233C28.0312 36.7483 27.1568 35.8853 26.0781 35.8853C24.9996 35.8853 24.125 36.7651 24.125 37.8401C24.125 38.9147 24.9996 39.7865 26.0781 39.7865Z" fill="#494949"/>
<path d="M29.7148 11.6475C28.6391 11.6475 27.7617 12.5222 27.7617 13.5943C27.7617 14.666 28.6391 15.5404 29.7148 15.5404C30.7906 15.5404 31.6684 14.666 31.6684 13.5943C31.6685 12.5222 30.7908 11.6475 29.7148 11.6475Z" fill="#494949"/>
<path d="M65.8828 44.3871H65.9289C67.0076 44.3871 67.882 43.5152 67.882 42.4406C67.882 41.3656 67.0076 40.4941 65.9289 40.4941H65.8828C64.8043 40.4941 63.9297 41.3656 63.9297 42.4406C63.9297 43.5154 64.8043 44.3871 65.8828 44.3871Z" fill="#494949"/>
</svg>
