<svg width="100" height="95" viewBox="0 0 100 95" fill="none" xmlns="http://www.w3.org/2000/svg">
<path d="M74.1359 10.8404C73.5172 9.95446 72.2992 9.73938 71.4156 10.3599C67.9121 12.8209 65.8203 16.8487 65.8203 21.1337C65.8203 22.2153 66.6949 23.0924 67.7734 23.0924C68.852 23.0924 69.7266 22.2153 69.7266 21.1337C69.7266 18.1254 71.1957 15.2974 73.6568 13.5686C74.5402 12.948 74.7549 11.7267 74.1359 10.8404Z" fill="#494949"/>
<path d="M29.2455 60.8325H20.367C20.8385 60.4 21.4639 60.1338 22.1516 60.1338C23.2301 60.1338 24.1047 59.2567 24.1047 58.1751C24.1047 57.0934 23.2301 56.2163 22.1516 56.2163C19.2166 56.2163 16.7258 58.1608 15.8926 60.8325H5.85195C2.625 60.8325 0 63.4653 0 66.7013C0 68.8681 1.17773 70.763 2.92422 71.7798V77.2198C2.92422 83.9211 6.8252 90.1069 12.8623 92.979L16.7115 94.8103C16.9764 94.9364 17.2625 94.9993 17.5486 94.9993C17.8348 94.9993 18.1209 94.9364 18.3855 94.8103L22.2352 92.979C28.2723 90.1069 32.1732 83.9211 32.1732 77.2198V71.7798C33.9195 70.7632 35.0975 68.8681 35.0975 66.7013C35.0975 63.4653 32.4725 60.8325 29.2455 60.8325ZM28.2668 77.2198C28.267 82.416 25.242 87.2126 20.5607 89.4395L17.5484 90.8724L14.5363 89.4395C9.85508 87.2126 6.83027 82.416 6.83027 77.2198V72.5703H28.2668V77.2198ZM29.2453 68.6528H5.85195C4.7791 68.6528 3.90625 67.7773 3.90625 66.7013C3.90625 65.6254 4.7791 64.75 5.85195 64.75H29.2453C30.3182 64.75 31.191 65.6254 31.191 66.7013C31.191 67.7773 30.3182 68.6528 29.2453 68.6528Z" fill="#494949"/>
<path d="M78.929 0C67.3098 0 57.8573 9.47998 57.8573 21.1326V30.7525C57.8573 31.8341 58.7319 32.7112 59.8104 32.7112C60.889 32.7112 61.7636 31.8341 61.7636 30.7525V21.1326C61.7636 11.6401 69.4639 3.91751 78.9292 3.91751C88.3944 3.91751 96.0946 11.6401 96.0946 21.1326V30.9503L95.5415 30.8347C90.6124 29.803 85.6419 32.6207 83.9804 37.3877C83.6059 38.4615 83.4161 39.5829 83.4161 40.7206V63.5753C83.4161 67.3015 82.096 70.9097 79.7485 73.7536C80.4397 72.0078 80.8237 70.1074 80.8237 68.1177V62.7716C80.8237 61.6054 80.685 60.4638 80.4225 59.3612C79.652 54.7047 77.7798 50.3179 74.8952 46.4748C71.0169 41.3074 65.6909 37.6304 59.4936 35.8411L54.5298 34.4079L51.2792 29.6632C50.1874 28.0695 48.7589 26.7025 47.1204 25.6779L43.0106 16.2469C42.7089 15.5543 42.0364 15.0977 41.2829 15.0736C40.5255 15.0503 39.8296 15.4626 39.4845 16.1347L35.3196 24.2459C32.9878 25.0082 30.9048 26.3609 29.2536 28.1929L23.9805 34.0436C22.5751 35.6029 21.778 37.5775 21.7362 39.6037C21.6893 41.8897 22.5413 44.0475 24.135 45.6791C25.7294 47.3108 27.8618 48.2097 30.1397 48.2097H38.3407L38.9934 49.4251C38.4864 49.4147 37.9761 49.3528 37.47 49.2329L35.8632 48.8521C33.3466 48.2539 30.7895 49.8178 30.1647 52.3344C29.5774 54.6982 30.854 57.1142 33.1339 57.9541L38.7132 60.01C39.9643 60.4711 41.2643 60.7024 42.568 60.7024C42.8794 60.7024 43.1907 60.6875 43.5016 60.6613L44.285 64.1721C44.7581 66.2941 45.6093 68.2814 46.8149 70.079C47.7829 71.5224 48.9456 72.7899 50.2534 73.8594H46.3995C42.2073 73.8594 38.7968 77.2799 38.7968 81.4842C38.7968 82.5658 39.6714 83.443 40.7499 83.443H82.1393C83.2179 83.443 84.0925 82.5658 84.0925 81.4842C84.0925 80.4026 83.2179 79.5255 82.1393 79.5255H79.3173C79.8905 79.0981 80.4458 78.6417 80.9755 78.1494C85.0089 74.4016 87.3223 69.0896 87.3223 63.5753V40.7206C87.3223 40.0242 87.4386 39.3379 87.6677 38.6807C88.6847 35.763 91.7268 34.0394 94.744 34.6696L97.6489 35.2774C98.2241 35.3978 98.8237 35.2517 99.2798 34.8799C99.736 34.508 100.001 33.9497 100.001 33.36V21.1326C100.001 9.47998 90.5481 0 78.929 0ZM76.9177 68.1177C76.9177 74.408 71.8147 79.5255 65.5427 79.5255H63.9657H43.2626C43.9161 78.4763 45.078 77.7769 46.3999 77.7769H61.2095C62.288 77.7769 63.1626 76.8997 63.1626 75.8181C63.1626 75.8166 63.1624 75.815 63.1624 75.8136C63.1624 75.8122 63.1626 75.8105 63.1626 75.8091C63.1626 74.7275 62.288 73.8504 61.2095 73.8504C56.7278 73.8504 52.5585 71.6233 50.0565 67.8928C49.1231 66.5013 48.4641 64.9617 48.0973 63.3171L47.3104 59.7896L50.4401 58.8904C51.4772 58.5924 52.077 57.5077 51.7798 56.468C51.4825 55.4279 50.4013 54.8256 49.3643 55.1245L44.5809 56.4989C43.085 56.9287 41.5218 56.8715 40.0606 56.333L34.4811 54.2769C34.0772 54.128 33.8511 53.7002 33.9552 53.2815C34.0657 52.8355 34.5198 52.5593 34.9647 52.6645L36.5716 53.0452C38.5977 53.5259 40.669 53.4203 42.5733 52.8057C42.5874 52.8016 42.6011 52.7959 42.6149 52.7914C44.744 52.095 46.6618 50.7619 48.0696 48.898C48.7208 48.0355 48.5518 46.807 47.6919 46.1538C46.8317 45.5003 45.6069 45.6705 44.9555 46.5326C44.3784 47.2967 43.6679 47.9204 42.8763 48.3934L41.2266 45.3223C40.886 44.688 40.2257 44.2924 39.5071 44.2924H30.1397C29.6372 44.2924 29.1485 44.2093 28.6872 44.0522C29.6235 43.5733 30.0182 42.4327 29.5665 41.4731C29.1057 40.4947 27.9413 40.0767 26.9663 40.5382L25.8292 41.0767C25.6968 40.6316 25.6321 40.1637 25.6419 39.6848C25.6641 38.6008 26.1036 37.5303 26.8788 36.6702L32.1518 30.8196C33.4905 29.3341 35.2237 28.285 37.1638 27.7857C37.7563 27.6331 38.2229 27.2189 38.4593 26.6886L41.0766 21.5912L43.7936 27.8265C43.9647 28.219 44.2593 28.5443 44.6325 28.7528C45.9936 29.5137 47.1786 30.5956 48.0597 31.8817L51.7067 37.2052C51.9632 37.5793 52.3411 37.8527 52.7762 37.9781L58.413 39.6056C64.1214 41.2537 68.9268 44.8222 72.2093 49.4809C70.1778 48.5758 67.947 48.1489 65.6497 48.2553C62.0618 48.4214 58.6725 49.9269 56.1069 52.4948C53.5411 55.0628 52.0331 58.4587 51.8604 62.0563C51.7706 63.9269 52.0304 65.7628 52.6327 67.5134C52.9847 68.5361 54.0962 69.079 55.1161 68.7261C56.1358 68.3731 56.6772 67.2582 56.3253 66.2355C55.8858 64.958 55.6962 63.6153 55.762 62.2445C56.021 56.8437 60.4434 52.4177 65.8298 52.1685C68.7561 52.0337 71.5307 53.0719 73.6417 55.0935C75.0755 56.4668 76.0706 58.1646 76.563 60.0292C76.7964 61.4123 76.9177 62.8263 76.9177 64.2599V68.1177Z" fill="#494949"/>
<path d="M37.2715 33.1872C36.9082 32.8229 36.4043 32.6133 35.8906 32.6133C35.375 32.6133 34.873 32.8227 34.5098 33.1872C34.1467 33.5515 33.9375 34.0567 33.9375 34.572C33.9375 35.0872 34.1465 35.5925 34.5098 35.9567C34.873 36.3212 35.377 36.5308 35.8906 36.5308C36.4043 36.5308 36.9082 36.3212 37.2715 35.9567C37.6346 35.5925 37.8438 35.0872 37.8438 34.572C37.8438 34.0567 37.6348 33.5515 37.2715 33.1872Z" fill="#494949"/>
<path d="M23.1842 76.0781C22.1057 76.0781 21.2311 76.9553 21.2311 78.0369C21.2311 79.692 20.2676 81.2199 18.7768 81.9291C17.8022 82.3928 17.3868 83.561 17.8491 84.5382C18.1832 85.2445 18.8842 85.658 19.6151 85.658C19.8955 85.658 20.1807 85.5971 20.4506 85.4686C23.2977 84.1143 25.1373 81.1971 25.1373 78.0369C25.1373 76.9551 24.2629 76.0781 23.1842 76.0781Z" fill="#494949"/>
<path d="M78.9292 7.98779C78.8734 7.98779 78.8177 7.98799 78.7619 7.98877C77.6833 8.0015 76.8193 8.88902 76.8322 9.97064C76.8449 11.0442 77.7167 11.9061 78.7845 11.9061C78.7925 11.9061 78.8003 11.9061 78.8083 11.9059L78.9292 11.9053C80.0078 11.9053 80.8824 11.0282 80.8824 9.94655C80.8824 8.86492 80.0078 7.98779 78.9292 7.98779Z" fill="#494949"/>
</svg>
