<svg width="102" height="100" viewBox="0 0 102 100" fill="none" xmlns="http://www.w3.org/2000/svg">
<path d="M88.0548 32.4219C84.479 32.4219 73.5523 33.4305 64.4295 35.0762L68.217 31.9657C68.6683 31.5949 68.9298 31.0464 68.9298 30.4688V14.4806L80.2993 3.33406C81.0775 2.57188 81.0775 1.33515 80.2993 0.572214C79.5211 -0.190727 78.2596 -0.190727 77.4814 0.572214L65.5283 12.291C65.1548 12.6572 64.9454 13.1539 64.9454 13.6719V29.5571L57.477 35.6911C57.0062 35.0465 56.4693 34.4926 55.779 33.9829C56.53 33.0033 56.9767 31.7857 56.9767 30.4681C56.9767 27.9221 55.3105 25.7516 52.9923 24.9451V5.85939C52.9923 4.7806 52.1005 3.90627 51.0001 3.90627C49.8997 3.90627 49.0079 4.7806 49.0079 5.85939V24.9451C46.6889 25.7516 45.0235 27.9221 45.0235 30.4681C45.0235 31.7849 45.4687 33.001 46.2188 33.9806C45.569 34.4582 44.9932 35.032 44.5161 35.685L37.0548 29.5563V13.6719C37.0548 13.2866 36.938 12.9097 36.7201 12.5885L28.7514 0.869761C28.1413 -0.0274578 26.9039 -0.270073 25.9888 0.328073C25.0736 0.926218 24.8261 2.13929 25.4362 3.03651L33.0704 14.2632V30.4688C33.0704 31.0464 33.3311 31.5949 33.7832 31.9657L37.5699 35.0762C28.4479 33.4305 17.5204 32.4219 13.9453 32.4219C6.12521 32.4219 0 36.7112 0 42.1876C0 47.6632 6.12521 51.9532 13.9453 51.9532C18.2457 51.9532 33.4167 50.4708 43.0344 48.1713C43.0632 49.9398 43.7029 51.6381 44.829 52.9878L33.9575 60.0938C33.4034 60.4554 33.0704 61.0658 33.0704 61.7189V81.9604L25.3117 97.1735C24.8199 98.1378 25.2183 99.3113 26.2028 99.7934C27.1864 100.276 28.3833 99.885 28.8759 98.9199L36.8446 83.2948C36.9824 83.024 37.0548 82.7249 37.0548 82.422V62.7641L45.0235 57.5555V73.4369C45.0235 76.6679 47.7044 79.2963 51.0001 79.2963C54.2958 79.2963 56.9767 76.6679 56.9767 73.4369V57.5555L64.9454 62.7641V82.4213C64.9454 82.7249 65.017 83.024 65.1555 83.2948L73.1243 98.9199C73.6169 99.8865 74.8153 100.275 75.7974 99.7934C76.7811 99.3113 77.1803 98.1378 76.6885 97.1735L68.9298 81.9604V61.7181C68.9298 61.065 68.5967 60.4554 68.0427 60.0938L57.1704 52.987C58.2973 51.6358 58.937 49.9383 58.9657 48.1713C68.5835 50.4708 83.7545 51.9532 88.0548 51.9532C95.8742 51.9532 102 47.6632 102 42.1876C102 36.7112 95.8742 32.4219 88.0548 32.4219ZM49.0079 63.672H52.9923V67.5783H49.0079V63.672ZM49.0079 59.7657V55.6092C49.653 55.7725 50.3223 55.8595 51.0001 55.8595C51.6779 55.8595 52.3464 55.7733 52.9923 55.6092V59.7657H49.0079ZM54.9845 40.2345V48.047C54.9845 50.187 53.2071 51.9532 51.0001 51.9532C48.804 51.9532 47.0157 50.1977 47.0157 48.047C47.0157 46.2029 47.0157 42.1113 47.0157 40.2345C47.0157 38.083 48.7869 36.3282 51.0001 36.3282C53.2156 36.3282 54.9845 38.0944 54.9845 40.2345ZM49.0079 30.4688C49.0079 29.3915 49.9013 28.5157 51.0001 28.5157C52.0989 28.5157 52.9923 29.3915 52.9923 30.4688C52.9923 31.5461 52.0989 32.4219 51.0001 32.4219C49.9021 32.4219 49.0079 31.5453 49.0079 30.4688ZM3.98438 42.1876C3.98438 39.0115 8.54619 36.3282 13.9453 36.3282C18.4239 36.3282 34.1054 37.951 43.0313 40.2314V40.2345V44.1438C34.1264 46.4211 18.3904 48.047 13.9453 48.047C8.54619 48.047 3.98438 45.3637 3.98438 42.1876ZM51.0001 75.3908C49.9013 75.3908 49.0079 74.5141 49.0079 73.4376V71.4845H52.9923V73.4376C52.9923 74.5141 52.0989 75.3908 51.0001 75.3908ZM88.0548 48.047C83.6098 48.047 67.8738 46.4211 58.9689 44.1438V40.2314C67.8948 37.951 83.5763 36.3282 88.0548 36.3282C93.454 36.3282 98.0158 39.0115 98.0158 42.1876C98.0158 45.3637 93.454 48.047 88.0548 48.047Z" fill="#494949"/>
</svg>
