<svg width="100" height="36" viewBox="0 0 100 36" fill="none" xmlns="http://www.w3.org/2000/svg">
<path d="M99.7457 18.487C98.3762 13.4316 94.8635 9.26011 90.2092 7.06815C89.985 3.13262 86.7508 0 82.8059 0C79.4336 0 76.5818 2.28978 75.6842 5.41291C74.2895 5.41746 72.873 5.50757 71.4711 5.68404C62.9492 6.75849 54.5432 8.83899 46.4869 11.8675C38.6297 14.821 31.1039 18.6807 24.1055 23.3397H2.06895C0.926367 23.3397 0 24.2768 0 25.4331C0 26.5893 0.926367 27.5264 2.06895 27.5264H24.7232H43.407V33.9067C43.407 35.0629 44.3334 36 45.476 36H48.6984C49.8412 36 50.7674 35.0627 50.7674 33.9067C50.7674 32.7506 49.841 31.8133 48.6984 31.8133H47.5449V27.5264H72.7752V33.9067C72.7752 35.0629 73.7014 36 74.8441 36H78.0668C79.2096 36 80.1357 35.0627 80.1357 33.9067C80.1357 32.7506 79.2094 31.8133 78.0668 31.8133H76.9131V27.5264H80.2512C81.3939 27.5264 82.3201 26.5891 82.3201 25.4331C82.3201 24.277 81.3939 23.3397 80.2512 23.3397H74.8441H73.7535H45.4762H32.0004C37.0928 20.3887 42.4264 17.8604 47.9283 15.7921C49.4539 15.2184 50.9934 14.6815 52.5434 14.1792V16.9357C52.5434 18.092 53.4697 19.0291 54.6123 19.0291C55.7551 19.0291 56.6813 18.0918 56.6813 16.9357V12.9293C57.8424 12.6044 59.009 12.3008 60.1801 12.0157V15.0768C60.1801 16.233 61.1064 17.1701 62.249 17.1701C63.3916 17.1701 64.318 16.2328 64.318 15.0768V11.093C65.5184 10.8509 66.723 10.6322 67.9309 10.4322V13.6618C67.9309 14.8181 68.857 15.7552 69.9998 15.7552C71.1426 15.7552 72.0687 14.8179 72.0687 13.6618V9.82905C73.3104 9.67649 74.5635 9.59764 75.7951 9.59764H77.4582C78.601 9.59764 79.5271 8.66035 79.5271 7.50429C79.5271 5.67495 80.998 4.1867 82.8061 4.1867C84.6141 4.1867 86.085 5.67495 86.085 7.50429C86.085 7.69637 86.0686 7.88628 86.0352 8.08429C86.0338 8.0924 86.0332 8.1007 86.032 8.1088C86.0273 8.13923 86.024 8.16967 86.0205 8.2003C86.0168 8.23251 86.0135 8.26452 86.0113 8.29713C86.009 8.33033 86.0078 8.36372 86.0072 8.39692C86.007 8.41135 86.0053 8.42578 86.0053 8.44C86.0053 8.45423 86.0072 8.46787 86.0074 8.4819C86.0082 8.52419 86.0104 8.56608 86.0137 8.60758C86.0162 8.639 86.0193 8.67023 86.0232 8.70125C86.0273 8.73445 86.0326 8.76765 86.0381 8.80046C86.0447 8.83919 86.0521 8.87753 86.0611 8.91567C86.0668 8.93958 86.0729 8.9631 86.0791 8.98661C86.091 9.03147 86.1041 9.07554 86.1188 9.11921C86.1246 9.13621 86.1307 9.15301 86.1369 9.16961C86.1545 9.21703 86.173 9.26406 86.1939 9.30991C86.2002 9.32374 86.207 9.33738 86.2137 9.35102C86.2359 9.39765 86.2596 9.4433 86.285 9.48796C86.293 9.50199 86.3016 9.51563 86.3098 9.52946C86.3355 9.57195 86.3623 9.61385 86.3908 9.65416C86.402 9.66977 86.4137 9.68519 86.425 9.7004C86.4529 9.73775 86.4814 9.77431 86.5119 9.80968C86.5262 9.82648 86.5412 9.84249 86.5563 9.85889C86.5863 9.89169 86.6168 9.92371 86.649 9.95454C86.6656 9.97054 86.6828 9.98576 86.6998 10.0012C86.7332 10.031 86.767 10.0605 86.8021 10.0881C86.8189 10.1014 86.8361 10.114 86.8533 10.1267C86.8922 10.1555 86.9316 10.183 86.9725 10.2089C86.9869 10.2182 87.0016 10.2269 87.0164 10.2359C87.0627 10.264 87.1104 10.2901 87.159 10.3144C87.1697 10.3199 87.1807 10.3251 87.1914 10.3304C87.2451 10.3561 87.3 10.3794 87.3563 10.4006C87.3609 10.4025 87.3654 10.4047 87.3701 10.4065C91.4689 11.9074 94.6033 15.342 95.7549 19.5933C95.826 19.8557 95.8621 20.1225 95.8621 20.3853C95.8621 22.0141 94.5467 23.3395 92.9295 23.3395C91.7867 23.3395 90.8605 24.2768 90.8605 25.4329C90.8605 26.5889 91.7869 27.5262 92.9295 27.5262C96.8283 27.5262 100 24.3226 100 20.3853C100 19.7486 99.9146 19.1101 99.7457 18.487Z" fill="#494949"/>
<path d="M86.9037 23.3384H86.3658C85.223 23.3384 84.2969 24.2755 84.2969 25.4317C84.2969 26.588 85.2232 27.5251 86.3658 27.5251H86.9037C88.0465 27.5251 88.9727 26.5878 88.9727 25.4317C88.9727 24.2757 88.0465 23.3384 86.9037 23.3384Z" fill="#494949"/>
<path d="M82.8072 7.9917C81.6645 7.9917 80.7383 8.92899 80.7383 10.0851V11.8808C80.7383 13.037 81.6645 13.9741 82.8072 13.9741C83.95 13.9741 84.8762 13.0369 84.8762 11.8808V10.0851C84.8762 8.92899 83.95 7.9917 82.8072 7.9917Z" fill="#494949"/>
</svg>
