<svg width="102" height="70" viewBox="0 0 102 70" fill="none" xmlns="http://www.w3.org/2000/svg">
<path d="M10.6713 69.1957C15.4953 69.1957 21.4041 67.6782 27.0842 64.7779C29.323 67.5958 32.7206 69.2518 36.3579 69.2518C41.2318 69.2518 45.5507 66.3281 47.3616 61.8029L48.0456 60.0916C48.939 60.8628 49.9483 61.2846 50.9996 61.2846C52.0518 61.2846 53.0611 60.8628 53.9544 60.0916L54.6385 61.8037C56.4493 66.3281 60.7683 69.2518 65.6421 69.2518C69.2802 69.2518 72.6778 67.5958 74.9159 64.7779C80.5967 67.6782 86.5048 69.1957 91.3296 69.1957C95.0252 69.1957 98.0835 68.3078 99.9154 66.4752C101.936 64.455 103.513 60.3119 99.5574 52.0443C96.8493 46.3853 92.0961 40.0057 86.1709 34.0805C79.8932 27.8028 73.1167 23.1476 67.2351 20.8317L79.4279 17.3874C80.4862 17.0886 81.1025 15.9883 80.8029 14.9291C80.5041 13.8708 79.4045 13.2552 78.3446 13.5541L58.7014 19.1026C58.6695 18.9493 58.6361 18.7999 58.6018 18.6536L64.3597 12.8957C64.7332 12.5222 64.9425 12.0156 64.9425 11.4872V8.37051L72.0233 3.6492C72.9393 3.0391 73.186 1.80255 72.5759 0.886613C71.9658 -0.028543 70.7284 -0.27523 69.8133 0.334874L61.8461 5.64683C61.292 6.01647 60.959 6.63825 60.959 7.30438V10.6623L57.103 14.5182C55.7233 11.7689 53.6447 9.495 50.9996 9.495C48.3546 9.495 46.2768 11.7681 44.8963 14.5182L41.0403 10.6623V7.30438C41.0403 6.63825 40.7072 6.01647 40.1532 5.64683L32.186 0.334874C31.2701 -0.27523 30.0335 -0.028543 29.4234 0.886613C28.8133 1.80177 29.0608 3.0391 29.9759 3.6492L37.0567 8.37051V11.4872C37.0567 12.0156 37.2661 12.5222 37.6396 12.8957L43.3975 18.6536C43.3632 18.7999 43.3298 18.9501 43.2986 19.1034L23.6547 13.5541C22.5956 13.2545 21.4952 13.8708 21.1964 14.9291C20.8975 15.9883 21.5131 17.0886 22.5714 17.3874L34.7665 20.8325C28.8834 23.1476 22.1068 27.8028 15.8284 34.0805C9.90398 40.0057 5.14999 46.3845 2.44266 52.0443C-1.5129 60.3119 0.0644957 64.455 2.08391 66.4752C3.91656 68.3078 6.97486 69.1957 10.6713 69.1957ZM43.6628 60.3228C42.4605 63.3274 39.5937 65.2682 36.3579 65.2682C34.1564 65.2682 32.0887 64.3522 30.6141 62.7725C36.5789 59.0302 41.4216 54.0513 45.0247 48.1954V53.3167C45.0247 54.0855 45.1756 54.9626 45.4527 55.8474L43.6628 60.3228ZM51.0051 57.301C50.4113 57.2216 49.0082 54.9649 49.0082 53.3167V29.1592C49.6534 29.3257 50.3218 29.4144 51.0004 29.4144C51.6782 29.4144 52.3467 29.3257 52.9918 29.1592V53.3167C52.9918 54.9649 51.588 57.2185 51.0051 57.301ZM65.6421 65.2682C62.4072 65.2682 59.5395 63.3266 58.3372 60.3235L56.5474 55.8474C56.8244 54.9618 56.9754 54.0847 56.9754 53.3167V48.1954C60.5636 54.0272 65.3986 59.0154 71.386 62.7725C69.9113 64.3515 67.8437 65.2682 65.6421 65.2682ZM95.9637 53.7634C98.1987 58.4349 98.6228 62.1336 97.0975 63.6589C95.8322 64.925 92.7474 65.4713 89.0471 65.0837C76.5291 63.774 62.5613 54.112 56.9754 39.2041V26.7094C57.0252 26.6526 57.0766 26.5958 57.1248 26.5375L61.4072 29.7506C63.9161 31.6323 65.7667 34.1996 66.7581 37.1754C67.6289 39.7854 69.0141 42.1332 70.8739 44.1534C71.2662 44.5799 71.8023 44.7962 72.3393 44.7962C72.8218 44.7962 73.305 44.6219 73.6879 44.2694C74.4972 43.5239 74.5494 42.264 73.8046 41.4547C72.3284 39.8516 71.2288 37.9878 70.5378 35.9155C69.2888 32.1677 66.9581 28.9343 63.7978 26.5647L59.3053 23.1936C64.2624 22.8729 73.7673 27.311 83.3538 36.8983C88.9677 42.5114 93.4462 48.5012 95.9637 53.7634ZM51.0004 13.4786C51.7701 13.4786 53.4463 15.312 54.4681 18.6271C54.7194 19.4419 55.0268 20.7524 54.9817 21.5484C54.8198 24.0356 52.9132 25.4301 51.0004 25.4301C48.7367 25.4301 47.0168 23.5655 47.0168 21.4465C47.0168 20.5788 47.2729 19.4699 47.532 18.6271C48.5538 15.312 50.23 13.4786 51.0004 13.4786ZM6.03636 53.7634C8.55459 48.5012 13.0323 42.5114 18.6462 36.8975C28.2289 27.3149 37.7299 22.8768 42.694 23.1936L38.2022 26.5639C35.0428 28.9335 32.7121 32.1677 31.4623 35.9147C30.7713 37.987 29.6725 39.8516 28.1962 41.4547C27.4507 42.264 27.5028 43.5239 28.3122 44.2694C29.1199 45.0126 30.3798 44.9635 31.1269 44.1527C32.9868 42.1332 34.3712 39.7854 35.242 37.1746C36.2342 34.1996 38.084 31.6323 40.5928 29.7506L44.8753 26.5375C44.9235 26.5958 44.9741 26.6526 45.0247 26.7094V39.2041C39.4902 53.9742 25.5963 63.7616 12.9529 65.0837C9.25186 65.4705 6.16787 64.925 4.90253 63.6581C3.37727 62.1336 3.80138 58.4349 6.03636 53.7634Z" fill="#494949"/>
<path d="M25.1057 47.3408C25.1057 48.4412 24.2138 49.333 23.1143 49.333C22.0139 49.333 21.1221 48.4412 21.1221 47.3408C21.1221 46.2404 22.0139 45.3486 23.1143 45.3486C24.2138 45.3486 25.1057 46.2404 25.1057 47.3408Z" fill="#494949"/>
<path d="M80.8791 47.3408C80.8791 48.4412 79.9873 49.333 78.8869 49.333C77.7873 49.333 76.8955 48.4412 76.8955 47.3408C76.8955 46.2404 77.7873 45.3486 78.8869 45.3486C79.9873 45.3486 80.8791 46.2404 80.8791 47.3408Z" fill="#494949"/>
</svg>
