<svg width="61" height="100" viewBox="0 0 61 100" fill="none" xmlns="http://www.w3.org/2000/svg">
<path d="M8.29274 56.9387L0.213613 72.5636C-0.285021 73.5287 0.118935 74.7013 1.11699 75.1843C2.11584 75.6664 3.32849 75.2743 3.82713 74.3107L11.4423 59.5822L21.4174 58.0403C20.3617 59.6837 19.4142 61.6193 18.6165 63.7784L8.78269 71.9563C8.33613 72.3278 8.07971 72.868 8.07971 73.4371V89.7731L4.25317 97.1728C3.75454 98.1379 4.1585 99.3113 5.15655 99.7935C6.15619 100.276 7.36805 99.8828 7.86669 98.92L11.9062 91.1075C12.0459 90.8367 12.1193 90.5376 12.1193 90.2339V74.3336L16.8074 70.435C16.3837 72.7574 16.1588 75.1011 16.1588 77.3434C16.1588 90.3034 23.4624 94.9214 30.2973 94.9214C37.1322 94.9214 44.4358 90.3034 44.4358 77.3434C44.4358 75.1011 44.2109 72.7574 43.7872 70.4358L48.4753 74.3336V90.2339C48.4753 90.5368 48.5479 90.8359 48.6884 91.1067L52.7279 98.9192C53.2273 99.8843 54.44 100.275 55.438 99.7928C56.4353 99.3106 56.8401 98.1372 56.3414 97.1721L52.5149 89.7724V73.4371C52.5149 72.868 52.2585 72.3271 51.8119 71.9555L41.9781 63.7807C41.1804 61.62 40.2329 59.6837 39.1764 58.0403L49.1523 59.5822L56.7675 74.3107C57.2669 75.2758 58.4803 75.6657 59.4776 75.1835C60.4757 74.7013 60.8796 73.5279 60.381 72.5636L52.3019 56.9387C52.0107 56.3756 51.4569 55.9827 50.8139 55.8835L37.9867 53.9006L47.5759 47.7186C47.9159 47.4996 48.1795 47.1853 48.3309 46.8191L54.7942 31.1942C55.2085 30.1924 54.7051 29.0556 53.6692 28.6551C52.6332 28.2546 51.4577 28.7421 51.0434 29.743L44.8137 44.8049L36.3566 50.2569V46.0897C38.8727 44.2579 40.3962 41.3626 40.3962 38.2811C40.3962 36.3371 39.8116 34.4794 38.7236 32.8955L43.844 27.9433C44.2227 27.5771 44.4358 27.0804 44.4358 26.5624V6.66882L47.8836 3.33403C48.6726 2.57186 48.6726 1.33514 47.8836 0.572202C47.0954 -0.190734 45.8165 -0.190734 45.0275 0.572202L40.9879 4.47843C40.6092 4.84464 40.3962 5.34131 40.3962 5.85935V25.7529L35.8667 30.1329C35.3349 29.7911 34.7724 29.5012 34.1877 29.2647L36.2533 23.2741C36.606 22.2503 36.034 21.144 34.9759 20.803C33.9171 20.4619 32.7739 21.0151 32.4212 22.0382L30.2973 28.1966L28.1742 22.0382C27.8215 21.0151 26.6775 20.4619 25.6195 20.803C24.5606 21.144 23.9894 22.2503 24.3421 23.2741L26.4076 29.2647C25.8222 29.5012 25.2605 29.7911 24.7279 30.1329L20.1992 25.7529V5.85935C20.1992 5.34131 19.9862 4.84464 19.6075 4.47843L15.5679 0.572202C14.7789 -0.190734 13.5 -0.190734 12.711 0.572202C11.922 1.33514 11.922 2.57186 12.711 3.33479L16.1588 6.66882V26.5624C16.1588 27.0804 16.3719 27.5771 16.7506 27.9433L21.8718 32.8955C20.7838 34.4794 20.1984 36.3371 20.1984 38.2811C20.1984 41.3626 21.7219 44.2571 24.238 46.0889V50.2561L15.7817 44.8049L9.55115 29.743C9.13694 28.7413 7.96137 28.2546 6.92544 28.6551C5.8903 29.0556 5.38614 30.1924 5.80036 31.1942L12.2637 46.8183C12.4151 47.1853 12.6787 47.4989 13.0187 47.7186L22.6087 53.8999L9.78075 55.8835C9.13773 55.9827 8.58387 56.3756 8.29274 56.9387ZM30.2973 48.0466C30.9774 48.0466 31.6543 47.9787 32.3171 47.8483V53.906C32.3171 55.0069 31.3877 55.8591 30.2973 55.8591C29.1848 55.8591 28.2775 54.9863 28.2775 53.906V47.8483C28.9395 47.9787 29.6164 48.0466 30.2973 48.0466ZM30.2973 91.0152C22.9259 91.0152 20.1984 84.5112 20.1984 77.3434C20.1984 71.3337 22.2253 62.8186 26.2262 58.2448C26.829 58.775 27.5256 59.1756 28.2775 59.4327V65.6247C28.2775 66.7035 29.1817 67.5778 30.2973 67.5778C31.4129 67.5778 32.3171 66.7035 32.3171 65.6247V59.4228C33.0737 59.1611 33.7696 58.7583 34.3629 58.2395C38.3559 62.8003 40.3962 71.275 40.3962 77.3434C40.3962 84.5081 37.6703 91.0152 30.2973 91.0152ZM30.2973 44.1404C26.9015 44.1404 24.238 41.4625 24.238 38.2811C24.238 35.0493 26.9505 32.4217 30.2973 32.4217C33.6386 32.4217 36.3566 35.0455 36.3566 38.2811C36.3566 41.4617 33.6938 44.1404 30.2973 44.1404Z" fill="#494949"/>
</svg>
