<svg width="92" height="100" viewBox="0 0 92 100" fill="none" xmlns="http://www.w3.org/2000/svg">
<path d="M0.508434 96.7454C-0.227035 97.5488 -0.156061 98.784 0.665979 99.5027C1.48802 100.221 2.74994 100.153 3.4854 99.3486L27.9766 72.5594C27.4642 82.6059 35.6791 91.0157 45.9219 91.0157C56.1623 91.0157 64.3795 82.6089 63.8671 72.5602L88.3591 99.3486C89.0953 100.154 90.3572 100.221 91.1785 99.5027C92.0005 98.784 92.0707 97.5488 91.336 96.7454C90.4391 95.7643 61.4821 64.0916 59.317 61.7234C59.5128 61.0825 59.6594 60.4287 59.7569 59.7657H69.0544L84.4423 74.8185C85.2222 75.5815 86.4865 75.5815 87.2664 74.8185C88.0455 74.0556 88.0455 72.8196 87.2664 72.0567L71.2936 56.4316C70.9184 56.0654 70.4107 55.8594 69.8811 55.8594H59.7561C59.6391 55.0553 59.4481 54.2695 59.1899 53.5065L86.747 40.0284C87.4232 39.6973 87.8506 39.0213 87.8506 38.2813V26.5625C87.8506 25.4837 86.9568 24.6094 85.854 24.6094C84.7511 24.6094 83.8574 25.4837 83.8574 26.5625V37.0743L57.4016 50.0138C57.2846 49.8505 57.1645 49.6888 57.0404 49.5293L83.3652 20.0341C83.6826 19.6785 83.8574 19.2223 83.8574 18.75V1.95313C83.8574 0.87433 82.9636 0 81.8607 0C80.7579 0 79.8641 0.87433 79.8641 1.95313V18.0176L54.1883 46.7858C51.8048 45.0692 48.9355 44.1407 45.9219 44.1407C42.9082 44.1407 40.0397 45.0692 37.6554 46.7858L11.9796 18.0176V1.95313C11.9796 0.87433 11.0858 0 9.98295 0C8.88014 0 7.98635 0.87433 7.98635 1.95313V18.75C7.98635 19.2223 8.16105 19.6785 8.47926 20.0348L34.8033 49.5293C34.6792 49.6888 34.5591 49.8505 34.4422 50.0138L7.98635 37.0743V26.5625C7.98635 25.4837 7.09255 24.6094 5.98974 24.6094C4.88693 24.6094 3.99313 25.4837 3.99313 26.5625V38.2813C3.99313 39.0213 4.42053 39.6973 5.09673 40.0284L32.6538 53.5065C32.3964 54.2695 32.2053 55.0553 32.0883 55.8594H21.9626C21.433 55.8594 20.9253 56.0654 20.5509 56.4316L4.57808 72.0567C3.79815 72.8196 3.79815 74.0556 4.57808 74.8185C5.358 75.5815 6.62226 75.5815 7.40218 74.8185L22.7893 59.7657H32.0876C32.1843 60.4279 32.3301 61.081 32.5259 61.7211C30.6798 63.7452 4.09608 92.8208 0.508434 96.7454ZM59.8981 73.4376C59.8981 80.9762 53.6283 87.1095 45.9219 87.1095C38.2154 87.1095 31.9456 80.9762 31.9456 73.4376C31.9456 66.0012 38.0883 59.7657 45.9219 59.7657C53.7671 59.7657 59.8981 66.0119 59.8981 73.4376ZM55.855 58.7891C52.9326 56.8856 49.5017 55.8594 45.9219 55.8594C42.3428 55.8594 38.9119 56.8856 35.9887 58.7891C35.4046 53.0091 40.0272 48.0469 45.9219 48.0469C51.79 48.0469 56.4415 52.9832 55.855 58.7891Z" fill="#FF007C"/>
</svg>
