<svg width="81" height="100" viewBox="0 0 81 100" fill="none" xmlns="http://www.w3.org/2000/svg">
<path d="M19.4084 40.7708L8.82157 48.4322C8.31297 48.8007 8.0125 49.382 8.0125 50V80.4413L0.586853 87.6816C-0.195618 88.4445 -0.195618 89.6813 0.586853 90.4434C1.36854 91.2064 2.63692 91.2064 3.4194 90.4434L11.4319 82.6317C11.8075 82.2655 12.0187 81.768 12.0187 81.25V50.9827L17.2746 47.1794C16.4467 50.5905 16.025 54.1748 16.025 57.8125C16.025 65.3252 17.8106 72.58 20.5727 78.1876C23.924 85.0082 26.5758 86.1198 38.586 99.3668C38.9655 99.7703 39.5007 100 40.0625 100C40.6235 100 41.1595 99.7703 41.539 99.3668C53.5531 86.1153 56.2033 85.0021 59.5515 78.1891C59.5616 78.1685 59.5898 78.1098 59.5937 78.1014C62.4106 72.3435 64.1 65.1062 64.1 57.8125C64.1 54.1802 63.679 50.5951 62.8496 47.1794L68.1054 50.9827V81.25C68.1054 81.768 68.3167 82.2647 68.6923 82.6309L76.7048 90.4434C77.4873 91.2064 78.7556 91.2064 79.5381 90.4434C80.3198 89.6805 80.3198 88.4438 79.5381 87.6808L72.1125 80.4405V50C72.1125 49.382 71.812 48.8007 71.3026 48.4322L60.7158 40.7708C58.6477 35.9711 55.7847 32.0397 52.3809 29.2511L61.5609 28.5622L73.0037 36.0001C73.92 36.596 75.1657 36.3602 75.7815 35.4592C76.3949 34.5612 76.1461 33.3489 75.2259 32.7507L63.2072 24.9383C62.8347 24.6956 62.3895 24.582 61.9427 24.6155L49.6282 25.5402C49.9224 24.6132 50.0773 23.642 50.0773 22.6571C50.0773 22.1749 50.039 21.6965 49.9678 21.2235L62.7807 16.6802C63.7807 16.3254 64.3214 15.2711 64.0131 14.2777L60.0069 1.38785C59.6861 0.354833 58.5679 -0.228815 57.5092 0.0847528C56.4505 0.397558 55.852 1.4878 56.1728 2.52005L59.6289 13.6407L48.6008 17.5515C48.2565 17.0037 47.8575 16.4902 47.4075 16.018C47.8465 15.0414 48.0742 13.984 48.0742 12.8914C48.0742 11.1786 47.4889 9.52536 46.4514 8.18335L51.4842 3.34479C52.2714 2.58719 52.2808 1.35047 51.5038 0.582952C50.7268 -0.185328 49.4592 -0.194483 48.6712 0.563115L43.2878 5.73889C42.2792 5.30554 41.1877 5.07895 40.0617 5.07895C38.9357 5.07895 37.8442 5.30554 36.8364 5.73889L31.453 0.563115C30.665 -0.194483 29.3966 -0.185328 28.6204 0.582189C27.8434 1.35047 27.852 2.58719 28.64 3.34479L33.6728 8.18335C32.6345 9.52536 32.0492 11.1786 32.0492 12.8914C32.0492 13.984 32.2777 15.0414 32.7166 16.018C32.2667 16.4895 31.8677 17.0037 31.5234 17.5515L20.4945 13.6407L23.9506 2.52005C24.2714 1.4878 23.6736 0.397558 22.615 0.0847528C21.5563 -0.228052 20.4373 0.354833 20.1173 1.38709L16.1111 14.2777C15.802 15.2703 16.3435 16.3254 17.3427 16.6794L30.1564 21.2235C30.0844 21.6958 30.0461 22.1741 30.0461 22.6563C30.0461 23.642 30.201 24.6132 30.496 25.5402L18.1815 24.6155C17.7339 24.582 17.2895 24.6956 16.9162 24.9383L4.89826 32.75C3.9773 33.3489 3.72847 34.5612 4.34271 35.4584C4.95773 36.3587 6.20264 36.5975 7.12048 36.0001L18.5633 28.5622L27.7433 29.2511C24.3387 32.0397 21.4765 35.9711 19.4084 40.7708ZM57.7612 44.1407C58.6618 46.6072 59.3073 49.2234 59.6884 51.9532H48.0742C46.9686 51.9532 46.0711 52.8282 46.0711 53.9063C46.0711 54.9851 46.9686 55.8594 48.0742 55.8594H60.0476C60.0773 56.5102 60.0929 57.1625 60.0929 57.8125C60.0929 59.758 59.9615 61.7218 59.7041 63.6719H20.4201C20.1627 61.7218 20.0312 59.758 20.0312 57.8125C20.0312 57.1625 20.0469 56.5102 20.0766 55.8594H32.05C33.1556 55.8594 34.0531 54.9851 34.0531 53.9063C34.0531 52.8282 33.1556 51.9532 32.05 51.9532H20.4358C20.8168 49.2234 21.4624 46.6072 22.363 44.1407H57.7612ZM56.4591 75.3906H23.665C22.5923 72.9981 21.7245 70.3446 21.1087 67.5766H59.0155C58.3997 70.3446 57.5319 72.9973 56.4591 75.3906ZM40.0617 95.1569C28.6337 82.8301 27.7918 82.5317 25.7456 79.2954H54.3778C52.3277 82.5394 51.4459 82.8781 40.0617 95.1569ZM56.0507 40.2352H24.0735C26.4858 35.5828 29.8348 32.0092 33.5883 30.1049C35.3849 31.5911 37.672 32.4227 40.0617 32.4227C42.4529 32.4227 44.7409 31.5903 46.5359 30.1049C50.2894 32.0092 53.6383 35.5828 56.0507 40.2352ZM34.413 20.6543C34.4287 20.6353 35.7354 16.7977 40.0617 16.7977C42.6892 16.7977 44.8848 18.4334 45.7111 20.6528C45.9099 21.1358 46.0711 21.9155 46.0711 22.6563C46.0711 25.8767 43.388 28.5157 40.0617 28.5157C36.7331 28.5157 34.0531 25.8744 34.0531 22.6563C34.0531 21.9704 34.1736 21.2967 34.413 20.6543ZM42.4302 9.74127C43.4717 10.4859 44.0679 11.6341 44.0679 12.8914C44.0679 13.1554 44.039 13.4148 43.9866 13.6681C42.7573 13.1562 41.4302 12.8914 40.0617 12.8914C38.6939 12.8914 37.3677 13.1562 36.1376 13.6681C36.0852 13.4148 36.0562 13.1554 36.0562 12.8914C36.0562 11.6341 36.6525 10.4859 37.6939 9.74127C38.3849 9.24612 39.2041 8.9852 40.0617 8.9852C40.9201 8.9852 41.7393 9.24612 42.4302 9.74127Z" fill="#494949"/>
</svg>
