<svg width="102" height="57" viewBox="0 0 102 57" fill="none" xmlns="http://www.w3.org/2000/svg">
<path d="M94.678 7.23775C89.9567 2.57041 83.6796 0 77.0033 0C74.0049 0 70.9797 0.179421 68.0109 0.532948C65.0405 0.887066 62.0598 1.42199 59.1513 2.12274C58.0271 2.39374 57.3378 3.5142 57.6118 4.62559C57.8859 5.73699 59.0193 6.41824 60.1435 6.14763C62.8909 5.48568 65.7067 4.9805 68.5123 4.64588C71.315 4.31205 74.1716 4.14247 77.0031 4.14247C82.5602 4.14247 87.785 6.28215 91.7146 10.1664C95.6446 14.0536 97.809 19.2199 97.809 24.713C97.809 29.689 94.4159 33.6989 89.8236 34.4981C89.4154 30.437 87.9589 26.6542 85.4646 23.219C84.8349 22.352 84.1753 21.5358 83.5043 20.7933C82.7333 19.9401 81.4091 19.8661 80.5459 20.6283C79.6829 21.3903 79.6082 22.6996 80.3789 23.553C80.9513 24.1866 81.5173 24.8873 82.0606 25.6353C88.3603 34.3118 85.2059 43.6495 82.765 48.4427C81.3772 51.1659 78.6035 52.8577 75.5259 52.8577H54.8916C55.6747 51.2457 57.342 50.1303 59.2679 50.1303H64.8024C64.9519 50.1303 65.0975 50.1142 65.2377 50.085C66.2715 49.9578 67.0722 49.0879 67.0722 48.0314C67.0722 46.8875 66.1342 45.9601 64.977 45.9601C64.9158 45.9601 64.8568 45.9603 64.7945 45.9587C64.107 45.941 63.4314 45.826 62.7791 45.6151C61.7291 45.2792 60.7565 44.689 59.9666 43.9079C58.628 42.5846 57.8907 40.8248 57.8907 38.9524C57.8907 32.6275 63.0955 27.482 69.4933 27.482C70.6506 27.482 71.5885 26.5547 71.5885 25.4106C71.5885 24.2665 70.6506 23.3393 69.4933 23.3393C60.7849 23.3393 53.7003 30.3433 53.7003 38.9524C53.7003 41.345 54.4585 43.6215 55.8604 45.5164H47.5272V43.3233V41.675C47.5272 40.531 46.5893 39.6037 45.432 39.6037C44.2747 39.6037 43.3368 40.531 43.3368 41.675V43.3233V47.5877V51.496C43.3368 51.9868 42.9338 52.3862 42.4383 52.3862H37.4667H32.6143C33.3974 50.7742 35.0647 49.6588 36.9906 49.6588H37.4653C37.4665 49.6588 37.4679 49.6588 37.4691 49.6588C37.5402 49.6588 37.6104 49.6551 37.6799 49.648C37.6904 49.647 37.7004 49.6447 37.711 49.6435C37.7691 49.6368 37.8269 49.6287 37.8835 49.6173C37.9062 49.6128 37.9277 49.6063 37.95 49.6009C37.9937 49.5907 38.0373 49.5809 38.0795 49.5681C38.1074 49.5596 38.1339 49.5491 38.1612 49.5397C38.1969 49.5273 38.2329 49.5155 38.2676 49.5011C38.2971 49.4891 38.3254 49.4749 38.3543 49.4615C38.3855 49.4469 38.417 49.4331 38.4475 49.4172C38.4766 49.402 38.5043 49.3849 38.5326 49.3685C38.5612 49.3516 38.5903 49.3353 38.6182 49.3169C38.6455 49.2992 38.6714 49.2801 38.6977 49.261C38.725 49.2415 38.7525 49.222 38.7786 49.2013C38.8035 49.1816 38.827 49.1606 38.8509 49.1399C38.8766 49.1174 38.9025 49.0952 38.9272 49.0715C38.9495 49.0501 38.9706 49.0276 38.992 49.0052C39.0161 48.98 39.0402 48.9544 39.0631 48.9282C39.0828 48.9051 39.1013 48.8815 39.1201 48.8577C39.142 48.8297 39.1639 48.8017 39.1844 48.7726C39.2017 48.7479 39.2181 48.7229 39.2344 48.6973C39.2537 48.6672 39.2725 48.6373 39.2904 48.6061C39.3057 48.5796 39.3197 48.5526 39.3338 48.5254C39.35 48.4941 39.3657 48.4624 39.38 48.4303C39.393 48.4015 39.4049 48.3726 39.4167 48.343C39.4295 48.3109 39.4416 48.2786 39.4528 48.2457C39.4633 48.2146 39.4729 48.1831 39.4818 48.1514C39.491 48.1189 39.4998 48.086 39.5075 48.0525C39.5153 48.0194 39.5221 47.9861 39.5281 47.9525C39.5342 47.919 39.5394 47.8851 39.5438 47.8512C39.5482 47.8174 39.5518 47.7833 39.5546 47.7486C39.5558 47.7315 39.5589 47.7149 39.5597 47.6976C39.5607 47.6787 39.5593 47.6606 39.5599 47.6417C39.5603 47.6232 39.5627 47.6054 39.5627 47.5869C39.5627 47.5706 39.5607 47.5546 39.5601 47.5383C39.5593 47.5009 39.5572 47.4634 39.5546 47.4266C39.552 47.3941 39.549 47.3618 39.545 47.3297C39.5404 47.2931 39.5346 47.2568 39.5283 47.2208C39.5225 47.1887 39.5161 47.157 39.5089 47.1255C39.501 47.0908 39.492 47.0569 39.4822 47.0229C39.4731 46.9907 39.4633 46.959 39.4528 46.9275C39.4418 46.8956 39.43 46.8641 39.4177 46.8328C39.4051 46.8009 39.392 46.7694 39.3779 46.7383C39.3645 46.7087 39.35 46.6796 39.3352 46.6508C39.3193 46.6199 39.3029 46.5894 39.2856 46.5594C39.2695 46.5317 39.2527 46.5045 39.2354 46.4777C39.2167 46.4487 39.1978 46.42 39.1776 46.392C39.1587 46.3656 39.1392 46.34 39.1193 46.3146C39.0983 46.2878 39.077 46.2618 39.0545 46.236C39.0328 46.2112 39.0103 46.187 38.9874 46.163C38.9643 46.1391 38.9412 46.1155 38.9171 46.0927C38.8925 46.0692 38.867 46.0468 38.8414 46.0247C38.8168 46.0036 38.7919 45.983 38.7664 45.9629C38.7392 45.9416 38.7111 45.9211 38.6828 45.901C38.6567 45.8825 38.63 45.8644 38.6029 45.8473C38.5736 45.8283 38.5433 45.8106 38.5132 45.7935C38.4849 45.7773 38.4565 45.7616 38.4274 45.7468C38.3965 45.7311 38.3654 45.7163 38.3339 45.7023C38.3031 45.6885 38.2724 45.6751 38.2409 45.6629C38.2094 45.6505 38.1773 45.6391 38.1451 45.6282C38.1118 45.617 38.0785 45.6066 38.0445 45.5969C38.0124 45.5879 37.9801 45.5798 37.9474 45.5723C37.912 45.564 37.8761 45.5568 37.8403 45.5505C37.8074 45.5447 37.7743 45.5396 37.7411 45.5355C37.7044 45.5308 37.6677 45.527 37.6307 45.5241C37.6139 45.5229 37.5976 45.5197 37.5809 45.5189L19.907 44.5846C16.735 44.4314 13.724 43.1555 11.4283 40.992C9.13152 38.8275 7.69832 35.9164 7.39172 32.7914C7.38415 32.7163 7.40168 32.646 7.45069 32.5724C7.47759 32.5314 7.53994 32.4587 7.65808 32.4339L33.5216 26.9929C33.522 26.9929 33.5225 26.9927 33.5229 26.9927C34.4485 26.7987 35.3888 26.5811 36.3971 26.328C40.7375 25.2383 44.9154 23.8228 48.9558 22.4538C56.6884 19.834 63.9918 17.3597 70.1701 18.084C71.3182 18.2194 72.3613 17.4073 72.4974 16.2713C72.6338 15.1353 71.8126 14.105 70.6637 13.9705C63.537 13.1339 55.7945 15.7579 47.5973 18.5351C44.3136 19.6476 40.9358 20.7886 37.4984 21.7446C35.8833 15.0461 30.6342 12.4182 27.874 11.9675C27.2666 11.8681 26.6462 12.0382 26.1771 12.4317C25.7077 12.8253 25.4372 13.4027 25.4372 14.0111V24.4584L6.78768 28.3816C6.37868 28.4673 5.99219 28.6089 5.6318 28.7938L3.37005 27.0796C2.45184 26.3834 1.13658 26.5553 0.432532 27.4633C-0.271515 28.3712 -0.0977945 29.6713 0.820614 30.3673L3.23976 32.2009C3.19752 32.5294 3.18836 32.8625 3.22123 33.1943C3.62425 37.3059 5.51207 41.1401 8.53704 43.9908C11.5606 46.8403 15.5259 48.5209 19.6928 48.722L29.6501 49.2484C28.5819 50.7165 27.9501 52.5148 27.9501 54.4576C27.9501 55.6017 28.8881 56.5289 30.0453 56.5289H37.4691H42.4407C45.2467 56.5289 47.5296 54.2712 47.5296 51.496V49.6588H51.9716C50.8765 51.1378 50.228 52.9596 50.228 54.9287C50.228 56.0728 51.166 57 52.3232 57H75.5265C80.1962 57 84.404 54.4351 86.5084 50.3056C87.8814 47.6092 89.5371 43.4624 89.8812 38.6784C96.8021 37.8304 102 32.0034 102 24.713C101.999 18.1142 99.3994 11.9079 94.678 7.23775ZM29.6258 17.0973C31.0612 18.0193 32.7243 19.7144 33.4389 22.7705C33.1747 22.8294 32.9121 22.8867 32.6521 22.9413C32.6516 22.9413 32.6512 22.9415 32.6506 22.9416L29.626 23.578L29.6258 17.0973Z" fill="#494949"/>
</svg>
