<svg width="92" height="100" viewBox="0 0 92 100" fill="none" xmlns="http://www.w3.org/2000/svg">
<path d="M91.4357 52.193L81.5982 25.9031C81.3483 25.2352 80.7673 24.7381 80.0572 24.5849C79.3473 24.4314 78.6062 24.6431 78.092 25.146L57.1532 45.6259C54.3844 43.3522 51.1843 41.5182 47.8669 40.2507C55.4029 36.9805 60.6732 29.5897 60.6732 21.016C60.6735 9.42769 51.0346 0 39.1867 0C27.3347 0 17.6922 9.42769 17.6922 21.016C17.6922 29.0864 22.3638 36.1085 29.1996 39.6328C24.669 41.1074 20.5586 43.7564 17.1679 47.4422C16.5988 47.3755 16.0231 47.3376 15.441 47.3376C11.6207 47.3376 8.03017 48.7934 5.33293 51.4355L4.18814 52.5543C1.48642 55.1953 -0.000851574 58.709 3.65803e-07 62.4482C0.000852306 66.1861 1.48855 69.6974 4.1875 72.3338L27.1264 94.775L28.271 95.8952C30.971 98.5417 34.5615 99.9994 38.3812 100C38.382 100 38.3827 100 38.3835 100C42.2036 100 45.7958 98.5425 48.496 95.8975L49.6436 94.776C49.6568 94.7633 49.6698 94.7502 49.6824 94.7373L90.9412 54.3824C91.528 53.8088 91.7207 52.9549 91.4357 52.193ZM54.1263 48.5866L40.5155 61.899V43.3095H43.7825V43.3097C47.4269 44.3209 51.0887 46.167 54.1263 48.5866ZM39.1867 4.16666C48.6858 4.16666 56.4138 11.7252 56.4138 21.016C56.4138 21.626 56.3786 22.2277 56.3139 22.8212L45.8124 12.7039C45.2282 12.141 44.3656 11.9562 43.5948 12.2285L21.9977 19.8535C22.6113 11.1035 30.0837 4.16666 39.1867 4.16666ZM22.2625 24.1895L43.7791 16.5931L55.0909 27.491C52.4921 33.5843 46.3428 37.8785 39.1867 37.8785C30.7925 37.8787 23.7847 31.9753 22.2625 24.1895ZM31.6658 43.2568C31.8174 43.2903 31.9748 43.3097 32.1367 43.3097H36.2558V61.9057L25.5512 51.4372C24.4311 50.3401 23.1559 49.4514 21.7762 48.7826C24.6502 46.1203 28.0156 44.2462 31.6658 43.2568ZM45.4851 92.9506L45.484 92.9517C43.5865 94.8102 41.0652 95.8335 38.3837 95.8335C38.3831 95.8335 38.3827 95.8335 38.382 95.8335C35.7016 95.8331 33.1816 94.8098 31.2852 92.951L30.1393 91.8296V91.8294H30.1391L7.19889 69.3869C5.30418 67.5361 4.26055 65.0717 4.25991 62.4476C4.25927 59.8222 5.30311 57.3555 7.19932 55.5018L8.34539 54.3816C10.2397 52.5264 12.7595 51.5045 15.441 51.5045C18.1227 51.5045 20.6427 52.5261 22.5383 54.3826L36.8766 68.4049C37.6404 69.1519 38.8387 69.2107 39.6738 68.5857C39.6912 68.5726 39.7096 68.5613 39.727 68.5474C39.7543 68.5259 39.7796 68.5009 39.806 68.4776C39.8337 68.4534 39.8623 68.4305 39.8887 68.4044L78.7448 30.3999L86.9682 52.3763L45.4851 92.9506Z" fill="#FF007C"/>
</svg>
