<svg width="92" height="100" viewBox="0 0 92 100" fill="none" xmlns="http://www.w3.org/2000/svg">
<path d="M2.88942 67.3721L10.8758 63.4659C11.205 63.3049 11.4818 63.0592 11.676 62.754L20.4705 48.9898L27.9616 54.8523C27.9991 58.0597 28.2245 61.2152 28.6386 64.2624L21.1053 67.7681C20.4096 68.0916 19.9666 68.7782 19.9666 69.5312V98.0469C19.9666 99.1257 20.8604 100 21.9632 100C23.0653 100 23.9598 99.1257 23.9598 98.0469V70.7649L29.3054 68.2777C32.0359 82.1793 38.422 91.0156 45.9225 91.0156C53.423 91.0156 59.809 82.1785 62.5387 68.2762L67.8851 70.7649V98.0469C67.8851 99.1257 68.7789 100 69.8817 100C70.9838 100 71.8783 99.1257 71.8783 98.0469V69.5312C71.8783 68.7782 71.4353 68.0916 70.7396 67.7681L63.2056 64.2601C63.6197 61.2129 63.8451 58.0581 63.8826 54.8515L71.3737 48.9898L80.1681 62.754C80.3623 63.0592 80.6392 63.3049 80.9683 63.4659L88.9548 67.3721C89.9429 67.8558 91.1409 67.4614 91.6338 66.4986C92.1267 65.5342 91.7266 64.3608 90.7408 63.8786L83.2566 60.218L73.5715 45.0584C73.2689 44.5862 72.7752 44.2619 72.2137 44.1688C71.6522 44.075 71.0758 44.2207 70.6312 44.5686L63.6174 50.0572C63.2571 47.1565 62.5551 43.6805 61.5911 40.0955L67.4062 24.2981L82.3457 20.6451C83.415 20.3834 84.0654 19.3229 83.7979 18.2762C83.5304 17.2294 82.4463 16.5931 81.377 16.8548L65.4042 20.7611C64.7584 20.9198 64.2351 21.3821 64.0097 21.9947L59.6546 33.8264C58.257 29.853 56.3025 25.312 53.8106 21.9093C53.8746 21.5118 53.9089 21.109 53.9089 20.7031C53.9089 19.0666 53.391 17.5468 52.5082 16.2902L63.4419 3.18827C64.1392 2.35285 64.012 1.12223 63.158 0.440162C62.304 -0.241906 61.046 -0.117546 60.3487 0.717873L49.4976 13.7199C48.4206 13.1912 47.207 12.8906 45.9225 12.8906C44.6372 12.8906 43.4236 13.1904 42.3473 13.7199L31.4962 0.717873C30.7982 -0.117546 29.541 -0.241906 28.6869 0.440162C27.8321 1.12223 27.705 2.35285 28.4031 3.18827L39.3368 16.2902C38.4539 17.5468 37.9361 19.0666 37.9361 20.7031C37.9361 21.109 37.9704 21.5118 38.0336 21.9093C35.5409 25.3135 33.5856 29.8561 32.1888 33.8302L27.8345 21.9947C27.6091 21.3821 27.0865 20.9198 26.44 20.7611L10.4672 16.8548C9.39788 16.5939 8.31379 17.2294 8.04627 18.2762C7.77876 19.3229 8.42922 20.3834 9.49927 20.6451L24.4379 24.2981L30.2515 40.1008C29.2883 43.6851 28.5871 47.1588 28.2276 50.0572L21.2137 44.5686C20.7684 44.2207 20.1928 44.075 19.6313 44.1688C19.0697 44.2619 18.5752 44.5862 18.2734 45.0584L8.58754 60.218L1.10417 63.8786C0.117571 64.3608 -0.28175 65.5342 0.211161 66.4986C0.704853 67.4637 1.9036 67.8543 2.88942 67.3721ZM45.9225 28.5156C48.1819 28.5156 50.2885 27.5642 51.7696 26.0116C53.7381 29.2892 55.6341 33.8737 57.1838 39.1487C53.7903 41.1392 49.9266 42.1875 45.9225 42.1875C41.9199 42.1875 38.0554 41.1392 34.6604 39.1487C36.2093 33.8737 38.1053 29.2884 40.0746 26.0109C41.5565 27.5642 43.663 28.5156 45.9225 28.5156ZM47.9191 86.7378V65.625C47.9191 64.5462 47.0245 63.6719 45.9225 63.6719C44.8197 63.6719 43.9259 64.5462 43.9259 65.625V86.7371C41.5058 85.8353 39.5653 83.4488 38.2652 81.3766C33.5513 73.8624 31.9462 62.6953 31.9462 53.9062C31.9462 51.3473 32.5686 47.3404 33.6106 43.0595C36.7966 44.7433 40.2953 45.7496 43.9259 46.0197V50C43.9259 51.0788 44.8197 51.9531 45.9225 51.9531C47.0245 51.9531 47.9191 51.0788 47.9191 50V46.0197C51.5504 45.7496 55.0491 44.7433 58.2336 43.0595C59.2755 47.3388 59.8987 51.3443 59.8987 53.9062C59.8987 70.6306 54.3839 84.3285 47.9191 86.7378ZM49.9157 20.7031C49.9157 22.8805 48.0907 24.6093 45.9225 24.6093C43.7496 24.6093 41.9293 22.8759 41.9293 20.7031C41.9293 18.5493 43.72 16.7968 45.9225 16.7968C48.1242 16.7968 49.9157 18.5493 49.9157 20.7031Z" fill="#FF007C"/>
</svg>
