<svg width="85" height="100" viewBox="0 0 85 100" fill="none" xmlns="http://www.w3.org/2000/svg">
<path d="M65.4752 40.1598C65.6542 40.2094 65.8394 40.2346 66.0254 40.2346H82.0314C83.1357 40.2346 84.0321 39.3602 84.0321 38.2814C84.0321 37.2034 83.1357 36.3283 82.0314 36.3283H66.3052L54.0639 32.9149L62.9641 28.2869C63.6167 27.9482 64.0239 27.2852 64.0239 26.5634V7.06726L70.921 3.70116C71.9096 3.21822 72.3098 2.04558 71.8158 1.08046C71.3219 0.116108 70.1199 -0.27528 69.1312 0.206898L61.1283 4.11315C60.4507 4.44427 60.0224 5.12023 60.0224 5.86029V25.3908L50.2969 30.4468C50.1023 29.4695 49.8936 28.5364 49.6709 27.6514C52.2906 26.3368 54.0201 23.7085 54.0201 20.7041C54.0201 17.1129 51.5247 14.0817 48.1375 13.1715C48.6853 9.29733 51.0534 5.58486 54.0709 4.11315L54.915 3.70116C55.9037 3.21822 56.3038 2.04482 55.8099 1.08046C55.3152 0.116108 54.1139 -0.27528 53.1253 0.206898L52.2812 0.618886C47.5326 2.93594 44.7651 8.21396 44.1485 12.8915H39.8828C39.2662 8.21396 36.4995 2.93594 31.7501 0.618886L30.9061 0.206898C29.9182 -0.27528 28.7162 0.115345 28.2215 1.08046C27.7275 2.04482 28.1285 3.21822 29.1163 3.70116L29.9612 4.11315C32.9779 5.58486 35.3452 9.29657 35.8931 13.17C32.5395 14.0649 30.0112 17.0679 30.0112 20.7041C30.0112 23.6688 31.7532 26.3368 34.3605 27.6522C34.1377 28.5364 33.9291 29.4702 33.7345 30.4468L24.009 25.3908V5.86029C24.009 5.12023 23.5807 4.44427 22.9031 4.11315L14.9001 0.206898C13.9114 -0.276043 12.7102 0.115345 12.2155 1.08046C11.7216 2.04558 12.1225 3.21822 13.1104 3.70116L20.0075 7.06726V26.5634C20.0075 27.2844 20.4154 27.9474 21.0672 28.2869L29.9682 32.9149L17.7261 36.3283H2.00075C0.895646 36.3283 0 37.2034 0 38.2814C0 39.3602 0.895646 40.2346 2.00075 40.2346H18.0067C18.1919 40.2346 18.3772 40.2094 18.5561 40.1598L32.82 36.1818C32.8185 36.194 32.8169 36.2055 32.8154 36.2177C21.0149 40.6275 8.4977 59.9459 6.76971 74.0893C5.98661 80.4934 7.49107 85.1107 11.0049 87.0898C16.3647 90.111 23.4259 85.6516 28.0112 81.3929V85.7371L20.3443 96.9638C19.7316 97.861 19.9801 99.0733 20.8992 99.6714C21.8144 100.267 23.0586 100.032 23.6737 99.1305L31.6767 87.4118C31.8955 87.0906 32.0127 86.7137 32.0127 86.3284V77.1891C32.9435 76.0958 33.8501 74.9453 34.7278 73.7414C36.5003 80.0234 38.9434 83.2034 42.0164 83.2034C45.0895 83.2034 47.5326 80.0234 49.3051 73.7414C50.1828 74.9453 51.0894 76.0958 52.0202 77.1891V86.3284C52.0202 86.7137 52.1366 87.0906 52.3562 87.4118L60.3592 99.1305C60.9735 100.03 62.2169 100.269 63.1337 99.6714C64.0528 99.0733 64.3013 97.861 63.6886 96.9638L56.0217 85.7371V81.3922C60.5945 85.6402 67.6659 90.1126 73.0272 87.0898C76.541 85.1107 78.0455 80.4934 77.2632 74.0893C75.5461 60.0382 63.0766 40.6496 51.216 36.2177C51.2144 36.2055 51.2128 36.194 51.2113 36.1818L65.4752 40.1598ZM42.0164 37.0302C40.5784 35.8683 38.8473 35.3464 36.9622 35.3723C37.3045 32.918 37.7367 30.5979 38.2635 28.5158H45.7694C46.279 30.5307 46.7159 32.8249 47.0707 35.3716C45.2153 35.3472 43.4779 35.8499 42.0164 37.0302ZM38.015 16.7978H46.0179C48.2242 16.7978 50.0194 18.5495 50.0194 20.7041C50.0194 22.8754 48.2117 24.6103 46.0179 24.6103H38.015C35.7633 24.6103 34.0135 22.8075 34.0135 20.7041C34.0135 18.5465 35.8048 16.7978 38.015 16.7978ZM13.0056 83.7069C10.9947 82.5747 10.1702 79.2376 10.7431 74.5516C12.5179 60.026 25.8675 42.116 35.2006 39.5548C35.2045 39.5533 35.2084 39.5533 35.2123 39.5517C37.056 39.049 38.8426 39.126 40.0157 40.5916V54.6824C34.7895 71.953 19.1079 87.1462 13.0056 83.7069ZM42.0164 79.2971C41.6452 79.2971 39.4577 77.5187 37.7453 69.2126C39.4514 66.3981 40.8699 63.5928 42.0164 60.8584C43.163 63.5928 44.5807 66.3981 46.2876 69.2126C44.5752 77.5187 42.3877 79.2971 42.0164 79.2971ZM73.2898 74.5516C73.8627 79.2376 73.0382 82.5747 71.0273 83.7069C64.9828 87.1127 49.3012 72.1499 44.0172 54.677V40.5924C45.1887 39.1283 46.9691 39.0474 48.8174 39.551C48.8221 39.5525 48.8276 39.5533 48.833 39.5548C58.1803 42.1221 71.5173 60.0458 73.2898 74.5516Z" fill="#494949"/>
</svg>
