<svg width="68" height="70" viewBox="0 0 68 70" fill="none" xmlns="http://www.w3.org/2000/svg">
<path d="M63.1673 39.0685C60.1851 35.8694 55.9511 34.788 51.8191 34.0964C48.2735 33.502 44.4571 30.9753 44.4571 26.8316C44.4571 22.832 47.7021 19.578 51.691 19.578C52.0733 19.578 52.4552 19.6074 52.8248 19.6661C53.5399 19.7804 54.2176 19.3163 54.373 18.6103C54.5279 17.9037 54.1054 17.1988 53.4096 17.0028C51.9687 16.5958 50.4717 16.3897 48.9593 16.3897C41.4408 16.3897 35.0898 21.4899 33.1666 28.4188C33.1549 28.4557 33.1447 28.4925 33.1367 28.5299C32.7672 29.8971 32.569 31.3342 32.569 32.8168C32.569 36.208 33.6323 39.5139 35.5523 42.2584C35.3888 42.253 35.2254 42.2482 35.0615 42.2482C33.7755 42.2472 32.5199 42.0303 31.3263 41.6036C27.2792 40.1606 24.4535 36.5557 23.9958 32.3233L27.0357 30.6506C29.9591 29.0437 31.3658 25.6796 30.4563 22.4694L27.9991 13.8006V1.36559C27.9991 0.611496 27.3876 0 26.6335 0C23.1696 0 20.235 2.30606 19.2822 5.46341H11.438C10.4895 2.30713 7.55857 0 4.09735 0C3.34272 0 2.73123 0.611496 2.73123 1.36559V13.7739L0.274027 22.4699C-0.634939 25.6796 0.771235 29.0442 3.69413 30.6506L8.88197 33.5041C6.75054 35.5127 5.27548 38.1766 4.73982 41.0632C4.73928 41.0637 4.73928 41.0642 4.73928 41.0648C4.69976 41.2752 4.66558 41.4867 4.63621 41.6998C4.54862 42.331 4.5043 42.9724 4.5043 43.6149C4.5043 45.2635 4.80017 46.8822 5.35826 48.3995C6.04132 50.2554 7.11691 51.9601 8.52949 53.3849V59.0257C6.49046 59.3199 4.6079 60.2721 3.12536 61.7793C1.32559 63.6127 0.334375 66.0469 0.334375 68.6339C0.334375 69.3885 0.945871 70 1.69996 70H16.1558H35.0599C39.554 70 43.5551 67.8515 46.0924 64.5286C47.8762 65.2122 49.7539 65.5593 51.691 65.5593C60.3523 65.5593 67.3992 58.4969 67.3992 49.8158C67.3992 45.8099 65.8958 41.993 63.1673 39.0685ZM44.5789 19.844C42.8149 21.6459 41.7254 24.1138 41.7254 26.8316C41.7254 27.2503 41.7564 27.662 41.813 28.0674C41.2533 28.2004 40.2653 28.3408 38.8757 28.3408C37.634 28.3408 36.7149 28.2287 36.1339 28.1096C37.5528 24.2345 40.6707 21.1743 44.5789 19.844ZM25.7197 28.2575L21.9461 30.3334C21.945 30.3334 21.9445 30.3339 21.9434 30.3345L19.4558 31.7033V21.185L25.8666 16.2936L27.8282 23.2144C28.3884 25.1931 27.5216 27.2668 25.7197 28.2575ZM11.7413 8.19511H18.9746C19.1674 11.0838 20.965 13.5394 23.482 14.677L19.4558 17.7489V15.0241C19.4558 14.27 18.8443 13.6585 18.0902 13.6585C17.3356 13.6585 16.7241 14.27 16.7241 15.0241V29.5969C16.2968 29.4469 15.837 29.3652 15.3585 29.3652C14.88 29.3652 14.4201 29.4469 13.9924 29.5975V15.0241C13.9924 14.27 13.3809 13.6585 12.6268 13.6585C11.8722 13.6585 11.2607 14.27 11.2607 15.0241V17.7323L7.24134 14.6519C9.75035 13.5181 11.5432 11.0732 11.7413 8.19511ZM15.3585 32.0969C16.0303 32.0969 16.5895 32.5764 16.7043 33.2168L15.3654 33.9527L14.0137 33.2093C14.1323 32.5727 14.6898 32.0969 15.3585 32.0969ZM25.2674 2.92343V12.4329C23.2022 11.8385 21.6865 9.93187 21.6865 7.67815C21.6865 5.42442 23.2022 3.51784 25.2674 2.92343ZM5.46293 2.92397C7.52065 3.51784 9.0299 5.41801 9.0299 7.66426C9.0299 9.91104 7.52065 11.8112 5.46293 12.4051V2.92397ZM2.90266 23.2133L4.86425 16.2717L11.2607 21.1738V31.6953L5.01058 28.2575C3.20867 27.2668 2.3419 25.1931 2.90266 23.2133ZM19.4558 57.7573C20.4635 58.043 21.3095 58.5306 22.016 59.2419C21.1156 59.478 20.2547 59.8449 19.4558 60.3336V57.7573ZM17.5497 54.7356C15.1112 54.554 12.787 53.566 10.9509 51.92C10.5082 51.5243 10.1007 51.096 9.73112 50.6404C8.12948 48.6676 7.236 46.1869 7.236 43.6149C7.236 43.6117 7.236 43.6079 7.236 43.6047C7.236 43.4541 7.24027 43.3041 7.24615 43.154C7.24829 43.1091 7.25042 43.0648 7.25309 43.0199C7.2595 42.8998 7.26751 42.7796 7.27766 42.6595C7.28086 42.6231 7.28353 42.5863 7.28674 42.55C7.30009 42.4095 7.31664 42.2701 7.33534 42.1313C8.60105 41.3729 10.0414 40.975 11.5341 40.975C16.0528 40.975 19.7292 44.651 19.7292 49.1696C19.7292 51.2626 18.9591 53.2183 17.5497 54.7356ZM5.0736 63.6938C6.36389 62.3822 8.07607 61.6602 9.89507 61.6602C10.6492 61.6602 11.2607 61.0481 11.2607 60.294V55.5238C12.9285 56.5231 14.7897 57.1639 16.7241 57.3968V62.8185C15.7419 64.1264 15.1134 65.649 14.8864 67.2683H3.19586C3.45648 65.9225 4.10108 64.6851 5.0736 63.6938ZM19.5637 63.7024C20.5773 62.6893 21.8377 62.0281 23.1974 61.776C23.5328 63.9128 24.5672 65.8189 26.0567 67.2555L17.6549 67.2662C17.9204 65.9251 18.5756 64.6915 19.5637 63.7024ZM51.691 62.8281C50.2661 62.8281 48.8813 62.6012 47.5557 62.1536C48.4396 60.3293 48.9358 58.2838 48.9358 56.1241C48.9358 55.9596 48.9325 55.7957 48.9272 55.6322C48.9005 54.8782 48.2671 54.2891 47.5146 54.3147C46.7605 54.3409 46.1709 54.9732 46.1971 55.7273C46.2014 55.8592 46.204 55.9911 46.204 56.1241C46.204 62.269 41.2047 67.2683 35.0732 67.2683L32.8366 67.2464C32.8361 67.2464 32.8361 67.2464 32.8355 67.2464C32.835 67.2464 32.8345 67.2464 32.8339 67.2464H32.7912C28.9422 67.2464 25.8111 64.1147 25.8111 60.2657C25.8111 56.4168 28.9422 53.2856 32.7912 53.2856C33.5458 53.2856 34.1573 52.6741 34.1573 51.9195C34.1573 51.1654 33.5458 50.5539 32.7912 50.5539C28.5743 50.5539 24.9779 53.2568 23.639 57.0203C22.7664 56.2272 21.7533 55.6365 20.6035 55.2531C21.7987 53.4661 22.4604 51.3448 22.4604 49.1702C22.4604 43.1449 17.5588 38.2433 11.5341 38.2433C10.4537 38.2433 9.39466 38.4014 8.38102 38.7064C9.10414 37.2404 10.1466 35.9351 11.4321 34.9065L11.9672 35.2013C11.9678 35.2013 11.9678 35.2013 11.9683 35.2019L14.7069 36.7085C14.9115 36.8211 15.1385 36.8772 15.3649 36.8772C15.5919 36.8772 15.8183 36.8211 16.0229 36.7085L18.7481 35.2099L21.4457 33.7263C22.3568 38.5125 25.7256 42.5072 30.4077 44.1762C31.8945 44.7081 33.4593 44.9789 35.0695 44.9805C36.3502 44.9815 37.5945 45.1968 38.7694 45.6112C38.8143 45.6299 38.8597 45.6464 38.9062 45.6603C39.9502 46.0443 40.9377 46.5858 41.8419 47.2807C42.0902 47.4713 42.3829 47.5637 42.6734 47.5637C43.083 47.5637 43.4884 47.3795 43.7575 47.0296C44.2168 46.4315 44.1047 45.5743 43.5065 45.1145C42.4229 44.2825 41.2448 43.6256 39.9988 43.1508C39.86 43.0301 39.7297 42.9121 39.6042 42.793C36.8292 40.1782 35.3007 36.6353 35.3007 32.8168C35.3007 32.1177 35.3552 31.4314 35.4567 30.7607C35.8524 30.8482 36.3208 30.923 36.8794 30.9785C37.5112 31.0416 38.1937 31.0731 38.8746 31.0731C39.6656 31.0731 40.4549 31.0309 41.162 30.947C41.7094 30.8819 42.1842 30.7954 42.596 30.6859C44.0614 33.7765 47.2679 36.1034 51.3684 36.7902C55.0245 37.4027 58.7427 38.3288 61.1694 40.9318C63.4253 43.3489 64.6675 46.5047 64.6675 49.8158C64.6675 56.9909 58.8463 62.8281 51.691 62.8281Z" fill="#494949"/>
</svg>
