<svg width="81" height="100" viewBox="0 0 81 100" fill="none" xmlns="http://www.w3.org/2000/svg">
<path d="M24.6242 48.6198L9.18616 63.6725H2.00312C0.89749 63.6725 0 64.5469 0 65.6257C0 66.7044 0.89749 67.5788 2.00312 67.5788H10.0156C10.5469 67.5788 11.0563 67.3728 11.4318 67.0066L26.8699 51.9516H32.1281C32.0772 52.5947 32.0499 53.2486 32.0499 53.907C32.0499 54.3678 32.0639 54.8278 32.089 55.2825L20.7831 64.0998C20.3081 64.4706 20.0312 65.0321 20.0312 65.6249V81.7709L8.41308 96.8748C7.74955 97.7376 7.92874 98.9621 8.81371 99.6091C9.6932 100.253 10.9506 100.087 11.6181 99.2185L23.6368 83.5936C23.8965 83.2556 24.0374 82.8444 24.0374 82.4217V66.5641L32.7697 59.7541C33.2901 61.7568 34.0702 63.4521 35.0436 64.7468C30.9168 66.6045 28.0436 70.6755 28.0436 75.3905C28.0436 81.8525 33.4356 87.1092 40.0623 87.1092C46.689 87.1092 52.081 81.8525 52.081 75.3905C52.081 70.6755 49.2086 66.6045 45.0811 64.7468C46.0552 63.4513 46.8346 61.7568 47.3557 59.7541L56.0872 66.5641V82.4217C56.0872 82.8444 56.2281 83.2556 56.4879 83.5936L68.5066 99.2185C69.167 100.078 70.4212 100.259 71.3109 99.6091C72.1959 98.9621 72.3751 97.7376 71.7115 96.8748L60.0935 81.7709V65.6249C60.0935 65.0321 59.8165 64.4706 59.3415 64.0998L48.0356 55.2825C48.0607 54.8271 48.0748 54.3678 48.0748 53.9062C48.0748 53.2486 48.0474 52.5962 47.9965 51.9531H53.2547L68.6928 67.0066C69.0684 67.3728 69.5778 67.578 70.109 67.578H78.1215C79.2271 67.578 80.1246 66.7037 80.1246 65.6249C80.1246 64.5469 79.2271 63.6718 78.1215 63.6718H70.9385L55.5004 48.6191C55.1248 48.2528 54.6154 48.0476 54.0841 48.0476H49.6953L59.0684 36.3289H66.1028C67.2084 36.3289 68.1059 35.4538 68.1059 34.3758C68.1059 33.297 67.2084 32.4227 66.1028 32.4227H58.0904C57.473 32.4227 56.89 32.6996 56.5105 33.1742L46.5263 45.6566C46.0255 44.4923 45.4191 43.4891 44.7313 42.6712C46.754 41.2521 48.0748 38.9382 48.0748 36.3282C48.0748 34.8793 47.6663 33.5221 46.959 32.3578C49.8533 31.9382 52.081 29.4999 52.081 26.5626V23.8503C52.081 15.6862 56.2406 8.10793 63.2077 3.57838C64.1279 2.98023 64.3767 1.76793 63.7632 0.869953C63.1498 -0.0272595 61.9057 -0.269873 60.9855 0.328269C52.901 5.58413 48.0748 14.377 48.0748 23.8496V26.5626C48.0748 27.6398 47.1765 28.5157 46.0717 28.5157H34.053C32.9481 28.5157 32.0499 27.6398 32.0499 26.5626V23.8496C32.0499 14.377 27.2236 5.58413 19.1391 0.328269C18.2197 -0.269873 16.9756 -0.0280223 16.3614 0.869953C15.7479 1.76793 15.9968 2.98023 16.9169 3.57838C23.884 8.10793 28.0436 15.6862 28.0436 23.8503V26.5626C28.0436 29.4999 30.2713 31.9382 33.1656 32.3578C32.4583 33.5221 32.0499 34.8793 32.0499 36.3282C32.0499 38.9382 33.3707 41.2521 35.3933 42.6712C34.7055 43.4891 34.0991 44.4923 33.5983 45.6573L23.6141 33.1742C23.2346 32.6996 22.6516 32.4227 22.0343 32.4227H14.0218C12.9154 32.4227 12.0187 33.297 12.0187 34.3758C12.0187 35.4538 12.9154 36.3289 14.0218 36.3289H21.0562L30.4301 48.0476H26.0405C25.5092 48.0476 24.9998 48.2536 24.6242 48.6198ZM48.0748 75.3912C48.0748 79.6988 44.4801 83.2037 40.0623 83.2037C35.6445 83.2037 32.0499 79.6988 32.0499 75.3912C32.0499 71.0829 35.6445 67.5788 40.0623 67.5788C44.4801 67.5788 48.0748 71.0829 48.0748 75.3912ZM36.0561 36.3289C36.0561 34.1752 37.8534 32.4227 40.0623 32.4227C42.2712 32.4227 44.0685 34.1752 44.0685 36.3289C44.0685 38.4827 42.2712 40.2352 40.0623 40.2352C37.8534 40.2352 36.0561 38.4827 36.0561 36.3289ZM44.0685 53.907C44.0685 59.3734 41.8925 63.6725 40.0623 63.6725C38.2454 63.6725 36.0561 59.4497 36.0561 53.907C36.0561 48.2597 38.3268 44.1414 40.0623 44.1414C41.8941 44.1414 44.0685 48.4588 44.0685 53.907Z" fill="#494949"/>
</svg>
