<svg width="53" height="61" viewBox="0 0 53 61" fill="none" xmlns="http://www.w3.org/2000/svg">
<path d="M27 25.3C26.6 25.5 26.2 25.5 25.9 25.3C22 23.1 17.3 23.7 14 26.6C10.8 29.5 9.60001 34.3 11.1 38.6C12.7 42.7 14.6 47.1 16.9 51.6C18.1 54 19.3 56.2 20.4 58.4C20.9 59.3 22.2 59.2 22.5 58.2C23.5 55.4 24.4 52.6 25.4 49.8C25.8 48.7 27.2 48.7 27.6 49.8C28.6 52.7 29.6 55.5 30.5 58.4C30.8 59.3 32 59.5 32.5 58.7C34 56.3 35.5 53.7 37 50.7C39.1 46.4 40.7 42.3 41.8 38.7C43.3 34.4 42.1 29.6 38.9 26.7C35.7 23.7 30.9 23.1 27 25.3Z" stroke="black" stroke-width="2" stroke-miterlimit="10"/>
<path d="M8.60001 24.6C9.10001 23.5 8.20001 22.4 7.10001 22.5C6.20001 22.6 5.10001 23 4.00001 23.7C2.50001 24.7 1.60001 26 1.20001 26.9C1.00001 27.4 0.900014 27.9 1.10001 28.5C1.20001 28.7 1.30001 29 1.40001 29.2C1.60001 29.7 1.90001 30.1 2.20001 30.3C2.70001 30.8 3.60001 30.8 4.10001 30.4C4.70001 29.9 5.30001 29.3 6.00001 28.6C7.20001 27.2 8.10001 25.8 8.60001 24.6Z" stroke="black" stroke-width="2" stroke-miterlimit="10"/>
<path d="M26 20.6C31.799 20.6 36.5 16.5706 36.5 11.6C36.5 6.62944 31.799 2.6 26 2.6C20.201 2.6 15.5 6.62944 15.5 11.6C15.5 16.5706 20.201 20.6 26 20.6Z" stroke="black" stroke-width="2" stroke-miterlimit="10"/>
<path d="M26 17.7C28.4853 17.7 30.5 15.9539 30.5 13.8C30.5 11.6461 28.4853 9.9 26 9.9C23.5147 9.9 21.5 11.6461 21.5 13.8C21.5 15.9539 23.5147 17.7 26 17.7Z" stroke="black" stroke-miterlimit="10"/>
<path d="M26.1 14.1C26.7627 14.1 27.3 13.6523 27.3 13.1C27.3 12.5477 26.7627 12.1 26.1 12.1C25.4373 12.1 24.9 12.5477 24.9 13.1C24.9 13.6523 25.4373 14.1 26.1 14.1Z" stroke="black" stroke-miterlimit="10"/>
<path d="M16.3 9.6C14.8 7.8 13.7 3.6 15.2 1.8C16.7 -7.15256e-07 20.4 1.4 22 3.1" stroke="black" stroke-width="2" stroke-miterlimit="10"/>
<path d="M36.1 9.6C37.6 7.8 38.7 3.6 37.2 1.8C35.6 -7.15256e-07 32 1.4 30.4 3.1" stroke="black" stroke-width="2" stroke-miterlimit="10"/>
<path d="M44.1 24.6C43.6 23.5 44.5 22.4 45.6 22.5C46.5 22.6 47.7 23 48.8 23.7C50.3 24.7 51.2 26 51.6 26.9C51.8 27.4 51.9 27.9 51.7 28.5C51.6 28.7 51.5 29 51.4 29.2C51.2 29.7 50.9 30.1 50.6 30.3C50.1 30.8 49.2 30.8 48.7 30.4C48.1 29.9 47.5 29.3 46.8 28.6C45.6 27.2 44.7 25.8 44.1 24.6Z" stroke="black" stroke-width="2" stroke-miterlimit="10"/>
</svg>
