<svg width="56" height="66" viewBox="0 0 56 66" fill="none" xmlns="http://www.w3.org/2000/svg">
<path d="M26.2 63H8.99998C4.89998 63 1.59998 59.7 1.59998 55.6C1.59998 51.5 4.89998 48.2 8.99998 48.2H26.2" stroke="black" stroke-width="2" stroke-miterlimit="10"/>
<path d="M25.6 58.7H8.9C7.3 58.7 6 57.3 6 55.6C6 53.9 7.3 52.5 8.9 52.5H25.6" stroke="black" stroke-width="2" stroke-miterlimit="10"/>
<path d="M26.6 64V41C26.6 40.4 27.1 40 27.7 40H53.5C54.1 40 54.6 40.4 54.6 41V64C54.6 64.6 54.1 65 53.5 65H52.4C51.8 65 51.3 64.6 51.3 64V54C51.3 53.4 50.8 53 50.2 53H31.2C30.6 53 30.1 53.4 30.1 54V64C30.1 64.6 29.6 65 29 65H27.9C27.1 65 26.6 64.6 26.6 64Z" stroke="black" stroke-width="2" stroke-miterlimit="10"/>
<path d="M36.6 57V60" stroke="black" stroke-width="2" stroke-miterlimit="10" stroke-linecap="round"/>
<path d="M40.6 57V60" stroke="black" stroke-width="2" stroke-miterlimit="10" stroke-linecap="round"/>
<path d="M44.6 57V60" stroke="black" stroke-width="2" stroke-miterlimit="10" stroke-linecap="round"/>
<path d="M30.6 63H51.6" stroke="black" stroke-width="2" stroke-miterlimit="10"/>
<path d="M28.1 11.1H26.6C26 11.1 25.6 10.7 25.6 10.1V2C25.6 1.4 26 1 26.6 1H28.1C29.5 1 30.6 2.1 30.6 3.5V8.6C30.6 10 29.5 11.1 28.1 11.1Z" stroke="black" stroke-width="2" stroke-miterlimit="10"/>
<path d="M24.6 9.9H22.6" stroke="black" stroke-miterlimit="10" stroke-linecap="round"/>
<path d="M28.1 35C27.5 35 27.1 34.6 27.1 34V11.8H29.1V34C29.1 34.6 28.7 35 28.1 35Z" stroke="black" stroke-miterlimit="10"/>
<path d="M24.6 7.3H22.6" stroke="black" stroke-miterlimit="10" stroke-linecap="round"/>
<path d="M24.6 4.8H22.6" stroke="black" stroke-miterlimit="10" stroke-linecap="round"/>
<path d="M24.6 2.3H22.6" stroke="black" stroke-miterlimit="10" stroke-linecap="round"/>
<path d="M40.1 11.1H38.6C38 11.1 37.6 10.7 37.6 10.1V2C37.6 1.4 38 1 38.6 1H40.1C41.5 1 42.6 2.1 42.6 3.5V8.6C42.6 10 41.5 11.1 40.1 11.1Z" stroke="black" stroke-width="2" stroke-miterlimit="10"/>
<path d="M36.6 9.9H34.6" stroke="black" stroke-miterlimit="10" stroke-linecap="round"/>
<path d="M40.1 35C39.5 35 39.1 34.6 39.1 34V11.8H41.1V34C41.1 34.6 40.7 35 40.1 35Z" stroke="black" stroke-miterlimit="10"/>
<path d="M36.6 7.3H34.6" stroke="black" stroke-miterlimit="10" stroke-linecap="round"/>
<path d="M36.6 4.8H34.6" stroke="black" stroke-miterlimit="10" stroke-linecap="round"/>
<path d="M36.6 2.3H34.6" stroke="black" stroke-miterlimit="10" stroke-linecap="round"/>
<path d="M52.1 11.1H50.6C50 11.1 49.6 10.7 49.6 10.1V2C49.6 1.4 50 1 50.6 1H52.1C53.5 1 54.6 2.1 54.6 3.5V8.6C54.6 10 53.5 11.1 52.1 11.1Z" stroke="black" stroke-width="2" stroke-miterlimit="10"/>
<path d="M48.6 9.9H46.6" stroke="black" stroke-miterlimit="10" stroke-linecap="round"/>
<path d="M52.1 35C51.5 35 51.1 34.6 51.1 34V11.8H53.1V34C53.1 34.6 52.7 35 52.1 35Z" stroke="black" stroke-miterlimit="10"/>
<path d="M48.6 7.3H46.6" stroke="black" stroke-miterlimit="10" stroke-linecap="round"/>
<path d="M48.6 4.8H46.6" stroke="black" stroke-miterlimit="10" stroke-linecap="round"/>
<path d="M48.6 2.3H46.6" stroke="black" stroke-miterlimit="10" stroke-linecap="round"/>
<path d="M14.8 7.5H13.4V19.4H14.8V7.5Z" stroke="black" stroke-miterlimit="10"/>
<path d="M16.7 19.4H11.5C11.2 19.4 10.9 19.6 10.8 19.9L9.59998 24.3C9.59998 24.4 9.59998 24.4 9.59998 24.5V42C9.59998 42.2 9.69998 42.4 9.79998 42.5L11.5 44.2C11.6 44.3 11.8 44.4 12 44.4H16.3C16.5 44.4 16.7 44.3 16.8 44.2L18.5 42.5C18.6 42.4 18.7 42.2 18.7 42V24.5C18.7 24.4 18.7 24.4 18.7 24.3L17.5 19.9C17.3 19.6 17 19.4 16.7 19.4Z" stroke="black" stroke-width="2" stroke-miterlimit="10"/>
<path d="M14.1 25.1C14.4866 25.1 14.8 24.7866 14.8 24.4C14.8 24.0134 14.4866 23.7 14.1 23.7C13.7134 23.7 13.4 24.0134 13.4 24.4C13.4 24.7866 13.7134 25.1 14.1 25.1Z" stroke="black" stroke-miterlimit="10"/>
<path d="M14.1 28C14.4866 28 14.8 27.6866 14.8 27.3C14.8 26.9134 14.4866 26.6 14.1 26.6C13.7134 26.6 13.4 26.9134 13.4 27.3C13.4 27.6866 13.7134 28 14.1 28Z" stroke="black" stroke-miterlimit="10"/>
<path d="M14.1 30.9C14.4866 30.9 14.8 30.5866 14.8 30.2C14.8 29.8134 14.4866 29.5 14.1 29.5C13.7134 29.5 13.4 29.8134 13.4 30.2C13.4 30.5866 13.7134 30.9 14.1 30.9Z" stroke="black" stroke-miterlimit="10"/>
<path d="M14.1 33V40.9" stroke="black" stroke-miterlimit="10" stroke-linecap="round"/>
<path d="M14.1 7.4C15.8121 7.4 17.2 5.96731 17.2 4.2C17.2 2.43269 15.8121 1 14.1 1C12.3879 1 11 2.43269 11 4.2C11 5.96731 12.3879 7.4 14.1 7.4Z" stroke="black" stroke-width="2" stroke-miterlimit="10"/>
</svg>
