<svg width="22" height="18" viewBox="0 0 22 18" fill="none" xmlns="http://www.w3.org/2000/svg">
<path d="M2 8H11V9.5H2V8Z" fill="black"/>
<path d="M0.5 4.25H8V5.75H0.5V4.25Z" fill="black"/>
<path d="M21.4393 8.4545L19.1893 3.2045C19.1315 3.06956 19.0354 2.95455 18.9129 2.87375C18.7903 2.79295 18.6468 2.74992 18.5 2.75H16.25V1.25C16.25 1.05109 16.171 0.860322 16.0303 0.71967C15.8897 0.579018 15.6989 0.5 15.5 0.5H3.50001V2H14.75V11.417C14.4083 11.6154 14.1092 11.8796 13.87 12.1942C13.6308 12.5088 13.4563 12.8676 13.3565 13.25H8.64351C8.46096 12.543 8.02683 11.9269 7.4225 11.517C6.81817 11.1072 6.08512 10.9319 5.36076 11.0239C4.6364 11.1159 3.97046 11.4689 3.48777 12.0168C3.00507 12.5647 2.73877 13.2698 2.73877 14C2.73877 14.7302 3.00507 15.4353 3.48777 15.9832C3.97046 16.5311 4.6364 16.8841 5.36076 16.9761C6.08512 17.0681 6.81817 16.8928 7.4225 16.483C8.02683 16.0731 8.46096 15.457 8.64351 14.75H13.3565C13.5197 15.3937 13.8928 15.9646 14.4168 16.3724C14.9409 16.7802 15.586 17.0016 16.25 17.0016C16.914 17.0016 17.5591 16.7802 18.0832 16.3724C18.6072 15.9646 18.9804 15.3937 19.1435 14.75H20.75C20.9489 14.75 21.1397 14.671 21.2803 14.5303C21.421 14.3897 21.5 14.1989 21.5 14V8.75C21.5 8.6484 21.4794 8.54785 21.4393 8.4545ZM5.75001 15.5C5.45334 15.5 5.16333 15.412 4.91665 15.2472C4.66998 15.0824 4.47772 14.8481 4.36419 14.574C4.25066 14.2999 4.22095 13.9983 4.27883 13.7074C4.33671 13.4164 4.47957 13.1491 4.68935 12.9393C4.89913 12.7296 5.1664 12.5867 5.45737 12.5288C5.74834 12.4709 6.04994 12.5006 6.32403 12.6142C6.59812 12.7277 6.83239 12.92 6.99721 13.1666C7.16203 13.4133 7.25001 13.7033 7.25001 14C7.24961 14.3977 7.09145 14.779 6.81023 15.0602C6.52901 15.3414 6.14771 15.4996 5.75001 15.5ZM16.25 4.25H18.005L19.613 8H16.25V4.25ZM16.25 15.5C15.9533 15.5 15.6633 15.412 15.4167 15.2472C15.17 15.0824 14.9777 14.8481 14.8642 14.574C14.7507 14.2999 14.721 13.9983 14.7788 13.7074C14.8367 13.4164 14.9796 13.1491 15.1893 12.9393C15.3991 12.7296 15.6664 12.5867 15.9574 12.5288C16.2483 12.4709 16.5499 12.5006 16.824 12.6142C17.0981 12.7277 17.3324 12.92 17.4972 13.1666C17.662 13.4133 17.75 13.7033 17.75 14C17.7496 14.3977 17.5914 14.779 17.3102 15.0602C17.029 15.3414 16.6477 15.4996 16.25 15.5ZM20 13.25H19.1435C18.9783 12.6076 18.6046 12.0381 18.0809 11.6309C17.5573 11.2238 16.9133 11.0018 16.25 11V9.5H20V13.25Z" fill="black"/>
</svg>
