<svg width="20" height="22" viewBox="0 0 20 22" fill="none" xmlns="http://www.w3.org/2000/svg">
<path d="M17.6069 0H4.12303C2.94905 0 1.994 0.955093 1.994 2.12903V4.0374C1.0362 4.06108 0.26416 4.84705 0.26416 5.81048V6.43145C0.26416 7.39488 1.0362 8.18081 1.994 8.20454V13.7955C1.0362 13.8192 0.26416 14.6052 0.26416 15.5686V16.1896C0.26416 17.153 1.0362 17.9389 1.994 17.9626V19.871C1.994 21.0449 2.94905 22 4.12303 22H17.6069C18.7809 22 19.7359 21.0449 19.7359 19.871V2.12903C19.7359 0.955093 18.7809 0 17.6069 0V0ZM1.68352 6.43145V5.81048C1.68352 5.61483 1.8427 5.45565 2.03835 5.45565H3.369C3.56465 5.45565 3.72384 5.61483 3.72384 5.81048V6.43145C3.72384 6.6271 3.56465 6.78629 3.369 6.78629H2.03835C1.8427 6.78629 1.68352 6.6271 1.68352 6.43145ZM1.68352 16.1895V15.5685C1.68352 15.3729 1.8427 15.2137 2.03835 15.2137H3.369C3.56465 15.2137 3.72384 15.3729 3.72384 15.5685V16.1895C3.72384 16.3852 3.56465 16.5444 3.369 16.5444H2.03835C1.8427 16.5444 1.68352 16.3852 1.68352 16.1895ZM18.3166 19.871C18.3166 20.2623 17.9982 20.5806 17.6069 20.5806H4.12303C3.73173 20.5806 3.41335 20.2623 3.41335 19.871V17.9626C4.37115 17.9389 5.14319 17.1529 5.14319 16.1895V15.5685C5.14319 14.6051 4.37115 13.8192 3.41335 13.7955V8.20454C4.37115 8.18085 5.14319 7.39488 5.14319 6.43145V5.81048C5.14319 4.84705 4.37115 4.06113 3.41335 4.0374V2.12903C3.41335 1.73773 3.73173 1.41935 4.12303 1.41935H17.6069C17.9982 1.41935 18.3166 1.73773 18.3166 2.12903V19.871ZM11.564 11.2121C13.2832 11.2121 14.6818 9.81346 14.6818 8.09427C14.6818 6.37508 13.2832 4.97644 11.564 4.97644C9.84481 4.97644 8.44616 6.37512 8.44616 8.09427C8.44616 9.81342 9.84481 11.2121 11.564 11.2121ZM11.564 6.39579C12.5006 6.39579 13.2625 7.15772 13.2625 8.09427C13.2625 9.03082 12.5006 9.79275 11.564 9.79275C10.6274 9.79275 9.86552 9.03082 9.86552 8.09427C9.86552 7.15772 10.6274 6.39579 11.564 6.39579ZM16.3871 14.4746V15.8703C16.3871 16.2623 16.0694 16.58 15.6775 16.58C15.2855 16.58 14.9678 16.2623 14.9678 15.8703V14.4746C14.9678 14.2751 14.8501 14.0937 14.6679 14.0123L13.1916 13.3532H9.91333L8.43703 14.0123C8.25486 14.0936 8.13714 14.2751 8.13714 14.4746V15.8703C8.13714 16.2623 7.81943 16.58 7.42747 16.58C7.0355 16.58 6.71779 16.2623 6.71779 15.8703V14.4746C6.71779 13.7158 7.16551 13.0256 7.85833 12.7163C9.61119 11.9336 9.56014 11.9338 9.76208 11.9338C13.6403 11.9338 13.4393 11.9093 13.6322 11.9954L15.2466 12.7162C15.9394 13.0256 16.3871 13.7158 16.3871 14.4746V14.4746Z" fill="black"/>
</svg>
