<svg width="68" height="26" viewBox="0 0 68 26" fill="none" xmlns="http://www.w3.org/2000/svg">
<path d="M28.5 24.3H22.8C19.7 24.3 17.3 21.6 17.7 18.6L19 7C19.4 3.6 22.3 1 25.7 1C29.1 1 32 3.6 32.4 7L33.7 18.5C34 21.6 31.6 24.3 28.5 24.3Z" stroke="black" stroke-width="2" stroke-miterlimit="10"/>
<path d="M44.9 24.3H39.2C36.1 24.3 33.7 21.6 34.1 18.6L35.4 7C35.8 3.6 38.7 1 42.1 1C45.5 1 48.4 3.6 48.8 7L50 18.5C50.4 21.6 48 24.3 44.9 24.3Z" stroke="black" stroke-width="2" stroke-miterlimit="10"/>
<path d="M50.8 16.5L51.5 10.6" stroke="black" stroke-width="2" stroke-miterlimit="10" stroke-linecap="round"/>
<path d="M50.9 19.8C50.7 19.2 50.6 18.5 50.7 17.9L50.8 16.6" stroke="black" stroke-width="2" stroke-miterlimit="10"/>
<path d="M51.8 21.3C51.4 20.9 51.1 20.4 50.9 19.9" stroke="black" stroke-width="2" stroke-miterlimit="10"/>
<path d="M51.8 21.3C52.5 22.1 53.5 22.6 54.7 22.6H59C61.4 22.6 63.2 20.4 63 17.9L62 8.5C61.7 5.7 59.5 3.6 56.8 3.6C54.2 3.6 51.9 5.7 51.6 8.5L51.4 10.6" stroke="black" stroke-width="2" stroke-miterlimit="10" stroke-linecap="round"/>
<path d="M5.20001 16.5L5.80001 10.6" stroke="black" stroke-width="2" stroke-miterlimit="10" stroke-linecap="round"/>
<path d="M5.3 19.8C5 19.2 5 18.6 5 17.9L5.1 16.6" stroke="black" stroke-width="2" stroke-miterlimit="10"/>
<path d="M6.10001 21.3C5.70001 20.9 5.40001 20.4 5.20001 19.9" stroke="black" stroke-width="2" stroke-miterlimit="10"/>
<path d="M6.09999 21.3C6.79999 22 7.79999 22.5 8.99999 22.5H13.4C15.8 22.5 17.6 20.3 17.4 17.8L16.4 8.4C16.1 5.6 13.9 3.5 11.2 3.5C8.49999 3.6 6.29999 5.7 5.99999 8.5L5.79999 10.6" stroke="black" stroke-width="2" stroke-miterlimit="10" stroke-linecap="round"/>
<path d="M27 18.3H24C22.9 18.3 22 17.4 22 16.3V13.3C22 12.2 22.9 11.3 24 11.3H27C28.1 11.3 29 12.2 29 13.3V16.3C29 17.4 28.1 18.3 27 18.3Z" stroke="black" stroke-miterlimit="10" stroke-linecap="round"/>
<path d="M44 18.3H41C39.9 18.3 39 17.4 39 16.3V13.3C39 12.2 39.9 11.3 41 11.3H44C45.1 11.3 46 12.2 46 13.3V16.3C46 17.4 45.1 18.3 44 18.3Z" stroke="black" stroke-miterlimit="10" stroke-linecap="round"/>
<path d="M57.5 17.3H56C54.9 17.3 54 16.4 54 15.3V13.8C54 12.7 54.9 11.8 56 11.8H57.5C58.6 11.8 59.5 12.7 59.5 13.8V15.3C59.5 16.4 58.6 17.3 57.5 17.3Z" stroke="black" stroke-miterlimit="10" stroke-linecap="round"/>
<path d="M11.5 17.3H10C8.9 17.3 8 16.4 8 15.3V13.8C8 12.7 8.9 11.8 10 11.8H11.5C12.6 11.8 13.5 12.7 13.5 13.8V15.3C13.5 16.4 12.6 17.3 11.5 17.3Z" stroke="black" stroke-miterlimit="10" stroke-linecap="round"/>
<path d="M0.5 13.8C10.9 14.4 21.9 14.8 33.5 14.8C45.4 14.8 56.8 14.4 67.5 13.8" stroke="black" stroke-miterlimit="10" stroke-linecap="round"/>
</svg>
