<svg width="56" height="55" viewBox="0 0 56 55" fill="none" xmlns="http://www.w3.org/2000/svg">
<path d="M42.8 30H14.8C8.17257 30 2.79999 35.3726 2.79999 42C2.79999 48.6274 8.17257 54 14.8 54H42.8C49.4274 54 54.8 48.6274 54.8 42C54.8 35.3726 49.4274 30 42.8 30Z" stroke="black" stroke-width="2" stroke-miterlimit="10"/>
<path d="M41.8 35H15.8C11.934 35 8.79999 38.134 8.79999 42C8.79999 45.866 11.934 49 15.8 49H41.8C45.666 49 48.8 45.866 48.8 42C48.8 38.134 45.666 35 41.8 35Z" stroke="black" stroke-width="2" stroke-miterlimit="10"/>
<path d="M26.42 24H9.17999C7.22431 23.9947 5.35025 23.2155 3.96737 21.8326C2.58449 20.4497 1.80527 18.5757 1.79999 16.62V16.62C1.80263 14.6626 2.58069 12.786 3.96385 11.4009C5.34701 10.0159 7.22258 9.23529 9.17999 9.23H26.42" stroke="black" stroke-width="2" stroke-miterlimit="10"/>
<path d="M25.8 19.69H9.10998C8.71598 19.6809 8.32764 19.5943 7.96713 19.4351C7.60662 19.2758 7.28102 19.0472 7.00892 18.7621C6.73682 18.477 6.52357 18.141 6.38133 17.7735C6.2391 17.406 6.17068 17.014 6.17998 16.62V16.62C6.16935 16.2252 6.23678 15.8321 6.37841 15.4634C6.52004 15.0947 6.73308 14.7576 7.00531 14.4715C7.27753 14.1853 7.60359 13.9557 7.96476 13.7959C8.32594 13.636 8.71512 13.5491 9.10998 13.54H25.8" stroke="black" stroke-width="2" stroke-miterlimit="10"/>
<path d="M26.8 25V2C26.818 1.71966 26.9456 1.45767 27.1551 1.27057C27.3647 1.08348 27.6394 0.986293 27.92 1H53.68C53.9606 0.986293 54.2353 1.08348 54.4448 1.27057C54.6544 1.45767 54.7819 1.71966 54.8 2V25C54.7819 25.2803 54.6544 25.5423 54.4448 25.7294C54.2353 25.9165 53.9606 26.0137 53.68 26H52.56C52.2794 26.0137 52.0047 25.9165 51.7951 25.7294C51.5856 25.5423 51.458 25.2803 51.44 25V15C51.4219 14.7197 51.2944 14.4577 51.0848 14.2706C50.8753 14.0835 50.6006 13.9863 50.32 14H31.32C31.0394 13.9863 30.7647 14.0835 30.5551 14.2706C30.3456 14.4577 30.218 14.7197 30.2 15V25C30.1819 25.2803 30.0544 25.5423 29.8448 25.7294C29.6353 25.9165 29.3606 26.0137 29.08 26H27.92C27.6394 26.0137 27.3647 25.9165 27.1551 25.7294C26.9456 25.5423 26.818 25.2803 26.8 25V25Z" stroke="black" stroke-width="2" stroke-miterlimit="10"/>
<path d="M29.8 24H50.8" stroke="black" stroke-width="2" stroke-miterlimit="10"/>
<path d="M36.8 18V21" stroke="black" stroke-width="2" stroke-miterlimit="10" stroke-linecap="round"/>
<path d="M40.8 18V21" stroke="black" stroke-width="2" stroke-miterlimit="10" stroke-linecap="round"/>
<path d="M44.8 18V21" stroke="black" stroke-width="2" stroke-miterlimit="10" stroke-linecap="round"/>
<path d="M21.6476 45H20.9211V40.1836L19.4641 40.7187V40.0625L21.5344 39.2852H21.6476V45ZM26.1398 45H25.4133V40.1836L23.9562 40.7187V40.0625L26.0266 39.2852H26.1398V45ZM28.3078 44.6211C28.3078 44.4961 28.3443 44.3919 28.4172 44.3086C28.4927 44.2253 28.6047 44.1836 28.7531 44.1836C28.9016 44.1836 29.0135 44.2253 29.0891 44.3086C29.1672 44.3919 29.2062 44.4961 29.2062 44.6211C29.2062 44.7409 29.1672 44.8411 29.0891 44.9219C29.0135 45.0026 28.9016 45.043 28.7531 45.043C28.6047 45.043 28.4927 45.0026 28.4172 44.9219C28.3443 44.8411 28.3078 44.7409 28.3078 44.6211ZM28.3117 41.1719C28.3117 41.0469 28.3482 40.9427 28.4211 40.8594C28.4966 40.776 28.6086 40.7344 28.757 40.7344C28.9055 40.7344 29.0174 40.776 29.093 40.8594C29.1711 40.9427 29.2101 41.0469 29.2101 41.1719C29.2101 41.2917 29.1711 41.3919 29.093 41.4727C29.0174 41.5534 28.9055 41.5937 28.757 41.5937C28.6086 41.5937 28.4966 41.5534 28.4211 41.4727C28.3482 41.3919 28.3117 41.2917 28.3117 41.1719ZM32.5695 45H31.843V40.1836L30.3859 40.7187V40.0625L32.4562 39.2852H32.5695V45ZM37.0617 45H36.3351V40.1836L34.8781 40.7187V40.0625L36.9484 39.2852H37.0617V45Z" fill="black"/>
</svg>
