<svg width="11" height="11" viewBox="0 0 11 11" fill="none" xmlns="http://www.w3.org/2000/svg">
<path d="M5.274 10.406C5.154 10.406 5.052 10.37 4.968 10.298C4.896 10.214 4.86 10.112 4.86 9.992V6.248H1.17C1.05 6.248 0.948 6.212 0.864 6.14C0.792 6.056 0.756 5.954 0.756 5.834V5.258C0.756 5.138 0.792 5.042 0.864 4.97C0.948 4.886 1.05 4.844 1.17 4.844H4.86V1.208C4.86 1.088 4.896 0.992 4.968 0.92C5.052 0.836 5.154 0.793999 5.274 0.793999H5.904C6.024 0.793999 6.12 0.836 6.192 0.92C6.276 0.992 6.318 1.088 6.318 1.208V4.844H10.026C10.146 4.844 10.242 4.886 10.314 4.97C10.398 5.042 10.44 5.138 10.44 5.258V5.834C10.44 5.954 10.398 6.056 10.314 6.14C10.242 6.212 10.146 6.248 10.026 6.248H6.318V9.992C6.318 10.112 6.276 10.214 6.192 10.298C6.12 10.37 6.024 10.406 5.904 10.406H5.274Z" fill="#535353"/>
</svg>
