<svg width="23" height="23" viewBox="0 0 23 23" fill="none" xmlns="http://www.w3.org/2000/svg">
<path d="M10 4H3C2.46957 4 1.96086 4.21071 1.58579 4.58579C1.21071 4.96086 1 5.46957 1 6V20C1 20.5304 1.21071 21.0391 1.58579 21.4142C1.96086 21.7893 2.46957 22 3 22H17C17.5304 22 18.0391 21.7893 18.4142 21.4142C18.7893 21.0391 19 20.5304 19 20V13" stroke="url(#paint0_linear)" stroke-width="2" stroke-linecap="round" stroke-linejoin="round"/>
<path d="M17.5 2.49998C17.8978 2.10216 18.4374 1.87866 19 1.87866C19.5626 1.87866 20.1022 2.10216 20.5 2.49998C20.8978 2.89781 21.1213 3.43737 21.1213 3.99998C21.1213 4.56259 20.8978 5.10216 20.5 5.49998L11 15L7 16L8 12L17.5 2.49998Z" stroke="url(#paint1_linear)" stroke-width="2" stroke-linecap="round" stroke-linejoin="round"/>
<defs>
<linearGradient id="paint0_linear" x1="1" y1="4" x2="15.6663" y2="8.77344" gradientUnits="userSpaceOnUse">
<stop stop-color="#0BA8EF"/>
<stop offset="1" stop-color="#08D0BA"/>
</linearGradient>
<linearGradient id="paint1_linear" x1="7" y1="1.87866" x2="18.506" y2="5.62351" gradientUnits="userSpaceOnUse">
<stop stop-color="#0BA8EF"/>
<stop offset="1" stop-color="#08D0BA"/>
</linearGradient>
</defs>
</svg>
