<svg width="20" height="20" viewBox="0 0 20 20" fill="none" xmlns="http://www.w3.org/2000/svg">
<path d="M19.75 10C19.7511 8.37789 19.3475 6.78114 18.5757 5.3544C17.8039 3.92766 16.6883 2.71603 15.33 1.82927C13.9718 0.942506 12.4137 0.408643 10.797 0.276042C9.18034 0.143441 7.55612 0.416293 6.07151 1.06988C4.58689 1.72346 3.28881 2.73713 2.29485 4.01904C1.30089 5.30095 0.642468 6.81059 0.379236 8.41121C0.116004 10.0118 0.256279 11.6528 0.787353 13.1855C1.31843 14.7182 2.22352 16.0942 3.42062 17.1888C3.45776 17.2306 3.49946 17.268 3.54494 17.3004C5.32491 18.8786 7.62139 19.7501 10.0003 19.75C12.3791 19.7499 14.6756 18.8783 16.4554 17.3C16.5006 17.2678 16.542 17.2307 16.5789 17.1893C17.5785 16.2774 18.3768 15.1671 18.9228 13.9291C19.4688 12.6912 19.7505 11.353 19.75 10V10ZM1.75 10C1.74894 8.66342 2.07264 7.3466 2.69324 6.16283C3.31384 4.97906 4.21276 3.9638 5.31265 3.20441C6.41254 2.44501 7.68047 1.96422 9.00734 1.8034C10.3342 1.64258 11.6803 1.80655 12.9298 2.2812C14.1792 2.75585 15.2946 3.52696 16.1801 4.5282C17.0655 5.52943 17.6944 6.7308 18.0127 8.02893C18.331 9.32706 18.3291 10.6831 18.0072 11.9803C17.6853 13.2776 17.053 14.4772 16.1648 15.4759C15.3288 14.2637 14.1526 13.326 12.7846 12.7811C13.5193 12.2023 14.0555 11.4089 14.3185 10.5113C14.5815 9.61365 14.5582 8.65638 14.2519 7.77258C13.9456 6.88878 13.3716 6.12239 12.6095 5.57998C11.8475 5.03757 10.9354 4.7461 10 4.7461C9.06463 4.7461 8.15252 5.03757 7.39048 5.57998C6.62845 6.12239 6.05437 6.88878 5.74809 7.77258C5.44181 8.65638 5.41854 9.61365 5.68152 10.5113C5.9445 11.4089 6.48066 12.2023 7.21544 12.7811C5.84737 13.326 4.67121 14.2637 3.83519 15.4759C2.49074 13.9689 1.74843 12.0196 1.75 10V10ZM7 9.25C7 8.65666 7.17595 8.07664 7.50559 7.58329C7.83524 7.08995 8.30377 6.70543 8.85195 6.47836C9.40013 6.2513 10.0033 6.19189 10.5853 6.30765C11.1672 6.4234 11.7018 6.70913 12.1213 7.12868C12.5409 7.54824 12.8266 8.08279 12.9424 8.66473C13.0581 9.24668 12.9987 9.84987 12.7716 10.3981C12.5446 10.9462 12.1601 11.4148 11.6667 11.7444C11.1734 12.0741 10.5933 12.25 10 12.25C9.20462 12.2491 8.44208 11.9328 7.87967 11.3703C7.31725 10.8079 7.00089 10.0454 7 9.25V9.25ZM4.94528 16.5155C5.48822 15.6676 6.23576 14.9698 7.11908 14.4865C8.0024 14.0032 8.99311 13.7499 10 13.7499C11.0069 13.7499 11.9976 14.0032 12.8809 14.4865C13.7642 14.9698 14.5118 15.6676 15.0547 16.5155C13.6096 17.6397 11.8309 18.25 10 18.25C8.1691 18.25 6.39044 17.6397 4.94528 16.5155V16.5155Z" fill="black"/>
</svg>
