<svg width="52" height="52" viewBox="0 0 52 52" fill="none" xmlns="http://www.w3.org/2000/svg">
<path d="M48.1 19.1H42.7C42.1 19.1 41.7 18.7 41.7 18.1V2C41.7 1.4 42.1 1 42.7 1H48.1C49.5 1 50.6 2.1 50.6 3.5V16.6C50.6 18 49.5 19.1 48.1 19.1Z" stroke="#6c6c6c" stroke-width="2" stroke-miterlimit="10"/>
<path d="M46.9 51H45.3C44.7 51 44.3 50.6 44.3 50V19.3H47.9V50C47.9 50.6 47.5 51 46.9 51Z" stroke="#6c6c6c" stroke-width="2" stroke-miterlimit="10"/>
<path d="M40.9 11.3H37.3" stroke="#6c6c6c" stroke-miterlimit="10" stroke-linecap="round"/>
<path d="M40.9 13.3H37.3" stroke="#6c6c6c" stroke-miterlimit="10" stroke-linecap="round"/>
<path d="M40.9 15.3H37.3" stroke="#6c6c6c" stroke-miterlimit="10" stroke-linecap="round"/>
<path d="M40.9 17.3H37.3" stroke="#6c6c6c" stroke-miterlimit="10" stroke-linecap="round"/>
<path d="M40.9 3.3H37.3" stroke="#6c6c6c" stroke-miterlimit="10" stroke-linecap="round"/>
<path d="M40.9 5.3H37.3" stroke="#6c6c6c" stroke-miterlimit="10" stroke-linecap="round"/>
<path d="M40.9 7.3H37.3" stroke="#6c6c6c" stroke-miterlimit="10" stroke-linecap="round"/>
<path d="M40.9 9.3H37.3" stroke="#6c6c6c" stroke-miterlimit="10" stroke-linecap="round"/>
<path d="M30.1 19.1H24.7C24.1 19.1 23.7 18.7 23.7 18.1V2C23.7 1.4 24.1 1 24.7 1H30.1C31.5 1 32.6 2.1 32.6 3.5V16.6C32.6 18 31.5 19.1 30.1 19.1Z" stroke="#6c6c6c" stroke-width="2" stroke-miterlimit="10"/>
<path d="M28.9 51H27.3C26.7 51 26.3 50.6 26.3 50V19.3H29.9V50C29.9 50.6 29.5 51 28.9 51Z" stroke="#6c6c6c" stroke-width="2" stroke-miterlimit="10"/>
<path d="M22.9 11.3H19.3" stroke="#6c6c6c" stroke-miterlimit="10" stroke-linecap="round"/>
<path d="M22.9 13.3H19.3" stroke="#6c6c6c" stroke-miterlimit="10" stroke-linecap="round"/>
<path d="M22.9 15.3H19.3" stroke="#6c6c6c" stroke-miterlimit="10" stroke-linecap="round"/>
<path d="M22.9 17.3H19.3" stroke="#6c6c6c" stroke-miterlimit="10" stroke-linecap="round"/>
<path d="M22.9 3.3H19.3" stroke="#6c6c6c" stroke-miterlimit="10" stroke-linecap="round"/>
<path d="M22.9 5.3H19.3" stroke="#6c6c6c" stroke-miterlimit="10" stroke-linecap="round"/>
<path d="M22.9 7.3H19.3" stroke="#6c6c6c" stroke-miterlimit="10" stroke-linecap="round"/>
<path d="M22.9 9.3H19.3" stroke="#6c6c6c" stroke-miterlimit="10" stroke-linecap="round"/>
<path d="M12.1 19.1H6.69998C6.09998 19.1 5.69998 18.7 5.69998 18.1V2C5.69998 1.4 6.09998 1 6.69998 1H12.1C13.5 1 14.6 2.1 14.6 3.5V16.6C14.6 18 13.5 19.1 12.1 19.1Z" stroke="#6c6c6c" stroke-width="2" stroke-miterlimit="10"/>
<path d="M10.9 51H9.29999C8.69999 51 8.29999 50.6 8.29999 50V19.3H11.9V50C11.9 50.6 11.5 51 10.9 51Z" stroke="#6c6c6c" stroke-width="2" stroke-miterlimit="10"/>
<path d="M4.89999 11.3H1.29999" stroke="#6c6c6c" stroke-miterlimit="10" stroke-linecap="round"/>
<path d="M4.89999 13.3H1.29999" stroke="#6c6c6c" stroke-miterlimit="10" stroke-linecap="round"/>
<path d="M4.89999 15.3H1.29999" stroke="#6c6c6c" stroke-miterlimit="10" stroke-linecap="round"/>
<path d="M4.89999 17.3H1.29999" stroke="#6c6c6c" stroke-miterlimit="10" stroke-linecap="round"/>
<path d="M4.89999 3.3H1.29999" stroke="#6c6c6c" stroke-miterlimit="10" stroke-linecap="round"/>
<path d="M4.89999 5.3H1.29999" stroke="#6c6c6c" stroke-miterlimit="10" stroke-linecap="round"/>
<path d="M4.89999 7.3H1.29999" stroke="#6c6c6c" stroke-miterlimit="10" stroke-linecap="round"/>
<path d="M4.89999 9.3H1.29999" stroke="#6c6c6c" stroke-miterlimit="10" stroke-linecap="round"/>
</svg>
