<svg width="18" height="18" viewBox="0 0 18 18" fill="none" xmlns="http://www.w3.org/2000/svg">
<path d="M12.75 1.49978H14.7525C15.177 1.49228 15.5894 1.64088 15.9116 1.9174C16.2337 2.19391 16.4431 2.57908 16.5 2.99978V8.24978C16.4431 8.67049 16.2337 9.05566 15.9116 9.33217C15.5894 9.60868 15.177 9.75729 14.7525 9.74978H12.75M7.50002 11.2498V14.2498C7.50002 14.8465 7.73708 15.4188 8.15903 15.8408C8.58099 16.2627 9.15329 16.4998 9.75002 16.4998L12.75 9.74978V1.49978H4.29002C3.92828 1.49569 3.57724 1.62248 3.30159 1.85678C3.02595 2.09108 2.84427 2.4171 2.79002 2.77478L1.75502 9.52478C1.72239 9.73977 1.73689 9.95927 1.79752 10.1681C1.85814 10.3769 1.96345 10.5701 2.10613 10.7341C2.24881 10.8982 2.42546 11.0293 2.62384 11.1184C2.82222 11.2074 3.03759 11.2522 3.25502 11.2498H7.50002Z" stroke="#0BA8EF" stroke-width="1.5" stroke-linecap="round" stroke-linejoin="round"/>
</svg>
