<svg width="49" height="65" viewBox="0 0 49 65" fill="none" xmlns="http://www.w3.org/2000/svg">
<path d="M29 64.4H24C22.9 64.4 22 63.5 22 62.4V32C22 30.9 22.9 30 24 30H29C30.1 30 31 30.9 31 32V62.4C31 63.5 30.1 64.4 29 64.4Z" stroke="black" stroke-width="2" stroke-miterlimit="10"/>
<path d="M26.5 11.1H25C24.4 11.1 24 10.7 24 10.1V2C24 1.4 24.4 1 25 1H26.5C27.9 1 29 2.1 29 3.5V8.6C29 10 27.9 11.1 26.5 11.1Z" stroke="black" stroke-width="2" stroke-miterlimit="10"/>
<path d="M23 9.9H21" stroke="black" stroke-miterlimit="10" stroke-linecap="round"/>
<path d="M26.5 39C27.3284 39 28 38.1493 28 37.1C28 36.0507 27.3284 35.2 26.5 35.2C25.6716 35.2 25 36.0507 25 37.1C25 38.1493 25.6716 39 26.5 39Z" stroke="black" stroke-miterlimit="10"/>
<path d="M26.5 45.4C27.3284 45.4 28 44.5493 28 43.5C28 42.4507 27.3284 41.6 26.5 41.6C25.6716 41.6 25 42.4507 25 43.5C25 44.5493 25.6716 45.4 26.5 45.4Z" stroke="black" stroke-miterlimit="10"/>
<path d="M26.5 59.9C27.3284 59.9 28 57.2137 28 53.9C28 50.5863 27.3284 47.9 26.5 47.9C25.6716 47.9 25 50.5863 25 53.9C25 57.2137 25.6716 59.9 26.5 59.9Z" stroke="black" stroke-miterlimit="10"/>
<path d="M27.5 11.8H25.5V29.5H27.5V11.8Z" stroke="black" stroke-miterlimit="10"/>
<path d="M23 7.3H21" stroke="black" stroke-miterlimit="10" stroke-linecap="round"/>
<path d="M23 4.8H21" stroke="black" stroke-miterlimit="10" stroke-linecap="round"/>
<path d="M23 2.3H21" stroke="black" stroke-miterlimit="10" stroke-linecap="round"/>
<path d="M8.5 10.8H6.5V29.5H8.5V10.8Z" stroke="black" stroke-miterlimit="10"/>
<path d="M11.2 29.5H3.8C3.4 29.5 3 29.8 2.8 30.2L1 36.4C1 36.5 1 36.6 1 36.7V61.1C1 61.4 1.1 61.6 1.3 61.8L3.7 64.2C3.9 64.4 4.1 64.5 4.4 64.5H10.6C10.9 64.5 11.1 64.4 11.3 64.2L13.7 61.8C13.9 61.6 14 61.4 14 61.1V36.6C14 36.5 14 36.4 14 36.3L12.2 30.2C12.1 29.8 11.7 29.5 11.2 29.5Z" stroke="black" stroke-width="2" stroke-miterlimit="10"/>
<path d="M7.5 37.5C8.05228 37.5 8.5 37.0523 8.5 36.5C8.5 35.9477 8.05228 35.5 7.5 35.5C6.94772 35.5 6.5 35.9477 6.5 36.5C6.5 37.0523 6.94772 37.5 7.5 37.5Z" stroke="black" stroke-miterlimit="10"/>
<path d="M7.5 41.5C8.05228 41.5 8.5 41.0523 8.5 40.5C8.5 39.9477 8.05228 39.5 7.5 39.5C6.94772 39.5 6.5 39.9477 6.5 40.5C6.5 41.0523 6.94772 41.5 7.5 41.5Z" stroke="black" stroke-miterlimit="10"/>
<path d="M7.5 45.5C8.05228 45.5 8.5 45.0523 8.5 44.5C8.5 43.9477 8.05228 43.5 7.5 43.5C6.94772 43.5 6.5 43.9477 6.5 44.5C6.5 45.0523 6.94772 45.5 7.5 45.5Z" stroke="black" stroke-miterlimit="10"/>
<path d="M7.5 48.5V59.5" stroke="black" stroke-miterlimit="10" stroke-linecap="round"/>
<path d="M46 64.4H41C39.9 64.4 39 63.5 39 62.4V32C39 30.9 39.9 30 41 30H46C47.1 30 48 30.9 48 32V62.4C48 63.5 47.1 64.4 46 64.4Z" stroke="black" stroke-width="2" stroke-miterlimit="10"/>
<path d="M43.5 11.1H42C41.4 11.1 41 10.7 41 10.1V2C41 1.4 41.4 1 42 1H43.5C44.9 1 46 2.1 46 3.5V8.6C46 10 44.9 11.1 43.5 11.1Z" stroke="black" stroke-width="2" stroke-miterlimit="10"/>
<path d="M40 9.9H38" stroke="black" stroke-miterlimit="10" stroke-linecap="round"/>
<path d="M43.5 39C44.3284 39 45 38.1493 45 37.1C45 36.0507 44.3284 35.2 43.5 35.2C42.6716 35.2 42 36.0507 42 37.1C42 38.1493 42.6716 39 43.5 39Z" stroke="black" stroke-miterlimit="10"/>
<path d="M43.5 45.4C44.3284 45.4 45 44.5493 45 43.5C45 42.4507 44.3284 41.6 43.5 41.6C42.6716 41.6 42 42.4507 42 43.5C42 44.5493 42.6716 45.4 43.5 45.4Z" stroke="black" stroke-miterlimit="10"/>
<path d="M43.5 59.9C44.3284 59.9 45 57.2137 45 53.9C45 50.5863 44.3284 47.9 43.5 47.9C42.6716 47.9 42 50.5863 42 53.9C42 57.2137 42.6716 59.9 43.5 59.9Z" stroke="black" stroke-miterlimit="10"/>
<path d="M44.5 11.8H42.5V29.5H44.5V11.8Z" stroke="black" stroke-miterlimit="10"/>
<path d="M40 7.3H38" stroke="black" stroke-miterlimit="10" stroke-linecap="round"/>
<path d="M40 4.8H38" stroke="black" stroke-miterlimit="10" stroke-linecap="round"/>
<path d="M40 2.3H38" stroke="black" stroke-miterlimit="10" stroke-linecap="round"/>
<path d="M7.5 10C9.98528 10 12 7.98528 12 5.5C12 3.01472 9.98528 1 7.5 1C5.01472 1 3 3.01472 3 5.5C3 7.98528 5.01472 10 7.5 10Z" stroke="black" stroke-width="2" stroke-miterlimit="10"/>
</svg>
