<svg width="20" height="11" viewBox="0 0 20 11" fill="none" xmlns="http://www.w3.org/2000/svg">
<path d="M19.5442 0.745937C19.6816 0.31625 19.5442 0 18.8833 0H16.6965C16.1395 0 15.8834 0.271562 15.746 0.574062C15.746 0.574062 14.6321 3.08688 13.0579 4.71625C12.5493 5.18719 12.3154 5.33844 12.0369 5.33844C11.8995 5.33844 11.6879 5.18719 11.6879 4.7575V0.745937C11.6879 0.230312 11.532 0 11.0716 0H7.63352C7.28452 0 7.0766 0.240625 7.0766 0.464063C7.0766 0.952188 7.86371 1.06563 7.9454 2.44063V5.42438C7.9454 6.0775 7.81916 6.19781 7.5407 6.19781C6.79814 6.19781 4.99372 3.67469 3.92443 0.787188C3.70909 0.226875 3.49746 0 2.93683 0H0.749986C0.126235 0 0 0.271562 0 0.574062C0 1.11031 0.74256 3.77438 3.45662 7.29438C5.26475 9.69719 7.81173 11 10.1285 11C11.5208 11 11.6916 10.7113 11.6916 10.2128C11.6916 7.91656 11.5654 7.7 12.2634 7.7C12.5864 7.7 13.1433 7.85125 14.4428 9.00969C15.9279 10.3847 16.173 11 17.0046 11H19.1915C19.8152 11 20.1308 10.7113 19.9489 10.1406C19.5331 8.94094 16.7225 6.47281 16.5962 6.30781C16.2732 5.92281 16.366 5.75094 16.5962 5.40719C16.5999 5.40375 19.2694 1.925 19.5442 0.745937Z" fill="white"/>
</svg>
