<svg width="28" height="28" viewBox="0 0 28 28" fill="none" xmlns="http://www.w3.org/2000/svg">
<path d="M21.8849 16.6286C22.2844 16.6286 22.6657 16.7057 23.0288 16.8601C23.4011 17.0054 23.7279 17.2187 24.0094 17.5002L27.0054 20.4962C27.2869 20.7777 27.5002 21.1045 27.6455 21.4768C27.7998 21.8399 27.877 22.2212 27.877 22.6207C27.877 23.0202 27.7998 23.406 27.6455 23.7783C27.5002 24.1414 27.2869 24.4637 27.0054 24.7452L26.8148 24.9358C26.3245 25.4261 25.8751 25.8619 25.4665 26.2432C25.058 26.6245 24.6313 26.9468 24.1864 27.2101C23.7415 27.4643 23.2467 27.6595 22.702 27.7957C22.1572 27.9319 21.5081 28 20.7545 28C19.6197 28 18.453 27.823 17.2546 27.4689C16.0562 27.1148 14.8623 26.6245 13.6729 25.9981C12.4927 25.3716 11.3306 24.6272 10.1866 23.7647C9.05174 22.9022 7.97588 21.9625 6.95904 20.9456C5.95127 19.9197 5.02068 18.8393 4.16725 17.7044C3.31383 16.5605 2.57843 15.3984 1.96106 14.2181C1.34369 13.0288 0.862503 11.844 0.517502 10.6637C0.172501 9.48342 0 8.33947 0 7.23183C0 6.47828 0.0635529 5.83367 0.190659 5.29801C0.326843 4.76235 0.522041 4.27209 0.776253 3.82722C1.03954 3.38235 1.35731 2.96017 1.72955 2.5607C2.11086 2.15215 2.54665 1.70274 3.03692 1.21247L3.25481 0.994576C3.53626 0.713127 3.85857 0.495232 4.22173 0.340889C4.58488 0.186546 4.97074 0.109375 5.3793 0.109375C5.77877 0.109375 6.16009 0.186546 6.52325 0.340889C6.89548 0.495232 7.22233 0.713127 7.50378 0.994576L10.4998 3.99064C10.7813 4.27209 10.9946 4.59893 11.1399 4.97117C11.2943 5.33433 11.3714 5.71564 11.3714 6.11512C11.3714 6.5146 11.3033 6.87321 11.1671 7.19098C11.031 7.49966 10.863 7.78111 10.6633 8.03532C10.4635 8.28954 10.2411 8.52105 9.99596 8.72987C9.7599 8.93868 9.54201 9.14296 9.34227 9.3427C9.14253 9.54243 8.97457 9.74671 8.83839 9.95553C8.7022 10.1553 8.63411 10.3732 8.63411 10.6092C8.63411 10.9542 8.75668 11.2493 9.00181 11.4944L16.5056 18.9982C16.7507 19.2433 17.0458 19.3659 17.3908 19.3659C17.6268 19.3659 17.8447 19.2978 18.0445 19.1616C18.2533 19.0254 18.4576 18.8575 18.6573 18.6577C18.857 18.458 19.0613 18.2401 19.2701 18.004C19.479 17.7589 19.7105 17.5365 19.9647 17.3367C20.2189 17.137 20.5003 16.969 20.809 16.8329C21.1268 16.6967 21.4854 16.6286 21.8849 16.6286ZM20.7545 26.2568C21.4082 26.2568 21.953 26.1978 22.3888 26.0798C22.8336 25.9527 23.2331 25.7757 23.5872 25.5487C23.9413 25.3126 24.2863 25.0221 24.6222 24.6771C24.9581 24.3321 25.344 23.9417 25.7798 23.5059C26.0249 23.2608 26.1475 22.9657 26.1475 22.6207C26.1475 22.4573 26.0794 22.2666 25.9432 22.0487C25.8161 21.8218 25.6481 21.5857 25.4393 21.3406C25.2305 21.0954 24.9944 20.8458 24.7311 20.5916C24.4769 20.3283 24.2227 20.0831 23.9685 19.8562C23.7234 19.6201 23.4919 19.4067 23.274 19.2161C23.0651 19.0163 22.9017 18.8575 22.7837 18.7394C22.5386 18.4943 22.239 18.3717 21.8849 18.3717C21.6488 18.3717 21.4309 18.4398 21.2312 18.576C21.0315 18.7122 20.8317 18.8802 20.632 19.0799C20.4322 19.2796 20.2234 19.5021 20.0055 19.7472C19.7967 19.9833 19.5652 20.2012 19.311 20.4009C19.0568 20.6006 18.7708 20.7686 18.453 20.9048C18.1443 21.041 17.7903 21.1091 17.3908 21.1091C16.9913 21.1091 16.6055 21.0364 16.2332 20.8912C15.8701 20.7368 15.5478 20.5189 15.2663 20.2375L7.76253 12.7337C7.48108 12.4522 7.26318 12.1299 7.10884 11.7668C6.96358 11.3945 6.89095 11.0087 6.89095 10.6092C6.89095 10.2097 6.95904 9.85566 7.09522 9.54697C7.23141 9.22921 7.39937 8.94322 7.59911 8.68901C7.79884 8.4348 8.01674 8.20329 8.25279 7.99447C8.49792 7.77657 8.72036 7.56776 8.9201 7.36802C9.11983 7.16828 9.2878 6.96854 9.42398 6.76881C9.56017 6.56907 9.62826 6.35117 9.62826 6.11512C9.62826 5.76104 9.50569 5.46143 9.26056 5.2163C9.14253 5.09827 8.98365 4.93485 8.78391 4.72604C8.59325 4.50814 8.3799 4.27663 8.14384 4.03149C7.91687 3.77728 7.67174 3.52307 7.40845 3.26886C7.15424 3.00557 6.90456 2.76952 6.65943 2.5607C6.4143 2.35188 6.17825 2.18392 5.95127 2.05682C5.73338 1.92063 5.54272 1.85254 5.3793 1.85254C5.03429 1.85254 4.73923 1.97511 4.49409 2.22024C4.0583 2.65603 3.66791 3.04189 3.32291 3.37781C2.98698 3.71373 2.69646 4.05873 2.45132 4.41281C2.21527 4.76689 2.03369 5.16637 1.90659 5.61124C1.78856 6.04703 1.72955 6.58723 1.72955 7.23183C1.72955 8.24868 1.89297 9.2973 2.21981 10.3777C2.55573 11.4581 3.01422 12.5385 3.59528 13.6189C4.18541 14.6993 4.87995 15.7661 5.6789 16.8192C6.47785 17.8633 7.34943 18.8529 8.29365 19.7881C9.23786 20.7232 10.232 21.5857 11.2761 22.3756C12.3293 23.1654 13.3915 23.8509 14.4628 24.432C15.5432 25.0039 16.6145 25.4533 17.6768 25.7802C18.7481 26.098 19.774 26.2568 20.7545 26.2568Z" fill="#F2590D"/>
</svg>
