<svg width="14" height="12" viewBox="0 0 14 12" fill="none" xmlns="http://www.w3.org/2000/svg">
<path d="M10.9987 5.33333C10.9987 4.694 10.5454 4.15933 9.9447 4.03067C10.1847 3.63 10.332 3.16667 10.332 2.66667C10.332 1.196 9.13603 0 7.66536 0C6.65403 0 5.7847 0.571333 5.33203 1.40267C4.87936 0.571333 4.01003 0 2.9987 0C1.52803 0 0.332031 1.196 0.332031 2.66667C0.332031 3.268 0.540031 3.818 0.876698 4.264C0.708423 4.38705 0.571447 4.54795 0.476831 4.73371C0.382216 4.91946 0.332614 5.12487 0.332031 5.33333V10.6667C0.332031 11.402 0.930031 12 1.66536 12H9.66537C10.4007 12 10.9987 11.402 10.9987 10.6667V8.908L13.6654 10.2413V5.57467L10.9987 6.908V5.33333ZM7.66536 1.33333C8.4007 1.33333 8.9987 1.93133 8.9987 2.66667C8.9987 3.402 8.4007 4 7.66536 4C6.93003 4 6.33203 3.402 6.33203 2.66667C6.33203 1.93133 6.93003 1.33333 7.66536 1.33333ZM2.9987 1.33333C3.73403 1.33333 4.33203 1.93133 4.33203 2.66667C4.33203 3.402 3.73403 4 2.9987 4C2.26336 4 1.66536 3.402 1.66536 2.66667C1.66536 1.93133 2.26336 1.33333 2.9987 1.33333ZM1.66536 10.6667V5.33333H9.66537L9.6667 10.6667H1.66536Z" fill="#F2590D"/>
</svg>
