<svg width="20" height="20" viewBox="0 0 20 20" fill="none" xmlns="http://www.w3.org/2000/svg">
<path d="M19.5879 5.03419C19.3575 4.23876 18.6819 3.61173 17.8252 3.39755C16.2602 3 9.99977 3 9.99977 3C9.99977 3 3.73963 3 2.17456 3.38247C1.33435 3.59643 0.642335 4.23887 0.411866 5.03419C0 6.48702 0 9.5 0 9.5C0 9.5 0 12.5282 0.411866 13.9658C0.642579 14.7611 1.31787 15.3882 2.17469 15.6023C3.75611 16 10 16 10 16C10 16 16.2602 16 17.8252 15.6175C18.682 15.4035 19.3575 14.7764 19.5882 13.9811C19.9999 12.5282 19.9999 9.5153 19.9999 9.5153C19.9999 9.5153 20.0164 6.48702 19.5879 5.03419ZM8.00661 12.2835V6.7165L13.2124 9.5L8.00661 12.2835Z" fill="#333333"/>
</svg>
