<svg width="20" height="20" viewBox="0 0 20 20" fill="none" xmlns="http://www.w3.org/2000/svg">
<path d="M19.5442 5.74594C19.6816 5.31625 19.5442 5 18.8833 5H16.6965C16.1395 5 15.8834 5.27156 15.746 5.57406C15.746 5.57406 14.6321 8.08688 13.0579 9.71625C12.5493 10.1872 12.3154 10.3384 12.0369 10.3384C11.8995 10.3384 11.6879 10.1872 11.6879 9.7575V5.74594C11.6879 5.23031 11.532 5 11.0716 5H7.63352C7.28452 5 7.0766 5.24063 7.0766 5.46406C7.0766 5.95219 7.86371 6.06563 7.9454 7.44063V10.4244C7.9454 11.0775 7.81916 11.1978 7.5407 11.1978C6.79814 11.1978 4.99372 8.67469 3.92443 5.78719C3.70909 5.22688 3.49746 5 2.93683 5H0.749986C0.126235 5 0 5.27156 0 5.57406C0 6.11031 0.74256 8.77438 3.45662 12.2944C5.26475 14.6972 7.81173 16 10.1285 16C11.5208 16 11.6916 15.7113 11.6916 15.2128C11.6916 12.9166 11.5654 12.7 12.2634 12.7C12.5864 12.7 13.1433 12.8513 14.4428 14.0097C15.9279 15.3847 16.173 16 17.0046 16H19.1915C19.8152 16 20.1308 15.7113 19.9489 15.1406C19.5331 13.9409 16.7225 11.4728 16.5962 11.3078C16.2732 10.9228 16.366 10.7509 16.5962 10.4072C16.5999 10.4038 19.2694 6.925 19.5442 5.74594Z" fill="#333333"/>
</svg>
