<svg width="18" height="19" viewBox="0 0 18 19" fill="none" xmlns="http://www.w3.org/2000/svg">
<path d="M15.9701 1.85013C15.4993 1.416 13.5939 0.0319951 9.34572 0.0134427C9.34572 0.0134427 4.33757 -0.287106 1.89837 1.95402C0.541606 3.31205 0.0634038 5.30457 0.0115059 7.77204C-0.0403921 10.2395 -0.103411 14.8627 4.34869 16.1169H4.3524L4.34869 18.0315C4.34869 18.0315 4.31904 18.807 4.8306 18.9628C5.44596 19.1558 5.80925 18.5658 6.39866 17.9313C6.72117 17.5825 7.16601 17.0705 7.50334 16.6809C10.5505 16.9369 12.8896 16.3506 13.1565 16.2653C13.7719 16.0649 17.2527 15.6197 17.8162 10.9964C18.4019 6.22477 17.5345 3.21187 15.9701 1.85013ZM16.4854 10.6477C16.0072 14.5065 13.1862 14.7514 12.6672 14.9184C12.4448 14.9889 10.3874 15.5009 7.80361 15.334C7.80361 15.334 5.87597 17.6604 5.27544 18.2653C5.07897 18.4619 4.86396 18.4434 4.86767 18.0538C4.86767 17.7977 4.8825 14.8739 4.8825 14.8739C4.87879 14.8739 4.87879 14.8739 4.8825 14.8739C1.10878 13.8275 1.3312 9.89072 1.37197 7.83141C1.41275 5.77209 1.80198 4.08383 2.95115 2.94843C5.01595 1.07464 9.26787 1.35292 9.26787 1.35292C12.86 1.36776 14.58 2.45122 14.9804 2.81485C16.3038 3.95025 16.9784 6.66632 16.4854 10.6477ZM11.3327 7.64959C11.3475 7.96869 10.8693 7.99096 10.8545 7.67186C10.8137 6.85555 10.4319 6.45853 9.64599 6.41401C9.32719 6.39545 9.35684 5.9168 9.67194 5.93536C10.7062 5.99101 11.2808 6.58469 11.3327 7.64959ZM12.0852 8.06888C12.1223 6.49564 11.1399 5.26376 9.27529 5.12647C8.96019 5.10421 8.99356 4.62556 9.30865 4.64782C11.4587 4.80366 12.6042 6.28414 12.5634 8.08001C12.5597 8.39911 12.0778 8.38427 12.0852 8.06888ZM13.8275 8.56608C13.8312 8.88518 13.3493 8.88889 13.3493 8.56979C13.327 5.54576 11.3141 3.89831 8.87123 3.87975C8.55613 3.87604 8.55613 3.4011 8.87123 3.4011C11.6033 3.41966 13.8015 5.30829 13.8275 8.56608ZM13.4086 12.2061V12.2135C13.0082 12.9185 12.2594 13.6977 11.4884 13.4491L11.481 13.4379C10.6988 13.219 8.8564 12.2691 7.6924 11.3415C7.09187 10.8666 6.54323 10.3063 6.12064 9.76827C5.73881 9.28962 5.35329 8.72192 4.97888 8.03919C4.18929 6.61066 4.01506 5.97246 4.01506 5.97246C3.76669 5.20068 4.54145 4.45117 5.24949 4.05044H5.2569C5.59795 3.87233 5.92416 3.9317 6.14288 4.19514C6.14288 4.19514 6.60254 4.74429 6.79902 5.01516C6.98436 5.26747 7.23273 5.67191 7.36248 5.89825C7.58861 6.30269 7.44774 6.71455 7.22532 6.88524L6.78048 7.24144C6.55435 7.42325 6.58401 7.76091 6.58401 7.76091C6.58401 7.76091 7.24386 10.2581 9.70901 10.8888C9.70901 10.8888 10.0463 10.9185 10.228 10.6922L10.5839 10.2469C10.7544 10.0243 11.1659 9.8833 11.5699 10.1096C12.1148 10.4176 12.8081 10.8963 13.2677 11.3304C13.5272 11.5419 13.5865 11.8647 13.4086 12.2061Z" fill="white"/>
</svg>
