<svg width="16" height="16" viewBox="0 0 16 16" fill="none" xmlns="http://www.w3.org/2000/svg">
<g clip-path="url(#clip0)">
<path d="M8 0.249634C3.71875 0.249634 0.25 3.71838 0.25 7.99963C0.25 12.2809 3.71875 15.7496 8 15.7496C12.2812 15.7496 15.75 12.2809 15.75 7.99963C15.75 3.71838 12.2812 0.249634 8 0.249634ZM10.8903 10.0309L10.2653 10.8121C10.2243 10.8634 10.1736 10.9061 10.1161 10.9378C10.0585 10.9695 9.99535 10.9895 9.93009 10.9968C9.86483 11.004 9.79877 10.9983 9.7357 10.9801C9.67263 10.9618 9.61378 10.9313 9.5625 10.8903L7.46875 9.33651C7.32246 9.21938 7.20437 9.07085 7.12323 8.90192C7.04209 8.73299 6.99998 8.54798 7 8.36057V3.49963C7 3.36703 7.05268 3.23985 7.14645 3.14608C7.24021 3.05231 7.36739 2.99963 7.5 2.99963H8.5C8.63261 2.99963 8.75979 3.05231 8.85355 3.14608C8.94732 3.23985 9 3.36703 9 3.49963V7.99963L10.8125 9.32776C10.8638 9.3688 10.9065 9.41955 10.9382 9.47711C10.9699 9.53466 10.9899 9.5979 10.9971 9.6632C11.0043 9.72849 10.9986 9.79458 10.9803 9.85767C10.962 9.92076 10.9314 9.97962 10.8903 10.0309Z" fill="#F2590D"/>
</g>
<defs>
<clipPath id="clip0">
<rect width="16" height="16" fill="white" transform="translate(0 -0.000366211)"/>
</clipPath>
</defs>
</svg>
