<svg width="16" height="16" viewBox="0 0 16 16" fill="none" xmlns="http://www.w3.org/2000/svg">
<g clip-path="url(#clip0)">
<path d="M1 14.4996C1 15.3278 1.67188 15.9996 2.5 15.9996H13.5C14.3281 15.9996 15 15.3278 15 14.4996V5.99963H1V14.4996ZM11 8.37463C11 8.16838 11.1687 7.99963 11.375 7.99963H12.625C12.8313 7.99963 13 8.16838 13 8.37463V9.62463C13 9.83088 12.8313 9.99963 12.625 9.99963H11.375C11.1687 9.99963 11 9.83088 11 9.62463V8.37463ZM11 12.3746C11 12.1684 11.1687 11.9996 11.375 11.9996H12.625C12.8313 11.9996 13 12.1684 13 12.3746V13.6246C13 13.8309 12.8313 13.9996 12.625 13.9996H11.375C11.1687 13.9996 11 13.8309 11 13.6246V12.3746ZM7 8.37463C7 8.16838 7.16875 7.99963 7.375 7.99963H8.625C8.83125 7.99963 9 8.16838 9 8.37463V9.62463C9 9.83088 8.83125 9.99963 8.625 9.99963H7.375C7.16875 9.99963 7 9.83088 7 9.62463V8.37463ZM7 12.3746C7 12.1684 7.16875 11.9996 7.375 11.9996H8.625C8.83125 11.9996 9 12.1684 9 12.3746V13.6246C9 13.8309 8.83125 13.9996 8.625 13.9996H7.375C7.16875 13.9996 7 13.8309 7 13.6246V12.3746ZM3 8.37463C3 8.16838 3.16875 7.99963 3.375 7.99963H4.625C4.83125 7.99963 5 8.16838 5 8.37463V9.62463C5 9.83088 4.83125 9.99963 4.625 9.99963H3.375C3.16875 9.99963 3 9.83088 3 9.62463V8.37463ZM3 12.3746C3 12.1684 3.16875 11.9996 3.375 11.9996H4.625C4.83125 11.9996 5 12.1684 5 12.3746V13.6246C5 13.8309 4.83125 13.9996 4.625 13.9996H3.375C3.16875 13.9996 3 13.8309 3 13.6246V12.3746ZM13.5 1.99963H12V0.499634C12 0.224634 11.775 -0.000366211 11.5 -0.000366211H10.5C10.225 -0.000366211 10 0.224634 10 0.499634V1.99963H6V0.499634C6 0.224634 5.775 -0.000366211 5.5 -0.000366211H4.5C4.225 -0.000366211 4 0.224634 4 0.499634V1.99963H2.5C1.67188 1.99963 1 2.67151 1 3.49963V4.99963H15V3.49963C15 2.67151 14.3281 1.99963 13.5 1.99963Z" fill="#F2590D"/>
</g>
<defs>
<clipPath id="clip0">
<rect width="16" height="16" fill="white" transform="translate(0 -0.000366211)"/>
</clipPath>
</defs>
</svg>
