<svg width="21" height="21" viewBox="0 0 21 21" fill="none" xmlns="http://www.w3.org/2000/svg">
<path d="M16.478 12.438C16.7788 12.438 17.0659 12.4961 17.3394 12.6123C17.6196 12.7217 17.8657 12.8823 18.0776 13.0942L20.3335 15.3501C20.5454 15.562 20.7061 15.8081 20.8154 16.0884C20.9316 16.3618 20.9897 16.6489 20.9897 16.9497C20.9897 17.2505 20.9316 17.541 20.8154 17.8213C20.7061 18.0947 20.5454 18.3374 20.3335 18.5493L20.1899 18.6929C19.8208 19.062 19.4824 19.3901 19.1748 19.6772C18.8672 19.9644 18.5459 20.207 18.2109 20.4053C17.876 20.5967 17.5034 20.7437 17.0933 20.8462C16.6831 20.9487 16.1943 21 15.627 21C14.7725 21 13.894 20.8667 12.9917 20.6001C12.0894 20.3335 11.1904 19.9644 10.2949 19.4927C9.40625 19.021 8.53125 18.4604 7.66992 17.811C6.81543 17.1616 6.00537 16.4541 5.23975 15.6885C4.48096 14.916 3.78027 14.1025 3.1377 13.248C2.49512 12.3867 1.94141 11.5117 1.47656 10.623C1.01172 9.72754 0.649414 8.83545 0.389648 7.94678C0.129883 7.05811 0 6.19678 0 5.36279C0 4.79541 0.0478516 4.31006 0.143555 3.90674C0.246094 3.50342 0.393066 3.13428 0.584473 2.79932C0.782715 2.46436 1.02197 2.14648 1.30225 1.8457C1.58936 1.53809 1.91748 1.19971 2.28662 0.830566L2.45068 0.666504C2.6626 0.45459 2.90527 0.290527 3.17871 0.174316C3.45215 0.0581055 3.74268 0 4.05029 0C4.35107 0 4.63818 0.0581055 4.91162 0.174316C5.19189 0.290527 5.43799 0.45459 5.6499 0.666504L7.90576 2.92236C8.11768 3.13428 8.27832 3.38037 8.3877 3.66064C8.50391 3.93408 8.56201 4.22119 8.56201 4.52197C8.56201 4.82275 8.51074 5.09277 8.4082 5.33203C8.30566 5.56445 8.1792 5.77637 8.02881 5.96777C7.87842 6.15918 7.71094 6.3335 7.52637 6.49072C7.34863 6.64795 7.18457 6.80176 7.03418 6.95215C6.88379 7.10254 6.75732 7.25635 6.65479 7.41357C6.55225 7.56396 6.50098 7.72803 6.50098 7.90576C6.50098 8.16553 6.59326 8.3877 6.77783 8.57227L12.4277 14.2222C12.6123 14.4067 12.8345 14.499 13.0942 14.499C13.272 14.499 13.436 14.4478 13.5864 14.3452C13.7437 14.2427 13.8975 14.1162 14.0479 13.9658C14.1982 13.8154 14.3521 13.6514 14.5093 13.4736C14.6665 13.2891 14.8408 13.1216 15.0322 12.9712C15.2236 12.8208 15.4355 12.6943 15.668 12.5918C15.9072 12.4893 16.1772 12.438 16.478 12.438ZM15.627 19.6875C16.1191 19.6875 16.5293 19.6431 16.8574 19.5542C17.1924 19.4585 17.4932 19.3252 17.7598 19.1543C18.0264 18.9766 18.2861 18.7578 18.5391 18.498C18.792 18.2383 19.0825 17.9443 19.4106 17.6162C19.5952 17.4316 19.6875 17.2095 19.6875 16.9497C19.6875 16.8267 19.6362 16.6831 19.5337 16.519C19.438 16.3481 19.3115 16.1704 19.1543 15.9858C18.9971 15.8013 18.8193 15.6133 18.6211 15.4219C18.4297 15.2236 18.2383 15.0391 18.0469 14.8682C17.8623 14.6904 17.688 14.5298 17.5239 14.3862C17.3667 14.2358 17.2437 14.1162 17.1548 14.0273C16.9702 13.8428 16.7446 13.7505 16.478 13.7505C16.3003 13.7505 16.1362 13.8018 15.9858 13.9043C15.8354 14.0068 15.6851 14.1333 15.5347 14.2837C15.3843 14.4341 15.2271 14.6016 15.063 14.7861C14.9058 14.9639 14.7314 15.1279 14.54 15.2783C14.3486 15.4287 14.1333 15.5552 13.894 15.6577C13.6616 15.7603 13.395 15.8115 13.0942 15.8115C12.7935 15.8115 12.5029 15.7568 12.2227 15.6475C11.9492 15.5312 11.7065 15.3672 11.4946 15.1553L5.84473 9.50537C5.63281 9.29346 5.46875 9.05078 5.35254 8.77734C5.24316 8.49707 5.18848 8.20654 5.18848 7.90576C5.18848 7.60498 5.23975 7.33838 5.34229 7.10596C5.44482 6.8667 5.57129 6.65137 5.72168 6.45996C5.87207 6.26855 6.03613 6.09424 6.21387 5.93701C6.39844 5.77295 6.56592 5.61572 6.71631 5.46533C6.8667 5.31494 6.99316 5.16455 7.0957 5.01416C7.19824 4.86377 7.24951 4.69971 7.24951 4.52197C7.24951 4.25537 7.15723 4.02979 6.97266 3.84521C6.88379 3.75635 6.76416 3.6333 6.61377 3.47607C6.47021 3.31201 6.30957 3.1377 6.13184 2.95312C5.96094 2.76172 5.77637 2.57031 5.57812 2.37891C5.38672 2.18066 5.19873 2.00293 5.01416 1.8457C4.82959 1.68848 4.65186 1.56201 4.48096 1.46631C4.31689 1.36377 4.17334 1.3125 4.05029 1.3125C3.79053 1.3125 3.56836 1.40479 3.38379 1.58936C3.05566 1.91748 2.76172 2.20801 2.50195 2.46094C2.24902 2.71387 2.03027 2.97363 1.8457 3.24023C1.66797 3.50684 1.53125 3.80762 1.43555 4.14258C1.34668 4.4707 1.30225 4.87744 1.30225 5.36279C1.30225 6.12842 1.42529 6.91797 1.67139 7.73145C1.92432 8.54492 2.26953 9.3584 2.70703 10.1719C3.15137 10.9854 3.67432 11.7886 4.27588 12.5815C4.87744 13.3677 5.53369 14.1128 6.24463 14.8169C6.95557 15.521 7.7041 16.1704 8.49023 16.7651C9.2832 17.3599 10.083 17.876 10.8896 18.3135C11.7031 18.7441 12.5098 19.0825 13.3096 19.3286C14.1162 19.5679 14.8887 19.6875 15.627 19.6875Z" fill="white"/>
</svg>
