<svg width="21" height="21" viewBox="0 0 21 21" fill="none" xmlns="http://www.w3.org/2000/svg">
<path d="M13.0625 8.25V9.625C13.0625 9.90859 12.8305 10.1406 12.5469 10.1406H10.1406V12.5469C10.1406 12.8305 9.90859 13.0625 9.625 13.0625H8.25C7.96641 13.0625 7.73438 12.8305 7.73438 12.5469V10.1406H5.32812C5.04453 10.1406 4.8125 9.90859 4.8125 9.625V8.25C4.8125 7.96641 5.04453 7.73438 5.32812 7.73438H7.73438V5.32812C7.73438 5.04453 7.96641 4.8125 8.25 4.8125H9.625C9.90859 4.8125 10.1406 5.04453 10.1406 5.32812V7.73438H12.5469C12.8305 7.73438 13.0625 7.96641 13.0625 8.25ZM20.0922 18.8762L18.8762 20.0922C18.4723 20.4961 17.8191 20.4961 17.4195 20.0922L14.7383 17.4152C14.5449 17.2219 14.4375 16.9598 14.4375 16.6848V15.9844C12.9207 17.1703 11.0129 17.875 8.9375 17.875C4.00039 17.875 0 13.8746 0 8.9375C0 4.00039 4.00039 0 8.9375 0C13.8746 0 17.875 4.00039 17.875 8.9375C17.875 11.0129 17.1703 12.9207 15.9844 14.4375H16.6848C16.9598 14.4375 17.2219 14.5449 17.4152 14.7383L20.0922 17.4152C20.4918 17.8191 20.4918 18.4723 20.0922 18.8762ZM14.7812 8.9375C14.7812 5.70625 12.1687 3.09375 8.9375 3.09375C5.70625 3.09375 3.09375 5.70625 3.09375 8.9375C3.09375 12.1687 5.70625 14.7812 8.9375 14.7812C12.1687 14.7812 14.7812 12.1687 14.7812 8.9375Z" fill="white"/>
</svg>
