<svg width="18" height="16" viewBox="0 0 18 16" fill="none" xmlns="http://www.w3.org/2000/svg">
<path d="M0.666626 1.3275C0.668151 1.10865 0.75571 0.899181 0.910387 0.744348C1.06506 0.589515 1.27444 0.501746 1.49329 0.5H16.5066C16.9633 0.5 17.3333 0.870833 17.3333 1.3275V14.6725C17.3318 14.8914 17.2442 15.1008 17.0895 15.2557C16.9349 15.4105 16.7255 15.4983 16.5066 15.5H1.49329C1.27397 15.4998 1.06371 15.4125 0.908701 15.2573C0.753694 15.1022 0.666626 14.8918 0.666626 14.6725V1.3275ZM7.85163 5.0125C7.80147 4.97904 7.74318 4.95981 7.68296 4.95685C7.62275 4.9539 7.56285 4.96733 7.50966 4.99572C7.45648 5.02411 7.41198 5.06639 7.38093 5.11807C7.34987 5.16974 7.3334 5.22888 7.33329 5.28917V10.7108C7.3334 10.7711 7.34987 10.8303 7.38093 10.8819C7.41198 10.9336 7.45648 10.9759 7.50966 11.0043C7.56285 11.0327 7.62275 11.0461 7.68296 11.0431C7.74318 11.0402 7.80147 11.021 7.85163 10.9875L11.9175 8.2775C11.9632 8.24707 12.0007 8.20582 12.0266 8.15741C12.0525 8.10899 12.0661 8.05492 12.0661 8C12.0661 7.94508 12.0525 7.89101 12.0266 7.84259C12.0007 7.79418 11.9632 7.75293 11.9175 7.7225L7.85079 5.0125H7.85163Z" fill="#F2590D"/>
</svg>
