<svg width="16" height="12" viewBox="0 0 16 12" fill="none" xmlns="http://www.w3.org/2000/svg">
<path d="M12.4788 0.500308C12.3001 0.514225 12.1294 0.579867 11.9873 0.689222C11.8453 0.798578 11.7382 0.946914 11.6791 1.11612C11.62 1.28533 11.6114 1.4681 11.6544 1.6421C11.6974 1.8161 11.7901 1.97382 11.9213 2.096C12.4345 2.6082 12.8414 3.21678 13.1186 3.88677C13.3959 4.55675 13.5379 5.27493 13.5367 6C13.5375 6.72501 13.3953 7.44307 13.1181 8.113C12.8409 8.78293 12.4342 9.39156 11.9213 9.904C11.8322 9.98913 11.7609 10.0912 11.7118 10.2042C11.6627 10.3173 11.6366 10.439 11.6352 10.5623C11.6338 10.6855 11.657 10.8078 11.7036 10.9219C11.7501 11.0361 11.8189 11.1398 11.9061 11.2269C11.9932 11.3141 12.0969 11.3829 12.2111 11.4294C12.3252 11.4759 12.4475 11.4992 12.5707 11.4978C12.694 11.4963 12.8157 11.4703 12.9287 11.4212C13.0418 11.3721 13.1439 11.3008 13.229 11.2117C14.6085 9.82803 15.3832 7.95387 15.3832 6C15.3832 4.04614 14.6085 2.17197 13.229 0.788308C13.1446 0.699116 13.0433 0.62765 12.931 0.578092C12.8187 0.528534 12.6976 0.501881 12.5748 0.499692C12.5429 0.498027 12.5108 0.498027 12.4788 0.499692V0.500308ZM3.30591 0.518769C3.10134 0.545901 2.91176 0.640799 2.76745 0.788308C1.38794 2.17197 0.613281 4.04614 0.613281 6C0.613281 7.95387 1.38794 9.82803 2.76745 11.2117C2.85258 11.3008 2.95466 11.3721 3.0677 11.4212C3.18074 11.4703 3.30246 11.4963 3.42571 11.4978C3.54895 11.4992 3.67124 11.4759 3.78538 11.4294C3.89952 11.3829 4.00322 11.3141 4.09037 11.2269C4.17752 11.1398 4.24638 11.0361 4.29289 10.9219C4.3394 10.8078 4.36263 10.6855 4.36121 10.5623C4.35979 10.439 4.33376 10.3173 4.28463 10.2042C4.2355 10.0912 4.16428 9.98913 4.07514 9.904C3.56193 9.3918 3.15502 8.78322 2.87779 8.11323C2.60057 7.44325 2.4585 6.72507 2.45976 6C2.45891 5.27499 2.60116 4.55693 2.87836 3.887C3.15556 3.21707 3.56226 2.60844 4.07514 2.096C4.21468 1.96049 4.30785 1.78436 4.34134 1.59275C4.37484 1.40115 4.34695 1.20385 4.26166 1.02904C4.17636 0.854225 4.03803 0.710821 3.86639 0.619297C3.69476 0.527772 3.4986 0.492804 3.30591 0.519385V0.518769ZM5.65237 2.55754C5.44998 2.5793 5.26046 2.66736 5.1133 2.808C4.66671 3.21146 4.30944 3.70386 4.06441 4.25357C3.81939 4.80328 3.69204 5.39816 3.69053 6C3.69053 7.26031 4.22591 8.40615 5.09422 9.19262C5.18392 9.27468 5.28891 9.33828 5.40319 9.37977C5.51747 9.42126 5.63881 9.43983 5.76026 9.43443C5.88172 9.42903 6.00093 9.39976 6.11108 9.3483C6.22122 9.29683 6.32015 9.22416 6.40222 9.13446C6.48429 9.04476 6.54788 8.93977 6.58937 8.82549C6.63086 8.71121 6.64944 8.58988 6.64404 8.46842C6.63864 8.34696 6.60937 8.22775 6.5579 8.11761C6.50643 8.00746 6.43377 7.90853 6.34407 7.82646C6.08859 7.59593 5.88463 7.3141 5.74551 6.99937C5.60638 6.68464 5.53522 6.3441 5.53668 6C5.53541 5.65578 5.60671 5.31515 5.74593 5.00034C5.88515 4.68552 6.08917 4.40359 6.34468 4.17292C6.49216 4.04463 6.5951 3.87282 6.63867 3.68227C6.68225 3.49172 6.6642 3.29225 6.58715 3.11261C6.51009 2.93297 6.37799 2.78243 6.20989 2.68267C6.04179 2.58292 5.84636 2.5391 5.65176 2.55754H5.65237ZM10.2099 2.55754C10.0268 2.56763 9.85093 2.63201 9.7046 2.74247C9.55826 2.85293 9.44814 3.00447 9.38826 3.17776C9.32839 3.35105 9.32147 3.53825 9.3684 3.71548C9.41533 3.89272 9.51397 4.05197 9.65176 4.17292C9.90742 4.40346 10.1115 4.68537 10.2508 5.00022C10.39 5.31506 10.4612 5.65575 10.4598 6C10.461 6.34422 10.3897 6.68485 10.2505 6.99967C10.1113 7.31448 9.90727 7.59641 9.65176 7.82708C9.54891 7.90389 9.46321 8.00132 9.40013 8.11313C9.33706 8.22494 9.29801 8.34868 9.28546 8.47644C9.27291 8.6042 9.28716 8.73317 9.32727 8.85511C9.36739 8.97706 9.4325 9.0893 9.51845 9.18465C9.60439 9.28001 9.70928 9.35639 9.82642 9.40892C9.94355 9.46145 10.0704 9.48896 10.1987 9.48971C10.3271 9.49046 10.4542 9.46443 10.572 9.41327C10.6897 9.36212 10.7955 9.28696 10.8825 9.19262C11.3293 8.78914 11.6867 8.29667 11.9319 7.74684C12.177 7.19702 12.3044 6.60199 12.3059 6C12.3082 5.39927 12.1845 4.80475 11.9427 4.25482C11.7009 3.70489 11.3464 3.2118 10.9022 2.80738C10.8101 2.72048 10.7011 2.65346 10.582 2.61048C10.4629 2.56749 10.3363 2.54948 10.2099 2.55754ZM7.99822 4.88492C7.77771 4.88505 7.56218 4.95055 7.37888 5.07315C7.19559 5.19575 7.05277 5.36994 6.96846 5.5737C6.88416 5.77747 6.86216 6.00165 6.90526 6.21792C6.94836 6.43418 7.0546 6.63281 7.21058 6.7887C7.36655 6.94458 7.56524 7.05072 7.78152 7.0937C7.99781 7.13667 8.22198 7.11455 8.4257 7.03014C8.62942 6.94572 8.80353 6.8028 8.92603 6.61944C9.04853 6.43608 9.11391 6.22052 9.11391 6C9.11416 5.85342 9.08546 5.70823 9.02948 5.57276C8.9735 5.43728 8.89133 5.31419 8.78768 5.21054C8.68403 5.10689 8.56094 5.02472 8.42547 4.96874C8.28999 4.91276 8.1448 4.88407 7.99822 4.88431V4.88492Z" fill="#F2590D"/>
</svg>
