<svg width="1386" height="540" viewBox="0 0 1386 540" fill="none" xmlns="http://www.w3.org/2000/svg">
<path d="M1109.07 400.695C930.992 259.837 683.069 366.777 483.788 282.412C71.962 108.065 -21.7465 348.908 3.92022 400.695C25.0425 443.313 76.7064 509.341 215.989 531.319C356.619 553.51 586.783 531.233 1009.86 486.343C1125.46 474.078 1146.49 430.287 1109.07 400.695Z" fill="#C6FFE7"/>
<line y1="-1" x2="50" y2="-1" transform="matrix(-1 -5.6986e-08 -1.34116e-07 1 97 421.664)" stroke="#02826D" stroke-width="2"/>
<line y1="-1" x2="30" y2="-1" transform="matrix(-1 -5.6986e-08 -1.34116e-07 1 477 421.664)" stroke="#02826D" stroke-width="2"/>
<line y1="-1" x2="220" y2="-1" transform="matrix(-1 0 0 1 727 421.664)" stroke="#02826D" stroke-width="2"/>
<path d="M1077 420.508L1017 420.508" stroke="#02826D" stroke-width="2"/>
<path d="M1178.66 32.1303C1074.47 38.7749 1148.11 65.0115 1031.75 134.003C888.119 245.465 1122.37 240.533 1279.28 228.507C1421.93 213.462 1346.52 137.973 1326.18 112.471C1284.47 60.179 1268.87 37.1022 1178.66 32.1303Z" fill="#C6FFE7"/>
<path d="M303.824 128.724L307.66 158.131L308.276 163.135L308.418 164.136L309.508 172.762L309.792 174.955L309.981 176.337L311.686 189.396L313.817 205.935H315.144L381.213 204.123L385.428 203.981L385.807 197.832L386.849 179.912L380.881 178.577L343.134 169.903L332.667 116.713L331.625 111.375L303.824 128.724Z" fill="#02826D"/>
<path opacity="0.1" d="M303.824 216.191L311.355 215.81C312.586 212.76 313.865 209.471 315.144 205.944L381.45 204.133V206.469H387.228L389.691 197.842H380.929C359.806 197.842 341.287 195.507 329.352 189.025C332.201 170.98 332.821 152.65 331.199 134.453L330.347 125.302L311.402 189.454L303.824 216.191Z" fill="#1D1D1B"/>
<path d="M244.962 276.812C245.159 279.743 245.554 282.657 246.146 285.534C246.649 287.872 247.281 290.179 248.041 292.445C248.36 293.693 248.871 294.883 249.556 295.972H251.546L257.561 295.495C262.297 295.066 268.643 294.399 276.221 293.493C281.573 292.826 287.493 292.111 293.697 291.253H294.976L299.097 290.681H299.665L305.064 289.871C313.968 288.489 323.156 286.916 332.013 285.105C335.281 284.438 338.454 283.675 341.485 282.96C363.224 277.861 380.748 271.379 382.453 263.419C382.453 262.704 384.916 258.081 385.01 257.271C385.564 253.112 385.404 248.888 384.537 244.784C382.642 235.919 377.48 228.484 369.571 228.055C367.25 228.055 335.944 229.008 304.117 232.535C297.439 233.25 290.666 234.108 284.225 235.061L278.494 235.966H278.21H277.358C275.321 236.3 273.285 236.634 271.39 237.015L267.317 237.825L261.918 238.683L257.466 239.398H256.803C256.648 239.35 256.483 239.35 256.329 239.398C255.477 240.065 255.524 242.496 254.861 245.451C254.37 247.908 253.334 250.221 251.83 252.219C251.702 252.447 251.543 252.656 251.356 252.838C249.765 254.735 248.457 256.854 247.473 259.13C247.063 260.059 246.715 261.014 246.431 261.989C245.023 266.794 244.525 271.822 244.962 276.812Z" fill="#02826D"/>
<path d="M327.602 418.515L349.625 418.896L407.406 419.897C407.406 419.897 411.384 407.839 404.564 403.549C397.744 399.26 387.703 399.451 379.273 396.448C376.205 395.437 373.371 393.816 370.937 391.682C369.615 390.47 368.17 389.399 366.627 388.488C362.441 386.069 357.719 384.742 352.893 384.628C351.045 384.628 349.151 384.628 347.399 384.628L344.178 385.105C340.577 385.836 337.032 386.823 333.569 388.06C332.385 388.393 330.017 391.253 328.833 399.88C328.225 404.174 327.924 408.506 327.933 412.843L327.602 418.515Z" fill="#3C3C3B"/>
<path d="M332.391 396.686L342.858 396.543H345.083L346.362 396.448L365.875 396.21L366.633 388.393L367.438 379.337L367.58 378.098L369.001 363.037L343.094 358.939L338.263 358.176L337.885 358.081L337.222 357.985L335.185 374.142L334.664 378.527L333.48 388.012L332.391 396.686Z" fill="#3C3C3B"/>
<path d="M330.073 369.284C330.357 371 332.299 372.668 335.188 374.05L337.556 375.194C340.616 376.426 343.789 377.352 347.029 377.958L349.113 378.34L351.291 378.721C356.407 379.591 361.638 379.527 366.731 378.53H367.394C369.327 378.192 371.107 377.259 372.49 375.859C373.873 374.458 374.79 372.661 375.114 370.714L386.67 256.613C386.662 254.841 386.52 253.073 386.244 251.323C386.007 249.076 385.398 246.886 384.444 244.841C380.655 237.215 371.704 238.359 355.791 236.786C355.791 236.786 336.562 258.377 336.562 264.525C335.321 267.961 334.324 271.48 333.578 275.058C332.868 278.204 332.299 281.635 331.826 285.21C328.842 307.42 329.363 338.114 330.073 369.284Z" fill="#02826D"/>
<path d="M121.152 389.723L121.673 397.587L122.952 416.651C122.952 416.651 133.608 418.701 138.439 412.6C143.27 406.5 139.197 400.828 142.512 393.25C143.868 390.031 145.867 387.127 148.385 384.718C149.68 383.556 150.868 382.28 151.937 380.905C153.567 378.669 154.845 376.193 155.726 373.566C156.867 369.996 157.396 366.257 157.289 362.508C157.313 362.191 157.313 361.872 157.289 361.555C157.123 357.324 156.6 353.115 155.726 348.973C155.395 347.4 150.99 343.015 132.661 340.87L127.262 340.394L125.178 357.17L124.799 360.507L121.152 389.723Z" fill="#3C3C3B"/>
<path d="M144.648 379.519L151.942 381.044L159.851 382.617L164.872 383.666L171.976 385.143L175.812 385.906L181.922 363.124L182.253 361.837L183.864 355.784L171.029 352.734L167.95 352.019L155.731 349.112L147.537 347.205L146.306 360.931L146.211 361.932L145.122 374.086L144.648 379.519Z" fill="#3C3C3B"/>
<path d="M159.847 382.676C159.801 383.295 159.801 383.916 159.847 384.535C160.558 389.301 163.352 398.833 167.662 399.643C215.686 409.176 295.538 436.581 299.232 393.162V392.828C299.279 392.321 299.279 391.81 299.232 391.303C299.02 388.918 298.058 386.664 296.485 384.869C294.469 382.512 292.046 380.542 289.334 379.054L287.486 378.005C277.956 373.226 267.663 370.177 257.08 368.997L255.896 368.425L252.581 366.9C249.36 365.47 246.092 364.088 242.777 362.801C228.812 357.39 214.269 353.632 199.441 351.601C191.39 350.41 182.391 349.456 172.209 348.789C170.424 349.244 168.891 350.393 167.946 351.982C167.12 353.126 166.391 354.338 165.767 355.605C164.354 358.357 163.182 361.227 162.263 364.184C162.263 364.613 162.263 364.994 161.931 365.423C161.135 368.153 160.549 370.942 160.179 373.763C159.722 376.711 159.611 379.702 159.847 382.676Z" fill="#02826D"/>
<path d="M211.914 145.844C211.914 157.235 213.003 169.293 214.282 180.827C216.466 200.278 219.627 219.606 223.754 238.735L239.667 239.164L256.291 239.498C261.312 239.498 266.427 239.498 271.4 239.498H284.235H290.581C293.751 239.486 296.917 239.247 300.053 238.783C300.053 238.783 301.048 237.687 302.09 235.733C302.658 234.732 303.321 233.493 303.984 232.063C304.647 230.633 304.837 230.395 305.216 229.489C306.921 225.819 308.957 221.196 311.136 215.81C312.367 212.76 313.646 209.471 314.925 205.944C314.925 205.277 315.446 204.61 315.683 203.895C323.172 181.32 328.361 158.037 331.17 134.405C331.911 128.778 332.338 123.113 332.449 117.438V116.723C332.39 114.914 332.038 113.127 331.407 111.432C330.658 109.348 329.605 107.389 328.281 105.618C328.093 105.407 327.919 105.184 327.76 104.951L327.191 104.283V104.045L326.055 102.71L324.823 101.519L322.597 99.5172L321.792 98.85C321.645 98.7651 321.516 98.6517 321.413 98.5163L320.892 98.135L318.951 96.7052L318.288 96.2286C317.104 95.466 315.919 94.6558 314.641 93.9409L313.362 93.1783L311.136 91.9391L310.473 91.6055L309.999 91.3672L309.431 91.1289C308.94 90.8462 308.434 90.5917 307.915 90.3663L307.063 89.9373L306.21 89.556C303.842 88.4598 301.474 87.459 299.201 86.5534C292.428 83.932 286.224 82.1209 282.482 81.0724L278.646 80.1191C276.273 80.1914 273.911 80.4785 271.589 80.977C269.505 81.3107 266.853 81.7873 264.58 82.3116C254.113 84.361 241.467 87.316 239.004 88.2692H238.72C233.751 90.2863 228.991 92.7927 224.512 95.752C222.991 96.7246 221.659 97.9683 220.581 99.4219C215.418 107.048 213.003 119.44 212.292 133.738C211.914 137.598 211.866 141.65 211.914 145.844Z" fill="#02826D"/>
<path opacity="0.1" d="M263.996 270.194C268.496 277.696 272.575 285.445 276.215 293.405C285.642 314.614 292.848 336.752 297.717 359.463L293.692 291.308C305.958 289.592 319.362 287.447 332.007 284.874C328.929 307.56 329.355 338.254 330.065 369.472C330.35 371.14 332.291 372.808 335.18 374.238L334.659 378.528L333.57 388.06C331.96 388.584 327.934 393.922 327.792 412.891V418.611L349.815 418.992C347.829 415.631 346.24 412.048 345.079 408.316C343.912 404.529 343.259 400.601 343.137 396.639C343.026 392.828 343.473 389.022 344.463 385.343C345.154 382.835 346.14 380.419 347.4 378.146C347.669 377.58 347.986 377.038 348.347 376.526C347.509 375.809 346.825 374.928 346.336 373.937C345.848 372.945 345.565 371.864 345.505 370.759C344.747 366.851 344.037 362.942 343.374 359.034L342.095 352.076C339.168 337.694 337.692 323.051 337.691 308.37C337.863 299.652 339.266 291.002 341.858 282.681C343.645 276.99 346.194 271.57 349.436 266.572C339.945 273.676 328.443 277.534 316.615 277.581C314.407 277.681 312.202 277.341 310.126 276.58C307.82 275.45 305.884 273.677 304.549 271.472C303.214 269.267 302.536 266.722 302.596 264.141C302.772 259.122 303.864 254.178 305.816 249.557C301.672 253.822 296.991 257.524 291.892 260.566C283.396 265.771 273.878 269.055 263.996 270.194Z" fill="#1D1D1B"/>
<path opacity="0.1" d="M278.252 193.841C280.762 192.03 282.988 190.695 284.219 189.79C292.359 184.544 300.95 180.046 309.889 176.349L313.347 174.967L309.416 172.775L300.843 168.009L292.129 163.242L283.556 158.476L280.194 156.618L277.257 154.997L229.375 146.704L251.208 121.158L253.245 118.822L212.041 133.55L194.754 139.698C194.375 152.805 194.233 161.956 194.754 174.3C201.129 176.207 207.635 177.641 214.219 178.589C217.724 209.521 223.976 238.595 224.023 238.642C224.023 239.548 223.549 240.453 223.36 241.311C217.203 266.524 221.939 283.73 230.796 297.647C228.477 277.648 231.638 257.392 239.936 239.071C240.978 236.879 242.068 234.686 243.252 232.542C250.261 219.768 266.933 203.278 278.441 193.745L278.252 193.841Z" fill="#1D1D1B"/>
<path d="M230.614 297.74C232.811 319.753 236.884 341.534 242.786 362.845C243.78 366.229 244.775 369.375 245.77 372.378C246.792 375.224 248.01 377.995 249.416 380.671C250.042 381.496 250.876 382.138 251.832 382.529C253.681 383.206 255.458 384.068 257.136 385.103C257.315 385.607 257.554 386.087 257.847 386.533C258.564 387.552 259.488 388.406 260.557 389.038C261.627 389.671 262.818 390.068 264.051 390.203C265.096 390.413 266.159 390.525 267.224 390.536C272.447 391.038 277.604 392.076 282.617 393.634C290.1 395.541 296.825 397.066 298.909 393.348C299.129 392.949 299.273 392.513 299.335 392.062C299.385 391.81 299.385 391.551 299.335 391.299C299.386 390.935 299.386 390.566 299.335 390.203V387.867V387.2L297.725 359.461V359.08L297.441 353.742L297.062 347.451V345.83V342.78V340.826L295.689 317.71L294.126 291.306L292.8 268.667V267.047L292.421 260.898V259.23L292.089 253.082L291.331 239.784V239.355C289.822 238.57 288.235 237.947 286.595 237.497L285.174 237.068L278.591 235.543H278.307H277.454C275.56 235.209 273.523 234.828 271.487 234.589C269.45 234.351 266.182 233.874 263.388 233.588C256.639 232.892 249.852 232.637 243.07 232.826C236.927 232.476 230.805 233.811 225.357 236.686C224.647 237.27 224.12 238.048 223.841 238.926C223.841 239.832 223.368 240.738 223.178 241.595C217.021 266.618 221.757 283.823 230.614 297.74Z" fill="#02826D"/>
<path d="M271.098 81.223C275.834 91.8991 290.042 105.292 304.961 98.8576L309.176 90.8982L313.912 82.0809L320.022 70.5945L286.206 51.2441L278.155 67.02L271.145 80.7464L271.098 81.223Z" fill="#FFC990"/>
<path d="M326.086 87.794C323.163 89.2829 319.861 89.8478 316.613 89.4144L311.072 87.5556C308.697 86.5848 306.551 85.1235 304.773 83.2661C299.042 77.4992 282.939 58.4824 283.792 53.3826C284.644 48.2829 280.903 38.1787 282.229 30.7913C291.701 -0.998671 310.883 6.10283 322.723 9.24847C327.609 10.6815 332.016 13.4259 335.47 17.1875C338.924 20.949 341.296 25.5858 342.331 30.6006C343.13 34.131 343.37 37.7663 343.041 41.372C342.841 43.5698 342.493 45.7513 341.999 47.9016C341.219 49.0986 340.365 50.2448 339.442 51.3332L339.726 53.192L341.052 61.5803C341.289 63.7251 341.81 67.4427 338.731 67.824H333.569C332.953 69.921 331.106 79.8822 331.106 79.8822C330.482 83.0615 328.689 85.8869 326.086 87.794Z" fill="#FFC990"/>
<path d="M282.382 60.96C302.652 71.3978 297.111 43.4207 297.111 43.4207C297.111 43.4207 299.905 52.4763 301.042 55.1453C304.547 56.0032 304.547 56.0033 307.815 56.6228C316.245 29.6943 314.208 16.0633 342.389 30.3616C353.329 16.0633 329.696 6.53103 316.103 3.19476C300.095 -0.904096 288.207 5.62547 282.618 21.2583C279.35 30.5999 277.077 35.366 282.382 60.96Z" fill="#3C3C3B"/>
<path d="M346.022 35.971L319.586 32.9734L294.105 30.0437L280.366 27.9775L283.079 16.4245C284.786 11.7152 287.925 7.62218 292.079 4.68865C296.234 1.75513 301.207 0.119885 306.34 0L322.576 0.0904932C336.532 0.407219 346.395 12.5785 346.395 26.2883V27.5099V30.6772L346.022 35.971Z" fill="#006456"/>
<path d="M372.207 39.6252C370.198 41.4696 367.745 42.7888 365.075 43.4606C362.405 44.1325 359.605 44.1352 356.933 43.4687C352.135 42.7212 347.389 41.6792 342.724 40.3487C336.985 38.8565 320.647 33.2451 319.583 32.9738C328.157 30.8023 337.561 30.3036 346.391 30.9783C346.391 30.9783 351.657 32.8425 357.813 34.6965C362.748 35.9301 367.564 37.5792 372.207 39.6252Z" fill="#006456"/>
<path d="M292.611 46.0415C291.853 51.1889 295.263 57.7662 298.626 58.2428C301.988 58.7194 302.178 54.5252 302.983 49.3778C303.551 45.9939 305.114 41.2754 301.609 39.8456C298.105 38.4158 293.7 38.4634 292.611 46.0415Z" fill="#FFC990"/>
<path d="M407.344 196.092C409.972 190.895 413.744 186.624 418.876 183.852L439.246 192.917L438.579 193.224C440.736 197.628 441.507 198.345 445.668 199.37C449.829 200.394 453.014 201.418 456.456 202.238C457.127 202.395 457.746 202.72 458.256 203.182C458.766 203.644 459.15 204.228 459.371 204.879C459.592 205.53 459.643 206.226 459.52 206.902C459.396 207.578 459.102 208.211 458.665 208.742C457.527 210.37 455.938 211.634 454.093 212.378C449.564 213.715 444.813 214.133 440.12 213.608C434.899 213.565 429.711 212.789 424.708 211.303C419.082 208.992 413.875 205.773 409.296 201.777C408.361 201.197 407.612 200.362 407.139 199.37C406.845 198.284 406.917 197.132 407.344 196.092Z" fill="#006456"/>
<path d="M381.145 174.859V178.536V197.885V206.834H387.024H408.565H416.853C417.816 203.684 418.446 200.441 418.733 197.159C419.158 193.158 418.629 189.112 417.191 185.356L381.145 174.859Z" fill="#006456"/>
<path d="M258.608 163.188L543.203 217.57L541.735 223.194L256.855 173.96L258.608 163.188Z" fill="#494949"/>
<path d="M253.064 173.915L255.148 161.333C255.267 160.922 255.466 160.538 255.734 160.205C256.001 159.872 256.332 159.595 256.706 159.392C257.081 159.188 257.491 159.061 257.915 159.017C258.338 158.974 258.766 159.016 259.174 159.14L315.202 169.435C316.073 169.508 316.883 169.915 317.465 170.571C318.046 171.227 318.355 172.083 318.328 172.962L316.244 185.497C315.993 186.331 315.422 187.03 314.658 187.441C313.895 187.853 313 187.942 312.171 187.689L256.19 177.442C254.059 177.061 252.638 175.488 253.064 173.915Z" fill="#3C3C3B"/>
<path d="M517.196 218.53L518.286 213.383C518.414 213.03 518.673 212.739 519.007 212.571C519.341 212.403 519.727 212.369 520.085 212.477L544.524 217.243C545.376 217.243 545.992 218.054 545.85 218.721L544.761 223.868C544.614 224.206 544.351 224.479 544.02 224.636C543.69 224.794 543.313 224.826 542.961 224.726L518.522 220.198C517.67 219.817 517.054 219.15 517.196 218.53Z" fill="#3C3C3B"/>
<path d="M420.683 183.187C423.914 181.898 427.414 181.439 430.865 181.852C438.727 183.282 445.074 190.956 452.746 193.291C454.12 193.672 455.73 194.006 456.393 195.293C456.675 195.886 456.749 196.557 456.602 197.198C456.456 197.838 456.099 198.41 455.588 198.82C454.549 199.626 453.25 200.017 451.941 199.916C449.19 199.563 446.525 198.706 444.079 197.39C441.31 196.11 438.26 195.568 435.223 195.817C422.482 196.484 419.439 190.62 418.871 183.852L420.683 183.187Z" fill="#006456"/>
<path d="M165.254 152.143C164.354 160.913 175.484 168.205 190.592 173.162C196.793 175.181 203.122 176.773 209.537 177.928C219.823 179.871 230.287 180.702 240.748 180.406H243.306L243.543 175.64L244.585 156.242L242.974 155.909C229.997 153.144 218.157 150.189 212.473 143.088L252.447 122.594L253.725 121.926L254.673 120.496C264.95 104.816 261.303 94.1399 239.185 90.041C235.458 91.2528 231.805 92.6851 228.245 94.3305C203.57 105.436 164.023 131.077 165.254 152.143Z" fill="#02826D"/>
<path d="M309.82 166.281C309.299 164.946 307.594 164.613 306.126 164.565C303.847 164.57 301.58 164.233 299.4 163.564C297.99 162.958 296.615 162.274 295.28 161.515C292.793 160.339 289.67 159.99 286.969 159.488L294.38 168.521C294.733 169.129 295.199 169.663 295.753 170.094C296.849 170.811 298.142 171.161 299.448 171.095C302.127 171.26 304.809 170.837 307.31 169.855C308.095 169.554 308.794 169.063 309.346 168.426C309.587 168.131 309.755 167.783 309.838 167.41C309.92 167.038 309.914 166.651 309.82 166.281Z" fill="#006456"/>
<path d="M278.875 159.886L238.68 154.875L236.18 183.737C248.339 184.501 260.436 181.428 270.894 174.918L278.875 159.886Z" fill="#006456"/>
<path d="M271.521 182.283C269.21 183.498 266.286 184.608 264.4 182.759C263.729 181.802 263.278 180.675 263.089 179.477C262.9 178.279 262.978 177.047 263.315 175.891C263.692 172.879 264.117 169.815 264.541 166.751C264.966 163.687 265.673 160.412 268.126 159.302C269.173 158.91 270.284 158.784 271.38 158.932L285.104 159.461C286.185 159.345 287.275 159.52 288.284 159.97C289.293 160.42 290.192 161.133 290.906 162.049C292.651 163.846 294.301 165.695 295.905 167.332C296.239 167.665 296.497 168.081 296.66 168.547C296.777 169.121 296.777 169.717 296.66 170.291C296.282 173.144 295.905 175.996 295.48 178.849C295.436 181.241 294.615 183.533 293.169 185.295C291.519 186.827 288.453 186.193 288.17 183.868C287.764 184.934 287.114 185.862 286.286 186.557C285.458 187.253 284.481 187.692 283.454 187.831C282.472 187.934 281.494 187.597 280.734 186.894C279.974 186.191 279.493 185.179 279.398 184.08C279.014 185.114 278.317 185.963 277.429 186.478C276.541 186.992 275.52 187.14 274.544 186.893C273.569 186.647 272.703 186.023 272.098 185.132C271.493 184.24 271.189 183.138 271.238 182.019L271.521 182.283Z" fill="#006456"/>
<path opacity="0.1" d="M121.691 400.591L122.97 419.655C122.97 419.655 133.627 421.752 138.457 415.604C143.288 409.456 139.215 403.832 142.53 396.254C143.887 393.023 145.904 390.116 148.451 387.722C149.727 386.571 150.885 385.294 151.908 383.91L159.865 385.53C159.816 386.149 159.816 386.77 159.865 387.389C160.575 392.155 163.322 401.687 167.632 402.497C174.784 403.927 182.646 405.786 190.887 407.692L199.506 409.742L205.948 411.219L215.42 413.316H216.272L221.387 414.365C229.912 416.128 238.39 417.606 246.394 418.559L253.214 419.226C256.624 419.512 259.608 419.56 262.024 419.56C265.955 419.56 268.796 419.56 269.507 419.56C271.638 419.56 273.485 419.226 274.953 419.036L280.021 417.987C282.274 417.469 284.454 416.668 286.509 415.604C287.599 415.032 288.783 414.317 288.83 414.27L291.435 412.459L293.614 410.361C294.297 409.61 294.93 408.814 295.508 407.978C296.132 407.044 296.671 406.055 297.118 405.023C291.292 408.526 284.867 410.902 278.174 412.03C272.061 413.075 265.816 413.075 259.703 412.03L239.385 409.075C220.961 406.263 206.563 404.309 195.765 403.165C190.714 402.764 185.836 401.128 181.556 398.399C177.66 395.51 174.362 391.883 171.847 387.722C170.062 384.933 168.084 382.273 165.927 379.763C164.849 378.434 163.468 377.388 161.901 376.713C161.305 376.497 160.685 376.353 160.054 376.284C159.107 376.284 158.16 376.284 157.213 376.284H155.602H148.166C147.111 376.189 146.049 376.189 144.993 376.284C144.247 376.367 143.524 376.594 142.862 376.951C139.547 378.524 138.126 382.575 136.705 385.911C133.407 392.308 128.14 397.458 121.691 400.591Z" fill="#1D1D1B"/>
<path d="M577.881 322.606C559.931 322.082 542.929 310.023 534.925 287.67C525.452 261.647 535.256 238.579 544.965 221.421C550.601 211.46 599.147 231.24 608.098 262.172C619.56 301.635 596.4 323.178 577.881 322.606Z" stroke="#3C3C3B" stroke-width="4" stroke-miterlimit="10"/>
<path opacity="0.1" d="M898.966 417.205C926.567 417.205 948.942 414.918 948.942 412.097C948.942 409.275 926.567 406.988 898.966 406.988C871.365 406.988 848.99 409.275 848.99 412.097C848.99 414.918 871.365 417.205 898.966 417.205Z" fill="#39332E"/>
<path opacity="0.1" d="M799.558 418.639C827.159 418.639 849.534 416.352 849.534 413.53C849.534 410.709 827.159 408.422 799.558 408.422C771.957 408.422 749.582 410.709 749.582 413.53C749.582 416.352 771.957 418.639 799.558 418.639Z" fill="#39332E"/>
<path d="M831.359 407.614C838.035 409.496 836.185 403.402 835.328 399.727C834.471 396.053 828.788 370.152 821.797 368.897C823.85 367.026 826.277 365.604 828.919 364.724C831.56 363.844 834.359 363.526 837.133 363.789C842.289 363.839 847.428 364.409 852.468 365.492C849.672 366.881 846.605 377.142 849.311 392.378C851.386 403.94 848.724 413.26 842.41 415.187C836.273 415.539 830.116 415.374 824.007 414.694C818.279 414.47 824.684 405.687 831.359 407.614Z" fill="#5B5B5B"/>
<path d="M763.552 315.7C763.326 319.554 760.259 328.516 757.057 328.337C753.854 328.158 751.734 318.927 751.96 314.894C751.91 313.212 752.524 311.577 753.67 310.339C754.815 309.1 756.403 308.354 758.094 308.262C758.945 308.393 759.761 308.689 760.496 309.134C761.231 309.579 761.87 310.164 762.377 310.855C762.884 311.546 763.249 312.33 763.451 313.162C763.652 313.993 763.686 314.856 763.552 315.7Z" fill="#636361"/>
<g style="mix-blend-mode:overlay" opacity="0.08">
<path d="M763.552 315.7C763.326 319.554 760.259 328.516 757.057 328.337C753.854 328.158 751.734 318.927 751.96 314.894C751.91 313.212 752.524 311.577 753.67 310.339C754.815 309.1 756.403 308.354 758.094 308.262C758.945 308.393 759.761 308.689 760.496 309.134C761.231 309.579 761.87 310.164 762.377 310.855C762.884 311.546 763.249 312.33 763.451 313.162C763.652 313.993 763.686 314.856 763.552 315.7Z" fill="black"/>
</g>
<path d="M735.181 362.268C742.849 349.81 738.068 344.971 744.202 337.129C750.336 329.287 752.005 323.192 761.703 318.039C778.887 309.077 796.704 318.039 816.369 305.671C836.035 293.303 853.084 282.907 880.778 292.228C898.044 298.317 913.535 308.536 925.883 321.982C925.883 321.982 940.993 320.011 948.029 344.836C955.066 369.662 970.582 381.492 979.016 385.794C987.451 390.096 1003.82 402.777 986.504 407.482C969.183 412.188 938.828 396.593 933.325 381.312C927.823 366.032 923.538 357.338 916.862 357.428C916.862 357.428 909.149 368.183 925.883 380.192C925.883 380.192 930.394 381.761 922.906 401.478C916.546 417.923 915.554 413.577 901.211 413.756C901.211 413.756 899.858 413.756 899.542 412.636C898.911 410.619 900.128 407.034 908.247 406.945C908.247 406.945 914.426 398.654 911.179 394.801C908.767 392.284 905.604 390.603 902.158 390.006C902.72 392.687 902.642 395.463 901.929 398.109C901.216 400.755 899.889 403.198 898.054 405.242C891.739 412.367 890.431 413.935 867.653 413.308C867.653 413.308 864.992 413.308 864.541 411.65C863.729 408.692 864.541 403.718 876.719 406.496C878.884 406.989 884.342 402.419 882.447 399.64C880.553 396.862 872.84 374.143 856.422 370.647C856.422 370.647 827.285 364.284 819.887 375.129C818.517 377.16 816.913 379.024 815.106 380.685C807.67 386.987 799.836 392.809 791.652 398.117C783.488 403.449 783.668 412.591 775.595 412.949C767.521 413.308 759.898 413.98 758.455 412.232C757.012 410.485 755.117 406.093 765.762 405.869C777.985 405.6 787.818 373.202 781.819 363.298C774.079 366.977 765.707 369.167 757.147 369.751C757.147 369.751 752.637 377.952 734.595 374.591C734.73 374.591 727.513 374.68 735.181 362.268Z" fill="#636361"/>
<path d="M969.592 379.85C966.994 377.677 964.566 375.31 962.33 372.77C958.927 373.069 955.677 374.311 952.949 376.354C947.444 380.573 943.586 386.561 942.033 393.293C945.705 396.446 949.731 399.167 954.031 401.404C954.058 397.511 954.791 393.656 956.196 390.022C957.478 387.408 959.357 385.127 961.682 383.361C964.008 381.595 966.717 380.393 969.592 379.85Z" fill="#3C3C3B"/>
<path d="M942.851 355.819C945.566 355.174 948.324 354.725 951.105 354.475C949.868 351.549 948.799 348.557 947.902 345.512C942.739 345.474 937.692 347.041 933.469 349.994C929.684 353.754 926.868 358.365 925.26 363.437C926.282 365.043 927.186 366.721 927.966 368.456C929.411 365.427 931.484 362.735 934.049 360.557C936.614 358.38 939.614 356.765 942.851 355.819Z" fill="#3C3C3B"/>
<path d="M986.245 407.578C1003.57 403.097 987.373 390.236 978.758 385.89L977.901 385.441C974.457 385.836 971.263 387.422 968.88 389.923C965.948 393.373 967.076 401.26 968.564 407.22C974.333 408.821 980.416 408.944 986.245 407.578Z" fill="#3C3C3B"/>
<path d="M934.963 385.218C936.993 380.468 941.413 371.774 948.494 369.668C951.829 368.599 955.321 368.099 958.823 368.189C956.861 365.419 955.097 362.514 953.546 359.496C949.326 359.591 945.186 360.665 941.458 362.633C937.082 366.184 933.528 370.632 931.039 375.673C931.716 377.465 932.437 379.392 933.159 381.409C933.615 382.742 934.22 384.019 934.963 385.218Z" fill="#3C3C3B"/>
<path d="M772.442 314.456C771.359 318.13 766.262 326.151 763.195 325.255C760.128 324.359 760.218 314.904 761.301 311.184C761.39 310.327 761.668 309.5 762.116 308.761C762.563 308.022 763.169 307.391 763.89 306.911C764.611 306.431 765.429 306.115 766.287 305.985C767.145 305.855 768.021 305.914 768.853 306.159C769.685 306.403 770.453 306.826 771.101 307.399C771.75 307.971 772.264 308.679 772.607 309.471C772.949 310.263 773.112 311.12 773.084 311.981C773.055 312.843 772.836 313.688 772.442 314.456Z" fill="#636361"/>
<g style="mix-blend-mode:overlay" opacity="0.08">
<path d="M993.594 402.833C993.594 402.833 959.901 397.053 946.595 375.946C939.385 364.19 931.32 352.972 922.464 342.383C922.464 342.383 923.005 346.864 916.42 357.529C923.095 357.529 927.38 366.178 932.883 381.413C938.386 396.649 968.696 412.288 986.061 407.583C990.527 406.508 992.782 404.76 993.594 402.833Z" fill="black"/>
</g>
<path d="M751.603 360.304C749.724 358.796 747.555 357.684 745.228 357.037C742.902 356.39 740.467 356.22 738.072 356.54C737.276 358.538 736.294 360.458 735.14 362.276C727.472 374.688 734.689 374.599 734.689 374.599C752.731 377.96 757.241 369.759 757.241 369.759C756.45 366.081 754.47 362.761 751.603 360.304Z" fill="#C4C4C4"/>
<path d="M729.145 370.236C729.145 369.026 730.092 365.038 732.798 366.741C735.504 368.444 736.857 373.687 734.738 374.583C733.426 374.69 732.122 374.302 731.085 373.496C730.049 372.691 729.356 371.527 729.145 370.236Z" fill="#3C3C3B"/>
<path d="M765.278 349.626C762.887 349.044 754.678 349.626 751.476 346.624C748.273 343.622 745.206 342.86 742.455 346.265C741.693 347.234 740.88 348.161 740.019 349.044C739.571 352.323 738.613 355.513 737.178 358.499C738.823 361.101 741.166 363.196 743.943 364.548C747.806 365.389 751.809 365.367 755.663 364.484C759.516 363.6 763.124 361.878 766.225 359.44C773.216 352.942 767.668 350.209 765.278 349.626Z" fill="#3C3C3B"/>
<path d="M748.624 354.923C748.808 354.127 748.309 353.333 747.508 353.149C746.707 352.966 745.908 353.462 745.723 354.258C745.538 355.054 746.038 355.848 746.839 356.031C747.64 356.215 748.439 355.718 748.624 354.923Z" fill="#939393"/>
<g style="mix-blend-mode:overlay" opacity="0.08">
<path d="M795.169 337.668C795.168 340.048 794.911 342.422 794.403 344.748C788.9 361.015 781.773 363.076 781.773 363.076C782.005 363.461 782.201 363.866 782.36 364.286C782.477 364.53 782.568 364.785 782.63 365.048C782.63 365.048 782.63 365.406 782.856 365.63L783.127 366.75C783.127 366.75 783.127 366.75 783.127 367.109C783.127 367.467 783.127 367.96 783.127 368.409C783.105 368.617 783.105 368.827 783.127 369.036C794.764 363.614 797.65 349.991 795.169 337.668Z" fill="black"/>
</g>
<path opacity="0.1" d="M1169.24 183.951C1149.45 183.951 1133.41 182.279 1133.41 180.217C1133.41 178.156 1149.45 176.484 1169.24 176.484C1189.03 176.484 1205.07 178.156 1205.07 180.217C1205.07 182.279 1189.03 183.951 1169.24 183.951Z" fill="#39332E"/>
<path opacity="0.1" d="M1240.51 184.997C1220.72 184.997 1204.68 183.326 1204.68 181.264C1204.68 179.203 1220.72 177.531 1240.51 177.531C1260.3 177.531 1276.34 179.203 1276.34 181.264C1276.34 183.326 1260.3 184.997 1240.51 184.997Z" fill="#39332E"/>
<path d="M1217.72 176.943C1212.93 178.319 1214.25 173.865 1214.87 171.18C1215.48 168.495 1219.56 149.567 1224.57 148.65C1223.1 147.283 1221.36 146.244 1219.47 145.601C1217.57 144.958 1215.56 144.725 1213.58 144.917C1209.88 144.953 1206.19 145.37 1202.58 146.161C1204.59 147.176 1206.78 154.675 1204.84 165.809C1203.36 174.258 1205.26 181.069 1209.79 182.477C1214.19 182.735 1218.61 182.614 1222.99 182.117C1227.09 181.953 1222.5 175.535 1217.72 176.943Z" fill="#5B5B5B"/>
<path d="M1266.33 109.772C1266.5 112.588 1268.69 119.137 1270.99 119.006C1273.29 118.875 1274.81 112.13 1274.64 109.182C1274.68 107.953 1274.24 106.759 1273.42 105.854C1272.6 104.948 1271.46 104.404 1270.25 104.336C1269.64 104.432 1269.05 104.648 1268.52 104.974C1268 105.299 1267.54 105.726 1267.18 106.231C1266.81 106.736 1266.55 107.309 1266.41 107.917C1266.26 108.524 1266.24 109.155 1266.33 109.772Z" fill="#636361"/>
<g style="mix-blend-mode:overlay" opacity="0.08">
<path d="M1266.33 109.772C1266.5 112.588 1268.69 119.137 1270.99 119.006C1273.29 118.875 1274.81 112.13 1274.64 109.182C1274.68 107.953 1274.24 106.759 1273.42 105.854C1272.6 104.948 1271.46 104.404 1270.25 104.336C1269.64 104.432 1269.05 104.648 1268.52 104.974C1268 105.299 1267.54 105.726 1267.18 106.231C1266.81 106.736 1266.55 107.309 1266.41 107.917C1266.26 108.524 1266.24 109.155 1266.33 109.772Z" fill="black"/>
</g>
<path d="M1286.67 143.804C1281.17 134.701 1284.6 131.164 1280.2 125.433C1275.8 119.703 1274.61 115.249 1267.65 111.483C1255.33 104.934 1242.56 111.483 1228.46 102.445C1214.36 93.4072 1202.14 85.81 1182.28 92.6213C1169.9 97.0711 1158.79 104.539 1149.94 114.365C1149.94 114.365 1139.11 112.924 1134.06 131.066C1129.02 149.208 1117.89 157.853 1111.85 160.996C1105.8 164.14 1094.06 173.407 1106.48 176.846C1118.9 180.284 1140.66 168.888 1144.6 157.722C1148.55 146.555 1151.62 140.202 1156.41 140.268C1156.41 140.268 1161.94 148.127 1149.94 156.903C1149.94 156.903 1146.71 158.049 1152.07 172.458C1156.63 184.476 1157.35 181.299 1167.63 181.43C1167.63 181.43 1168.6 181.43 1168.83 180.612C1169.28 179.138 1168.41 176.518 1162.59 176.453C1162.59 176.453 1158.15 170.395 1160.48 167.579C1162.21 165.739 1164.48 164.511 1166.95 164.075C1166.55 166.034 1166.6 168.062 1167.12 169.996C1167.63 171.929 1168.58 173.715 1169.89 175.209C1174.42 180.415 1175.36 181.561 1191.69 181.103C1191.69 181.103 1193.6 181.103 1193.92 179.891C1194.5 177.73 1193.92 174.095 1185.19 176.125C1183.64 176.486 1179.72 173.145 1181.08 171.115C1182.44 169.085 1187.97 152.482 1199.74 149.928C1199.74 149.928 1220.63 145.278 1225.94 153.203C1226.92 154.687 1228.07 156.05 1229.36 157.263C1234.7 161.868 1240.31 166.123 1246.18 170.002C1252.03 173.899 1251.9 180.579 1257.69 180.841C1263.48 181.103 1268.95 181.594 1269.98 180.317C1271.02 179.04 1272.38 175.831 1264.74 175.667C1255.98 175.47 1248.93 151.795 1253.23 144.558C1258.78 147.246 1264.78 148.846 1270.92 149.273C1270.92 149.273 1274.15 155.266 1287.09 152.81C1286.99 152.81 1292.17 152.875 1286.67 143.804Z" fill="#636361"/>
<path d="M1118.6 156.651C1120.47 155.062 1122.21 153.333 1123.81 151.477C1126.25 151.696 1128.58 152.603 1130.54 154.096C1134.48 157.179 1137.25 161.555 1138.36 166.475C1135.73 168.778 1132.84 170.767 1129.76 172.402C1129.74 169.557 1129.22 166.739 1128.21 164.084C1127.29 162.174 1125.94 160.507 1124.28 159.216C1122.61 157.926 1120.67 157.047 1118.6 156.651Z" fill="#3C3C3B"/>
<path d="M1137.77 139.091C1135.83 138.619 1133.85 138.291 1131.86 138.108C1132.74 135.971 1133.51 133.784 1134.15 131.559C1137.85 131.531 1141.47 132.676 1144.5 134.834C1147.21 137.582 1149.23 140.952 1150.39 144.658C1149.65 145.832 1149.01 147.057 1148.45 148.325C1147.41 146.112 1145.92 144.145 1144.08 142.553C1142.25 140.962 1140.1 139.782 1137.77 139.091Z" fill="#3C3C3B"/>
<path d="M1106.66 176.915C1094.25 173.64 1105.86 164.242 1112.03 161.066L1112.65 160.738C1115.12 161.026 1117.41 162.186 1119.11 164.013C1121.22 166.534 1120.41 172.298 1119.34 176.653C1115.2 177.823 1110.84 177.914 1106.66 176.915Z" fill="#3C3C3B"/>
<path d="M1143.43 160.574C1141.98 157.103 1138.81 150.75 1133.73 149.211C1131.34 148.429 1128.84 148.064 1126.33 148.13C1127.73 146.105 1129 143.983 1130.11 141.777C1133.13 141.846 1136.1 142.631 1138.78 144.07C1141.91 146.665 1144.46 149.915 1146.25 153.599C1145.76 154.909 1145.24 156.317 1144.73 157.79C1144.4 158.764 1143.97 159.698 1143.43 160.574Z" fill="#3C3C3B"/>
<path d="M1259.96 108.864C1260.73 111.549 1264.39 117.411 1266.59 116.756C1268.79 116.101 1268.72 109.192 1267.95 106.474C1267.88 105.847 1267.68 105.242 1267.36 104.703C1267.04 104.163 1266.61 103.701 1266.09 103.351C1265.57 103 1264.99 102.769 1264.37 102.674C1263.76 102.579 1263.13 102.622 1262.53 102.801C1261.93 102.979 1261.38 103.289 1260.92 103.707C1260.45 104.125 1260.09 104.642 1259.84 105.221C1259.59 105.8 1259.48 106.426 1259.5 107.056C1259.52 107.686 1259.68 108.303 1259.96 108.864Z" fill="#636361"/>
<g style="mix-blend-mode:overlay" opacity="0.08">
<path d="M1101.4 173.449C1101.4 173.449 1125.56 169.224 1135.1 153.801C1140.27 145.209 1146.05 137.012 1152.4 129.273C1152.4 129.273 1152.01 132.548 1156.73 140.342C1151.94 140.342 1148.87 146.662 1144.93 157.796C1140.98 168.93 1119.25 180.358 1106.8 176.92C1103.6 176.134 1101.98 174.857 1101.4 173.449Z" fill="black"/>
</g>
<path d="M1274.9 142.369C1276.25 141.267 1277.8 140.455 1279.47 139.982C1281.14 139.509 1282.89 139.385 1284.6 139.619C1285.17 141.079 1285.88 142.482 1286.7 143.81C1292.2 152.881 1287.03 152.816 1287.03 152.816C1274.09 155.272 1270.86 149.279 1270.86 149.279C1271.43 146.591 1272.85 144.165 1274.9 142.369Z" fill="#C4C4C4"/>
<path d="M1291 149.628C1291 148.744 1290.32 145.83 1288.38 147.074C1286.44 148.318 1285.47 152.15 1286.99 152.805C1287.93 152.883 1288.87 152.599 1289.61 152.011C1290.35 151.422 1290.85 150.571 1291 149.628Z" fill="#3C3C3B"/>
<path d="M1265.09 134.567C1266.81 134.141 1272.69 134.567 1274.99 132.373C1277.28 130.179 1279.48 129.622 1281.45 132.111C1282 132.819 1282.58 133.496 1283.2 134.141C1283.52 136.538 1284.21 138.869 1285.24 141.051C1284.06 142.952 1282.38 144.483 1280.39 145.472C1277.62 146.086 1274.75 146.07 1271.99 145.424C1269.22 144.779 1266.64 143.52 1264.41 141.739C1259.4 136.99 1263.38 134.993 1265.09 134.567Z" fill="#3C3C3B"/>
<path d="M1277.04 138.436C1276.9 137.855 1277.26 137.275 1277.84 137.141C1278.41 137.007 1278.98 137.369 1279.12 137.951C1279.25 138.532 1278.89 139.113 1278.32 139.247C1277.74 139.381 1277.17 139.018 1277.04 138.436Z" fill="#939393"/>
<g style="mix-blend-mode:overlay" opacity="0.08">
<path d="M1243.66 125.828C1243.66 127.568 1243.85 129.302 1244.21 131.002C1248.16 142.889 1253.27 144.396 1253.27 144.396C1253.1 144.677 1252.96 144.973 1252.85 145.28C1252.76 145.458 1252.7 145.644 1252.65 145.836C1252.65 145.836 1252.65 146.098 1252.49 146.262L1252.3 147.081C1252.3 147.081 1252.3 147.081 1252.3 147.343C1252.3 147.605 1252.3 147.965 1252.3 148.292C1252.31 148.445 1252.31 148.598 1252.3 148.751C1243.95 144.788 1241.88 134.833 1243.66 125.828Z" fill="black"/>
</g>
<line x1="1299" y1="185.156" x2="1329" y2="185.156" stroke="#02826D" stroke-width="2"/>
<path d="M1029 185L1089 185" stroke="#02826D" stroke-width="2"/>
</svg>
