<svg width="650" height="500" viewBox="0 0 650 500" fill="none" xmlns="http://www.w3.org/2000/svg">
<path d="M400.518 352.08C400.102 353.328 399.271 354.575 398.44 355.823C395.116 360.398 390.13 363.726 385.559 364.973C385.144 364.973 384.313 365.389 383.897 365.389H383.482C375.587 367.053 367.692 363.31 363.122 357.071C362.706 356.655 362.291 355.823 361.875 355.407C358.551 349.584 351.487 332.532 347.332 318.806C346.501 316.726 346.086 314.647 345.67 312.567C345.67 311.735 345.255 310.904 345.255 310.488V310.072C343.593 304.249 342.346 298.01 340.684 291.355C336.529 273.886 333.205 256.418 330.712 243.94C329.05 236.869 327.803 231.462 327.388 228.135C327.388 227.719 327.388 227.719 327.388 227.303C326.972 226.055 326.972 225.223 326.972 225.223C326.972 225.223 327.803 224.808 328.634 224.392C334.451 223.144 353.149 221.896 368.108 221.064C373.509 220.648 378.496 220.232 382.235 220.232C382.651 220.232 382.651 220.232 383.066 220.232C383.897 220.232 384.313 220.232 384.728 220.232C385.144 220.232 385.144 220.232 385.559 220.232C385.975 220.232 385.975 220.232 386.39 220.232C388.052 220.232 389.299 220.232 389.299 220.232C393.038 234.374 394.285 252.674 389.299 269.727C388.883 271.391 389.714 276.382 390.545 282.205C392.207 290.939 394.7 300.921 395.116 303.417C395.947 309.24 399.271 322.133 400.102 326.709C400.518 329.62 401.764 335.027 401.764 337.523C402.18 344.177 401.764 349.168 400.518 352.08Z" fill="#02826D"/>
<path d="M255.419 257.664V260.242L256.208 264.11L261.859 270.807C262.224 271.218 262.445 271.736 262.49 272.283C262.535 272.831 262.401 273.378 262.109 273.843L263.937 276.047C264.186 276.322 264.37 276.649 264.477 277.004C264.584 277.358 264.61 277.733 264.555 278.099C264.499 278.466 264.362 278.815 264.155 279.122C263.947 279.429 263.674 279.686 263.355 279.874C263.01 280.08 262.63 280.221 262.233 280.29C262.185 280.801 261.997 281.29 261.689 281.701C261.381 282.112 260.965 282.43 260.488 282.619C259.674 282.965 258.765 283.017 257.916 282.766C257.067 282.516 256.332 281.979 255.835 281.246L249.311 270.64V270.349V270.058C249.292 269.976 249.292 269.891 249.311 269.809C249.311 269.809 249.311 269.809 249.311 269.476L248.48 257.664C248.49 257.25 248.584 256.843 248.757 256.467C248.93 256.091 249.177 255.755 249.485 255.478C249.792 255.202 250.153 254.991 250.544 254.859C250.936 254.727 251.351 254.677 251.763 254.711C252.634 254.639 253.5 254.906 254.181 255.455C254.861 256.005 255.305 256.796 255.419 257.664Z" fill="#015648"/>
<path d="M269.755 229.756V237.201C269.834 238.997 269.507 240.789 268.8 242.441L266.888 246.601C266.681 247.133 266.555 247.694 266.514 248.264L266.141 258.954C266.095 259.368 265.966 259.77 265.762 260.134C265.558 260.498 265.284 260.818 264.954 261.074C264.625 261.33 264.248 261.517 263.845 261.624C263.442 261.732 263.022 261.757 262.609 261.699C261.748 261.699 260.921 261.366 260.301 260.769C259.681 260.171 259.317 259.357 259.285 258.496L259.492 251.342L255.379 257.664L253.509 268.395L257.373 278.959C257.513 279.344 257.566 279.755 257.53 280.162C257.493 280.57 257.367 280.964 257.161 281.318C256.955 281.671 256.673 281.975 256.336 282.207C256 282.439 255.616 282.594 255.213 282.661C254.387 282.85 253.521 282.746 252.763 282.367C252.005 281.987 251.402 281.356 251.058 280.582C251.058 280.582 246.902 268.104 246.902 267.854C246.902 267.605 246.653 258.954 246.902 256.208C246.982 255.549 247.107 254.896 247.276 254.254C248.308 248.182 250.3 242.313 253.177 236.868L256.584 227.718L269.755 229.756Z" fill="#006456"/>
<path d="M321.486 106.144L317.331 131.889L310.018 176.143C309.575 178.777 308.442 181.245 306.735 183.297C306.568 183.529 306.387 183.751 306.195 183.963C304.415 185.914 302.171 187.383 299.672 188.233C297.174 189.084 294.5 189.289 291.901 188.829H291.569C289.465 188.431 287.466 187.605 285.694 186.404C283.921 185.202 282.414 183.649 281.264 181.841C279.102 178.51 278.299 174.476 279.021 170.57L280.35 162.252L290.447 100.362C291.224 96.3089 293.566 92.7257 296.965 90.3898C300.365 88.0539 304.547 87.1538 308.605 87.8845H308.896C310.921 88.255 312.853 89.0214 314.581 90.1397C316.31 91.2581 317.802 92.7065 318.971 94.4022C320.14 96.098 320.964 98.0077 321.396 100.022C321.827 102.037 321.858 104.117 321.486 106.144Z" fill="#02826D"/>
<path d="M307.902 177.392C307.943 177.668 307.943 177.948 307.902 178.224C307.926 179.775 307.701 181.319 307.237 182.799C307.145 183.124 307.034 183.443 306.904 183.756C306.76 184.213 306.58 184.658 306.364 185.086L284.591 216.364L279.19 224.391L273.373 232.71L269.758 237.285L256.628 227.552L264.647 205.425L274.204 179.18L277.86 171.278C278.201 170.516 278.619 169.792 279.107 169.115C281.305 165.957 284.589 163.72 288.331 162.835C291.724 161.984 295.307 162.337 298.469 163.833H298.719H298.968C301.522 165.039 303.7 166.92 305.267 169.272C306.833 171.625 307.73 174.36 307.86 177.184L307.902 177.392Z" fill="#02826D"/>
<path d="M287.665 218.069L277.277 229.216L269.756 237.243L269.715 237.201L255.13 231.42L264.687 205.425L282.679 215.324L284.59 216.364L287.665 218.069Z" fill="#006456"/>
<path opacity="0.1" d="M317.457 180.677L308.565 192.323C308.025 189.412 307.485 186.542 306.903 183.589C306.759 184.046 306.579 184.491 306.363 184.92L284.59 216.363L287.665 218.069L277.111 229.174L279.189 224.391L282.679 215.532L292.942 189.162L295.975 181.301C297.162 175.603 298.009 169.839 298.51 164.04C299.433 154.266 299.293 144.42 298.094 134.676C298.1 134.579 298.1 134.482 298.094 134.385C297.637 130.559 296.973 126.732 296.142 122.947L311.889 165.621L317.457 180.677Z" fill="#1D1D1B"/>
<path d="M582.636 428.608L582.387 420.29C583.472 420.273 584.54 420.018 585.516 419.544C586.492 419.07 587.353 418.387 588.038 417.545C591.384 412.503 592.732 406.393 591.819 400.409C591.323 396.017 589.7 391.828 587.108 388.25C584.516 384.671 581.043 381.825 577.027 379.987C571.873 378.206 566.48 377.21 561.03 377.034C556.269 376.781 551.541 376.099 546.903 374.996C530.282 370.504 515.199 356.695 506.723 338.104C503.759 331.615 500.989 325.321 498.413 319.221C491.764 304.497 485.49 290.564 479.05 277.254C475.85 270.683 471.945 260.825 474.895 251.051C476.193 246.061 479.297 241.732 483.604 238.903C487.912 236.075 493.115 234.95 498.205 235.745C510.255 237.201 514.576 246.268 518.357 254.295L518.731 255.127C520.809 259.286 522.886 264.028 524.839 268.603C527.457 274.468 530.157 280.54 533.149 286.113L525.712 289.857C522.845 284.117 520.102 277.92 517.401 271.972C515.407 267.438 513.246 262.946 511.418 258.704L511.002 257.831C507.097 249.512 504.52 244.854 497.374 243.98C495.772 243.625 494.116 243.59 492.501 243.877C490.886 244.164 489.343 244.767 487.961 245.652C486.579 246.536 485.385 247.686 484.448 249.033C483.51 250.381 482.848 251.901 482.498 253.505C480.961 258.954 482.125 265.192 486.321 273.802C492.845 287.028 499.119 301.003 505.642 315.893C508.412 321.994 511.183 328.274 513.953 334.735C521.432 351.122 534.396 363.184 548.731 367.01C552.824 367.989 556.995 368.601 561.196 368.84C567.489 369.079 573.709 370.271 579.645 372.376C585.015 374.774 589.672 378.525 593.161 383.264C596.649 388.002 598.85 393.566 599.548 399.411C600.779 407.719 598.721 416.181 593.814 422.993C592.431 424.642 590.726 425.99 588.804 426.956C586.882 427.921 584.783 428.484 582.636 428.608Z" fill="#3C3C3B"/>
<path d="M524.713 286.903L588.535 414.633L591.651 412.845L530.779 283.95L524.713 286.903Z" fill="#00DA7E"/>
<path d="M526.169 270.973L517.277 275.382C516.74 275.651 516.331 276.119 516.136 276.687C515.942 277.255 515.979 277.877 516.238 278.418L531.778 310.236C532.046 310.774 532.515 311.184 533.082 311.378C533.65 311.573 534.271 311.536 534.812 311.276L543.745 306.868C544.282 306.599 544.691 306.13 544.886 305.562C545.08 304.994 545.043 304.373 544.784 303.831L529.244 272.013C529.115 271.738 528.933 271.492 528.707 271.289C528.481 271.087 528.216 270.932 527.928 270.835C527.641 270.738 527.337 270.7 527.035 270.724C526.732 270.747 526.438 270.832 526.169 270.973Z" fill="#3C3C3B"/>
<path d="M543.036 304.829C544.391 304.536 545.656 303.923 546.726 303.04C547.796 302.157 548.639 301.031 549.185 299.755C549.472 298.77 549.599 297.745 549.559 296.719C548.949 290.71 548.005 284.739 546.734 278.834C546.083 273.212 546.752 267.516 548.687 262.197C547.098 262.117 545.523 262.534 544.183 263.391C542.842 264.249 541.802 265.503 541.207 266.98C540.051 269.977 539.82 273.251 540.543 276.38C541.226 279.495 541.726 282.648 542.038 285.822C542.2 287.407 542.032 289.009 541.546 290.526C541.06 292.043 540.265 293.444 539.213 294.639C537.634 296.261 535.058 297.384 534.684 299.63C534.525 300.6 534.692 301.596 535.158 302.461C535.624 303.327 536.363 304.013 537.26 304.413C539.073 305.241 541.123 305.388 543.036 304.829Z" fill="#00DA7E"/>
<path d="M541.168 299.256C540.986 299.023 540.759 298.829 540.502 298.684C540.244 298.539 539.96 298.447 539.667 298.412C539.374 298.377 539.076 298.401 538.792 298.481C538.508 298.562 538.242 298.698 538.01 298.882C537.542 299.251 537.24 299.792 537.169 300.385C537.099 300.977 537.267 301.574 537.636 302.043C538.006 302.511 538.546 302.814 539.138 302.884C539.73 302.955 540.326 302.786 540.794 302.417C541.032 302.238 541.23 302.013 541.378 301.755C541.526 301.497 541.62 301.212 541.655 300.916C541.69 300.621 541.665 300.322 541.581 300.036C541.498 299.751 541.357 299.485 541.168 299.256Z" fill="#0D4D4D"/>
<path d="M584.37 416.692L580.413 418.628L587 432.117L590.957 430.181L584.37 416.692Z" fill="#3C3C3B"/>
<path d="M486.692 274.26L493.714 288.9L486.734 292.269L479.753 277.629L486.692 274.26Z" fill="#00DA7E"/>
<path d="M519.404 290.014L471.167 313.408L542.077 459.911L590.314 436.517L519.404 290.014Z" fill="#FE0782"/>
<path d="M520.607 279.733L462.212 307.99L466.823 317.539L525.219 289.281L520.607 279.733Z" fill="#3C3C3B"/>
<path d="M507.461 278.382L469.341 296.828L472.343 303.044L510.463 284.598L507.461 278.382Z" fill="#FE0782"/>
<path d="M595.388 432.78L535.908 461.562L540.519 471.111L600 442.329L595.388 432.78Z" fill="#3C3C3B"/>
<path d="M544.282 340.928L495.939 364.582L516.303 406.284L564.646 382.63L544.282 340.928Z" fill="#FED0A9"/>
<path d="M503.368 254.893L453.906 279.095L458.249 287.988L507.711 263.786L503.368 254.893Z" fill="#D3996A"/>
<path d="M487.606 264.403L490.557 270.476C490.574 270.628 490.574 270.781 490.557 270.933C490.87 271.731 490.888 272.614 490.606 273.423C490.324 274.233 489.761 274.913 489.019 275.342L479.088 280.167C478.29 280.548 477.38 280.623 476.53 280.378C475.68 280.133 474.949 279.584 474.476 278.836C474.321 278.732 474.181 278.606 474.061 278.462L471.111 272.347C470.942 271.935 470.83 271.501 470.778 271.058C470.717 270.331 470.879 269.603 471.243 268.971C471.607 268.339 472.155 267.834 472.814 267.523L482.745 262.698C483.411 262.336 484.177 262.201 484.927 262.314C485.676 262.427 486.369 262.78 486.9 263.322C487.208 263.629 487.449 263.997 487.606 264.403Z" fill="#3C3C3B"/>
<path opacity="0.5" d="M584.837 434.265L518.481 295.721L512.913 298.466L584.837 434.265Z" fill="white"/>
<path d="M422.787 254.337C424.097 256.131 425.842 257.562 427.857 258.496C431.983 260.593 436.392 262.078 440.945 262.904C446.638 264.152 448.175 250.427 447.427 249.387C447.074 248.93 446.592 248.591 446.044 248.413C445.495 248.235 444.906 248.226 444.352 248.389C441.859 249.262 442.067 253.796 439.449 254.295C438.536 254.349 437.631 254.101 436.873 253.588C434.796 252.34 432.718 250.302 433.134 247.931C433.672 246.351 434.584 244.924 435.793 243.772C437.095 241.663 437.832 239.255 437.934 236.778C438.036 234.301 437.499 231.839 436.375 229.631C434.006 226.137 429.02 226.636 424.948 227.759C424.059 228.011 423.231 228.445 422.516 229.031C421.801 229.618 421.214 230.346 420.793 231.17C420.67 238.94 421.338 246.702 422.787 254.337Z" fill="#006456"/>
<path d="M483.993 456.101C484.016 456.269 484.006 456.44 483.964 456.604C483.921 456.768 483.846 456.922 483.744 457.058L482.996 457.973L480.918 460.593C480.107 461.62 479.172 462.542 478.134 463.338L473.023 467.497L472.317 467.996L471.112 468.953L469.782 469.993C469.565 470.146 469.357 470.313 469.159 470.492L455.988 481.763L450.835 486.172C444.663 491.246 437.393 494.807 429.603 496.57C429.3 496.633 428.986 496.588 428.713 496.444C428.44 496.3 428.226 496.065 428.107 495.78C425.905 492.161 423.578 489.583 424.326 486.838C425.63 482.577 427.857 478.658 430.849 475.358L432.553 472.904C435.284 469.636 437.757 466.159 439.949 462.506C441.08 459.756 441.875 456.879 442.317 453.938C442.421 453.04 442.421 452.133 442.317 451.235C442.238 450.098 442 448.978 441.611 447.907L457.982 435.887L460.143 434.307C460.323 434.546 460.49 434.796 460.641 435.055C461.806 436.551 463.21 437.844 464.796 438.882L465.42 439.256C467.289 440.421 468.951 441.045 469.367 441.377C474.668 445.842 479.563 450.769 483.993 456.101Z" fill="#3C3C3B"/>
<path d="M465.668 439.213C465.139 440.073 464.496 440.856 463.757 441.543C463.054 442.216 462.273 442.802 461.43 443.289L461.015 443.581L442.4 453.896L439.948 455.268C438.954 455.806 437.87 456.159 436.749 456.308C435.209 456.457 433.657 456.196 432.249 455.554C430.841 454.911 429.627 453.909 428.729 452.648L363.37 357.485L380.987 346.712L388.716 342.054L399.893 335.274L402.386 337.687C403.924 339.184 405.419 340.681 406.915 342.22C423.771 359.641 438.667 378.861 451.333 399.534C453.743 403.416 456.112 407.368 458.438 411.388C460.765 415.547 463.009 419.457 465.294 423.575C465.531 423.874 465.74 424.194 465.918 424.531C467.304 426.739 468.019 429.302 467.974 431.91C467.93 434.517 467.129 437.054 465.668 439.213Z" fill="#02826D"/>
<path d="M389.299 269.81C386.343 274.995 382.181 279.389 377.166 282.62C366.661 294.145 356.746 306.194 347.457 318.722C336.945 332.531 326.972 345.424 324.313 349.459C321.727 353.617 318.404 357.268 314.507 360.231C314.029 360.509 313.529 360.745 313.011 360.938H312.679C309.554 362.226 306.201 362.863 302.822 362.813C299.444 362.763 296.11 362.026 293.025 360.647H292.693C289.294 359.007 286.421 356.447 284.402 353.257C282.382 350.066 281.296 346.373 281.266 342.596V342.014C281.266 341.307 281.266 340.6 281.266 339.893C283.927 326.47 288.109 313.394 293.732 300.921C295.02 297.884 296.308 294.723 297.887 291.562C298.593 289.94 299.299 288.277 299.964 286.613C306.321 272.014 313.177 257.498 318.662 246.102C322.485 238.2 325.601 231.919 327.429 228.342L327.637 227.968L329.008 225.14C329.424 224.141 351.155 222.602 368.399 221.646C373.8 221.355 378.703 221.105 382.401 220.98H383.108H384.894H386.39C387.345 220.917 388.303 220.917 389.257 220.98C395.615 236.494 397.609 255.377 389.299 269.81Z" fill="#02826D"/>
<path d="M317.664 495.862C317.481 496.155 317.202 496.375 316.875 496.486L312.179 497.692H311.722C310.509 497.981 309.27 498.148 308.024 498.191H300.046H296.598H295.725L277.069 499.439L269.756 499.938C261.197 500.341 252.662 498.746 244.825 495.28C244.527 495.13 244.288 494.885 244.145 494.584C244.002 494.282 243.963 493.942 244.036 493.616C244.451 489.041 244.036 485.298 246.529 483.467C250.397 480.693 254.82 478.792 259.493 477.894L262.567 476.854C267.012 475.788 271.373 474.398 275.614 472.695C278.71 470.817 281.51 468.49 283.925 465.791C284.257 465.375 284.548 464.917 284.88 464.46C285.557 463.42 286.076 462.284 286.418 461.091H309.146H311.182C311.111 463.491 311.52 465.881 312.387 468.12C312.387 468.369 312.595 468.577 312.636 468.744C313.551 471.031 314.548 472.612 314.714 473.153C316.391 480.616 317.378 488.218 317.664 495.862Z" fill="#3C3C3B"/>
<path d="M392.456 98.4907C392.456 101.111 392.206 106.809 391.999 114.462C391.999 116.334 391.999 120.327 391.749 124.361C391.749 129.394 391.458 134.551 391.417 135.882C390.96 153.684 389.879 197.896 389.298 220.439C389.09 228.758 388.965 233.957 388.965 233.957L381.112 235.288L330.586 243.897L318.661 245.894C318.661 245.894 314.506 224.141 309.395 197.106L308.523 192.323C307.982 189.411 307.442 186.541 306.861 183.588C306.879 183.45 306.879 183.311 306.861 183.173C305.905 178.098 304.949 172.941 304.035 167.825C301.916 156.221 299.88 144.783 298.093 134.551C298.099 134.454 298.099 134.357 298.093 134.26C297.387 130.101 296.764 126.399 296.14 122.822C294.237 113.751 293.043 104.545 292.567 95.2881L292.941 94.7058L293.315 94.1651L293.98 93.3748C294.668 92.4653 295.448 91.6291 296.307 90.8793C297.356 89.9591 298.498 89.1506 299.714 88.4669L301.334 87.5935C303.62 86.4289 305.988 85.2643 308.439 84.1413L309.146 83.8086L313.301 82.1033L340.268 70.3743C342.222 70.2742 344.182 70.4564 346.085 70.915C346.221 70.8798 346.364 70.8798 346.5 70.915C348.245 71.2477 350.032 71.7052 351.86 72.2044C355.6 73.2026 359.298 74.3672 361.916 74.8247C372.76 76.7795 384.561 79.3166 389.838 87.3023C391.872 90.6604 392.788 94.5779 392.456 98.4907Z" fill="#02826D"/>
<path d="M346.126 72.37C343.009 88.0503 319.907 99.6129 314.879 88.6326C314.879 88.3414 314.048 85.6379 313.092 81.853C313.092 81.853 313.092 81.853 313.092 81.6035C312.911 81.0293 312.758 80.4463 312.635 79.8566C312.635 79.5238 312.552 79.1495 312.386 78.7336C312.012 77.4026 311.68 75.9885 311.347 74.5744C308.979 65.2161 306.444 54.6517 306.444 54.6517L320.779 48.496L323.605 47.3314H323.979L326.929 46.0837L331.084 44.2536L338.314 41.1758L339.934 47.7474L341.264 53.3207L343.674 63.0533L345.087 68.5851V68.8762L345.585 70.8727L345.793 71.7461L346.126 72.37Z" fill="#FFC990"/>
<path d="M323.73 456.018C323.742 459.193 322.637 462.272 320.608 464.713C318.579 467.154 315.757 468.803 312.636 469.369C312.36 469.404 312.081 469.404 311.805 469.369C310.674 469.515 309.529 469.515 308.398 469.369H307.317L284.547 466.375H283.924C282.997 466.233 282.107 465.908 281.306 465.418C279.984 464.631 278.9 463.499 278.168 462.145C277.436 460.79 277.085 459.262 277.151 457.723L281.265 342.596V342.014L308.896 344.592L311.597 344.842L323.647 346.007C323.855 347.171 324.062 348.294 324.228 349.459C329.458 384.798 329.29 420.729 323.73 456.018Z" fill="#02826D"/>
<path d="M435.712 221.312H420.504L409.452 155.638L409.119 153.225C408.498 149.118 409.526 144.932 411.978 141.581C414.431 138.23 418.108 135.986 422.208 135.341H422.54C425.869 134.774 429.291 135.307 432.29 136.86C435.289 138.414 437.701 140.903 439.161 143.95C439.866 145.363 440.343 146.88 440.573 148.442C442.609 171.36 437.748 195.649 435.712 221.312Z" fill="#02826D"/>
<path d="M342.347 47.2067C343.262 51.8651 334.536 49.4943 329.882 51.0332H329.633C330.388 53.3983 330.753 55.8708 330.713 58.3535C330.471 64.6752 327.912 70.6863 323.525 75.2399C321.805 77.0043 319.759 78.4169 317.5 79.3991L311.184 81.4788C309.879 81.8844 308.489 81.9325 307.159 81.6179C305.829 81.3034 304.608 80.6377 303.622 79.6903C303.07 79.4485 302.541 79.1561 302.043 78.8169C300.513 77.0652 299.342 75.0304 298.594 72.8276C298.594 72.8276 296.143 61.5145 295.561 59.5596H292.486C292.012 59.5917 291.537 59.5205 291.094 59.3508C290.65 59.1812 290.248 58.9173 289.917 58.5772C289.585 58.2372 289.331 57.8291 289.172 57.3812C289.013 56.9332 288.953 56.4561 288.996 55.9827L290.035 48.2049L290.284 46.4581C289.399 45.4626 288.567 44.4213 287.791 43.3387C287.303 41.3254 286.942 39.2833 286.711 37.2246C286.311 33.8165 286.423 30.3678 287.043 26.9929C287.972 22.3268 290.142 17.9979 293.323 14.4624C296.504 10.9269 300.579 8.3157 305.118 6.90383C310.944 4.61911 317.193 3.6121 323.442 3.95078C330.921 5.03218 338.359 10.3976 343.386 25.9947C344.757 33.0654 341.392 42.0077 342.347 47.2067Z" fill="#FFC990"/>
<path d="M343.593 54.2358C337.983 57.2721 334.493 57.0641 332.333 55.3172L331.668 54.6518C330.763 53.6136 330.122 52.3724 329.798 51.0332C328.897 46.8184 328.812 42.4696 329.549 38.2228C329.549 38.2228 327.097 46.5413 326.058 49.2032C323.996 49.8292 321.902 50.3429 319.784 50.7421C311.474 25.7867 313.011 13.3091 286.959 27.0345C287.748 14.9728 297.887 2.82781 307.028 2.57826C312.578 2.31734 318.14 2.55397 323.648 3.28533C327.844 3.57078 331.872 5.04381 335.263 7.53276C338.655 10.0217 341.27 13.4241 342.803 17.3435C345.92 25.7451 348.205 30.2787 343.593 54.2358Z" fill="#3C3C3B"/>
<path d="M333.576 39.2224C334.864 43.8391 332.496 50.3275 329.421 51.201C326.346 52.0744 325.64 48.2063 324.269 43.5896C323.355 40.5118 321.36 36.3525 324.269 34.4393C327.177 32.5261 331.623 32.4013 333.576 39.2224Z" fill="#FFC990"/>
<path d="M286.459 33.0658L309.853 30.3208L332.83 27.6173H333.578H334.534L345.545 26.2863L342.678 15.098C341.154 10.7691 338.35 7.00657 334.639 4.30997C330.929 1.61337 326.487 0.110203 321.902 0L307.401 0.0831845C294.936 0.37433 286.127 11.5626 286.127 24.1651V25.2881V28.1996L286.459 33.0658Z" fill="#006456"/>
<path d="M262.816 35.9362C264.62 37.6327 266.822 38.8461 269.219 39.4641C271.616 40.0821 274.13 40.0847 276.528 39.4716C280.836 38.784 285.096 37.8255 289.284 36.6017C294.436 35.2292 309.104 30.5292 310.059 30.2797C302.362 28.2823 294.386 27.5795 286.458 28.2001C286.458 28.2001 281.264 29.6974 275.738 31.4027C271.308 32.5374 266.984 34.0542 262.816 35.9362Z" fill="#006456"/>
<path opacity="0.1" d="M290.281 46.4159L290.032 48.2043C305.613 43.4212 319.782 34.4789 334.533 27.4082H333.577L332.995 27.6578L310.018 30.3613C309.27 30.6108 294.602 35.3107 289.242 36.6833L286.708 37.224C286.935 39.2725 287.31 41.3019 287.83 43.2964C288.576 44.3899 289.395 45.432 290.281 46.4159Z" fill="#050504"/>
<path opacity="0.1" d="M328.094 63.0115C329.087 61.6174 329.91 60.1094 330.545 58.5195C330.303 64.8412 327.745 70.8524 323.357 75.406C321.637 77.1704 319.591 78.583 317.332 79.5652L311.017 81.6448C309.711 82.0505 308.321 82.0985 306.991 81.784C305.661 81.4694 304.44 80.8038 303.454 79.8564C302.953 79.5529 302.48 79.2049 302.042 78.8166C304.243 78.7682 306.426 78.4041 308.523 77.7352C312.445 76.393 316.112 74.3961 319.368 71.8291C322.74 69.3882 325.688 66.4093 328.094 63.0115Z" fill="#050504"/>
<path d="M442.358 245.685C443.212 247.445 443.333 249.472 442.694 251.32C442.055 253.169 440.709 254.688 438.951 255.543C437.193 256.398 435.168 256.519 433.321 255.879C431.475 255.239 429.957 253.892 429.103 252.132C428.249 250.373 428.128 248.346 428.767 246.497C429.406 244.649 430.753 243.13 432.51 242.275C434.268 241.42 436.293 241.299 438.14 241.939C439.987 242.578 441.504 243.926 442.358 245.685Z" fill="#4D4D4D"/>
<path d="M543.036 479.85L550.515 476.232L439.574 247.474C439.346 246.971 439.02 246.518 438.615 246.143C438.21 245.767 437.735 245.476 437.217 245.286C436.698 245.096 436.148 245.012 435.596 245.038C435.045 245.063 434.504 245.199 434.006 245.436C433.512 245.679 433.072 246.018 432.71 246.433C432.349 246.848 432.073 247.33 431.899 247.852C431.725 248.375 431.656 248.926 431.697 249.476C431.738 250.025 431.887 250.56 432.136 251.051L543.036 479.85Z" fill="#3C3C3B"/>
<path d="M559.656 471.823C560.978 474.338 561.52 477.191 561.212 480.016C560.903 482.841 559.759 485.51 557.925 487.68C556.092 489.849 553.652 491.422 550.92 492.195C548.188 492.968 545.288 492.906 542.591 492.018C539.894 491.13 537.523 489.456 535.783 487.211C534.043 484.965 533.012 482.251 532.823 479.415C532.635 476.579 533.296 473.752 534.723 471.295C536.151 468.838 538.278 466.864 540.834 465.626C542.476 464.794 544.266 464.295 546.101 464.157C547.936 464.018 549.78 464.243 551.528 464.819C553.276 465.395 554.894 466.309 556.289 467.511C557.683 468.713 558.828 470.178 559.656 471.823Z" fill="#3C3C3B"/>
<path d="M553.176 474.942C553.835 476.186 554.108 477.599 553.96 478.999C553.812 480.399 553.25 481.723 552.346 482.802C551.441 483.88 550.235 484.664 548.883 485.052C547.531 485.44 546.094 485.415 544.756 484.981C543.418 484.546 542.24 483.722 541.373 482.613C540.506 481.504 539.99 480.161 539.89 478.757C539.79 477.352 540.112 475.95 540.813 474.729C541.515 473.509 542.564 472.526 543.827 471.906C544.64 471.489 545.527 471.237 546.437 471.165C547.347 471.092 548.263 471.2 549.131 471.482C550 471.764 550.804 472.215 551.498 472.808C552.192 473.402 552.763 474.127 553.176 474.942Z" fill="#CCCCCC"/>
<path opacity="0.1" d="M442.486 454.397L439.993 455.644C439.162 456.06 437.915 456.476 436.669 456.476C433.76 456.892 430.436 455.644 428.774 452.733L363.539 357.487C363.123 357.071 362.708 356.239 362.292 355.823C358.968 350 351.905 332.947 347.749 319.222C337.362 332.531 327.389 345.841 324.481 349.584C329.883 383.274 329.051 419.043 324.065 456.06C324.065 462.715 319.079 468.122 312.847 469.37C313.678 471.449 314.924 473.113 314.924 473.945C315.755 476.025 318.664 494.741 317.833 495.989C317.833 496.405 317.417 496.405 317.002 496.405L312.431 497.652H312.016L307.86 468.954C308.691 466.458 309.523 463.963 310.354 461.467C319.91 427.777 320.741 394.088 313.678 360.814C312.431 355.407 311.185 350 309.523 344.593C309.107 343.345 308.691 342.097 308.276 340.85C322.403 332.531 334.453 322.133 345.256 310.071C359.384 293.85 371.434 274.718 381.406 254.754C383.899 247.267 383.483 241.028 381.406 235.621C379.328 229.798 374.758 225.223 368.525 221.896C378.082 188.622 387.638 155.348 382.237 126.234L381.406 114.172L391.793 124.57L402.181 135.384V148.278L390.962 136.216C390.547 153.685 389.3 198.188 388.885 220.648C395.118 236.869 397.195 255.586 388.885 270.143C388.469 271.807 389.3 276.798 390.131 282.621L370.602 311.735C366.863 325.045 371.434 336.69 380.159 347.089C380.99 347.92 381.406 348.752 382.237 349.584C382.237 354.575 383.068 359.982 384.73 365.389C393.456 390.344 416.309 417.795 442.486 454.397Z" fill="#1D1D1B"/>
<path d="M308.98 15.4307L306.197 22.6261L345.504 31.9844C346.792 29.3641 344.299 26.411 344.881 23.6659L308.98 15.4307Z" fill="#3C3C3B"/>
<path opacity="0.5" d="M290.449 28.0333C291.878 28.8759 293.489 29.361 295.145 29.4474H296.807H299.507C300.486 29.4452 301.438 29.1289 302.223 28.5449C303.008 27.961 303.586 27.1402 303.87 26.2032L306.53 17.6352C306.97 16.1743 306.938 14.6112 306.438 13.1695C305.938 11.7278 304.996 10.4812 303.746 9.6079C302.938 9.04115 302.016 8.65789 301.045 8.48491H300.422H300.38C297.887 8.11058 295.809 8.11058 293.94 8.11058C291.725 7.9996 289.506 7.9996 287.291 8.11058L285.089 17.3441C284.82 18.413 284.784 19.5276 284.985 20.6116C285.186 21.6956 285.618 22.7233 286.253 23.6245L287.375 25.205C288.189 26.3544 289.236 27.3183 290.449 28.0333Z" fill="#FED0A9"/>
<path d="M310.102 18.7985C310.893 16.2039 310.672 13.4058 309.485 10.9673C308.298 8.52882 306.232 6.63089 303.704 5.65539H303.08C302.388 5.44355 301.679 5.29051 300.961 5.19788C297.388 4.86514 293.648 4.5324 290.532 4.44922H290.158C290.158 4.82355 289.909 5.23947 289.742 5.6138H290.532C293.482 5.6138 297.138 5.98813 300.837 6.36246C301.485 6.42289 302.125 6.5483 302.748 6.73679C305.166 7.49298 307.186 9.1796 308.362 11.4258C309.539 13.6721 309.776 16.2941 309.022 18.7154L306.197 27.0338C305.743 28.5102 304.82 29.7974 303.567 30.6987C302.313 31.6 300.8 32.0658 299.258 32.0249H295.102C294.003 31.9886 292.913 31.8068 291.862 31.4842C289.247 30.5997 286.987 28.8927 285.421 26.6179C285.213 26.2852 285.089 25.9524 284.922 25.6197L284.382 26.9506V27.2002C285.926 29.4276 288.116 31.1264 290.657 32.0665L291.404 32.3576C292.553 32.6961 293.74 32.8917 294.936 32.9399H299.091C301.217 32.9985 303.284 32.2393 304.867 30.8187C305.931 29.8328 306.719 28.5853 307.152 27.2002L310.102 18.7985Z" fill="#00DA7E"/>
<path opacity="0.5" d="M300.879 9.64844L297.181 28.5729H299.84L303.413 10.6051C302.626 10.1496 301.77 9.8264 300.879 9.64844Z" fill="white"/>
<path opacity="0.5" d="M293.731 8.90137L290.948 26.994C292.364 27.8362 293.958 28.3347 295.601 28.4497H296.349L300.047 9.48366C297.596 9.19251 295.477 8.98455 293.731 8.90137Z" fill="white"/>
<path d="M434.047 227.758L420.502 233.456L416.554 198.02H440.945L434.047 227.758Z" fill="#006456"/>
<path d="M345.298 68.3787V68.6698C345.195 68.5132 345.069 68.373 344.924 68.2539C345.03 68.3378 345.163 68.3819 345.298 68.3787Z" fill="#3C3C3B"/>
<path d="M537.096 388.098C537.648 387.637 538.264 387.259 538.925 386.975L537.844 384.687L539.756 383.814C540.062 384.614 540.497 385.359 541.044 386.018L543.371 384.978C542.54 383.315 541.709 381.693 540.836 380.071C540.735 379.774 540.735 379.452 540.836 379.155C540.922 378.872 541.097 378.624 541.335 378.448C542.301 377.492 543.018 376.314 543.424 375.016C543.83 373.718 543.911 372.34 543.662 371.003C543.41 369.674 542.807 368.437 541.915 367.42C541.024 366.403 539.876 365.644 538.592 365.222C537.542 364.911 536.445 364.785 535.351 364.848C531.999 364.812 528.738 365.945 526.127 368.05C524.804 369.085 523.758 370.432 523.084 371.971C522.409 373.51 522.127 375.193 522.263 376.868C522.485 378.514 523.225 380.046 524.376 381.242C525.526 382.439 527.027 383.237 528.662 383.523C529.162 383.51 529.659 383.61 530.116 383.814C530.631 384.164 531.035 384.654 531.279 385.228L533.565 389.637L535.31 388.514L533.939 386.143L535.434 385.478L537.096 388.098Z" fill="#3C3C3B"/>
<path d="M524.59 367.51C525.106 368.607 525.286 369.832 525.105 371.031C524.924 372.23 524.392 373.348 523.574 374.243C522.757 375.138 521.693 375.77 520.516 376.058C519.339 376.346 518.104 376.277 516.966 375.86C515.829 375.444 514.841 374.698 514.128 373.718C513.415 372.737 513.009 371.567 512.962 370.356C512.915 369.144 513.229 367.946 513.864 366.913C514.499 365.881 515.427 365.061 516.529 364.557C517.252 364.221 518.034 364.03 518.83 363.997C519.627 363.963 520.422 364.087 521.171 364.361C521.919 364.635 522.607 365.055 523.193 365.595C523.78 366.135 524.254 366.786 524.59 367.51Z" fill="#3C3C3B"/>
<path d="M544.448 358.359C544.972 359.453 545.159 360.678 544.985 361.879C544.811 363.08 544.284 364.202 543.471 365.102C542.658 366.002 541.596 366.64 540.42 366.934C539.244 367.228 538.007 367.165 536.867 366.753C535.727 366.341 534.735 365.599 534.017 364.621C533.3 363.643 532.889 362.474 532.838 361.261C532.786 360.049 533.096 358.849 533.728 357.814C534.361 356.778 535.286 355.955 536.387 355.447C537.107 355.104 537.887 354.907 538.683 354.868C539.479 354.828 540.275 354.948 541.025 355.218C541.775 355.489 542.463 355.906 543.051 356.445C543.639 356.984 544.113 357.635 544.448 358.359Z" fill="#3C3C3B"/>
<path d="M532.899 377.2C533.108 377.656 533.177 378.163 533.097 378.658C533.018 379.154 532.794 379.614 532.453 379.982C532.112 380.349 531.67 380.608 531.183 380.724C530.695 380.84 530.184 380.809 529.715 380.635C529.245 380.461 528.837 380.151 528.543 379.745C528.249 379.339 528.082 378.855 528.062 378.354C528.043 377.853 528.172 377.357 528.434 376.93C528.696 376.502 529.079 376.162 529.534 375.952C529.837 375.812 530.164 375.734 530.497 375.721C530.83 375.708 531.163 375.761 531.475 375.877C531.788 375.993 532.075 376.169 532.319 376.396C532.563 376.623 532.761 376.896 532.899 377.2Z" fill="#FED0A9"/>
<path d="M539.547 374.121C539.818 374.735 539.839 375.43 539.606 376.059C539.374 376.688 538.905 377.201 538.301 377.49C537.845 377.699 537.338 377.768 536.843 377.689C536.349 377.609 535.889 377.385 535.521 377.043C535.154 376.702 534.896 376.26 534.78 375.772C534.664 375.284 534.695 374.773 534.869 374.302C535.043 373.832 535.352 373.424 535.758 373.13C536.163 372.835 536.647 372.668 537.148 372.648C537.648 372.629 538.143 372.759 538.57 373.021C538.998 373.283 539.337 373.666 539.547 374.121Z" fill="#FED0A9"/>
<path opacity="0.1" d="M338.107 233.457L330.586 243.896L300.004 286.404C306.362 271.805 313.218 257.289 318.702 245.893C318.702 245.893 314.547 224.14 309.436 197.105L309.686 195.94C314.838 209.25 320.281 221.436 327.47 228.133L327.76 228.382C330.574 231.143 334.203 232.923 338.107 233.457Z" fill="#1D1D1B"/>
<path opacity="0.1" d="M348.744 135.633C355.226 133.803 362.539 139.792 368.481 136.714C370.889 135.147 372.726 132.841 373.716 130.142C374.42 128.85 374.884 127.441 375.087 125.983C375.503 120.784 370.184 117.166 365.447 115.044C355.517 110.652 344.959 107.845 334.16 106.726C333.165 106.487 332.129 106.475 331.13 106.691C330.13 106.907 329.191 107.345 328.384 107.974C327.886 108.553 327.492 109.214 327.221 109.929C323.315 118.58 319.367 127.273 315.462 135.965C314.888 136.945 314.627 138.077 314.714 139.209C315.188 140.678 316.217 141.902 317.581 142.62C322.608 146.072 328.716 149.649 334.201 147.403C339.686 145.157 342.761 137.338 348.744 135.633Z" fill="#1D1D1B"/>
<path d="M354.477 102.234L356.43 109.637C357.324 113.063 357.209 116.674 356.098 120.035C355.655 121.364 355.055 122.634 354.311 123.82C352.252 127.063 349.047 129.41 345.336 130.392H344.837C341.118 131.366 337.167 130.891 333.785 129.061C332.643 128.442 331.571 127.703 330.585 126.856C327.852 124.453 325.911 121.277 325.017 117.748L323.065 110.386C329.588 94.6639 340.017 91.2949 354.477 102.234Z" fill="#07AD8D"/>
<path d="M334.075 129.394L331.416 129.851L330.003 130.059H329.629C328.098 130.31 326.529 129.984 325.225 129.144C324.651 128.777 324.144 128.312 323.729 127.772L319.948 122.822C319.334 122.131 318.893 121.304 318.66 120.41C318.576 119.914 318.576 119.408 318.66 118.912C318.691 118.162 318.875 117.426 319.2 116.75L321.111 113.755L323.064 110.719C324.898 116.445 327.618 121.849 331.125 126.732C331.909 127.655 332.802 128.479 333.784 129.186L334.075 129.394Z" fill="#226666"/>
<path d="M363.286 111.55L362.413 117.664C362.338 118.192 362.199 118.709 361.998 119.203C361.663 119.979 361.173 120.678 360.559 121.257C359.944 121.837 359.218 122.284 358.424 122.572H358.05L356.679 123.071L354.145 123.986C354.137 123.889 354.137 123.792 354.145 123.695C354.689 122.498 355.093 121.242 355.35 119.952C355.843 113.995 355.465 107.998 354.228 102.15L356.845 103.565L360.253 105.395H360.543C361.597 106.131 362.372 107.2 362.746 108.431C363.198 109.405 363.384 110.481 363.286 111.55Z" fill="#226666"/>
<path d="M351.904 116.25C352.428 118.228 352.352 120.317 351.687 122.252C351.021 124.186 349.796 125.879 348.167 127.115C346.538 128.351 344.578 129.074 342.538 129.192C340.497 129.31 338.467 128.818 336.707 127.778C334.946 126.738 333.535 125.198 332.651 123.353C331.767 121.508 331.452 119.441 331.745 117.416C332.038 115.391 332.925 113.499 334.295 111.981C335.665 110.462 337.456 109.386 339.438 108.889C342.066 108.218 344.852 108.616 347.188 109.996C349.524 111.375 351.219 113.624 351.904 116.25Z" fill="#FE0782"/>
<path d="M348.704 117.207C349.049 118.522 348.997 119.911 348.553 121.196C348.108 122.482 347.293 123.606 346.209 124.426C345.125 125.247 343.822 125.726 342.466 125.804C341.109 125.882 339.76 125.554 338.59 124.863C337.419 124.172 336.481 123.148 335.893 121.922C335.305 120.696 335.094 119.323 335.287 117.976C335.481 116.63 336.069 115.372 336.978 114.361C337.888 113.35 339.076 112.632 340.394 112.299C342.145 111.856 344.001 112.123 345.557 113.042C347.113 113.961 348.244 115.458 348.704 117.207Z" fill="#3C3C3B"/>
<path d="M321.485 129.101C320.696 128.394 319.989 127.77 319.366 127.105C319.21 127.402 319.072 127.707 318.951 128.02L320.072 129.06C320.188 129.118 320.288 129.204 320.363 129.309L320.82 129.684L322.316 129.309L321.485 129.101ZM319.491 127.105C319.075 126.731 318.743 126.356 318.369 125.982L318.12 127.521L318.66 128.062L319.782 129.101C319.898 129.159 319.997 129.245 320.072 129.351L320.53 129.725L322.025 129.351L320.903 128.394C320.696 128.394 319.989 127.77 319.366 127.105H319.491ZM331.541 129.809C330.917 129.06 330.252 128.27 329.546 127.521C328.84 126.772 327.136 125.109 326.014 124.11C324.799 123.026 323.523 122.012 322.192 121.074C321.277 120.409 320.363 119.785 319.449 119.244L318.66 118.87C316.042 117.414 313.674 116.665 312.676 117.788C312.374 118.194 312.24 118.7 312.302 119.202C312.456 119.959 312.722 120.688 313.092 121.365C313.52 122.149 314.007 122.9 314.546 123.611L314.754 123.902L315.169 124.485L316.291 125.816L316.79 126.315L317.122 126.689V126.897L317.538 127.313L318.078 127.854L319.2 128.893C319.316 128.951 319.416 129.037 319.491 129.143L319.948 129.517C320.19 129.75 320.455 129.959 320.737 130.141C320.737 130.141 320.737 130.141 320.737 130.349L321.111 130.64C321.368 130.875 321.646 131.083 321.942 131.264L322.981 132.054C323.096 132.152 323.221 132.236 323.355 132.304H323.604L324.809 133.094L325.308 133.385C326.15 133.923 327.041 134.383 327.967 134.758L328.757 135.091H329.172H331.125C331.526 135.231 331.947 135.301 332.372 135.299C332.618 135.303 332.863 135.257 333.092 135.164C333.32 135.071 333.527 134.933 333.701 134.758C334.906 135.091 333.577 132.512 331.416 129.809H331.541ZM322.815 130.058L321.693 129.101C320.903 128.394 320.197 127.77 319.574 127.105C318.951 126.44 318.826 126.356 318.452 125.982C316.505 124.152 314.95 121.944 313.881 119.494C313.772 119.213 313.772 118.901 313.881 118.62C313.881 118.412 314.712 118.62 315.751 118.62L316.416 118.87C317.198 119.332 317.947 119.846 318.66 120.409H318.951L319.574 120.741C319.574 120.741 320.654 121.448 321.236 121.906C321.901 122.405 322.607 122.904 323.313 123.528L323.687 123.819C323.687 123.819 323.687 123.819 323.895 124.027L324.685 124.693C325.599 125.483 326.43 126.273 327.219 127.063L327.469 127.313C327.469 127.313 327.967 127.77 328.175 128.02L329.172 129.185C329.323 129.33 329.449 129.498 329.546 129.684C329.679 129.803 329.791 129.944 329.878 130.1L330.71 131.264L331.042 131.847C331.154 132.004 331.251 132.171 331.333 132.346C331.411 132.451 331.481 132.562 331.541 132.678C331.831 133.427 331.914 133.926 331.541 134.134C331.411 134.197 331.269 134.229 331.125 134.229C330.981 134.229 330.839 134.197 330.71 134.134C327.857 133.254 325.184 131.874 322.815 130.058ZM321.693 129.101C320.903 128.394 320.197 127.77 319.574 127.105C318.951 126.44 318.826 126.356 318.452 125.982L318.203 127.521L318.743 128.062L319.865 129.101C319.981 129.159 320.081 129.245 320.156 129.351L320.613 129.725L322.108 129.351L321.693 129.101ZM318.66 118.87C316.042 117.414 313.674 116.665 312.676 117.788C312.374 118.194 312.24 118.7 312.302 119.202L312.759 118.703L313.632 119.494C313.523 119.213 313.523 118.901 313.632 118.62C313.632 118.412 314.463 118.62 315.502 118.62L316.167 118.87C317.034 119.322 317.867 119.836 318.66 120.409C318.595 119.898 318.595 119.381 318.66 118.87ZM321.444 129.101C320.654 128.394 319.948 127.77 319.325 127.105C319.169 127.402 319.03 127.707 318.909 128.02L320.031 129.06C320.147 129.118 320.247 129.204 320.322 129.309L320.779 129.684L322.275 129.309L321.444 129.101Z" fill="#FE0782"/>
<path d="M332.912 136.382L332.496 136.881L328.133 141.872L327.261 142.829L326.804 142.413L325.391 141.165L325.059 140.874H325.017L320.82 137.13H320.779L320.156 136.59L320.114 136.548L314.505 131.64L314.255 131.391L313.591 130.808L309.352 127.107L309.02 126.816L307.607 125.568L307.15 125.152L307.981 124.154L312.344 119.204L312.801 118.705L313.674 119.454L324.892 129.353L332.039 135.633L332.912 136.382Z" fill="#FE419C"/>
<path d="M307.153 125.15C308.358 123.736 313.843 126.606 319.411 131.472C324.979 136.339 328.469 141.454 327.264 142.827C326.059 144.199 320.574 141.371 315.006 136.505C309.438 131.639 305.907 126.523 307.153 125.15Z" fill="#FE419C"/>
<path d="M317.205 131.806V131.474V131.806ZM309.685 126.649C309.596 126.578 309.486 126.539 309.373 126.539C309.26 126.539 309.15 126.578 309.061 126.649L309.352 126.982C311.825 128.057 314.144 129.455 316.25 131.141H316.79C314.655 129.302 312.261 127.788 309.685 126.649ZM309.061 126.649L309.352 126.982C311.825 128.057 314.144 129.455 316.25 131.141H316.79C314.612 129.244 312.161 127.687 309.518 126.524C309.427 126.519 309.335 126.54 309.255 126.584C309.174 126.628 309.107 126.694 309.061 126.774V126.649ZM325.682 140.374C323.763 137.405 321.394 134.753 318.66 132.513C318.307 132.171 317.932 131.851 317.538 131.557L317.205 131.307C315.028 129.41 312.576 127.854 309.934 126.69C309.846 126.62 309.736 126.581 309.622 126.581C309.509 126.581 309.399 126.62 309.311 126.69C309.233 126.792 309.191 126.916 309.191 127.044C309.191 127.172 309.233 127.296 309.311 127.398C310.25 128.963 311.35 130.427 312.593 131.765C313.67 132.973 314.822 134.112 316.042 135.175C316.124 135.192 316.209 135.192 316.291 135.175C316.493 135.391 316.716 135.586 316.956 135.758C319.271 137.919 321.872 139.752 324.685 141.206C324.79 141.273 324.913 141.308 325.038 141.308C325.163 141.308 325.285 141.273 325.391 141.206C325.481 141.114 325.538 140.995 325.553 140.867C325.568 140.739 325.54 140.61 325.474 140.499L325.682 140.374ZM325.1 140.832C322.07 139.466 319.267 137.642 316.79 135.425C316.618 135.309 316.464 135.169 316.333 135.009L315.959 134.718C314.896 133.759 313.884 132.745 312.926 131.681C311.603 130.3 310.433 128.78 309.435 127.148C311.908 128.223 314.227 129.622 316.333 131.307L317.081 131.889L318.036 132.721C320.728 134.957 323.043 137.611 324.892 140.582L325.1 140.832ZM309.685 126.649C309.596 126.578 309.486 126.539 309.373 126.539C309.26 126.539 309.15 126.578 309.061 126.649L309.352 126.982C311.825 128.057 314.144 129.455 316.25 131.141H316.79C314.655 129.302 312.261 127.788 309.685 126.649ZM317.205 131.806V131.474V131.806ZM317.205 131.266C315.028 129.369 312.576 127.812 309.934 126.649C309.846 126.578 309.736 126.539 309.622 126.539C309.509 126.539 309.399 126.578 309.311 126.649L309.602 126.982C312.074 128.057 314.394 129.455 316.499 131.141L317.247 131.723L317.205 131.266Z" fill="#F9BBD0"/>
<path d="M317.704 129.269C314.975 126.73 311.619 124.964 307.982 124.153L307.151 125.152L307.608 125.567C308.148 124.944 312.054 126.233 317.455 130.683H317.663L317.912 130.143L317.704 129.269ZM317.704 129.269C314.975 126.73 311.619 124.964 307.982 124.153L307.151 125.152L307.608 125.567C308.148 124.944 312.054 126.233 317.455 130.683H317.663L317.912 130.143L317.704 129.269ZM325.184 136.548C323.547 134.564 321.754 132.715 319.824 131.016L319.574 130.808L318.203 129.685L317.704 129.311C314.975 126.772 311.619 125.006 307.982 124.195C307.732 124.198 307.486 124.252 307.258 124.352C307.03 124.452 306.824 124.596 306.652 124.777C305.447 126.15 307.192 128.936 309.685 132.097C311.186 133.847 312.796 135.501 314.505 137.047C314.568 137.163 314.672 137.252 314.796 137.296C315.211 137.671 315.627 138.045 316.126 138.419L316.749 138.877L317.04 139.127H317.289L318.619 140.083L319.117 140.416L319.574 140.749L320.447 141.248L320.945 141.58L322.732 142.454H323.148C323.552 142.624 323.969 142.763 324.394 142.87H324.976C325.327 142.946 325.692 142.937 326.039 142.843C326.386 142.749 326.706 142.573 326.97 142.329C327.249 141.992 327.383 141.559 327.344 141.123C326.953 139.463 326.217 137.904 325.184 136.548ZM326.97 142.412C326.43 143.078 322.317 141.664 316.666 136.881C316.292 136.639 315.944 136.361 315.627 136.049C314.154 134.753 312.766 133.364 311.472 131.889C308.397 128.479 307.317 126.025 307.774 125.526C308.231 125.027 312.22 126.191 317.621 130.642H317.829L318.162 130.891L319.159 131.765C325.184 137.421 327.427 141.747 326.97 142.412ZM317.912 129.269C315.183 126.73 311.827 124.964 308.189 124.153L307.358 125.152L307.815 125.567C308.356 124.944 312.261 126.233 317.663 130.683H317.871L318.12 130.143L317.912 129.269ZM318.411 129.685L317.912 129.311C315.183 126.772 311.827 125.006 308.189 124.195L307.358 125.193L307.815 125.609C308.356 124.985 312.261 126.275 317.663 130.725H317.871L318.203 130.974H318.993C319.255 130.951 319.519 130.951 319.782 130.974L318.411 129.685Z" fill="#FE0782"/>
<path d="M312.801 118.704C314.006 117.331 319.491 120.16 325.059 125.026C330.627 129.892 334.117 135.008 332.912 136.381C331.707 137.753 326.222 134.925 320.655 130.059C315.087 125.192 311.555 120.076 312.801 118.704Z" fill="#FE419C"/>
<path d="M316.834 132.886L315.338 131.722H314.632C315.342 132.177 316.022 132.678 316.668 133.219L317.042 133.552V132.886H316.834ZM316.834 132.886L315.338 131.722H314.632C315.342 132.177 316.022 132.678 316.668 133.219L317.042 133.552V132.886H316.834ZM320.989 137.046C320.08 135.834 319.035 134.731 317.873 133.76L317.083 132.886H316.834L315.338 131.722L314.05 130.973C313.989 130.932 313.916 130.91 313.842 130.91C313.769 130.91 313.696 130.932 313.635 130.973C313.595 131.043 313.573 131.122 313.573 131.202C313.573 131.282 313.595 131.361 313.635 131.431C313.635 131.431 313.635 131.68 313.967 131.847C314.652 132.721 315.417 133.528 316.252 134.259L316.751 134.758C317.829 135.734 319.014 136.585 320.283 137.295C320.342 137.343 320.415 137.368 320.491 137.368C320.566 137.368 320.639 137.343 320.698 137.295C320.698 137.295 320.698 137.295 320.698 137.087C320.752 137.043 320.792 136.984 320.814 136.918C320.836 136.852 320.839 136.781 320.823 136.713L320.989 137.046ZM320.283 137.046C319.194 136.374 318.165 135.608 317.208 134.758L316.709 134.259C315.895 133.456 315.158 132.579 314.507 131.639H314.757C315.466 132.094 316.146 132.594 316.793 133.136L317.167 133.469L317.582 133.802C318.588 134.65 319.507 135.598 320.324 136.63L320.283 137.046ZM316.834 132.886L315.338 131.722H314.632C315.342 132.177 316.022 132.678 316.668 133.219L317.042 133.552V132.886H316.834ZM316.834 132.886L315.338 131.722L314.05 130.973C313.989 130.932 313.916 130.91 313.842 130.91C313.769 130.91 313.696 130.932 313.635 130.973L314.3 131.556H314.549C315.258 132.011 315.938 132.511 316.585 133.053L316.959 133.386V132.886H316.834Z" fill="#F9BBD0"/>
<path d="M375.543 107.183L375.335 107.765L374.712 109.554L374.587 109.969L372.717 115.293L372.509 115.876L372.426 116.125L369.809 123.529L369.559 124.36L367.69 129.684L367.523 130.1L366.9 131.889L366.692 132.512L365.487 132.055L359.213 129.851L358.59 129.643L359.005 128.561L362.288 119.161L367.108 105.477L367.482 104.354L368.105 104.562L374.338 106.725L375.543 107.183Z" fill="#FE419C"/>
<path d="M375.544 107.184C373.799 106.56 370.434 111.759 367.982 118.746C365.531 125.734 364.949 131.889 366.694 132.472C368.439 133.054 371.805 127.938 374.256 120.951C376.708 113.963 377.289 107.932 375.544 107.184Z" fill="#FE419C"/>
<path d="M370.434 112.923L369.976 112.424C369.353 113.671 368.73 115.002 368.231 116.292C368.024 116.749 367.857 117.207 367.65 117.706C367.571 117.976 367.474 118.24 367.359 118.496C365.821 122.988 364.326 129.477 365.489 132.055L366.652 132.471L366.86 131.889C365.988 131.556 365.821 126.731 368.522 118.954C368.522 118.33 368.979 117.747 369.145 117.207C369.686 115.876 370.226 114.711 370.724 113.671L370.434 112.923ZM370.434 112.923L369.976 112.424C369.353 113.671 368.73 115.002 368.231 116.292C368.024 116.749 367.857 117.207 367.65 117.706C367.571 117.976 367.474 118.24 367.359 118.496C365.821 122.988 364.326 129.477 365.489 132.055L366.652 132.471L366.86 131.889C365.988 131.556 365.821 126.731 368.522 118.954C368.522 118.33 368.979 117.747 369.145 117.207C369.686 115.876 370.226 114.711 370.724 113.671L370.434 112.923ZM375.794 106.559C375.564 106.46 375.317 106.408 375.066 106.408C374.816 106.408 374.569 106.46 374.339 106.559C372.804 107.619 371.561 109.05 370.724 110.718C370.475 111.176 370.226 111.592 369.976 112.091C369.353 113.339 368.73 114.67 368.231 115.959C368.024 116.417 367.857 116.874 367.65 117.373C367.571 117.643 367.474 117.907 367.359 118.163C365.821 122.655 364.326 129.144 365.489 131.722C365.567 131.955 365.697 132.166 365.87 132.339C366.043 132.512 366.254 132.643 366.486 132.721C366.636 132.759 366.793 132.759 366.943 132.721H367.442C368.011 132.489 368.522 132.134 368.938 131.681L369.27 131.348L369.81 130.641L370.184 130.1C370.572 129.518 370.946 128.894 371.306 128.229V127.938L371.722 127.106C371.943 126.767 372.124 126.404 372.262 126.024C372.518 125.541 372.74 125.041 372.927 124.527C372.927 124.527 372.927 124.527 372.927 124.277L373.176 123.654C373.176 123.654 373.176 123.654 373.176 123.362C373.27 123.193 373.34 123.011 373.384 122.822C373.384 122.822 373.675 122.031 373.799 121.657C373.924 121.283 374.339 120.077 374.589 119.203C374.796 118.538 374.963 117.872 375.129 117.165C375.236 116.839 375.32 116.505 375.378 116.167V115.793C375.378 115.335 375.378 114.919 375.627 114.462C377.414 110.302 377.414 107.141 375.794 106.559ZM373.675 120.742C370.932 128.437 367.816 132.055 366.943 131.764C366.071 131.473 365.904 126.607 368.605 118.829C368.605 118.205 369.062 117.623 369.229 117.082C369.769 115.751 370.309 114.586 370.807 113.547C372.802 109.387 374.63 107.682 375.253 107.89C375.877 108.098 376.126 110.552 375.253 114.711C375.253 115.585 374.838 116.583 374.547 117.664C374.256 118.746 374.048 119.619 373.675 120.742ZM370.434 112.923L369.976 112.424C369.353 113.671 368.73 115.002 368.231 116.292C368.024 116.749 367.857 117.207 367.65 117.706C367.571 117.976 367.474 118.24 367.359 118.496C365.821 122.988 364.326 129.477 365.489 132.055L366.652 132.471L366.86 131.889C365.988 131.556 365.821 126.731 368.522 118.954C368.522 118.33 368.979 117.747 369.145 117.207C369.686 115.876 370.226 114.711 370.724 113.671L370.434 112.923ZM370.434 112.923L369.976 112.424C369.353 113.671 368.73 115.002 368.231 116.292C368.024 116.749 367.857 117.207 367.65 117.706C367.571 117.976 367.474 118.24 367.359 118.496C365.821 122.988 364.326 129.477 365.489 132.055L366.652 132.471L366.86 131.889C365.988 131.556 365.821 126.731 368.522 118.954C368.522 118.33 368.979 117.747 369.145 117.207C369.686 115.876 370.226 114.711 370.724 113.671L370.434 112.923Z" fill="#FE0782"/>
<path d="M367.485 104.355C365.74 103.731 362.333 108.888 359.881 115.876C357.43 122.863 356.89 129.061 358.593 129.643C360.297 130.225 363.745 125.109 366.197 118.08C368.648 111.051 369.23 104.937 367.485 104.355Z" fill="#FE419C"/>
<path d="M370.51 119.276C370.668 118.862 370.808 118.492 370.976 118.123L371.037 118.266C371.079 118.164 371.127 118.049 371.184 117.915C371.516 117.125 371.849 116.459 372.056 116.002C372.16 115.769 372.286 115.546 372.43 115.336C372.476 115.317 372.526 115.307 372.576 115.307C372.626 115.307 372.675 115.317 372.721 115.336H372.68C372.74 115.35 372.796 115.381 372.84 115.425C372.884 115.469 372.915 115.525 372.929 115.586C372.776 116.759 372.512 117.915 372.14 119.038L371.849 119.994C371.383 121.454 370.741 122.85 369.937 124.154C369.878 124.201 369.805 124.227 369.73 124.227C369.654 124.227 369.581 124.201 369.522 124.154C369.495 124.095 369.482 124.031 369.482 123.967C369.482 123.902 369.495 123.838 369.522 123.779C369.523 123.773 369.524 123.766 369.525 123.759L369.314 124.362C369.288 124.303 369.274 124.239 369.274 124.174C369.274 124.11 369.288 124.046 369.314 123.987C369.533 122.487 369.895 121.01 370.394 119.579C370.434 119.475 370.473 119.374 370.51 119.276Z" fill="#F9BBD0"/>
<path opacity="0.1" d="M376.834 113.879C376.389 116.352 375.75 118.785 374.922 121.158C373.053 126.481 369.271 134.051 366.612 133.095C366.382 133.002 366.173 132.862 366.001 132.682C365.829 132.503 365.698 132.289 365.615 132.055L359.382 129.85C359.175 129.983 358.942 130.07 358.698 130.106C358.455 130.141 358.206 130.125 357.97 130.058C356.391 129.476 356.308 126.565 356.848 123.196L354.313 124.111C354.305 124.014 354.305 123.916 354.313 123.819C352.254 127.063 349.049 129.409 345.338 130.391H344.839C341.12 131.366 337.169 130.89 333.787 129.06L334.078 129.268L331.418 129.726C333.579 132.387 334.909 134.966 333.828 136.214C333.659 136.395 333.453 136.538 333.223 136.631C332.994 136.725 332.746 136.767 332.499 136.755L328.344 141.746C328.404 142.235 328.27 142.728 327.97 143.118C325.809 145.364 318.662 140.706 314.507 137.046C312.764 135.522 311.139 133.867 309.646 132.096H311.183H312.139H312.721H313.842H314.507H315.214H316.335H316.917H317.873H318.704H319.493L320.989 131.764L322.527 131.389L324.812 130.682H325.144L328.136 129.518L329.341 128.977L330.504 128.436L331.045 128.187C331.959 127.688 332.914 127.188 333.828 126.606L335.283 124.568C335.823 124.235 336.405 123.861 336.986 123.57C340.648 121.513 344.756 120.385 348.953 120.284H350.532H352.402H355.643H356.058H357.346H358.676C359.756 120.284 360.837 119.951 361.958 119.743H362.249L364.618 119.161L366.114 118.745L367.651 118.288L368.399 118.038L369.188 117.747L370.102 117.414L370.684 117.206L371.848 116.749L372.471 116.499L372.886 116.291L373.967 115.792L374.465 115.584L375.338 115.168L376.044 114.836L376.834 113.879Z" fill="#1D1D1B"/>
<path d="M326.973 107.64L324.189 111.425C319.732 108.254 316.012 104.155 313.287 99.4097C310.561 94.664 308.894 89.3841 308.4 83.9326L309.106 83.5998L313.261 81.8945C313.367 86.9622 314.663 91.9339 317.045 96.4067C319.427 100.88 322.829 104.728 326.973 107.64Z" fill="#3C3C3B"/>
<path d="M353.438 102.025L348.909 100.736C351.277 92.4176 348.618 76.9453 346.291 70.748C348.036 71.0808 349.823 71.5383 351.651 72.0374C354.481 81.7737 355.091 92.0215 353.438 102.025Z" fill="#3C3C3B"/>
<path d="M434.132 159.298C432.239 160.988 429.962 162.189 427.5 162.798C425.038 163.406 422.465 163.405 420.004 162.792C416.93 162.053 414.159 160.382 412.068 158.009L409.7 155.389L402.677 147.736L391.625 135.674L382.276 125.442L375.877 118.455L375.378 117.914L374.88 117.373L374.256 116.75L373.966 116.417L373.176 115.585L372.678 115.419L371.847 114.504L371.514 114.171L370.974 113.547L370.517 113.048L370.06 112.549L368.273 110.594L367.151 109.388L366.196 108.348L364.367 106.476L364.035 106.102L363.744 105.728C361.125 102.61 359.825 98.5927 360.12 94.5303C360.415 90.4678 362.282 86.6809 365.323 83.9749L365.531 83.7669C367.067 82.397 368.859 81.3444 370.803 80.6697C372.747 79.9949 374.806 79.7112 376.86 79.8349C378.914 79.9585 380.923 80.4871 382.772 81.3903C384.622 82.2935 386.274 83.5535 387.636 85.0979L389.672 87.2607L435.461 137.047C436.834 138.579 437.889 140.368 438.565 142.312C439.242 144.255 439.527 146.313 439.403 148.367C439.28 150.421 438.75 152.431 437.845 154.278C436.94 156.126 435.678 157.776 434.132 159.132V159.298Z" fill="#02826D"/>
<line x1="200" y1="499" x2="650" y2="499" stroke="#02826D" stroke-width="2"/>
<line x1="30" y1="499" x2="130" y2="499" stroke="#02826D" stroke-width="2"/>
<path d="M0 499H20" stroke="#02826D" stroke-width="2"/>
</svg>
