<?xml version="1.0" encoding="utf-8"?>
<!-- Generator: Adobe Illustrator 22.1.0, SVG Export Plug-In . SVG Version: 6.00 Build 0)  -->
<svg version="1.1" id="Layer_1" xmlns="http://www.w3.org/2000/svg" xmlns:xlink="http://www.w3.org/1999/xlink" x="0px" y="0px"
	 viewBox="0 0 512 512" style="enable-background:new 0 0 512 512;" xml:space="preserve">
<style type="text/css">
	.st0{fill:#F58705;}
</style>
<path class="st0" d="M228.6,249.6c-23.6-11.1-45.4-36-61.3-70.2l14.5-6.7c14.1,30.4,33.6,53.1,53.6,62.4L228.6,249.6z"/>
<path class="st0" d="M280,32h16v32h-16V32z"/>
<path class="st0" d="M280,96h16v32h-16V96z"/>
<path class="st0" d="M240,72h32v16h-32V72z"/>
<path class="st0" d="M304,72h32v16h-32V72z"/>
<path class="st0" d="M332.9,464h-17.6L299,447.7c12-1.5,20.9-11.6,21-23.7v-96c0-13.3-10.7-24-24-24v-25.3
	c18.7-9.2,35.2-22.4,48.2-38.7c75-0.2,135.7-61,135.8-136V16h-80V0H112v16H32v88c0.1,75,60.8,135.8,135.8,136
	c10.2,12.5,22.3,23.3,35.9,32h-15l-48,48H0v16h147.3l48-48H216v16h-16v16h96c4.4,0,8,3.6,8,8v8h-32v16h32v16h-32v16h32v16h-32v16h32
	v8c0,4.4-3.6,8-8,8h-86.1l-32-16H0v16h174.1l32,16h6.6l-16,16h-17.6l-16,32H128v16h256v-16h-35.1L332.9,464z M400,32h64v72
	c-0.1,61.3-46.4,112.8-107.4,119.3c3.8-5.7,7.4-11.8,10.8-18.1c47.1-11,80.5-52.9,80.5-101.3V48h-48V32z M400,64h32v40
	c0,35.9-21.8,68.1-55,81.6c15.3-35.9,23.1-74.6,23-113.6V64z M135,185.6c-33.2-13.5-55-45.8-55-81.6V64h32v8
	C111.9,111,119.7,149.7,135,185.6z M48,104V32h64v16H64v56c0.1,48.4,33.4,90.3,80.5,101.3c3.4,6.3,7,12.3,10.8,18.1
	C94.4,216.8,48.1,165.3,48,104z M280,304h-48v-19.4c15.7,4.5,32.3,4.5,48,0V304z M256,272c-67,0-128-95.3-128-200V16h256v56
	C384,176.7,323,272,256,272z M232,451.3V448h48v3.3l12.7,12.7h-73.4L232,451.3z M180.9,496l8-16h134.1l8,16H180.9z"/>
<path class="st0" d="M384,304h128v16H384V304z"/>
<path class="st0" d="M416,336h96v16h-96V336z"/>
<path class="st0" d="M448,368h64v16h-64V368z"/>
</svg>
