<?xml version="1.0" encoding="utf-8"?>
<!-- Generator: Adobe Illustrator 22.1.0, SVG Export Plug-In . SVG Version: 6.00 Build 0)  -->
<svg version="1.1" id="Layer_1" xmlns="http://www.w3.org/2000/svg" xmlns:xlink="http://www.w3.org/1999/xlink" x="0px" y="0px"
	 viewBox="0 0 230.4 383.8" style="enable-background:new 0 0 230.4 383.8;" xml:space="preserve">
<style type="text/css">
	.st0{fill:#F18610;}
</style>
<g>
	<path class="st0" d="M115.2,0c-8.9,10.2-14.4,23.5-14.4,38c0.6,32,4.5,64,4.8,96c0.7,29.8-8.2,57.8-19.1,85.1
		c-3.7,7.6-7.6,15-11.5,22.4l-11.5-2.4c-10.4-2.1-17.2-12.2-15.1-22.5c1.9-9.1,9.9-15.4,18.8-15.5l4.2,0.4L62,123.3
		c-3.1-34.8-21-65.4-47.5-85.4C9.9,34.5,5.1,31.4,0,28.6v278.1h64.2c4.8,26.1,19.2,48.7,39.3,64.4c4.8,3.2,8.8,7.6,11.7,12.7
		c2.9-5.1,6.8-9.5,11.7-12.7c20.2-15.6,34.5-38.3,39.3-64.4h64.2v-278c-5,2.8-9.9,5.9-14.5,9.3c-26.5,19.9-44.4,50.5-47.5,85.4
		l-9.4,78.2l4.2-0.4c8.9,0.1,16.9,6.3,18.8,15.5c2.1,10.4-4.7,20.4-15.1,22.5l-11.5,2.4c-4-7.4-7.8-14.8-11.5-22.4
		c-10.9-27.3-19.8-55.3-19.1-85.1c0.4-32,4.2-64,4.8-96C129.6,23.5,124.1,10.2,115.2,0L115.2,0z M19.2,68.8
		c12.5,14.5,20.8,32.7,23.3,52.7l7.7,64.6c-9.8,4.9-17.3,13.8-20.1,24.6H19.2V68.8L19.2,68.8z M211.2,68.8v141.9h-10.9
		c-2.8-10.8-10.3-19.7-20.1-24.6l7.7-64.6C190.4,101.5,198.7,83.4,211.2,68.8L211.2,68.8z M115.2,198.6c5.1,16.9,12.2,32.8,21,47.7
		c-8.4,2.6-15.7,7.6-21,14.2c-5.3-6.7-12.7-11.6-21-14.2C103,231.4,110.1,215.4,115.2,198.6L115.2,198.6z M19.2,230h10.9
		c3.5,13.2,13.8,23.8,26.9,27.4l9.2,2.2c-2.4,8.9-3.8,18.4-3.8,28.1H19.2L19.2,230L19.2,230z M200.3,230h10.9v57.6H168
		c0-9.7-1.4-19.1-3.8-28.1l9.2-2.2C186.5,253.7,196.8,243.2,200.3,230L200.3,230z M85,263.9c11.6,1.7,20.6,11.6,20.6,23.7h-24
		C81.6,279.4,82.9,271.4,85,263.9L85,263.9z M145.4,263.9c2.2,7.6,3.4,15.5,3.4,23.7h-24C124.8,275.5,133.8,265.5,145.4,263.9
		L145.4,263.9z M83.8,306.8h21.8v40.4C95,336.1,87.3,322.2,83.8,306.8L83.8,306.8z M124.8,306.8h21.8c-3.5,15.4-11.2,29.3-21.8,40.4
		V306.8L124.8,306.8z"/>
</g>
</svg>
