<?xml version="1.0" encoding="utf-8"?>
<!-- Generator: Adobe Illustrator 22.1.0, SVG Export Plug-In . SVG Version: 6.00 Build 0)  -->
<svg version="1.1" id="Layer_1" xmlns="http://www.w3.org/2000/svg" xmlns:xlink="http://www.w3.org/1999/xlink" x="0px" y="0px"
	 viewBox="0 0 60 60" style="enable-background:new 0 0 60 60;" xml:space="preserve">
<style type="text/css">
	.st0{fill:#3c3c3b;}
</style>
<path class="st0" d="M43,9H21v14h22V9z M41,21H23V11h18V21z"/>
<path class="st0" d="M25,13h14v2H25V13z"/>
<path class="st0" d="M25,17h4v2h-4V17z"/>
<path class="st0" d="M31,17h8v2h-8V17z"/>
<path class="st0" d="M53,2V0H6v60h47V5h-2V2H53z M8,58V7h3v51H8z M51,58H13V7h38V58z M8,5V2h41v3H8z"/>
<path class="st0" d="M17,44v-6h6v6h2v-9c0-2.8-2.2-5-5-5s-5,2.2-5,5v9H17z M20,32c1.7,0,3,1.3,3,3v1h-6v-1C17,33.3,18.3,32,20,32z"
	/>
<path class="st0" d="M37,34c0-2.2-1.8-4-4-4h-6v14h6c1.7,0,3.2-1,3.8-2.6c0.6-1.6,0.1-3.3-1.1-4.4C36.5,36.2,37,35.2,37,34z M35,40
	c0,1.1-0.9,2-2,2h-4v-4h4C34.1,38,35,38.9,35,40z M29,36v-4h4c1.1,0,2,0.9,2,2s-0.9,2-2,2H29z"/>
<path class="st0" d="M39,35v4c0,2.8,2.2,5,5,5s5-2.2,5-5h-2c0,1.7-1.3,3-3,3s-3-1.3-3-3v-4c0-1.7,1.3-3,3-3s3,1.3,3,3h2
	c0-2.8-2.2-5-5-5S39,32.2,39,35z"/>
</svg>
