<svg width="30" height="24" viewBox="0 0 30 24" fill="none" xmlns="http://www.w3.org/2000/svg">
<path d="M11.4375 18H9.5625C9.25172 18 9 18.2517 9 18.5625V20.4375C9 20.7483 9.25172 21 9.5625 21H11.4375C11.7483 21 12 20.7483 12 20.4375V18.5625C12 18.2517 11.7483 18 11.4375 18ZM11.4375 9H9.5625C9.25172 9 9 9.25172 9 9.5625V11.4375C9 11.7483 9.25172 12 9.5625 12H11.4375C11.7483 12 12 11.7483 12 11.4375V9.5625C12 9.25172 11.7483 9 11.4375 9ZM6.9375 9H5.0625C4.75172 9 4.5 9.25172 4.5 9.5625V11.4375C4.5 11.7483 4.75172 12 5.0625 12H6.9375C7.24828 12 7.5 11.7483 7.5 11.4375V9.5625C7.5 9.25172 7.24828 9 6.9375 9ZM6.9375 18H5.0625C4.75172 18 4.5 18.2517 4.5 18.5625V20.4375C4.5 20.7483 4.75172 21 5.0625 21H6.9375C7.24828 21 7.5 20.7483 7.5 20.4375V18.5625C7.5 18.2517 7.24828 18 6.9375 18ZM6.9375 13.5H5.0625C4.75172 13.5 4.5 13.7517 4.5 14.0625V15.9375C4.5 16.2483 4.75172 16.5 5.0625 16.5H6.9375C7.24828 16.5 7.5 16.2483 7.5 15.9375V14.0625C7.5 13.7517 7.24828 13.5 6.9375 13.5ZM11.4375 13.5H9.5625C9.25172 13.5 9 13.7517 9 14.0625V15.9375C9 16.2483 9.25172 16.5 9.5625 16.5H11.4375C11.7483 16.5 12 16.2483 12 15.9375V14.0625C12 13.7517 11.7483 13.5 11.4375 13.5ZM24.9375 18H23.0625C22.7517 18 22.5 18.2517 22.5 18.5625V20.4375C22.5 20.7483 22.7517 21 23.0625 21H24.9375C25.2483 21 25.5 20.7483 25.5 20.4375V18.5625C25.5 18.2517 25.2483 18 24.9375 18ZM24.9375 13.5H23.0625C22.7517 13.5 22.5 13.7517 22.5 14.0625V15.9375C22.5 16.2483 22.7517 16.5 23.0625 16.5H24.9375C25.2483 16.5 25.5 16.2483 25.5 15.9375V14.0625C25.5 13.7517 25.2483 13.5 24.9375 13.5ZM28.875 9H24V1.125C24 0.503438 23.4966 0 22.875 0H13.125C12.5034 0 12 0.503438 12 1.125V4.5H10.5V0.75C10.5 0.335625 10.1644 0 9.75 0H9C8.58562 0 8.25 0.335625 8.25 0.75V4.5H5.25V0.75C5.25 0.335625 4.91437 0 4.5 0H3.75C3.33562 0 3 0.335625 3 0.75V4.5H1.125C0.503438 4.5 0 5.00344 0 5.625V23.25C0 23.6644 0.335625 24 0.75 24H1.5C1.91438 24 2.25 23.6644 2.25 23.25V6.75H14.25V2.25H21.75V11.25H27.75V23.25C27.75 23.6644 28.0856 24 28.5 24H29.25C29.6644 24 30 23.6644 30 23.25V10.125C30 9.50344 29.4961 9 28.875 9ZM18.9375 4.5H17.0625C16.7517 4.5 16.5 4.75172 16.5 5.0625V6.9375C16.5 7.24828 16.7517 7.5 17.0625 7.5H18.9375C19.2483 7.5 19.5 7.24828 19.5 6.9375V5.0625C19.5 4.75172 19.2483 4.5 18.9375 4.5ZM18.9375 13.5H17.0625C16.7517 13.5 16.5 13.7517 16.5 14.0625V15.9375C16.5 16.2483 16.7517 16.5 17.0625 16.5H18.9375C19.2483 16.5 19.5 16.2483 19.5 15.9375V14.0625C19.5 13.7517 19.2483 13.5 18.9375 13.5ZM18.9375 9H17.0625C16.7517 9 16.5 9.25172 16.5 9.5625V11.4375C16.5 11.7483 16.7517 12 17.0625 12H18.9375C19.2483 12 19.5 11.7483 19.5 11.4375V9.5625C19.5 9.25172 19.2483 9 18.9375 9Z" fill="#3E980E"/>
</svg>
