<svg xmlns="http://www.w3.org/2000/svg" xmlns:xlink="http://www.w3.org/1999/xlink" viewBox="0 0 362.78 210.22">
<defs>
	<style>.cls-1{fill:none;}.cls-2{clip-path:url(#clip-path);}.cls-3{fill:#fff;fill-rule:evenodd;}</style>
<clipPath id="clip-path"><polygon class="cls-1" points="241.94 210.22 0 210.22 120.84 0 241.94 210.22"/></clipPath></defs><title>Ресурс 1</title><g id="Слой_2" data-name="Слой 2"><g id="_1" data-name="1"><g class="cls-2"><polygon class="cls-3" points="0 210.22 13.5 210.22 134.34 0 120.84 0 0 210.22"/><polygon class="cls-3" points="21.25 210.22 34.75 210.22 155.59 0 142.09 0 21.25 210.22"/><polygon class="cls-3" points="41.81 210.22 55.31 210.22 176.15 0 162.65 0 41.81 210.22"/><polygon class="cls-3" points="62.5 210.22 76 210.22 196.84 0 183.34 0 62.5 210.22"/><polygon class="cls-3" points="83.19 210.22 96.69 210.22 217.53 0 204.03 0 83.19 210.22"/><polygon class="cls-3" points="103.94 210.22 117.44 210.22 238.28 0 224.78 0 103.94 210.22"/><polygon class="cls-3" points="124.75 210.22 138.25 210.22 259.09 0 245.59 0 124.75 210.22"/><polygon class="cls-3" points="145.44 210.22 158.94 210.22 279.78 0 266.28 0 145.44 210.22"/><polygon class="cls-3" points="166.25 210.22 179.75 210.22 300.59 0 287.09 0 166.25 210.22"/><polygon class="cls-3" points="186.94 210.22 200.44 210.22 321.28 0 307.78 0 186.94 210.22"/><polygon class="cls-3" points="207.63 210.22 221.13 210.22 341.96 0 328.46 0 207.63 210.22"/><polygon class="cls-3" points="228.44 210.22 241.94 210.22 362.78 0 349.28 0 228.44 210.22"/></g></g></g></svg>