<svg width="274" height="274" viewBox="0 0 274 274" fill="none" xmlns="http://www.w3.org/2000/svg">
<path d="M65.9905 49.686C64.8782 50.5677 63.9829 51.3138 62.9113 52.2361C42.2499 69.9804 28.7801 94.6596 25.0334 121.636C21.2867 148.612 27.5211 176.028 42.5648 198.731C42.9446 199.301 42.5648 198.731 42.9446 199.301L45.142 197.7C29.9831 175.085 23.8348 147.617 27.9063 120.697C31.9779 93.7781 45.9746 69.3565 67.1434 52.2361L67.6182 51.8563L65.9905 49.686ZM208.891 52.2361L208.416 51.8156L207.697 51.2188L205.92 53.2942C226.724 70.6491 240.317 95.132 244.046 121.967C247.775 148.801 241.374 176.063 226.091 198.433L228.315 200.033C228.858 199.274 228.695 199.477 229.197 198.677C244.24 175.974 250.475 148.558 246.728 121.582C242.981 94.6053 229.512 69.9261 208.85 52.1819L208.891 52.2361Z" fill="#C4C4C4"/>
<path d="M137 0C109.904 0 83.4165 8.03491 60.8869 23.0887C38.3574 38.1424 20.7978 59.5389 10.4286 84.5723C0.0593593 109.606 -2.6537 137.152 2.63248 163.727C7.91865 190.303 20.9666 214.714 40.1264 233.874C59.2862 253.033 83.6973 266.081 110.273 271.368C136.848 276.654 164.394 273.941 189.428 263.571C214.461 253.202 235.858 235.643 250.911 213.113C265.965 190.584 274 164.096 274 137C273.961 100.677 259.514 65.8539 233.83 40.17C208.146 14.4861 173.323 0.0394947 137 0V0ZM137 271.287C110.441 271.287 84.4775 263.411 62.3941 248.656C40.3107 233.9 23.0988 212.927 12.9349 188.389C2.77106 163.852 0.111724 136.851 5.29322 110.802C10.4747 84.7527 23.2643 60.825 42.0447 42.0447C60.8251 23.2643 84.7528 10.4747 110.802 5.29316C136.851 0.111662 163.852 2.77099 188.389 12.9349C212.927 23.0987 233.9 40.3107 248.656 62.3941C263.411 84.4774 271.287 110.44 271.287 137C271.244 172.602 257.082 206.733 231.908 231.908C206.733 257.082 172.602 271.244 137 271.287Z" fill="#C4C4C4"/>
<path d="M101.407 29.0957L99.8741 29.6925L99.6435 29.801C99.5825 29.8259 99.5271 29.8628 99.4807 29.9096C99.4329 29.9496 99.3956 30.0009 99.3722 30.0588C99.3568 30.1394 99.3568 30.2223 99.3722 30.3029L98.5448 37.6412C98.5309 37.8399 98.5309 38.0394 98.5448 38.2381C98.5448 38.4415 98.5448 38.645 98.5448 38.862L98.1243 38.428C97.9751 38.2788 97.8395 38.1431 97.6903 38.021L91.9932 33.2464C91.9377 33.1911 91.8736 33.1453 91.8033 33.1108C91.7452 33.0983 91.6851 33.0983 91.627 33.1108H91.4235L91.1929 33.2057L89.6602 33.8161L93.8515 44.7625L95.6556 44.0436L92.8478 36.9902L92.6579 36.5425C92.5765 36.3933 92.5087 36.2306 92.4273 36.0678L98.2328 40.9781C98.3537 41.0879 98.503 41.1615 98.6638 41.1903C98.8246 41.2191 98.9902 41.202 99.1416 41.1408L99.4265 41.0188C99.5797 40.9648 99.7132 40.8662 99.8099 40.7356C99.9066 40.6051 99.9621 40.4486 99.9691 40.2863L100.81 32.7716C100.905 33.1108 101.014 33.4227 101.122 33.7076L103.957 40.6932L105.747 39.9879L101.407 29.0957Z" fill="#C4C4C4"/>
<path d="M117.399 31.0352C117.273 30.4941 117.082 29.9702 116.829 29.4753C116.355 28.562 115.649 27.79 114.781 27.2372C114.356 26.9777 113.9 26.7726 113.424 26.6268C112.926 26.4835 112.41 26.4105 111.892 26.4098C110.482 26.4025 109.104 26.8287 107.944 27.6306C107.322 28.0719 106.8 28.6395 106.412 29.2962C106.024 29.953 105.779 30.6842 105.693 31.4421C105.579 32.2661 105.625 33.1043 105.828 33.9108C106.012 34.7091 106.349 35.4644 106.819 36.1354C107.246 36.7636 107.801 37.295 108.446 37.6953C109.095 38.0978 109.82 38.3611 110.576 38.4685C111.404 38.5838 112.247 38.5377 113.058 38.3328C113.87 38.1431 114.636 37.7926 115.31 37.3019C115.965 36.8593 116.512 36.2752 116.91 35.5928C117.296 34.9409 117.541 34.2155 117.629 33.4632C117.707 32.6466 117.629 31.8225 117.399 31.0352ZM114.984 34.7518C114.752 35.1717 114.433 35.537 114.048 35.8234C113.617 36.1341 113.128 36.3554 112.611 36.4745C112.097 36.6054 111.563 36.6376 111.037 36.5695C110.554 36.4939 110.092 36.3184 109.681 36.054C109.268 35.7597 108.917 35.3863 108.65 34.9553C108.341 34.4577 108.116 33.9122 107.985 33.3411C107.842 32.7696 107.787 32.1795 107.822 31.5913C107.863 31.0841 108.006 30.5904 108.243 30.14C108.467 29.7146 108.787 29.3476 109.179 29.0684C109.618 28.7778 110.112 28.5793 110.63 28.4851C111.144 28.3542 111.678 28.322 112.204 28.3902C112.689 28.4573 113.153 28.6335 113.56 28.9056C113.976 29.1961 114.328 29.5703 114.591 30.0043C114.903 30.5052 115.128 31.0556 115.256 31.632C115.414 32.201 115.469 32.7935 115.418 33.3818C115.37 33.8637 115.223 34.3303 114.984 34.7518Z" fill="#C4C4C4"/>
<path d="M126.067 31.4557C125.962 31.3215 125.838 31.2027 125.7 31.103C125.568 31.0131 125.427 30.9359 125.28 30.8724C125.654 30.7072 126.001 30.4878 126.311 30.2214C126.59 29.9759 126.828 29.6874 127.016 29.3668C127.198 29.0511 127.327 28.7073 127.396 28.3495C127.457 27.9767 127.457 27.5964 127.396 27.2236C127.353 26.747 127.209 26.2848 126.975 25.8672C126.745 25.4712 126.419 25.1398 126.026 24.9041C125.577 24.651 125.085 24.4853 124.575 24.4158C123.886 24.321 123.188 24.321 122.499 24.4158L118.945 24.877L120.424 36.6237L122.608 36.3524L122.024 31.7948L122.947 31.6727C123.112 31.6359 123.283 31.6359 123.449 31.6727C123.582 31.7281 123.699 31.8169 123.788 31.9305L126.718 35.2673C126.817 35.3981 126.951 35.498 127.105 35.5557C127.258 35.6133 127.425 35.6262 127.586 35.5928L129.539 35.3487L126.067 31.4557ZM124.235 29.7059C123.899 29.852 123.542 29.948 123.177 29.9908L121.821 30.1671L121.333 26.2877L122.689 26.1114C123.314 25.9818 123.964 26.0678 124.534 26.3555C124.753 26.4956 124.936 26.6852 125.068 26.9091C125.2 27.133 125.277 27.3848 125.293 27.6441C125.349 27.9217 125.349 28.2075 125.293 28.4851C125.231 28.7401 125.111 28.977 124.941 29.1769C124.745 29.4005 124.505 29.5807 124.235 29.7059Z" fill="#C4C4C4"/>
<path d="M137.962 33.4221L132.74 33.5849L132.631 30.2616L136.701 30.126V28.444L132.631 28.5796L132.536 25.3106L137.759 25.1479V23.4116L130.339 23.6422L130.705 35.4025L138.125 35.1719L137.962 33.4221Z" fill="#C4C4C4"/>
<path d="M143.063 23.5474L142.9 25.3379L146.441 25.6634L145.518 35.5925L147.702 35.796L148.611 25.8669L152.151 26.1924L152.314 24.4155L143.063 23.5474Z" fill="#C4C4C4"/>
<path d="M162.405 26.2741L161.415 31.198L155.99 30.1128L156.993 25.1483L154.891 24.7549L152.571 36.2846L154.728 36.7186L155.745 31.6863L161.171 32.7714L160.167 37.8174L162.31 38.2379L164.63 26.7082L162.405 26.2741Z" fill="#C4C4C4"/>
<path d="M174.559 31.5372L175.074 29.8824L167.994 27.6714L164.48 38.9027L171.575 41.1137L172.09 39.4452L167.098 37.8853L168.102 34.7113L172.022 35.9321L172.524 34.3315L168.604 33.0971L169.567 29.9773L174.559 31.5372Z" fill="#C4C4C4"/>
<path d="M185.166 34.0198L182.318 40.5849L182.128 41.0732C182.128 41.236 182.006 41.4123 181.952 41.6022L179.415 31.9173C179.395 31.8383 179.367 31.7611 179.334 31.6867C179.313 31.6266 179.281 31.5713 179.239 31.5239C179.203 31.4774 179.156 31.4402 179.103 31.4154L178.886 31.3069L177.828 30.8457L173.148 41.6972L174.925 42.4568L177.801 35.8238C177.91 35.539 178.032 35.2406 178.14 34.8879L180.663 44.4914C180.7 44.6404 180.77 44.7793 180.867 44.8984C180.968 45.0069 181.094 45.0905 181.233 45.1425L182.264 45.5902L186.93 34.7387L185.166 34.0198Z" fill="#C4C4C4"/>
<path d="M112.176 118.84C111.377 118.139 110.335 117.778 109.273 117.836H100.063C97.6624 117.971 96.9028 117.971 95.5735 118.012C92.63 118.134 94.6104 118.012 92.63 118.134L102.125 108.422C103.536 106.984 104.892 105.565 106.194 104.163C107.414 102.799 108.52 101.338 109.504 99.7953C110.449 98.3174 111.206 96.727 111.756 95.0613C112.323 93.3093 112.602 91.477 112.583 89.6356C112.611 87.4964 112.205 85.3739 111.39 83.396C110.625 81.5316 109.458 79.8594 107.971 78.4992C106.392 77.0844 104.548 75.9964 102.546 75.298C100.253 74.4977 97.8383 74.1074 95.4107 74.1451C93.1153 74.1367 90.8309 74.4611 88.6285 75.1081C86.5739 75.7293 84.6549 76.7325 82.9722 78.0652C81.3114 79.4345 79.9298 81.1108 78.9029 83.0026C77.7332 85.1649 76.97 87.5234 76.6512 89.9611L82.6602 91.0327C83.8468 91.3085 85.0901 91.2041 86.2141 90.7343C87.1956 90.1092 87.9108 89.1427 88.2216 88.0214C88.6694 86.7011 89.5064 85.5472 90.6225 84.7117C91.8518 83.7883 93.3584 83.31 94.8953 83.3553C95.7079 83.3291 96.5171 83.4724 97.2714 83.776C98.0257 84.0796 98.7086 84.5368 99.2766 85.1186C100.377 86.4984 100.919 88.2412 100.796 90.0018C100.806 91.2431 100.647 92.4799 100.321 93.6777C100.009 94.8895 99.5537 96.0598 98.9646 97.1638C98.2704 98.3997 97.4669 99.5709 96.5637 100.663C95.5871 101.871 94.4341 103.119 93.1183 104.448L77.7092 119.965C77.0326 120.559 76.519 121.315 76.2172 122.163C75.9342 122.885 75.7826 123.652 75.7695 124.428V128.09H113.234V121.498C113.254 121.006 113.17 120.514 112.988 120.056C112.806 119.598 112.529 119.184 112.176 118.84Z" fill="#C4C4C4"/>
<path d="M155.529 89.2693C154.705 86.198 153.296 83.3148 151.379 80.778C149.723 78.6186 147.561 76.8997 145.085 75.7727C142.598 74.6767 139.907 74.1219 137.19 74.145C134.486 74.1176 131.807 74.6728 129.336 75.7727C126.872 76.9011 124.724 78.6203 123.083 80.778C121.2 83.3241 119.818 86.2059 119.014 89.2693C117.965 93.224 117.467 97.3048 117.535 101.396C117.467 105.482 117.965 109.559 119.014 113.509C119.822 116.575 121.202 119.461 123.083 122.014C124.731 124.168 126.877 125.89 129.336 127.032C131.825 128.153 134.529 128.713 137.258 128.674C139.977 128.698 142.669 128.138 145.153 127.032C147.624 125.891 149.783 124.169 151.446 122.014C153.361 119.47 154.77 116.583 155.597 113.509C156.67 109.563 157.177 105.484 157.103 101.396C157.155 97.2995 156.625 93.2166 155.529 89.2693ZM144.678 110.47C144.355 112.406 143.728 114.279 142.819 116.018C142.239 117.186 141.329 118.157 140.202 118.812C139.288 119.289 138.275 119.544 137.244 119.558C136.214 119.548 135.2 119.292 134.287 118.812C133.177 118.153 132.286 117.181 131.724 116.018C130.847 114.271 130.243 112.4 129.933 110.47C129.431 107.473 129.204 104.435 129.255 101.396C129.205 98.3611 129.432 95.3282 129.933 92.3348C130.24 90.3998 130.844 88.5238 131.724 86.7734C132.296 85.6388 133.187 84.6959 134.287 84.0605C135.197 83.5706 136.212 83.3098 137.244 83.3009C138.277 83.3131 139.291 83.5736 140.202 84.0605C141.319 84.692 142.228 85.6345 142.819 86.7734C143.732 88.5161 144.359 90.3937 144.678 92.3348C145.191 95.3268 145.423 98.3605 145.37 101.396C145.406 104.437 145.156 107.476 144.624 110.47H144.678Z" fill="#C4C4C4"/>
<path d="M198.012 89.2689C197.182 86.1998 195.773 83.3177 193.861 80.7776C192.203 78.6149 190.037 76.8955 187.554 75.7724C185.068 74.6985 182.388 74.1445 179.68 74.1445C176.971 74.1445 174.292 74.6985 171.806 75.7724C169.347 76.905 167.205 78.6237 165.566 80.7776C163.682 83.3237 162.301 86.2056 161.497 89.2689C160.441 93.2224 159.943 97.3041 160.018 101.395C159.943 105.482 160.441 109.56 161.497 113.508C162.304 116.575 163.685 119.461 165.566 122.013C167.212 124.164 169.352 125.885 171.806 127.032C174.29 128.115 176.97 128.673 179.68 128.673C182.389 128.673 185.07 128.115 187.554 127.032C190.032 125.895 192.196 124.172 193.861 122.013C195.771 119.466 197.179 116.58 198.012 113.508C199.085 109.562 199.591 105.484 199.518 101.395C199.591 97.3024 199.085 93.2196 198.012 89.2689ZM187.16 110.47C186.838 112.406 186.21 114.278 185.302 116.018C184.722 117.185 183.812 118.157 182.684 118.812C181.77 119.288 180.758 119.544 179.727 119.558C178.696 119.548 177.683 119.292 176.77 118.812C175.66 118.152 174.768 117.181 174.206 116.018C173.33 114.271 172.726 112.4 172.416 110.47C171.914 107.472 171.687 104.435 171.738 101.395C171.688 98.3607 171.915 95.3278 172.416 92.3344C172.722 90.3994 173.326 88.5234 174.206 86.773C174.779 85.6384 175.67 84.6955 176.77 84.0602C177.679 83.5702 178.694 83.3095 179.727 83.3006C180.76 83.3127 181.774 83.5732 182.684 84.0602C183.801 84.6916 184.711 85.6341 185.302 86.773C186.215 88.5157 186.842 90.3933 187.16 92.3344C187.674 95.3265 187.906 98.3601 187.852 101.395C187.889 104.437 187.639 107.475 187.106 110.47H187.16Z" fill="#C4C4C4"/>
<path d="M84.5726 193.658C84.5214 193.597 84.457 193.548 84.3842 193.515C84.3113 193.482 84.232 193.466 84.1521 193.469C84.0674 193.448 83.9791 193.448 83.8944 193.469C83.8158 193.514 83.7429 193.568 83.6774 193.631C83.4499 193.834 83.2048 194.015 82.9449 194.174C82.7071 194.326 82.4521 194.448 82.1853 194.54C81.8949 194.639 81.5948 194.708 81.2901 194.744C80.9289 194.773 80.566 194.773 80.2049 194.744C79.5671 194.748 78.935 194.623 78.3466 194.377C77.7715 194.13 77.2575 193.76 76.8409 193.292C76.3872 192.789 76.041 192.198 75.8236 191.556C75.5583 190.798 75.4297 189.999 75.4438 189.196C75.4335 188.404 75.5527 187.616 75.7965 186.863C76.0031 186.225 76.3351 185.634 76.7731 185.126C77.1847 184.654 77.7 184.282 78.2788 184.041C78.8869 183.78 79.5433 183.651 80.2049 183.661C80.5687 183.662 80.9317 183.694 81.2901 183.756C81.5718 183.81 81.8486 183.887 82.1175 183.987C82.3372 184.07 82.5503 184.17 82.755 184.285L83.2297 184.584L83.6096 184.814C83.7149 184.867 83.8309 184.895 83.9487 184.896C84.0779 184.906 84.2068 184.872 84.3149 184.801C84.4047 184.738 84.4827 184.66 84.5455 184.57L85.5221 183.214C84.8643 182.59 84.0961 182.093 83.2569 181.749C82.2892 181.352 81.2505 181.159 80.2049 181.179C79.1267 181.168 78.0571 181.371 77.058 181.776C76.137 182.15 75.3051 182.714 74.6164 183.431C73.9215 184.161 73.3816 185.023 73.0294 185.967C72.6393 186.998 72.4461 188.093 72.4597 189.196C72.4479 190.294 72.6269 191.387 72.9887 192.424C73.3149 193.365 73.8321 194.229 74.5079 194.961C75.1755 195.675 75.9837 196.243 76.8816 196.629C77.8808 197.033 78.9511 197.231 80.0286 197.212C81.1769 197.243 82.3187 197.03 83.379 196.588C84.2746 196.213 85.0726 195.637 85.712 194.906L84.5726 193.658Z" fill="#C4C4C4"/>
<path d="M97.6222 181.478V190.878C97.629 191.43 97.5466 191.979 97.3781 192.505C97.2302 192.958 96.9952 193.377 96.6863 193.74C96.3726 194.081 95.9884 194.349 95.5605 194.526C94.5878 194.906 93.5082 194.906 92.5356 194.526C92.1022 194.353 91.7162 194.078 91.4098 193.726C91.089 193.37 90.8485 192.949 90.7044 192.492C90.5359 191.966 90.4535 191.416 90.4603 190.864V181.478H87.5304V190.878C87.5263 191.758 87.6825 192.631 87.9915 193.455C88.27 194.226 88.7093 194.929 89.2802 195.517C89.8591 196.109 90.5573 196.571 91.3284 196.873C93.0816 197.506 95.0009 197.506 96.7541 196.873C97.5252 196.571 98.2234 196.109 98.8023 195.517C99.3732 194.929 99.8125 194.226 100.091 193.455C100.406 192.633 100.563 191.758 100.552 190.878V181.478H97.6222Z" fill="#C4C4C4"/>
<path d="M112.841 190.593C112.654 190.156 112.376 189.763 112.028 189.44C111.681 189.12 111.288 188.854 110.861 188.653C110.418 188.449 109.966 188.268 109.505 188.11L108.148 187.676C107.746 187.552 107.356 187.394 106.982 187.202C106.669 187.055 106.391 186.842 106.168 186.578C105.953 186.319 105.842 185.991 105.856 185.655C105.849 185.381 105.9 185.108 106.005 184.855C106.105 184.612 106.264 184.398 106.466 184.231C106.689 184.045 106.948 183.907 107.226 183.824C107.574 183.721 107.935 183.671 108.297 183.675C108.694 183.664 109.089 183.724 109.464 183.851C109.759 183.947 110.046 184.069 110.318 184.217C110.576 184.353 110.78 184.489 110.956 184.597C111.105 184.698 111.279 184.754 111.458 184.76C111.582 184.766 111.706 184.733 111.811 184.665C111.932 184.577 112.029 184.46 112.095 184.326L112.814 182.969C112.246 182.422 111.566 182.006 110.82 181.749C109.998 181.453 109.13 181.306 108.257 181.315C107.511 181.3 106.77 181.429 106.073 181.694C105.474 181.926 104.926 182.271 104.459 182.712C104.035 183.111 103.696 183.592 103.463 184.126C103.229 184.66 103.107 185.235 103.102 185.818C103.086 186.434 103.192 187.047 103.414 187.622C103.598 188.081 103.875 188.497 104.228 188.843C104.571 189.171 104.965 189.442 105.395 189.643C105.836 189.842 106.289 190.014 106.751 190.159L108.108 190.566C108.511 190.675 108.901 190.825 109.274 191.013C109.589 191.17 109.866 191.392 110.088 191.664C110.305 191.958 110.415 192.317 110.4 192.682C110.419 192.998 110.367 193.315 110.247 193.608C110.127 193.902 109.943 194.164 109.708 194.377C109.16 194.804 108.475 195.017 107.782 194.974C107.32 194.978 106.86 194.9 106.426 194.743C106.074 194.608 105.734 194.445 105.408 194.255L104.662 193.753C104.496 193.621 104.291 193.545 104.079 193.536C103.95 193.532 103.823 193.565 103.713 193.631C103.603 193.699 103.506 193.786 103.428 193.889L102.573 195.245C102.892 195.56 103.242 195.842 103.618 196.086C104.008 196.348 104.427 196.567 104.866 196.737C105.304 196.918 105.758 197.058 106.222 197.158C106.709 197.251 107.205 197.296 107.701 197.293C108.487 197.312 109.27 197.178 110.007 196.9C110.647 196.664 111.23 196.294 111.716 195.815C112.202 195.379 112.586 194.842 112.841 194.241C113.088 193.606 113.212 192.929 113.208 192.247C113.21 191.675 113.085 191.11 112.841 190.593Z" fill="#C4C4C4"/>
<path d="M114.334 181.478V183.878H119.054V197.172H121.984V183.878H126.705V181.478H114.334Z" fill="#C4C4C4"/>
<path d="M142.955 187.188C142.801 186.511 142.554 185.858 142.222 185.248C141.895 184.665 141.494 184.127 141.028 183.648C140.566 183.163 140.036 182.747 139.455 182.413C138.845 182.069 138.193 181.804 137.515 181.627C136.783 181.445 136.031 181.354 135.277 181.355C134.162 181.34 133.055 181.548 132.022 181.966C131.078 182.34 130.223 182.908 129.512 183.634C128.807 184.366 128.258 185.234 127.898 186.184C127.12 188.243 127.12 190.514 127.898 192.573C128.245 193.521 128.786 194.386 129.487 195.112C130.188 195.839 131.033 196.411 131.967 196.791C134.065 197.587 136.381 197.587 138.478 196.791C139.412 196.409 140.256 195.837 140.957 195.11C141.657 194.384 142.199 193.52 142.548 192.573C143.188 190.836 143.297 188.947 142.86 187.147L142.955 187.188ZM139.889 191.691C139.678 192.33 139.341 192.92 138.899 193.428C138.468 193.904 137.935 194.275 137.339 194.513C136.03 195.02 134.579 195.02 133.27 194.513C132.674 194.275 132.14 193.904 131.71 193.428C131.262 192.924 130.925 192.333 130.719 191.691C130.476 190.943 130.357 190.159 130.367 189.372C130.358 188.585 130.478 187.801 130.719 187.052C130.925 186.411 131.262 185.82 131.71 185.316C132.143 184.84 132.676 184.465 133.27 184.217C134.582 183.728 136.027 183.728 137.339 184.217C137.933 184.465 138.465 184.84 138.899 185.316C139.341 185.823 139.678 186.413 139.889 187.052C140.126 187.802 140.241 188.585 140.228 189.372C140.237 190.14 140.122 190.905 139.889 191.637V191.691Z" fill="#C4C4C4"/>
<path d="M160.602 181.477H160.317C160.232 181.463 160.145 181.463 160.059 181.477C159.981 181.505 159.911 181.551 159.856 181.613C159.779 181.688 159.715 181.775 159.666 181.871L155.027 190.566C154.905 190.796 154.796 191.04 154.688 191.284C154.579 191.529 154.471 191.8 154.376 192.071C154.267 191.8 154.159 191.556 154.064 191.298C153.969 191.04 153.847 190.823 153.725 190.593L149.018 181.871C148.969 181.778 148.91 181.692 148.841 181.613C148.786 181.551 148.716 181.505 148.638 181.477C148.553 181.463 148.466 181.463 148.38 181.477H145.844V197.171H148.407V187.039C148.407 186.835 148.407 186.618 148.407 186.388C148.407 186.157 148.407 185.927 148.407 185.682L153.196 194.621C153.284 194.819 153.429 194.987 153.612 195.103C153.796 195.219 154.01 195.278 154.227 195.272H154.647C154.864 195.278 155.078 195.219 155.261 195.103C155.445 194.987 155.59 194.819 155.678 194.621L160.412 185.723C160.412 186.184 160.412 186.632 160.412 187.08V197.212H162.976V181.477H160.602Z" fill="#C4C4C4"/>
<path d="M176.187 183.797V181.478H166.299V197.172H176.187V194.838H169.229V190.389H174.722V188.151H169.229V183.797H176.187Z" fill="#C4C4C4"/>
<path d="M187.093 191.366C186.97 191.176 186.824 191.003 186.658 190.85C186.505 190.697 186.331 190.565 186.143 190.457C186.664 190.308 187.158 190.079 187.608 189.779C188.029 189.509 188.397 189.164 188.693 188.761C188.995 188.381 189.225 187.949 189.371 187.486C189.531 187.005 189.609 186.501 189.602 185.994C189.611 185.367 189.496 184.745 189.263 184.163C189.028 183.604 188.654 183.114 188.178 182.739C187.623 182.305 186.986 181.986 186.306 181.803C185.42 181.573 184.508 181.463 183.593 181.477H178.805V197.171H181.721V191.04H182.969C183.193 191.026 183.416 191.068 183.62 191.162C183.79 191.252 183.931 191.389 184.027 191.556L187.337 196.588C187.445 196.777 187.604 196.931 187.796 197.034C187.988 197.138 188.205 197.185 188.422 197.171H191.053L187.093 191.366ZM184.949 188.734C184.484 188.879 183.999 188.947 183.512 188.938H181.694V183.729H183.566C184.417 183.665 185.264 183.895 185.967 184.38C186.23 184.604 186.439 184.885 186.575 185.203C186.712 185.521 186.773 185.866 186.753 186.211C186.758 186.583 186.689 186.952 186.55 187.296C186.427 187.628 186.227 187.925 185.967 188.164C185.673 188.426 185.326 188.62 184.949 188.734Z" fill="#C4C4C4"/>
<path d="M201.782 190.593C201.594 190.156 201.317 189.763 200.968 189.44C200.622 189.12 200.228 188.855 199.802 188.653C199.368 188.45 198.92 188.274 198.445 188.111L197.089 187.677C196.691 187.553 196.305 187.394 195.936 187.202C195.619 187.055 195.337 186.842 195.108 186.578C194.899 186.318 194.792 185.989 194.81 185.656C194.803 185.381 194.854 185.109 194.959 184.855C195.059 184.613 195.218 184.398 195.42 184.231C195.643 184.046 195.902 183.907 196.18 183.824C196.528 183.722 196.889 183.671 197.252 183.675C197.648 183.666 198.042 183.725 198.418 183.852C198.714 183.947 199 184.07 199.273 184.218L199.91 184.598C200.055 184.696 200.224 184.752 200.398 184.76C200.527 184.768 200.656 184.735 200.765 184.665C200.882 184.573 200.979 184.458 201.05 184.326L201.768 182.97C201.2 182.423 200.52 182.006 199.774 181.749C198.952 181.456 198.084 181.309 197.211 181.315C196.465 181.298 195.723 181.427 195.027 181.695C194.428 181.926 193.88 182.272 193.413 182.712C192.989 183.111 192.65 183.593 192.417 184.126C192.184 184.66 192.061 185.236 192.056 185.818C192.034 186.435 192.14 187.049 192.368 187.622C192.552 188.081 192.829 188.497 193.182 188.843C193.525 189.172 193.919 189.442 194.349 189.644C194.79 189.843 195.243 190.015 195.705 190.159L197.062 190.566C197.46 190.675 197.847 190.825 198.215 191.014C198.533 191.17 198.815 191.392 199.042 191.665C199.259 191.958 199.369 192.317 199.354 192.682C199.373 192.998 199.321 193.315 199.201 193.608C199.081 193.902 198.897 194.165 198.662 194.377C198.114 194.805 197.429 195.017 196.736 194.974C196.274 194.979 195.814 194.901 195.38 194.744C195.027 194.611 194.687 194.447 194.362 194.255L193.616 193.754C193.448 193.624 193.245 193.548 193.033 193.536C192.904 193.533 192.777 193.566 192.667 193.631C192.557 193.699 192.46 193.787 192.382 193.889L191.527 195.246C191.844 195.557 192.189 195.839 192.558 196.087C192.955 196.346 193.378 196.564 193.82 196.738C194.258 196.918 194.712 197.059 195.176 197.158C195.659 197.251 196.15 197.296 196.641 197.294C197.432 197.312 198.22 197.178 198.961 196.9C199.598 196.658 200.179 196.289 200.67 195.815C201.132 195.357 201.492 194.807 201.728 194.201C201.974 193.565 202.098 192.889 202.094 192.207C202.101 191.654 201.995 191.104 201.782 190.593Z" fill="#C4C4C4"/>
<path d="M217.287 62.8567C218.779 64.4663 220.221 66.1167 221.614 67.8077C220.284 66.1122 218.846 64.4709 217.287 62.8567ZM207.235 53.2803C209.478 55.1522 211.644 57.1145 213.733 59.1672C211.698 57.119 209.528 55.1522 207.29 53.2803H207.235Z" fill="#C4C4C4"/>
<path d="M74.7391 162.623C74.456 161.957 74.0512 161.35 73.5455 160.833C73.0448 160.347 72.4731 159.94 71.8499 159.626C71.2159 159.315 70.5636 159.043 69.8967 158.812C69.2456 158.581 68.5402 158.364 67.957 158.174C67.3778 158.006 66.8112 157.798 66.2614 157.55C65.8182 157.352 65.4139 157.077 65.0677 156.736C64.7627 156.415 64.597 155.986 64.6066 155.543C64.5924 155.209 64.6532 154.875 64.7847 154.568C64.9161 154.26 65.1148 153.986 65.3662 153.766C66.0292 153.273 66.8484 153.037 67.6721 153.101C68.2155 153.093 68.7564 153.176 69.2727 153.345C69.7013 153.478 70.115 153.656 70.5071 153.874L71.4837 154.403C71.7331 154.543 72.0119 154.622 72.2975 154.634C72.5422 154.643 72.7837 154.577 72.9893 154.444C73.1972 154.279 73.3721 154.077 73.5048 153.847L74.8612 151.297C74.4275 150.89 73.9445 150.539 73.4234 150.253C72.8724 149.929 72.2909 149.661 71.6871 149.452C71.055 149.218 70.4005 149.05 69.7339 148.95C69.0305 148.829 68.3179 148.77 67.6043 148.774C66.4242 148.756 65.2512 148.959 64.1454 149.371C63.1935 149.724 62.3219 150.263 61.5817 150.958C60.898 151.61 60.3615 152.401 60.0082 153.277C59.6486 154.098 59.4638 154.985 59.4657 155.882C59.4365 156.83 59.5932 157.774 59.9269 158.662C60.1978 159.367 60.6032 160.012 61.1205 160.561C61.6086 161.06 62.1773 161.473 62.8025 161.782C63.4301 162.085 64.0783 162.344 64.7422 162.555C65.4069 162.772 66.0986 162.962 66.6819 163.139C67.2578 163.292 67.8203 163.491 68.3639 163.736C68.8192 163.936 69.2262 164.232 69.5575 164.604C69.88 164.98 70.0451 165.465 70.0187 165.96C70.0506 166.35 69.9926 166.743 69.8491 167.107C69.7057 167.472 69.4807 167.799 69.1913 168.063C68.5086 168.535 67.6869 168.764 66.8582 168.714C66.2023 168.732 65.5488 168.626 64.9321 168.402C64.4347 168.216 63.9538 167.989 63.4943 167.723L62.3684 167.045C62.0817 166.845 61.7413 166.737 61.3918 166.733C61.1473 166.725 60.9061 166.791 60.7 166.923C60.4956 167.036 60.3194 167.194 60.1846 167.384L58.584 169.88C59.0752 170.373 59.6267 170.801 60.2253 171.155C60.8712 171.539 61.5471 171.87 62.2464 172.145C62.9684 172.421 63.7126 172.634 64.4709 172.783C65.2123 172.932 65.9664 173.009 66.7226 173.014C67.9526 173.033 69.1757 172.827 70.3307 172.403C71.3429 172.039 72.2671 171.466 73.0436 170.721C73.7378 169.999 74.2737 169.139 74.617 168.198C75.0022 167.218 75.1956 166.172 75.1868 165.119C75.2065 164.266 75.0543 163.417 74.7391 162.623Z" fill="#C4C4C4"/>
<path d="M89.9861 149.032H84.3569L75.1738 172.756H79.4737C79.8888 172.77 80.296 172.641 80.6267 172.39C80.9046 172.171 81.1237 171.887 81.2642 171.562L82.6207 167.493H91.6816L93.0381 171.562C93.1807 171.9 93.4099 172.195 93.7027 172.417C94.0448 172.653 94.454 172.772 94.8693 172.756H99.1285L89.9861 149.032ZM83.9364 163.681L86.1203 157.225C86.283 156.804 86.4458 156.316 86.6357 155.76C86.8256 155.204 86.9884 154.58 87.1511 153.915C87.3411 154.566 87.531 155.176 87.7073 155.733C87.8836 156.289 88.0735 156.777 88.2363 157.184L90.4337 163.681H83.9364Z" fill="#C4C4C4"/>
<path d="M96.916 149.032V153.399H103.59V172.756H109.097V153.399H115.77V149.032H96.916Z" fill="#C4C4C4"/>
<path d="M118.552 149.032V172.756H124.086V149.032H118.552Z" fill="#C4C4C4"/>
<path d="M143.022 162.623C142.739 161.957 142.334 161.35 141.828 160.833C141.328 160.347 140.756 159.94 140.133 159.626C139.499 159.315 138.846 159.043 138.179 158.812C137.528 158.581 136.823 158.364 136.24 158.174C135.661 158.006 135.094 157.798 134.544 157.55C134.101 157.352 133.697 157.077 133.351 156.736C133.046 156.415 132.88 155.986 132.889 155.543C132.875 155.209 132.936 154.875 133.067 154.568C133.199 154.26 133.398 153.986 133.649 153.766C134.311 153.27 135.131 153.034 135.955 153.101C136.498 153.093 137.039 153.176 137.555 153.345C137.984 153.478 138.398 153.656 138.79 153.874L139.766 154.403C140.016 154.543 140.295 154.622 140.58 154.634C140.825 154.643 141.066 154.577 141.272 154.444C141.48 154.279 141.655 154.077 141.788 153.847L143.144 151.297C142.71 150.89 142.227 150.539 141.706 150.253C141.155 149.929 140.574 149.661 139.97 149.452C139.338 149.218 138.683 149.05 138.017 148.95C137.313 148.829 136.601 148.77 135.887 148.774C134.707 148.756 133.534 148.959 132.428 149.371C131.476 149.724 130.605 150.263 129.864 150.958C129.181 151.61 128.644 152.401 128.291 153.277C127.931 154.098 127.747 154.985 127.748 155.882C127.719 156.83 127.876 157.774 128.21 158.662C128.481 159.367 128.886 160.012 129.403 160.561C129.891 161.06 130.46 161.473 131.085 161.782C131.713 162.085 132.361 162.344 133.025 162.555C133.69 162.772 134.381 162.962 134.965 163.139C135.541 163.292 136.103 163.491 136.647 163.736C137.102 163.936 137.509 164.232 137.84 164.604C138.163 164.98 138.328 165.465 138.301 165.96C138.333 166.35 138.275 166.743 138.132 167.107C137.988 167.472 137.763 167.799 137.474 168.063C136.791 168.535 135.97 168.764 135.141 168.714C134.472 168.713 133.808 168.584 133.188 168.334C132.69 168.148 132.209 167.921 131.75 167.656L130.624 166.977C130.337 166.777 129.997 166.669 129.647 166.665C129.403 166.657 129.162 166.723 128.956 166.855C128.751 166.968 128.575 167.126 128.44 167.316L126.812 169.88C127.304 170.373 127.855 170.801 128.454 171.155C129.1 171.539 129.776 171.87 130.475 172.145C131.197 172.421 131.941 172.634 132.699 172.783C133.441 172.932 134.195 173.009 134.951 173.014C136.181 173.033 137.404 172.827 138.559 172.403C139.571 172.039 140.496 171.466 141.272 170.721C141.988 170.013 142.547 169.163 142.913 168.225C143.299 167.245 143.492 166.2 143.483 165.146C143.502 164.283 143.345 163.424 143.022 162.623Z" fill="#C4C4C4"/>
<path d="M161.985 153.277V149.045H146.752V172.769H152.286V163.532H160.425V159.286H152.286V153.277H161.985Z" fill="#C4C4C4"/>
<path d="M165.158 149.032V172.756H170.692V149.032H165.158Z" fill="#C4C4C4"/>
<path d="M190.551 153.277V149.045H175.237V172.769H190.511V168.537H180.772V162.881H188.232V158.811H180.772V153.277H190.551Z" fill="#C4C4C4"/>
<path d="M214.575 156.153C214.013 154.744 213.163 153.469 212.079 152.409C210.969 151.325 209.649 150.48 208.2 149.926C206.593 149.314 204.886 149.011 203.167 149.031H193.943V172.755H203.167C204.886 172.776 206.593 172.472 208.2 171.86C209.638 171.325 210.949 170.495 212.047 169.422C213.145 168.35 214.006 167.06 214.575 165.634C215.772 162.582 215.772 159.191 214.575 156.139V156.153ZM209.366 164.128C209.083 165.013 208.621 165.83 208.01 166.529C207.438 167.188 206.723 167.707 205.921 168.048C205.03 168.413 204.075 168.593 203.113 168.577H199.423V153.277H203.113C204.075 153.261 205.03 153.441 205.921 153.806C206.726 154.142 207.442 154.662 208.01 155.325C208.621 156.024 209.083 156.841 209.366 157.726C209.683 158.754 209.838 159.825 209.827 160.9C209.841 161.994 209.686 163.083 209.366 164.128Z" fill="#C4C4C4"/>
<path d="M111.022 233.553L112.053 239.521L106.681 236.7L101.31 239.521L102.341 233.553L98 229.321L103.995 228.439L106.681 223L109.367 228.439L115.362 229.321L111.022 233.553Z" fill="#C4C4C4"/>
<path d="M141.035 238.553L142.053 244.521L136.695 241.7L131.323 244.521L132.341 238.553L128 234.321L134.009 233.439L136.695 228L139.367 233.439L145.376 234.321L141.035 238.553Z" fill="#C4C4C4"/>
<path d="M81.0218 221.553L82.0527 227.521L76.6812 224.7L71.3097 227.521L72.3406 221.553L68 217.321L73.9954 216.439L76.6812 211L79.3669 216.439L85.3624 217.321L81.0218 221.553Z" fill="#C4C4C4"/>
<path d="M201.035 221.553L202.053 227.521L196.681 224.7L191.323 227.521L192.341 221.553L188 217.321L194.009 216.439L196.681 211L199.367 216.439L205.376 217.321L201.035 221.553Z" fill="#C4C4C4"/>
<path d="M171.022 233.553L172.053 239.521L166.681 236.7L161.31 239.521L162.341 233.553L158 229.321L163.995 228.439L166.681 223L169.367 228.439L175.362 229.321L171.022 233.553Z" fill="#C4C4C4"/>
</svg>
