<svg width="274" height="274" viewBox="0 0 274 274" fill="none" xmlns="http://www.w3.org/2000/svg">
<path d="M137 274C109.904 274 83.4165 265.965 60.8869 250.911C38.3574 235.858 20.7978 214.461 10.4286 189.428C0.0593593 164.394 -2.6537 136.848 2.63248 110.273C7.91865 83.6973 20.9666 59.2862 40.1264 40.1264C59.2862 20.9666 83.6973 7.91865 110.273 2.63248C136.848 -2.6537 164.394 0.0593593 189.428 10.4286C214.461 20.7978 235.858 38.3574 250.911 60.8869C265.965 83.4165 274 109.904 274 137C273.957 173.321 259.509 208.143 233.826 233.826C208.143 259.509 173.321 273.957 137 274ZM137 2.71293C110.441 2.71293 84.4775 10.5887 62.3941 25.3444C40.3107 40.1 23.0988 61.0728 12.9349 85.6106C2.77106 110.148 0.111724 137.149 5.29322 163.198C10.4747 189.247 23.2643 213.175 42.0447 231.955C60.8251 250.736 84.7528 263.525 110.802 268.707C136.851 273.888 163.852 271.229 188.389 261.065C212.927 250.901 233.9 233.689 248.656 211.606C263.411 189.523 271.287 163.56 271.287 137C271.248 101.397 257.087 67.2635 231.912 42.0883C206.737 16.9132 172.603 2.75243 137 2.71293Z" fill="#C4C4C4"/>
<path d="M101.15 29.0957L105.491 40.0286L103.7 40.6932L100.892 33.6262C100.784 33.3413 100.675 33.0294 100.58 32.6903L99.7393 40.2185C99.7288 40.3798 99.672 40.5347 99.5758 40.6646C99.4796 40.7945 99.348 40.8939 99.1967 40.9509L98.9118 41.0595C98.761 41.1239 98.5946 41.1429 98.4331 41.1139C98.2716 41.085 98.1221 41.0095 98.003 40.8967L92.2382 36.0407C92.3196 36.2034 92.3874 36.3662 92.4688 36.5154L92.6587 36.963L95.4665 44.0301L93.5946 44.7625L89.2676 33.8297L90.8817 33.1921L91.1123 33.1108H91.3158C91.3739 33.0983 91.434 33.0983 91.4921 33.1108L91.682 33.2464L97.3248 37.9804L97.7589 38.3873C97.8945 38.5229 98.0437 38.6721 98.1794 38.8349C98.1794 38.6179 98.1794 38.4008 98.1794 38.1974C98.1659 37.9987 98.1659 37.7993 98.1794 37.6006L99.0204 30.3029C99.0034 30.227 99.0034 30.1483 99.0204 30.0723C99.0397 30.0086 99.0775 29.952 99.1289 29.9096L99.2916 29.801L99.5222 29.7061L101.15 29.0957Z" fill="#C4C4C4"/>
<path d="M117.142 31.0353C117.349 31.8271 117.404 32.651 117.305 33.4633C117.237 34.2149 117.015 34.9444 116.654 35.6065C116.262 36.2617 115.741 36.8296 115.121 37.2749C113.742 38.2371 112.055 38.6529 110.387 38.4415C109.633 38.3278 108.909 38.065 108.257 37.6683C107.613 37.2597 107.06 36.7244 106.63 36.0948C106.138 35.4428 105.779 34.7009 105.572 33.911C105.368 33.1184 105.317 32.2944 105.422 31.483C105.511 30.7264 105.756 29.9966 106.141 29.3398C106.533 28.6848 107.054 28.117 107.674 27.6714C108.334 27.1848 109.079 26.826 109.871 26.6134C110.424 26.4671 110.995 26.3986 111.567 26.4099C112.086 26.415 112.602 26.4926 113.1 26.6405C113.58 26.7749 114.037 26.9806 114.456 27.2509C114.888 27.5107 115.277 27.8355 115.609 28.2139C115.968 28.5884 116.269 29.0134 116.504 29.4754C116.776 29.9693 116.99 30.4927 117.142 31.0353ZM114.972 31.5643C114.844 30.9879 114.619 30.4375 114.307 29.9366C114.039 29.5096 113.689 29.1407 113.276 28.8515C112.869 28.5754 112.406 28.3946 111.92 28.3225C111.394 28.2543 110.86 28.2865 110.346 28.4174C109.827 28.534 109.338 28.7556 108.908 29.0685C108.52 29.351 108.2 29.7172 107.972 30.1401C107.738 30.5914 107.595 31.0847 107.552 31.5915C107.515 32.1796 107.57 32.7699 107.715 33.3413C107.848 33.9158 108.072 34.4653 108.379 34.969C108.651 35.3929 109.001 35.7612 109.41 36.0541C109.819 36.3242 110.282 36.5002 110.767 36.5696C111.292 36.6444 111.827 36.6121 112.34 36.4746C112.855 36.3541 113.343 36.1379 113.778 35.8371C114.163 35.5459 114.482 35.176 114.714 34.752C114.952 34.3077 115.091 33.8172 115.121 33.3141C115.175 32.7266 115.125 32.1341 114.972 31.5643Z" fill="#C4C4C4"/>
<path d="M129.282 35.4031L127.329 35.6608C127.167 35.6911 127 35.6753 126.846 35.6154C126.693 35.5554 126.559 35.4537 126.461 35.3217L123.531 31.89C123.438 31.7801 123.322 31.6921 123.192 31.6322C123.027 31.5954 122.855 31.5954 122.69 31.6322L121.768 31.7543L122.351 36.3119L120.167 36.6239L118.688 24.8908L122.242 24.416C122.93 24.3145 123.63 24.3145 124.318 24.416C124.84 24.4791 125.343 24.65 125.796 24.9179C126.186 25.1567 126.512 25.4874 126.746 25.8809C126.977 26.2995 127.121 26.7612 127.166 27.2374C127.227 27.6147 127.227 27.9995 127.166 28.3768C127.097 28.7346 126.969 29.0784 126.786 29.3941C126.598 29.7148 126.36 30.0032 126.081 30.2487C125.767 30.506 125.421 30.7204 125.05 30.8862C125.198 30.9543 125.338 31.036 125.471 31.1304C125.612 31.2261 125.736 31.3454 125.837 31.483L129.282 35.4031ZM122.921 29.9774C123.286 29.9411 123.644 29.8449 123.979 29.6925C124.242 29.5704 124.478 29.3949 124.67 29.1771C124.84 28.9721 124.961 28.7308 125.023 28.4717C125.078 28.1987 125.078 27.9174 125.023 27.6443C125.01 27.3842 124.934 27.1311 124.802 26.9067C124.669 26.6823 124.485 26.4933 124.263 26.3557C123.695 26.0634 123.045 25.9726 122.419 26.098L121.062 26.2743L121.551 30.1537L122.921 29.9774Z" fill="#C4C4C4"/>
<path d="M132.225 25.3242L132.32 28.5796L136.39 28.4576V30.1395L132.32 30.2616L132.429 33.5985L137.651 33.4357V35.1855L130.231 35.4161L129.865 23.6422L137.285 23.4116V25.1614L132.225 25.3242Z" fill="#C4C4C4"/>
<path d="M151.921 26.1924L148.381 25.8669L147.472 35.796L145.288 35.5925L146.21 25.6634L142.67 25.3379L142.833 23.5474L152.084 24.4019L151.921 26.1924Z" fill="#C4C4C4"/>
<path d="M164.306 26.7082L161.986 38.2514L159.843 37.8174L160.847 32.7714L155.421 31.6863L154.404 36.7322L152.247 36.2981L154.634 24.7549L156.791 25.1889L155.787 30.1535L161.213 31.2386L162.203 26.2741L164.306 26.7082Z" fill="#C4C4C4"/>
<path d="M169.31 29.9909L168.347 33.1107L172.267 34.3315L171.765 35.9456L167.845 34.7113L166.842 37.8853L171.833 39.4452L171.318 41.1137L164.224 38.9027L167.737 27.6714L174.817 29.8417L174.302 31.5101L169.31 29.9909Z" fill="#C4C4C4"/>
<path d="M186.673 34.7925L182.007 45.644L180.976 45.21C180.838 45.1488 180.714 45.0613 180.61 44.9522C180.513 44.8384 180.443 44.7039 180.406 44.5589L177.883 34.9146C177.775 35.2537 177.653 35.5657 177.544 35.837L174.669 42.47L172.892 41.7104L177.571 30.8589L178.629 31.3065L178.846 31.415C178.897 31.4487 178.943 31.4898 178.982 31.5371C179.021 31.5815 179.053 31.6318 179.077 31.6863C179.11 31.7655 179.137 31.8471 179.158 31.9305L181.763 41.6019L181.939 41.0728L182.129 40.5981L184.977 34.0329L186.673 34.7925Z" fill="#C4C4C4"/>
<path d="M110.78 86.1475C111.735 85.9619 112.699 85.8306 113.669 85.7541C114.605 85.6727 115.5 85.632 116.382 85.632C118.919 85.5856 121.442 86.023 123.815 86.9206C125.846 87.6996 127.694 88.8912 129.241 90.4202C130.704 91.8947 131.833 93.6664 132.551 95.6154C133.304 97.6606 133.68 99.825 133.663 102.004C133.705 104.703 133.188 107.382 132.144 109.872C131.176 112.176 129.734 114.251 127.912 115.962C126.049 117.707 123.853 119.059 121.455 119.936C118.82 120.884 116.035 121.343 113.235 121.293C111.565 121.302 109.899 121.12 108.271 120.75C106.747 120.398 105.261 119.899 103.835 119.258C102.495 118.662 101.214 117.939 100.01 117.101C98.8754 116.32 97.8091 115.444 96.8223 114.483L100.376 109.872C100.736 109.401 101.201 109.02 101.733 108.759C102.218 108.505 102.758 108.374 103.306 108.379C104.04 108.382 104.758 108.589 105.381 108.976L107.497 110.333C108.354 110.874 109.263 111.329 110.21 111.689C111.429 112.117 112.717 112.32 114.008 112.286C115.346 112.319 116.674 112.06 117.901 111.526C118.925 111.062 119.823 110.36 120.519 109.478C121.202 108.571 121.7 107.539 121.984 106.44C122.289 105.225 122.439 103.976 122.432 102.723C122.507 101.638 122.35 100.549 121.971 99.529C121.592 98.5092 121 97.5819 120.234 96.8091C118.504 95.2824 116.245 94.4936 113.94 94.6116C111.534 94.6144 109.149 95.0747 106.914 95.9681L99.8336 94.0555L104.364 67.3608H131.696V72.0541C131.706 72.7761 131.582 73.4936 131.33 74.1701C131.096 74.8064 130.715 75.3782 130.218 75.8386C129.622 76.3558 128.917 76.7314 128.156 76.9373C127.154 77.2166 126.117 77.3491 125.077 77.3306H112.286L110.78 86.1475Z" fill="#C4C4C4"/>
<path d="M178.019 94.0282C178.092 98.1168 177.585 102.195 176.513 106.141C175.68 109.213 174.271 112.099 172.362 114.646C170.697 116.805 168.533 118.527 166.055 119.665C163.571 120.747 160.89 121.306 158.181 121.306C155.471 121.306 152.791 120.747 150.307 119.665C147.853 118.518 145.713 116.797 144.067 114.646C142.186 112.093 140.805 109.208 139.998 106.141C138.942 102.192 138.444 98.1151 138.519 94.0282C138.444 89.9369 138.942 85.8552 139.998 81.9017C140.802 78.8384 142.183 75.9565 144.067 73.4104C145.706 71.2565 147.848 69.5378 150.307 68.4052C152.793 67.3313 155.472 66.7773 158.181 66.7773C160.889 66.7773 163.569 67.3313 166.055 68.4052C168.538 69.5284 170.704 71.2477 172.362 73.4104C174.274 75.9505 175.683 78.8326 176.513 81.9017C177.586 85.8524 178.092 89.9352 178.019 94.0282ZM166.299 94.0282C166.352 90.9929 166.121 87.9593 165.607 84.9672C165.289 83.0261 164.661 81.1485 163.749 79.4059C163.154 78.2697 162.245 77.3281 161.131 76.693C160.221 76.206 159.206 75.9455 158.174 75.9334C157.141 75.9423 156.126 76.203 155.217 76.693C154.119 77.332 153.229 78.2739 152.653 79.4059C151.773 81.1562 151.169 83.0322 150.863 84.9672C150.361 87.9606 150.134 90.9936 150.184 94.0282C150.133 97.0674 150.36 100.105 150.863 103.103C151.173 105.033 151.777 106.904 152.653 108.651C153.215 109.813 154.107 110.785 155.217 111.445C156.129 111.925 157.143 112.18 158.174 112.191C159.204 112.177 160.217 111.921 161.131 111.445C162.258 110.79 163.169 109.818 163.749 108.651C164.658 106.907 165.286 105.03 165.607 103.089C166.121 100.097 166.353 97.0636 166.299 94.0282Z" fill="#C4C4C4"/>
<path d="M89.6601 150.144V161.416H82.7423V150.144L72.04 131.778H78.1033C78.6125 131.749 79.116 131.897 79.5276 132.199C79.882 132.489 80.1729 132.849 80.3821 133.257L84.5735 141.883C84.9262 142.562 85.2517 143.24 85.5366 143.796C85.8214 144.352 86.0656 144.963 86.2826 145.532C86.4861 144.949 86.7302 144.366 86.988 143.769C87.2457 143.172 87.5577 142.548 87.9103 141.883L92.061 133.257C92.1643 133.071 92.2822 132.894 92.4137 132.728C92.5509 132.55 92.7105 132.39 92.8885 132.253C93.0825 132.108 93.2975 131.994 93.526 131.914C93.7723 131.818 94.035 131.772 94.2991 131.778H100.376L89.6601 150.144Z" fill="#C4C4C4"/>
<path d="M109.64 137.067V143.985H118.959V149.072H109.64V156.125H121.848V161.415H102.723V131.777H121.808V137.067H109.64Z" fill="#C4C4C4"/>
<path d="M152.639 161.415H147.309C146.794 161.44 146.284 161.297 145.857 161.009C145.495 160.727 145.211 160.358 145.03 159.937L143.28 154.769H132.008L130.218 159.937C130.044 160.344 129.768 160.699 129.417 160.968C129.002 161.274 128.495 161.431 127.979 161.415H122.554L134.029 131.777H141.069L152.639 161.415ZM141.707 150.089L138.994 141.951C138.79 141.435 138.573 140.838 138.343 140.133C138.112 139.428 137.881 138.682 137.651 137.868C137.447 138.695 137.23 139.455 137 140.16C136.769 140.865 136.552 141.517 136.349 141.991L133.636 150.13L141.707 150.089Z" fill="#C4C4C4"/>
<path d="M179.226 161.416H173C172.501 161.44 172.006 161.326 171.568 161.087C171.13 160.848 170.766 160.492 170.517 160.06L165.594 151.46C165.405 151.134 165.14 150.859 164.82 150.66C164.444 150.464 164.022 150.375 163.6 150.402H161.85V161.416H154.973V131.778H164.617C166.448 131.746 168.274 131.969 170.043 132.443C171.41 132.789 172.69 133.417 173.8 134.287C174.723 135.025 175.442 135.987 175.889 137.082C176.331 138.195 176.552 139.384 176.54 140.581C176.547 141.499 176.419 142.413 176.16 143.294C175.906 144.14 175.521 144.94 175.021 145.668C174.502 146.404 173.876 147.058 173.162 147.608C172.378 148.181 171.514 148.637 170.599 148.964C171.052 149.203 171.475 149.494 171.86 149.832C172.265 150.196 172.621 150.611 172.918 151.066L179.226 161.416ZM164.617 145.709C165.432 145.732 166.244 145.612 167.018 145.356C167.623 145.151 168.175 144.812 168.632 144.366C169.044 143.954 169.355 143.453 169.541 142.901C169.734 142.31 169.83 141.691 169.826 141.07C169.856 140.499 169.758 139.929 169.54 139.401C169.322 138.873 168.988 138.4 168.564 138.018C167.419 137.197 166.021 136.808 164.617 136.919H161.904V145.709H164.617Z" fill="#C4C4C4"/>
<path d="M198.107 137.8C197.945 138.084 197.728 138.333 197.469 138.532C197.214 138.706 196.909 138.791 196.601 138.777C196.246 138.767 195.9 138.664 195.597 138.478L194.377 137.814C193.876 137.552 193.354 137.334 192.817 137.162C192.173 136.952 191.499 136.851 190.823 136.864C189.795 136.78 188.773 137.075 187.947 137.691C187.628 137.964 187.376 138.306 187.211 138.692C187.046 139.078 186.973 139.497 186.998 139.916C186.989 140.188 187.035 140.459 187.133 140.713C187.23 140.967 187.378 141.199 187.567 141.395C187.998 141.822 188.504 142.167 189.059 142.412C189.745 142.724 190.452 142.987 191.175 143.199C191.976 143.443 192.79 143.7 193.617 143.999C194.447 144.287 195.258 144.626 196.045 145.016C196.826 145.402 197.541 145.91 198.161 146.522C198.796 147.166 199.303 147.926 199.653 148.76C200.058 149.763 200.252 150.839 200.223 151.92C200.235 153.233 199.996 154.536 199.518 155.759C199.053 156.938 198.346 158.005 197.442 158.893C196.488 159.814 195.351 160.526 194.105 160.981C192.665 161.513 191.137 161.771 189.602 161.741C188.659 161.739 187.718 161.644 186.794 161.456C185.845 161.274 184.914 161.006 184.013 160.656C183.137 160.321 182.293 159.908 181.49 159.422C180.742 158.978 180.049 158.445 179.429 157.835L181.463 154.62C181.632 154.386 181.85 154.192 182.101 154.05C182.362 153.889 182.663 153.805 182.969 153.806C183.409 153.817 183.838 153.954 184.203 154.199L185.56 155.054C186.136 155.389 186.739 155.675 187.364 155.908C188.135 156.179 188.948 156.307 189.765 156.288C190.801 156.351 191.827 156.064 192.681 155.474C193.044 155.148 193.326 154.741 193.505 154.287C193.684 153.833 193.755 153.343 193.712 152.856C193.738 152.24 193.535 151.636 193.142 151.161C192.725 150.703 192.217 150.338 191.65 150.089C190.971 149.78 190.268 149.526 189.548 149.33C188.761 149.113 187.947 148.882 187.12 148.611C186.29 148.351 185.482 148.025 184.705 147.634C183.919 147.25 183.204 146.737 182.589 146.115C181.946 145.43 181.44 144.629 181.097 143.755C180.689 142.634 180.496 141.447 180.527 140.255C180.535 139.116 180.774 137.991 181.228 136.946C181.683 135.902 182.344 134.96 183.172 134.178C184.099 133.314 185.187 132.641 186.374 132.198C187.756 131.677 189.224 131.423 190.701 131.452C191.61 131.445 192.517 131.518 193.414 131.669C194.249 131.803 195.071 132.012 195.869 132.293C196.617 132.561 197.338 132.897 198.025 133.297C198.679 133.675 199.284 134.131 199.83 134.653L198.107 137.8Z" fill="#C4C4C4"/>
<path d="M77.1808 190.688C77.1919 191.777 76.9987 192.858 76.6111 193.876C76.2514 194.826 75.7022 195.694 74.997 196.426C74.2836 197.135 73.4285 197.685 72.4876 198.04C70.3982 198.854 68.0796 198.854 65.9903 198.04C65.0445 197.669 64.189 197.1 63.4808 196.371C62.767 195.644 62.2127 194.775 61.8531 193.821C61.0932 191.76 61.0932 189.494 61.8531 187.433C62.2129 186.483 62.7674 185.619 63.4808 184.896C64.1885 184.164 65.0439 183.59 65.9903 183.214C67.0197 182.798 68.1217 182.59 69.2321 182.604C69.992 182.599 70.7491 182.695 71.4838 182.889C72.1565 183.062 72.8039 183.322 73.41 183.662C74.5524 184.352 75.4891 185.335 76.1228 186.51C76.4537 187.117 76.7044 187.765 76.8689 188.436C77.0626 189.172 77.1674 189.928 77.1808 190.688ZM74.1967 190.688C74.2069 189.901 74.0878 189.117 73.844 188.369C73.6382 187.723 73.301 187.127 72.8538 186.619C72.4268 186.139 71.8922 185.767 71.2939 185.534C69.9821 185.041 68.5364 185.041 67.2246 185.534C66.6247 185.771 66.0866 186.142 65.6511 186.619C65.2085 187.131 64.872 187.725 64.6609 188.369C64.2089 189.877 64.2089 191.485 64.6609 192.994C64.8659 193.636 65.2033 194.227 65.6511 194.73C66.0895 195.207 66.6264 195.581 67.2246 195.829C68.5364 196.321 69.9821 196.321 71.2939 195.829C71.8898 195.585 72.423 195.209 72.8538 194.73C73.3065 194.231 73.6444 193.638 73.844 192.994C74.0868 192.25 74.2059 191.471 74.1967 190.688Z" fill="#C4C4C4"/>
<path d="M82.7428 185.153V189.806H88.6298V192.139H82.7428V198.528H79.7451V182.834H89.6471V185.153H82.7428Z" fill="#C4C4C4"/>
<path d="M107.565 194.825C107.644 194.827 107.722 194.845 107.795 194.877C107.867 194.91 107.932 194.957 107.986 195.015L109.139 196.263C108.507 197.037 107.697 197.647 106.778 198.04C104.695 198.862 102.378 198.862 100.295 198.04C99.3875 197.663 98.5729 197.094 97.9074 196.371C97.2531 195.677 96.7416 194.861 96.4017 193.97C96.0396 192.938 95.8606 191.85 95.8727 190.756C95.8594 189.649 96.0526 188.549 96.4424 187.514C96.7896 186.569 97.3312 185.708 98.0321 184.986C98.7331 184.264 99.5779 183.697 100.512 183.322C101.511 182.917 102.58 182.714 103.659 182.725C104.704 182.706 105.743 182.9 106.711 183.295C107.548 183.641 108.312 184.142 108.962 184.774L107.986 186.13C107.928 186.22 107.855 186.298 107.769 186.361C107.655 186.431 107.522 186.465 107.389 186.456C107.273 186.456 107.16 186.423 107.063 186.361C106.93 186.296 106.803 186.219 106.684 186.13L106.195 185.832C105.997 185.714 105.788 185.614 105.571 185.533C105.3 185.441 105.024 185.364 104.744 185.303C104.381 185.244 104.013 185.217 103.645 185.221C102.985 185.214 102.33 185.339 101.719 185.587C101.15 185.838 100.641 186.208 100.227 186.673C99.7889 187.181 99.4568 187.771 99.2502 188.409C99.0064 189.167 98.8873 189.959 98.8976 190.756C98.8812 191.554 99.0099 192.349 99.2774 193.102C99.4924 193.742 99.8337 194.333 100.281 194.838C100.705 195.303 101.223 195.673 101.8 195.924C102.388 196.171 103.021 196.296 103.659 196.29C104.02 196.312 104.382 196.312 104.744 196.29C105.043 196.243 105.338 196.17 105.625 196.073C105.897 195.989 106.157 195.87 106.399 195.72C106.657 195.56 106.898 195.373 107.118 195.164C107.188 195.105 107.265 195.055 107.348 195.015C107.403 194.933 107.477 194.868 107.565 194.825Z" fill="#C4C4C4"/>
<path d="M125.769 190.688C125.78 191.777 125.587 192.858 125.199 193.876C124.839 194.826 124.29 195.694 123.585 196.426C122.872 197.135 122.016 197.685 121.075 198.04C118.986 198.854 116.668 198.854 114.578 198.04C113.632 197.669 112.777 197.1 112.069 196.371C111.364 195.637 110.811 194.77 110.441 193.821C109.681 191.76 109.681 189.494 110.441 187.433C110.811 186.488 111.364 185.626 112.069 184.896C112.776 184.164 113.632 183.59 114.578 183.214C115.608 182.798 116.71 182.59 117.82 182.604C118.58 182.599 119.337 182.695 120.072 182.889C120.745 183.06 121.393 183.32 121.998 183.662C122.583 183.995 123.118 184.411 123.585 184.896C124.05 185.378 124.447 185.921 124.765 186.51C125.101 187.115 125.353 187.763 125.511 188.436C125.693 189.173 125.779 189.93 125.769 190.688ZM122.785 190.688C122.795 189.901 122.676 189.117 122.432 188.369C122.225 187.726 121.893 187.132 121.455 186.619C121.025 186.143 120.491 185.772 119.895 185.534C118.583 185.044 117.138 185.044 115.826 185.534C115.23 185.772 114.697 186.143 114.266 186.619C113.819 187.127 113.482 187.723 113.276 188.369C112.806 189.874 112.806 191.488 113.276 192.994C113.476 193.638 113.813 194.231 114.266 194.73C114.7 195.206 115.232 195.581 115.826 195.829C117.138 196.319 118.583 196.319 119.895 195.829C120.489 195.581 121.022 195.206 121.455 194.73C121.899 194.226 122.232 193.635 122.432 192.994C122.675 192.25 122.794 191.471 122.785 190.688Z" fill="#C4C4C4"/>
<path d="M145.355 182.834V198.528H142.778V188.395C142.778 187.988 142.778 187.554 142.778 187.039L138.044 195.951C137.952 196.145 137.806 196.309 137.623 196.422C137.44 196.535 137.228 196.593 137.013 196.588H136.593C136.378 196.593 136.166 196.535 135.983 196.422C135.8 196.309 135.654 196.145 135.562 195.951L130.774 187.012C130.774 187.242 130.774 187.487 130.774 187.717C130.774 187.948 130.774 188.151 130.774 188.355V198.487H128.346V182.834H130.882H131.14C131.214 182.87 131.282 182.915 131.343 182.97C131.411 183.054 131.47 183.145 131.52 183.241L136.213 191.949C136.335 192.18 136.457 192.424 136.566 192.668C136.674 192.912 136.769 193.17 136.864 193.428C136.973 193.156 137.081 192.899 137.19 192.655C137.298 192.397 137.407 192.166 137.529 191.922L142.168 183.241C142.217 183.145 142.276 183.054 142.344 182.97C142.408 182.912 142.481 182.866 142.561 182.834H142.819H145.355Z" fill="#C4C4C4"/>
<path d="M154.254 182.834C155.141 182.814 156.026 182.915 156.886 183.132C157.535 183.289 158.147 183.57 158.69 183.96C159.141 184.315 159.492 184.783 159.707 185.316C159.93 185.867 160.041 186.458 160.033 187.052C160.035 187.412 159.98 187.769 159.87 188.11C159.76 188.454 159.59 188.776 159.368 189.06C159.118 189.367 158.826 189.636 158.5 189.86C158.109 190.112 157.69 190.317 157.252 190.471C159.409 190.945 160.48 192.112 160.48 193.957C160.488 194.592 160.358 195.221 160.1 195.801C159.85 196.367 159.474 196.868 159.002 197.266C158.47 197.693 157.862 198.015 157.211 198.216C156.422 198.467 155.597 198.586 154.77 198.569H148.855V182.834H154.254ZM151.772 185.099V189.63H154.091C154.884 189.685 155.675 189.496 156.357 189.087C156.615 188.885 156.82 188.622 156.952 188.321C157.085 188.021 157.141 187.692 157.116 187.364C157.148 187.039 157.102 186.71 156.982 186.406C156.861 186.102 156.67 185.831 156.424 185.615C155.774 185.216 155.014 185.036 154.254 185.099H151.772ZM154.715 196.249C155.175 196.257 155.632 196.193 156.072 196.059C156.4 195.948 156.701 195.767 156.953 195.53C157.175 195.32 157.343 195.06 157.442 194.771C157.536 194.472 157.582 194.161 157.577 193.848C157.582 193.538 157.527 193.229 157.415 192.939C157.31 192.669 157.137 192.431 156.913 192.248C156.65 192.035 156.345 191.882 156.017 191.8C155.574 191.692 155.118 191.642 154.661 191.651H151.718V196.249H154.715Z" fill="#C4C4C4"/>
<path d="M166.069 198.528H163.139V182.834H166.069V198.528Z" fill="#C4C4C4"/>
<path d="M182.807 182.834V198.528H181.301C181.106 198.533 180.912 198.496 180.732 198.419C180.55 198.324 180.393 198.19 180.271 198.026L172.132 187.568C172.158 188.019 172.158 188.472 172.132 188.924V198.555H169.555V182.834H171.074H171.399C171.48 182.818 171.563 182.818 171.644 182.834C171.715 182.871 171.78 182.922 171.833 182.983C171.919 183.052 171.992 183.134 172.051 183.227L180.284 193.726C180.284 193.468 180.284 193.224 180.284 192.98C180.284 192.736 180.284 192.505 180.284 192.288V182.793L182.807 182.834Z" fill="#C4C4C4"/>
<path d="M189.223 185.153V189.508H194.716V191.759H189.223V196.195H196.195V198.528H186.293V182.834H196.195V185.153H189.223Z" fill="#C4C4C4"/>
<path d="M212.716 190.688C212.724 191.769 212.526 192.841 212.133 193.848C211.773 194.771 211.225 195.609 210.525 196.31C209.824 197.01 208.986 197.557 208.063 197.917C207.023 198.309 205.919 198.502 204.808 198.487H198.826V182.834H204.822C205.934 182.823 207.038 183.021 208.077 183.417C209.015 183.779 209.868 184.328 210.586 185.031C211.29 185.738 211.84 186.584 212.201 187.514C212.571 188.53 212.746 189.607 212.716 190.688ZM209.718 190.688C209.726 189.902 209.612 189.119 209.379 188.368C209.177 187.726 208.839 187.134 208.389 186.632C207.956 186.156 207.423 185.781 206.829 185.533C206.168 185.275 205.463 185.146 204.754 185.153H201.702V196.208H204.822C205.532 196.222 206.238 196.093 206.897 195.829C207.491 195.581 208.023 195.206 208.457 194.73C208.91 194.23 209.247 193.638 209.447 192.994C209.656 192.243 209.747 191.466 209.718 190.688Z" fill="#C4C4C4"/>
<path d="M76.9914 211.197V215.551H82.485V217.803H76.9914V222.238H83.9635V224.572H74.0615V208.891H83.9635V211.211L76.9914 211.197Z" fill="#C4C4C4"/>
<path d="M99.2907 224.572H96.3879C96.2129 224.579 96.0407 224.526 95.8996 224.422C95.7825 224.325 95.6857 224.205 95.6147 224.07L91.9795 218.047C91.9275 218.212 91.8593 218.371 91.776 218.522L88.29 224.07C88.2012 224.192 88.1013 224.305 87.9916 224.409C87.9317 224.465 87.8612 224.508 87.7843 224.536C87.7074 224.564 87.6256 224.576 87.5439 224.572H84.8311L90.0398 216.501L85.0345 208.891H87.9373C88.0909 208.881 88.2447 208.909 88.3849 208.973C88.4861 209.043 88.5697 209.136 88.6291 209.244L92.2372 214.982C92.3063 214.793 92.3926 214.612 92.4949 214.439L95.7639 209.285C95.8327 209.164 95.9249 209.057 96.0352 208.973C96.1189 208.927 96.2113 208.899 96.3065 208.891H99.155L94.1091 216.392L99.2907 224.572Z" fill="#C4C4C4"/>
<path d="M106.195 208.891C107.114 208.873 108.029 209.001 108.908 209.271C109.602 209.479 110.248 209.825 110.807 210.288C111.293 210.726 111.673 211.269 111.919 211.875C112.397 213.189 112.397 214.63 111.919 215.944C111.678 216.576 111.287 217.139 110.78 217.586C110.225 218.063 109.579 218.423 108.881 218.644C108.003 218.919 107.087 219.047 106.168 219.023H104.011V224.544H101.095V208.891H106.195ZM106.195 216.785C106.655 216.79 107.113 216.721 107.551 216.582C107.918 216.464 108.256 216.27 108.542 216.012C108.81 215.756 109.015 215.44 109.138 215.09C109.268 214.705 109.333 214.302 109.328 213.896C109.331 213.508 109.267 213.123 109.138 212.757C109.011 212.428 108.811 212.131 108.555 211.889C108.269 211.637 107.931 211.452 107.565 211.346C107.126 211.212 106.668 211.148 106.208 211.156H104.011V216.785H106.195Z" fill="#C4C4C4"/>
<path d="M117.454 211.197V215.551H122.88V217.803H117.454V222.238H124.426V224.572H114.524V208.891H124.426V211.211L117.454 211.197Z" fill="#C4C4C4"/>
<path d="M139.252 224.571H136.62C136.402 224.588 136.184 224.542 135.992 224.439C135.799 224.336 135.641 224.179 135.535 223.988L132.239 218.969C132.139 218.802 131.999 218.662 131.832 218.562C131.624 218.466 131.395 218.424 131.167 218.44H129.919V224.571H127.003V208.891H131.791C132.707 208.874 133.621 208.988 134.504 209.23C135.183 209.409 135.82 209.723 136.376 210.152C136.852 210.528 137.226 211.018 137.461 211.577C137.699 212.158 137.819 212.78 137.814 213.408C137.816 213.92 137.734 214.429 137.57 214.913C137.42 215.372 137.195 215.803 136.905 216.188C136.597 216.577 136.231 216.916 135.82 217.192C135.364 217.495 134.866 217.728 134.341 217.884C134.531 217.99 134.709 218.118 134.87 218.264C135.036 218.422 135.182 218.6 135.304 218.793L139.252 224.571ZM131.75 216.351C132.237 216.36 132.723 216.291 133.188 216.148C133.556 216.023 133.896 215.829 134.192 215.578C134.453 215.337 134.657 215.04 134.789 214.71C134.915 214.358 134.98 213.986 134.979 213.611C135.001 213.266 134.942 212.92 134.805 212.601C134.668 212.283 134.458 212.002 134.192 211.78C133.488 211.3 132.641 211.075 131.791 211.143H129.919V216.351H131.75Z" fill="#C4C4C4"/>
<path d="M143.891 224.572H140.961V208.891H143.891V224.572Z" fill="#C4C4C4"/>
<path d="M150.32 211.197V215.551H155.814V217.803H150.32V222.238H157.346V224.572H147.444V208.891H157.346V211.211L150.32 211.197Z" fill="#C4C4C4"/>
<path d="M173.108 208.891V224.585H171.603C171.403 224.588 171.205 224.552 171.019 224.477C170.845 224.378 170.692 224.244 170.572 224.083L162.433 213.625C162.433 214.1 162.501 214.548 162.501 214.982V224.612H159.924V208.891H161.416H161.741C161.818 208.877 161.896 208.877 161.972 208.891C162.048 208.929 162.117 208.979 162.176 209.04C162.257 209.113 162.33 209.195 162.393 209.285L170.626 219.783C170.626 219.526 170.626 219.282 170.626 219.037C170.626 218.793 170.626 218.563 170.626 218.346V208.851L173.108 208.891Z" fill="#C4C4C4"/>
<path d="M187.378 220.869C187.458 220.871 187.536 220.889 187.608 220.922C187.68 220.954 187.745 221.001 187.799 221.059L188.938 222.307C188.315 223.094 187.51 223.717 186.592 224.124C185.535 224.562 184.398 224.774 183.255 224.748C182.176 224.764 181.106 224.561 180.108 224.151C179.188 223.77 178.364 223.191 177.694 222.456C177.024 221.722 176.511 220.859 176.188 219.919C175.826 218.887 175.647 217.799 175.659 216.705C175.645 215.598 175.839 214.499 176.229 213.463C176.576 212.518 177.117 211.657 177.818 210.935C178.519 210.213 179.364 209.646 180.298 209.271C181.297 208.866 182.367 208.663 183.445 208.674C184.49 208.656 185.528 208.85 186.497 209.244C187.333 209.593 188.096 210.094 188.748 210.723L187.772 212.079C187.714 212.169 187.641 212.247 187.555 212.31C187.441 212.38 187.308 212.414 187.175 212.405C187.06 212.405 186.946 212.372 186.849 212.31C186.716 212.245 186.589 212.168 186.47 212.079L185.981 211.781C185.783 211.663 185.574 211.563 185.357 211.482C185.087 211.389 184.811 211.316 184.53 211.265C184.168 211.196 183.8 211.164 183.431 211.17C182.771 211.164 182.117 211.288 181.505 211.537C180.931 211.779 180.421 212.151 180.013 212.622C179.575 213.13 179.243 213.72 179.036 214.358C178.786 215.114 178.667 215.908 178.684 216.705C178.667 217.503 178.796 218.298 179.063 219.051C179.279 219.691 179.62 220.282 180.067 220.787C180.491 221.252 181.009 221.622 181.586 221.873C182.174 222.12 182.807 222.245 183.445 222.239C183.806 222.261 184.169 222.261 184.53 222.239C184.829 222.191 185.124 222.118 185.412 222.022C185.683 221.938 185.943 221.819 186.185 221.669C186.443 221.509 186.684 221.322 186.904 221.113C186.974 221.054 187.052 221.004 187.134 220.964C187.207 220.913 187.291 220.881 187.378 220.869Z" fill="#C4C4C4"/>
<path d="M193.889 211.197V215.551H199.315V217.803H193.889V222.238H200.847V224.572H190.959V208.891H200.847V211.211L193.889 211.197Z" fill="#C4C4C4"/>
<path d="M67.0891 49.686C65.9768 50.5677 65.0816 51.3138 64.01 52.2361C43.3485 69.9804 29.8787 94.6596 26.132 121.636C22.3853 148.612 28.6197 176.028 43.6634 198.731C44.0433 199.301 43.6635 198.731 44.0433 199.301L46.2407 197.7C31.0818 175.085 24.9334 147.617 29.005 120.697C33.0765 93.7781 47.0732 69.3565 68.2421 52.2361L68.7168 51.8563L67.0891 49.686ZM209.99 52.2361C209.474 51.7885 209.325 51.6529 208.796 51.2188L207.019 53.2942C227.823 70.6491 241.415 95.132 245.145 121.967C248.874 148.801 242.472 176.063 227.189 198.433L229.414 200.033C229.956 199.274 229.793 199.477 230.295 198.677C245.339 175.974 251.573 148.558 247.827 121.582C244.08 94.6053 230.61 69.9261 209.949 52.1819L209.99 52.2361Z" fill="#C4C4C4"/>
<path d="M150.564 242.802H123.436V245.515H150.564V242.802Z" fill="#C4C4C4"/>
</svg>
