<svg width="11" height="13" viewBox="0 0 11 13" fill="none" xmlns="http://www.w3.org/2000/svg">
<path d="M9.84375 12.875C10.1992 12.875 10.5 12.6016 10.5 12.2188V11.5625C10.5 11.207 10.1992 10.9062 9.84375 10.9062H0.65625C0.273438 10.9062 0 11.207 0 11.5625V12.2188C0 12.6016 0.273438 12.875 0.65625 12.875H9.84375ZM8.01172 5.21875L6.23438 7.02344V1.28125C6.23438 0.925781 5.93359 0.625 5.57812 0.625H4.92188C4.53906 0.625 4.26562 0.925781 4.26562 1.28125V7.02344L2.46094 5.21875C2.21484 4.97266 1.77734 4.97266 1.53125 5.21875L1.06641 5.68359C0.820312 5.92969 0.820312 6.36719 1.06641 6.61328L4.78516 10.3047C5.03125 10.5781 5.44141 10.5781 5.6875 10.3047L9.40625 6.61328C9.65234 6.33984 9.65234 5.92969 9.40625 5.68359L8.94141 5.21875C8.69531 4.97266 8.25781 4.97266 8.01172 5.21875Z" fill="#222222"/>
</svg>
