<svg width="24" height="20" viewBox="0 0 24 20" fill="none" xmlns="http://www.w3.org/2000/svg">
<path d="M4.5 2.5C4.5 1.28125 3.46875 0.25 2.25 0.25C0.984375 0.25 0 1.28125 0 2.5C0 3.76562 0.984375 4.75 2.25 4.75C3.46875 4.75 4.5 3.76562 4.5 2.5ZM2.25 7.75C0.984375 7.75 0 8.78125 0 10C0 11.2656 0.984375 12.25 2.25 12.25C3.46875 12.25 4.5 11.2656 4.5 10C4.5 8.78125 3.46875 7.75 2.25 7.75ZM2.25 15.25C0.984375 15.25 0 16.2812 0 17.5C0 18.7656 0.984375 19.75 2.25 19.75C3.46875 19.75 4.5 18.7656 4.5 17.5C4.5 16.2812 3.46875 15.25 2.25 15.25ZM24 3.25V1.75C24 1.46875 23.7188 1.1875 23.4375 1.1875H6.5625C6.23438 1.1875 6 1.46875 6 1.75V3.25C6 3.57812 6.23438 3.8125 6.5625 3.8125H23.4375C23.7188 3.8125 24 3.57812 24 3.25ZM24 10.75V9.25C24 8.96875 23.7188 8.6875 23.4375 8.6875H6.5625C6.23438 8.6875 6 8.96875 6 9.25V10.75C6 11.0781 6.23438 11.3125 6.5625 11.3125H23.4375C23.7188 11.3125 24 11.0781 24 10.75ZM24 18.25V16.75C24 16.4688 23.7188 16.1875 23.4375 16.1875H6.5625C6.23438 16.1875 6 16.4688 6 16.75V18.25C6 18.5781 6.23438 18.8125 6.5625 18.8125H23.4375C23.7188 18.8125 24 18.5781 24 18.25Z" fill="#222222"/>
</svg>
