<svg width="58" height="57" viewBox="0 0 58 57" fill="none" xmlns="http://www.w3.org/2000/svg">
<path d="M22.2473 4.6726C16.4927 8.8652 11.7662 11.6643 8.43262 18.4999C5.38139 24.7565 5.10289 30.5974 5.73602 36.1767" stroke="#D3FF1A" stroke-width="11" stroke-miterlimit="10"/>
<path d="M18.6138 3.09354L23.7207 1.52344L25.6789 7.80383L24.363 8.21206L22.7443 2.9784L20.2691 3.77915L21.8931 9.01281L20.572 9.42104L18.6138 3.09354Z" fill="black"/>
<path d="M26.499 1.10991L31.3606 1V2.13571L27.841 2.21421L27.8724 3.67964L31.136 3.61683V4.75777L27.8985 4.83104L27.935 6.49535L31.5903 6.41684V7.61012L26.593 7.72002L26.499 1.10991Z" fill="black"/>
<path d="M33.987 1.31848L36.8956 2.04596C37.1971 2.11896 37.4846 2.24094 37.7468 2.40708C37.9635 2.5509 38.1425 2.74474 38.269 2.97232C38.3953 3.1985 38.4669 3.45128 38.4778 3.71027C38.4958 4.01173 38.464 4.31411 38.3838 4.60522C38.3175 4.88733 38.2007 5.15507 38.0392 5.3955C37.8827 5.60687 37.6856 5.7848 37.4596 5.91887C37.2227 6.05853 36.9596 6.14762 36.6867 6.18055C36.3771 6.2133 36.0641 6.19026 35.7625 6.11252L34.3004 5.74093L33.726 8.04897L32.3892 7.71402L33.987 1.31848ZM34.5771 4.66279L35.8408 4.97681C36.0932 5.0576 36.3663 5.0427 36.6084 4.93494C36.7259 4.86467 36.8262 4.76901 36.9021 4.65492C36.978 4.54084 37.0275 4.41121 37.0471 4.2755C37.0904 4.12968 37.1046 3.97673 37.0888 3.82541C37.0777 3.70456 37.0383 3.58803 36.9739 3.48522C36.9063 3.38284 36.815 3.29843 36.7076 3.23924C36.5856 3.17011 36.4534 3.12065 36.316 3.09269L35.0471 2.77344L34.5771 4.66279Z" fill="black"/>
<path d="M41.2504 3.46509L42.9684 4.51182L41.2817 9.50997L44.937 5.7208L46.6602 6.76753L43.2504 12.4356L42.1642 11.7761L45.0415 7.06585L41.099 11.1272L39.9397 10.4206L41.7882 5.06659L38.911 9.77689L37.8301 9.11221L41.2504 3.46509Z" fill="black"/>
<path d="M50.0805 10.1798L51.1249 11.3731L47.6314 17.4598L46.655 16.3241L47.4121 15.1309L45.8456 13.2834L44.5192 13.8067L43.5688 12.7024L50.0805 10.1798ZM46.9474 12.7966L48.0231 14.0841L49.4748 11.7394L46.9474 12.7966Z" fill="black"/>
<path d="M53.8144 15.1309L54.3836 16.3974L52.0912 17.4441L53.1356 19.8098L55.4228 18.763L55.9867 20.0243L49.9973 22.7301L49.4333 21.4688L52.086 20.2651L51.0416 17.8942L48.3472 19.1032L47.7832 17.8367L53.8144 15.1309Z" fill="black"/>
<path d="M56.7391 22.772L57.4127 27.5817L56.29 27.7387L55.7991 24.2479L54.3475 24.452L54.8018 27.6602L53.6686 27.8225L53.2196 24.609L51.5642 24.8445L52.0864 28.5081L50.9063 28.6703L50.2065 23.6931L56.7391 22.772Z" fill="black"/>
<path d="M57.4325 30.1882L57.2446 31.5594L54.759 31.214L54.4039 33.7837L56.8895 34.1291L56.7015 35.4951L50.1689 34.5897L50.3569 33.2237L53.2759 33.6267L53.631 31.057L50.712 30.654L50.9 29.2618L57.4325 30.1882Z" fill="black"/>
<path d="M56.1328 37.5571L53.9918 42.5291L52.9474 42.079L53.7464 40.2525L48.7334 38.0857L49.2556 36.814L54.2738 38.9807L55.0884 37.1123L56.1328 37.5571Z" fill="black"/>
<path d="M52.8905 44.3609L52.0237 45.439L50.0655 43.8689L48.4311 45.8943L50.3893 47.4644L49.5277 48.5426L44.3789 44.408L45.2405 43.3298L47.5434 45.1773L49.1621 43.1519L46.8645 41.2992L47.7418 40.2524L52.8905 44.3609Z" fill="black"/>
<path d="M45.9604 51.5205L44.6654 52.4207L38.9893 48.3175L40.2216 47.4644L41.3443 48.3437L43.3443 46.9515L42.9474 45.5698L44.1432 44.7377L45.9604 51.5205ZM43.6941 48.1029L42.3104 49.0659L44.4722 50.7197L43.6941 48.1029Z" fill="black"/>
<path d="M33.4858 50.1075L34.7495 49.6731L35.5537 52.1538L36.7234 51.7718C36.9005 51.7158 37.0748 51.6511 37.2456 51.5781C37.394 51.5233 37.5293 51.4377 37.6424 51.3269C37.7454 51.2127 37.8125 51.0708 37.8356 50.9187C37.864 50.7014 37.848 50.4806 37.7886 50.2697L37.6529 49.6731C37.6215 49.5318 37.5954 49.4114 37.5798 49.3172C37.5622 49.2361 37.55 49.1539 37.5432 49.0712C37.5432 49.0032 37.5432 48.9508 37.5432 48.9037V48.7781L38.9061 48.3333C38.9061 48.4275 38.8748 48.506 38.8696 48.574C38.8643 48.6402 38.8643 48.7067 38.8696 48.7729C38.8696 48.8409 38.8696 48.9142 38.9009 49.0032C38.9322 49.0921 38.9427 49.202 38.9688 49.3381L39.1046 49.9505C39.1411 50.1441 39.1724 50.3168 39.1881 50.4738C39.2119 50.6211 39.2119 50.7714 39.1881 50.9187C39.1635 51.0607 39.1063 51.1951 39.021 51.3112C38.9164 51.4548 38.7874 51.5789 38.6398 51.6776C38.7413 51.6791 38.8425 51.6879 38.9427 51.7037C39.075 51.7236 39.2025 51.768 39.3187 51.8346C39.5064 51.9319 39.6718 52.0673 39.8043 52.2323C39.954 52.4129 40.0675 52.6209 40.1385 52.8447C40.185 52.9873 40.2148 53.1348 40.2273 53.2843C40.243 53.4269 40.243 53.5708 40.2273 53.7135C40.212 53.8477 40.1805 53.9795 40.1333 54.106C40.0892 54.2281 40.0333 54.3456 39.9662 54.4566C39.874 54.6059 39.7575 54.7385 39.6215 54.8492C39.4849 54.9605 39.338 55.0587 39.1829 55.1422C39.0142 55.2263 38.8397 55.298 38.6607 55.3568L38.1385 55.5295L35.5276 56.3826L33.4858 50.1075ZM36.4205 54.9067L37.8983 54.4252L37.9871 54.3834L38.1594 54.3206L38.3474 54.2368C38.4014 54.2115 38.4522 54.1798 38.4988 54.1426C38.5526 54.0992 38.6017 54.05 38.645 53.9961C38.6954 53.9356 38.7343 53.8664 38.7599 53.792C38.792 53.7067 38.8079 53.6162 38.8069 53.525C38.8078 53.4113 38.7901 53.2982 38.7547 53.1901C38.718 53.0721 38.6595 52.962 38.5824 52.8656C38.5204 52.7903 38.444 52.728 38.3578 52.6824C38.2738 52.644 38.1836 52.6209 38.0915 52.6144C38.0013 52.604 37.9102 52.604 37.82 52.6144C37.7336 52.6263 37.6482 52.6438 37.5641 52.6667L37.3448 52.7348L35.8983 53.2058L36.4205 54.9067Z" fill="black"/>
<path d="M29.6318 57.0002L26.6449 56.7699C26.3355 56.7541 26.0313 56.6832 25.7467 56.5606C25.5097 56.4551 25.3004 56.2956 25.1358 56.0948C24.976 55.89 24.8636 55.6523 24.8068 55.3987C24.7393 55.1055 24.7182 54.8035 24.7441 54.5037C24.7638 54.2138 24.8364 53.93 24.9582 53.6663C25.0781 53.4276 25.2472 53.2171 25.4543 53.0488C25.6629 52.8719 25.9068 52.7416 26.1697 52.6667C26.4696 52.5797 26.783 52.5496 27.0939 52.5777L28.5978 52.6929L28.7754 50.322L30.1487 50.4267L29.6318 57.0002ZM28.4934 53.8076L27.1932 53.7134C26.9298 53.6758 26.6619 53.7374 26.4412 53.8861C26.3374 53.9751 26.2545 54.086 26.1985 54.2109C26.1425 54.3357 26.1148 54.4715 26.1175 54.6084C26.1042 54.7594 26.1165 54.9116 26.154 55.0585C26.1866 55.1777 26.2475 55.2873 26.3316 55.3777C26.4135 55.4656 26.5157 55.5321 26.6292 55.5714C26.7615 55.6216 26.9005 55.6516 27.0417 55.6604L28.3472 55.7598L28.4934 53.8076Z" fill="black"/>
<path d="M22.185 56.0633L17.6211 54.4199L18.0023 53.3732L21.3129 54.5665L21.7986 53.1639L18.7542 52.0648L19.1407 51.0181L22.185 52.1171L22.749 50.547L19.2921 49.3014L19.7098 48.1448L24.4095 49.8457L22.185 56.0633Z" fill="black"/>
<path d="M15.2248 53.1534L12.6139 51.2535C12.4206 51.1153 12.2452 50.9536 12.0917 50.772C11.9657 50.6267 11.8603 50.4647 11.7784 50.2905C11.7134 50.1443 11.6712 49.989 11.6531 49.83C11.6293 49.6862 11.6293 49.5394 11.6531 49.3956C11.6767 49.2636 11.717 49.1352 11.7732 49.0135C11.8224 48.8992 11.8837 48.7904 11.9559 48.689C12.0446 48.5668 12.1442 48.4529 12.2536 48.3489C12.3529 48.264 12.4637 48.1935 12.5826 48.1395C12.7014 48.0862 12.8287 48.0543 12.9585 48.0453C13.106 48.0276 13.255 48.0276 13.4024 48.0453C13.284 47.8744 13.199 47.6826 13.1517 47.4801C13.1154 47.3075 13.1154 47.1293 13.1517 46.9567C13.1769 46.804 13.2244 46.6559 13.2927 46.5171C13.3564 46.384 13.4334 46.2578 13.5225 46.1403C13.6875 45.8988 13.9054 45.6983 14.1596 45.5541C14.3934 45.4237 14.6546 45.3502 14.922 45.3395C15.2107 45.3341 15.4977 45.3839 15.7679 45.486C16.0873 45.6081 16.3892 45.7718 16.6661 45.9728L19.1203 47.7522L15.2248 53.1534ZM15.6739 50.2644L14.2953 49.2648C14.1931 49.1953 14.0826 49.1391 13.9664 49.0973C13.868 49.0523 13.7611 49.0291 13.653 49.0292C13.5403 49.0305 13.4295 49.0593 13.3304 49.1131C13.2312 49.1669 13.1466 49.2441 13.0839 49.338C13.0116 49.4339 12.9616 49.5448 12.9377 49.6625C12.9227 49.7592 12.9317 49.858 12.9638 49.9504C13.0019 50.0461 13.0587 50.1333 13.1309 50.2068C13.2077 50.2909 13.2935 50.3664 13.3867 50.4319L14.7966 51.4786L15.6739 50.2644ZM17.3449 47.9406L15.9507 46.9305C15.8371 46.8456 15.7123 46.7769 15.5799 46.7264C15.4623 46.6857 15.3388 46.6645 15.2144 46.6636C15.0931 46.6682 14.9749 46.7023 14.8697 46.7631C14.6215 46.9255 14.4471 47.1793 14.3841 47.4696C14.3656 47.5916 14.38 47.7163 14.4259 47.8307C14.4759 47.9454 14.5488 48.0487 14.64 48.1343C14.7349 48.2283 14.8361 48.3157 14.9428 48.396L16.311 49.3799L17.3449 47.9406Z" fill="black"/>
<path d="M11.7161 46.3287C11.3459 46.61 10.9358 46.834 10.4994 46.9934C10.1061 47.1413 9.68641 47.2055 9.26703 47.1818C8.85129 47.1573 8.44709 47.0354 8.08689 46.8259C7.67533 46.5862 7.31934 46.2615 7.04252 45.8734C6.76554 45.5144 6.56796 45.1005 6.46289 44.6592C6.37695 44.2502 6.37695 43.8278 6.46289 43.4188C6.55757 42.9988 6.73511 42.6019 6.98508 42.2517C7.24716 41.8636 7.57395 41.5237 7.95112 41.2468C8.32121 40.9635 8.73598 40.7441 9.17826 40.5979C9.58361 40.4642 10.011 40.4109 10.4367 40.4408C10.8516 40.4739 11.2543 40.5972 11.6169 40.802C12.0112 41.0248 12.3531 41.3301 12.6195 41.6969C12.9156 42.0737 13.1291 42.5089 13.2461 42.9739C13.3399 43.3785 13.3399 43.7993 13.2461 44.2038C13.1504 44.6155 12.9728 45.0036 12.7239 45.3448C12.4377 45.7204 12.0982 46.0519 11.7161 46.3287ZM11.6221 42.4192C11.47 42.1999 11.2676 42.0204 11.032 41.8958C10.8054 41.7946 10.5594 41.7446 10.3114 41.7493C10.0417 41.753 9.77478 41.8043 9.5229 41.901C9.24524 42.0145 8.98365 42.1641 8.74484 42.3459C8.49861 42.5292 8.27893 42.7458 8.09211 42.9896C7.91752 43.2036 7.78466 43.4486 7.70047 43.7119C7.64746 43.9515 7.64746 44.1998 7.70047 44.4394C7.7491 44.6969 7.85829 44.9391 8.019 45.1459C8.16918 45.3517 8.36565 45.5192 8.59247 45.6346C8.81928 45.7501 9.07006 45.8104 9.32447 45.8106C9.59443 45.8095 9.86183 45.7581 10.113 45.6588C10.4001 45.5516 10.6694 45.4016 10.9119 45.2139C11.1595 45.0302 11.3794 44.8116 11.5646 44.565C11.7108 44.3504 11.817 44.111 11.878 43.8584C11.9463 43.6204 11.9606 43.37 11.9197 43.1257C11.8749 42.8707 11.7732 42.6292 11.6221 42.4192Z" fill="black"/>
<path d="M3.79405 36.6674L4.44156 38.494L5.3815 38.159C5.94546 37.9549 6.42587 37.7874 6.89061 37.6618C7.27647 37.5463 7.66879 37.4537 8.06553 37.3844C8.35655 37.3312 8.6523 37.3084 8.94802 37.3164C9.1664 37.3222 9.38205 37.3665 9.58509 37.4473C9.7507 37.5163 9.89749 37.624 10.0133 37.7613C10.1274 37.9063 10.2173 38.0689 10.2796 38.2428C10.3284 38.3774 10.3668 38.5157 10.3945 38.6562C10.4163 38.7841 10.4251 38.9139 10.4206 39.0435L9.23523 39.4727C9.23783 39.4256 9.23783 39.3784 9.23523 39.3314C9.23852 39.2843 9.23852 39.2371 9.23523 39.1901C9.23012 39.1492 9.22138 39.109 9.20912 39.0697C9.21206 39.0419 9.21206 39.0138 9.20912 38.9859C9.18498 38.9129 9.14975 38.8441 9.10468 38.7818C9.05158 38.7186 8.98057 38.6729 8.90103 38.651C8.78685 38.6217 8.66841 38.6129 8.55116 38.6248C8.36091 38.6376 8.17218 38.6674 7.9872 38.7138C7.75744 38.7661 7.46502 38.8394 7.14648 38.9441C6.82795 39.0488 6.43109 39.1796 5.98201 39.3418L3.80972 40.0955L2.24316 35.7515L8.45717 33.5325L8.92191 34.8304L3.79405 36.6674Z" fill="black"/>
<path d="M1.51722 32.7893V31.4652L4.27436 31.507V30.6487C4.02567 30.6264 3.78037 30.5755 3.5433 30.497C3.30544 30.4242 3.07609 30.3259 2.85923 30.2039C2.65757 30.0863 2.47009 29.9458 2.3005 29.7852C2.1176 29.6178 1.96092 29.4237 1.83575 29.2095C1.70156 28.9897 1.59956 28.7518 1.53288 28.5029C1.4595 28.2247 1.42609 27.9375 1.43367 27.6498C1.43852 27.4335 1.46299 27.218 1.50677 27.0061C1.54968 26.7723 1.62343 26.5453 1.72609 26.331C1.83426 26.1005 1.97303 25.8857 2.13862 25.6924C2.32216 25.4834 2.53924 25.3065 2.78091 25.1691C3.06202 25.0047 3.36672 24.8846 3.68429 24.8132C4.07901 24.7181 4.48486 24.6776 4.89054 24.6928C5.38579 24.6956 5.87749 24.7769 6.34743 24.9336C6.75084 25.0681 7.12357 25.2816 7.44402 25.5616C7.74286 25.8289 7.97835 26.1597 8.13331 26.5298C8.29647 26.9224 8.37478 27.3451 8.36307 27.7702C8.36448 28.1987 8.27736 28.6228 8.1072 29.0158C7.95814 29.3514 7.73705 29.6498 7.45969 29.8898C7.18169 30.1215 6.8629 30.299 6.51975 30.4132C6.1554 30.5417 5.77652 30.6243 5.39183 30.6592V31.5175L8.14375 31.5594V32.8887L1.51722 32.7893ZM4.86443 29.3351C5.20694 29.3447 5.54925 29.3095 5.88269 29.2304C6.13973 29.172 6.3828 29.0635 6.59808 28.9112C6.78491 28.7795 6.9314 28.5983 7.02105 28.3878C7.11978 28.1873 7.17326 27.9675 7.17771 27.744C7.18472 27.5131 7.14382 27.2832 7.05761 27.0689C6.96647 26.8638 6.82663 26.6841 6.6503 26.5455C6.43887 26.3873 6.19978 26.2702 5.94535 26.2001C5.61275 26.1139 5.27064 26.0699 4.92709 26.0693C4.58653 26.0581 4.24598 26.0915 3.91405 26.1687C3.6597 26.2303 3.41892 26.3385 3.20388 26.488C3.02165 26.6231 2.87768 26.8035 2.78613 27.0113C2.68362 27.2235 2.63008 27.456 2.62947 27.6917C2.62242 27.921 2.66334 28.1492 2.74958 28.3616C2.84016 28.5671 2.98009 28.7469 3.15688 28.885C3.36732 29.0404 3.60452 29.1558 3.85661 29.2252C4.18645 29.305 4.52517 29.3419 4.86443 29.3351Z" fill="black"/>
<path d="M2.3418 21.9347L2.81699 20.6315L7.93962 22.5208L8.83256 20.0872L3.70992 18.1874L4.18511 16.8894L9.30775 18.7945L9.54795 18.1507L11.9396 19.0352L11.5323 20.1552L10.2007 19.6685L8.52969 24.2218L2.3418 21.9347Z" fill="black"/>
<path d="M5.61084 14.3092L6.40978 13.2624L9.99197 15.9735L7.98156 11.1742L8.82228 10.0542L14.0702 14.0108L13.2765 15.0576L9.70999 12.3622L11.7047 17.1458L10.8327 18.2711L5.61084 14.3092Z" fill="black"/>
<path d="M19.0101 10.2112L17.9657 11.0015L16.3992 8.90805L15.4122 9.64076C15.2399 9.76637 15.0937 9.88151 14.9579 9.99665C14.836 10.0949 14.7363 10.218 14.6655 10.3578C14.6007 10.4983 14.5806 10.6555 14.6081 10.8079C14.6534 11.0224 14.7385 11.2265 14.8587 11.4097L15.1929 11.9331C15.2712 12.0587 15.3287 12.1634 15.3757 12.2471C15.4227 12.3309 15.4592 12.4094 15.4853 12.4722C15.5089 12.5234 15.5298 12.5758 15.548 12.6292C15.548 12.6711 15.5741 12.7129 15.5846 12.7496L14.4305 13.5974C14.4219 13.5181 14.4079 13.4394 14.3888 13.3619C14.3726 13.2976 14.3517 13.2346 14.3261 13.1735C14.2976 13.1007 14.2627 13.0306 14.2217 12.9641L14.0546 12.6658L13.7308 12.1425C13.6368 11.975 13.5533 11.818 13.4854 11.6714C13.4221 11.537 13.3781 11.3943 13.3548 11.2475C13.3379 11.1052 13.3504 10.9609 13.3914 10.8236C13.448 10.6536 13.5328 10.4944 13.642 10.3525C13.5447 10.3842 13.4453 10.4087 13.3444 10.4258C13.2043 10.4507 13.0608 10.4489 12.9214 10.4206C12.713 10.3869 12.5139 10.3103 12.3366 10.1955C12.1319 10.0741 11.9542 9.91204 11.8144 9.71927C11.6369 9.48477 11.5155 9.21263 11.4593 8.92375C11.4335 8.7893 11.423 8.65235 11.428 8.51552C11.4327 8.38706 11.4484 8.25924 11.475 8.13347C11.515 7.96087 11.5838 7.7963 11.6786 7.64674C11.7746 7.49854 11.8848 7.36007 12.0076 7.23328C12.133 7.10364 12.2674 6.98297 12.4097 6.87215L12.8431 6.54243L15.0624 4.9043L19.0101 10.2112ZM14.7125 6.61047L13.4436 7.5316L13.3548 7.59963L13.2138 7.71477L13.0624 7.85085C13.0206 7.89314 12.9822 7.93863 12.9475 7.98692C12.9099 8.0464 12.8785 8.10952 12.8535 8.17534C12.8261 8.24902 12.812 8.32698 12.8118 8.40562C12.8091 8.49772 12.8214 8.58964 12.8483 8.67777C12.8829 8.78396 12.9359 8.88318 13.005 8.97085C13.074 9.073 13.1628 9.16021 13.2661 9.2273C13.3496 9.28095 13.4443 9.31494 13.5428 9.32674C13.6324 9.34507 13.7248 9.34507 13.8143 9.32674C13.903 9.30553 13.9889 9.27391 14.0702 9.23254L14.2948 9.10169L14.4827 8.96562L15.7308 8.04449L14.7125 6.61047Z" fill="black"/>
</svg>
