<svg width="14" height="19" viewBox="0 0 14 19" fill="none" xmlns="http://www.w3.org/2000/svg">
<path d="M13.2227 3.69531L10.3047 0.742188C9.98828 0.425781 9.53125 0.25 9.10938 0.25H1.9375C0.988281 0.25 0.25 1.02344 0.25 1.9375V16.5625C0.25 17.5117 0.988281 18.25 1.9375 18.25H12.0625C12.9766 18.25 13.75 17.5117 13.75 16.5625V4.89062C13.75 4.46875 13.5391 4.01172 13.2227 3.69531ZM11.9219 4.75H9.25V2.07812L11.9219 4.75ZM1.9375 16.5625V1.9375H7.5625V5.59375C7.5625 6.08594 7.91406 6.4375 8.40625 6.4375H12.0625V16.5625H1.9375ZM10.7266 11.5352C10.3047 11.1133 9.07422 11.2188 8.44141 11.2891C7.84375 10.9375 7.45703 10.4102 7.17578 9.67188C7.28125 9.10938 7.52734 8.23047 7.35156 7.70312C7.21094 6.78906 6.01562 6.85938 5.83984 7.49219C5.69922 8.05469 5.83984 8.86328 6.08594 9.84766C5.73438 10.6914 5.20703 11.8164 4.85547 12.4844C4.15234 12.8359 3.20312 13.3984 3.0625 14.1016C2.95703 14.6641 3.97656 16.0352 5.73438 13.0117C6.50781 12.7305 7.38672 12.4141 8.125 12.2734C8.79297 12.6602 9.56641 12.8711 10.0938 12.8711C11.0078 12.8711 11.0781 11.8867 10.7266 11.5352ZM3.76562 14.2773C3.94141 13.7852 4.60938 13.2227 4.82031 13.0469C4.15234 14.1016 3.76562 14.2773 3.76562 14.2773ZM6.61328 7.5625C6.89453 7.5625 6.85938 8.6875 6.68359 9.00391C6.54297 8.51172 6.54297 7.5625 6.61328 7.5625ZM5.76953 12.3789C6.12109 11.7812 6.40234 11.0781 6.64844 10.4453C6.92969 10.9727 7.28125 11.3945 7.70312 11.6758C6.96484 11.8516 6.33203 12.1328 5.76953 12.3789ZM10.375 12.2031C10.375 12.2031 10.1992 12.4141 9.07422 11.9219C10.3047 11.8164 10.5156 12.0977 10.375 12.2031Z" fill="#222222"/>
</svg>
