<svg width="207" height="157" viewBox="0 0 207 157" fill="none" xmlns="http://www.w3.org/2000/svg">
<path d="M0 0C0.337914 1.49906 0.692536 2.9918 1.06366 4.478L3.97429 3.75117C3.6632 2.50541 3.36389 1.25498 3.07646 0H0Z" fill="url(#paint0_linear)"/>
<path d="M6.79784 23.4044C9.02984 29.6414 11.5606 35.7364 14.3728 41.6719L17.0839 40.3875C14.3137 34.5407 11.8209 28.5371 9.62243 22.3936L6.79784 23.4044Z" fill="url(#paint1_linear)"/>
<path d="M23.7099 59.1049C27.1125 64.7698 30.7856 70.2537 34.7115 75.5386L37.1198 73.7497C33.2521 68.5431 29.6335 63.1408 26.2816 57.5602L23.7099 59.1049Z" fill="url(#paint2_linear)"/>
<path d="M47.2661 90.8192C51.6971 95.7051 56.3646 100.373 61.2505 104.804L63.2659 102.581C58.4522 98.2159 53.8538 93.6175 49.4884 88.8039L47.2661 90.8192Z" fill="url(#paint3_linear)"/>
<path d="M76.5312 117.358C81.8161 121.284 87.2999 124.957 92.9648 128.36L94.5095 125.788C88.929 122.436 83.5267 118.818 78.3201 114.95L76.5312 117.358Z" fill="url(#paint4_linear)"/>
<path d="M110.398 137.697C116.333 140.509 122.428 143.04 128.665 145.272L129.676 142.447C123.533 140.249 117.529 137.756 111.682 134.986L110.398 137.697Z" fill="url(#paint5_linear)"/>
<path d="M147.592 151.006C153.945 152.592 160.417 153.877 166.992 154.845L167.429 151.877C160.952 150.924 154.576 149.658 148.319 148.095L147.592 151.006Z" fill="url(#paint6_linear)"/>
<path d="M186.678 156.761C189.956 156.92 193.253 157 196.57 157C199.886 157 203.184 156.92 206.461 156.761L206.316 153.765C203.087 153.921 199.838 154 196.57 154C193.302 154 190.052 153.921 186.823 153.765L186.678 156.761Z" fill="url(#paint7_linear)"/>
<defs>
<linearGradient id="paint0_linear" x1="53.1463" y1="67.6487" x2="53.1463" y2="170.757" gradientUnits="userSpaceOnUse">
<stop stop-color="#F55A5A"/>
<stop offset="1" stop-color="#C12E28"/>
</linearGradient>
<linearGradient id="paint1_linear" x1="53.1463" y1="67.6487" x2="53.1463" y2="170.757" gradientUnits="userSpaceOnUse">
<stop stop-color="#F55A5A"/>
<stop offset="1" stop-color="#C12E28"/>
</linearGradient>
<linearGradient id="paint2_linear" x1="53.1463" y1="67.6487" x2="53.1463" y2="170.757" gradientUnits="userSpaceOnUse">
<stop stop-color="#F55A5A"/>
<stop offset="1" stop-color="#C12E28"/>
</linearGradient>
<linearGradient id="paint3_linear" x1="53.1463" y1="67.6487" x2="53.1463" y2="170.757" gradientUnits="userSpaceOnUse">
<stop stop-color="#F55A5A"/>
<stop offset="1" stop-color="#C12E28"/>
</linearGradient>
<linearGradient id="paint4_linear" x1="53.1463" y1="67.6487" x2="53.1463" y2="170.757" gradientUnits="userSpaceOnUse">
<stop stop-color="#F55A5A"/>
<stop offset="1" stop-color="#C12E28"/>
</linearGradient>
<linearGradient id="paint5_linear" x1="53.1463" y1="67.6487" x2="53.1463" y2="170.757" gradientUnits="userSpaceOnUse">
<stop stop-color="#F55A5A"/>
<stop offset="1" stop-color="#C12E28"/>
</linearGradient>
<linearGradient id="paint6_linear" x1="53.1463" y1="67.6487" x2="53.1463" y2="170.757" gradientUnits="userSpaceOnUse">
<stop stop-color="#F55A5A"/>
<stop offset="1" stop-color="#C12E28"/>
</linearGradient>
<linearGradient id="paint7_linear" x1="53.1463" y1="67.6487" x2="53.1463" y2="170.757" gradientUnits="userSpaceOnUse">
<stop stop-color="#F55A5A"/>
<stop offset="1" stop-color="#C12E28"/>
</linearGradient>
</defs>
</svg>
