<svg width="131" height="348" viewBox="0 0 131 348" fill="none" xmlns="http://www.w3.org/2000/svg">
<path d="M0.00373513 347.846C0.00123567 347.179 -1.51466e-05 346.513 -1.51174e-05 345.846C-1.49672e-05 342.409 0.0331938 338.98 0.0993079 335.56L3.09875 335.618C3.03301 339.019 2.99999 342.429 2.99998 345.846C2.99998 346.513 3.00124 347.179 3.00376 347.846L0.00373513 347.846Z" fill="url(#paint0_linear)"/>
<path d="M131 4.5429C127.537 8.50657 124.134 12.5234 120.791 16.5919L118.473 14.6874C122.559 9.71389 126.736 4.81726 131 5.72619e-06L131 4.5429Z" fill="url(#paint1_linear)"/>
<path d="M0.89082 315.093C1.2886 308.246 1.81835 301.435 2.47757 294.661L5.46346 294.952C4.80802 301.686 4.28129 308.459 3.88577 315.267L0.89082 315.093Z" fill="url(#paint2_linear)"/>
<path d="M4.86458 274.285C5.79595 267.491 6.85803 260.74 8.0482 254.032L11.0021 254.556C9.81876 261.225 8.76279 267.938 7.83678 274.692L4.86458 274.285Z" fill="url(#paint3_linear)"/>
<path d="M12.0256 233.929C13.4871 227.239 15.0769 220.597 16.7923 214.005L19.6956 214.76C17.9902 221.314 16.4096 227.918 14.9565 234.57L12.0256 233.929Z" fill="url(#paint4_linear)"/>
<path d="M28.6817 174.762C26.447 181.207 24.335 187.709 22.3485 194.266L25.2196 195.136C27.1946 188.617 29.2943 182.153 31.5161 175.745L28.6817 174.762Z" fill="url(#paint5_linear)"/>
<path d="M35.7795 155.531C38.2758 149.158 40.8938 142.846 43.6306 136.599L46.3785 137.802C43.6575 144.014 41.0547 150.289 38.5728 156.625L35.7795 155.531Z" fill="url(#paint6_linear)"/>
<path d="M52.2221 117.993C55.2131 111.838 58.3215 105.75 61.5444 99.7329L64.1889 101.149C60.9846 107.132 57.8941 113.184 54.9204 119.304L52.2221 117.993Z" fill="url(#paint7_linear)"/>
<path d="M71.5787 81.8532C75.0431 75.9551 78.6199 70.1311 82.3064 64.3841L84.8315 66.0039C81.1662 71.7179 77.6099 77.5084 74.1655 83.3725L71.5787 81.8532Z" fill="url(#paint8_linear)"/>
<path d="M93.71 47.3508C97.6243 41.7449 101.646 36.2195 105.772 30.7775L108.162 32.5899C104.06 38.0008 100.062 43.4946 96.1697 49.0683L93.71 47.3508Z" fill="url(#paint9_linear)"/>
<defs>
<linearGradient id="paint0_linear" x1="-7.60241e-06" y1="173.923" x2="173.107" y2="173.923" gradientUnits="userSpaceOnUse">
<stop stop-color="#F55A5A"/>
<stop offset="1" stop-color="#C12E28"/>
</linearGradient>
<linearGradient id="paint1_linear" x1="-7.60241e-06" y1="173.923" x2="173.107" y2="173.923" gradientUnits="userSpaceOnUse">
<stop stop-color="#F55A5A"/>
<stop offset="1" stop-color="#C12E28"/>
</linearGradient>
<linearGradient id="paint2_linear" x1="-7.60241e-06" y1="173.923" x2="173.107" y2="173.923" gradientUnits="userSpaceOnUse">
<stop stop-color="#F55A5A"/>
<stop offset="1" stop-color="#C12E28"/>
</linearGradient>
<linearGradient id="paint3_linear" x1="-7.60241e-06" y1="173.923" x2="173.107" y2="173.923" gradientUnits="userSpaceOnUse">
<stop stop-color="#F55A5A"/>
<stop offset="1" stop-color="#C12E28"/>
</linearGradient>
<linearGradient id="paint4_linear" x1="-7.60241e-06" y1="173.923" x2="173.107" y2="173.923" gradientUnits="userSpaceOnUse">
<stop stop-color="#F55A5A"/>
<stop offset="1" stop-color="#C12E28"/>
</linearGradient>
<linearGradient id="paint5_linear" x1="-7.60241e-06" y1="173.923" x2="173.107" y2="173.923" gradientUnits="userSpaceOnUse">
<stop stop-color="#F55A5A"/>
<stop offset="1" stop-color="#C12E28"/>
</linearGradient>
<linearGradient id="paint6_linear" x1="-7.60241e-06" y1="173.923" x2="173.107" y2="173.923" gradientUnits="userSpaceOnUse">
<stop stop-color="#F55A5A"/>
<stop offset="1" stop-color="#C12E28"/>
</linearGradient>
<linearGradient id="paint7_linear" x1="-7.60241e-06" y1="173.923" x2="173.107" y2="173.923" gradientUnits="userSpaceOnUse">
<stop stop-color="#F55A5A"/>
<stop offset="1" stop-color="#C12E28"/>
</linearGradient>
<linearGradient id="paint8_linear" x1="-7.60241e-06" y1="173.923" x2="173.107" y2="173.923" gradientUnits="userSpaceOnUse">
<stop stop-color="#F55A5A"/>
<stop offset="1" stop-color="#C12E28"/>
</linearGradient>
<linearGradient id="paint9_linear" x1="-7.60241e-06" y1="173.923" x2="173.107" y2="173.923" gradientUnits="userSpaceOnUse">
<stop stop-color="#F55A5A"/>
<stop offset="1" stop-color="#C12E28"/>
</linearGradient>
</defs>
</svg>
