<svg width="208" height="157" viewBox="0 0 208 157" fill="none" xmlns="http://www.w3.org/2000/svg">
<path d="M0.930176 0C1.26809 1.49906 1.62271 2.9918 1.99384 4.478L4.90446 3.75117C4.59338 2.50541 4.29406 1.25498 4.00664 0H0.930176Z" fill="url(#paint0_linear)"/>
<path d="M7.72802 23.4044C9.96001 29.6414 12.4908 35.7364 15.303 41.6719L18.0141 40.3875C15.2439 34.5407 12.7511 28.5371 10.5526 22.3936L7.72802 23.4044Z" fill="url(#paint1_linear)"/>
<path d="M24.64 59.1049C28.0426 64.7698 31.7158 70.2537 35.6417 75.5386L38.0499 73.7497C34.1823 68.5431 30.5637 63.1408 27.2118 57.5602L24.64 59.1049Z" fill="url(#paint2_linear)"/>
<path d="M48.1963 90.8192C52.6273 95.7051 57.2948 100.373 62.1807 104.804L64.1961 102.581C59.3824 98.2159 54.784 93.6175 50.4186 88.8039L48.1963 90.8192Z" fill="url(#paint3_linear)"/>
<path d="M77.4613 117.358C82.7463 121.284 88.2301 124.957 93.895 128.36L95.4397 125.788C89.8592 122.436 84.4568 118.818 79.2503 114.95L77.4613 117.358Z" fill="url(#paint4_linear)"/>
<path d="M111.328 137.697C117.264 140.509 123.358 143.04 129.596 145.272L130.606 142.447C124.463 140.249 118.459 137.756 112.613 134.986L111.328 137.697Z" fill="url(#paint5_linear)"/>
<path d="M148.522 151.006C154.875 152.592 161.347 153.877 167.923 154.845L168.359 151.877C161.882 150.924 155.506 149.658 149.249 148.095L148.522 151.006Z" fill="url(#paint6_linear)"/>
<path d="M187.609 156.761C190.886 156.92 194.184 157 197.5 157C200.816 157 204.114 156.92 207.391 156.761L207.246 153.765C204.017 153.921 200.768 154 197.5 154C194.232 154 190.982 153.921 187.754 153.765L187.609 156.761Z" fill="url(#paint7_linear)"/>
<defs>
<linearGradient id="paint0_linear" x1="54.0765" y1="67.6487" x2="54.0765" y2="170.757" gradientUnits="userSpaceOnUse">
<stop stop-color="#F55A5A"/>
<stop offset="1" stop-color="#C12E28"/>
</linearGradient>
<linearGradient id="paint1_linear" x1="54.0765" y1="67.6487" x2="54.0765" y2="170.757" gradientUnits="userSpaceOnUse">
<stop stop-color="#F55A5A"/>
<stop offset="1" stop-color="#C12E28"/>
</linearGradient>
<linearGradient id="paint2_linear" x1="54.0765" y1="67.6487" x2="54.0765" y2="170.757" gradientUnits="userSpaceOnUse">
<stop stop-color="#F55A5A"/>
<stop offset="1" stop-color="#C12E28"/>
</linearGradient>
<linearGradient id="paint3_linear" x1="54.0765" y1="67.6487" x2="54.0765" y2="170.757" gradientUnits="userSpaceOnUse">
<stop stop-color="#F55A5A"/>
<stop offset="1" stop-color="#C12E28"/>
</linearGradient>
<linearGradient id="paint4_linear" x1="54.0765" y1="67.6487" x2="54.0765" y2="170.757" gradientUnits="userSpaceOnUse">
<stop stop-color="#F55A5A"/>
<stop offset="1" stop-color="#C12E28"/>
</linearGradient>
<linearGradient id="paint5_linear" x1="54.0765" y1="67.6487" x2="54.0765" y2="170.757" gradientUnits="userSpaceOnUse">
<stop stop-color="#F55A5A"/>
<stop offset="1" stop-color="#C12E28"/>
</linearGradient>
<linearGradient id="paint6_linear" x1="54.0765" y1="67.6487" x2="54.0765" y2="170.757" gradientUnits="userSpaceOnUse">
<stop stop-color="#F55A5A"/>
<stop offset="1" stop-color="#C12E28"/>
</linearGradient>
<linearGradient id="paint7_linear" x1="54.0765" y1="67.6487" x2="54.0765" y2="170.757" gradientUnits="userSpaceOnUse">
<stop stop-color="#F55A5A"/>
<stop offset="1" stop-color="#C12E28"/>
</linearGradient>
</defs>
</svg>
