<svg width="360" height="189" viewBox="0 0 360 189" fill="none" xmlns="http://www.w3.org/2000/svg">
<mask id="mask0" mask-type="alpha" maskUnits="userSpaceOnUse" x="-37" y="72" width="118" height="117">
<rect x="-36.2427" y="97.3712" width="95.2401" height="94.0496" transform="rotate(-15 -36.2427 97.3712)" fill="url(#paint0_linear)"/>
</mask>
<g mask="url(#mask0)">
<rect x="-29.351" y="120.791" width="94.0496" height="69.0491" rx="29.1673" transform="rotate(-15 -29.351 120.791)" fill="#E1F6EB" stroke="url(#paint1_linear)" stroke-width="1.1905"/>
<path d="M10.7118 151.339C11.2516 151.293 11.7613 151.448 12.2409 151.802C12.7204 152.157 13.0366 152.619 13.1895 153.19C13.3201 153.677 13.3096 154.153 13.158 154.618C13.0132 155.071 12.7324 155.477 12.3156 155.835C11.8964 156.184 11.3694 156.443 10.7347 156.613L6.89849 157.641L4.32873 148.051L7.98553 147.071C8.63869 146.896 9.22944 146.856 9.75777 146.951C10.2861 147.046 10.7204 147.25 11.0607 147.563C11.3984 147.867 11.629 148.249 11.7522 148.709C11.9001 149.261 11.8762 149.76 11.6804 150.207C11.4846 150.654 11.1617 151.031 10.7118 151.339ZM6.98151 151.659L8.9272 151.137C9.44237 150.999 9.81174 150.777 10.0353 150.471C10.2656 150.152 10.3216 149.773 10.2033 149.331C10.0874 148.899 9.85024 148.602 9.49177 148.442C9.14003 148.27 8.70657 148.253 8.1914 148.391L6.24571 148.913L6.98151 151.659ZM10.2528 155.367C10.7864 155.224 11.1705 154.983 11.405 154.644C11.6396 154.305 11.6952 153.906 11.572 153.446C11.4463 152.977 11.1854 152.647 10.7895 152.457C10.3936 152.268 9.92883 152.244 9.39526 152.387L7.32538 152.942L8.12773 155.936L10.2528 155.367ZM13.5315 146.635C13.2464 146.711 12.9813 146.679 12.7363 146.537C12.4914 146.396 12.3307 146.183 12.2543 145.897C12.1779 145.612 12.2104 145.347 12.3518 145.102C12.4932 144.857 12.7065 144.697 12.9917 144.62C13.2677 144.546 13.5282 144.58 13.7731 144.721C14.0181 144.863 14.1787 145.076 14.2552 145.361C14.3316 145.647 14.2991 145.912 14.1577 146.157C14.0162 146.402 13.8075 146.561 13.5315 146.635ZM14.5742 147.435L16.6115 155.039L15.0384 155.46L13.0011 147.857L14.5742 147.435ZM18.2668 147.821L19.3945 152.03C19.4709 152.315 19.5908 152.505 19.7541 152.599C19.9241 152.682 20.1701 152.68 20.4921 152.594L21.458 152.335L21.8093 153.646L20.5674 153.979C19.859 154.168 19.2719 154.148 18.806 153.918C18.34 153.688 18.0073 153.2 17.8076 152.455L16.6799 148.246L15.7829 148.487L15.439 147.203L16.336 146.963L15.8294 145.073L17.4163 144.647L17.9229 146.538L19.772 146.042L20.1159 147.326L18.2668 147.821ZM21.1624 149.737C20.9528 148.955 20.9256 148.228 21.0806 147.555C21.2424 146.871 21.5607 146.293 22.0356 145.82C22.5105 145.348 23.1113 145.015 23.8381 144.82C24.758 144.573 25.5761 144.591 26.2924 144.872C27.0154 145.142 27.5912 145.653 28.0197 146.406L26.3224 146.861C26.0833 146.521 25.7837 146.285 25.4234 146.155C25.0631 146.025 24.653 146.021 24.193 146.145C23.5491 146.317 23.0955 146.685 22.8324 147.249C22.576 147.8 22.5575 148.486 22.7769 149.305C22.9962 150.123 23.3562 150.712 23.8566 151.071C24.3662 151.427 24.943 151.519 25.587 151.347C26.4977 151.103 26.9931 150.541 27.073 149.662L28.7703 149.207C28.7566 150.039 28.5077 150.766 28.0238 151.389C27.5374 152.003 26.8435 152.43 25.9419 152.672C25.2152 152.866 24.5281 152.878 23.8806 152.706C23.2307 152.525 22.6659 152.184 22.1862 151.681C21.7131 151.167 21.3719 150.519 21.1624 149.737ZM33.7607 150.577C33.0431 150.769 32.3514 150.782 31.6856 150.615C31.0173 150.439 30.4387 150.101 29.9497 149.601C29.4583 149.092 29.1079 148.446 28.8983 147.664C28.6913 146.892 28.6778 146.161 28.858 145.471C29.0381 144.782 29.3795 144.198 29.8819 143.718C30.3844 143.238 30.9991 142.901 31.7258 142.706C32.4526 142.512 33.1535 142.496 33.8285 142.661C34.5036 142.825 35.0914 143.16 35.592 143.667C36.0926 144.174 36.4464 144.814 36.6535 145.586C36.8606 146.359 36.8694 147.091 36.6801 147.783C36.4907 148.475 36.1368 149.067 35.6184 149.561C35.1067 150.043 34.4875 150.382 33.7607 150.577ZM33.3947 149.21C33.7994 149.102 34.1507 148.904 34.4485 148.617C34.7556 148.328 34.9677 147.961 35.085 147.515C35.2022 147.07 35.1869 146.571 35.039 146.019C34.8911 145.467 34.6608 145.031 34.3482 144.71C34.033 144.381 33.6748 144.166 33.2735 144.066C32.8721 143.967 32.4691 143.971 32.0643 144.08C31.6595 144.188 31.3082 144.386 31.0104 144.673C30.7218 144.957 30.528 145.32 30.4292 145.76C30.3279 146.192 30.3511 146.683 30.499 147.235C30.7184 148.054 31.0955 148.633 31.6303 148.973C32.1718 149.301 32.7599 149.381 33.3947 149.21ZM37.1703 140.301C36.8851 140.377 36.62 140.345 36.3751 140.203C36.1301 140.062 35.9694 139.849 35.893 139.564C35.8166 139.278 35.8491 139.013 35.9905 138.768C36.1319 138.523 36.3452 138.363 36.6304 138.286C36.9064 138.212 37.1669 138.246 37.4118 138.387C37.6568 138.529 37.8175 138.742 37.8939 139.027C37.9703 139.313 37.9378 139.578 37.7964 139.823C37.655 140.068 37.4462 140.227 37.1703 140.301ZM38.2129 141.101L40.2503 148.705L38.6771 149.126L36.6398 141.523L38.2129 141.101ZM43.5292 139.544C44.1272 139.383 44.694 139.365 45.2298 139.487C45.7747 139.607 46.2459 139.876 46.6433 140.292C47.0407 140.708 47.3319 141.261 47.5168 141.951L48.7185 146.436L47.1591 146.853L46.0203 142.603C45.8379 141.922 45.5284 141.448 45.0919 141.181C44.6529 140.904 44.1391 140.844 43.5503 141.002C42.9615 141.16 42.5417 141.47 42.2907 141.931C42.0464 142.381 42.0155 142.947 42.1979 143.627L43.3368 147.878L41.7636 148.299L39.7263 140.696L41.2994 140.274L41.5324 141.144C41.7062 140.762 41.9674 140.43 42.3162 140.15C42.6741 139.866 43.0785 139.664 43.5292 139.544Z" fill="#7AE4B0"/>
<g filter="url(#filter0_bdii)">
<rect x="-13.2439" y="91.2087" width="47.62" height="47.62" rx="23.81" transform="rotate(-15 -13.2439 91.2087)" fill="url(#paint2_radial)" fill-opacity="0.5"/>
<rect x="-12.5149" y="91.6296" width="46.4295" height="46.4295" rx="23.2148" transform="rotate(-15 -12.5149 91.6296)" stroke="url(#paint3_linear)" stroke-width="1.1905"/>
</g>
<g filter="url(#filter1_b)">
<path d="M23.8647 121.938L22.7537 117.792C25.8823 116.581 27.4229 112.972 26.1945 109.73C25.5923 108.141 24.3942 106.861 22.8737 106.181C23.9758 104.655 24.332 102.682 23.8411 100.824C22.9997 97.7213 20.0397 95.7251 16.9645 96.1859L15.8535 92.0396L13.2252 92.7438L14.3176 96.8209L11.6894 97.5251L10.5969 93.4481L7.96868 94.1523L9.06112 98.2294L3.8046 99.6378L9.63095 121.382L14.8875 119.974L15.9799 124.051L18.6082 123.346L17.5157 119.269L20.144 118.565L21.2364 122.642L23.8647 121.938ZM7.16115 101.652L17.0171 99.0107C18.8315 98.5246 20.71 99.6516 21.2128 101.528C21.7156 103.404 20.6523 105.32 18.8379 105.806L8.98189 108.447L7.16115 101.652ZM11.5309 117.96L9.71018 111.165L19.5662 108.524C21.3806 108.038 23.2591 109.165 23.7618 111.041C24.2646 112.917 23.2013 114.833 21.3869 115.319L11.5309 117.96Z" fill="url(#paint4_linear)"/>
</g>
</g>
<mask id="mask1" mask-type="alpha" maskUnits="userSpaceOnUse" x="299" y="0" width="136" height="135">
<rect x="324.564" width="112.783" height="111.374" transform="rotate(13.1936 324.564 0)" fill="url(#paint5_radial)"/>
</mask>
<g mask="url(#mask1)">
<rect opacity="0.1" x="318.654" y="28.2988" width="111.374" height="81.768" rx="34.5399" transform="rotate(13.1936 318.654 28.2988)" fill="#F2C94C" stroke="url(#paint6_linear)" stroke-width="1.40979"/>
<path d="M347.813 77.6288C349.032 77.9145 350.042 78.4003 350.843 79.0861C351.657 79.7636 352.208 80.5994 352.496 81.5937C352.798 82.5796 352.812 83.6545 352.54 84.8185C352.267 85.9824 351.777 86.9334 351.071 87.6715C350.376 88.4121 349.514 88.905 348.483 89.1499C347.466 89.3865 346.348 89.3619 345.13 89.0761L341.391 88.1996L344.074 76.7523L347.813 77.6288ZM345.489 87.5443C346.828 87.8584 347.94 87.7367 348.824 87.1793C349.707 86.6219 350.304 85.6844 350.612 84.3667C350.924 83.038 350.81 81.9167 350.272 81.0027C349.733 80.0887 348.794 79.4746 347.454 79.1606L345.593 78.7243L343.627 87.108L345.489 87.5443ZM356.311 91.8538C355.455 91.6531 354.726 91.2794 354.124 90.7329C353.525 90.1754 353.11 89.499 352.88 88.7036C352.652 87.8971 352.647 87.0273 352.866 86.0939C353.082 85.1715 353.477 84.4011 354.051 83.7826C354.624 83.1641 355.307 82.7451 356.1 82.5255C356.893 82.3059 357.723 82.2978 358.591 82.5012C359.458 82.7045 360.198 83.0807 360.811 83.6298C361.424 84.1789 361.849 84.8579 362.088 85.6669C362.327 86.4759 362.339 87.3416 362.122 88.2639C361.906 89.1863 361.506 89.9555 360.921 90.5714C360.337 91.1873 359.636 91.608 358.818 91.8334C358.014 92.0504 357.179 92.0572 356.311 91.8538ZM356.694 90.2232C357.177 90.3365 357.654 90.3267 358.125 90.194C358.608 90.0638 359.035 89.7989 359.406 89.3995C359.778 89.0001 360.041 88.471 360.195 87.8122C360.35 87.1533 360.354 86.5692 360.207 86.0598C360.062 85.5394 359.808 85.115 359.445 84.7866C359.082 84.4582 358.659 84.2373 358.176 84.1241C357.692 84.0108 357.215 84.0206 356.744 84.1533C356.284 84.2887 355.878 84.5586 355.529 84.9632C355.182 85.3568 354.931 85.883 354.776 86.5418C354.547 87.5191 354.617 88.3347 354.985 88.9886C355.366 89.634 355.936 90.0456 356.694 90.2232ZM368.073 84.7241C368.776 84.8888 369.363 85.177 369.834 85.5887C370.319 85.9919 370.666 86.4382 370.875 86.9275L371.184 85.6098L373.078 86.0539L370.916 95.2776C370.72 96.1122 370.371 96.8122 369.868 97.3777C369.362 97.9541 368.73 98.3505 367.973 98.5668C367.227 98.7857 366.392 98.787 365.47 98.5708C364.24 98.2825 363.287 97.7521 362.611 96.9797C361.932 96.2182 361.654 95.3304 361.776 94.3164L363.637 94.7527C363.669 95.2584 363.882 95.708 364.276 96.1016C364.679 96.5088 365.204 96.7883 365.852 96.9402C366.61 97.1178 367.273 97.0301 367.843 96.677C368.423 96.3265 368.816 95.712 369.022 94.8336L369.377 93.3183C368.958 93.6718 368.44 93.9325 367.821 94.1003C367.216 94.2597 366.568 94.2583 365.876 94.0961C365.085 93.9107 364.407 93.5432 363.841 92.9934C363.288 92.4353 362.903 91.7543 362.686 90.9504C362.483 90.1382 362.488 89.2764 362.702 88.365C362.915 87.4536 363.291 86.6903 363.829 86.075C364.378 85.4624 365.022 85.0398 365.76 84.8074C366.511 84.5665 367.282 84.5388 368.073 84.7241ZM370.122 90.1394C370.269 89.5135 370.265 88.939 370.109 88.4161C369.965 87.8957 369.712 87.4658 369.352 87.1264C368.991 86.787 368.569 86.5607 368.086 86.4474C367.603 86.3341 367.124 86.3494 366.65 86.4931C366.179 86.6259 365.758 86.892 365.386 87.2914C365.028 87.6824 364.776 88.1908 364.629 88.8167C364.482 89.4426 364.48 90.0213 364.621 90.5527C364.774 91.0866 365.03 91.5288 365.388 91.8791C365.759 92.2211 366.181 92.4474 366.654 92.5581C367.137 92.6714 367.615 92.6561 368.089 92.5124C368.563 92.3686 368.98 92.0958 369.341 91.6938C369.715 91.2834 369.976 90.7653 370.122 90.1394ZM382.192 92.743C382.112 93.0834 382.018 93.3857 381.91 93.6499L374.976 92.0243C374.861 92.7619 374.993 93.4069 375.373 93.9594C375.754 94.5119 376.295 94.8705 376.998 95.0353C378.008 95.2721 378.821 95.0167 379.436 94.269L381.462 94.7439C380.992 95.5141 380.332 96.0832 379.481 96.4514C378.643 96.8111 377.692 96.8662 376.627 96.6165C375.76 96.4131 375.025 96.0382 374.423 95.4917C373.835 94.9368 373.426 94.2616 373.195 93.4662C372.978 92.6623 372.979 91.7937 373.198 90.8604C373.417 89.927 373.795 89.1527 374.333 88.5375C374.885 87.9139 375.546 87.4897 376.317 87.2649C377.099 87.0428 377.935 87.036 378.824 87.2445C379.681 87.4453 380.4 87.8109 380.982 88.3412C381.565 88.8716 381.963 89.5209 382.176 90.2893C382.393 91.0466 382.398 91.8645 382.192 92.743ZM380.371 91.6905C380.522 90.9961 380.405 90.3837 380.02 89.8532C379.634 89.3226 379.085 88.9737 378.371 88.8064C377.723 88.6545 377.12 88.7332 376.561 89.0423C376.004 89.3405 375.6 89.8306 375.347 90.5128L380.371 91.6905Z" fill="#F2C94C"/>
<g filter="url(#filter2_bdii)">
<rect x="352.016" y="6.43549" width="56.3917" height="56.3917" rx="28.1959" transform="rotate(13.1936 352.016 6.43549)" fill="url(#paint7_radial)" fill-opacity="0.5"/>
<rect x="352.541" y="7.28266" width="54.9819" height="54.9819" rx="27.491" transform="rotate(13.1936 352.541 7.28266)" stroke="url(#paint8_linear)" stroke-width="1.40979"/>
</g>
</g>
<mask id="mask2" mask-type="alpha" maskUnits="userSpaceOnUse" x="65" y="40" width="85" height="86">
<rect x="65.115" y="63.1091" width="66.59" height="65.7576" transform="rotate(-19.5713 65.115 63.1091)" fill="url(#paint9_radial)"/>
</mask>
<g mask="url(#mask2)">
<rect x="71.2232" y="79.0475" width="65.7576" height="48.2777" rx="20.3932" transform="rotate(-19.5713 71.2232 79.0475)" fill="#EEF2FD" stroke="url(#paint10_linear)" stroke-width="0.832374"/>
<path d="M100.79 94.6643L103.115 101.205L102.042 101.587L100.45 97.1068L100.047 102.296L99.3036 102.56L95.7063 98.7932L97.299 103.273L96.2261 103.654L93.9007 97.1135L95.0583 96.702L99.1782 101.015L99.6416 95.0725L100.79 94.6643ZM106.428 100.123C105.939 100.297 105.458 100.344 104.984 100.265C104.509 100.18 104.087 99.9765 103.718 99.6552C103.347 99.3277 103.067 98.8973 102.877 98.364C102.69 97.8369 102.64 97.3282 102.727 96.8379C102.814 96.3475 103.019 95.9212 103.343 95.5588C103.666 95.1964 104.076 94.9271 104.572 94.7509C105.067 94.5747 105.555 94.525 106.035 94.6019C106.514 94.6787 106.943 94.8798 107.32 95.2051C107.697 95.5304 107.979 95.9565 108.166 96.4836C108.354 97.0106 108.401 97.5204 108.307 98.013C108.214 98.5056 108 98.9384 107.667 99.3115C107.337 99.6761 106.924 99.9465 106.428 100.123ZM106.097 99.191C106.373 99.0929 106.607 98.9355 106.799 98.719C106.996 98.5003 107.124 98.2324 107.181 97.9153C107.238 97.5982 107.199 97.2515 107.065 96.875C106.932 96.4986 106.747 96.2074 106.511 96.0014C106.273 95.7892 106.011 95.6596 105.726 95.6126C105.441 95.5656 105.16 95.5912 104.884 95.6893C104.608 95.7875 104.374 95.9448 104.183 96.1614C103.997 96.3756 103.882 96.6391 103.838 96.9517C103.792 97.258 103.835 97.5994 103.969 97.9758C104.168 98.5343 104.463 98.917 104.854 99.1241C105.25 99.3226 105.664 99.3449 106.097 99.191ZM110.517 92.6373C110.925 92.4923 111.319 92.4476 111.699 92.5033C112.085 92.5567 112.429 92.7173 112.729 92.9852C113.029 93.253 113.263 93.6222 113.43 94.0928L114.517 97.1515L113.454 97.5296L112.423 94.6309C112.258 94.1666 112.016 93.8534 111.697 93.6912C111.376 93.5228 111.014 93.5099 110.613 93.6527C110.211 93.7954 109.936 94.0347 109.787 94.3704C109.641 94.6977 109.651 95.0934 109.816 95.5577L110.847 98.4564L109.774 98.8379L107.931 93.6522L109.003 93.2707L109.214 93.8637C109.314 93.5879 109.478 93.3424 109.705 93.1273C109.939 92.9099 110.209 92.7466 110.517 92.6373ZM119.295 92.3892C119.365 92.5837 119.414 92.7639 119.445 92.9296L115.483 94.3383C115.661 94.7412 115.933 95.0191 116.299 95.1719C116.664 95.3248 117.047 95.3298 117.449 95.187C118.026 94.9818 118.348 94.5953 118.415 94.0274L119.572 93.6158C119.585 94.1484 119.439 94.6421 119.134 95.0967C118.833 95.5429 118.379 95.8742 117.77 96.0905C117.275 96.2667 116.79 96.3153 116.317 96.2362C115.847 96.1487 115.428 95.9443 115.06 95.623C114.695 95.2933 114.418 94.8617 114.228 94.3284C114.039 93.7951 113.979 93.2897 114.05 92.8123C114.125 92.3264 114.317 91.9045 114.628 91.5466C114.945 91.1865 115.358 90.9161 115.866 90.7354C116.356 90.5614 116.83 90.5131 117.288 90.5903C117.747 90.6676 118.152 90.8628 118.504 91.176C118.853 91.4829 119.117 91.8873 119.295 92.3892ZM118.055 92.4486C117.908 92.0555 117.654 91.7889 117.293 91.6486C116.933 91.5083 116.548 91.5107 116.14 91.6557C115.77 91.7873 115.496 92.0191 115.317 92.3512C115.136 92.6771 115.092 93.0497 115.184 93.4691L118.055 92.4486ZM120.439 90.0534C120.502 89.7341 120.636 89.4566 120.842 89.2208C121.052 88.9765 121.336 88.7908 121.694 88.6637L122.089 89.7742L121.816 89.8712C121.395 90.0207 121.113 90.2411 120.969 90.5325C120.832 90.8217 120.857 91.2298 121.044 91.7568L122.015 94.4861L120.942 94.8676L119.098 89.6819L120.171 89.3005L120.439 90.0534ZM126.457 93.0023C125.967 93.1763 125.486 93.2238 125.013 93.1447C124.537 93.0593 124.115 92.856 123.746 92.5348C123.375 92.2073 123.095 91.7768 122.906 91.2435C122.718 90.7165 122.668 90.2078 122.755 89.7174C122.842 89.2271 123.048 88.8007 123.371 88.4383C123.695 88.076 124.104 87.8067 124.6 87.6305C125.096 87.4543 125.583 87.4046 126.063 87.4814C126.542 87.5582 126.971 87.7593 127.348 88.0846C127.725 88.4099 128.007 88.8361 128.195 89.3631C128.382 89.8902 128.429 90.4 128.336 90.8926C128.242 91.3852 128.029 91.818 127.695 92.1911C127.365 92.5557 126.952 92.8261 126.457 93.0023ZM126.125 92.0706C126.402 91.9724 126.635 91.8151 126.827 91.5986C127.025 91.3798 127.152 91.1119 127.209 90.7949C127.266 90.4778 127.227 90.131 127.094 89.7546C126.96 89.3781 126.775 89.0869 126.539 88.881C126.301 88.6688 126.04 88.5392 125.754 88.4922C125.469 88.4452 125.188 88.4708 124.912 88.5689C124.636 88.667 124.402 88.8244 124.211 89.0409C124.026 89.2552 123.911 89.5186 123.866 89.8312C123.82 90.1376 123.863 90.4789 123.997 90.8554C124.196 91.4138 124.491 91.7965 124.883 92.0036C125.278 92.2022 125.693 92.2245 126.125 92.0706Z" fill="#8C99ED"/>
<g filter="url(#filter3_bdii)">
<rect x="80.8005" y="57.5325" width="33.295" height="33.295" rx="16.6475" transform="rotate(-19.5713 80.8005 57.5325)" fill="url(#paint11_radial)" fill-opacity="0.5"/>
<rect x="81.3321" y="57.7853" width="32.4626" height="32.4626" rx="16.2313" transform="rotate(-19.5713 81.3321 57.7853)" stroke="url(#paint12_linear)" stroke-width="0.832374"/>
</g>
<g filter="url(#filter4_b)">
<path d="M91.562 63.1314L95.9066 75.3517L89.9656 77.4638L90.6627 79.4245L98.5644 76.6153L95.3248 67.503L103.587 71.9209L107.207 63.2788L110.446 72.3911L118.348 69.5819L117.651 67.6212L111.71 69.7333L107.365 57.513L102.551 69.0073L91.562 63.1314Z" fill="url(#paint13_linear)"/>
</g>
</g>
<mask id="mask3" mask-type="alpha" maskUnits="userSpaceOnUse" x="280" y="122" width="54" height="54">
<rect x="280.753" y="134.176" width="43.5915" height="43.0466" transform="rotate(-15 280.753 134.176)" fill="url(#paint14_radial)"/>
</mask>
<g mask="url(#mask3)">
<rect x="283.907" y="144.895" width="43.0466" height="31.6038" rx="13.3499" transform="rotate(-15 283.907 144.895)" fill="#F6F3FE" stroke="url(#paint15_linear)" stroke-width="0.544893"/>
<path d="M300.067 161.481L301.551 161.083L301.707 161.665L299.503 162.255L298.327 157.866L299.047 157.673L300.067 161.481ZM301.6 156.988L302.777 161.378L302.056 161.571L300.88 157.181L301.6 156.988ZM303.534 158.075L304.05 160.001C304.085 160.131 304.14 160.218 304.215 160.261C304.293 160.299 304.405 160.298 304.553 160.259L304.995 160.14L305.156 160.74L304.587 160.893C304.263 160.98 303.994 160.97 303.781 160.865C303.568 160.76 303.415 160.537 303.324 160.196L302.808 158.269L302.397 158.379L302.24 157.792L302.65 157.682L302.419 156.817L303.145 156.622L303.377 157.487L304.223 157.26L304.38 157.848L303.534 158.075ZM308.267 157.95C308.302 158.081 308.325 158.201 308.336 158.311L305.677 159.023C305.773 159.296 305.936 159.491 306.166 159.61C306.397 159.729 306.647 159.752 306.916 159.68C307.304 159.576 307.534 159.341 307.607 158.973L308.384 158.765C308.364 159.114 308.243 159.428 308.021 159.709C307.801 159.984 307.487 160.177 307.079 160.286C306.746 160.375 306.427 160.382 306.123 160.305C305.821 160.224 305.558 160.068 305.334 159.84C305.114 159.605 304.955 159.309 304.859 158.951C304.764 158.594 304.751 158.261 304.822 157.953C304.896 157.64 305.044 157.374 305.265 157.157C305.491 156.939 305.775 156.784 306.116 156.692C306.444 156.604 306.756 156.598 307.051 156.672C307.346 156.746 307.6 156.895 307.814 157.117C308.026 157.336 308.177 157.614 308.267 157.95ZM307.454 157.924C307.379 157.66 307.227 157.473 306.999 157.363C306.771 157.252 306.52 157.234 306.247 157.307C305.998 157.374 305.807 157.511 305.673 157.718C305.538 157.921 305.49 158.162 305.528 158.441L307.454 157.924ZM308.505 157.975C308.409 157.617 308.397 157.284 308.467 156.976C308.542 156.663 308.687 156.398 308.905 156.182C309.122 155.966 309.397 155.813 309.73 155.724C310.151 155.611 310.525 155.619 310.853 155.748C311.184 155.871 311.447 156.105 311.644 156.45L310.867 156.658C310.757 156.502 310.62 156.395 310.455 156.335C310.29 156.276 310.103 156.274 309.892 156.33C309.597 156.409 309.39 156.578 309.269 156.836C309.152 157.088 309.143 157.402 309.244 157.777C309.344 158.151 309.509 158.421 309.738 158.585C309.971 158.748 310.235 158.79 310.53 158.711C310.947 158.6 311.174 158.343 311.21 157.94L311.987 157.732C311.981 158.113 311.867 158.446 311.645 158.731C311.423 159.012 311.105 159.207 310.693 159.318C310.36 159.407 310.045 159.412 309.749 159.334C309.452 159.251 309.193 159.095 308.973 158.865C308.757 158.629 308.601 158.333 308.505 157.975ZM314.271 158.359C313.943 158.447 313.626 158.453 313.321 158.376C313.016 158.296 312.751 158.141 312.527 157.912C312.302 157.679 312.142 157.384 312.046 157.026C311.951 156.672 311.945 156.338 312.027 156.022C312.11 155.707 312.266 155.439 312.496 155.22C312.726 155 313.007 154.846 313.34 154.757C313.672 154.668 313.993 154.661 314.302 154.736C314.611 154.811 314.88 154.964 315.109 155.196C315.338 155.428 315.5 155.721 315.595 156.075C315.69 156.429 315.694 156.764 315.607 157.08C315.521 157.397 315.359 157.668 315.121 157.894C314.887 158.115 314.604 158.27 314.271 158.359ZM314.104 157.734C314.289 157.684 314.45 157.593 314.586 157.462C314.727 157.33 314.824 157.162 314.877 156.958C314.931 156.754 314.924 156.525 314.856 156.273C314.789 156.02 314.683 155.821 314.54 155.674C314.396 155.523 314.232 155.425 314.048 155.379C313.864 155.334 313.68 155.336 313.495 155.385C313.309 155.435 313.149 155.525 313.012 155.657C312.88 155.787 312.792 155.953 312.746 156.154C312.7 156.352 312.711 156.577 312.778 156.83C312.879 157.204 313.051 157.47 313.296 157.625C313.544 157.775 313.813 157.811 314.104 157.734ZM315.832 153.656C315.701 153.691 315.58 153.676 315.468 153.611C315.356 153.546 315.282 153.449 315.247 153.318C315.212 153.188 315.227 153.066 315.292 152.954C315.356 152.842 315.454 152.769 315.585 152.734C315.711 152.7 315.83 152.715 315.942 152.78C316.054 152.845 316.128 152.942 316.163 153.073C316.198 153.203 316.183 153.325 316.118 153.437C316.054 153.549 315.958 153.622 315.832 153.656ZM316.309 154.022L317.241 157.502L316.521 157.695L315.589 154.215L316.309 154.022ZM318.742 153.309C319.016 153.236 319.275 153.227 319.521 153.283C319.77 153.338 319.986 153.461 320.168 153.651C320.349 153.842 320.483 154.095 320.567 154.411L321.117 156.464L320.404 156.655L319.882 154.709C319.799 154.398 319.657 154.181 319.457 154.058C319.257 153.932 319.021 153.904 318.752 153.977C318.482 154.049 318.29 154.191 318.175 154.402C318.064 154.608 318.049 154.867 318.133 155.178L318.654 157.124L317.934 157.316L317.002 153.836L317.722 153.643L317.828 154.041C317.908 153.867 318.027 153.715 318.187 153.586C318.351 153.457 318.536 153.364 318.742 153.309Z" fill="#A1A6DA"/>
<g filter="url(#filter5_bdii)">
<rect x="291.28" y="131.355" width="21.7957" height="21.7957" rx="10.8979" transform="rotate(-15 291.28 131.355)" fill="url(#paint16_radial)" fill-opacity="0.5"/>
<rect x="291.613" y="131.548" width="21.2508" height="21.2508" rx="10.6254" transform="rotate(-15 291.613 131.548)" stroke="url(#paint17_linear)" stroke-width="0.544893"/>
</g>
<g filter="url(#filter6_b)">
<path d="M311.164 142.963L310.811 141.646L304.371 143.372L304.176 140.347L306.692 138.464L305.874 137.372L304.071 138.722L303.752 133.794L302.392 133.882L302.767 139.697L299.995 141.771L300.812 142.863L302.872 141.322L303.117 145.119L311.164 142.963Z" fill="url(#paint18_linear)"/>
</g>
</g>
<mask id="mask4" mask-type="alpha" maskUnits="userSpaceOnUse" x="209" y="72" width="68" height="69">
<rect x="227.44" y="72.7213" width="52.757" height="52.0975" transform="rotate(20.5429 227.44 72.7213)" fill="url(#paint19_linear)"/>
</mask>
<g mask="url(#mask4)">
<rect x="223.005" y="85.4962" width="52.0975" height="38.2488" rx="16.1568" transform="rotate(20.5429 223.005 85.4962)" fill="#FAE8F1" stroke="url(#paint20_linear)" stroke-width="0.659462"/>
<path d="M230.916 114.622L230.503 112.118L229.858 111.876L229.086 113.936L228.241 113.619L230.171 108.469L231.95 109.136C232.345 109.284 232.652 109.478 232.872 109.718C233.097 109.96 233.233 110.222 233.279 110.504C233.33 110.788 233.302 111.074 233.195 111.36C233.069 111.696 232.855 111.965 232.554 112.168C232.26 112.367 231.891 112.441 231.449 112.388L231.924 115L230.916 114.622ZM230.111 111.202L231.044 111.551C231.36 111.67 231.627 111.68 231.845 111.581C232.067 111.484 232.228 111.302 232.328 111.035C232.428 110.769 232.427 110.531 232.324 110.324C232.223 110.112 232.012 109.945 231.691 109.825L230.758 109.475L230.111 111.202ZM234.789 110.8C234.636 110.743 234.527 110.643 234.462 110.5C234.398 110.357 234.394 110.209 234.451 110.056C234.509 109.903 234.609 109.794 234.751 109.729C234.894 109.664 235.042 109.661 235.195 109.718C235.343 109.774 235.45 109.873 235.514 110.015C235.579 110.158 235.583 110.306 235.526 110.459C235.468 110.612 235.368 110.721 235.226 110.786C235.083 110.851 234.938 110.855 234.789 110.8ZM235.002 111.496L233.472 115.579L232.627 115.263L234.157 111.18L235.002 111.496ZM236.434 112.718C236.648 112.584 236.902 112.499 237.197 112.463C237.492 112.427 237.796 112.467 238.107 112.584C238.463 112.717 238.753 112.927 238.978 113.215C239.209 113.499 239.35 113.83 239.399 114.209C239.449 114.588 239.397 114.983 239.243 115.393C239.089 115.803 238.868 116.14 238.577 116.403C238.289 116.661 237.962 116.826 237.598 116.897C237.239 116.966 236.883 116.934 236.527 116.8C236.216 116.684 235.962 116.518 235.766 116.304C235.572 116.085 235.434 115.853 235.351 115.608L234.402 118.142L233.557 117.826L235.814 111.801L236.659 112.118L236.434 112.718ZM238.383 115.071C238.489 114.789 238.52 114.525 238.478 114.278C238.442 114.028 238.347 113.815 238.193 113.639C238.046 113.46 237.864 113.33 237.647 113.248C237.434 113.169 237.211 113.147 236.978 113.184C236.75 113.222 236.537 113.323 236.341 113.486C236.149 113.651 236.001 113.874 235.895 114.155C235.79 114.437 235.754 114.705 235.788 114.96C235.829 115.212 235.923 115.428 236.07 115.607C236.222 115.788 236.404 115.918 236.617 115.997C236.834 116.079 237.057 116.1 237.285 116.062C237.52 116.021 237.735 115.915 237.928 115.745C238.126 115.577 238.278 115.352 238.383 115.071ZM241.16 114.489C241.374 114.355 241.628 114.27 241.923 114.234C242.218 114.198 242.521 114.238 242.833 114.355C243.188 114.488 243.479 114.698 243.704 114.985C243.935 115.269 244.076 115.601 244.125 115.98C244.175 116.359 244.123 116.754 243.969 117.164C243.815 117.574 243.593 117.91 243.303 118.174C243.015 118.432 242.688 118.597 242.323 118.668C241.965 118.737 241.608 118.705 241.253 118.571C240.941 118.455 240.688 118.289 240.492 118.075C240.298 117.856 240.16 117.624 240.077 117.379L239.127 119.913L238.283 119.596L240.54 113.572L241.385 113.888L241.16 114.489ZM243.109 116.842C243.215 116.56 243.246 116.296 243.204 116.049C243.168 115.799 243.073 115.586 242.919 115.41C242.772 115.231 242.59 115.101 242.373 115.019C242.16 114.94 241.937 114.918 241.704 114.954C241.475 114.993 241.263 115.093 241.067 115.257C240.875 115.421 240.727 115.645 240.621 115.926C240.516 116.208 240.48 116.476 240.514 116.731C240.555 116.983 240.649 117.199 240.796 117.378C240.948 117.559 241.13 117.689 241.342 117.768C241.56 117.85 241.783 117.871 242.011 117.833C242.246 117.792 242.461 117.686 242.654 117.516C242.852 117.348 243.004 117.123 243.109 116.842ZM246.636 114.259L244.581 119.742L243.736 119.426L245.791 113.942L246.636 114.259ZM249.938 119.308C249.881 119.461 249.819 119.596 249.753 119.712L246.633 118.543C246.536 118.878 246.559 119.185 246.702 119.464C246.845 119.743 247.075 119.942 247.391 120.06C247.846 120.231 248.238 120.161 248.568 119.851L249.48 120.192C249.216 120.522 248.875 120.746 248.458 120.866C248.048 120.983 247.604 120.951 247.125 120.772C246.734 120.626 246.416 120.408 246.17 120.118C245.93 119.826 245.78 119.488 245.721 119.105C245.668 118.719 245.721 118.316 245.878 117.896C246.036 117.476 246.257 117.14 246.544 116.887C246.837 116.63 247.169 116.473 247.54 116.415C247.916 116.359 248.305 116.405 248.705 116.555C249.09 116.7 249.402 116.912 249.64 117.193C249.879 117.474 250.025 117.799 250.078 118.169C250.133 118.533 250.086 118.913 249.938 119.308ZM249.156 118.711C249.268 118.397 249.25 118.106 249.103 117.837C248.956 117.568 248.722 117.373 248.401 117.253C248.11 117.144 247.825 117.144 247.547 117.254C247.271 117.359 247.054 117.562 246.896 117.864L249.156 118.711Z" fill="#E1618A"/>
<g filter="url(#filter7_bdii)">
<rect x="239.791" y="77.3494" width="26.3785" height="26.3785" rx="13.1892" transform="rotate(20.5429 239.791 77.3494)" fill="url(#paint21_radial)" fill-opacity="0.5"/>
<rect x="239.984" y="77.7739" width="25.719" height="25.719" rx="12.8595" transform="rotate(20.5429 239.984 77.7739)" stroke="url(#paint22_linear)" stroke-width="0.659462"/>
</g>
<g filter="url(#filter8_b)">
<path d="M250.733 88.9173C249.636 89.4132 248.864 90.4293 248.681 91.6185L248.515 91.8376C248.206 92.2423 247.628 92.3201 247.223 92.0113C247.117 91.9304 247.029 91.8273 246.967 91.7093L246.821 91.4345C246.81 90.4948 246.416 89.5999 245.732 88.9555C244.306 87.5784 242.034 87.6171 240.657 89.0419C239.28 90.4667 239.319 92.738 240.745 94.115C241.787 95.122 243.333 95.4034 244.664 94.8285C245.158 94.9553 245.455 95.4584 245.329 95.9521C245.312 96.0163 245.289 96.0785 245.259 96.1376C244.294 96.5973 243.585 97.4645 243.327 98.5016C243.061 99.5736 243.3 100.709 243.976 101.583C244.802 102.659 246.17 103.172 247.5 102.903C248.584 102.689 249.51 101.99 250.014 101.007C250.514 100.033 250.539 98.884 250.083 97.8885C249.883 97.4525 249.596 97.0619 249.239 96.7409L249.127 96.4513C248.944 95.9763 249.181 95.4431 249.656 95.2603C249.781 95.2124 249.915 95.1921 250.048 95.2009L250.322 95.2195C252 96.2742 254.214 95.7705 255.268 94.0945C255.748 93.3329 255.923 92.419 255.759 91.5342C255.554 90.4403 254.856 89.5017 253.867 88.9898C252.889 88.4835 251.733 88.4568 250.733 88.9173ZM254.346 91.8122L254.348 91.8136C254.558 92.9819 253.781 94.0989 252.612 94.3085C252.037 94.4117 251.445 94.2765 250.971 93.934L250.807 93.8189L250.141 93.774C248.841 93.6878 247.718 94.6713 247.632 95.9708C247.609 96.3124 247.661 96.6549 247.785 96.9745L248.029 97.6077L248.175 97.7276C248.966 98.3603 249.199 99.4629 248.732 100.361C248.428 100.955 247.866 101.375 247.21 101.498C246.421 101.651 245.613 101.349 245.119 100.715C244.704 100.189 244.557 99.5011 244.721 98.8523C244.879 98.2159 245.321 97.6875 245.92 97.4199L246.154 97.3545L246.303 97.1631C247.098 96.1341 246.909 94.6549 245.879 93.8593C245.502 93.5683 245.046 93.3981 244.571 93.3711L244.335 93.3592L244.131 93.4931C243.045 93.9806 241.769 93.4956 241.281 92.41C240.793 91.3243 241.278 90.049 242.364 89.5615C242.472 89.5128 242.585 89.4732 242.7 89.443C243.427 89.2649 244.196 89.4722 244.735 89.9924C245.175 90.4037 245.412 90.9884 245.382 91.5903L245.377 91.7792L245.694 92.3798C246.302 93.5316 247.73 93.9727 248.882 93.3649C249.185 93.2048 249.45 92.9806 249.658 92.7077L250.06 92.1775L250.081 91.9783C250.204 90.7945 251.263 89.9345 252.447 90.0572C253.4 90.1558 254.173 90.8707 254.346 91.8122Z" fill="url(#paint23_linear)"/>
</g>
</g>
<mask id="mask5" mask-type="alpha" maskUnits="userSpaceOnUse" x="120" y="114" width="75" height="74">
<rect x="139.964" y="114.795" width="57.5366" height="56.8174" transform="rotate(19.6846 139.964 114.795)" fill="url(#paint24_linear)"/>
</mask>
<g mask="url(#mask5)">
<rect x="135.337" y="128.798" width="56.8174" height="41.7141" rx="17.6206" transform="rotate(19.6846 135.337 128.798)" fill="#F8F3EA" stroke="url(#paint25_linear)" stroke-width="0.719208"/>
<path d="M138.029 152.805L137.436 154.463L139.386 155.161L139.115 155.916L137.165 155.219L136.546 156.95L138.74 157.735L138.47 158.49L135.349 157.374L137.373 151.718L140.493 152.834L140.223 153.59L138.029 152.805ZM141.698 155.447L140.811 157.926C140.751 158.093 140.745 158.229 140.794 158.332C140.85 158.431 140.973 158.515 141.163 158.583L141.731 158.786L141.455 159.558L140.724 159.297C140.307 159.148 140.022 158.936 139.87 158.661C139.717 158.387 139.72 158.03 139.877 157.591L140.763 155.113L140.235 154.924L140.506 154.168L141.034 154.357L141.432 153.244L142.366 153.578L141.968 154.691L143.057 155.081L142.787 155.837L141.698 155.447ZM145.928 156.025C146.269 156.148 146.547 156.329 146.76 156.57C146.978 156.814 147.112 157.106 147.161 157.447C147.215 157.791 147.17 158.165 147.024 158.572L146.08 161.213L145.161 160.884L146.057 158.381C146.2 157.98 146.209 157.639 146.085 157.356C145.962 157.067 145.727 156.861 145.38 156.737C145.033 156.613 144.718 156.622 144.435 156.765C144.159 156.905 143.949 157.175 143.806 157.576L142.91 160.079L141.984 159.748L144.135 153.734L145.062 154.066L144.326 156.122C144.551 155.988 144.801 155.913 145.076 155.895C145.357 155.879 145.641 155.923 145.928 156.025ZM151.88 160.639C151.82 160.807 151.755 160.955 151.685 161.082L148.264 159.858C148.163 160.226 148.193 160.56 148.354 160.862C148.515 161.164 148.768 161.377 149.115 161.501C149.613 161.68 150.04 161.597 150.395 161.253L151.395 161.611C151.112 161.974 150.744 162.225 150.292 162.362C149.847 162.496 149.361 162.469 148.836 162.281C148.408 162.128 148.057 161.896 147.784 161.584C147.518 161.269 147.349 160.903 147.278 160.487C147.215 160.067 147.265 159.626 147.43 159.166C147.595 158.705 147.831 158.335 148.139 158.054C148.455 157.77 148.814 157.593 149.218 157.523C149.627 157.456 150.051 157.501 150.49 157.658C150.913 157.809 151.256 158.035 151.521 158.338C151.785 158.64 151.95 158.992 152.014 159.394C152.08 159.791 152.035 160.205 151.88 160.639ZM151.018 160C151.134 159.657 151.11 159.34 150.946 159.049C150.781 158.758 150.523 158.549 150.17 158.423C149.851 158.309 149.54 158.314 149.239 158.438C148.94 158.557 148.707 158.782 148.539 159.114L151.018 160ZM153.922 159.701C154.139 159.522 154.381 159.41 154.647 159.365C154.922 159.316 155.213 159.347 155.522 159.458L155.179 160.416L154.943 160.332C154.58 160.202 154.271 160.196 154.015 160.312C153.765 160.43 153.559 160.717 153.396 161.172L152.553 163.529L151.627 163.197L153.228 158.72L154.155 159.051L153.922 159.701ZM159.364 163.316C159.304 163.484 159.239 163.632 159.169 163.76L155.748 162.536C155.647 162.903 155.677 163.238 155.838 163.54C155.999 163.842 156.252 164.055 156.599 164.179C157.097 164.357 157.524 164.274 157.879 163.931L158.879 164.288C158.596 164.652 158.228 164.902 157.776 165.04C157.331 165.174 156.845 165.147 156.32 164.959C155.892 164.806 155.541 164.573 155.268 164.261C155.002 163.946 154.833 163.58 154.762 163.164C154.699 162.744 154.749 162.304 154.914 161.843C155.079 161.383 155.315 161.012 155.623 160.731C155.939 160.447 156.298 160.27 156.702 160.201C157.111 160.133 157.535 160.178 157.974 160.335C158.397 160.486 158.74 160.713 159.005 161.015C159.269 161.318 159.434 161.67 159.498 162.072C159.564 162.468 159.519 162.883 159.364 163.316ZM158.502 162.678C158.618 162.334 158.594 162.017 158.43 161.726C158.265 161.435 158.007 161.226 157.654 161.1C157.335 160.986 157.024 160.991 156.723 161.116C156.424 161.235 156.191 161.46 156.023 161.791L158.502 162.678ZM164.767 162.848L163.165 167.325L162.239 166.994L162.428 166.466C162.216 166.597 161.971 166.675 161.694 166.698C161.424 166.718 161.157 166.68 160.891 166.585C160.539 166.459 160.248 166.272 160.019 166.025C159.795 165.78 159.653 165.485 159.593 165.14C159.539 164.796 159.584 164.422 159.73 164.015L160.672 161.382L161.59 161.711L160.697 164.206C160.554 164.607 160.544 164.951 160.667 165.24C160.792 165.523 161.027 165.726 161.374 165.85C161.721 165.974 162.032 165.966 162.308 165.827C162.592 165.684 162.805 165.412 162.948 165.011L163.841 162.516L164.767 162.848ZM171.111 165.035C171.463 165.161 171.751 165.346 171.975 165.591C172.204 165.838 172.346 166.133 172.401 166.477C172.46 166.822 172.418 167.198 172.272 167.604L171.327 170.245L170.409 169.917L171.305 167.414C171.448 167.013 171.457 166.671 171.332 166.388C171.21 166.1 170.975 165.893 170.628 165.769C170.281 165.645 169.966 165.655 169.683 165.798C169.407 165.937 169.197 166.208 169.054 166.608L168.158 169.111L167.24 168.783L168.135 166.28C168.279 165.879 168.288 165.537 168.163 165.254C168.04 164.966 167.806 164.76 167.459 164.636C167.112 164.511 166.797 164.521 166.514 164.664C166.238 164.804 166.028 165.074 165.884 165.475L164.989 167.978L164.063 167.646L165.665 163.169L166.591 163.5L166.408 164.012C166.625 163.882 166.869 163.807 167.139 163.788C167.409 163.768 167.676 163.806 167.942 163.901C168.299 164.029 168.592 164.219 168.819 164.471C169.047 164.724 169.185 165.021 169.234 165.362C169.466 165.14 169.754 165.001 170.097 164.947C170.443 164.887 170.78 164.916 171.111 165.035Z" fill="#EDD0A9"/>
<g filter="url(#filter9_bdii)">
<rect x="153.508" y="119.64" width="28.7683" height="28.7683" rx="14.3842" transform="rotate(19.6846 153.508 119.64)" fill="url(#paint26_radial)" fill-opacity="0.5"/>
<rect x="153.725" y="120.1" width="28.0491" height="28.0491" rx="14.0246" transform="rotate(19.6846 153.725 120.1)" stroke="url(#paint27_linear)" stroke-width="0.719208"/>
</g>
<g filter="url(#filter10_b)">
<path d="M155.975 136.232L158.834 146.898L167.811 140.467L165.421 128.485L155.975 136.232ZM159.901 143.916L158.699 139.425L160.792 141.427L163.679 141.207L159.901 143.916ZM161.456 139.57L158.354 136.611L164.241 131.784L165.731 139.25L161.456 139.57Z" fill="url(#paint28_linear)"/>
</g>
</g>
<defs>
<filter id="filter0_bdii" x="-28.7204" y="72.9312" width="89.2754" height="89.2754" filterUnits="userSpaceOnUse" color-interpolation-filters="sRGB">
<feFlood flood-opacity="0" result="BackgroundImageFix"/>
<feGaussianBlur in="BackgroundImage" stdDeviation="2.97625"/>
<feComposite in2="SourceAlpha" operator="in" result="effect1_backgroundBlur"/>
<feColorMatrix in="SourceAlpha" type="matrix" values="0 0 0 0 0 0 0 0 0 0 0 0 0 0 0 0 0 0 127 0"/>
<feMorphology radius="2.381" operator="erode" in="SourceAlpha" result="effect2_dropShadow"/>
<feOffset dy="9.52401"/>
<feGaussianBlur stdDeviation="8.92876"/>
<feColorMatrix type="matrix" values="0 0 0 0 0.154343 0 0 0 0 0.754094 0 0 0 0 0.494742 0 0 0 0.21 0"/>
<feBlend mode="normal" in2="effect1_backgroundBlur" result="effect2_dropShadow"/>
<feBlend mode="normal" in="SourceGraphic" in2="effect2_dropShadow" result="shape"/>
<feColorMatrix in="SourceAlpha" type="matrix" values="0 0 0 0 0 0 0 0 0 0 0 0 0 0 0 0 0 0 127 0" result="hardAlpha"/>
<feMorphology radius="1.1905" operator="erode" in="SourceAlpha" result="effect3_innerShadow"/>
<feOffset dy="-1.1905"/>
<feGaussianBlur stdDeviation="1.1905"/>
<feComposite in2="hardAlpha" operator="arithmetic" k2="-1" k3="1"/>
<feColorMatrix type="matrix" values="0 0 0 0 0.254094 0 0 0 0 0.254094 0 0 0 0 0.254094 0 0 0 0.02 0"/>
<feBlend mode="normal" in2="shape" result="effect3_innerShadow"/>
<feColorMatrix in="SourceAlpha" type="matrix" values="0 0 0 0 0 0 0 0 0 0 0 0 0 0 0 0 0 0 127 0" result="hardAlpha"/>
<feMorphology radius="1.1905" operator="erode" in="SourceAlpha" result="effect4_innerShadow"/>
<feOffset dy="0.595251"/>
<feGaussianBlur stdDeviation="1.78575"/>
<feComposite in2="hardAlpha" operator="arithmetic" k2="-1" k3="1"/>
<feColorMatrix type="matrix" values="0 0 0 0 1 0 0 0 0 1 0 0 0 0 1 0 0 0 0.18 0"/>
<feBlend mode="normal" in2="effect3_innerShadow" result="effect4_innerShadow"/>
</filter>
<filter id="filter1_b" x="0.331156" y="88.2498" width="31.1722" height="39.5903" filterUnits="userSpaceOnUse" color-interpolation-filters="sRGB">
<feFlood flood-opacity="0" result="BackgroundImageFix"/>
<feGaussianBlur in="BackgroundImage" stdDeviation="1.1905"/>
<feComposite in2="SourceAlpha" operator="in" result="effect1_backgroundBlur"/>
<feBlend mode="normal" in="SourceGraphic" in2="effect1_backgroundBlur" result="shape"/>
</filter>
<filter id="filter2_bdii" x="320.817" y="-0.613482" width="104.429" height="104.429" filterUnits="userSpaceOnUse" color-interpolation-filters="sRGB">
<feFlood flood-opacity="0" result="BackgroundImageFix"/>
<feGaussianBlur in="BackgroundImage" stdDeviation="3.52448"/>
<feComposite in2="SourceAlpha" operator="in" result="effect1_backgroundBlur"/>
<feColorMatrix in="SourceAlpha" type="matrix" values="0 0 0 0 0 0 0 0 0 0 0 0 0 0 0 0 0 0 127 0"/>
<feMorphology radius="2.81959" operator="erode" in="SourceAlpha" result="effect2_dropShadow"/>
<feOffset dy="11.2783"/>
<feGaussianBlur stdDeviation="10.5735"/>
<feColorMatrix type="matrix" values="0 0 0 0 0.901961 0 0 0 0 0.764706 0 0 0 0 0.588235 0 0 0 0.5 0"/>
<feBlend mode="normal" in2="effect1_backgroundBlur" result="effect2_dropShadow"/>
<feBlend mode="normal" in="SourceGraphic" in2="effect2_dropShadow" result="shape"/>
<feColorMatrix in="SourceAlpha" type="matrix" values="0 0 0 0 0 0 0 0 0 0 0 0 0 0 0 0 0 0 127 0" result="hardAlpha"/>
<feMorphology radius="1.40979" operator="erode" in="SourceAlpha" result="effect3_innerShadow"/>
<feOffset dy="-1.40979"/>
<feGaussianBlur stdDeviation="1.40979"/>
<feComposite in2="hardAlpha" operator="arithmetic" k2="-1" k3="1"/>
<feColorMatrix type="matrix" values="0 0 0 0 0.254094 0 0 0 0 0.254094 0 0 0 0 0.254094 0 0 0 0.02 0"/>
<feBlend mode="normal" in2="shape" result="effect3_innerShadow"/>
<feColorMatrix in="SourceAlpha" type="matrix" values="0 0 0 0 0 0 0 0 0 0 0 0 0 0 0 0 0 0 127 0" result="hardAlpha"/>
<feMorphology radius="1.40979" operator="erode" in="SourceAlpha" result="effect4_innerShadow"/>
<feOffset dy="0.704897"/>
<feGaussianBlur stdDeviation="2.11469"/>
<feComposite in2="hardAlpha" operator="arithmetic" k2="-1" k3="1"/>
<feColorMatrix type="matrix" values="0 0 0 0 1 0 0 0 0 1 0 0 0 0 1 0 0 0 0.18 0"/>
<feBlend mode="normal" in2="effect3_innerShadow" result="effect4_innerShadow"/>
</filter>
<filter id="filter3_bdii" x="69.9797" y="42.2175" width="64.1662" height="64.1662" filterUnits="userSpaceOnUse" color-interpolation-filters="sRGB">
<feFlood flood-opacity="0" result="BackgroundImageFix"/>
<feGaussianBlur in="BackgroundImage" stdDeviation="2.08094"/>
<feComposite in2="SourceAlpha" operator="in" result="effect1_backgroundBlur"/>
<feColorMatrix in="SourceAlpha" type="matrix" values="0 0 0 0 0 0 0 0 0 0 0 0 0 0 0 0 0 0 127 0"/>
<feMorphology radius="1.66475" operator="erode" in="SourceAlpha" result="effect2_dropShadow"/>
<feOffset dy="6.659"/>
<feGaussianBlur stdDeviation="6.24281"/>
<feColorMatrix type="matrix" values="0 0 0 0 0.305882 0 0 0 0 0.384314 0 0 0 0 0.917647 0 0 0 0.41 0"/>
<feBlend mode="normal" in2="effect1_backgroundBlur" result="effect2_dropShadow"/>
<feBlend mode="normal" in="SourceGraphic" in2="effect2_dropShadow" result="shape"/>
<feColorMatrix in="SourceAlpha" type="matrix" values="0 0 0 0 0 0 0 0 0 0 0 0 0 0 0 0 0 0 127 0" result="hardAlpha"/>
<feMorphology radius="0.832374" operator="erode" in="SourceAlpha" result="effect3_innerShadow"/>
<feOffset dy="-0.832374"/>
<feGaussianBlur stdDeviation="0.832374"/>
<feComposite in2="hardAlpha" operator="arithmetic" k2="-1" k3="1"/>
<feColorMatrix type="matrix" values="0 0 0 0 0.254094 0 0 0 0 0.254094 0 0 0 0 0.254094 0 0 0 0.02 0"/>
<feBlend mode="normal" in2="shape" result="effect3_innerShadow"/>
<feColorMatrix in="SourceAlpha" type="matrix" values="0 0 0 0 0 0 0 0 0 0 0 0 0 0 0 0 0 0 127 0" result="hardAlpha"/>
<feMorphology radius="0.832374" operator="erode" in="SourceAlpha" result="effect4_innerShadow"/>
<feOffset dy="0.416187"/>
<feGaussianBlur stdDeviation="1.24856"/>
<feComposite in2="hardAlpha" operator="arithmetic" k2="-1" k3="1"/>
<feColorMatrix type="matrix" values="0 0 0 0 1 0 0 0 0 1 0 0 0 0 1 0 0 0 0.18 0"/>
<feBlend mode="normal" in2="effect3_innerShadow" result="effect4_innerShadow"/>
</filter>
<filter id="filter4_b" x="83.9563" y="53.7361" width="36.0563" height="27.3531" filterUnits="userSpaceOnUse" color-interpolation-filters="sRGB">
<feFlood flood-opacity="0" result="BackgroundImageFix"/>
<feGaussianBlur in="BackgroundImage" stdDeviation="0.832374"/>
<feComposite in2="SourceAlpha" operator="in" result="effect1_backgroundBlur"/>
<feBlend mode="normal" in="SourceGraphic" in2="effect1_backgroundBlur" result="shape"/>
</filter>
<filter id="filter5_bdii" x="284.196" y="122.99" width="40.8614" height="40.8614" filterUnits="userSpaceOnUse" color-interpolation-filters="sRGB">
<feFlood flood-opacity="0" result="BackgroundImageFix"/>
<feGaussianBlur in="BackgroundImage" stdDeviation="1.36223"/>
<feComposite in2="SourceAlpha" operator="in" result="effect1_backgroundBlur"/>
<feColorMatrix in="SourceAlpha" type="matrix" values="0 0 0 0 0 0 0 0 0 0 0 0 0 0 0 0 0 0 127 0"/>
<feMorphology radius="1.08979" operator="erode" in="SourceAlpha" result="effect2_dropShadow"/>
<feOffset dy="4.35915"/>
<feGaussianBlur stdDeviation="4.0867"/>
<feColorMatrix type="matrix" values="0 0 0 0 0.745098 0 0 0 0 0.760784 0 0 0 0 0.894118 0 0 0 0.5 0"/>
<feBlend mode="normal" in2="effect1_backgroundBlur" result="effect2_dropShadow"/>
<feBlend mode="normal" in="SourceGraphic" in2="effect2_dropShadow" result="shape"/>
<feColorMatrix in="SourceAlpha" type="matrix" values="0 0 0 0 0 0 0 0 0 0 0 0 0 0 0 0 0 0 127 0" result="hardAlpha"/>
<feMorphology radius="0.544893" operator="erode" in="SourceAlpha" result="effect3_innerShadow"/>
<feOffset dy="-0.544893"/>
<feGaussianBlur stdDeviation="0.544893"/>
<feComposite in2="hardAlpha" operator="arithmetic" k2="-1" k3="1"/>
<feColorMatrix type="matrix" values="0 0 0 0 0.254094 0 0 0 0 0.254094 0 0 0 0 0.254094 0 0 0 0.02 0"/>
<feBlend mode="normal" in2="shape" result="effect3_innerShadow"/>
<feColorMatrix in="SourceAlpha" type="matrix" values="0 0 0 0 0 0 0 0 0 0 0 0 0 0 0 0 0 0 127 0" result="hardAlpha"/>
<feMorphology radius="0.544893" operator="erode" in="SourceAlpha" result="effect4_innerShadow"/>
<feOffset dy="0.272447"/>
<feGaussianBlur stdDeviation="0.81734"/>
<feComposite in2="hardAlpha" operator="arithmetic" k2="-1" k3="1"/>
<feColorMatrix type="matrix" values="0 0 0 0 1 0 0 0 0 1 0 0 0 0 1 0 0 0 0.18 0"/>
<feBlend mode="normal" in2="effect3_innerShadow" result="effect4_innerShadow"/>
</filter>
<filter id="filter6_b" x="297.093" y="131.207" width="15.1608" height="15.5581" filterUnits="userSpaceOnUse" color-interpolation-filters="sRGB">
<feFlood flood-opacity="0" result="BackgroundImageFix"/>
<feGaussianBlur in="BackgroundImage" stdDeviation="0.544893"/>
<feComposite in2="SourceAlpha" operator="in" result="effect1_backgroundBlur"/>
<feBlend mode="normal" in="SourceGraphic" in2="effect1_backgroundBlur" result="shape"/>
</filter>
<filter id="filter7_bdii" x="221.961" y="74.0521" width="51.1035" height="51.1035" filterUnits="userSpaceOnUse" color-interpolation-filters="sRGB">
<feFlood flood-opacity="0" result="BackgroundImageFix"/>
<feGaussianBlur in="BackgroundImage" stdDeviation="1.64865"/>
<feComposite in2="SourceAlpha" operator="in" result="effect1_backgroundBlur"/>
<feColorMatrix in="SourceAlpha" type="matrix" values="0 0 0 0 0 0 0 0 0 0 0 0 0 0 0 0 0 0 127 0"/>
<feMorphology radius="1.31892" operator="erode" in="SourceAlpha" result="effect2_dropShadow"/>
<feOffset dy="5.27569"/>
<feGaussianBlur stdDeviation="4.94596"/>
<feColorMatrix type="matrix" values="0 0 0 0 0.92549 0 0 0 0 0.431373 0 0 0 0 0.592157 0 0 0 0.42 0"/>
<feBlend mode="normal" in2="effect1_backgroundBlur" result="effect2_dropShadow"/>
<feBlend mode="normal" in="SourceGraphic" in2="effect2_dropShadow" result="shape"/>
<feColorMatrix in="SourceAlpha" type="matrix" values="0 0 0 0 0 0 0 0 0 0 0 0 0 0 0 0 0 0 127 0" result="hardAlpha"/>
<feMorphology radius="0.659462" operator="erode" in="SourceAlpha" result="effect3_innerShadow"/>
<feOffset dy="-0.659462"/>
<feGaussianBlur stdDeviation="0.659462"/>
<feComposite in2="hardAlpha" operator="arithmetic" k2="-1" k3="1"/>
<feColorMatrix type="matrix" values="0 0 0 0 0.254094 0 0 0 0 0.254094 0 0 0 0 0.254094 0 0 0 0.02 0"/>
<feBlend mode="normal" in2="shape" result="effect3_innerShadow"/>
<feColorMatrix in="SourceAlpha" type="matrix" values="0 0 0 0 0 0 0 0 0 0 0 0 0 0 0 0 0 0 127 0" result="hardAlpha"/>
<feMorphology radius="0.659462" operator="erode" in="SourceAlpha" result="effect4_innerShadow"/>
<feOffset dy="0.329731"/>
<feGaussianBlur stdDeviation="0.989193"/>
<feComposite in2="hardAlpha" operator="arithmetic" k2="-1" k3="1"/>
<feColorMatrix type="matrix" values="0 0 0 0 1 0 0 0 0 1 0 0 0 0 1 0 0 0 0.18 0"/>
<feBlend mode="normal" in2="effect3_innerShadow" result="effect4_innerShadow"/>
</filter>
<filter id="filter8_b" x="235.158" y="83.2081" width="23.0123" height="23.0123" filterUnits="userSpaceOnUse" color-interpolation-filters="sRGB">
<feFlood flood-opacity="0" result="BackgroundImageFix"/>
<feGaussianBlur in="BackgroundImage" stdDeviation="0.659462"/>
<feComposite in2="SourceAlpha" operator="in" result="effect1_backgroundBlur"/>
<feBlend mode="normal" in="SourceGraphic" in2="effect1_backgroundBlur" result="shape"/>
</filter>
<filter id="filter9_bdii" x="134.468" y="116.044" width="55.4769" height="55.4769" filterUnits="userSpaceOnUse" color-interpolation-filters="sRGB">
<feFlood flood-opacity="0" result="BackgroundImageFix"/>
<feGaussianBlur in="BackgroundImage" stdDeviation="1.79802"/>
<feComposite in2="SourceAlpha" operator="in" result="effect1_backgroundBlur"/>
<feColorMatrix in="SourceAlpha" type="matrix" values="0 0 0 0 0 0 0 0 0 0 0 0 0 0 0 0 0 0 127 0"/>
<feMorphology radius="1.43842" operator="erode" in="SourceAlpha" result="effect2_dropShadow"/>
<feOffset dy="5.75366"/>
<feGaussianBlur stdDeviation="5.39406"/>
<feColorMatrix type="matrix" values="0 0 0 0 0.901961 0 0 0 0 0.764706 0 0 0 0 0.588235 0 0 0 0.5 0"/>
<feBlend mode="normal" in2="effect1_backgroundBlur" result="effect2_dropShadow"/>
<feBlend mode="normal" in="SourceGraphic" in2="effect2_dropShadow" result="shape"/>
<feColorMatrix in="SourceAlpha" type="matrix" values="0 0 0 0 0 0 0 0 0 0 0 0 0 0 0 0 0 0 127 0" result="hardAlpha"/>
<feMorphology radius="0.719208" operator="erode" in="SourceAlpha" result="effect3_innerShadow"/>
<feOffset dy="-0.719208"/>
<feGaussianBlur stdDeviation="0.719208"/>
<feComposite in2="hardAlpha" operator="arithmetic" k2="-1" k3="1"/>
<feColorMatrix type="matrix" values="0 0 0 0 0.254094 0 0 0 0 0.254094 0 0 0 0 0.254094 0 0 0 0.02 0"/>
<feBlend mode="normal" in2="shape" result="effect3_innerShadow"/>
<feColorMatrix in="SourceAlpha" type="matrix" values="0 0 0 0 0 0 0 0 0 0 0 0 0 0 0 0 0 0 127 0" result="hardAlpha"/>
<feMorphology radius="0.719208" operator="erode" in="SourceAlpha" result="effect4_innerShadow"/>
<feOffset dy="0.359604"/>
<feGaussianBlur stdDeviation="1.07881"/>
<feComposite in2="hardAlpha" operator="arithmetic" k2="-1" k3="1"/>
<feColorMatrix type="matrix" values="0 0 0 0 1 0 0 0 0 1 0 0 0 0 1 0 0 0 0.18 0"/>
<feBlend mode="normal" in2="effect3_innerShadow" result="effect4_innerShadow"/>
</filter>
<filter id="filter10_b" x="151.478" y="124.93" width="21.2999" height="25.5236" filterUnits="userSpaceOnUse" color-interpolation-filters="sRGB">
<feFlood flood-opacity="0" result="BackgroundImageFix"/>
<feGaussianBlur in="BackgroundImage" stdDeviation="0.719208"/>
<feComposite in2="SourceAlpha" operator="in" result="effect1_backgroundBlur"/>
<feBlend mode="normal" in="SourceGraphic" in2="effect1_backgroundBlur" result="shape"/>
</filter>
<linearGradient id="paint0_linear" x1="71.3004" y1="170.116" x2="-36.2427" y2="83.0852" gradientUnits="userSpaceOnUse">
<stop stop-color="white" stop-opacity="0"/>
<stop offset="1" stop-color="white"/>
</linearGradient>
<linearGradient id="paint1_linear" x1="-10.7038" y1="120.332" x2="17.54" y2="190.61" gradientUnits="userSpaceOnUse">
<stop stop-color="white" stop-opacity="0.45"/>
<stop offset="1" stop-color="white" stop-opacity="0.22"/>
</linearGradient>
<radialGradient id="paint2_radial" cx="0" cy="0" r="1" gradientUnits="userSpaceOnUse" gradientTransform="translate(24.8521 97.7564) rotate(107.526) scale(47.4411)">
<stop stop-color="#95DD7D"/>
<stop offset="1" stop-color="#73E2B2"/>
</radialGradient>
<linearGradient id="paint3_linear" x1="-6.69614" y1="89.4229" x2="32.5904" y2="145.376" gradientUnits="userSpaceOnUse">
<stop stop-color="white" stop-opacity="0.67"/>
<stop offset="1" stop-color="white" stop-opacity="0.13"/>
</linearGradient>
<linearGradient id="paint4_linear" x1="11.9116" y1="93.0958" x2="19.9229" y2="122.994" gradientUnits="userSpaceOnUse">
<stop stop-color="white" stop-opacity="0.63"/>
<stop offset="1" stop-color="white" stop-opacity="0.25"/>
</linearGradient>
<radialGradient id="paint5_radial" cx="0" cy="0" r="1" gradientUnits="userSpaceOnUse" gradientTransform="translate(426.774 117.718) rotate(-106.869) scale(114.172 115.617)">
<stop stop-color="white" stop-opacity="0"/>
<stop offset="1" stop-color="white"/>
</radialGradient>
<linearGradient id="paint6_linear" x1="341.074" y1="27.4064" x2="374.52" y2="110.629" gradientUnits="userSpaceOnUse">
<stop stop-color="white" stop-opacity="0.45"/>
<stop offset="1" stop-color="white" stop-opacity="0.22"/>
</linearGradient>
<radialGradient id="paint7_radial" cx="0" cy="0" r="1" gradientUnits="userSpaceOnUse" gradientTransform="translate(397.129 14.1894) rotate(107.526) scale(56.1799)">
<stop stop-color="#F8EFD4"/>
<stop offset="1" stop-color="#F2C94C"/>
</radialGradient>
<linearGradient id="paint8_linear" x1="359.769" y1="4.3208" x2="406.293" y2="70.5811" gradientUnits="userSpaceOnUse">
<stop stop-color="white" stop-opacity="0.67"/>
<stop offset="1" stop-color="white" stop-opacity="0.13"/>
</linearGradient>
<radialGradient id="paint9_radial" cx="0" cy="0" r="1" gradientUnits="userSpaceOnUse" gradientTransform="translate(131.705 95.5717) rotate(-171.456) scale(89.6427 90.7774)">
<stop stop-color="white" stop-opacity="0"/>
<stop offset="1" stop-color="white"/>
</radialGradient>
<linearGradient id="paint10_linear" x1="84.2392" y1="78.7681" x2="103.987" y2="127.905" gradientUnits="userSpaceOnUse">
<stop stop-color="white" stop-opacity="0.45"/>
<stop offset="1" stop-color="white" stop-opacity="0.22"/>
</linearGradient>
<radialGradient id="paint11_radial" cx="0" cy="0" r="1" gradientUnits="userSpaceOnUse" gradientTransform="translate(107.437 62.1106) rotate(107.526) scale(33.1699)">
<stop stop-color="#8A98F0"/>
<stop offset="1" stop-color="#4B5FE9"/>
</radialGradient>
<linearGradient id="paint12_linear" x1="85.3786" y1="56.284" x2="112.847" y2="95.4056" gradientUnits="userSpaceOnUse">
<stop stop-color="white" stop-opacity="0.67"/>
<stop offset="1" stop-color="white" stop-opacity="0.13"/>
</linearGradient>
<linearGradient id="paint13_linear" x1="99.4637" y1="60.3222" x2="104.505" y2="74.5032" gradientUnits="userSpaceOnUse">
<stop stop-color="white" stop-opacity="0.63"/>
<stop offset="1" stop-color="white" stop-opacity="0.25"/>
</linearGradient>
<radialGradient id="paint14_radial" cx="0" cy="0" r="1" gradientUnits="userSpaceOnUse" gradientTransform="translate(302.548 123.823) rotate(90) scale(53.3995 54.0755)">
<stop stop-color="white" stop-opacity="0"/>
<stop offset="1" stop-color="white"/>
</radialGradient>
<linearGradient id="paint15_linear" x1="292.442" y1="144.685" x2="305.369" y2="176.851" gradientUnits="userSpaceOnUse">
<stop stop-color="white" stop-opacity="0.45"/>
<stop offset="1" stop-color="white" stop-opacity="0.22"/>
</linearGradient>
<radialGradient id="paint16_radial" cx="0" cy="0" r="1" gradientUnits="userSpaceOnUse" gradientTransform="translate(308.716 134.352) rotate(107.526) scale(21.7138)">
<stop stop-color="#DBDEEF"/>
<stop offset="1" stop-color="#B5B8DF"/>
</radialGradient>
<linearGradient id="paint17_linear" x1="294.276" y1="130.538" x2="312.258" y2="156.148" gradientUnits="userSpaceOnUse">
<stop stop-color="white" stop-opacity="0.67"/>
<stop offset="1" stop-color="white" stop-opacity="0.13"/>
</linearGradient>
<linearGradient id="paint18_linear" x1="303.245" y1="133.653" x2="306.102" y2="144.319" gradientUnits="userSpaceOnUse">
<stop stop-color="white" stop-opacity="0.74"/>
<stop offset="1" stop-color="white" stop-opacity="0.46"/>
</linearGradient>
<linearGradient id="paint19_linear" x1="256.156" y1="133.793" x2="257.178" y2="53.8307" gradientUnits="userSpaceOnUse">
<stop stop-color="white" stop-opacity="0"/>
<stop offset="1" stop-color="white"/>
</linearGradient>
<linearGradient id="paint20_linear" x1="233.545" y1="85.0506" x2="249.19" y2="123.98" gradientUnits="userSpaceOnUse">
<stop stop-color="white" stop-opacity="0.45"/>
<stop offset="1" stop-color="white" stop-opacity="0.22"/>
</linearGradient>
<radialGradient id="paint21_radial" cx="0" cy="0" r="1" gradientUnits="userSpaceOnUse" gradientTransform="translate(260.893 80.9765) rotate(107.526) scale(26.2794)">
<stop stop-color="#EF84A9"/>
<stop offset="1" stop-color="#E46285"/>
</radialGradient>
<linearGradient id="paint22_linear" x1="243.418" y1="76.3602" x2="265.18" y2="107.355" gradientUnits="userSpaceOnUse">
<stop stop-color="white" stop-opacity="0.67"/>
<stop offset="1" stop-color="white" stop-opacity="0.13"/>
</linearGradient>
<linearGradient id="paint23_linear" x1="249.441" y1="87.304" x2="243.887" y2="102.125" gradientUnits="userSpaceOnUse">
<stop stop-color="white" stop-opacity="0.63"/>
<stop offset="1" stop-color="white" stop-opacity="0.25"/>
</linearGradient>
<linearGradient id="paint24_linear" x1="171.811" y1="188.357" x2="175.206" y2="119.11" gradientUnits="userSpaceOnUse">
<stop stop-color="white" stop-opacity="0"/>
<stop offset="1" stop-color="white"/>
</linearGradient>
<linearGradient id="paint25_linear" x1="146.825" y1="128.316" x2="163.887" y2="170.772" gradientUnits="userSpaceOnUse">
<stop stop-color="white" stop-opacity="0.45"/>
<stop offset="1" stop-color="white" stop-opacity="0.22"/>
</linearGradient>
<radialGradient id="paint26_radial" cx="0" cy="0" r="1" gradientUnits="userSpaceOnUse" gradientTransform="translate(176.522 123.596) rotate(107.526) scale(28.6602)">
<stop stop-color="#F7DCAF"/>
<stop offset="1" stop-color="#E9BC84"/>
</radialGradient>
<linearGradient id="paint27_linear" x1="157.463" y1="118.561" x2="181.197" y2="152.364" gradientUnits="userSpaceOnUse">
<stop stop-color="white" stop-opacity="0.67"/>
<stop offset="1" stop-color="white" stop-opacity="0.13"/>
</linearGradient>
<linearGradient id="paint28_linear" x1="165.421" y1="128.485" x2="158.834" y2="146.898" gradientUnits="userSpaceOnUse">
<stop stop-color="white" stop-opacity="0.63"/>
<stop offset="1" stop-color="white" stop-opacity="0.25"/>
</linearGradient>
</defs>
</svg>
