<svg width="1621" height="592" viewBox="0 0 1621 592" fill="none" xmlns="http://www.w3.org/2000/svg">
<path d="M565 0H1561V520L761.44 443.464C715.136 439.031 676.391 406.439 664.096 361.577L565 0Z" fill="url(#paint0_radial)"/>
<mask id="mask0" mask-type="alpha" maskUnits="userSpaceOnUse" x="0" y="203" width="86" height="85">
<rect x="0.981232" y="221.592" width="68.7981" height="67.9381" transform="rotate(-15 0.981232 221.592)" fill="url(#paint1_radial)"/>
</mask>
<g mask="url(#mask0)">
<rect x="5.95941" y="238.509" width="67.9381" height="49.8786" rx="21.0694" transform="rotate(-15 5.95941 238.509)" fill="#F6F3FE" stroke="url(#paint2_linear)" stroke-width="0.859976"/>
<path d="M31.3015 264.081L33.644 263.454L33.8898 264.371L30.4109 265.303L28.5546 258.375L29.691 258.071L31.3015 264.081ZM33.7214 256.991L35.5777 263.919L34.4414 264.223L32.585 257.295L33.7214 256.991ZM36.7734 258.705L37.588 261.745C37.6432 261.951 37.7298 262.088 37.8478 262.156C37.9706 262.216 38.1483 262.215 38.3809 262.152L39.0787 261.965L39.3324 262.912L38.4353 263.153C37.9236 263.29 37.4995 263.275 37.1629 263.109C36.8263 262.943 36.5859 262.591 36.4417 262.052L35.6271 259.012L34.9791 259.186L34.7307 258.259L35.3787 258.085L35.0128 256.719L36.1591 256.412L36.525 257.778L37.8607 257.42L38.1091 258.347L36.7734 258.705ZM44.243 258.509C44.2982 258.715 44.3348 258.905 44.3527 259.078L40.1562 260.202C40.3069 260.632 40.5641 260.941 40.9277 261.128C41.2913 261.316 41.6858 261.352 42.1111 261.238C42.7225 261.075 43.0859 260.703 43.2013 260.124L44.4274 259.795C44.3966 260.345 44.2055 260.841 43.8541 261.284C43.5077 261.719 43.0121 262.023 42.3675 262.195C41.8425 262.336 41.3395 262.346 40.8586 262.226C40.3824 262.097 39.9678 261.852 39.6146 261.491C39.2663 261.121 39.0164 260.654 38.8651 260.089C38.7137 259.524 38.694 258.999 38.806 258.513C38.9229 258.019 39.1561 257.6 39.5058 257.257C39.8622 256.912 40.3095 256.668 40.8477 256.524C41.3661 256.385 41.8582 256.374 42.3241 256.491C42.79 256.608 43.1912 256.843 43.5275 257.194C43.8621 257.539 44.1006 257.977 44.243 258.509ZM42.9607 258.468C42.8418 258.051 42.6024 257.756 42.2423 257.581C41.8823 257.407 41.4863 257.378 41.0543 257.494C40.6622 257.599 40.3605 257.815 40.149 258.142C39.9358 258.463 39.8596 258.843 39.9204 259.283L42.9607 258.468ZM44.6185 258.547C44.4672 257.982 44.4475 257.457 44.5595 256.971C44.6763 256.477 44.9063 256.059 45.2493 255.718C45.5924 255.377 46.0264 255.136 46.5514 254.995C47.2159 254.817 47.8069 254.83 48.3243 255.033C48.8466 255.228 49.2625 255.597 49.572 256.141L48.346 256.469C48.1733 256.224 47.9568 256.054 47.6965 255.96C47.4363 255.866 47.14 255.863 46.8078 255.952C46.3426 256.077 46.015 256.343 45.8249 256.75C45.6397 257.148 45.6263 257.643 45.7848 258.235C45.9433 258.826 46.2032 259.252 46.5647 259.511C46.9329 259.768 47.3495 259.835 47.8147 259.71C48.4726 259.534 48.8304 259.128 48.8882 258.493L50.1142 258.164C50.1043 258.765 49.9246 259.291 49.575 259.741C49.2237 260.184 48.7224 260.493 48.0711 260.667C47.5461 260.808 47.0498 260.816 46.5821 260.692C46.1126 260.562 45.7046 260.315 45.3581 259.952C45.0164 259.58 44.7699 259.112 44.6185 258.547ZM53.7191 259.154C53.2008 259.293 52.7011 259.302 52.2201 259.181C51.7374 259.054 51.3194 258.81 50.9662 258.449C50.6112 258.081 50.3581 257.615 50.2067 257.05C50.0571 256.492 50.0474 255.964 50.1776 255.466C50.3077 254.968 50.5543 254.546 50.9173 254.199C51.2802 253.853 51.7242 253.609 52.2492 253.468C52.7742 253.328 53.2805 253.317 53.7681 253.435C54.2558 253.554 54.6804 253.796 55.042 254.162C55.4036 254.529 55.6592 254.991 55.8088 255.549C55.9584 256.107 55.9648 256.636 55.828 257.136C55.6912 257.635 55.4355 258.063 55.0611 258.42C54.6914 258.769 54.2441 259.013 53.7191 259.154ZM53.4547 258.167C53.7471 258.089 54.0009 257.946 54.216 257.739C54.4378 257.53 54.591 257.264 54.6757 256.942C54.7604 256.62 54.7494 256.26 54.6425 255.861C54.5357 255.463 54.3693 255.148 54.1435 254.916C53.9159 254.678 53.6571 254.523 53.3672 254.451C53.0772 254.379 52.7861 254.382 52.4937 254.461C52.2013 254.539 51.9475 254.682 51.7324 254.889C51.5239 255.094 51.384 255.356 51.3126 255.675C51.2394 255.986 51.2562 256.341 51.363 256.74C51.5215 257.332 51.7939 257.75 52.1802 257.996C52.5713 258.233 52.9962 258.29 53.4547 258.167ZM56.1821 251.731C55.9761 251.786 55.7846 251.763 55.6076 251.66C55.4307 251.558 55.3146 251.404 55.2594 251.198C55.2042 250.992 55.2277 250.801 55.3299 250.624C55.432 250.447 55.5861 250.331 55.7921 250.276C55.9915 250.222 56.1796 250.247 56.3566 250.349C56.5335 250.451 56.6496 250.605 56.7048 250.811C56.76 251.017 56.7365 251.208 56.6344 251.385C56.5322 251.562 56.3814 251.678 56.1821 251.731ZM56.9353 252.309L58.407 257.801L57.2706 258.106L55.7989 252.614L56.9353 252.309ZM60.7756 251.184C61.2075 251.068 61.617 251.055 62.004 251.143C62.3976 251.23 62.738 251.424 63.0251 251.724C63.3122 252.025 63.5225 252.424 63.656 252.923L64.5241 256.162L63.3977 256.464L62.575 253.394C62.4433 252.902 62.2197 252.56 61.9044 252.366C61.5873 252.167 61.2161 252.124 60.7908 252.237C60.3655 252.351 60.0622 252.575 59.8809 252.909C59.7045 253.234 59.6821 253.642 59.8139 254.134L60.6365 257.204L59.5002 257.509L58.0285 252.016L59.1648 251.712L59.3331 252.34C59.4586 252.064 59.6474 251.824 59.8993 251.622C60.1579 251.417 60.45 251.271 60.7756 251.184Z" fill="#A1A6DA"/>
<g filter="url(#filter0_bdii)">
<rect x="17.5947" y="217.14" width="34.3991" height="34.3991" rx="17.1995" transform="rotate(-15 17.5947 217.14)" fill="url(#paint3_radial)" fill-opacity="0.5"/>
<rect x="18.1213" y="217.444" width="33.5391" height="33.5391" rx="16.7695" transform="rotate(-15 18.1213 217.444)" stroke="url(#paint4_linear)" stroke-width="0.859976"/>
</g>
<g filter="url(#filter1_b)">
<path d="M48.9773 235.46L48.4203 233.381L38.2553 236.105L37.9476 231.331L41.9193 228.36L40.6286 226.636L37.7818 228.767L37.2796 220.989L35.1332 221.127L35.7243 230.305L31.3489 233.578L32.6397 235.302L35.8901 232.87L36.2762 238.863L48.9773 235.46Z" fill="url(#paint5_linear)"/>
</g>
</g>
<mask id="mask1" mask-type="alpha" maskUnits="userSpaceOnUse" x="388" y="81" width="130" height="129">
<rect x="415.733" y="81.2733" width="105.594" height="104.274" transform="rotate(14.8622 415.733 81.2733)" fill="url(#paint6_linear)"/>
</mask>
<g mask="url(#mask1)">
<rect x="409.431" y="107.596" width="104.274" height="76.5553" rx="32.338" transform="rotate(14.8622 409.431 107.596)" fill="#E1F6EB" stroke="url(#paint7_linear)" stroke-width="1.31992"/>
<path d="M431.048 159.231C431.593 159.485 431.998 159.915 432.263 160.521C432.528 161.126 432.577 161.746 432.409 162.378C432.266 162.919 431.993 163.371 431.59 163.734C431.201 164.09 430.707 164.325 430.109 164.439C429.513 164.543 428.863 164.502 428.159 164.315L423.903 163.186L426.726 152.546L430.783 153.622C431.508 153.815 432.098 154.102 432.554 154.485C433.009 154.868 433.314 155.304 433.468 155.793C433.625 156.272 433.636 156.766 433.501 157.277C433.338 157.889 433.04 158.356 432.605 158.678C432.17 158.999 431.651 159.184 431.048 159.231ZM427.285 157.479L429.444 158.052C430.016 158.204 430.493 158.194 430.877 158.023C431.275 157.844 431.538 157.51 431.668 157.02C431.795 156.54 431.731 156.124 431.475 155.772C431.231 155.413 430.824 155.157 430.252 155.005L428.094 154.433L427.285 157.479ZM428.384 162.851C428.976 163.008 429.478 162.988 429.891 162.792C430.303 162.595 430.577 162.242 430.713 161.732C430.851 161.211 430.782 160.75 430.506 160.349C430.23 159.948 429.796 159.669 429.204 159.512L426.908 158.903L426.026 162.225L428.384 162.851ZM436.357 156.265C436.04 156.181 435.803 156.003 435.646 155.732C435.488 155.461 435.452 155.167 435.536 154.851C435.62 154.534 435.797 154.297 436.068 154.14C436.34 153.982 436.633 153.946 436.95 154.03C437.256 154.111 437.488 154.287 437.645 154.558C437.803 154.829 437.839 155.123 437.755 155.44C437.671 155.756 437.494 155.993 437.223 156.15C436.951 156.308 436.663 156.346 436.357 156.265ZM436.917 157.61L434.679 166.045L432.934 165.582L435.172 157.147L436.917 157.61ZM440.255 160.019L439.015 164.689C438.932 165.005 438.942 165.254 439.047 165.434C439.165 165.608 439.402 165.742 439.76 165.837L440.831 166.121L440.445 167.575L439.068 167.21C438.282 167.001 437.728 166.658 437.407 166.179C437.086 165.701 437.036 165.048 437.255 164.222L438.494 159.552L437.499 159.288L437.877 157.864L438.872 158.128L439.428 156.031L441.189 156.498L440.632 158.596L442.684 159.14L442.306 160.564L440.255 160.019ZM441.981 163.46C442.211 162.593 442.587 161.878 443.107 161.317C443.64 160.749 444.265 160.368 444.983 160.176C445.7 159.984 446.462 159.995 447.268 160.209C448.289 160.48 449.066 160.948 449.599 161.614C450.146 162.273 450.417 163.082 450.413 164.043L448.53 163.543C448.488 163.084 448.33 162.692 448.056 162.368C447.781 162.044 447.389 161.814 446.878 161.679C446.164 161.489 445.525 161.593 444.961 161.989C444.409 162.378 444.013 163.027 443.772 163.935C443.531 164.844 443.552 165.609 443.835 166.23C444.128 166.854 444.632 167.261 445.347 167.45C446.357 167.719 447.143 167.452 447.706 166.651L449.589 167.15C449.116 167.943 448.475 168.505 447.666 168.836C446.86 169.158 445.957 169.185 444.957 168.92C444.15 168.706 443.483 168.338 442.956 167.815C442.431 167.283 442.076 166.643 441.892 165.895C441.721 165.139 441.751 164.328 441.981 163.46ZM453.631 171.222C452.835 171.011 452.163 170.641 451.615 170.113C451.069 169.575 450.699 168.931 450.505 168.18C450.314 167.419 450.333 166.605 450.564 165.738C450.791 164.88 451.182 164.17 451.735 163.607C452.289 163.044 452.94 162.67 453.688 162.486C454.436 162.302 455.213 162.317 456.019 162.531C456.825 162.745 457.508 163.118 458.066 163.648C458.625 164.179 459.005 164.826 459.206 165.589C459.408 166.353 459.395 167.163 459.167 168.021C458.94 168.878 458.544 169.587 457.98 170.147C457.416 170.708 456.749 171.083 455.978 171.271C455.219 171.452 454.437 171.436 453.631 171.222ZM454.033 169.706C454.482 169.826 454.929 169.829 455.374 169.718C455.829 169.609 456.236 169.373 456.594 169.009C456.953 168.646 457.214 168.158 457.376 167.545C457.539 166.933 457.558 166.387 457.434 165.906C457.313 165.415 457.087 165.011 456.756 164.694C456.425 164.376 456.035 164.158 455.586 164.039C455.137 163.92 454.69 163.916 454.246 164.027C453.811 164.141 453.425 164.383 453.086 164.752C452.751 165.111 452.502 165.596 452.339 166.209C452.098 167.117 452.141 167.882 452.468 168.504C452.807 169.119 453.329 169.52 454.033 169.706ZM462.582 163.224C462.265 163.14 462.029 162.963 461.871 162.691C461.714 162.42 461.677 162.126 461.761 161.81C461.845 161.494 462.022 161.257 462.294 161.099C462.565 160.942 462.859 160.905 463.175 160.989C463.481 161.07 463.713 161.247 463.87 161.518C464.028 161.789 464.065 162.083 463.981 162.399C463.897 162.716 463.719 162.952 463.448 163.11C463.177 163.267 462.888 163.305 462.582 163.224ZM463.143 164.569L460.904 173.005L459.159 172.541L461.397 164.106L463.143 164.569ZM469.114 166.006C469.777 166.182 470.333 166.477 470.78 166.891C471.238 167.307 471.543 167.825 471.695 168.445C471.848 169.064 471.822 169.757 471.619 170.522L470.299 175.498L468.569 175.039L469.82 170.323C470.021 169.568 469.985 168.941 469.713 168.443C469.444 167.935 468.982 167.594 468.329 167.42C467.676 167.247 467.101 167.313 466.605 167.618C466.122 167.916 465.78 168.443 465.58 169.198L464.328 173.913L462.583 173.45L464.822 165.015L466.567 165.478L466.311 166.442C466.689 166.171 467.123 165.997 467.613 165.919C468.114 165.845 468.614 165.874 469.114 166.006Z" fill="#7AE4B0"/>
<g filter="url(#filter2_bdii)">
<rect x="441.249" y="88.0443" width="52.7968" height="52.7968" rx="26.3984" transform="rotate(14.8622 441.249 88.0443)" fill="url(#paint8_radial)" fill-opacity="0.5"/>
<rect x="441.717" y="88.8515" width="51.4769" height="51.4769" rx="25.7384" transform="rotate(14.8622 441.717 88.8515)" stroke="url(#paint9_linear)" stroke-width="1.31992"/>
</g>
<g filter="url(#filter3_b)">
<path d="M459.965 138.076L461.186 133.476C464.862 134.039 468.336 131.42 468.944 127.624C469.242 125.764 468.797 123.871 467.711 122.379C469.613 121.519 471.045 119.819 471.598 117.762C472.502 114.314 470.758 110.761 467.547 109.506L468.767 104.906L465.851 104.132L464.651 108.656L461.735 107.882L462.936 103.359L460.02 102.585L458.819 107.108L452.988 105.56L446.586 129.684L452.418 131.232L451.217 135.755L454.133 136.528L455.334 132.005L458.249 132.779L457.049 137.302L459.965 138.076ZM455.103 109.35L466.038 112.251C468.051 112.786 469.235 114.906 468.682 116.988C468.13 119.07 466.05 120.324 464.037 119.79L453.103 116.888L455.103 109.35ZM450.302 127.442L452.303 119.904L463.237 122.805C465.25 123.34 466.434 125.46 465.882 127.542C465.329 129.624 463.249 130.878 461.236 130.344L450.302 127.442Z" fill="url(#paint10_linear)"/>
</g>
</g>
<mask id="mask2" mask-type="alpha" maskUnits="userSpaceOnUse" x="464" y="419" width="133" height="133">
<rect x="507.545" y="419.412" width="99.1164" height="97.8774" transform="rotate(26.2118 507.545 419.412)" fill="url(#paint11_radial)"/>
</mask>
<g mask="url(#mask2)">
<rect x="496.882" y="442.473" width="97.8774" height="71.8594" rx="30.3544" transform="rotate(26.2118 496.882 442.473)" fill="#F9F2FF" stroke="url(#paint12_linear)" stroke-width="1.23895"/>
<path d="M511.897 490.863C512.884 491.349 513.653 491.965 514.202 492.711C514.765 493.452 515.072 494.277 515.122 495.185C515.185 496.089 514.985 497.012 514.521 497.955C514.057 498.898 513.449 499.615 512.699 500.107C511.957 500.604 511.121 500.855 510.19 500.861C509.272 500.862 508.32 500.62 507.333 500.134L504.305 498.643L508.869 489.373L511.897 490.863ZM507.944 498.893C509.029 499.427 510.005 499.543 510.872 499.241C511.738 498.938 512.435 498.254 512.96 497.187C513.49 496.111 513.614 495.128 513.334 494.239C513.054 493.35 512.371 492.638 511.286 492.104L509.779 491.362L506.437 498.151L507.944 498.893ZM514.547 499.078C514.911 498.34 515.384 497.761 515.966 497.341C516.557 496.925 517.192 496.691 517.87 496.638C518.561 496.58 519.227 496.709 519.867 497.024C520.445 497.309 520.891 497.672 521.204 498.113C521.53 498.55 521.739 499.001 521.83 499.466L522.356 498.399L523.89 499.154L520.271 506.503L518.737 505.748L519.276 504.654C518.847 504.874 518.354 504.99 517.795 505.003C517.237 505.015 516.673 504.881 516.104 504.601C515.473 504.29 514.973 503.845 514.606 503.267C514.244 502.68 514.049 502.02 514.022 501.289C514.009 500.553 514.184 499.816 514.547 499.078ZM520.55 502.067C520.799 501.56 520.909 501.067 520.88 500.589C520.859 500.114 520.728 499.696 520.486 499.334C520.245 498.972 519.928 498.695 519.537 498.502C519.146 498.31 518.733 498.228 518.299 498.257C517.869 498.278 517.455 498.422 517.058 498.691C516.674 498.954 516.357 499.34 516.108 499.847C515.858 500.354 515.742 500.849 515.758 501.332C515.783 501.819 515.914 502.248 516.152 502.619C516.402 502.985 516.718 503.263 517.101 503.451C517.492 503.644 517.905 503.725 518.339 503.696C518.773 503.667 519.185 503.516 519.573 503.243C519.975 502.966 520.3 502.574 520.55 502.067ZM524.344 508.657C523.766 508.373 523.296 508.014 522.934 507.582C522.586 507.146 522.366 506.684 522.274 506.197C522.187 505.701 522.244 505.226 522.445 504.773L524.019 505.548C523.892 505.872 523.91 506.207 524.071 506.551C524.246 506.891 524.538 507.162 524.947 507.364C525.374 507.574 525.743 507.656 526.053 507.61C526.376 507.559 526.601 507.404 526.728 507.147C526.864 506.871 526.831 506.601 526.63 506.336C526.438 506.076 526.096 505.725 525.606 505.285C525.129 504.863 524.752 504.495 524.476 504.182C524.199 503.869 524.004 503.502 523.89 503.082C523.786 502.666 523.852 502.217 524.088 501.737C524.281 501.346 524.572 501.047 524.96 500.841C525.354 500.626 525.809 500.53 526.328 500.553C526.856 500.581 527.4 500.733 527.96 501.009C528.796 501.42 529.362 501.964 529.659 502.64C529.969 503.312 529.962 504.022 529.639 504.768L528.118 504.02C528.254 503.677 528.249 503.349 528.106 503.036C527.962 502.722 527.685 502.464 527.276 502.263C526.876 502.066 526.532 501.99 526.244 502.036C525.956 502.083 525.751 502.23 525.629 502.479C525.532 502.675 525.523 502.874 525.599 503.078C525.676 503.281 525.797 503.473 525.962 503.654C526.131 503.826 526.388 504.068 526.731 504.381C527.194 504.786 527.558 505.147 527.821 505.464C528.098 505.777 528.291 506.137 528.4 506.545C528.509 506.952 528.452 507.393 528.228 507.869C528.023 508.287 527.723 508.603 527.33 508.818C526.937 509.034 526.481 509.13 525.962 509.106C525.452 509.087 524.913 508.938 524.344 508.657ZM535.806 504.871C536.366 505.147 536.805 505.512 537.122 505.967C537.449 506.426 537.62 506.952 537.637 507.546C537.663 508.144 537.512 508.777 537.184 509.444L535.049 513.779L533.542 513.037L535.565 508.928C535.889 508.27 535.971 507.687 535.813 507.178C535.659 506.661 535.298 506.262 534.729 505.981C534.16 505.701 533.618 505.656 533.105 505.845C532.606 506.03 532.194 506.451 531.87 507.109L529.847 511.218L528.327 510.469L533.186 500.599L534.707 501.347L533.045 504.722C533.456 504.538 533.899 504.457 534.374 504.481C534.857 504.509 535.334 504.639 535.806 504.871Z" fill="#AE9CE5"/>
<g filter="url(#filter4_bdii)">
<rect x="529.776" y="430.357" width="49.5582" height="49.5582" rx="24.7791" transform="rotate(26.2118 529.776 430.357)" fill="url(#paint13_radial)" fill-opacity="0.5"/>
<rect x="530.058" y="431.186" width="48.3192" height="48.3192" rx="24.1596" transform="rotate(26.2118 530.058 431.186)" stroke="url(#paint14_linear)" stroke-width="1.23895"/>
</g>
<g filter="url(#filter5_b)">
<path d="M547.21 472.347L553.685 465.271L553.836 465.079C553.906 464.972 553.969 464.862 554.026 464.747C554.782 463.211 554.15 461.353 552.613 460.596L538.89 453.84L537.521 456.622L551.226 463.369L544.859 470.334L544.702 470.525L530.631 463.597L529.262 466.379L543.332 473.306C544.686 473.973 546.323 473.568 547.21 472.347Z" fill="url(#paint15_linear)"/>
</g>
<g filter="url(#filter6_b)">
<path d="M538.933 460.773L530.588 456.665L529.219 459.446L537.563 463.554L538.933 460.773Z" fill="url(#paint16_linear)"/>
</g>
</g>
<mask id="mask3" mask-type="alpha" maskUnits="userSpaceOnUse" x="820" y="337" width="89" height="89">
<rect x="843.647" y="337.826" width="68.8765" height="68.0156" transform="rotate(19.6846 843.647 337.826)" fill="url(#paint17_linear)"/>
</mask>
<g mask="url(#mask3)">
<rect x="838.107" y="354.589" width="68.0156" height="49.9355" rx="21.0934" transform="rotate(19.6846 838.107 354.589)" fill="#F8F3EA" stroke="url(#paint18_linear)" stroke-width="0.860957"/>
<path d="M841.32 383.355L840.61 385.339L842.945 386.174L842.621 387.079L840.287 386.244L839.545 388.316L842.172 389.255L841.848 390.16L838.113 388.824L840.535 382.053L844.27 383.39L843.947 384.294L841.32 383.355ZM845.713 386.517L844.651 389.484C844.579 389.685 844.573 389.847 844.631 389.97C844.698 390.09 844.845 390.19 845.072 390.271L845.753 390.514L845.422 391.439L844.547 391.125C844.048 390.947 843.707 390.693 843.524 390.365C843.342 390.036 843.345 389.609 843.533 389.084L844.594 386.117L843.962 385.891L844.285 384.986L844.918 385.212L845.395 383.879L846.513 384.28L846.036 385.612L847.34 386.079L847.016 386.983L845.713 386.517ZM850.777 387.209C851.185 387.356 851.517 387.573 851.772 387.862C852.034 388.153 852.194 388.503 852.253 388.911C852.318 389.322 852.263 389.771 852.089 390.258L850.958 393.419L849.859 393.026L850.931 390.03C851.103 389.55 851.114 389.14 850.964 388.802C850.817 388.456 850.536 388.21 850.121 388.061C849.706 387.913 849.329 387.924 848.989 388.095C848.659 388.262 848.408 388.586 848.236 389.066L847.164 392.062L846.055 391.665L848.631 384.467L849.74 384.863L848.859 387.324C849.128 387.165 849.428 387.074 849.757 387.053C850.093 387.034 850.433 387.086 850.777 387.209ZM857.902 392.732C857.83 392.933 857.752 393.11 857.668 393.263L853.573 391.798C853.452 392.237 853.488 392.638 853.68 392.999C853.873 393.361 854.177 393.616 854.592 393.764C855.189 393.978 855.699 393.879 856.124 393.468L857.321 393.896C856.982 394.331 856.542 394.63 856.001 394.795C855.468 394.956 854.887 394.923 854.258 394.698C853.745 394.515 853.326 394.237 852.998 393.864C852.68 393.486 852.478 393.048 852.393 392.55C852.317 392.047 852.377 391.52 852.574 390.969C852.772 390.418 853.055 389.974 853.424 389.638C853.802 389.297 854.232 389.086 854.715 389.002C855.205 388.922 855.713 388.975 856.238 389.163C856.744 389.344 857.155 389.616 857.472 389.978C857.788 390.34 857.985 390.761 858.062 391.242C858.141 391.717 858.087 392.213 857.902 392.732ZM856.87 391.968C857.009 391.557 856.98 391.177 856.783 390.829C856.586 390.48 856.277 390.23 855.855 390.08C855.473 389.943 855.101 389.949 854.74 390.098C854.382 390.24 854.103 390.51 853.903 390.906L856.87 391.968ZM860.346 391.61C860.606 391.395 860.895 391.261 861.215 391.207C861.543 391.149 861.892 391.186 862.261 391.318L861.851 392.466L861.568 392.365C861.134 392.209 860.764 392.201 860.458 392.341C860.159 392.482 859.911 392.825 859.717 393.37L858.707 396.191L857.598 395.795L859.516 390.435L860.625 390.831L860.346 391.61ZM866.861 395.937C866.789 396.138 866.711 396.315 866.627 396.468L862.532 395.003C862.411 395.442 862.447 395.843 862.639 396.204C862.832 396.566 863.136 396.821 863.551 396.969C864.148 397.183 864.658 397.084 865.083 396.673L866.28 397.101C865.941 397.536 865.501 397.835 864.96 398C864.427 398.161 863.846 398.128 863.217 397.903C862.704 397.72 862.285 397.442 861.957 397.069C861.639 396.691 861.437 396.253 861.352 395.755C861.276 395.252 861.336 394.725 861.533 394.174C861.731 393.623 862.014 393.179 862.383 392.843C862.761 392.502 863.191 392.291 863.674 392.208C864.164 392.127 864.672 392.18 865.197 392.368C865.703 392.549 866.114 392.821 866.431 393.183C866.747 393.545 866.944 393.966 867.021 394.447C867.1 394.922 867.046 395.418 866.861 395.937ZM865.829 395.173C865.968 394.762 865.939 394.382 865.742 394.034C865.545 393.685 865.236 393.435 864.814 393.285C864.432 393.148 864.06 393.154 863.699 393.303C863.341 393.445 863.062 393.715 862.862 394.111L865.829 395.173ZM873.329 395.376L871.411 400.736L870.303 400.339L870.529 399.707C870.275 399.865 869.982 399.958 869.65 399.985C869.327 400.009 869.007 399.964 868.689 399.85C868.268 399.699 867.919 399.476 867.645 399.18C867.377 398.887 867.207 398.533 867.135 398.12C867.07 397.709 867.125 397.26 867.299 396.774L868.426 393.622L869.525 394.015L868.457 397.002C868.285 397.482 868.273 397.894 868.42 398.24C868.57 398.578 868.852 398.822 869.267 398.97C869.682 399.119 870.055 399.11 870.385 398.943C870.725 398.771 870.98 398.446 871.152 397.966L872.22 394.979L873.329 395.376ZM880.923 397.994C881.344 398.145 881.689 398.367 881.957 398.66C882.232 398.956 882.402 399.31 882.467 399.721C882.538 400.134 882.487 400.584 882.313 401.07L881.182 404.232L880.083 403.838L881.155 400.842C881.326 400.362 881.338 399.953 881.188 399.614C881.041 399.269 880.76 399.022 880.345 398.874C879.93 398.725 879.553 398.737 879.213 398.908C878.883 399.075 878.632 399.398 878.46 399.878L877.388 402.874L876.289 402.481L877.361 399.485C877.533 399.005 877.544 398.596 877.394 398.257C877.247 397.912 876.966 397.665 876.551 397.516C876.136 397.368 875.759 397.379 875.42 397.551C875.089 397.718 874.838 398.041 874.666 398.521L873.595 401.517L872.486 401.12L874.403 395.76L875.512 396.157L875.293 396.77C875.553 396.614 875.845 396.525 876.168 396.502C876.491 396.478 876.811 396.523 877.129 396.637C877.557 396.79 877.907 397.018 878.179 397.32C878.452 397.622 878.617 397.978 878.676 398.386C878.954 398.12 879.298 397.954 879.709 397.889C880.123 397.818 880.527 397.853 880.923 397.994Z" fill="#EDD0A9"/>
<g filter="url(#filter7_bdii)">
<rect x="859.86" y="343.626" width="34.4383" height="34.4383" rx="17.2191" transform="rotate(19.6846 859.86 343.626)" fill="url(#paint19_radial)" fill-opacity="0.5"/>
<rect x="860.12" y="344.176" width="33.5773" height="33.5773" rx="16.7887" transform="rotate(19.6846 860.12 344.176)" stroke="url(#paint20_linear)" stroke-width="0.860957"/>
</g>
<g filter="url(#filter8_b)">
<path d="M862.813 363.488L866.236 376.255L876.982 368.557L874.122 354.214L862.813 363.488ZM867.513 372.686L866.074 367.31L868.579 369.706L872.036 369.443L867.513 372.686ZM869.375 367.483L865.662 363.941L872.709 358.163L874.492 367.1L869.375 367.483Z" fill="url(#paint21_linear)"/>
</g>
</g>
<mask id="mask4" mask-type="alpha" maskUnits="userSpaceOnUse" x="1119" y="516" width="77" height="76">
<rect x="1139.76" y="516.05" width="59.5392" height="58.7949" transform="rotate(20.5429 1139.76 516.05)" fill="url(#paint22_linear)"/>
</mask>
<g mask="url(#mask4)">
<rect x="1134.75" y="530.467" width="58.7949" height="43.1659" rx="18.2339" transform="rotate(20.5429 1134.75 530.467)" fill="#FAE8F1" stroke="url(#paint23_linear)" stroke-width="0.744239"/>
<path d="M1143.38 564.127L1142.92 561.3L1142.19 561.028L1141.32 563.353L1140.36 562.995L1142.54 557.183L1144.55 557.935C1145 558.102 1145.34 558.321 1145.59 558.592C1145.84 558.866 1146 559.161 1146.05 559.48C1146.11 559.8 1146.08 560.122 1145.96 560.446C1145.81 560.825 1145.57 561.129 1145.23 561.357C1144.9 561.582 1144.48 561.665 1143.99 561.605L1144.52 564.553L1143.38 564.127ZM1142.47 560.267L1143.53 560.661C1143.88 560.795 1144.19 560.806 1144.43 560.695C1144.68 560.585 1144.86 560.38 1144.98 560.079C1145.09 559.778 1145.09 559.51 1144.97 559.276C1144.86 559.036 1144.62 558.849 1144.26 558.713L1143.2 558.318L1142.47 560.267ZM1147.75 559.813C1147.58 559.749 1147.46 559.636 1147.39 559.475C1147.31 559.314 1147.31 559.147 1147.37 558.974C1147.44 558.801 1147.55 558.678 1147.71 558.605C1147.87 558.532 1148.04 558.528 1148.21 558.592C1148.38 558.655 1148.5 558.767 1148.57 558.928C1148.65 559.089 1148.65 559.256 1148.59 559.428C1148.52 559.601 1148.41 559.724 1148.25 559.798C1148.09 559.871 1147.92 559.876 1147.75 559.813ZM1147.99 560.599L1146.27 565.207L1145.31 564.85L1147.04 560.242L1147.99 560.599ZM1149.61 561.978C1149.85 561.826 1150.14 561.731 1150.47 561.69C1150.81 561.65 1151.15 561.695 1151.5 561.827C1151.9 561.977 1152.23 562.214 1152.48 562.538C1152.74 562.859 1152.9 563.233 1152.96 563.661C1153.01 564.089 1152.95 564.534 1152.78 564.997C1152.61 565.46 1152.36 565.839 1152.03 566.136C1151.7 566.428 1151.34 566.614 1150.92 566.695C1150.52 566.772 1150.12 566.736 1149.72 566.585C1149.36 566.454 1149.08 566.267 1148.86 566.025C1148.64 565.778 1148.48 565.516 1148.39 565.239L1147.32 568.099L1146.36 567.742L1148.91 560.943L1149.86 561.3L1149.61 561.978ZM1151.81 564.633C1151.93 564.315 1151.97 564.017 1151.92 563.738C1151.88 563.456 1151.77 563.216 1151.6 563.017C1151.43 562.815 1151.22 562.668 1150.98 562.576C1150.74 562.486 1150.49 562.462 1150.22 562.503C1149.97 562.547 1149.73 562.66 1149.51 562.844C1149.29 563.03 1149.12 563.282 1149 563.6C1148.88 563.918 1148.84 564.221 1148.88 564.508C1148.93 564.793 1149.03 565.036 1149.2 565.238C1149.37 565.442 1149.58 565.589 1149.82 565.679C1150.06 565.771 1150.31 565.795 1150.57 565.752C1150.84 565.705 1151.08 565.586 1151.3 565.394C1151.52 565.205 1151.69 564.951 1151.81 564.633ZM1154.94 563.976C1155.19 563.825 1155.47 563.729 1155.81 563.689C1156.14 563.648 1156.48 563.694 1156.83 563.825C1157.23 563.976 1157.56 564.213 1157.81 564.537C1158.08 564.857 1158.23 565.232 1158.29 565.659C1158.35 566.087 1158.29 566.533 1158.11 566.995C1157.94 567.458 1157.69 567.838 1157.36 568.135C1157.04 568.426 1156.67 568.612 1156.26 568.693C1155.85 568.771 1155.45 568.734 1155.05 568.584C1154.7 568.452 1154.41 568.266 1154.19 568.024C1153.97 567.776 1153.82 567.514 1153.72 567.238L1152.65 570.098L1151.7 569.741L1154.24 562.942L1155.2 563.299L1154.94 563.976ZM1157.14 566.632C1157.26 566.314 1157.3 566.016 1157.25 565.737C1157.21 565.455 1157.1 565.214 1156.93 565.016C1156.76 564.814 1156.56 564.667 1156.31 564.575C1156.07 564.485 1155.82 564.461 1155.56 564.502C1155.3 564.545 1155.06 564.659 1154.84 564.843C1154.62 565.029 1154.46 565.281 1154.34 565.599C1154.22 565.916 1154.18 566.219 1154.22 566.507C1154.26 566.791 1154.37 567.035 1154.53 567.237C1154.7 567.441 1154.91 567.588 1155.15 567.678C1155.4 567.77 1155.65 567.794 1155.9 567.751C1156.17 567.704 1156.41 567.585 1156.63 567.393C1156.85 567.203 1157.03 566.95 1157.14 566.632ZM1161.12 563.717L1158.8 569.905L1157.85 569.548L1160.17 563.36L1161.12 563.717ZM1164.85 569.415C1164.79 569.588 1164.72 569.74 1164.64 569.871L1161.12 568.551C1161.01 568.93 1161.04 569.276 1161.2 569.591C1161.36 569.906 1161.62 570.131 1161.98 570.264C1162.49 570.457 1162.93 570.378 1163.31 570.028L1164.33 570.413C1164.04 570.785 1163.65 571.038 1163.18 571.173C1162.72 571.305 1162.22 571.27 1161.68 571.067C1161.24 570.902 1160.88 570.656 1160.6 570.329C1160.33 569.999 1160.16 569.618 1160.09 569.186C1160.03 568.751 1160.09 568.296 1160.27 567.822C1160.45 567.348 1160.7 566.968 1161.02 566.682C1161.35 566.393 1161.73 566.216 1162.15 566.15C1162.57 566.087 1163.01 566.139 1163.46 566.309C1163.89 566.472 1164.25 566.712 1164.51 567.029C1164.78 567.346 1164.95 567.712 1165.01 568.129C1165.07 568.54 1165.02 568.969 1164.85 569.415ZM1163.97 568.741C1164.09 568.388 1164.07 568.059 1163.91 567.755C1163.74 567.451 1163.48 567.232 1163.12 567.096C1162.79 566.973 1162.47 566.973 1162.15 567.097C1161.84 567.216 1161.6 567.445 1161.42 567.785L1163.97 568.741Z" fill="#E1618A"/>
<g filter="url(#filter9_bdii)">
<rect x="1153.69" y="521.273" width="29.7696" height="29.7696" rx="14.8848" transform="rotate(20.5429 1153.69 521.273)" fill="url(#paint24_radial)" fill-opacity="0.5"/>
<rect x="1153.91" y="521.752" width="29.0253" height="29.0253" rx="14.5127" transform="rotate(20.5429 1153.91 521.752)" stroke="url(#paint25_linear)" stroke-width="0.744239"/>
</g>
<g filter="url(#filter10_b)">
<path d="M1166.04 534.328C1164.81 534.888 1163.94 536.035 1163.73 537.377L1163.54 537.624C1163.19 538.081 1162.54 538.168 1162.08 537.82C1161.96 537.729 1161.86 537.612 1161.79 537.479L1161.63 537.169C1161.62 536.109 1161.17 535.099 1160.4 534.371C1158.79 532.817 1156.23 532.861 1154.67 534.469C1153.12 536.077 1153.16 538.64 1154.77 540.194C1155.95 541.331 1157.69 541.648 1159.19 540.999C1159.75 541.143 1160.09 541.71 1159.94 542.267C1159.93 542.34 1159.9 542.41 1159.87 542.477C1158.78 542.996 1157.98 543.974 1157.69 545.145C1157.39 546.355 1157.66 547.635 1158.42 548.622C1159.35 549.837 1160.89 550.415 1162.4 550.112C1163.62 549.87 1164.66 549.082 1165.23 547.973C1165.8 546.873 1165.82 545.576 1165.31 544.453C1165.08 543.961 1164.76 543.52 1164.36 543.158L1164.23 542.831C1164.03 542.295 1164.29 541.693 1164.83 541.487C1164.97 541.433 1165.12 541.41 1165.27 541.42L1165.58 541.441C1167.47 542.631 1169.97 542.062 1171.16 540.171C1171.7 539.312 1171.9 538.28 1171.72 537.282C1171.48 536.047 1170.7 534.988 1169.58 534.41C1168.48 533.839 1167.17 533.808 1166.04 534.328ZM1170.12 537.595L1170.12 537.597C1170.36 538.915 1169.48 540.176 1168.16 540.413C1167.52 540.529 1166.85 540.376 1166.31 539.99L1166.13 539.86L1165.38 539.809C1163.91 539.712 1162.64 540.822 1162.54 542.288C1162.52 542.674 1162.58 543.061 1162.72 543.421L1162.99 544.136L1163.16 544.271C1164.05 544.985 1164.31 546.23 1163.79 547.243C1163.44 547.914 1162.81 548.388 1162.07 548.527C1161.18 548.699 1160.27 548.358 1159.71 547.642C1159.24 547.049 1159.07 546.273 1159.26 545.54C1159.44 544.822 1159.94 544.226 1160.61 543.924L1160.88 543.85L1161.04 543.634C1161.94 542.473 1161.73 540.803 1160.57 539.906C1160.14 539.577 1159.63 539.385 1159.09 539.355L1158.82 539.341L1158.59 539.492C1157.37 540.042 1155.93 539.495 1155.38 538.27C1154.83 537.045 1155.37 535.605 1156.6 535.055C1156.72 535 1156.85 534.956 1156.98 534.922C1157.8 534.721 1158.67 534.955 1159.27 535.542C1159.77 536.006 1160.04 536.666 1160.01 537.345L1160 537.558L1160.36 538.236C1161.04 539.536 1162.65 540.034 1163.95 539.348C1164.3 539.167 1164.6 538.914 1164.83 538.606L1165.28 538.008L1165.31 537.783C1165.45 536.447 1166.64 535.476 1167.98 535.615C1169.05 535.726 1169.93 536.533 1170.12 537.595Z" fill="url(#paint26_linear)"/>
</g>
</g>
<mask id="mask5" mask-type="alpha" maskUnits="userSpaceOnUse" x="1485" y="258" width="136" height="134">
<rect x="1511.12" y="258.065" width="111.832" height="110.434" transform="rotate(13.1936 1511.12 258.065)" fill="url(#paint27_radial)"/>
</mask>
<g mask="url(#mask5)">
<rect opacity="0.1" x="1505.26" y="286.125" width="110.434" height="81.0784" rx="34.2486" transform="rotate(13.1936 1505.26 286.125)" fill="#F2C94C" stroke="url(#paint28_linear)" stroke-width="1.3979"/>
<path d="M1534.14 335.203C1535.35 335.487 1536.35 335.968 1537.14 336.648C1537.95 337.32 1538.49 338.149 1538.78 339.135C1539.08 340.112 1539.09 341.178 1538.82 342.332C1538.55 343.486 1538.07 344.429 1537.37 345.161C1536.68 345.896 1535.82 346.384 1534.8 346.627C1533.79 346.862 1532.68 346.837 1531.48 346.554L1527.77 345.685L1530.43 334.334L1534.14 335.203ZM1531.83 345.035C1533.16 345.347 1534.26 345.226 1535.14 344.673C1536.02 344.12 1536.61 343.191 1536.91 341.884C1537.22 340.567 1537.11 339.455 1536.57 338.549C1536.04 337.642 1535.11 337.034 1533.78 336.722L1531.94 336.289L1529.99 344.602L1531.83 345.035ZM1542.56 349.308C1541.71 349.109 1540.99 348.739 1540.39 348.197C1539.8 347.644 1539.39 346.973 1539.16 346.185C1538.93 345.385 1538.93 344.522 1539.15 343.597C1539.36 342.682 1539.75 341.918 1540.32 341.305C1540.89 340.692 1541.57 340.276 1542.35 340.059C1543.14 339.841 1543.96 339.833 1544.82 340.035C1545.68 340.236 1546.42 340.609 1547.03 341.154C1547.63 341.698 1548.06 342.371 1548.29 343.174C1548.53 343.976 1548.54 344.834 1548.33 345.749C1548.11 346.663 1547.71 347.426 1547.13 348.037C1546.56 348.647 1545.86 349.065 1545.05 349.288C1544.25 349.503 1543.42 349.51 1542.56 349.308ZM1542.94 347.691C1543.42 347.804 1543.89 347.794 1544.36 347.662C1544.84 347.533 1545.26 347.271 1545.63 346.875C1546 346.479 1546.26 345.954 1546.41 345.301C1546.57 344.647 1546.57 344.068 1546.43 343.563C1546.28 343.047 1546.03 342.626 1545.67 342.301C1545.31 341.975 1544.89 341.756 1544.41 341.644C1543.93 341.531 1543.46 341.541 1542.99 341.673C1542.54 341.807 1542.13 342.075 1541.79 342.476C1541.44 342.866 1541.19 343.388 1541.04 344.041C1540.81 345.01 1540.88 345.819 1541.25 346.467C1541.63 347.107 1542.19 347.515 1542.94 347.691ZM1554.23 342.239C1554.92 342.402 1555.5 342.688 1555.97 343.096C1556.45 343.496 1556.8 343.938 1557 344.424L1557.31 343.117L1559.19 343.557L1557.05 352.703C1556.85 353.531 1556.5 354.225 1556.01 354.786C1555.5 355.357 1554.88 355.75 1554.13 355.965C1553.39 356.182 1552.56 356.183 1551.64 355.969C1550.43 355.683 1549.48 355.157 1548.81 354.391C1548.14 353.636 1547.86 352.756 1547.98 351.75L1549.83 352.183C1549.86 352.684 1550.07 353.13 1550.46 353.52C1550.86 353.924 1551.38 354.201 1552.02 354.352C1552.78 354.528 1553.43 354.441 1554 354.091C1554.57 353.743 1554.96 353.134 1555.17 352.263L1555.52 350.76C1555.1 351.111 1554.59 351.369 1553.98 351.536C1553.38 351.694 1552.73 351.692 1552.05 351.532C1551.26 351.348 1550.59 350.983 1550.03 350.438C1549.48 349.885 1549.1 349.21 1548.88 348.413C1548.68 347.607 1548.69 346.753 1548.9 345.849C1549.11 344.945 1549.48 344.188 1550.02 343.578C1550.56 342.971 1551.2 342.552 1551.93 342.321C1552.68 342.082 1553.44 342.055 1554.23 342.239ZM1556.26 347.608C1556.4 346.988 1556.4 346.418 1556.25 345.9C1556.1 345.384 1555.85 344.957 1555.49 344.621C1555.14 344.284 1554.72 344.06 1554.24 343.947C1553.76 343.835 1553.29 343.85 1552.82 343.993C1552.35 344.124 1551.93 344.388 1551.56 344.784C1551.21 345.172 1550.96 345.676 1550.81 346.297C1550.67 346.917 1550.66 347.491 1550.8 348.018C1550.96 348.548 1551.21 348.986 1551.56 349.333C1551.93 349.672 1552.35 349.897 1552.82 350.007C1553.3 350.119 1553.77 350.104 1554.24 349.961C1554.71 349.819 1555.13 349.548 1555.48 349.15C1555.85 348.743 1556.11 348.229 1556.26 347.608ZM1568.23 350.19C1568.15 350.527 1568.05 350.827 1567.95 351.089L1561.07 349.477C1560.96 350.209 1561.09 350.848 1561.46 351.396C1561.84 351.944 1562.38 352.3 1563.08 352.463C1564.08 352.698 1564.88 352.444 1565.49 351.703L1567.5 352.174C1567.04 352.938 1566.38 353.502 1565.54 353.867C1564.71 354.224 1563.76 354.278 1562.71 354.031C1561.85 353.829 1561.12 353.457 1560.52 352.915C1559.94 352.365 1559.53 351.696 1559.31 350.907C1559.09 350.11 1559.09 349.249 1559.31 348.323C1559.52 347.398 1559.9 346.63 1560.43 346.02C1560.98 345.402 1561.64 344.981 1562.4 344.758C1563.18 344.538 1564 344.531 1564.89 344.738C1565.74 344.937 1566.45 345.299 1567.03 345.825C1567.6 346.351 1568 346.995 1568.21 347.757C1568.43 348.508 1568.43 349.319 1568.23 350.19ZM1566.42 349.146C1566.57 348.458 1566.45 347.851 1566.07 347.325C1565.69 346.798 1565.15 346.452 1564.44 346.287C1563.79 346.136 1563.2 346.214 1562.64 346.52C1562.09 346.816 1561.69 347.302 1561.44 347.979L1566.42 349.146Z" fill="#F2C94C"/>
<g filter="url(#filter11_bdii)">
<rect x="1538.34" y="264.446" width="55.9161" height="55.9161" rx="27.9581" transform="rotate(13.1936 1538.34 264.446)" fill="url(#paint29_radial)" fill-opacity="0.5"/>
<rect x="1538.86" y="265.286" width="54.5182" height="54.5182" rx="27.2591" transform="rotate(13.1936 1538.86 265.286)" stroke="url(#paint30_linear)" stroke-width="1.3979"/>
</g>
<g filter="url(#filter12_b)">
<path fill-rule="evenodd" clip-rule="evenodd" d="M1551.87 286.355L1554.02 286.86L1549.53 306.05L1547.37 305.545L1546.58 308.948L1554.2 310.734C1561.38 312.417 1568.56 307.962 1570.24 300.784C1571.92 293.605 1567.47 286.422 1560.29 284.739L1552.67 282.953L1551.87 286.355ZM1552.93 306.847L1557.43 287.657L1559.49 288.142C1564.79 289.384 1568.08 294.687 1566.84 299.986C1565.6 305.285 1560.29 308.574 1554.99 307.332L1552.93 306.847Z" fill="url(#paint31_linear)"/>
</g>
</g>
<mask id="mask6" mask-type="alpha" maskUnits="userSpaceOnUse" x="1053" y="204" width="86" height="85">
<rect x="1053.72" y="226.877" width="66.3015" height="65.4727" transform="rotate(-19.5713 1053.72 226.877)" fill="url(#paint32_radial)"/>
</mask>
<g mask="url(#mask6)">
<rect x="1059.8" y="242.746" width="65.4727" height="48.0686" rx="20.3048" transform="rotate(-19.5713 1059.8 242.746)" fill="#EEF2FD" stroke="url(#paint33_linear)" stroke-width="0.828768"/>
<path d="M1089.26 258.344L1091.57 264.857L1090.5 265.237L1088.92 260.776L1088.52 265.943L1087.78 266.206L1084.2 262.455L1085.78 266.916L1084.71 267.296L1082.4 260.783L1083.55 260.373L1087.65 264.667L1088.11 258.751L1089.26 258.344ZM1094.87 263.779C1094.38 263.952 1093.9 264 1093.43 263.921C1092.96 263.836 1092.54 263.634 1092.17 263.314C1091.8 262.988 1091.52 262.559 1091.34 262.028C1091.15 261.503 1091.1 260.997 1091.19 260.509C1091.27 260.02 1091.48 259.596 1091.8 259.235C1092.12 258.874 1092.53 258.606 1093.02 258.431C1093.52 258.255 1094 258.206 1094.48 258.282C1094.96 258.359 1095.38 258.559 1095.76 258.883C1096.13 259.207 1096.41 259.631 1096.6 260.156C1096.79 260.68 1096.83 261.188 1096.74 261.679C1096.65 262.169 1096.44 262.6 1096.1 262.971C1095.78 263.334 1095.36 263.604 1094.87 263.779ZM1094.54 262.851C1094.82 262.754 1095.05 262.597 1095.24 262.381C1095.44 262.164 1095.56 261.897 1095.62 261.581C1095.68 261.266 1095.64 260.92 1095.51 260.546C1095.37 260.171 1095.19 259.881 1094.95 259.676C1094.72 259.464 1094.46 259.335 1094.17 259.289C1093.89 259.242 1093.61 259.267 1093.33 259.365C1093.06 259.463 1092.83 259.619 1092.63 259.835C1092.45 260.048 1092.34 260.311 1092.29 260.622C1092.25 260.927 1092.29 261.267 1092.42 261.642C1092.62 262.198 1092.91 262.579 1093.3 262.785C1093.7 262.982 1094.11 263.005 1094.54 262.851ZM1098.94 256.326C1099.35 256.182 1099.74 256.137 1100.12 256.193C1100.5 256.246 1100.85 256.406 1101.14 256.673C1101.44 256.939 1101.68 257.307 1101.84 257.775L1102.93 260.821L1101.87 261.197L1100.84 258.311C1100.68 257.849 1100.43 257.537 1100.12 257.375C1099.8 257.208 1099.44 257.195 1099.04 257.337C1098.64 257.479 1098.36 257.717 1098.21 258.052C1098.07 258.378 1098.08 258.772 1098.24 259.234L1099.27 262.12L1098.2 262.5L1096.37 257.337L1097.43 256.957L1097.64 257.547C1097.74 257.273 1097.91 257.028 1098.13 256.814C1098.37 256.598 1098.64 256.435 1098.94 256.326ZM1107.68 256.079C1107.75 256.273 1107.8 256.452 1107.83 256.617L1103.89 258.02C1104.06 258.421 1104.33 258.698 1104.7 258.85C1105.06 259.002 1105.44 259.007 1105.84 258.865C1106.42 258.66 1106.74 258.276 1106.81 257.71L1107.96 257.3C1107.97 257.831 1107.83 258.322 1107.52 258.775C1107.22 259.219 1106.77 259.549 1106.16 259.764C1105.67 259.94 1105.19 259.988 1104.72 259.909C1104.25 259.822 1103.83 259.619 1103.46 259.299C1103.1 258.971 1102.83 258.541 1102.64 258.01C1102.45 257.479 1102.39 256.976 1102.46 256.5C1102.53 256.017 1102.73 255.597 1103.04 255.24C1103.35 254.882 1103.76 254.612 1104.27 254.433C1104.76 254.259 1105.23 254.211 1105.68 254.288C1106.14 254.365 1106.54 254.559 1106.89 254.871C1107.24 255.177 1107.5 255.579 1107.68 256.079ZM1106.45 256.138C1106.3 255.747 1106.05 255.481 1105.69 255.342C1105.33 255.202 1104.95 255.204 1104.54 255.349C1104.17 255.48 1103.9 255.711 1103.72 256.041C1103.54 256.366 1103.5 256.737 1103.59 257.154L1106.45 256.138ZM1108.82 253.753C1108.88 253.435 1109.02 253.159 1109.22 252.924C1109.43 252.681 1109.71 252.496 1110.07 252.37L1110.46 253.475L1110.19 253.572C1109.77 253.721 1109.49 253.94 1109.35 254.23C1109.21 254.518 1109.24 254.925 1109.42 255.449L1110.39 258.167L1109.32 258.547L1107.49 253.384L1108.55 253.004L1108.82 253.753ZM1114.81 256.69C1114.33 256.863 1113.85 256.91 1113.37 256.831C1112.9 256.746 1112.48 256.544 1112.11 256.224C1111.74 255.898 1111.47 255.469 1111.28 254.938C1111.09 254.414 1111.04 253.907 1111.13 253.419C1111.21 252.931 1111.42 252.506 1111.74 252.145C1112.06 251.785 1112.47 251.516 1112.96 251.341C1113.46 251.166 1113.94 251.116 1114.42 251.193C1114.9 251.269 1115.32 251.469 1115.7 251.793C1116.08 252.117 1116.36 252.541 1116.54 253.066C1116.73 253.591 1116.78 254.098 1116.68 254.589C1116.59 255.079 1116.38 255.51 1116.05 255.882C1115.72 256.245 1115.31 256.514 1114.81 256.69ZM1114.48 255.762C1114.76 255.664 1114.99 255.507 1115.18 255.292C1115.38 255.074 1115.5 254.807 1115.56 254.492C1115.62 254.176 1115.58 253.831 1115.45 253.456C1115.31 253.081 1115.13 252.791 1114.89 252.586C1114.66 252.375 1114.4 252.246 1114.11 252.199C1113.83 252.152 1113.55 252.178 1113.27 252.275C1113 252.373 1112.77 252.53 1112.58 252.745C1112.39 252.959 1112.28 253.221 1112.23 253.532C1112.19 253.837 1112.23 254.177 1112.36 254.552C1112.56 255.108 1112.86 255.489 1113.25 255.695C1113.64 255.893 1114.05 255.915 1114.48 255.762Z" fill="#8C99ED"/>
<g filter="url(#filter13_bdii)">
<rect x="1069.34" y="221.324" width="33.1507" height="33.1507" rx="16.5754" transform="rotate(-19.5713 1069.34 221.324)" fill="url(#paint34_radial)" fill-opacity="0.5"/>
<rect x="1069.87" y="221.576" width="32.322" height="32.322" rx="16.161" transform="rotate(-19.5713 1069.87 221.576)" stroke="url(#paint35_linear)" stroke-width="0.828768"/>
</g>
<g filter="url(#filter14_b)">
<path d="M1080.05 226.899L1084.38 239.066L1078.46 241.169L1079.16 243.122L1087.02 240.325L1083.8 231.252L1092.02 235.65L1095.63 227.046L1098.85 236.119L1106.72 233.322L1106.03 231.369L1100.11 233.472L1095.79 221.305L1090.99 232.75L1080.05 226.899Z" fill="url(#paint36_linear)"/>
</g>
</g>
<defs>
<filter id="filter0_bdii" x="6.415" y="203.937" width="64.4895" height="64.4895" filterUnits="userSpaceOnUse" color-interpolation-filters="sRGB">
<feFlood flood-opacity="0" result="BackgroundImageFix"/>
<feGaussianBlur in="BackgroundImage" stdDeviation="2.14994"/>
<feComposite in2="SourceAlpha" operator="in" result="effect1_backgroundBlur"/>
<feColorMatrix in="SourceAlpha" type="matrix" values="0 0 0 0 0 0 0 0 0 0 0 0 0 0 0 0 0 0 127 0"/>
<feMorphology radius="1.71995" operator="erode" in="SourceAlpha" result="effect2_dropShadow"/>
<feOffset dy="6.87981"/>
<feGaussianBlur stdDeviation="6.44982"/>
<feColorMatrix type="matrix" values="0 0 0 0 0.745098 0 0 0 0 0.760784 0 0 0 0 0.894118 0 0 0 0.5 0"/>
<feBlend mode="normal" in2="effect1_backgroundBlur" result="effect2_dropShadow"/>
<feBlend mode="normal" in="SourceGraphic" in2="effect2_dropShadow" result="shape"/>
<feColorMatrix in="SourceAlpha" type="matrix" values="0 0 0 0 0 0 0 0 0 0 0 0 0 0 0 0 0 0 127 0" result="hardAlpha"/>
<feMorphology radius="0.859976" operator="erode" in="SourceAlpha" result="effect3_innerShadow"/>
<feOffset dy="-0.859976"/>
<feGaussianBlur stdDeviation="0.859976"/>
<feComposite in2="hardAlpha" operator="arithmetic" k2="-1" k3="1"/>
<feColorMatrix type="matrix" values="0 0 0 0 0.254094 0 0 0 0 0.254094 0 0 0 0 0.254094 0 0 0 0.02 0"/>
<feBlend mode="normal" in2="shape" result="effect3_innerShadow"/>
<feColorMatrix in="SourceAlpha" type="matrix" values="0 0 0 0 0 0 0 0 0 0 0 0 0 0 0 0 0 0 127 0" result="hardAlpha"/>
<feMorphology radius="0.859976" operator="erode" in="SourceAlpha" result="effect4_innerShadow"/>
<feOffset dy="0.429988"/>
<feGaussianBlur stdDeviation="1.28996"/>
<feComposite in2="hardAlpha" operator="arithmetic" k2="-1" k3="1"/>
<feColorMatrix type="matrix" values="0 0 0 0 1 0 0 0 0 1 0 0 0 0 1 0 0 0 0.18 0"/>
<feBlend mode="normal" in2="effect3_innerShadow" result="effect4_innerShadow"/>
</filter>
<filter id="filter1_b" x="26.7697" y="216.906" width="23.9276" height="24.5545" filterUnits="userSpaceOnUse" color-interpolation-filters="sRGB">
<feFlood flood-opacity="0" result="BackgroundImageFix"/>
<feGaussianBlur in="BackgroundImage" stdDeviation="0.859976"/>
<feComposite in2="SourceAlpha" operator="in" result="effect1_backgroundBlur"/>
<feBlend mode="normal" in="SourceGraphic" in2="effect1_backgroundBlur" result="shape"/>
</filter>
<filter id="filter2_bdii" x="410.548" y="81.4447" width="98.8905" height="98.8905" filterUnits="userSpaceOnUse" color-interpolation-filters="sRGB">
<feFlood flood-opacity="0" result="BackgroundImageFix"/>
<feGaussianBlur in="BackgroundImage" stdDeviation="3.2998"/>
<feComposite in2="SourceAlpha" operator="in" result="effect1_backgroundBlur"/>
<feColorMatrix in="SourceAlpha" type="matrix" values="0 0 0 0 0 0 0 0 0 0 0 0 0 0 0 0 0 0 127 0"/>
<feMorphology radius="2.63984" operator="erode" in="SourceAlpha" result="effect2_dropShadow"/>
<feOffset dy="10.5594"/>
<feGaussianBlur stdDeviation="9.8994"/>
<feColorMatrix type="matrix" values="0 0 0 0 0.154343 0 0 0 0 0.754094 0 0 0 0 0.494742 0 0 0 0.21 0"/>
<feBlend mode="normal" in2="effect1_backgroundBlur" result="effect2_dropShadow"/>
<feBlend mode="normal" in="SourceGraphic" in2="effect2_dropShadow" result="shape"/>
<feColorMatrix in="SourceAlpha" type="matrix" values="0 0 0 0 0 0 0 0 0 0 0 0 0 0 0 0 0 0 127 0" result="hardAlpha"/>
<feMorphology radius="1.31992" operator="erode" in="SourceAlpha" result="effect3_innerShadow"/>
<feOffset dy="-1.31992"/>
<feGaussianBlur stdDeviation="1.31992"/>
<feComposite in2="hardAlpha" operator="arithmetic" k2="-1" k3="1"/>
<feColorMatrix type="matrix" values="0 0 0 0 0.254094 0 0 0 0 0.254094 0 0 0 0 0.254094 0 0 0 0.02 0"/>
<feBlend mode="normal" in2="shape" result="effect3_innerShadow"/>
<feColorMatrix in="SourceAlpha" type="matrix" values="0 0 0 0 0 0 0 0 0 0 0 0 0 0 0 0 0 0 127 0" result="hardAlpha"/>
<feMorphology radius="1.31992" operator="erode" in="SourceAlpha" result="effect4_innerShadow"/>
<feOffset dy="0.65996"/>
<feGaussianBlur stdDeviation="1.97988"/>
<feComposite in2="hardAlpha" operator="arithmetic" k2="-1" k3="1"/>
<feColorMatrix type="matrix" values="0 0 0 0 1 0 0 0 0 1 0 0 0 0 1 0 0 0 0.18 0"/>
<feBlend mode="normal" in2="effect3_innerShadow" result="effect4_innerShadow"/>
</filter>
<filter id="filter3_b" x="442.746" y="98.3975" width="34.4942" height="43.8663" filterUnits="userSpaceOnUse" color-interpolation-filters="sRGB">
<feFlood flood-opacity="0" result="BackgroundImageFix"/>
<feGaussianBlur in="BackgroundImage" stdDeviation="1.31992"/>
<feComposite in2="SourceAlpha" operator="in" result="effect1_backgroundBlur"/>
<feBlend mode="normal" in="SourceGraphic" in2="effect1_backgroundBlur" result="shape"/>
</filter>
<filter id="filter4_bdii" x="491.78" y="424.162" width="98.5642" height="98.5642" filterUnits="userSpaceOnUse" color-interpolation-filters="sRGB">
<feFlood flood-opacity="0" result="BackgroundImageFix"/>
<feGaussianBlur in="BackgroundImage" stdDeviation="3.09739"/>
<feComposite in2="SourceAlpha" operator="in" result="effect1_backgroundBlur"/>
<feColorMatrix in="SourceAlpha" type="matrix" values="0 0 0 0 0 0 0 0 0 0 0 0 0 0 0 0 0 0 127 0"/>
<feMorphology radius="2.47791" operator="erode" in="SourceAlpha" result="effect2_dropShadow"/>
<feOffset dy="9.91164"/>
<feGaussianBlur stdDeviation="9.29216"/>
<feColorMatrix type="matrix" values="0 0 0 0 0.74902 0 0 0 0 0.698039 0 0 0 0 0.894118 0 0 0 0.47 0"/>
<feBlend mode="normal" in2="effect1_backgroundBlur" result="effect2_dropShadow"/>
<feBlend mode="normal" in="SourceGraphic" in2="effect2_dropShadow" result="shape"/>
<feColorMatrix in="SourceAlpha" type="matrix" values="0 0 0 0 0 0 0 0 0 0 0 0 0 0 0 0 0 0 127 0" result="hardAlpha"/>
<feMorphology radius="1.23895" operator="erode" in="SourceAlpha" result="effect3_innerShadow"/>
<feOffset dy="-1.23895"/>
<feGaussianBlur stdDeviation="1.23895"/>
<feComposite in2="hardAlpha" operator="arithmetic" k2="-1" k3="1"/>
<feColorMatrix type="matrix" values="0 0 0 0 0.254094 0 0 0 0 0.254094 0 0 0 0 0.254094 0 0 0 0.02 0"/>
<feBlend mode="normal" in2="shape" result="effect3_innerShadow"/>
<feColorMatrix in="SourceAlpha" type="matrix" values="0 0 0 0 0 0 0 0 0 0 0 0 0 0 0 0 0 0 127 0" result="hardAlpha"/>
<feMorphology radius="1.23895" operator="erode" in="SourceAlpha" result="effect4_innerShadow"/>
<feOffset dy="0.619477"/>
<feGaussianBlur stdDeviation="1.85843"/>
<feComposite in2="hardAlpha" operator="arithmetic" k2="-1" k3="1"/>
<feColorMatrix type="matrix" values="0 0 0 0 1 0 0 0 0 1 0 0 0 0 1 0 0 0 0.18 0"/>
<feBlend mode="normal" in2="effect3_innerShadow" result="effect4_innerShadow"/>
</filter>
<filter id="filter5_b" x="526.784" y="449.993" width="31.0893" height="28.3589" filterUnits="userSpaceOnUse" color-interpolation-filters="sRGB">
<feFlood flood-opacity="0" result="BackgroundImageFix"/>
<feGaussianBlur in="BackgroundImage" stdDeviation="1.23895"/>
<feComposite in2="SourceAlpha" operator="in" result="effect1_backgroundBlur"/>
<feBlend mode="normal" in="SourceGraphic" in2="effect1_backgroundBlur" result="shape"/>
</filter>
<filter id="filter6_b" x="526.741" y="454.187" width="14.6701" height="11.8457" filterUnits="userSpaceOnUse" color-interpolation-filters="sRGB">
<feFlood flood-opacity="0" result="BackgroundImageFix"/>
<feGaussianBlur in="BackgroundImage" stdDeviation="1.23895"/>
<feComposite in2="SourceAlpha" operator="in" result="effect1_backgroundBlur"/>
<feBlend mode="normal" in="SourceGraphic" in2="effect1_backgroundBlur" result="shape"/>
</filter>
<filter id="filter7_bdii" x="837.067" y="339.321" width="66.4109" height="66.4109" filterUnits="userSpaceOnUse" color-interpolation-filters="sRGB">
<feFlood flood-opacity="0" result="BackgroundImageFix"/>
<feGaussianBlur in="BackgroundImage" stdDeviation="2.15239"/>
<feComposite in2="SourceAlpha" operator="in" result="effect1_backgroundBlur"/>
<feColorMatrix in="SourceAlpha" type="matrix" values="0 0 0 0 0 0 0 0 0 0 0 0 0 0 0 0 0 0 127 0"/>
<feMorphology radius="1.72191" operator="erode" in="SourceAlpha" result="effect2_dropShadow"/>
<feOffset dy="6.88765"/>
<feGaussianBlur stdDeviation="6.45718"/>
<feColorMatrix type="matrix" values="0 0 0 0 0.901961 0 0 0 0 0.764706 0 0 0 0 0.588235 0 0 0 0.5 0"/>
<feBlend mode="normal" in2="effect1_backgroundBlur" result="effect2_dropShadow"/>
<feBlend mode="normal" in="SourceGraphic" in2="effect2_dropShadow" result="shape"/>
<feColorMatrix in="SourceAlpha" type="matrix" values="0 0 0 0 0 0 0 0 0 0 0 0 0 0 0 0 0 0 127 0" result="hardAlpha"/>
<feMorphology radius="0.860957" operator="erode" in="SourceAlpha" result="effect3_innerShadow"/>
<feOffset dy="-0.860957"/>
<feGaussianBlur stdDeviation="0.860957"/>
<feComposite in2="hardAlpha" operator="arithmetic" k2="-1" k3="1"/>
<feColorMatrix type="matrix" values="0 0 0 0 0.254094 0 0 0 0 0.254094 0 0 0 0 0.254094 0 0 0 0.02 0"/>
<feBlend mode="normal" in2="shape" result="effect3_innerShadow"/>
<feColorMatrix in="SourceAlpha" type="matrix" values="0 0 0 0 0 0 0 0 0 0 0 0 0 0 0 0 0 0 127 0" result="hardAlpha"/>
<feMorphology radius="0.860957" operator="erode" in="SourceAlpha" result="effect4_innerShadow"/>
<feOffset dy="0.430478"/>
<feGaussianBlur stdDeviation="1.29144"/>
<feComposite in2="hardAlpha" operator="arithmetic" k2="-1" k3="1"/>
<feColorMatrix type="matrix" values="0 0 0 0 1 0 0 0 0 1 0 0 0 0 1 0 0 0 0.18 0"/>
<feBlend mode="normal" in2="effect3_innerShadow" result="effect4_innerShadow"/>
</filter>
<filter id="filter8_b" x="857.43" y="349.958" width="25.4979" height="30.554" filterUnits="userSpaceOnUse" color-interpolation-filters="sRGB">
<feFlood flood-opacity="0" result="BackgroundImageFix"/>
<feGaussianBlur in="BackgroundImage" stdDeviation="0.860957"/>
<feComposite in2="SourceAlpha" operator="in" result="effect1_backgroundBlur"/>
<feBlend mode="normal" in="SourceGraphic" in2="effect1_backgroundBlur" result="shape"/>
</filter>
<filter id="filter9_bdii" x="1133.57" y="517.552" width="57.6731" height="57.6731" filterUnits="userSpaceOnUse" color-interpolation-filters="sRGB">
<feFlood flood-opacity="0" result="BackgroundImageFix"/>
<feGaussianBlur in="BackgroundImage" stdDeviation="1.8606"/>
<feComposite in2="SourceAlpha" operator="in" result="effect1_backgroundBlur"/>
<feColorMatrix in="SourceAlpha" type="matrix" values="0 0 0 0 0 0 0 0 0 0 0 0 0 0 0 0 0 0 127 0"/>
<feMorphology radius="1.48848" operator="erode" in="SourceAlpha" result="effect2_dropShadow"/>
<feOffset dy="5.95392"/>
<feGaussianBlur stdDeviation="5.5818"/>
<feColorMatrix type="matrix" values="0 0 0 0 0.92549 0 0 0 0 0.431373 0 0 0 0 0.592157 0 0 0 0.42 0"/>
<feBlend mode="normal" in2="effect1_backgroundBlur" result="effect2_dropShadow"/>
<feBlend mode="normal" in="SourceGraphic" in2="effect2_dropShadow" result="shape"/>
<feColorMatrix in="SourceAlpha" type="matrix" values="0 0 0 0 0 0 0 0 0 0 0 0 0 0 0 0 0 0 127 0" result="hardAlpha"/>
<feMorphology radius="0.744239" operator="erode" in="SourceAlpha" result="effect3_innerShadow"/>
<feOffset dy="-0.744239"/>
<feGaussianBlur stdDeviation="0.744239"/>
<feComposite in2="hardAlpha" operator="arithmetic" k2="-1" k3="1"/>
<feColorMatrix type="matrix" values="0 0 0 0 0.254094 0 0 0 0 0.254094 0 0 0 0 0.254094 0 0 0 0.02 0"/>
<feBlend mode="normal" in2="shape" result="effect3_innerShadow"/>
<feColorMatrix in="SourceAlpha" type="matrix" values="0 0 0 0 0 0 0 0 0 0 0 0 0 0 0 0 0 0 127 0" result="hardAlpha"/>
<feMorphology radius="0.744239" operator="erode" in="SourceAlpha" result="effect4_innerShadow"/>
<feOffset dy="0.37212"/>
<feGaussianBlur stdDeviation="1.11636"/>
<feComposite in2="hardAlpha" operator="arithmetic" k2="-1" k3="1"/>
<feColorMatrix type="matrix" values="0 0 0 0 1 0 0 0 0 1 0 0 0 0 1 0 0 0 0.18 0"/>
<feBlend mode="normal" in2="effect3_innerShadow" result="effect4_innerShadow"/>
</filter>
<filter id="filter10_b" x="1148.47" y="527.885" width="25.9707" height="25.9707" filterUnits="userSpaceOnUse" color-interpolation-filters="sRGB">
<feFlood flood-opacity="0" result="BackgroundImageFix"/>
<feGaussianBlur in="BackgroundImage" stdDeviation="0.744239"/>
<feComposite in2="SourceAlpha" operator="in" result="effect1_backgroundBlur"/>
<feBlend mode="normal" in="SourceGraphic" in2="effect1_backgroundBlur" result="shape"/>
</filter>
<filter id="filter11_bdii" x="1507.41" y="257.457" width="103.548" height="103.548" filterUnits="userSpaceOnUse" color-interpolation-filters="sRGB">
<feFlood flood-opacity="0" result="BackgroundImageFix"/>
<feGaussianBlur in="BackgroundImage" stdDeviation="3.49476"/>
<feComposite in2="SourceAlpha" operator="in" result="effect1_backgroundBlur"/>
<feColorMatrix in="SourceAlpha" type="matrix" values="0 0 0 0 0 0 0 0 0 0 0 0 0 0 0 0 0 0 127 0"/>
<feMorphology radius="2.79581" operator="erode" in="SourceAlpha" result="effect2_dropShadow"/>
<feOffset dy="11.1832"/>
<feGaussianBlur stdDeviation="10.4843"/>
<feColorMatrix type="matrix" values="0 0 0 0 0.901961 0 0 0 0 0.764706 0 0 0 0 0.588235 0 0 0 0.5 0"/>
<feBlend mode="normal" in2="effect1_backgroundBlur" result="effect2_dropShadow"/>
<feBlend mode="normal" in="SourceGraphic" in2="effect2_dropShadow" result="shape"/>
<feColorMatrix in="SourceAlpha" type="matrix" values="0 0 0 0 0 0 0 0 0 0 0 0 0 0 0 0 0 0 127 0" result="hardAlpha"/>
<feMorphology radius="1.3979" operator="erode" in="SourceAlpha" result="effect3_innerShadow"/>
<feOffset dy="-1.3979"/>
<feGaussianBlur stdDeviation="1.3979"/>
<feComposite in2="hardAlpha" operator="arithmetic" k2="-1" k3="1"/>
<feColorMatrix type="matrix" values="0 0 0 0 0.254094 0 0 0 0 0.254094 0 0 0 0 0.254094 0 0 0 0.02 0"/>
<feBlend mode="normal" in2="shape" result="effect3_innerShadow"/>
<feColorMatrix in="SourceAlpha" type="matrix" values="0 0 0 0 0 0 0 0 0 0 0 0 0 0 0 0 0 0 127 0" result="hardAlpha"/>
<feMorphology radius="1.3979" operator="erode" in="SourceAlpha" result="effect4_innerShadow"/>
<feOffset dy="0.698952"/>
<feGaussianBlur stdDeviation="2.09685"/>
<feComposite in2="hardAlpha" operator="arithmetic" k2="-1" k3="1"/>
<feColorMatrix type="matrix" values="0 0 0 0 1 0 0 0 0 1 0 0 0 0 1 0 0 0 0.18 0"/>
<feBlend mode="normal" in2="effect3_innerShadow" result="effect4_innerShadow"/>
</filter>
<filter id="filter12_b" x="1543.78" y="280.157" width="32.3049" height="36.4206" filterUnits="userSpaceOnUse" color-interpolation-filters="sRGB">
<feFlood flood-opacity="0" result="BackgroundImageFix"/>
<feGaussianBlur in="BackgroundImage" stdDeviation="1.3979"/>
<feComposite in2="SourceAlpha" operator="in" result="effect1_backgroundBlur"/>
<feBlend mode="normal" in="SourceGraphic" in2="effect1_backgroundBlur" result="shape"/>
</filter>
<filter id="filter13_bdii" x="1058.56" y="206.076" width="63.8882" height="63.8882" filterUnits="userSpaceOnUse" color-interpolation-filters="sRGB">
<feFlood flood-opacity="0" result="BackgroundImageFix"/>
<feGaussianBlur in="BackgroundImage" stdDeviation="2.07192"/>
<feComposite in2="SourceAlpha" operator="in" result="effect1_backgroundBlur"/>
<feColorMatrix in="SourceAlpha" type="matrix" values="0 0 0 0 0 0 0 0 0 0 0 0 0 0 0 0 0 0 127 0"/>
<feMorphology radius="1.65754" operator="erode" in="SourceAlpha" result="effect2_dropShadow"/>
<feOffset dy="6.63015"/>
<feGaussianBlur stdDeviation="6.21576"/>
<feColorMatrix type="matrix" values="0 0 0 0 0.305882 0 0 0 0 0.384314 0 0 0 0 0.917647 0 0 0 0.41 0"/>
<feBlend mode="normal" in2="effect1_backgroundBlur" result="effect2_dropShadow"/>
<feBlend mode="normal" in="SourceGraphic" in2="effect2_dropShadow" result="shape"/>
<feColorMatrix in="SourceAlpha" type="matrix" values="0 0 0 0 0 0 0 0 0 0 0 0 0 0 0 0 0 0 127 0" result="hardAlpha"/>
<feMorphology radius="0.828768" operator="erode" in="SourceAlpha" result="effect3_innerShadow"/>
<feOffset dy="-0.828768"/>
<feGaussianBlur stdDeviation="0.828768"/>
<feComposite in2="hardAlpha" operator="arithmetic" k2="-1" k3="1"/>
<feColorMatrix type="matrix" values="0 0 0 0 0.254094 0 0 0 0 0.254094 0 0 0 0 0.254094 0 0 0 0.02 0"/>
<feBlend mode="normal" in2="shape" result="effect3_innerShadow"/>
<feColorMatrix in="SourceAlpha" type="matrix" values="0 0 0 0 0 0 0 0 0 0 0 0 0 0 0 0 0 0 127 0" result="hardAlpha"/>
<feMorphology radius="0.828768" operator="erode" in="SourceAlpha" result="effect4_innerShadow"/>
<feOffset dy="0.414384"/>
<feGaussianBlur stdDeviation="1.24315"/>
<feComposite in2="hardAlpha" operator="arithmetic" k2="-1" k3="1"/>
<feColorMatrix type="matrix" values="0 0 0 0 1 0 0 0 0 1 0 0 0 0 1 0 0 0 0.18 0"/>
<feBlend mode="normal" in2="effect3_innerShadow" result="effect4_innerShadow"/>
</filter>
<filter id="filter14_b" x="1072.48" y="217.544" width="35.9001" height="27.2346" filterUnits="userSpaceOnUse" color-interpolation-filters="sRGB">
<feFlood flood-opacity="0" result="BackgroundImageFix"/>
<feGaussianBlur in="BackgroundImage" stdDeviation="0.828768"/>
<feComposite in2="SourceAlpha" operator="in" result="effect1_backgroundBlur"/>
<feBlend mode="normal" in="SourceGraphic" in2="effect1_backgroundBlur" result="shape"/>
</filter>
<radialGradient id="paint0_radial" cx="0" cy="0" r="1" gradientUnits="userSpaceOnUse" gradientTransform="translate(745 440) rotate(-38.3278) scale(377.322 722.717)">
<stop stop-color="#F7F8FC"/>
<stop offset="1" stop-color="#F7F8FC" stop-opacity="0"/>
</radialGradient>
<radialGradient id="paint1_radial" cx="0" cy="0" r="1" gradientUnits="userSpaceOnUse" gradientTransform="translate(35.3803 205.252) rotate(90) scale(84.2777 85.3445)">
<stop stop-color="white" stop-opacity="0"/>
<stop offset="1" stop-color="white"/>
</radialGradient>
<linearGradient id="paint2_linear" x1="19.4296" y1="238.177" x2="39.8318" y2="288.944" gradientUnits="userSpaceOnUse">
<stop stop-color="white" stop-opacity="0.45"/>
<stop offset="1" stop-color="white" stop-opacity="0.22"/>
</linearGradient>
<radialGradient id="paint3_radial" cx="0" cy="0" r="1" gradientUnits="userSpaceOnUse" gradientTransform="translate(45.1139 221.87) rotate(107.526) scale(34.2698)">
<stop stop-color="#DBDEEF"/>
<stop offset="1" stop-color="#B5B8DF"/>
</radialGradient>
<linearGradient id="paint4_linear" x1="22.3246" y1="215.85" x2="50.7038" y2="256.269" gradientUnits="userSpaceOnUse">
<stop stop-color="white" stop-opacity="0.67"/>
<stop offset="1" stop-color="white" stop-opacity="0.13"/>
</linearGradient>
<linearGradient id="paint5_linear" x1="36.4782" y1="220.767" x2="40.9887" y2="237.6" gradientUnits="userSpaceOnUse">
<stop stop-color="white" stop-opacity="0.74"/>
<stop offset="1" stop-color="white" stop-opacity="0.46"/>
</linearGradient>
<linearGradient id="paint6_linear" x1="534.967" y1="161.926" x2="415.733" y2="65.4343" gradientUnits="userSpaceOnUse">
<stop stop-color="white" stop-opacity="0"/>
<stop offset="1" stop-color="white"/>
</linearGradient>
<linearGradient id="paint7_linear" x1="430.445" y1="106.746" x2="461.759" y2="184.664" gradientUnits="userSpaceOnUse">
<stop stop-color="white" stop-opacity="0.45"/>
<stop offset="1" stop-color="white" stop-opacity="0.22"/>
</linearGradient>
<radialGradient id="paint8_radial" cx="0" cy="0" r="1" gradientUnits="userSpaceOnUse" gradientTransform="translate(483.486 95.3039) rotate(107.526) scale(52.5984)">
<stop stop-color="#95DD7D"/>
<stop offset="1" stop-color="#73E2B2"/>
</radialGradient>
<linearGradient id="paint9_linear" x1="448.508" y1="86.0645" x2="492.066" y2="148.101" gradientUnits="userSpaceOnUse">
<stop stop-color="white" stop-opacity="0.67"/>
<stop offset="1" stop-color="white" stop-opacity="0.13"/>
</linearGradient>
<linearGradient id="paint10_linear" x1="464.394" y1="103.746" x2="455.592" y2="136.916" gradientUnits="userSpaceOnUse">
<stop stop-color="white" stop-opacity="0.63"/>
<stop offset="1" stop-color="white" stop-opacity="0.25"/>
</linearGradient>
<radialGradient id="paint11_radial" cx="0" cy="0" r="1" gradientUnits="userSpaceOnUse" gradientTransform="translate(529.227 512.334) rotate(-58.5283) scale(119.843 121.36)">
<stop stop-color="white" stop-opacity="0"/>
<stop offset="1" stop-color="white"/>
</radialGradient>
<linearGradient id="paint12_linear" x1="516.765" y1="441.604" x2="546.158" y2="514.742" gradientUnits="userSpaceOnUse">
<stop stop-color="white" stop-opacity="0.45"/>
<stop offset="1" stop-color="white" stop-opacity="0.22"/>
</linearGradient>
<radialGradient id="paint13_radial" cx="0" cy="0" r="1" gradientUnits="userSpaceOnUse" gradientTransform="translate(569.422 437.171) rotate(107.526) scale(49.372)">
<stop stop-color="#EDB0C1"/>
<stop offset="1" stop-color="#AFB0E7"/>
</radialGradient>
<linearGradient id="paint14_linear" x1="536.59" y1="428.499" x2="577.476" y2="486.73" gradientUnits="userSpaceOnUse">
<stop stop-color="white" stop-opacity="0.67"/>
<stop offset="1" stop-color="white" stop-opacity="0.13"/>
</linearGradient>
<linearGradient id="paint15_linear" x1="545.752" y1="457.218" x2="538.905" y2="471.126" gradientUnits="userSpaceOnUse">
<stop stop-color="white" stop-opacity="0.63"/>
<stop offset="1" stop-color="white" stop-opacity="0.25"/>
</linearGradient>
<linearGradient id="paint16_linear" x1="534.76" y1="458.719" x2="533.391" y2="461.5" gradientUnits="userSpaceOnUse">
<stop stop-color="white" stop-opacity="0.63"/>
<stop offset="1" stop-color="white" stop-opacity="0.25"/>
</linearGradient>
<linearGradient id="paint17_linear" x1="881.77" y1="425.885" x2="885.834" y2="342.991" gradientUnits="userSpaceOnUse">
<stop stop-color="white" stop-opacity="0"/>
<stop offset="1" stop-color="white"/>
</linearGradient>
<linearGradient id="paint18_linear" x1="851.86" y1="354.011" x2="872.285" y2="404.835" gradientUnits="userSpaceOnUse">
<stop stop-color="white" stop-opacity="0.45"/>
<stop offset="1" stop-color="white" stop-opacity="0.22"/>
</linearGradient>
<radialGradient id="paint19_radial" cx="0" cy="0" r="1" gradientUnits="userSpaceOnUse" gradientTransform="translate(887.411 348.361) rotate(107.526) scale(34.3089)">
<stop stop-color="#F7DCAF"/>
<stop offset="1" stop-color="#E9BC84"/>
</radialGradient>
<linearGradient id="paint20_linear" x1="864.595" y1="342.334" x2="893.007" y2="382.799" gradientUnits="userSpaceOnUse">
<stop stop-color="white" stop-opacity="0.67"/>
<stop offset="1" stop-color="white" stop-opacity="0.13"/>
</linearGradient>
<linearGradient id="paint21_linear" x1="874.122" y1="354.214" x2="866.236" y2="376.255" gradientUnits="userSpaceOnUse">
<stop stop-color="white" stop-opacity="0.63"/>
<stop offset="1" stop-color="white" stop-opacity="0.25"/>
</linearGradient>
<linearGradient id="paint22_linear" x1="1172.16" y1="584.973" x2="1173.32" y2="494.731" gradientUnits="userSpaceOnUse">
<stop stop-color="white" stop-opacity="0"/>
<stop offset="1" stop-color="white"/>
</linearGradient>
<linearGradient id="paint23_linear" x1="1146.65" y1="529.964" x2="1164.3" y2="573.898" gradientUnits="userSpaceOnUse">
<stop stop-color="white" stop-opacity="0.45"/>
<stop offset="1" stop-color="white" stop-opacity="0.22"/>
</linearGradient>
<radialGradient id="paint24_radial" cx="0" cy="0" r="1" gradientUnits="userSpaceOnUse" gradientTransform="translate(1177.51 525.367) rotate(107.526) scale(29.6577)">
<stop stop-color="#EF84A9"/>
<stop offset="1" stop-color="#E46285"/>
</radialGradient>
<linearGradient id="paint25_linear" x1="1157.79" y1="520.157" x2="1182.35" y2="555.136" gradientUnits="userSpaceOnUse">
<stop stop-color="white" stop-opacity="0.67"/>
<stop offset="1" stop-color="white" stop-opacity="0.13"/>
</linearGradient>
<linearGradient id="paint26_linear" x1="1164.59" y1="532.508" x2="1158.32" y2="549.233" gradientUnits="userSpaceOnUse">
<stop stop-color="white" stop-opacity="0.63"/>
<stop offset="1" stop-color="white" stop-opacity="0.25"/>
</linearGradient>
<radialGradient id="paint27_radial" cx="0" cy="0" r="1" gradientUnits="userSpaceOnUse" gradientTransform="translate(1612.47 374.79) rotate(-106.869) scale(113.209 114.642)">
<stop stop-color="white" stop-opacity="0"/>
<stop offset="1" stop-color="white"/>
</radialGradient>
<linearGradient id="paint28_linear" x1="1527.49" y1="285.24" x2="1560.66" y2="367.761" gradientUnits="userSpaceOnUse">
<stop stop-color="white" stop-opacity="0.45"/>
<stop offset="1" stop-color="white" stop-opacity="0.22"/>
</linearGradient>
<radialGradient id="paint29_radial" cx="0" cy="0" r="1" gradientUnits="userSpaceOnUse" gradientTransform="translate(1583.08 272.135) rotate(107.526) scale(55.706)">
<stop stop-color="#F8EFD4"/>
<stop offset="1" stop-color="#F2C94C"/>
</radialGradient>
<linearGradient id="paint30_linear" x1="1546.03" y1="262.349" x2="1592.16" y2="328.051" gradientUnits="userSpaceOnUse">
<stop stop-color="white" stop-opacity="0.67"/>
<stop offset="1" stop-color="white" stop-opacity="0.13"/>
</linearGradient>
<linearGradient id="paint31_linear" x1="1562.98" y1="285.369" x2="1556.88" y2="311.365" gradientUnits="userSpaceOnUse">
<stop stop-color="white" stop-opacity="0.63"/>
<stop offset="1" stop-color="white" stop-opacity="0.25"/>
</linearGradient>
<radialGradient id="paint32_radial" cx="0" cy="0" r="1" gradientUnits="userSpaceOnUse" gradientTransform="translate(1120.02 259.199) rotate(-171.456) scale(89.2543 90.3841)">
<stop stop-color="white" stop-opacity="0"/>
<stop offset="1" stop-color="white"/>
</radialGradient>
<linearGradient id="paint33_linear" x1="1072.76" y1="242.468" x2="1092.42" y2="291.392" gradientUnits="userSpaceOnUse">
<stop stop-color="white" stop-opacity="0.45"/>
<stop offset="1" stop-color="white" stop-opacity="0.22"/>
</linearGradient>
<radialGradient id="paint34_radial" cx="0" cy="0" r="1" gradientUnits="userSpaceOnUse" gradientTransform="translate(1095.86 225.883) rotate(107.526) scale(33.0262)">
<stop stop-color="#8A98F0"/>
<stop offset="1" stop-color="#4B5FE9"/>
</radialGradient>
<linearGradient id="paint35_linear" x1="1073.9" y1="220.081" x2="1101.24" y2="259.033" gradientUnits="userSpaceOnUse">
<stop stop-color="white" stop-opacity="0.67"/>
<stop offset="1" stop-color="white" stop-opacity="0.13"/>
</linearGradient>
<linearGradient id="paint36_linear" x1="1087.92" y1="224.102" x2="1092.94" y2="238.222" gradientUnits="userSpaceOnUse">
<stop stop-color="white" stop-opacity="0.63"/>
<stop offset="1" stop-color="white" stop-opacity="0.25"/>
</linearGradient>
</defs>
</svg>
