<svg width="1440" height="650" viewBox="0 0 1440 650" fill="none" xmlns="http://www.w3.org/2000/svg">
<path d="M0 0H1440V650H200C89.5431 650 0 560.457 0 450V0Z" fill="url(#paint0_linear)"/>
<g opacity="0.4">
<circle r="3.5" transform="matrix(1 0 0 -1 1133.5 206.5)" fill="#FF7039"/>
<circle r="3.5" transform="matrix(1 0 0 -1 1153.5 206.5)" fill="#FF7039"/>
<circle r="3.5" transform="matrix(1 0 0 -1 1173.5 206.5)" fill="#FF7039"/>
<circle r="3.5" transform="matrix(1 0 0 -1 1073.5 206.5)" fill="#FF7039"/>
<circle r="3.5" transform="matrix(1 0 0 -1 1093.5 206.5)" fill="#FF7039"/>
<circle r="3.5" transform="matrix(1 0 0 -1 1113.5 206.5)" fill="#FF7039"/>
<circle r="3.5" transform="matrix(1 0 0 -1 1133.5 226.5)" fill="#FF7039"/>
<circle r="3.5" transform="matrix(1 0 0 -1 1153.5 226.5)" fill="#FF7039"/>
<circle r="3.5" transform="matrix(1 0 0 -1 1173.5 226.5)" fill="#FF7039"/>
<circle r="3.5" transform="matrix(1 0 0 -1 1073.5 226.5)" fill="#FF7039"/>
<circle r="3.5" transform="matrix(1 0 0 -1 1093.5 226.5)" fill="#FF7039"/>
<circle r="3.5" transform="matrix(1 0 0 -1 1113.5 226.5)" fill="#FF7039"/>
<circle r="3.5" transform="matrix(1 0 0 -1 1133.5 246.5)" fill="#FF7039"/>
<circle r="3.5" transform="matrix(1 0 0 -1 1153.5 246.5)" fill="#FF7039"/>
<circle r="3.5" transform="matrix(1 0 0 -1 1173.5 246.5)" fill="#FF7039"/>
<circle r="3.5" transform="matrix(1 0 0 -1 1073.5 246.5)" fill="#FF7039"/>
<circle r="3.5" transform="matrix(1 0 0 -1 1093.5 246.5)" fill="#FF7039"/>
<circle r="3.5" transform="matrix(1 0 0 -1 1113.5 246.5)" fill="#FF7039"/>
<circle r="3.5" transform="matrix(1 0 0 -1 1133.5 266.5)" fill="#FF7039"/>
<circle r="3.5" transform="matrix(1 0 0 -1 1153.5 266.5)" fill="#FF7039"/>
<circle r="3.5" transform="matrix(1 0 0 -1 1173.5 266.5)" fill="#FF7039"/>
<circle r="3.5" transform="matrix(1 0 0 -1 1073.5 266.5)" fill="#FF7039"/>
<circle r="3.5" transform="matrix(1 0 0 -1 1093.5 266.5)" fill="#FF7039"/>
<circle r="3.5" transform="matrix(1 0 0 -1 1113.5 266.5)" fill="#FF7039"/>
<circle r="3.5" transform="matrix(1 0 0 -1 1133.5 286.5)" fill="#FF7039"/>
<circle r="3.5" transform="matrix(1 0 0 -1 1153.5 286.5)" fill="#FF7039"/>
<circle r="3.5" transform="matrix(1 0 0 -1 1173.5 286.5)" fill="#FF7039"/>
<circle r="3.5" transform="matrix(1 0 0 -1 1073.5 286.5)" fill="#FF7039"/>
<circle r="3.5" transform="matrix(1 0 0 -1 1093.5 286.5)" fill="#FF7039"/>
<circle r="3.5" transform="matrix(1 0 0 -1 1113.5 286.5)" fill="#FF7039"/>
<circle r="3.5" transform="matrix(1 0 0 -1 1133.5 186.5)" fill="#FF7039"/>
<circle r="3.5" transform="matrix(1 0 0 -1 1153.5 186.5)" fill="#FF7039"/>
<circle r="3.5" transform="matrix(1 0 0 -1 1173.5 186.5)" fill="#FF7039"/>
<circle r="3.5" transform="matrix(1 0 0 -1 1073.5 186.5)" fill="#FF7039"/>
<circle r="3.5" transform="matrix(1 0 0 -1 1093.5 186.5)" fill="#FF7039"/>
<circle r="3.5" transform="matrix(1 0 0 -1 1113.5 186.5)" fill="#FF7039"/>
<circle r="3.5" transform="matrix(1 0 0 -1 1133.5 326.5)" fill="#FF7039"/>
<circle r="3.5" transform="matrix(1 0 0 -1 1153.5 326.5)" fill="#FF7039"/>
<circle r="3.5" transform="matrix(1 0 0 -1 1173.5 326.5)" fill="#FF7039"/>
<circle r="3.5" transform="matrix(1 0 0 -1 1073.5 326.5)" fill="#FF7039"/>
<circle r="3.5" transform="matrix(1 0 0 -1 1093.5 326.5)" fill="#FF7039"/>
<circle r="3.5" transform="matrix(1 0 0 -1 1113.5 326.5)" fill="#FF7039"/>
<circle r="3.5" transform="matrix(1 0 0 -1 1133.5 346.5)" fill="#FF7039"/>
<circle r="3.5" transform="matrix(1 0 0 -1 1153.5 346.5)" fill="#FF7039"/>
<circle r="3.5" transform="matrix(1 0 0 -1 1173.5 346.5)" fill="#FF7039"/>
<circle r="3.5" transform="matrix(1 0 0 -1 1073.5 346.5)" fill="#FF7039"/>
<circle r="3.5" transform="matrix(1 0 0 -1 1093.5 346.5)" fill="#FF7039"/>
<circle r="3.5" transform="matrix(1 0 0 -1 1113.5 346.5)" fill="#FF7039"/>
<circle r="3.5" transform="matrix(1 0 0 -1 1133.5 366.5)" fill="#FF7039"/>
<circle r="3.5" transform="matrix(1 0 0 -1 1153.5 366.5)" fill="#FF7039"/>
<circle r="3.5" transform="matrix(1 0 0 -1 1173.5 366.5)" fill="#FF7039"/>
<circle r="3.5" transform="matrix(1 0 0 -1 1073.5 366.5)" fill="#FF7039"/>
<circle r="3.5" transform="matrix(1 0 0 -1 1093.5 366.5)" fill="#FF7039"/>
<circle r="3.5" transform="matrix(1 0 0 -1 1113.5 366.5)" fill="#FF7039"/>
<circle r="3.5" transform="matrix(1 0 0 -1 1133.5 386.5)" fill="#FF7039"/>
<circle r="3.5" transform="matrix(1 0 0 -1 1153.5 386.5)" fill="#FF7039"/>
<circle r="3.5" transform="matrix(1 0 0 -1 1173.5 386.5)" fill="#FF7039"/>
<circle r="3.5" transform="matrix(1 0 0 -1 1073.5 386.5)" fill="#FF7039"/>
<circle r="3.5" transform="matrix(1 0 0 -1 1093.5 386.5)" fill="#FF7039"/>
<circle r="3.5" transform="matrix(1 0 0 -1 1113.5 386.5)" fill="#FF7039"/>
<circle r="3.5" transform="matrix(1 0 0 -1 1133.5 406.5)" fill="#FF7039"/>
<circle r="3.5" transform="matrix(1 0 0 -1 1153.5 406.5)" fill="#FF7039"/>
<circle r="3.5" transform="matrix(1 0 0 -1 1173.5 406.5)" fill="#FF7039"/>
<circle r="3.5" transform="matrix(1 0 0 -1 1073.5 406.5)" fill="#FF7039"/>
<circle r="3.5" transform="matrix(1 0 0 -1 1093.5 406.5)" fill="#FF7039"/>
<circle r="3.5" transform="matrix(1 0 0 -1 1113.5 406.5)" fill="#FF7039"/>
<circle r="3.5" transform="matrix(1 0 0 -1 1133.5 306.5)" fill="#FF7039"/>
<circle r="3.5" transform="matrix(1 0 0 -1 1153.5 306.5)" fill="#FF7039"/>
<circle r="3.5" transform="matrix(1 0 0 -1 1173.5 306.5)" fill="#FF7039"/>
<circle r="3.5" transform="matrix(1 0 0 -1 1073.5 306.5)" fill="#FF7039"/>
<circle r="3.5" transform="matrix(1 0 0 -1 1093.5 306.5)" fill="#FF7039"/>
<circle r="3.5" transform="matrix(1 0 0 -1 1113.5 306.5)" fill="#FF7039"/>
</g>
<g opacity="0.4">
<circle r="3.5" transform="matrix(-4.37114e-08 1 1 4.37114e-08 506.5 268.5)" fill="white"/>
<circle r="3.5" transform="matrix(-4.37114e-08 1 1 4.37114e-08 506.5 288.5)" fill="white"/>
<circle r="3.5" transform="matrix(-4.37114e-08 1 1 4.37114e-08 506.5 308.5)" fill="white"/>
<circle r="3.5" transform="matrix(-4.37114e-08 1 1 4.37114e-08 506.5 208.5)" fill="white"/>
<circle r="3.5" transform="matrix(-4.37114e-08 1 1 4.37114e-08 506.5 228.5)" fill="white"/>
<circle r="3.5" transform="matrix(-4.37114e-08 1 1 4.37114e-08 506.5 248.5)" fill="white"/>
<circle r="3.5" transform="matrix(-4.37114e-08 1 1 4.37114e-08 486.5 268.5)" fill="white"/>
<circle r="3.5" transform="matrix(-4.37114e-08 1 1 4.37114e-08 486.5 288.5)" fill="white"/>
<circle r="3.5" transform="matrix(-4.37114e-08 1 1 4.37114e-08 486.5 308.5)" fill="white"/>
<circle r="3.5" transform="matrix(-4.37114e-08 1 1 4.37114e-08 486.5 208.5)" fill="white"/>
<circle r="3.5" transform="matrix(-4.37114e-08 1 1 4.37114e-08 486.5 228.5)" fill="white"/>
<circle r="3.5" transform="matrix(-4.37114e-08 1 1 4.37114e-08 486.5 248.5)" fill="white"/>
<circle r="3.5" transform="matrix(-4.37114e-08 1 1 4.37114e-08 466.5 268.5)" fill="white"/>
<circle r="3.5" transform="matrix(-4.37114e-08 1 1 4.37114e-08 466.5 288.5)" fill="white"/>
<circle r="3.5" transform="matrix(-4.37114e-08 1 1 4.37114e-08 466.5 308.5)" fill="white"/>
<circle r="3.5" transform="matrix(-4.37114e-08 1 1 4.37114e-08 466.5 208.5)" fill="white"/>
<circle r="3.5" transform="matrix(-4.37114e-08 1 1 4.37114e-08 466.5 228.5)" fill="white"/>
<circle r="3.5" transform="matrix(-4.37114e-08 1 1 4.37114e-08 466.5 248.5)" fill="white"/>
<circle r="3.5" transform="matrix(-4.37114e-08 1 1 4.37114e-08 446.5 268.5)" fill="white"/>
<circle r="3.5" transform="matrix(-4.37114e-08 1 1 4.37114e-08 446.5 288.5)" fill="white"/>
<circle r="3.5" transform="matrix(-4.37114e-08 1 1 4.37114e-08 446.5 308.5)" fill="white"/>
<circle r="3.5" transform="matrix(-4.37114e-08 1 1 4.37114e-08 446.5 208.5)" fill="white"/>
<circle r="3.5" transform="matrix(-4.37114e-08 1 1 4.37114e-08 446.5 228.5)" fill="white"/>
<circle r="3.5" transform="matrix(-4.37114e-08 1 1 4.37114e-08 446.5 248.5)" fill="white"/>
<circle r="3.5" transform="matrix(-4.37114e-08 1 1 4.37114e-08 426.5 268.5)" fill="white"/>
<circle r="3.5" transform="matrix(-4.37114e-08 1 1 4.37114e-08 426.5 288.5)" fill="white"/>
<circle r="3.5" transform="matrix(-4.37114e-08 1 1 4.37114e-08 426.5 308.5)" fill="white"/>
<circle r="3.5" transform="matrix(-4.37114e-08 1 1 4.37114e-08 426.5 208.5)" fill="white"/>
<circle r="3.5" transform="matrix(-4.37114e-08 1 1 4.37114e-08 426.5 228.5)" fill="white"/>
<circle r="3.5" transform="matrix(-4.37114e-08 1 1 4.37114e-08 426.5 248.5)" fill="white"/>
<circle r="3.5" transform="matrix(-4.37114e-08 1 1 4.37114e-08 526.5 268.5)" fill="white"/>
<circle r="3.5" transform="matrix(-4.37114e-08 1 1 4.37114e-08 526.5 288.5)" fill="white"/>
<circle r="3.5" transform="matrix(-4.37114e-08 1 1 4.37114e-08 526.5 308.5)" fill="white"/>
<circle r="3.5" transform="matrix(-4.37114e-08 1 1 4.37114e-08 526.5 208.5)" fill="white"/>
<circle r="3.5" transform="matrix(-4.37114e-08 1 1 4.37114e-08 526.5 228.5)" fill="white"/>
<circle r="3.5" transform="matrix(-4.37114e-08 1 1 4.37114e-08 526.5 248.5)" fill="white"/>
<circle r="3.5" transform="matrix(-4.37114e-08 1 1 4.37114e-08 386.5 268.5)" fill="white"/>
<circle r="3.5" transform="matrix(-4.37114e-08 1 1 4.37114e-08 386.5 288.5)" fill="white"/>
<circle r="3.5" transform="matrix(-4.37114e-08 1 1 4.37114e-08 386.5 308.5)" fill="white"/>
<circle r="3.5" transform="matrix(-4.37114e-08 1 1 4.37114e-08 386.5 208.5)" fill="white"/>
<circle r="3.5" transform="matrix(-4.37114e-08 1 1 4.37114e-08 386.5 228.5)" fill="white"/>
<circle r="3.5" transform="matrix(-4.37114e-08 1 1 4.37114e-08 386.5 248.5)" fill="white"/>
<circle r="3.5" transform="matrix(-4.37114e-08 1 1 4.37114e-08 366.5 268.5)" fill="white"/>
<circle r="3.5" transform="matrix(-4.37114e-08 1 1 4.37114e-08 366.5 288.5)" fill="white"/>
<circle r="3.5" transform="matrix(-4.37114e-08 1 1 4.37114e-08 366.5 308.5)" fill="white"/>
<circle r="3.5" transform="matrix(-4.37114e-08 1 1 4.37114e-08 366.5 208.5)" fill="white"/>
<circle r="3.5" transform="matrix(-4.37114e-08 1 1 4.37114e-08 366.5 228.5)" fill="white"/>
<circle r="3.5" transform="matrix(-4.37114e-08 1 1 4.37114e-08 366.5 248.5)" fill="white"/>
<circle r="3.5" transform="matrix(-4.37114e-08 1 1 4.37114e-08 346.5 268.5)" fill="white"/>
<circle r="3.5" transform="matrix(-4.37114e-08 1 1 4.37114e-08 346.5 288.5)" fill="white"/>
<circle r="3.5" transform="matrix(-4.37114e-08 1 1 4.37114e-08 346.5 308.5)" fill="white"/>
<circle r="3.5" transform="matrix(-4.37114e-08 1 1 4.37114e-08 346.5 208.5)" fill="white"/>
<circle r="3.5" transform="matrix(-4.37114e-08 1 1 4.37114e-08 346.5 228.5)" fill="white"/>
<circle r="3.5" transform="matrix(-4.37114e-08 1 1 4.37114e-08 346.5 248.5)" fill="white"/>
<circle r="3.5" transform="matrix(-4.37114e-08 1 1 4.37114e-08 326.5 268.5)" fill="white"/>
<circle r="3.5" transform="matrix(-4.37114e-08 1 1 4.37114e-08 326.5 288.5)" fill="white"/>
<circle r="3.5" transform="matrix(-4.37114e-08 1 1 4.37114e-08 326.5 308.5)" fill="white"/>
<circle r="3.5" transform="matrix(-4.37114e-08 1 1 4.37114e-08 326.5 208.5)" fill="white"/>
<circle r="3.5" transform="matrix(-4.37114e-08 1 1 4.37114e-08 326.5 228.5)" fill="white"/>
<circle r="3.5" transform="matrix(-4.37114e-08 1 1 4.37114e-08 326.5 248.5)" fill="white"/>
<circle r="3.5" transform="matrix(-4.37114e-08 1 1 4.37114e-08 306.5 268.5)" fill="white"/>
<circle r="3.5" transform="matrix(-4.37114e-08 1 1 4.37114e-08 306.5 288.5)" fill="white"/>
<circle r="3.5" transform="matrix(-4.37114e-08 1 1 4.37114e-08 306.5 308.5)" fill="white"/>
<circle r="3.5" transform="matrix(-4.37114e-08 1 1 4.37114e-08 306.5 208.5)" fill="white"/>
<circle r="3.5" transform="matrix(-4.37114e-08 1 1 4.37114e-08 306.5 228.5)" fill="white"/>
<circle r="3.5" transform="matrix(-4.37114e-08 1 1 4.37114e-08 306.5 248.5)" fill="white"/>
<circle r="3.5" transform="matrix(-4.37114e-08 1 1 4.37114e-08 406.5 268.5)" fill="white"/>
<circle r="3.5" transform="matrix(-4.37114e-08 1 1 4.37114e-08 406.5 288.5)" fill="white"/>
<circle r="3.5" transform="matrix(-4.37114e-08 1 1 4.37114e-08 406.5 308.5)" fill="white"/>
<circle r="3.5" transform="matrix(-4.37114e-08 1 1 4.37114e-08 406.5 208.5)" fill="white"/>
<circle r="3.5" transform="matrix(-4.37114e-08 1 1 4.37114e-08 406.5 228.5)" fill="white"/>
<circle r="3.5" transform="matrix(-4.37114e-08 1 1 4.37114e-08 406.5 248.5)" fill="white"/>
</g>
<mask id="mask0" mask-type="alpha" maskUnits="userSpaceOnUse" x="0" y="0" width="1440" height="650">
<path d="M0 0H1440V650H200C89.5431 650 0 560.457 0 450V0Z" fill="url(#paint1_linear)"/>
</mask>
<g mask="url(#mask0)">
<rect opacity="0.4" x="1475.39" y="40.3894" width="588" height="771.297" transform="rotate(45 1475.39 40.3894)" fill="url(#paint2_linear)"/>
<rect opacity="0.4" x="94.436" y="-412" width="652" height="652" rx="150" transform="rotate(45.1745 94.436 -412)" fill="url(#paint3_linear)"/>
</g>
<path opacity="0.6" fill-rule="evenodd" clip-rule="evenodd" d="M0 433V441C0 551.457 89.5431 641 200 641H1440V633H200C89.5431 633 0 543.457 0 433Z" fill="#FF7039"/>
<path fill-rule="evenodd" clip-rule="evenodd" d="M0 418V426C0 536.457 89.5431 626 200 626H1440V618H200C89.5431 618 0 528.457 0 418Z" fill="#FFDEAA"/>
<defs>
<linearGradient id="paint0_linear" x1="550" y1="7.17393e-06" x2="926" y2="665" gradientUnits="userSpaceOnUse">
<stop stop-color="#FFAF66"/>
<stop offset="1" stop-color="#FFC466"/>
</linearGradient>
<linearGradient id="paint1_linear" x1="550" y1="7.17393e-06" x2="926" y2="665" gradientUnits="userSpaceOnUse">
<stop stop-color="#FFAF66"/>
<stop offset="1" stop-color="#FFC466"/>
</linearGradient>
<linearGradient id="paint2_linear" x1="1769.39" y1="40.3894" x2="1769.39" y2="811.686" gradientUnits="userSpaceOnUse">
<stop stop-color="white"/>
<stop offset="1" stop-color="#C4C4C4" stop-opacity="0"/>
</linearGradient>
<linearGradient id="paint3_linear" x1="420.436" y1="-412" x2="420.436" y2="240" gradientUnits="userSpaceOnUse">
<stop stop-color="#FF7039"/>
<stop offset="1" stop-color="#FF7039" stop-opacity="0"/>
</linearGradient>
</defs>
</svg>
