<svg width="1170" height="251" viewBox="0 0 1170 251" fill="none" xmlns="http://www.w3.org/2000/svg">
<path d="M980.84 220.876V227.579C980.836 230.272 979.797 232.862 977.935 234.821C976.072 236.78 973.526 237.96 970.817 238.121V224.847C970.817 224.505 970.539 224.227 970.197 224.227C969.855 224.227 969.578 224.505 969.578 224.847V238.121C966.868 237.96 964.323 236.78 962.46 234.821C960.598 232.862 959.558 230.272 959.555 227.579V220.876C959.555 218.075 960.676 215.39 962.672 213.41C964.668 211.43 967.375 210.317 970.197 210.317C973.02 210.317 975.727 211.43 977.723 213.41C979.719 215.39 980.84 218.075 980.84 220.876Z" fill="#E6E6E6"/>
<path d="M1131.5 68.9479V68.8961L1125.5 67.4602L1123.5 57.4775H1118.61H1086.16C1083.95 57.4775 1082.16 59.2684 1082.16 61.4775V67.6671L1075.27 68.8961V178.702L1081.5 184.028L1081.89 248.738H1131.5V68.9479Z" fill="white"/>
<path d="M893.516 224.818V248.655H907.453V224.818H893.516Z" fill="white"/>
<path d="M1030.22 22.0285V30.5812H1025.21V22.0117L1025.23 22.0285H1030.22Z" fill="#E6E6E6"/>
<path d="M1033.99 30.5791H1032.21C1031.1 30.5791 1030.21 31.4745 1030.21 32.5791V39.8133C1030.21 40.9179 1031.1 41.8133 1032.21 41.8133H1033.99C1035.1 41.8133 1035.99 40.9179 1035.99 39.8133V32.5791C1035.99 31.4745 1035.1 30.5791 1033.99 30.5791Z" fill="#E6E6E6"/>
<path opacity="0.5" d="M1132 68.4521H1127C1125.9 68.4521 1125 69.3476 1125 70.4521V247.008C1125 248.112 1125.9 249.008 1127 249.008H1130C1131.1 249.008 1132 248.112 1132 247.008V68.4521Z" fill="#E6E6E6"/>
<path d="M1045.99 248.74H1080.65L1081 184.524L1056.23 165.195C1055.88 164.92 1055.45 164.771 1055 164.771H1001.2C1000.75 164.771 1000.31 164.924 999.958 165.205L976.713 183.665H990.931V184.882H975.457V210.295C977.443 211.269 979.115 212.774 980.286 214.641C981.456 216.507 982.077 218.661 982.079 220.859V227.562C982.081 229.152 981.757 230.725 981.126 232.187C980.496 233.649 979.573 234.968 978.413 236.065V248.724H1045.99V248.74Z" fill="white"/>
<path d="M1123.08 57.54C1124.18 57.54 1125.08 58.4355 1125.08 59.54V66.7257C1125.08 67.8303 1124.18 68.7257 1123.08 68.7257H1121C1119.9 68.7257 1119 67.8303 1119 66.7257V59.54C1119 58.4355 1119.9 57.54 1121 57.54H1123.08Z" fill="#E6E6E6"/>
<path d="M1020.86 209.257V202.042C1020.86 200.021 1019.22 198.382 1017.2 198.382C1015.17 198.382 1013.54 200.021 1013.54 202.042V209.257C1013.54 211.279 1015.17 212.918 1017.2 212.918C1019.22 212.918 1020.86 211.279 1020.86 209.257Z" fill="#F7F7F7"/>
<path d="M1035.99 209.257V202.042C1035.99 200.021 1034.35 198.382 1032.33 198.382C1030.31 198.382 1028.67 200.021 1028.67 202.042V209.257C1028.67 211.279 1030.31 212.918 1032.33 212.918C1034.35 212.918 1035.99 211.279 1035.99 209.257Z" fill="#E6E6E6"/>
<path d="M985.5 102.678L984.467 94.9395H949.695V102.375H955.208V103.593H944.053V198.466L948 199.901V213.789L946.451 214.185C945.123 214.524 944.194 215.721 944.194 217.092V248.732H970V239.086C966.961 238.925 963.668 237.87 961.574 235.681C959.479 233.492 958.309 230.59 958.305 227.571V220.868C958.305 218.967 958.769 217.094 959.656 215.409C960.544 213.724 961.829 212.277 963.402 211.192C964.976 210.106 966.79 209.415 968.691 209.175C970.592 208.936 972.523 209.156 974.32 209.818L975 184.524L991 171.131L990.5 103.593L985.5 102.678Z" fill="white"/>
<path d="M781 229.188C781.013 232.101 779.946 234.908 778.02 237.028C776.094 239.148 772.803 240.418 770 240.575V229.167L769.38 229.663V240.575C767.234 240.45 765.17 239.674 763.444 238.344C761.718 237.014 760.405 235.189 759.668 233.093C758.93 230.997 758.8 228.722 759.295 226.551C759.789 224.379 760.885 222.406 762.448 220.874C764.011 219.342 765.972 218.319 768.089 217.931C770.206 217.544 772.386 217.809 774.36 218.693C776.334 219.578 778.014 221.043 779.194 222.908C780.374 224.773 781.002 226.956 781 229.188Z" fill="#E6E6E6"/>
<path d="M1036 30.7535L1031 29.7614L1030.21 22.032L1025.5 21.3289L1019.59 13.6133H1004.03L998 21.3289L992.772 22.032L992 29.7614L987.141 30.5791V40.5173L978.441 41.8133V93.6828L984.5 94.7416L985.722 102.375L990.5 103.67L991.353 170.412L999.941 163.552H1046V41.8133L1036.5 40.6741L1036 30.7535Z" fill="white"/>
<path d="M853.125 196.22C852.585 195.766 851.902 195.518 851.196 195.518H807.088L813.757 201.163C814.045 201.407 814.046 201.852 813.759 202.098C813.53 202.295 813.192 202.295 812.962 202.1L805.669 195.897L788.091 210.869C787.95 210.989 788.035 211.221 788.221 211.221H810.405V212.45H790.928C789.823 212.45 788.928 213.345 788.928 214.45V248.655H870V211.226H870.989L853.125 196.22Z" fill="white"/>
<path d="M867.596 212.497C868.7 212.498 869.594 213.394 869.594 214.497V246.655C869.594 247.759 868.699 248.655 867.594 248.655H828.246C827.142 248.655 826.246 247.759 826.246 246.655V214.452C826.246 213.346 827.143 212.45 828.248 212.452L867.596 212.497Z" fill="#E6E6E6"/>
<path d="M886.033 214.286C884.363 214.286 883.015 215.649 883.033 217.319L883.378 248.655H892.247L893.499 224.703H907.499L908.717 248.745H942.926L943.448 217.336C943.476 215.66 942.125 214.286 940.448 214.286H886.033Z" fill="white"/>
<path d="M916.88 245.493H915.643C915.09 245.493 914.643 245.941 914.643 246.493V248.744H917.88V246.493C917.88 245.941 917.433 245.493 916.88 245.493Z" fill="white"/>
<path d="M945.007 199.684C946.664 199.684 948.007 201.027 948.007 202.684V210.549C948.007 212.206 946.664 213.549 945.007 213.549H881.322C879.665 213.549 878.322 212.206 878.322 210.549V207.505H903.549V206.287H878.322V202.684C878.322 201.027 879.665 199.684 881.322 199.684H945.007Z" fill="white"/>
<path d="M804.543 235.005V227.801C804.543 225.779 802.904 224.141 800.883 224.141C798.861 224.141 797.223 225.779 797.223 227.801V235.005C797.223 237.026 798.861 238.665 800.883 238.665C802.904 238.665 804.543 237.026 804.543 235.005Z" fill="#F7F7F7"/>
<path d="M977.148 237.107V248.722H970.818V239.342C973.102 239.222 975.301 238.446 977.148 237.107Z" fill="white"/>
<path d="M1079.77 184.033C1080.32 184.033 1080.77 184.481 1080.77 185.033V248.595H1051C1048.24 248.595 1046 246.356 1046 243.595V189.028C1046 186.266 1048.24 184.028 1051 184.028L1079.77 184.033Z" fill="#E6E6E6"/>
<path d="M1087.88 112.904V92.3208C1087.88 90.2915 1086.23 88.6465 1084.2 88.6465C1082.17 88.6465 1080.53 90.2915 1080.53 92.3208V112.904C1080.53 114.933 1082.17 116.578 1084.2 116.578C1086.23 116.578 1087.88 114.933 1087.88 112.904Z" fill="#F7F7F7"/>
<path d="M1103.05 112.904V92.3208C1103.05 90.2915 1101.41 88.6465 1099.38 88.6465C1097.35 88.6465 1095.7 90.2915 1095.7 92.3208V112.904C1095.7 114.933 1097.35 116.578 1099.38 116.578C1101.41 116.578 1103.05 114.933 1103.05 112.904Z" fill="#F7F7F7"/>
<path d="M1087.88 80.2229V78.6333C1087.88 76.604 1086.23 74.959 1084.2 74.959C1082.17 74.959 1080.53 76.604 1080.53 78.6333V80.2229C1080.53 82.2522 1082.17 83.8972 1084.2 83.8972C1086.23 83.8972 1087.88 82.2522 1087.88 80.2229Z" fill="#F7F7F7"/>
<path d="M1103.05 80.2229V78.6333C1103.05 76.604 1101.41 74.959 1099.38 74.959C1097.35 74.959 1095.7 76.604 1095.7 78.6333V80.2229C1095.7 82.2522 1097.35 83.8972 1099.38 83.8972C1101.41 83.8972 1103.05 82.2522 1103.05 80.2229Z" fill="#F7F7F7"/>
<path d="M1033.78 177.217C1035.01 177.217 1036.02 178.218 1036.02 179.452C1036.02 180.686 1035.01 181.686 1033.78 181.686H1033.18C1031.63 181.686 1030.38 182.937 1030.38 184.48V185.02C1030.38 186.264 1029.38 187.273 1028.13 187.273C1026.89 187.273 1025.88 186.264 1025.88 185.02V184.48C1025.88 182.937 1024.63 181.686 1023.09 181.686H1022.48C1021.25 181.686 1020.25 180.686 1020.25 179.452C1020.25 178.218 1021.25 177.217 1022.48 177.217H1023.09C1024.63 177.217 1025.88 175.967 1025.88 174.424V173.883C1025.88 172.639 1026.89 171.631 1028.13 171.631C1029.38 171.631 1030.38 172.639 1030.38 173.883V174.424C1030.38 175.967 1031.63 177.217 1033.18 177.217H1033.78Z" fill="#E6E6E6"/>
<path d="M992.161 64.047V52.1058C992.161 50.075 990.515 48.4287 988.484 48.4287C986.453 48.4287 984.807 50.075 984.807 52.1058V64.047C984.807 66.0778 986.453 67.7241 988.484 67.7241C990.515 67.7241 992.161 66.0778 992.161 64.047Z" fill="#F7F7F7"/>
<path d="M1004.51 64.0498V52.103C1004.51 50.0737 1002.87 48.4287 1000.84 48.4287C998.811 48.4287 997.166 50.0737 997.166 52.103V64.0498C997.166 66.079 998.811 67.7241 1000.84 67.7241C1002.87 67.7241 1004.51 66.079 1004.51 64.0498Z" fill="#E6E6E6"/>
<path d="M1016.9 64.0498V52.103C1016.9 50.0737 1015.26 48.4287 1013.23 48.4287C1011.2 48.4287 1009.55 50.0737 1009.55 52.103V64.0498C1009.55 66.079 1011.2 67.7241 1013.23 67.7241C1015.26 67.7241 1016.9 66.079 1016.9 64.0498Z" fill="#E6E6E6"/>
<path d="M1029.29 64.0498V52.103C1029.29 50.0737 1027.64 48.4287 1025.62 48.4287C1023.59 48.4287 1021.94 50.0737 1021.94 52.103V64.0498C1021.94 66.079 1023.59 67.7241 1025.62 67.7241C1027.64 67.7241 1029.29 66.079 1029.29 64.0498Z" fill="#E6E6E6"/>
<path d="M687.366 248.667H648.615C648.275 248.667 648 248.942 648 249.281C648 249.621 648.275 249.896 648.615 249.896H687.366C687.705 249.896 687.981 249.621 687.981 249.281C687.981 248.942 687.705 248.667 687.366 248.667Z" fill="#494949"/>
<path d="M743.609 244.572C743.615 244.759 743.6 244.947 743.564 245.131C743.567 245.159 743.567 245.187 743.564 245.215C743.554 245.251 743.541 245.287 743.525 245.321L743.463 245.483C743.309 245.925 743.015 246.307 742.626 246.571C742.237 246.836 741.772 246.969 741.3 246.952C740.821 246.951 740.353 246.803 739.962 246.528C739.571 246.253 739.275 245.864 739.116 245.416C739.062 245.29 739.024 245.159 739.003 245.025C738.991 244.876 738.991 244.726 739.003 244.578C738.992 244.438 738.992 244.298 739.003 244.159C739.094 243.621 739.375 243.132 739.796 242.781C740.217 242.43 740.75 242.239 741.3 242.243C741.779 242.234 742.248 242.373 742.643 242.641C743.038 242.91 743.338 243.294 743.502 243.74C743.515 243.776 743.527 243.814 743.536 243.851C743.541 243.875 743.541 243.9 743.536 243.924C743.553 243.965 743.565 244.008 743.57 244.053C743.602 244.224 743.615 244.398 743.609 244.572Z" fill="white"/>
<path d="M743.501 236.111L742.197 234.935H742.231L738.373 227.712C738.199 227.386 737.86 227.183 737.491 227.183H721.722C721.345 227.183 721 227.395 720.83 227.731L717.184 234.935L716.001 236.111L710.258 236.611V243.734H714.2C714.388 242.835 714.883 242.028 715.601 241.449C716.319 240.869 717.216 240.553 718.141 240.553C719.067 240.553 719.964 240.869 720.682 241.449C721.4 242.028 721.895 242.835 722.083 243.734H737.36C737.555 242.839 738.052 242.036 738.769 241.459C739.485 240.882 740.379 240.565 741.302 240.56C742.227 240.556 743.126 240.87 743.844 241.448C744.563 242.027 745.058 242.834 745.244 243.734H749.135V236.611L743.501 236.111ZM723.001 235.615L724.501 231.151H734.001L735.501 235.615H723.001Z" fill="white"/>
<path d="M745.383 234.924C744.645 234.924 743.967 234.517 743.619 233.865L739.72 226.563C739.372 225.912 738.694 225.505 737.956 225.505H721.392C720.643 225.505 719.957 225.923 719.614 226.588L715.313 234.924H710.59C709.485 234.924 708.59 235.819 708.59 236.924V243.398C708.59 244.503 709.485 245.398 710.59 245.398H714.221C714.404 246.301 714.897 247.114 715.615 247.698C716.334 248.282 717.234 248.601 718.163 248.601C719.091 248.601 719.992 248.282 720.71 247.698C721.429 247.114 721.921 246.301 722.104 245.398H737.381C737.569 246.3 738.063 247.11 738.78 247.695C739.498 248.279 740.395 248.602 741.323 248.61C742.254 248.612 743.156 248.292 743.875 247.706C744.595 247.12 745.086 246.304 745.265 245.398H748.845C749.95 245.398 750.845 244.503 750.845 243.398V236.924C750.845 235.819 749.95 234.924 748.845 234.924H745.383ZM720.297 245.409C720.132 245.856 719.838 246.244 719.452 246.526C719.063 246.802 718.596 246.951 718.118 246.951C717.638 246.944 717.172 246.794 716.78 246.519C716.389 246.245 716.089 245.86 715.921 245.415C715.921 245.353 715.882 245.292 715.865 245.225C715.805 245.014 715.773 244.796 715.769 244.577C715.787 244.293 715.838 244.011 715.921 243.739C716.099 243.303 716.401 242.928 716.792 242.662C717.183 242.395 717.644 242.249 718.118 242.242C718.591 242.244 719.052 242.389 719.441 242.656C719.829 242.923 720.128 243.301 720.297 243.739C720.394 244.008 720.444 244.291 720.443 244.577C720.451 244.861 720.401 245.144 720.297 245.409ZM743.564 245.124C743.567 245.152 743.567 245.18 743.564 245.208C743.555 245.245 743.541 245.28 743.525 245.314L743.463 245.476C743.309 245.919 743.016 246.3 742.626 246.565C742.237 246.829 741.772 246.963 741.301 246.945C740.821 246.945 740.354 246.797 739.962 246.522C739.571 246.246 739.275 245.858 739.116 245.409C739.062 245.284 739.025 245.152 739.003 245.018C738.992 244.869 738.992 244.72 739.003 244.571C738.992 244.432 738.992 244.292 739.003 244.152C739.094 243.614 739.375 243.126 739.796 242.775C740.217 242.423 740.751 242.233 741.301 242.236C741.779 242.227 742.249 242.366 742.643 242.635C743.038 242.903 743.338 243.287 743.502 243.733C743.516 243.77 743.527 243.807 743.536 243.845C743.541 243.869 743.541 243.894 743.536 243.918C743.553 243.959 743.565 244.002 743.57 244.046C743.605 244.219 743.62 244.395 743.615 244.571C743.619 244.757 743.602 244.942 743.564 245.124ZM749.109 242.731C749.11 243.284 748.662 243.733 748.109 243.733H745.22C745.034 242.834 744.539 242.026 743.821 241.448C743.102 240.869 742.204 240.556 741.278 240.56C740.355 240.565 739.462 240.882 738.745 241.459C738.028 242.036 737.531 242.838 737.336 243.733H722.059C721.871 242.834 721.376 242.028 720.658 241.448C719.94 240.869 719.043 240.553 718.118 240.553C717.192 240.553 716.295 240.869 715.577 241.448C714.859 242.028 714.364 242.834 714.176 243.733H711.234C710.682 243.733 710.234 243.285 710.234 242.733V237.611C710.234 237.058 710.682 236.611 711.234 236.611H715.074C715.82 236.611 716.504 236.196 716.848 235.534L717.16 234.935L720.642 228.266C720.987 227.606 721.67 227.192 722.415 227.192H736.895C737.634 227.192 738.314 227.6 738.661 228.253L742.213 234.935L742.512 235.52C742.854 236.189 743.542 236.611 744.293 236.611H748.096C748.648 236.611 749.095 237.057 749.096 237.608L749.109 242.731Z" fill="#494949"/>
<path d="M720.443 244.572C720.452 244.858 720.402 245.143 720.297 245.41C720.132 245.856 719.838 246.245 719.452 246.527C719.063 246.803 718.596 246.951 718.118 246.951C717.638 246.944 717.172 246.794 716.78 246.52C716.389 246.246 716.089 245.861 715.922 245.415C715.922 245.354 715.882 245.292 715.865 245.225C715.805 245.014 715.773 244.796 715.77 244.577C715.787 244.293 715.838 244.012 715.922 243.739C716.099 243.303 716.401 242.929 716.792 242.662C717.183 242.396 717.644 242.25 718.118 242.242C718.591 242.245 719.052 242.389 719.441 242.657C719.829 242.924 720.128 243.301 720.297 243.739C720.394 244.006 720.443 244.288 720.443 244.572Z" fill="white"/>
<path d="M932.336 224.148H919.754C918.097 224.148 916.754 225.492 916.754 227.148V231.763C916.754 233.419 918.097 234.763 919.754 234.763H932.336C933.993 234.763 935.336 233.419 935.336 231.763V227.148C935.336 225.492 933.993 224.148 932.336 224.148Z" fill="#E6E6E6"/>
<path d="M905.538 238.884V235.654C905.538 235.312 905.26 235.034 904.918 235.034C904.576 235.034 904.299 235.312 904.299 235.654V238.884C904.299 239.226 904.576 239.503 904.918 239.503C905.26 239.503 905.538 239.226 905.538 238.884Z" fill="#4D4D4D"/>
<path d="M736.878 233.694C737.564 235.025 736.597 236.61 735.1 236.61H724.247C722.759 236.61 721.792 235.044 722.458 233.714L723.653 231.329C723.992 230.652 724.684 230.225 725.441 230.225H733.872C734.62 230.225 735.307 230.643 735.65 231.309L736.878 233.694Z" fill="#E6E6E6"/>
<path d="M1103.05 112.904V92.3208C1103.05 90.2915 1101.41 88.6465 1099.38 88.6465C1097.35 88.6465 1095.7 90.2915 1095.7 92.3208V112.904C1095.7 114.933 1097.35 116.578 1099.38 116.578C1101.41 116.578 1103.05 114.933 1103.05 112.904Z" fill="#F7F7F7"/>
<path d="M1118.23 112.904V92.3208C1118.23 90.2915 1116.58 88.6465 1114.55 88.6465C1112.52 88.6465 1110.88 90.2915 1110.88 92.3208V112.904C1110.88 114.933 1112.52 116.578 1114.55 116.578C1116.58 116.578 1118.23 114.933 1118.23 112.904Z" fill="#E6E6E6"/>
<path d="M1103.05 80.2229V78.6333C1103.05 76.604 1101.41 74.959 1099.38 74.959C1097.35 74.959 1095.7 76.604 1095.7 78.6333V80.2229C1095.7 82.2522 1097.35 83.8972 1099.38 83.8972C1101.41 83.8972 1103.05 82.2522 1103.05 80.2229Z" fill="#F7F7F7"/>
<path d="M1118.23 80.2229V78.6333C1118.23 76.604 1116.58 74.959 1114.55 74.959C1112.52 74.959 1110.88 76.604 1110.88 78.6333V80.2229C1110.88 82.2522 1112.52 83.8972 1114.55 83.8972C1116.58 83.8972 1118.23 82.2522 1118.23 80.2229Z" fill="#E6E6E6"/>
<path d="M979.607 121.627V114.423C979.607 112.401 977.969 110.763 975.947 110.763C973.926 110.763 972.287 112.401 972.287 114.423V121.627C972.287 123.649 973.926 125.287 975.947 125.287C977.969 125.287 979.607 123.649 979.607 121.627Z" fill="#E6E6E6"/>
<path d="M1043.37 41.8135H1037.99C1036.89 41.8135 1035.99 42.7089 1035.99 43.8135V161.552C1035.99 162.656 1036.89 163.552 1037.99 163.552H1043.37C1044.47 163.552 1045.37 162.656 1045.37 161.552V43.8135C1045.37 42.7089 1044.47 41.8135 1043.37 41.8135Z" fill="#E6E6E6"/>
<path d="M954.977 121.627V114.423C954.977 112.401 953.338 110.763 951.316 110.763C949.295 110.763 947.656 112.401 947.656 114.423V121.627C947.656 123.649 949.295 125.287 951.316 125.287C953.338 125.287 954.977 123.649 954.977 121.627Z" fill="#F7F7F7"/>
<path d="M967.293 121.627V114.423C967.293 112.401 965.654 110.763 963.633 110.763C961.611 110.763 959.973 112.401 959.973 114.423V121.627C959.973 123.649 961.611 125.287 963.633 125.287C965.654 125.287 967.293 123.649 967.293 121.627Z" fill="#F7F7F7"/>
<path d="M990.738 171.169C990.738 171.773 990.466 172.344 989.997 172.724L987.259 174.941C985.951 176 984 175.069 984 173.387V105.671C984 104.566 984.895 103.671 986 103.671H988.738C989.843 103.671 990.738 104.566 990.738 105.671V171.169Z" fill="#E6E6E6"/>
<path d="M1132.71 248.739V69.6676C1132.71 68.563 1131.81 67.6676 1130.71 67.6676H1126.95C1126.4 67.6676 1125.95 67.2199 1125.95 66.6676V61.2546C1125.95 58.4932 1123.71 56.2546 1120.95 56.2546H1105.07C1104.52 56.2546 1104.07 55.8069 1104.07 55.2546V42.1735C1104.07 41.8299 1103.79 41.5513 1103.45 41.5513C1103.11 41.5513 1102.83 41.8299 1102.83 42.1735V55.2546C1102.83 55.8069 1102.38 56.2546 1101.83 56.2546H1085.9C1083.14 56.2546 1080.9 58.4932 1080.9 61.2546V65.6676C1080.9 66.7722 1080 67.6676 1078.9 67.6676H1076C1074.9 67.6676 1074 68.563 1074 69.6676V177.719L1057.62 164.644C1056.74 163.937 1055.64 163.552 1054.5 163.552H1046.61V43.5904C1046.61 41.9336 1045.26 40.5904 1043.61 40.5904H1039.26C1038.15 40.5904 1037.26 39.695 1037.26 38.5904V32.3562C1037.26 30.6994 1035.92 29.3562 1034.26 29.3562H1033.48C1032.37 29.3562 1031.48 28.4608 1031.48 27.3562V23.8035C1031.48 22.1466 1030.13 20.8035 1028.48 20.8035H1026.95C1026.28 20.8035 1025.66 20.4718 1025.29 19.9187L1021.11 13.6896C1020.55 12.86 1019.61 12.3625 1018.62 12.3625H1014.22C1013.11 12.3625 1012.22 11.467 1012.22 10.3625V0.609486C1012.22 0.272876 1011.95 0 1011.61 0C1011.27 0 1011 0.272071 1011 0.608164L1010.98 10.3668C1010.98 11.4697 1010.08 12.3625 1008.98 12.3625H1004.93C1003.97 12.3625 1003.07 12.8236 1002.5 13.6024L997.883 19.9769C997.507 20.4961 996.905 20.8035 996.264 20.8035H994.496C992.839 20.8035 991.496 22.1466 991.496 23.8035V27.3562C991.496 28.4608 990.6 29.3562 989.496 29.3562H988.865C987.208 29.3562 985.865 30.6994 985.865 32.3562V38.529C985.865 39.6335 984.969 40.529 983.865 40.529H980.137C978.48 40.529 977.137 41.8721 977.137 43.529V93.7001H969.845C968.741 93.7001 967.845 92.8047 967.845 91.7001V74.0271C967.845 73.6773 967.562 73.3936 967.212 73.3936C966.862 73.3936 966.578 73.6773 966.578 74.0271V91.6833C966.578 92.7879 965.683 93.6833 964.578 93.6833H951.418C949.761 93.6833 948.418 95.0265 948.418 96.6833V102.376H945.787C944.13 102.376 942.787 103.719 942.787 105.376V198.461H881.056C878.846 198.461 877.056 200.252 877.056 202.461V211.867C877.056 213.466 878.352 214.762 879.952 214.762C881.151 214.762 882.124 215.735 882.124 216.934V248.649H870.861V212.45H872.471C873.12 212.45 873.417 211.641 872.922 211.221L854.371 195.481C853.468 194.715 852.321 194.294 851.136 194.294H807.506C806.321 194.294 805.175 194.715 804.271 195.481L786.849 210.264C785.968 211.011 786.497 212.45 787.651 212.45V248.655H770.392V240.951C773.485 240.791 776.393 239.439 778.496 237.183C780.599 234.927 781.731 231.945 781.65 228.873C781.569 225.801 780.282 222.882 778.064 220.737C775.845 218.593 772.87 217.393 769.773 217.393C766.675 217.393 763.7 218.593 761.481 220.737C759.263 222.882 757.976 225.801 757.895 228.873C757.814 231.945 758.946 234.927 761.049 237.183C763.152 239.439 766.06 240.791 769.153 240.951V248.655H699.16C698.823 248.655 698.551 248.928 698.551 249.264C698.551 249.6 698.823 249.873 699.16 249.873L1170 249.957V248.739H1132.71ZM769.153 238.708C769.153 239.283 768.668 239.744 768.1 239.655C765.711 239.281 763.507 238.115 761.858 236.332C759.969 234.288 758.958 231.595 759.039 228.824C759.119 226.053 760.285 223.423 762.29 221.491C764.294 219.559 766.978 218.478 769.773 218.478C772.567 218.478 775.251 219.559 777.255 221.491C779.26 223.423 780.426 226.053 780.507 228.824C780.587 231.595 779.576 234.288 777.687 236.332C776.038 238.115 773.834 239.281 771.445 239.655C770.877 239.744 770.392 239.283 770.392 238.708V229.577C770.392 229.235 770.115 228.957 769.773 228.957C769.43 228.957 769.153 229.235 769.153 229.577V238.708ZM869.594 248.655H788.929V214.45C788.929 213.345 789.825 212.45 790.929 212.45H809.803C810.142 212.45 810.418 212.175 810.418 211.835C810.418 211.496 810.142 211.221 809.803 211.221H788.234C788.048 211.221 787.962 210.989 788.104 210.869L805.022 196.45C805.396 196.131 805.945 196.131 806.319 196.45L812.952 202.099C813.182 202.295 813.52 202.294 813.75 202.098C814.037 201.852 814.036 201.407 813.747 201.163L807.495 195.87C807.353 195.75 807.438 195.517 807.624 195.517H851.187C851.892 195.517 852.575 195.766 853.115 196.219L870.57 210.868C870.713 210.988 870.628 211.221 870.442 211.221H826.861C826.522 211.221 826.247 211.496 826.247 211.835C826.247 212.175 826.522 212.45 826.861 212.45H867.605C868.71 212.45 869.605 213.346 869.605 214.45L869.594 248.655ZM978.443 43.8138C978.443 42.7093 979.338 41.8138 980.443 41.8138H995.872C997.529 41.8138 998.872 40.4707 998.872 38.8138V29.9756C998.872 29.6335 998.595 29.3562 998.253 29.3562C997.911 29.3562 997.634 29.6335 997.634 29.9756V38.4408C997.634 39.5384 996.749 40.4308 995.652 40.4408L989.15 40.4995C988.038 40.5096 987.132 39.6113 987.132 38.4996V32.5796C987.132 31.4751 988.027 30.5796 989.132 30.5796H990.763C991.867 30.5796 992.763 29.6842 992.763 28.5796V24.0325C992.763 22.9279 993.658 22.0325 994.763 22.0325H996.894C997.536 22.0325 998.138 21.725 998.514 21.2057L1003.43 14.4239C1003.8 13.9045 1004.4 13.597 1005.05 13.597H1018.49C1019.15 13.597 1019.78 13.9302 1020.15 14.4851L1024.59 21.1277C1024.96 21.6826 1025.59 22.0157 1026.25 22.0157H1028.18C1029.29 22.0157 1030.18 22.9112 1030.18 24.0157V28.5796C1030.18 29.6842 1031.08 30.5796 1032.18 30.5796H1033.98C1035.09 30.5796 1035.98 31.4751 1035.98 32.5796V39.8138C1035.98 40.9184 1036.88 41.8138 1037.98 41.8138H1043.36C1044.46 41.8138 1045.36 42.7093 1045.36 43.8138V163.552H1001.69C1000.56 163.552 999.46 163.937 998.574 164.644L991.344 170.412V105.376C991.344 103.719 990.001 102.376 988.344 102.376H985.713V96.6833C985.713 95.0265 984.37 93.6833 982.713 93.6833H978.443V43.8138ZM881.312 213.55C879.655 213.55 878.311 212.182 878.311 210.525C878.311 208.868 879.655 207.5 881.311 207.5H902.93C903.266 207.5 903.539 207.228 903.539 206.891C903.539 206.555 903.266 206.282 902.93 206.282H881.311C879.655 206.282 878.311 204.939 878.311 203.282V202.679C878.311 201.022 879.655 199.679 881.311 199.679H945.007C946.664 199.679 948.007 201.022 948.007 202.679V210.545C948.007 212.202 946.664 213.545 945.007 213.545L881.312 213.55ZM914.643 248.744V246.488C914.643 245.935 915.091 245.488 915.643 245.488H916.881C917.433 245.488 917.881 245.935 917.881 246.488V248.739L914.643 248.744ZM933.789 248.744V246.488C933.789 245.935 934.236 245.488 934.789 245.488H936.027C936.579 245.488 937.027 245.935 937.027 246.488V248.739L933.789 248.744ZM942.939 248.744H938.294V246.075C938.294 245.815 938.327 245.556 938.394 245.304L939.816 239.959C939.907 239.616 939.697 239.264 939.35 239.183C939.014 239.104 938.677 239.31 938.594 239.645L937.637 243.499C937.527 243.945 937.126 244.259 936.667 244.259H933.533C932.981 244.259 932.533 244.706 932.533 245.259V248.728H926.648V242.577C926.648 242.025 927.096 241.577 927.648 241.577H931.609C931.948 241.577 932.223 241.302 932.223 240.963C932.223 240.623 931.948 240.348 931.609 240.348H920.449C920.11 240.348 919.835 240.623 919.835 240.963C919.835 241.302 920.11 241.577 920.449 241.577H924.404C924.956 241.577 925.404 242.025 925.404 242.577V248.728H919.148V245.259C919.148 244.706 918.7 244.259 918.148 244.259H915.127C914.67 244.259 914.271 243.949 914.158 243.506L913.168 239.638C913.084 239.308 912.748 239.108 912.418 239.191C912.086 239.275 911.885 239.612 911.969 239.944L913.289 245.123C913.35 245.365 913.382 245.614 913.382 245.864V248.75H908.719V226.611C908.719 224.954 907.376 223.611 905.719 223.611H895.26C893.603 223.611 892.26 224.954 892.26 226.611V249.28C892.26 249.626 892.541 249.907 892.887 249.907C893.234 249.907 893.515 249.626 893.515 249.28V226.818C893.515 225.713 894.411 224.818 895.515 224.818H905.452C906.557 224.818 907.452 225.713 907.452 226.818V248.655H895.416H883.379V216.762C883.379 215.658 884.275 214.762 885.379 214.762H940.939C942.044 214.762 942.939 215.658 942.939 216.762V248.744ZM969.58 248.744H944.195V216.934C944.195 215.735 945.167 214.762 946.367 214.762C947.966 214.762 949.263 213.466 949.263 211.867V202.467C949.263 200.258 947.472 198.467 945.263 198.467H944.043V105.594C944.043 104.489 944.938 103.594 946.043 103.594H954.603C954.932 103.594 955.198 103.327 955.198 102.999C955.198 102.67 954.932 102.404 954.603 102.404H951.685C950.581 102.404 949.685 101.508 949.685 100.404V96.9403C949.685 95.8357 950.581 94.9403 951.685 94.9403H982.457C983.562 94.9403 984.457 95.8357 984.457 96.9403V101.594C984.457 102.698 985.352 103.594 986.457 103.594H988.085C989.191 103.594 990.087 104.491 990.085 105.596L990 171.627L984.502 175.954L975.504 183.075C974.785 183.644 974.366 184.511 974.366 185.428V209.824C972.57 209.163 970.638 208.942 968.737 209.182C966.836 209.421 965.022 210.113 963.449 211.198C961.876 212.284 960.59 213.731 959.703 215.415C958.815 217.1 958.352 218.973 958.351 220.874V227.578C958.356 230.596 959.525 233.498 961.62 235.688C963.715 237.877 966.541 239.181 969.58 239.343V248.744ZM977.148 248.744H970.819V239.343C973.102 239.223 975.301 238.447 977.148 237.108V248.744ZM971.873 238.015C971.305 238.106 970.819 237.645 970.819 237.069V224.845C970.819 224.503 970.541 224.226 970.199 224.226C969.857 224.226 969.58 224.503 969.58 224.845V237.058C969.58 237.634 969.094 238.095 968.525 238.004C966.215 237.636 964.081 236.522 962.462 234.819C960.599 232.86 959.56 230.27 959.556 227.578V220.874C959.556 218.074 960.678 215.388 962.674 213.408C964.669 211.428 967.376 210.316 970.199 210.316C973.022 210.316 975.729 211.428 977.725 213.408C979.721 215.388 980.842 218.074 980.842 220.874V227.578C980.838 230.27 979.799 232.86 977.936 234.819C976.318 236.522 974.183 237.645 971.873 238.015ZM1080.76 248.744H978.415V236.08C979.575 234.983 980.498 233.664 981.128 232.202C981.758 230.741 982.082 229.167 982.081 227.578V220.874C982.081 218.673 981.462 216.516 980.292 214.646C979.121 212.777 977.447 211.269 975.459 210.293V186.881C975.459 185.776 976.354 184.881 977.459 184.881H990.324C990.66 184.881 990.933 184.608 990.933 184.272C990.933 183.936 990.66 183.663 990.324 183.663H979.582C978.634 183.663 978.218 182.469 978.96 181.88L999.14 165.854C1000.02 165.152 1001.12 164.77 1002.25 164.77H1053.95C1055.08 164.77 1056.17 165.15 1057.05 165.848L1079.62 183.695C1080.34 184.264 1080.76 185.131 1080.76 186.048V248.744ZM1131.44 248.744H1081.89V185.421C1081.89 184.508 1081.47 183.644 1080.76 183.075L1075.27 178.702V70.8966C1075.27 69.792 1076.16 68.8966 1077.27 68.8966H1093.69C1094.03 68.8966 1094.31 68.6215 1094.31 68.2821C1094.31 67.9427 1094.03 67.6676 1093.69 67.6676H1084.16C1083.05 67.6676 1082.16 66.7722 1082.16 65.6676V61.478C1082.16 59.2689 1083.95 57.478 1086.16 57.478H1118.59H1120.67C1122.88 57.478 1124.67 59.2689 1124.67 61.478V66.8128C1124.67 67.9174 1125.57 68.8128 1126.67 68.8128H1130.43C1130.98 68.8128 1131.43 69.2605 1131.43 69.8127L1131.44 248.744Z" fill="#494949"/>
<path d="M1000.63 198.467H995.988C993.227 198.467 990.988 200.705 990.988 203.467V208.003C990.988 210.764 993.227 213.003 995.988 213.003H1000.63C1003.39 213.003 1005.63 210.764 1005.63 208.003V203.467C1005.63 200.705 1003.39 198.467 1000.63 198.467Z" fill="#F7F7F7"/>
<path d="M108.47 139.467V74.9685H101.809V63.9047H86.4829V62.7133H90.5115V47.29H72.5142H54.5169V47.3279L53.2963 63.9426L59 63.9047H44.0951V63.9426L43.8817 72.9171L37.4775 74.9901V75.028V134.469C37.4775 137.23 35.2405 139.468 32.4801 139.469L26.7383 139.472V248.772H85.5524V187.981C85.5524 187.066 85.9703 186.201 86.6871 185.632L110.5 166.728H113.774H118.307V139.467H108.47Z" fill="white"/>
<path d="M199.324 229.92V230.029C199.31 231.266 199.059 232.49 198.585 233.635C197.887 235.315 196.725 236.765 195.23 237.819C193.736 238.873 191.971 239.488 190.139 239.592L189.501 230.611L189.001 239.592C186.531 239.451 184.141 238.374 182.435 236.6C180.729 234.826 179.77 232.477 179.75 230.029V229.92C179.742 227.442 180.698 225.056 182.419 223.256C184.139 221.456 185.5 220.353 188.001 220.223C188.366 220.201 190.501 219.702 190.501 220.223C193.002 220.355 195.282 221.39 197.001 223.191C198.721 224.991 199.337 227.443 199.329 229.92H199.324Z" fill="#E6E6E6"/>
<path d="M180.389 131.241C178.777 131.182 177.5 129.857 177.5 128.243V77.3814L175.24 77.2874C172.562 77.1761 170.448 74.9724 170.448 72.2918V50.5957H146.172V50.6336V74.1495L144.499 76.3894L140.499 77.3814L139.757 130.457L133 131.135H130.852H130.999H133L139.757 166.481H164.991L173.852 173.521L174.58 174.095L175.757 175L177 176.588V160.5C177 157.84 179.083 155.646 181.739 155.507L186.5 155.258L186 131.449L180.389 131.241Z" fill="white"/>
<path d="M189.005 219.018V188.557C189.005 187.64 188.586 186.773 187.866 186.204L164.757 167.918H111.044L108.471 169.96L86.5 187.105V248.852L189.005 248.798V240.745C186.197 240.593 183.554 239.382 181.62 237.362C179.687 235.341 178.609 232.664 178.609 229.882C178.609 227.099 179.687 224.422 181.62 222.402C183.554 220.381 186.197 219.17 189.005 219.018Z" fill="white"/>
<path d="M117.55 187.667H87.7344C87.1821 187.667 86.7344 188.115 86.7344 188.667V249.349H117.55C119.207 249.349 120.55 248.006 120.55 246.349V190.667C120.55 189.01 119.207 187.667 117.55 187.667Z" fill="#E6E6E6"/>
<path d="M193.221 148.398V150.91C193.221 153.671 190.982 155.91 188.221 155.91H177.895V176.71L189.501 186.506L190.238 219.011C192.305 219.125 194.299 219.815 195.988 221C197.678 222.185 198.995 223.817 199.789 225.71C200.335 227.033 200.616 228.45 200.616 229.88C200.618 232.03 199.977 234.132 198.771 235.921C197.566 237.71 195.852 239.106 193.845 239.931C192.691 240.399 191.466 240.674 190.221 240.743V248.769H207.113V205.58H220.797L220.83 148.398H193.221Z" fill="white"/>
<path d="M137.999 131.379H133.148C132.044 131.379 131.148 132.274 131.148 133.379V166.764H139.999V133.379C139.999 132.274 139.104 131.379 137.999 131.379Z" fill="#E6E6E6"/>
<path d="M278.252 216.894V206.772L265.5 205.874L264.567 78.7346L250.883 55.2423V39.4346H235.398V55.681L234.561 57.1323L221.972 78.7292V78.8592V205.874L207 205.38L207.5 248.721H270.244C269.443 248.501 268.713 248.08 268.124 247.5C267.535 246.919 267.108 246.198 266.883 245.406H259.5V216.894H278.252Z" fill="white"/>
<path d="M110.199 142.641C112.173 142.641 113.774 144.241 113.774 146.215V165.09C113.774 166.432 112.686 167.519 111.344 167.519C110.798 167.519 110.267 167.704 109.838 168.043L109.603 168.229L108.42 169.166L108.398 169.182C107.681 169.749 106.625 169.238 106.625 168.323V146.215C106.625 144.241 108.225 142.641 110.199 142.641Z" fill="#F7F7F7"/>
<path d="M368.539 209.618V208.427H384.922L368.539 189.581H332.091L315.79 208.427H323.65H315V248.777H331.811H349.874V235.325H351.084V248.772H385.168V209.618H368.539Z" fill="white"/>
<path d="M150.815 50.5449H148C146.895 50.5449 146 51.4404 146 52.5449V74.9832C146 76.0878 146.895 76.9832 148 76.9832H150.815C151.919 76.9832 152.815 76.0878 152.815 74.9832V52.5449C152.815 51.4404 151.919 50.5449 150.815 50.5449Z" fill="#E6E6E6"/>
<path d="M144.218 77.2568H142C140.895 77.2568 140 78.1523 140 79.2568V128.211C140 129.315 140.895 130.211 142 130.211H144.218C145.323 130.211 146.218 129.315 146.218 128.211V79.2568C146.218 78.1523 145.323 77.2568 144.218 77.2568Z" fill="#E6E6E6"/>
<path d="M502.37 222.057V228.555C502.366 231.166 501.356 233.676 499.546 235.575C497.977 237.221 495.909 238.3 493.671 238.66C493.107 238.75 492.622 238.295 492.617 237.723L492.5 225.664H491.5L491.429 237.719C491.426 238.293 490.941 238.75 490.375 238.659C488.138 238.298 486.072 237.22 484.504 235.575C482.693 233.676 481.683 231.166 481.68 228.555V222.057C481.68 219.342 482.77 216.739 484.71 214.819C486.65 212.9 489.281 211.821 492.025 211.821C494.769 211.821 497.4 212.9 499.34 214.819C501.28 216.739 502.37 219.342 502.37 222.057Z" fill="#E6E6E6"/>
<path d="M328.262 209.604C329.919 209.604 331.262 210.948 331.262 212.604V245.915C331.262 247.572 329.919 248.915 328.262 248.915H315V209.604H323H328.262Z" fill="#E6E6E6"/>
<path d="M240.001 39.4697C241.106 39.4697 242.001 40.3652 242.001 41.4697V52.633C242.001 53.7376 241.106 54.633 240.001 54.633H237.148C236.044 54.633 235.148 53.7376 235.148 52.633V41.4697C235.148 40.3652 236.044 39.4697 237.148 39.4697H240.001Z" fill="#E6E6E6"/>
<path d="M120.496 249.349V249.406H120.554V249.349H120.496Z" fill="#494949"/>
<path d="M120.496 249.349V249.406H120.554V249.349H120.496ZM120.496 249.349V249.406H120.554V249.349H120.496ZM120.496 249.349V249.406H120.554V249.349H120.496ZM120.496 249.349V249.406H120.554V249.349H120.496ZM120.496 249.349V249.406H120.554V249.349H120.496ZM120.496 249.349V249.406H120.554V249.349H120.496ZM120.496 249.349V249.406H120.554V249.349H120.496ZM120.496 249.349V249.406H120.554V249.349H120.496ZM120.496 249.349V249.406H120.554V249.349H120.496ZM120.496 249.349V249.406H120.554V249.349H120.496ZM120.496 249.349V249.406H120.554V249.349H120.496ZM120.496 249.349V249.406H120.554V249.349H120.496ZM120.496 249.349V249.406H120.554V249.349H120.496ZM120.496 249.349V249.406H120.554V249.349H120.496ZM120.496 249.349V249.406H120.554V249.349H120.496ZM120.496 249.349V249.406H120.554V249.349H120.496Z" fill="#494949"/>
<path d="M34.3251 139.501H28.668C27.5634 139.501 26.668 140.396 26.668 141.501V248.807H34.3251C35.982 248.807 37.3251 247.464 37.3251 245.807V142.501C37.3251 140.844 35.982 139.501 34.3251 139.501Z" fill="#E6E6E6"/>
<path d="M229.448 78.8496C231.105 78.8496 232.448 80.1928 232.448 81.8496V202.599C232.448 204.255 231.105 205.599 229.448 205.599H227.051C225.395 205.599 224.051 206.942 224.051 208.599V249.008H208V207.779C208 207.227 208.448 206.779 209 206.779H218.988C220.645 206.779 221.988 205.436 221.988 203.779V81.8496C221.988 80.1928 223.331 78.8496 224.988 78.8496H229.448Z" fill="#E6E6E6"/>
<path d="M59.2949 60.3226V49.749C59.2949 48.4098 58.2093 47.3242 56.8701 47.3242C55.5309 47.3242 54.4453 48.4098 54.4453 49.749V60.3226C54.4453 61.6618 55.5309 62.7475 56.8701 62.7475C58.2093 62.7475 59.2949 61.6618 59.2949 60.3226Z" fill="#E6E6E6"/>
<path d="M242.452 39.6318H242.395V39.6895H242.452V39.6318Z" fill="#E6E6E6"/>
<path d="M50.2958 63.9414C51.9527 63.9414 53.2958 65.2846 53.2958 66.9414V72.0269C53.2958 73.6837 51.9527 75.0269 50.2958 75.0269H43.9796C43.9736 75.0269 43.9688 75.022 43.9688 75.016C43.9688 75.01 43.9736 75.0052 43.9796 75.0052H43.9961C44.0112 75.0052 44.0235 74.9929 44.0235 74.9778V66.9414C44.0235 65.2846 45.3666 63.9414 47.0235 63.9414H50.2958Z" fill="#E6E6E6"/>
<path d="M40.8542 75.0059H40.3789C38.7221 75.0059 37.3789 76.349 37.3789 78.0059V136.472C37.3789 138.128 38.7221 139.472 40.3789 139.472H40.8542C42.5111 139.472 43.8542 138.128 43.8542 136.472V78.0059C43.8542 76.349 42.5111 75.0059 40.8542 75.0059Z" fill="#E6E6E6"/>
<path d="M168.958 194.123H164.727C161.965 194.123 159.727 196.362 159.727 199.123V203.203C159.727 205.965 161.965 208.203 164.727 208.203H168.958C171.719 208.203 173.958 205.965 173.958 203.203V199.123C173.958 196.362 171.719 194.123 168.958 194.123Z" fill="#F7F7F7"/>
<path d="M152.041 204.645V197.681C152.041 195.716 150.449 194.123 148.484 194.123C146.519 194.123 144.926 195.716 144.926 197.681V204.645C144.926 206.61 146.519 208.203 148.484 208.203C150.449 208.203 152.041 206.61 152.041 204.645Z" fill="#E6E6E6"/>
<path d="M103.375 116.941V105.385C103.375 103.411 101.775 101.811 99.8008 101.811C97.8268 101.811 96.2266 103.411 96.2266 105.385V116.941C96.2266 118.915 97.8268 120.516 99.8008 120.516C101.775 120.516 103.375 118.915 103.375 116.941Z" fill="#F7F7F7"/>
<path d="M88.6236 116.944V105.382C88.6236 103.41 87.0245 101.811 85.052 101.811C83.0795 101.811 81.4805 103.41 81.4805 105.382V116.944C81.4805 118.917 83.0795 120.516 85.052 120.516C87.0245 120.516 88.6236 118.917 88.6236 116.944Z" fill="#F7F7F7"/>
<path d="M103.375 93.6325V92.1163C103.375 90.1423 101.775 88.542 99.8008 88.542C97.8268 88.542 96.2266 90.1422 96.2266 92.1163V93.6325C96.2266 95.6065 97.8268 97.2067 99.8008 97.2067C101.775 97.2067 103.375 95.6065 103.375 93.6325Z" fill="#F7F7F7"/>
<path d="M88.6236 93.6352V92.1135C88.6236 90.141 87.0245 88.542 85.052 88.542C83.0795 88.542 81.4805 90.141 81.4805 92.1135V93.6352C81.4805 95.6077 83.0795 97.2067 85.052 97.2067C87.0245 97.2067 88.6236 95.6077 88.6236 93.6352Z" fill="#F7F7F7"/>
<path d="M492.625 248.908V239.967C495.578 239.81 498.358 238.539 500.394 236.417C502.43 234.295 503.567 231.483 503.573 228.557V222.058C503.573 219.028 502.356 216.122 500.19 213.979C498.024 211.836 495.086 210.632 492.023 210.632C488.96 210.632 486.023 211.836 483.857 213.979C481.691 216.122 480.474 219.028 480.474 222.058V228.557C480.48 231.483 481.617 234.295 483.653 236.417C485.689 238.539 488.468 239.81 491.421 239.967V248.908H479.429C479.16 248.908 478.941 249.127 478.941 249.396C478.941 249.665 479.16 249.883 479.429 249.883H504.487C504.756 249.883 504.974 249.665 504.974 249.396C504.974 249.127 504.756 248.908 504.487 248.908H492.625ZM491.421 237.704C491.421 238.28 490.935 238.741 490.367 238.649C488.135 238.288 486.072 237.211 484.506 235.57C482.696 233.674 481.685 231.166 481.678 228.557V222.058C481.678 219.344 482.768 216.741 484.708 214.821C486.648 212.902 489.28 211.823 492.023 211.823C494.767 211.823 497.398 212.902 499.339 214.821C501.279 216.741 502.369 219.344 502.369 222.058V228.557C502.365 231.167 501.355 233.678 499.544 235.577C497.978 237.22 495.914 238.298 493.68 238.66C493.112 238.752 492.625 238.291 492.625 237.715V225.639C492.625 225.307 492.356 225.037 492.023 225.037C491.691 225.037 491.421 225.307 491.421 225.639V237.704Z" fill="#494949"/>
<path d="M519.406 248.811H516.514C516.185 248.811 515.918 249.077 515.918 249.406C515.918 249.735 516.185 250.002 516.514 250.002H519.406C519.735 250.002 520.001 249.735 520.001 249.406C520.001 249.077 519.735 248.811 519.406 248.811Z" fill="#494949"/>
<path d="M169.709 213.119H163.866C161.55 213.119 159.672 214.997 159.672 217.313C159.672 219.63 161.55 221.508 163.866 221.508H169.709C172.025 221.508 173.903 219.63 173.903 217.313C173.903 214.997 172.025 213.119 169.709 213.119Z" fill="#F7F7F7"/>
<path d="M151.987 217.95V216.677C151.987 214.712 150.394 213.119 148.429 213.119C146.464 213.119 144.871 214.712 144.871 216.677V217.95C144.871 219.915 146.464 221.508 148.429 221.508C150.394 221.508 151.987 219.915 151.987 217.95Z" fill="#E6E6E6"/>
<path d="M231.881 205.632H224.572C224.243 205.632 223.977 205.899 223.977 206.228C223.977 206.557 224.243 206.823 224.572 206.823H231.881C232.21 206.823 232.477 206.557 232.477 206.228C232.477 205.899 232.21 205.632 231.881 205.632Z" fill="#494949"/>
<path d="M380.838 226.308V219.343C380.838 217.378 379.245 215.785 377.281 215.785C375.316 215.785 373.723 217.378 373.723 219.343V226.308C373.723 228.272 375.316 229.865 377.281 229.865C379.245 229.865 380.838 228.272 380.838 226.308Z" fill="#F7F7F7"/>
<path d="M366.155 226.308V219.343C366.155 217.378 364.562 215.785 362.597 215.785C360.632 215.785 359.039 217.378 359.039 219.343V226.308C359.039 228.272 360.632 229.865 362.597 229.865C364.562 229.865 366.155 228.272 366.155 226.308Z" fill="#E6E6E6"/>
<path d="M469.482 248.811H406.955C406.626 248.811 406.359 249.077 406.359 249.406C406.359 249.735 406.626 250.002 406.955 250.002H469.482C469.811 250.002 470.078 249.735 470.078 249.406C470.078 249.077 469.811 248.811 469.482 248.811Z" fill="#494949"/>
<path d="M259.823 93.7313V86.7668C259.823 84.8019 258.23 83.209 256.265 83.209C254.3 83.209 252.707 84.8019 252.707 86.7668V93.7313C252.707 95.6963 254.3 97.2892 256.265 97.2892C258.23 97.2892 259.823 95.6963 259.823 93.7313Z" fill="#F7F7F7"/>
<path d="M259.823 107.272V106.384C259.823 104.419 258.23 102.826 256.265 102.826C254.3 102.826 252.707 104.419 252.707 106.384V107.272C252.707 109.237 254.3 110.83 256.265 110.83C258.23 110.83 259.823 109.237 259.823 107.272Z" fill="#F7F7F7"/>
<path d="M217.385 165.656V158.692C217.385 156.727 215.792 155.134 213.827 155.134C211.862 155.134 210.27 156.727 210.27 158.692V165.656C210.27 167.621 211.862 169.214 213.827 169.214C215.792 169.214 217.385 167.621 217.385 165.656Z" fill="#F7F7F7"/>
<path d="M217.385 180.043V178.77C217.385 176.805 215.792 175.212 213.827 175.212C211.862 175.212 210.27 176.805 210.27 178.77V180.043C210.27 182.008 211.862 183.6 213.827 183.6C215.792 183.6 217.385 182.008 217.385 180.043Z" fill="#F7F7F7"/>
<path d="M206.436 180.043V178.77C206.436 176.805 204.843 175.212 202.878 175.212C200.913 175.212 199.32 176.805 199.32 178.77V180.043C199.32 182.008 200.913 183.6 202.878 183.6C204.843 183.6 206.436 182.008 206.436 180.043Z" fill="#E6E6E6"/>
<path d="M169.502 84.7324H168.387C166.73 84.7324 165.387 86.0756 165.387 87.7324V95.8126C165.387 97.4695 166.73 98.8126 168.387 98.8126H169.502C171.159 98.8126 172.502 97.4695 172.502 95.8126V87.7324C172.502 86.0756 171.159 84.7324 169.502 84.7324Z" fill="#F7F7F7"/>
<path d="M169.502 104.225H168.387C166.73 104.225 165.387 105.568 165.387 107.225V115.305C165.387 116.962 166.73 118.305 168.387 118.305H169.502C171.159 118.305 172.502 116.962 172.502 115.305V107.225C172.502 105.568 171.159 104.225 169.502 104.225Z" fill="#F7F7F7"/>
<path d="M169.562 124.264H168.327C166.703 124.264 165.387 125.58 165.387 127.204C165.387 128.828 166.703 130.145 168.327 130.145H169.562C171.186 130.145 172.502 128.828 172.502 127.204C172.502 125.58 171.186 124.264 169.562 124.264Z" fill="#F7F7F7"/>
<path d="M84.2189 171.74V145.459C84.2189 143.485 82.6186 141.885 80.6446 141.885C78.6706 141.885 77.0703 143.485 77.0703 145.459V171.74C77.0703 173.714 78.6706 175.314 80.6446 175.314C82.6186 175.314 84.2189 173.714 84.2189 171.74Z" fill="#F7F7F7"/>
<path d="M69.8256 171.643L69.102 145.366C69.0477 143.394 67.4053 141.839 65.4335 141.892C63.4617 141.946 61.9073 143.588 61.9616 145.559L62.6852 171.836C62.7395 173.808 64.3819 175.363 66.3537 175.31C68.3255 175.256 69.8799 173.615 69.8256 171.643Z" fill="#E6E6E6"/>
<path d="M98.9962 171.74V145.459C98.9962 143.485 97.396 141.885 95.4219 141.885C93.4479 141.885 91.8477 143.485 91.8477 145.459V171.74C91.8477 173.714 93.4479 175.314 95.4219 175.314C97.396 175.314 98.9962 173.714 98.9962 171.74Z" fill="#F7F7F7"/>
<path d="M420.294 240.446C420.185 240.444 420.078 240.42 419.979 240.375C419.88 240.331 419.792 240.266 419.719 240.186C419.646 240.108 419.589 240.016 419.551 239.916C419.514 239.816 419.497 239.71 419.501 239.603C419.505 239.497 419.53 239.392 419.575 239.295C419.62 239.198 419.684 239.111 419.763 239.038L427.612 231.863C427.687 231.774 427.781 231.702 427.887 231.652C427.992 231.603 428.107 231.576 428.225 231.573C428.342 231.571 428.458 231.594 428.565 231.64C428.673 231.685 428.769 231.753 428.848 231.839C428.927 231.925 428.986 232.026 429.022 232.136C429.058 232.247 429.069 232.363 429.056 232.478C429.043 232.593 429.005 232.704 428.944 232.804C428.884 232.903 428.803 232.988 428.707 233.054L420.879 240.24C420.801 240.312 420.708 240.367 420.608 240.402C420.507 240.437 420.4 240.452 420.294 240.446Z" fill="#494949"/>
<path d="M419.278 247.516C419.239 247.736 419.122 247.935 418.949 248.078C418.776 248.222 418.557 248.301 418.332 248.301C418.279 248.306 418.226 248.306 418.173 248.301C417.922 248.259 417.697 248.121 417.549 247.916C417.476 247.814 417.425 247.699 417.398 247.577C417.37 247.456 417.368 247.33 417.39 247.207C417.41 247.084 417.454 246.967 417.521 246.862C417.588 246.757 417.676 246.666 417.779 246.595C417.88 246.522 417.996 246.471 418.118 246.443C418.24 246.415 418.367 246.411 418.49 246.433C418.739 246.474 418.962 246.611 419.11 246.814C419.257 247.016 419.318 247.269 419.278 247.516Z" fill="#494949"/>
<path d="M414.353 246.974C414.313 247.194 414.196 247.393 414.023 247.536C413.85 247.68 413.632 247.759 413.406 247.759C413.353 247.764 413.3 247.764 413.247 247.759C412.996 247.717 412.771 247.579 412.623 247.374C412.55 247.272 412.499 247.157 412.472 247.035C412.444 246.914 412.442 246.788 412.464 246.665C412.484 246.542 412.529 246.425 412.595 246.32C412.662 246.215 412.75 246.124 412.853 246.053C412.955 245.98 413.07 245.929 413.192 245.901C413.314 245.873 413.441 245.869 413.564 245.891C413.814 245.932 414.036 246.069 414.184 246.272C414.332 246.474 414.392 246.727 414.353 246.974Z" fill="#494949"/>
<path d="M413.806 242.099C413.766 242.319 413.649 242.518 413.476 242.661C413.303 242.805 413.085 242.884 412.859 242.884C412.806 242.889 412.753 242.889 412.7 242.884C412.449 242.842 412.225 242.704 412.076 242.499C412.004 242.397 411.952 242.282 411.925 242.16C411.898 242.039 411.895 241.913 411.917 241.79C411.937 241.667 411.982 241.55 412.048 241.445C412.115 241.34 412.203 241.249 412.306 241.178C412.408 241.105 412.523 241.054 412.645 241.026C412.767 240.998 412.894 240.994 413.018 241.016C413.267 241.057 413.489 241.194 413.637 241.397C413.785 241.599 413.845 241.852 413.806 242.099Z" fill="#494949"/>
<path d="M416.445 245.117C416.363 245.267 416.241 245.392 416.092 245.479C415.944 245.566 415.775 245.611 415.602 245.61C415.436 245.61 415.273 245.568 415.129 245.487C414.985 245.406 414.865 245.289 414.78 245.148C414.695 245.007 414.648 244.847 414.645 244.683C414.641 244.519 414.681 244.357 414.759 244.213C414.875 243.997 415.071 243.834 415.306 243.758C415.397 243.731 415.491 243.716 415.586 243.715C415.745 243.717 415.901 243.758 416.04 243.834C416.26 243.947 416.425 244.142 416.5 244.376C416.541 244.497 416.558 244.625 416.549 244.752C416.539 244.879 416.504 245.004 416.445 245.117Z" fill="#494949"/>
<path d="M419.183 245.117C419.101 245.267 418.979 245.392 418.831 245.479C418.682 245.566 418.513 245.611 418.34 245.61C418.175 245.61 418.012 245.568 417.868 245.487C417.724 245.406 417.603 245.289 417.518 245.148C417.433 245.007 417.387 244.847 417.383 244.683C417.379 244.519 417.419 244.357 417.497 244.213C417.613 243.997 417.81 243.834 418.045 243.758C418.135 243.731 418.229 243.716 418.324 243.715C418.483 243.717 418.639 243.758 418.778 243.834C418.998 243.947 419.163 244.142 419.238 244.376C419.28 244.497 419.296 244.625 419.287 244.752C419.277 244.879 419.242 245.004 419.183 245.117Z" fill="#494949"/>
<path d="M443.521 213.32C443.488 213.051 443.42 212.787 443.319 212.535C443.352 212.26 443.352 211.982 443.319 211.707C443.319 211.598 443.286 211.49 443.264 211.387C443.223 211.219 443.169 211.054 443.1 210.894C442.868 210.299 442.474 209.78 441.961 209.394C441.592 209.111 441.169 208.902 440.718 208.781C440.267 208.66 439.796 208.629 439.332 208.689C438.869 208.749 438.422 208.899 438.017 209.13C437.613 209.362 437.258 209.671 436.975 210.039C436.669 210.427 436.451 210.876 436.334 211.355C436.295 211.511 436.27 211.67 436.258 211.831L435.793 211.902L434.276 212.129C434.059 212.148 433.857 212.251 433.717 212.417C433.576 212.582 433.508 212.796 433.527 213.012C433.545 213.227 433.65 213.426 433.817 213.565C433.985 213.705 434.201 213.772 434.419 213.754C434.453 213.759 434.488 213.759 434.523 213.754L435.825 213.559L436.05 213.521L436.471 213.456C436.436 213.725 436.436 213.998 436.471 214.268C436.586 215.113 437.007 215.889 437.655 216.451C438.303 217.014 439.134 217.325 439.996 217.328C440.152 217.327 440.307 217.318 440.462 217.301C440.928 217.24 441.377 217.089 441.783 216.856C442.19 216.622 442.546 216.312 442.83 215.942C443.115 215.571 443.322 215.149 443.441 214.699C443.559 214.25 443.587 213.781 443.521 213.32ZM438.206 211.095C438.476 210.702 438.887 210.425 439.356 210.32C439.413 210.304 439.472 210.293 439.531 210.288C439.619 210.288 439.706 210.288 439.799 210.288C440.251 210.293 440.686 210.454 441.031 210.743C441.138 210.83 441.232 210.932 441.31 211.046L441.064 211.084L440.473 211.176L437.977 211.56C438.031 211.395 438.108 211.238 438.206 211.095ZM440.429 215.622C440.368 215.638 440.306 215.649 440.243 215.654C439.741 215.718 439.234 215.582 438.832 215.278C438.431 214.974 438.166 214.526 438.097 214.03C438.058 213.751 438.085 213.468 438.174 213.201V213.163L440.708 212.773L441.157 212.703L441.502 212.649C441.533 212.681 441.561 212.718 441.584 212.757C441.743 212.99 441.845 213.258 441.879 213.537C441.885 213.62 441.885 213.703 441.879 213.786C441.879 214.208 441.736 214.618 441.473 214.951C441.21 215.283 440.843 215.519 440.429 215.622Z" fill="#494949"/>
<path d="M441.31 211.032L441.064 211.07L440.473 211.162L437.977 211.546C438.032 211.387 438.109 211.236 438.206 211.097C438.477 210.704 438.887 210.427 439.356 210.323C439.413 210.306 439.472 210.295 439.531 210.29C439.619 210.29 439.706 210.29 439.799 210.29C440.251 210.296 440.686 210.456 441.031 210.745C441.137 210.828 441.231 210.924 441.31 211.032Z" fill="#E6E6E6"/>
<path d="M453.57 213.164L453.428 212.081C453.378 211.726 453.188 211.405 452.9 211.187C452.613 210.969 452.25 210.872 451.89 210.917L448.639 211.339C448.459 211.366 448.286 211.427 448.13 211.52C447.974 211.613 447.838 211.736 447.73 211.881C447.621 212.021 447.54 212.181 447.493 212.352C447.446 212.523 447.434 212.702 447.456 212.877L447.599 213.96C447.644 214.285 447.806 214.583 448.055 214.799C448.305 215.015 448.625 215.135 448.956 215.136H449.131L452.415 214.713C452.596 214.687 452.769 214.625 452.925 214.532C453.08 214.439 453.216 214.317 453.324 214.172C453.432 214.029 453.509 213.866 453.551 213.693C453.594 213.52 453.6 213.34 453.57 213.164ZM449.192 213.457L449.12 212.915L451.857 212.563L451.928 213.105L449.192 213.457Z" fill="#494949"/>
<path d="M451.823 212.594L449.109 212.945L449.18 213.482L451.894 213.131L451.823 212.594Z" fill="#E6E6E6"/>
<path d="M419.278 242.099C419.239 242.319 419.122 242.518 418.949 242.661C418.776 242.805 418.557 242.884 418.332 242.884C418.279 242.889 418.226 242.889 418.173 242.884C417.922 242.842 417.697 242.704 417.549 242.499C417.476 242.397 417.425 242.282 417.398 242.16C417.37 242.039 417.368 241.913 417.39 241.79C417.41 241.667 417.454 241.55 417.521 241.445C417.588 241.34 417.676 241.249 417.779 241.178C417.88 241.105 417.996 241.054 418.118 241.026C418.24 240.998 418.367 240.994 418.49 241.016C418.739 241.057 418.962 241.194 419.11 241.397C419.257 241.599 419.318 241.852 419.278 242.099Z" fill="#494949"/>
<path d="M416.445 242.408C416.363 242.558 416.241 242.683 416.092 242.77C415.944 242.857 415.775 242.902 415.602 242.901C415.436 242.901 415.273 242.859 415.129 242.778C414.985 242.697 414.865 242.58 414.78 242.439C414.695 242.299 414.648 242.138 414.645 241.974C414.641 241.81 414.681 241.648 414.759 241.504C414.875 241.288 415.071 241.125 415.306 241.049C415.397 241.022 415.491 241.007 415.586 241.006C415.745 241.008 415.901 241.049 416.04 241.125C416.26 241.238 416.425 241.433 416.5 241.667C416.541 241.788 416.558 241.916 416.549 242.043C416.539 242.17 416.504 242.295 416.445 242.408Z" fill="#494949"/>
<path d="M457.149 226.117L456.054 217.75C456.003 217.362 455.876 216.987 455.678 216.648C455.481 216.309 455.218 216.011 454.904 215.773C454.591 215.534 454.232 215.359 453.85 215.258C453.468 215.157 453.069 215.132 452.677 215.183L449.152 215.638C448.36 215.742 447.643 216.152 447.157 216.778C446.67 217.405 446.455 218.196 446.557 218.979L447.652 227.346C447.75 228.061 448.106 228.717 448.654 229.193C449.202 229.669 449.906 229.932 450.635 229.935C450.766 229.943 450.898 229.943 451.029 229.935L451.653 229.854C451.692 230.141 451.735 230.482 451.774 230.774C451.845 231.316 451.921 231.922 451.971 232.258V232.437C452.283 234.479 452.294 235.73 452.042 236.114C451.838 236.278 451.582 236.365 451.319 236.358C451.281 236.358 451.215 236.358 451.155 236.179C451.095 236 451.029 235.437 450.953 234.901C450.476 231.652 450.285 230.921 449.809 230.569C449.042 230.027 448.166 229.318 447.291 228.597C447.29 228.469 447.28 228.34 447.263 228.213L446.322 221.081C446.176 220.015 445.61 219.049 444.748 218.394C443.886 217.739 442.797 217.447 441.719 217.582L441.516 217.609C440.437 217.751 439.459 218.31 438.795 219.163C438.131 220.017 437.836 221.096 437.975 222.164L438.04 222.657L435.851 225.743L430.377 227.883C429.89 228.074 429.486 228.426 429.233 228.88C428.98 229.334 428.895 229.861 428.992 230.37C429.089 230.88 429.363 231.34 429.765 231.671C430.168 232.003 430.674 232.186 431.198 232.188C431.478 232.187 431.754 232.133 432.014 232.031L438.15 229.621C438.426 229.513 438.678 229.351 438.889 229.144V229.296C438.886 229.339 438.886 229.383 438.889 229.426C438.905 229.532 438.927 229.637 438.954 229.74C438.766 229.894 438.603 230.077 438.473 230.282L434.466 236.369C434.032 236.818 433.791 237.415 433.793 238.037V245.618C433.793 246.264 434.052 246.884 434.514 247.341C434.976 247.798 435.603 248.055 436.256 248.055C436.909 248.055 437.536 247.798 437.998 247.341C438.459 246.884 438.719 246.264 438.719 245.618V238.811L440.454 236.174L439.907 238.567C439.87 238.736 439.851 238.909 439.852 239.082C439.847 239.143 439.847 239.205 439.852 239.266V239.298C439.859 239.799 440.021 240.285 440.317 240.69L444.806 246.831C445.189 247.354 445.767 247.704 446.411 247.806C447.056 247.907 447.715 247.751 448.243 247.373C448.77 246.991 449.124 246.419 449.226 245.781C449.329 245.143 449.172 244.491 448.79 243.966L444.904 238.648L446.311 232.15C446.377 231.832 446.377 231.504 446.311 231.186C446.503 230.938 446.666 230.669 446.798 230.384C447.417 230.883 448.019 231.354 448.577 231.765C448.85 232.866 449.055 233.982 449.19 235.107C449.241 235.639 449.334 236.166 449.469 236.683C449.578 237.018 449.782 237.315 450.056 237.539C450.331 237.762 450.665 237.903 451.018 237.944C451.098 237.95 451.179 237.95 451.259 237.944C451.64 237.943 452.016 237.857 452.36 237.694C452.703 237.531 453.006 237.295 453.246 237.002C453.925 235.995 453.75 234.072 453.459 232.128L453.432 231.955C453.388 231.63 453.312 231.061 453.241 230.504C453.191 230.135 453.153 229.827 453.12 229.578L454.395 229.41C454.797 229.379 455.189 229.268 455.546 229.084C455.904 228.901 456.221 228.648 456.477 228.341C456.734 228.034 456.926 227.678 457.041 227.296C457.157 226.914 457.193 226.513 457.149 226.117ZM438.61 226.751L437.925 227.715C437.899 227.798 437.854 227.875 437.795 227.939C437.735 228.004 437.662 228.055 437.58 228.088L435.67 228.836L431.439 230.493C431.37 230.523 431.295 230.538 431.22 230.538C431.145 230.538 431.07 230.523 431.001 230.493C430.853 230.428 430.737 230.307 430.678 230.157C430.621 230.007 430.625 229.842 430.688 229.695C430.751 229.547 430.869 229.43 431.018 229.366L435.189 227.742L436.935 227.054L438.09 225.429L438.38 225.029L439.775 223.068L440.755 221.693C440.798 221.628 440.855 221.574 440.921 221.532C440.987 221.491 441.061 221.465 441.138 221.454C441.214 221.441 441.291 221.443 441.366 221.46C441.44 221.478 441.51 221.511 441.571 221.557C441.7 221.654 441.786 221.797 441.812 221.955C441.837 222.114 441.8 222.276 441.708 222.407L440.005 224.801L439.08 226.101L438.61 226.751ZM438.314 236.569L437.154 238.329V245.591C437.154 245.807 437.067 246.013 436.913 246.166C436.759 246.318 436.55 246.403 436.333 246.403C436.115 246.403 435.906 246.318 435.752 246.166C435.598 246.013 435.511 245.807 435.511 245.591V238.009C435.51 237.89 435.537 237.772 435.589 237.664C435.641 237.556 435.718 237.461 435.813 237.387L436.951 235.654L439.825 231.321C440.027 231.572 440.258 231.797 440.514 231.993C440.575 232.042 440.64 232.085 440.706 232.128C440.832 232.215 440.963 232.293 441.1 232.361L438.314 236.569ZM447.586 244.93C447.714 245.106 447.766 245.324 447.731 245.537C447.696 245.75 447.577 245.941 447.4 246.068C447.223 246.194 447.002 246.246 446.787 246.211C446.571 246.177 446.378 246.059 446.251 245.884L443.01 241.448L441.762 239.737C441.656 239.591 441.604 239.413 441.615 239.233C441.593 239.126 441.593 239.016 441.615 238.908L442.063 236.851L442.945 232.805L443.229 231.5C443.269 231.319 443.37 231.157 443.515 231.039C443.66 230.922 443.841 230.858 444.028 230.856C444.087 230.85 444.145 230.85 444.204 230.856C444.238 230.862 444.271 230.873 444.302 230.888C444.494 230.949 444.657 231.079 444.758 231.252C444.859 231.425 444.892 231.629 444.849 231.825L444.707 232.491L443.695 237.143L443.289 239.006L444.384 240.528L447.586 244.93ZM445.616 229.291C445.58 229.43 445.532 229.565 445.473 229.697C444.956 229.323 444.31 229.165 443.676 229.256C443.042 229.347 442.469 229.68 442.08 230.184C441.997 230.288 441.924 230.398 441.861 230.514C441.805 230.613 441.757 230.716 441.719 230.823C441.432 230.643 441.186 230.405 440.998 230.125C440.809 229.845 440.682 229.53 440.624 229.198C440.621 229.181 440.621 229.162 440.624 229.144C440.621 229.117 440.621 229.09 440.624 229.063L440.372 227.168L441.467 225.619L442.419 224.281L443.092 223.334C443.434 222.852 443.571 222.258 443.475 221.678C443.379 221.098 443.057 220.578 442.578 220.23C442.344 220.061 442.078 219.94 441.796 219.873C441.515 219.806 441.222 219.795 440.936 219.841C440.688 219.882 440.45 219.965 440.23 220.084C440.621 219.594 441.191 219.275 441.817 219.196H442.02C442.125 219.188 442.231 219.188 442.337 219.196C442.934 219.199 443.509 219.414 443.958 219.803C444.406 220.192 444.698 220.729 444.778 221.314L445.545 227.07L445.725 228.446C445.737 228.731 445.7 229.017 445.616 229.291ZM454.346 227.845L450.816 228.3C450.638 228.323 450.457 228.312 450.284 228.265C450.111 228.219 449.95 228.138 449.809 228.029C449.66 227.925 449.535 227.792 449.441 227.638C449.347 227.485 449.286 227.313 449.261 227.135L448.166 218.768C448.124 218.412 448.222 218.053 448.44 217.766C448.549 217.625 448.686 217.507 448.842 217.419C448.998 217.33 449.17 217.274 449.349 217.252L452.874 216.792H453.054C453.386 216.794 453.706 216.914 453.956 217.131C454.205 217.348 454.367 217.647 454.412 217.972L455.507 226.334C455.551 226.686 455.454 227.04 455.237 227.323C455.02 227.605 454.701 227.792 454.346 227.845Z" fill="#494949"/>
<path d="M447.396 246.063C447.309 246.126 447.21 246.172 447.105 246.197C446.999 246.222 446.89 246.227 446.784 246.21C446.677 246.193 446.574 246.156 446.482 246.1C446.39 246.044 446.31 245.971 446.246 245.884L443.006 241.449L441.758 239.738C441.652 239.592 441.6 239.414 441.61 239.234C441.588 239.127 441.588 239.017 441.61 238.909L442.059 236.851L442.94 232.806L443.225 231.501C443.265 231.32 443.365 231.157 443.511 231.04C443.656 230.923 443.837 230.858 444.024 230.857C444.082 230.851 444.141 230.851 444.199 230.857C444.234 230.862 444.267 230.873 444.298 230.889C444.49 230.95 444.653 231.08 444.754 231.253C444.855 231.426 444.887 231.63 444.845 231.826L444.703 232.492L443.69 237.144L443.285 239.007L444.38 240.529L447.582 244.915C447.647 245.002 447.694 245.101 447.72 245.206C447.746 245.312 447.751 245.421 447.733 245.528C447.716 245.635 447.677 245.737 447.619 245.829C447.561 245.921 447.485 246.001 447.396 246.063Z" fill="white"/>
<path d="M441.914 213.782C441.913 214.21 441.766 214.624 441.497 214.958C441.227 215.293 440.852 215.527 440.431 215.623C440.37 215.64 440.308 215.651 440.245 215.656C439.743 215.719 439.236 215.584 438.835 215.28C438.433 214.976 438.169 214.527 438.099 214.031C438.061 213.753 438.087 213.47 438.176 213.203V213.165L440.71 212.775L441.159 212.705L441.504 212.65C441.536 212.683 441.563 212.719 441.586 212.759C441.746 212.992 441.847 213.259 441.882 213.539C441.898 213.619 441.909 213.7 441.914 213.782Z" fill="white"/>
<path d="M441.096 232.334L438.31 236.569L437.15 238.329V245.591C437.15 245.806 437.063 246.013 436.909 246.165C436.755 246.318 436.547 246.403 436.329 246.403C436.111 246.403 435.902 246.318 435.748 246.165C435.594 246.013 435.508 245.806 435.508 245.591V238.009C435.507 237.89 435.533 237.771 435.585 237.664C435.638 237.556 435.714 237.461 435.809 237.387L436.947 235.654L439.821 231.321C440.023 231.572 440.255 231.797 440.511 231.993C440.571 232.042 440.637 232.085 440.702 232.128C440.829 232.206 440.96 232.274 441.096 232.334Z" fill="white"/>
<path d="M441.723 222.399L440.02 224.792L439.095 226.092L438.625 226.753L437.94 227.717C437.914 227.8 437.869 227.876 437.81 227.941C437.75 228.006 437.677 228.056 437.596 228.09L435.685 228.838L431.438 230.495C431.369 230.524 431.294 230.54 431.219 230.54C431.143 230.54 431.069 230.524 431 230.495C430.852 230.429 430.735 230.309 430.677 230.159C430.62 230.009 430.624 229.844 430.687 229.696C430.75 229.549 430.868 229.432 431.016 229.368L435.187 227.744L436.933 227.056L438.088 225.431L438.378 225.03L439.774 223.07L440.754 221.695C440.797 221.63 440.853 221.575 440.919 221.534C440.985 221.493 441.06 221.467 441.137 221.456C441.212 221.443 441.29 221.445 441.364 221.462C441.439 221.48 441.509 221.513 441.569 221.559C441.698 221.653 441.786 221.793 441.814 221.949C441.843 222.105 441.81 222.266 441.723 222.399Z" fill="white"/>
<path d="M454.346 227.846L450.815 228.301C450.638 228.325 450.457 228.313 450.284 228.266C450.111 228.22 449.949 228.139 449.808 228.03C449.66 227.926 449.535 227.793 449.441 227.64C449.346 227.486 449.285 227.315 449.261 227.136L448.166 218.77C448.123 218.413 448.221 218.054 448.44 217.768C448.549 217.627 448.686 217.508 448.842 217.42C448.998 217.332 449.17 217.275 449.348 217.253L452.873 216.793H453.054C453.386 216.795 453.706 216.916 453.955 217.133C454.205 217.35 454.367 217.648 454.411 217.974L455.506 226.335C455.55 226.687 455.453 227.042 455.237 227.324C455.02 227.606 454.7 227.794 454.346 227.846Z" fill="#E6E6E6"/>
<path d="M445.613 229.292C445.577 229.431 445.529 229.567 445.47 229.698C444.952 229.324 444.307 229.166 443.673 229.257C443.039 229.348 442.466 229.682 442.077 230.185C441.994 230.289 441.921 230.4 441.858 230.516C441.801 230.614 441.754 230.718 441.715 230.824C441.429 230.644 441.183 230.406 440.995 230.126C440.806 229.847 440.679 229.531 440.621 229.2C440.618 229.182 440.618 229.164 440.621 229.146C440.618 229.119 440.618 229.091 440.621 229.064L440.369 227.169L441.464 225.62L442.416 224.283L443.089 223.335C443.431 222.854 443.568 222.26 443.472 221.679C443.376 221.099 443.054 220.58 442.575 220.232C442.341 220.062 442.075 219.941 441.793 219.874C441.511 219.807 441.219 219.796 440.933 219.842C440.685 219.884 440.447 219.966 440.227 220.086C440.618 219.595 441.188 219.276 441.814 219.197H442.016C442.122 219.189 442.228 219.189 442.334 219.197C442.93 219.2 443.506 219.416 443.955 219.805C444.403 220.194 444.695 220.73 444.775 221.315L445.541 227.072L445.722 228.447C445.733 228.733 445.696 229.018 445.613 229.292Z" fill="white"/>
<path d="M270.242 248.771C270.421 248.824 270.604 248.864 270.79 248.89C271.254 248.962 271.727 248.962 272.191 248.89C272.376 248.864 272.559 248.824 272.738 248.771H270.242Z" fill="#494949"/>
<path d="M300.998 234.567L299.52 233.043L294.709 224.292H288.031V243.289H293.724C293.88 242.153 294.448 241.11 295.321 240.356C296.195 239.601 297.315 239.185 298.475 239.185C299.635 239.185 300.755 239.601 301.629 240.356C302.502 241.11 303.07 242.153 303.226 243.289H307.49V235.21L300.998 234.567Z" fill="white"/>
<path d="M285.846 219.06V243.489H276.234C276.04 242.387 275.459 241.388 274.594 240.668C273.729 239.949 272.635 239.554 271.505 239.554C270.374 239.554 269.28 239.949 268.415 240.668C267.55 241.388 266.97 242.387 266.776 243.489H253.836V219.06H285.846Z" fill="white"/>
<path d="M303.79 233.042C302.697 233.042 301.691 232.448 301.163 231.491L296.853 223.676C296.325 222.719 295.319 222.125 294.226 222.125H288.033V218.894C288.033 217.789 287.138 216.894 286.033 216.894H253.645C252.54 216.894 251.645 217.789 251.645 218.894V243.455C251.645 244.559 252.54 245.455 253.645 245.455H266.883C267.108 246.246 267.535 246.967 268.124 247.548C268.713 248.129 269.443 248.549 270.244 248.769H272.762C273.564 248.549 274.294 248.129 274.884 247.549C275.474 246.968 275.902 246.247 276.128 245.455H293.901C294.209 246.416 294.819 247.256 295.641 247.852C296.464 248.448 297.457 248.769 298.477 248.769C299.497 248.769 300.49 248.448 301.312 247.852C302.135 247.256 302.745 246.416 303.053 245.455H306.681C308.338 245.455 309.681 244.112 309.681 242.455V236.042C309.681 234.386 308.338 233.042 306.681 233.042H303.79ZM273.769 245.455C273.544 245.855 273.216 246.189 272.817 246.421C272.418 246.654 271.963 246.776 271.5 246.776C271.037 246.776 270.583 246.654 270.184 246.421C269.785 246.189 269.456 245.855 269.231 245.455C269.006 245.054 268.887 244.603 268.886 244.144C268.886 243.853 268.934 243.564 269.029 243.289C269.203 242.779 269.534 242.336 269.976 242.022C270.418 241.708 270.948 241.54 271.492 241.54C272.036 241.54 272.566 241.708 273.008 242.022C273.45 242.336 273.781 242.779 273.955 243.289C274.08 243.643 274.127 244.02 274.092 244.393C274.057 244.767 273.941 245.129 273.753 245.455H273.769ZM285.844 241.489C285.844 242.593 284.948 243.489 283.844 243.489H276.232C276.038 242.387 275.458 241.388 274.592 240.669C273.727 239.949 272.633 239.554 271.503 239.554C270.373 239.554 269.278 239.949 268.413 240.669C267.548 241.388 266.968 242.387 266.774 243.489H255.834C254.729 243.489 253.834 242.593 253.834 241.489V221.06C253.834 219.955 254.729 219.06 255.834 219.06H283.844C284.948 219.06 285.844 219.955 285.844 221.06V241.489ZM300.623 245.444C300.387 245.797 300.067 246.087 299.691 246.287C299.314 246.488 298.893 246.592 298.466 246.592C298.038 246.592 297.618 246.488 297.241 246.287C296.865 246.087 296.545 245.797 296.309 245.444C296.011 245.008 295.853 244.492 295.855 243.965C295.856 243.734 295.885 243.503 295.943 243.278C296.082 242.722 296.406 242.228 296.862 241.875C297.319 241.522 297.881 241.33 298.46 241.33C299.04 241.33 299.602 241.522 300.058 241.875C300.515 242.228 300.839 242.722 300.978 243.278C301.047 243.501 301.082 243.732 301.082 243.965C301.086 244.495 300.929 245.013 300.633 245.455L300.623 245.444ZM307.486 241.283C307.483 242.386 306.589 243.278 305.486 243.278H303.239C303.083 242.141 302.515 241.099 301.641 240.344C300.768 239.589 299.648 239.173 298.488 239.173C297.328 239.173 296.208 239.589 295.334 240.344C294.461 241.099 293.893 242.141 293.737 243.278H290.044C288.94 243.278 288.044 242.382 288.044 241.278V226.291C288.044 225.186 288.94 224.291 290.044 224.291H293.539C294.269 224.291 294.94 224.688 295.292 225.328L299.533 233.042L300.156 234.174C300.508 234.812 301.179 235.209 301.908 235.209H305.497C306.604 235.209 307.5 236.107 307.497 237.214L307.486 241.283Z" fill="#494949"/>
<path d="M274.12 244.144C274.119 244.604 273.998 245.055 273.769 245.455C273.545 245.856 273.216 246.189 272.817 246.422C272.418 246.654 271.963 246.777 271.5 246.777C271.037 246.777 270.583 246.654 270.184 246.422C269.785 246.189 269.456 245.856 269.232 245.455C269.006 245.054 268.888 244.603 268.887 244.144C268.886 243.853 268.934 243.564 269.029 243.289C269.203 242.779 269.534 242.336 269.976 242.022C270.418 241.709 270.948 241.54 271.492 241.54C272.036 241.54 272.566 241.709 273.008 242.022C273.45 242.336 273.781 242.779 273.955 243.289C274.057 243.563 274.113 243.852 274.12 244.144Z" fill="white"/>
<path d="M301.095 243.978C301.092 244.505 300.932 245.02 300.635 245.457C300.399 245.81 300.079 246.099 299.703 246.3C299.326 246.5 298.906 246.605 298.478 246.605C298.051 246.605 297.63 246.5 297.253 246.3C296.877 246.099 296.557 245.81 296.322 245.457C296.023 245.02 295.865 244.505 295.867 243.978C295.868 243.746 295.897 243.515 295.955 243.29C296.095 242.734 296.418 242.24 296.875 241.887C297.331 241.535 297.893 241.343 298.473 241.343C299.052 241.343 299.614 241.535 300.071 241.887C300.527 242.24 300.851 242.734 300.991 243.29C301.059 243.513 301.094 243.745 301.095 243.978Z" fill="white"/>
<path d="M296.962 233.166C297.467 234.144 296.756 235.31 295.655 235.31H293.191C291.55 235.31 290.219 233.979 290.219 232.338V228.382C290.219 227.271 291.12 226.369 292.232 226.369C292.986 226.369 293.676 226.79 294.021 227.46L294.565 228.514L296.962 233.166Z" fill="#E6E6E6"/>
<path d="M174.833 174.325L174.105 173.751V173.968L174.74 174.444L174.833 174.531L175.052 174.699L175.906 175.338L174.833 174.325ZM189.109 248.826V248.88H190.203V248.826H189.109Z" fill="#494949"/>
<path d="M196.537 222.815C194.832 221.129 192.557 220.126 190.149 219.999C189.784 219.977 189.419 219.977 189.054 219.999C186.646 220.124 184.371 221.127 182.667 222.815C182.502 222.978 182.344 223.151 182.19 223.324C182.037 223.497 181.939 223.617 181.824 223.768C181.555 224.113 181.31 224.474 181.09 224.851C180.997 225.014 180.904 225.182 180.822 225.349C180.74 225.517 180.68 225.642 180.614 225.794C180.614 225.842 180.565 225.896 180.543 225.951C180.472 226.129 180.4 226.308 180.34 226.492C180.28 226.676 180.209 226.887 180.154 227.088L180.078 227.359V227.424C180.045 227.561 180.017 227.696 179.995 227.83C179.995 227.895 179.968 227.96 179.957 228.03C179.935 228.139 179.919 228.25 179.908 228.36C179.905 228.384 179.905 228.408 179.908 228.431C179.877 228.632 179.857 228.834 179.848 229.037C179.848 229.243 179.848 229.449 179.848 229.66V229.725C179.87 228.103 180.304 226.512 181.111 225.099C181.917 223.686 183.069 222.497 184.462 221.64L184.812 221.44L185.168 221.25C185.321 221.174 185.475 221.098 185.628 221.033C186.722 220.544 187.899 220.261 189.098 220.199C189.463 220.177 189.828 220.177 190.193 220.199C192.668 220.327 195.002 221.383 196.718 223.153C198.434 224.923 199.405 227.273 199.432 229.725V229.66C199.431 228.386 199.174 227.126 198.677 225.951C198.18 224.776 197.453 223.71 196.537 222.815Z" fill="#494949"/>
<path d="M270.242 248.748C270.421 248.801 270.604 248.841 270.79 248.867C271.254 248.939 271.727 248.939 272.191 248.867C272.376 248.841 272.559 248.801 272.738 248.748H270.242Z" fill="#494949"/>
<path d="M276.128 245.458C275.902 246.25 275.474 246.971 274.884 247.552C274.294 248.132 273.563 248.553 272.762 248.772H278.235V245.458H276.128Z" fill="white"/>
<path d="M386.367 248.771V209.003C386.367 208.522 386.194 208.058 385.88 207.694L370.138 189.488L369.8 189.097C369.42 188.657 368.868 188.405 368.287 188.405H332.447C331.866 188.405 331.314 188.657 330.934 189.096L314.849 207.694C314.534 208.058 314.361 208.522 314.361 209.003V248.771H279.456V245.457H278.252V248.771H272.778C272.599 248.824 272.416 248.864 272.231 248.89C271.767 248.962 271.294 248.962 270.83 248.89C270.644 248.864 270.461 248.824 270.282 248.771H225.234V209.071C225.234 208.741 224.967 208.474 224.638 208.474C224.308 208.474 224.041 208.741 224.041 209.071V248.771H208.299V208.774C208.299 207.669 209.194 206.774 210.299 206.774H218.983C220.64 206.774 221.983 205.431 221.983 203.774V79.5196C221.983 78.9887 222.124 78.4674 222.391 78.0087L234.572 57.1121L234.832 56.6612C235.19 56.0422 235.85 55.6608 236.565 55.6608H241.968C242.276 55.6608 242.525 55.4111 242.525 55.103C242.525 54.7949 242.276 54.5452 241.968 54.5452H237.667C236.562 54.5452 235.667 53.6498 235.667 52.5452V41.4361C235.667 40.3315 236.562 39.4361 237.667 39.4361H248.884C249.988 39.4361 250.884 40.3315 250.884 41.4361V54.4338C250.884 54.9643 251.024 55.4853 251.291 55.9437L264.16 78.0361C264.427 78.4946 264.568 79.0156 264.568 79.5461V203.774C264.568 205.431 265.911 206.774 267.568 206.774H276.252C277.356 206.774 278.252 207.669 278.252 208.774V216.895H279.456V208.583C279.456 206.926 278.113 205.583 276.456 205.583H267.771C266.667 205.583 265.771 204.688 265.771 203.584L265.696 79.1273C265.695 78.5979 265.555 78.0781 265.289 77.6205L252.495 55.6291C252.228 55.171 252.088 54.6505 252.088 54.1205V41.2446C252.088 39.5878 250.745 38.2447 249.088 38.2447H245.877C244.773 38.2447 243.877 37.3492 243.877 36.2447V32.3482C243.877 32.0157 243.608 31.7461 243.275 31.7461C242.943 31.7461 242.673 32.0157 242.673 32.3482V36.2447C242.673 37.3492 241.778 38.2447 240.673 38.2447H237.463C235.806 38.2447 234.463 39.5878 234.463 41.2447V54.1142C234.463 54.6447 234.322 55.1658 234.055 55.6243L221.257 77.5928C220.99 78.0508 220.85 78.5712 220.849 79.1012L220.812 147.209H194.987C193.331 147.209 191.987 148.552 191.987 150.209V152.72C191.987 153.825 191.092 154.72 189.987 154.72H187.061V133.151C187.061 131.494 185.718 130.151 184.061 130.151H180.139C179.035 130.151 178.139 129.255 178.139 128.151V79.1529C178.139 77.4961 176.796 76.1529 175.139 76.1529H173.872C172.767 76.1529 171.872 75.2575 171.872 74.1529V52.6605C171.872 51.0036 170.529 49.6605 168.872 49.6605H161.135C160.03 49.6605 159.135 48.765 159.135 47.6605V37.2221C159.135 36.8896 158.865 36.62 158.533 36.62C158.2 36.62 157.931 36.8896 157.931 37.2221V47.6605C157.931 48.765 157.035 49.6605 155.931 49.6605H148.188C146.531 49.6605 145.188 51.0036 145.188 52.6605V74.1529C145.188 75.2575 144.293 76.1529 143.188 76.1529H141.921C140.264 76.1529 138.921 77.4961 138.921 79.1529V128.151C138.921 129.255 138.025 130.151 136.921 130.151H133.015C131.358 130.151 130.015 131.494 130.015 133.151V166.727H119.517V141.274C119.517 139.617 118.173 138.274 116.517 138.274H111.664C110.56 138.274 109.664 137.378 109.664 136.274V76.7755C109.664 75.1187 108.321 73.7755 106.664 73.7755H105.03C103.925 73.7755 103.03 72.8801 103.03 71.7755V65.7117C103.03 64.0549 101.687 62.7117 100.03 62.7117H93.738C92.6334 62.7117 91.738 61.8163 91.738 60.7117V49.0971C91.738 47.4402 90.3948 46.0971 88.738 46.0971H56.3076C54.6508 46.0971 53.3076 47.4402 53.3076 49.0971V60.7117C53.3076 61.8163 52.4122 62.7117 51.3076 62.7117H45.9078C44.2509 62.7117 42.9078 64.0549 42.9078 65.7117V71.7755C42.9078 72.8801 42.0123 73.7755 40.9078 73.7755H39.2464C37.5895 73.7755 36.2464 75.1187 36.2464 76.7755V136.274C36.2464 137.378 35.3509 138.274 34.2464 138.274H28.529C26.8721 138.274 25.529 139.617 25.529 141.274V248.749H0.620074C0.277617 248.749 0 249.027 0 249.369C0 249.712 0.277616 249.989 0.620073 249.989H399.487C399.817 249.989 400.084 249.722 400.084 249.393C400.084 249.064 399.818 248.797 399.489 248.797L386.367 248.771ZM131.219 133.342C131.219 132.237 132.115 131.342 133.219 131.342H137.125C138.782 131.342 140.125 129.999 140.125 128.342V79.3443C140.125 78.2397 141.02 77.3443 142.125 77.3443H143.398C145.054 77.3443 146.398 76.0012 146.398 74.3443V52.8519C146.398 51.7473 147.293 50.8519 148.398 50.8519H168.668C169.772 50.8519 170.668 51.7473 170.668 52.8519V74.3443C170.668 76.0012 172.011 77.3443 173.668 77.3443H174.935C176.04 77.3443 176.935 78.2397 176.935 79.3443V128.342C176.935 129.999 178.278 131.342 179.935 131.342H183.846C184.951 131.342 185.846 132.237 185.846 133.342V154.731H179.656C177.999 154.731 176.656 156.074 176.656 157.731V175.797L166.69 167.741C165.8 167.021 164.69 166.629 163.546 166.629H131.219V133.342ZM85.5528 248.771H26.7387V141.465C26.7387 140.361 27.6341 139.465 28.7387 139.465H34.4506C36.1074 139.465 37.4506 138.122 37.4506 136.465V76.9669C37.4506 75.8624 38.346 74.9669 39.4506 74.9669H41.0955C42.7524 74.9669 44.0955 73.6238 44.0955 71.9669V65.9031C44.0955 64.7986 44.991 63.9031 46.0955 63.9031H58.826C59.155 63.9031 59.4217 63.6364 59.4217 63.3074C59.4217 62.9784 59.155 62.7117 58.826 62.7117H56.4954C55.3909 62.7117 54.4954 61.8163 54.4954 60.7117V49.2885C54.4954 48.1839 55.3909 47.2885 56.4954 47.2885H88.5064C89.611 47.2885 90.5064 48.1839 90.5064 49.2885V60.7117C90.5064 61.8163 89.611 62.7117 88.5064 62.7117H87.079C86.75 62.7117 86.4833 62.9784 86.4833 63.3074C86.4833 63.6364 86.75 63.9031 87.079 63.9031H99.8094C100.914 63.9031 101.809 64.7986 101.809 65.9031V71.9669C101.809 73.6238 103.153 74.9669 104.809 74.9669H106.454C107.559 74.9669 108.454 75.8624 108.454 76.9669V136.465C108.454 138.122 109.798 139.465 111.454 139.465H116.307C117.412 139.465 118.307 140.361 118.307 141.465V166.727H111.609C110.934 166.727 110.279 166.954 109.75 167.373L106.626 169.84L85.5528 186.525V248.771ZM189.004 248.771H120.622V248.825H120.562V248.771H86.8008V188.711C86.8008 188.159 87.2485 187.711 87.8008 187.711H120.027C120.356 187.711 120.622 187.445 120.622 187.116C120.622 186.787 120.356 186.52 120.027 186.52H89.0153C88.5414 186.52 88.3334 185.922 88.705 185.628L108.465 169.987L110.219 168.595C110.749 168.174 111.407 167.945 112.084 167.945H163.713C164.389 167.945 165.044 168.173 165.574 168.592L187.866 186.231C188.585 186.8 189.004 187.667 189.004 188.584V219.045C186.196 219.197 183.553 220.408 181.62 222.429C179.686 224.449 178.609 227.126 178.609 229.909C178.609 232.691 179.686 235.368 181.62 237.389C183.553 239.409 186.196 240.62 189.004 240.772V248.771ZM189.004 238.498C189.004 239.076 188.515 239.537 187.946 239.439C185.856 239.078 183.892 238.06 182.441 236.523C180.747 234.729 179.807 232.364 179.814 229.909V229.698C179.814 229.486 179.814 229.281 179.814 229.075C179.823 228.872 179.843 228.669 179.874 228.468C179.871 228.445 179.871 228.421 179.874 228.398C179.885 228.287 179.901 228.177 179.924 228.068C179.924 227.997 179.924 227.932 179.962 227.867C180 227.802 180.011 227.596 180.044 227.461V227.396L180.121 227.125C180.175 226.925 180.236 226.724 180.307 226.53C180.378 226.335 180.438 226.167 180.509 225.988C180.509 225.934 180.559 225.88 180.58 225.831C180.646 225.679 180.712 225.533 180.788 225.387C180.865 225.241 180.964 225.051 181.057 224.889C181.276 224.512 181.521 224.15 181.79 223.806C181.905 223.654 182.031 223.508 182.157 223.361C182.283 223.215 182.469 223.015 182.633 222.852C184.337 221.164 186.613 220.161 189.021 220.036C189.385 220.014 189.751 220.014 190.115 220.036C192.616 220.166 194.971 221.242 196.691 223.043C198.412 224.844 199.365 227.231 199.355 229.708V229.92C199.355 231.193 199.105 232.455 198.621 233.635C198.133 234.81 197.413 235.878 196.503 236.776C196.066 237.209 195.586 237.598 195.069 237.935C194.949 238.021 194.823 238.097 194.697 238.173C194.571 238.249 194.472 238.314 194.358 238.373L194.018 238.552C193.141 238.987 192.204 239.29 191.24 239.451C190.673 239.546 190.187 239.085 190.187 238.509V230.202C190.187 229.876 189.922 229.611 189.595 229.611C189.269 229.611 189.004 229.876 189.004 230.202V238.498ZM190.203 248.906H189.108V248.852H190.203V248.906ZM207.095 248.798H190.203V240.745C191.448 240.676 192.673 240.402 193.827 239.933C195.833 239.108 197.548 237.713 198.753 235.924C199.958 234.134 200.6 232.032 200.597 229.882C200.604 228.452 200.324 227.036 199.772 225.715C199.22 224.394 198.409 223.194 197.384 222.186C195.468 220.29 192.91 219.162 190.203 219.018V187.974C190.203 187.059 189.786 186.194 189.069 185.625L177.86 176.718V157.923C177.86 156.818 178.755 155.923 179.86 155.923H190.186C191.843 155.923 193.186 154.58 193.186 152.923V150.401C193.186 149.296 194.082 148.401 195.186 148.401H220.806L220.78 203.583C220.779 204.688 219.884 205.583 218.78 205.583H210.095C208.438 205.583 207.095 206.926 207.095 208.583V248.798ZM385.168 248.798H351.084V235.324H349.874V248.771H315.549V211.617C315.549 210.512 316.444 209.617 317.549 209.617H323.054C323.383 209.617 323.65 209.35 323.65 209.021C323.65 208.692 323.383 208.426 323.054 208.426H316.883C316.455 208.426 316.225 207.922 316.505 207.599L331.492 190.271C331.872 189.832 332.424 189.58 333.005 189.58H366.088C366.516 189.58 366.746 190.083 366.466 190.407L351.273 207.963C350.713 208.61 351.173 209.617 352.029 209.617H356.52C356.849 209.617 357.116 209.35 357.116 209.021C357.116 208.692 356.849 208.426 356.52 208.426H352.458L367.179 191.405C367.977 190.483 369.408 190.483 370.205 191.406L384.202 207.599C384.482 207.923 384.251 208.426 383.823 208.426H369.135C368.806 208.426 368.539 208.692 368.539 209.021C368.539 209.35 368.806 209.617 369.135 209.617H383.168C384.273 209.617 385.168 210.512 385.168 211.617V248.798Z" fill="#494949"/>
</svg>
