<svg width="989" height="243" viewBox="0 0 989 243" fill="none" xmlns="http://www.w3.org/2000/svg">
<path d="M70.7005 98.3406C70.7007 104.397 68.4414 110.236 64.3645 114.715C60.2877 119.194 54.6866 121.991 48.6567 122.558C47.8966 122.665 47.1365 122.665 46.3763 122.665H15.211C14.7033 122.666 14.1958 122.641 13.6908 122.589C11.4522 122.365 9.29129 121.647 7.36376 120.487C5.43622 119.327 3.79015 117.754 2.54426 115.881C1.29838 114.008 0.483747 111.881 0.159117 109.655C-0.165513 107.429 0.00795338 105.159 0.667006 103.008C1.32606 100.857 2.45427 98.8789 3.97026 97.2168C5.48625 95.5546 7.35223 94.2497 9.43362 93.396C11.515 92.5423 13.7599 92.1612 16.0064 92.2801C18.2529 92.3991 20.445 93.0151 22.4246 94.0838C23.4853 88.0929 26.7526 82.7169 31.582 79.0164C36.4114 75.3159 42.4522 73.5597 48.5128 74.0941C54.5735 74.6285 60.2138 77.4147 64.3211 81.9032C68.4285 86.3917 70.7046 92.2564 70.7005 98.3406Z" fill="#F7F7F7"/>
<path d="M988.701 202.341C988.701 208.397 986.441 214.236 982.365 218.715C978.288 223.194 972.687 225.991 966.657 226.558C965.897 226.665 965.136 226.665 964.376 226.665H933.211C932.703 226.666 932.196 226.641 931.691 226.589C929.452 226.365 927.291 225.647 925.364 224.487C923.436 223.327 921.79 221.754 920.544 219.881C919.298 218.008 918.484 215.881 918.159 213.655C917.834 211.429 918.008 209.159 918.667 207.008C919.326 204.857 920.454 202.879 921.97 201.217C923.486 199.555 925.352 198.25 927.434 197.396C929.515 196.542 931.76 196.161 934.006 196.28C936.253 196.399 938.445 197.015 940.425 198.084C941.485 192.093 944.753 186.717 949.582 183.016C954.411 179.316 960.452 177.56 966.513 178.094C972.573 178.628 978.214 181.415 982.321 185.903C986.428 190.392 988.705 196.256 988.701 202.341Z" fill="#F7F7F7"/>
<path d="M763.656 24.3497C763.657 30.4062 761.397 36.2449 757.32 40.7238C753.244 45.2028 747.642 47.9996 741.613 48.5674C740.852 48.6739 740.092 48.6739 739.332 48.6739H689.924C687.933 48.6741 685.968 48.2142 684.184 47.33C682.4 46.4458 680.844 45.1613 679.639 43.5767C678.433 41.9921 677.61 40.1503 677.233 38.195C676.857 36.2398 676.937 34.2239 677.468 32.3049C677.999 30.3858 678.967 28.6155 680.295 27.132C681.623 25.6485 683.276 24.4921 685.125 23.7529C686.974 23.0137 688.969 22.7117 690.953 22.8706C692.938 23.0296 694.86 23.645 696.567 24.6689C698.175 20.8707 701.129 17.8004 704.862 16.0479C708.596 14.2955 712.846 13.9846 716.794 15.1749C718.917 9.94496 722.793 5.61616 727.758 2.9303C732.722 0.244441 738.466 -0.631267 744.006 0.453235C749.545 1.53774 754.535 4.51493 758.12 8.87466C761.705 13.2344 763.662 18.7052 763.656 24.3497Z" fill="#F7F7F7"/>
<path d="M502.656 218.35C502.657 224.406 500.397 230.245 496.32 234.724C492.244 239.203 486.642 242 480.613 242.567C479.852 242.674 479.092 242.674 478.332 242.674H428.924C426.933 242.674 424.968 242.214 423.184 241.33C421.4 240.446 419.844 239.161 418.639 237.577C417.433 235.992 416.61 234.15 416.233 232.195C415.857 230.24 415.937 228.224 416.468 226.305C416.999 224.386 417.967 222.615 419.295 221.132C420.623 219.649 422.276 218.492 424.125 217.753C425.974 217.014 427.969 216.712 429.953 216.871C431.938 217.03 433.86 217.645 435.567 218.669C437.175 214.871 440.129 211.8 443.862 210.048C447.596 208.295 451.846 207.985 455.794 209.175C457.917 203.945 461.793 199.616 466.758 196.93C471.722 194.244 477.466 193.369 483.006 194.453C488.545 195.538 493.535 198.515 497.12 202.875C500.705 207.234 502.662 212.705 502.656 218.35Z" fill="#F7F7F7"/>
</svg>
