<svg width="1097" height="578" viewBox="0 0 1097 578" fill="none" xmlns="http://www.w3.org/2000/svg">
<path d="M909.492 83.2765C909.205 82.4627 908.312 82.0363 907.499 82.3235C906.685 82.611 906.259 83.5036 906.546 84.317C906.647 84.6049 906.865 85.603 906.875 88.8749H905.93C904.975 88.8749 904.095 86.4299 903.164 83.8418C901.891 80.304 900.149 75.4641 896.425 71.3839L896.335 70.9034C898.527 72.4156 901.361 74.867 903.727 78.5452C904.026 79.0092 904.529 79.2622 905.042 79.2622C905.332 79.2622 905.625 79.1819 905.886 79.0134C906.612 78.5467 906.822 77.5797 906.355 76.8542C904.402 73.8179 901.953 71.1873 899.07 69.0253C900.316 68.4395 901.569 67.6889 902.643 66.9429C904.637 65.5577 908.199 62.6906 909.641 59.049C910.392 57.1516 909.914 55.0586 908.393 53.5867C906.768 52.015 904.417 51.5657 902.403 52.4423C901.884 52.6682 901.473 52.9387 901.147 53.2692C900.71 53.7115 899.96 54.8043 899.078 56.1971C898.534 55.4829 897.793 54.9069 896.934 54.5424C894.476 53.5003 891.798 54.3623 890.421 56.6385C890.146 57.0942 889.966 57.5457 889.886 57.9807C889.849 58.1855 889.69 58.7423 889.536 59.2807C889.274 60.1992 888.947 61.3448 888.686 62.5166C888.054 62.4125 887.394 62.4442 886.739 62.6164C886.242 60.5621 884.39 59.0316 882.185 59.0316C879.601 59.0316 877.499 61.1341 877.499 63.7189C877.499 64.6759 877.787 65.5666 878.282 66.3092C874.947 69.5793 872.364 72.8533 870.215 76.5227C869.778 77.2675 870.028 78.2244 870.773 78.6609C871.021 78.8062 871.293 78.8755 871.561 78.8755C872.097 78.8755 872.62 78.5989 872.91 78.1023C874.989 74.5529 877.514 71.3888 880.817 68.202C881.25 68.3345 881.709 68.4066 882.185 68.4066C882.321 68.4066 882.454 68.3992 882.587 68.3879C882.617 68.8159 882.698 69.2423 882.83 69.659C882.971 70.1016 883.167 70.5185 883.41 70.9044L879.033 73.5542C878.565 73.8371 878.28 74.3441 878.28 74.8908V83.5625C878.28 84.4254 878.979 85.125 879.842 85.125C880.705 85.125 881.404 84.4254 881.404 83.5625V75.7715L885.903 73.0478C886.097 73.1479 886.295 73.2453 886.494 73.3387C886.516 73.349 886.539 73.3591 886.561 73.3695L889.3 78.3025L884.311 84.712C883.781 85.393 883.903 86.3747 884.584 86.9049C884.869 87.1268 885.207 87.2346 885.543 87.2346C886.008 87.2346 886.468 87.0273 886.776 86.6317L892.4 79.4069C892.785 78.9124 892.837 78.236 892.533 77.6884L890.789 74.5474C893.015 74.9326 895.013 75.038 895.151 75.045C895.177 75.0462 895.203 75.0468 895.229 75.0468C895.286 75.0468 895.342 75.0438 895.398 75.0377C896.403 76.3752 897.216 77.7729 897.898 79.1633L891.457 85.7514C890.853 86.368 890.864 87.3573 891.481 87.9607C891.785 88.258 892.179 88.4061 892.573 88.4061C892.979 88.4061 893.384 88.2492 893.69 87.9363L899.244 82.256C899.602 83.1721 899.922 84.0606 900.224 84.9001C900.883 86.7321 901.453 88.3145 902.175 89.5227C903.158 91.1664 904.421 92 905.93 92H908.429C909.292 92 909.991 91.3004 909.991 90.4375C909.991 90.3877 909.992 90.3019 909.994 90.1862C910.035 86.5594 909.876 84.3637 909.492 83.2765ZM903.37 55.4652C903.371 55.4643 903.439 55.3992 903.65 55.3077C903.946 55.1785 904.24 55.1239 904.521 55.1239C905.218 55.1239 905.835 55.4603 906.22 55.833C906.51 56.1135 907.141 56.876 906.736 57.8983C905.904 60.0002 903.668 62.4491 900.755 64.4494C899.04 65.627 897.543 66.341 896.5 66.7067C899.162 62.0175 902.543 56.3031 903.37 55.4652ZM892.96 58.5405C892.96 58.5405 892.978 58.4486 893.094 58.2566C893.786 57.112 894.938 57.0903 895.714 57.4193C896.482 57.745 897.187 58.528 896.865 59.7502C896.852 59.8005 896.837 59.8494 896.821 59.8949C896.819 59.9019 896.818 59.9089 896.815 59.9156C895.537 62.0776 894.282 64.2788 893.457 65.7387C892.833 65.0275 892.192 64.4479 891.574 63.9763C891.823 62.6509 892.23 61.2257 892.54 60.1387C892.747 59.4175 892.895 58.8964 892.96 58.5405ZM880.623 63.7189C880.623 62.8572 881.324 62.1564 882.185 62.1564C883.046 62.1564 883.747 62.8572 883.747 63.7189C883.747 64.5803 883.046 65.2815 882.185 65.2815C881.324 65.2815 880.623 64.5803 880.623 63.7189ZM887.821 70.5097C887.494 70.3561 887.174 70.191 886.87 70.0188C885.826 69.4273 885.407 68.1135 885.917 67.0278C886.214 66.3938 886.795 65.8727 887.433 65.6676C887.615 65.6087 887.791 65.5794 887.958 65.5794C888.184 65.5794 888.395 65.6334 888.588 65.7415C890.028 66.547 891.997 68.1825 893.251 71.4111L893.315 71.7508C891.531 71.5469 889.203 71.1583 887.821 70.5097Z" fill="#F7F7F7"/>
<path d="M926.341 435.697C926.175 434.851 925.354 434.299 924.508 434.464C923.661 434.63 923.109 435.451 923.275 436.298C923.333 436.597 923.403 437.616 922.936 440.855L922.001 440.717C921.056 440.578 920.542 438.031 919.998 435.335C919.254 431.649 918.236 426.607 915.146 422.028L915.127 421.539C917.075 423.355 919.522 426.193 921.327 430.177C921.555 430.679 922.016 431.003 922.524 431.078C922.81 431.12 923.112 431.083 923.395 430.955C924.181 430.599 924.529 429.672 924.173 428.887C922.683 425.598 920.644 422.639 918.106 420.08C919.425 419.682 920.774 419.122 921.945 418.54C924.12 417.46 928.061 415.143 930.019 411.75C931.038 409.983 930.87 407.842 929.58 406.164C928.201 404.373 925.941 403.586 923.821 404.159C923.274 404.307 922.828 404.515 922.458 404.795C921.961 405.168 921.059 406.14 919.984 407.39C919.55 406.604 918.901 405.926 918.104 405.44C915.825 404.051 913.049 404.514 911.355 406.565C911.016 406.976 910.772 407.396 910.631 407.815C910.564 408.012 910.325 408.54 910.095 409.05C909.702 409.92 909.212 411.006 908.782 412.127C908.172 411.932 907.514 411.867 906.842 411.942C906.649 409.838 905.039 408.053 902.858 407.732C900.302 407.356 897.916 409.129 897.539 411.687C897.4 412.633 897.555 413.557 897.936 414.363C894.16 417.113 891.128 419.975 888.467 423.292C887.927 423.965 888.035 424.949 888.707 425.489C888.932 425.669 889.191 425.777 889.456 425.816C889.987 425.894 890.544 425.697 890.903 425.248C893.478 422.039 896.437 419.277 900.169 416.605C900.578 416.8 901.022 416.938 901.492 417.007C901.626 417.027 901.76 417.039 901.892 417.047C901.86 417.475 901.878 417.909 901.948 418.34C902.023 418.799 902.156 419.24 902.34 419.657L897.624 421.64C897.12 421.852 896.763 422.312 896.684 422.853L895.42 431.432C895.294 432.286 895.884 433.08 896.738 433.206C897.591 433.331 898.385 432.741 898.511 431.887L899.646 424.18L904.494 422.141C904.672 422.268 904.853 422.393 905.036 422.514C905.057 422.528 905.078 422.541 905.099 422.555L907.089 427.834L901.22 433.448C900.596 434.045 900.574 435.034 901.17 435.658C901.42 435.919 901.739 436.074 902.07 436.123C902.53 436.191 903.016 436.053 903.379 435.707L909.995 429.379C910.448 428.945 910.598 428.284 910.377 427.698L909.11 424.336C911.256 425.042 913.217 425.437 913.352 425.464C913.378 425.469 913.404 425.473 913.43 425.477C913.485 425.485 913.542 425.491 913.598 425.493C914.397 426.963 914.998 428.464 915.47 429.939L908.137 435.518C907.451 436.04 907.317 437.02 907.84 437.707C908.097 438.046 908.465 438.249 908.855 438.307C909.256 438.366 909.68 438.27 910.029 438.005L916.351 433.195C916.572 434.153 916.759 435.079 916.935 435.953C917.32 437.862 917.653 439.51 918.192 440.811C918.924 442.58 920.053 443.589 921.545 443.809L924.018 444.173C924.872 444.299 925.665 443.708 925.791 442.855C925.798 442.806 925.812 442.721 925.83 442.607C926.4 439.024 926.562 436.829 926.341 435.697ZM924.337 407.291C924.338 407.29 924.415 407.236 924.637 407.176C924.949 407.091 925.248 407.08 925.526 407.121C926.215 407.223 926.776 407.645 927.103 408.07C927.349 408.39 927.862 409.236 927.312 410.189C926.183 412.147 923.614 414.244 920.441 415.798C918.572 416.713 916.988 417.202 915.902 417.411C919.219 413.16 923.396 407.999 924.337 407.291ZM913.59 408.816C913.59 408.816 913.621 408.728 913.764 408.555C914.616 407.524 915.758 407.67 916.478 408.109C917.19 408.543 917.774 409.42 917.277 410.582C917.257 410.63 917.235 410.676 917.213 410.719C917.209 410.726 917.207 410.732 917.204 410.739C915.624 412.691 914.061 414.686 913.033 416.01C912.519 415.216 911.969 414.549 911.427 413.992C911.867 412.717 912.476 411.367 912.942 410.336C913.251 409.653 913.474 409.159 913.59 408.816ZM900.63 412.142C900.755 411.289 901.551 410.698 902.403 410.824C903.255 410.949 903.846 411.745 903.721 412.597C903.595 413.449 902.8 414.041 901.948 413.915C901.095 413.79 900.504 412.994 900.63 412.142ZM906.761 419.909C906.461 419.71 906.168 419.5 905.892 419.285C904.946 418.547 904.723 417.187 905.385 416.187C905.772 415.603 906.422 415.172 907.083 415.062C907.272 415.03 907.45 415.027 907.615 415.051C907.839 415.084 908.04 415.168 908.215 415.303C909.523 416.31 911.233 418.215 912.002 421.592L912.016 421.937C910.281 421.476 908.034 420.752 906.761 419.909Z" fill="#F7F7F7"/>
<path d="M56.5081 360.276C56.7953 359.463 57.6882 359.036 58.5012 359.323C59.3148 359.611 59.7415 360.504 59.454 361.317C59.3527 361.605 59.1351 362.603 59.1247 365.875H60.0704C61.0253 365.875 61.9049 363.43 62.8362 360.842C64.1091 357.304 65.8511 352.464 69.5754 348.384L69.6655 347.903C67.4734 349.416 64.6389 351.867 62.2726 355.545C61.9741 356.009 61.4712 356.262 60.9576 356.262C60.668 356.262 60.375 356.182 60.1138 356.013C59.3881 355.547 59.1784 354.58 59.6453 353.854C61.5984 350.818 64.0475 348.187 66.9305 346.025C65.6835 345.44 64.4311 344.689 63.3569 343.943C61.3625 342.558 57.8015 339.691 56.3592 336.049C55.6078 334.152 56.0861 332.059 57.6074 330.587C59.2321 329.015 61.5832 328.566 63.597 329.442C64.1162 329.668 64.5269 329.939 64.8532 330.269C65.2896 330.712 66.0403 331.804 66.9222 333.197C67.4658 332.483 68.2067 331.907 69.0661 331.542C71.5237 330.5 74.2019 331.362 75.5789 333.639C75.8544 334.094 76.0345 334.546 76.1135 334.981C76.1511 335.185 76.3101 335.742 76.4636 336.281C76.726 337.199 77.0526 338.345 77.3141 339.517C77.9464 339.412 78.6062 339.444 79.2605 339.616C79.7579 337.562 81.6104 336.032 83.815 336.032C86.3989 336.032 88.5012 338.134 88.5012 340.719C88.5012 341.676 88.2125 342.567 87.7185 343.309C91.0531 346.579 93.6361 349.853 95.7855 353.523C96.2216 354.267 95.9716 355.224 95.2273 355.661C94.9792 355.806 94.7073 355.875 94.439 355.875C93.9029 355.875 93.3804 355.599 93.0899 355.102C91.0107 351.553 88.4857 348.389 85.1831 345.202C84.75 345.335 84.2907 345.407 83.815 345.407C83.6795 345.407 83.5458 345.399 83.4133 345.388C83.3831 345.816 83.3023 346.242 83.1695 346.659C83.0285 347.102 82.8326 347.519 82.59 347.904L86.9671 350.554C87.4346 350.837 87.7203 351.344 87.7203 351.891V360.562C87.7203 361.425 87.0211 362.125 86.1581 362.125C85.2954 362.125 84.5962 361.425 84.5962 360.562V352.771L80.097 350.048C79.9029 350.148 79.7055 350.245 79.5065 350.339C79.4842 350.349 79.4613 350.359 79.4387 350.369L76.6998 355.303L81.6888 361.712C82.2189 362.393 82.0968 363.375 81.416 363.905C81.1306 364.127 80.7928 364.235 80.4574 364.235C79.9923 364.235 79.5318 364.027 79.2236 363.632L73.6001 356.407C73.2153 355.912 73.1628 355.236 73.467 354.688L75.2108 351.547C72.9849 351.933 70.9866 352.038 70.8493 352.045C70.823 352.046 70.7971 352.047 70.7708 352.047C70.7144 352.047 70.6579 352.044 70.6024 352.038C69.5968 353.375 68.7838 354.773 68.1018 356.163L74.5434 362.751C75.1467 363.368 75.1358 364.357 74.519 364.961C74.215 365.258 73.8207 365.406 73.4268 365.406C73.0212 365.406 72.6159 365.249 72.3098 364.936L66.7556 359.256C66.398 360.172 66.0778 361.061 65.776 361.9C65.1168 363.732 64.5474 365.314 63.825 366.523C62.8424 368.166 61.5789 369 60.0704 369H57.5707C56.708 369 56.0089 368.3 56.0089 367.437C56.0089 367.388 56.0076 367.302 56.0064 367.186C55.9649 363.559 56.1242 361.364 56.5081 360.276ZM62.6303 332.465C62.6293 332.464 62.561 332.399 62.3504 332.308C62.0538 332.179 61.7599 332.124 61.4788 332.124C60.7824 332.124 60.165 332.46 59.7799 332.833C59.49 333.114 58.8592 333.876 59.2642 334.898C60.0964 337 62.3324 339.449 65.245 341.449C66.9601 342.627 68.4567 343.341 69.4998 343.707C66.8377 339.018 63.4573 333.303 62.6303 332.465ZM73.0398 335.54C73.0398 335.54 73.0224 335.449 72.9061 335.257C72.2137 334.112 71.0617 334.09 70.2856 334.419C69.5181 334.745 68.8125 335.528 69.1348 336.75C69.1479 336.801 69.1625 336.849 69.1787 336.895C69.1812 336.902 69.1824 336.909 69.1848 336.916C70.4629 339.078 71.7184 341.279 72.543 342.739C73.1671 342.028 73.8082 341.448 74.4256 340.976C74.1766 339.651 73.7701 338.226 73.4597 337.139C73.2534 336.417 73.1048 335.896 73.0398 335.54ZM85.3772 340.719C85.3772 339.857 84.6765 339.156 83.815 339.156C82.9538 339.156 82.2528 339.857 82.2528 340.719C82.2528 341.58 82.9538 342.281 83.815 342.281C84.6765 342.281 85.3772 341.58 85.3772 340.719ZM78.1793 347.51C78.5058 347.356 78.8256 347.191 79.1299 347.019C80.1739 346.427 80.5926 345.114 80.0833 344.028C79.7857 343.394 79.205 342.873 78.5675 342.668C78.3847 342.609 78.2092 342.579 78.0422 342.579C77.8161 342.579 77.6052 342.633 77.4121 342.741C75.9719 343.547 74.0026 345.183 72.749 348.411L72.6855 348.751C74.4692 348.547 76.7971 348.158 78.1793 347.51Z" fill="#F7F7F7"/>
<path d="M115.411 88.8322C115.618 87.9943 116.465 87.4831 117.302 87.6899C118.14 87.8969 118.651 88.7437 118.444 89.5813C118.371 89.8777 118.252 90.8922 118.56 94.1496L119.501 94.0577C120.451 93.9648 121.089 91.4458 121.764 88.7794C122.687 85.1346 123.95 80.1482 127.26 75.7251L127.303 75.2382C125.268 76.9564 122.685 79.6719 120.688 83.5627C120.436 84.0535 119.96 84.3543 119.449 84.4042C119.161 84.4324 118.861 84.381 118.585 84.2387C117.817 83.8448 117.514 82.9027 117.909 82.1352C119.557 78.9234 121.739 76.0671 124.398 73.6349C123.1 73.1732 121.78 72.548 120.639 71.91C118.519 70.7253 114.696 68.2181 112.906 64.7341C111.974 62.9187 112.247 60.7891 113.617 59.1763C115.082 57.454 117.378 56.7782 119.467 57.4548C120.006 57.6291 120.441 57.8583 120.798 58.1556C121.275 58.5534 122.129 59.568 123.142 60.8684C123.614 60.1047 124.295 59.4594 125.115 59.013C127.459 57.7369 130.209 58.3343 131.801 60.4658C132.119 60.8926 132.342 61.3244 132.463 61.7496C132.521 61.9498 132.733 62.4885 132.938 63.0094C133.289 63.898 133.725 65.0064 134.099 66.1473C134.718 65.9822 135.378 65.9496 136.046 66.0573C136.341 63.9644 138.036 62.261 140.23 62.0466C142.802 61.7953 145.099 63.6834 145.35 66.2559C145.443 67.2083 145.243 68.1229 144.823 68.9101C148.46 71.8403 151.349 74.8477 153.845 78.2906C154.352 78.9894 154.196 79.9661 153.498 80.4729C153.265 80.6417 153.001 80.7371 152.734 80.7632C152.2 80.8153 151.653 80.5909 151.316 80.1249C148.902 76.7945 146.081 73.8909 142.484 71.0405C142.066 71.2145 141.616 71.3308 141.142 71.3771C141.007 71.3903 140.874 71.396 140.741 71.3976C140.752 71.8265 140.713 72.2587 140.622 72.6863C140.524 73.1406 140.37 73.5746 140.166 73.9822L144.78 76.1937C145.273 76.4299 145.606 76.9067 145.66 77.4508L146.503 86.0814C146.587 86.9402 145.959 87.7045 145.1 87.7884C144.241 87.8723 143.478 87.244 143.394 86.3852L142.636 78.6311L137.893 76.3579C137.71 76.4764 137.523 76.5925 137.334 76.7048C137.313 76.7173 137.291 76.7296 137.269 76.7421L135.023 81.9181L140.612 87.812C141.206 88.4383 141.18 89.4271 140.554 90.021C140.291 90.2697 139.965 90.4097 139.632 90.4424C139.169 90.4876 138.69 90.3261 138.345 89.9624L132.046 83.3187C131.614 82.864 131.496 82.1959 131.746 81.6213L133.176 78.3256C130.998 78.9255 129.019 79.2247 128.883 79.245C128.857 79.2488 128.832 79.2519 128.806 79.2544C128.749 79.2599 128.693 79.2624 128.637 79.2617C127.766 80.6907 127.093 82.1609 126.55 83.611L133.601 89.5414C134.262 90.0964 134.347 91.082 133.792 91.7426C133.518 92.0681 133.14 92.2538 132.748 92.2921C132.345 92.3315 131.926 92.2148 131.591 91.9332L125.511 86.82C125.244 87.7665 125.011 88.6819 124.793 89.5467C124.315 91.4342 123.902 93.0645 123.301 94.3372C122.482 96.0687 121.306 97.0212 119.805 97.1679L117.317 97.411C116.458 97.4949 115.694 96.8666 115.61 96.0078C115.606 95.9583 115.596 95.873 115.584 95.758C115.19 92.1523 115.135 89.9516 115.411 88.8322ZM118.799 60.5573C118.798 60.5565 118.724 60.4984 118.505 60.4278C118.198 60.3281 117.9 60.3023 117.62 60.3297C116.927 60.3974 116.345 60.7922 115.998 61.2006C115.737 61.508 115.183 62.3282 115.686 63.3062C116.718 65.3172 119.182 67.5371 122.275 69.2447C124.097 70.2499 125.656 70.8149 126.729 71.0774C123.624 66.6694 119.704 61.3108 118.799 60.5573ZM129.459 62.6057C129.458 62.6048 129.432 62.516 129.298 62.3362C128.497 61.2643 127.349 61.3548 126.608 61.7577C125.876 62.1565 125.25 63.0044 125.69 64.1894C125.708 64.2383 125.727 64.2855 125.747 64.3292C125.751 64.3359 125.752 64.3428 125.756 64.3492C127.238 66.3767 128.701 68.4453 129.664 69.8181C130.216 69.0496 130.798 68.4103 131.366 67.8809C130.99 66.5861 130.447 65.2072 130.032 64.1555C129.756 63.4577 129.558 62.9536 129.459 62.6057ZM142.241 66.5598C142.157 65.7022 141.392 65.0728 140.534 65.1566C139.677 65.2403 139.048 66.006 139.131 66.8636C139.215 67.7209 139.981 68.3506 140.838 68.2668C141.696 68.183 142.325 67.4171 142.241 66.5598ZM135.738 74.0183C136.048 73.8338 136.35 73.6383 136.636 73.4374C137.618 72.7471 137.907 71.3988 137.294 70.3678C136.936 69.7657 136.308 69.3036 135.653 69.1615C135.465 69.1206 135.288 69.1085 135.122 69.1247C134.897 69.1467 134.692 69.221 134.51 69.3473C133.155 70.2891 131.355 72.1084 130.421 75.4436L130.391 75.7878C132.146 75.4114 134.425 74.7983 135.738 74.0183Z" fill="#F7F7F7"/>
<path d="M343.55 9.24579C343.555 9.14253 343.555 9.03905 343.55 8.93579C343.55 8.81579 343.55 8.69579 343.48 8.57579C343.421 8.3445 343.348 8.11734 343.26 7.89579C343.14 7.60391 342.989 7.32567 342.81 7.06579V7.00579C342.63 6.74037 342.423 6.49556 342.19 6.27579L341.76 5.99579L341.36 5.71579C341.239 5.62114 341.112 5.5343 340.98 5.45579C340.328 5.13235 339.607 4.97437 338.88 4.99579C337.829 4.99784 336.809 5.35285 335.984 6.00385C335.159 6.65485 334.576 7.56412 334.33 8.58579C333.679 8.40094 332.995 8.36674 332.33 8.48579C332.07 7.30579 331.75 6.16579 331.48 5.24579C331.33 4.70579 331.17 4.15579 331.13 3.94579C331.033 3.47139 330.854 3.01775 330.6 2.60579C329.27 0.295785 326.98 -0.0642145 324.35 0.505785C323.14 0.775785 321.66 2.58579 322.05 2.60579L321.51 1.90579C321.064 1.42996 320.548 1.02526 319.98 0.705785C319.567 0.434444 319.11 0.238092 318.63 0.125785C317.574 -0.104834 316.473 -0.0169848 315.468 0.378208C314.462 0.773401 313.596 1.45816 312.98 2.34579C312.563 2.91494 312.27 3.56451 312.119 4.25317C311.967 4.94183 311.961 5.65449 312.1 6.34579C312.212 6.9283 312.425 7.4867 312.73 7.99579C314.56 10.8958 317.86 12.9158 320.15 13.9958H320.22C320.788 14.36 321.376 14.6938 321.98 14.9958L324.98 16.3658C324.87 16.5225 324.776 16.6901 324.7 16.8658C324.7 16.8658 323.7 18.8658 324.03 19.9358C324.36 21.0058 325.91 20.9958 325.92 20.9958C327.38 20.9032 328.836 20.7363 330.28 20.4958L334.51 19.3158H334.58L335.17 19.0258L335.95 18.5758L336.69 17.9558L337.69 16.8758C338.166 16.1268 338.447 15.271 338.51 14.3858H338.76H338.98C340.125 14.3801 341.228 13.9528 342.078 13.1855C342.929 12.4182 343.467 11.3645 343.59 10.2258C343.604 10.0862 343.604 9.9454 343.59 9.80579C343.588 9.61845 343.575 9.43139 343.55 9.24579ZM321.55 11.1558C321.17 10.9258 320.77 10.6658 320.36 10.3858C318.656 9.25717 317.13 7.88222 315.83 6.30579C315.76 6.14579 315.69 5.99579 315.63 5.84579C315.496 5.4904 315.474 5.1025 315.567 4.73423C315.66 4.36597 315.863 4.03499 316.15 3.78579C316.353 3.58377 316.595 3.42544 316.862 3.32053C317.128 3.21563 317.413 3.16637 317.7 3.17579C318.02 3.18421 318.336 3.25556 318.63 3.38579C319.046 3.65311 319.411 3.99162 319.71 4.38579C319.71 4.38579 323.71 11.1758 324.57 12.6658C323.502 12.2648 322.477 11.759 321.51 11.1558H321.55ZM324.29 5.85579C324.29 5.85579 324.29 5.76579 324.29 5.71579C324.148 5.25274 324.189 4.75286 324.405 4.31929C324.62 3.88572 324.995 3.55157 325.45 3.38579C325.897 3.18772 326.402 3.16078 326.869 3.31006C327.335 3.45935 327.73 3.7745 327.98 4.19579C328.035 4.28291 328.079 4.37708 328.11 4.47579C328.223 5.01581 328.363 5.54982 328.53 6.07579C328.84 7.16579 329.25 8.58579 329.53 9.91579C328.843 10.4391 328.21 11.0286 327.64 11.6758C326.79 10.2158 325.53 7.99579 324.25 5.85579H324.29ZM334.29 15.9558C333.99 16.1258 333.67 16.2958 333.34 16.4458C331.577 17.1146 329.729 17.532 327.85 17.6858L327.91 17.3458C328.743 14.9638 330.394 12.9546 332.57 11.6758C332.762 11.5691 332.979 11.514 333.2 11.5158C333.38 11.518 333.559 11.5484 333.73 11.6058C334.047 11.7311 334.336 11.9187 334.58 12.1574C334.824 12.3961 335.018 12.6811 335.15 12.9958C335.397 13.5237 335.437 14.1255 335.261 14.6815C335.085 15.2374 334.706 15.7066 334.2 15.9958L334.29 15.9558ZM340.51 9.95579C340.48 10.0791 340.44 10.1995 340.39 10.3158C340.359 10.3824 340.322 10.446 340.28 10.5058C340.238 10.5756 340.188 10.6395 340.13 10.6958C340.113 10.6996 340.096 10.6996 340.08 10.6958C340.019 10.7661 339.948 10.8268 339.87 10.8758C339.81 10.9183 339.746 10.9551 339.68 10.9858C339.562 11.0439 339.438 11.0875 339.31 11.1158C338.971 11.1875 338.618 11.1416 338.31 10.9858C338.257 10.9652 338.206 10.9384 338.16 10.9058C338.099 10.8681 338.042 10.8246 337.99 10.7758C337.932 10.731 337.878 10.6808 337.83 10.6258C337.777 10.5632 337.731 10.4963 337.69 10.4258C337.597 10.2709 337.529 10.1021 337.49 9.92579C337.494 9.90606 337.494 9.88551 337.49 9.86579C337.484 9.78254 337.484 9.69903 337.49 9.61579C337.48 9.56626 337.48 9.51532 337.49 9.46579C337.479 9.42305 337.479 9.37852 337.49 9.33579C337.508 9.25122 337.532 9.16775 337.56 9.08579C337.587 9.00983 337.62 8.93625 337.66 8.86579C337.688 8.79868 337.728 8.73757 337.78 8.68579C337.811 8.63497 337.848 8.58798 337.89 8.54579L337.94 8.49579C337.95 8.45173 337.964 8.40833 337.98 8.36579C338.153 8.24788 338.346 8.16311 338.55 8.11579H339.1C339.223 8.13503 339.344 8.16859 339.46 8.21579C339.548 8.25255 339.632 8.29954 339.71 8.35579C339.875 8.46779 340.018 8.61034 340.13 8.77579C340.176 8.8367 340.213 8.90409 340.24 8.97579C340.299 9.08927 340.343 9.2104 340.37 9.33579C340.379 9.43888 340.379 9.54269 340.37 9.64579C340.4 9.76016 340.416 9.87759 340.42 9.99579L340.51 9.95579Z" fill="#F7F7F7"/>
<path d="M345.55 368.246C345.555 368.143 345.555 368.039 345.55 367.936C345.55 367.816 345.55 367.696 345.48 367.576C345.421 367.345 345.348 367.117 345.26 366.896C345.14 366.604 344.989 366.326 344.81 366.066V366.006C344.63 365.74 344.423 365.496 344.19 365.276L343.76 364.996L343.36 364.716C343.239 364.621 343.112 364.534 342.98 364.456C342.328 364.132 341.607 363.974 340.88 363.996C339.829 363.998 338.809 364.353 337.984 365.004C337.159 365.655 336.576 366.564 336.33 367.586C335.679 367.401 334.995 367.367 334.33 367.486C334.07 366.306 333.75 365.166 333.48 364.246C333.33 363.706 333.17 363.156 333.13 362.946C333.033 362.471 332.854 362.018 332.6 361.606C331.27 359.296 328.98 358.936 326.35 359.506C325.14 359.776 323.66 361.586 324.05 361.606L323.51 360.906C323.064 360.43 322.548 360.025 321.98 359.706C321.567 359.434 321.11 359.238 320.63 359.126C319.574 358.895 318.473 358.983 317.468 359.378C316.462 359.773 315.596 360.458 314.98 361.346C314.563 361.915 314.27 362.565 314.119 363.253C313.967 363.942 313.961 364.654 314.1 365.346C314.212 365.928 314.425 366.487 314.73 366.996C316.56 369.896 319.86 371.916 322.15 372.996H322.22C322.788 373.36 323.376 373.694 323.98 373.996L326.98 375.366C326.87 375.523 326.776 375.69 326.7 375.866C326.7 375.866 325.7 377.866 326.03 378.936C326.36 380.006 327.91 379.996 327.92 379.996C329.38 379.903 330.836 379.736 332.28 379.496L336.51 378.316H336.58L337.17 378.026L337.95 377.576L338.69 376.956L339.69 375.876C340.166 375.127 340.447 374.271 340.51 373.386H340.76H340.98C342.125 373.38 343.228 372.953 344.078 372.185C344.929 371.418 345.467 370.365 345.59 369.226C345.604 369.086 345.604 368.945 345.59 368.806C345.588 368.618 345.575 368.431 345.55 368.246ZM323.55 370.156C323.17 369.926 322.77 369.666 322.36 369.386C320.656 368.257 319.13 366.882 317.83 365.306C317.76 365.146 317.69 364.996 317.63 364.846C317.496 364.49 317.474 364.102 317.567 363.734C317.66 363.366 317.863 363.035 318.15 362.786C318.353 362.584 318.595 362.425 318.862 362.321C319.128 362.216 319.413 362.166 319.7 362.176C320.02 362.184 320.336 362.256 320.63 362.386C321.046 362.653 321.411 362.992 321.71 363.386C321.71 363.386 325.71 370.176 326.57 371.666C325.502 371.265 324.477 370.759 323.51 370.156H323.55ZM326.29 364.856C326.29 364.856 326.29 364.766 326.29 364.716C326.148 364.253 326.189 363.753 326.405 363.319C326.62 362.886 326.995 362.552 327.45 362.386C327.897 362.188 328.402 362.161 328.869 362.31C329.335 362.459 329.73 362.774 329.98 363.196C330.035 363.283 330.079 363.377 330.11 363.476C330.223 364.016 330.363 364.55 330.53 365.076C330.84 366.166 331.25 367.586 331.53 368.916C330.843 369.439 330.21 370.029 329.64 370.676C328.79 369.216 327.53 366.996 326.25 364.856H326.29ZM336.29 374.956C335.99 375.126 335.67 375.296 335.34 375.446C333.577 376.115 331.729 376.532 329.85 376.686L329.91 376.346C330.743 373.964 332.394 371.955 334.57 370.676C334.762 370.569 334.979 370.514 335.2 370.516C335.38 370.518 335.559 370.548 335.73 370.606C336.047 370.731 336.336 370.919 336.58 371.157C336.824 371.396 337.018 371.681 337.15 371.996C337.397 372.524 337.437 373.126 337.261 373.681C337.085 374.237 336.706 374.707 336.2 374.996L336.29 374.956ZM342.51 368.956C342.48 369.079 342.44 369.2 342.39 369.316C342.359 369.382 342.322 369.446 342.28 369.506C342.238 369.576 342.188 369.639 342.13 369.696C342.113 369.7 342.096 369.7 342.08 369.696C342.019 369.766 341.948 369.827 341.87 369.876C341.81 369.918 341.746 369.955 341.68 369.986C341.562 370.044 341.438 370.088 341.31 370.116C340.971 370.188 340.618 370.142 340.31 369.986C340.257 369.965 340.206 369.938 340.16 369.906C340.099 369.868 340.042 369.825 339.99 369.776C339.932 369.731 339.878 369.681 339.83 369.626C339.777 369.563 339.731 369.496 339.69 369.426C339.597 369.271 339.529 369.102 339.49 368.926C339.494 368.906 339.494 368.886 339.49 368.866C339.484 368.783 339.484 368.699 339.49 368.616C339.48 368.566 339.48 368.515 339.49 368.466C339.479 368.423 339.479 368.379 339.49 368.336C339.508 368.251 339.532 368.168 339.56 368.086C339.587 368.01 339.62 367.936 339.66 367.866C339.688 367.799 339.728 367.738 339.78 367.686C339.811 367.635 339.848 367.588 339.89 367.546L339.94 367.496C339.95 367.452 339.964 367.408 339.98 367.366C340.153 367.248 340.346 367.163 340.55 367.116H341.1C341.223 367.135 341.344 367.169 341.46 367.216C341.548 367.253 341.632 367.3 341.71 367.356C341.875 367.468 342.018 367.61 342.13 367.776C342.176 367.837 342.213 367.904 342.24 367.976C342.299 368.089 342.343 368.21 342.37 368.336C342.379 368.439 342.379 368.543 342.37 368.646C342.4 368.76 342.416 368.878 342.42 368.996L342.51 368.956Z" fill="#F7F7F7"/>
<path d="M979.05 227.246C979.044 227.143 979.044 227.039 979.05 226.936C979.05 226.816 979.05 226.696 979.12 226.576C979.178 226.345 979.252 226.117 979.34 225.896C979.46 225.604 979.611 225.326 979.79 225.066V225.006C979.969 224.74 980.177 224.496 980.41 224.276L980.84 223.996L981.24 223.716C981.361 223.621 981.488 223.534 981.62 223.456C982.272 223.132 982.993 222.974 983.72 222.996C984.771 222.998 985.791 223.353 986.616 224.004C987.441 224.655 988.023 225.564 988.27 226.586C988.92 226.401 989.604 226.367 990.27 226.486C990.53 225.306 990.85 224.166 991.12 223.246C991.27 222.706 991.43 222.156 991.47 221.946C991.566 221.471 991.746 221.018 992 220.606C993.33 218.296 995.62 217.936 998.25 218.506C999.46 218.776 1000.94 220.586 1000.55 220.606L1001.09 219.906C1001.54 219.43 1002.05 219.025 1002.62 218.706C1003.03 218.434 1003.49 218.238 1003.97 218.126C1005.03 217.895 1006.13 217.983 1007.13 218.378C1008.14 218.773 1009 219.458 1009.62 220.346C1010.04 220.915 1010.33 221.565 1010.48 222.253C1010.63 222.942 1010.64 223.654 1010.5 224.346C1010.39 224.928 1010.17 225.487 1009.87 225.996C1008.04 228.896 1004.74 230.916 1002.45 231.996H1002.38C1001.81 232.36 1001.22 232.694 1000.62 232.996L997.62 234.366C997.73 234.523 997.824 234.69 997.9 234.866C997.9 234.866 998.9 236.866 998.57 237.936C998.24 239.006 996.69 238.996 996.68 238.996C995.219 238.903 993.764 238.736 992.32 238.496L988.09 237.316H988.02L987.43 237.026L986.65 236.576L985.91 235.956L984.91 234.876C984.434 234.127 984.152 233.271 984.09 232.386H983.84H983.62C982.475 232.38 981.371 231.953 980.521 231.185C979.671 230.418 979.133 229.365 979.01 228.226C978.995 228.086 978.995 227.945 979.01 227.806C979.011 227.618 979.025 227.431 979.05 227.246ZM1001.05 229.156C1001.43 228.926 1001.83 228.666 1002.24 228.386C1003.94 227.257 1005.47 225.882 1006.77 224.306C1006.84 224.146 1006.91 223.996 1006.97 223.846C1007.1 223.49 1007.13 223.102 1007.03 222.734C1006.94 222.366 1006.74 222.035 1006.45 221.786C1006.25 221.584 1006 221.425 1005.74 221.321C1005.47 221.216 1005.19 221.166 1004.9 221.176C1004.58 221.184 1004.26 221.256 1003.97 221.386C1003.55 221.653 1003.19 221.992 1002.89 222.386C1002.89 222.386 998.89 229.176 998.03 230.666C999.097 230.265 1000.12 229.759 1001.09 229.156H1001.05ZM998.31 223.856C998.31 223.856 998.31 223.766 998.31 223.716C998.452 223.253 998.411 222.753 998.195 222.319C997.979 221.886 997.605 221.552 997.15 221.386C996.702 221.188 996.197 221.161 995.731 221.31C995.265 221.459 994.869 221.774 994.62 222.196C994.564 222.283 994.521 222.377 994.49 222.476C994.377 223.016 994.237 223.55 994.07 224.076C993.76 225.166 993.35 226.586 993.07 227.916C993.756 228.439 994.389 229.029 994.96 229.676C995.81 228.216 997.07 225.996 998.35 223.856H998.31ZM988.31 233.956C988.61 234.126 988.93 234.296 989.26 234.446C991.023 235.115 992.871 235.532 994.75 235.686L994.69 235.346C993.857 232.964 992.205 230.955 990.03 229.676C989.837 229.569 989.62 229.514 989.4 229.516C989.22 229.518 989.041 229.548 988.87 229.606C988.553 229.731 988.263 229.919 988.02 230.157C987.776 230.396 987.582 230.681 987.45 230.996C987.202 231.524 987.163 232.126 987.339 232.681C987.515 233.237 987.894 233.707 988.4 233.996L988.31 233.956ZM982.09 227.956C982.119 228.079 982.16 228.2 982.21 228.316C982.241 228.382 982.277 228.446 982.32 228.506C982.361 228.576 982.412 228.639 982.47 228.696C982.486 228.7 982.504 228.7 982.52 228.696C982.58 228.766 982.651 228.827 982.73 228.876C982.79 228.918 982.853 228.955 982.92 228.986C983.038 229.044 983.162 229.088 983.29 229.116C983.628 229.188 983.981 229.142 984.29 228.986C984.343 228.965 984.393 228.938 984.44 228.906C984.501 228.868 984.558 228.825 984.61 228.776C984.668 228.731 984.722 228.681 984.77 228.626C984.822 228.563 984.869 228.496 984.91 228.426C985.003 228.271 985.07 228.102 985.11 227.926C985.105 227.906 985.105 227.886 985.11 227.866C985.115 227.783 985.115 227.699 985.11 227.616C985.12 227.566 985.12 227.515 985.11 227.466C985.12 227.423 985.12 227.379 985.11 227.336C985.091 227.251 985.068 227.168 985.04 227.086C985.013 227.01 984.979 226.936 984.94 226.866C984.912 226.799 984.871 226.738 984.82 226.686C984.789 226.635 984.752 226.588 984.71 226.546L984.66 226.496C984.649 226.452 984.636 226.408 984.62 226.366C984.447 226.248 984.254 226.163 984.05 226.116H983.5C983.377 226.135 983.256 226.169 983.14 226.216C983.051 226.253 982.968 226.3 982.89 226.356C982.725 226.468 982.582 226.61 982.47 226.776C982.424 226.837 982.387 226.904 982.36 226.976C982.3 227.089 982.257 227.21 982.23 227.336C982.22 227.439 982.22 227.543 982.23 227.646C982.2 227.76 982.183 227.878 982.18 227.996L982.09 227.956Z" fill="#F7F7F7"/>
<path d="M678.242 111.579C678.201 111.484 678.165 111.387 678.135 111.288C678.093 111.176 678.052 111.063 678.076 110.926C678.051 110.689 678.041 110.45 678.047 110.212C678.059 109.897 678.104 109.583 678.183 109.278L678.162 109.221C678.238 108.91 678.349 108.609 678.492 108.322L678.798 107.911L679.077 107.51C679.158 107.379 679.247 107.254 679.344 107.134C679.843 106.606 680.465 106.208 681.155 105.977C682.142 105.616 683.222 105.596 684.221 105.922C685.22 106.248 686.081 106.9 686.666 107.773C687.212 107.375 687.842 107.107 688.508 106.988C688.344 105.791 688.25 104.611 688.186 103.654C688.14 103.096 688.1 102.524 688.065 102.313C687.991 101.835 688.003 101.347 688.099 100.873C688.549 98.2456 690.573 97.1164 693.238 96.7424C694.467 96.5776 696.481 97.7646 696.122 97.9182L696.387 97.0747C696.641 96.4742 696.985 95.9161 697.408 95.4199C697.701 95.0228 698.062 94.6806 698.475 94.4091C699.386 93.8278 700.449 93.53 701.529 93.5533C702.609 93.5765 703.659 93.9199 704.544 94.5398C705.131 94.93 705.631 95.4383 706.011 96.0321C706.391 96.626 706.643 97.2925 706.752 97.9892C706.848 98.5747 706.841 99.1723 706.731 99.7553C706.016 103.109 703.617 106.145 701.841 107.95L701.776 107.974C701.368 108.512 700.932 109.029 700.47 109.521L698.128 111.843C698.286 111.952 698.431 112.077 698.564 112.215C698.564 112.215 700.193 113.747 700.253 114.865C700.313 115.983 698.855 116.509 698.846 116.513C697.443 116.931 696.02 117.277 694.582 117.55L690.205 117.905L690.139 117.929L689.485 117.861L688.598 117.708L687.689 117.382L686.377 116.714C685.672 116.176 685.112 115.47 684.747 114.661L684.513 114.747L684.306 114.823C683.23 115.214 682.047 115.194 680.984 114.768C679.921 114.341 679.052 113.539 678.543 112.513C678.481 112.387 678.432 112.254 678.398 112.118C678.334 111.942 678.282 111.762 678.242 111.579ZM699.546 105.769C699.823 105.421 700.109 105.039 700.397 104.635C701.605 102.987 702.563 101.169 703.238 99.2407C703.248 99.0664 703.262 98.9014 703.267 98.7399C703.269 98.3601 703.156 97.9885 702.942 97.6751C702.727 97.3616 702.422 97.1214 702.067 96.9866C701.806 96.8672 701.524 96.8023 701.238 96.796C700.951 96.7897 700.667 96.842 700.401 96.9498C700.103 97.0686 699.831 97.2447 699.601 97.4682C699.303 97.8628 699.077 98.3068 698.933 98.7799C698.933 98.7799 697.526 106.534 697.234 108.229C698.097 107.484 698.884 106.655 699.584 105.755L699.546 105.769ZM695.144 101.742C695.144 101.742 695.112 101.658 695.095 101.611C695.068 101.127 694.857 100.672 694.505 100.34C694.152 100.008 693.686 99.8234 693.201 99.8251C692.713 99.794 692.23 99.9432 691.844 100.244C691.458 100.546 691.196 100.978 691.107 101.46C691.085 101.56 691.077 101.664 691.082 101.767C691.162 102.313 691.215 102.863 691.241 103.414C691.327 104.544 691.433 106.018 691.629 107.363C692.454 107.617 693.252 107.951 694.011 108.361C694.304 106.697 694.719 104.179 695.181 101.728L695.144 101.742ZM689.25 114.676C689.59 114.731 689.949 114.78 690.311 114.807C692.196 114.825 694.075 114.579 695.891 114.073L695.717 113.775C694.112 111.828 691.868 110.513 689.385 110.065C689.167 110.031 688.945 110.055 688.738 110.132C688.57 110.197 688.413 110.287 688.272 110.4C688.018 110.627 687.811 110.903 687.665 111.212C687.519 111.52 687.435 111.854 687.42 112.195C687.37 112.776 687.541 113.355 687.898 113.815C688.255 114.276 688.773 114.586 689.348 114.682L689.25 114.676ZM681.34 111.195C681.41 111.3 681.489 111.399 681.577 111.491C681.629 111.543 681.685 111.59 681.746 111.631C681.808 111.683 681.878 111.725 681.952 111.758C681.969 111.756 681.985 111.75 681.999 111.741C682.08 111.786 682.167 111.818 682.258 111.837C682.329 111.856 682.401 111.869 682.475 111.874C682.605 111.888 682.737 111.886 682.867 111.869C683.209 111.819 683.524 111.654 683.76 111.401C683.803 111.363 683.841 111.321 683.873 111.274C683.917 111.218 683.956 111.157 683.988 111.093C684.027 111.031 684.06 110.966 684.086 110.897C684.114 110.821 684.134 110.742 684.148 110.661C684.182 110.484 684.187 110.302 684.163 110.123C684.152 110.106 684.145 110.087 684.143 110.067C684.119 109.987 684.09 109.908 684.056 109.832C684.048 109.782 684.031 109.734 684.004 109.691C683.999 109.648 683.984 109.606 683.959 109.569C683.913 109.496 683.862 109.426 683.807 109.359C683.756 109.297 683.699 109.24 683.637 109.187C683.588 109.134 683.529 109.091 683.463 109.06C683.416 109.023 683.365 108.991 683.311 108.966L683.247 108.937C683.221 108.899 683.194 108.863 683.164 108.828C682.961 108.778 682.751 108.765 682.543 108.791L682.027 108.981C681.918 109.042 681.816 109.115 681.724 109.199C681.653 109.264 681.591 109.337 681.538 109.417C681.421 109.579 681.336 109.762 681.289 109.956C681.266 110.029 681.255 110.105 681.254 110.182C681.238 110.309 681.239 110.438 681.257 110.565C681.283 110.665 681.319 110.762 681.364 110.855C681.375 110.973 681.4 111.089 681.438 111.201L681.34 111.195Z" fill="#F7F7F7"/>
<path d="M910.859 553.53C910.859 559.587 908.6 565.425 904.523 569.904C900.446 574.383 894.845 577.18 888.815 577.748C888.055 577.854 887.295 577.854 886.535 577.854H855.369C854.861 577.856 854.354 577.83 853.849 577.778C851.61 577.554 849.449 576.837 847.522 575.677C845.594 574.517 843.948 572.943 842.702 571.07C841.457 569.197 840.642 567.071 840.317 564.845C839.993 562.619 840.166 560.348 840.825 558.197C841.484 556.046 842.612 554.068 844.128 552.406C845.644 550.744 847.51 549.439 849.592 548.585C851.673 547.732 853.918 547.351 856.165 547.47C858.411 547.589 860.603 548.205 862.583 549.273C863.643 543.282 866.911 537.906 871.74 534.206C876.57 530.505 882.61 528.749 888.671 529.284C894.732 529.818 900.372 532.604 904.479 537.093C908.587 541.581 910.863 547.446 910.859 553.53Z" fill="#F7F7F7"/>
<path d="M70.7005 153.341C70.7007 159.397 68.4414 165.236 64.3645 169.715C60.2877 174.194 54.6866 176.991 48.6567 177.558C47.8966 177.665 47.1365 177.665 46.3763 177.665H15.211C14.7033 177.666 14.1958 177.641 13.6908 177.589C11.4522 177.365 9.29129 176.647 7.36376 175.487C5.43622 174.327 3.79015 172.754 2.54426 170.881C1.29838 169.008 0.483747 166.881 0.159117 164.655C-0.165513 162.429 0.00795338 160.159 0.667006 158.008C1.32606 155.857 2.45427 153.879 3.97026 152.217C5.48625 150.555 7.35223 149.25 9.43362 148.396C11.515 147.542 13.7599 147.161 16.0064 147.28C18.2529 147.399 20.445 148.015 22.4246 149.084C23.4853 143.093 26.7526 137.717 31.582 134.016C36.4114 130.316 42.4522 128.56 48.5128 129.094C54.5735 129.628 60.2138 132.415 64.3211 136.903C68.4285 141.392 70.7046 147.256 70.7005 153.341Z" fill="#F7F7F7"/>
<path d="M240.838 446.799C240.838 452.855 238.579 458.694 234.502 463.173C230.425 467.652 224.824 470.449 218.794 471.017C218.034 471.123 217.274 471.123 216.514 471.123H167.105C165.114 471.123 163.15 470.663 161.366 469.779C159.582 468.895 158.026 467.611 156.82 466.026C155.615 464.441 154.791 462.6 154.415 460.644C154.038 458.689 154.119 456.673 154.65 454.754C155.181 452.835 156.148 451.065 157.477 449.581C158.805 448.098 160.458 446.941 162.307 446.202C164.156 445.463 166.15 445.161 168.135 445.32C170.12 445.479 172.041 446.094 173.749 447.118C175.356 443.32 178.311 440.25 182.044 438.497C185.778 436.745 190.027 436.434 193.976 437.624C196.099 432.394 199.975 428.065 204.94 425.38C209.904 422.694 215.648 421.818 221.187 422.902C226.727 423.987 231.716 426.964 235.302 431.324C238.887 435.684 240.844 441.154 240.838 446.799Z" fill="#F7F7F7"/>
<path d="M1096.33 153.35C1096.33 159.406 1094.07 165.245 1089.99 169.724C1085.92 174.203 1080.31 177 1074.28 177.567C1073.52 177.674 1072.76 177.674 1072 177.674H1022.6C1020.6 177.674 1018.64 177.214 1016.86 176.33C1015.07 175.446 1013.52 174.161 1012.31 172.577C1011.1 170.992 1010.28 169.15 1009.9 167.195C1009.53 165.24 1009.61 163.224 1010.14 161.305C1010.67 159.386 1011.64 157.615 1012.97 156.132C1014.29 154.649 1015.95 153.492 1017.8 152.753C1019.65 152.014 1021.64 151.712 1023.63 151.871C1025.61 152.03 1027.53 152.645 1029.24 153.669C1030.85 149.871 1033.8 146.8 1037.53 145.048C1041.27 143.295 1045.52 142.985 1049.47 144.175C1051.59 138.945 1055.47 134.616 1060.43 131.93C1065.39 129.244 1071.14 128.369 1076.68 129.453C1082.22 130.538 1087.21 133.515 1090.79 137.875C1094.38 142.234 1096.33 147.705 1096.33 153.35Z" fill="#F7F7F7"/>
</svg>
