<svg width="20" height="17" viewBox="0 0 20 17" fill="none" xmlns="http://www.w3.org/2000/svg">
<path d="M3.51788 6.52526C2.79863 5.68696 1.53598 5.59045 0.697678 6.30971C-0.140624 7.02896 -0.237132 8.29161 0.482121 9.12991L3.51788 6.52526ZM8.15385 15L6.63597 16.3023C7.0298 16.7613 7.6102 17.0175 8.21473 16.9991C8.81927 16.9807 9.383 16.6897 9.74817 16.2075L8.15385 15ZM19.5943 3.20753C20.2612 2.32701 20.0881 1.07258 19.2075 0.405678C18.327 -0.261224 17.0726 -0.0880535 16.4057 0.792466L19.5943 3.20753ZM0.482121 9.12991L6.63597 16.3023L9.67173 13.6977L3.51788 6.52526L0.482121 9.12991ZM9.74817 16.2075L19.5943 3.20753L16.4057 0.792466L6.55952 13.7925L9.74817 16.2075Z" fill="white"/>
</svg>
