<svg width="36" height="36" viewBox="0 0 36 36" fill="none" xmlns="http://www.w3.org/2000/svg">
<path d="M31.7595 36C32.8133 36 33.8392 35.6067 34.6223 34.8924C35.4979 34.0939 36 32.9559 36 31.7711V26.0936C36 23.939 34.392 22.1328 32.2598 21.8927C31.005 21.7512 29.7587 21.4928 28.555 21.1247C27.0486 20.664 25.4259 21.0639 24.3209 22.1687L22.0203 24.469C17.6146 22.0586 13.9408 18.3847 11.5306 13.9799L13.8313 11.6793C14.9361 10.5743 15.336 8.95166 14.875 7.445C14.507 6.24133 14.2486 4.99504 14.1071 3.74041C13.8672 1.60796 12.061 0 9.90637 0H4.22908C3.04409 0 1.90612 0.502075 1.10764 1.37769C0.305637 2.25659 -0.0914078 3.44158 0.0177956 4.62832C0.392651 8.70205 1.47239 12.6354 3.22712 16.3193C4.93286 19.9009 7.22504 23.144 10.0404 25.9594C12.8555 28.7745 16.0989 31.0671 19.6805 32.7727C23.3646 34.5272 27.2979 35.6071 31.3717 35.9822C31.5011 35.9943 31.6303 36 31.7595 36ZM27.3032 23.7496C27.4456 23.7496 27.5904 23.7709 27.7321 23.8142C29.101 24.233 30.5183 24.5268 31.9449 24.6876C32.6531 24.7674 33.1875 25.3718 33.1875 26.0936V31.7711C33.1875 32.1732 33.0238 32.5437 32.7267 32.8144C32.4264 33.0888 32.0366 33.2191 31.6296 33.1814C16.3426 31.7744 4.22556 19.6572 2.81843 4.37036C2.78086 3.96343 2.91138 3.57363 3.18538 3.27305C3.45652 2.9762 3.82698 2.8125 4.22908 2.8125H9.90637C10.6282 2.8125 11.2326 3.34666 11.3126 4.05505C11.4732 5.48174 11.767 6.89898 12.1856 8.26787C12.3416 8.77764 12.2104 9.32278 11.8426 9.6906L8.09692 13.4363L8.54736 14.3418C11.3559 19.9868 16.0126 24.6428 21.6587 27.452L22.5642 27.9029L26.3096 24.1572C26.5748 23.892 26.9325 23.7496 27.3032 23.7496Z" fill="#494949"/>
</svg>
