<svg width="29" height="29" viewBox="0 0 29 29" fill="none" xmlns="http://www.w3.org/2000/svg">
<path d="M14.5 22.8545C15.282 22.8545 15.916 22.2205 15.916 21.4385C15.916 20.6564 15.282 20.0225 14.5 20.0225C13.718 20.0225 13.084 20.6564 13.084 21.4385C13.084 22.2205 13.718 22.8545 14.5 22.8545Z" fill="#494949"/>
<path d="M14.5 0C6.48626 0 0 6.48518 0 14.5C0 22.5137 6.48518 29 14.5 29C22.5137 29 29 22.5148 29 14.5C29 6.48626 22.5148 0 14.5 0ZM14.5 26.7344C7.73841 26.7344 2.26562 21.2625 2.26562 14.5C2.26562 7.73841 7.73751 2.26562 14.5 2.26562C21.2616 2.26562 26.7344 7.73751 26.7344 14.5C26.7344 21.2616 21.2625 26.7344 14.5 26.7344Z" fill="#494949"/>
<path d="M14.5 7.27832C12.0015 7.27832 9.96875 9.31104 9.96875 11.8096C9.96875 12.4352 10.4759 12.9424 11.1016 12.9424C11.7272 12.9424 12.2344 12.4352 12.2344 11.8096C12.2344 10.5603 13.2507 9.54395 14.5 9.54395C15.7493 9.54395 16.7656 10.5603 16.7656 11.8096C16.7656 13.0588 15.7493 14.0752 14.5 14.0752C13.8743 14.0752 13.3672 14.5824 13.3672 15.208V18.04C13.3672 18.6657 13.8743 19.1729 14.5 19.1729C15.1257 19.1729 15.6328 18.6657 15.6328 18.04V16.1975C17.585 15.6932 19.0312 13.9171 19.0312 11.8096C19.0312 9.31104 16.9985 7.27832 14.5 7.27832Z" fill="#494949"/>
</svg>
