<svg width="22" height="23" viewBox="0 0 22 23" fill="none" xmlns="http://www.w3.org/2000/svg">
<path d="M18.9487 9.57832C18.2027 8.83943 17.3011 8.27579 16.3094 7.92845C17.8895 6.66868 18.1472 4.36896 16.8851 2.79187C15.6229 1.21478 13.3188 0.95752 11.7387 2.21729C9.74132 0.90146 7.0534 1.45087 5.73507 3.44451C4.48823 5.32997 4.90528 7.85559 6.6924 9.24196C3.28378 10.3618 0.985527 13.5453 1.00007 17.127V19.7886C1.00115 20.7069 1.74674 21.451 2.66674 21.4521H16.0001C16.9201 21.451 17.6657 20.7069 17.6667 19.7886V18.1817H19.5567C20.3544 18.1798 21.0001 17.5339 21.0001 16.7377V14.5219C21.0037 12.667 20.2653 10.8875 18.9487 9.57832ZM14.0001 2.09885C15.6569 2.09673 17.0018 3.43561 17.0039 5.08934C17.0053 6.20934 16.3804 7.23652 15.3841 7.75179C15.2937 7.79837 15.2014 7.84195 15.1054 7.88021L15.0951 7.88454C15.0837 7.88741 15.0726 7.89106 15.0617 7.89551C15.0084 7.91581 14.9517 7.93378 14.8931 7.95207C14.7111 8.01042 14.5235 8.04976 14.3334 8.06952C14.2841 8.07584 14.2371 8.0785 14.1897 8.08116C14.0611 8.08748 13.9371 8.08715 13.8124 8.08116C13.7631 8.07817 13.7161 8.07551 13.6624 8.06885C13.4736 8.04926 13.2873 8.01034 13.1064 7.95274H13.1021C13.1111 7.93744 13.1167 7.91947 13.1254 7.90483C13.2036 7.76535 13.2739 7.62162 13.3361 7.47431C13.3401 7.46433 13.3451 7.45502 13.3491 7.44537C13.4103 7.29324 13.4626 7.13774 13.5057 6.97959C13.5144 6.94898 13.5234 6.91837 13.5311 6.88743C13.5709 6.73172 13.6018 6.57386 13.6237 6.41466C13.6281 6.38472 13.6307 6.35477 13.6341 6.32483C13.6549 6.15573 13.6659 5.98552 13.6667 5.81513C13.6664 5.65473 13.6572 5.49445 13.6394 5.33504C13.6337 5.28314 13.6227 5.2329 13.6154 5.18167C13.6001 5.07587 13.5837 4.9704 13.5607 4.86693C13.5474 4.80704 13.5297 4.74882 13.5141 4.68993C13.4891 4.59678 13.4631 4.50429 13.4321 4.41313C13.4114 4.35257 13.3877 4.29369 13.3654 4.23413C13.3321 4.1473 13.2957 4.06146 13.2561 3.97729C13.2287 3.91873 13.1994 3.86117 13.1694 3.80395C13.1261 3.72177 13.0797 3.64093 13.0311 3.56141C12.9977 3.50685 12.9644 3.45295 12.9281 3.39972C12.8744 3.32053 12.8171 3.24401 12.7581 3.16683C12.7201 3.11792 12.6827 3.06702 12.6427 3.0211C12.5761 2.94325 12.5057 2.86939 12.4341 2.7962C12.3944 2.75527 12.3567 2.71335 12.3151 2.67409C12.3031 2.66278 12.2931 2.65014 12.2817 2.64082C12.7848 2.28766 13.385 2.0984 14.0001 2.09885ZM5.66673 5.81513C5.66673 3.79393 7.30836 2.15541 9.3334 2.15541C11.3584 2.15541 13.0001 3.79393 13.0001 5.81513C13.0001 5.90962 12.9965 6.00365 12.9894 6.09726C12.9834 6.17578 12.9734 6.2533 12.9627 6.33015C12.9607 6.34413 12.9597 6.3581 12.9577 6.37207C12.8785 6.87695 12.6943 7.35974 12.4171 7.78938C12.3887 7.8333 12.3614 7.87788 12.3311 7.9208L12.3291 7.92546C12.3241 7.93145 12.3197 7.93744 12.3151 7.94342C11.978 8.41424 11.5339 8.79847 11.0191 9.06463C10.6982 9.23331 10.3529 9.35117 9.99573 9.41397C9.92474 9.42861 9.85674 9.43759 9.77773 9.44724C9.71573 9.45555 9.65107 9.46121 9.59673 9.4672H9.55573C9.48407 9.47019 9.40874 9.47352 9.3334 9.47352H9.29673C9.23573 9.47352 9.17407 9.47019 9.09673 9.46786C9.0264 9.46187 8.95873 9.45555 8.8864 9.44624C8.81407 9.43692 8.74373 9.4286 8.66473 9.41297C8.30861 9.34967 7.96448 9.23148 7.64473 9.06263C6.4274 8.43599 5.66373 7.1822 5.66673 5.81513ZM17.0001 19.7886C17.0001 20.3398 16.5524 20.7867 16.0001 20.7867H2.66674C2.11444 20.7867 1.66674 20.3398 1.66674 19.7886V17.127C1.65207 13.7631 3.8524 10.7889 7.07773 9.81287C7.1714 9.78435 7.26882 9.76987 7.36673 9.76996C7.49919 9.77025 7.63044 9.79562 7.7534 9.84481C8.00661 9.94279 8.2684 10.0171 8.5354 10.0667C8.6244 10.085 8.71307 10.0967 8.79974 10.1073C8.87973 10.1183 8.9564 10.1249 9.0404 10.1326H9.0804C9.15273 10.1363 9.22473 10.1396 9.29673 10.1396H9.3334C9.4184 10.1396 9.50307 10.1363 9.59673 10.1329C9.6064 10.1329 9.6354 10.1309 9.64573 10.1303C9.72107 10.1233 9.79673 10.1166 9.8634 10.1073C9.9564 10.096 10.0421 10.0847 10.1237 10.0674C10.3946 10.0174 10.6602 9.94221 10.9171 9.84282C11.1301 9.75752 11.3658 9.74675 11.5857 9.81221C14.8039 10.7994 17.0002 13.7667 17.0001 17.127V19.7886ZM20.3334 16.7377C20.3338 17.1665 19.9864 17.5148 19.5567 17.5163H17.6667V17.127C17.6712 14.92 16.7923 12.8027 15.2254 11.2455C15.1077 11.1284 14.9861 11.0153 14.8621 10.9055C14.8237 10.8722 14.7837 10.8389 14.7447 10.8077C14.6574 10.7331 14.5701 10.6586 14.4781 10.5881C14.4301 10.5505 14.3807 10.5159 14.3321 10.4796C14.2481 10.4167 14.1654 10.3535 14.0781 10.2936C14.0247 10.257 13.9697 10.2228 13.9157 10.1872C13.8321 10.1319 13.7491 10.0767 13.6627 10.0245C13.6047 9.98921 13.5454 9.95627 13.4864 9.92233C13.4024 9.87409 13.3197 9.82585 13.2334 9.7806C13.1711 9.74733 13.1074 9.71672 13.0444 9.68512C12.9607 9.64353 12.8777 9.60194 12.7914 9.56302C12.7247 9.53241 12.6581 9.50413 12.5914 9.47552C12.5081 9.43992 12.4247 9.40498 12.3401 9.37238C12.2694 9.3451 12.1981 9.31948 12.1267 9.29419C12.0774 9.27656 12.0291 9.25693 11.9794 9.24029C12.0127 9.21501 12.0414 9.18473 12.0737 9.15845C12.1404 9.10389 12.2047 9.04766 12.2681 8.98911C12.3314 8.93055 12.3901 8.87432 12.4484 8.81377C12.5067 8.75322 12.5664 8.68701 12.6231 8.62114C12.6517 8.58787 12.6844 8.55726 12.7124 8.52133C12.7747 8.54495 12.8404 8.56558 12.9041 8.58587C13.1261 8.6564 13.3547 8.70444 13.5864 8.72927C13.6501 8.73658 13.7101 8.74058 13.7761 8.74457C13.8517 8.74823 13.9237 8.75156 13.9997 8.75156C14.0757 8.75156 14.1477 8.74823 14.2257 8.74424C14.2894 8.74058 14.3494 8.73658 14.4091 8.7296C14.6413 8.70506 14.8705 8.65711 15.0931 8.58654C15.1597 8.56558 15.2264 8.54428 15.2894 8.52C15.2997 8.51667 15.3101 8.51268 15.3201 8.50868C15.3301 8.50469 15.3331 8.50436 15.3394 8.5017C15.5058 8.43549 15.6896 8.42696 15.8614 8.47741C16.8475 8.78221 17.7449 9.32106 18.4767 10.0478C19.6684 11.2325 20.3368 12.8432 20.3334 14.5219V16.7377Z" fill="#00DA7E" stroke="#00DA7E" stroke-width="1.4"/>
</svg>
