<svg width="40" height="40" viewBox="0 0 40 40" fill="none" xmlns="http://www.w3.org/2000/svg">
<path d="M4.71167 40C3.54077 40 2.40088 39.563 1.53076 38.7693C0.557861 37.8821 0 36.6177 0 35.3013V28.9929C0 26.5989 1.78662 24.592 4.15576 24.3252C5.55005 24.168 6.93481 23.8809 8.27222 23.4719C9.94604 22.96 11.749 23.4043 12.9768 24.6318L15.533 27.1877C20.4282 24.5095 24.5103 20.4275 27.1882 15.5332L24.6318 12.9771C23.4043 11.7493 22.96 9.94629 23.4722 8.27222C23.8811 6.93481 24.1682 5.55005 24.3254 4.15601C24.592 1.78662 26.5989 0 28.9929 0H35.301C36.6177 0 37.8821 0.557861 38.7693 1.53076C39.6604 2.50732 40.1016 3.82397 39.9802 5.14258C39.5637 9.66895 38.364 14.0393 36.4143 18.1326C34.519 22.1121 31.9722 25.7156 28.844 28.8438C25.7161 31.9717 22.1123 34.519 18.1328 36.4141C14.0393 38.3635 9.66895 39.5635 5.14258 39.9802C4.99878 39.9937 4.85522 40 4.71167 40ZM9.66309 26.3884C9.50488 26.3884 9.34399 26.4121 9.18652 26.4602C7.66553 26.9255 6.09082 27.252 4.50562 27.4307C3.71875 27.5193 3.125 28.1909 3.125 28.9929V35.3013C3.125 35.748 3.30688 36.1597 3.63696 36.4604C3.9707 36.7654 4.40381 36.9102 4.85596 36.8682C21.8416 35.3049 35.3049 21.8413 36.8684 4.85596C36.9102 4.40381 36.7651 3.9707 36.4607 3.63672C36.1594 3.30688 35.7478 3.125 35.301 3.125H28.9929C28.1909 3.125 27.5193 3.71851 27.4304 4.50562C27.252 6.09082 26.9255 7.66553 26.4604 9.18652C26.2871 9.75293 26.4329 10.3586 26.8416 10.7673L31.0034 14.9292L30.5029 15.9353C27.3823 22.2075 22.2083 27.3809 15.9348 30.5022L14.9287 31.0032L10.7671 26.8413C10.4724 26.5466 10.075 26.3884 9.66309 26.3884Z" fill="#FF007C"/>
</svg>
