<svg width="28" height="26" viewBox="0 0 28 26" fill="none" xmlns="http://www.w3.org/2000/svg">
<path fill-rule="evenodd" clip-rule="evenodd" d="M14.0538 0C13.6036 0 13.1534 0.253882 12.9867 0.761137L10.505 8.31592C10.3561 8.76914 9.92485 9.07655 9.43799 9.07655H1.38054C0.298222 9.07655 -0.155503 10.4296 0.717281 11.0566L7.25654 15.756C7.64552 16.0349 7.80763 16.5258 7.6603 16.9749L5.16736 24.5634C4.9145 25.3322 5.53952 26 6.23846 26C6.4592 26 6.68759 25.9332 6.89763 25.7823L13.3905 21.1166C13.5878 20.9749 13.8208 20.904 14.0538 20.904C14.2867 20.904 14.5197 20.9749 14.717 21.1166L21.2099 25.7823C21.4199 25.9332 21.6483 26 21.869 26C22.568 26 23.193 25.3322 22.9401 24.5634L20.4472 16.9749C20.2999 16.5258 20.462 16.0349 20.851 15.756L27.3902 11.0566C28.263 10.4296 27.8093 9.07655 26.727 9.07655H18.6695C18.1827 9.07655 17.7514 8.76914 17.6025 8.31592L15.1208 0.761137C14.9541 0.253882 14.5039 0 14.0538 0Z" fill="#EBE53F"/>
</svg>
