<svg width="50" height="50" viewBox="0 0 50 50" fill="none" xmlns="http://www.w3.org/2000/svg">
<path d="M5.88959 50C4.42596 50 3.0011 49.4537 1.91345 48.4616C0.697327 47.3526 0 45.7721 0 44.1266V36.2411C0 33.2486 2.23328 30.7401 5.1947 30.4065C6.93756 30.21 8.66852 29.8511 10.3403 29.3399C12.4326 28.7 14.6863 29.2554 16.221 30.7898L19.4162 33.9847C25.5353 30.6369 30.6378 25.5344 33.9853 19.4165L30.7898 16.2213C29.2554 14.6866 28.7 12.4329 29.3402 10.3403C29.8514 8.66852 30.2103 6.93756 30.4068 5.19501C30.7401 2.23328 33.2486 0 36.2411 0H44.1263C45.7721 0 47.3526 0.697327 48.4616 1.91345C49.5755 3.13416 50.127 4.77997 49.9753 6.42822C49.4547 12.0862 47.955 17.5491 45.5179 22.6657C43.1488 27.6401 39.9652 32.1445 36.055 36.0547C32.1451 39.9646 27.6404 43.1488 22.666 45.5176C17.5491 47.9544 12.0862 49.4543 6.42822 49.9753C6.24847 49.9921 6.06903 50 5.88959 50ZM12.0789 32.9855C11.8811 32.9855 11.68 33.0151 11.4832 33.0753C9.58191 33.6569 7.61353 34.0649 5.63202 34.2883C4.64844 34.3991 3.90625 35.2386 3.90625 36.2411V44.1266C3.90625 44.6851 4.13361 45.1996 4.5462 45.5756C4.96338 45.9567 5.50476 46.1377 6.06995 46.0852C27.3019 44.1312 44.1312 27.3016 46.0855 6.06995C46.1377 5.50476 45.9564 4.96338 45.5759 4.5459C45.1993 4.13361 44.6848 3.90625 44.1263 3.90625H36.2411C35.2386 3.90625 34.3991 4.64813 34.288 5.63202C34.0649 7.61353 33.6569 9.58191 33.0756 11.4832C32.8589 12.1912 33.0411 12.9483 33.5519 13.4592L38.7543 18.6615L38.1287 19.9191C34.2279 27.7594 27.7603 34.2261 19.9185 38.1277L18.6609 38.754L13.4589 33.5516C13.0905 33.1833 12.5937 32.9855 12.0789 32.9855Z" fill="white"/>
</svg>
