<svg width="17" height="23" viewBox="0 0 17 23" fill="none" xmlns="http://www.w3.org/2000/svg">
<path d="M8.5 1.47656C4.35975 1.48129 1.00462 4.91683 1 9.15632C1 13.2967 7.96358 21.0739 8.26037 21.4033C8.32199 21.4717 8.40893 21.5107 8.5 21.5107C8.59108 21.5107 8.67785 21.4717 8.73963 21.4033C9.03642 21.0739 16 13.2967 16 9.15632C15.9954 4.91683 12.6403 1.48129 8.5 1.47656ZM8.5 20.6782C7.26093 19.2565 1.65217 12.6259 1.65217 9.15632C1.65217 5.28367 4.718 2.14437 8.5 2.14437C12.282 2.14437 15.3478 5.28367 15.3478 9.15632C15.3478 12.6259 9.73907 19.2565 8.5 20.6782Z" fill="#00DA7E" stroke="#00DA7E" stroke-width="1.4"/>
<path d="M8.50119 6.15234C6.88031 6.15234 5.56641 7.49774 5.56641 9.15747C5.56641 10.8172 6.88031 12.1626 8.50119 12.1626C10.1221 12.1626 11.436 10.8172 11.436 9.15747C11.4342 7.49855 10.1213 6.15414 8.50119 6.15234ZM8.50119 11.4948C7.24047 11.4948 6.21858 10.4484 6.21858 9.15747C6.21858 7.86653 7.24047 6.82015 8.50119 6.82015C9.76175 6.82015 10.7838 7.86653 10.7838 9.15747C10.7824 10.4478 9.76127 11.4933 8.50119 11.4948Z" fill="#00DA7E" stroke="#00DA7E" stroke-width="1.4"/>
</svg>
