<svg width="46" height="65" viewBox="0 0 46 65" fill="none" xmlns="http://www.w3.org/2000/svg">
<path d="M21.7701 60.3586L23.0169 62.1447L24.2408 60.3428C28.7304 53.7331 32.222 48.8415 34.9388 45.0431C35.0351 44.9085 35.1305 44.7751 35.2249 44.6431C37.7835 41.0663 39.6672 38.433 41.0246 36.2455C42.4462 33.9545 43.3413 32.0745 43.8612 30.0013C44.3763 27.9473 44.5 25.7911 44.5 23C44.5 11.1259 34.8741 1.5 23 1.5C11.1259 1.5 1.5 11.1259 1.5 23C1.5 25.7753 1.5912 27.9262 2.06156 29.9725C2.5383 32.0465 3.38396 33.9305 4.7799 36.2324C6.16095 38.5098 8.12135 41.2604 10.8538 45.0481C11.1788 45.4985 11.5151 45.9642 11.8632 46.4463C14.4548 50.0349 17.6998 54.5283 21.7701 60.3586Z" fill="#FF007C" stroke="#FF007C" stroke-width="3"/>
<path d="M4.5 23C4.5 13.5 12 5 22 4.5" stroke="#FFA4D0" stroke-width="3" stroke-linecap="round" stroke-linejoin="round"/>
<circle cx="23" cy="24" r="11.5" stroke="white" stroke-width="3"/>
</svg>
