<svg width="26" height="36" viewBox="0 0 26 36" fill="none" xmlns="http://www.w3.org/2000/svg">
<path d="M11.7995 32.5724L12.6308 33.7631L13.4467 32.5619C15.8291 29.0544 17.6819 26.4587 19.1242 24.4422C19.1764 24.3692 19.2282 24.2968 19.2794 24.2252C20.6348 22.3304 21.6386 20.9271 22.363 19.7598C23.1241 18.5332 23.6107 17.515 23.8936 16.3865C24.1734 15.2708 24.2389 14.1055 24.2389 12.6195C24.2389 6.20221 19.0367 1 12.6195 1C6.20221 1 1 6.20221 1 12.6195C1 14.0949 1.04808 15.2568 1.30335 16.3673C1.56287 17.4963 2.02275 18.5171 2.77104 19.7511C3.5094 20.9687 4.55555 22.4362 6.00511 24.4455C6.17769 24.6847 6.35629 24.932 6.54114 25.188C7.91721 27.0935 9.63929 29.4781 11.7995 32.5724Z" fill="white" stroke="#494949" stroke-width="2"/>
<path d="M4.5 13C5 8.5 7 5 13 4.5" stroke="#E6E6E6" stroke-width="2" stroke-linecap="round" stroke-linejoin="round"/>
<circle cx="13" cy="13" r="5" stroke="#494949" stroke-width="2"/>
</svg>
