<svg width="18" height="11" viewBox="0 0 18 11" fill="none" xmlns="http://www.w3.org/2000/svg">
<path d="M9.70236 10.4785L17.7124 2.90369C17.8979 2.72849 18 2.49462 18 2.24525C18 1.99588 17.8979 1.76201 17.7124 1.58682L17.1227 1.02898C16.7384 0.666 16.1138 0.666 15.7301 1.02898L9.00373 7.38973L2.26988 1.02193C2.08447 0.846731 1.8373 0.749999 1.57374 0.749999C1.30989 0.749999 1.06272 0.846731 0.877163 1.02193L0.287558 1.57976C0.102144 1.75509 -5.03731e-08 1.98882 -6.0513e-08 2.23819C-7.06529e-08 2.48757 0.102144 2.72144 0.287558 2.89663L8.30496 10.4785C8.49095 10.6541 8.73929 10.7506 9.00329 10.75C9.26831 10.7506 9.51651 10.6541 9.70236 10.4785Z" fill="#FF007C"/>
</svg>
