<svg width="29" height="17" viewBox="0 0 29 17" fill="none" xmlns="http://www.w3.org/2000/svg">
<path d="M15.6316 16.5384L28.5367 3.66127C28.8354 3.36344 29 2.96586 29 2.54193C29 2.118 28.8354 1.72042 28.5367 1.42259L27.5866 0.474274C26.9674 -0.1428 25.9612 -0.1428 25.343 0.474274L14.506 11.2875L3.65704 0.462275C3.35831 0.164442 2.9601 -1.13824e-06 2.53547 -1.1568e-06C2.11038 -1.17538e-06 1.71216 0.164442 1.41321 0.462275L0.463287 1.41059C0.164566 1.70866 -9.20563e-08 2.106 -1.10587e-07 2.52993C-1.29117e-07 2.95386 0.164566 3.35144 0.463287 3.64927L13.3802 16.5384C13.6799 16.837 14.08 17.0009 14.5053 17C14.9323 17.0009 15.3322 16.837 15.6316 16.5384Z" fill="#FF007C"/>
</svg>
