<svg width="18" height="10" viewBox="0 0 18 10" fill="none" xmlns="http://www.w3.org/2000/svg">
<path d="M9.70236 0.271513L17.7124 7.84631C17.8979 8.02151 18 8.25538 18 8.50475C18 8.75412 17.8979 8.98799 17.7124 9.16318L17.1227 9.72102C16.7384 10.084 16.1138 10.084 15.7301 9.72102L9.00373 3.36027L2.26988 9.72807C2.08447 9.90327 1.8373 10 1.57374 10C1.30989 10 1.06272 9.90327 0.877163 9.72807L0.287558 9.17024C0.102144 8.99491 -5.03731e-08 8.76118 -6.0513e-08 8.51181C-7.06529e-08 8.26243 0.102144 8.02856 0.287558 7.85337L8.30496 0.271513C8.49095 0.0959029 8.73929 -0.000551742 9.00329 2.3301e-06C9.26831 -0.000551767 9.51651 0.0959028 9.70236 0.271513Z" fill="#FF007C"/>
</svg>
