<svg width="215" height="260" viewBox="0 0 215 260" fill="none" xmlns="http://www.w3.org/2000/svg">
<path d="M208.816 30.9171L109.198 0.321445C107.803 -0.107148 106.317 -0.107148 104.921 0.321445L5.30205 30.9171C2.15524 31.8835 0 34.8491 0 38.2129V150.397C0 164.988 5.7703 179.925 17.1497 194.792C25.8406 206.147 37.8648 217.549 52.8871 228.682C78.1235 247.383 102.974 258.856 104.02 259.335C104.986 259.778 106.023 260 107.06 260C108.097 260 109.133 259.779 110.1 259.335C111.145 258.856 135.995 247.383 161.232 228.682C176.254 217.549 188.278 206.147 196.969 194.792C208.348 179.926 214.118 164.989 214.118 150.397V38.2129C214.118 34.8491 211.963 31.8835 208.816 30.9171Z" fill="#00E87E"/>
</svg>
