<svg width="99" height="83" viewBox="0 0 99 83" fill="none" xmlns="http://www.w3.org/2000/svg">
<g opacity="0.1" filter="url(#filter0_d)">
<path fill-rule="evenodd" clip-rule="evenodd" d="M57.4459 0H36V21.1287L49.6187 35.5623L36 49.9962V72H57.4706L93 35.5332L57.4459 0ZM42.3 18.6462V6.26968H54.8293L84.1679 35.5915L54.8046 65.7298H42.3V52.4779L58.2605 35.5624L42.3 18.6462Z" fill="url(#paint0_linear)"/>
</g>
<g opacity="0.1" filter="url(#filter1_d)">
<path fill-rule="evenodd" clip-rule="evenodd" d="M37.4459 0H16V21.1287L29.6187 35.5623L16 49.9962V72H37.4706L73 35.5332L37.4459 0ZM22.3 18.6462V6.26968H34.8293L64.1679 35.5915L34.8046 65.7298H22.3V52.4779L38.2605 35.5624L22.3 18.6462Z" fill="url(#paint1_linear)"/>
</g>
<defs>
<filter id="filter0_d" x="20" y="-11" width="79" height="94" filterUnits="userSpaceOnUse" color-interpolation-filters="sRGB">
<feFlood flood-opacity="0" result="BackgroundImageFix"/>
<feColorMatrix in="SourceAlpha" type="matrix" values="0 0 0 0 0 0 0 0 0 0 0 0 0 0 0 0 0 0 127 0" result="hardAlpha"/>
<feOffset dx="-5"/>
<feGaussianBlur stdDeviation="5.5"/>
<feColorMatrix type="matrix" values="0 0 0 0 0 0 0 0 0 0.0967732 0 0 0 0 0.259137 0 0 0 0.2 0"/>
<feBlend mode="normal" in2="BackgroundImageFix" result="effect1_dropShadow"/>
<feBlend mode="normal" in="SourceGraphic" in2="effect1_dropShadow" result="shape"/>
</filter>
<filter id="filter1_d" x="0" y="-11" width="79" height="94" filterUnits="userSpaceOnUse" color-interpolation-filters="sRGB">
<feFlood flood-opacity="0" result="BackgroundImageFix"/>
<feColorMatrix in="SourceAlpha" type="matrix" values="0 0 0 0 0 0 0 0 0 0 0 0 0 0 0 0 0 0 127 0" result="hardAlpha"/>
<feOffset dx="-5"/>
<feGaussianBlur stdDeviation="5.5"/>
<feColorMatrix type="matrix" values="0 0 0 0 0 0 0 0 0 0.0967732 0 0 0 0 0.259137 0 0 0 0.2 0"/>
<feBlend mode="normal" in2="BackgroundImageFix" result="effect1_dropShadow"/>
<feBlend mode="normal" in="SourceGraphic" in2="effect1_dropShadow" result="shape"/>
</filter>
<linearGradient id="paint0_linear" x1="54.6107" y1="11.9537" x2="92.2439" y2="11.9537" gradientUnits="userSpaceOnUse">
<stop stop-color="#0D1319"/>
<stop offset="1" stop-color="white"/>
</linearGradient>
<linearGradient id="paint1_linear" x1="34.6107" y1="11.6151" x2="72.7799" y2="11.6151" gradientUnits="userSpaceOnUse">
<stop stop-color="#0D1319"/>
<stop offset="0.985956" stop-color="white"/>
</linearGradient>
</defs>
</svg>
