<svg width="498" height="280" viewBox="0 0 498 280" fill="none" xmlns="http://www.w3.org/2000/svg" preserveAspectRatio="none">
<path d="M495.286 258H279.488C267.51 258 255.789 261.474 245.745 268V268C235.701 274.526 223.98 278 212.002 278H9.52332" stroke="#E6E9EB" stroke-width="4" stroke-linecap="round" stroke-dasharray="8"/>
<path d="M495.286 238H285.745C263.654 238 245.745 220.091 245.745 198V137C245.745 114.909 227.837 97 205.745 97H7.52332" stroke="#E6E9EB" stroke-width="4" stroke-linecap="round" stroke-dasharray="8"/>
<path d="M495.286 67L275.388 67C265.945 67 256.56 68.4862 247.579 71.4042L243.911 72.5958C234.93 75.5138 225.545 77 216.102 77H0.523315" stroke="#E6E9EB" stroke-width="4" stroke-linecap="round" stroke-dasharray="8"/>
<path d="M495.286 47H263.245C250.819 47 240.745 36.9264 240.745 24.5V24.5C240.745 12.0736 230.672 2 218.245 2H118.523" stroke="#E6E9EB" stroke-width="4" stroke-linecap="round" stroke-dasharray="8"/>
</svg>
