<svg width="348" height="280" viewBox="0 0 348 280" fill="none" xmlns="http://www.w3.org/2000/svg" preserveAspectRatio="none">
<path d="M345.286 258H209.488C197.51 258 185.789 261.474 175.745 268V268C165.701 274.526 153.98 278 142.002 278H2.52332" stroke="#E6E9EB" stroke-width="4" stroke-linecap="round" stroke-dasharray="8"/>
<path d="M345.286 238H215.745C193.654 238 175.745 220.091 175.745 198V137C175.745 114.909 157.837 97 135.745 97L2.52332 97" stroke="#E6E9EB" stroke-width="4" stroke-linecap="round" stroke-dasharray="8"/>
<path d="M345.286 67L205.388 67C195.945 67 186.56 68.4862 177.579 71.4042L173.911 72.5958C164.93 75.5138 155.545 77 146.102 77H2.52332" stroke="#E6E9EB" stroke-width="4" stroke-linecap="round" stroke-dasharray="8"/>
<path d="M345.286 47H193.245C180.819 47 170.745 36.9264 170.745 24.5V24.5C170.745 12.0736 160.672 2 148.245 2H120.523" stroke="#E6E9EB" stroke-width="4" stroke-linecap="round" stroke-dasharray="8"/>
</svg>
