<svg width="183" height="206" viewBox="0 0 183 206" fill="none" xmlns="http://www.w3.org/2000/svg" preserveAspectRatio="none">
<path d="M155.763 190H108.732C97.4661 190 86.3486 192.565 76.2217 197.5V197.5C66.0949 202.435 54.9773 205 43.7119 205H0.999878" stroke="#E6E9EB" stroke-width="2" stroke-linecap="round" stroke-dasharray="8"/>
<path d="M155.763 178H106.222C89.6532 178 76.2217 164.569 76.2217 148V105C76.2217 88.4315 62.7903 75 46.2217 75L0.999878 75" stroke="#E6E9EB" stroke-width="2" stroke-linecap="round" stroke-dasharray="8"/>
<path d="M155.763 44H109.965C97.9867 44 86.2657 47.4736 76.2217 54V54C66.1778 60.5264 54.4567 64 42.4786 64H0.999878" stroke="#E6E9EB" stroke-width="2" stroke-linecap="round" stroke-dasharray="8"/>
<path d="M181.745 16V16C181.745 7.71573 175.029 1 166.745 1H139.523" stroke="#E6E9EB" stroke-width="2" stroke-linecap="round" stroke-dasharray="8"/>
</svg>
